<?xml version="1.0" encoding="UTF-8"?>
<!--Generator: Apple Native CoreSVG 232.5-->
<!DOCTYPE svg
PUBLIC "-//W3C//DTD SVG 1.1//EN"
       "http://www.w3.org/Graphics/SVG/1.1/DTD/svg11.dtd">
<svg version="1.1" xmlns="http://www.w3.org/2000/svg" xmlns:xlink="http://www.w3.org/1999/xlink" width="3300" height="2200">
 <!--glyph: "uni100540.medium", point size: 100.0, font version: "19.2d2e1", template writer version: "128"-->
 <style>.SFSymbolsPreviewWireframe {fill:none;opacity:1.0;stroke:black;stroke-width:0.5}
</style>
 <g id="Notes">
  <rect height="2200" id="artboard" style="fill:white;opacity:1" width="3300" x="0" y="0"/>
  <line style="fill:none;stroke:black;opacity:1;stroke-width:0.5;" x1="263" x2="3036" y1="292" y2="292"/>
  <text style="stroke:none;fill:black;font-family:sans-serif;font-size:13;font-weight:bold;" transform="matrix(1 0 0 1 263 322)">Weight/Scale Variations</text>
  <text style="stroke:none;fill:black;font-family:sans-serif;font-size:13;text-anchor:middle;" transform="matrix(1 0 0 1 559.711 322)">Ultralight</text>
  <text style="stroke:none;fill:black;font-family:sans-serif;font-size:13;text-anchor:middle;" transform="matrix(1 0 0 1 856.422 322)">Thin</text>
  <text style="stroke:none;fill:black;font-family:sans-serif;font-size:13;text-anchor:middle;" transform="matrix(1 0 0 1 1153.13 322)">Light</text>
  <text style="stroke:none;fill:black;font-family:sans-serif;font-size:13;text-anchor:middle;" transform="matrix(1 0 0 1 1449.84 322)">Regular</text>
  <text style="stroke:none;fill:black;font-family:sans-serif;font-size:13;text-anchor:middle;" transform="matrix(1 0 0 1 1746.56 322)">Medium</text>
  <text style="stroke:none;fill:black;font-family:sans-serif;font-size:13;text-anchor:middle;" transform="matrix(1 0 0 1 2043.27 322)">Semibold</text>
  <text style="stroke:none;fill:black;font-family:sans-serif;font-size:13;text-anchor:middle;" transform="matrix(1 0 0 1 2339.98 322)">Bold</text>
  <text style="stroke:none;fill:black;font-family:sans-serif;font-size:13;text-anchor:middle;" transform="matrix(1 0 0 1 2636.69 322)">Heavy</text>
  <text style="stroke:none;fill:black;font-family:sans-serif;font-size:13;text-anchor:middle;" transform="matrix(1 0 0 1 2933.4 322)">Black</text>
  <line style="fill:none;stroke:black;opacity:1;stroke-width:0.5;" x1="263" x2="3036" y1="1903" y2="1903"/>
  <g transform="matrix(0.2 0 0 0.2 263 1933)">
   <path d="m46.2402 4.15039c21.5332 0 39.4531-17.8711 39.4531-39.4043s-17.9688-39.4043-39.502-39.4043c-21.4844 0-39.3555 17.8711-39.3555 39.4043s17.9199 39.4043 39.4043 39.4043Zm0-7.42188c-17.7246 0-31.8848-14.209-31.8848-31.9824s14.1113-31.9824 31.8359-31.9824c17.7734 0 32.0312 14.209 32.0312 31.9824s-14.209 31.9824-31.9824 31.9824Zm-17.9688-31.9824c0 2.14844 1.51367 3.61328 3.75977 3.61328h10.498v10.5957c0 2.19727 1.46484 3.71094 3.61328 3.71094 2.24609 0 3.71094-1.51367 3.71094-3.71094v-10.5957h10.5957c2.19727 0 3.71094-1.46484 3.71094-3.61328 0-2.19727-1.51367-3.71094-3.71094-3.71094h-10.5957v-10.5469c0-2.24609-1.46484-3.75977-3.71094-3.75977-2.14844 0-3.61328 1.51367-3.61328 3.75977v10.5469h-10.498c-2.24609 0-3.75977 1.51367-3.75977 3.71094Z"/>
  </g>
  <g transform="matrix(0.2 0 0 0.2 281.506 1933)">
   <path d="m58.5449 14.5508c27.2461 0 49.8047-22.6074 49.8047-49.8047 0-27.2461-22.6074-49.8047-49.8535-49.8047-27.1973 0-49.7559 22.5586-49.7559 49.8047 0 27.1973 22.6074 49.8047 49.8047 49.8047Zm0-8.30078c-23.0469 0-41.4551-18.457-41.4551-41.5039s18.3594-41.5039 41.4062-41.5039 41.5527 18.457 41.5527 41.5039-18.457 41.5039-41.5039 41.5039Zm-22.6562-41.5039c0 2.39258 1.66016 4.00391 4.15039 4.00391h14.3555v14.4043c0 2.44141 1.66016 4.15039 4.05273 4.15039 2.44141 0 4.15039-1.66016 4.15039-4.15039v-14.4043h14.4043c2.44141 0 4.15039-1.61133 4.15039-4.00391 0-2.44141-1.70898-4.15039-4.15039-4.15039h-14.4043v-14.3555c0-2.49023-1.70898-4.19922-4.15039-4.19922-2.39258 0-4.05273 1.70898-4.05273 4.19922v14.3555h-14.3555c-2.49023 0-4.15039 1.70898-4.15039 4.15039Z"/>
  </g>
  <g transform="matrix(0.2 0 0 0.2 304.924 1933)">
   <path d="m74.8535 28.3203c34.8145 0 63.623-28.8086 63.623-63.5742 0-34.8145-28.8574-63.623-63.6719-63.623-34.7656 0-63.5254 28.8086-63.5254 63.623 0 34.7656 28.8086 63.5742 63.5742 63.5742Zm0-9.08203c-30.1758 0-54.4434-24.3164-54.4434-54.4922 0-30.2246 24.2188-54.4922 54.3945-54.4922 30.2246 0 54.541 24.2676 54.541 54.4922 0 30.1758-24.2676 54.4922-54.4922 54.4922Zm-28.8574-54.4922c0 2.58789 1.85547 4.39453 4.58984 4.39453h19.7266v19.7754c0 2.68555 1.85547 4.58984 4.44336 4.58984 2.68555 0 4.54102-1.85547 4.54102-4.58984v-19.7754h19.7754c2.68555 0 4.58984-1.80664 4.58984-4.39453 0-2.73438-1.85547-4.58984-4.58984-4.58984h-19.7754v-19.7266c0-2.73438-1.85547-4.63867-4.54102-4.63867-2.58789 0-4.44336 1.9043-4.44336 4.63867v19.7266h-19.7266c-2.73438 0-4.58984 1.85547-4.58984 4.58984Z"/>
  </g>
  <text style="stroke:none;fill:black;font-family:sans-serif;font-size:13;font-weight:bold;" transform="matrix(1 0 0 1 263 1953)">Design Variations</text>
  <text style="stroke:none;fill:black;font-family:sans-serif;font-size:13;" transform="matrix(1 0 0 1 263 1971)">Symbols are supported in up to nine weights and three scales.</text>
  <text style="stroke:none;fill:black;font-family:sans-serif;font-size:13;" transform="matrix(1 0 0 1 263 1989)">For optimal layout with text and other symbols, vertically align</text>
  <text style="stroke:none;fill:black;font-family:sans-serif;font-size:13;" transform="matrix(1 0 0 1 263 2007)">symbols with the adjacent text.</text>
  <line style="fill:none;stroke:#00AEEF;stroke-width:0.5;opacity:1.0;" x1="776" x2="776" y1="1919" y2="1933"/>
  <g transform="matrix(0.2 0 0 0.2 776 1933)">
   <path d="m16.5527 0.78125c2.58789 0 3.85742-0.976562 4.78516-3.71094l6.29883-17.2363h28.8086l6.29883 17.2363c0.927734 2.73438 2.19727 3.71094 4.73633 3.71094 2.58789 0 4.24805-1.5625 4.24805-4.00391 0-0.830078-0.146484-1.61133-0.537109-2.63672l-22.9004-60.9863c-1.12305-2.97852-3.125-4.49219-6.25-4.49219-3.02734 0-5.07812 1.46484-6.15234 4.44336l-22.9004 61.084c-0.390625 1.02539-0.537109 1.80664-0.537109 2.63672 0 2.44141 1.5625 3.95508 4.10156 3.95508Zm13.4766-28.3691 11.8652-32.8613h0.244141l11.8652 32.8613Z"/>
  </g>
  <line style="fill:none;stroke:#00AEEF;stroke-width:0.5;opacity:1.0;" x1="792.836" x2="792.836" y1="1919" y2="1933"/>
  <text style="stroke:none;fill:black;font-family:sans-serif;font-size:13;font-weight:bold;" transform="matrix(1 0 0 1 776 1953)">Margins</text>
  <text style="stroke:none;fill:black;font-family:sans-serif;font-size:13;" transform="matrix(1 0 0 1 776 1971)">Leading and trailing margins on the left and right side of each symbol</text>
  <text style="stroke:none;fill:black;font-family:sans-serif;font-size:13;" transform="matrix(1 0 0 1 776 1989)">can be adjusted by modifying the x-location of the margin guidelines.</text>
  <text style="stroke:none;fill:black;font-family:sans-serif;font-size:13;" transform="matrix(1 0 0 1 776 2007)">Modifications are automatically applied proportionally to all</text>
  <text style="stroke:none;fill:black;font-family:sans-serif;font-size:13;" transform="matrix(1 0 0 1 776 2025)">scales and weights.</text>
  <g transform="matrix(0.2 0 0 0.2 1289 1933)">
   <path d="m14.209 9.32617 8.49609 8.54492c4.29688 4.3457 9.22852 4.05273 13.8672-1.07422l53.4668-58.9355-4.83398-4.88281-53.0762 58.3984c-1.75781 2.00195-3.41797 2.49023-5.76172 0.146484l-5.85938-5.81055c-2.34375-2.29492-1.80664-4.00391 0.195312-5.81055l57.373-54.0039-4.88281-4.83398-57.959 54.4434c-4.93164 4.58984-5.32227 9.47266-1.02539 13.8184Zm32.0801-90.9668c-2.09961 2.05078-2.24609 4.93164-1.07422 6.88477 1.17188 1.80664 3.4668 2.97852 6.68945 2.14844 7.32422-1.70898 14.9414-2.00195 22.0703 2.68555l-2.92969 7.27539c-1.70898 4.15039-0.830078 7.08008 1.85547 9.81445l11.4746 11.5723c2.44141 2.44141 4.49219 2.53906 7.32422 2.05078l5.32227-0.976562 3.32031 3.36914-0.195312 2.7832c-0.195312 2.49023 0.439453 4.39453 2.88086 6.78711l3.80859 3.71094c2.39258 2.39258 5.46875 2.53906 7.8125 0.195312l14.5508-14.5996c2.34375-2.34375 2.24609-5.32227-0.146484-7.71484l-3.85742-3.80859c-2.39258-2.39258-4.24805-3.17383-6.64062-2.97852l-2.88086 0.244141-3.22266-3.17383 1.2207-5.61523c0.634766-2.83203-0.146484-5.0293-3.07617-7.95898l-10.9863-10.9375c-16.6992-16.6016-38.8672-16.2109-53.3203-1.75781Zm7.4707 1.85547c12.1582-8.88672 28.6133-7.37305 39.7461 3.75977l12.1582 12.0605c1.17188 1.17188 1.36719 2.09961 1.02539 3.80859l-1.61133 7.42188 7.51953 7.42188 4.93164-0.292969c1.26953-0.0488281 1.66016 0.0488281 2.63672 1.02539l2.88086 2.88086-12.207 12.207-2.88086-2.88086c-0.976562-0.976562-1.12305-1.36719-1.07422-2.68555l0.341797-4.88281-7.4707-7.42188-7.61719 1.26953c-1.61133 0.341797-2.34375 0.195312-3.56445-0.976562l-10.0098-10.0098c-1.26953-1.17188-1.41602-2.00195-0.634766-3.85742l4.39453-10.4492c-7.8125-7.27539-17.9688-10.4004-28.125-7.42188-0.78125 0.195312-1.07422-0.439453-0.439453-0.976562Z"/>
  </g>
  <text style="stroke:none;fill:black;font-family:sans-serif;font-size:13;font-weight:bold;" transform="matrix(1 0 0 1 1289 1953)">Exporting</text>
  <text style="stroke:none;fill:black;font-family:sans-serif;font-size:13;" transform="matrix(1 0 0 1 1289 1971)">Symbols should be outlined when exporting to ensure the</text>
  <text style="stroke:none;fill:black;font-family:sans-serif;font-size:13;" transform="matrix(1 0 0 1 1289 1989)">design is preserved when submitting to Xcode.</text>
  <text id="template-version" style="stroke:none;fill:black;font-family:sans-serif;font-size:13;text-anchor:end;" transform="matrix(1 0 0 1 3036 1933)">Template v.5.0</text>
  <text style="stroke:none;fill:black;font-family:sans-serif;font-size:13;text-anchor:end;" transform="matrix(1 0 0 1 3036 1951)">Requires Xcode 15 or greater</text>
  <text id="descriptive-name" style="stroke:none;fill:black;font-family:sans-serif;font-size:13;text-anchor:end;" transform="matrix(1 0 0 1 3036 1969)">Generated from 23.square</text>
  <text style="stroke:none;fill:black;font-family:sans-serif;font-size:13;text-anchor:end;" transform="matrix(1 0 0 1 3036 1987)">Typeset at 100.0 points</text>
  <text style="stroke:none;fill:black;font-family:sans-serif;font-size:13;" transform="matrix(1 0 0 1 263 726)">Small</text>
  <text style="stroke:none;fill:black;font-family:sans-serif;font-size:13;" transform="matrix(1 0 0 1 263 1156)">Medium</text>
  <text style="stroke:none;fill:black;font-family:sans-serif;font-size:13;" transform="matrix(1 0 0 1 263 1586)">Large</text>
 </g>
 <g id="Guides">
  <g id="H-reference" style="fill:#27AAE1;stroke:none;" transform="matrix(1 0 0 1 339 696)">
   <path d="M0.993654 0L3.63775 0L29.3281-67.1323L30.0303-67.1323L30.0303-70.459L28.1226-70.459ZM11.6885-24.4799L46.9815-24.4799L46.2315-26.7285L12.4385-26.7285ZM55.1196 0L57.7637 0L30.6382-70.459L29.4326-70.459L29.4326-67.1323Z"/>
  </g>
  <line id="Baseline-S" style="fill:none;stroke:#27AAE1;opacity:1;stroke-width:0.5;" x1="263" x2="3036" y1="696" y2="696"/>
  <line id="Capline-S" style="fill:none;stroke:#27AAE1;opacity:1;stroke-width:0.5;" x1="263" x2="3036" y1="625.541" y2="625.541"/>
  <g id="H-reference" style="fill:#27AAE1;stroke:none;" transform="matrix(1 0 0 1 339 1126)">
   <path d="M0.993654 0L3.63775 0L29.3281-67.1323L30.0303-67.1323L30.0303-70.459L28.1226-70.459ZM11.6885-24.4799L46.9815-24.4799L46.2315-26.7285L12.4385-26.7285ZM55.1196 0L57.7637 0L30.6382-70.459L29.4326-70.459L29.4326-67.1323Z"/>
  </g>
  <line id="Baseline-M" style="fill:none;stroke:#27AAE1;opacity:1;stroke-width:0.5;" x1="263" x2="3036" y1="1126" y2="1126"/>
  <line id="Capline-M" style="fill:none;stroke:#27AAE1;opacity:1;stroke-width:0.5;" x1="263" x2="3036" y1="1055.54" y2="1055.54"/>
  <g id="H-reference" style="fill:#27AAE1;stroke:none;" transform="matrix(1 0 0 1 339 1556)">
   <path d="M0.993654 0L3.63775 0L29.3281-67.1323L30.0303-67.1323L30.0303-70.459L28.1226-70.459ZM11.6885-24.4799L46.9815-24.4799L46.2315-26.7285L12.4385-26.7285ZM55.1196 0L57.7637 0L30.6382-70.459L29.4326-70.459L29.4326-67.1323Z"/>
  </g>
  <line id="Baseline-L" style="fill:none;stroke:#27AAE1;opacity:1;stroke-width:0.5;" x1="263" x2="3036" y1="1556" y2="1556"/>
  <line id="Capline-L" style="fill:none;stroke:#27AAE1;opacity:1;stroke-width:0.5;" x1="263" x2="3036" y1="1485.54" y2="1485.54"/>
  <line id="left-margin-Ultralight-S" style="fill:none;stroke:#00AEEF;stroke-width:0.5;opacity:1.0;" x1="516.35" x2="516.35" y1="600.785" y2="720.121"/>
  <line id="right-margin-Ultralight-S" style="fill:none;stroke:#00AEEF;stroke-width:0.5;opacity:1.0;" x1="603.073" x2="603.073" y1="600.785" y2="720.121"/>
  <line id="left-margin-Regular-S" style="fill:none;stroke:#00AEEF;stroke-width:0.5;opacity:1.0;" x1="1404.51" x2="1404.51" y1="600.785" y2="720.121"/>
  <line id="right-margin-Regular-S" style="fill:none;stroke:#00AEEF;stroke-width:0.5;opacity:1.0;" x1="1495.18" x2="1495.18" y1="600.785" y2="720.121"/>
  <line id="left-margin-Black-S" style="fill:none;stroke:#00AEEF;stroke-width:0.5;opacity:1.0;" x1="2885.5" x2="2885.5" y1="600.785" y2="720.121"/>
  <line id="right-margin-Black-S" style="fill:none;stroke:#00AEEF;stroke-width:0.5;opacity:1.0;" x1="2981.3" x2="2981.3" y1="600.785" y2="720.121"/>
 </g>
 <g id="Symbols">
  <g id="Black-S" transform="matrix(1 0 0 1 2885.5 696)">
   <path class="SFSymbolsPreviewWireframe" d="M25 2.92969L70.8008 2.92969C80.3711 2.92969 86.0352-2.73438 86.0352-12.3047L86.0352-58.1055C86.0352-67.6758 80.3711-73.3398 70.8008-73.3398L25-73.3398C15.4297-73.3398 9.76562-67.6758 9.76562-58.1055L9.76562-12.3047C9.76562-2.73438 15.4297 2.92969 25 2.92969ZM27.2461-11.2305C25-11.2305 23.9258-12.1094 23.9258-14.5508L23.9258-55.8594C23.9258-58.3008 25-59.1797 27.2461-59.1797L68.5547-59.1797C70.8008-59.1797 71.875-58.3008 71.875-55.8594L71.875-14.5508C71.875-12.1094 70.8008-11.2305 68.5547-11.2305ZM32.2266-21.1426L43.6523-21.1426C45.7031-21.1426 46.4355-22.5586 46.4355-23.9746C46.4355-25.4395 45.7031-26.8555 43.6523-26.8555L37.4023-26.8555L37.4023-27.1484L41.1621-31.5918C43.8477-34.7656 45.9961-37.5 45.9961-41.6504C45.9961-47.1191 42.2363-50.0977 37.1094-50.0977C32.5684-50.0977 28.7598-46.875 28.7598-42.8223C28.7598-40.9668 29.834-39.5996 31.7871-39.5996C33.252-39.5996 34.4727-40.332 35.0098-42.1387C35.3516-43.3594 35.8398-44.4824 37.1094-44.4824C38.623-44.4824 39.0137-43.0176 39.0137-41.4551C39.0137-38.916 37.3535-36.4746 35.1074-33.6426L30.7129-28.0762C29.1992-26.1719 28.8086-25.1953 28.8086-24.0234C28.8086-22.168 30.0293-21.1426 32.2266-21.1426ZM58.0566-20.4102C63.6719-20.4102 67.5293-23.6328 67.5293-28.8574C67.5293-32.4219 65.5762-35.0586 62.4023-35.498L62.4023-35.6445C64.502-36.1816 66.6992-38.623 66.6992-42.1387C66.6992-47.1191 63.1836-50.0488 57.8125-50.0488C54.1992-50.0488 50.6348-48.1934 49.6582-44.7754C49.4629-44.1895 49.3652-43.5059 49.3652-42.8223C49.3652-41.5039 50.1465-39.9414 52.3926-39.9414C53.8086-39.9414 55.3223-40.3809 55.7617-42.041C56.0059-43.0664 56.5918-44.3848 57.9102-44.3848C59.3262-44.3848 59.7656-42.7734 59.7656-41.3574C59.7656-39.6973 59.1797-37.8418 57.1289-37.8418L56.9336-37.8418C55.0293-37.8418 54.1504-36.8652 54.1504-35.3516C54.1504-33.7891 54.9805-32.8125 56.9336-32.8125L57.1777-32.8125C59.4238-32.8125 60.3516-31.5918 60.3516-29.3457C60.3516-27.832 59.7656-26.0742 58.0078-26.0742C56.7871-26.0742 56.1035-26.9531 55.6641-28.0762C55.0781-29.7363 53.9551-30.5664 52.2949-30.5664C50.293-30.5664 49.0234-29.3457 49.0234-27.3438C49.0234-26.6113 49.1211-25.9277 49.3164-25.3418C50.3418-22.0703 53.9551-20.4102 58.0566-20.4102Z"/>
  </g>
  <g id="Regular-S" transform="matrix(1 0 0 1 1404.51 696)">
   <path class="SFSymbolsPreviewWireframe" d="M22.2168 0.390625L68.457 0.390625C76.8066 0.390625 80.9082-3.71094 80.9082-11.9141L80.9082-58.4961C80.9082-66.6992 76.8066-70.8008 68.457-70.8008L22.2168-70.8008C13.916-70.8008 9.76562-66.6992 9.76562-58.4961L9.76562-11.9141C9.76562-3.71094 13.916 0.390625 22.2168 0.390625ZM22.3145-6.68945C18.7988-6.68945 16.7969-8.54492 16.7969-12.2559L16.7969-58.1543C16.7969-61.8164 18.7988-63.7207 22.3145-63.7207L68.3594-63.7207C71.875-63.7207 73.877-61.8164 73.877-58.1543L73.877-12.2559C73.877-8.54492 71.875-6.68945 68.3594-6.68945ZM27.1484-19.7754L40.4785-19.7754C41.9922-19.7754 42.8711-20.752 42.8711-22.2656C42.8711-23.877 41.9434-24.8047 40.4785-24.8047L31.8359-24.8047L31.8359-25.0977L36.9629-31.3965C41.0156-36.3281 42.334-39.1602 42.334-42.5293C42.334-47.8516 38.5742-51.5625 33.2031-51.5625C28.2227-51.5625 24.3164-47.5098 24.3164-43.5547C24.3164-41.9434 25.2441-40.8203 26.8555-40.8203C28.2715-40.8203 29.1504-41.4551 29.5898-42.8711C30.3711-45.2148 31.2012-46.6309 33.1543-46.6309C35.2051-46.6309 36.4258-44.873 36.4258-42.2363C36.4258-39.1602 34.082-35.9375 32.1289-33.4961L25.8789-25.7324C25.0977-24.707 24.2676-23.6328 24.2676-22.2656C24.2676-20.8496 25.1465-19.7754 27.1484-19.7754ZM56.4453-19.043C62.1094-19.043 66.5039-22.4609 66.5039-28.2715C66.5039-33.1543 63.4766-35.3027 60.4004-35.6445L60.4004-35.791C63.8672-36.7188 65.5762-39.7461 65.5762-42.9688C65.5762-48.3887 61.377-51.3672 56.2988-51.3672C52.2949-51.3672 48.6816-49.1699 47.5586-45.752C47.3633-45.0684 47.2656-44.3848 47.2656-43.6523C47.2656-42.2852 48.1934-41.1621 49.9023-41.1621C51.3184-41.1621 52.1973-41.6992 52.6367-43.1152C53.2715-45.2637 54.3945-46.4355 56.2988-46.4355C58.6426-46.4355 59.7168-44.6289 59.7168-42.2852C59.7168-39.6484 58.3008-37.793 55.5664-37.793L54.834-37.793C53.418-37.793 52.4902-36.9141 52.4902-35.498C52.4902-34.082 53.418-33.3008 54.834-33.3008L55.6152-33.3008C58.6914-33.3008 60.3516-31.5918 60.3516-28.5156C60.3516-26.0254 59.082-24.0234 56.4453-24.0234C53.8574-24.0234 52.7832-25.6836 52.2949-27.2461C51.8555-28.5645 50.9277-29.2969 49.6094-29.2969C47.9004-29.2969 46.7773-28.2715 46.7773-26.5625C46.7773-25.8789 46.875-25.1953 47.0703-24.5605C48.1934-20.9961 52.2949-19.043 56.4453-19.043Z"/>
  </g>
  <g id="Ultralight-S" transform="matrix(1 0 0 1 516.35 696)">
   <path class="SFSymbolsPreviewWireframe" d="M19.7647-1.562L66.9585-1.562C73.4917-1.562 76.9576-5.11864 76.9576-11.5508L76.9576-58.7686C76.9576-65.2007 73.4917-68.7573 66.9585-68.7573L19.7647-68.7573C13.2349-68.7573 9.76562-65.2915 9.76562-58.7686L9.76562-11.5508C9.76562-5.02782 13.2349-1.562 19.7647-1.562ZM19.8623-3.78323C14.6665-3.78323 11.9834-6.45607 11.9834-11.6655L11.9834-58.6538C11.9834-63.8598 14.6665-66.5361 19.8623-66.5361L66.8609-66.5361C71.875-66.5361 74.7397-63.8598 74.7397-58.6538L74.7397-11.6655C74.7397-6.45607 71.875-3.78323 66.8609-3.78323ZM27.0576-19.7754L40.1606-19.7754C40.7661-19.7754 41.2363-20.2524 41.2363-20.8579C41.2363-21.5156 40.7627-21.9893 40.1606-21.9893L29.1113-21.9893L29.1113-22.146L36.5542-32.668C39.4717-36.7822 40.5176-39.5688 40.5176-42.7563C40.5176-47.4883 38.0293-51.3355 33.2031-51.3355C28.7676-51.3355 25.9057-47.2373 25.9057-43.146C25.9057-42.6245 26.1977-42.0464 26.9917-42.0464C27.5903-42.0464 27.9697-42.3633 28.0459-42.9165C28.5547-46.5771 30.0659-49.1284 33.2451-49.1284C36.7944-49.1284 38.2876-45.6904 38.2876-42.645C38.2876-39.7959 37.2607-37.3452 34.7627-33.8594L26.2876-22.0996C25.9604-21.6646 25.8569-21.2715 25.8569-20.8125C25.8569-20.1685 26.3725-19.7754 27.0576-19.7754ZM54.0386-19.27C58.749-19.27 62.2354-22.7788 62.2354-28.2715C62.2354-32.3823 60.1616-35.5298 56.2681-35.8716L56.2681-35.9727C59.7349-36.855 61.3531-40.064 61.3531-43.332C61.3531-47.98 58.4253-51.231 53.8921-51.231C50.1153-51.231 47.728-48.9883 46.6958-45.6157C46.4551-44.7959 46.4028-44.1123 46.4028-43.6978C46.4028-43.0117 46.7402-42.5698 47.4502-42.5698C48.2305-42.5698 48.3828-43.0161 48.5498-43.751C49.0484-46.626 50.7163-49.0693 53.8921-49.0693C57.1895-49.0693 59.0356-46.3999 59.0356-43.0571C59.0356-39.603 56.8023-36.8848 53.3413-36.8848L51.6099-36.8848C50.9204-36.8848 50.6284-36.3691 50.6284-35.8159C50.6284-35.2627 51.0567-34.7993 51.6099-34.7993L53.3902-34.7993C57.3745-34.7993 59.8066-32.5454 59.8066-28.1978C59.8066-24.6631 57.9468-21.4805 54.084-21.4805C50.4517-21.4805 48.4693-24.2305 48.0718-26.8828C47.9502-27.6563 47.6582-28.0254 46.9302-28.0254C46.2656-28.0254 45.8691-27.5903 45.8691-26.8804C45.8691-26.3784 46.0122-25.5132 46.2075-24.9238C47.2398-21.5864 50.0698-19.27 54.0386-19.27Z"/>
  </g>
 </g>
</svg>
