<?xml version="1.0" encoding="UTF-8"?>
<!--Generator: Apple Native CoreSVG 232.5-->
<!DOCTYPE svg
PUBLIC "-//W3C//DTD SVG 1.1//EN"
       "http://www.w3.org/Graphics/SVG/1.1/DTD/svg11.dtd">
<svg version="1.1" xmlns="http://www.w3.org/2000/svg" xmlns:xlink="http://www.w3.org/1999/xlink" width="3300" height="2200">
 <!--glyph: "uni100699.medium", point size: 100.0, font version: "19.2d2e1", template writer version: "128"-->
 <style>.SFSymbolsPreviewWireframe {fill:none;opacity:1.0;stroke:black;stroke-width:0.5}
</style>
 <g id="Notes">
  <rect height="2200" id="artboard" style="fill:white;opacity:1" width="3300" x="0" y="0"/>
  <line style="fill:none;stroke:black;opacity:1;stroke-width:0.5;" x1="263" x2="3036" y1="292" y2="292"/>
  <text style="stroke:none;fill:black;font-family:sans-serif;font-size:13;font-weight:bold;" transform="matrix(1 0 0 1 263 322)">Weight/Scale Variations</text>
  <text style="stroke:none;fill:black;font-family:sans-serif;font-size:13;text-anchor:middle;" transform="matrix(1 0 0 1 559.711 322)">Ultralight</text>
  <text style="stroke:none;fill:black;font-family:sans-serif;font-size:13;text-anchor:middle;" transform="matrix(1 0 0 1 856.422 322)">Thin</text>
  <text style="stroke:none;fill:black;font-family:sans-serif;font-size:13;text-anchor:middle;" transform="matrix(1 0 0 1 1153.13 322)">Light</text>
  <text style="stroke:none;fill:black;font-family:sans-serif;font-size:13;text-anchor:middle;" transform="matrix(1 0 0 1 1449.84 322)">Regular</text>
  <text style="stroke:none;fill:black;font-family:sans-serif;font-size:13;text-anchor:middle;" transform="matrix(1 0 0 1 1746.56 322)">Medium</text>
  <text style="stroke:none;fill:black;font-family:sans-serif;font-size:13;text-anchor:middle;" transform="matrix(1 0 0 1 2043.27 322)">Semibold</text>
  <text style="stroke:none;fill:black;font-family:sans-serif;font-size:13;text-anchor:middle;" transform="matrix(1 0 0 1 2339.98 322)">Bold</text>
  <text style="stroke:none;fill:black;font-family:sans-serif;font-size:13;text-anchor:middle;" transform="matrix(1 0 0 1 2636.69 322)">Heavy</text>
  <text style="stroke:none;fill:black;font-family:sans-serif;font-size:13;text-anchor:middle;" transform="matrix(1 0 0 1 2933.4 322)">Black</text>
  <line style="fill:none;stroke:black;opacity:1;stroke-width:0.5;" x1="263" x2="3036" y1="1903" y2="1903"/>
  <g transform="matrix(0.2 0 0 0.2 263 1933)">
   <path d="m46.2402 4.15039c21.5332 0 39.4531-17.8711 39.4531-39.4043s-17.9688-39.4043-39.502-39.4043c-21.4844 0-39.3555 17.8711-39.3555 39.4043s17.9199 39.4043 39.4043 39.4043Zm0-7.42188c-17.7246 0-31.8848-14.209-31.8848-31.9824s14.1113-31.9824 31.8359-31.9824c17.7734 0 32.0312 14.209 32.0312 31.9824s-14.209 31.9824-31.9824 31.9824Zm-17.9688-31.9824c0 2.14844 1.51367 3.61328 3.75977 3.61328h10.498v10.5957c0 2.19727 1.46484 3.71094 3.61328 3.71094 2.24609 0 3.71094-1.51367 3.71094-3.71094v-10.5957h10.5957c2.19727 0 3.71094-1.46484 3.71094-3.61328 0-2.19727-1.51367-3.71094-3.71094-3.71094h-10.5957v-10.5469c0-2.24609-1.46484-3.75977-3.71094-3.75977-2.14844 0-3.61328 1.51367-3.61328 3.75977v10.5469h-10.498c-2.24609 0-3.75977 1.51367-3.75977 3.71094Z"/>
  </g>
  <g transform="matrix(0.2 0 0 0.2 281.506 1933)">
   <path d="m58.5449 14.5508c27.2461 0 49.8047-22.6074 49.8047-49.8047 0-27.2461-22.6074-49.8047-49.8535-49.8047-27.1973 0-49.7559 22.5586-49.7559 49.8047 0 27.1973 22.6074 49.8047 49.8047 49.8047Zm0-8.30078c-23.0469 0-41.4551-18.457-41.4551-41.5039s18.3594-41.5039 41.4062-41.5039 41.5527 18.457 41.5527 41.5039-18.457 41.5039-41.5039 41.5039Zm-22.6562-41.5039c0 2.39258 1.66016 4.00391 4.15039 4.00391h14.3555v14.4043c0 2.44141 1.66016 4.15039 4.05273 4.15039 2.44141 0 4.15039-1.66016 4.15039-4.15039v-14.4043h14.4043c2.44141 0 4.15039-1.61133 4.15039-4.00391 0-2.44141-1.70898-4.15039-4.15039-4.15039h-14.4043v-14.3555c0-2.49023-1.70898-4.19922-4.15039-4.19922-2.39258 0-4.05273 1.70898-4.05273 4.19922v14.3555h-14.3555c-2.49023 0-4.15039 1.70898-4.15039 4.15039Z"/>
  </g>
  <g transform="matrix(0.2 0 0 0.2 304.924 1933)">
   <path d="m74.8535 28.3203c34.8145 0 63.623-28.8086 63.623-63.5742 0-34.8145-28.8574-63.623-63.6719-63.623-34.7656 0-63.5254 28.8086-63.5254 63.623 0 34.7656 28.8086 63.5742 63.5742 63.5742Zm0-9.08203c-30.1758 0-54.4434-24.3164-54.4434-54.4922 0-30.2246 24.2188-54.4922 54.3945-54.4922 30.2246 0 54.541 24.2676 54.541 54.4922 0 30.1758-24.2676 54.4922-54.4922 54.4922Zm-28.8574-54.4922c0 2.58789 1.85547 4.39453 4.58984 4.39453h19.7266v19.7754c0 2.68555 1.85547 4.58984 4.44336 4.58984 2.68555 0 4.54102-1.85547 4.54102-4.58984v-19.7754h19.7754c2.68555 0 4.58984-1.80664 4.58984-4.39453 0-2.73438-1.85547-4.58984-4.58984-4.58984h-19.7754v-19.7266c0-2.73438-1.85547-4.63867-4.54102-4.63867-2.58789 0-4.44336 1.9043-4.44336 4.63867v19.7266h-19.7266c-2.73438 0-4.58984 1.85547-4.58984 4.58984Z"/>
  </g>
  <text style="stroke:none;fill:black;font-family:sans-serif;font-size:13;font-weight:bold;" transform="matrix(1 0 0 1 263 1953)">Design Variations</text>
  <text style="stroke:none;fill:black;font-family:sans-serif;font-size:13;" transform="matrix(1 0 0 1 263 1971)">Symbols are supported in up to nine weights and three scales.</text>
  <text style="stroke:none;fill:black;font-family:sans-serif;font-size:13;" transform="matrix(1 0 0 1 263 1989)">For optimal layout with text and other symbols, vertically align</text>
  <text style="stroke:none;fill:black;font-family:sans-serif;font-size:13;" transform="matrix(1 0 0 1 263 2007)">symbols with the adjacent text.</text>
  <line style="fill:none;stroke:#00AEEF;stroke-width:0.5;opacity:1.0;" x1="776" x2="776" y1="1919" y2="1933"/>
  <g transform="matrix(0.2 0 0 0.2 776 1933)">
   <path d="m16.5527 0.78125c2.58789 0 3.85742-0.976562 4.78516-3.71094l6.29883-17.2363h28.8086l6.29883 17.2363c0.927734 2.73438 2.19727 3.71094 4.73633 3.71094 2.58789 0 4.24805-1.5625 4.24805-4.00391 0-0.830078-0.146484-1.61133-0.537109-2.63672l-22.9004-60.9863c-1.12305-2.97852-3.125-4.49219-6.25-4.49219-3.02734 0-5.07812 1.46484-6.15234 4.44336l-22.9004 61.084c-0.390625 1.02539-0.537109 1.80664-0.537109 2.63672 0 2.44141 1.5625 3.95508 4.10156 3.95508Zm13.4766-28.3691 11.8652-32.8613h0.244141l11.8652 32.8613Z"/>
  </g>
  <line style="fill:none;stroke:#00AEEF;stroke-width:0.5;opacity:1.0;" x1="792.836" x2="792.836" y1="1919" y2="1933"/>
  <text style="stroke:none;fill:black;font-family:sans-serif;font-size:13;font-weight:bold;" transform="matrix(1 0 0 1 776 1953)">Margins</text>
  <text style="stroke:none;fill:black;font-family:sans-serif;font-size:13;" transform="matrix(1 0 0 1 776 1971)">Leading and trailing margins on the left and right side of each symbol</text>
  <text style="stroke:none;fill:black;font-family:sans-serif;font-size:13;" transform="matrix(1 0 0 1 776 1989)">can be adjusted by modifying the x-location of the margin guidelines.</text>
  <text style="stroke:none;fill:black;font-family:sans-serif;font-size:13;" transform="matrix(1 0 0 1 776 2007)">Modifications are automatically applied proportionally to all</text>
  <text style="stroke:none;fill:black;font-family:sans-serif;font-size:13;" transform="matrix(1 0 0 1 776 2025)">scales and weights.</text>
  <g transform="matrix(0.2 0 0 0.2 1289 1933)">
   <path d="m14.209 9.32617 8.49609 8.54492c4.29688 4.3457 9.22852 4.05273 13.8672-1.07422l53.4668-58.9355-4.83398-4.88281-53.0762 58.3984c-1.75781 2.00195-3.41797 2.49023-5.76172 0.146484l-5.85938-5.81055c-2.34375-2.29492-1.80664-4.00391 0.195312-5.81055l57.373-54.0039-4.88281-4.83398-57.959 54.4434c-4.93164 4.58984-5.32227 9.47266-1.02539 13.8184Zm32.0801-90.9668c-2.09961 2.05078-2.24609 4.93164-1.07422 6.88477 1.17188 1.80664 3.4668 2.97852 6.68945 2.14844 7.32422-1.70898 14.9414-2.00195 22.0703 2.68555l-2.92969 7.27539c-1.70898 4.15039-0.830078 7.08008 1.85547 9.81445l11.4746 11.5723c2.44141 2.44141 4.49219 2.53906 7.32422 2.05078l5.32227-0.976562 3.32031 3.36914-0.195312 2.7832c-0.195312 2.49023 0.439453 4.39453 2.88086 6.78711l3.80859 3.71094c2.39258 2.39258 5.46875 2.53906 7.8125 0.195312l14.5508-14.5996c2.34375-2.34375 2.24609-5.32227-0.146484-7.71484l-3.85742-3.80859c-2.39258-2.39258-4.24805-3.17383-6.64062-2.97852l-2.88086 0.244141-3.22266-3.17383 1.2207-5.61523c0.634766-2.83203-0.146484-5.0293-3.07617-7.95898l-10.9863-10.9375c-16.6992-16.6016-38.8672-16.2109-53.3203-1.75781Zm7.4707 1.85547c12.1582-8.88672 28.6133-7.37305 39.7461 3.75977l12.1582 12.0605c1.17188 1.17188 1.36719 2.09961 1.02539 3.80859l-1.61133 7.42188 7.51953 7.42188 4.93164-0.292969c1.26953-0.0488281 1.66016 0.0488281 2.63672 1.02539l2.88086 2.88086-12.207 12.207-2.88086-2.88086c-0.976562-0.976562-1.12305-1.36719-1.07422-2.68555l0.341797-4.88281-7.4707-7.42188-7.61719 1.26953c-1.61133 0.341797-2.34375 0.195312-3.56445-0.976562l-10.0098-10.0098c-1.26953-1.17188-1.41602-2.00195-0.634766-3.85742l4.39453-10.4492c-7.8125-7.27539-17.9688-10.4004-28.125-7.42188-0.78125 0.195312-1.07422-0.439453-0.439453-0.976562Z"/>
  </g>
  <text style="stroke:none;fill:black;font-family:sans-serif;font-size:13;font-weight:bold;" transform="matrix(1 0 0 1 1289 1953)">Exporting</text>
  <text style="stroke:none;fill:black;font-family:sans-serif;font-size:13;" transform="matrix(1 0 0 1 1289 1971)">Symbols should be outlined when exporting to ensure the</text>
  <text style="stroke:none;fill:black;font-family:sans-serif;font-size:13;" transform="matrix(1 0 0 1 1289 1989)">design is preserved when submitting to Xcode.</text>
  <text id="template-version" style="stroke:none;fill:black;font-family:sans-serif;font-size:13;text-anchor:end;" transform="matrix(1 0 0 1 3036 1933)">Template v.5.0</text>
  <text style="stroke:none;fill:black;font-family:sans-serif;font-size:13;text-anchor:end;" transform="matrix(1 0 0 1 3036 1951)">Requires Xcode 15 or greater</text>
  <text id="descriptive-name" style="stroke:none;fill:black;font-family:sans-serif;font-size:13;text-anchor:end;" transform="matrix(1 0 0 1 3036 1969)">Generated from 33.circle</text>
  <text style="stroke:none;fill:black;font-family:sans-serif;font-size:13;text-anchor:end;" transform="matrix(1 0 0 1 3036 1987)">Typeset at 100.0 points</text>
  <text style="stroke:none;fill:black;font-family:sans-serif;font-size:13;" transform="matrix(1 0 0 1 263 726)">Small</text>
  <text style="stroke:none;fill:black;font-family:sans-serif;font-size:13;" transform="matrix(1 0 0 1 263 1156)">Medium</text>
  <text style="stroke:none;fill:black;font-family:sans-serif;font-size:13;" transform="matrix(1 0 0 1 263 1586)">Large</text>
 </g>
 <g id="Guides">
  <g id="H-reference" style="fill:#27AAE1;stroke:none;" transform="matrix(1 0 0 1 339 696)">
   <path d="M0.993654 0L3.63775 0L29.3281-67.1323L30.0303-67.1323L30.0303-70.459L28.1226-70.459ZM11.6885-24.4799L46.9815-24.4799L46.2315-26.7285L12.4385-26.7285ZM55.1196 0L57.7637 0L30.6382-70.459L29.4326-70.459L29.4326-67.1323Z"/>
  </g>
  <line id="Baseline-S" style="fill:none;stroke:#27AAE1;opacity:1;stroke-width:0.5;" x1="263" x2="3036" y1="696" y2="696"/>
  <line id="Capline-S" style="fill:none;stroke:#27AAE1;opacity:1;stroke-width:0.5;" x1="263" x2="3036" y1="625.541" y2="625.541"/>
  <g id="H-reference" style="fill:#27AAE1;stroke:none;" transform="matrix(1 0 0 1 339 1126)">
   <path d="M0.993654 0L3.63775 0L29.3281-67.1323L30.0303-67.1323L30.0303-70.459L28.1226-70.459ZM11.6885-24.4799L46.9815-24.4799L46.2315-26.7285L12.4385-26.7285ZM55.1196 0L57.7637 0L30.6382-70.459L29.4326-70.459L29.4326-67.1323Z"/>
  </g>
  <line id="Baseline-M" style="fill:none;stroke:#27AAE1;opacity:1;stroke-width:0.5;" x1="263" x2="3036" y1="1126" y2="1126"/>
  <line id="Capline-M" style="fill:none;stroke:#27AAE1;opacity:1;stroke-width:0.5;" x1="263" x2="3036" y1="1055.54" y2="1055.54"/>
  <g id="H-reference" style="fill:#27AAE1;stroke:none;" transform="matrix(1 0 0 1 339 1556)">
   <path d="M0.993654 0L3.63775 0L29.3281-67.1323L30.0303-67.1323L30.0303-70.459L28.1226-70.459ZM11.6885-24.4799L46.9815-24.4799L46.2315-26.7285L12.4385-26.7285ZM55.1196 0L57.7637 0L30.6382-70.459L29.4326-70.459L29.4326-67.1323Z"/>
  </g>
  <line id="Baseline-L" style="fill:none;stroke:#27AAE1;opacity:1;stroke-width:0.5;" x1="263" x2="3036" y1="1556" y2="1556"/>
  <line id="Capline-L" style="fill:none;stroke:#27AAE1;opacity:1;stroke-width:0.5;" x1="263" x2="3036" y1="1485.54" y2="1485.54"/>
  <line id="left-margin-Ultralight-S" style="fill:none;stroke:#00AEEF;stroke-width:0.5;opacity:1.0;" x1="515.649" x2="515.649" y1="600.785" y2="720.121"/>
  <line id="right-margin-Ultralight-S" style="fill:none;stroke:#00AEEF;stroke-width:0.5;opacity:1.0;" x1="603.773" x2="603.773" y1="600.785" y2="720.121"/>
  <line id="left-margin-Regular-S" style="fill:none;stroke:#00AEEF;stroke-width:0.5;opacity:1.0;" x1="1403.58" x2="1403.58" y1="600.785" y2="720.121"/>
  <line id="right-margin-Regular-S" style="fill:none;stroke:#00AEEF;stroke-width:0.5;opacity:1.0;" x1="1496.11" x2="1496.11" y1="600.785" y2="720.121"/>
  <line id="left-margin-Black-S" style="fill:none;stroke:#00AEEF;stroke-width:0.5;opacity:1.0;" x1="2884.57" x2="2884.57" y1="600.785" y2="720.121"/>
  <line id="right-margin-Black-S" style="fill:none;stroke:#00AEEF;stroke-width:0.5;opacity:1.0;" x1="2982.23" x2="2982.23" y1="600.785" y2="720.121"/>
 </g>
 <g id="Symbols">
  <g id="Black-S" transform="matrix(1 0 0 1 2884.57 696)">
   <path class="SFSymbolsPreviewWireframe" d="M48.8281 6.78711C71.9727 6.78711 90.8203-12.0605 90.8203-35.2051C90.8203-58.3496 71.9727-77.1973 48.8281-77.1973C25.6836-77.1973 6.83594-58.3496 6.83594-35.2051C6.83594-12.0605 25.6836 6.78711 48.8281 6.78711ZM48.8281-7.37305C33.4473-7.37305 20.9961-19.8242 20.9961-35.2051C20.9961-50.5859 33.4473-63.0371 48.8281-63.0371C64.209-63.0371 76.6602-50.5859 76.6602-35.2051C76.6602-19.8242 64.209-7.37305 48.8281-7.37305ZM38.1836-20.4102C43.7988-20.4102 47.6562-23.6328 47.6562-28.8574C47.6562-32.4219 45.7031-35.0586 42.5293-35.498L42.5293-35.6445C44.6289-36.1816 46.8262-38.623 46.8262-42.1387C46.8262-47.1191 43.3105-50.0488 37.9395-50.0488C34.3262-50.0488 30.7617-48.1934 29.7852-44.7754C29.5898-44.1895 29.4922-43.5059 29.4922-42.8223C29.4922-41.5039 30.2734-39.9414 32.5195-39.9414C33.9355-39.9414 35.4492-40.3809 35.8887-42.041C36.1328-43.0664 36.7188-44.3848 38.0371-44.3848C39.4531-44.3848 39.8926-42.7734 39.8926-41.3574C39.8926-39.6973 39.3066-37.8418 37.2559-37.8418L37.0605-37.8418C35.1562-37.8418 34.2773-36.8652 34.2773-35.3516C34.2773-33.7891 35.1074-32.8125 37.0605-32.8125L37.3047-32.8125C39.5508-32.8125 40.4785-31.5918 40.4785-29.3457C40.4785-27.832 39.8926-26.0742 38.1348-26.0742C36.9141-26.0742 36.2305-26.9531 35.791-28.0762C35.2051-29.7363 34.082-30.5664 32.4219-30.5664C30.4199-30.5664 29.1504-29.3457 29.1504-27.3438C29.1504-26.6113 29.248-25.9277 29.4434-25.3418C30.4688-22.0703 34.082-20.4102 38.1836-20.4102ZM59.4727-20.4102C65.0879-20.4102 68.9453-23.6328 68.9453-28.8574C68.9453-32.4219 66.9922-35.0586 63.8184-35.498L63.8184-35.6445C65.918-36.1816 68.1152-38.623 68.1152-42.1387C68.1152-47.1191 64.5996-50.0488 59.2285-50.0488C55.6152-50.0488 52.0508-48.1934 51.0742-44.7754C50.8789-44.1895 50.7812-43.5059 50.7812-42.8223C50.7812-41.5039 51.5625-39.9414 53.8086-39.9414C55.2246-39.9414 56.7383-40.3809 57.1777-42.041C57.4219-43.0664 58.0078-44.3848 59.3262-44.3848C60.7422-44.3848 61.1816-42.7734 61.1816-41.3574C61.1816-39.6973 60.5957-37.8418 58.5449-37.8418L58.3496-37.8418C56.4453-37.8418 55.5664-36.8652 55.5664-35.3516C55.5664-33.7891 56.3965-32.8125 58.3496-32.8125L58.5938-32.8125C60.8398-32.8125 61.7676-31.5918 61.7676-29.3457C61.7676-27.832 61.1816-26.0742 59.4238-26.0742C58.2031-26.0742 57.5195-26.9531 57.0801-28.0762C56.4941-29.7363 55.3711-30.5664 53.7109-30.5664C51.709-30.5664 50.4395-29.3457 50.4395-27.3438C50.4395-26.6113 50.5371-25.9277 50.7324-25.3418C51.7578-22.0703 55.3711-20.4102 59.4727-20.4102Z"/>
  </g>
  <g id="Regular-S" transform="matrix(1 0 0 1 1403.58 696)">
   <path class="SFSymbolsPreviewWireframe" d="M46.2402 4.15039C67.7734 4.15039 85.6934-13.7207 85.6934-35.2539C85.6934-56.7871 67.7246-74.6582 46.1914-74.6582C24.707-74.6582 6.83594-56.7871 6.83594-35.2539C6.83594-13.7207 24.7559 4.15039 46.2402 4.15039ZM46.2402-3.27148C28.5156-3.27148 14.3555-17.4805 14.3555-35.2539C14.3555-53.0273 28.4668-67.2363 46.1914-67.2363C63.9648-67.2363 78.2227-53.0273 78.2227-35.2539C78.2227-17.4805 64.0137-3.27148 46.2402-3.27148ZM34.4727-19.043C40.1367-19.043 44.5312-22.4609 44.5312-28.2715C44.5312-33.1543 41.5039-35.3027 38.4277-35.6445L38.4277-35.791C41.8945-36.7188 43.6035-39.7461 43.6035-42.9688C43.6035-48.3887 39.4043-51.3672 34.3262-51.3672C30.3223-51.3672 26.709-49.1699 25.5859-45.752C25.3906-45.0684 25.293-44.3848 25.293-43.6523C25.293-42.2852 26.2207-41.1621 27.9297-41.1621C29.3457-41.1621 30.2246-41.6992 30.6641-43.1152C31.2988-45.2637 32.373-46.4355 34.3262-46.4355C36.6699-46.4355 37.7441-44.6289 37.7441-42.2852C37.7441-39.6484 36.3281-37.793 33.5938-37.793L32.8613-37.793C31.4453-37.793 30.5176-36.9141 30.5176-35.498C30.5176-34.082 31.4453-33.3008 32.8613-33.3008L33.6426-33.3008C36.7188-33.3008 38.3789-31.5918 38.3789-28.5156C38.3789-26.0254 37.0605-24.0234 34.4727-24.0234C31.8848-24.0234 30.8105-25.6836 30.3223-27.2461C29.8828-28.5645 28.9551-29.2969 27.6367-29.2969C25.9277-29.2969 24.8047-28.2715 24.8047-26.5625C24.8047-25.8789 24.9023-25.1953 25.0977-24.5605C26.2207-20.9961 30.3223-19.043 34.4727-19.043ZM58.1055-19.043C63.7695-19.043 68.1641-22.4609 68.1641-28.2715C68.1641-33.1543 65.1367-35.3027 62.0605-35.6445L62.0605-35.791C65.5273-36.7188 67.2363-39.7461 67.2363-42.9688C67.2363-48.3887 63.0371-51.3672 57.959-51.3672C53.9551-51.3672 50.3418-49.1699 49.2188-45.752C49.0234-45.0684 48.9258-44.3848 48.9258-43.6523C48.9258-42.2852 49.8535-41.1621 51.5625-41.1621C52.9785-41.1621 53.8574-41.6992 54.2969-43.1152C54.9316-45.2637 56.0059-46.4355 57.959-46.4355C60.3027-46.4355 61.377-44.6289 61.377-42.2852C61.377-39.6484 59.9609-37.793 57.2266-37.793L56.4941-37.793C55.0781-37.793 54.1016-36.9141 54.1016-35.498C54.1016-34.082 55.0781-33.3008 56.4941-33.3008L57.2754-33.3008C60.3516-33.3008 62.0117-31.5918 62.0117-28.5156C62.0117-26.0254 60.6934-24.0234 58.1055-24.0234C55.5176-24.0234 54.4434-25.6836 53.9551-27.2461C53.5156-28.5645 52.5879-29.2969 51.2207-29.2969C49.5605-29.2969 48.4375-28.2715 48.4375-26.5625C48.4375-25.8789 48.5352-25.1953 48.7305-24.5605C49.8535-20.9961 53.9551-19.043 58.1055-19.043Z"/>
  </g>
  <g id="Ultralight-S" transform="matrix(1 0 0 1 515.649 696)">
   <path class="SFSymbolsPreviewWireframe" d="M44.0606 1.97072C64.5039 1.97072 81.2886-14.8105 81.2886-35.2539C81.2886-55.6973 64.5005-72.4785 44.0571-72.4785C23.5718-72.4785 6.83594-55.6973 6.83594-35.2539C6.83594-14.8105 23.5752 1.97072 44.0606 1.97072ZM44.0606-0.274438C24.7466-0.274438 9.04252-15.9365 9.04252-35.2539C9.04252-54.5713 24.7432-70.2334 44.0571-70.2334C63.3745-70.2334 79.04-54.5713 79.04-35.2539C79.04-15.9365 63.3779-0.274438 44.0606-0.274438ZM33.5191-19.27C38.2295-19.27 41.7158-22.7788 41.7158-28.2715C41.7158-32.3823 39.6421-35.5298 35.7486-35.8716L35.7486-35.9727C39.2154-36.855 40.8335-40.064 40.8335-43.332C40.8335-47.98 37.8604-51.231 33.3726-51.231C29.5957-51.231 27.1631-48.9883 26.1309-45.6157C25.8901-44.7959 25.8379-44.1123 25.8379-43.6978C25.8379-43.0117 26.2207-42.5698 26.9307-42.5698C27.6655-42.5698 27.8633-43.0161 28.0303-43.751C28.5288-46.626 30.1934-49.0693 33.3726-49.0693C36.6699-49.0693 38.4707-46.3999 38.4707-43.0571C38.4707-39.603 36.2827-36.8848 32.8218-36.8848L31.0903-36.8848C30.3555-36.8848 30.1089-36.3691 30.1089-35.8159C30.1089-35.2627 30.5371-34.7993 31.0903-34.7993L32.8706-34.7993C36.855-34.7993 39.2417-32.5454 39.2417-28.1978C39.2417-24.6631 37.4238-21.4805 33.5645-21.4805C29.9321-21.4805 27.9497-24.2305 27.5523-26.8828C27.4307-27.6563 27.1387-28.0254 26.3652-28.0254C25.7461-28.0254 25.3042-27.5903 25.3042-26.8804C25.3042-26.3784 25.4473-25.5132 25.6426-24.9238C26.6748-21.5864 29.5503-19.27 33.5191-19.27ZM54.5635-19.27C59.3194-19.27 62.7603-22.7788 62.7603-28.2715C62.7603-32.3823 60.732-35.5298 56.793-35.8716L56.793-35.9727C60.2598-36.855 61.878-40.064 61.878-43.332C61.878-47.98 58.9502-51.231 54.417-51.231C50.6402-51.231 48.2529-48.9883 47.2207-45.6157C46.98-44.7959 46.9278-44.1123 46.9278-43.6978C46.9278-43.0117 47.3106-42.5698 47.9751-42.5698C48.7554-42.5698 48.9532-43.0161 49.1202-43.751C49.5733-46.626 51.2832-49.0693 54.417-49.0693C57.7598-49.0693 59.5606-46.3999 59.5606-43.0571C59.5606-39.603 57.3726-36.8848 53.8662-36.8848L52.1802-36.8848C51.4453-36.8848 51.1953-36.3691 51.1953-35.8159C51.1953-35.2627 51.5816-34.7993 52.1802-34.7993L53.9151-34.7993C57.9448-34.7993 60.3316-32.5454 60.3316-28.1978C60.3316-24.6631 58.5137-21.4805 54.6089-21.4805C51.022-21.4805 48.9942-24.2305 48.5967-26.8828C48.5205-27.6563 48.2285-28.0254 47.4517-28.0254C46.836-28.0254 46.3941-27.5903 46.3941-26.8804C46.3941-26.3784 46.5371-25.5132 46.7324-24.9238C47.7647-21.5864 50.5948-19.27 54.5635-19.27Z"/>
  </g>
 </g>
</svg>
