<?xml version="1.0" encoding="UTF-8"?>
<!--Generator: Apple Native CoreSVG 232.5-->
<!DOCTYPE svg
PUBLIC "-//W3C//DTD SVG 1.1//EN"
       "http://www.w3.org/Graphics/SVG/1.1/DTD/svg11.dtd">
<svg version="1.1" xmlns="http://www.w3.org/2000/svg" xmlns:xlink="http://www.w3.org/1999/xlink" width="3300" height="2200">
 <!--glyph: "uni10094A.medium", point size: 100.0, font version: "19.2d2e1", template writer version: "128"-->
 <style>.SFSymbolsPreviewWireframe {fill:none;opacity:1.0;stroke:black;stroke-width:0.5}
</style>
 <g id="Notes">
  <rect height="2200" id="artboard" style="fill:white;opacity:1" width="3300" x="0" y="0"/>
  <line style="fill:none;stroke:black;opacity:1;stroke-width:0.5;" x1="263" x2="3036" y1="292" y2="292"/>
  <text style="stroke:none;fill:black;font-family:sans-serif;font-size:13;font-weight:bold;" transform="matrix(1 0 0 1 263 322)">Weight/Scale Variations</text>
  <text style="stroke:none;fill:black;font-family:sans-serif;font-size:13;text-anchor:middle;" transform="matrix(1 0 0 1 559.711 322)">Ultralight</text>
  <text style="stroke:none;fill:black;font-family:sans-serif;font-size:13;text-anchor:middle;" transform="matrix(1 0 0 1 856.422 322)">Thin</text>
  <text style="stroke:none;fill:black;font-family:sans-serif;font-size:13;text-anchor:middle;" transform="matrix(1 0 0 1 1153.13 322)">Light</text>
  <text style="stroke:none;fill:black;font-family:sans-serif;font-size:13;text-anchor:middle;" transform="matrix(1 0 0 1 1449.84 322)">Regular</text>
  <text style="stroke:none;fill:black;font-family:sans-serif;font-size:13;text-anchor:middle;" transform="matrix(1 0 0 1 1746.56 322)">Medium</text>
  <text style="stroke:none;fill:black;font-family:sans-serif;font-size:13;text-anchor:middle;" transform="matrix(1 0 0 1 2043.27 322)">Semibold</text>
  <text style="stroke:none;fill:black;font-family:sans-serif;font-size:13;text-anchor:middle;" transform="matrix(1 0 0 1 2339.98 322)">Bold</text>
  <text style="stroke:none;fill:black;font-family:sans-serif;font-size:13;text-anchor:middle;" transform="matrix(1 0 0 1 2636.69 322)">Heavy</text>
  <text style="stroke:none;fill:black;font-family:sans-serif;font-size:13;text-anchor:middle;" transform="matrix(1 0 0 1 2933.4 322)">Black</text>
  <line style="fill:none;stroke:black;opacity:1;stroke-width:0.5;" x1="263" x2="3036" y1="1903" y2="1903"/>
  <g transform="matrix(0.2 0 0 0.2 263 1933)">
   <path d="m46.2402 4.15039c21.5332 0 39.4531-17.8711 39.4531-39.4043s-17.9688-39.4043-39.502-39.4043c-21.4844 0-39.3555 17.8711-39.3555 39.4043s17.9199 39.4043 39.4043 39.4043Zm0-7.42188c-17.7246 0-31.8848-14.209-31.8848-31.9824s14.1113-31.9824 31.8359-31.9824c17.7734 0 32.0312 14.209 32.0312 31.9824s-14.209 31.9824-31.9824 31.9824Zm-17.9688-31.9824c0 2.14844 1.51367 3.61328 3.75977 3.61328h10.498v10.5957c0 2.19727 1.46484 3.71094 3.61328 3.71094 2.24609 0 3.71094-1.51367 3.71094-3.71094v-10.5957h10.5957c2.19727 0 3.71094-1.46484 3.71094-3.61328 0-2.19727-1.51367-3.71094-3.71094-3.71094h-10.5957v-10.5469c0-2.24609-1.46484-3.75977-3.71094-3.75977-2.14844 0-3.61328 1.51367-3.61328 3.75977v10.5469h-10.498c-2.24609 0-3.75977 1.51367-3.75977 3.71094Z"/>
  </g>
  <g transform="matrix(0.2 0 0 0.2 281.506 1933)">
   <path d="m58.5449 14.5508c27.2461 0 49.8047-22.6074 49.8047-49.8047 0-27.2461-22.6074-49.8047-49.8535-49.8047-27.1973 0-49.7559 22.5586-49.7559 49.8047 0 27.1973 22.6074 49.8047 49.8047 49.8047Zm0-8.30078c-23.0469 0-41.4551-18.457-41.4551-41.5039s18.3594-41.5039 41.4062-41.5039 41.5527 18.457 41.5527 41.5039-18.457 41.5039-41.5039 41.5039Zm-22.6562-41.5039c0 2.39258 1.66016 4.00391 4.15039 4.00391h14.3555v14.4043c0 2.44141 1.66016 4.15039 4.05273 4.15039 2.44141 0 4.15039-1.66016 4.15039-4.15039v-14.4043h14.4043c2.44141 0 4.15039-1.61133 4.15039-4.00391 0-2.44141-1.70898-4.15039-4.15039-4.15039h-14.4043v-14.3555c0-2.49023-1.70898-4.19922-4.15039-4.19922-2.39258 0-4.05273 1.70898-4.05273 4.19922v14.3555h-14.3555c-2.49023 0-4.15039 1.70898-4.15039 4.15039Z"/>
  </g>
  <g transform="matrix(0.2 0 0 0.2 304.924 1933)">
   <path d="m74.8535 28.3203c34.8145 0 63.623-28.8086 63.623-63.5742 0-34.8145-28.8574-63.623-63.6719-63.623-34.7656 0-63.5254 28.8086-63.5254 63.623 0 34.7656 28.8086 63.5742 63.5742 63.5742Zm0-9.08203c-30.1758 0-54.4434-24.3164-54.4434-54.4922 0-30.2246 24.2188-54.4922 54.3945-54.4922 30.2246 0 54.541 24.2676 54.541 54.4922 0 30.1758-24.2676 54.4922-54.4922 54.4922Zm-28.8574-54.4922c0 2.58789 1.85547 4.39453 4.58984 4.39453h19.7266v19.7754c0 2.68555 1.85547 4.58984 4.44336 4.58984 2.68555 0 4.54102-1.85547 4.54102-4.58984v-19.7754h19.7754c2.68555 0 4.58984-1.80664 4.58984-4.39453 0-2.73438-1.85547-4.58984-4.58984-4.58984h-19.7754v-19.7266c0-2.73438-1.85547-4.63867-4.54102-4.63867-2.58789 0-4.44336 1.9043-4.44336 4.63867v19.7266h-19.7266c-2.73438 0-4.58984 1.85547-4.58984 4.58984Z"/>
  </g>
  <text style="stroke:none;fill:black;font-family:sans-serif;font-size:13;font-weight:bold;" transform="matrix(1 0 0 1 263 1953)">Design Variations</text>
  <text style="stroke:none;fill:black;font-family:sans-serif;font-size:13;" transform="matrix(1 0 0 1 263 1971)">Symbols are supported in up to nine weights and three scales.</text>
  <text style="stroke:none;fill:black;font-family:sans-serif;font-size:13;" transform="matrix(1 0 0 1 263 1989)">For optimal layout with text and other symbols, vertically align</text>
  <text style="stroke:none;fill:black;font-family:sans-serif;font-size:13;" transform="matrix(1 0 0 1 263 2007)">symbols with the adjacent text.</text>
  <line style="fill:none;stroke:#00AEEF;stroke-width:0.5;opacity:1.0;" x1="776" x2="776" y1="1919" y2="1933"/>
  <g transform="matrix(0.2 0 0 0.2 776 1933)">
   <path d="m16.5527 0.78125c2.58789 0 3.85742-0.976562 4.78516-3.71094l6.29883-17.2363h28.8086l6.29883 17.2363c0.927734 2.73438 2.19727 3.71094 4.73633 3.71094 2.58789 0 4.24805-1.5625 4.24805-4.00391 0-0.830078-0.146484-1.61133-0.537109-2.63672l-22.9004-60.9863c-1.12305-2.97852-3.125-4.49219-6.25-4.49219-3.02734 0-5.07812 1.46484-6.15234 4.44336l-22.9004 61.084c-0.390625 1.02539-0.537109 1.80664-0.537109 2.63672 0 2.44141 1.5625 3.95508 4.10156 3.95508Zm13.4766-28.3691 11.8652-32.8613h0.244141l11.8652 32.8613Z"/>
  </g>
  <line style="fill:none;stroke:#00AEEF;stroke-width:0.5;opacity:1.0;" x1="792.836" x2="792.836" y1="1919" y2="1933"/>
  <text style="stroke:none;fill:black;font-family:sans-serif;font-size:13;font-weight:bold;" transform="matrix(1 0 0 1 776 1953)">Margins</text>
  <text style="stroke:none;fill:black;font-family:sans-serif;font-size:13;" transform="matrix(1 0 0 1 776 1971)">Leading and trailing margins on the left and right side of each symbol</text>
  <text style="stroke:none;fill:black;font-family:sans-serif;font-size:13;" transform="matrix(1 0 0 1 776 1989)">can be adjusted by modifying the x-location of the margin guidelines.</text>
  <text style="stroke:none;fill:black;font-family:sans-serif;font-size:13;" transform="matrix(1 0 0 1 776 2007)">Modifications are automatically applied proportionally to all</text>
  <text style="stroke:none;fill:black;font-family:sans-serif;font-size:13;" transform="matrix(1 0 0 1 776 2025)">scales and weights.</text>
  <g transform="matrix(0.2 0 0 0.2 1289 1933)">
   <path d="m14.209 9.32617 8.49609 8.54492c4.29688 4.3457 9.22852 4.05273 13.8672-1.07422l53.4668-58.9355-4.83398-4.88281-53.0762 58.3984c-1.75781 2.00195-3.41797 2.49023-5.76172 0.146484l-5.85938-5.81055c-2.34375-2.29492-1.80664-4.00391 0.195312-5.81055l57.373-54.0039-4.88281-4.83398-57.959 54.4434c-4.93164 4.58984-5.32227 9.47266-1.02539 13.8184Zm32.0801-90.9668c-2.09961 2.05078-2.24609 4.93164-1.07422 6.88477 1.17188 1.80664 3.4668 2.97852 6.68945 2.14844 7.32422-1.70898 14.9414-2.00195 22.0703 2.68555l-2.92969 7.27539c-1.70898 4.15039-0.830078 7.08008 1.85547 9.81445l11.4746 11.5723c2.44141 2.44141 4.49219 2.53906 7.32422 2.05078l5.32227-0.976562 3.32031 3.36914-0.195312 2.7832c-0.195312 2.49023 0.439453 4.39453 2.88086 6.78711l3.80859 3.71094c2.39258 2.39258 5.46875 2.53906 7.8125 0.195312l14.5508-14.5996c2.34375-2.34375 2.24609-5.32227-0.146484-7.71484l-3.85742-3.80859c-2.39258-2.39258-4.24805-3.17383-6.64062-2.97852l-2.88086 0.244141-3.22266-3.17383 1.2207-5.61523c0.634766-2.83203-0.146484-5.0293-3.07617-7.95898l-10.9863-10.9375c-16.6992-16.6016-38.8672-16.2109-53.3203-1.75781Zm7.4707 1.85547c12.1582-8.88672 28.6133-7.37305 39.7461 3.75977l12.1582 12.0605c1.17188 1.17188 1.36719 2.09961 1.02539 3.80859l-1.61133 7.42188 7.51953 7.42188 4.93164-0.292969c1.26953-0.0488281 1.66016 0.0488281 2.63672 1.02539l2.88086 2.88086-12.207 12.207-2.88086-2.88086c-0.976562-0.976562-1.12305-1.36719-1.07422-2.68555l0.341797-4.88281-7.4707-7.42188-7.61719 1.26953c-1.61133 0.341797-2.34375 0.195312-3.56445-0.976562l-10.0098-10.0098c-1.26953-1.17188-1.41602-2.00195-0.634766-3.85742l4.39453-10.4492c-7.8125-7.27539-17.9688-10.4004-28.125-7.42188-0.78125 0.195312-1.07422-0.439453-0.439453-0.976562Z"/>
  </g>
  <text style="stroke:none;fill:black;font-family:sans-serif;font-size:13;font-weight:bold;" transform="matrix(1 0 0 1 1289 1953)">Exporting</text>
  <text style="stroke:none;fill:black;font-family:sans-serif;font-size:13;" transform="matrix(1 0 0 1 1289 1971)">Symbols should be outlined when exporting to ensure the</text>
  <text style="stroke:none;fill:black;font-family:sans-serif;font-size:13;" transform="matrix(1 0 0 1 1289 1989)">design is preserved when submitting to Xcode.</text>
  <text id="template-version" style="stroke:none;fill:black;font-family:sans-serif;font-size:13;text-anchor:end;" transform="matrix(1 0 0 1 3036 1933)">Template v.5.0</text>
  <text style="stroke:none;fill:black;font-family:sans-serif;font-size:13;text-anchor:end;" transform="matrix(1 0 0 1 3036 1951)">Requires Xcode 15 or greater</text>
  <text id="descriptive-name" style="stroke:none;fill:black;font-family:sans-serif;font-size:13;text-anchor:end;" transform="matrix(1 0 0 1 3036 1969)">Generated from abc</text>
  <text style="stroke:none;fill:black;font-family:sans-serif;font-size:13;text-anchor:end;" transform="matrix(1 0 0 1 3036 1987)">Typeset at 100.0 points</text>
  <text style="stroke:none;fill:black;font-family:sans-serif;font-size:13;" transform="matrix(1 0 0 1 263 726)">Small</text>
  <text style="stroke:none;fill:black;font-family:sans-serif;font-size:13;" transform="matrix(1 0 0 1 263 1156)">Medium</text>
  <text style="stroke:none;fill:black;font-family:sans-serif;font-size:13;" transform="matrix(1 0 0 1 263 1586)">Large</text>
 </g>
 <g id="Guides">
  <g id="H-reference" style="fill:#27AAE1;stroke:none;" transform="matrix(1 0 0 1 339 696)">
   <path d="M0.993654 0L3.63775 0L29.3281-67.1323L30.0303-67.1323L30.0303-70.459L28.1226-70.459ZM11.6885-24.4799L46.9815-24.4799L46.2315-26.7285L12.4385-26.7285ZM55.1196 0L57.7637 0L30.6382-70.459L29.4326-70.459L29.4326-67.1323Z"/>
  </g>
  <line id="Baseline-S" style="fill:none;stroke:#27AAE1;opacity:1;stroke-width:0.5;" x1="263" x2="3036" y1="696" y2="696"/>
  <line id="Capline-S" style="fill:none;stroke:#27AAE1;opacity:1;stroke-width:0.5;" x1="263" x2="3036" y1="625.541" y2="625.541"/>
  <g id="H-reference" style="fill:#27AAE1;stroke:none;" transform="matrix(1 0 0 1 339 1126)">
   <path d="M0.993654 0L3.63775 0L29.3281-67.1323L30.0303-67.1323L30.0303-70.459L28.1226-70.459ZM11.6885-24.4799L46.9815-24.4799L46.2315-26.7285L12.4385-26.7285ZM55.1196 0L57.7637 0L30.6382-70.459L29.4326-70.459L29.4326-67.1323Z"/>
  </g>
  <line id="Baseline-M" style="fill:none;stroke:#27AAE1;opacity:1;stroke-width:0.5;" x1="263" x2="3036" y1="1126" y2="1126"/>
  <line id="Capline-M" style="fill:none;stroke:#27AAE1;opacity:1;stroke-width:0.5;" x1="263" x2="3036" y1="1055.54" y2="1055.54"/>
  <g id="H-reference" style="fill:#27AAE1;stroke:none;" transform="matrix(1 0 0 1 339 1556)">
   <path d="M0.993654 0L3.63775 0L29.3281-67.1323L30.0303-67.1323L30.0303-70.459L28.1226-70.459ZM11.6885-24.4799L46.9815-24.4799L46.2315-26.7285L12.4385-26.7285ZM55.1196 0L57.7637 0L30.6382-70.459L29.4326-70.459L29.4326-67.1323Z"/>
  </g>
  <line id="Baseline-L" style="fill:none;stroke:#27AAE1;opacity:1;stroke-width:0.5;" x1="263" x2="3036" y1="1556" y2="1556"/>
  <line id="Capline-L" style="fill:none;stroke:#27AAE1;opacity:1;stroke-width:0.5;" x1="263" x2="3036" y1="1485.54" y2="1485.54"/>
  <line id="left-margin-Ultralight-S" style="fill:none;stroke:#00AEEF;stroke-width:0.5;opacity:1.0;" x1="478.905" x2="478.905" y1="600.785" y2="720.121"/>
  <line id="right-margin-Ultralight-S" style="fill:none;stroke:#00AEEF;stroke-width:0.5;opacity:1.0;" x1="640.517" x2="640.517" y1="600.785" y2="720.121"/>
  <line id="left-margin-Regular-S" style="fill:none;stroke:#00AEEF;stroke-width:0.5;opacity:1.0;" x1="1364.88" x2="1364.88" y1="600.785" y2="720.121"/>
  <line id="right-margin-Regular-S" style="fill:none;stroke:#00AEEF;stroke-width:0.5;opacity:1.0;" x1="1534.81" x2="1534.81" y1="600.785" y2="720.121"/>
  <line id="left-margin-Black-S" style="fill:none;stroke:#00AEEF;stroke-width:0.5;opacity:1.0;" x1="2832.62" x2="2832.62" y1="600.785" y2="720.121"/>
  <line id="right-margin-Black-S" style="fill:none;stroke:#00AEEF;stroke-width:0.5;opacity:1.0;" x1="3034.18" x2="3034.18" y1="600.785" y2="720.121"/>
 </g>
 <g id="Symbols">
  <g id="Black-S" transform="matrix(1 0 0 1 2832.62 696)">
   <path class="SFSymbolsPreviewWireframe" d="M19.0918-4.29688C24.4141-4.29688 27.3926-6.73828 28.7109-12.3047L29.6387-16.1621L47.9004-16.1621L48.8281-12.3047C50.1465-6.73828 53.125-4.29688 58.4473-4.29688C64.4043-4.29688 68.2617-7.86133 68.2617-13.2812C68.2617-15.5273 67.9688-17.2852 67.2363-19.4336L55.3223-54.9805C52.7832-62.5488 47.6074-66.1133 38.9648-66.1133C30.8594-66.1133 25.7812-62.5 23.1934-54.9805L10.7422-18.457C10.1074-16.5527 9.76562-14.6484 9.76562-12.9883C9.76562-7.61719 13.3301-4.29688 19.0918-4.29688ZM33.1055-29.7363L38.5742-50.2441L38.916-50.2441L44.3848-29.7363ZM85.0586-5.27344L107.617-5.27344C120.801-5.27344 129.443-12.3047 129.443-22.7539C129.443-30.6152 122.217-36.7676 113.916-36.8164L113.916-37.1094C121.24-37.9395 126.758-43.0176 126.758-50C126.758-59.3262 119.336-64.8438 106.396-64.8438L85.0586-64.8438C78.9551-64.8438 75-61.377 75-55.1758L75-14.9414C75-8.74023 78.9551-5.27344 85.0586-5.27344ZM95.1172-41.3574L95.1172-51.7578L100.879-51.7578C104.834-51.7578 107.275-49.707 107.275-46.4844C107.275-43.457 104.785-41.3574 101.025-41.3574ZM95.1172-18.3594L95.1172-30.5664L101.611-30.5664C106.152-30.5664 108.984-28.3203 108.984-24.6094C108.984-20.5566 106.152-18.3594 101.318-18.3594ZM164.404-4.29688C176.172-4.29688 185.352-9.52148 189.404-16.1621C190.723-18.3105 191.406-20.8008 191.406-23.3398C191.406-27.9785 187.842-31.3965 183.008-31.3965C178.809-31.3965 176.416-29.9805 173.877-25.8301C171.191-21.4844 168.311-19.4336 164.453-19.4336C157.91-19.4336 153.906-25.1953 153.906-35.1562C153.906-45.0684 157.959-50.7812 164.404-50.7812C168.848-50.7812 171.387-48.584 174.805-43.4082C177.197-39.7461 179.297-38.5742 183.398-38.5742C188.428-38.5742 191.797-41.748 191.797-46.3379C191.797-48.4863 191.309-50.5859 190.332-52.5391C186.768-60.1074 176.807-65.918 164.404-65.918C144.824-65.918 133.398-54.541 133.398-35.1074C133.398-15.7227 144.873-4.29688 164.404-4.29688Z"/>
  </g>
  <g id="Regular-S" transform="matrix(1 0 0 1 1364.88 696)">
   <path class="SFSymbolsPreviewWireframe" d="M13.4766-6.68945C15.7715-6.68945 16.9434-7.71484 17.7734-10.1562L22.2168-22.5586L43.9941-22.5586L48.4375-10.1562C49.2676-7.71484 50.4395-6.68945 52.7344-6.68945C55.0293-6.68945 56.543-8.25195 56.543-10.4492C56.543-11.1816 56.3965-11.8652 56.0547-12.793L38.7695-59.2773C37.7441-62.0605 35.9375-63.5254 33.1055-63.5254C30.3223-63.5254 28.5156-62.0605 27.5391-59.3262L10.2539-12.7441C9.91211-11.8164 9.76562-11.1328 9.76562-10.4004C9.76562-8.20312 11.1816-6.68945 13.4766-6.68945ZM24.3164-29.1504L32.959-53.6621L33.2031-53.6621L41.8457-29.1504ZM67.4316-7.95898L86.2305-7.95898C98.4375-7.95898 105.762-13.9648 105.762-23.0469C105.762-30.5664 100.439-35.9863 92.627-36.8652L92.627-37.1582C98.4375-38.0859 102.881-43.4082 102.881-49.4629C102.881-57.0801 96.1914-62.5977 86.1328-62.5977L67.4316-62.5977C64.9902-62.5977 63.3789-60.9863 63.3789-58.4473L63.3789-12.1094C63.3789-9.57031 64.9902-7.95898 67.4316-7.95898ZM71.7285-39.4043L71.7285-55.5664L84.1309-55.5664C90.7715-55.5664 94.5801-52.5879 94.5801-48.1934C94.5801-42.5781 90.1855-39.4043 82.2754-39.4043ZM71.7285-14.8926L71.7285-32.8613L84.0332-32.8613C92.627-32.8613 97.2168-29.6875 97.2168-23.584C97.2168-18.1641 92.8223-14.8926 84.6191-14.8926ZM137.451-6.98242C147.363-6.98242 155.078-11.1816 158.887-18.6035C159.619-19.9707 159.961-21.2891 159.961-22.5586C159.961-24.707 158.447-26.1719 156.25-26.1719C154.59-26.1719 153.613-25.4883 152.539-23.291C149.658-17.2363 144.727-14.3555 137.451-14.3555C126.855-14.3555 120.117-22.3633 120.117-35.3516C120.117-48.1934 126.904-56.2012 137.451-56.2012C144.189-56.2012 149.609-52.5391 152.393-46.4355C153.418-44.2871 154.639-43.3594 156.494-43.3594C158.643-43.3594 160.156-44.8242 160.156-46.9727C160.156-47.998 159.912-49.0723 159.424-50.3418C156.299-58.6914 147.51-63.5742 137.451-63.5742C121.777-63.5742 111.768-52.7344 111.768-35.3027C111.768-17.7734 121.68-6.98242 137.451-6.98242Z"/>
  </g>
  <g id="Ultralight-S" transform="matrix(1 0 0 1 478.905 696)">
   <path class="SFSymbolsPreviewWireframe" d="M10.8882-7.55224C11.503-7.55224 11.8121-7.85107 12.0518-8.5215L19.3106-27.2358L45.2202-27.2358L52.4336-8.5215C52.7187-7.85107 52.9824-7.55224 53.5972-7.55224C54.3027-7.55224 54.7266-7.97949 54.7266-8.63283C54.7266-8.86574 54.6709-9.14065 54.5562-9.38723L33.6836-62.8647C33.4302-63.4683 33.0313-63.8887 32.2881-63.8887C31.5483-63.8887 31.0586-63.5137 30.854-62.8681L9.93604-9.38382C9.82129-9.13723 9.76562-8.86232 9.76562-8.62941C9.76562-7.97608 10.228-7.55224 10.8882-7.55224ZM20.0479-29.2866L32.187-60.519L32.3403-60.519L44.4341-29.2866ZM62.7544-8.09521L80.4634-8.09521C92.2164-8.09521 99.4043-13.7832 99.4043-22.6382C99.4043-30.7935 93.0377-35.8047 85.0435-36.6382L85.0435-36.7949C92.0801-38.0859 96.4327-43.1812 96.4327-49.917C96.4327-57.8066 89.7886-63.2334 79.9571-63.2334L62.7544-63.2334C62.084-63.2334 61.6079-62.8027 61.6079-62.08L61.6079-9.29397C61.6079-8.5713 62.084-8.09521 62.7544-8.09521ZM63.8726-37.4517L63.8726-61.1972L79.7261-61.1972C88.4102-61.1972 94.1714-56.6748 94.1714-49.8281C94.1714-42.2603 88.2329-37.4517 79.3238-37.4517ZM63.8726-10.17L63.8726-35.4497L79.4922-35.4497C90.5381-35.4497 97.1714-30.5049 97.1714-22.6758C97.1714-15.0762 90.8242-10.17 80.3052-10.17ZM130.095-7.3457C139.235-7.3457 146.632-11.6357 150.032-18.4219C150.991-20.3794 151.833-22.5605 151.833-24.5566C151.833-25.2974 151.454-25.7632 150.755-25.7632C150.14-25.7632 149.753-25.3521 149.633-24.5171C148.387-16.1465 140.367-9.45121 130.095-9.45121C116.593-9.45121 107.766-19.7295 107.766-36.0781C107.766-52.0532 116.415-62.0136 130.095-62.0136C140.103-62.0136 148.292-54.8096 149.713-45.8452C149.831-45.1045 150.143-44.8125 150.727-44.8125C151.468-44.8125 151.801-45.2329 151.801-45.9736C151.801-46.7266 151.648-47.7554 151.341-48.7979C148.852-57.6016 140.108-64.0737 130.095-64.0737C115.057-64.0737 105.501-53.2339 105.501-36.0747C105.501-18.5454 115.141-7.3457 130.095-7.3457Z"/>
  </g>
 </g>
</svg>
