<?xml version="1.0" encoding="UTF-8"?>
<!--Generator: Apple Native CoreSVG 232.5-->
<!DOCTYPE svg
PUBLIC "-//W3C//DTD SVG 1.1//EN"
       "http://www.w3.org/Graphics/SVG/1.1/DTD/svg11.dtd">
<svg version="1.1" xmlns="http://www.w3.org/2000/svg" xmlns:xlink="http://www.w3.org/1999/xlink" width="3300" height="2200">
 <!--glyph: "uni101FBC.medium", point size: 100.0, font version: "19.2d2e1", template writer version: "128"-->
 <style>.SFSymbolsPreviewWireframe {fill:none;opacity:1.0;stroke:black;stroke-width:0.5}
</style>
 <g id="Notes">
  <rect height="2200" id="artboard" style="fill:white;opacity:1" width="3300" x="0" y="0"/>
  <line style="fill:none;stroke:black;opacity:1;stroke-width:0.5;" x1="263" x2="3036" y1="292" y2="292"/>
  <text style="stroke:none;fill:black;font-family:sans-serif;font-size:13;font-weight:bold;" transform="matrix(1 0 0 1 263 322)">Weight/Scale Variations</text>
  <text style="stroke:none;fill:black;font-family:sans-serif;font-size:13;text-anchor:middle;" transform="matrix(1 0 0 1 559.711 322)">Ultralight</text>
  <text style="stroke:none;fill:black;font-family:sans-serif;font-size:13;text-anchor:middle;" transform="matrix(1 0 0 1 856.422 322)">Thin</text>
  <text style="stroke:none;fill:black;font-family:sans-serif;font-size:13;text-anchor:middle;" transform="matrix(1 0 0 1 1153.13 322)">Light</text>
  <text style="stroke:none;fill:black;font-family:sans-serif;font-size:13;text-anchor:middle;" transform="matrix(1 0 0 1 1449.84 322)">Regular</text>
  <text style="stroke:none;fill:black;font-family:sans-serif;font-size:13;text-anchor:middle;" transform="matrix(1 0 0 1 1746.56 322)">Medium</text>
  <text style="stroke:none;fill:black;font-family:sans-serif;font-size:13;text-anchor:middle;" transform="matrix(1 0 0 1 2043.27 322)">Semibold</text>
  <text style="stroke:none;fill:black;font-family:sans-serif;font-size:13;text-anchor:middle;" transform="matrix(1 0 0 1 2339.98 322)">Bold</text>
  <text style="stroke:none;fill:black;font-family:sans-serif;font-size:13;text-anchor:middle;" transform="matrix(1 0 0 1 2636.69 322)">Heavy</text>
  <text style="stroke:none;fill:black;font-family:sans-serif;font-size:13;text-anchor:middle;" transform="matrix(1 0 0 1 2933.4 322)">Black</text>
  <line style="fill:none;stroke:black;opacity:1;stroke-width:0.5;" x1="263" x2="3036" y1="1903" y2="1903"/>
  <g transform="matrix(0.2 0 0 0.2 263 1933)">
   <path d="m46.2402 4.15039c21.5332 0 39.4531-17.8711 39.4531-39.4043s-17.9688-39.4043-39.502-39.4043c-21.4844 0-39.3555 17.8711-39.3555 39.4043s17.9199 39.4043 39.4043 39.4043Zm0-7.42188c-17.7246 0-31.8848-14.209-31.8848-31.9824s14.1113-31.9824 31.8359-31.9824c17.7734 0 32.0312 14.209 32.0312 31.9824s-14.209 31.9824-31.9824 31.9824Zm-17.9688-31.9824c0 2.14844 1.51367 3.61328 3.75977 3.61328h10.498v10.5957c0 2.19727 1.46484 3.71094 3.61328 3.71094 2.24609 0 3.71094-1.51367 3.71094-3.71094v-10.5957h10.5957c2.19727 0 3.71094-1.46484 3.71094-3.61328 0-2.19727-1.51367-3.71094-3.71094-3.71094h-10.5957v-10.5469c0-2.24609-1.46484-3.75977-3.71094-3.75977-2.14844 0-3.61328 1.51367-3.61328 3.75977v10.5469h-10.498c-2.24609 0-3.75977 1.51367-3.75977 3.71094Z"/>
  </g>
  <g transform="matrix(0.2 0 0 0.2 281.506 1933)">
   <path d="m58.5449 14.5508c27.2461 0 49.8047-22.6074 49.8047-49.8047 0-27.2461-22.6074-49.8047-49.8535-49.8047-27.1973 0-49.7559 22.5586-49.7559 49.8047 0 27.1973 22.6074 49.8047 49.8047 49.8047Zm0-8.30078c-23.0469 0-41.4551-18.457-41.4551-41.5039s18.3594-41.5039 41.4062-41.5039 41.5527 18.457 41.5527 41.5039-18.457 41.5039-41.5039 41.5039Zm-22.6562-41.5039c0 2.39258 1.66016 4.00391 4.15039 4.00391h14.3555v14.4043c0 2.44141 1.66016 4.15039 4.05273 4.15039 2.44141 0 4.15039-1.66016 4.15039-4.15039v-14.4043h14.4043c2.44141 0 4.15039-1.61133 4.15039-4.00391 0-2.44141-1.70898-4.15039-4.15039-4.15039h-14.4043v-14.3555c0-2.49023-1.70898-4.19922-4.15039-4.19922-2.39258 0-4.05273 1.70898-4.05273 4.19922v14.3555h-14.3555c-2.49023 0-4.15039 1.70898-4.15039 4.15039Z"/>
  </g>
  <g transform="matrix(0.2 0 0 0.2 304.924 1933)">
   <path d="m74.8535 28.3203c34.8145 0 63.623-28.8086 63.623-63.5742 0-34.8145-28.8574-63.623-63.6719-63.623-34.7656 0-63.5254 28.8086-63.5254 63.623 0 34.7656 28.8086 63.5742 63.5742 63.5742Zm0-9.08203c-30.1758 0-54.4434-24.3164-54.4434-54.4922 0-30.2246 24.2188-54.4922 54.3945-54.4922 30.2246 0 54.541 24.2676 54.541 54.4922 0 30.1758-24.2676 54.4922-54.4922 54.4922Zm-28.8574-54.4922c0 2.58789 1.85547 4.39453 4.58984 4.39453h19.7266v19.7754c0 2.68555 1.85547 4.58984 4.44336 4.58984 2.68555 0 4.54102-1.85547 4.54102-4.58984v-19.7754h19.7754c2.68555 0 4.58984-1.80664 4.58984-4.39453 0-2.73438-1.85547-4.58984-4.58984-4.58984h-19.7754v-19.7266c0-2.73438-1.85547-4.63867-4.54102-4.63867-2.58789 0-4.44336 1.9043-4.44336 4.63867v19.7266h-19.7266c-2.73438 0-4.58984 1.85547-4.58984 4.58984Z"/>
  </g>
  <text style="stroke:none;fill:black;font-family:sans-serif;font-size:13;font-weight:bold;" transform="matrix(1 0 0 1 263 1953)">Design Variations</text>
  <text style="stroke:none;fill:black;font-family:sans-serif;font-size:13;" transform="matrix(1 0 0 1 263 1971)">Symbols are supported in up to nine weights and three scales.</text>
  <text style="stroke:none;fill:black;font-family:sans-serif;font-size:13;" transform="matrix(1 0 0 1 263 1989)">For optimal layout with text and other symbols, vertically align</text>
  <text style="stroke:none;fill:black;font-family:sans-serif;font-size:13;" transform="matrix(1 0 0 1 263 2007)">symbols with the adjacent text.</text>
  <line style="fill:none;stroke:#00AEEF;stroke-width:0.5;opacity:1.0;" x1="776" x2="776" y1="1919" y2="1933"/>
  <g transform="matrix(0.2 0 0 0.2 776 1933)">
   <path d="m16.5527 0.78125c2.58789 0 3.85742-0.976562 4.78516-3.71094l6.29883-17.2363h28.8086l6.29883 17.2363c0.927734 2.73438 2.19727 3.71094 4.73633 3.71094 2.58789 0 4.24805-1.5625 4.24805-4.00391 0-0.830078-0.146484-1.61133-0.537109-2.63672l-22.9004-60.9863c-1.12305-2.97852-3.125-4.49219-6.25-4.49219-3.02734 0-5.07812 1.46484-6.15234 4.44336l-22.9004 61.084c-0.390625 1.02539-0.537109 1.80664-0.537109 2.63672 0 2.44141 1.5625 3.95508 4.10156 3.95508Zm13.4766-28.3691 11.8652-32.8613h0.244141l11.8652 32.8613Z"/>
  </g>
  <line style="fill:none;stroke:#00AEEF;stroke-width:0.5;opacity:1.0;" x1="792.836" x2="792.836" y1="1919" y2="1933"/>
  <text style="stroke:none;fill:black;font-family:sans-serif;font-size:13;font-weight:bold;" transform="matrix(1 0 0 1 776 1953)">Margins</text>
  <text style="stroke:none;fill:black;font-family:sans-serif;font-size:13;" transform="matrix(1 0 0 1 776 1971)">Leading and trailing margins on the left and right side of each symbol</text>
  <text style="stroke:none;fill:black;font-family:sans-serif;font-size:13;" transform="matrix(1 0 0 1 776 1989)">can be adjusted by modifying the x-location of the margin guidelines.</text>
  <text style="stroke:none;fill:black;font-family:sans-serif;font-size:13;" transform="matrix(1 0 0 1 776 2007)">Modifications are automatically applied proportionally to all</text>
  <text style="stroke:none;fill:black;font-family:sans-serif;font-size:13;" transform="matrix(1 0 0 1 776 2025)">scales and weights.</text>
  <g transform="matrix(0.2 0 0 0.2 1289 1933)">
   <path d="m14.209 9.32617 8.49609 8.54492c4.29688 4.3457 9.22852 4.05273 13.8672-1.07422l53.4668-58.9355-4.83398-4.88281-53.0762 58.3984c-1.75781 2.00195-3.41797 2.49023-5.76172 0.146484l-5.85938-5.81055c-2.34375-2.29492-1.80664-4.00391 0.195312-5.81055l57.373-54.0039-4.88281-4.83398-57.959 54.4434c-4.93164 4.58984-5.32227 9.47266-1.02539 13.8184Zm32.0801-90.9668c-2.09961 2.05078-2.24609 4.93164-1.07422 6.88477 1.17188 1.80664 3.4668 2.97852 6.68945 2.14844 7.32422-1.70898 14.9414-2.00195 22.0703 2.68555l-2.92969 7.27539c-1.70898 4.15039-0.830078 7.08008 1.85547 9.81445l11.4746 11.5723c2.44141 2.44141 4.49219 2.53906 7.32422 2.05078l5.32227-0.976562 3.32031 3.36914-0.195312 2.7832c-0.195312 2.49023 0.439453 4.39453 2.88086 6.78711l3.80859 3.71094c2.39258 2.39258 5.46875 2.53906 7.8125 0.195312l14.5508-14.5996c2.34375-2.34375 2.24609-5.32227-0.146484-7.71484l-3.85742-3.80859c-2.39258-2.39258-4.24805-3.17383-6.64062-2.97852l-2.88086 0.244141-3.22266-3.17383 1.2207-5.61523c0.634766-2.83203-0.146484-5.0293-3.07617-7.95898l-10.9863-10.9375c-16.6992-16.6016-38.8672-16.2109-53.3203-1.75781Zm7.4707 1.85547c12.1582-8.88672 28.6133-7.37305 39.7461 3.75977l12.1582 12.0605c1.17188 1.17188 1.36719 2.09961 1.02539 3.80859l-1.61133 7.42188 7.51953 7.42188 4.93164-0.292969c1.26953-0.0488281 1.66016 0.0488281 2.63672 1.02539l2.88086 2.88086-12.207 12.207-2.88086-2.88086c-0.976562-0.976562-1.12305-1.36719-1.07422-2.68555l0.341797-4.88281-7.4707-7.42188-7.61719 1.26953c-1.61133 0.341797-2.34375 0.195312-3.56445-0.976562l-10.0098-10.0098c-1.26953-1.17188-1.41602-2.00195-0.634766-3.85742l4.39453-10.4492c-7.8125-7.27539-17.9688-10.4004-28.125-7.42188-0.78125 0.195312-1.07422-0.439453-0.439453-0.976562Z"/>
  </g>
  <text style="stroke:none;fill:black;font-family:sans-serif;font-size:13;font-weight:bold;" transform="matrix(1 0 0 1 1289 1953)">Exporting</text>
  <text style="stroke:none;fill:black;font-family:sans-serif;font-size:13;" transform="matrix(1 0 0 1 1289 1971)">Symbols should be outlined when exporting to ensure the</text>
  <text style="stroke:none;fill:black;font-family:sans-serif;font-size:13;" transform="matrix(1 0 0 1 1289 1989)">design is preserved when submitting to Xcode.</text>
  <text id="template-version" style="stroke:none;fill:black;font-family:sans-serif;font-size:13;text-anchor:end;" transform="matrix(1 0 0 1 3036 1933)">Template v.5.0</text>
  <text style="stroke:none;fill:black;font-family:sans-serif;font-size:13;text-anchor:end;" transform="matrix(1 0 0 1 3036 1951)">Requires Xcode 15 or greater</text>
  <text id="descriptive-name" style="stroke:none;fill:black;font-family:sans-serif;font-size:13;text-anchor:end;" transform="matrix(1 0 0 1 3036 1969)">Generated from automatic.headlight.low.beam</text>
  <text style="stroke:none;fill:black;font-family:sans-serif;font-size:13;text-anchor:end;" transform="matrix(1 0 0 1 3036 1987)">Typeset at 100.0 points</text>
  <text style="stroke:none;fill:black;font-family:sans-serif;font-size:13;" transform="matrix(1 0 0 1 263 726)">Small</text>
  <text style="stroke:none;fill:black;font-family:sans-serif;font-size:13;" transform="matrix(1 0 0 1 263 1156)">Medium</text>
  <text style="stroke:none;fill:black;font-family:sans-serif;font-size:13;" transform="matrix(1 0 0 1 263 1586)">Large</text>
 </g>
 <g id="Guides">
  <g id="H-reference" style="fill:#27AAE1;stroke:none;" transform="matrix(1 0 0 1 339 696)">
   <path d="M0.993654 0L3.63775 0L29.3281-67.1323L30.0303-67.1323L30.0303-70.459L28.1226-70.459ZM11.6885-24.4799L46.9815-24.4799L46.2315-26.7285L12.4385-26.7285ZM55.1196 0L57.7637 0L30.6382-70.459L29.4326-70.459L29.4326-67.1323Z"/>
  </g>
  <line id="Baseline-S" style="fill:none;stroke:#27AAE1;opacity:1;stroke-width:0.5;" x1="263" x2="3036" y1="696" y2="696"/>
  <line id="Capline-S" style="fill:none;stroke:#27AAE1;opacity:1;stroke-width:0.5;" x1="263" x2="3036" y1="625.541" y2="625.541"/>
  <g id="H-reference" style="fill:#27AAE1;stroke:none;" transform="matrix(1 0 0 1 339 1126)">
   <path d="M0.993654 0L3.63775 0L29.3281-67.1323L30.0303-67.1323L30.0303-70.459L28.1226-70.459ZM11.6885-24.4799L46.9815-24.4799L46.2315-26.7285L12.4385-26.7285ZM55.1196 0L57.7637 0L30.6382-70.459L29.4326-70.459L29.4326-67.1323Z"/>
  </g>
  <line id="Baseline-M" style="fill:none;stroke:#27AAE1;opacity:1;stroke-width:0.5;" x1="263" x2="3036" y1="1126" y2="1126"/>
  <line id="Capline-M" style="fill:none;stroke:#27AAE1;opacity:1;stroke-width:0.5;" x1="263" x2="3036" y1="1055.54" y2="1055.54"/>
  <g id="H-reference" style="fill:#27AAE1;stroke:none;" transform="matrix(1 0 0 1 339 1556)">
   <path d="M0.993654 0L3.63775 0L29.3281-67.1323L30.0303-67.1323L30.0303-70.459L28.1226-70.459ZM11.6885-24.4799L46.9815-24.4799L46.2315-26.7285L12.4385-26.7285ZM55.1196 0L57.7637 0L30.6382-70.459L29.4326-70.459L29.4326-67.1323Z"/>
  </g>
  <line id="Baseline-L" style="fill:none;stroke:#27AAE1;opacity:1;stroke-width:0.5;" x1="263" x2="3036" y1="1556" y2="1556"/>
  <line id="Capline-L" style="fill:none;stroke:#27AAE1;opacity:1;stroke-width:0.5;" x1="263" x2="3036" y1="1485.54" y2="1485.54"/>
  <line id="left-margin-Ultralight-S" style="fill:none;stroke:#00AEEF;stroke-width:0.5;opacity:1.0;" x1="508.431" x2="508.431" y1="600.785" y2="720.121"/>
  <line id="right-margin-Ultralight-S" style="fill:none;stroke:#00AEEF;stroke-width:0.5;opacity:1.0;" x1="610.991" x2="610.991" y1="600.785" y2="720.121"/>
  <line id="left-margin-Regular-S" style="fill:none;stroke:#00AEEF;stroke-width:0.5;opacity:1.0;" x1="1388.37" x2="1388.37" y1="600.785" y2="720.121"/>
  <line id="right-margin-Regular-S" style="fill:none;stroke:#00AEEF;stroke-width:0.5;opacity:1.0;" x1="1511.32" x2="1511.32" y1="600.785" y2="720.121"/>
  <line id="left-margin-Black-S" style="fill:none;stroke:#00AEEF;stroke-width:0.5;opacity:1.0;" x1="2867.48" x2="2867.48" y1="600.785" y2="720.121"/>
  <line id="right-margin-Black-S" style="fill:none;stroke:#00AEEF;stroke-width:0.5;opacity:1.0;" x1="2999.32" x2="2999.32" y1="600.785" y2="720.121"/>
 </g>
 <g id="Symbols">
  <g id="Black-S" transform="matrix(1 0 0 1 2867.48 696)">
   <path class="SFSymbolsPreviewWireframe" d="M51.8555-55.0781L51.8555-65.8203L14.4043-55.8105C11.2305-54.9805 9.76562-52.6367 9.76562-50.2441C9.76562-46.8262 12.5488-44.5312 16.1621-45.5078ZM51.8555-39.0137L51.8555-49.7559L14.4043-39.6973C11.2793-38.8672 9.81445-36.6211 9.81445-34.2773C9.81445-30.7617 12.793-28.5156 16.6504-29.541ZM51.8555-22.8516L51.8555-33.6426L14.4043-23.584C11.2793-22.7539 9.81445-20.5078 9.81445-18.1641C9.81445-14.6484 12.793-12.4023 16.6504-13.4277ZM51.8555-6.73828L51.8555-17.4805L14.4043-7.4707C11.2793-6.64062 9.81445-4.39453 9.81445-2.05078C9.81445 1.51367 12.6953 3.75977 16.6016 2.73438ZM44.4336-35.2539C44.3848-27.7344 45.0195-19.0918 47.4121-10.5957C51.2207 2.05078 59.4238 7.71484 73.6328 7.71484L75.9766 7.71484C104.932 7.71484 129.395-11.7188 129.395-35.2539C129.395-58.7891 104.932-78.2227 75.9766-78.2227L73.6328-78.2227C57.4707-78.2227 49.0723-70.8008 46.0449-54.1504C44.7754-47.5586 44.3848-41.0645 44.4336-35.2539ZM51.7578-35.2539C51.709-28.0273 52.2461-20.4102 54.4434-12.6465C57.2754-3.27148 62.5977 0.390625 73.6328 0.390625L75.9766 0.390625C100.928 0.390625 122.07-15.9668 122.07-35.2539C122.07-54.541 100.928-70.8984 75.9766-70.8984L73.6328-70.8984C62.6465-70.8984 57.3242-67.2363 54.4434-57.8613C52.2461-50.0977 51.709-42.4805 51.7578-35.2539ZM64.4531-35.2539C64.4043-43.0176 65.0879-48.584 66.6992-54.248C67.5781-57.3242 68.9941-58.1543 73.6328-58.1543L75.9766-58.1543C93.6035-58.1543 109.375-47.3145 109.375-35.2539C109.375-23.1934 93.6035-12.3535 75.9766-12.3535L73.6328-12.3535C68.9941-12.3535 67.5781-13.1836 66.6992-16.2598C65.0879-21.9238 64.4043-27.4902 64.4531-35.2539ZM74.3652-21.2891C77.3438-21.2891 79.1504-22.998 79.834-26.416L79.9805-27.3438L87.207-27.3438L87.3535-26.416C88.0371-22.998 89.8438-21.2891 92.8223-21.2891C96.2891-21.2891 98.291-23.1934 98.291-26.5625C98.291-27.3926 98.0469-28.6133 97.5098-30.2734L92.8711-45.0684C91.2598-50.1953 88.2324-52.5391 83.4473-52.5391C78.8086-52.5391 75.9277-50.2441 74.3164-45.0684L69.6777-30.2734C69.1406-28.6133 68.8965-27.3926 68.8965-26.5625C68.8965-23.1934 70.8984-21.2891 74.3652-21.2891ZM81.6895-35.2051L83.3984-43.3105L83.7891-43.3105L85.498-35.2051Z"/>
  </g>
  <g id="Regular-S" transform="matrix(1 0 0 1 1388.37 696)">
   <path class="SFSymbolsPreviewWireframe" d="M53.9062-51.3672L53.9062-58.5449L12.6953-47.5098C10.8887-47.0215 9.76562-45.6543 9.76562-43.8965C9.76562-41.5527 11.6211-40.0391 14.1602-40.7227ZM53.9062-37.5488L53.9062-44.7266L12.6953-33.6426C10.8887-33.1543 9.76562-31.7871 9.76562-29.9805C9.76562-27.6367 11.7188-26.1719 14.1602-26.8066ZM53.9062-23.584L53.9062-30.8105L12.6953-19.7754C10.8887-19.2871 9.76562-17.8711 9.76562-16.1621C9.76562-13.7695 11.6211-12.3047 14.1602-12.9883ZM53.9062-9.76562L53.9062-16.8945L12.6953-5.85938C10.8887-5.41992 9.76562-4.05273 9.76562-2.24609C9.76562 0.146484 11.6699 1.5625 14.1602 0.927734ZM41.3086-35.2539C41.3086-27.7344 41.8945-19.7266 44.2383-11.5723C47.6074-0.0488281 54.8828 4.63867 67.5781 4.63867L69.873 4.63867C96.582 4.63867 120.264-13.1348 120.264-35.2539C120.264-57.3242 96.6797-75.1465 69.873-75.1465L67.5781-75.1465C54.9316-75.1465 47.6562-70.459 44.2383-58.9844C41.8945-50.7812 41.3086-42.7734 41.3086-35.2539ZM48.5352-35.2539C48.5352-28.125 49.0234-20.8984 51.123-13.5254C53.5645-5.32227 57.8613-2.44141 67.5781-2.44141L69.9219-2.44141C93.1641-2.44141 113.184-17.5293 113.184-35.2539C113.184-52.9297 93.1641-68.0176 69.9219-68.0176L67.5781-68.0176C57.9102-68.0176 53.6133-65.1367 51.123-56.9336C49.0234-49.5605 48.5352-42.334 48.5352-35.2539ZM55.7129-35.2539C55.7129-43.2617 56.3477-49.1699 58.0078-54.9805C59.3262-59.2773 61.7676-60.8398 67.5781-60.8398L69.9219-60.8398C88.9648-60.8398 106.006-48.8281 106.006-35.2539C106.006-21.6309 88.9648-9.61914 69.9219-9.61914L67.5781-9.61914C61.7676-9.61914 59.3262-11.1816 58.0078-15.4785C56.3477-21.3379 55.7129-27.1973 55.7129-35.2539ZM66.3086-20.8008C67.7246-20.8008 68.7012-21.4355 69.2871-23.291L71.6309-30.2246L83.6426-30.2246L85.9375-23.291C86.5234-21.4355 87.5488-20.8008 88.9648-20.8008C90.6738-20.8008 91.8457-21.875 91.8457-23.5352C91.8457-24.0723 91.6992-24.707 91.4551-25.5371L82.0312-51.0254C81.2988-53.0273 79.7363-54.1016 77.5879-54.1016C75.4395-54.1016 73.9746-53.0273 73.2422-51.0254L63.8184-25.5371C63.5254-24.707 63.4277-24.0723 63.4277-23.5352C63.4277-21.875 64.5508-20.8008 66.3086-20.8008ZM73.1445-34.8633L77.4414-47.5586L77.832-47.5586L82.0801-34.8633Z"/>
  </g>
  <g id="Ultralight-S" transform="matrix(1 0 0 1 508.431 696)">
   <path class="SFSymbolsPreviewWireframe" d="M37.0592-52.23L37.0592-54.2764L10.5611-47.2373C10.0259-47.0669 9.76562-46.6533 9.76562-46.2124C9.76562-45.685 10.2134-45.125 11.1631-45.3999ZM37.0592-39.5923L37.0592-41.6387L10.5611-34.5962C10.0259-34.4712 9.76562-34.0576 9.76562-33.6133C9.76562-33.0859 10.1748-32.5292 11.1631-32.8007ZM37.0592-26.9443L37.0592-28.9487L10.5611-21.9551C10.0259-21.7846 9.76562-21.4131 9.76562-20.9301C9.76562-20.3994 10.168-19.8881 11.1631-20.1176ZM37.0592-14.352L37.0592-16.3496L10.5611-9.35593C10.0259-9.18894 9.76562-8.77535 9.76562-8.33101C9.76562-7.80023 10.1714-7.247 11.1631-7.51849ZM33.2711-35.2539C33.2711-27.4619 33.9478-20.9072 35.7466-14.6601C38.1622-6.17915 44.8927-2.44526 53.5919-2.44526L54.9786-2.44526C76.0568-2.44526 98.0129-16.9946 98.0129-35.2539C98.0129-53.5098 76.0636-68.0626 54.9786-68.0626L53.5919-68.0626C44.8961-68.0626 38.1656-64.3287 35.7466-55.8057C33.9478-49.6006 33.2711-43.0459 33.2711-35.2539ZM38.4996-35.2539C38.4996-27.8071 39.1241-21.8066 40.7696-16.1137C42.4845-10.1357 46.8722-7.70894 53.5919-7.70894L54.9821-7.70894C73.6833-7.70894 92.7946-20.4355 92.7946-35.2539C92.7946-50.0689 73.6833-62.8409 54.9821-62.8409L53.5919-62.8409C46.8756-62.8409 42.4879-60.3687 40.7696-54.3906C39.1241-48.6978 38.4996-42.6973 38.4996-35.2539ZM40.546-35.2539C40.546-42.7622 41.1808-48.3071 42.7047-53.8452C44.1593-58.8232 47.8268-60.7944 53.5919-60.7944L54.9821-60.7944C72.4357-60.7944 90.7936-48.9189 90.7936-35.2539C90.7936-21.5854 72.4357-9.70996 54.9821-9.70996L53.5919-9.70996C47.4635-9.70996 44.0685-11.9082 42.7047-16.6592C41.1808-22.2007 40.546-27.7422 40.546-35.2539ZM51.8229-21.4365C52.4215-21.4365 52.6715-21.708 52.9396-22.3828L56.3732-31.5415L69.7472-31.5415L73.1773-22.3828C73.4454-21.708 73.6988-21.4365 74.3883-21.4365C74.962-21.4365 75.4528-21.875 75.4528-22.3999C75.4528-22.71 75.3971-22.7998 75.2892-23.1304L64.5485-51.4795C64.2702-52.21 63.7521-52.5122 63.0568-52.5122C62.3614-52.5122 61.8502-52.21 61.5719-51.4795L50.8312-23.1304C50.7198-22.7998 50.6676-22.71 50.6676-22.4453C50.6676-21.8296 51.1095-21.4365 51.8229-21.4365ZM57.1149-33.5918L63.0465-49.2842L63.0738-49.2842L69.0021-33.5918Z"/>
  </g>
 </g>
</svg>
