<?xml version="1.0" encoding="UTF-8"?>
<!--Generator: Apple Native CoreSVG 232.5-->
<!DOCTYPE svg
PUBLIC "-//W3C//DTD SVG 1.1//EN"
       "http://www.w3.org/Graphics/SVG/1.1/DTD/svg11.dtd">
<svg version="1.1" xmlns="http://www.w3.org/2000/svg" xmlns:xlink="http://www.w3.org/1999/xlink" width="3300" height="2200">
 <!--glyph: "uni101FB9.medium", point size: 100.0, font version: "19.2d2e1", template writer version: "128"-->
 <style>.SFSymbolsPreviewWireframe {fill:none;opacity:1.0;stroke:black;stroke-width:0.5}
</style>
 <g id="Notes">
  <rect height="2200" id="artboard" style="fill:white;opacity:1" width="3300" x="0" y="0"/>
  <line style="fill:none;stroke:black;opacity:1;stroke-width:0.5;" x1="263" x2="3036" y1="292" y2="292"/>
  <text style="stroke:none;fill:black;font-family:sans-serif;font-size:13;font-weight:bold;" transform="matrix(1 0 0 1 263 322)">Weight/Scale Variations</text>
  <text style="stroke:none;fill:black;font-family:sans-serif;font-size:13;text-anchor:middle;" transform="matrix(1 0 0 1 559.711 322)">Ultralight</text>
  <text style="stroke:none;fill:black;font-family:sans-serif;font-size:13;text-anchor:middle;" transform="matrix(1 0 0 1 856.422 322)">Thin</text>
  <text style="stroke:none;fill:black;font-family:sans-serif;font-size:13;text-anchor:middle;" transform="matrix(1 0 0 1 1153.13 322)">Light</text>
  <text style="stroke:none;fill:black;font-family:sans-serif;font-size:13;text-anchor:middle;" transform="matrix(1 0 0 1 1449.84 322)">Regular</text>
  <text style="stroke:none;fill:black;font-family:sans-serif;font-size:13;text-anchor:middle;" transform="matrix(1 0 0 1 1746.56 322)">Medium</text>
  <text style="stroke:none;fill:black;font-family:sans-serif;font-size:13;text-anchor:middle;" transform="matrix(1 0 0 1 2043.27 322)">Semibold</text>
  <text style="stroke:none;fill:black;font-family:sans-serif;font-size:13;text-anchor:middle;" transform="matrix(1 0 0 1 2339.98 322)">Bold</text>
  <text style="stroke:none;fill:black;font-family:sans-serif;font-size:13;text-anchor:middle;" transform="matrix(1 0 0 1 2636.69 322)">Heavy</text>
  <text style="stroke:none;fill:black;font-family:sans-serif;font-size:13;text-anchor:middle;" transform="matrix(1 0 0 1 2933.4 322)">Black</text>
  <line style="fill:none;stroke:black;opacity:1;stroke-width:0.5;" x1="263" x2="3036" y1="1903" y2="1903"/>
  <g transform="matrix(0.2 0 0 0.2 263 1933)">
   <path d="m46.2402 4.15039c21.5332 0 39.4531-17.8711 39.4531-39.4043s-17.9688-39.4043-39.502-39.4043c-21.4844 0-39.3555 17.8711-39.3555 39.4043s17.9199 39.4043 39.4043 39.4043Zm0-7.42188c-17.7246 0-31.8848-14.209-31.8848-31.9824s14.1113-31.9824 31.8359-31.9824c17.7734 0 32.0312 14.209 32.0312 31.9824s-14.209 31.9824-31.9824 31.9824Zm-17.9688-31.9824c0 2.14844 1.51367 3.61328 3.75977 3.61328h10.498v10.5957c0 2.19727 1.46484 3.71094 3.61328 3.71094 2.24609 0 3.71094-1.51367 3.71094-3.71094v-10.5957h10.5957c2.19727 0 3.71094-1.46484 3.71094-3.61328 0-2.19727-1.51367-3.71094-3.71094-3.71094h-10.5957v-10.5469c0-2.24609-1.46484-3.75977-3.71094-3.75977-2.14844 0-3.61328 1.51367-3.61328 3.75977v10.5469h-10.498c-2.24609 0-3.75977 1.51367-3.75977 3.71094Z"/>
  </g>
  <g transform="matrix(0.2 0 0 0.2 281.506 1933)">
   <path d="m58.5449 14.5508c27.2461 0 49.8047-22.6074 49.8047-49.8047 0-27.2461-22.6074-49.8047-49.8535-49.8047-27.1973 0-49.7559 22.5586-49.7559 49.8047 0 27.1973 22.6074 49.8047 49.8047 49.8047Zm0-8.30078c-23.0469 0-41.4551-18.457-41.4551-41.5039s18.3594-41.5039 41.4062-41.5039 41.5527 18.457 41.5527 41.5039-18.457 41.5039-41.5039 41.5039Zm-22.6562-41.5039c0 2.39258 1.66016 4.00391 4.15039 4.00391h14.3555v14.4043c0 2.44141 1.66016 4.15039 4.05273 4.15039 2.44141 0 4.15039-1.66016 4.15039-4.15039v-14.4043h14.4043c2.44141 0 4.15039-1.61133 4.15039-4.00391 0-2.44141-1.70898-4.15039-4.15039-4.15039h-14.4043v-14.3555c0-2.49023-1.70898-4.19922-4.15039-4.19922-2.39258 0-4.05273 1.70898-4.05273 4.19922v14.3555h-14.3555c-2.49023 0-4.15039 1.70898-4.15039 4.15039Z"/>
  </g>
  <g transform="matrix(0.2 0 0 0.2 304.924 1933)">
   <path d="m74.8535 28.3203c34.8145 0 63.623-28.8086 63.623-63.5742 0-34.8145-28.8574-63.623-63.6719-63.623-34.7656 0-63.5254 28.8086-63.5254 63.623 0 34.7656 28.8086 63.5742 63.5742 63.5742Zm0-9.08203c-30.1758 0-54.4434-24.3164-54.4434-54.4922 0-30.2246 24.2188-54.4922 54.3945-54.4922 30.2246 0 54.541 24.2676 54.541 54.4922 0 30.1758-24.2676 54.4922-54.4922 54.4922Zm-28.8574-54.4922c0 2.58789 1.85547 4.39453 4.58984 4.39453h19.7266v19.7754c0 2.68555 1.85547 4.58984 4.44336 4.58984 2.68555 0 4.54102-1.85547 4.54102-4.58984v-19.7754h19.7754c2.68555 0 4.58984-1.80664 4.58984-4.39453 0-2.73438-1.85547-4.58984-4.58984-4.58984h-19.7754v-19.7266c0-2.73438-1.85547-4.63867-4.54102-4.63867-2.58789 0-4.44336 1.9043-4.44336 4.63867v19.7266h-19.7266c-2.73438 0-4.58984 1.85547-4.58984 4.58984Z"/>
  </g>
  <text style="stroke:none;fill:black;font-family:sans-serif;font-size:13;font-weight:bold;" transform="matrix(1 0 0 1 263 1953)">Design Variations</text>
  <text style="stroke:none;fill:black;font-family:sans-serif;font-size:13;" transform="matrix(1 0 0 1 263 1971)">Symbols are supported in up to nine weights and three scales.</text>
  <text style="stroke:none;fill:black;font-family:sans-serif;font-size:13;" transform="matrix(1 0 0 1 263 1989)">For optimal layout with text and other symbols, vertically align</text>
  <text style="stroke:none;fill:black;font-family:sans-serif;font-size:13;" transform="matrix(1 0 0 1 263 2007)">symbols with the adjacent text.</text>
  <line style="fill:none;stroke:#00AEEF;stroke-width:0.5;opacity:1.0;" x1="776" x2="776" y1="1919" y2="1933"/>
  <g transform="matrix(0.2 0 0 0.2 776 1933)">
   <path d="m16.5527 0.78125c2.58789 0 3.85742-0.976562 4.78516-3.71094l6.29883-17.2363h28.8086l6.29883 17.2363c0.927734 2.73438 2.19727 3.71094 4.73633 3.71094 2.58789 0 4.24805-1.5625 4.24805-4.00391 0-0.830078-0.146484-1.61133-0.537109-2.63672l-22.9004-60.9863c-1.12305-2.97852-3.125-4.49219-6.25-4.49219-3.02734 0-5.07812 1.46484-6.15234 4.44336l-22.9004 61.084c-0.390625 1.02539-0.537109 1.80664-0.537109 2.63672 0 2.44141 1.5625 3.95508 4.10156 3.95508Zm13.4766-28.3691 11.8652-32.8613h0.244141l11.8652 32.8613Z"/>
  </g>
  <line style="fill:none;stroke:#00AEEF;stroke-width:0.5;opacity:1.0;" x1="792.836" x2="792.836" y1="1919" y2="1933"/>
  <text style="stroke:none;fill:black;font-family:sans-serif;font-size:13;font-weight:bold;" transform="matrix(1 0 0 1 776 1953)">Margins</text>
  <text style="stroke:none;fill:black;font-family:sans-serif;font-size:13;" transform="matrix(1 0 0 1 776 1971)">Leading and trailing margins on the left and right side of each symbol</text>
  <text style="stroke:none;fill:black;font-family:sans-serif;font-size:13;" transform="matrix(1 0 0 1 776 1989)">can be adjusted by modifying the x-location of the margin guidelines.</text>
  <text style="stroke:none;fill:black;font-family:sans-serif;font-size:13;" transform="matrix(1 0 0 1 776 2007)">Modifications are automatically applied proportionally to all</text>
  <text style="stroke:none;fill:black;font-family:sans-serif;font-size:13;" transform="matrix(1 0 0 1 776 2025)">scales and weights.</text>
  <g transform="matrix(0.2 0 0 0.2 1289 1933)">
   <path d="m14.209 9.32617 8.49609 8.54492c4.29688 4.3457 9.22852 4.05273 13.8672-1.07422l53.4668-58.9355-4.83398-4.88281-53.0762 58.3984c-1.75781 2.00195-3.41797 2.49023-5.76172 0.146484l-5.85938-5.81055c-2.34375-2.29492-1.80664-4.00391 0.195312-5.81055l57.373-54.0039-4.88281-4.83398-57.959 54.4434c-4.93164 4.58984-5.32227 9.47266-1.02539 13.8184Zm32.0801-90.9668c-2.09961 2.05078-2.24609 4.93164-1.07422 6.88477 1.17188 1.80664 3.4668 2.97852 6.68945 2.14844 7.32422-1.70898 14.9414-2.00195 22.0703 2.68555l-2.92969 7.27539c-1.70898 4.15039-0.830078 7.08008 1.85547 9.81445l11.4746 11.5723c2.44141 2.44141 4.49219 2.53906 7.32422 2.05078l5.32227-0.976562 3.32031 3.36914-0.195312 2.7832c-0.195312 2.49023 0.439453 4.39453 2.88086 6.78711l3.80859 3.71094c2.39258 2.39258 5.46875 2.53906 7.8125 0.195312l14.5508-14.5996c2.34375-2.34375 2.24609-5.32227-0.146484-7.71484l-3.85742-3.80859c-2.39258-2.39258-4.24805-3.17383-6.64062-2.97852l-2.88086 0.244141-3.22266-3.17383 1.2207-5.61523c0.634766-2.83203-0.146484-5.0293-3.07617-7.95898l-10.9863-10.9375c-16.6992-16.6016-38.8672-16.2109-53.3203-1.75781Zm7.4707 1.85547c12.1582-8.88672 28.6133-7.37305 39.7461 3.75977l12.1582 12.0605c1.17188 1.17188 1.36719 2.09961 1.02539 3.80859l-1.61133 7.42188 7.51953 7.42188 4.93164-0.292969c1.26953-0.0488281 1.66016 0.0488281 2.63672 1.02539l2.88086 2.88086-12.207 12.207-2.88086-2.88086c-0.976562-0.976562-1.12305-1.36719-1.07422-2.68555l0.341797-4.88281-7.4707-7.42188-7.61719 1.26953c-1.61133 0.341797-2.34375 0.195312-3.56445-0.976562l-10.0098-10.0098c-1.26953-1.17188-1.41602-2.00195-0.634766-3.85742l4.39453-10.4492c-7.8125-7.27539-17.9688-10.4004-28.125-7.42188-0.78125 0.195312-1.07422-0.439453-0.439453-0.976562Z"/>
  </g>
  <text style="stroke:none;fill:black;font-family:sans-serif;font-size:13;font-weight:bold;" transform="matrix(1 0 0 1 1289 1953)">Exporting</text>
  <text style="stroke:none;fill:black;font-family:sans-serif;font-size:13;" transform="matrix(1 0 0 1 1289 1971)">Symbols should be outlined when exporting to ensure the</text>
  <text style="stroke:none;fill:black;font-family:sans-serif;font-size:13;" transform="matrix(1 0 0 1 1289 1989)">design is preserved when submitting to Xcode.</text>
  <text id="template-version" style="stroke:none;fill:black;font-family:sans-serif;font-size:13;text-anchor:end;" transform="matrix(1 0 0 1 3036 1933)">Template v.5.0</text>
  <text style="stroke:none;fill:black;font-family:sans-serif;font-size:13;text-anchor:end;" transform="matrix(1 0 0 1 3036 1951)">Requires Xcode 15 or greater</text>
  <text id="descriptive-name" style="stroke:none;fill:black;font-family:sans-serif;font-size:13;text-anchor:end;" transform="matrix(1 0 0 1 3036 1969)">Generated from automatic.headlight.high.beam.fill</text>
  <text style="stroke:none;fill:black;font-family:sans-serif;font-size:13;text-anchor:end;" transform="matrix(1 0 0 1 3036 1987)">Typeset at 100.0 points</text>
  <text style="stroke:none;fill:black;font-family:sans-serif;font-size:13;" transform="matrix(1 0 0 1 263 726)">Small</text>
  <text style="stroke:none;fill:black;font-family:sans-serif;font-size:13;" transform="matrix(1 0 0 1 263 1156)">Medium</text>
  <text style="stroke:none;fill:black;font-family:sans-serif;font-size:13;" transform="matrix(1 0 0 1 263 1586)">Large</text>
 </g>
 <g id="Guides">
  <g id="H-reference" style="fill:#27AAE1;stroke:none;" transform="matrix(1 0 0 1 339 696)">
   <path d="M0.993654 0L3.63775 0L29.3281-67.1323L30.0303-67.1323L30.0303-70.459L28.1226-70.459ZM11.6885-24.4799L46.9815-24.4799L46.2315-26.7285L12.4385-26.7285ZM55.1196 0L57.7637 0L30.6382-70.459L29.4326-70.459L29.4326-67.1323Z"/>
  </g>
  <line id="Baseline-S" style="fill:none;stroke:#27AAE1;opacity:1;stroke-width:0.5;" x1="263" x2="3036" y1="696" y2="696"/>
  <line id="Capline-S" style="fill:none;stroke:#27AAE1;opacity:1;stroke-width:0.5;" x1="263" x2="3036" y1="625.541" y2="625.541"/>
  <g id="H-reference" style="fill:#27AAE1;stroke:none;" transform="matrix(1 0 0 1 339 1126)">
   <path d="M0.993654 0L3.63775 0L29.3281-67.1323L30.0303-67.1323L30.0303-70.459L28.1226-70.459ZM11.6885-24.4799L46.9815-24.4799L46.2315-26.7285L12.4385-26.7285ZM55.1196 0L57.7637 0L30.6382-70.459L29.4326-70.459L29.4326-67.1323Z"/>
  </g>
  <line id="Baseline-M" style="fill:none;stroke:#27AAE1;opacity:1;stroke-width:0.5;" x1="263" x2="3036" y1="1126" y2="1126"/>
  <line id="Capline-M" style="fill:none;stroke:#27AAE1;opacity:1;stroke-width:0.5;" x1="263" x2="3036" y1="1055.54" y2="1055.54"/>
  <g id="H-reference" style="fill:#27AAE1;stroke:none;" transform="matrix(1 0 0 1 339 1556)">
   <path d="M0.993654 0L3.63775 0L29.3281-67.1323L30.0303-67.1323L30.0303-70.459L28.1226-70.459ZM11.6885-24.4799L46.9815-24.4799L46.2315-26.7285L12.4385-26.7285ZM55.1196 0L57.7637 0L30.6382-70.459L29.4326-70.459L29.4326-67.1323Z"/>
  </g>
  <line id="Baseline-L" style="fill:none;stroke:#27AAE1;opacity:1;stroke-width:0.5;" x1="263" x2="3036" y1="1556" y2="1556"/>
  <line id="Capline-L" style="fill:none;stroke:#27AAE1;opacity:1;stroke-width:0.5;" x1="263" x2="3036" y1="1485.54" y2="1485.54"/>
  <line id="left-margin-Ultralight-S" style="fill:none;stroke:#00AEEF;stroke-width:0.5;opacity:1.0;" x1="508.445" x2="508.445" y1="600.785" y2="720.121"/>
  <line id="right-margin-Ultralight-S" style="fill:none;stroke:#00AEEF;stroke-width:0.5;opacity:1.0;" x1="610.978" x2="610.978" y1="600.785" y2="720.121"/>
  <line id="left-margin-Regular-S" style="fill:none;stroke:#00AEEF;stroke-width:0.5;opacity:1.0;" x1="1388.57" x2="1388.57" y1="600.785" y2="720.121"/>
  <line id="right-margin-Regular-S" style="fill:none;stroke:#00AEEF;stroke-width:0.5;opacity:1.0;" x1="1511.12" x2="1511.12" y1="600.785" y2="720.121"/>
  <line id="left-margin-Black-S" style="fill:none;stroke:#00AEEF;stroke-width:0.5;opacity:1.0;" x1="2868.12" x2="2868.12" y1="600.785" y2="720.121"/>
  <line id="right-margin-Black-S" style="fill:none;stroke:#00AEEF;stroke-width:0.5;opacity:1.0;" x1="2998.68" x2="2998.68" y1="600.785" y2="720.121"/>
 </g>
 <g id="Symbols">
  <g id="Black-S" transform="matrix(1 0 0 1 2868.12 696)">
   <path class="SFSymbolsPreviewWireframe" d="M9.76562-58.2031C9.76562-55.3711 12.0605-53.125 14.8926-53.125L57.2266-53.125C57.2266-57.5684 57.2266-60.498 57.2266-63.3301L14.8926-63.3301C12.0605-63.3301 9.76562-61.084 9.76562-58.2031ZM9.76562-42.8711C9.76562-40.0391 12.0605-37.7441 14.8926-37.7441L57.2266-37.7441C57.2266-41.0156 57.2266-44.4824 57.2266-47.998L14.8926-47.998C12.0605-47.998 9.76562-45.7031 9.76562-42.8711ZM9.76562-27.5391C9.76562-24.707 12.0605-22.4121 14.8926-22.4121L57.2266-22.4121C57.2266-25.9766 57.2266-29.3945 57.2266-32.666L14.8926-32.666C12.0605-32.666 9.76562-30.3711 9.76562-27.5391ZM9.76562-12.207C9.76562-9.375 12.0605-7.08008 14.8926-7.08008L57.2266-7.08008C57.2266-10.2539 57.2266-13.5742 57.2266-17.2852L14.8926-17.2852C12.0605-17.2852 9.76562-15.0391 9.76562-12.207ZM43.1641-35.2539C43.1152-27.7344 43.75-19.0918 46.1426-10.5957C49.9512 2.05078 58.1543 7.71484 72.3633 7.71484L74.707 7.71484C103.662 7.71484 128.125-11.7188 128.125-35.2539C128.125-58.7891 103.662-78.2227 74.707-78.2227L72.3633-78.2227C56.2012-78.2227 47.8027-70.8008 44.7754-54.1504C43.5059-47.5586 43.1152-41.0645 43.1641-35.2539ZM50.4883-35.2539C50.4883-28.0273 50.9766-20.4102 53.1738-12.6465C56.0059-3.27148 61.3281 0.390625 72.3633 0.390625L74.707 0.390625C99.6582 0.390625 120.801-15.9668 120.801-35.2539C120.801-54.541 99.6582-70.8984 74.707-70.8984L72.3633-70.8984C61.377-70.8984 56.0547-67.2363 53.1738-57.8613C50.9766-50.0977 50.4883-42.4805 50.4883-35.2539ZM72.3633-20.0195C68.6035-20.0195 66.4062-22.0703 66.4062-25.7324C66.4062-26.6113 66.6992-27.9297 67.2852-29.7363L72.2656-45.752C74.0234-51.3184 77.1484-53.8086 82.1777-53.8086C87.3535-53.8086 90.625-51.2695 92.3828-45.752L97.3633-29.7363C97.9492-27.9297 98.2422-26.6113 98.2422-25.7324C98.2422-22.0703 96.0449-20.0195 92.2852-20.0195C89.0625-20.0195 87.1094-21.875 86.377-25.5371L86.2305-26.5625L78.418-26.5625L78.2715-25.5371C77.5391-21.875 75.5859-20.0195 72.3633-20.0195ZM80.2734-35.0586L84.375-35.0586L82.5195-43.8477L82.1289-43.8477Z"/>
  </g>
  <g id="Regular-S" transform="matrix(1 0 0 1 1388.57 696)">
   <path class="SFSymbolsPreviewWireframe" d="M9.76562-57.1289C9.76562-55.127 11.377-53.6133 13.2812-53.6133L54.0039-53.6133C54.0039-57.0801 54.0039-58.8867 54.0039-60.6445L13.2812-60.6445C11.377-60.6445 9.76562-59.0332 9.76562-57.1289ZM9.76562-42.5781C9.76562-40.625 11.4258-39.0625 13.2812-39.0625L54.0039-39.0137C54.0039-41.4551 54.0039-43.7988 54.0039-46.0938L13.2812-46.0938C11.377-46.0938 9.76562-44.4824 9.76562-42.5781ZM9.76562-27.9785C9.76562-26.0742 11.377-24.5117 13.2812-24.5117L54.0039-24.5117C54.0039-26.8066 54.0039-29.1504 54.0039-31.543L13.2812-31.543C11.377-31.543 9.76562-29.8828 9.76562-27.9785ZM9.76562-13.4277C9.76562-11.5234 11.377-9.96094 13.2812-9.96094L54.0039-9.91211C54.0039-11.5723 54.0039-14.9414 54.0039-16.9434L13.2812-16.9922C11.377-16.9922 9.76562-15.332 9.76562-13.4277ZM41.0645-35.2539C41.0645-27.7344 41.6504-19.7266 43.9453-11.5723C47.3145-0.0488281 54.5898 4.63867 67.334 4.63867L69.5801 4.63867C96.3379 4.63867 120.02-13.1348 120.02-35.2539C120.02-57.3242 96.4355-75.1465 69.5801-75.1465L67.334-75.1465C54.6387-75.1465 47.3633-70.459 43.9453-58.9844C41.6504-50.7812 41.0645-42.7734 41.0645-35.2539ZM48.2422-35.2539C48.2422-28.125 48.7793-20.9473 50.8789-13.5254C53.2715-5.41992 57.6172-2.58789 67.334-2.58789L69.5801-2.58789C92.7734-2.58789 112.793-17.5781 112.793-35.2539C112.793-52.9297 92.7734-67.9688 69.5801-67.9688L67.334-67.9688C57.666-67.9688 53.3203-65.0879 50.8789-56.9824C48.7793-49.5605 48.2422-42.3828 48.2422-35.2539ZM65.5273-20.166C63.6719-20.166 62.5-21.2891 62.5-22.998C62.5-23.584 62.5977-24.2188 62.9395-25.0977L72.7051-51.5137C73.4863-53.6133 75-54.7363 77.1973-54.7363C79.4434-54.7363 81.0547-53.6133 81.8359-51.5137L91.6016-25.0977C91.8945-24.2188 92.041-23.584 92.041-22.998C92.041-21.2891 90.8203-20.166 89.0137-20.166C87.5488-20.166 86.4746-20.8496 85.8887-22.7539L83.5449-29.9316L70.9961-29.9316L68.6035-22.7539C68.0176-20.8496 66.9922-20.166 65.5273-20.166ZM72.5586-34.7656L81.9336-34.7656L77.4902-47.9492L77.0508-47.9492Z"/>
  </g>
  <g id="Ultralight-S" transform="matrix(1 0 0 1 508.445 696)">
   <path class="SFSymbolsPreviewWireframe" d="M9.76562-54.2681C9.76562-53.6284 10.2417-53.25 10.7837-53.25L40.8351-53.25C40.8351-53.9922 40.8351-54.6182 40.8351-55.2408L10.7837-55.2408C10.2417-55.2408 9.76562-54.7647 9.76562-54.2681ZM9.76562-41.6245C9.76562-40.9883 10.2451-40.6064 10.7837-40.6064L40.8351-40.603C40.8351-41.228 40.8351-41.937 40.8351-42.5972L10.7837-42.5972C10.2417-42.5972 9.76562-42.1211 9.76562-41.6245ZM9.76562-28.8867C9.76562-28.3901 10.2417-27.9175 10.7837-27.9175L40.8351-27.9175C40.8351-28.5776 40.8351-29.2866 40.8351-29.9082L10.7837-29.9082C10.2417-29.9082 9.76562-29.5195 9.76562-28.8867ZM9.76562-16.2431C9.76562-15.7465 10.2417-15.2739 10.7837-15.2739L40.8351-15.2705C40.8351-15.8862 40.8351-16.6216 40.8351-17.2612L10.7837-17.2646C10.2417-17.2646 9.76562-16.876 9.76562-16.2431ZM33.254-35.2539C33.254-27.4619 33.9307-20.9072 35.7261-14.6601C38.1871-6.17915 44.8721-2.44526 53.5748-2.44526L54.9581-2.44526C76.0397-2.44526 97.9958-16.9946 97.9958-35.2539C97.9958-53.5098 76.0465-68.0626 54.9581-68.0626L53.5748-68.0626C44.8756-68.0626 38.1905-64.3287 35.7261-55.8057C33.9307-49.6006 33.254-43.0459 33.254-35.2539ZM38.4791-35.2539C38.4791-27.8071 39.107-21.8101 40.7525-16.1137C42.464-10.1425 46.8551-7.67379 53.5748-7.67379L54.9581-7.67379C73.6559-7.67379 92.7672-20.4389 92.7672-35.2539C92.7672-50.0689 73.6559-62.8374 54.9581-62.8374L53.5748-62.8374C46.8585-62.8374 42.4674-60.3653 40.7525-54.3941C39.107-48.6978 38.4791-42.7007 38.4791-35.2539ZM51.7682-21.4375C51.048-21.4375 50.6026-21.7886 50.6026-22.4531C50.6026-22.7212 50.6549-22.7656 50.7696-23.0996L61.5797-51.5137C61.816-52.2056 62.3307-52.5567 63.0294-52.5567C63.7316-52.5567 64.2531-52.2056 64.5348-51.5137L75.2994-23.0996C75.4108-22.7656 75.4664-22.7212 75.4664-22.4077C75.4664-21.834 74.9723-21.4375 74.3917-21.4375C73.6988-21.4375 73.442-21.667 73.1739-22.3452L69.7403-31.521L56.3287-31.521L52.8917-22.3452C52.6691-21.667 52.3702-21.4375 51.7682-21.4375ZM57.1193-33.585L68.9918-33.585L63.0499-49.3115L63.0192-49.3115Z"/>
  </g>
 </g>
</svg>
