<?xml version="1.0" encoding="UTF-8"?>
<!--Generator: Apple Native CoreSVG 232.5-->
<!DOCTYPE svg
PUBLIC "-//W3C//DTD SVG 1.1//EN"
       "http://www.w3.org/Graphics/SVG/1.1/DTD/svg11.dtd">
<svg version="1.1" xmlns="http://www.w3.org/2000/svg" xmlns:xlink="http://www.w3.org/1999/xlink" width="3300" height="2200">
 <!--glyph: "uni10181F.medium", point size: 100.0, font version: "19.2d2e1", template writer version: "128"-->
 <style>.SFSymbolsPreviewWireframe {fill:none;opacity:1.0;stroke:black;stroke-width:0.5}
</style>
 <g id="Notes">
  <rect height="2200" id="artboard" style="fill:white;opacity:1" width="3300" x="0" y="0"/>
  <line style="fill:none;stroke:black;opacity:1;stroke-width:0.5;" x1="263" x2="3036" y1="292" y2="292"/>
  <text style="stroke:none;fill:black;font-family:sans-serif;font-size:13;font-weight:bold;" transform="matrix(1 0 0 1 263 322)">Weight/Scale Variations</text>
  <text style="stroke:none;fill:black;font-family:sans-serif;font-size:13;text-anchor:middle;" transform="matrix(1 0 0 1 559.711 322)">Ultralight</text>
  <text style="stroke:none;fill:black;font-family:sans-serif;font-size:13;text-anchor:middle;" transform="matrix(1 0 0 1 856.422 322)">Thin</text>
  <text style="stroke:none;fill:black;font-family:sans-serif;font-size:13;text-anchor:middle;" transform="matrix(1 0 0 1 1153.13 322)">Light</text>
  <text style="stroke:none;fill:black;font-family:sans-serif;font-size:13;text-anchor:middle;" transform="matrix(1 0 0 1 1449.84 322)">Regular</text>
  <text style="stroke:none;fill:black;font-family:sans-serif;font-size:13;text-anchor:middle;" transform="matrix(1 0 0 1 1746.56 322)">Medium</text>
  <text style="stroke:none;fill:black;font-family:sans-serif;font-size:13;text-anchor:middle;" transform="matrix(1 0 0 1 2043.27 322)">Semibold</text>
  <text style="stroke:none;fill:black;font-family:sans-serif;font-size:13;text-anchor:middle;" transform="matrix(1 0 0 1 2339.98 322)">Bold</text>
  <text style="stroke:none;fill:black;font-family:sans-serif;font-size:13;text-anchor:middle;" transform="matrix(1 0 0 1 2636.69 322)">Heavy</text>
  <text style="stroke:none;fill:black;font-family:sans-serif;font-size:13;text-anchor:middle;" transform="matrix(1 0 0 1 2933.4 322)">Black</text>
  <line style="fill:none;stroke:black;opacity:1;stroke-width:0.5;" x1="263" x2="3036" y1="1903" y2="1903"/>
  <g transform="matrix(0.2 0 0 0.2 263 1933)">
   <path d="m46.2402 4.15039c21.5332 0 39.4531-17.8711 39.4531-39.4043s-17.9688-39.4043-39.502-39.4043c-21.4844 0-39.3555 17.8711-39.3555 39.4043s17.9199 39.4043 39.4043 39.4043Zm0-7.42188c-17.7246 0-31.8848-14.209-31.8848-31.9824s14.1113-31.9824 31.8359-31.9824c17.7734 0 32.0312 14.209 32.0312 31.9824s-14.209 31.9824-31.9824 31.9824Zm-17.9688-31.9824c0 2.14844 1.51367 3.61328 3.75977 3.61328h10.498v10.5957c0 2.19727 1.46484 3.71094 3.61328 3.71094 2.24609 0 3.71094-1.51367 3.71094-3.71094v-10.5957h10.5957c2.19727 0 3.71094-1.46484 3.71094-3.61328 0-2.19727-1.51367-3.71094-3.71094-3.71094h-10.5957v-10.5469c0-2.24609-1.46484-3.75977-3.71094-3.75977-2.14844 0-3.61328 1.51367-3.61328 3.75977v10.5469h-10.498c-2.24609 0-3.75977 1.51367-3.75977 3.71094Z"/>
  </g>
  <g transform="matrix(0.2 0 0 0.2 281.506 1933)">
   <path d="m58.5449 14.5508c27.2461 0 49.8047-22.6074 49.8047-49.8047 0-27.2461-22.6074-49.8047-49.8535-49.8047-27.1973 0-49.7559 22.5586-49.7559 49.8047 0 27.1973 22.6074 49.8047 49.8047 49.8047Zm0-8.30078c-23.0469 0-41.4551-18.457-41.4551-41.5039s18.3594-41.5039 41.4062-41.5039 41.5527 18.457 41.5527 41.5039-18.457 41.5039-41.5039 41.5039Zm-22.6562-41.5039c0 2.39258 1.66016 4.00391 4.15039 4.00391h14.3555v14.4043c0 2.44141 1.66016 4.15039 4.05273 4.15039 2.44141 0 4.15039-1.66016 4.15039-4.15039v-14.4043h14.4043c2.44141 0 4.15039-1.61133 4.15039-4.00391 0-2.44141-1.70898-4.15039-4.15039-4.15039h-14.4043v-14.3555c0-2.49023-1.70898-4.19922-4.15039-4.19922-2.39258 0-4.05273 1.70898-4.05273 4.19922v14.3555h-14.3555c-2.49023 0-4.15039 1.70898-4.15039 4.15039Z"/>
  </g>
  <g transform="matrix(0.2 0 0 0.2 304.924 1933)">
   <path d="m74.8535 28.3203c34.8145 0 63.623-28.8086 63.623-63.5742 0-34.8145-28.8574-63.623-63.6719-63.623-34.7656 0-63.5254 28.8086-63.5254 63.623 0 34.7656 28.8086 63.5742 63.5742 63.5742Zm0-9.08203c-30.1758 0-54.4434-24.3164-54.4434-54.4922 0-30.2246 24.2188-54.4922 54.3945-54.4922 30.2246 0 54.541 24.2676 54.541 54.4922 0 30.1758-24.2676 54.4922-54.4922 54.4922Zm-28.8574-54.4922c0 2.58789 1.85547 4.39453 4.58984 4.39453h19.7266v19.7754c0 2.68555 1.85547 4.58984 4.44336 4.58984 2.68555 0 4.54102-1.85547 4.54102-4.58984v-19.7754h19.7754c2.68555 0 4.58984-1.80664 4.58984-4.39453 0-2.73438-1.85547-4.58984-4.58984-4.58984h-19.7754v-19.7266c0-2.73438-1.85547-4.63867-4.54102-4.63867-2.58789 0-4.44336 1.9043-4.44336 4.63867v19.7266h-19.7266c-2.73438 0-4.58984 1.85547-4.58984 4.58984Z"/>
  </g>
  <text style="stroke:none;fill:black;font-family:sans-serif;font-size:13;font-weight:bold;" transform="matrix(1 0 0 1 263 1953)">Design Variations</text>
  <text style="stroke:none;fill:black;font-family:sans-serif;font-size:13;" transform="matrix(1 0 0 1 263 1971)">Symbols are supported in up to nine weights and three scales.</text>
  <text style="stroke:none;fill:black;font-family:sans-serif;font-size:13;" transform="matrix(1 0 0 1 263 1989)">For optimal layout with text and other symbols, vertically align</text>
  <text style="stroke:none;fill:black;font-family:sans-serif;font-size:13;" transform="matrix(1 0 0 1 263 2007)">symbols with the adjacent text.</text>
  <line style="fill:none;stroke:#00AEEF;stroke-width:0.5;opacity:1.0;" x1="776" x2="776" y1="1919" y2="1933"/>
  <g transform="matrix(0.2 0 0 0.2 776 1933)">
   <path d="m16.5527 0.78125c2.58789 0 3.85742-0.976562 4.78516-3.71094l6.29883-17.2363h28.8086l6.29883 17.2363c0.927734 2.73438 2.19727 3.71094 4.73633 3.71094 2.58789 0 4.24805-1.5625 4.24805-4.00391 0-0.830078-0.146484-1.61133-0.537109-2.63672l-22.9004-60.9863c-1.12305-2.97852-3.125-4.49219-6.25-4.49219-3.02734 0-5.07812 1.46484-6.15234 4.44336l-22.9004 61.084c-0.390625 1.02539-0.537109 1.80664-0.537109 2.63672 0 2.44141 1.5625 3.95508 4.10156 3.95508Zm13.4766-28.3691 11.8652-32.8613h0.244141l11.8652 32.8613Z"/>
  </g>
  <line style="fill:none;stroke:#00AEEF;stroke-width:0.5;opacity:1.0;" x1="792.836" x2="792.836" y1="1919" y2="1933"/>
  <text style="stroke:none;fill:black;font-family:sans-serif;font-size:13;font-weight:bold;" transform="matrix(1 0 0 1 776 1953)">Margins</text>
  <text style="stroke:none;fill:black;font-family:sans-serif;font-size:13;" transform="matrix(1 0 0 1 776 1971)">Leading and trailing margins on the left and right side of each symbol</text>
  <text style="stroke:none;fill:black;font-family:sans-serif;font-size:13;" transform="matrix(1 0 0 1 776 1989)">can be adjusted by modifying the x-location of the margin guidelines.</text>
  <text style="stroke:none;fill:black;font-family:sans-serif;font-size:13;" transform="matrix(1 0 0 1 776 2007)">Modifications are automatically applied proportionally to all</text>
  <text style="stroke:none;fill:black;font-family:sans-serif;font-size:13;" transform="matrix(1 0 0 1 776 2025)">scales and weights.</text>
  <g transform="matrix(0.2 0 0 0.2 1289 1933)">
   <path d="m14.209 9.32617 8.49609 8.54492c4.29688 4.3457 9.22852 4.05273 13.8672-1.07422l53.4668-58.9355-4.83398-4.88281-53.0762 58.3984c-1.75781 2.00195-3.41797 2.49023-5.76172 0.146484l-5.85938-5.81055c-2.34375-2.29492-1.80664-4.00391 0.195312-5.81055l57.373-54.0039-4.88281-4.83398-57.959 54.4434c-4.93164 4.58984-5.32227 9.47266-1.02539 13.8184Zm32.0801-90.9668c-2.09961 2.05078-2.24609 4.93164-1.07422 6.88477 1.17188 1.80664 3.4668 2.97852 6.68945 2.14844 7.32422-1.70898 14.9414-2.00195 22.0703 2.68555l-2.92969 7.27539c-1.70898 4.15039-0.830078 7.08008 1.85547 9.81445l11.4746 11.5723c2.44141 2.44141 4.49219 2.53906 7.32422 2.05078l5.32227-0.976562 3.32031 3.36914-0.195312 2.7832c-0.195312 2.49023 0.439453 4.39453 2.88086 6.78711l3.80859 3.71094c2.39258 2.39258 5.46875 2.53906 7.8125 0.195312l14.5508-14.5996c2.34375-2.34375 2.24609-5.32227-0.146484-7.71484l-3.85742-3.80859c-2.39258-2.39258-4.24805-3.17383-6.64062-2.97852l-2.88086 0.244141-3.22266-3.17383 1.2207-5.61523c0.634766-2.83203-0.146484-5.0293-3.07617-7.95898l-10.9863-10.9375c-16.6992-16.6016-38.8672-16.2109-53.3203-1.75781Zm7.4707 1.85547c12.1582-8.88672 28.6133-7.37305 39.7461 3.75977l12.1582 12.0605c1.17188 1.17188 1.36719 2.09961 1.02539 3.80859l-1.61133 7.42188 7.51953 7.42188 4.93164-0.292969c1.26953-0.0488281 1.66016 0.0488281 2.63672 1.02539l2.88086 2.88086-12.207 12.207-2.88086-2.88086c-0.976562-0.976562-1.12305-1.36719-1.07422-2.68555l0.341797-4.88281-7.4707-7.42188-7.61719 1.26953c-1.61133 0.341797-2.34375 0.195312-3.56445-0.976562l-10.0098-10.0098c-1.26953-1.17188-1.41602-2.00195-0.634766-3.85742l4.39453-10.4492c-7.8125-7.27539-17.9688-10.4004-28.125-7.42188-0.78125 0.195312-1.07422-0.439453-0.439453-0.976562Z"/>
  </g>
  <text style="stroke:none;fill:black;font-family:sans-serif;font-size:13;font-weight:bold;" transform="matrix(1 0 0 1 1289 1953)">Exporting</text>
  <text style="stroke:none;fill:black;font-family:sans-serif;font-size:13;" transform="matrix(1 0 0 1 1289 1971)">Symbols should be outlined when exporting to ensure the</text>
  <text style="stroke:none;fill:black;font-family:sans-serif;font-size:13;" transform="matrix(1 0 0 1 1289 1989)">design is preserved when submitting to Xcode.</text>
  <text id="template-version" style="stroke:none;fill:black;font-family:sans-serif;font-size:13;text-anchor:end;" transform="matrix(1 0 0 1 3036 1933)">Template v.5.0</text>
  <text style="stroke:none;fill:black;font-family:sans-serif;font-size:13;text-anchor:end;" transform="matrix(1 0 0 1 3036 1951)">Requires Xcode 15 or greater</text>
  <text id="descriptive-name" style="stroke:none;fill:black;font-family:sans-serif;font-size:13;text-anchor:end;" transform="matrix(1 0 0 1 3036 1969)">Generated from axle.2.front.engaged</text>
  <text style="stroke:none;fill:black;font-family:sans-serif;font-size:13;text-anchor:end;" transform="matrix(1 0 0 1 3036 1987)">Typeset at 100.0 points</text>
  <text style="stroke:none;fill:black;font-family:sans-serif;font-size:13;" transform="matrix(1 0 0 1 263 726)">Small</text>
  <text style="stroke:none;fill:black;font-family:sans-serif;font-size:13;" transform="matrix(1 0 0 1 263 1156)">Medium</text>
  <text style="stroke:none;fill:black;font-family:sans-serif;font-size:13;" transform="matrix(1 0 0 1 263 1586)">Large</text>
 </g>
 <g id="Guides">
  <g id="H-reference" style="fill:#27AAE1;stroke:none;" transform="matrix(1 0 0 1 339 696)">
   <path d="M0.993654 0L3.63775 0L29.3281-67.1323L30.0303-67.1323L30.0303-70.459L28.1226-70.459ZM11.6885-24.4799L46.9815-24.4799L46.2315-26.7285L12.4385-26.7285ZM55.1196 0L57.7637 0L30.6382-70.459L29.4326-70.459L29.4326-67.1323Z"/>
  </g>
  <line id="Baseline-S" style="fill:none;stroke:#27AAE1;opacity:1;stroke-width:0.5;" x1="263" x2="3036" y1="696" y2="696"/>
  <line id="Capline-S" style="fill:none;stroke:#27AAE1;opacity:1;stroke-width:0.5;" x1="263" x2="3036" y1="625.541" y2="625.541"/>
  <g id="H-reference" style="fill:#27AAE1;stroke:none;" transform="matrix(1 0 0 1 339 1126)">
   <path d="M0.993654 0L3.63775 0L29.3281-67.1323L30.0303-67.1323L30.0303-70.459L28.1226-70.459ZM11.6885-24.4799L46.9815-24.4799L46.2315-26.7285L12.4385-26.7285ZM55.1196 0L57.7637 0L30.6382-70.459L29.4326-70.459L29.4326-67.1323Z"/>
  </g>
  <line id="Baseline-M" style="fill:none;stroke:#27AAE1;opacity:1;stroke-width:0.5;" x1="263" x2="3036" y1="1126" y2="1126"/>
  <line id="Capline-M" style="fill:none;stroke:#27AAE1;opacity:1;stroke-width:0.5;" x1="263" x2="3036" y1="1055.54" y2="1055.54"/>
  <g id="H-reference" style="fill:#27AAE1;stroke:none;" transform="matrix(1 0 0 1 339 1556)">
   <path d="M0.993654 0L3.63775 0L29.3281-67.1323L30.0303-67.1323L30.0303-70.459L28.1226-70.459ZM11.6885-24.4799L46.9815-24.4799L46.2315-26.7285L12.4385-26.7285ZM55.1196 0L57.7637 0L30.6382-70.459L29.4326-70.459L29.4326-67.1323Z"/>
  </g>
  <line id="Baseline-L" style="fill:none;stroke:#27AAE1;opacity:1;stroke-width:0.5;" x1="263" x2="3036" y1="1556" y2="1556"/>
  <line id="Capline-L" style="fill:none;stroke:#27AAE1;opacity:1;stroke-width:0.5;" x1="263" x2="3036" y1="1485.54" y2="1485.54"/>
  <line id="left-margin-Ultralight-S" style="fill:none;stroke:#00AEEF;stroke-width:0.5;opacity:1.0;" x1="519.967" x2="519.967" y1="600.785" y2="720.121"/>
  <line id="right-margin-Ultralight-S" style="fill:none;stroke:#00AEEF;stroke-width:0.5;opacity:1.0;" x1="599.455" x2="599.455" y1="600.785" y2="720.121"/>
  <line id="left-margin-Regular-S" style="fill:none;stroke:#00AEEF;stroke-width:0.5;opacity:1.0;" x1="1404.29" x2="1404.29" y1="600.785" y2="720.121"/>
  <line id="right-margin-Regular-S" style="fill:none;stroke:#00AEEF;stroke-width:0.5;opacity:1.0;" x1="1495.4" x2="1495.4" y1="600.785" y2="720.121"/>
  <line id="left-margin-Black-S" style="fill:none;stroke:#00AEEF;stroke-width:0.5;opacity:1.0;" x1="2878.74" x2="2878.74" y1="600.785" y2="720.121"/>
  <line id="right-margin-Black-S" style="fill:none;stroke:#00AEEF;stroke-width:0.5;opacity:1.0;" x1="2988.06" x2="2988.06" y1="600.785" y2="720.121"/>
 </g>
 <g id="Symbols">
  <g id="Black-S" transform="matrix(1 0 0 1 2878.74 696)">
   <path class="SFSymbolsPreviewWireframe" d="M14.9414-51.7578L20.752-49.6094C25.0977-47.998 29.3457-50.1953 30.9082-54.541L37.0117-71.2402C38.5742-75.5859 36.6699-79.9316 32.373-81.4941L26.5625-83.6426C22.2168-85.2539 17.9688-83.1055 16.4062-78.7598L10.3027-62.0605C8.69141-57.666 10.6445-53.3203 14.9414-51.7578ZM76.9043-51.7578L82.7148-49.6094C87.0605-47.998 91.3086-50.1953 92.8711-54.541L98.9746-71.2402C100.537-75.5859 98.6328-79.9316 94.3359-81.4941L88.5254-83.6426C84.1797-85.2539 79.9316-83.1055 78.3691-78.7598L72.2656-62.0605C70.6543-57.666 72.6074-53.3203 76.9043-51.7578ZM20.5566 13.0859L27.7344 13.0859C32.3242 13.0859 35.5957 9.61914 35.5957 4.98047L35.5957-12.793C35.5957-17.4316 32.3242-20.8496 27.7344-20.8496L20.5566-20.8496C15.9668-20.8496 12.6953-17.4316 12.6953-12.793L12.6953 4.98047C12.6953 9.61914 15.9668 13.0859 20.5566 13.0859ZM81.543 13.0859L88.7207 13.0859C93.3105 13.0859 96.582 9.61914 96.582 4.98047L96.582-12.793C96.582-17.4316 93.3105-20.8496 88.7207-20.8496L81.543-20.8496C76.9531-20.8496 73.6816-17.4316 73.6816-12.793L73.6816 4.98047C73.6816 9.61914 76.9531 13.0859 81.543 13.0859ZM31.543-60.3027L47.168-60.3027L47.168-73.4863L31.543-73.4863ZM62.1094-60.3027L77.7344-60.3027L77.7344-73.4863L62.1094-73.4863ZM48.0469 2.73438L61.2305 2.73438L61.2305-61.2305L48.0469-61.2305ZM31.6406 2.63672L77.6367 2.63672L77.6367-10.3516L31.6406-10.3516ZM54.6387-53.418C62.1582-53.418 68.0664-59.375 68.0664-66.9434C68.0664-74.4629 62.1582-80.3711 54.6387-80.3711C47.1191-80.3711 41.1621-74.4629 41.1621-66.9434C41.1621-59.375 47.1191-53.418 54.6387-53.418ZM54.6387-62.207C52.002-62.207 49.9512-64.2578 49.9512-66.8945C49.9512-69.4824 52.002-71.5332 54.6387-71.5332C57.2266-71.5332 59.2773-69.4824 59.2773-66.8945C59.2773-64.2578 57.2266-62.207 54.6387-62.207Z"/>
  </g>
  <g id="Regular-S" transform="matrix(1 0 0 1 1404.29 696)">
   <path class="SFSymbolsPreviewWireframe" d="M13.5254-50.6348L16.1621-49.6582C19.3359-48.5352 22.3145-50 23.5352-53.2715L29.0039-68.3105C30.2246-71.582 28.8086-74.6094 25.6836-75.7812L23.0469-76.709C19.873-77.8809 16.8945-76.416 15.6738-73.1445L10.2051-58.1055C8.98438-54.834 10.3516-51.8066 13.5254-50.6348ZM65.4297-50.6348L68.0664-49.6582C71.2402-48.5352 74.2188-50 75.4395-53.2715L80.9082-68.3105C82.1289-71.582 80.7129-74.6094 77.5879-75.7812L74.9512-76.709C71.7773-77.8809 68.7988-76.416 67.5781-73.1445L62.1094-58.1055C60.8887-54.834 62.3047-51.8066 65.4297-50.6348ZM18.2129 6.5918L20.9961 6.5918C24.3652 6.5918 26.6602 4.15039 26.6602 0.683594L26.6602-15.332C26.6602-18.75 24.3652-21.1914 20.9961-21.1914L18.2129-21.1914C14.8438-21.1914 12.5488-18.75 12.5488-15.332L12.5488 0.683594C12.5488 4.15039 14.8438 6.5918 18.2129 6.5918ZM70.1172 6.5918L72.9004 6.5918C76.2695 6.5918 78.5645 4.15039 78.5645 0.683594L78.5645-15.332C78.5645-18.75 76.2695-21.1914 72.9004-21.1914L70.1172-21.1914C66.748-21.1914 64.4531-18.75 64.4531-15.332L64.4531 0.683594C64.4531 4.15039 66.748 6.5918 70.1172 6.5918ZM23.1934-59.668L39.0137-59.668L39.0137-66.748L23.1934-66.748ZM52.4902-59.668L67.9199-59.668L67.9199-66.748L52.4902-66.748ZM42.041-6.54297L49.0723-6.54297L49.0723-56.4453L42.041-56.4453ZM23.1934-3.75977L67.9199-3.75977L67.9199-10.8398L23.1934-10.8398ZM45.5566-52.7832C51.3184-52.7832 55.9082-57.4219 55.9082-63.2324C55.9082-69.043 51.3184-73.584 45.5566-73.584C39.7461-73.584 35.1562-69.043 35.1562-63.2324C35.1562-57.4219 39.7461-52.7832 45.5566-52.7832ZM45.5566-58.4961C42.8711-58.4961 40.8203-60.5957 40.8203-63.2324C40.8203-65.8691 42.8711-67.9199 45.5566-67.9199C48.1934-67.9199 50.2441-65.8691 50.2441-63.2324C50.2441-60.5957 48.1934-58.4961 45.5566-58.4961Z"/>
  </g>
  <g id="Ultralight-S" transform="matrix(1 0 0 1 519.967 696)">
   <path class="SFSymbolsPreviewWireframe" d="M12.1631-52.3149L16.2075-50.8389C18.3823-50.0337 20.0894-50.8628 20.9014-53.1353L25.7798-66.6758C26.6372-68.9937 25.857-70.6587 23.731-71.4673L19.6865-72.94C17.5117-73.7486 15.8501-72.8741 15.0381-70.6016L10.1143-57.1065C9.25683-54.7886 10.0337-53.1235 12.1631-52.3149ZM55.7574-52.3149L59.8018-50.8389C61.9766-50.0337 63.6837-50.8628 64.4957-53.1353L69.3741-66.6758C70.2315-68.9937 69.4513-70.6587 67.3253-71.4673L63.2809-72.94C61.1515-73.7486 59.4898-72.8741 58.6778-70.6016L53.754-57.0156C52.942-54.7886 53.6768-53.0781 55.7574-52.3149ZM15.8062 2.32328L20.0879 2.32328C22.4126 2.32328 23.6631 0.926295 23.6631-1.45067L23.6631-15.8315C23.6631-18.2505 22.4126-19.6021 20.0879-19.6021L15.8062-19.6021C13.4815-19.6021 12.231-18.2505 12.231-15.8315L12.231-1.45067C12.231 0.926295 13.4815 2.32328 15.8062 2.32328ZM59.4005 2.32328L63.6822 2.32328C66.0069 2.32328 67.2574 0.926295 67.2574-1.45067L67.2574-15.8315C67.2574-18.2505 66.0069-19.6021 63.6822-19.6021L59.4005-19.6021C57.1212-19.6021 55.8707-18.2505 55.8707-15.8315L55.8707-1.45067C55.8707 0.926295 57.1212 2.32328 59.4005 2.32328ZM22.7393-60.8032L33.1558-60.8032L33.1558-62.979L22.7393-62.979ZM46.6324-60.8032L56.9762-60.8032L56.9762-62.979L46.6324-62.979ZM38.6353-7.67821L40.8531-7.67821L40.8531-55.1284L38.6353-55.1284ZM22.7393-7.52878L56.9762-7.52878L56.9762-9.7046L22.7393-9.7046ZM39.7442-54.0547C44.0982-54.0547 47.5528-57.5127 47.5528-61.8701C47.5528-66.2276 44.0982-69.6333 39.7442-69.6333C35.3868-69.6333 31.8867-66.2276 31.8867-61.8701C31.8867-57.5127 35.3868-54.0547 39.7442-54.0547ZM39.7442-56.1802C36.5591-56.1802 34.0543-58.6885 34.0543-61.8701C34.0543-65.0518 36.5591-67.5112 39.7442-67.5112C42.9258-67.5112 45.4307-65.0518 45.4307-61.8701C45.4307-58.6885 42.9258-56.1802 39.7442-56.1802Z"/>
  </g>
 </g>
</svg>
