<?xml version="1.0" encoding="UTF-8"?>
<!--Generator: Apple Native CoreSVG 232.5-->
<!DOCTYPE svg
PUBLIC "-//W3C//DTD SVG 1.1//EN"
       "http://www.w3.org/Graphics/SVG/1.1/DTD/svg11.dtd">
<svg version="1.1" xmlns="http://www.w3.org/2000/svg" xmlns:xlink="http://www.w3.org/1999/xlink" width="3300" height="2200">
 <!--glyph: "uni100291.medium", point size: 100.0, font version: "19.2d2e1", template writer version: "128"-->
 <style>.SFSymbolsPreviewWireframe {fill:none;opacity:1.0;stroke:black;stroke-width:0.5}
</style>
 <g id="Notes">
  <rect height="2200" id="artboard" style="fill:white;opacity:1" width="3300" x="0" y="0"/>
  <line style="fill:none;stroke:black;opacity:1;stroke-width:0.5;" x1="263" x2="3036" y1="292" y2="292"/>
  <text style="stroke:none;fill:black;font-family:sans-serif;font-size:13;font-weight:bold;" transform="matrix(1 0 0 1 263 322)">Weight/Scale Variations</text>
  <text style="stroke:none;fill:black;font-family:sans-serif;font-size:13;text-anchor:middle;" transform="matrix(1 0 0 1 559.711 322)">Ultralight</text>
  <text style="stroke:none;fill:black;font-family:sans-serif;font-size:13;text-anchor:middle;" transform="matrix(1 0 0 1 856.422 322)">Thin</text>
  <text style="stroke:none;fill:black;font-family:sans-serif;font-size:13;text-anchor:middle;" transform="matrix(1 0 0 1 1153.13 322)">Light</text>
  <text style="stroke:none;fill:black;font-family:sans-serif;font-size:13;text-anchor:middle;" transform="matrix(1 0 0 1 1449.84 322)">Regular</text>
  <text style="stroke:none;fill:black;font-family:sans-serif;font-size:13;text-anchor:middle;" transform="matrix(1 0 0 1 1746.56 322)">Medium</text>
  <text style="stroke:none;fill:black;font-family:sans-serif;font-size:13;text-anchor:middle;" transform="matrix(1 0 0 1 2043.27 322)">Semibold</text>
  <text style="stroke:none;fill:black;font-family:sans-serif;font-size:13;text-anchor:middle;" transform="matrix(1 0 0 1 2339.98 322)">Bold</text>
  <text style="stroke:none;fill:black;font-family:sans-serif;font-size:13;text-anchor:middle;" transform="matrix(1 0 0 1 2636.69 322)">Heavy</text>
  <text style="stroke:none;fill:black;font-family:sans-serif;font-size:13;text-anchor:middle;" transform="matrix(1 0 0 1 2933.4 322)">Black</text>
  <line style="fill:none;stroke:black;opacity:1;stroke-width:0.5;" x1="263" x2="3036" y1="1903" y2="1903"/>
  <g transform="matrix(0.2 0 0 0.2 263 1933)">
   <path d="m46.2402 4.15039c21.5332 0 39.4531-17.8711 39.4531-39.4043s-17.9688-39.4043-39.502-39.4043c-21.4844 0-39.3555 17.8711-39.3555 39.4043s17.9199 39.4043 39.4043 39.4043Zm0-7.42188c-17.7246 0-31.8848-14.209-31.8848-31.9824s14.1113-31.9824 31.8359-31.9824c17.7734 0 32.0312 14.209 32.0312 31.9824s-14.209 31.9824-31.9824 31.9824Zm-17.9688-31.9824c0 2.14844 1.51367 3.61328 3.75977 3.61328h10.498v10.5957c0 2.19727 1.46484 3.71094 3.61328 3.71094 2.24609 0 3.71094-1.51367 3.71094-3.71094v-10.5957h10.5957c2.19727 0 3.71094-1.46484 3.71094-3.61328 0-2.19727-1.51367-3.71094-3.71094-3.71094h-10.5957v-10.5469c0-2.24609-1.46484-3.75977-3.71094-3.75977-2.14844 0-3.61328 1.51367-3.61328 3.75977v10.5469h-10.498c-2.24609 0-3.75977 1.51367-3.75977 3.71094Z"/>
  </g>
  <g transform="matrix(0.2 0 0 0.2 281.506 1933)">
   <path d="m58.5449 14.5508c27.2461 0 49.8047-22.6074 49.8047-49.8047 0-27.2461-22.6074-49.8047-49.8535-49.8047-27.1973 0-49.7559 22.5586-49.7559 49.8047 0 27.1973 22.6074 49.8047 49.8047 49.8047Zm0-8.30078c-23.0469 0-41.4551-18.457-41.4551-41.5039s18.3594-41.5039 41.4062-41.5039 41.5527 18.457 41.5527 41.5039-18.457 41.5039-41.5039 41.5039Zm-22.6562-41.5039c0 2.39258 1.66016 4.00391 4.15039 4.00391h14.3555v14.4043c0 2.44141 1.66016 4.15039 4.05273 4.15039 2.44141 0 4.15039-1.66016 4.15039-4.15039v-14.4043h14.4043c2.44141 0 4.15039-1.61133 4.15039-4.00391 0-2.44141-1.70898-4.15039-4.15039-4.15039h-14.4043v-14.3555c0-2.49023-1.70898-4.19922-4.15039-4.19922-2.39258 0-4.05273 1.70898-4.05273 4.19922v14.3555h-14.3555c-2.49023 0-4.15039 1.70898-4.15039 4.15039Z"/>
  </g>
  <g transform="matrix(0.2 0 0 0.2 304.924 1933)">
   <path d="m74.8535 28.3203c34.8145 0 63.623-28.8086 63.623-63.5742 0-34.8145-28.8574-63.623-63.6719-63.623-34.7656 0-63.5254 28.8086-63.5254 63.623 0 34.7656 28.8086 63.5742 63.5742 63.5742Zm0-9.08203c-30.1758 0-54.4434-24.3164-54.4434-54.4922 0-30.2246 24.2188-54.4922 54.3945-54.4922 30.2246 0 54.541 24.2676 54.541 54.4922 0 30.1758-24.2676 54.4922-54.4922 54.4922Zm-28.8574-54.4922c0 2.58789 1.85547 4.39453 4.58984 4.39453h19.7266v19.7754c0 2.68555 1.85547 4.58984 4.44336 4.58984 2.68555 0 4.54102-1.85547 4.54102-4.58984v-19.7754h19.7754c2.68555 0 4.58984-1.80664 4.58984-4.39453 0-2.73438-1.85547-4.58984-4.58984-4.58984h-19.7754v-19.7266c0-2.73438-1.85547-4.63867-4.54102-4.63867-2.58789 0-4.44336 1.9043-4.44336 4.63867v19.7266h-19.7266c-2.73438 0-4.58984 1.85547-4.58984 4.58984Z"/>
  </g>
  <text style="stroke:none;fill:black;font-family:sans-serif;font-size:13;font-weight:bold;" transform="matrix(1 0 0 1 263 1953)">Design Variations</text>
  <text style="stroke:none;fill:black;font-family:sans-serif;font-size:13;" transform="matrix(1 0 0 1 263 1971)">Symbols are supported in up to nine weights and three scales.</text>
  <text style="stroke:none;fill:black;font-family:sans-serif;font-size:13;" transform="matrix(1 0 0 1 263 1989)">For optimal layout with text and other symbols, vertically align</text>
  <text style="stroke:none;fill:black;font-family:sans-serif;font-size:13;" transform="matrix(1 0 0 1 263 2007)">symbols with the adjacent text.</text>
  <line style="fill:none;stroke:#00AEEF;stroke-width:0.5;opacity:1.0;" x1="776" x2="776" y1="1919" y2="1933"/>
  <g transform="matrix(0.2 0 0 0.2 776 1933)">
   <path d="m16.5527 0.78125c2.58789 0 3.85742-0.976562 4.78516-3.71094l6.29883-17.2363h28.8086l6.29883 17.2363c0.927734 2.73438 2.19727 3.71094 4.73633 3.71094 2.58789 0 4.24805-1.5625 4.24805-4.00391 0-0.830078-0.146484-1.61133-0.537109-2.63672l-22.9004-60.9863c-1.12305-2.97852-3.125-4.49219-6.25-4.49219-3.02734 0-5.07812 1.46484-6.15234 4.44336l-22.9004 61.084c-0.390625 1.02539-0.537109 1.80664-0.537109 2.63672 0 2.44141 1.5625 3.95508 4.10156 3.95508Zm13.4766-28.3691 11.8652-32.8613h0.244141l11.8652 32.8613Z"/>
  </g>
  <line style="fill:none;stroke:#00AEEF;stroke-width:0.5;opacity:1.0;" x1="792.836" x2="792.836" y1="1919" y2="1933"/>
  <text style="stroke:none;fill:black;font-family:sans-serif;font-size:13;font-weight:bold;" transform="matrix(1 0 0 1 776 1953)">Margins</text>
  <text style="stroke:none;fill:black;font-family:sans-serif;font-size:13;" transform="matrix(1 0 0 1 776 1971)">Leading and trailing margins on the left and right side of each symbol</text>
  <text style="stroke:none;fill:black;font-family:sans-serif;font-size:13;" transform="matrix(1 0 0 1 776 1989)">can be adjusted by modifying the x-location of the margin guidelines.</text>
  <text style="stroke:none;fill:black;font-family:sans-serif;font-size:13;" transform="matrix(1 0 0 1 776 2007)">Modifications are automatically applied proportionally to all</text>
  <text style="stroke:none;fill:black;font-family:sans-serif;font-size:13;" transform="matrix(1 0 0 1 776 2025)">scales and weights.</text>
  <g transform="matrix(0.2 0 0 0.2 1289 1933)">
   <path d="m14.209 9.32617 8.49609 8.54492c4.29688 4.3457 9.22852 4.05273 13.8672-1.07422l53.4668-58.9355-4.83398-4.88281-53.0762 58.3984c-1.75781 2.00195-3.41797 2.49023-5.76172 0.146484l-5.85938-5.81055c-2.34375-2.29492-1.80664-4.00391 0.195312-5.81055l57.373-54.0039-4.88281-4.83398-57.959 54.4434c-4.93164 4.58984-5.32227 9.47266-1.02539 13.8184Zm32.0801-90.9668c-2.09961 2.05078-2.24609 4.93164-1.07422 6.88477 1.17188 1.80664 3.4668 2.97852 6.68945 2.14844 7.32422-1.70898 14.9414-2.00195 22.0703 2.68555l-2.92969 7.27539c-1.70898 4.15039-0.830078 7.08008 1.85547 9.81445l11.4746 11.5723c2.44141 2.44141 4.49219 2.53906 7.32422 2.05078l5.32227-0.976562 3.32031 3.36914-0.195312 2.7832c-0.195312 2.49023 0.439453 4.39453 2.88086 6.78711l3.80859 3.71094c2.39258 2.39258 5.46875 2.53906 7.8125 0.195312l14.5508-14.5996c2.34375-2.34375 2.24609-5.32227-0.146484-7.71484l-3.85742-3.80859c-2.39258-2.39258-4.24805-3.17383-6.64062-2.97852l-2.88086 0.244141-3.22266-3.17383 1.2207-5.61523c0.634766-2.83203-0.146484-5.0293-3.07617-7.95898l-10.9863-10.9375c-16.6992-16.6016-38.8672-16.2109-53.3203-1.75781Zm7.4707 1.85547c12.1582-8.88672 28.6133-7.37305 39.7461 3.75977l12.1582 12.0605c1.17188 1.17188 1.36719 2.09961 1.02539 3.80859l-1.61133 7.42188 7.51953 7.42188 4.93164-0.292969c1.26953-0.0488281 1.66016 0.0488281 2.63672 1.02539l2.88086 2.88086-12.207 12.207-2.88086-2.88086c-0.976562-0.976562-1.12305-1.36719-1.07422-2.68555l0.341797-4.88281-7.4707-7.42188-7.61719 1.26953c-1.61133 0.341797-2.34375 0.195312-3.56445-0.976562l-10.0098-10.0098c-1.26953-1.17188-1.41602-2.00195-0.634766-3.85742l4.39453-10.4492c-7.8125-7.27539-17.9688-10.4004-28.125-7.42188-0.78125 0.195312-1.07422-0.439453-0.439453-0.976562Z"/>
  </g>
  <text style="stroke:none;fill:black;font-family:sans-serif;font-size:13;font-weight:bold;" transform="matrix(1 0 0 1 1289 1953)">Exporting</text>
  <text style="stroke:none;fill:black;font-family:sans-serif;font-size:13;" transform="matrix(1 0 0 1 1289 1971)">Symbols should be outlined when exporting to ensure the</text>
  <text style="stroke:none;fill:black;font-family:sans-serif;font-size:13;" transform="matrix(1 0 0 1 1289 1989)">design is preserved when submitting to Xcode.</text>
  <text id="template-version" style="stroke:none;fill:black;font-family:sans-serif;font-size:13;text-anchor:end;" transform="matrix(1 0 0 1 3036 1933)">Template v.5.0</text>
  <text style="stroke:none;fill:black;font-family:sans-serif;font-size:13;text-anchor:end;" transform="matrix(1 0 0 1 3036 1951)">Requires Xcode 15 or greater</text>
  <text id="descriptive-name" style="stroke:none;fill:black;font-family:sans-serif;font-size:13;text-anchor:end;" transform="matrix(1 0 0 1 3036 1969)">Generated from backward.end.alt</text>
  <text style="stroke:none;fill:black;font-family:sans-serif;font-size:13;text-anchor:end;" transform="matrix(1 0 0 1 3036 1987)">Typeset at 100.0 points</text>
  <text style="stroke:none;fill:black;font-family:sans-serif;font-size:13;" transform="matrix(1 0 0 1 263 726)">Small</text>
  <text style="stroke:none;fill:black;font-family:sans-serif;font-size:13;" transform="matrix(1 0 0 1 263 1156)">Medium</text>
  <text style="stroke:none;fill:black;font-family:sans-serif;font-size:13;" transform="matrix(1 0 0 1 263 1586)">Large</text>
 </g>
 <g id="Guides">
  <g id="H-reference" style="fill:#27AAE1;stroke:none;" transform="matrix(1 0 0 1 339 696)">
   <path d="M0.993654 0L3.63775 0L29.3281-67.1323L30.0303-67.1323L30.0303-70.459L28.1226-70.459ZM11.6885-24.4799L46.9815-24.4799L46.2315-26.7285L12.4385-26.7285ZM55.1196 0L57.7637 0L30.6382-70.459L29.4326-70.459L29.4326-67.1323Z"/>
  </g>
  <line id="Baseline-S" style="fill:none;stroke:#27AAE1;opacity:1;stroke-width:0.5;" x1="263" x2="3036" y1="696" y2="696"/>
  <line id="Capline-S" style="fill:none;stroke:#27AAE1;opacity:1;stroke-width:0.5;" x1="263" x2="3036" y1="625.541" y2="625.541"/>
  <g id="H-reference" style="fill:#27AAE1;stroke:none;" transform="matrix(1 0 0 1 339 1126)">
   <path d="M0.993654 0L3.63775 0L29.3281-67.1323L30.0303-67.1323L30.0303-70.459L28.1226-70.459ZM11.6885-24.4799L46.9815-24.4799L46.2315-26.7285L12.4385-26.7285ZM55.1196 0L57.7637 0L30.6382-70.459L29.4326-70.459L29.4326-67.1323Z"/>
  </g>
  <line id="Baseline-M" style="fill:none;stroke:#27AAE1;opacity:1;stroke-width:0.5;" x1="263" x2="3036" y1="1126" y2="1126"/>
  <line id="Capline-M" style="fill:none;stroke:#27AAE1;opacity:1;stroke-width:0.5;" x1="263" x2="3036" y1="1055.54" y2="1055.54"/>
  <g id="H-reference" style="fill:#27AAE1;stroke:none;" transform="matrix(1 0 0 1 339 1556)">
   <path d="M0.993654 0L3.63775 0L29.3281-67.1323L30.0303-67.1323L30.0303-70.459L28.1226-70.459ZM11.6885-24.4799L46.9815-24.4799L46.2315-26.7285L12.4385-26.7285ZM55.1196 0L57.7637 0L30.6382-70.459L29.4326-70.459L29.4326-67.1323Z"/>
  </g>
  <line id="Baseline-L" style="fill:none;stroke:#27AAE1;opacity:1;stroke-width:0.5;" x1="263" x2="3036" y1="1556" y2="1556"/>
  <line id="Capline-L" style="fill:none;stroke:#27AAE1;opacity:1;stroke-width:0.5;" x1="263" x2="3036" y1="1485.54" y2="1485.54"/>
  <line id="left-margin-Ultralight-S" style="fill:none;stroke:#00AEEF;stroke-width:0.5;opacity:1.0;" x1="500.147" x2="500.147" y1="600.785" y2="720.121"/>
  <line id="right-margin-Ultralight-S" style="fill:none;stroke:#00AEEF;stroke-width:0.5;opacity:1.0;" x1="619.275" x2="619.275" y1="600.785" y2="720.121"/>
  <line id="left-margin-Regular-S" style="fill:none;stroke:#00AEEF;stroke-width:0.5;opacity:1.0;" x1="1382.9" x2="1382.9" y1="600.785" y2="720.121"/>
  <line id="right-margin-Regular-S" style="fill:none;stroke:#00AEEF;stroke-width:0.5;opacity:1.0;" x1="1516.79" x2="1516.79" y1="600.785" y2="720.121"/>
  <line id="left-margin-Black-S" style="fill:none;stroke:#00AEEF;stroke-width:0.5;opacity:1.0;" x1="2852.59" x2="2852.59" y1="600.785" y2="720.121"/>
  <line id="right-margin-Black-S" style="fill:none;stroke:#00AEEF;stroke-width:0.5;opacity:1.0;" x1="3014.21" x2="3014.21" y1="600.785" y2="720.121"/>
 </g>
 <g id="Symbols">
  <g id="Black-S" transform="matrix(1 0 0 1 2852.59 696)">
   <path class="SFSymbolsPreviewWireframe" d="M18.5547 0C23.6816 0 27.3438-3.61328 27.3438-8.49609L27.3438-61.9629C27.3438-66.8457 23.6816-70.459 18.5547-70.459C13.4277-70.459 9.76562-66.8457 9.76562-61.9629L9.76562-8.49609C9.76562-3.61328 13.4277 0 18.5547 0ZM80.4199-1.07422C85.4004-1.07422 89.6484-4.78516 89.6484-11.1816L89.6484-59.2285C89.6484-65.6738 85.498-69.3359 80.5176-69.3359C78.2227-69.3359 76.0742-68.8477 73.9258-67.627L33.7402-44.2383C29.9805-42.041 27.2461-39.5996 27.2461-35.3027C27.2461-31.0059 30.127-28.2715 33.7402-26.1719L73.9258-2.7832C76.0254-1.5625 78.1738-1.07422 80.4199-1.07422ZM75.5371-17.7734C75.3906-17.7734 75.2441-17.8223 75.1465-17.8711L45.459-34.9609C45.4102-35.0098 45.3613-35.1074 45.3613-35.2539C45.3613-35.4004 45.3613-35.4492 45.459-35.498L75.1465-52.5391C75.293-52.6367 75.3906-52.6367 75.4883-52.6367C75.6836-52.6367 75.7324-52.5391 75.7324-52.3926L75.7324-18.0176C75.7324-17.8711 75.6836-17.7734 75.5371-17.7734ZM142.627-1.07422C147.607-1.07422 151.855-4.78516 151.855-11.1816L151.855-59.2285C151.855-65.6738 147.705-69.3359 142.725-69.3359C140.43-69.3359 138.281-68.8477 136.133-67.627L95.9473-44.2383C92.1875-42.041 89.4531-39.5996 89.4531-35.3027C89.4531-31.0059 92.334-28.2715 95.9473-26.1719L136.133-2.7832C138.232-1.5625 140.381-1.07422 142.627-1.07422ZM137.744-17.7734C137.598-17.7734 137.451-17.8223 137.354-17.8711L107.666-34.9609C107.617-35.0098 107.568-35.1074 107.568-35.2539C107.568-35.4004 107.568-35.4492 107.666-35.498L137.354-52.5391C137.5-52.6367 137.598-52.6367 137.695-52.6367C137.891-52.6367 137.939-52.5391 137.939-52.3926L137.939-18.0176C137.939-17.8711 137.891-17.7734 137.744-17.7734Z"/>
  </g>
  <g id="Regular-S" transform="matrix(1 0 0 1 1382.9 696)">
   <path class="SFSymbolsPreviewWireframe" d="M13.5254-3.07617C15.5762-3.07617 17.2852-4.6875 17.2852-6.73828L17.2852-63.6719C17.2852-65.7227 15.5762-67.334 13.5254-67.334C11.4746-67.334 9.76562-65.7227 9.76562-63.6719L9.76562-6.73828C9.76562-4.6875 11.4746-3.07617 13.5254-3.07617ZM64.7949-4.63867C68.0664-4.63867 70.7031-7.12891 70.7031-11.6211L70.7031-58.7891C70.7031-63.2812 68.0664-65.7715 64.7949-65.7715C63.1348-65.7715 61.8164-65.2832 60.1074-64.2578L21.3379-41.4551C18.3105-39.6484 17.0898-37.5488 17.0898-35.2051C17.0898-32.8613 18.3105-30.7617 21.3379-29.0039L60.1074-6.15234C61.8164-5.12695 63.1348-4.63867 64.7949-4.63867ZM62.8418-12.793C62.5977-12.793 62.3535-12.8906 62.0605-13.0859L26.416-34.2773C25.9277-34.5215 25.6836-34.7656 25.6836-35.2051C25.6836-35.6445 25.9277-35.8887 26.416-36.1328L62.0605-57.3242C62.3535-57.5195 62.5977-57.6172 62.8418-57.6172C63.3301-57.6172 63.6719-57.2754 63.6719-56.7383L63.6719-13.6719C63.6719-13.1348 63.3301-12.793 62.8418-12.793ZM118.262-4.63867C121.484-4.63867 124.121-7.12891 124.121-11.6211L124.121-58.7891C124.121-63.2812 121.484-65.7715 118.262-65.7715C116.602-65.7715 115.283-65.2832 113.574-64.2578L74.7559-41.4551C71.7285-39.6484 70.5078-37.5488 70.5078-35.2051C70.5078-32.8613 71.7285-30.7617 74.7559-29.0039L113.574-6.15234C115.283-5.12695 116.602-4.63867 118.262-4.63867ZM116.26-12.793C116.064-12.793 115.771-12.8906 115.527-13.0859L79.834-34.2773C79.3945-34.5215 79.1016-34.7656 79.1016-35.2051C79.1016-35.6445 79.3945-35.8887 79.834-36.1328L115.527-57.3242C115.771-57.5195 116.064-57.6172 116.26-57.6172C116.748-57.6172 117.09-57.2754 117.09-56.7383L117.09-13.6719C117.09-13.1348 116.748-12.793 116.26-12.793Z"/>
  </g>
  <g id="Ultralight-S" transform="matrix(1 0 0 1 500.147 696)">
   <path class="SFSymbolsPreviewWireframe" d="M10.8916-5.89158C11.4893-5.89158 11.9722-6.41307 11.9722-7.01074L11.9722-63.3994C11.9722-63.9971 11.4893-64.5186 10.8916-64.5186C10.2485-64.5186 9.76562-63.9971 9.76562-63.3994L9.76562-7.01074C9.76562-6.41307 10.2485-5.89158 10.8916-5.89158ZM56.8482-7.40867C58.8028-7.40867 60.6676-8.85448 60.6676-12.0298L60.6676-58.4258C60.6676-61.6011 58.8028-63.0469 56.8482-63.0469C55.7784-63.0469 54.6871-62.5132 53.7501-61.9873L13.8453-38.5489C12.5435-37.7412 11.7769-36.7769 11.7769-35.2505C11.7769-33.7241 12.5889-32.6689 13.8453-31.9101L53.7501-8.46824C54.6417-7.94236 55.7784-7.40867 56.8482-7.40867ZM56.6661-9.7051C56.1949-9.7051 55.6783-9.80276 54.8858-10.2705L15.4268-33.5054C14.5753-33.9766 14.0587-34.4932 14.0587-35.2505C14.0587-36.0078 14.5299-36.4336 15.4268-36.9502L54.8858-60.185C55.7237-60.6982 56.1949-60.7959 56.6661-60.7959C57.4268-60.7959 58.586-60.1816 58.586-58.4184L58.586-12.0371C58.586-10.2739 57.4268-9.7051 56.6661-9.7051ZM105.547-7.40867C107.453-7.40867 109.363-8.85448 109.363-12.0298L109.363-58.4258C109.363-61.6011 107.453-63.0469 105.547-63.0469C104.477-63.0469 103.34-62.5132 102.449-61.9873L62.5406-38.5489C61.2389-37.7412 60.4722-36.7769 60.4722-35.2505C60.4722-33.7241 61.2843-32.6689 62.5406-31.9101L102.449-8.46824C103.295-7.94236 104.477-7.40867 105.547-7.40867ZM105.361-9.7051C104.894-9.7051 104.374-9.80276 103.539-10.2705L64.0768-33.5054C63.2286-33.9766 62.754-34.4932 62.754-35.2505C62.754-36.0078 63.1832-36.4336 64.0768-36.9502L103.539-60.185C104.419-60.6982 104.894-60.7959 105.361-60.7959C106.122-60.7959 107.236-60.1816 107.236-58.4184L107.236-12.0371C107.236-10.2739 106.122-9.7051 105.361-9.7051Z"/>
  </g>
 </g>
</svg>
