<?xml version="1.0" encoding="UTF-8"?>
<!--Generator: Apple Native CoreSVG 232.5-->
<!DOCTYPE svg
PUBLIC "-//W3C//DTD SVG 1.1//EN"
       "http://www.w3.org/Graphics/SVG/1.1/DTD/svg11.dtd">
<svg version="1.1" xmlns="http://www.w3.org/2000/svg" xmlns:xlink="http://www.w3.org/1999/xlink" width="3300" height="2200">
 <!--glyph: "uni100393.medium", point size: 100.0, font version: "19.2d2e1", template writer version: "128"-->
 <style>.SFSymbolsPreviewWireframe {fill:none;opacity:1.0;stroke:black;stroke-width:0.5}
</style>
 <g id="Notes">
  <rect height="2200" id="artboard" style="fill:white;opacity:1" width="3300" x="0" y="0"/>
  <line style="fill:none;stroke:black;opacity:1;stroke-width:0.5;" x1="263" x2="3036" y1="292" y2="292"/>
  <text style="stroke:none;fill:black;font-family:sans-serif;font-size:13;font-weight:bold;" transform="matrix(1 0 0 1 263 322)">Weight/Scale Variations</text>
  <text style="stroke:none;fill:black;font-family:sans-serif;font-size:13;text-anchor:middle;" transform="matrix(1 0 0 1 559.711 322)">Ultralight</text>
  <text style="stroke:none;fill:black;font-family:sans-serif;font-size:13;text-anchor:middle;" transform="matrix(1 0 0 1 856.422 322)">Thin</text>
  <text style="stroke:none;fill:black;font-family:sans-serif;font-size:13;text-anchor:middle;" transform="matrix(1 0 0 1 1153.13 322)">Light</text>
  <text style="stroke:none;fill:black;font-family:sans-serif;font-size:13;text-anchor:middle;" transform="matrix(1 0 0 1 1449.84 322)">Regular</text>
  <text style="stroke:none;fill:black;font-family:sans-serif;font-size:13;text-anchor:middle;" transform="matrix(1 0 0 1 1746.56 322)">Medium</text>
  <text style="stroke:none;fill:black;font-family:sans-serif;font-size:13;text-anchor:middle;" transform="matrix(1 0 0 1 2043.27 322)">Semibold</text>
  <text style="stroke:none;fill:black;font-family:sans-serif;font-size:13;text-anchor:middle;" transform="matrix(1 0 0 1 2339.98 322)">Bold</text>
  <text style="stroke:none;fill:black;font-family:sans-serif;font-size:13;text-anchor:middle;" transform="matrix(1 0 0 1 2636.69 322)">Heavy</text>
  <text style="stroke:none;fill:black;font-family:sans-serif;font-size:13;text-anchor:middle;" transform="matrix(1 0 0 1 2933.4 322)">Black</text>
  <line style="fill:none;stroke:black;opacity:1;stroke-width:0.5;" x1="263" x2="3036" y1="1903" y2="1903"/>
  <g transform="matrix(0.2 0 0 0.2 263 1933)">
   <path d="m46.2402 4.15039c21.5332 0 39.4531-17.8711 39.4531-39.4043s-17.9688-39.4043-39.502-39.4043c-21.4844 0-39.3555 17.8711-39.3555 39.4043s17.9199 39.4043 39.4043 39.4043Zm0-7.42188c-17.7246 0-31.8848-14.209-31.8848-31.9824s14.1113-31.9824 31.8359-31.9824c17.7734 0 32.0312 14.209 32.0312 31.9824s-14.209 31.9824-31.9824 31.9824Zm-17.9688-31.9824c0 2.14844 1.51367 3.61328 3.75977 3.61328h10.498v10.5957c0 2.19727 1.46484 3.71094 3.61328 3.71094 2.24609 0 3.71094-1.51367 3.71094-3.71094v-10.5957h10.5957c2.19727 0 3.71094-1.46484 3.71094-3.61328 0-2.19727-1.51367-3.71094-3.71094-3.71094h-10.5957v-10.5469c0-2.24609-1.46484-3.75977-3.71094-3.75977-2.14844 0-3.61328 1.51367-3.61328 3.75977v10.5469h-10.498c-2.24609 0-3.75977 1.51367-3.75977 3.71094Z"/>
  </g>
  <g transform="matrix(0.2 0 0 0.2 281.506 1933)">
   <path d="m58.5449 14.5508c27.2461 0 49.8047-22.6074 49.8047-49.8047 0-27.2461-22.6074-49.8047-49.8535-49.8047-27.1973 0-49.7559 22.5586-49.7559 49.8047 0 27.1973 22.6074 49.8047 49.8047 49.8047Zm0-8.30078c-23.0469 0-41.4551-18.457-41.4551-41.5039s18.3594-41.5039 41.4062-41.5039 41.5527 18.457 41.5527 41.5039-18.457 41.5039-41.5039 41.5039Zm-22.6562-41.5039c0 2.39258 1.66016 4.00391 4.15039 4.00391h14.3555v14.4043c0 2.44141 1.66016 4.15039 4.05273 4.15039 2.44141 0 4.15039-1.66016 4.15039-4.15039v-14.4043h14.4043c2.44141 0 4.15039-1.61133 4.15039-4.00391 0-2.44141-1.70898-4.15039-4.15039-4.15039h-14.4043v-14.3555c0-2.49023-1.70898-4.19922-4.15039-4.19922-2.39258 0-4.05273 1.70898-4.05273 4.19922v14.3555h-14.3555c-2.49023 0-4.15039 1.70898-4.15039 4.15039Z"/>
  </g>
  <g transform="matrix(0.2 0 0 0.2 304.924 1933)">
   <path d="m74.8535 28.3203c34.8145 0 63.623-28.8086 63.623-63.5742 0-34.8145-28.8574-63.623-63.6719-63.623-34.7656 0-63.5254 28.8086-63.5254 63.623 0 34.7656 28.8086 63.5742 63.5742 63.5742Zm0-9.08203c-30.1758 0-54.4434-24.3164-54.4434-54.4922 0-30.2246 24.2188-54.4922 54.3945-54.4922 30.2246 0 54.541 24.2676 54.541 54.4922 0 30.1758-24.2676 54.4922-54.4922 54.4922Zm-28.8574-54.4922c0 2.58789 1.85547 4.39453 4.58984 4.39453h19.7266v19.7754c0 2.68555 1.85547 4.58984 4.44336 4.58984 2.68555 0 4.54102-1.85547 4.54102-4.58984v-19.7754h19.7754c2.68555 0 4.58984-1.80664 4.58984-4.39453 0-2.73438-1.85547-4.58984-4.58984-4.58984h-19.7754v-19.7266c0-2.73438-1.85547-4.63867-4.54102-4.63867-2.58789 0-4.44336 1.9043-4.44336 4.63867v19.7266h-19.7266c-2.73438 0-4.58984 1.85547-4.58984 4.58984Z"/>
  </g>
  <text style="stroke:none;fill:black;font-family:sans-serif;font-size:13;font-weight:bold;" transform="matrix(1 0 0 1 263 1953)">Design Variations</text>
  <text style="stroke:none;fill:black;font-family:sans-serif;font-size:13;" transform="matrix(1 0 0 1 263 1971)">Symbols are supported in up to nine weights and three scales.</text>
  <text style="stroke:none;fill:black;font-family:sans-serif;font-size:13;" transform="matrix(1 0 0 1 263 1989)">For optimal layout with text and other symbols, vertically align</text>
  <text style="stroke:none;fill:black;font-family:sans-serif;font-size:13;" transform="matrix(1 0 0 1 263 2007)">symbols with the adjacent text.</text>
  <line style="fill:none;stroke:#00AEEF;stroke-width:0.5;opacity:1.0;" x1="776" x2="776" y1="1919" y2="1933"/>
  <g transform="matrix(0.2 0 0 0.2 776 1933)">
   <path d="m16.5527 0.78125c2.58789 0 3.85742-0.976562 4.78516-3.71094l6.29883-17.2363h28.8086l6.29883 17.2363c0.927734 2.73438 2.19727 3.71094 4.73633 3.71094 2.58789 0 4.24805-1.5625 4.24805-4.00391 0-0.830078-0.146484-1.61133-0.537109-2.63672l-22.9004-60.9863c-1.12305-2.97852-3.125-4.49219-6.25-4.49219-3.02734 0-5.07812 1.46484-6.15234 4.44336l-22.9004 61.084c-0.390625 1.02539-0.537109 1.80664-0.537109 2.63672 0 2.44141 1.5625 3.95508 4.10156 3.95508Zm13.4766-28.3691 11.8652-32.8613h0.244141l11.8652 32.8613Z"/>
  </g>
  <line style="fill:none;stroke:#00AEEF;stroke-width:0.5;opacity:1.0;" x1="792.836" x2="792.836" y1="1919" y2="1933"/>
  <text style="stroke:none;fill:black;font-family:sans-serif;font-size:13;font-weight:bold;" transform="matrix(1 0 0 1 776 1953)">Margins</text>
  <text style="stroke:none;fill:black;font-family:sans-serif;font-size:13;" transform="matrix(1 0 0 1 776 1971)">Leading and trailing margins on the left and right side of each symbol</text>
  <text style="stroke:none;fill:black;font-family:sans-serif;font-size:13;" transform="matrix(1 0 0 1 776 1989)">can be adjusted by modifying the x-location of the margin guidelines.</text>
  <text style="stroke:none;fill:black;font-family:sans-serif;font-size:13;" transform="matrix(1 0 0 1 776 2007)">Modifications are automatically applied proportionally to all</text>
  <text style="stroke:none;fill:black;font-family:sans-serif;font-size:13;" transform="matrix(1 0 0 1 776 2025)">scales and weights.</text>
  <g transform="matrix(0.2 0 0 0.2 1289 1933)">
   <path d="m14.209 9.32617 8.49609 8.54492c4.29688 4.3457 9.22852 4.05273 13.8672-1.07422l53.4668-58.9355-4.83398-4.88281-53.0762 58.3984c-1.75781 2.00195-3.41797 2.49023-5.76172 0.146484l-5.85938-5.81055c-2.34375-2.29492-1.80664-4.00391 0.195312-5.81055l57.373-54.0039-4.88281-4.83398-57.959 54.4434c-4.93164 4.58984-5.32227 9.47266-1.02539 13.8184Zm32.0801-90.9668c-2.09961 2.05078-2.24609 4.93164-1.07422 6.88477 1.17188 1.80664 3.4668 2.97852 6.68945 2.14844 7.32422-1.70898 14.9414-2.00195 22.0703 2.68555l-2.92969 7.27539c-1.70898 4.15039-0.830078 7.08008 1.85547 9.81445l11.4746 11.5723c2.44141 2.44141 4.49219 2.53906 7.32422 2.05078l5.32227-0.976562 3.32031 3.36914-0.195312 2.7832c-0.195312 2.49023 0.439453 4.39453 2.88086 6.78711l3.80859 3.71094c2.39258 2.39258 5.46875 2.53906 7.8125 0.195312l14.5508-14.5996c2.34375-2.34375 2.24609-5.32227-0.146484-7.71484l-3.85742-3.80859c-2.39258-2.39258-4.24805-3.17383-6.64062-2.97852l-2.88086 0.244141-3.22266-3.17383 1.2207-5.61523c0.634766-2.83203-0.146484-5.0293-3.07617-7.95898l-10.9863-10.9375c-16.6992-16.6016-38.8672-16.2109-53.3203-1.75781Zm7.4707 1.85547c12.1582-8.88672 28.6133-7.37305 39.7461 3.75977l12.1582 12.0605c1.17188 1.17188 1.36719 2.09961 1.02539 3.80859l-1.61133 7.42188 7.51953 7.42188 4.93164-0.292969c1.26953-0.0488281 1.66016 0.0488281 2.63672 1.02539l2.88086 2.88086-12.207 12.207-2.88086-2.88086c-0.976562-0.976562-1.12305-1.36719-1.07422-2.68555l0.341797-4.88281-7.4707-7.42188-7.61719 1.26953c-1.61133 0.341797-2.34375 0.195312-3.56445-0.976562l-10.0098-10.0098c-1.26953-1.17188-1.41602-2.00195-0.634766-3.85742l4.39453-10.4492c-7.8125-7.27539-17.9688-10.4004-28.125-7.42188-0.78125 0.195312-1.07422-0.439453-0.439453-0.976562Z"/>
  </g>
  <text style="stroke:none;fill:black;font-family:sans-serif;font-size:13;font-weight:bold;" transform="matrix(1 0 0 1 1289 1953)">Exporting</text>
  <text style="stroke:none;fill:black;font-family:sans-serif;font-size:13;" transform="matrix(1 0 0 1 1289 1971)">Symbols should be outlined when exporting to ensure the</text>
  <text style="stroke:none;fill:black;font-family:sans-serif;font-size:13;" transform="matrix(1 0 0 1 1289 1989)">design is preserved when submitting to Xcode.</text>
  <text id="template-version" style="stroke:none;fill:black;font-family:sans-serif;font-size:13;text-anchor:end;" transform="matrix(1 0 0 1 3036 1933)">Template v.5.0</text>
  <text style="stroke:none;fill:black;font-family:sans-serif;font-size:13;text-anchor:end;" transform="matrix(1 0 0 1 3036 1951)">Requires Xcode 15 or greater</text>
  <text id="descriptive-name" style="stroke:none;fill:black;font-family:sans-serif;font-size:13;text-anchor:end;" transform="matrix(1 0 0 1 3036 1969)">Generated from bandage</text>
  <text style="stroke:none;fill:black;font-family:sans-serif;font-size:13;text-anchor:end;" transform="matrix(1 0 0 1 3036 1987)">Typeset at 100.0 points</text>
  <text style="stroke:none;fill:black;font-family:sans-serif;font-size:13;" transform="matrix(1 0 0 1 263 726)">Small</text>
  <text style="stroke:none;fill:black;font-family:sans-serif;font-size:13;" transform="matrix(1 0 0 1 263 1156)">Medium</text>
  <text style="stroke:none;fill:black;font-family:sans-serif;font-size:13;" transform="matrix(1 0 0 1 263 1586)">Large</text>
 </g>
 <g id="Guides">
  <g id="H-reference" style="fill:#27AAE1;stroke:none;" transform="matrix(1 0 0 1 339 696)">
   <path d="M0.993654 0L3.63775 0L29.3281-67.1323L30.0303-67.1323L30.0303-70.459L28.1226-70.459ZM11.6885-24.4799L46.9815-24.4799L46.2315-26.7285L12.4385-26.7285ZM55.1196 0L57.7637 0L30.6382-70.459L29.4326-70.459L29.4326-67.1323Z"/>
  </g>
  <line id="Baseline-S" style="fill:none;stroke:#27AAE1;opacity:1;stroke-width:0.5;" x1="263" x2="3036" y1="696" y2="696"/>
  <line id="Capline-S" style="fill:none;stroke:#27AAE1;opacity:1;stroke-width:0.5;" x1="263" x2="3036" y1="625.541" y2="625.541"/>
  <g id="H-reference" style="fill:#27AAE1;stroke:none;" transform="matrix(1 0 0 1 339 1126)">
   <path d="M0.993654 0L3.63775 0L29.3281-67.1323L30.0303-67.1323L30.0303-70.459L28.1226-70.459ZM11.6885-24.4799L46.9815-24.4799L46.2315-26.7285L12.4385-26.7285ZM55.1196 0L57.7637 0L30.6382-70.459L29.4326-70.459L29.4326-67.1323Z"/>
  </g>
  <line id="Baseline-M" style="fill:none;stroke:#27AAE1;opacity:1;stroke-width:0.5;" x1="263" x2="3036" y1="1126" y2="1126"/>
  <line id="Capline-M" style="fill:none;stroke:#27AAE1;opacity:1;stroke-width:0.5;" x1="263" x2="3036" y1="1055.54" y2="1055.54"/>
  <g id="H-reference" style="fill:#27AAE1;stroke:none;" transform="matrix(1 0 0 1 339 1556)">
   <path d="M0.993654 0L3.63775 0L29.3281-67.1323L30.0303-67.1323L30.0303-70.459L28.1226-70.459ZM11.6885-24.4799L46.9815-24.4799L46.2315-26.7285L12.4385-26.7285ZM55.1196 0L57.7637 0L30.6382-70.459L29.4326-70.459L29.4326-67.1323Z"/>
  </g>
  <line id="Baseline-L" style="fill:none;stroke:#27AAE1;opacity:1;stroke-width:0.5;" x1="263" x2="3036" y1="1556" y2="1556"/>
  <line id="Capline-L" style="fill:none;stroke:#27AAE1;opacity:1;stroke-width:0.5;" x1="263" x2="3036" y1="1485.54" y2="1485.54"/>
  <line id="left-margin-Ultralight-S" style="fill:none;stroke:#00AEEF;stroke-width:0.5;opacity:1.0;" x1="513.325" x2="513.325" y1="600.785" y2="720.121"/>
  <line id="right-margin-Ultralight-S" style="fill:none;stroke:#00AEEF;stroke-width:0.5;opacity:1.0;" x1="606.097" x2="606.097" y1="600.785" y2="720.121"/>
  <line id="left-margin-Regular-S" style="fill:none;stroke:#00AEEF;stroke-width:0.5;opacity:1.0;" x1="1400.87" x2="1400.87" y1="600.785" y2="720.121"/>
  <line id="right-margin-Regular-S" style="fill:none;stroke:#00AEEF;stroke-width:0.5;opacity:1.0;" x1="1498.82" x2="1498.82" y1="600.785" y2="720.121"/>
  <line id="left-margin-Black-S" style="fill:none;stroke:#00AEEF;stroke-width:0.5;opacity:1.0;" x1="2881.57" x2="2881.57" y1="600.785" y2="720.121"/>
  <line id="right-margin-Black-S" style="fill:none;stroke:#00AEEF;stroke-width:0.5;opacity:1.0;" x1="2985.23" x2="2985.23" y1="600.785" y2="720.121"/>
 </g>
 <g id="Symbols">
  <g id="Black-S" transform="matrix(1 0 0 1 2881.57 696)">
   <path class="SFSymbolsPreviewWireframe" d="M15.625 0.732422C25.293 10.4492 40.332 9.61914 50.1465-0.195312L61.2793-11.377L51.1719-19.5801L41.1621-9.52148C36.2305-4.54102 29.4922-3.07617 24.4629-8.10547C19.4824-13.0859 20.8496-19.7266 25.9277-24.8047L35.9863-34.8633L27.7344-44.873L16.6016-33.8379C6.73828-24.0234 5.95703-8.98438 15.625 0.732422ZM87.9883-71.6309C78.3203-81.3477 63.2812-80.5176 53.4668-70.7031L42.334-59.5215L52.4902-51.2695L62.5-61.377C67.4316-66.3086 74.1699-67.8223 79.1504-62.793C84.1309-57.7637 82.7637-51.1719 77.7344-46.1426L67.6758-36.084L75.8789-26.0254L87.0117-37.0605C96.875-46.875 97.6562-61.9141 87.9883-71.6309ZM75.8301-45.459L61.8164-59.4727C55.3223-65.9668 49.0723-66.2598 42.334-59.5215L27.7344-44.873C20.9961-38.1348 21.2891-31.9336 27.7832-25.4395L41.7969-11.4258C48.291-4.93164 54.541-4.63867 61.2793-11.377L75.8789-26.0254C82.6172-32.7637 82.3242-38.9648 75.8301-45.459ZM53.1738-51.2695L67.6758-36.8164C67.9688-36.5234 67.9688-36.377 67.6758-36.084L51.1719-19.5801C50.9277-19.3359 50.6836-19.3359 50.4395-19.5801L35.9863-34.1797C35.7422-34.4238 35.7422-34.6191 35.9863-34.8633L52.4902-51.2695C52.7344-51.5137 52.9297-51.5137 53.1738-51.2695ZM51.8066-40.0391C53.5156-40.0391 54.6875-41.4062 54.6875-42.9199C54.6875-44.4336 53.4668-45.752 51.8555-45.752C50.293-45.752 49.0234-44.4824 49.0234-42.8711C49.0234-41.4551 50.293-40.0391 51.8066-40.0391ZM44.4824-32.5195C46.0449-32.5195 47.2168-33.9355 47.2656-35.4004C47.3145-37.0117 46.0449-38.2812 44.4336-38.2812C42.8223-38.2812 41.6504-36.9141 41.6504-35.3516C41.6504-33.8379 42.8223-32.5195 44.4824-32.5195ZM59.2285-32.7148C60.8398-32.7148 62.0117-34.0332 62.0117-35.5957C62.0117-37.0605 60.8887-38.4277 59.1797-38.4277C57.666-38.4277 56.3965-37.0117 56.3965-35.5957C56.3965-33.9844 57.666-32.7148 59.2285-32.7148ZM51.8066-25.1953C53.3691-25.1953 54.5898-26.4648 54.5898-28.0762C54.5898-29.541 53.3691-30.957 51.8066-30.957C50.1465-30.957 48.9746-29.5898 48.9746-28.0762C48.9746-26.5137 50.1465-25.1953 51.8066-25.1953Z"/>
  </g>
  <g id="Regular-S" transform="matrix(1 0 0 1 1400.87 696)">
   <path class="SFSymbolsPreviewWireframe" d="M14.9414-1.36719C23.1934 6.83594 34.6191 6.98242 43.7012-2.05078L55.6641-14.0625L50.6836-19.043L38.7695-7.08008C32.8125-1.17188 25.1465-0.390625 19.5312-6.00586C13.916-11.5723 14.6973-19.2871 20.6543-25.1953L32.5684-37.1582L27.5879-42.1387L15.5762-30.127C6.54297-21.0938 6.73828-9.66797 14.9414-1.36719ZM83.0078-69.4824C74.7559-77.6855 63.3301-77.8809 54.248-68.8477L42.2852-56.8359L47.2656-51.8555L59.1797-63.7695C65.1367-69.7266 72.8027-70.459 78.418-64.8926C84.0332-59.2773 83.252-51.6113 77.2949-45.6543L65.3809-33.7402L70.3613-28.7598L82.373-40.7227C91.4062-49.8047 91.2109-61.2305 83.0078-69.4824ZM70.4102-42.8223L56.3477-56.8848C51.6113-61.5234 47.1191-61.6699 42.2852-56.8359L27.5879-42.1387C22.7539-37.3047 22.8516-32.8125 27.5391-28.0762L41.6016-14.0137C46.3379-9.32617 50.8301-9.17969 55.6641-14.0625L70.3613-28.7598C75.1953-33.5938 75.0977-38.0859 70.4102-42.8223ZM52.3926-51.5137L65.0391-38.8672C67.0898-36.7676 66.8945-35.2051 64.7461-33.0566L51.3184-19.6777C49.2188-17.4805 47.6074-17.2852 45.5566-19.3848L32.9102-31.9824C30.8594-34.082 31.0547-35.6445 33.2031-37.793L46.6309-51.1719C48.7305-53.3691 50.3418-53.5645 52.3926-51.5137ZM48.9258-39.4531C50.8789-39.4531 52.3438-41.0156 52.3438-42.8223C52.3926-44.7266 50.8301-46.2402 48.9746-46.2402C47.1191-46.2402 45.6055-44.7266 45.6055-42.7734C45.6055-41.0645 47.168-39.4531 48.9258-39.4531ZM41.6504-32.0801C43.5059-32.0801 45.0195-33.6426 45.0195-35.4004C45.0195-37.3047 43.5059-38.8672 41.6504-38.8672C39.6973-38.8672 38.2324-37.3047 38.2324-35.4492C38.2324-33.5938 39.6973-32.0801 41.6504-32.0801ZM56.3477-32.0801C58.2031-32.0801 59.7656-33.5938 59.7168-35.498C59.7168-37.3047 58.252-38.8672 56.2988-38.8672C54.4922-38.8672 52.9785-37.2559 52.9785-35.5469C52.9785-33.5938 54.4434-32.0801 56.3477-32.0801ZM48.9746-24.6582C50.8301-24.6582 52.3438-26.2207 52.3438-28.125C52.3438-29.8828 50.8301-31.4453 49.0234-31.4453C47.0703-31.4453 45.5566-29.9316 45.5566-28.0762C45.5566-26.2207 47.0703-24.6582 48.9746-24.6582Z"/>
  </g>
  <g id="Ultralight-S" transform="matrix(1 0 0 1 513.325 696)">
   <path class="SFSymbolsPreviewWireframe" d="M13.8062-2.63866C21.2861 4.88332 32.8936 3.66751 40.8404-4.32127L51.3047-14.7891L49.8662-16.5L39.269-5.8086C32.1314 1.28025 22.3765 2.60642 15.3535-4.18947C8.2852-11.0273 9.83842-21.0127 16.9761-28.1015L27.5733-38.793L25.9531-40.1406L15.4854-29.7183C7.45116-21.7295 6.32959-10.1221 13.8062-2.63866ZM78.9663-67.8477C71.4864-75.3696 59.9243-74.2027 51.9776-66.2139L41.5132-55.7007L42.9517-54.0351L53.5489-64.6777C60.6866-71.8154 70.4414-73.1382 77.4644-66.3457C84.5327-59.5044 82.9795-49.5225 75.8418-42.3848L65.2446-31.7422L66.8648-30.3945L77.3326-40.8135C85.3667-48.8057 86.3975-60.3677 78.9663-67.8477ZM66.9136-40.7334L51.8975-55.7495C48.3418-59.2984 45.2119-59.3994 41.5132-55.7007L25.9531-40.1406C22.2998-36.5327 22.3521-33.312 25.9043-29.8017L40.9204-14.7402C44.4761-11.2334 47.6514-11.1777 51.3047-14.7891L66.8648-30.3945C70.5181-34.0478 70.4204-37.2232 66.9136-40.7334ZM50.1675-54.4653L65.6748-38.958C68.2705-36.3589 67.9844-34.5239 65.2002-31.6943L49.9107-16.499C47.1299-13.7115 45.3369-13.3799 42.6504-16.0244L27.1885-31.5283C24.5474-34.1729 24.8335-36.0078 27.6177-38.792L42.9073-53.9873C45.688-56.8203 47.5264-57.1064 50.1675-54.4653ZM46.3828-40.5884C47.8364-40.5884 48.938-41.6968 48.9834-43.0947C49.0323-44.4995 47.833-45.6953 46.3863-45.6953C45.0303-45.6953 43.8799-44.4995 43.8799-43.0459C43.8799-41.7456 45.0791-40.5884 46.3828-40.5884ZM38.6533-32.6704C40.0093-32.6704 41.2051-33.915 41.2051-35.2188C41.2051-36.669 40.0093-37.8682 38.6533-37.8682C37.1543-37.8682 36.0982-36.669 36.0982-35.2676C36.0982-33.8662 37.1089-32.6704 38.6533-32.6704ZM54.2134-32.7158C55.6148-32.7158 56.7686-33.9116 56.7652-35.3164C56.7652-36.7144 55.6182-37.8682 54.21-37.8682C52.8574-37.8682 51.6616-36.6655 51.6616-35.3652C51.6616-33.9116 52.8086-32.7158 54.2134-32.7158ZM46.4317-24.8853C47.7876-24.8853 48.9834-26.0845 48.9834-27.5347C48.9834-28.793 47.7876-30.0376 46.4351-30.0376C44.9361-30.0376 43.8765-28.8418 43.8765-27.4858C43.8765-26.0845 44.9815-24.8853 46.4317-24.8853Z"/>
  </g>
 </g>
</svg>
