<?xml version="1.0" encoding="UTF-8"?>
<!--Generator: Apple Native CoreSVG 232.5-->
<!DOCTYPE svg
PUBLIC "-//W3C//DTD SVG 1.1//EN"
       "http://www.w3.org/Graphics/SVG/1.1/DTD/svg11.dtd">
<svg version="1.1" xmlns="http://www.w3.org/2000/svg" xmlns:xlink="http://www.w3.org/1999/xlink" width="3300" height="2200">
 <!--glyph: "uni10158A.medium", point size: 100.0, font version: "19.2d2e1", template writer version: "128"-->
 <style>.SFSymbolsPreviewWireframe {fill:none;opacity:1.0;stroke:black;stroke-width:0.5}
</style>
 <g id="Notes">
  <rect height="2200" id="artboard" style="fill:white;opacity:1" width="3300" x="0" y="0"/>
  <line style="fill:none;stroke:black;opacity:1;stroke-width:0.5;" x1="263" x2="3036" y1="292" y2="292"/>
  <text style="stroke:none;fill:black;font-family:sans-serif;font-size:13;font-weight:bold;" transform="matrix(1 0 0 1 263 322)">Weight/Scale Variations</text>
  <text style="stroke:none;fill:black;font-family:sans-serif;font-size:13;text-anchor:middle;" transform="matrix(1 0 0 1 559.711 322)">Ultralight</text>
  <text style="stroke:none;fill:black;font-family:sans-serif;font-size:13;text-anchor:middle;" transform="matrix(1 0 0 1 856.422 322)">Thin</text>
  <text style="stroke:none;fill:black;font-family:sans-serif;font-size:13;text-anchor:middle;" transform="matrix(1 0 0 1 1153.13 322)">Light</text>
  <text style="stroke:none;fill:black;font-family:sans-serif;font-size:13;text-anchor:middle;" transform="matrix(1 0 0 1 1449.84 322)">Regular</text>
  <text style="stroke:none;fill:black;font-family:sans-serif;font-size:13;text-anchor:middle;" transform="matrix(1 0 0 1 1746.56 322)">Medium</text>
  <text style="stroke:none;fill:black;font-family:sans-serif;font-size:13;text-anchor:middle;" transform="matrix(1 0 0 1 2043.27 322)">Semibold</text>
  <text style="stroke:none;fill:black;font-family:sans-serif;font-size:13;text-anchor:middle;" transform="matrix(1 0 0 1 2339.98 322)">Bold</text>
  <text style="stroke:none;fill:black;font-family:sans-serif;font-size:13;text-anchor:middle;" transform="matrix(1 0 0 1 2636.69 322)">Heavy</text>
  <text style="stroke:none;fill:black;font-family:sans-serif;font-size:13;text-anchor:middle;" transform="matrix(1 0 0 1 2933.4 322)">Black</text>
  <line style="fill:none;stroke:black;opacity:1;stroke-width:0.5;" x1="263" x2="3036" y1="1903" y2="1903"/>
  <g transform="matrix(0.2 0 0 0.2 263 1933)">
   <path d="m46.2402 4.15039c21.5332 0 39.4531-17.8711 39.4531-39.4043s-17.9688-39.4043-39.502-39.4043c-21.4844 0-39.3555 17.8711-39.3555 39.4043s17.9199 39.4043 39.4043 39.4043Zm0-7.42188c-17.7246 0-31.8848-14.209-31.8848-31.9824s14.1113-31.9824 31.8359-31.9824c17.7734 0 32.0312 14.209 32.0312 31.9824s-14.209 31.9824-31.9824 31.9824Zm-17.9688-31.9824c0 2.14844 1.51367 3.61328 3.75977 3.61328h10.498v10.5957c0 2.19727 1.46484 3.71094 3.61328 3.71094 2.24609 0 3.71094-1.51367 3.71094-3.71094v-10.5957h10.5957c2.19727 0 3.71094-1.46484 3.71094-3.61328 0-2.19727-1.51367-3.71094-3.71094-3.71094h-10.5957v-10.5469c0-2.24609-1.46484-3.75977-3.71094-3.75977-2.14844 0-3.61328 1.51367-3.61328 3.75977v10.5469h-10.498c-2.24609 0-3.75977 1.51367-3.75977 3.71094Z"/>
  </g>
  <g transform="matrix(0.2 0 0 0.2 281.506 1933)">
   <path d="m58.5449 14.5508c27.2461 0 49.8047-22.6074 49.8047-49.8047 0-27.2461-22.6074-49.8047-49.8535-49.8047-27.1973 0-49.7559 22.5586-49.7559 49.8047 0 27.1973 22.6074 49.8047 49.8047 49.8047Zm0-8.30078c-23.0469 0-41.4551-18.457-41.4551-41.5039s18.3594-41.5039 41.4062-41.5039 41.5527 18.457 41.5527 41.5039-18.457 41.5039-41.5039 41.5039Zm-22.6562-41.5039c0 2.39258 1.66016 4.00391 4.15039 4.00391h14.3555v14.4043c0 2.44141 1.66016 4.15039 4.05273 4.15039 2.44141 0 4.15039-1.66016 4.15039-4.15039v-14.4043h14.4043c2.44141 0 4.15039-1.61133 4.15039-4.00391 0-2.44141-1.70898-4.15039-4.15039-4.15039h-14.4043v-14.3555c0-2.49023-1.70898-4.19922-4.15039-4.19922-2.39258 0-4.05273 1.70898-4.05273 4.19922v14.3555h-14.3555c-2.49023 0-4.15039 1.70898-4.15039 4.15039Z"/>
  </g>
  <g transform="matrix(0.2 0 0 0.2 304.924 1933)">
   <path d="m74.8535 28.3203c34.8145 0 63.623-28.8086 63.623-63.5742 0-34.8145-28.8574-63.623-63.6719-63.623-34.7656 0-63.5254 28.8086-63.5254 63.623 0 34.7656 28.8086 63.5742 63.5742 63.5742Zm0-9.08203c-30.1758 0-54.4434-24.3164-54.4434-54.4922 0-30.2246 24.2188-54.4922 54.3945-54.4922 30.2246 0 54.541 24.2676 54.541 54.4922 0 30.1758-24.2676 54.4922-54.4922 54.4922Zm-28.8574-54.4922c0 2.58789 1.85547 4.39453 4.58984 4.39453h19.7266v19.7754c0 2.68555 1.85547 4.58984 4.44336 4.58984 2.68555 0 4.54102-1.85547 4.54102-4.58984v-19.7754h19.7754c2.68555 0 4.58984-1.80664 4.58984-4.39453 0-2.73438-1.85547-4.58984-4.58984-4.58984h-19.7754v-19.7266c0-2.73438-1.85547-4.63867-4.54102-4.63867-2.58789 0-4.44336 1.9043-4.44336 4.63867v19.7266h-19.7266c-2.73438 0-4.58984 1.85547-4.58984 4.58984Z"/>
  </g>
  <text style="stroke:none;fill:black;font-family:sans-serif;font-size:13;font-weight:bold;" transform="matrix(1 0 0 1 263 1953)">Design Variations</text>
  <text style="stroke:none;fill:black;font-family:sans-serif;font-size:13;" transform="matrix(1 0 0 1 263 1971)">Symbols are supported in up to nine weights and three scales.</text>
  <text style="stroke:none;fill:black;font-family:sans-serif;font-size:13;" transform="matrix(1 0 0 1 263 1989)">For optimal layout with text and other symbols, vertically align</text>
  <text style="stroke:none;fill:black;font-family:sans-serif;font-size:13;" transform="matrix(1 0 0 1 263 2007)">symbols with the adjacent text.</text>
  <line style="fill:none;stroke:#00AEEF;stroke-width:0.5;opacity:1.0;" x1="776" x2="776" y1="1919" y2="1933"/>
  <g transform="matrix(0.2 0 0 0.2 776 1933)">
   <path d="m16.5527 0.78125c2.58789 0 3.85742-0.976562 4.78516-3.71094l6.29883-17.2363h28.8086l6.29883 17.2363c0.927734 2.73438 2.19727 3.71094 4.73633 3.71094 2.58789 0 4.24805-1.5625 4.24805-4.00391 0-0.830078-0.146484-1.61133-0.537109-2.63672l-22.9004-60.9863c-1.12305-2.97852-3.125-4.49219-6.25-4.49219-3.02734 0-5.07812 1.46484-6.15234 4.44336l-22.9004 61.084c-0.390625 1.02539-0.537109 1.80664-0.537109 2.63672 0 2.44141 1.5625 3.95508 4.10156 3.95508Zm13.4766-28.3691 11.8652-32.8613h0.244141l11.8652 32.8613Z"/>
  </g>
  <line style="fill:none;stroke:#00AEEF;stroke-width:0.5;opacity:1.0;" x1="792.836" x2="792.836" y1="1919" y2="1933"/>
  <text style="stroke:none;fill:black;font-family:sans-serif;font-size:13;font-weight:bold;" transform="matrix(1 0 0 1 776 1953)">Margins</text>
  <text style="stroke:none;fill:black;font-family:sans-serif;font-size:13;" transform="matrix(1 0 0 1 776 1971)">Leading and trailing margins on the left and right side of each symbol</text>
  <text style="stroke:none;fill:black;font-family:sans-serif;font-size:13;" transform="matrix(1 0 0 1 776 1989)">can be adjusted by modifying the x-location of the margin guidelines.</text>
  <text style="stroke:none;fill:black;font-family:sans-serif;font-size:13;" transform="matrix(1 0 0 1 776 2007)">Modifications are automatically applied proportionally to all</text>
  <text style="stroke:none;fill:black;font-family:sans-serif;font-size:13;" transform="matrix(1 0 0 1 776 2025)">scales and weights.</text>
  <g transform="matrix(0.2 0 0 0.2 1289 1933)">
   <path d="m14.209 9.32617 8.49609 8.54492c4.29688 4.3457 9.22852 4.05273 13.8672-1.07422l53.4668-58.9355-4.83398-4.88281-53.0762 58.3984c-1.75781 2.00195-3.41797 2.49023-5.76172 0.146484l-5.85938-5.81055c-2.34375-2.29492-1.80664-4.00391 0.195312-5.81055l57.373-54.0039-4.88281-4.83398-57.959 54.4434c-4.93164 4.58984-5.32227 9.47266-1.02539 13.8184Zm32.0801-90.9668c-2.09961 2.05078-2.24609 4.93164-1.07422 6.88477 1.17188 1.80664 3.4668 2.97852 6.68945 2.14844 7.32422-1.70898 14.9414-2.00195 22.0703 2.68555l-2.92969 7.27539c-1.70898 4.15039-0.830078 7.08008 1.85547 9.81445l11.4746 11.5723c2.44141 2.44141 4.49219 2.53906 7.32422 2.05078l5.32227-0.976562 3.32031 3.36914-0.195312 2.7832c-0.195312 2.49023 0.439453 4.39453 2.88086 6.78711l3.80859 3.71094c2.39258 2.39258 5.46875 2.53906 7.8125 0.195312l14.5508-14.5996c2.34375-2.34375 2.24609-5.32227-0.146484-7.71484l-3.85742-3.80859c-2.39258-2.39258-4.24805-3.17383-6.64062-2.97852l-2.88086 0.244141-3.22266-3.17383 1.2207-5.61523c0.634766-2.83203-0.146484-5.0293-3.07617-7.95898l-10.9863-10.9375c-16.6992-16.6016-38.8672-16.2109-53.3203-1.75781Zm7.4707 1.85547c12.1582-8.88672 28.6133-7.37305 39.7461 3.75977l12.1582 12.0605c1.17188 1.17188 1.36719 2.09961 1.02539 3.80859l-1.61133 7.42188 7.51953 7.42188 4.93164-0.292969c1.26953-0.0488281 1.66016 0.0488281 2.63672 1.02539l2.88086 2.88086-12.207 12.207-2.88086-2.88086c-0.976562-0.976562-1.12305-1.36719-1.07422-2.68555l0.341797-4.88281-7.4707-7.42188-7.61719 1.26953c-1.61133 0.341797-2.34375 0.195312-3.56445-0.976562l-10.0098-10.0098c-1.26953-1.17188-1.41602-2.00195-0.634766-3.85742l4.39453-10.4492c-7.8125-7.27539-17.9688-10.4004-28.125-7.42188-0.78125 0.195312-1.07422-0.439453-0.439453-0.976562Z"/>
  </g>
  <text style="stroke:none;fill:black;font-family:sans-serif;font-size:13;font-weight:bold;" transform="matrix(1 0 0 1 1289 1953)">Exporting</text>
  <text style="stroke:none;fill:black;font-family:sans-serif;font-size:13;" transform="matrix(1 0 0 1 1289 1971)">Symbols should be outlined when exporting to ensure the</text>
  <text style="stroke:none;fill:black;font-family:sans-serif;font-size:13;" transform="matrix(1 0 0 1 1289 1989)">design is preserved when submitting to Xcode.</text>
  <text id="template-version" style="stroke:none;fill:black;font-family:sans-serif;font-size:13;text-anchor:end;" transform="matrix(1 0 0 1 3036 1933)">Template v.5.0</text>
  <text style="stroke:none;fill:black;font-family:sans-serif;font-size:13;text-anchor:end;" transform="matrix(1 0 0 1 3036 1951)">Requires Xcode 15 or greater</text>
  <text id="descriptive-name" style="stroke:none;fill:black;font-family:sans-serif;font-size:13;text-anchor:end;" transform="matrix(1 0 0 1 3036 1969)">Generated from basket</text>
  <text style="stroke:none;fill:black;font-family:sans-serif;font-size:13;text-anchor:end;" transform="matrix(1 0 0 1 3036 1987)">Typeset at 100.0 points</text>
  <text style="stroke:none;fill:black;font-family:sans-serif;font-size:13;" transform="matrix(1 0 0 1 263 726)">Small</text>
  <text style="stroke:none;fill:black;font-family:sans-serif;font-size:13;" transform="matrix(1 0 0 1 263 1156)">Medium</text>
  <text style="stroke:none;fill:black;font-family:sans-serif;font-size:13;" transform="matrix(1 0 0 1 263 1586)">Large</text>
 </g>
 <g id="Guides">
  <g id="H-reference" style="fill:#27AAE1;stroke:none;" transform="matrix(1 0 0 1 339 696)">
   <path d="M0.993654 0L3.63775 0L29.3281-67.1323L30.0303-67.1323L30.0303-70.459L28.1226-70.459ZM11.6885-24.4799L46.9815-24.4799L46.2315-26.7285L12.4385-26.7285ZM55.1196 0L57.7637 0L30.6382-70.459L29.4326-70.459L29.4326-67.1323Z"/>
  </g>
  <line id="Baseline-S" style="fill:none;stroke:#27AAE1;opacity:1;stroke-width:0.5;" x1="263" x2="3036" y1="696" y2="696"/>
  <line id="Capline-S" style="fill:none;stroke:#27AAE1;opacity:1;stroke-width:0.5;" x1="263" x2="3036" y1="625.541" y2="625.541"/>
  <g id="H-reference" style="fill:#27AAE1;stroke:none;" transform="matrix(1 0 0 1 339 1126)">
   <path d="M0.993654 0L3.63775 0L29.3281-67.1323L30.0303-67.1323L30.0303-70.459L28.1226-70.459ZM11.6885-24.4799L46.9815-24.4799L46.2315-26.7285L12.4385-26.7285ZM55.1196 0L57.7637 0L30.6382-70.459L29.4326-70.459L29.4326-67.1323Z"/>
  </g>
  <line id="Baseline-M" style="fill:none;stroke:#27AAE1;opacity:1;stroke-width:0.5;" x1="263" x2="3036" y1="1126" y2="1126"/>
  <line id="Capline-M" style="fill:none;stroke:#27AAE1;opacity:1;stroke-width:0.5;" x1="263" x2="3036" y1="1055.54" y2="1055.54"/>
  <g id="H-reference" style="fill:#27AAE1;stroke:none;" transform="matrix(1 0 0 1 339 1556)">
   <path d="M0.993654 0L3.63775 0L29.3281-67.1323L30.0303-67.1323L30.0303-70.459L28.1226-70.459ZM11.6885-24.4799L46.9815-24.4799L46.2315-26.7285L12.4385-26.7285ZM55.1196 0L57.7637 0L30.6382-70.459L29.4326-70.459L29.4326-67.1323Z"/>
  </g>
  <line id="Baseline-L" style="fill:none;stroke:#27AAE1;opacity:1;stroke-width:0.5;" x1="263" x2="3036" y1="1556" y2="1556"/>
  <line id="Capline-L" style="fill:none;stroke:#27AAE1;opacity:1;stroke-width:0.5;" x1="263" x2="3036" y1="1485.54" y2="1485.54"/>
  <line id="left-margin-Ultralight-S" style="fill:none;stroke:#00AEEF;stroke-width:0.5;opacity:1.0;" x1="509.706" x2="509.706" y1="600.785" y2="720.121"/>
  <line id="right-margin-Ultralight-S" style="fill:none;stroke:#00AEEF;stroke-width:0.5;opacity:1.0;" x1="609.717" x2="609.717" y1="600.785" y2="720.121"/>
  <line id="left-margin-Regular-S" style="fill:none;stroke:#00AEEF;stroke-width:0.5;opacity:1.0;" x1="1394.25" x2="1394.25" y1="600.785" y2="720.121"/>
  <line id="right-margin-Regular-S" style="fill:none;stroke:#00AEEF;stroke-width:0.5;opacity:1.0;" x1="1505.44" x2="1505.44" y1="600.785" y2="720.121"/>
  <line id="left-margin-Black-S" style="fill:none;stroke:#00AEEF;stroke-width:0.5;opacity:1.0;" x1="2875.54" x2="2875.54" y1="600.785" y2="720.121"/>
  <line id="right-margin-Black-S" style="fill:none;stroke:#00AEEF;stroke-width:0.5;opacity:1.0;" x1="2991.26" x2="2991.26" y1="600.785" y2="720.121"/>
 </g>
 <g id="Symbols">
  <g id="Black-S" transform="matrix(1 0 0 1 2875.54 696)">
   <path class="SFSymbolsPreviewWireframe" d="M9.76562-36.1816C9.76562-31.1523 13.1348-27.7832 18.2129-27.7832L97.4609-27.7832C102.539-27.7832 105.957-31.1523 105.957-36.1816L105.957-45.2148C105.957-50.2441 102.539-53.7109 97.4609-53.7109L18.2129-53.7109C13.0859-53.7109 9.76562-50.2441 9.76562-45.2148ZM21.3379-42.5781L94.3848-42.5781C94.6777-42.5781 94.873-42.3828 94.873-42.0898L94.873-39.3555C94.873-39.0625 94.6777-38.8672 94.3848-38.8672L21.3379-38.8672C21.0449-38.8672 20.8496-39.0625 20.8496-39.3555L20.8496-42.0898C20.8496-42.3828 21.0449-42.5781 21.3379-42.5781ZM37.6953 10.6445L78.0273 10.6445C89.4043 10.6445 92.627 3.56445 93.9453-2.68555L100.293-32.9102L89.4531-35.1562L83.4473-6.34766C82.4219-1.46484 81.6895-0.537109 76.6602-0.537109L39.0625-0.537109C34.0332-0.537109 33.3008-1.46484 32.2754-6.34766L26.2695-35.1562L15.4297-32.9102L21.7773-2.68555C23.0957 3.56445 26.3184 10.6445 37.6953 10.6445ZM41.4551-2.63672C43.5059-3.02734 44.7266-4.54102 44.3848-6.39648L41.4062-23.4375C41.0645-25.293 39.4043-26.3672 37.4512-26.0742C35.4004-25.6836 34.1309-24.1699 34.4727-22.3145L37.5-5.27344C37.8418-3.41797 39.4043-2.34375 41.4551-2.63672ZM52.4414-2.97852C54.4434-3.07617 55.8105-4.49219 55.7129-6.39648L54.6875-23.0957C54.5898-25 53.0762-26.3672 51.0254-26.1719C49.0234-26.0742 47.6562-24.6582 47.7539-22.7051L48.7793-6.05469C48.877-4.15039 50.4395-2.88086 52.4414-2.97852ZM63.3301-2.97852C65.332-2.88086 66.8945-4.15039 66.9922-6.05469L68.0176-22.7051C68.1152-24.6582 66.748-26.0742 64.7461-26.1719C62.6953-26.3672 61.1816-25 61.084-23.0957L60.0586-6.39648C59.9609-4.49219 61.3281-3.07617 63.3301-2.97852ZM74.2676-2.63672C76.2207-2.34375 77.8809-3.41797 78.2227-5.27344L81.25-22.3145C81.5918-24.1699 80.3223-25.6836 78.2715-26.0742C76.3184-26.3672 74.6582-25.293 74.3164-23.4375L71.3379-6.39648C70.9961-4.54102 72.2168-3.02734 74.2676-2.63672ZM22.2656-50.1465L35.9863-50.1465L48.5352-71.9727C50.2441-74.9512 49.1211-78.2227 46.2891-79.6875C43.6523-81.1035 40.332-80.5664 38.623-77.6367ZM79.7363-50.1465L93.457-50.1465L77.0996-77.6367C75.4395-80.4688 72.168-81.0547 69.4824-79.7363C66.6016-78.2227 65.4785-74.9512 67.1875-71.9727Z"/>
  </g>
  <g id="Regular-S" transform="matrix(1 0 0 1 1394.25 696)">
   <path class="SFSymbolsPreviewWireframe" d="M9.76562-40.2344C9.76562-36.3281 12.207-33.9355 16.1133-33.9355L95.0195-33.9355C98.9258-33.9355 101.416-36.3281 101.416-40.2344L101.416-46.1914C101.416-50.0488 98.9258-52.5879 95.0195-52.5879L16.1133-52.5879C12.207-52.5879 9.76562-50.0488 9.76562-46.1914ZM17.9199-45.6055L93.2129-45.6055C93.9941-45.6055 94.4824-45.1172 94.4824-44.3359L94.4824-42.0898C94.4824-41.3086 93.9941-40.8203 93.2129-40.8203L17.9199-40.8203C17.1387-40.8203 16.6504-41.3086 16.6504-42.0898L16.6504-44.3359C16.6504-45.1172 17.1387-45.6055 17.9199-45.6055ZM35.3516 4.49219L75.8301 4.49219C85.5469 4.49219 88.3301-1.2207 89.502-7.03125L95.5078-35.5469L88.7207-36.9141L83.1055-9.76562C81.9824-4.54102 80.4199-2.49023 74.5117-2.49023L36.6211-2.49023C30.7129-2.49023 29.1992-4.54102 28.0762-9.76562L22.4609-36.9141L15.6738-35.5469L21.6309-7.03125C22.8516-1.2207 25.6348 4.49219 35.3516 4.49219ZM39.1113-6.39648C40.7227-6.68945 41.6016-7.8125 41.3574-9.17969L38.3301-28.418C38.0859-29.834 36.8652-30.6152 35.3027-30.4199C33.6914-30.127 32.8125-29.0039 33.0566-27.6367L36.1328-8.39844C36.3281-6.98242 37.5488-6.15234 39.1113-6.39648ZM50.1465-6.68945C51.709-6.78711 52.7344-7.86133 52.6367-9.27734L51.5625-28.1738C51.4648-29.6387 50.3906-30.6641 48.7793-30.5176C47.2168-30.4199 46.1914-29.3457 46.2891-27.8809L47.3633-9.0332C47.4609-7.56836 48.584-6.5918 50.1465-6.68945ZM61.084-6.68945C62.5977-6.5918 63.7695-7.56836 63.8672-9.0332L64.9414-27.8809C64.9902-29.3457 63.9648-30.4199 62.4023-30.5176C60.8398-30.6641 59.7168-29.6387 59.6191-28.1738L58.5449-9.27734C58.4473-7.86133 59.5215-6.78711 61.084-6.68945ZM72.0215-6.39648C73.584-6.15234 74.8047-6.98242 75.0488-8.39844L78.125-27.6367C78.3691-29.0039 77.4414-30.127 75.8789-30.4199C74.3164-30.6152 73.0957-29.834 72.8516-28.418L69.8242-9.17969C69.5801-7.8125 70.4102-6.68945 72.0215-6.39648ZM22.3145-50.6836L31.1523-50.6836L44.4824-73.877C45.7031-75.9766 44.6777-77.8809 43.0664-78.7109C41.5039-79.541 39.3555-79.4434 38.1836-77.4414ZM79.9805-50.6836L88.8672-50.6836L72.998-77.4414C71.875-79.3945 69.6777-79.541 68.1152-78.7109C66.5039-77.8809 65.4785-75.9766 66.6992-73.877Z"/>
  </g>
  <g id="Ultralight-S" transform="matrix(1 0 0 1 509.706 696)">
   <path class="SFSymbolsPreviewWireframe" d="M9.76562-39.8711C9.76562-37.4634 11.1172-36.0698 13.5249-36.0698L86.4825-36.0698C88.8448-36.0698 90.2452-37.4634 90.2452-39.8711L90.2452-43.4668C90.2452-45.8711 88.8448-47.2295 86.4825-47.2295L13.5249-47.2295C11.1172-47.2295 9.76562-45.8711 9.76562-43.4668ZM13.606-45.0606L86.4014-45.0606C87.4551-45.0606 88.0342-44.436 88.0342-43.3823L88.0342-39.9556C88.0342-38.9019 87.4551-38.2774 86.4014-38.2774L13.606-38.2774C12.5523-38.2774 11.9732-38.9019 11.9732-39.9556L11.9732-43.3823C11.9732-44.436 12.5523-45.0606 13.606-45.0606ZM28.4947 1.94924L71.5161 1.94924C76.2833 1.94924 78.8848-0.721195 79.7843-5.16945L86.1988-37.1816L83.771-36.5962L77.6563-5.54251C77.0328-2.17971 75.6065-0.265154 71.4693-0.265154L28.5381-0.265154C24.4009-0.265154 22.9781-2.17971 22.3091-5.54251L16.2398-36.5962L13.812-37.1816L20.1777-5.16945C21.0806-0.721195 23.7276 1.94924 28.4947 1.94924ZM34.4795-5.5337C35.001-5.59962 35.3804-6.08693 35.2725-6.68215L31.4732-30.1435C31.3653-30.6968 30.8711-31.0239 30.3077-30.9194C29.7408-30.8081 29.3614-30.3662 29.4693-29.771L33.3174-6.30959C33.4219-5.71095 33.8706-5.42579 34.4795-5.5337ZM45.1514-5.37257C45.7149-5.42482 46.15-5.90871 46.0977-6.50735L44.1607-30.1719C44.1085-30.7739 43.7154-31.1182 43.1031-31.0625C42.5396-31.0102 42.1045-30.5718 42.1568-29.9697L44.0484-6.30862C44.1006-5.70656 44.5425-5.32032 45.1514-5.37257ZM54.8628-5.37257C55.4683-5.32032 55.8682-5.70656 55.9205-6.30862L57.8575-29.9697C57.9063-30.5718 57.4712-31.0102 56.8623-31.0625C56.2989-31.1182 55.857-30.7739 55.8047-30.1719L53.9131-6.50735C53.8609-5.90871 54.2539-5.42482 54.8628-5.37257ZM65.5279-5.5337C66.0914-5.42579 66.5855-5.71095 66.6934-6.30959L70.4962-29.771C70.6041-30.3662 70.2667-30.8081 69.7032-30.9194C69.1397-31.0239 68.6455-30.6968 68.5376-30.1435L64.7383-6.68215C64.6304-6.08693 64.961-5.59962 65.5279-5.5337ZM21.3608-46.9146L23.7505-46.9146L37.4893-70.6983C37.8018-71.2994 37.6392-71.8414 37.1177-72.1719C36.5996-72.4571 35.9951-72.3594 35.6861-71.7652ZM76.2115-46.9146L78.65-46.9146L64.3248-71.7652C63.9737-72.356 63.4112-72.4571 62.8477-72.1719C62.3716-71.8414 62.1636-71.2994 62.5215-70.6983Z"/>
  </g>
 </g>
</svg>
