<?xml version="1.0" encoding="UTF-8"?>
<!--Generator: Apple Native CoreSVG 232.5-->
<!DOCTYPE svg
PUBLIC "-//W3C//DTD SVG 1.1//EN"
       "http://www.w3.org/Graphics/SVG/1.1/DTD/svg11.dtd">
<svg version="1.1" xmlns="http://www.w3.org/2000/svg" xmlns:xlink="http://www.w3.org/1999/xlink" width="3300" height="2200">
 <!--glyph: "uni101124.medium", point size: 100.0, font version: "19.2d2e1", template writer version: "128"-->
 <style>.SFSymbolsPreviewWireframe {fill:none;opacity:1.0;stroke:black;stroke-width:0.5}
</style>
 <g id="Notes">
  <rect height="2200" id="artboard" style="fill:white;opacity:1" width="3300" x="0" y="0"/>
  <line style="fill:none;stroke:black;opacity:1;stroke-width:0.5;" x1="263" x2="3036" y1="292" y2="292"/>
  <text style="stroke:none;fill:black;font-family:sans-serif;font-size:13;font-weight:bold;" transform="matrix(1 0 0 1 263 322)">Weight/Scale Variations</text>
  <text style="stroke:none;fill:black;font-family:sans-serif;font-size:13;text-anchor:middle;" transform="matrix(1 0 0 1 559.711 322)">Ultralight</text>
  <text style="stroke:none;fill:black;font-family:sans-serif;font-size:13;text-anchor:middle;" transform="matrix(1 0 0 1 856.422 322)">Thin</text>
  <text style="stroke:none;fill:black;font-family:sans-serif;font-size:13;text-anchor:middle;" transform="matrix(1 0 0 1 1153.13 322)">Light</text>
  <text style="stroke:none;fill:black;font-family:sans-serif;font-size:13;text-anchor:middle;" transform="matrix(1 0 0 1 1449.84 322)">Regular</text>
  <text style="stroke:none;fill:black;font-family:sans-serif;font-size:13;text-anchor:middle;" transform="matrix(1 0 0 1 1746.56 322)">Medium</text>
  <text style="stroke:none;fill:black;font-family:sans-serif;font-size:13;text-anchor:middle;" transform="matrix(1 0 0 1 2043.27 322)">Semibold</text>
  <text style="stroke:none;fill:black;font-family:sans-serif;font-size:13;text-anchor:middle;" transform="matrix(1 0 0 1 2339.98 322)">Bold</text>
  <text style="stroke:none;fill:black;font-family:sans-serif;font-size:13;text-anchor:middle;" transform="matrix(1 0 0 1 2636.69 322)">Heavy</text>
  <text style="stroke:none;fill:black;font-family:sans-serif;font-size:13;text-anchor:middle;" transform="matrix(1 0 0 1 2933.4 322)">Black</text>
  <line style="fill:none;stroke:black;opacity:1;stroke-width:0.5;" x1="263" x2="3036" y1="1903" y2="1903"/>
  <g transform="matrix(0.2 0 0 0.2 263 1933)">
   <path d="m46.2402 4.15039c21.5332 0 39.4531-17.8711 39.4531-39.4043s-17.9688-39.4043-39.502-39.4043c-21.4844 0-39.3555 17.8711-39.3555 39.4043s17.9199 39.4043 39.4043 39.4043Zm0-7.42188c-17.7246 0-31.8848-14.209-31.8848-31.9824s14.1113-31.9824 31.8359-31.9824c17.7734 0 32.0312 14.209 32.0312 31.9824s-14.209 31.9824-31.9824 31.9824Zm-17.9688-31.9824c0 2.14844 1.51367 3.61328 3.75977 3.61328h10.498v10.5957c0 2.19727 1.46484 3.71094 3.61328 3.71094 2.24609 0 3.71094-1.51367 3.71094-3.71094v-10.5957h10.5957c2.19727 0 3.71094-1.46484 3.71094-3.61328 0-2.19727-1.51367-3.71094-3.71094-3.71094h-10.5957v-10.5469c0-2.24609-1.46484-3.75977-3.71094-3.75977-2.14844 0-3.61328 1.51367-3.61328 3.75977v10.5469h-10.498c-2.24609 0-3.75977 1.51367-3.75977 3.71094Z"/>
  </g>
  <g transform="matrix(0.2 0 0 0.2 281.506 1933)">
   <path d="m58.5449 14.5508c27.2461 0 49.8047-22.6074 49.8047-49.8047 0-27.2461-22.6074-49.8047-49.8535-49.8047-27.1973 0-49.7559 22.5586-49.7559 49.8047 0 27.1973 22.6074 49.8047 49.8047 49.8047Zm0-8.30078c-23.0469 0-41.4551-18.457-41.4551-41.5039s18.3594-41.5039 41.4062-41.5039 41.5527 18.457 41.5527 41.5039-18.457 41.5039-41.5039 41.5039Zm-22.6562-41.5039c0 2.39258 1.66016 4.00391 4.15039 4.00391h14.3555v14.4043c0 2.44141 1.66016 4.15039 4.05273 4.15039 2.44141 0 4.15039-1.66016 4.15039-4.15039v-14.4043h14.4043c2.44141 0 4.15039-1.61133 4.15039-4.00391 0-2.44141-1.70898-4.15039-4.15039-4.15039h-14.4043v-14.3555c0-2.49023-1.70898-4.19922-4.15039-4.19922-2.39258 0-4.05273 1.70898-4.05273 4.19922v14.3555h-14.3555c-2.49023 0-4.15039 1.70898-4.15039 4.15039Z"/>
  </g>
  <g transform="matrix(0.2 0 0 0.2 304.924 1933)">
   <path d="m74.8535 28.3203c34.8145 0 63.623-28.8086 63.623-63.5742 0-34.8145-28.8574-63.623-63.6719-63.623-34.7656 0-63.5254 28.8086-63.5254 63.623 0 34.7656 28.8086 63.5742 63.5742 63.5742Zm0-9.08203c-30.1758 0-54.4434-24.3164-54.4434-54.4922 0-30.2246 24.2188-54.4922 54.3945-54.4922 30.2246 0 54.541 24.2676 54.541 54.4922 0 30.1758-24.2676 54.4922-54.4922 54.4922Zm-28.8574-54.4922c0 2.58789 1.85547 4.39453 4.58984 4.39453h19.7266v19.7754c0 2.68555 1.85547 4.58984 4.44336 4.58984 2.68555 0 4.54102-1.85547 4.54102-4.58984v-19.7754h19.7754c2.68555 0 4.58984-1.80664 4.58984-4.39453 0-2.73438-1.85547-4.58984-4.58984-4.58984h-19.7754v-19.7266c0-2.73438-1.85547-4.63867-4.54102-4.63867-2.58789 0-4.44336 1.9043-4.44336 4.63867v19.7266h-19.7266c-2.73438 0-4.58984 1.85547-4.58984 4.58984Z"/>
  </g>
  <text style="stroke:none;fill:black;font-family:sans-serif;font-size:13;font-weight:bold;" transform="matrix(1 0 0 1 263 1953)">Design Variations</text>
  <text style="stroke:none;fill:black;font-family:sans-serif;font-size:13;" transform="matrix(1 0 0 1 263 1971)">Symbols are supported in up to nine weights and three scales.</text>
  <text style="stroke:none;fill:black;font-family:sans-serif;font-size:13;" transform="matrix(1 0 0 1 263 1989)">For optimal layout with text and other symbols, vertically align</text>
  <text style="stroke:none;fill:black;font-family:sans-serif;font-size:13;" transform="matrix(1 0 0 1 263 2007)">symbols with the adjacent text.</text>
  <line style="fill:none;stroke:#00AEEF;stroke-width:0.5;opacity:1.0;" x1="776" x2="776" y1="1919" y2="1933"/>
  <g transform="matrix(0.2 0 0 0.2 776 1933)">
   <path d="m16.5527 0.78125c2.58789 0 3.85742-0.976562 4.78516-3.71094l6.29883-17.2363h28.8086l6.29883 17.2363c0.927734 2.73438 2.19727 3.71094 4.73633 3.71094 2.58789 0 4.24805-1.5625 4.24805-4.00391 0-0.830078-0.146484-1.61133-0.537109-2.63672l-22.9004-60.9863c-1.12305-2.97852-3.125-4.49219-6.25-4.49219-3.02734 0-5.07812 1.46484-6.15234 4.44336l-22.9004 61.084c-0.390625 1.02539-0.537109 1.80664-0.537109 2.63672 0 2.44141 1.5625 3.95508 4.10156 3.95508Zm13.4766-28.3691 11.8652-32.8613h0.244141l11.8652 32.8613Z"/>
  </g>
  <line style="fill:none;stroke:#00AEEF;stroke-width:0.5;opacity:1.0;" x1="792.836" x2="792.836" y1="1919" y2="1933"/>
  <text style="stroke:none;fill:black;font-family:sans-serif;font-size:13;font-weight:bold;" transform="matrix(1 0 0 1 776 1953)">Margins</text>
  <text style="stroke:none;fill:black;font-family:sans-serif;font-size:13;" transform="matrix(1 0 0 1 776 1971)">Leading and trailing margins on the left and right side of each symbol</text>
  <text style="stroke:none;fill:black;font-family:sans-serif;font-size:13;" transform="matrix(1 0 0 1 776 1989)">can be adjusted by modifying the x-location of the margin guidelines.</text>
  <text style="stroke:none;fill:black;font-family:sans-serif;font-size:13;" transform="matrix(1 0 0 1 776 2007)">Modifications are automatically applied proportionally to all</text>
  <text style="stroke:none;fill:black;font-family:sans-serif;font-size:13;" transform="matrix(1 0 0 1 776 2025)">scales and weights.</text>
  <g transform="matrix(0.2 0 0 0.2 1289 1933)">
   <path d="m14.209 9.32617 8.49609 8.54492c4.29688 4.3457 9.22852 4.05273 13.8672-1.07422l53.4668-58.9355-4.83398-4.88281-53.0762 58.3984c-1.75781 2.00195-3.41797 2.49023-5.76172 0.146484l-5.85938-5.81055c-2.34375-2.29492-1.80664-4.00391 0.195312-5.81055l57.373-54.0039-4.88281-4.83398-57.959 54.4434c-4.93164 4.58984-5.32227 9.47266-1.02539 13.8184Zm32.0801-90.9668c-2.09961 2.05078-2.24609 4.93164-1.07422 6.88477 1.17188 1.80664 3.4668 2.97852 6.68945 2.14844 7.32422-1.70898 14.9414-2.00195 22.0703 2.68555l-2.92969 7.27539c-1.70898 4.15039-0.830078 7.08008 1.85547 9.81445l11.4746 11.5723c2.44141 2.44141 4.49219 2.53906 7.32422 2.05078l5.32227-0.976562 3.32031 3.36914-0.195312 2.7832c-0.195312 2.49023 0.439453 4.39453 2.88086 6.78711l3.80859 3.71094c2.39258 2.39258 5.46875 2.53906 7.8125 0.195312l14.5508-14.5996c2.34375-2.34375 2.24609-5.32227-0.146484-7.71484l-3.85742-3.80859c-2.39258-2.39258-4.24805-3.17383-6.64062-2.97852l-2.88086 0.244141-3.22266-3.17383 1.2207-5.61523c0.634766-2.83203-0.146484-5.0293-3.07617-7.95898l-10.9863-10.9375c-16.6992-16.6016-38.8672-16.2109-53.3203-1.75781Zm7.4707 1.85547c12.1582-8.88672 28.6133-7.37305 39.7461 3.75977l12.1582 12.0605c1.17188 1.17188 1.36719 2.09961 1.02539 3.80859l-1.61133 7.42188 7.51953 7.42188 4.93164-0.292969c1.26953-0.0488281 1.66016 0.0488281 2.63672 1.02539l2.88086 2.88086-12.207 12.207-2.88086-2.88086c-0.976562-0.976562-1.12305-1.36719-1.07422-2.68555l0.341797-4.88281-7.4707-7.42188-7.61719 1.26953c-1.61133 0.341797-2.34375 0.195312-3.56445-0.976562l-10.0098-10.0098c-1.26953-1.17188-1.41602-2.00195-0.634766-3.85742l4.39453-10.4492c-7.8125-7.27539-17.9688-10.4004-28.125-7.42188-0.78125 0.195312-1.07422-0.439453-0.439453-0.976562Z"/>
  </g>
  <text style="stroke:none;fill:black;font-family:sans-serif;font-size:13;font-weight:bold;" transform="matrix(1 0 0 1 1289 1953)">Exporting</text>
  <text style="stroke:none;fill:black;font-family:sans-serif;font-size:13;" transform="matrix(1 0 0 1 1289 1971)">Symbols should be outlined when exporting to ensure the</text>
  <text style="stroke:none;fill:black;font-family:sans-serif;font-size:13;" transform="matrix(1 0 0 1 1289 1989)">design is preserved when submitting to Xcode.</text>
  <text id="template-version" style="stroke:none;fill:black;font-family:sans-serif;font-size:13;text-anchor:end;" transform="matrix(1 0 0 1 3036 1933)">Template v.5.0</text>
  <text style="stroke:none;fill:black;font-family:sans-serif;font-size:13;text-anchor:end;" transform="matrix(1 0 0 1 3036 1951)">Requires Xcode 15 or greater</text>
  <text id="descriptive-name" style="stroke:none;fill:black;font-family:sans-serif;font-size:13;text-anchor:end;" transform="matrix(1 0 0 1 3036 1969)">Generated from bell.and.waves.left.and.right</text>
  <text style="stroke:none;fill:black;font-family:sans-serif;font-size:13;text-anchor:end;" transform="matrix(1 0 0 1 3036 1987)">Typeset at 100.0 points</text>
  <text style="stroke:none;fill:black;font-family:sans-serif;font-size:13;" transform="matrix(1 0 0 1 263 726)">Small</text>
  <text style="stroke:none;fill:black;font-family:sans-serif;font-size:13;" transform="matrix(1 0 0 1 263 1156)">Medium</text>
  <text style="stroke:none;fill:black;font-family:sans-serif;font-size:13;" transform="matrix(1 0 0 1 263 1586)">Large</text>
 </g>
 <g id="Guides">
  <g id="H-reference" style="fill:#27AAE1;stroke:none;" transform="matrix(1 0 0 1 339 696)">
   <path d="M0.993654 0L3.63775 0L29.3281-67.1323L30.0303-67.1323L30.0303-70.459L28.1226-70.459ZM11.6885-24.4799L46.9815-24.4799L46.2315-26.7285L12.4385-26.7285ZM55.1196 0L57.7637 0L30.6382-70.459L29.4326-70.459L29.4326-67.1323Z"/>
  </g>
  <line id="Baseline-S" style="fill:none;stroke:#27AAE1;opacity:1;stroke-width:0.5;" x1="263" x2="3036" y1="696" y2="696"/>
  <line id="Capline-S" style="fill:none;stroke:#27AAE1;opacity:1;stroke-width:0.5;" x1="263" x2="3036" y1="625.541" y2="625.541"/>
  <g id="H-reference" style="fill:#27AAE1;stroke:none;" transform="matrix(1 0 0 1 339 1126)">
   <path d="M0.993654 0L3.63775 0L29.3281-67.1323L30.0303-67.1323L30.0303-70.459L28.1226-70.459ZM11.6885-24.4799L46.9815-24.4799L46.2315-26.7285L12.4385-26.7285ZM55.1196 0L57.7637 0L30.6382-70.459L29.4326-70.459L29.4326-67.1323Z"/>
  </g>
  <line id="Baseline-M" style="fill:none;stroke:#27AAE1;opacity:1;stroke-width:0.5;" x1="263" x2="3036" y1="1126" y2="1126"/>
  <line id="Capline-M" style="fill:none;stroke:#27AAE1;opacity:1;stroke-width:0.5;" x1="263" x2="3036" y1="1055.54" y2="1055.54"/>
  <g id="H-reference" style="fill:#27AAE1;stroke:none;" transform="matrix(1 0 0 1 339 1556)">
   <path d="M0.993654 0L3.63775 0L29.3281-67.1323L30.0303-67.1323L30.0303-70.459L28.1226-70.459ZM11.6885-24.4799L46.9815-24.4799L46.2315-26.7285L12.4385-26.7285ZM55.1196 0L57.7637 0L30.6382-70.459L29.4326-70.459L29.4326-67.1323Z"/>
  </g>
  <line id="Baseline-L" style="fill:none;stroke:#27AAE1;opacity:1;stroke-width:0.5;" x1="263" x2="3036" y1="1556" y2="1556"/>
  <line id="Capline-L" style="fill:none;stroke:#27AAE1;opacity:1;stroke-width:0.5;" x1="263" x2="3036" y1="1485.54" y2="1485.54"/>
  <line id="left-margin-Ultralight-S" style="fill:none;stroke:#00AEEF;stroke-width:0.5;opacity:1.0;" x1="489.243" x2="489.243" y1="600.785" y2="720.121"/>
  <line id="right-margin-Ultralight-S" style="fill:none;stroke:#00AEEF;stroke-width:0.5;opacity:1.0;" x1="630.179" x2="630.179" y1="600.785" y2="720.121"/>
  <line id="left-margin-Regular-S" style="fill:none;stroke:#00AEEF;stroke-width:0.5;opacity:1.0;" x1="1373.75" x2="1373.75" y1="600.785" y2="720.121"/>
  <line id="right-margin-Regular-S" style="fill:none;stroke:#00AEEF;stroke-width:0.5;opacity:1.0;" x1="1525.94" x2="1525.94" y1="600.785" y2="720.121"/>
  <line id="left-margin-Black-S" style="fill:none;stroke:#00AEEF;stroke-width:0.5;opacity:1.0;" x1="2847.22" x2="2847.22" y1="600.785" y2="720.121"/>
  <line id="right-margin-Black-S" style="fill:none;stroke:#00AEEF;stroke-width:0.5;opacity:1.0;" x1="3019.58" x2="3019.58" y1="600.785" y2="720.121"/>
 </g>
 <g id="Symbols">
  <g id="Black-S" transform="matrix(1 0 0 1 2847.22 696)">
   <path class="SFSymbolsPreviewWireframe" d="M23.877-9.27734C25.5371-11.377 25-13.916 23.1934-15.918C18.9453-20.6055 16.5527-27.6367 16.5527-35.2539C16.5527-42.8223 18.8965-49.9023 23.1934-54.541C25.0488-56.543 25.5859-59.082 23.877-61.1816C21.9727-63.4766 18.6523-64.0137 15.8203-61.0352C10.2539-55.2246 6.83594-45.2637 6.83594-35.2539C6.83594-25.1465 9.66797-15.5762 15.8203-9.42383C18.75-6.49414 22.0215-6.93359 23.877-9.27734ZM37.2559-20.5078C38.7207-22.5586 38.3301-25 36.8652-27.0508C35.6445-28.7598 34.4727-32.4707 34.4727-35.2539C34.4727-38.0371 35.6445-41.748 36.8652-43.5059C38.2812-45.5566 38.7207-47.9492 37.2559-50C35.5469-52.3438 31.9336-52.5391 29.3457-49.9023C26.2695-46.7285 24.7559-41.1621 24.7559-35.2539C24.7559-29.3457 26.2695-23.7793 29.3457-20.6543C31.9336-18.0176 35.5469-18.1641 37.2559-20.5078ZM148.486-9.27734C150.342-6.93359 153.613-6.49414 156.543-9.42383C162.695-15.5762 165.527-25.1465 165.527-35.2539C165.527-45.2637 162.109-55.2246 156.543-61.0352C153.711-64.0137 150.391-63.4766 148.486-61.1816C146.777-59.082 147.314-56.543 149.17-54.541C153.467-49.9023 155.811-42.8223 155.811-35.2539C155.811-27.6367 153.418-20.6055 149.17-15.918C147.363-13.916 146.826-11.377 148.486-9.27734ZM135.107-20.5078C136.816-18.1641 140.43-18.0176 143.018-20.6543C146.094-23.7793 147.607-29.3457 147.607-35.2539C147.607-41.1621 146.094-46.7285 143.018-49.9023C140.43-52.5391 136.816-52.3438 135.107-50C133.643-47.9492 134.082-45.5566 135.498-43.5059C136.719-41.748 137.891-38.0371 137.891-35.2539C137.891-32.4707 136.719-28.7598 135.498-27.0508C134.033-25 133.643-22.5586 135.107-20.5078ZM43.9453-16.3086C43.9453-10.8398 47.7051-7.17773 53.3691-7.17773L67.2363-7.17773C67.5293 0 74.5117 7.71484 86.1816 7.71484C97.8516 7.71484 104.834 0 105.127-7.17773L118.994-7.17773C124.658-7.17773 128.418-10.8398 128.418-16.3086C128.418-21.582 125.439-25.293 121.289-28.3203C117.676-30.957 117.236-35.5469 115.771-45.3125C114.062-56.7383 108.35-66.1133 99.2676-69.3359C97.0215-74.9023 92.1387-78.2227 86.1816-78.2227C80.2246-78.2227 75.3418-74.9023 73.0957-69.3359C64.0137-66.1133 58.3008-56.7383 56.5918-45.3125C55.127-35.5469 54.6875-30.957 51.0742-28.3203C46.9238-25.293 43.9453-21.582 43.9453-16.3086ZM61.5723-20.2637L61.5723-20.6543C64.0137-21.6309 65.918-22.7051 67.2363-24.5117C69.3359-27.3438 70.2148-35.8887 70.9473-42.1875C72.0215-51.5625 75.7324-56.0059 79.9805-57.1289C80.8105-57.3242 81.3477-57.666 81.5918-59.082C82.0801-62.4512 83.6914-64.209 86.1816-64.209C88.6719-64.209 90.2832-62.4512 90.7715-59.082C91.0156-57.666 91.5527-57.3242 92.3828-57.1289C96.6309-56.0059 100.342-51.5625 101.416-42.1875C102.148-35.8887 103.125-27.3438 105.127-24.5117C106.396-22.7051 107.861-21.6309 110.303-20.6543L110.303-20.2637ZM80.6641-7.17773L91.6992-7.17773C91.4551-4.24805 89.1602-2.09961 86.1816-2.09961C83.2031-2.09961 80.9082-4.24805 80.6641-7.17773Z"/>
  </g>
  <g id="Regular-S" transform="matrix(1 0 0 1 1373.75 696)">
   <path class="SFSymbolsPreviewWireframe" d="M22.3145-8.64258C23.6816-10.2539 23.291-12.2559 21.6797-14.0625C16.6992-19.7754 13.9648-27.1484 13.9648-35.2539C13.9648-43.3594 16.6992-50.7324 21.6797-56.4453C23.291-58.252 23.6816-60.2539 22.3145-61.8652C20.8984-63.5254 18.457-63.5254 16.748-61.6211C10.3516-54.5898 6.83594-45.2637 6.83594-35.2539C6.83594-25.2441 10.3516-15.918 16.748-8.88672C18.457-6.98242 20.8984-6.98242 22.3145-8.64258ZM33.1543-19.6289C34.5215-21.2402 33.9355-23.1445 32.5684-25.0977C30.5176-27.9297 29.4434-31.4453 29.4434-35.2539C29.4434-39.0625 30.5176-42.5781 32.5684-45.4102C33.9355-47.3633 34.5215-49.2676 33.1543-50.8789C31.6895-52.4902 29.0527-52.5391 27.4902-50.5371C24.2188-46.2891 22.3145-40.9668 22.3145-35.2539C22.3145-29.541 24.2188-24.2188 27.4902-19.9707C29.0527-17.9688 31.6895-18.0176 33.1543-19.6289ZM129.883-8.64258C131.299-6.98242 133.74-6.98242 135.4-8.88672C141.797-15.918 145.361-25.2441 145.361-35.2539C145.361-45.2637 141.797-54.5898 135.4-61.6211C133.74-63.5254 131.299-63.5254 129.883-61.8652C128.467-60.2539 128.906-58.252 130.518-56.4453C135.498-50.7324 138.184-43.3594 138.184-35.2539C138.184-27.1484 135.498-19.7754 130.518-14.0625C128.906-12.2559 128.467-10.2539 129.883-8.64258ZM119.043-19.6289C120.508-18.0176 123.096-17.9688 124.658-19.9707C127.93-24.2188 129.883-29.541 129.883-35.2539C129.883-40.9668 127.93-46.2891 124.658-50.5371C123.096-52.5391 120.508-52.4902 119.043-50.8789C117.627-49.2676 118.213-47.3633 119.58-45.4102C121.68-42.5781 122.705-39.0625 122.705-35.2539C122.705-31.4453 121.68-27.9297 119.58-25.0977C118.213-23.1445 117.627-21.2402 119.043-19.6289ZM39.6484-14.8438C39.6484-11.7188 42.1387-9.61914 46.2402-9.61914L61.1816-9.61914C61.5723-2.14844 67.627 4.63867 76.0742 4.63867C84.5703 4.63867 90.625-2.09961 91.0156-9.61914L105.908-9.61914C110.059-9.61914 112.5-11.7188 112.5-14.8438C112.5-18.6523 108.545-22.168 105.127-25.5371C102.979-27.7344 102.051-32.2754 102.002-35.6934C101.904-52.002 98.0469-62.207 87.5488-66.2109C86.1328-71.0938 81.9336-75.1465 76.0742-75.1465C70.2637-75.1465 66.0156-71.0938 64.5996-66.2109C54.1504-62.207 50.2441-52.002 50.1953-35.6934C50.0977-32.2754 49.2188-27.7344 47.0215-25.5371C43.6523-22.168 39.6484-18.6523 39.6484-14.8438ZM48.1934-16.2109L48.1934-16.6992C49.0234-17.5781 51.123-19.5312 53.0273-21.6797C55.3223-24.3164 57.0312-28.0762 57.1289-35.2051C57.2266-53.4668 62.5-58.6426 69.043-60.4492C69.873-60.6445 70.3613-61.1328 70.3613-62.0117C70.4102-66.0645 72.6562-68.75 76.0742-68.75C79.541-68.75 81.7871-66.0645 81.8359-62.0117C81.8359-61.1328 82.2754-60.6445 83.1543-60.4492C89.6484-58.6426 94.9707-53.4668 95.0684-35.2051C95.1172-28.0762 96.8262-24.3164 99.1211-21.6797C101.025-19.5312 103.125-17.5781 103.955-16.6992L103.955-16.2109ZM67.9688-9.61914L84.1797-9.61914C83.8867-4.63867 80.6641-1.46484 76.0742-1.46484C71.5332-1.46484 68.2617-4.63867 67.9688-9.61914Z"/>
  </g>
  <g id="Ultralight-S" transform="matrix(1 0 0 1 489.243 696)">
   <path class="SFSymbolsPreviewWireframe" d="M18.5454-11.0947C18.959-11.5708 18.7954-12.2559 18.3194-12.7002C12.5215-18.5493 9.06059-26.4219 9.06059-35.2539C9.06059-44.0859 12.5215-51.9585 18.3194-57.8076C18.7954-58.252 18.959-58.937 18.5454-59.4131C18.1284-59.8926 17.3218-59.8472 16.8389-59.3506C10.624-53.0913 6.83594-44.6733 6.83594-35.2539C6.83594-25.8345 10.624-17.4165 16.8389-11.1572C17.3218-10.6606 18.1284-10.6152 18.5454-11.0947ZM28.7041-21.5361C29.0723-21.9668 28.9859-22.6904 28.4815-23.145C25.2046-26.0679 23.6763-30.5371 23.6763-35.2539C23.6763-39.9707 25.2046-44.4399 28.4815-47.3628C28.9859-47.8174 29.0723-48.541 28.7041-48.9717C28.2383-49.4932 27.4634-49.4512 26.9907-48.9024C23.4922-45.3809 21.4971-40.5581 21.4971-35.2539C21.4971-29.9497 23.4922-25.1269 26.9907-21.6055C27.4634-21.0566 28.2383-21.0146 28.7041-21.5361ZM122.345-11.0947C122.807-10.6152 123.568-10.6606 124.093-11.1572C130.263-17.4165 134.1-25.8345 134.1-35.2539C134.1-44.6733 130.263-53.0913 124.093-59.3506C123.568-59.8472 122.807-59.8926 122.345-59.4131C121.973-58.937 122.14-58.252 122.571-57.8076C128.414-51.9585 131.872-44.0859 131.872-35.2539C131.872-26.4219 128.414-18.5493 122.571-12.7002C122.14-12.2559 121.973-11.5708 122.345-11.0947ZM112.231-21.5361C112.652-21.0146 113.423-21.0566 113.941-21.6055C117.44-25.1269 119.439-29.9497 119.439-35.2539C119.439-40.5581 117.44-45.3809 113.941-48.9024C113.423-49.4512 112.652-49.4932 112.231-48.9717C111.814-48.541 111.946-47.8174 112.451-47.3628C115.686-44.4399 117.21-39.9707 117.21-35.2539C117.21-30.5371 115.686-26.0679 112.451-23.145C111.946-22.6904 111.814-21.9668 112.231-21.5361ZM35.834-11.3018C35.834-10.0386 36.6895-9.21045 37.9757-9.21045L59.5015-9.21045C59.6196-2.4209 64.085 2.459 70.4434 2.459C76.8052 2.459 81.316-2.41748 81.3887-9.21045L102.957-9.21045C104.201-9.21045 105.053-10.0386 105.053-11.3018C105.053-15.2012 101.643-18.399 98.6334-21.7681C94.4869-26.4175 94.8306-35.8628 93.5557-44.7299C92.2774-54.3179 88.4654-61.9346 79.5567-64.1675C78.8672-69.5044 75.2129-72.9668 70.4434-72.9668C65.7227-72.9668 62.065-69.5044 61.3301-64.1675C52.4248-61.9346 48.6094-54.3179 47.3799-44.7299C46.1016-35.8628 46.4488-26.4175 42.2989-21.7681C39.293-18.399 35.834-15.2012 35.834-11.3018ZM38.3394-11.3975L38.3394-11.795C38.3975-14.0362 41.4508-17.5786 43.9908-20.1812C48.7378-25.1338 48.1763-35.2963 49.5455-44.287C51.0054-54.0571 54.3716-59.9141 61.1871-61.7661C62.6075-62.1431 63.4136-62.6313 63.5953-63.8735C64.1436-67.6992 66.4805-70.7934 70.4434-70.7934C74.4551-70.7934 76.792-67.6992 77.3404-63.8735C77.522-62.6313 78.3247-62.1431 79.7032-61.7661C86.5606-59.9141 89.9302-54.0571 91.3448-44.287C92.7559-35.2963 92.1944-25.1338 96.9414-20.1812C99.436-17.5786 102.535-14.0362 102.547-11.795L102.547-11.3975ZM61.7022-9.21045L79.23-9.21045C78.9371-3.3672 75.3057 0.396958 70.4434 0.396958C65.5845 0.396958 61.9952-3.3672 61.7022-9.21045Z"/>
  </g>
 </g>
</svg>
