<?xml version="1.0" encoding="UTF-8"?>
<!--Generator: Apple Native CoreSVG 232.5-->
<!DOCTYPE svg
PUBLIC "-//W3C//DTD SVG 1.1//EN"
       "http://www.w3.org/Graphics/SVG/1.1/DTD/svg11.dtd">
<svg version="1.1" xmlns="http://www.w3.org/2000/svg" xmlns:xlink="http://www.w3.org/1999/xlink" width="3300" height="2200">
 <!--glyph: "uni101475.medium", point size: 100.0, font version: "19.2d2e1", template writer version: "128"-->
 <style>.SFSymbolsPreviewWireframe {fill:none;opacity:1.0;stroke:black;stroke-width:0.5}
</style>
 <g id="Notes">
  <rect height="2200" id="artboard" style="fill:white;opacity:1" width="3300" x="0" y="0"/>
  <line style="fill:none;stroke:black;opacity:1;stroke-width:0.5;" x1="263" x2="3036" y1="292" y2="292"/>
  <text style="stroke:none;fill:black;font-family:sans-serif;font-size:13;font-weight:bold;" transform="matrix(1 0 0 1 263 322)">Weight/Scale Variations</text>
  <text style="stroke:none;fill:black;font-family:sans-serif;font-size:13;text-anchor:middle;" transform="matrix(1 0 0 1 559.711 322)">Ultralight</text>
  <text style="stroke:none;fill:black;font-family:sans-serif;font-size:13;text-anchor:middle;" transform="matrix(1 0 0 1 856.422 322)">Thin</text>
  <text style="stroke:none;fill:black;font-family:sans-serif;font-size:13;text-anchor:middle;" transform="matrix(1 0 0 1 1153.13 322)">Light</text>
  <text style="stroke:none;fill:black;font-family:sans-serif;font-size:13;text-anchor:middle;" transform="matrix(1 0 0 1 1449.84 322)">Regular</text>
  <text style="stroke:none;fill:black;font-family:sans-serif;font-size:13;text-anchor:middle;" transform="matrix(1 0 0 1 1746.56 322)">Medium</text>
  <text style="stroke:none;fill:black;font-family:sans-serif;font-size:13;text-anchor:middle;" transform="matrix(1 0 0 1 2043.27 322)">Semibold</text>
  <text style="stroke:none;fill:black;font-family:sans-serif;font-size:13;text-anchor:middle;" transform="matrix(1 0 0 1 2339.98 322)">Bold</text>
  <text style="stroke:none;fill:black;font-family:sans-serif;font-size:13;text-anchor:middle;" transform="matrix(1 0 0 1 2636.69 322)">Heavy</text>
  <text style="stroke:none;fill:black;font-family:sans-serif;font-size:13;text-anchor:middle;" transform="matrix(1 0 0 1 2933.4 322)">Black</text>
  <line style="fill:none;stroke:black;opacity:1;stroke-width:0.5;" x1="263" x2="3036" y1="1903" y2="1903"/>
  <g transform="matrix(0.2 0 0 0.2 263 1933)">
   <path d="m46.2402 4.15039c21.5332 0 39.4531-17.8711 39.4531-39.4043s-17.9688-39.4043-39.502-39.4043c-21.4844 0-39.3555 17.8711-39.3555 39.4043s17.9199 39.4043 39.4043 39.4043Zm0-7.42188c-17.7246 0-31.8848-14.209-31.8848-31.9824s14.1113-31.9824 31.8359-31.9824c17.7734 0 32.0312 14.209 32.0312 31.9824s-14.209 31.9824-31.9824 31.9824Zm-17.9688-31.9824c0 2.14844 1.51367 3.61328 3.75977 3.61328h10.498v10.5957c0 2.19727 1.46484 3.71094 3.61328 3.71094 2.24609 0 3.71094-1.51367 3.71094-3.71094v-10.5957h10.5957c2.19727 0 3.71094-1.46484 3.71094-3.61328 0-2.19727-1.51367-3.71094-3.71094-3.71094h-10.5957v-10.5469c0-2.24609-1.46484-3.75977-3.71094-3.75977-2.14844 0-3.61328 1.51367-3.61328 3.75977v10.5469h-10.498c-2.24609 0-3.75977 1.51367-3.75977 3.71094Z"/>
  </g>
  <g transform="matrix(0.2 0 0 0.2 281.506 1933)">
   <path d="m58.5449 14.5508c27.2461 0 49.8047-22.6074 49.8047-49.8047 0-27.2461-22.6074-49.8047-49.8535-49.8047-27.1973 0-49.7559 22.5586-49.7559 49.8047 0 27.1973 22.6074 49.8047 49.8047 49.8047Zm0-8.30078c-23.0469 0-41.4551-18.457-41.4551-41.5039s18.3594-41.5039 41.4062-41.5039 41.5527 18.457 41.5527 41.5039-18.457 41.5039-41.5039 41.5039Zm-22.6562-41.5039c0 2.39258 1.66016 4.00391 4.15039 4.00391h14.3555v14.4043c0 2.44141 1.66016 4.15039 4.05273 4.15039 2.44141 0 4.15039-1.66016 4.15039-4.15039v-14.4043h14.4043c2.44141 0 4.15039-1.61133 4.15039-4.00391 0-2.44141-1.70898-4.15039-4.15039-4.15039h-14.4043v-14.3555c0-2.49023-1.70898-4.19922-4.15039-4.19922-2.39258 0-4.05273 1.70898-4.05273 4.19922v14.3555h-14.3555c-2.49023 0-4.15039 1.70898-4.15039 4.15039Z"/>
  </g>
  <g transform="matrix(0.2 0 0 0.2 304.924 1933)">
   <path d="m74.8535 28.3203c34.8145 0 63.623-28.8086 63.623-63.5742 0-34.8145-28.8574-63.623-63.6719-63.623-34.7656 0-63.5254 28.8086-63.5254 63.623 0 34.7656 28.8086 63.5742 63.5742 63.5742Zm0-9.08203c-30.1758 0-54.4434-24.3164-54.4434-54.4922 0-30.2246 24.2188-54.4922 54.3945-54.4922 30.2246 0 54.541 24.2676 54.541 54.4922 0 30.1758-24.2676 54.4922-54.4922 54.4922Zm-28.8574-54.4922c0 2.58789 1.85547 4.39453 4.58984 4.39453h19.7266v19.7754c0 2.68555 1.85547 4.58984 4.44336 4.58984 2.68555 0 4.54102-1.85547 4.54102-4.58984v-19.7754h19.7754c2.68555 0 4.58984-1.80664 4.58984-4.39453 0-2.73438-1.85547-4.58984-4.58984-4.58984h-19.7754v-19.7266c0-2.73438-1.85547-4.63867-4.54102-4.63867-2.58789 0-4.44336 1.9043-4.44336 4.63867v19.7266h-19.7266c-2.73438 0-4.58984 1.85547-4.58984 4.58984Z"/>
  </g>
  <text style="stroke:none;fill:black;font-family:sans-serif;font-size:13;font-weight:bold;" transform="matrix(1 0 0 1 263 1953)">Design Variations</text>
  <text style="stroke:none;fill:black;font-family:sans-serif;font-size:13;" transform="matrix(1 0 0 1 263 1971)">Symbols are supported in up to nine weights and three scales.</text>
  <text style="stroke:none;fill:black;font-family:sans-serif;font-size:13;" transform="matrix(1 0 0 1 263 1989)">For optimal layout with text and other symbols, vertically align</text>
  <text style="stroke:none;fill:black;font-family:sans-serif;font-size:13;" transform="matrix(1 0 0 1 263 2007)">symbols with the adjacent text.</text>
  <line style="fill:none;stroke:#00AEEF;stroke-width:0.5;opacity:1.0;" x1="776" x2="776" y1="1919" y2="1933"/>
  <g transform="matrix(0.2 0 0 0.2 776 1933)">
   <path d="m16.5527 0.78125c2.58789 0 3.85742-0.976562 4.78516-3.71094l6.29883-17.2363h28.8086l6.29883 17.2363c0.927734 2.73438 2.19727 3.71094 4.73633 3.71094 2.58789 0 4.24805-1.5625 4.24805-4.00391 0-0.830078-0.146484-1.61133-0.537109-2.63672l-22.9004-60.9863c-1.12305-2.97852-3.125-4.49219-6.25-4.49219-3.02734 0-5.07812 1.46484-6.15234 4.44336l-22.9004 61.084c-0.390625 1.02539-0.537109 1.80664-0.537109 2.63672 0 2.44141 1.5625 3.95508 4.10156 3.95508Zm13.4766-28.3691 11.8652-32.8613h0.244141l11.8652 32.8613Z"/>
  </g>
  <line style="fill:none;stroke:#00AEEF;stroke-width:0.5;opacity:1.0;" x1="792.836" x2="792.836" y1="1919" y2="1933"/>
  <text style="stroke:none;fill:black;font-family:sans-serif;font-size:13;font-weight:bold;" transform="matrix(1 0 0 1 776 1953)">Margins</text>
  <text style="stroke:none;fill:black;font-family:sans-serif;font-size:13;" transform="matrix(1 0 0 1 776 1971)">Leading and trailing margins on the left and right side of each symbol</text>
  <text style="stroke:none;fill:black;font-family:sans-serif;font-size:13;" transform="matrix(1 0 0 1 776 1989)">can be adjusted by modifying the x-location of the margin guidelines.</text>
  <text style="stroke:none;fill:black;font-family:sans-serif;font-size:13;" transform="matrix(1 0 0 1 776 2007)">Modifications are automatically applied proportionally to all</text>
  <text style="stroke:none;fill:black;font-family:sans-serif;font-size:13;" transform="matrix(1 0 0 1 776 2025)">scales and weights.</text>
  <g transform="matrix(0.2 0 0 0.2 1289 1933)">
   <path d="m14.209 9.32617 8.49609 8.54492c4.29688 4.3457 9.22852 4.05273 13.8672-1.07422l53.4668-58.9355-4.83398-4.88281-53.0762 58.3984c-1.75781 2.00195-3.41797 2.49023-5.76172 0.146484l-5.85938-5.81055c-2.34375-2.29492-1.80664-4.00391 0.195312-5.81055l57.373-54.0039-4.88281-4.83398-57.959 54.4434c-4.93164 4.58984-5.32227 9.47266-1.02539 13.8184Zm32.0801-90.9668c-2.09961 2.05078-2.24609 4.93164-1.07422 6.88477 1.17188 1.80664 3.4668 2.97852 6.68945 2.14844 7.32422-1.70898 14.9414-2.00195 22.0703 2.68555l-2.92969 7.27539c-1.70898 4.15039-0.830078 7.08008 1.85547 9.81445l11.4746 11.5723c2.44141 2.44141 4.49219 2.53906 7.32422 2.05078l5.32227-0.976562 3.32031 3.36914-0.195312 2.7832c-0.195312 2.49023 0.439453 4.39453 2.88086 6.78711l3.80859 3.71094c2.39258 2.39258 5.46875 2.53906 7.8125 0.195312l14.5508-14.5996c2.34375-2.34375 2.24609-5.32227-0.146484-7.71484l-3.85742-3.80859c-2.39258-2.39258-4.24805-3.17383-6.64062-2.97852l-2.88086 0.244141-3.22266-3.17383 1.2207-5.61523c0.634766-2.83203-0.146484-5.0293-3.07617-7.95898l-10.9863-10.9375c-16.6992-16.6016-38.8672-16.2109-53.3203-1.75781Zm7.4707 1.85547c12.1582-8.88672 28.6133-7.37305 39.7461 3.75977l12.1582 12.0605c1.17188 1.17188 1.36719 2.09961 1.02539 3.80859l-1.61133 7.42188 7.51953 7.42188 4.93164-0.292969c1.26953-0.0488281 1.66016 0.0488281 2.63672 1.02539l2.88086 2.88086-12.207 12.207-2.88086-2.88086c-0.976562-0.976562-1.12305-1.36719-1.07422-2.68555l0.341797-4.88281-7.4707-7.42188-7.61719 1.26953c-1.61133 0.341797-2.34375 0.195312-3.56445-0.976562l-10.0098-10.0098c-1.26953-1.17188-1.41602-2.00195-0.634766-3.85742l4.39453-10.4492c-7.8125-7.27539-17.9688-10.4004-28.125-7.42188-0.78125 0.195312-1.07422-0.439453-0.439453-0.976562Z"/>
  </g>
  <text style="stroke:none;fill:black;font-family:sans-serif;font-size:13;font-weight:bold;" transform="matrix(1 0 0 1 1289 1953)">Exporting</text>
  <text style="stroke:none;fill:black;font-family:sans-serif;font-size:13;" transform="matrix(1 0 0 1 1289 1971)">Symbols should be outlined when exporting to ensure the</text>
  <text style="stroke:none;fill:black;font-family:sans-serif;font-size:13;" transform="matrix(1 0 0 1 1289 1989)">design is preserved when submitting to Xcode.</text>
  <text id="template-version" style="stroke:none;fill:black;font-family:sans-serif;font-size:13;text-anchor:end;" transform="matrix(1 0 0 1 3036 1933)">Template v.5.0</text>
  <text style="stroke:none;fill:black;font-family:sans-serif;font-size:13;text-anchor:end;" transform="matrix(1 0 0 1 3036 1951)">Requires Xcode 15 or greater</text>
  <text id="descriptive-name" style="stroke:none;fill:black;font-family:sans-serif;font-size:13;text-anchor:end;" transform="matrix(1 0 0 1 3036 1969)">Generated from blinds.horizontal.open</text>
  <text style="stroke:none;fill:black;font-family:sans-serif;font-size:13;text-anchor:end;" transform="matrix(1 0 0 1 3036 1987)">Typeset at 100.0 points</text>
  <text style="stroke:none;fill:black;font-family:sans-serif;font-size:13;" transform="matrix(1 0 0 1 263 726)">Small</text>
  <text style="stroke:none;fill:black;font-family:sans-serif;font-size:13;" transform="matrix(1 0 0 1 263 1156)">Medium</text>
  <text style="stroke:none;fill:black;font-family:sans-serif;font-size:13;" transform="matrix(1 0 0 1 263 1586)">Large</text>
 </g>
 <g id="Guides">
  <g id="H-reference" style="fill:#27AAE1;stroke:none;" transform="matrix(1 0 0 1 339 696)">
   <path d="M0.993654 0L3.63775 0L29.3281-67.1323L30.0303-67.1323L30.0303-70.459L28.1226-70.459ZM11.6885-24.4799L46.9815-24.4799L46.2315-26.7285L12.4385-26.7285ZM55.1196 0L57.7637 0L30.6382-70.459L29.4326-70.459L29.4326-67.1323Z"/>
  </g>
  <line id="Baseline-S" style="fill:none;stroke:#27AAE1;opacity:1;stroke-width:0.5;" x1="263" x2="3036" y1="696" y2="696"/>
  <line id="Capline-S" style="fill:none;stroke:#27AAE1;opacity:1;stroke-width:0.5;" x1="263" x2="3036" y1="625.541" y2="625.541"/>
  <g id="H-reference" style="fill:#27AAE1;stroke:none;" transform="matrix(1 0 0 1 339 1126)">
   <path d="M0.993654 0L3.63775 0L29.3281-67.1323L30.0303-67.1323L30.0303-70.459L28.1226-70.459ZM11.6885-24.4799L46.9815-24.4799L46.2315-26.7285L12.4385-26.7285ZM55.1196 0L57.7637 0L30.6382-70.459L29.4326-70.459L29.4326-67.1323Z"/>
  </g>
  <line id="Baseline-M" style="fill:none;stroke:#27AAE1;opacity:1;stroke-width:0.5;" x1="263" x2="3036" y1="1126" y2="1126"/>
  <line id="Capline-M" style="fill:none;stroke:#27AAE1;opacity:1;stroke-width:0.5;" x1="263" x2="3036" y1="1055.54" y2="1055.54"/>
  <g id="H-reference" style="fill:#27AAE1;stroke:none;" transform="matrix(1 0 0 1 339 1556)">
   <path d="M0.993654 0L3.63775 0L29.3281-67.1323L30.0303-67.1323L30.0303-70.459L28.1226-70.459ZM11.6885-24.4799L46.9815-24.4799L46.2315-26.7285L12.4385-26.7285ZM55.1196 0L57.7637 0L30.6382-70.459L29.4326-70.459L29.4326-67.1323Z"/>
  </g>
  <line id="Baseline-L" style="fill:none;stroke:#27AAE1;opacity:1;stroke-width:0.5;" x1="263" x2="3036" y1="1556" y2="1556"/>
  <line id="Capline-L" style="fill:none;stroke:#27AAE1;opacity:1;stroke-width:0.5;" x1="263" x2="3036" y1="1485.54" y2="1485.54"/>
  <line id="left-margin-Ultralight-S" style="fill:none;stroke:#00AEEF;stroke-width:0.5;opacity:1.0;" x1="512.404" x2="512.404" y1="600.785" y2="720.121"/>
  <line id="right-margin-Ultralight-S" style="fill:none;stroke:#00AEEF;stroke-width:0.5;opacity:1.0;" x1="607.018" x2="607.018" y1="600.785" y2="720.121"/>
  <line id="left-margin-Regular-S" style="fill:none;stroke:#00AEEF;stroke-width:0.5;opacity:1.0;" x1="1398.75" x2="1398.75" y1="600.785" y2="720.121"/>
  <line id="right-margin-Regular-S" style="fill:none;stroke:#00AEEF;stroke-width:0.5;opacity:1.0;" x1="1500.94" x2="1500.94" y1="600.785" y2="720.121"/>
  <line id="left-margin-Black-S" style="fill:none;stroke:#00AEEF;stroke-width:0.5;opacity:1.0;" x1="2878.64" x2="2878.64" y1="600.785" y2="720.121"/>
  <line id="right-margin-Black-S" style="fill:none;stroke:#00AEEF;stroke-width:0.5;opacity:1.0;" x1="2988.16" x2="2988.16" y1="600.785" y2="720.121"/>
 </g>
 <g id="Symbols">
  <g id="Black-S" transform="matrix(1 0 0 1 2878.64 696)">
   <path class="SFSymbolsPreviewWireframe" d="M9.76562-71.4844C9.76562-67.5781 12.9395-64.4043 16.8457-64.4043L92.6758-64.4043C96.582-64.4043 99.7559-67.5781 99.7559-71.4844C99.7559-75.3906 96.582-78.5645 92.6758-78.5645L16.8457-78.5645C12.9395-78.5645 9.76562-75.3906 9.76562-71.4844ZM29.9316-48.0469L84.8633-48.0469C87.7441-48.0469 89.9414-48.7305 91.6992-50.1953L95.0684-53.0762C97.9004-55.5176 96.875-59.9609 92.6758-59.9609L37.7441-59.9609C34.8633-59.9609 32.666-59.2773 30.9082-57.8125L27.5391-54.9316C24.707-52.4902 25.7324-48.0469 29.9316-48.0469ZM29.9316-29.541L84.8633-29.541C87.7441-29.541 89.9414-30.2246 91.6992-31.6895L95.0684-34.5703C97.9004-37.0117 96.875-41.4551 92.6758-41.4551L37.7441-41.4551C34.8633-41.4551 32.666-40.7715 30.9082-39.3066L27.5391-36.4258C24.707-33.9844 25.7324-29.541 29.9316-29.541ZM29.9316-10.3027L84.8633-10.3027C87.7441-10.3027 89.9414-10.9863 91.6992-12.4512L95.0684-15.332C97.9004-17.7734 96.875-22.2168 92.6758-22.2168L37.7441-22.2168C34.8633-22.2168 32.666-21.5332 30.9082-20.0684L27.5391-17.1875C24.707-14.7461 25.7324-10.3027 29.9316-10.3027ZM29.9316 8.1543L84.8633 8.1543C87.7441 8.1543 89.9414 7.4707 91.6992 6.00586L95.0684 3.125C97.9004 0.683594 96.875-3.75977 92.6758-3.75977L37.7441-3.75977C34.8633-3.75977 32.666-3.07617 30.9082-1.61133L27.5391 1.26953C24.707 3.71094 25.7324 8.1543 29.9316 8.1543ZM16.8457-52.5879C18.8965-52.5879 20.5078-54.3457 20.5078-56.2988C20.5078-58.3496 18.9453-59.9609 16.8457-59.9609C14.7461-59.9609 13.1836-58.3496 13.1836-56.2988C13.1836-54.3457 14.7949-52.5879 16.8457-52.5879ZM16.8457-43.7988C18.8965-43.7988 20.5078-45.459 20.5078-47.4609C20.5078-49.5117 18.9453-51.1719 16.8457-51.1719C14.7461-51.1719 13.1836-49.5117 13.1836-47.4609C13.1836-45.459 14.7949-43.7988 16.8457-43.7988ZM16.8457-35.1074C18.8965-35.1074 20.5078-36.7676 20.5078-38.7695C20.5078-40.8203 18.9453-42.4316 16.8457-42.4316C14.7461-42.4316 13.1836-40.8203 13.1836-38.7695C13.1836-36.7676 14.7949-35.1074 16.8457-35.1074ZM16.8457-26.3672C18.8965-26.3672 20.5078-28.0762 20.5078-30.0293C20.5078-32.0312 18.9453-33.6914 16.8457-33.6914C14.7461-33.6914 13.1836-32.0312 13.1836-30.0293C13.1836-28.0762 14.7949-26.3672 16.8457-26.3672ZM16.8457-17.627C18.8965-17.627 20.5078-19.2871 20.5078-21.2891C20.5078-23.3398 18.9453-24.9512 16.8457-24.9512C14.7461-24.9512 13.1836-23.3398 13.1836-21.2891C13.1836-19.2871 14.7949-17.627 16.8457-17.627ZM16.8457-8.88672C18.8965-8.88672 20.5078-10.5469 20.5078-12.5977C20.5078-14.6484 18.9453-16.2109 16.8457-16.2109C14.7461-16.2109 13.1836-14.6484 13.1836-12.5977C13.1836-10.5469 14.7949-8.88672 16.8457-8.88672ZM16.8457 8.34961C19.1406 8.34961 20.8984 6.54297 20.8984 4.24805L20.8984-3.41797C20.8984-5.66406 19.1406-7.51953 16.8457-7.51953C14.5508-7.51953 12.793-5.66406 12.793-3.41797L12.793 4.24805C12.793 6.54297 14.5508 8.34961 16.8457 8.34961Z"/>
  </g>
  <g id="Regular-S" transform="matrix(1 0 0 1 1398.75 696)">
   <path class="SFSymbolsPreviewWireframe" d="M9.76562-70.9473C9.76562-69.043 11.377-67.4316 13.2812-67.4316L88.916-67.4316C90.8691-67.4316 92.4316-69.043 92.4316-70.9473C92.4316-72.8516 90.8691-74.4629 88.916-74.4629L13.2812-74.4629C11.377-74.4629 9.76562-72.8516 9.76562-70.9473ZM22.6074-55.6641L80.7129-55.6641C82.7637-55.6641 84.0332-56.1035 85.1074-57.0801L88.2324-60.0586C89.3555-61.1816 89.0137-63.5254 86.9141-63.5254L28.8574-63.5254C26.8066-63.5254 25.5371-63.0859 24.4629-62.1094L21.3379-59.1309C20.2148-58.0078 20.5566-55.6641 22.6074-55.6641ZM22.6074-36.0352L80.7129-36.0352C82.7637-36.0352 84.0332-36.4258 85.1074-37.4512L88.2324-40.4297C89.3555-41.5039 89.0137-43.8477 86.9141-43.8477L28.8574-43.8477C26.8066-43.8477 25.5371-43.457 24.4629-42.4316L21.3379-39.4531C20.2148-38.3301 20.5566-36.0352 22.6074-36.0352ZM22.6074-16.5039L80.7129-16.5039C82.7637-16.5039 84.0332-16.9922 85.1074-17.9688L88.2324-20.9473C89.3555-22.0215 89.0137-24.3652 86.9141-24.3652L28.8574-24.3652C26.8066-24.3652 25.5371-23.9746 24.4629-22.9492L21.3379-19.9707C20.2148-18.8477 20.5566-16.5039 22.6074-16.5039ZM22.6074 3.125L80.7129 3.125C82.7637 3.125 84.0332 2.63672 85.1074 1.61133L88.2324-1.31836C89.3555-2.44141 89.0137-4.78516 86.9141-4.78516L28.8574-4.78516C26.8066-4.78516 25.5371-4.3457 24.4629-3.32031L21.3379-0.341797C20.2148 0.732422 20.5566 3.125 22.6074 3.125ZM13.2812-58.5938C14.8438-58.5938 16.1621-59.9609 16.1621-61.4746C16.1621-63.0371 14.8438-64.3066 13.2812-64.3066C11.7188-64.3066 10.4492-63.0371 10.4492-61.4746C10.4492-59.9609 11.7188-58.5938 13.2812-58.5938ZM13.2812-49.8047C14.8438-49.8047 16.1621-51.123 16.1621-52.6367C16.1621-54.248 14.8438-55.5176 13.2812-55.5176C11.7188-55.5176 10.4492-54.248 10.4492-52.6367C10.4492-51.123 11.7188-49.8047 13.2812-49.8047ZM13.2812-41.0156C14.8438-41.0156 16.1621-42.334 16.1621-43.8477C16.1621-45.4102 14.8438-46.6797 13.2812-46.6797C11.7188-46.6797 10.4492-45.4102 10.4492-43.8477C10.4492-42.334 11.7188-41.0156 13.2812-41.0156ZM13.2812-32.1777C14.8438-32.1777 16.1621-33.5449 16.1621-35.0586C16.1621-36.6211 14.8438-37.8906 13.2812-37.8906C11.7188-37.8906 10.4492-36.6211 10.4492-35.0586C10.4492-33.5449 11.7188-32.1777 13.2812-32.1777ZM13.2812-23.3887C14.8438-23.3887 16.1621-24.707 16.1621-26.2207C16.1621-27.832 14.8438-29.1016 13.2812-29.1016C11.7188-29.1016 10.4492-27.832 10.4492-26.2207C10.4492-24.707 11.7188-23.3887 13.2812-23.3887ZM13.2812-14.5996C14.8438-14.5996 16.1621-15.918 16.1621-17.4316C16.1621-18.9941 14.8438-20.2637 13.2812-20.2637C11.7188-20.2637 10.4492-18.9941 10.4492-17.4316C10.4492-15.918 11.7188-14.5996 13.2812-14.5996ZM13.2812 3.95508C15.1855 3.95508 16.7969 2.34375 16.7969 0.439453L16.7969-7.95898C16.7969-9.86328 15.2344-11.4746 13.2812-11.4746C11.377-11.4746 9.76562-9.86328 9.76562-7.95898L9.76562 0.439453C9.76562 2.34375 11.377 3.95508 13.2812 3.95508Z"/>
  </g>
  <g id="Ultralight-S" transform="matrix(1 0 0 1 512.404 696)">
   <path class="SFSymbolsPreviewWireframe" d="M10.2651-72.582C10.2651-71.9492 10.7412-71.4731 11.3286-71.4731L83.7393-71.4731C84.3301-71.4731 84.8482-71.9492 84.8482-72.582C84.8482-73.1694 84.3301-73.6909 83.7393-73.6909L11.3286-73.6909C10.7412-73.6909 10.2651-73.1694 10.2651-72.582ZM18.4751-58.7519L76.9893-58.7519C77.9502-58.7519 78.6294-59.0552 79.3404-59.8501L83.3736-64.3725C84.0425-65.0869 83.7007-66.1592 82.691-66.1592L24.2256-66.1592C23.2647-66.1592 22.5855-65.8559 21.8745-65.061L17.8413-60.584C17.1724-59.8696 17.5142-58.7519 18.4751-58.7519ZM18.4751-38.4419L76.9893-38.4419C77.9502-38.4419 78.6294-38.7417 79.3404-39.54L83.3736-44.0625C84.0425-44.7734 83.7007-45.8457 82.691-45.8457L24.2256-45.8457C23.2647-45.8457 22.5855-45.5459 21.8745-44.7475L17.8413-40.2251C17.1724-39.5561 17.5142-38.4419 18.4751-38.4419ZM18.4751-18.1387L76.9893-18.1387C77.9502-18.1387 78.6294-18.4453 79.3404-19.2402L83.3736-23.7173C84.0425-24.4282 83.7007-25.5459 82.691-25.5459L24.2256-25.5459C23.2647-25.5459 22.5855-25.2461 21.8745-24.4477L17.8413-19.9253C17.1724-19.2109 17.5142-18.1387 18.4751-18.1387ZM18.4751 2.2168L76.9893 2.2168C77.9502 2.2168 78.6294 1.91016 79.3404 1.11182L83.3736-3.40721C84.0425-4.12157 83.7007-5.19384 82.691-5.19384L24.2256-5.19384C23.2647-5.19384 22.5855-4.89062 21.8745-4.09228L17.8413 0.38476C17.1724 1.0957 17.5142 2.2168 18.4751 2.2168ZM11.3286-62.2265C12.21-62.2265 12.8926-62.8672 12.8926-63.7451C12.8926-64.6265 12.21-65.2602 11.3286-65.2602C10.4927-65.2602 9.81348-64.6265 9.81348-63.7451C9.81348-62.8672 10.4927-62.2265 11.3286-62.2265ZM11.3286-53.165C12.21-53.165 12.8926-53.8022 12.8926-54.6802C12.8926-55.5649 12.21-56.1987 11.3286-56.1987C10.4927-56.1987 9.81348-55.5649 9.81348-54.6802C9.81348-53.8022 10.4927-53.165 11.3286-53.165ZM11.3286-44.0127C12.21-44.0127 12.8926-44.6953 12.8926-45.5732C12.8926-46.4092 12.21-47.0884 11.3286-47.0884C10.4927-47.0884 9.81348-46.4092 9.81348-45.5732C9.81348-44.6953 10.4927-44.0127 11.3286-44.0127ZM11.3286-34.9477C12.21-34.9477 12.8926-35.6338 12.8926-36.5117C12.8926-37.3477 12.21-38.0269 11.3286-38.0269C10.4927-38.0269 9.81348-37.3477 9.81348-36.5117C9.81348-35.6338 10.4927-34.9477 11.3286-34.9477ZM11.3286-25.8408C12.21-25.8408 12.8926-26.5234 12.8926-27.4014C12.8926-28.2407 12.21-28.9199 11.3286-28.9199C10.4927-28.9199 9.81348-28.2407 9.81348-27.4014C9.81348-26.5234 10.4927-25.8408 11.3286-25.8408ZM11.3286-16.7793C12.21-16.7793 12.8926-17.4619 12.8926-18.2944C12.8926-19.1758 12.21-19.855 11.3286-19.855C10.4927-19.855 9.81348-19.1758 9.81348-18.2944C9.81348-17.4619 10.4927-16.7793 11.3286-16.7793ZM11.3286 3.18311C11.916 3.18311 12.4375 2.66162 12.4375 2.07421L12.4375-9.63915C12.4375-10.2266 11.9649-10.7481 11.3286-10.7481C10.7412-10.7481 10.3105-10.2266 10.3105-9.63915L10.3105 2.07421C10.3105 2.66162 10.7866 3.18311 11.3286 3.18311Z"/>
  </g>
 </g>
</svg>
