<?xml version="1.0" encoding="UTF-8"?>
<!--Generator: Apple Native CoreSVG 232.5-->
<!DOCTYPE svg
PUBLIC "-//W3C//DTD SVG 1.1//EN"
       "http://www.w3.org/Graphics/SVG/1.1/DTD/svg11.dtd">
<svg version="1.1" xmlns="http://www.w3.org/2000/svg" xmlns:xlink="http://www.w3.org/1999/xlink" width="3300" height="2200">
 <!--glyph: "uni102232.medium", point size: 100.0, font version: "19.2d2e1", template writer version: "128"-->
 <style>.SFSymbolsPreviewWireframe {fill:none;opacity:1.0;stroke:black;stroke-width:0.5}
</style>
 <g id="Notes">
  <rect height="2200" id="artboard" style="fill:white;opacity:1" width="3300" x="0" y="0"/>
  <line style="fill:none;stroke:black;opacity:1;stroke-width:0.5;" x1="263" x2="3036" y1="292" y2="292"/>
  <text style="stroke:none;fill:black;font-family:sans-serif;font-size:13;font-weight:bold;" transform="matrix(1 0 0 1 263 322)">Weight/Scale Variations</text>
  <text style="stroke:none;fill:black;font-family:sans-serif;font-size:13;text-anchor:middle;" transform="matrix(1 0 0 1 559.711 322)">Ultralight</text>
  <text style="stroke:none;fill:black;font-family:sans-serif;font-size:13;text-anchor:middle;" transform="matrix(1 0 0 1 856.422 322)">Thin</text>
  <text style="stroke:none;fill:black;font-family:sans-serif;font-size:13;text-anchor:middle;" transform="matrix(1 0 0 1 1153.13 322)">Light</text>
  <text style="stroke:none;fill:black;font-family:sans-serif;font-size:13;text-anchor:middle;" transform="matrix(1 0 0 1 1449.84 322)">Regular</text>
  <text style="stroke:none;fill:black;font-family:sans-serif;font-size:13;text-anchor:middle;" transform="matrix(1 0 0 1 1746.56 322)">Medium</text>
  <text style="stroke:none;fill:black;font-family:sans-serif;font-size:13;text-anchor:middle;" transform="matrix(1 0 0 1 2043.27 322)">Semibold</text>
  <text style="stroke:none;fill:black;font-family:sans-serif;font-size:13;text-anchor:middle;" transform="matrix(1 0 0 1 2339.98 322)">Bold</text>
  <text style="stroke:none;fill:black;font-family:sans-serif;font-size:13;text-anchor:middle;" transform="matrix(1 0 0 1 2636.69 322)">Heavy</text>
  <text style="stroke:none;fill:black;font-family:sans-serif;font-size:13;text-anchor:middle;" transform="matrix(1 0 0 1 2933.4 322)">Black</text>
  <line style="fill:none;stroke:black;opacity:1;stroke-width:0.5;" x1="263" x2="3036" y1="1903" y2="1903"/>
  <g transform="matrix(0.2 0 0 0.2 263 1933)">
   <path d="m46.2402 4.15039c21.5332 0 39.4531-17.8711 39.4531-39.4043s-17.9688-39.4043-39.502-39.4043c-21.4844 0-39.3555 17.8711-39.3555 39.4043s17.9199 39.4043 39.4043 39.4043Zm0-7.42188c-17.7246 0-31.8848-14.209-31.8848-31.9824s14.1113-31.9824 31.8359-31.9824c17.7734 0 32.0312 14.209 32.0312 31.9824s-14.209 31.9824-31.9824 31.9824Zm-17.9688-31.9824c0 2.14844 1.51367 3.61328 3.75977 3.61328h10.498v10.5957c0 2.19727 1.46484 3.71094 3.61328 3.71094 2.24609 0 3.71094-1.51367 3.71094-3.71094v-10.5957h10.5957c2.19727 0 3.71094-1.46484 3.71094-3.61328 0-2.19727-1.51367-3.71094-3.71094-3.71094h-10.5957v-10.5469c0-2.24609-1.46484-3.75977-3.71094-3.75977-2.14844 0-3.61328 1.51367-3.61328 3.75977v10.5469h-10.498c-2.24609 0-3.75977 1.51367-3.75977 3.71094Z"/>
  </g>
  <g transform="matrix(0.2 0 0 0.2 281.506 1933)">
   <path d="m58.5449 14.5508c27.2461 0 49.8047-22.6074 49.8047-49.8047 0-27.2461-22.6074-49.8047-49.8535-49.8047-27.1973 0-49.7559 22.5586-49.7559 49.8047 0 27.1973 22.6074 49.8047 49.8047 49.8047Zm0-8.30078c-23.0469 0-41.4551-18.457-41.4551-41.5039s18.3594-41.5039 41.4062-41.5039 41.5527 18.457 41.5527 41.5039-18.457 41.5039-41.5039 41.5039Zm-22.6562-41.5039c0 2.39258 1.66016 4.00391 4.15039 4.00391h14.3555v14.4043c0 2.44141 1.66016 4.15039 4.05273 4.15039 2.44141 0 4.15039-1.66016 4.15039-4.15039v-14.4043h14.4043c2.44141 0 4.15039-1.61133 4.15039-4.00391 0-2.44141-1.70898-4.15039-4.15039-4.15039h-14.4043v-14.3555c0-2.49023-1.70898-4.19922-4.15039-4.19922-2.39258 0-4.05273 1.70898-4.05273 4.19922v14.3555h-14.3555c-2.49023 0-4.15039 1.70898-4.15039 4.15039Z"/>
  </g>
  <g transform="matrix(0.2 0 0 0.2 304.924 1933)">
   <path d="m74.8535 28.3203c34.8145 0 63.623-28.8086 63.623-63.5742 0-34.8145-28.8574-63.623-63.6719-63.623-34.7656 0-63.5254 28.8086-63.5254 63.623 0 34.7656 28.8086 63.5742 63.5742 63.5742Zm0-9.08203c-30.1758 0-54.4434-24.3164-54.4434-54.4922 0-30.2246 24.2188-54.4922 54.3945-54.4922 30.2246 0 54.541 24.2676 54.541 54.4922 0 30.1758-24.2676 54.4922-54.4922 54.4922Zm-28.8574-54.4922c0 2.58789 1.85547 4.39453 4.58984 4.39453h19.7266v19.7754c0 2.68555 1.85547 4.58984 4.44336 4.58984 2.68555 0 4.54102-1.85547 4.54102-4.58984v-19.7754h19.7754c2.68555 0 4.58984-1.80664 4.58984-4.39453 0-2.73438-1.85547-4.58984-4.58984-4.58984h-19.7754v-19.7266c0-2.73438-1.85547-4.63867-4.54102-4.63867-2.58789 0-4.44336 1.9043-4.44336 4.63867v19.7266h-19.7266c-2.73438 0-4.58984 1.85547-4.58984 4.58984Z"/>
  </g>
  <text style="stroke:none;fill:black;font-family:sans-serif;font-size:13;font-weight:bold;" transform="matrix(1 0 0 1 263 1953)">Design Variations</text>
  <text style="stroke:none;fill:black;font-family:sans-serif;font-size:13;" transform="matrix(1 0 0 1 263 1971)">Symbols are supported in up to nine weights and three scales.</text>
  <text style="stroke:none;fill:black;font-family:sans-serif;font-size:13;" transform="matrix(1 0 0 1 263 1989)">For optimal layout with text and other symbols, vertically align</text>
  <text style="stroke:none;fill:black;font-family:sans-serif;font-size:13;" transform="matrix(1 0 0 1 263 2007)">symbols with the adjacent text.</text>
  <line style="fill:none;stroke:#00AEEF;stroke-width:0.5;opacity:1.0;" x1="776" x2="776" y1="1919" y2="1933"/>
  <g transform="matrix(0.2 0 0 0.2 776 1933)">
   <path d="m16.5527 0.78125c2.58789 0 3.85742-0.976562 4.78516-3.71094l6.29883-17.2363h28.8086l6.29883 17.2363c0.927734 2.73438 2.19727 3.71094 4.73633 3.71094 2.58789 0 4.24805-1.5625 4.24805-4.00391 0-0.830078-0.146484-1.61133-0.537109-2.63672l-22.9004-60.9863c-1.12305-2.97852-3.125-4.49219-6.25-4.49219-3.02734 0-5.07812 1.46484-6.15234 4.44336l-22.9004 61.084c-0.390625 1.02539-0.537109 1.80664-0.537109 2.63672 0 2.44141 1.5625 3.95508 4.10156 3.95508Zm13.4766-28.3691 11.8652-32.8613h0.244141l11.8652 32.8613Z"/>
  </g>
  <line style="fill:none;stroke:#00AEEF;stroke-width:0.5;opacity:1.0;" x1="792.836" x2="792.836" y1="1919" y2="1933"/>
  <text style="stroke:none;fill:black;font-family:sans-serif;font-size:13;font-weight:bold;" transform="matrix(1 0 0 1 776 1953)">Margins</text>
  <text style="stroke:none;fill:black;font-family:sans-serif;font-size:13;" transform="matrix(1 0 0 1 776 1971)">Leading and trailing margins on the left and right side of each symbol</text>
  <text style="stroke:none;fill:black;font-family:sans-serif;font-size:13;" transform="matrix(1 0 0 1 776 1989)">can be adjusted by modifying the x-location of the margin guidelines.</text>
  <text style="stroke:none;fill:black;font-family:sans-serif;font-size:13;" transform="matrix(1 0 0 1 776 2007)">Modifications are automatically applied proportionally to all</text>
  <text style="stroke:none;fill:black;font-family:sans-serif;font-size:13;" transform="matrix(1 0 0 1 776 2025)">scales and weights.</text>
  <g transform="matrix(0.2 0 0 0.2 1289 1933)">
   <path d="m14.209 9.32617 8.49609 8.54492c4.29688 4.3457 9.22852 4.05273 13.8672-1.07422l53.4668-58.9355-4.83398-4.88281-53.0762 58.3984c-1.75781 2.00195-3.41797 2.49023-5.76172 0.146484l-5.85938-5.81055c-2.34375-2.29492-1.80664-4.00391 0.195312-5.81055l57.373-54.0039-4.88281-4.83398-57.959 54.4434c-4.93164 4.58984-5.32227 9.47266-1.02539 13.8184Zm32.0801-90.9668c-2.09961 2.05078-2.24609 4.93164-1.07422 6.88477 1.17188 1.80664 3.4668 2.97852 6.68945 2.14844 7.32422-1.70898 14.9414-2.00195 22.0703 2.68555l-2.92969 7.27539c-1.70898 4.15039-0.830078 7.08008 1.85547 9.81445l11.4746 11.5723c2.44141 2.44141 4.49219 2.53906 7.32422 2.05078l5.32227-0.976562 3.32031 3.36914-0.195312 2.7832c-0.195312 2.49023 0.439453 4.39453 2.88086 6.78711l3.80859 3.71094c2.39258 2.39258 5.46875 2.53906 7.8125 0.195312l14.5508-14.5996c2.34375-2.34375 2.24609-5.32227-0.146484-7.71484l-3.85742-3.80859c-2.39258-2.39258-4.24805-3.17383-6.64062-2.97852l-2.88086 0.244141-3.22266-3.17383 1.2207-5.61523c0.634766-2.83203-0.146484-5.0293-3.07617-7.95898l-10.9863-10.9375c-16.6992-16.6016-38.8672-16.2109-53.3203-1.75781Zm7.4707 1.85547c12.1582-8.88672 28.6133-7.37305 39.7461 3.75977l12.1582 12.0605c1.17188 1.17188 1.36719 2.09961 1.02539 3.80859l-1.61133 7.42188 7.51953 7.42188 4.93164-0.292969c1.26953-0.0488281 1.66016 0.0488281 2.63672 1.02539l2.88086 2.88086-12.207 12.207-2.88086-2.88086c-0.976562-0.976562-1.12305-1.36719-1.07422-2.68555l0.341797-4.88281-7.4707-7.42188-7.61719 1.26953c-1.61133 0.341797-2.34375 0.195312-3.56445-0.976562l-10.0098-10.0098c-1.26953-1.17188-1.41602-2.00195-0.634766-3.85742l4.39453-10.4492c-7.8125-7.27539-17.9688-10.4004-28.125-7.42188-0.78125 0.195312-1.07422-0.439453-0.439453-0.976562Z"/>
  </g>
  <text style="stroke:none;fill:black;font-family:sans-serif;font-size:13;font-weight:bold;" transform="matrix(1 0 0 1 1289 1953)">Exporting</text>
  <text style="stroke:none;fill:black;font-family:sans-serif;font-size:13;" transform="matrix(1 0 0 1 1289 1971)">Symbols should be outlined when exporting to ensure the</text>
  <text style="stroke:none;fill:black;font-family:sans-serif;font-size:13;" transform="matrix(1 0 0 1 1289 1989)">design is preserved when submitting to Xcode.</text>
  <text id="template-version" style="stroke:none;fill:black;font-family:sans-serif;font-size:13;text-anchor:end;" transform="matrix(1 0 0 1 3036 1933)">Template v.5.0</text>
  <text style="stroke:none;fill:black;font-family:sans-serif;font-size:13;text-anchor:end;" transform="matrix(1 0 0 1 3036 1951)">Requires Xcode 15 or greater</text>
  <text id="descriptive-name" style="stroke:none;fill:black;font-family:sans-serif;font-size:13;text-anchor:end;" transform="matrix(1 0 0 1 3036 1969)">Generated from brazilianrealsign.arrow.circlepath</text>
  <text style="stroke:none;fill:black;font-family:sans-serif;font-size:13;text-anchor:end;" transform="matrix(1 0 0 1 3036 1987)">Typeset at 100.0 points</text>
  <text style="stroke:none;fill:black;font-family:sans-serif;font-size:13;" transform="matrix(1 0 0 1 263 726)">Small</text>
  <text style="stroke:none;fill:black;font-family:sans-serif;font-size:13;" transform="matrix(1 0 0 1 263 1156)">Medium</text>
  <text style="stroke:none;fill:black;font-family:sans-serif;font-size:13;" transform="matrix(1 0 0 1 263 1586)">Large</text>
 </g>
 <g id="Guides">
  <g id="H-reference" style="fill:#27AAE1;stroke:none;" transform="matrix(1 0 0 1 339 696)">
   <path d="M0.993654 0L3.63775 0L29.3281-67.1323L30.0303-67.1323L30.0303-70.459L28.1226-70.459ZM11.6885-24.4799L46.9815-24.4799L46.2315-26.7285L12.4385-26.7285ZM55.1196 0L57.7637 0L30.6382-70.459L29.4326-70.459L29.4326-67.1323Z"/>
  </g>
  <line id="Baseline-S" style="fill:none;stroke:#27AAE1;opacity:1;stroke-width:0.5;" x1="263" x2="3036" y1="696" y2="696"/>
  <line id="Capline-S" style="fill:none;stroke:#27AAE1;opacity:1;stroke-width:0.5;" x1="263" x2="3036" y1="625.541" y2="625.541"/>
  <g id="H-reference" style="fill:#27AAE1;stroke:none;" transform="matrix(1 0 0 1 339 1126)">
   <path d="M0.993654 0L3.63775 0L29.3281-67.1323L30.0303-67.1323L30.0303-70.459L28.1226-70.459ZM11.6885-24.4799L46.9815-24.4799L46.2315-26.7285L12.4385-26.7285ZM55.1196 0L57.7637 0L30.6382-70.459L29.4326-70.459L29.4326-67.1323Z"/>
  </g>
  <line id="Baseline-M" style="fill:none;stroke:#27AAE1;opacity:1;stroke-width:0.5;" x1="263" x2="3036" y1="1126" y2="1126"/>
  <line id="Capline-M" style="fill:none;stroke:#27AAE1;opacity:1;stroke-width:0.5;" x1="263" x2="3036" y1="1055.54" y2="1055.54"/>
  <g id="H-reference" style="fill:#27AAE1;stroke:none;" transform="matrix(1 0 0 1 339 1556)">
   <path d="M0.993654 0L3.63775 0L29.3281-67.1323L30.0303-67.1323L30.0303-70.459L28.1226-70.459ZM11.6885-24.4799L46.9815-24.4799L46.2315-26.7285L12.4385-26.7285ZM55.1196 0L57.7637 0L30.6382-70.459L29.4326-70.459L29.4326-67.1323Z"/>
  </g>
  <line id="Baseline-L" style="fill:none;stroke:#27AAE1;opacity:1;stroke-width:0.5;" x1="263" x2="3036" y1="1556" y2="1556"/>
  <line id="Capline-L" style="fill:none;stroke:#27AAE1;opacity:1;stroke-width:0.5;" x1="263" x2="3036" y1="1485.54" y2="1485.54"/>
  <line id="left-margin-Ultralight-S" style="fill:none;stroke:#00AEEF;stroke-width:0.5;opacity:1.0;" x1="512.05" x2="512.05" y1="600.785" y2="720.121"/>
  <line id="right-margin-Ultralight-S" style="fill:none;stroke:#00AEEF;stroke-width:0.5;opacity:1.0;" x1="607.373" x2="607.373" y1="600.785" y2="720.121"/>
  <line id="left-margin-Regular-S" style="fill:none;stroke:#00AEEF;stroke-width:0.5;opacity:1.0;" x1="1399.84" x2="1399.84" y1="600.785" y2="720.121"/>
  <line id="right-margin-Regular-S" style="fill:none;stroke:#00AEEF;stroke-width:0.5;opacity:1.0;" x1="1499.84" x2="1499.84" y1="600.785" y2="720.121"/>
  <line id="left-margin-Black-S" style="fill:none;stroke:#00AEEF;stroke-width:0.5;opacity:1.0;" x1="2880.47" x2="2880.47" y1="600.785" y2="720.121"/>
  <line id="right-margin-Black-S" style="fill:none;stroke:#00AEEF;stroke-width:0.5;opacity:1.0;" x1="2986.33" x2="2986.33" y1="600.785" y2="720.121"/>
 </g>
 <g id="Symbols">
  <g id="Black-S" transform="matrix(1 0 0 1 2880.47 696)">
   <path class="SFSymbolsPreviewWireframe" d="M57.0312 6.78711C80.1758 6.78711 99.0234-12.0605 99.0234-35.2051C99.0234-58.3496 80.1758-77.1973 57.0312-77.1973C34.1309-77.1973 15.4785-58.7891 15.0391-35.9863L29.1992-35.9863C29.6387-51.0254 41.8945-63.0371 57.0312-63.0371C72.4121-63.0371 84.8633-50.5859 84.8633-35.2051C84.8633-19.8242 72.4121-7.37305 57.0312-7.37305C49.8047-7.37305 43.75-9.91211 38.3301-14.5996C35.0586-17.4805 30.7129-18.4082 27.5391-15.2832C24.7559-12.5 24.9023-8.34961 28.3691-4.54102C34.4727 2.19727 47.0215 6.78711 57.0312 6.78711ZM10.8887-45.0195C6.73828-45.0195 5.76172-40.8691 7.95898-38.0859L20.8008-21.7773C22.2168-20.0195 25-20.0195 26.416-21.7773L39.209-38.0859C41.3574-40.8203 40.4297-45.0195 36.3281-45.0195ZM46.3867-19.5801C48.4375-19.5801 49.8535-20.9473 49.8535-23.0469L49.8535-31.6406L50.7324-31.6406C50.8301-31.6406 50.9277-31.6406 51.0254-31.6406L54.1016-22.1191C54.5898-20.5078 56.0547-19.7754 57.4707-19.7754C59.5215-19.7754 61.5723-21.4355 60.5957-24.2676L57.4707-33.3008C59.4238-34.375 60.7422-37.4512 60.7422-40.9668C60.7422-46.2402 57.3242-49.7559 52.2461-49.7559L48.291-49.7559C44.5801-49.7559 42.9199-48.0469 42.9199-44.3359L42.9199-23.0469C42.9199-20.9473 44.3359-19.5801 46.3867-19.5801ZM49.8535-36.5723L49.8535-44.3848L51.2207-44.3848C53.0273-44.3848 53.6621-43.0664 53.6621-40.4785C53.6621-38.4277 53.0273-36.5723 51.2207-36.5723ZM71.3867-22.6562C76.123-22.6562 80.2734-25.293 80.2734-30.127C80.2734-33.4473 78.5156-35.6445 74.9023-37.3047L70.459-39.3066C69.6777-39.6484 68.9453-40.1855 68.9453-41.2109C68.9453-42.3828 69.8242-43.0664 71.2891-43.0664C72.5586-43.0664 73.3887-42.1387 73.9746-40.918C74.4141-39.6484 75.3418-38.916 76.6602-38.916C78.4668-38.916 79.5898-40.0879 79.4922-42.2363C79.248-44.8242 76.6113-48.0957 71.3867-48.0957C66.4551-48.0957 62.793-45.2148 62.793-40.625C62.793-36.8164 64.8926-34.8633 68.0176-33.4961L71.7285-31.8359C73.0469-31.2012 74.0234-30.6641 74.0234-29.4434C74.0234-28.418 73.0469-27.7344 71.5332-27.7344C69.6777-27.7344 68.8965-28.8574 68.457-29.8828C68.0176-31.0547 67.041-31.8848 65.918-31.8848C64.0137-31.8848 62.8418-30.5176 62.9395-28.5156C63.2324-25.4883 66.5039-22.6562 71.3867-22.6562ZM71.4355-18.2617C72.2656-18.2617 72.9492-18.8965 72.9492-19.7266L72.9492-51.0742C72.9492-51.9043 72.2656-52.4902 71.4355-52.4902C70.6543-52.4902 70.0195-51.9043 70.0195-51.0742L70.0195-19.7266C70.0195-18.8965 70.6543-18.2617 71.4355-18.2617Z"/>
  </g>
  <g id="Regular-S" transform="matrix(1 0 0 1 1399.84 696)">
   <path class="SFSymbolsPreviewWireframe" d="M53.7109 4.15039C75.2441 4.15039 93.1641-13.7207 93.1641-35.2539C93.1641-56.7871 75.2441-74.6582 53.7109-74.6582C32.1777-74.6582 14.3066-56.8359 14.3066-35.3027L21.7773-35.3027C21.7773-53.0762 35.9375-67.1875 53.7109-67.1875C71.4844-67.1875 85.6934-53.0273 85.6934-35.2539C85.6934-17.4805 71.4844-3.17383 53.7109-3.27148C43.2617-3.32031 34.0332-8.20312 28.2715-15.8691C26.9531-17.6758 24.8535-18.2129 23.0469-17.0898C21.2402-16.0156 20.8008-13.5742 22.2656-11.6699C29.6387-2.14844 41.0156 4.15039 53.7109 4.15039ZM9.86328-42.8711C6.78711-42.8711 6.05469-40.7715 7.71484-38.4277L16.4062-26.0742C17.7734-24.1699 19.8242-24.1699 21.1426-26.0742L29.834-38.4766C31.4453-40.7715 30.6641-42.8711 27.6367-42.8711ZM36.6699-17.8711C38.2812-17.8711 39.4531-18.9941 39.4531-20.7031L39.4531-32.666L42.041-32.666C42.2852-32.666 42.4805-32.666 42.7734-32.666L47.5586-19.6289C47.998-18.3594 49.0723-17.8711 50.1953-17.8711C52.002-17.8711 53.8086-19.2383 52.8809-21.6797L48.1934-33.7402C51.3184-35.0586 52.9297-39.209 52.9297-43.2129C52.9297-49.4141 49.9023-53.0273 43.3105-53.0273L37.1582-53.0273C35.0098-53.0273 33.8379-51.416 33.8379-49.0723L33.8379-20.7031C33.8379-18.9941 34.9609-17.8711 36.6699-17.8711ZM39.4531-37.0117L39.4531-48.4863L42.6758-48.4863C45.8008-48.4863 47.168-46.3867 47.168-42.9688C47.168-39.5508 45.8496-37.0117 42.6758-37.0117ZM65.625-19.4336C71.2891-19.4336 75.1953-22.6074 75.1953-28.0273C75.1953-31.7383 73.1445-34.4238 68.5547-36.8652L65.2832-38.623C63.2324-39.6973 61.2305-40.9668 61.2305-43.2129C61.2305-45.3613 62.8418-46.875 65.332-46.875C68.1152-46.875 69.3848-45.166 69.5801-42.8711C69.7266-41.5039 70.8008-40.7715 71.9727-40.7715C73.4375-40.7715 74.9023-41.8457 74.5117-44.2871C73.877-48.291 70.6055-51.3672 65.332-51.3672C59.9609-51.3672 55.957-48.0469 55.957-43.0176C55.957-38.8672 58.3008-36.084 62.5488-33.9844L65.7227-32.4219C67.8223-31.3477 69.9219-29.6387 69.9219-27.6367C69.9219-25.4395 68.4082-23.9746 65.625-23.9746C62.5488-23.9746 61.2793-25.4395 60.9375-27.9297C60.7422-29.3457 59.7656-30.0781 58.6426-30.0781C57.1777-30.0781 55.7617-28.8086 56.1035-26.5137C56.8848-22.3145 60.2539-19.4336 65.625-19.4336ZM65.5762-15.2832C66.5039-15.2832 67.2852-16.0645 67.2852-17.041L67.2852-53.7598C67.2852-54.6875 66.5039-55.5176 65.5762-55.5176C64.6484-55.5176 63.8184-54.6875 63.8184-53.7598L63.8184-17.041C63.8184-16.0645 64.6484-15.2832 65.5762-15.2832Z"/>
  </g>
  <g id="Ultralight-S" transform="matrix(1 0 0 1 512.05 696)">
   <path class="SFSymbolsPreviewWireframe" d="M51.2588 1.97072C71.7476 1.97072 88.4869-14.8105 88.4869-35.2539C88.4869-55.6973 71.7476-72.4785 51.2588-72.4785C30.8154-72.4785 14.0342-55.7007 14.0342-35.2573L16.2828-35.2573C16.2828-54.5747 31.9868-70.23 51.2588-70.23C70.5762-70.23 86.2837-54.5713 86.2837-35.2539C86.2837-15.9365 70.5762-0.267601 51.2588-0.274438C38.3575-0.277856 27.2671-7.38575 21.0059-17.7309C20.6412-18.2661 19.9947-18.4399 19.4595-18.1797C18.9243-17.8774 18.7119-17.207 19.1323-16.5742C26.0967-5.78122 37.6099 1.97072 51.2588 1.97072ZM8.22853-41.645C6.87793-41.645 6.41797-40.7261 7.26075-39.5176L15.2256-28.1177C15.957-27.0761 16.8726-27.0761 17.6006-28.1177L25.5201-39.4756C26.4048-40.7261 25.896-41.645 24.5943-41.645ZM35.3984-18.416C36.0562-18.416 36.5469-18.9033 36.5469-19.5225L36.5469-33.3926L41.4507-33.3926C41.7856-33.3926 42.0718-33.3926 42.6826-33.438L49.0117-19.1748C49.2241-18.6772 49.5718-18.4614 49.9683-18.4614C50.7305-18.4614 51.4927-19.1475 51.0191-20.1358L44.7876-33.8765C48.5484-34.6499 50.5684-38.3916 50.5684-42.4863C50.5684-48.1426 47.4956-51.3472 41.6758-51.3472L35.3418-51.3472C34.6919-51.3472 34.292-50.8711 34.292-50.0713L34.292-19.5225C34.292-18.9033 34.7793-18.416 35.3984-18.416ZM36.5469-35.2407L36.5469-49.4399L41.4951-49.4399C45.9824-49.4399 48.394-46.977 48.394-42.4692C48.394-37.916 46.1675-35.2407 41.7222-35.2407ZM62.628-19.9331C67.4292-19.9331 70.7906-22.9707 70.7906-27.5732C70.7906-31.375 69.0122-33.6519 64.6494-35.7754L60.833-37.7149C59.0093-38.562 56.5987-40.0132 56.5987-43.6216C56.5987-47.0869 59.0728-48.9639 62.4258-48.9639C65.8447-48.9639 68.2041-46.3467 68.2178-42.3716C68.228-41.6855 68.6665-41.271 69.2935-41.271C69.8955-41.271 70.3614-41.7095 70.334-42.4253C70.2896-47.3374 67.5176-50.8223 62.4258-50.8223C57.7359-50.8223 54.5039-48.0469 54.5039-43.6079C54.5039-39.3667 56.9839-37.2192 60.1421-35.6645L63.9971-33.7842C66.6416-32.4829 68.6504-30.9101 68.6504-27.5005C68.6504-24.168 66.4102-21.8858 62.628-21.8858C58.2803-21.8858 56.0118-24.4858 56.0332-28.6562C56.0196-29.3457 55.5879-29.7603 54.9644-29.7603C54.3623-29.7603 53.8999-29.3081 53.9238-28.6025C53.9785-23.5859 57.166-19.9331 62.628-19.9331ZM62.6245-16.0098C63.0528-16.0098 63.4707-16.4277 63.4707-16.9502L63.4707-53.4873C63.4707-53.9609 63.0528-54.3369 62.6245-54.3369C62.1055-54.3369 61.6841-53.9609 61.6841-53.4873L61.6841-16.9502C61.6841-16.4277 62.1055-16.0098 62.6245-16.0098Z"/>
  </g>
 </g>
</svg>
