<?xml version="1.0" encoding="UTF-8"?>
<!--Generator: Apple Native CoreSVG 232.5-->
<!DOCTYPE svg
PUBLIC "-//W3C//DTD SVG 1.1//EN"
       "http://www.w3.org/Graphics/SVG/1.1/DTD/svg11.dtd">
<svg version="1.1" xmlns="http://www.w3.org/2000/svg" xmlns:xlink="http://www.w3.org/1999/xlink" width="3300" height="2200">
 <!--glyph: "uni101AAF.medium", point size: 100.0, font version: "19.2d2e1", template writer version: "128"-->
 <style>.SFSymbolsPreviewWireframe {fill:none;opacity:1.0;stroke:black;stroke-width:0.5}
</style>
 <g id="Notes">
  <rect height="2200" id="artboard" style="fill:white;opacity:1" width="3300" x="0" y="0"/>
  <line style="fill:none;stroke:black;opacity:1;stroke-width:0.5;" x1="263" x2="3036" y1="292" y2="292"/>
  <text style="stroke:none;fill:black;font-family:sans-serif;font-size:13;font-weight:bold;" transform="matrix(1 0 0 1 263 322)">Weight/Scale Variations</text>
  <text style="stroke:none;fill:black;font-family:sans-serif;font-size:13;text-anchor:middle;" transform="matrix(1 0 0 1 559.711 322)">Ultralight</text>
  <text style="stroke:none;fill:black;font-family:sans-serif;font-size:13;text-anchor:middle;" transform="matrix(1 0 0 1 856.422 322)">Thin</text>
  <text style="stroke:none;fill:black;font-family:sans-serif;font-size:13;text-anchor:middle;" transform="matrix(1 0 0 1 1153.13 322)">Light</text>
  <text style="stroke:none;fill:black;font-family:sans-serif;font-size:13;text-anchor:middle;" transform="matrix(1 0 0 1 1449.84 322)">Regular</text>
  <text style="stroke:none;fill:black;font-family:sans-serif;font-size:13;text-anchor:middle;" transform="matrix(1 0 0 1 1746.56 322)">Medium</text>
  <text style="stroke:none;fill:black;font-family:sans-serif;font-size:13;text-anchor:middle;" transform="matrix(1 0 0 1 2043.27 322)">Semibold</text>
  <text style="stroke:none;fill:black;font-family:sans-serif;font-size:13;text-anchor:middle;" transform="matrix(1 0 0 1 2339.98 322)">Bold</text>
  <text style="stroke:none;fill:black;font-family:sans-serif;font-size:13;text-anchor:middle;" transform="matrix(1 0 0 1 2636.69 322)">Heavy</text>
  <text style="stroke:none;fill:black;font-family:sans-serif;font-size:13;text-anchor:middle;" transform="matrix(1 0 0 1 2933.4 322)">Black</text>
  <line style="fill:none;stroke:black;opacity:1;stroke-width:0.5;" x1="263" x2="3036" y1="1903" y2="1903"/>
  <g transform="matrix(0.2 0 0 0.2 263 1933)">
   <path d="m46.2402 4.15039c21.5332 0 39.4531-17.8711 39.4531-39.4043s-17.9688-39.4043-39.502-39.4043c-21.4844 0-39.3555 17.8711-39.3555 39.4043s17.9199 39.4043 39.4043 39.4043Zm0-7.42188c-17.7246 0-31.8848-14.209-31.8848-31.9824s14.1113-31.9824 31.8359-31.9824c17.7734 0 32.0312 14.209 32.0312 31.9824s-14.209 31.9824-31.9824 31.9824Zm-17.9688-31.9824c0 2.14844 1.51367 3.61328 3.75977 3.61328h10.498v10.5957c0 2.19727 1.46484 3.71094 3.61328 3.71094 2.24609 0 3.71094-1.51367 3.71094-3.71094v-10.5957h10.5957c2.19727 0 3.71094-1.46484 3.71094-3.61328 0-2.19727-1.51367-3.71094-3.71094-3.71094h-10.5957v-10.5469c0-2.24609-1.46484-3.75977-3.71094-3.75977-2.14844 0-3.61328 1.51367-3.61328 3.75977v10.5469h-10.498c-2.24609 0-3.75977 1.51367-3.75977 3.71094Z"/>
  </g>
  <g transform="matrix(0.2 0 0 0.2 281.506 1933)">
   <path d="m58.5449 14.5508c27.2461 0 49.8047-22.6074 49.8047-49.8047 0-27.2461-22.6074-49.8047-49.8535-49.8047-27.1973 0-49.7559 22.5586-49.7559 49.8047 0 27.1973 22.6074 49.8047 49.8047 49.8047Zm0-8.30078c-23.0469 0-41.4551-18.457-41.4551-41.5039s18.3594-41.5039 41.4062-41.5039 41.5527 18.457 41.5527 41.5039-18.457 41.5039-41.5039 41.5039Zm-22.6562-41.5039c0 2.39258 1.66016 4.00391 4.15039 4.00391h14.3555v14.4043c0 2.44141 1.66016 4.15039 4.05273 4.15039 2.44141 0 4.15039-1.66016 4.15039-4.15039v-14.4043h14.4043c2.44141 0 4.15039-1.61133 4.15039-4.00391 0-2.44141-1.70898-4.15039-4.15039-4.15039h-14.4043v-14.3555c0-2.49023-1.70898-4.19922-4.15039-4.19922-2.39258 0-4.05273 1.70898-4.05273 4.19922v14.3555h-14.3555c-2.49023 0-4.15039 1.70898-4.15039 4.15039Z"/>
  </g>
  <g transform="matrix(0.2 0 0 0.2 304.924 1933)">
   <path d="m74.8535 28.3203c34.8145 0 63.623-28.8086 63.623-63.5742 0-34.8145-28.8574-63.623-63.6719-63.623-34.7656 0-63.5254 28.8086-63.5254 63.623 0 34.7656 28.8086 63.5742 63.5742 63.5742Zm0-9.08203c-30.1758 0-54.4434-24.3164-54.4434-54.4922 0-30.2246 24.2188-54.4922 54.3945-54.4922 30.2246 0 54.541 24.2676 54.541 54.4922 0 30.1758-24.2676 54.4922-54.4922 54.4922Zm-28.8574-54.4922c0 2.58789 1.85547 4.39453 4.58984 4.39453h19.7266v19.7754c0 2.68555 1.85547 4.58984 4.44336 4.58984 2.68555 0 4.54102-1.85547 4.54102-4.58984v-19.7754h19.7754c2.68555 0 4.58984-1.80664 4.58984-4.39453 0-2.73438-1.85547-4.58984-4.58984-4.58984h-19.7754v-19.7266c0-2.73438-1.85547-4.63867-4.54102-4.63867-2.58789 0-4.44336 1.9043-4.44336 4.63867v19.7266h-19.7266c-2.73438 0-4.58984 1.85547-4.58984 4.58984Z"/>
  </g>
  <text style="stroke:none;fill:black;font-family:sans-serif;font-size:13;font-weight:bold;" transform="matrix(1 0 0 1 263 1953)">Design Variations</text>
  <text style="stroke:none;fill:black;font-family:sans-serif;font-size:13;" transform="matrix(1 0 0 1 263 1971)">Symbols are supported in up to nine weights and three scales.</text>
  <text style="stroke:none;fill:black;font-family:sans-serif;font-size:13;" transform="matrix(1 0 0 1 263 1989)">For optimal layout with text and other symbols, vertically align</text>
  <text style="stroke:none;fill:black;font-family:sans-serif;font-size:13;" transform="matrix(1 0 0 1 263 2007)">symbols with the adjacent text.</text>
  <line style="fill:none;stroke:#00AEEF;stroke-width:0.5;opacity:1.0;" x1="776" x2="776" y1="1919" y2="1933"/>
  <g transform="matrix(0.2 0 0 0.2 776 1933)">
   <path d="m16.5527 0.78125c2.58789 0 3.85742-0.976562 4.78516-3.71094l6.29883-17.2363h28.8086l6.29883 17.2363c0.927734 2.73438 2.19727 3.71094 4.73633 3.71094 2.58789 0 4.24805-1.5625 4.24805-4.00391 0-0.830078-0.146484-1.61133-0.537109-2.63672l-22.9004-60.9863c-1.12305-2.97852-3.125-4.49219-6.25-4.49219-3.02734 0-5.07812 1.46484-6.15234 4.44336l-22.9004 61.084c-0.390625 1.02539-0.537109 1.80664-0.537109 2.63672 0 2.44141 1.5625 3.95508 4.10156 3.95508Zm13.4766-28.3691 11.8652-32.8613h0.244141l11.8652 32.8613Z"/>
  </g>
  <line style="fill:none;stroke:#00AEEF;stroke-width:0.5;opacity:1.0;" x1="792.836" x2="792.836" y1="1919" y2="1933"/>
  <text style="stroke:none;fill:black;font-family:sans-serif;font-size:13;font-weight:bold;" transform="matrix(1 0 0 1 776 1953)">Margins</text>
  <text style="stroke:none;fill:black;font-family:sans-serif;font-size:13;" transform="matrix(1 0 0 1 776 1971)">Leading and trailing margins on the left and right side of each symbol</text>
  <text style="stroke:none;fill:black;font-family:sans-serif;font-size:13;" transform="matrix(1 0 0 1 776 1989)">can be adjusted by modifying the x-location of the margin guidelines.</text>
  <text style="stroke:none;fill:black;font-family:sans-serif;font-size:13;" transform="matrix(1 0 0 1 776 2007)">Modifications are automatically applied proportionally to all</text>
  <text style="stroke:none;fill:black;font-family:sans-serif;font-size:13;" transform="matrix(1 0 0 1 776 2025)">scales and weights.</text>
  <g transform="matrix(0.2 0 0 0.2 1289 1933)">
   <path d="m14.209 9.32617 8.49609 8.54492c4.29688 4.3457 9.22852 4.05273 13.8672-1.07422l53.4668-58.9355-4.83398-4.88281-53.0762 58.3984c-1.75781 2.00195-3.41797 2.49023-5.76172 0.146484l-5.85938-5.81055c-2.34375-2.29492-1.80664-4.00391 0.195312-5.81055l57.373-54.0039-4.88281-4.83398-57.959 54.4434c-4.93164 4.58984-5.32227 9.47266-1.02539 13.8184Zm32.0801-90.9668c-2.09961 2.05078-2.24609 4.93164-1.07422 6.88477 1.17188 1.80664 3.4668 2.97852 6.68945 2.14844 7.32422-1.70898 14.9414-2.00195 22.0703 2.68555l-2.92969 7.27539c-1.70898 4.15039-0.830078 7.08008 1.85547 9.81445l11.4746 11.5723c2.44141 2.44141 4.49219 2.53906 7.32422 2.05078l5.32227-0.976562 3.32031 3.36914-0.195312 2.7832c-0.195312 2.49023 0.439453 4.39453 2.88086 6.78711l3.80859 3.71094c2.39258 2.39258 5.46875 2.53906 7.8125 0.195312l14.5508-14.5996c2.34375-2.34375 2.24609-5.32227-0.146484-7.71484l-3.85742-3.80859c-2.39258-2.39258-4.24805-3.17383-6.64062-2.97852l-2.88086 0.244141-3.22266-3.17383 1.2207-5.61523c0.634766-2.83203-0.146484-5.0293-3.07617-7.95898l-10.9863-10.9375c-16.6992-16.6016-38.8672-16.2109-53.3203-1.75781Zm7.4707 1.85547c12.1582-8.88672 28.6133-7.37305 39.7461 3.75977l12.1582 12.0605c1.17188 1.17188 1.36719 2.09961 1.02539 3.80859l-1.61133 7.42188 7.51953 7.42188 4.93164-0.292969c1.26953-0.0488281 1.66016 0.0488281 2.63672 1.02539l2.88086 2.88086-12.207 12.207-2.88086-2.88086c-0.976562-0.976562-1.12305-1.36719-1.07422-2.68555l0.341797-4.88281-7.4707-7.42188-7.61719 1.26953c-1.61133 0.341797-2.34375 0.195312-3.56445-0.976562l-10.0098-10.0098c-1.26953-1.17188-1.41602-2.00195-0.634766-3.85742l4.39453-10.4492c-7.8125-7.27539-17.9688-10.4004-28.125-7.42188-0.78125 0.195312-1.07422-0.439453-0.439453-0.976562Z"/>
  </g>
  <text style="stroke:none;fill:black;font-family:sans-serif;font-size:13;font-weight:bold;" transform="matrix(1 0 0 1 1289 1953)">Exporting</text>
  <text style="stroke:none;fill:black;font-family:sans-serif;font-size:13;" transform="matrix(1 0 0 1 1289 1971)">Symbols should be outlined when exporting to ensure the</text>
  <text style="stroke:none;fill:black;font-family:sans-serif;font-size:13;" transform="matrix(1 0 0 1 1289 1989)">design is preserved when submitting to Xcode.</text>
  <text id="template-version" style="stroke:none;fill:black;font-family:sans-serif;font-size:13;text-anchor:end;" transform="matrix(1 0 0 1 3036 1933)">Template v.5.0</text>
  <text style="stroke:none;fill:black;font-family:sans-serif;font-size:13;text-anchor:end;" transform="matrix(1 0 0 1 3036 1951)">Requires Xcode 15 or greater</text>
  <text id="descriptive-name" style="stroke:none;fill:black;font-family:sans-serif;font-size:13;text-anchor:end;" transform="matrix(1 0 0 1 3036 1969)">Generated from bubbles.and.sparkles.fill</text>
  <text style="stroke:none;fill:black;font-family:sans-serif;font-size:13;text-anchor:end;" transform="matrix(1 0 0 1 3036 1987)">Typeset at 100.0 points</text>
  <text style="stroke:none;fill:black;font-family:sans-serif;font-size:13;" transform="matrix(1 0 0 1 263 726)">Small</text>
  <text style="stroke:none;fill:black;font-family:sans-serif;font-size:13;" transform="matrix(1 0 0 1 263 1156)">Medium</text>
  <text style="stroke:none;fill:black;font-family:sans-serif;font-size:13;" transform="matrix(1 0 0 1 263 1586)">Large</text>
 </g>
 <g id="Guides">
  <g id="H-reference" style="fill:#27AAE1;stroke:none;" transform="matrix(1 0 0 1 339 696)">
   <path d="M0.993654 0L3.63775 0L29.3281-67.1323L30.0303-67.1323L30.0303-70.459L28.1226-70.459ZM11.6885-24.4799L46.9815-24.4799L46.2315-26.7285L12.4385-26.7285ZM55.1196 0L57.7637 0L30.6382-70.459L29.4326-70.459L29.4326-67.1323Z"/>
  </g>
  <line id="Baseline-S" style="fill:none;stroke:#27AAE1;opacity:1;stroke-width:0.5;" x1="263" x2="3036" y1="696" y2="696"/>
  <line id="Capline-S" style="fill:none;stroke:#27AAE1;opacity:1;stroke-width:0.5;" x1="263" x2="3036" y1="625.541" y2="625.541"/>
  <g id="H-reference" style="fill:#27AAE1;stroke:none;" transform="matrix(1 0 0 1 339 1126)">
   <path d="M0.993654 0L3.63775 0L29.3281-67.1323L30.0303-67.1323L30.0303-70.459L28.1226-70.459ZM11.6885-24.4799L46.9815-24.4799L46.2315-26.7285L12.4385-26.7285ZM55.1196 0L57.7637 0L30.6382-70.459L29.4326-70.459L29.4326-67.1323Z"/>
  </g>
  <line id="Baseline-M" style="fill:none;stroke:#27AAE1;opacity:1;stroke-width:0.5;" x1="263" x2="3036" y1="1126" y2="1126"/>
  <line id="Capline-M" style="fill:none;stroke:#27AAE1;opacity:1;stroke-width:0.5;" x1="263" x2="3036" y1="1055.54" y2="1055.54"/>
  <g id="H-reference" style="fill:#27AAE1;stroke:none;" transform="matrix(1 0 0 1 339 1556)">
   <path d="M0.993654 0L3.63775 0L29.3281-67.1323L30.0303-67.1323L30.0303-70.459L28.1226-70.459ZM11.6885-24.4799L46.9815-24.4799L46.2315-26.7285L12.4385-26.7285ZM55.1196 0L57.7637 0L30.6382-70.459L29.4326-70.459L29.4326-67.1323Z"/>
  </g>
  <line id="Baseline-L" style="fill:none;stroke:#27AAE1;opacity:1;stroke-width:0.5;" x1="263" x2="3036" y1="1556" y2="1556"/>
  <line id="Capline-L" style="fill:none;stroke:#27AAE1;opacity:1;stroke-width:0.5;" x1="263" x2="3036" y1="1485.54" y2="1485.54"/>
  <line id="left-margin-Ultralight-S" style="fill:none;stroke:#00AEEF;stroke-width:0.5;opacity:1.0;" x1="512.025" x2="512.025" y1="600.785" y2="720.121"/>
  <line id="right-margin-Ultralight-S" style="fill:none;stroke:#00AEEF;stroke-width:0.5;opacity:1.0;" x1="607.398" x2="607.398" y1="600.785" y2="720.121"/>
  <line id="left-margin-Regular-S" style="fill:none;stroke:#00AEEF;stroke-width:0.5;opacity:1.0;" x1="1399.16" x2="1399.16" y1="600.785" y2="720.121"/>
  <line id="right-margin-Regular-S" style="fill:none;stroke:#00AEEF;stroke-width:0.5;opacity:1.0;" x1="1500.53" x2="1500.53" y1="600.785" y2="720.121"/>
  <line id="left-margin-Black-S" style="fill:none;stroke:#00AEEF;stroke-width:0.5;opacity:1.0;" x1="2879.86" x2="2879.86" y1="600.785" y2="720.121"/>
  <line id="right-margin-Black-S" style="fill:none;stroke:#00AEEF;stroke-width:0.5;opacity:1.0;" x1="2986.94" x2="2986.94" y1="600.785" y2="720.121"/>
 </g>
 <g id="Symbols">
  <g id="Black-S" transform="matrix(1 0 0 1 2879.86 696)">
   <path class="SFSymbolsPreviewWireframe" d="M75.3418-31.9824C86.8652-31.9824 96.1914-41.3086 96.1914-52.832C96.1914-64.3555 86.8652-73.6816 75.3418-73.6816C63.8184-73.6816 54.4922-64.3555 54.4922-52.832C54.4922-41.3086 63.8184-31.9824 75.3418-31.9824ZM59.3262-14.0625C72.2168-14.0625 82.666-24.4629 82.666-37.3535C82.666-50.2441 72.2168-60.6934 59.3262-60.6934C46.4355-60.6934 36.0352-50.2441 36.0352-37.3535C36.0352-24.5117 46.4844-14.0625 59.3262-14.0625ZM59.3262-19.9219C68.9941-19.9219 76.8066-27.6855 76.8066-37.3535C76.8066-47.0215 68.9941-54.834 59.3262-54.834C49.6582-54.834 41.8945-47.0215 41.8945-37.3535C41.8945-27.7344 49.707-19.9219 59.3262-19.9219ZM22.2656-30.2246C29.1016-30.2246 34.7656-35.8887 34.7656-42.7246C34.7656-49.5605 29.1016-55.2246 22.2656-55.2246C15.4297-55.2246 9.76562-49.5605 9.76562-42.7246C9.76562-35.8887 15.4297-30.2246 22.2656-30.2246ZM37.8418 5.81055C45.0684 5.81055 51.0742-0.244141 51.0742-7.51953C51.0742-14.7461 45.0684-20.752 37.8418-20.752C30.5176-20.752 24.5117-14.7949 24.5117-7.51953C24.5117-0.195312 30.5176 5.81055 37.8418 5.81055ZM81.1035 7.61719C82.8613 7.61719 84.2773 6.39648 84.5215 4.63867C85.4492-3.4668 84.8633-3.36914 94.4336-5.22461C96.1426-5.51758 97.3145-6.83594 97.3145-8.54492C97.3145-10.3027 96.0449-11.6699 94.2871-11.9141C85.3516-13.0371 85.4492-12.8906 84.5215-21.582C84.375-23.3398 82.9102-24.6582 81.1035-24.6582C79.2969-24.6582 77.8809-23.3398 77.7344-21.5332C76.9043-13.7695 77.6367-13.7207 67.7734-11.8652C66.1133-11.5723 64.9414-10.1562 64.9414-8.54492C64.9414-6.78711 66.1621-5.51758 68.0176-5.17578C76.9531-3.85742 76.8555-3.90625 77.7344 4.49219C77.8809 6.29883 79.2969 7.61719 81.1035 7.61719ZM37.793-53.7598C39.2578-53.7598 40.4297-54.834 40.6738-56.25C41.8945-62.3535 41.3574-61.8164 47.4121-63.0371C48.9258-63.2812 49.9512-64.4531 49.9512-65.9668C49.9512-67.4316 48.9258-68.6523 47.4121-68.9453C41.3574-70.0684 41.8945-69.5312 40.6738-75.5859C40.4297-77.0996 39.2578-78.125 37.793-78.125C36.2793-78.125 35.1074-77.0996 34.8633-75.5859C33.6426-69.5312 34.1797-70.0684 28.0762-68.8965C26.6602-68.6523 25.5859-67.4316 25.5859-65.9668C25.5859-64.502 26.6113-63.2812 28.0762-63.0371C34.1797-61.8164 33.6426-62.3535 34.8633-56.25C35.1074-54.7852 36.3281-53.7598 37.793-53.7598Z"/>
  </g>
  <g id="Regular-S" transform="matrix(1 0 0 1 1399.16 696)">
   <path class="SFSymbolsPreviewWireframe" d="M71.7285-33.5938C82.0312-33.5938 90.3809-41.9434 90.3809-52.2461C90.3809-62.5488 82.0312-70.8496 71.7285-70.8496C61.4258-70.8496 53.125-62.5488 53.125-52.2461C53.125-41.9434 61.4258-33.5938 71.7285-33.5938ZM56.25-18.0176C66.8945-18.0176 75.4883-26.6113 75.4883-37.2559C75.4883-47.8516 66.8945-56.4453 56.25-56.4453C45.6543-56.4453 37.0117-47.8516 37.0117-37.2559C37.0117-26.6113 45.6543-18.0176 56.25-18.0176ZM56.25-22.8027C64.2578-22.8027 70.7031-29.248 70.7031-37.2559C70.7031-45.2148 64.2578-51.6602 56.25-51.6602C48.2422-51.6602 41.7969-45.2148 41.7969-37.2559C41.7969-29.248 48.2422-22.8027 56.25-22.8027ZM20.3613-31.8359C26.123-31.8359 30.9082-36.6211 30.9082-42.4316C30.9082-48.2422 26.123-52.9785 20.3613-52.9785C14.5508-52.9785 9.76562-48.2422 9.76562-42.4316C9.76562-36.6211 14.5508-31.8359 20.3613-31.8359ZM35.4004 3.02734C41.6016 3.02734 46.6797-2.09961 46.6797-8.34961C46.6797-14.502 41.6016-19.6289 35.4004-19.6289C29.1504-19.6289 24.0234-14.502 24.0234-8.34961C24.0234-2.09961 29.1504 3.02734 35.4004 3.02734ZM77.3438 3.95508C78.2227 3.95508 79.0039 3.27148 79.1504 2.34375C80.2734-6.64062 80.3711-6.64062 89.9902-8.44727C90.918-8.64258 91.6016-9.375 91.6016-10.2539C91.6016-11.1816 90.918-11.9141 89.9414-12.0605C80.5176-13.2812 80.2246-13.5742 79.1504-22.8027C79.0527-23.7793 78.2715-24.4629 77.3438-24.4629C76.3672-24.4629 75.6348-23.7305 75.5371-22.7539C74.5117-13.8184 74.2188-13.8184 64.6484-12.0605C63.7207-11.8652 63.0859-11.1328 63.0859-10.2539C63.0859-9.32617 63.7695-8.64258 64.8438-8.44727C74.2188-7.03125 74.5117-6.68945 75.5371 2.24609C75.6348 3.22266 76.3672 3.95508 77.3438 3.95508ZM35.4004-53.6133C36.084-53.6133 36.6699-54.1016 36.8164-54.834C38.0859-61.4746 37.9395-61.3281 44.5801-62.5977C45.3613-62.7441 45.8008-63.3301 45.8008-64.0137C45.8008-64.7461 45.3613-65.332 44.5801-65.4297C37.9395-66.748 38.0859-66.6016 36.8164-73.2422C36.6699-73.9746 36.084-74.4629 35.4004-74.4629C34.668-74.4629 34.1309-73.9746 33.9844-73.2422C32.7148-66.6016 32.8613-66.748 26.2207-65.4297C25.4395-65.332 24.9512-64.7461 24.9512-64.0137C24.9512-63.3301 25.4395-62.7441 26.2207-62.5977C32.8613-61.3281 32.7148-61.4746 33.9844-54.834C34.1309-54.1016 34.668-53.6133 35.4004-53.6133Z"/>
  </g>
  <g id="Ultralight-S" transform="matrix(1 0 0 1 512.025 696)">
   <path class="SFSymbolsPreviewWireframe" d="M67.0059-34.5928C75.7193-34.5928 82.7974-41.7163 82.7974-50.4297C82.7974-59.1431 75.7193-66.2632 67.0059-66.2632C58.2471-66.2632 51.1724-59.1431 51.1724-50.4297C51.1724-41.7163 58.2471-34.5928 67.0059-34.5928ZM52.2085-20.4697C60.8096-20.4697 67.814-27.4287 67.814-36.0752C67.814-44.7637 60.8096-51.7681 52.2085-51.7681C43.5654-51.7681 36.603-44.7637 36.603-36.0752C36.603-27.4287 43.5654-20.4697 52.2085-20.4697ZM52.2085-23.4839C59.1719-23.4839 64.7999-29.1118 64.7999-36.0752C64.7999-43.0806 59.1719-48.7539 52.2085-48.7539C45.2451-48.7539 39.6172-43.0806 39.6172-36.0752C39.6172-29.1118 45.2451-23.4839 52.2085-23.4839ZM17.8638-33.0166C22.2178-33.0166 25.9131-36.6665 25.9131-41.0693C25.9131-45.4722 22.2178-49.1187 17.8638-49.1187C13.3701-49.1187 9.76562-45.5176 9.76562-41.0693C9.76562-36.6211 13.3701-33.0166 17.8638-33.0166ZM32.2217 0.393575C37.0606 0.393575 41.0035-3.59813 41.0035-8.44043C41.0035-13.1851 37.0152-17.2222 32.2217-17.2222C27.3794-17.2222 23.4331-13.2305 23.4331-8.44043C23.4331-3.59813 27.3794 0.393575 32.2217 0.393575ZM72.3941 2.95606C72.7735 2.95606 73.1006 2.68116 73.1563 2.25293C74.8243-7.95751 74.5586-7.458 84.9497-9.5371C85.3326-9.59618 85.6075-9.87451 85.6075-10.2993C85.6075-10.7275 85.3326-11.0059 84.9463-11.1069C74.5689-13.0996 74.8208-12.666 73.1563-22.8481C73.1041-23.2798 72.7769-23.5547 72.3941-23.5547C71.9624-23.5547 71.6387-23.2764 71.5865-22.8447C69.9253-12.6377 70.1773-13.1372 59.835-11.1069C59.4068-11.0024 59.1353-10.7241 59.1353-10.2993C59.1353-9.87109 59.4102-9.59618 59.8487-9.5371C70.1773-7.48535 69.9253-7.96093 71.5865 2.24609C71.6387 2.67774 71.9624 2.95606 72.3941 2.95606ZM32.7212-51.7515C33.0869-51.7515 33.355-52.0127 33.4107-52.3819C34.771-60.7026 34.5337-60.2383 42.9453-61.9165C43.3179-62.0176 43.5757-62.2402 43.5757-62.606C43.5757-62.9751 43.3179-63.2432 42.9453-63.3408C34.5337-64.9771 34.771-64.5581 33.4107-72.8789C33.355-73.2481 33.0869-73.5093 32.7212-73.5093C32.3521-73.5093 32.042-73.2481 31.9863-72.8789C30.626-64.5581 30.8633-64.9771 22.4517-63.3408C22.0791-63.2432 21.8633-62.9751 21.8633-62.606C21.8633-62.2402 22.0791-62.0176 22.4517-61.9165C30.8633-60.2383 30.626-60.7026 31.9863-52.3819C32.042-52.0127 32.3521-51.7515 32.7212-51.7515Z"/>
  </g>
 </g>
</svg>
