<?xml version="1.0" encoding="UTF-8"?>
<!--Generator: Apple Native CoreSVG 232.5-->
<!DOCTYPE svg
PUBLIC "-//W3C//DTD SVG 1.1//EN"
       "http://www.w3.org/Graphics/SVG/1.1/DTD/svg11.dtd">
<svg version="1.1" xmlns="http://www.w3.org/2000/svg" xmlns:xlink="http://www.w3.org/1999/xlink" width="3300" height="2200">
 <!--glyph: "uni10071C.medium", point size: 100.0, font version: "19.2d2e1", template writer version: "128"-->
 <style>.SFSymbolsPreviewWireframe {fill:none;opacity:1.0;stroke:black;stroke-width:0.5}
</style>
 <g id="Notes">
  <rect height="2200" id="artboard" style="fill:white;opacity:1" width="3300" x="0" y="0"/>
  <line style="fill:none;stroke:black;opacity:1;stroke-width:0.5;" x1="263" x2="3036" y1="292" y2="292"/>
  <text style="stroke:none;fill:black;font-family:sans-serif;font-size:13;font-weight:bold;" transform="matrix(1 0 0 1 263 322)">Weight/Scale Variations</text>
  <text style="stroke:none;fill:black;font-family:sans-serif;font-size:13;text-anchor:middle;" transform="matrix(1 0 0 1 559.711 322)">Ultralight</text>
  <text style="stroke:none;fill:black;font-family:sans-serif;font-size:13;text-anchor:middle;" transform="matrix(1 0 0 1 856.422 322)">Thin</text>
  <text style="stroke:none;fill:black;font-family:sans-serif;font-size:13;text-anchor:middle;" transform="matrix(1 0 0 1 1153.13 322)">Light</text>
  <text style="stroke:none;fill:black;font-family:sans-serif;font-size:13;text-anchor:middle;" transform="matrix(1 0 0 1 1449.84 322)">Regular</text>
  <text style="stroke:none;fill:black;font-family:sans-serif;font-size:13;text-anchor:middle;" transform="matrix(1 0 0 1 1746.56 322)">Medium</text>
  <text style="stroke:none;fill:black;font-family:sans-serif;font-size:13;text-anchor:middle;" transform="matrix(1 0 0 1 2043.27 322)">Semibold</text>
  <text style="stroke:none;fill:black;font-family:sans-serif;font-size:13;text-anchor:middle;" transform="matrix(1 0 0 1 2339.98 322)">Bold</text>
  <text style="stroke:none;fill:black;font-family:sans-serif;font-size:13;text-anchor:middle;" transform="matrix(1 0 0 1 2636.69 322)">Heavy</text>
  <text style="stroke:none;fill:black;font-family:sans-serif;font-size:13;text-anchor:middle;" transform="matrix(1 0 0 1 2933.4 322)">Black</text>
  <line style="fill:none;stroke:black;opacity:1;stroke-width:0.5;" x1="263" x2="3036" y1="1903" y2="1903"/>
  <g transform="matrix(0.2 0 0 0.2 263 1933)">
   <path d="m46.2402 4.15039c21.5332 0 39.4531-17.8711 39.4531-39.4043s-17.9688-39.4043-39.502-39.4043c-21.4844 0-39.3555 17.8711-39.3555 39.4043s17.9199 39.4043 39.4043 39.4043Zm0-7.42188c-17.7246 0-31.8848-14.209-31.8848-31.9824s14.1113-31.9824 31.8359-31.9824c17.7734 0 32.0312 14.209 32.0312 31.9824s-14.209 31.9824-31.9824 31.9824Zm-17.9688-31.9824c0 2.14844 1.51367 3.61328 3.75977 3.61328h10.498v10.5957c0 2.19727 1.46484 3.71094 3.61328 3.71094 2.24609 0 3.71094-1.51367 3.71094-3.71094v-10.5957h10.5957c2.19727 0 3.71094-1.46484 3.71094-3.61328 0-2.19727-1.51367-3.71094-3.71094-3.71094h-10.5957v-10.5469c0-2.24609-1.46484-3.75977-3.71094-3.75977-2.14844 0-3.61328 1.51367-3.61328 3.75977v10.5469h-10.498c-2.24609 0-3.75977 1.51367-3.75977 3.71094Z"/>
  </g>
  <g transform="matrix(0.2 0 0 0.2 281.506 1933)">
   <path d="m58.5449 14.5508c27.2461 0 49.8047-22.6074 49.8047-49.8047 0-27.2461-22.6074-49.8047-49.8535-49.8047-27.1973 0-49.7559 22.5586-49.7559 49.8047 0 27.1973 22.6074 49.8047 49.8047 49.8047Zm0-8.30078c-23.0469 0-41.4551-18.457-41.4551-41.5039s18.3594-41.5039 41.4062-41.5039 41.5527 18.457 41.5527 41.5039-18.457 41.5039-41.5039 41.5039Zm-22.6562-41.5039c0 2.39258 1.66016 4.00391 4.15039 4.00391h14.3555v14.4043c0 2.44141 1.66016 4.15039 4.05273 4.15039 2.44141 0 4.15039-1.66016 4.15039-4.15039v-14.4043h14.4043c2.44141 0 4.15039-1.61133 4.15039-4.00391 0-2.44141-1.70898-4.15039-4.15039-4.15039h-14.4043v-14.3555c0-2.49023-1.70898-4.19922-4.15039-4.19922-2.39258 0-4.05273 1.70898-4.05273 4.19922v14.3555h-14.3555c-2.49023 0-4.15039 1.70898-4.15039 4.15039Z"/>
  </g>
  <g transform="matrix(0.2 0 0 0.2 304.924 1933)">
   <path d="m74.8535 28.3203c34.8145 0 63.623-28.8086 63.623-63.5742 0-34.8145-28.8574-63.623-63.6719-63.623-34.7656 0-63.5254 28.8086-63.5254 63.623 0 34.7656 28.8086 63.5742 63.5742 63.5742Zm0-9.08203c-30.1758 0-54.4434-24.3164-54.4434-54.4922 0-30.2246 24.2188-54.4922 54.3945-54.4922 30.2246 0 54.541 24.2676 54.541 54.4922 0 30.1758-24.2676 54.4922-54.4922 54.4922Zm-28.8574-54.4922c0 2.58789 1.85547 4.39453 4.58984 4.39453h19.7266v19.7754c0 2.68555 1.85547 4.58984 4.44336 4.58984 2.68555 0 4.54102-1.85547 4.54102-4.58984v-19.7754h19.7754c2.68555 0 4.58984-1.80664 4.58984-4.39453 0-2.73438-1.85547-4.58984-4.58984-4.58984h-19.7754v-19.7266c0-2.73438-1.85547-4.63867-4.54102-4.63867-2.58789 0-4.44336 1.9043-4.44336 4.63867v19.7266h-19.7266c-2.73438 0-4.58984 1.85547-4.58984 4.58984Z"/>
  </g>
  <text style="stroke:none;fill:black;font-family:sans-serif;font-size:13;font-weight:bold;" transform="matrix(1 0 0 1 263 1953)">Design Variations</text>
  <text style="stroke:none;fill:black;font-family:sans-serif;font-size:13;" transform="matrix(1 0 0 1 263 1971)">Symbols are supported in up to nine weights and three scales.</text>
  <text style="stroke:none;fill:black;font-family:sans-serif;font-size:13;" transform="matrix(1 0 0 1 263 1989)">For optimal layout with text and other symbols, vertically align</text>
  <text style="stroke:none;fill:black;font-family:sans-serif;font-size:13;" transform="matrix(1 0 0 1 263 2007)">symbols with the adjacent text.</text>
  <line style="fill:none;stroke:#00AEEF;stroke-width:0.5;opacity:1.0;" x1="776" x2="776" y1="1919" y2="1933"/>
  <g transform="matrix(0.2 0 0 0.2 776 1933)">
   <path d="m16.5527 0.78125c2.58789 0 3.85742-0.976562 4.78516-3.71094l6.29883-17.2363h28.8086l6.29883 17.2363c0.927734 2.73438 2.19727 3.71094 4.73633 3.71094 2.58789 0 4.24805-1.5625 4.24805-4.00391 0-0.830078-0.146484-1.61133-0.537109-2.63672l-22.9004-60.9863c-1.12305-2.97852-3.125-4.49219-6.25-4.49219-3.02734 0-5.07812 1.46484-6.15234 4.44336l-22.9004 61.084c-0.390625 1.02539-0.537109 1.80664-0.537109 2.63672 0 2.44141 1.5625 3.95508 4.10156 3.95508Zm13.4766-28.3691 11.8652-32.8613h0.244141l11.8652 32.8613Z"/>
  </g>
  <line style="fill:none;stroke:#00AEEF;stroke-width:0.5;opacity:1.0;" x1="792.836" x2="792.836" y1="1919" y2="1933"/>
  <text style="stroke:none;fill:black;font-family:sans-serif;font-size:13;font-weight:bold;" transform="matrix(1 0 0 1 776 1953)">Margins</text>
  <text style="stroke:none;fill:black;font-family:sans-serif;font-size:13;" transform="matrix(1 0 0 1 776 1971)">Leading and trailing margins on the left and right side of each symbol</text>
  <text style="stroke:none;fill:black;font-family:sans-serif;font-size:13;" transform="matrix(1 0 0 1 776 1989)">can be adjusted by modifying the x-location of the margin guidelines.</text>
  <text style="stroke:none;fill:black;font-family:sans-serif;font-size:13;" transform="matrix(1 0 0 1 776 2007)">Modifications are automatically applied proportionally to all</text>
  <text style="stroke:none;fill:black;font-family:sans-serif;font-size:13;" transform="matrix(1 0 0 1 776 2025)">scales and weights.</text>
  <g transform="matrix(0.2 0 0 0.2 1289 1933)">
   <path d="m14.209 9.32617 8.49609 8.54492c4.29688 4.3457 9.22852 4.05273 13.8672-1.07422l53.4668-58.9355-4.83398-4.88281-53.0762 58.3984c-1.75781 2.00195-3.41797 2.49023-5.76172 0.146484l-5.85938-5.81055c-2.34375-2.29492-1.80664-4.00391 0.195312-5.81055l57.373-54.0039-4.88281-4.83398-57.959 54.4434c-4.93164 4.58984-5.32227 9.47266-1.02539 13.8184Zm32.0801-90.9668c-2.09961 2.05078-2.24609 4.93164-1.07422 6.88477 1.17188 1.80664 3.4668 2.97852 6.68945 2.14844 7.32422-1.70898 14.9414-2.00195 22.0703 2.68555l-2.92969 7.27539c-1.70898 4.15039-0.830078 7.08008 1.85547 9.81445l11.4746 11.5723c2.44141 2.44141 4.49219 2.53906 7.32422 2.05078l5.32227-0.976562 3.32031 3.36914-0.195312 2.7832c-0.195312 2.49023 0.439453 4.39453 2.88086 6.78711l3.80859 3.71094c2.39258 2.39258 5.46875 2.53906 7.8125 0.195312l14.5508-14.5996c2.34375-2.34375 2.24609-5.32227-0.146484-7.71484l-3.85742-3.80859c-2.39258-2.39258-4.24805-3.17383-6.64062-2.97852l-2.88086 0.244141-3.22266-3.17383 1.2207-5.61523c0.634766-2.83203-0.146484-5.0293-3.07617-7.95898l-10.9863-10.9375c-16.6992-16.6016-38.8672-16.2109-53.3203-1.75781Zm7.4707 1.85547c12.1582-8.88672 28.6133-7.37305 39.7461 3.75977l12.1582 12.0605c1.17188 1.17188 1.36719 2.09961 1.02539 3.80859l-1.61133 7.42188 7.51953 7.42188 4.93164-0.292969c1.26953-0.0488281 1.66016 0.0488281 2.63672 1.02539l2.88086 2.88086-12.207 12.207-2.88086-2.88086c-0.976562-0.976562-1.12305-1.36719-1.07422-2.68555l0.341797-4.88281-7.4707-7.42188-7.61719 1.26953c-1.61133 0.341797-2.34375 0.195312-3.56445-0.976562l-10.0098-10.0098c-1.26953-1.17188-1.41602-2.00195-0.634766-3.85742l4.39453-10.4492c-7.8125-7.27539-17.9688-10.4004-28.125-7.42188-0.78125 0.195312-1.07422-0.439453-0.439453-0.976562Z"/>
  </g>
  <text style="stroke:none;fill:black;font-family:sans-serif;font-size:13;font-weight:bold;" transform="matrix(1 0 0 1 1289 1953)">Exporting</text>
  <text style="stroke:none;fill:black;font-family:sans-serif;font-size:13;" transform="matrix(1 0 0 1 1289 1971)">Symbols should be outlined when exporting to ensure the</text>
  <text style="stroke:none;fill:black;font-family:sans-serif;font-size:13;" transform="matrix(1 0 0 1 1289 1989)">design is preserved when submitting to Xcode.</text>
  <text id="template-version" style="stroke:none;fill:black;font-family:sans-serif;font-size:13;text-anchor:end;" transform="matrix(1 0 0 1 3036 1933)">Template v.5.0</text>
  <text style="stroke:none;fill:black;font-family:sans-serif;font-size:13;text-anchor:end;" transform="matrix(1 0 0 1 3036 1951)">Requires Xcode 15 or greater</text>
  <text id="descriptive-name" style="stroke:none;fill:black;font-family:sans-serif;font-size:13;text-anchor:end;" transform="matrix(1 0 0 1 3036 1969)">Generated from bus.doubledecker.fill</text>
  <text style="stroke:none;fill:black;font-family:sans-serif;font-size:13;text-anchor:end;" transform="matrix(1 0 0 1 3036 1987)">Typeset at 100.0 points</text>
  <text style="stroke:none;fill:black;font-family:sans-serif;font-size:13;" transform="matrix(1 0 0 1 263 726)">Small</text>
  <text style="stroke:none;fill:black;font-family:sans-serif;font-size:13;" transform="matrix(1 0 0 1 263 1156)">Medium</text>
  <text style="stroke:none;fill:black;font-family:sans-serif;font-size:13;" transform="matrix(1 0 0 1 263 1586)">Large</text>
 </g>
 <g id="Guides">
  <g id="H-reference" style="fill:#27AAE1;stroke:none;" transform="matrix(1 0 0 1 339 696)">
   <path d="M0.993654 0L3.63775 0L29.3281-67.1323L30.0303-67.1323L30.0303-70.459L28.1226-70.459ZM11.6885-24.4799L46.9815-24.4799L46.2315-26.7285L12.4385-26.7285ZM55.1196 0L57.7637 0L30.6382-70.459L29.4326-70.459L29.4326-67.1323Z"/>
  </g>
  <line id="Baseline-S" style="fill:none;stroke:#27AAE1;opacity:1;stroke-width:0.5;" x1="263" x2="3036" y1="696" y2="696"/>
  <line id="Capline-S" style="fill:none;stroke:#27AAE1;opacity:1;stroke-width:0.5;" x1="263" x2="3036" y1="625.541" y2="625.541"/>
  <g id="H-reference" style="fill:#27AAE1;stroke:none;" transform="matrix(1 0 0 1 339 1126)">
   <path d="M0.993654 0L3.63775 0L29.3281-67.1323L30.0303-67.1323L30.0303-70.459L28.1226-70.459ZM11.6885-24.4799L46.9815-24.4799L46.2315-26.7285L12.4385-26.7285ZM55.1196 0L57.7637 0L30.6382-70.459L29.4326-70.459L29.4326-67.1323Z"/>
  </g>
  <line id="Baseline-M" style="fill:none;stroke:#27AAE1;opacity:1;stroke-width:0.5;" x1="263" x2="3036" y1="1126" y2="1126"/>
  <line id="Capline-M" style="fill:none;stroke:#27AAE1;opacity:1;stroke-width:0.5;" x1="263" x2="3036" y1="1055.54" y2="1055.54"/>
  <g id="H-reference" style="fill:#27AAE1;stroke:none;" transform="matrix(1 0 0 1 339 1556)">
   <path d="M0.993654 0L3.63775 0L29.3281-67.1323L30.0303-67.1323L30.0303-70.459L28.1226-70.459ZM11.6885-24.4799L46.9815-24.4799L46.2315-26.7285L12.4385-26.7285ZM55.1196 0L57.7637 0L30.6382-70.459L29.4326-70.459L29.4326-67.1323Z"/>
  </g>
  <line id="Baseline-L" style="fill:none;stroke:#27AAE1;opacity:1;stroke-width:0.5;" x1="263" x2="3036" y1="1556" y2="1556"/>
  <line id="Capline-L" style="fill:none;stroke:#27AAE1;opacity:1;stroke-width:0.5;" x1="263" x2="3036" y1="1485.54" y2="1485.54"/>
  <line id="left-margin-Ultralight-S" style="fill:none;stroke:#00AEEF;stroke-width:0.5;opacity:1.0;" x1="512.84" x2="512.84" y1="600.785" y2="720.121"/>
  <line id="right-margin-Ultralight-S" style="fill:none;stroke:#00AEEF;stroke-width:0.5;opacity:1.0;" x1="606.582" x2="606.582" y1="600.785" y2="720.121"/>
  <line id="left-margin-Regular-S" style="fill:none;stroke:#00AEEF;stroke-width:0.5;opacity:1.0;" x1="1399.45" x2="1399.45" y1="600.785" y2="720.121"/>
  <line id="right-margin-Regular-S" style="fill:none;stroke:#00AEEF;stroke-width:0.5;opacity:1.0;" x1="1500.24" x2="1500.24" y1="600.785" y2="720.121"/>
  <line id="left-margin-Black-S" style="fill:none;stroke:#00AEEF;stroke-width:0.5;opacity:1.0;" x1="2873.73" x2="2873.73" y1="600.785" y2="720.121"/>
  <line id="right-margin-Black-S" style="fill:none;stroke:#00AEEF;stroke-width:0.5;opacity:1.0;" x1="2993.07" x2="2993.07" y1="600.785" y2="720.121"/>
 </g>
 <g id="Symbols">
  <g id="Black-S" transform="matrix(1 0 0 1 2873.73 696)">
   <path class="SFSymbolsPreviewWireframe" d="M18.3594 8.39844C18.3594 13.7695 20.8496 16.2598 26.2695 16.2598L31.3477 16.2598C36.7676 16.2598 39.2578 13.7695 39.2578 8.39844L39.2578 3.85742C44.7754 4.29688 52.1973 4.54102 59.668 4.54102C67.1387 4.54102 74.5605 4.29688 80.0781 3.85742L80.0781 8.39844C80.0781 13.7695 82.5684 16.2598 87.9883 16.2598L93.0664 16.2598C98.4863 16.2598 100.977 13.7695 100.977 8.39844L100.977-77.1973C100.977-84.4727 97.1191-89.4043 89.5996-90.8203C82.959-92.041 71.6797-92.6758 59.668-92.6758C47.6562-92.6758 36.377-92.041 29.7363-90.8203C22.2168-89.4043 18.3594-84.4727 18.3594-77.1973ZM29.6875-55.5176L29.6875-74.2676C29.6875-77.4414 30.9082-79.1504 33.4961-79.7363C38.2812-80.8105 48.0957-81.3477 59.668-81.3477C71.2402-81.3477 81.0547-80.8105 85.8398-79.7363C88.4277-79.1504 89.6484-77.4414 89.6484-74.2676L89.6484-55.5176ZM29.6875-47.2168L89.6484-47.2168L89.6484-32.4219C89.6484-29.248 88.4277-27.5391 85.8398-26.9531C81.0059-25.8789 71.6797-25.3906 59.668-25.3906C47.6562-25.3906 38.3301-25.8789 33.4961-26.9531C30.9082-27.5391 29.6875-29.248 29.6875-32.4219ZM35.0098-7.12891C32.0312-7.12891 29.6875-9.47266 29.6875-12.4512C29.6875-15.4297 32.0312-17.7734 35.0098-17.7734C37.9883-17.7734 40.332-15.4297 40.332-12.4512C40.332-9.47266 37.9883-7.12891 35.0098-7.12891ZM51.5137-8.1543C48.9746-8.1543 47.1191-10.0098 47.1191-12.5C47.1191-15.0391 48.9746-16.8457 51.5137-16.8457L67.8223-16.8457C70.3613-16.8457 72.2168-15.0391 72.2168-12.5C72.2168-10.0098 70.3613-8.1543 67.8223-8.1543ZM84.4238-7.12891C81.4453-7.12891 79.1016-9.47266 79.1016-12.4512C79.1016-15.4297 81.4453-17.7734 84.4238-17.7734C87.4023-17.7734 89.7461-15.4297 89.7461-12.4512C89.7461-9.47266 87.4023-7.12891 84.4238-7.12891ZM23.8281-37.207L23.8281-65.0879L16.5039-65.0879C12.6953-65.0879 9.76562-62.4023 9.76562-58.6914L9.76562-43.6035C9.76562-39.8926 12.6953-37.207 16.5039-37.207ZM95.5078-37.207L102.832-37.207C106.641-37.207 109.57-39.8926 109.57-43.6035L109.57-58.6914C109.57-62.4023 106.641-65.0879 102.832-65.0879L95.5078-65.0879Z"/>
  </g>
  <g id="Regular-S" transform="matrix(1 0 0 1 1399.45 696)">
   <path class="SFSymbolsPreviewWireframe" d="M15.332 6.20117C15.332 9.08203 17.5781 11.3281 20.5078 11.3281L25.0488 11.3281C27.9785 11.3281 30.2246 9.08203 30.2246 6.20117L30.2246-0.244141C38.0859 0.292969 44.2383 0.585938 50.3906 0.585938C56.543 0.585938 62.6465 0.341797 70.5566-0.244141L70.5566 6.20117C70.5566 9.08203 72.7539 11.3281 75.6836 11.3281L80.2734 11.3281C83.1543 11.3281 85.4004 9.08203 85.4004 6.20117L85.4004-72.0215C85.4004-77.0508 82.4219-80.0781 77.0508-80.7129C68.9453-81.6406 59.668-82.1289 50.3906-82.1289C41.1621-82.1289 31.9336-81.6406 23.7305-80.7129C18.3105-80.0781 15.332-77.0508 15.332-72.0215ZM22.6074-51.1719L22.6074-68.7988C22.6074-71.5332 24.0723-73.2422 26.5137-73.5352C34.2285-74.4629 42.334-74.9023 50.3906-74.9023C58.4473-74.9023 66.5527-74.4141 74.2676-73.5352C76.7578-73.2422 78.2227-71.5332 78.2227-68.7988L78.2227-51.1719ZM22.6074-45.0195L78.2227-45.0195L78.2227-28.418C78.2227-25.6836 76.7578-23.9746 74.2676-23.6816C66.6016-22.8027 58.4961-22.3145 50.3906-22.3145C42.2852-22.3145 34.1797-22.7539 26.5137-23.6816C24.0723-23.9746 22.6074-25.6836 22.6074-28.418ZM29.9316-7.03125C27.2461-7.03125 25.1465-9.13086 25.1465-11.8164C25.1465-14.5508 27.2461-16.6504 29.9316-16.6504C32.666-16.6504 34.7656-14.5508 34.7656-11.8164C34.7656-9.13086 32.666-7.03125 29.9316-7.03125ZM44.0918-8.49609C42.1875-8.49609 40.7227-9.96094 40.7227-11.8652C40.7227-13.8184 42.1387-15.1855 44.0918-15.1855L56.6406-15.1855C58.6426-15.1855 60.0098-13.8184 60.0098-11.8652C60.0098-9.96094 58.5938-8.49609 56.6406-8.49609ZM70.8008-7.03125C68.1152-7.03125 66.0156-9.13086 66.0156-11.8164C66.0156-14.5508 68.1152-16.6504 70.8008-16.6504C73.4863-16.6504 75.6348-14.5508 75.6348-11.8164C75.6348-9.13086 73.4863-7.03125 70.8008-7.03125ZM18.1641-35.8887L18.1641-55.8105L13.6719-55.8105C11.4258-55.8105 9.76562-54.3945 9.76562-52.2461L9.76562-39.502C9.76562-37.3535 11.4258-35.8887 13.6719-35.8887ZM82.5684-35.8887L87.0605-35.8887C89.3555-35.8887 91.0156-37.3535 91.0156-39.502L91.0156-52.2461C91.0156-54.3945 89.3555-55.8105 87.0605-55.8105L82.5684-55.8105Z"/>
  </g>
  <g id="Ultralight-S" transform="matrix(1 0 0 1 512.84 696)">
   <path class="SFSymbolsPreviewWireframe" d="M14.0151 2.11429C14.0151 4.72269 16.0796 6.83255 18.7368 6.83255L22.96 6.83255C25.6172 6.83255 27.6817 4.7681 27.6817 2.11429L27.6817-3.7861C33.9082-3.33982 40.3784-3.09226 46.8033-3.09226C53.2281-3.09226 59.7403-3.3364 65.9703-3.7861L65.9703 2.11429C65.9703 4.7681 68.0313 6.83255 70.6885 6.83255L74.8697 6.83255C77.5235 6.83255 79.5879 4.72269 79.5879 2.11429L79.5879-74.7461C79.5879-79.1396 76.9727-81.2134 72.7823-81.6665C64.7676-82.5942 55.6265-83.0825 46.8033-83.0825C37.9834-83.0825 28.8911-82.5942 20.8697-81.6665C16.6304-81.2134 14.0151-79.1396 14.0151-74.7461ZM20.0191-53.0337L20.0191-72.3862C20.0191-74.4394 21.2114-75.7851 23.1988-75.9873C32.0943-76.8696 39.5186-77.3091 46.8033-77.3091C54.1333-77.3091 61.5577-76.8662 70.4077-75.9873C72.4439-75.7851 73.6363-74.4394 73.6363-72.3862L73.6363-53.0337ZM20.0191-49.9238L73.6363-49.9238L73.6363-30.5068C73.6363-28.4082 72.4439-27.0625 70.4077-26.9057C62.6963-26.1176 54.7271-25.7202 46.8033-25.7202C38.8794-25.7202 30.9102-26.1142 23.1988-26.9057C21.2114-27.0625 20.0191-28.4082 20.0191-30.5068ZM26.0718-12.7529C23.9766-12.7529 22.4673-14.2168 22.4673-16.312C22.4673-18.4106 23.9766-19.9653 26.0718-19.9653C28.1704-19.9653 29.6797-18.4106 29.6797-16.312C29.6797-14.2168 28.1704-12.7529 26.0718-12.7529ZM38.5064-13.7636C37.0108-13.7636 35.9546-14.7744 35.9546-16.3154C35.9546-17.8598 37.0074-18.9092 38.5064-18.9092L55.0967-18.9092C56.6445-18.9092 57.6939-17.8598 57.6939-16.3154C57.6939-14.7744 56.6411-13.7636 55.0967-13.7636ZM67.6221-12.7529C65.5723-12.7529 64.063-14.2168 64.063-16.312C64.063-18.4106 65.5723-19.9653 67.6221-19.9653C69.7173-19.9653 71.2754-18.4106 71.2754-16.312C71.2754-14.2168 69.7173-12.7529 67.6221-12.7529ZM15.1216-42.1098L15.1216-61.0781L12.1734-61.0781C10.563-61.0781 9.76562-60.207 9.76562-58.7851L9.76562-44.3608C9.76562-42.9843 10.563-42.1098 12.1734-42.1098ZM78.6177-42.1098L81.5206-42.1098C83.1797-42.1098 83.9771-42.9843 83.9771-44.3608L83.9771-58.7851C83.9771-60.207 83.1797-61.0781 81.5206-61.0781L78.6177-61.0781Z"/>
  </g>
 </g>
</svg>
