<?xml version="1.0" encoding="UTF-8"?>
<!--Generator: Apple Native CoreSVG 232.5-->
<!DOCTYPE svg
PUBLIC "-//W3C//DTD SVG 1.1//EN"
       "http://www.w3.org/Graphics/SVG/1.1/DTD/svg11.dtd">
<svg version="1.1" xmlns="http://www.w3.org/2000/svg" xmlns:xlink="http://www.w3.org/1999/xlink" width="3300" height="2200">
 <!--glyph: "uni10048F.medium", point size: 100.0, font version: "19.2d2e1", template writer version: "128"-->
 <style>.SFSymbolsPreviewWireframe {fill:none;opacity:1.0;stroke:black;stroke-width:0.5}
</style>
 <g id="Notes">
  <rect height="2200" id="artboard" style="fill:white;opacity:1" width="3300" x="0" y="0"/>
  <line style="fill:none;stroke:black;opacity:1;stroke-width:0.5;" x1="263" x2="3036" y1="292" y2="292"/>
  <text style="stroke:none;fill:black;font-family:sans-serif;font-size:13;font-weight:bold;" transform="matrix(1 0 0 1 263 322)">Weight/Scale Variations</text>
  <text style="stroke:none;fill:black;font-family:sans-serif;font-size:13;text-anchor:middle;" transform="matrix(1 0 0 1 559.711 322)">Ultralight</text>
  <text style="stroke:none;fill:black;font-family:sans-serif;font-size:13;text-anchor:middle;" transform="matrix(1 0 0 1 856.422 322)">Thin</text>
  <text style="stroke:none;fill:black;font-family:sans-serif;font-size:13;text-anchor:middle;" transform="matrix(1 0 0 1 1153.13 322)">Light</text>
  <text style="stroke:none;fill:black;font-family:sans-serif;font-size:13;text-anchor:middle;" transform="matrix(1 0 0 1 1449.84 322)">Regular</text>
  <text style="stroke:none;fill:black;font-family:sans-serif;font-size:13;text-anchor:middle;" transform="matrix(1 0 0 1 1746.56 322)">Medium</text>
  <text style="stroke:none;fill:black;font-family:sans-serif;font-size:13;text-anchor:middle;" transform="matrix(1 0 0 1 2043.27 322)">Semibold</text>
  <text style="stroke:none;fill:black;font-family:sans-serif;font-size:13;text-anchor:middle;" transform="matrix(1 0 0 1 2339.98 322)">Bold</text>
  <text style="stroke:none;fill:black;font-family:sans-serif;font-size:13;text-anchor:middle;" transform="matrix(1 0 0 1 2636.69 322)">Heavy</text>
  <text style="stroke:none;fill:black;font-family:sans-serif;font-size:13;text-anchor:middle;" transform="matrix(1 0 0 1 2933.4 322)">Black</text>
  <line style="fill:none;stroke:black;opacity:1;stroke-width:0.5;" x1="263" x2="3036" y1="1903" y2="1903"/>
  <g transform="matrix(0.2 0 0 0.2 263 1933)">
   <path d="m46.2402 4.15039c21.5332 0 39.4531-17.8711 39.4531-39.4043s-17.9688-39.4043-39.502-39.4043c-21.4844 0-39.3555 17.8711-39.3555 39.4043s17.9199 39.4043 39.4043 39.4043Zm0-7.42188c-17.7246 0-31.8848-14.209-31.8848-31.9824s14.1113-31.9824 31.8359-31.9824c17.7734 0 32.0312 14.209 32.0312 31.9824s-14.209 31.9824-31.9824 31.9824Zm-17.9688-31.9824c0 2.14844 1.51367 3.61328 3.75977 3.61328h10.498v10.5957c0 2.19727 1.46484 3.71094 3.61328 3.71094 2.24609 0 3.71094-1.51367 3.71094-3.71094v-10.5957h10.5957c2.19727 0 3.71094-1.46484 3.71094-3.61328 0-2.19727-1.51367-3.71094-3.71094-3.71094h-10.5957v-10.5469c0-2.24609-1.46484-3.75977-3.71094-3.75977-2.14844 0-3.61328 1.51367-3.61328 3.75977v10.5469h-10.498c-2.24609 0-3.75977 1.51367-3.75977 3.71094Z"/>
  </g>
  <g transform="matrix(0.2 0 0 0.2 281.506 1933)">
   <path d="m58.5449 14.5508c27.2461 0 49.8047-22.6074 49.8047-49.8047 0-27.2461-22.6074-49.8047-49.8535-49.8047-27.1973 0-49.7559 22.5586-49.7559 49.8047 0 27.1973 22.6074 49.8047 49.8047 49.8047Zm0-8.30078c-23.0469 0-41.4551-18.457-41.4551-41.5039s18.3594-41.5039 41.4062-41.5039 41.5527 18.457 41.5527 41.5039-18.457 41.5039-41.5039 41.5039Zm-22.6562-41.5039c0 2.39258 1.66016 4.00391 4.15039 4.00391h14.3555v14.4043c0 2.44141 1.66016 4.15039 4.05273 4.15039 2.44141 0 4.15039-1.66016 4.15039-4.15039v-14.4043h14.4043c2.44141 0 4.15039-1.61133 4.15039-4.00391 0-2.44141-1.70898-4.15039-4.15039-4.15039h-14.4043v-14.3555c0-2.49023-1.70898-4.19922-4.15039-4.19922-2.39258 0-4.05273 1.70898-4.05273 4.19922v14.3555h-14.3555c-2.49023 0-4.15039 1.70898-4.15039 4.15039Z"/>
  </g>
  <g transform="matrix(0.2 0 0 0.2 304.924 1933)">
   <path d="m74.8535 28.3203c34.8145 0 63.623-28.8086 63.623-63.5742 0-34.8145-28.8574-63.623-63.6719-63.623-34.7656 0-63.5254 28.8086-63.5254 63.623 0 34.7656 28.8086 63.5742 63.5742 63.5742Zm0-9.08203c-30.1758 0-54.4434-24.3164-54.4434-54.4922 0-30.2246 24.2188-54.4922 54.3945-54.4922 30.2246 0 54.541 24.2676 54.541 54.4922 0 30.1758-24.2676 54.4922-54.4922 54.4922Zm-28.8574-54.4922c0 2.58789 1.85547 4.39453 4.58984 4.39453h19.7266v19.7754c0 2.68555 1.85547 4.58984 4.44336 4.58984 2.68555 0 4.54102-1.85547 4.54102-4.58984v-19.7754h19.7754c2.68555 0 4.58984-1.80664 4.58984-4.39453 0-2.73438-1.85547-4.58984-4.58984-4.58984h-19.7754v-19.7266c0-2.73438-1.85547-4.63867-4.54102-4.63867-2.58789 0-4.44336 1.9043-4.44336 4.63867v19.7266h-19.7266c-2.73438 0-4.58984 1.85547-4.58984 4.58984Z"/>
  </g>
  <text style="stroke:none;fill:black;font-family:sans-serif;font-size:13;font-weight:bold;" transform="matrix(1 0 0 1 263 1953)">Design Variations</text>
  <text style="stroke:none;fill:black;font-family:sans-serif;font-size:13;" transform="matrix(1 0 0 1 263 1971)">Symbols are supported in up to nine weights and three scales.</text>
  <text style="stroke:none;fill:black;font-family:sans-serif;font-size:13;" transform="matrix(1 0 0 1 263 1989)">For optimal layout with text and other symbols, vertically align</text>
  <text style="stroke:none;fill:black;font-family:sans-serif;font-size:13;" transform="matrix(1 0 0 1 263 2007)">symbols with the adjacent text.</text>
  <line style="fill:none;stroke:#00AEEF;stroke-width:0.5;opacity:1.0;" x1="776" x2="776" y1="1919" y2="1933"/>
  <g transform="matrix(0.2 0 0 0.2 776 1933)">
   <path d="m16.5527 0.78125c2.58789 0 3.85742-0.976562 4.78516-3.71094l6.29883-17.2363h28.8086l6.29883 17.2363c0.927734 2.73438 2.19727 3.71094 4.73633 3.71094 2.58789 0 4.24805-1.5625 4.24805-4.00391 0-0.830078-0.146484-1.61133-0.537109-2.63672l-22.9004-60.9863c-1.12305-2.97852-3.125-4.49219-6.25-4.49219-3.02734 0-5.07812 1.46484-6.15234 4.44336l-22.9004 61.084c-0.390625 1.02539-0.537109 1.80664-0.537109 2.63672 0 2.44141 1.5625 3.95508 4.10156 3.95508Zm13.4766-28.3691 11.8652-32.8613h0.244141l11.8652 32.8613Z"/>
  </g>
  <line style="fill:none;stroke:#00AEEF;stroke-width:0.5;opacity:1.0;" x1="792.836" x2="792.836" y1="1919" y2="1933"/>
  <text style="stroke:none;fill:black;font-family:sans-serif;font-size:13;font-weight:bold;" transform="matrix(1 0 0 1 776 1953)">Margins</text>
  <text style="stroke:none;fill:black;font-family:sans-serif;font-size:13;" transform="matrix(1 0 0 1 776 1971)">Leading and trailing margins on the left and right side of each symbol</text>
  <text style="stroke:none;fill:black;font-family:sans-serif;font-size:13;" transform="matrix(1 0 0 1 776 1989)">can be adjusted by modifying the x-location of the margin guidelines.</text>
  <text style="stroke:none;fill:black;font-family:sans-serif;font-size:13;" transform="matrix(1 0 0 1 776 2007)">Modifications are automatically applied proportionally to all</text>
  <text style="stroke:none;fill:black;font-family:sans-serif;font-size:13;" transform="matrix(1 0 0 1 776 2025)">scales and weights.</text>
  <g transform="matrix(0.2 0 0 0.2 1289 1933)">
   <path d="m14.209 9.32617 8.49609 8.54492c4.29688 4.3457 9.22852 4.05273 13.8672-1.07422l53.4668-58.9355-4.83398-4.88281-53.0762 58.3984c-1.75781 2.00195-3.41797 2.49023-5.76172 0.146484l-5.85938-5.81055c-2.34375-2.29492-1.80664-4.00391 0.195312-5.81055l57.373-54.0039-4.88281-4.83398-57.959 54.4434c-4.93164 4.58984-5.32227 9.47266-1.02539 13.8184Zm32.0801-90.9668c-2.09961 2.05078-2.24609 4.93164-1.07422 6.88477 1.17188 1.80664 3.4668 2.97852 6.68945 2.14844 7.32422-1.70898 14.9414-2.00195 22.0703 2.68555l-2.92969 7.27539c-1.70898 4.15039-0.830078 7.08008 1.85547 9.81445l11.4746 11.5723c2.44141 2.44141 4.49219 2.53906 7.32422 2.05078l5.32227-0.976562 3.32031 3.36914-0.195312 2.7832c-0.195312 2.49023 0.439453 4.39453 2.88086 6.78711l3.80859 3.71094c2.39258 2.39258 5.46875 2.53906 7.8125 0.195312l14.5508-14.5996c2.34375-2.34375 2.24609-5.32227-0.146484-7.71484l-3.85742-3.80859c-2.39258-2.39258-4.24805-3.17383-6.64062-2.97852l-2.88086 0.244141-3.22266-3.17383 1.2207-5.61523c0.634766-2.83203-0.146484-5.0293-3.07617-7.95898l-10.9863-10.9375c-16.6992-16.6016-38.8672-16.2109-53.3203-1.75781Zm7.4707 1.85547c12.1582-8.88672 28.6133-7.37305 39.7461 3.75977l12.1582 12.0605c1.17188 1.17188 1.36719 2.09961 1.02539 3.80859l-1.61133 7.42188 7.51953 7.42188 4.93164-0.292969c1.26953-0.0488281 1.66016 0.0488281 2.63672 1.02539l2.88086 2.88086-12.207 12.207-2.88086-2.88086c-0.976562-0.976562-1.12305-1.36719-1.07422-2.68555l0.341797-4.88281-7.4707-7.42188-7.61719 1.26953c-1.61133 0.341797-2.34375 0.195312-3.56445-0.976562l-10.0098-10.0098c-1.26953-1.17188-1.41602-2.00195-0.634766-3.85742l4.39453-10.4492c-7.8125-7.27539-17.9688-10.4004-28.125-7.42188-0.78125 0.195312-1.07422-0.439453-0.439453-0.976562Z"/>
  </g>
  <text style="stroke:none;fill:black;font-family:sans-serif;font-size:13;font-weight:bold;" transform="matrix(1 0 0 1 1289 1953)">Exporting</text>
  <text style="stroke:none;fill:black;font-family:sans-serif;font-size:13;" transform="matrix(1 0 0 1 1289 1971)">Symbols should be outlined when exporting to ensure the</text>
  <text style="stroke:none;fill:black;font-family:sans-serif;font-size:13;" transform="matrix(1 0 0 1 1289 1989)">design is preserved when submitting to Xcode.</text>
  <text id="template-version" style="stroke:none;fill:black;font-family:sans-serif;font-size:13;text-anchor:end;" transform="matrix(1 0 0 1 3036 1933)">Template v.5.0</text>
  <text style="stroke:none;fill:black;font-family:sans-serif;font-size:13;text-anchor:end;" transform="matrix(1 0 0 1 3036 1951)">Requires Xcode 15 or greater</text>
  <text id="descriptive-name" style="stroke:none;fill:black;font-family:sans-serif;font-size:13;text-anchor:end;" transform="matrix(1 0 0 1 3036 1969)">Generated from calendar.circle.fill</text>
  <text style="stroke:none;fill:black;font-family:sans-serif;font-size:13;text-anchor:end;" transform="matrix(1 0 0 1 3036 1987)">Typeset at 100.0 points</text>
  <text style="stroke:none;fill:black;font-family:sans-serif;font-size:13;" transform="matrix(1 0 0 1 263 726)">Small</text>
  <text style="stroke:none;fill:black;font-family:sans-serif;font-size:13;" transform="matrix(1 0 0 1 263 1156)">Medium</text>
  <text style="stroke:none;fill:black;font-family:sans-serif;font-size:13;" transform="matrix(1 0 0 1 263 1586)">Large</text>
 </g>
 <g id="Guides">
  <g id="H-reference" style="fill:#27AAE1;stroke:none;" transform="matrix(1 0 0 1 339 696)">
   <path d="M0.993654 0L3.63775 0L29.3281-67.1323L30.0303-67.1323L30.0303-70.459L28.1226-70.459ZM11.6885-24.4799L46.9815-24.4799L46.2315-26.7285L12.4385-26.7285ZM55.1196 0L57.7637 0L30.6382-70.459L29.4326-70.459L29.4326-67.1323Z"/>
  </g>
  <line id="Baseline-S" style="fill:none;stroke:#27AAE1;opacity:1;stroke-width:0.5;" x1="263" x2="3036" y1="696" y2="696"/>
  <line id="Capline-S" style="fill:none;stroke:#27AAE1;opacity:1;stroke-width:0.5;" x1="263" x2="3036" y1="625.541" y2="625.541"/>
  <g id="H-reference" style="fill:#27AAE1;stroke:none;" transform="matrix(1 0 0 1 339 1126)">
   <path d="M0.993654 0L3.63775 0L29.3281-67.1323L30.0303-67.1323L30.0303-70.459L28.1226-70.459ZM11.6885-24.4799L46.9815-24.4799L46.2315-26.7285L12.4385-26.7285ZM55.1196 0L57.7637 0L30.6382-70.459L29.4326-70.459L29.4326-67.1323Z"/>
  </g>
  <line id="Baseline-M" style="fill:none;stroke:#27AAE1;opacity:1;stroke-width:0.5;" x1="263" x2="3036" y1="1126" y2="1126"/>
  <line id="Capline-M" style="fill:none;stroke:#27AAE1;opacity:1;stroke-width:0.5;" x1="263" x2="3036" y1="1055.54" y2="1055.54"/>
  <g id="H-reference" style="fill:#27AAE1;stroke:none;" transform="matrix(1 0 0 1 339 1556)">
   <path d="M0.993654 0L3.63775 0L29.3281-67.1323L30.0303-67.1323L30.0303-70.459L28.1226-70.459ZM11.6885-24.4799L46.9815-24.4799L46.2315-26.7285L12.4385-26.7285ZM55.1196 0L57.7637 0L30.6382-70.459L29.4326-70.459L29.4326-67.1323Z"/>
  </g>
  <line id="Baseline-L" style="fill:none;stroke:#27AAE1;opacity:1;stroke-width:0.5;" x1="263" x2="3036" y1="1556" y2="1556"/>
  <line id="Capline-L" style="fill:none;stroke:#27AAE1;opacity:1;stroke-width:0.5;" x1="263" x2="3036" y1="1485.54" y2="1485.54"/>
  <line id="left-margin-Ultralight-S" style="fill:none;stroke:#00AEEF;stroke-width:0.5;opacity:1.0;" x1="515.649" x2="515.649" y1="600.785" y2="720.121"/>
  <line id="right-margin-Ultralight-S" style="fill:none;stroke:#00AEEF;stroke-width:0.5;opacity:1.0;" x1="603.773" x2="603.773" y1="600.785" y2="720.121"/>
  <line id="left-margin-Regular-S" style="fill:none;stroke:#00AEEF;stroke-width:0.5;opacity:1.0;" x1="1403.58" x2="1403.58" y1="600.785" y2="720.121"/>
  <line id="right-margin-Regular-S" style="fill:none;stroke:#00AEEF;stroke-width:0.5;opacity:1.0;" x1="1496.11" x2="1496.11" y1="600.785" y2="720.121"/>
  <line id="left-margin-Black-S" style="fill:none;stroke:#00AEEF;stroke-width:0.5;opacity:1.0;" x1="2884.57" x2="2884.57" y1="600.785" y2="720.121"/>
  <line id="right-margin-Black-S" style="fill:none;stroke:#00AEEF;stroke-width:0.5;opacity:1.0;" x1="2982.23" x2="2982.23" y1="600.785" y2="720.121"/>
 </g>
 <g id="Symbols">
  <g id="Black-S" transform="matrix(1 0 0 1 2884.57 696)">
   <path class="SFSymbolsPreviewWireframe" d="M48.8281 6.83594C71.9727 6.83594 90.8203-12.0117 90.8203-35.1562C90.8203-58.3008 71.9727-77.1484 48.8281-77.1484C25.6836-77.1484 6.83594-58.3008 6.83594-35.1562C6.83594-12.0117 25.6836 6.83594 48.8281 6.83594ZM35.6445-16.748C31.0547-16.748 28.2715-19.4824 28.2715-24.0723L28.2715-46.2402C28.2715-50.8301 31.0547-53.5645 35.6445-53.5645L62.0117-53.5645C66.6016-53.5645 69.3848-50.8301 69.3848-46.2402L69.3848-24.0723C69.3848-19.4824 66.6016-16.748 62.0117-16.748ZM36.7676-23.584L60.8887-23.584C62.0117-23.584 62.5-24.0234 62.5-25.1953L62.5-40.4297C62.5-41.6016 62.0117-41.9922 60.8887-41.9922L36.7676-41.9922C35.6445-41.9922 35.1562-41.6016 35.1562-40.4297L35.1562-25.1953C35.1562-24.0234 35.6445-23.584 36.7676-23.584ZM45.4102-36.4746C44.4824-36.4746 44.2871-36.7676 44.2871-37.5977L44.2871-38.916C44.2871-39.7949 44.4824-39.9902 45.4102-39.9902L46.7285-39.9902C47.5098-39.9902 47.8027-39.7949 47.8027-38.916L47.8027-37.5977C47.8027-36.7676 47.5098-36.4746 46.7285-36.4746ZM50.9277-36.4746C50.1465-36.4746 49.8535-36.7676 49.8535-37.5977L49.8535-38.916C49.8535-39.7949 50.1465-39.9902 50.9277-39.9902L52.2461-39.9902C53.1738-39.9902 53.3691-39.7949 53.3691-38.916L53.3691-37.5977C53.3691-36.7676 53.1738-36.4746 52.2461-36.4746ZM56.543-36.4746C55.6641-36.4746 55.3711-36.7676 55.3711-37.5977L55.3711-38.916C55.3711-39.7949 55.6641-39.9902 56.543-39.9902L57.8125-39.9902C58.6426-39.9902 58.9355-39.7949 58.9355-38.916L58.9355-37.5977C58.9355-36.7676 58.6426-36.4746 57.8125-36.4746ZM39.8438-31.0547C39.0137-31.0547 38.7207-31.3477 38.7207-32.1289L38.7207-33.3984C38.7207-34.2773 39.0137-34.5215 39.8438-34.5215L41.1133-34.5215C41.9922-34.5215 42.2852-34.2773 42.2852-33.3984L42.2852-32.1289C42.2852-31.3477 41.9922-31.0547 41.1133-31.0547ZM45.4102-31.0547C44.4824-31.0547 44.2871-31.3477 44.2871-32.1289L44.2871-33.3984C44.2871-34.2773 44.4824-34.5215 45.4102-34.5215L46.7285-34.5215C47.5098-34.5215 47.8027-34.2773 47.8027-33.3984L47.8027-32.1289C47.8027-31.3477 47.5098-31.0547 46.7285-31.0547ZM50.9277-31.0547C50.1465-31.0547 49.8535-31.3477 49.8535-32.1289L49.8535-33.3984C49.8535-34.2773 50.1465-34.5215 50.9277-34.5215L52.2461-34.5215C53.1738-34.5215 53.3691-34.2773 53.3691-33.3984L53.3691-32.1289C53.3691-31.3477 53.1738-31.0547 52.2461-31.0547ZM56.543-31.0547C55.6641-31.0547 55.3711-31.3477 55.3711-32.1289L55.3711-33.3984C55.3711-34.2773 55.6641-34.5215 56.543-34.5215L57.8125-34.5215C58.6426-34.5215 58.9355-34.2773 58.9355-33.3984L58.9355-32.1289C58.9355-31.3477 58.6426-31.0547 57.8125-31.0547ZM39.8438-25.5371C39.0137-25.5371 38.7207-25.8301 38.7207-26.6602L38.7207-28.0273C38.7207-28.7598 39.0137-29.1504 39.8438-29.1504L41.1133-29.1504C41.9922-29.1504 42.2852-28.7598 42.2852-28.0273L42.2852-26.6602C42.2852-25.8301 41.9922-25.5371 41.1133-25.5371ZM45.4102-25.5371C44.4824-25.5371 44.2871-25.8301 44.2871-26.6602L44.2871-28.0273C44.2871-28.7598 44.4824-29.1504 45.4102-29.1504L46.7285-29.1504C47.5098-29.1504 47.8027-28.7598 47.8027-28.0273L47.8027-26.6602C47.8027-25.8301 47.5098-25.5371 46.7285-25.5371ZM50.9277-25.5371C50.1465-25.5371 49.8535-25.8301 49.8535-26.6602L49.8535-28.0273C49.8535-28.7598 50.1465-29.1504 50.9277-29.1504L52.2461-29.1504C53.1738-29.1504 53.3691-28.7598 53.3691-28.0273L53.3691-26.6602C53.3691-25.8301 53.1738-25.5371 52.2461-25.5371Z"/>
  </g>
  <g id="Regular-S" transform="matrix(1 0 0 1 1403.58 696)">
   <path class="SFSymbolsPreviewWireframe" d="M46.2402 4.19922C67.7734 4.19922 85.6934-13.6719 85.6934-35.2051C85.6934-56.7383 67.7246-74.6094 46.1914-74.6094C24.707-74.6094 6.83594-56.7383 6.83594-35.2051C6.83594-13.6719 24.7559 4.19922 46.2402 4.19922ZM31.8359-15.2832C27.1484-15.2832 24.8535-17.5293 24.8535-22.168L24.8535-48.2422C24.8535-52.8809 27.1484-55.127 31.8359-55.127L60.6934-55.127C65.3809-55.127 67.6758-52.8809 67.6758-48.2422L67.6758-22.168C67.6758-17.5293 65.3809-15.2832 60.6934-15.2832ZM31.3965-19.2383L61.084-19.2383C62.7441-19.2383 63.6719-20.166 63.6719-21.875L63.6719-42.4805C63.6719-44.2383 62.7441-45.166 61.0352-45.166L31.4453-45.166C29.7852-45.166 28.8086-44.2383 28.8086-42.4805L28.8086-21.875C28.8086-20.166 29.7363-19.2383 31.3965-19.2383ZM41.9922-37.0605C41.0156-37.0605 40.6738-37.4023 40.6738-38.2812L40.6738-39.8438C40.6738-40.8203 41.0156-41.1621 41.9922-41.1621L43.457-41.1621C44.4824-41.1621 44.8242-40.8203 44.8242-39.8438L44.8242-38.2812C44.8242-37.4023 44.4824-37.0605 43.457-37.0605ZM49.0234-37.0605C48.0469-37.0605 47.7051-37.4023 47.7051-38.2812L47.7051-39.8438C47.7051-40.8203 48.0469-41.1621 49.0234-41.1621L50.4883-41.1621C51.5137-41.1621 51.8066-40.8203 51.8066-39.8438L51.8066-38.2812C51.8066-37.4023 51.5137-37.0605 50.4883-37.0605ZM56.0547-37.0605C55.0781-37.0605 54.7363-37.4023 54.7363-38.2812L54.7363-39.8438C54.7363-40.8203 55.0781-41.1621 56.0547-41.1621L57.5195-41.1621C58.5449-41.1621 58.8867-40.8203 58.8867-39.8438L58.8867-38.2812C58.8867-37.4023 58.5449-37.0605 57.5195-37.0605ZM34.9609-30.1758C33.9844-30.1758 33.6426-30.4688 33.6426-31.3965L33.6426-32.9102C33.6426-33.9355 33.9844-34.2285 34.9609-34.2285L36.4258-34.2285C37.4512-34.2285 37.793-33.9355 37.793-32.9102L37.793-31.3965C37.793-30.4688 37.4512-30.1758 36.4258-30.1758ZM41.9922-30.1758C41.0156-30.1758 40.6738-30.4688 40.6738-31.3965L40.6738-32.9102C40.6738-33.9355 41.0156-34.2285 41.9922-34.2285L43.457-34.2285C44.4824-34.2285 44.8242-33.9355 44.8242-32.9102L44.8242-31.3965C44.8242-30.4688 44.4824-30.1758 43.457-30.1758ZM49.0234-30.1758C48.0469-30.1758 47.7051-30.4688 47.7051-31.3965L47.7051-32.9102C47.7051-33.9355 48.0469-34.2285 49.0234-34.2285L50.4883-34.2285C51.5137-34.2285 51.8066-33.9355 51.8066-32.9102L51.8066-31.3965C51.8066-30.4688 51.5137-30.1758 50.4883-30.1758ZM56.0547-30.1758C55.0781-30.1758 54.7363-30.4688 54.7363-31.3965L54.7363-32.9102C54.7363-33.9355 55.0781-34.2285 56.0547-34.2285L57.5195-34.2285C58.5449-34.2285 58.8867-33.9355 58.8867-32.9102L58.8867-31.3965C58.8867-30.4688 58.5449-30.1758 57.5195-30.1758ZM34.9609-23.2422C33.9844-23.2422 33.6426-23.584 33.6426-24.5605L33.6426-26.0742C33.6426-27.0508 33.9844-27.2949 34.9609-27.2949L36.4258-27.2949C37.4512-27.2949 37.793-27.0508 37.793-26.0742L37.793-24.5605C37.793-23.584 37.4512-23.2422 36.4258-23.2422ZM41.9922-23.2422C41.0156-23.2422 40.6738-23.584 40.6738-24.5605L40.6738-26.0742C40.6738-27.0508 41.0156-27.2949 41.9922-27.2949L43.457-27.2949C44.4824-27.2949 44.8242-27.0508 44.8242-26.0742L44.8242-24.5605C44.8242-23.584 44.4824-23.2422 43.457-23.2422ZM49.0234-23.2422C48.0469-23.2422 47.7051-23.584 47.7051-24.5605L47.7051-26.0742C47.7051-27.0508 48.0469-27.2949 49.0234-27.2949L50.4883-27.2949C51.5137-27.2949 51.8066-27.0508 51.8066-26.0742L51.8066-24.5605C51.8066-23.584 51.5137-23.2422 50.4883-23.2422Z"/>
  </g>
  <g id="Ultralight-S" transform="matrix(1 0 0 1 515.649 696)">
   <path class="SFSymbolsPreviewWireframe" d="M44.0606 2.01955C64.5039 2.01955 81.2886-14.7617 81.2886-35.2051C81.2886-55.6484 64.5005-72.4297 44.0571-72.4297C23.5718-72.4297 6.83594-55.6484 6.83594-35.2051C6.83594-14.7617 23.5752 2.01955 44.0606 2.01955ZM29.7471-17.6445C26.3765-17.6445 24.5356-19.4819 24.5356-22.8491L24.5356-47.561C24.5356-50.9282 26.3765-52.7656 29.7471-52.7656L58.3775-52.7656C61.7481-52.7656 63.5889-50.8828 63.5889-47.561L63.5889-22.8491C63.5889-19.4819 61.7481-17.6445 58.3775-17.6445ZM29.9434-19.6016L58.1778-19.6016C60.5645-19.6016 61.5376-20.5747 61.5376-22.9648L61.5376-40.21C61.5376-42.876 60.065-44.3032 57.4478-44.3032L30.6733-44.3032C27.9688-44.3032 26.5835-42.876 26.5835-40.21L26.5835-22.9648C26.5835-20.5747 27.5567-19.6016 29.9434-19.6016ZM39.8579-37.106C39.2901-37.106 39.2207-37.1753 39.2207-37.7817L39.2207-39.1626C39.2207-39.6851 39.2901-39.7544 39.8579-39.7544L41.232-39.7544C41.8487-39.7544 41.918-39.6851 41.918-39.1626L41.918-37.7817C41.918-37.1753 41.8487-37.106 41.232-37.106ZM46.8892-37.106C46.2759-37.106 46.2066-37.1753 46.2066-37.7817L46.2066-39.1626C46.2066-39.6851 46.2759-39.7544 46.8892-39.7544L48.2632-39.7544C48.8345-39.7544 48.9004-39.6851 48.9004-39.1626L48.9004-37.7817C48.9004-37.1753 48.8345-37.106 48.2632-37.106ZM53.875-37.106C53.2617-37.106 53.147-37.1753 53.147-37.7817L53.147-39.1626C53.147-39.6851 53.2617-39.7544 53.875-39.7544L55.249-39.7544C55.8203-39.7544 55.9805-39.6851 55.9805-39.1626L55.9805-37.7817C55.9805-37.1753 55.8203-37.106 55.249-37.106ZM32.8721-30.2212C32.3042-30.2212 32.1441-30.2871 32.1441-30.897L32.1441-32.2744C32.1441-32.8003 32.3042-32.8662 32.8721-32.8662L34.2461-32.8662C34.8628-32.8662 34.9776-32.8003 34.9776-32.2744L34.9776-30.897C34.9776-30.2871 34.8628-30.2212 34.2461-30.2212ZM39.8579-30.2212C39.2901-30.2212 39.2207-30.2871 39.2207-30.897L39.2207-32.2744C39.2207-32.8003 39.2901-32.8662 39.8579-32.8662L41.232-32.8662C41.8487-32.8662 41.918-32.8003 41.918-32.2744L41.918-30.897C41.918-30.2871 41.8487-30.2212 41.232-30.2212ZM46.8892-30.2212C46.2759-30.2212 46.2066-30.2871 46.2066-30.897L46.2066-32.2744C46.2066-32.8003 46.2759-32.8662 46.8892-32.8662L48.2632-32.8662C48.8345-32.8662 48.9004-32.8003 48.9004-32.2744L48.9004-30.897C48.9004-30.2871 48.8345-30.2212 48.2632-30.2212ZM53.875-30.2212C53.2617-30.2212 53.147-30.2871 53.147-30.897L53.147-32.2744C53.147-32.8003 53.2617-32.8662 53.875-32.8662L55.249-32.8662C55.8203-32.8662 55.9805-32.8003 55.9805-32.2744L55.9805-30.897C55.9805-30.2871 55.8203-30.2212 55.249-30.2212ZM32.8721-23.333C32.3042-23.333 32.1441-23.4023 32.1441-23.9702L32.1441-25.3477C32.1441-25.9155 32.3042-25.978 32.8721-25.978L34.2461-25.978C34.8628-25.978 34.9776-25.9155 34.9776-25.3477L34.9776-23.9702C34.9776-23.4023 34.8628-23.333 34.2461-23.333ZM39.8579-23.333C39.2901-23.333 39.2207-23.4023 39.2207-23.9702L39.2207-25.3477C39.2207-25.9155 39.2901-25.978 39.8579-25.978L41.232-25.978C41.8487-25.978 41.918-25.9155 41.918-25.3477L41.918-23.9702C41.918-23.4023 41.8487-23.333 41.232-23.333ZM46.8892-23.333C46.2759-23.333 46.2066-23.4023 46.2066-23.9702L46.2066-25.3477C46.2066-25.9155 46.2759-25.978 46.8892-25.978L48.2632-25.978C48.8345-25.978 48.9004-25.9155 48.9004-25.3477L48.9004-23.9702C48.9004-23.4023 48.8345-23.333 48.2632-23.333Z"/>
  </g>
 </g>
</svg>
