<?xml version="1.0" encoding="UTF-8"?>
<!--Generator: Apple Native CoreSVG 232.5-->
<!DOCTYPE svg
PUBLIC "-//W3C//DTD SVG 1.1//EN"
       "http://www.w3.org/Graphics/SVG/1.1/DTD/svg11.dtd">
<svg version="1.1" xmlns="http://www.w3.org/2000/svg" xmlns:xlink="http://www.w3.org/1999/xlink" width="3300" height="2200">
 <!--glyph: "uni101E98.medium", point size: 100.0, font version: "19.2d2e1", template writer version: "128"-->
 <style>.SFSymbolsPreviewWireframe {fill:none;opacity:1.0;stroke:black;stroke-width:0.5}
</style>
 <g id="Notes">
  <rect height="2200" id="artboard" style="fill:white;opacity:1" width="3300" x="0" y="0"/>
  <line style="fill:none;stroke:black;opacity:1;stroke-width:0.5;" x1="263" x2="3036" y1="292" y2="292"/>
  <text style="stroke:none;fill:black;font-family:sans-serif;font-size:13;font-weight:bold;" transform="matrix(1 0 0 1 263 322)">Weight/Scale Variations</text>
  <text style="stroke:none;fill:black;font-family:sans-serif;font-size:13;text-anchor:middle;" transform="matrix(1 0 0 1 559.711 322)">Ultralight</text>
  <text style="stroke:none;fill:black;font-family:sans-serif;font-size:13;text-anchor:middle;" transform="matrix(1 0 0 1 856.422 322)">Thin</text>
  <text style="stroke:none;fill:black;font-family:sans-serif;font-size:13;text-anchor:middle;" transform="matrix(1 0 0 1 1153.13 322)">Light</text>
  <text style="stroke:none;fill:black;font-family:sans-serif;font-size:13;text-anchor:middle;" transform="matrix(1 0 0 1 1449.84 322)">Regular</text>
  <text style="stroke:none;fill:black;font-family:sans-serif;font-size:13;text-anchor:middle;" transform="matrix(1 0 0 1 1746.56 322)">Medium</text>
  <text style="stroke:none;fill:black;font-family:sans-serif;font-size:13;text-anchor:middle;" transform="matrix(1 0 0 1 2043.27 322)">Semibold</text>
  <text style="stroke:none;fill:black;font-family:sans-serif;font-size:13;text-anchor:middle;" transform="matrix(1 0 0 1 2339.98 322)">Bold</text>
  <text style="stroke:none;fill:black;font-family:sans-serif;font-size:13;text-anchor:middle;" transform="matrix(1 0 0 1 2636.69 322)">Heavy</text>
  <text style="stroke:none;fill:black;font-family:sans-serif;font-size:13;text-anchor:middle;" transform="matrix(1 0 0 1 2933.4 322)">Black</text>
  <line style="fill:none;stroke:black;opacity:1;stroke-width:0.5;" x1="263" x2="3036" y1="1903" y2="1903"/>
  <g transform="matrix(0.2 0 0 0.2 263 1933)">
   <path d="m46.2402 4.15039c21.5332 0 39.4531-17.8711 39.4531-39.4043s-17.9688-39.4043-39.502-39.4043c-21.4844 0-39.3555 17.8711-39.3555 39.4043s17.9199 39.4043 39.4043 39.4043Zm0-7.42188c-17.7246 0-31.8848-14.209-31.8848-31.9824s14.1113-31.9824 31.8359-31.9824c17.7734 0 32.0312 14.209 32.0312 31.9824s-14.209 31.9824-31.9824 31.9824Zm-17.9688-31.9824c0 2.14844 1.51367 3.61328 3.75977 3.61328h10.498v10.5957c0 2.19727 1.46484 3.71094 3.61328 3.71094 2.24609 0 3.71094-1.51367 3.71094-3.71094v-10.5957h10.5957c2.19727 0 3.71094-1.46484 3.71094-3.61328 0-2.19727-1.51367-3.71094-3.71094-3.71094h-10.5957v-10.5469c0-2.24609-1.46484-3.75977-3.71094-3.75977-2.14844 0-3.61328 1.51367-3.61328 3.75977v10.5469h-10.498c-2.24609 0-3.75977 1.51367-3.75977 3.71094Z"/>
  </g>
  <g transform="matrix(0.2 0 0 0.2 281.506 1933)">
   <path d="m58.5449 14.5508c27.2461 0 49.8047-22.6074 49.8047-49.8047 0-27.2461-22.6074-49.8047-49.8535-49.8047-27.1973 0-49.7559 22.5586-49.7559 49.8047 0 27.1973 22.6074 49.8047 49.8047 49.8047Zm0-8.30078c-23.0469 0-41.4551-18.457-41.4551-41.5039s18.3594-41.5039 41.4062-41.5039 41.5527 18.457 41.5527 41.5039-18.457 41.5039-41.5039 41.5039Zm-22.6562-41.5039c0 2.39258 1.66016 4.00391 4.15039 4.00391h14.3555v14.4043c0 2.44141 1.66016 4.15039 4.05273 4.15039 2.44141 0 4.15039-1.66016 4.15039-4.15039v-14.4043h14.4043c2.44141 0 4.15039-1.61133 4.15039-4.00391 0-2.44141-1.70898-4.15039-4.15039-4.15039h-14.4043v-14.3555c0-2.49023-1.70898-4.19922-4.15039-4.19922-2.39258 0-4.05273 1.70898-4.05273 4.19922v14.3555h-14.3555c-2.49023 0-4.15039 1.70898-4.15039 4.15039Z"/>
  </g>
  <g transform="matrix(0.2 0 0 0.2 304.924 1933)">
   <path d="m74.8535 28.3203c34.8145 0 63.623-28.8086 63.623-63.5742 0-34.8145-28.8574-63.623-63.6719-63.623-34.7656 0-63.5254 28.8086-63.5254 63.623 0 34.7656 28.8086 63.5742 63.5742 63.5742Zm0-9.08203c-30.1758 0-54.4434-24.3164-54.4434-54.4922 0-30.2246 24.2188-54.4922 54.3945-54.4922 30.2246 0 54.541 24.2676 54.541 54.4922 0 30.1758-24.2676 54.4922-54.4922 54.4922Zm-28.8574-54.4922c0 2.58789 1.85547 4.39453 4.58984 4.39453h19.7266v19.7754c0 2.68555 1.85547 4.58984 4.44336 4.58984 2.68555 0 4.54102-1.85547 4.54102-4.58984v-19.7754h19.7754c2.68555 0 4.58984-1.80664 4.58984-4.39453 0-2.73438-1.85547-4.58984-4.58984-4.58984h-19.7754v-19.7266c0-2.73438-1.85547-4.63867-4.54102-4.63867-2.58789 0-4.44336 1.9043-4.44336 4.63867v19.7266h-19.7266c-2.73438 0-4.58984 1.85547-4.58984 4.58984Z"/>
  </g>
  <text style="stroke:none;fill:black;font-family:sans-serif;font-size:13;font-weight:bold;" transform="matrix(1 0 0 1 263 1953)">Design Variations</text>
  <text style="stroke:none;fill:black;font-family:sans-serif;font-size:13;" transform="matrix(1 0 0 1 263 1971)">Symbols are supported in up to nine weights and three scales.</text>
  <text style="stroke:none;fill:black;font-family:sans-serif;font-size:13;" transform="matrix(1 0 0 1 263 1989)">For optimal layout with text and other symbols, vertically align</text>
  <text style="stroke:none;fill:black;font-family:sans-serif;font-size:13;" transform="matrix(1 0 0 1 263 2007)">symbols with the adjacent text.</text>
  <line style="fill:none;stroke:#00AEEF;stroke-width:0.5;opacity:1.0;" x1="776" x2="776" y1="1919" y2="1933"/>
  <g transform="matrix(0.2 0 0 0.2 776 1933)">
   <path d="m16.5527 0.78125c2.58789 0 3.85742-0.976562 4.78516-3.71094l6.29883-17.2363h28.8086l6.29883 17.2363c0.927734 2.73438 2.19727 3.71094 4.73633 3.71094 2.58789 0 4.24805-1.5625 4.24805-4.00391 0-0.830078-0.146484-1.61133-0.537109-2.63672l-22.9004-60.9863c-1.12305-2.97852-3.125-4.49219-6.25-4.49219-3.02734 0-5.07812 1.46484-6.15234 4.44336l-22.9004 61.084c-0.390625 1.02539-0.537109 1.80664-0.537109 2.63672 0 2.44141 1.5625 3.95508 4.10156 3.95508Zm13.4766-28.3691 11.8652-32.8613h0.244141l11.8652 32.8613Z"/>
  </g>
  <line style="fill:none;stroke:#00AEEF;stroke-width:0.5;opacity:1.0;" x1="792.836" x2="792.836" y1="1919" y2="1933"/>
  <text style="stroke:none;fill:black;font-family:sans-serif;font-size:13;font-weight:bold;" transform="matrix(1 0 0 1 776 1953)">Margins</text>
  <text style="stroke:none;fill:black;font-family:sans-serif;font-size:13;" transform="matrix(1 0 0 1 776 1971)">Leading and trailing margins on the left and right side of each symbol</text>
  <text style="stroke:none;fill:black;font-family:sans-serif;font-size:13;" transform="matrix(1 0 0 1 776 1989)">can be adjusted by modifying the x-location of the margin guidelines.</text>
  <text style="stroke:none;fill:black;font-family:sans-serif;font-size:13;" transform="matrix(1 0 0 1 776 2007)">Modifications are automatically applied proportionally to all</text>
  <text style="stroke:none;fill:black;font-family:sans-serif;font-size:13;" transform="matrix(1 0 0 1 776 2025)">scales and weights.</text>
  <g transform="matrix(0.2 0 0 0.2 1289 1933)">
   <path d="m14.209 9.32617 8.49609 8.54492c4.29688 4.3457 9.22852 4.05273 13.8672-1.07422l53.4668-58.9355-4.83398-4.88281-53.0762 58.3984c-1.75781 2.00195-3.41797 2.49023-5.76172 0.146484l-5.85938-5.81055c-2.34375-2.29492-1.80664-4.00391 0.195312-5.81055l57.373-54.0039-4.88281-4.83398-57.959 54.4434c-4.93164 4.58984-5.32227 9.47266-1.02539 13.8184Zm32.0801-90.9668c-2.09961 2.05078-2.24609 4.93164-1.07422 6.88477 1.17188 1.80664 3.4668 2.97852 6.68945 2.14844 7.32422-1.70898 14.9414-2.00195 22.0703 2.68555l-2.92969 7.27539c-1.70898 4.15039-0.830078 7.08008 1.85547 9.81445l11.4746 11.5723c2.44141 2.44141 4.49219 2.53906 7.32422 2.05078l5.32227-0.976562 3.32031 3.36914-0.195312 2.7832c-0.195312 2.49023 0.439453 4.39453 2.88086 6.78711l3.80859 3.71094c2.39258 2.39258 5.46875 2.53906 7.8125 0.195312l14.5508-14.5996c2.34375-2.34375 2.24609-5.32227-0.146484-7.71484l-3.85742-3.80859c-2.39258-2.39258-4.24805-3.17383-6.64062-2.97852l-2.88086 0.244141-3.22266-3.17383 1.2207-5.61523c0.634766-2.83203-0.146484-5.0293-3.07617-7.95898l-10.9863-10.9375c-16.6992-16.6016-38.8672-16.2109-53.3203-1.75781Zm7.4707 1.85547c12.1582-8.88672 28.6133-7.37305 39.7461 3.75977l12.1582 12.0605c1.17188 1.17188 1.36719 2.09961 1.02539 3.80859l-1.61133 7.42188 7.51953 7.42188 4.93164-0.292969c1.26953-0.0488281 1.66016 0.0488281 2.63672 1.02539l2.88086 2.88086-12.207 12.207-2.88086-2.88086c-0.976562-0.976562-1.12305-1.36719-1.07422-2.68555l0.341797-4.88281-7.4707-7.42188-7.61719 1.26953c-1.61133 0.341797-2.34375 0.195312-3.56445-0.976562l-10.0098-10.0098c-1.26953-1.17188-1.41602-2.00195-0.634766-3.85742l4.39453-10.4492c-7.8125-7.27539-17.9688-10.4004-28.125-7.42188-0.78125 0.195312-1.07422-0.439453-0.439453-0.976562Z"/>
  </g>
  <text style="stroke:none;fill:black;font-family:sans-serif;font-size:13;font-weight:bold;" transform="matrix(1 0 0 1 1289 1953)">Exporting</text>
  <text style="stroke:none;fill:black;font-family:sans-serif;font-size:13;" transform="matrix(1 0 0 1 1289 1971)">Symbols should be outlined when exporting to ensure the</text>
  <text style="stroke:none;fill:black;font-family:sans-serif;font-size:13;" transform="matrix(1 0 0 1 1289 1989)">design is preserved when submitting to Xcode.</text>
  <text id="template-version" style="stroke:none;fill:black;font-family:sans-serif;font-size:13;text-anchor:end;" transform="matrix(1 0 0 1 3036 1933)">Template v.5.0</text>
  <text style="stroke:none;fill:black;font-family:sans-serif;font-size:13;text-anchor:end;" transform="matrix(1 0 0 1 3036 1951)">Requires Xcode 15 or greater</text>
  <text id="descriptive-name" style="stroke:none;fill:black;font-family:sans-serif;font-size:13;text-anchor:end;" transform="matrix(1 0 0 1 3036 1969)">Generated from car.top.lane.dashed.departure.right.fill</text>
  <text style="stroke:none;fill:black;font-family:sans-serif;font-size:13;text-anchor:end;" transform="matrix(1 0 0 1 3036 1987)">Typeset at 100.0 points</text>
  <text style="stroke:none;fill:black;font-family:sans-serif;font-size:13;" transform="matrix(1 0 0 1 263 726)">Small</text>
  <text style="stroke:none;fill:black;font-family:sans-serif;font-size:13;" transform="matrix(1 0 0 1 263 1156)">Medium</text>
  <text style="stroke:none;fill:black;font-family:sans-serif;font-size:13;" transform="matrix(1 0 0 1 263 1586)">Large</text>
 </g>
 <g id="Guides">
  <g id="H-reference" style="fill:#27AAE1;stroke:none;" transform="matrix(1 0 0 1 339 696)">
   <path d="M0.993654 0L3.63775 0L29.3281-67.1323L30.0303-67.1323L30.0303-70.459L28.1226-70.459ZM11.6885-24.4799L46.9815-24.4799L46.2315-26.7285L12.4385-26.7285ZM55.1196 0L57.7637 0L30.6382-70.459L29.4326-70.459L29.4326-67.1323Z"/>
  </g>
  <line id="Baseline-S" style="fill:none;stroke:#27AAE1;opacity:1;stroke-width:0.5;" x1="263" x2="3036" y1="696" y2="696"/>
  <line id="Capline-S" style="fill:none;stroke:#27AAE1;opacity:1;stroke-width:0.5;" x1="263" x2="3036" y1="625.541" y2="625.541"/>
  <g id="H-reference" style="fill:#27AAE1;stroke:none;" transform="matrix(1 0 0 1 339 1126)">
   <path d="M0.993654 0L3.63775 0L29.3281-67.1323L30.0303-67.1323L30.0303-70.459L28.1226-70.459ZM11.6885-24.4799L46.9815-24.4799L46.2315-26.7285L12.4385-26.7285ZM55.1196 0L57.7637 0L30.6382-70.459L29.4326-70.459L29.4326-67.1323Z"/>
  </g>
  <line id="Baseline-M" style="fill:none;stroke:#27AAE1;opacity:1;stroke-width:0.5;" x1="263" x2="3036" y1="1126" y2="1126"/>
  <line id="Capline-M" style="fill:none;stroke:#27AAE1;opacity:1;stroke-width:0.5;" x1="263" x2="3036" y1="1055.54" y2="1055.54"/>
  <g id="H-reference" style="fill:#27AAE1;stroke:none;" transform="matrix(1 0 0 1 339 1556)">
   <path d="M0.993654 0L3.63775 0L29.3281-67.1323L30.0303-67.1323L30.0303-70.459L28.1226-70.459ZM11.6885-24.4799L46.9815-24.4799L46.2315-26.7285L12.4385-26.7285ZM55.1196 0L57.7637 0L30.6382-70.459L29.4326-70.459L29.4326-67.1323Z"/>
  </g>
  <line id="Baseline-L" style="fill:none;stroke:#27AAE1;opacity:1;stroke-width:0.5;" x1="263" x2="3036" y1="1556" y2="1556"/>
  <line id="Capline-L" style="fill:none;stroke:#27AAE1;opacity:1;stroke-width:0.5;" x1="263" x2="3036" y1="1485.54" y2="1485.54"/>
  <line id="left-margin-Ultralight-S" style="fill:none;stroke:#00AEEF;stroke-width:0.5;opacity:1.0;" x1="513.194" x2="513.194" y1="600.785" y2="720.121"/>
  <line id="right-margin-Ultralight-S" style="fill:none;stroke:#00AEEF;stroke-width:0.5;opacity:1.0;" x1="606.228" x2="606.228" y1="600.785" y2="720.121"/>
  <line id="left-margin-Regular-S" style="fill:none;stroke:#00AEEF;stroke-width:0.5;opacity:1.0;" x1="1400.63" x2="1400.63" y1="600.785" y2="720.121"/>
  <line id="right-margin-Regular-S" style="fill:none;stroke:#00AEEF;stroke-width:0.5;opacity:1.0;" x1="1499.06" x2="1499.06" y1="600.785" y2="720.121"/>
  <line id="left-margin-Black-S" style="fill:none;stroke:#00AEEF;stroke-width:0.5;opacity:1.0;" x1="2875.98" x2="2875.98" y1="600.785" y2="720.121"/>
  <line id="right-margin-Black-S" style="fill:none;stroke:#00AEEF;stroke-width:0.5;opacity:1.0;" x1="2990.82" x2="2990.82" y1="600.785" y2="720.121"/>
 </g>
 <g id="Symbols">
  <g id="Black-S" transform="matrix(1 0 0 1 2875.98 696)">
   <path class="SFSymbolsPreviewWireframe" d="M14.6973-53.0762L18.9941-53.0762C21.7773-53.0762 23.9258-55.2246 23.9258-58.0078L23.9258-72.0703C23.9258-74.8535 21.7773-77.002 18.9941-77.002L14.6973-77.002C11.9141-77.002 9.76562-74.8535 9.76562-72.0703L9.76562-58.0078C9.76562-55.2246 11.9141-53.0762 14.6973-53.0762ZM14.6973-24.0234L18.9941-24.0234C21.7773-24.0234 23.9258-26.1719 23.9258-28.9551L23.9258-43.0176C23.9258-45.8008 21.7773-47.9492 18.9941-47.9492L14.6973-47.9492C11.9141-47.9492 9.76562-45.8008 9.76562-43.0176L9.76562-28.9551C9.76562-26.1719 11.9141-24.0234 14.6973-24.0234ZM14.6973 5.27344L18.9941 5.27344C21.7773 5.27344 23.9258 3.125 23.9258 0.341797L23.9258-14.0625C23.9258-16.8457 21.7773-18.9941 18.9941-18.9941L14.6973-18.9941C11.9141-18.9941 9.76562-16.8457 9.76562-14.0625L9.76562 0.341797C9.76562 3.125 11.9141 5.27344 14.6973 5.27344ZM95.8496-53.0762L100.146-53.0762C102.93-53.0762 105.078-55.2246 105.078-58.0078L105.078-72.0703C105.078-74.8535 102.93-77.002 100.146-77.002L95.8496-77.002C93.0664-77.002 90.918-74.8535 90.918-72.0703L90.918-58.0078C90.918-55.2246 93.0664-53.0762 95.8496-53.0762ZM95.8496-24.0234L100.146-24.0234C102.93-24.0234 105.078-26.1719 105.078-28.9551L105.078-43.0176C105.078-45.8008 102.93-47.9492 100.146-47.9492L95.8496-47.9492C93.0664-47.9492 90.918-45.8008 90.918-43.0176L90.918-28.9551C90.918-26.1719 93.0664-24.0234 95.8496-24.0234ZM95.8496 5.27344L100.146 5.27344C102.93 5.27344 105.078 3.125 105.078 0.341797L105.078-14.0625C105.078-16.8457 102.93-18.9941 100.146-18.9941L95.8496-18.9941C93.0664-18.9941 90.918-16.8457 90.918-14.0625L90.918 0.341797C90.918 3.125 93.0664 5.27344 95.8496 5.27344ZM59.1797-0.927734C72.0703 6.49414 80.1758 6.25 84.8633-1.85547L107.812-41.6016C112.891-50.3418 108.936-58.5938 96.582-65.7227C84.2773-72.8027 75.1465-72.0703 70.1172-63.3789L47.168-23.6328C42.4805-15.5273 46.3867-8.30078 59.1797-0.927734ZM80.2734-37.4023C77.6855-38.916 74.2676-40.5273 73.6816-40.8691C71.4844-42.1387 71.0938-43.6035 72.1191-45.8008L74.5117-50.9766C76.4648-55.1758 80.3711-54.8828 87.8906-50.5859C95.3613-46.2402 97.5586-42.9688 94.9219-39.209L91.6504-34.5703C90.2344-32.5195 88.7207-32.1777 86.5723-33.3984C85.9863-33.7891 82.8125-35.9375 80.2734-37.4023ZM65.0391-11.084C57.1289-15.6738 55.1758-18.6523 58.1543-22.4121L59.7656-24.4629C62.207-27.5391 65.5762-26.9531 72.0703-23.1934C78.5645-19.4824 80.8594-16.7969 79.3457-13.1836L78.3203-10.7422C76.4648-6.29883 72.998-6.54297 65.0391-11.084ZM64.0137-47.8027L68.7012-56.0059L65.1855-58.0566C63.0371-59.2773 60.6445-58.5449 59.375-56.0059L59.3262-55.9082C58.0566-53.3691 58.3496-51.0742 60.4492-49.8535ZM97.2656-28.2227L100.781-26.1719C102.93-24.9512 105.322-25.6348 106.592-28.1738L106.641-28.2715C107.91-30.8105 107.617-33.1055 105.518-34.3262L101.953-36.377Z"/>
  </g>
  <g id="Regular-S" transform="matrix(1 0 0 1 1400.63 696)">
   <path class="SFSymbolsPreviewWireframe" d="M12.4023-53.4668L14.6484-53.4668C16.1621-53.4668 17.2852-54.5898 17.2852-56.1035L17.2852-71.6797C17.2852-73.1934 16.1621-74.3164 14.6484-74.3164L12.4023-74.3164C10.8887-74.3164 9.76562-73.1934 9.76562-71.6797L9.76562-56.1035C9.76562-54.5898 10.8887-53.4668 12.4023-53.4668ZM12.4023-24.9023L14.6484-24.9023C16.1621-24.9023 17.2852-26.0254 17.2852-27.4902L17.2852-43.0176C17.2852-44.5312 16.1621-45.6543 14.6484-45.6543L12.4023-45.6543C10.8887-45.6543 9.76562-44.5312 9.76562-43.0176L9.76562-27.4902C9.76562-26.0254 10.8887-24.9023 12.4023-24.9023ZM12.4023 3.75977L14.6484 3.75977C16.1621 3.75977 17.2852 2.63672 17.2852 1.12305L17.2852-14.4531C17.2852-15.9668 16.1621-17.0898 14.6484-17.0898L12.4023-17.0898C10.8887-17.0898 9.76562-15.9668 9.76562-14.4531L9.76562 1.12305C9.76562 2.63672 10.8887 3.75977 12.4023 3.75977ZM83.7891-53.4668L86.0352-53.4668C87.5488-53.4668 88.6719-54.5898 88.6719-56.1035L88.6719-71.6797C88.6719-73.1934 87.5488-74.3164 86.0352-74.3164L83.7891-74.3164C82.2754-74.3164 81.1523-73.1934 81.1523-71.6797L81.1523-56.1035C81.1523-54.5898 82.2754-53.4668 83.7891-53.4668ZM83.7891-24.9023L86.0352-24.9023C87.5488-24.9023 88.6719-26.0254 88.6719-27.4902L88.6719-43.0664C88.6719-44.5312 87.5488-45.6543 86.0352-45.6543L83.7891-45.6543C82.2754-45.6543 81.1523-44.5312 81.1523-43.0664L81.1523-27.4902C81.1523-26.0254 82.2754-24.9023 83.7891-24.9023ZM83.7891 3.75977L86.0352 3.75977C87.5488 3.75977 88.6719 2.63672 88.6719 1.12305L88.6719-14.4531C88.6719-15.9668 87.5488-17.0898 86.0352-17.0898L83.7891-17.0898C82.2754-17.0898 81.1523-15.9668 81.1523-14.4531L81.1523 1.12305C81.1523 2.63672 82.2754 3.75977 83.7891 3.75977ZM47.0215-4.73633C58.9355 2.14844 65.5273 2.49023 69.5312-4.3457L91.9922-43.2617C96.0449-50.293 91.9922-58.252 81.3965-64.3066C70.8984-70.3613 62.0117-69.9707 57.959-62.8906L35.498-24.0234C31.4941-17.1875 35.1074-11.6211 47.0215-4.73633ZM67.0898-39.502C64.9414-40.7227 61.5234-42.3828 60.3516-43.1152C58.4473-44.1895 58.1543-45.459 59.082-47.4609L61.1816-52.1484C62.9395-56.0059 66.3086-55.7617 73.9258-51.3672C81.5918-46.9238 83.4473-44.1895 81.0547-40.7715L78.0273-36.4746C76.709-34.6191 75.4395-34.375 73.584-35.4004C72.4609-36.084 69.2383-38.2324 67.0898-39.502ZM52.832-14.8438C45.0195-19.3359 43.1152-22.0215 45.8496-25.4395L47.4121-27.3438C49.6094-29.9805 52.4902-29.5898 59.1309-25.6836C65.8691-21.8262 67.6758-19.6777 66.4062-16.3574L65.5762-14.0625C64.1113-10.0098 60.7422-10.2539 52.832-14.8438ZM53.2715-48.1934L57.1289-54.7852L52.9785-57.2266C51.3672-58.1543 49.4141-57.6172 48.5352-56.1035L47.8516-54.9805C46.9727-53.4668 47.5586-51.416 49.0723-50.5859ZM81.543-31.8359L85.6934-29.3945C87.2559-28.4668 89.3066-29.0527 90.1367-30.5664L90.7715-31.6895C91.6016-33.252 91.1621-35.2051 89.5508-36.1328L85.4004-38.4766Z"/>
  </g>
  <g id="Ultralight-S" transform="matrix(1 0 0 1 513.194 696)">
   <path class="SFSymbolsPreviewWireframe" d="M10.3589-52.8311L11.3789-52.8311C11.7574-52.8311 11.9722-53.0459 11.9722-53.4243L11.9722-72.4517C11.9722-72.8301 11.7574-73.0449 11.3789-73.0449L10.3589-73.0449C10.0259-73.0449 9.76562-72.8301 9.76562-72.4517L9.76562-53.4243C9.76562-53.0459 10.0259-52.8311 10.3589-52.8311ZM10.3589-25.4473L11.3789-25.4473C11.7574-25.4473 11.9722-25.7075 11.9722-26.0371L11.9722-45.1064C11.9722-45.4394 11.7574-45.6997 11.3789-45.6997L10.3589-45.6997C10.0259-45.6997 9.76562-45.4394 9.76562-45.1064L9.76562-26.0371C9.76562-25.7075 10.0259-25.4473 10.3589-25.4473ZM10.3589 1.89796L11.3789 1.89796C11.7574 1.89796 11.9722 1.68311 11.9722 1.30469L11.9722-17.768C11.9722-18.1011 11.7574-18.3613 11.3789-18.3613L10.3589-18.3613C10.0259-18.3613 9.76562-18.1011 9.76562-17.768L9.76562 1.30469C9.76562 1.68311 10.0259 1.89796 10.3589 1.89796ZM81.7002-52.8765L82.7202-52.8765C83.0987-52.8765 83.3135-53.0913 83.3135-53.4697L83.3135-72.4971C83.3135-72.8755 83.0987-73.0903 82.7202-73.0903L81.7002-73.0903C81.3672-73.0903 81.1069-72.8755 81.1069-72.4971L81.1069-53.4697C81.1069-53.0913 81.3672-52.8765 81.7002-52.8765ZM81.7002-25.4927L82.7202-25.4927C83.0987-25.4927 83.3135-25.7529 83.3135-26.0825L83.3135-45.1553C83.3135-45.4849 83.0987-45.7451 82.7202-45.7451L81.7002-45.7451C81.3672-45.7451 81.1069-45.4849 81.1069-45.1553L81.1069-26.0825C81.1069-25.7529 81.3672-25.4927 81.7002-25.4927ZM81.7002 1.85255L82.7202 1.85255C83.0987 1.85255 83.3135 1.6377 83.3135 1.25928L83.3135-17.8135C83.3135-18.1465 83.0987-18.4067 82.7202-18.4067L81.7002-18.4067C81.3672-18.4067 81.1069-18.1465 81.1069-17.8135L81.1069 1.25928C81.1069 1.6377 81.3672 1.85255 81.7002 1.85255ZM40.0284-4.23682C50.7164 1.9668 58.4434 2.49023 61.9932-3.70997L86.7247-46.5766C90.5049-53.1084 86.5884-60.3862 75.9473-66.5317C65.3584-72.6318 57.1529-72.3774 53.3726-65.7969L28.6412-22.9336C25.0459-16.7788 29.3404-10.395 40.0284-4.23682ZM60.9141-40.3193C58.0845-41.9941 53.94-44.0176 52.6319-44.7954C50.5914-45.9604 50.1168-47.3208 51.1807-49.6406L53.1441-53.874C54.9473-57.7314 57.6807-58.6225 68.0225-52.6841C78.3677-46.6968 78.9517-43.917 76.5137-40.4082L73.8496-36.5654C72.3951-34.4375 70.9439-34.2388 68.9068-35.4004C67.6021-36.1294 63.108-39.0498 60.9141-40.3193ZM44.5674-12.0283C35.5289-17.2471 33.4884-20.1143 36.0865-23.6685L37.649-25.7998C39.7554-28.6636 42.8634-28.273 51.1841-23.5039C59.4664-18.7383 61.4092-16.1812 59.9581-12.9063L58.9009-10.5205C57.1182-6.51321 53.6128-6.80276 44.5674-12.0283ZM47.5498-52.8706L50.272-57.5097L47.6656-58.9975C46.5083-59.6982 45.418-59.4336 44.857-58.4648L43.9917-57.0239C43.4307-56.0552 43.7896-55.0488 44.9854-54.355ZM78.5005-35.0146L81.0162-33.5722C82.2154-32.8715 83.2671-33.0488 83.8248-34.0176L84.6866-35.5039C85.2442-36.476 84.8956-37.521 83.6929-38.2217L81.1773-39.7026Z"/>
  </g>
 </g>
</svg>
