<?xml version="1.0" encoding="UTF-8"?>
<!--Generator: Apple Native CoreSVG 232.5-->
<!DOCTYPE svg
PUBLIC "-//W3C//DTD SVG 1.1//EN"
       "http://www.w3.org/Graphics/SVG/1.1/DTD/svg11.dtd">
<svg version="1.1" xmlns="http://www.w3.org/2000/svg" xmlns:xlink="http://www.w3.org/1999/xlink" width="3300" height="2200">
 <!--glyph: "uni1015B4.medium", point size: 100.0, font version: "19.2d2e1", template writer version: "128"-->
 <style>.SFSymbolsPreviewWireframe {fill:none;opacity:1.0;stroke:black;stroke-width:0.5}
</style>
 <g id="Notes">
  <rect height="2200" id="artboard" style="fill:white;opacity:1" width="3300" x="0" y="0"/>
  <line style="fill:none;stroke:black;opacity:1;stroke-width:0.5;" x1="263" x2="3036" y1="292" y2="292"/>
  <text style="stroke:none;fill:black;font-family:sans-serif;font-size:13;font-weight:bold;" transform="matrix(1 0 0 1 263 322)">Weight/Scale Variations</text>
  <text style="stroke:none;fill:black;font-family:sans-serif;font-size:13;text-anchor:middle;" transform="matrix(1 0 0 1 559.711 322)">Ultralight</text>
  <text style="stroke:none;fill:black;font-family:sans-serif;font-size:13;text-anchor:middle;" transform="matrix(1 0 0 1 856.422 322)">Thin</text>
  <text style="stroke:none;fill:black;font-family:sans-serif;font-size:13;text-anchor:middle;" transform="matrix(1 0 0 1 1153.13 322)">Light</text>
  <text style="stroke:none;fill:black;font-family:sans-serif;font-size:13;text-anchor:middle;" transform="matrix(1 0 0 1 1449.84 322)">Regular</text>
  <text style="stroke:none;fill:black;font-family:sans-serif;font-size:13;text-anchor:middle;" transform="matrix(1 0 0 1 1746.56 322)">Medium</text>
  <text style="stroke:none;fill:black;font-family:sans-serif;font-size:13;text-anchor:middle;" transform="matrix(1 0 0 1 2043.27 322)">Semibold</text>
  <text style="stroke:none;fill:black;font-family:sans-serif;font-size:13;text-anchor:middle;" transform="matrix(1 0 0 1 2339.98 322)">Bold</text>
  <text style="stroke:none;fill:black;font-family:sans-serif;font-size:13;text-anchor:middle;" transform="matrix(1 0 0 1 2636.69 322)">Heavy</text>
  <text style="stroke:none;fill:black;font-family:sans-serif;font-size:13;text-anchor:middle;" transform="matrix(1 0 0 1 2933.4 322)">Black</text>
  <line style="fill:none;stroke:black;opacity:1;stroke-width:0.5;" x1="263" x2="3036" y1="1903" y2="1903"/>
  <g transform="matrix(0.2 0 0 0.2 263 1933)">
   <path d="m46.2402 4.15039c21.5332 0 39.4531-17.8711 39.4531-39.4043s-17.9688-39.4043-39.502-39.4043c-21.4844 0-39.3555 17.8711-39.3555 39.4043s17.9199 39.4043 39.4043 39.4043Zm0-7.42188c-17.7246 0-31.8848-14.209-31.8848-31.9824s14.1113-31.9824 31.8359-31.9824c17.7734 0 32.0312 14.209 32.0312 31.9824s-14.209 31.9824-31.9824 31.9824Zm-17.9688-31.9824c0 2.14844 1.51367 3.61328 3.75977 3.61328h10.498v10.5957c0 2.19727 1.46484 3.71094 3.61328 3.71094 2.24609 0 3.71094-1.51367 3.71094-3.71094v-10.5957h10.5957c2.19727 0 3.71094-1.46484 3.71094-3.61328 0-2.19727-1.51367-3.71094-3.71094-3.71094h-10.5957v-10.5469c0-2.24609-1.46484-3.75977-3.71094-3.75977-2.14844 0-3.61328 1.51367-3.61328 3.75977v10.5469h-10.498c-2.24609 0-3.75977 1.51367-3.75977 3.71094Z"/>
  </g>
  <g transform="matrix(0.2 0 0 0.2 281.506 1933)">
   <path d="m58.5449 14.5508c27.2461 0 49.8047-22.6074 49.8047-49.8047 0-27.2461-22.6074-49.8047-49.8535-49.8047-27.1973 0-49.7559 22.5586-49.7559 49.8047 0 27.1973 22.6074 49.8047 49.8047 49.8047Zm0-8.30078c-23.0469 0-41.4551-18.457-41.4551-41.5039s18.3594-41.5039 41.4062-41.5039 41.5527 18.457 41.5527 41.5039-18.457 41.5039-41.5039 41.5039Zm-22.6562-41.5039c0 2.39258 1.66016 4.00391 4.15039 4.00391h14.3555v14.4043c0 2.44141 1.66016 4.15039 4.05273 4.15039 2.44141 0 4.15039-1.66016 4.15039-4.15039v-14.4043h14.4043c2.44141 0 4.15039-1.61133 4.15039-4.00391 0-2.44141-1.70898-4.15039-4.15039-4.15039h-14.4043v-14.3555c0-2.49023-1.70898-4.19922-4.15039-4.19922-2.39258 0-4.05273 1.70898-4.05273 4.19922v14.3555h-14.3555c-2.49023 0-4.15039 1.70898-4.15039 4.15039Z"/>
  </g>
  <g transform="matrix(0.2 0 0 0.2 304.924 1933)">
   <path d="m74.8535 28.3203c34.8145 0 63.623-28.8086 63.623-63.5742 0-34.8145-28.8574-63.623-63.6719-63.623-34.7656 0-63.5254 28.8086-63.5254 63.623 0 34.7656 28.8086 63.5742 63.5742 63.5742Zm0-9.08203c-30.1758 0-54.4434-24.3164-54.4434-54.4922 0-30.2246 24.2188-54.4922 54.3945-54.4922 30.2246 0 54.541 24.2676 54.541 54.4922 0 30.1758-24.2676 54.4922-54.4922 54.4922Zm-28.8574-54.4922c0 2.58789 1.85547 4.39453 4.58984 4.39453h19.7266v19.7754c0 2.68555 1.85547 4.58984 4.44336 4.58984 2.68555 0 4.54102-1.85547 4.54102-4.58984v-19.7754h19.7754c2.68555 0 4.58984-1.80664 4.58984-4.39453 0-2.73438-1.85547-4.58984-4.58984-4.58984h-19.7754v-19.7266c0-2.73438-1.85547-4.63867-4.54102-4.63867-2.58789 0-4.44336 1.9043-4.44336 4.63867v19.7266h-19.7266c-2.73438 0-4.58984 1.85547-4.58984 4.58984Z"/>
  </g>
  <text style="stroke:none;fill:black;font-family:sans-serif;font-size:13;font-weight:bold;" transform="matrix(1 0 0 1 263 1953)">Design Variations</text>
  <text style="stroke:none;fill:black;font-family:sans-serif;font-size:13;" transform="matrix(1 0 0 1 263 1971)">Symbols are supported in up to nine weights and three scales.</text>
  <text style="stroke:none;fill:black;font-family:sans-serif;font-size:13;" transform="matrix(1 0 0 1 263 1989)">For optimal layout with text and other symbols, vertically align</text>
  <text style="stroke:none;fill:black;font-family:sans-serif;font-size:13;" transform="matrix(1 0 0 1 263 2007)">symbols with the adjacent text.</text>
  <line style="fill:none;stroke:#00AEEF;stroke-width:0.5;opacity:1.0;" x1="776" x2="776" y1="1919" y2="1933"/>
  <g transform="matrix(0.2 0 0 0.2 776 1933)">
   <path d="m16.5527 0.78125c2.58789 0 3.85742-0.976562 4.78516-3.71094l6.29883-17.2363h28.8086l6.29883 17.2363c0.927734 2.73438 2.19727 3.71094 4.73633 3.71094 2.58789 0 4.24805-1.5625 4.24805-4.00391 0-0.830078-0.146484-1.61133-0.537109-2.63672l-22.9004-60.9863c-1.12305-2.97852-3.125-4.49219-6.25-4.49219-3.02734 0-5.07812 1.46484-6.15234 4.44336l-22.9004 61.084c-0.390625 1.02539-0.537109 1.80664-0.537109 2.63672 0 2.44141 1.5625 3.95508 4.10156 3.95508Zm13.4766-28.3691 11.8652-32.8613h0.244141l11.8652 32.8613Z"/>
  </g>
  <line style="fill:none;stroke:#00AEEF;stroke-width:0.5;opacity:1.0;" x1="792.836" x2="792.836" y1="1919" y2="1933"/>
  <text style="stroke:none;fill:black;font-family:sans-serif;font-size:13;font-weight:bold;" transform="matrix(1 0 0 1 776 1953)">Margins</text>
  <text style="stroke:none;fill:black;font-family:sans-serif;font-size:13;" transform="matrix(1 0 0 1 776 1971)">Leading and trailing margins on the left and right side of each symbol</text>
  <text style="stroke:none;fill:black;font-family:sans-serif;font-size:13;" transform="matrix(1 0 0 1 776 1989)">can be adjusted by modifying the x-location of the margin guidelines.</text>
  <text style="stroke:none;fill:black;font-family:sans-serif;font-size:13;" transform="matrix(1 0 0 1 776 2007)">Modifications are automatically applied proportionally to all</text>
  <text style="stroke:none;fill:black;font-family:sans-serif;font-size:13;" transform="matrix(1 0 0 1 776 2025)">scales and weights.</text>
  <g transform="matrix(0.2 0 0 0.2 1289 1933)">
   <path d="m14.209 9.32617 8.49609 8.54492c4.29688 4.3457 9.22852 4.05273 13.8672-1.07422l53.4668-58.9355-4.83398-4.88281-53.0762 58.3984c-1.75781 2.00195-3.41797 2.49023-5.76172 0.146484l-5.85938-5.81055c-2.34375-2.29492-1.80664-4.00391 0.195312-5.81055l57.373-54.0039-4.88281-4.83398-57.959 54.4434c-4.93164 4.58984-5.32227 9.47266-1.02539 13.8184Zm32.0801-90.9668c-2.09961 2.05078-2.24609 4.93164-1.07422 6.88477 1.17188 1.80664 3.4668 2.97852 6.68945 2.14844 7.32422-1.70898 14.9414-2.00195 22.0703 2.68555l-2.92969 7.27539c-1.70898 4.15039-0.830078 7.08008 1.85547 9.81445l11.4746 11.5723c2.44141 2.44141 4.49219 2.53906 7.32422 2.05078l5.32227-0.976562 3.32031 3.36914-0.195312 2.7832c-0.195312 2.49023 0.439453 4.39453 2.88086 6.78711l3.80859 3.71094c2.39258 2.39258 5.46875 2.53906 7.8125 0.195312l14.5508-14.5996c2.34375-2.34375 2.24609-5.32227-0.146484-7.71484l-3.85742-3.80859c-2.39258-2.39258-4.24805-3.17383-6.64062-2.97852l-2.88086 0.244141-3.22266-3.17383 1.2207-5.61523c0.634766-2.83203-0.146484-5.0293-3.07617-7.95898l-10.9863-10.9375c-16.6992-16.6016-38.8672-16.2109-53.3203-1.75781Zm7.4707 1.85547c12.1582-8.88672 28.6133-7.37305 39.7461 3.75977l12.1582 12.0605c1.17188 1.17188 1.36719 2.09961 1.02539 3.80859l-1.61133 7.42188 7.51953 7.42188 4.93164-0.292969c1.26953-0.0488281 1.66016 0.0488281 2.63672 1.02539l2.88086 2.88086-12.207 12.207-2.88086-2.88086c-0.976562-0.976562-1.12305-1.36719-1.07422-2.68555l0.341797-4.88281-7.4707-7.42188-7.61719 1.26953c-1.61133 0.341797-2.34375 0.195312-3.56445-0.976562l-10.0098-10.0098c-1.26953-1.17188-1.41602-2.00195-0.634766-3.85742l4.39453-10.4492c-7.8125-7.27539-17.9688-10.4004-28.125-7.42188-0.78125 0.195312-1.07422-0.439453-0.439453-0.976562Z"/>
  </g>
  <text style="stroke:none;fill:black;font-family:sans-serif;font-size:13;font-weight:bold;" transform="matrix(1 0 0 1 1289 1953)">Exporting</text>
  <text style="stroke:none;fill:black;font-family:sans-serif;font-size:13;" transform="matrix(1 0 0 1 1289 1971)">Symbols should be outlined when exporting to ensure the</text>
  <text style="stroke:none;fill:black;font-family:sans-serif;font-size:13;" transform="matrix(1 0 0 1 1289 1989)">design is preserved when submitting to Xcode.</text>
  <text id="template-version" style="stroke:none;fill:black;font-family:sans-serif;font-size:13;text-anchor:end;" transform="matrix(1 0 0 1 3036 1933)">Template v.5.0</text>
  <text style="stroke:none;fill:black;font-family:sans-serif;font-size:13;text-anchor:end;" transform="matrix(1 0 0 1 3036 1951)">Requires Xcode 15 or greater</text>
  <text id="descriptive-name" style="stroke:none;fill:black;font-family:sans-serif;font-size:13;text-anchor:end;" transform="matrix(1 0 0 1 3036 1969)">Generated from car.top.radiowaves.rear.left</text>
  <text style="stroke:none;fill:black;font-family:sans-serif;font-size:13;text-anchor:end;" transform="matrix(1 0 0 1 3036 1987)">Typeset at 100.0 points</text>
  <text style="stroke:none;fill:black;font-family:sans-serif;font-size:13;" transform="matrix(1 0 0 1 263 726)">Small</text>
  <text style="stroke:none;fill:black;font-family:sans-serif;font-size:13;" transform="matrix(1 0 0 1 263 1156)">Medium</text>
  <text style="stroke:none;fill:black;font-family:sans-serif;font-size:13;" transform="matrix(1 0 0 1 263 1586)">Large</text>
 </g>
 <g id="Guides">
  <g id="H-reference" style="fill:#27AAE1;stroke:none;" transform="matrix(1 0 0 1 339 696)">
   <path d="M0.993654 0L3.63775 0L29.3281-67.1323L30.0303-67.1323L30.0303-70.459L28.1226-70.459ZM11.6885-24.4799L46.9815-24.4799L46.2315-26.7285L12.4385-26.7285ZM55.1196 0L57.7637 0L30.6382-70.459L29.4326-70.459L29.4326-67.1323Z"/>
  </g>
  <line id="Baseline-S" style="fill:none;stroke:#27AAE1;opacity:1;stroke-width:0.5;" x1="263" x2="3036" y1="696" y2="696"/>
  <line id="Capline-S" style="fill:none;stroke:#27AAE1;opacity:1;stroke-width:0.5;" x1="263" x2="3036" y1="625.541" y2="625.541"/>
  <g id="H-reference" style="fill:#27AAE1;stroke:none;" transform="matrix(1 0 0 1 339 1126)">
   <path d="M0.993654 0L3.63775 0L29.3281-67.1323L30.0303-67.1323L30.0303-70.459L28.1226-70.459ZM11.6885-24.4799L46.9815-24.4799L46.2315-26.7285L12.4385-26.7285ZM55.1196 0L57.7637 0L30.6382-70.459L29.4326-70.459L29.4326-67.1323Z"/>
  </g>
  <line id="Baseline-M" style="fill:none;stroke:#27AAE1;opacity:1;stroke-width:0.5;" x1="263" x2="3036" y1="1126" y2="1126"/>
  <line id="Capline-M" style="fill:none;stroke:#27AAE1;opacity:1;stroke-width:0.5;" x1="263" x2="3036" y1="1055.54" y2="1055.54"/>
  <g id="H-reference" style="fill:#27AAE1;stroke:none;" transform="matrix(1 0 0 1 339 1556)">
   <path d="M0.993654 0L3.63775 0L29.3281-67.1323L30.0303-67.1323L30.0303-70.459L28.1226-70.459ZM11.6885-24.4799L46.9815-24.4799L46.2315-26.7285L12.4385-26.7285ZM55.1196 0L57.7637 0L30.6382-70.459L29.4326-70.459L29.4326-67.1323Z"/>
  </g>
  <line id="Baseline-L" style="fill:none;stroke:#27AAE1;opacity:1;stroke-width:0.5;" x1="263" x2="3036" y1="1556" y2="1556"/>
  <line id="Capline-L" style="fill:none;stroke:#27AAE1;opacity:1;stroke-width:0.5;" x1="263" x2="3036" y1="1485.54" y2="1485.54"/>
  <line id="left-margin-Ultralight-S" style="fill:none;stroke:#00AEEF;stroke-width:0.5;opacity:1.0;" x1="515.92" x2="515.92" y1="600.785" y2="720.121"/>
  <line id="right-margin-Ultralight-S" style="fill:none;stroke:#00AEEF;stroke-width:0.5;opacity:1.0;" x1="603.502" x2="603.502" y1="600.785" y2="720.121"/>
  <line id="left-margin-Regular-S" style="fill:none;stroke:#00AEEF;stroke-width:0.5;opacity:1.0;" x1="1401.94" x2="1401.94" y1="600.785" y2="720.121"/>
  <line id="right-margin-Regular-S" style="fill:none;stroke:#00AEEF;stroke-width:0.5;opacity:1.0;" x1="1497.74" x2="1497.74" y1="600.785" y2="720.121"/>
  <line id="left-margin-Black-S" style="fill:none;stroke:#00AEEF;stroke-width:0.5;opacity:1.0;" x1="2883.72" x2="2883.72" y1="600.785" y2="720.121"/>
  <line id="right-margin-Black-S" style="fill:none;stroke:#00AEEF;stroke-width:0.5;opacity:1.0;" x1="2983.08" x2="2983.08" y1="600.785" y2="720.121"/>
 </g>
 <g id="Symbols">
  <g id="Black-S" transform="matrix(1 0 0 1 2883.72 696)">
   <path class="SFSymbolsPreviewWireframe" d="M62.207-11.5723C77.002-11.5723 83.9844-15.8691 83.9844-25.1953L83.9844-71.0938C83.9844-81.1523 76.416-86.377 62.207-86.377C47.9492-86.377 40.4297-81.2012 40.4297-71.0938L40.4297-25.1953C40.4297-15.8691 47.3633-11.5723 62.207-11.5723ZM62.207-20.6055C53.2715-20.6055 49.5117-22.168 49.5117-25.4883L49.5117-70.8008C49.5117-75.0977 53.6133-77.2949 62.207-77.2949C70.752-77.2949 74.9023-75.0977 74.9023-70.8008L74.9023-25.4883C74.9023-22.168 71.1426-20.6055 62.207-20.6055ZM62.207-53.125C64.9414-53.125 68.457-52.832 69.0918-52.832C71.3867-52.832 72.4121-53.8086 72.6074-56.1035L73.0957-61.3281C73.4863-65.5762 70.2148-67.1875 62.207-67.1875C54.1992-67.1875 50.9277-65.5762 51.3184-61.3281L51.8066-56.1035C52.002-53.8086 53.0273-52.832 55.3223-52.832C55.957-52.832 59.4727-53.125 62.207-53.125ZM62.207-25C70.6543-25 73.584-26.5137 72.998-30.8594L72.6562-33.3008C72.168-36.8652 69.1406-37.9883 62.207-37.9883C55.2734-37.9883 52.2461-36.8652 51.7578-33.3008L51.416-30.8594C50.8301-26.5137 53.7598-25 62.207-25ZM81.4941-54.5898L85.5957-54.5898C88.0371-54.5898 89.5996-56.4453 89.5996-59.2285L89.5996-59.3262C89.5996-62.1582 88.0371-64.0137 85.5957-64.0137L81.4941-64.0137ZM42.9199-54.248L42.9199-63.6719L38.8184-63.6719C36.377-63.6719 34.8145-61.8164 34.8145-58.9844L34.8145-58.8867C34.8145-56.1035 36.377-54.248 38.8184-54.248ZM30.7617-5.27344C34.2773-1.75781 38.6719 0.341797 43.457 1.02539C46.875 1.46484 49.5605-0.927734 49.5605-4.39453C49.5605-7.12891 47.6074-8.74023 44.0918-9.42383C41.9434-9.91211 39.9414-10.8398 38.1348-12.6465C36.3281-14.502 35.3516-16.4551 34.9121-18.6035C34.2285-22.168 32.6172-24.0723 29.8828-24.0723C26.416-24.0723 24.0234-21.3867 24.4629-17.9688C25.1465-13.1836 27.2461-8.78906 30.7617-5.27344ZM19.6777 5.76172C25.6836 11.7676 33.3008 15.0879 41.4062 15.6738C44.9219 15.8691 47.2168 13.4277 47.2168 10.1562C47.2168 7.42188 45.0195 5.41992 41.4551 5.07812C36.084 4.54102 31.2012 2.49023 27.0996-1.61133C22.998-5.71289 20.7031-10.5957 20.4102-15.9668C20.1172-19.5801 18.0664-21.7285 15.332-21.7285C12.0605-21.7285 9.61914-19.4336 9.76562-15.918C10.3516-7.8125 13.7207-0.195312 19.6777 5.76172Z"/>
  </g>
  <g id="Regular-S" transform="matrix(1 0 0 1 1401.94 696)">
   <path class="SFSymbolsPreviewWireframe" d="M59.0332-9.42383C74.2676-9.42383 80.7129-12.7441 80.7129-21.5332L80.7129-71.1426C80.7129-80.127 72.4609-85.4492 59.0332-85.4492C45.6055-85.4492 37.3047-80.127 37.3047-71.1426L37.3047-21.5332C37.3047-12.7441 43.8477-9.42383 59.0332-9.42383ZM59.0332-16.2598C48.0957-16.2598 44.1895-17.7246 44.1895-21.7285L44.1895-71.1426C44.1895-75.8789 49.3652-78.5645 59.0332-78.5645C68.7012-78.5645 73.8281-75.8789 73.8281-71.1426L73.8281-21.7285C73.8281-17.7246 69.9219-16.2598 59.0332-16.2598ZM59.0332-53.4668C61.6699-53.4668 65.7715-53.2227 67.1875-53.2227C69.4824-53.2227 70.5078-54.1992 70.7031-56.543L71.1914-62.0605C71.582-66.5039 68.4082-68.0664 59.0332-68.0664C49.6094-68.0664 46.4844-66.5039 46.875-62.0605L47.3145-56.543C47.5586-54.1992 48.584-53.2227 50.8789-53.2227C52.2949-53.2227 56.3965-53.4668 59.0332-53.4668ZM59.0332-23.1934C68.75-23.1934 71.875-24.6582 71.0938-29.248L70.7031-31.8359C70.0684-35.498 67.2852-36.6211 59.0332-36.6211C50.7812-36.6211 47.9492-35.498 47.3633-31.8359L46.9238-29.248C46.1426-24.6582 49.2676-23.1934 59.0332-23.1934ZM77.0508-54.4434L82.373-54.4434C84.375-54.4434 86.0352-56.0547 86.0352-58.0078L86.0352-59.375C86.0352-61.377 84.375-62.9395 82.373-62.9395L77.0508-62.9395ZM40.9668-54.4434L40.9668-62.9395L35.6445-62.9395C33.6426-62.9395 32.0312-61.377 32.0312-59.375L32.0312-58.0078C32.0312-56.0547 33.6426-54.4434 35.6445-54.4434ZM29.1504-4.49219C33.252-0.390625 38.8672 1.61133 41.8945 1.61133C43.8965 1.61133 45.3125 0.292969 45.3125-1.61133C45.3125-3.32031 44.0918-4.6875 41.4062-5.12695C38.623-5.51758 36.0352-6.88477 33.7891-9.08203C31.6406-11.2793 30.2734-13.9648 29.7363-17.1875C29.3457-19.5801 28.3691-20.5078 26.2695-20.5078C24.3652-20.5078 22.8516-19.043 23.1445-16.6992C23.7793-12.0117 25.7324-7.86133 29.1504-4.49219ZM19.5312 5.12695C25.4883 11.1328 32.959 14.9414 41.0156 14.9414C43.2617 14.9414 44.7754 13.5254 44.7754 11.4746C44.7754 9.57031 43.3105 8.34961 40.8691 8.1543C34.7656 7.71484 28.8086 5.17578 24.1211 0.537109C19.5312-4.15039 16.9434-10.0586 16.5039-16.1621C16.2598-18.9453 15.1367-20.0195 12.9395-20.0195C11.2305-20.0195 9.61914-18.7988 9.76562-16.4062C10.4004-8.25195 13.5254-0.78125 19.5312 5.12695Z"/>
  </g>
  <g id="Ultralight-S" transform="matrix(1 0 0 1 515.92 696)">
   <path class="SFSymbolsPreviewWireframe" d="M54.7647-9.7417C67.1836-9.7417 74.0831-13.1074 74.0831-20.3071L74.0831-70.0073C74.0831-77.6748 67.0572-81.9981 54.7647-81.9981C42.3814-81.9981 35.3521-77.6748 35.3521-70.0073L35.3521-20.3071C35.3521-13.1074 42.3037-9.7417 54.7647-9.7417ZM54.7647-11.9458C43.6001-11.9458 37.5142-14.5459 37.5142-20.3208L37.5142-70.0073C37.5142-76.2876 43.6436-79.8813 54.7647-79.8813C65.8404-79.8813 71.8755-76.2876 71.8755-70.0073L71.8755-20.3208C71.8755-14.5459 65.8804-11.9458 54.7647-11.9458ZM54.7193-51.6504C57.9917-51.6504 62.6382-51.3609 64.145-51.3609C66.4854-51.3609 67.6016-52.292 67.8423-54.8628L68.2398-59.5176C68.585-63.8247 66.6826-65.9321 54.7193-65.9321C42.7525-65.9321 40.8536-63.8247 41.1988-59.5176L41.5928-54.8628C41.837-52.292 42.9532-51.3609 45.2935-51.3609C46.8003-51.3609 52.1734-51.6504 54.7193-51.6504ZM54.7193-18.8794C65.1626-18.8794 68.2876-20.3443 67.8697-24.7525L67.6607-27.3858C67.2984-30.9571 64.3335-32.1709 54.7193-32.1709C45.105-32.1709 42.1368-30.9571 41.7779-27.3858L41.5201-24.7525C41.1475-20.3443 44.2725-18.8794 54.7193-18.8794ZM72.646-55.8511L75.607-55.8511C76.9732-55.8511 77.816-56.5542 77.816-57.6899L77.816-59.375C77.816-60.5142 76.9732-61.2593 75.607-61.2593L72.646-61.2593ZM36.7437-55.8511L36.7437-61.2593L33.8281-61.2593C32.4165-61.2593 31.5772-60.5142 31.5772-59.375L31.5772-57.6899C31.5772-56.5542 32.4165-55.8511 33.8281-55.8511ZM27.3794-6.12694C30.6182-2.88816 34.8711-1.06785 39.2608-1.06785C40.0367-1.06785 40.5445-1.61424 40.4991-2.15625C40.4991-3.00244 39.9595-3.2798 39.0449-3.31056C35.5352-3.24709 31.9937-4.65969 28.9756-7.67433C25.919-10.7344 24.5064-14.1919 24.605-17.7324C24.5777-18.6719 24.2823-19.1909 23.4995-19.1909C22.8667-19.2363 22.3521-18.7705 22.3726-17.9707C22.3716-13.5102 24.1885-9.31444 27.3794-6.12694ZM18.396 2.85646C23.9898 8.45363 31.4151 11.4903 39.4263 11.4903C40.2647 11.4903 40.6431 10.9824 40.6431 10.3394C40.5977 9.84277 40.2227 9.30322 39.3252 9.33495C32.0864 9.30419 25.2666 6.58349 19.9888 1.26367C14.7178-3.96875 11.9937-10.7852 11.9629-18.0693C11.9458-18.9453 11.4131-19.3384 10.896-19.3384C10.3223-19.3838 9.75537-18.9351 9.76562-18.1772C9.81006-10.1592 12.8442-2.68846 18.396 2.85646Z"/>
  </g>
 </g>
</svg>
