<?xml version="1.0" encoding="UTF-8"?>
<!--Generator: Apple Native CoreSVG 232.5-->
<!DOCTYPE svg
PUBLIC "-//W3C//DTD SVG 1.1//EN"
       "http://www.w3.org/Graphics/SVG/1.1/DTD/svg11.dtd">
<svg version="1.1" xmlns="http://www.w3.org/2000/svg" xmlns:xlink="http://www.w3.org/1999/xlink" width="3300" height="2200">
 <!--glyph: "uni1014B7.medium", point size: 100.0, font version: "19.2d2e1", template writer version: "128"-->
 <style>.SFSymbolsPreviewWireframe {fill:none;opacity:1.0;stroke:black;stroke-width:0.5}
</style>
 <g id="Notes">
  <rect height="2200" id="artboard" style="fill:white;opacity:1" width="3300" x="0" y="0"/>
  <line style="fill:none;stroke:black;opacity:1;stroke-width:0.5;" x1="263" x2="3036" y1="292" y2="292"/>
  <text style="stroke:none;fill:black;font-family:sans-serif;font-size:13;font-weight:bold;" transform="matrix(1 0 0 1 263 322)">Weight/Scale Variations</text>
  <text style="stroke:none;fill:black;font-family:sans-serif;font-size:13;text-anchor:middle;" transform="matrix(1 0 0 1 559.711 322)">Ultralight</text>
  <text style="stroke:none;fill:black;font-family:sans-serif;font-size:13;text-anchor:middle;" transform="matrix(1 0 0 1 856.422 322)">Thin</text>
  <text style="stroke:none;fill:black;font-family:sans-serif;font-size:13;text-anchor:middle;" transform="matrix(1 0 0 1 1153.13 322)">Light</text>
  <text style="stroke:none;fill:black;font-family:sans-serif;font-size:13;text-anchor:middle;" transform="matrix(1 0 0 1 1449.84 322)">Regular</text>
  <text style="stroke:none;fill:black;font-family:sans-serif;font-size:13;text-anchor:middle;" transform="matrix(1 0 0 1 1746.56 322)">Medium</text>
  <text style="stroke:none;fill:black;font-family:sans-serif;font-size:13;text-anchor:middle;" transform="matrix(1 0 0 1 2043.27 322)">Semibold</text>
  <text style="stroke:none;fill:black;font-family:sans-serif;font-size:13;text-anchor:middle;" transform="matrix(1 0 0 1 2339.98 322)">Bold</text>
  <text style="stroke:none;fill:black;font-family:sans-serif;font-size:13;text-anchor:middle;" transform="matrix(1 0 0 1 2636.69 322)">Heavy</text>
  <text style="stroke:none;fill:black;font-family:sans-serif;font-size:13;text-anchor:middle;" transform="matrix(1 0 0 1 2933.4 322)">Black</text>
  <line style="fill:none;stroke:black;opacity:1;stroke-width:0.5;" x1="263" x2="3036" y1="1903" y2="1903"/>
  <g transform="matrix(0.2 0 0 0.2 263 1933)">
   <path d="m46.2402 4.15039c21.5332 0 39.4531-17.8711 39.4531-39.4043s-17.9688-39.4043-39.502-39.4043c-21.4844 0-39.3555 17.8711-39.3555 39.4043s17.9199 39.4043 39.4043 39.4043Zm0-7.42188c-17.7246 0-31.8848-14.209-31.8848-31.9824s14.1113-31.9824 31.8359-31.9824c17.7734 0 32.0312 14.209 32.0312 31.9824s-14.209 31.9824-31.9824 31.9824Zm-17.9688-31.9824c0 2.14844 1.51367 3.61328 3.75977 3.61328h10.498v10.5957c0 2.19727 1.46484 3.71094 3.61328 3.71094 2.24609 0 3.71094-1.51367 3.71094-3.71094v-10.5957h10.5957c2.19727 0 3.71094-1.46484 3.71094-3.61328 0-2.19727-1.51367-3.71094-3.71094-3.71094h-10.5957v-10.5469c0-2.24609-1.46484-3.75977-3.71094-3.75977-2.14844 0-3.61328 1.51367-3.61328 3.75977v10.5469h-10.498c-2.24609 0-3.75977 1.51367-3.75977 3.71094Z"/>
  </g>
  <g transform="matrix(0.2 0 0 0.2 281.506 1933)">
   <path d="m58.5449 14.5508c27.2461 0 49.8047-22.6074 49.8047-49.8047 0-27.2461-22.6074-49.8047-49.8535-49.8047-27.1973 0-49.7559 22.5586-49.7559 49.8047 0 27.1973 22.6074 49.8047 49.8047 49.8047Zm0-8.30078c-23.0469 0-41.4551-18.457-41.4551-41.5039s18.3594-41.5039 41.4062-41.5039 41.5527 18.457 41.5527 41.5039-18.457 41.5039-41.5039 41.5039Zm-22.6562-41.5039c0 2.39258 1.66016 4.00391 4.15039 4.00391h14.3555v14.4043c0 2.44141 1.66016 4.15039 4.05273 4.15039 2.44141 0 4.15039-1.66016 4.15039-4.15039v-14.4043h14.4043c2.44141 0 4.15039-1.61133 4.15039-4.00391 0-2.44141-1.70898-4.15039-4.15039-4.15039h-14.4043v-14.3555c0-2.49023-1.70898-4.19922-4.15039-4.19922-2.39258 0-4.05273 1.70898-4.05273 4.19922v14.3555h-14.3555c-2.49023 0-4.15039 1.70898-4.15039 4.15039Z"/>
  </g>
  <g transform="matrix(0.2 0 0 0.2 304.924 1933)">
   <path d="m74.8535 28.3203c34.8145 0 63.623-28.8086 63.623-63.5742 0-34.8145-28.8574-63.623-63.6719-63.623-34.7656 0-63.5254 28.8086-63.5254 63.623 0 34.7656 28.8086 63.5742 63.5742 63.5742Zm0-9.08203c-30.1758 0-54.4434-24.3164-54.4434-54.4922 0-30.2246 24.2188-54.4922 54.3945-54.4922 30.2246 0 54.541 24.2676 54.541 54.4922 0 30.1758-24.2676 54.4922-54.4922 54.4922Zm-28.8574-54.4922c0 2.58789 1.85547 4.39453 4.58984 4.39453h19.7266v19.7754c0 2.68555 1.85547 4.58984 4.44336 4.58984 2.68555 0 4.54102-1.85547 4.54102-4.58984v-19.7754h19.7754c2.68555 0 4.58984-1.80664 4.58984-4.39453 0-2.73438-1.85547-4.58984-4.58984-4.58984h-19.7754v-19.7266c0-2.73438-1.85547-4.63867-4.54102-4.63867-2.58789 0-4.44336 1.9043-4.44336 4.63867v19.7266h-19.7266c-2.73438 0-4.58984 1.85547-4.58984 4.58984Z"/>
  </g>
  <text style="stroke:none;fill:black;font-family:sans-serif;font-size:13;font-weight:bold;" transform="matrix(1 0 0 1 263 1953)">Design Variations</text>
  <text style="stroke:none;fill:black;font-family:sans-serif;font-size:13;" transform="matrix(1 0 0 1 263 1971)">Symbols are supported in up to nine weights and three scales.</text>
  <text style="stroke:none;fill:black;font-family:sans-serif;font-size:13;" transform="matrix(1 0 0 1 263 1989)">For optimal layout with text and other symbols, vertically align</text>
  <text style="stroke:none;fill:black;font-family:sans-serif;font-size:13;" transform="matrix(1 0 0 1 263 2007)">symbols with the adjacent text.</text>
  <line style="fill:none;stroke:#00AEEF;stroke-width:0.5;opacity:1.0;" x1="776" x2="776" y1="1919" y2="1933"/>
  <g transform="matrix(0.2 0 0 0.2 776 1933)">
   <path d="m16.5527 0.78125c2.58789 0 3.85742-0.976562 4.78516-3.71094l6.29883-17.2363h28.8086l6.29883 17.2363c0.927734 2.73438 2.19727 3.71094 4.73633 3.71094 2.58789 0 4.24805-1.5625 4.24805-4.00391 0-0.830078-0.146484-1.61133-0.537109-2.63672l-22.9004-60.9863c-1.12305-2.97852-3.125-4.49219-6.25-4.49219-3.02734 0-5.07812 1.46484-6.15234 4.44336l-22.9004 61.084c-0.390625 1.02539-0.537109 1.80664-0.537109 2.63672 0 2.44141 1.5625 3.95508 4.10156 3.95508Zm13.4766-28.3691 11.8652-32.8613h0.244141l11.8652 32.8613Z"/>
  </g>
  <line style="fill:none;stroke:#00AEEF;stroke-width:0.5;opacity:1.0;" x1="792.836" x2="792.836" y1="1919" y2="1933"/>
  <text style="stroke:none;fill:black;font-family:sans-serif;font-size:13;font-weight:bold;" transform="matrix(1 0 0 1 776 1953)">Margins</text>
  <text style="stroke:none;fill:black;font-family:sans-serif;font-size:13;" transform="matrix(1 0 0 1 776 1971)">Leading and trailing margins on the left and right side of each symbol</text>
  <text style="stroke:none;fill:black;font-family:sans-serif;font-size:13;" transform="matrix(1 0 0 1 776 1989)">can be adjusted by modifying the x-location of the margin guidelines.</text>
  <text style="stroke:none;fill:black;font-family:sans-serif;font-size:13;" transform="matrix(1 0 0 1 776 2007)">Modifications are automatically applied proportionally to all</text>
  <text style="stroke:none;fill:black;font-family:sans-serif;font-size:13;" transform="matrix(1 0 0 1 776 2025)">scales and weights.</text>
  <g transform="matrix(0.2 0 0 0.2 1289 1933)">
   <path d="m14.209 9.32617 8.49609 8.54492c4.29688 4.3457 9.22852 4.05273 13.8672-1.07422l53.4668-58.9355-4.83398-4.88281-53.0762 58.3984c-1.75781 2.00195-3.41797 2.49023-5.76172 0.146484l-5.85938-5.81055c-2.34375-2.29492-1.80664-4.00391 0.195312-5.81055l57.373-54.0039-4.88281-4.83398-57.959 54.4434c-4.93164 4.58984-5.32227 9.47266-1.02539 13.8184Zm32.0801-90.9668c-2.09961 2.05078-2.24609 4.93164-1.07422 6.88477 1.17188 1.80664 3.4668 2.97852 6.68945 2.14844 7.32422-1.70898 14.9414-2.00195 22.0703 2.68555l-2.92969 7.27539c-1.70898 4.15039-0.830078 7.08008 1.85547 9.81445l11.4746 11.5723c2.44141 2.44141 4.49219 2.53906 7.32422 2.05078l5.32227-0.976562 3.32031 3.36914-0.195312 2.7832c-0.195312 2.49023 0.439453 4.39453 2.88086 6.78711l3.80859 3.71094c2.39258 2.39258 5.46875 2.53906 7.8125 0.195312l14.5508-14.5996c2.34375-2.34375 2.24609-5.32227-0.146484-7.71484l-3.85742-3.80859c-2.39258-2.39258-4.24805-3.17383-6.64062-2.97852l-2.88086 0.244141-3.22266-3.17383 1.2207-5.61523c0.634766-2.83203-0.146484-5.0293-3.07617-7.95898l-10.9863-10.9375c-16.6992-16.6016-38.8672-16.2109-53.3203-1.75781Zm7.4707 1.85547c12.1582-8.88672 28.6133-7.37305 39.7461 3.75977l12.1582 12.0605c1.17188 1.17188 1.36719 2.09961 1.02539 3.80859l-1.61133 7.42188 7.51953 7.42188 4.93164-0.292969c1.26953-0.0488281 1.66016 0.0488281 2.63672 1.02539l2.88086 2.88086-12.207 12.207-2.88086-2.88086c-0.976562-0.976562-1.12305-1.36719-1.07422-2.68555l0.341797-4.88281-7.4707-7.42188-7.61719 1.26953c-1.61133 0.341797-2.34375 0.195312-3.56445-0.976562l-10.0098-10.0098c-1.26953-1.17188-1.41602-2.00195-0.634766-3.85742l4.39453-10.4492c-7.8125-7.27539-17.9688-10.4004-28.125-7.42188-0.78125 0.195312-1.07422-0.439453-0.439453-0.976562Z"/>
  </g>
  <text style="stroke:none;fill:black;font-family:sans-serif;font-size:13;font-weight:bold;" transform="matrix(1 0 0 1 1289 1953)">Exporting</text>
  <text style="stroke:none;fill:black;font-family:sans-serif;font-size:13;" transform="matrix(1 0 0 1 1289 1971)">Symbols should be outlined when exporting to ensure the</text>
  <text style="stroke:none;fill:black;font-family:sans-serif;font-size:13;" transform="matrix(1 0 0 1 1289 1989)">design is preserved when submitting to Xcode.</text>
  <text id="template-version" style="stroke:none;fill:black;font-family:sans-serif;font-size:13;text-anchor:end;" transform="matrix(1 0 0 1 3036 1933)">Template v.5.0</text>
  <text style="stroke:none;fill:black;font-family:sans-serif;font-size:13;text-anchor:end;" transform="matrix(1 0 0 1 3036 1951)">Requires Xcode 15 or greater</text>
  <text id="descriptive-name" style="stroke:none;fill:black;font-family:sans-serif;font-size:13;text-anchor:end;" transform="matrix(1 0 0 1 3036 1969)">Generated from carbon.monoxide.cloud.fill</text>
  <text style="stroke:none;fill:black;font-family:sans-serif;font-size:13;text-anchor:end;" transform="matrix(1 0 0 1 3036 1987)">Typeset at 100.0 points</text>
  <text style="stroke:none;fill:black;font-family:sans-serif;font-size:13;" transform="matrix(1 0 0 1 263 726)">Small</text>
  <text style="stroke:none;fill:black;font-family:sans-serif;font-size:13;" transform="matrix(1 0 0 1 263 1156)">Medium</text>
  <text style="stroke:none;fill:black;font-family:sans-serif;font-size:13;" transform="matrix(1 0 0 1 263 1586)">Large</text>
 </g>
 <g id="Guides">
  <g id="H-reference" style="fill:#27AAE1;stroke:none;" transform="matrix(1 0 0 1 339 696)">
   <path d="M0.993654 0L3.63775 0L29.3281-67.1323L30.0303-67.1323L30.0303-70.459L28.1226-70.459ZM11.6885-24.4799L46.9815-24.4799L46.2315-26.7285L12.4385-26.7285ZM55.1196 0L57.7637 0L30.6382-70.459L29.4326-70.459L29.4326-67.1323Z"/>
  </g>
  <line id="Baseline-S" style="fill:none;stroke:#27AAE1;opacity:1;stroke-width:0.5;" x1="263" x2="3036" y1="696" y2="696"/>
  <line id="Capline-S" style="fill:none;stroke:#27AAE1;opacity:1;stroke-width:0.5;" x1="263" x2="3036" y1="625.541" y2="625.541"/>
  <g id="H-reference" style="fill:#27AAE1;stroke:none;" transform="matrix(1 0 0 1 339 1126)">
   <path d="M0.993654 0L3.63775 0L29.3281-67.1323L30.0303-67.1323L30.0303-70.459L28.1226-70.459ZM11.6885-24.4799L46.9815-24.4799L46.2315-26.7285L12.4385-26.7285ZM55.1196 0L57.7637 0L30.6382-70.459L29.4326-70.459L29.4326-67.1323Z"/>
  </g>
  <line id="Baseline-M" style="fill:none;stroke:#27AAE1;opacity:1;stroke-width:0.5;" x1="263" x2="3036" y1="1126" y2="1126"/>
  <line id="Capline-M" style="fill:none;stroke:#27AAE1;opacity:1;stroke-width:0.5;" x1="263" x2="3036" y1="1055.54" y2="1055.54"/>
  <g id="H-reference" style="fill:#27AAE1;stroke:none;" transform="matrix(1 0 0 1 339 1556)">
   <path d="M0.993654 0L3.63775 0L29.3281-67.1323L30.0303-67.1323L30.0303-70.459L28.1226-70.459ZM11.6885-24.4799L46.9815-24.4799L46.2315-26.7285L12.4385-26.7285ZM55.1196 0L57.7637 0L30.6382-70.459L29.4326-70.459L29.4326-67.1323Z"/>
  </g>
  <line id="Baseline-L" style="fill:none;stroke:#27AAE1;opacity:1;stroke-width:0.5;" x1="263" x2="3036" y1="1556" y2="1556"/>
  <line id="Capline-L" style="fill:none;stroke:#27AAE1;opacity:1;stroke-width:0.5;" x1="263" x2="3036" y1="1485.54" y2="1485.54"/>
  <line id="left-margin-Ultralight-S" style="fill:none;stroke:#00AEEF;stroke-width:0.5;opacity:1.0;" x1="504.846" x2="504.846" y1="600.785" y2="720.121"/>
  <line id="right-margin-Ultralight-S" style="fill:none;stroke:#00AEEF;stroke-width:0.5;opacity:1.0;" x1="614.577" x2="614.577" y1="600.785" y2="720.121"/>
  <line id="left-margin-Regular-S" style="fill:none;stroke:#00AEEF;stroke-width:0.5;opacity:1.0;" x1="1393.91" x2="1393.91" y1="600.785" y2="720.121"/>
  <line id="right-margin-Regular-S" style="fill:none;stroke:#00AEEF;stroke-width:0.5;opacity:1.0;" x1="1505.78" x2="1505.78" y1="600.785" y2="720.121"/>
  <line id="left-margin-Black-S" style="fill:none;stroke:#00AEEF;stroke-width:0.5;opacity:1.0;" x1="2872.61" x2="2872.61" y1="600.785" y2="720.121"/>
  <line id="right-margin-Black-S" style="fill:none;stroke:#00AEEF;stroke-width:0.5;opacity:1.0;" x1="2994.19" x2="2994.19" y1="600.785" y2="720.121"/>
 </g>
 <g id="Symbols">
  <g id="Black-S" transform="matrix(1 0 0 1 2872.61 696)">
   <path class="SFSymbolsPreviewWireframe" d="M33.5938 6.15234L85.6445 6.15234C100.391 6.15234 111.816-5.07812 111.816-19.6289C111.816-34.375 100.732-45.8984 85.5957-45.8984C80.0293-56.543 70.459-62.0117 57.5195-62.0117C41.3574-62.0117 28.0762-50.9766 25.3906-34.5703C16.4551-31.3477 11.2305-23.9746 11.2305-15.1367C11.2305-2.7832 20.6543 6.15234 33.5938 6.15234ZM49.9512-9.76562C42.2852-9.76562 39.2578-16.0645 39.2578-23.3887C39.2578-30.8594 42.5781-36.9629 49.8047-36.9629C55.6152-36.9629 59.4238-32.9102 59.4238-28.418C59.4238-26.5137 58.252-25.0977 56.3965-25.0977C54.7363-25.0977 53.7109-26.123 53.2715-27.9297C52.9297-29.4434 52.1973-31.2012 49.9023-31.2012C46.7285-31.2012 45.6543-27.4414 45.6543-23.3887C45.6543-18.9453 46.6309-15.5273 49.9512-15.5273C52.2461-15.5273 53.125-17.2852 53.5156-18.75C53.8574-20.5566 54.7852-21.582 56.543-21.582C58.3496-21.582 59.5215-20.166 59.5215-18.2617C59.5215-13.8184 55.7617-9.76562 49.9512-9.76562ZM71.7773-9.76562C65.2832-9.76562 61.1816-15.0391 61.1816-23.3398C61.1816-31.6406 65.2832-36.9629 71.7773-36.9629C78.2227-36.9629 82.2754-31.6406 82.2754-23.3398C82.2754-15.0391 78.2227-9.76562 71.7773-9.76562ZM71.7773-15.5273C74.3652-15.5273 75.9766-18.2129 75.9766-23.3398C75.9766-28.4668 74.3652-31.2012 71.7773-31.2012C69.1406-31.2012 67.5293-28.4668 67.5293-23.3398C67.5293-18.2129 69.1406-15.5273 71.7773-15.5273ZM15.8691-37.2559C19.1895-37.2559 21.875-39.9414 21.875-43.3594C21.875-46.6797 19.1895-49.3652 15.8691-49.3652C12.4512-49.3652 9.76562-46.6797 9.76562-43.3594C9.76562-39.9414 12.4512-37.2559 15.8691-37.2559ZM79.0039-65.1367C82.1289-65.1367 84.7168-67.7246 84.7168-70.8496C84.7168-73.9746 82.1289-76.5625 79.0039-76.5625C75.8789-76.5625 73.291-73.9746 73.291-70.8496C73.291-67.7246 75.8789-65.1367 79.0039-65.1367ZM97.3145-50.0977C102.051-50.0977 105.811-53.9062 105.811-58.6426C105.811-63.3789 102.051-67.1875 97.3145-67.1875C92.5293-67.1875 88.7207-63.3789 88.7207-58.6426C88.7207-53.9062 92.5293-50.0977 97.3145-50.0977Z"/>
  </g>
  <g id="Regular-S" transform="matrix(1 0 0 1 1393.91 696)">
   <path class="SFSymbolsPreviewWireframe" d="M29.3945 1.07422L79.0527 1.07422C92.041 1.07422 102.1-8.78906 102.1-21.4355C102.1-34.1797 91.8945-43.8477 77.7832-43.8477C72.6562-53.9062 63.1348-59.9121 52.0508-59.9121C37.1094-59.9121 24.3652-48.4863 22.998-33.1543C15.332-30.957 10.3516-24.3652 10.3516-16.2598C10.3516-6.68945 17.2852 1.07422 29.3945 1.07422ZM45.752-11.9629C38.8672-11.9629 36.1816-17.6758 36.1816-24.4629C36.1816-31.2988 39.1113-36.8164 45.6055-36.8164C50.8301-36.8164 54.1504-33.1543 54.1504-29.1992C54.1992-27.7344 53.2715-26.6602 51.9043-26.6602C50.5859-26.6602 49.9023-27.3926 49.5117-28.9062C49.1699-30.4688 48.1934-32.4707 45.7031-32.4707C42.2363-32.4707 41.0156-28.4668 41.0156-24.4629C41.0156-20.1172 42.1875-16.3086 45.752-16.3086C48.2422-16.3086 49.3164-18.3105 49.6582-19.9219C50.0488-21.4355 50.7324-22.1191 52.0508-22.1191C53.418-22.1191 54.2969-21.0938 54.2969-19.5801C54.2969-15.625 50.9766-11.9629 45.752-11.9629ZM65.3809-11.9629C59.5703-11.9629 55.9082-16.7969 55.9082-24.4141C55.9082-31.9824 59.5703-36.8164 65.3809-36.8164C71.1914-36.8164 74.8047-31.9824 74.8047-24.4141C74.8047-16.7969 71.1914-11.9629 65.3809-11.9629ZM65.3809-16.3086C68.2617-16.3086 70.0195-19.2871 70.0195-24.4141C70.0195-29.541 68.2617-32.4707 65.3809-32.4707C62.5-32.4707 60.7422-29.541 60.7422-24.4141C60.7422-19.2871 62.5-16.3086 65.3809-16.3086ZM15.1855-36.6699C18.1641-36.6699 20.5078-39.0625 20.5078-42.0898C20.5078-45.0684 18.1641-47.4609 15.1855-47.4609C12.1582-47.4609 9.76562-45.0684 9.76562-42.0898C9.76562-39.0625 12.1582-36.6699 15.1855-36.6699ZM71.2891-61.4746C74.0723-61.4746 76.3672-63.7695 76.3672-66.5527C76.3672-69.3359 74.0723-71.6309 71.2891-71.6309C68.5059-71.6309 66.2598-69.3359 66.2598-66.5527C66.2598-63.7695 68.5059-61.4746 71.2891-61.4746ZM87.5-48.1445C91.6992-48.1445 95.0684-51.5137 95.0684-55.7129C95.0684-59.9121 91.6992-63.2812 87.5-63.2812C83.3008-63.2812 79.9316-59.9121 79.9316-55.7129C79.9316-51.5137 83.3008-48.1445 87.5-48.1445Z"/>
  </g>
  <g id="Ultralight-S" transform="matrix(1 0 0 1 504.846 696)">
   <path class="SFSymbolsPreviewWireframe" d="M27.4873-0.106436L78.0991-0.106436C90.3609-0.106436 99.9653-9.33398 99.9653-20.9814C99.9653-32.772 89.9873-41.6226 77.0112-41.5772C72.0205-51.9536 63.4072-58.6406 51.0972-58.6406C36.7461-58.6406 24.9556-46.8062 23.7246-31.8374C16.1494-29.8672 10.1245-24.0928 10.1245-15.7603C10.1245-7.14355 16.5132-0.106436 27.4873-0.106436ZM44.98-11.9175C38.4585-11.9175 36-18.4932 36-25.0532C36-31.9346 38.6572-38.0879 44.9697-38.0879C49.8765-38.0879 52.2432-34.2895 52.8789-29.9712C53.0186-29.0513 52.4995-28.5674 51.8589-28.5674C51.2671-28.5674 50.9014-28.8911 50.7832-29.6328C49.9873-33.375 48.4204-36.0127 44.9766-36.0127C39.8296-36.0127 38.1094-30.6011 38.1094-25.0532C38.1094-19.7085 39.7354-13.9927 44.98-13.9927C48.4238-13.9927 50.043-16.585 50.7934-20.3306C50.9116-21.0723 51.2773-21.438 51.8691-21.438C52.5098-21.438 53.0254-20.9575 52.8892-19.9888C52.2534-15.7158 49.8413-11.9175 44.98-11.9175ZM63.7461-11.9175C58.1626-11.9175 54.6821-16.9785 54.6821-25.0044C54.6821-33.0723 58.1626-38.0879 63.6553-38.0879C69.2388-38.0879 72.7158-33.0723 72.7158-25.0044C72.7158-16.9785 69.2388-11.9175 63.7461-11.9175ZM63.7461-13.9927C67.9439-13.9927 70.519-18.1973 70.519-25.0044C70.519-31.7661 67.8984-36.0127 63.6553-36.0127C59.503-36.0127 56.8369-31.7661 56.8369-25.0044C56.8369-18.1973 59.5484-13.9927 63.7461-13.9927ZM14.9585-36.1704C17.8008-36.1704 20.0537-38.4268 20.0537-41.3179C20.0537-44.1602 17.8008-46.3711 14.9585-46.3711C12.0674-46.3711 9.76562-44.1602 9.76562-41.3179C9.76562-38.4268 12.0674-36.1704 14.9585-36.1704ZM70.7441-60.7026C73.3911-60.7026 75.5952-62.9067 75.5952-65.5537C75.5952-68.1553 73.3911-70.3594 70.7441-70.3594C68.0972-70.3594 65.9419-68.1553 65.9419-65.5537C65.9419-62.9067 68.0972-60.7026 70.7441-60.7026ZM86.2285-47.9629C90.2007-47.9629 93.4336-51.1504 93.4336-55.2134C93.4336-59.231 90.2007-62.4185 86.2285-62.4185C82.1655-62.4185 78.978-59.231 78.978-55.2134C78.978-51.1504 82.1655-47.9629 86.2285-47.9629Z"/>
  </g>
 </g>
</svg>
