<?xml version="1.0" encoding="UTF-8"?>
<!--Generator: Apple Native CoreSVG 232.5-->
<!DOCTYPE svg
PUBLIC "-//W3C//DTD SVG 1.1//EN"
       "http://www.w3.org/Graphics/SVG/1.1/DTD/svg11.dtd">
<svg version="1.1" xmlns="http://www.w3.org/2000/svg" xmlns:xlink="http://www.w3.org/1999/xlink" width="3300" height="2200">
 <!--glyph: "uni101326.medium", point size: 100.0, font version: "19.2d2e1", template writer version: "128"-->
 <style>.SFSymbolsPreviewWireframe {fill:none;opacity:1.0;stroke:black;stroke-width:0.5}
</style>
 <g id="Notes">
  <rect height="2200" id="artboard" style="fill:white;opacity:1" width="3300" x="0" y="0"/>
  <line style="fill:none;stroke:black;opacity:1;stroke-width:0.5;" x1="263" x2="3036" y1="292" y2="292"/>
  <text style="stroke:none;fill:black;font-family:sans-serif;font-size:13;font-weight:bold;" transform="matrix(1 0 0 1 263 322)">Weight/Scale Variations</text>
  <text style="stroke:none;fill:black;font-family:sans-serif;font-size:13;text-anchor:middle;" transform="matrix(1 0 0 1 559.711 322)">Ultralight</text>
  <text style="stroke:none;fill:black;font-family:sans-serif;font-size:13;text-anchor:middle;" transform="matrix(1 0 0 1 856.422 322)">Thin</text>
  <text style="stroke:none;fill:black;font-family:sans-serif;font-size:13;text-anchor:middle;" transform="matrix(1 0 0 1 1153.13 322)">Light</text>
  <text style="stroke:none;fill:black;font-family:sans-serif;font-size:13;text-anchor:middle;" transform="matrix(1 0 0 1 1449.84 322)">Regular</text>
  <text style="stroke:none;fill:black;font-family:sans-serif;font-size:13;text-anchor:middle;" transform="matrix(1 0 0 1 1746.56 322)">Medium</text>
  <text style="stroke:none;fill:black;font-family:sans-serif;font-size:13;text-anchor:middle;" transform="matrix(1 0 0 1 2043.27 322)">Semibold</text>
  <text style="stroke:none;fill:black;font-family:sans-serif;font-size:13;text-anchor:middle;" transform="matrix(1 0 0 1 2339.98 322)">Bold</text>
  <text style="stroke:none;fill:black;font-family:sans-serif;font-size:13;text-anchor:middle;" transform="matrix(1 0 0 1 2636.69 322)">Heavy</text>
  <text style="stroke:none;fill:black;font-family:sans-serif;font-size:13;text-anchor:middle;" transform="matrix(1 0 0 1 2933.4 322)">Black</text>
  <line style="fill:none;stroke:black;opacity:1;stroke-width:0.5;" x1="263" x2="3036" y1="1903" y2="1903"/>
  <g transform="matrix(0.2 0 0 0.2 263 1933)">
   <path d="m46.2402 4.15039c21.5332 0 39.4531-17.8711 39.4531-39.4043s-17.9688-39.4043-39.502-39.4043c-21.4844 0-39.3555 17.8711-39.3555 39.4043s17.9199 39.4043 39.4043 39.4043Zm0-7.42188c-17.7246 0-31.8848-14.209-31.8848-31.9824s14.1113-31.9824 31.8359-31.9824c17.7734 0 32.0312 14.209 32.0312 31.9824s-14.209 31.9824-31.9824 31.9824Zm-17.9688-31.9824c0 2.14844 1.51367 3.61328 3.75977 3.61328h10.498v10.5957c0 2.19727 1.46484 3.71094 3.61328 3.71094 2.24609 0 3.71094-1.51367 3.71094-3.71094v-10.5957h10.5957c2.19727 0 3.71094-1.46484 3.71094-3.61328 0-2.19727-1.51367-3.71094-3.71094-3.71094h-10.5957v-10.5469c0-2.24609-1.46484-3.75977-3.71094-3.75977-2.14844 0-3.61328 1.51367-3.61328 3.75977v10.5469h-10.498c-2.24609 0-3.75977 1.51367-3.75977 3.71094Z"/>
  </g>
  <g transform="matrix(0.2 0 0 0.2 281.506 1933)">
   <path d="m58.5449 14.5508c27.2461 0 49.8047-22.6074 49.8047-49.8047 0-27.2461-22.6074-49.8047-49.8535-49.8047-27.1973 0-49.7559 22.5586-49.7559 49.8047 0 27.1973 22.6074 49.8047 49.8047 49.8047Zm0-8.30078c-23.0469 0-41.4551-18.457-41.4551-41.5039s18.3594-41.5039 41.4062-41.5039 41.5527 18.457 41.5527 41.5039-18.457 41.5039-41.5039 41.5039Zm-22.6562-41.5039c0 2.39258 1.66016 4.00391 4.15039 4.00391h14.3555v14.4043c0 2.44141 1.66016 4.15039 4.05273 4.15039 2.44141 0 4.15039-1.66016 4.15039-4.15039v-14.4043h14.4043c2.44141 0 4.15039-1.61133 4.15039-4.00391 0-2.44141-1.70898-4.15039-4.15039-4.15039h-14.4043v-14.3555c0-2.49023-1.70898-4.19922-4.15039-4.19922-2.39258 0-4.05273 1.70898-4.05273 4.19922v14.3555h-14.3555c-2.49023 0-4.15039 1.70898-4.15039 4.15039Z"/>
  </g>
  <g transform="matrix(0.2 0 0 0.2 304.924 1933)">
   <path d="m74.8535 28.3203c34.8145 0 63.623-28.8086 63.623-63.5742 0-34.8145-28.8574-63.623-63.6719-63.623-34.7656 0-63.5254 28.8086-63.5254 63.623 0 34.7656 28.8086 63.5742 63.5742 63.5742Zm0-9.08203c-30.1758 0-54.4434-24.3164-54.4434-54.4922 0-30.2246 24.2188-54.4922 54.3945-54.4922 30.2246 0 54.541 24.2676 54.541 54.4922 0 30.1758-24.2676 54.4922-54.4922 54.4922Zm-28.8574-54.4922c0 2.58789 1.85547 4.39453 4.58984 4.39453h19.7266v19.7754c0 2.68555 1.85547 4.58984 4.44336 4.58984 2.68555 0 4.54102-1.85547 4.54102-4.58984v-19.7754h19.7754c2.68555 0 4.58984-1.80664 4.58984-4.39453 0-2.73438-1.85547-4.58984-4.58984-4.58984h-19.7754v-19.7266c0-2.73438-1.85547-4.63867-4.54102-4.63867-2.58789 0-4.44336 1.9043-4.44336 4.63867v19.7266h-19.7266c-2.73438 0-4.58984 1.85547-4.58984 4.58984Z"/>
  </g>
  <text style="stroke:none;fill:black;font-family:sans-serif;font-size:13;font-weight:bold;" transform="matrix(1 0 0 1 263 1953)">Design Variations</text>
  <text style="stroke:none;fill:black;font-family:sans-serif;font-size:13;" transform="matrix(1 0 0 1 263 1971)">Symbols are supported in up to nine weights and three scales.</text>
  <text style="stroke:none;fill:black;font-family:sans-serif;font-size:13;" transform="matrix(1 0 0 1 263 1989)">For optimal layout with text and other symbols, vertically align</text>
  <text style="stroke:none;fill:black;font-family:sans-serif;font-size:13;" transform="matrix(1 0 0 1 263 2007)">symbols with the adjacent text.</text>
  <line style="fill:none;stroke:#00AEEF;stroke-width:0.5;opacity:1.0;" x1="776" x2="776" y1="1919" y2="1933"/>
  <g transform="matrix(0.2 0 0 0.2 776 1933)">
   <path d="m16.5527 0.78125c2.58789 0 3.85742-0.976562 4.78516-3.71094l6.29883-17.2363h28.8086l6.29883 17.2363c0.927734 2.73438 2.19727 3.71094 4.73633 3.71094 2.58789 0 4.24805-1.5625 4.24805-4.00391 0-0.830078-0.146484-1.61133-0.537109-2.63672l-22.9004-60.9863c-1.12305-2.97852-3.125-4.49219-6.25-4.49219-3.02734 0-5.07812 1.46484-6.15234 4.44336l-22.9004 61.084c-0.390625 1.02539-0.537109 1.80664-0.537109 2.63672 0 2.44141 1.5625 3.95508 4.10156 3.95508Zm13.4766-28.3691 11.8652-32.8613h0.244141l11.8652 32.8613Z"/>
  </g>
  <line style="fill:none;stroke:#00AEEF;stroke-width:0.5;opacity:1.0;" x1="792.836" x2="792.836" y1="1919" y2="1933"/>
  <text style="stroke:none;fill:black;font-family:sans-serif;font-size:13;font-weight:bold;" transform="matrix(1 0 0 1 776 1953)">Margins</text>
  <text style="stroke:none;fill:black;font-family:sans-serif;font-size:13;" transform="matrix(1 0 0 1 776 1971)">Leading and trailing margins on the left and right side of each symbol</text>
  <text style="stroke:none;fill:black;font-family:sans-serif;font-size:13;" transform="matrix(1 0 0 1 776 1989)">can be adjusted by modifying the x-location of the margin guidelines.</text>
  <text style="stroke:none;fill:black;font-family:sans-serif;font-size:13;" transform="matrix(1 0 0 1 776 2007)">Modifications are automatically applied proportionally to all</text>
  <text style="stroke:none;fill:black;font-family:sans-serif;font-size:13;" transform="matrix(1 0 0 1 776 2025)">scales and weights.</text>
  <g transform="matrix(0.2 0 0 0.2 1289 1933)">
   <path d="m14.209 9.32617 8.49609 8.54492c4.29688 4.3457 9.22852 4.05273 13.8672-1.07422l53.4668-58.9355-4.83398-4.88281-53.0762 58.3984c-1.75781 2.00195-3.41797 2.49023-5.76172 0.146484l-5.85938-5.81055c-2.34375-2.29492-1.80664-4.00391 0.195312-5.81055l57.373-54.0039-4.88281-4.83398-57.959 54.4434c-4.93164 4.58984-5.32227 9.47266-1.02539 13.8184Zm32.0801-90.9668c-2.09961 2.05078-2.24609 4.93164-1.07422 6.88477 1.17188 1.80664 3.4668 2.97852 6.68945 2.14844 7.32422-1.70898 14.9414-2.00195 22.0703 2.68555l-2.92969 7.27539c-1.70898 4.15039-0.830078 7.08008 1.85547 9.81445l11.4746 11.5723c2.44141 2.44141 4.49219 2.53906 7.32422 2.05078l5.32227-0.976562 3.32031 3.36914-0.195312 2.7832c-0.195312 2.49023 0.439453 4.39453 2.88086 6.78711l3.80859 3.71094c2.39258 2.39258 5.46875 2.53906 7.8125 0.195312l14.5508-14.5996c2.34375-2.34375 2.24609-5.32227-0.146484-7.71484l-3.85742-3.80859c-2.39258-2.39258-4.24805-3.17383-6.64062-2.97852l-2.88086 0.244141-3.22266-3.17383 1.2207-5.61523c0.634766-2.83203-0.146484-5.0293-3.07617-7.95898l-10.9863-10.9375c-16.6992-16.6016-38.8672-16.2109-53.3203-1.75781Zm7.4707 1.85547c12.1582-8.88672 28.6133-7.37305 39.7461 3.75977l12.1582 12.0605c1.17188 1.17188 1.36719 2.09961 1.02539 3.80859l-1.61133 7.42188 7.51953 7.42188 4.93164-0.292969c1.26953-0.0488281 1.66016 0.0488281 2.63672 1.02539l2.88086 2.88086-12.207 12.207-2.88086-2.88086c-0.976562-0.976562-1.12305-1.36719-1.07422-2.68555l0.341797-4.88281-7.4707-7.42188-7.61719 1.26953c-1.61133 0.341797-2.34375 0.195312-3.56445-0.976562l-10.0098-10.0098c-1.26953-1.17188-1.41602-2.00195-0.634766-3.85742l4.39453-10.4492c-7.8125-7.27539-17.9688-10.4004-28.125-7.42188-0.78125 0.195312-1.07422-0.439453-0.439453-0.976562Z"/>
  </g>
  <text style="stroke:none;fill:black;font-family:sans-serif;font-size:13;font-weight:bold;" transform="matrix(1 0 0 1 1289 1953)">Exporting</text>
  <text style="stroke:none;fill:black;font-family:sans-serif;font-size:13;" transform="matrix(1 0 0 1 1289 1971)">Symbols should be outlined when exporting to ensure the</text>
  <text style="stroke:none;fill:black;font-family:sans-serif;font-size:13;" transform="matrix(1 0 0 1 1289 1989)">design is preserved when submitting to Xcode.</text>
  <text id="template-version" style="stroke:none;fill:black;font-family:sans-serif;font-size:13;text-anchor:end;" transform="matrix(1 0 0 1 3036 1933)">Template v.5.0</text>
  <text style="stroke:none;fill:black;font-family:sans-serif;font-size:13;text-anchor:end;" transform="matrix(1 0 0 1 3036 1951)">Requires Xcode 15 or greater</text>
  <text id="descriptive-name" style="stroke:none;fill:black;font-family:sans-serif;font-size:13;text-anchor:end;" transform="matrix(1 0 0 1 3036 1969)">Generated from chandelier</text>
  <text style="stroke:none;fill:black;font-family:sans-serif;font-size:13;text-anchor:end;" transform="matrix(1 0 0 1 3036 1987)">Typeset at 100.0 points</text>
  <text style="stroke:none;fill:black;font-family:sans-serif;font-size:13;" transform="matrix(1 0 0 1 263 726)">Small</text>
  <text style="stroke:none;fill:black;font-family:sans-serif;font-size:13;" transform="matrix(1 0 0 1 263 1156)">Medium</text>
  <text style="stroke:none;fill:black;font-family:sans-serif;font-size:13;" transform="matrix(1 0 0 1 263 1586)">Large</text>
 </g>
 <g id="Guides">
  <g id="H-reference" style="fill:#27AAE1;stroke:none;" transform="matrix(1 0 0 1 339 696)">
   <path d="M0.993654 0L3.63775 0L29.3281-67.1323L30.0303-67.1323L30.0303-70.459L28.1226-70.459ZM11.6885-24.4799L46.9815-24.4799L46.2315-26.7285L12.4385-26.7285ZM55.1196 0L57.7637 0L30.6382-70.459L29.4326-70.459L29.4326-67.1323Z"/>
  </g>
  <line id="Baseline-S" style="fill:none;stroke:#27AAE1;opacity:1;stroke-width:0.5;" x1="263" x2="3036" y1="696" y2="696"/>
  <line id="Capline-S" style="fill:none;stroke:#27AAE1;opacity:1;stroke-width:0.5;" x1="263" x2="3036" y1="625.541" y2="625.541"/>
  <g id="H-reference" style="fill:#27AAE1;stroke:none;" transform="matrix(1 0 0 1 339 1126)">
   <path d="M0.993654 0L3.63775 0L29.3281-67.1323L30.0303-67.1323L30.0303-70.459L28.1226-70.459ZM11.6885-24.4799L46.9815-24.4799L46.2315-26.7285L12.4385-26.7285ZM55.1196 0L57.7637 0L30.6382-70.459L29.4326-70.459L29.4326-67.1323Z"/>
  </g>
  <line id="Baseline-M" style="fill:none;stroke:#27AAE1;opacity:1;stroke-width:0.5;" x1="263" x2="3036" y1="1126" y2="1126"/>
  <line id="Capline-M" style="fill:none;stroke:#27AAE1;opacity:1;stroke-width:0.5;" x1="263" x2="3036" y1="1055.54" y2="1055.54"/>
  <g id="H-reference" style="fill:#27AAE1;stroke:none;" transform="matrix(1 0 0 1 339 1556)">
   <path d="M0.993654 0L3.63775 0L29.3281-67.1323L30.0303-67.1323L30.0303-70.459L28.1226-70.459ZM11.6885-24.4799L46.9815-24.4799L46.2315-26.7285L12.4385-26.7285ZM55.1196 0L57.7637 0L30.6382-70.459L29.4326-70.459L29.4326-67.1323Z"/>
  </g>
  <line id="Baseline-L" style="fill:none;stroke:#27AAE1;opacity:1;stroke-width:0.5;" x1="263" x2="3036" y1="1556" y2="1556"/>
  <line id="Capline-L" style="fill:none;stroke:#27AAE1;opacity:1;stroke-width:0.5;" x1="263" x2="3036" y1="1485.54" y2="1485.54"/>
  <line id="left-margin-Ultralight-S" style="fill:none;stroke:#00AEEF;stroke-width:0.5;opacity:1.0;" x1="501.366" x2="501.366" y1="600.785" y2="720.121"/>
  <line id="right-margin-Ultralight-S" style="fill:none;stroke:#00AEEF;stroke-width:0.5;opacity:1.0;" x1="618.057" x2="618.057" y1="600.785" y2="720.121"/>
  <line id="left-margin-Regular-S" style="fill:none;stroke:#00AEEF;stroke-width:0.5;opacity:1.0;" x1="1378.58" x2="1378.58" y1="600.785" y2="720.121"/>
  <line id="right-margin-Regular-S" style="fill:none;stroke:#00AEEF;stroke-width:0.5;opacity:1.0;" x1="1521.11" x2="1521.11" y1="600.785" y2="720.121"/>
  <line id="left-margin-Black-S" style="fill:none;stroke:#00AEEF;stroke-width:0.5;opacity:1.0;" x1="2858.94" x2="2858.94" y1="600.785" y2="720.121"/>
  <line id="right-margin-Black-S" style="fill:none;stroke:#00AEEF;stroke-width:0.5;opacity:1.0;" x1="3007.86" x2="3007.86" y1="600.785" y2="720.121"/>
 </g>
 <g id="Symbols">
  <g id="Black-S" transform="matrix(1 0 0 1 2858.94 696)">
   <path class="SFSymbolsPreviewWireframe" d="M74.4629-60.4004C85.9863-60.4004 96.0449-68.3105 96.0449-77.5879C96.0449-81.2012 93.9941-83.5449 89.7949-84.7656C85.4492-85.9863 80.2734-86.6211 74.4629-86.6211C68.6523-86.6211 63.4766-85.9863 59.1309-84.7656C54.9316-83.5449 52.8809-81.2012 52.8809-77.5879C52.8809-68.3105 62.9395-60.4004 74.4629-60.4004ZM74.4629-69.1895C68.5547-69.1895 63.9648-71.8262 62.207-75.8789C62.1094-76.2207 62.2559-76.5137 62.5977-76.6113C66.6016-77.4414 70.5566-77.8809 74.4629-77.8809C78.3691-77.8809 82.3242-77.4414 86.3281-76.6113C86.6699-76.5137 86.8164-76.2207 86.7188-75.8789C84.9609-71.8262 80.3223-69.1895 74.4629-69.1895ZM69.3359-67.041L69.3359-38.6719L79.5898-38.6719L79.5898-67.041ZM19.9707-21.6309C25.5371-21.6309 30.1758-26.2695 30.1758-31.8359C30.1758-37.4512 25.5859-42.041 19.9707-42.041C14.4043-42.041 9.76562-37.4023 9.76562-31.8359C9.76562-26.2695 14.4043-21.6309 19.9707-21.6309ZM19.9707-29.4434C18.6523-29.4434 17.5781-30.5176 17.5781-31.8359C17.5781-33.1543 18.6523-34.2285 19.9707-34.2285C21.3379-34.2285 22.3633-33.2031 22.3633-31.8359C22.3633-30.5176 21.2891-29.4434 19.9707-29.4434ZM44.3359-21.6309C50.9766-21.6309 56.4453-27.0996 56.4453-33.7402C56.4453-40.3809 50.9766-45.8496 44.3359-45.8496C37.6953-45.8496 32.2266-40.3809 32.2266-33.7402C32.2266-27.0996 37.6953-21.6309 44.3359-21.6309ZM44.3359-30.4199C42.4805-30.4199 41.0156-31.8848 41.0156-33.7402C41.0156-35.5957 42.4805-37.0605 44.3359-37.0605C46.1914-37.0605 47.6562-35.5957 47.6562-33.7402C47.6562-31.8848 46.1914-30.4199 44.3359-30.4199ZM74.4629-12.0117C83.5449-12.0117 90.918-19.3848 90.918-28.4668C90.918-37.5488 83.5449-44.9219 74.4629-44.9219C65.3809-44.9219 58.0078-37.5488 58.0078-28.4668C58.0078-19.3848 65.3809-12.0117 74.4629-12.0117ZM74.4629-20.8008C70.166-20.8008 66.7969-24.1699 66.7969-28.4668C66.7969-32.7637 70.166-36.1328 74.4629-36.1328C78.7598-36.1328 82.1289-32.7637 82.1289-28.4668C82.1289-24.1699 78.7598-20.8008 74.4629-20.8008ZM104.59-21.6309C111.23-21.6309 116.699-27.0996 116.699-33.7402C116.699-40.3809 111.23-45.8496 104.59-45.8496C97.9492-45.8496 92.4805-40.3809 92.4805-33.7402C92.4805-27.0996 97.9492-21.6309 104.59-21.6309ZM104.59-30.4199C102.734-30.4199 101.27-31.8848 101.27-33.7402C101.27-35.5957 102.734-37.0605 104.59-37.0605C106.445-37.0605 107.91-35.5957 107.91-33.7402C107.91-31.8848 106.445-30.4199 104.59-30.4199ZM128.955-21.6309C134.521-21.6309 139.16-26.2695 139.16-31.8359C139.16-37.4023 134.521-42.041 128.955-42.041C123.34-42.041 118.75-37.4512 118.75-31.8359C118.75-26.2695 123.389-21.6309 128.955-21.6309ZM128.955-29.4434C127.637-29.4434 126.562-30.5176 126.562-31.8359C126.562-33.2031 127.588-34.2285 128.955-34.2285C130.273-34.2285 131.348-33.1543 131.348-31.8359C131.348-30.5176 130.273-29.4434 128.955-29.4434ZM74.4629 16.0645C81.1035 16.0645 86.5723 10.5957 86.5723 3.95508C86.5723-2.68555 81.1035-8.1543 74.4629-8.1543C67.8223-8.1543 62.3535-2.68555 62.3535 3.95508C62.3535 10.5957 67.8223 16.0645 74.4629 16.0645ZM74.4629 7.27539C72.6074 7.27539 71.1426 5.81055 71.1426 3.95508C71.1426 2.09961 72.6074 0.634766 74.4629 0.634766C76.3184 0.634766 77.7832 2.09961 77.7832 3.95508C77.7832 5.81055 76.3184 7.27539 74.4629 7.27539ZM25.3906-27.3926L16.5527-27.3926C15.1367-10.7422 38.7207-2.68555 49.6582-15.7715L44.5801-23.5352C40.0879-14.0625 23.6816-17.5293 25.3906-27.3926ZM48.877-27.3926L39.9902-27.3926C38.0859-9.66797 59.8145-2.58789 72.7051-16.7969L64.502-21.0938C56.9824-14.6973 47.0215-18.6035 48.877-27.3926ZM100.049-27.3926C101.904-18.6035 91.9434-14.6973 84.4238-21.0938L76.2207-16.7969C89.1113-2.58789 110.84-9.66797 108.936-27.3926ZM123.535-27.3926C125.244-17.5293 108.838-14.0625 104.346-23.5352L99.2676-15.7715C110.205-2.68555 133.789-10.7422 132.373-27.3926ZM70.0684-17.9199L70.0684-1.46484L78.8574-1.46484L78.8574-17.9199Z"/>
  </g>
  <g id="Regular-S" transform="matrix(1 0 0 1 1378.58 696)">
   <path class="SFSymbolsPreviewWireframe" d="M71.2891-62.5977C81.1523-62.5977 91.0645-69.2871 91.0645-77.9785C91.0645-80.7617 89.5996-82.5684 85.9863-83.6426C81.4941-84.9121 76.3672-85.4004 71.2891-85.4004C66.1621-85.4004 61.0352-84.9121 56.543-83.6426C52.9297-82.5684 51.5137-80.7617 51.5137-77.9785C51.5137-69.2871 61.377-62.5977 71.2891-62.5977ZM71.2891-68.2129C63.9648-68.2129 58.3496-72.0703 57.1777-77.6855C57.1289-77.832 57.2754-78.0273 57.5195-78.0762C62.0117-79.248 66.6504-79.834 71.2891-79.834C75.8789-79.834 80.5176-79.248 85.0586-78.0762C85.2539-78.0273 85.4004-77.832 85.3516-77.6855C84.1797-72.0703 78.5645-68.2129 71.2891-68.2129ZM68.457-66.1133L68.457-40.1367L74.1211-40.1367L74.1211-66.1133ZM18.3594-22.5098C23.1445-22.5098 27.002-26.416 27.002-31.1523C27.002-35.8887 23.1445-39.7461 18.3594-39.7461C13.6719-39.7461 9.76562-35.8887 9.76562-31.1523C9.76562-26.416 13.6719-22.5098 18.3594-22.5098ZM18.3594-27.2461C16.2598-27.2461 14.502-29.0039 14.502-31.1523C14.502-33.252 16.2598-35.0098 18.3594-35.0098C20.5566-35.0098 22.2656-33.3008 22.2656-31.1523C22.2656-29.0039 20.5078-27.2461 18.3594-27.2461ZM41.5039-22.5098C47.2656-22.5098 52.002-27.2461 52.002-33.0078C52.002-38.8184 47.2656-43.5547 41.5039-43.5547C35.6934-43.5547 31.0059-38.8184 31.0059-33.0078C31.0059-27.2461 35.6934-22.5098 41.5039-22.5098ZM41.5039-28.1738C38.8184-28.1738 36.6211-30.3711 36.6211-33.0078C36.6211-35.6934 38.8184-37.8906 41.5039-37.8906C44.1406-37.8906 46.3379-35.6934 46.3379-33.0078C46.3379-30.3711 44.1406-28.1738 41.5039-28.1738ZM71.2891-13.0371C79.4922-13.0371 86.084-19.6777 86.084-27.8809C86.084-36.084 79.4922-42.7246 71.2891-42.7246C63.0371-42.7246 56.4453-36.084 56.4453-27.8809C56.4453-19.6777 63.0371-13.0371 71.2891-13.0371ZM71.2891-18.7012C66.1621-18.7012 62.1094-22.8027 62.1094-27.8809C62.1094-32.959 66.1621-37.0605 71.2891-37.0605C76.3672-37.0605 80.4199-32.959 80.4199-27.8809C80.4199-22.8027 76.3672-18.7012 71.2891-18.7012ZM101.025-22.5098C106.836-22.5098 111.523-27.2461 111.523-33.0078C111.523-38.8184 106.836-43.5547 101.025-43.5547C95.2637-43.5547 90.5273-38.8184 90.5273-33.0078C90.5273-27.2461 95.2637-22.5098 101.025-22.5098ZM101.025-28.1738C98.3887-28.1738 96.1914-30.3711 96.1914-33.0078C96.1914-35.6934 98.3887-37.8906 101.025-37.8906C103.711-37.8906 105.908-35.6934 105.908-33.0078C105.908-30.3711 103.711-28.1738 101.025-28.1738ZM124.17-22.5098C128.857-22.5098 132.764-26.416 132.764-31.1523C132.764-35.8887 128.857-39.7461 124.17-39.7461C119.385-39.7461 115.527-35.8887 115.527-31.1523C115.527-26.416 119.385-22.5098 124.17-22.5098ZM124.17-27.2461C122.07-27.2461 120.264-29.0039 120.264-31.1523C120.264-33.3008 122.021-35.0098 124.17-35.0098C126.27-35.0098 128.027-33.252 128.027-31.1523C128.027-29.0039 126.27-27.2461 124.17-27.2461ZM71.2891 14.8438C77.0508 14.8438 81.7383 10.1562 81.7383 4.39453C81.7383-1.36719 77.0508-6.10352 71.2891-6.10352C65.4785-6.10352 60.791-1.36719 60.791 4.39453C60.791 10.1562 65.4785 14.8438 71.2891 14.8438ZM71.2891 9.22852C68.6035 9.22852 66.4551 7.03125 66.4551 4.39453C66.4551 1.70898 68.6035-0.439453 71.2891-0.439453C73.9258-0.439453 76.123 1.70898 76.123 4.39453C76.123 7.03125 73.9258 9.22852 71.2891 9.22852ZM22.0703-25.2441L16.4062-25.2441C16.4551-12.1094 34.7656-4.63867 44.9707-15.4297L41.8945-20.1172C35.4492-11.8164 22.1191-16.6016 22.0703-25.2441ZM44.2871-25.2441L38.623-25.2441C38.1348-11.2305 55.2246-4.73633 67.1387-15.8691L61.7188-18.7012C53.8086-12.7441 43.8477-16.6016 44.2871-25.2441ZM98.2422-25.2441C98.6816-16.6016 88.7207-12.7441 80.8105-18.7012L75.3906-15.8691C87.3047-4.73633 104.395-11.2305 103.906-25.2441ZM120.459-25.2441C120.41-16.6016 107.08-11.8164 100.635-20.1172L97.5586-15.4297C107.764-4.63867 126.074-12.1094 126.123-25.2441ZM68.457-15.918L68.457-2.49023L74.1211-2.49023L74.1211-15.918Z"/>
  </g>
  <g id="Ultralight-S" transform="matrix(1 0 0 1 501.366 696)">
   <path class="SFSymbolsPreviewWireframe" d="M58.3927-63.0972C65.2589-63.0972 72.401-67.7432 72.401-73.3921C72.401-74.8584 71.2995-76.1656 69.5934-76.8765C67.5079-77.692 63.0621-78.2256 58.3927-78.2711C53.7198-78.2256 49.2286-77.692 47.1886-76.8765C45.4825-76.1656 44.4297-74.9039 44.4297-73.3921C44.4297-67.7432 51.4776-63.0972 58.3927-63.0972ZM58.3927-65.2613C52.2037-65.2613 46.5431-69.2549 46.5064-73.3716C46.503-73.9722 47.0582-74.5308 47.8927-74.8975C49.8419-75.6153 53.9811-76.1104 58.3927-76.1104C62.8009-76.1104 66.8946-75.6153 68.8473-74.8975C69.7692-74.4854 70.3243-73.9722 70.3209-73.3716C70.2389-69.2549 64.5328-65.2613 58.3927-65.2613ZM57.377-63.8882L57.377-40.5908L59.4991-40.5908L59.4991-63.8882ZM16.0889-24.417C19.5572-24.417 22.461-27.2334 22.461-30.7891C22.461-34.2993 19.6026-37.1577 16.0889-37.1577C12.582-37.1577 9.76562-34.2539 9.76562-30.7891C9.76562-27.2788 12.582-24.417 16.0889-24.417ZM16.0889-26.5195C13.7622-26.5195 11.8682-28.459 11.8682-30.7891C11.8682-33.1157 13.7622-35.0552 16.0889-35.0552C18.4678-35.0552 20.3584-33.1646 20.3584-30.7891C20.3584-28.459 18.419-26.5195 16.0889-26.5195ZM34.6016-24.417C39.0465-24.417 42.7384-28.0181 42.7384-32.5083C42.7384-36.9566 39.0465-40.6485 34.6016-40.6485C30.1534-40.6485 26.5557-36.9566 26.5557-32.5083C26.5557-28.0181 30.1534-24.417 34.6016-24.417ZM34.6016-26.5391C31.3257-26.5391 28.6744-29.1904 28.6744-32.5083C28.6744-35.7842 31.3257-38.481 34.6016-38.481C37.8741-38.481 40.5708-35.7842 40.5708-32.5083C40.5708-29.1904 37.8741-26.5391 34.6016-26.5391ZM58.4381-17.5327C65.0973-17.5327 70.463-22.9018 70.463-29.561C70.463-36.2202 65.0973-41.6348 58.4381-41.6348C51.7755-41.6348 46.3643-36.2202 46.3643-29.561C46.3643-22.9018 51.7755-17.5327 58.4381-17.5327ZM58.3927-19.6548C52.9024-19.6548 48.4864-24.0742 48.4864-29.561C48.4864-35.0478 52.9479-39.5127 58.3927-39.5127C63.8795-39.5127 68.2955-35.0478 68.2955-29.561C68.2955-24.0742 63.8795-19.6548 58.3927-19.6548ZM82.0895-24.417C86.4923-24.417 90.1354-28.0181 90.1354-32.5083C90.1354-36.9566 86.4923-40.6485 82.0895-40.6485C77.6447-40.6485 73.9528-36.9566 73.9528-32.5083C73.9528-28.0181 77.6447-24.417 82.0895-24.417ZM82.0895-26.5391C78.817-26.5391 76.0749-29.1904 76.0749-32.5083C76.0749-35.7842 78.817-38.481 82.0895-38.481C85.32-38.481 87.9713-35.7842 87.9713-32.5083C87.9713-29.1904 85.32-26.5391 82.0895-26.5391ZM100.602-24.417C104.064-24.417 106.925-27.2788 106.925-30.7891C106.925-34.2539 104.064-37.1577 100.602-37.1577C97.0431-37.1577 94.2301-34.2993 94.2301-30.7891C94.2301-27.2334 97.0886-24.417 100.602-24.417ZM100.602-26.5195C98.2756-26.5195 96.3327-28.459 96.3327-30.7891C96.3327-33.1646 98.2267-35.0552 100.602-35.0552C102.929-35.0552 104.823-33.1157 104.823-30.7891C104.823-28.459 102.929-26.5195 100.602-26.5195ZM58.4381 7.75982C62.7013 7.75982 66.2081 4.25298 66.2081-0.0102192C66.2081-4.27341 62.7013-7.78368 58.4381-7.78368C54.1715-7.78368 50.6646-4.27341 50.6646-0.0102192C50.6646 4.25298 54.1715 7.75982 58.4381 7.75982ZM58.4381 5.59573C55.3439 5.59573 52.7867 3.0806 52.7867-0.0102192C52.7867-3.10445 55.3439-5.61617 58.4381-5.61617C61.5289-5.61617 64.044-3.10445 64.044-0.0102192C64.044 3.0806 61.5289 5.59573 58.4381 5.59573ZM18.0743-25.6074L15.9522-25.6074C16.8184-15.4697 30.6333-11.4047 37.5689-18.3359L36.4908-20.0264C30.9082-14.1323 18.9405-17.0103 18.0743-25.6074ZM35.6592-25.6528L33.5371-25.6074C34.2749-15.5898 47.1417-11.5024 55.3321-18.2759L53.2725-19.3823C46.5884-14.3789 36.4004-17.2827 35.6592-25.6528ZM81.0319-25.6528C80.2453-17.2827 70.1027-14.3789 63.4186-19.3823L61.3136-18.2759C69.504-11.5024 82.3708-15.5898 83.154-25.6074ZM98.6169-25.6074C97.7053-17.0103 85.7829-14.1323 80.1549-20.0264L79.0768-18.3359C86.0578-11.4047 99.8274-15.4697 100.739-25.6074ZM57.377-18.688L57.377-6.80417L59.4991-6.80417L59.4991-18.688Z"/>
  </g>
 </g>
</svg>
