<?xml version="1.0" encoding="UTF-8"?>
<!--Generator: Apple Native CoreSVG 232.5-->
<!DOCTYPE svg
PUBLIC "-//W3C//DTD SVG 1.1//EN"
       "http://www.w3.org/Graphics/SVG/1.1/DTD/svg11.dtd">
<svg version="1.1" xmlns="http://www.w3.org/2000/svg" xmlns:xlink="http://www.w3.org/1999/xlink" width="3300" height="2200">
 <!--glyph: "uni1016DA.medium", point size: 100.0, font version: "19.2d2e1", template writer version: "128"-->
 <style>.SFSymbolsPreviewWireframe {fill:none;opacity:1.0;stroke:black;stroke-width:0.5}
</style>
 <g id="Notes">
  <rect height="2200" id="artboard" style="fill:white;opacity:1" width="3300" x="0" y="0"/>
  <line style="fill:none;stroke:black;opacity:1;stroke-width:0.5;" x1="263" x2="3036" y1="292" y2="292"/>
  <text style="stroke:none;fill:black;font-family:sans-serif;font-size:13;font-weight:bold;" transform="matrix(1 0 0 1 263 322)">Weight/Scale Variations</text>
  <text style="stroke:none;fill:black;font-family:sans-serif;font-size:13;text-anchor:middle;" transform="matrix(1 0 0 1 559.711 322)">Ultralight</text>
  <text style="stroke:none;fill:black;font-family:sans-serif;font-size:13;text-anchor:middle;" transform="matrix(1 0 0 1 856.422 322)">Thin</text>
  <text style="stroke:none;fill:black;font-family:sans-serif;font-size:13;text-anchor:middle;" transform="matrix(1 0 0 1 1153.13 322)">Light</text>
  <text style="stroke:none;fill:black;font-family:sans-serif;font-size:13;text-anchor:middle;" transform="matrix(1 0 0 1 1449.84 322)">Regular</text>
  <text style="stroke:none;fill:black;font-family:sans-serif;font-size:13;text-anchor:middle;" transform="matrix(1 0 0 1 1746.56 322)">Medium</text>
  <text style="stroke:none;fill:black;font-family:sans-serif;font-size:13;text-anchor:middle;" transform="matrix(1 0 0 1 2043.27 322)">Semibold</text>
  <text style="stroke:none;fill:black;font-family:sans-serif;font-size:13;text-anchor:middle;" transform="matrix(1 0 0 1 2339.98 322)">Bold</text>
  <text style="stroke:none;fill:black;font-family:sans-serif;font-size:13;text-anchor:middle;" transform="matrix(1 0 0 1 2636.69 322)">Heavy</text>
  <text style="stroke:none;fill:black;font-family:sans-serif;font-size:13;text-anchor:middle;" transform="matrix(1 0 0 1 2933.4 322)">Black</text>
  <line style="fill:none;stroke:black;opacity:1;stroke-width:0.5;" x1="263" x2="3036" y1="1903" y2="1903"/>
  <g transform="matrix(0.2 0 0 0.2 263 1933)">
   <path d="m46.2402 4.15039c21.5332 0 39.4531-17.8711 39.4531-39.4043s-17.9688-39.4043-39.502-39.4043c-21.4844 0-39.3555 17.8711-39.3555 39.4043s17.9199 39.4043 39.4043 39.4043Zm0-7.42188c-17.7246 0-31.8848-14.209-31.8848-31.9824s14.1113-31.9824 31.8359-31.9824c17.7734 0 32.0312 14.209 32.0312 31.9824s-14.209 31.9824-31.9824 31.9824Zm-17.9688-31.9824c0 2.14844 1.51367 3.61328 3.75977 3.61328h10.498v10.5957c0 2.19727 1.46484 3.71094 3.61328 3.71094 2.24609 0 3.71094-1.51367 3.71094-3.71094v-10.5957h10.5957c2.19727 0 3.71094-1.46484 3.71094-3.61328 0-2.19727-1.51367-3.71094-3.71094-3.71094h-10.5957v-10.5469c0-2.24609-1.46484-3.75977-3.71094-3.75977-2.14844 0-3.61328 1.51367-3.61328 3.75977v10.5469h-10.498c-2.24609 0-3.75977 1.51367-3.75977 3.71094Z"/>
  </g>
  <g transform="matrix(0.2 0 0 0.2 281.506 1933)">
   <path d="m58.5449 14.5508c27.2461 0 49.8047-22.6074 49.8047-49.8047 0-27.2461-22.6074-49.8047-49.8535-49.8047-27.1973 0-49.7559 22.5586-49.7559 49.8047 0 27.1973 22.6074 49.8047 49.8047 49.8047Zm0-8.30078c-23.0469 0-41.4551-18.457-41.4551-41.5039s18.3594-41.5039 41.4062-41.5039 41.5527 18.457 41.5527 41.5039-18.457 41.5039-41.5039 41.5039Zm-22.6562-41.5039c0 2.39258 1.66016 4.00391 4.15039 4.00391h14.3555v14.4043c0 2.44141 1.66016 4.15039 4.05273 4.15039 2.44141 0 4.15039-1.66016 4.15039-4.15039v-14.4043h14.4043c2.44141 0 4.15039-1.61133 4.15039-4.00391 0-2.44141-1.70898-4.15039-4.15039-4.15039h-14.4043v-14.3555c0-2.49023-1.70898-4.19922-4.15039-4.19922-2.39258 0-4.05273 1.70898-4.05273 4.19922v14.3555h-14.3555c-2.49023 0-4.15039 1.70898-4.15039 4.15039Z"/>
  </g>
  <g transform="matrix(0.2 0 0 0.2 304.924 1933)">
   <path d="m74.8535 28.3203c34.8145 0 63.623-28.8086 63.623-63.5742 0-34.8145-28.8574-63.623-63.6719-63.623-34.7656 0-63.5254 28.8086-63.5254 63.623 0 34.7656 28.8086 63.5742 63.5742 63.5742Zm0-9.08203c-30.1758 0-54.4434-24.3164-54.4434-54.4922 0-30.2246 24.2188-54.4922 54.3945-54.4922 30.2246 0 54.541 24.2676 54.541 54.4922 0 30.1758-24.2676 54.4922-54.4922 54.4922Zm-28.8574-54.4922c0 2.58789 1.85547 4.39453 4.58984 4.39453h19.7266v19.7754c0 2.68555 1.85547 4.58984 4.44336 4.58984 2.68555 0 4.54102-1.85547 4.54102-4.58984v-19.7754h19.7754c2.68555 0 4.58984-1.80664 4.58984-4.39453 0-2.73438-1.85547-4.58984-4.58984-4.58984h-19.7754v-19.7266c0-2.73438-1.85547-4.63867-4.54102-4.63867-2.58789 0-4.44336 1.9043-4.44336 4.63867v19.7266h-19.7266c-2.73438 0-4.58984 1.85547-4.58984 4.58984Z"/>
  </g>
  <text style="stroke:none;fill:black;font-family:sans-serif;font-size:13;font-weight:bold;" transform="matrix(1 0 0 1 263 1953)">Design Variations</text>
  <text style="stroke:none;fill:black;font-family:sans-serif;font-size:13;" transform="matrix(1 0 0 1 263 1971)">Symbols are supported in up to nine weights and three scales.</text>
  <text style="stroke:none;fill:black;font-family:sans-serif;font-size:13;" transform="matrix(1 0 0 1 263 1989)">For optimal layout with text and other symbols, vertically align</text>
  <text style="stroke:none;fill:black;font-family:sans-serif;font-size:13;" transform="matrix(1 0 0 1 263 2007)">symbols with the adjacent text.</text>
  <line style="fill:none;stroke:#00AEEF;stroke-width:0.5;opacity:1.0;" x1="776" x2="776" y1="1919" y2="1933"/>
  <g transform="matrix(0.2 0 0 0.2 776 1933)">
   <path d="m16.5527 0.78125c2.58789 0 3.85742-0.976562 4.78516-3.71094l6.29883-17.2363h28.8086l6.29883 17.2363c0.927734 2.73438 2.19727 3.71094 4.73633 3.71094 2.58789 0 4.24805-1.5625 4.24805-4.00391 0-0.830078-0.146484-1.61133-0.537109-2.63672l-22.9004-60.9863c-1.12305-2.97852-3.125-4.49219-6.25-4.49219-3.02734 0-5.07812 1.46484-6.15234 4.44336l-22.9004 61.084c-0.390625 1.02539-0.537109 1.80664-0.537109 2.63672 0 2.44141 1.5625 3.95508 4.10156 3.95508Zm13.4766-28.3691 11.8652-32.8613h0.244141l11.8652 32.8613Z"/>
  </g>
  <line style="fill:none;stroke:#00AEEF;stroke-width:0.5;opacity:1.0;" x1="792.836" x2="792.836" y1="1919" y2="1933"/>
  <text style="stroke:none;fill:black;font-family:sans-serif;font-size:13;font-weight:bold;" transform="matrix(1 0 0 1 776 1953)">Margins</text>
  <text style="stroke:none;fill:black;font-family:sans-serif;font-size:13;" transform="matrix(1 0 0 1 776 1971)">Leading and trailing margins on the left and right side of each symbol</text>
  <text style="stroke:none;fill:black;font-family:sans-serif;font-size:13;" transform="matrix(1 0 0 1 776 1989)">can be adjusted by modifying the x-location of the margin guidelines.</text>
  <text style="stroke:none;fill:black;font-family:sans-serif;font-size:13;" transform="matrix(1 0 0 1 776 2007)">Modifications are automatically applied proportionally to all</text>
  <text style="stroke:none;fill:black;font-family:sans-serif;font-size:13;" transform="matrix(1 0 0 1 776 2025)">scales and weights.</text>
  <g transform="matrix(0.2 0 0 0.2 1289 1933)">
   <path d="m14.209 9.32617 8.49609 8.54492c4.29688 4.3457 9.22852 4.05273 13.8672-1.07422l53.4668-58.9355-4.83398-4.88281-53.0762 58.3984c-1.75781 2.00195-3.41797 2.49023-5.76172 0.146484l-5.85938-5.81055c-2.34375-2.29492-1.80664-4.00391 0.195312-5.81055l57.373-54.0039-4.88281-4.83398-57.959 54.4434c-4.93164 4.58984-5.32227 9.47266-1.02539 13.8184Zm32.0801-90.9668c-2.09961 2.05078-2.24609 4.93164-1.07422 6.88477 1.17188 1.80664 3.4668 2.97852 6.68945 2.14844 7.32422-1.70898 14.9414-2.00195 22.0703 2.68555l-2.92969 7.27539c-1.70898 4.15039-0.830078 7.08008 1.85547 9.81445l11.4746 11.5723c2.44141 2.44141 4.49219 2.53906 7.32422 2.05078l5.32227-0.976562 3.32031 3.36914-0.195312 2.7832c-0.195312 2.49023 0.439453 4.39453 2.88086 6.78711l3.80859 3.71094c2.39258 2.39258 5.46875 2.53906 7.8125 0.195312l14.5508-14.5996c2.34375-2.34375 2.24609-5.32227-0.146484-7.71484l-3.85742-3.80859c-2.39258-2.39258-4.24805-3.17383-6.64062-2.97852l-2.88086 0.244141-3.22266-3.17383 1.2207-5.61523c0.634766-2.83203-0.146484-5.0293-3.07617-7.95898l-10.9863-10.9375c-16.6992-16.6016-38.8672-16.2109-53.3203-1.75781Zm7.4707 1.85547c12.1582-8.88672 28.6133-7.37305 39.7461 3.75977l12.1582 12.0605c1.17188 1.17188 1.36719 2.09961 1.02539 3.80859l-1.61133 7.42188 7.51953 7.42188 4.93164-0.292969c1.26953-0.0488281 1.66016 0.0488281 2.63672 1.02539l2.88086 2.88086-12.207 12.207-2.88086-2.88086c-0.976562-0.976562-1.12305-1.36719-1.07422-2.68555l0.341797-4.88281-7.4707-7.42188-7.61719 1.26953c-1.61133 0.341797-2.34375 0.195312-3.56445-0.976562l-10.0098-10.0098c-1.26953-1.17188-1.41602-2.00195-0.634766-3.85742l4.39453-10.4492c-7.8125-7.27539-17.9688-10.4004-28.125-7.42188-0.78125 0.195312-1.07422-0.439453-0.439453-0.976562Z"/>
  </g>
  <text style="stroke:none;fill:black;font-family:sans-serif;font-size:13;font-weight:bold;" transform="matrix(1 0 0 1 1289 1953)">Exporting</text>
  <text style="stroke:none;fill:black;font-family:sans-serif;font-size:13;" transform="matrix(1 0 0 1 1289 1971)">Symbols should be outlined when exporting to ensure the</text>
  <text style="stroke:none;fill:black;font-family:sans-serif;font-size:13;" transform="matrix(1 0 0 1 1289 1989)">design is preserved when submitting to Xcode.</text>
  <text id="template-version" style="stroke:none;fill:black;font-family:sans-serif;font-size:13;text-anchor:end;" transform="matrix(1 0 0 1 3036 1933)">Template v.5.0</text>
  <text style="stroke:none;fill:black;font-family:sans-serif;font-size:13;text-anchor:end;" transform="matrix(1 0 0 1 3036 1951)">Requires Xcode 15 or greater</text>
  <text id="descriptive-name" style="stroke:none;fill:black;font-family:sans-serif;font-size:13;text-anchor:end;" transform="matrix(1 0 0 1 3036 1969)">Generated from cloud.snow.circle.fill</text>
  <text style="stroke:none;fill:black;font-family:sans-serif;font-size:13;text-anchor:end;" transform="matrix(1 0 0 1 3036 1987)">Typeset at 100.0 points</text>
  <text style="stroke:none;fill:black;font-family:sans-serif;font-size:13;" transform="matrix(1 0 0 1 263 726)">Small</text>
  <text style="stroke:none;fill:black;font-family:sans-serif;font-size:13;" transform="matrix(1 0 0 1 263 1156)">Medium</text>
  <text style="stroke:none;fill:black;font-family:sans-serif;font-size:13;" transform="matrix(1 0 0 1 263 1586)">Large</text>
 </g>
 <g id="Guides">
  <g id="H-reference" style="fill:#27AAE1;stroke:none;" transform="matrix(1 0 0 1 339 696)">
   <path d="M0.993654 0L3.63775 0L29.3281-67.1323L30.0303-67.1323L30.0303-70.459L28.1226-70.459ZM11.6885-24.4799L46.9815-24.4799L46.2315-26.7285L12.4385-26.7285ZM55.1196 0L57.7637 0L30.6382-70.459L29.4326-70.459L29.4326-67.1323Z"/>
  </g>
  <line id="Baseline-S" style="fill:none;stroke:#27AAE1;opacity:1;stroke-width:0.5;" x1="263" x2="3036" y1="696" y2="696"/>
  <line id="Capline-S" style="fill:none;stroke:#27AAE1;opacity:1;stroke-width:0.5;" x1="263" x2="3036" y1="625.541" y2="625.541"/>
  <g id="H-reference" style="fill:#27AAE1;stroke:none;" transform="matrix(1 0 0 1 339 1126)">
   <path d="M0.993654 0L3.63775 0L29.3281-67.1323L30.0303-67.1323L30.0303-70.459L28.1226-70.459ZM11.6885-24.4799L46.9815-24.4799L46.2315-26.7285L12.4385-26.7285ZM55.1196 0L57.7637 0L30.6382-70.459L29.4326-70.459L29.4326-67.1323Z"/>
  </g>
  <line id="Baseline-M" style="fill:none;stroke:#27AAE1;opacity:1;stroke-width:0.5;" x1="263" x2="3036" y1="1126" y2="1126"/>
  <line id="Capline-M" style="fill:none;stroke:#27AAE1;opacity:1;stroke-width:0.5;" x1="263" x2="3036" y1="1055.54" y2="1055.54"/>
  <g id="H-reference" style="fill:#27AAE1;stroke:none;" transform="matrix(1 0 0 1 339 1556)">
   <path d="M0.993654 0L3.63775 0L29.3281-67.1323L30.0303-67.1323L30.0303-70.459L28.1226-70.459ZM11.6885-24.4799L46.9815-24.4799L46.2315-26.7285L12.4385-26.7285ZM55.1196 0L57.7637 0L30.6382-70.459L29.4326-70.459L29.4326-67.1323Z"/>
  </g>
  <line id="Baseline-L" style="fill:none;stroke:#27AAE1;opacity:1;stroke-width:0.5;" x1="263" x2="3036" y1="1556" y2="1556"/>
  <line id="Capline-L" style="fill:none;stroke:#27AAE1;opacity:1;stroke-width:0.5;" x1="263" x2="3036" y1="1485.54" y2="1485.54"/>
  <line id="left-margin-Ultralight-S" style="fill:none;stroke:#00AEEF;stroke-width:0.5;opacity:1.0;" x1="515.649" x2="515.649" y1="600.785" y2="720.121"/>
  <line id="right-margin-Ultralight-S" style="fill:none;stroke:#00AEEF;stroke-width:0.5;opacity:1.0;" x1="603.773" x2="603.773" y1="600.785" y2="720.121"/>
  <line id="left-margin-Regular-S" style="fill:none;stroke:#00AEEF;stroke-width:0.5;opacity:1.0;" x1="1403.58" x2="1403.58" y1="600.785" y2="720.121"/>
  <line id="right-margin-Regular-S" style="fill:none;stroke:#00AEEF;stroke-width:0.5;opacity:1.0;" x1="1496.11" x2="1496.11" y1="600.785" y2="720.121"/>
  <line id="left-margin-Black-S" style="fill:none;stroke:#00AEEF;stroke-width:0.5;opacity:1.0;" x1="2884.57" x2="2884.57" y1="600.785" y2="720.121"/>
  <line id="right-margin-Black-S" style="fill:none;stroke:#00AEEF;stroke-width:0.5;opacity:1.0;" x1="2982.23" x2="2982.23" y1="600.785" y2="720.121"/>
 </g>
 <g id="Symbols">
  <g id="Black-S" transform="matrix(1 0 0 1 2884.57 696)">
   <path class="SFSymbolsPreviewWireframe" d="M48.8281 6.83594C71.9727 6.83594 90.8203-12.0117 90.8203-35.1562C90.8203-58.3008 71.9727-77.1484 48.8281-77.1484C25.6836-77.1484 6.83594-58.3008 6.83594-35.1562C6.83594-12.0117 25.6836 6.83594 48.8281 6.83594ZM37.7441-30.3711C32.4707-30.3711 28.7598-33.9355 28.7598-38.8184C28.7598-42.4316 30.8105-45.2637 34.375-46.6309C35.4004-53.2227 40.7715-57.5195 47.3145-57.5195C52.4902-57.5195 56.2012-55.4199 58.4473-51.123C64.4531-51.123 68.8965-46.582 68.8965-40.625C68.8965-34.8145 64.3555-30.3711 58.4961-30.3711ZM36.9629-15.7715C35.9863-15.7715 35.3516-16.6016 35.498-17.5781L35.8398-19.3848L34.4238-18.1641C33.6914-17.5781 32.7148-17.6758 32.2266-18.4082C31.7383-19.2871 32.1777-20.2637 33.0566-20.5566L34.8145-21.2402L33.1055-21.8262C32.1777-22.2168 31.7383-23.1445 32.2266-23.9258C32.666-24.707 33.6914-24.8535 34.4238-24.2676L35.8398-23.0469L35.498-24.8535C35.3516-25.7812 35.9863-26.709 36.9629-26.709C37.8906-26.709 38.5254-25.7812 38.3301-24.8535L37.9395-23.0469L39.502-24.2188C40.1855-24.8535 41.1621-24.707 41.6016-23.9258C42.1387-23.1445 41.6992-22.168 40.8203-21.8262L39.0625-21.1914L40.7715-20.6055C41.6992-20.3125 42.1387-19.2871 41.6016-18.457C41.1621-17.6758 40.2832-17.5781 39.502-18.1641L37.9395-19.4336L38.3301-17.5781C38.5254-16.6016 37.8906-15.7715 36.9629-15.7715ZM48.8281-15.7715C47.9004-15.7715 47.2656-16.6016 47.4121-17.5781L47.7051-19.3848L46.2891-18.1641C45.5566-17.5781 44.5801-17.6758 44.1406-18.4082C43.6035-19.2871 44.0918-20.2637 44.9219-20.5566L46.7285-21.2402L44.9707-21.8262C44.0918-22.2168 43.6035-23.1445 44.1406-23.9258C44.5312-24.707 45.5566-24.8535 46.2891-24.2676L47.7051-23.0469L47.4121-24.8535C47.2656-25.7812 47.9004-26.709 48.8281-26.709C49.7559-26.709 50.3906-25.7812 50.1953-24.8535L49.8535-23.0469L51.3672-24.2188C52.0508-24.8535 53.0762-24.707 53.4668-23.9258C54.0039-23.1445 53.5645-22.168 52.6855-21.8262L50.9277-21.1914L52.6367-20.6055C53.5645-20.3125 54.0039-19.2871 53.4668-18.457C53.0762-17.6758 52.1484-17.5781 51.3672-18.1641L49.8535-19.4336L50.1953-17.5781C50.3906-16.6016 49.7559-15.7715 48.8281-15.7715ZM60.6934-15.7715C59.7656-15.7715 59.082-16.6016 59.2773-17.5781L59.6191-19.3848L58.1543-18.1641C57.4219-17.5781 56.4941-17.6758 56.0059-18.4082C55.4688-19.2871 55.957-20.2637 56.7871-20.5566L58.5938-21.2402L56.8359-21.8262C55.957-22.2168 55.4688-23.1445 56.0059-23.9258C56.4453-24.707 57.4219-24.8535 58.1543-24.2676L59.6191-23.0469L59.2773-24.8535C59.082-25.7812 59.7656-26.709 60.6934-26.709C61.6699-26.709 62.3047-25.7812 62.0605-24.8535L61.7188-23.0469L63.2324-24.2188C63.916-24.8535 64.9414-24.707 65.3809-23.9258C65.8691-23.1445 65.4785-22.168 64.5508-21.8262L62.8418-21.1914L64.502-20.6055C65.4785-20.3125 65.8691-19.2871 65.3809-18.457C64.9414-17.6758 64.0625-17.627 63.2324-18.1641L61.7188-19.4336L62.0605-17.5781C62.3047-16.6016 61.6699-15.7715 60.6934-15.7715Z"/>
  </g>
  <g id="Regular-S" transform="matrix(1 0 0 1 1403.58 696)">
   <path class="SFSymbolsPreviewWireframe" d="M46.2402 4.19922C67.7734 4.19922 85.6934-13.6719 85.6934-35.2051C85.6934-56.7383 67.7246-74.6094 46.1914-74.6094C24.707-74.6094 6.83594-56.7383 6.83594-35.2051C6.83594-13.6719 24.7559 4.19922 46.2402 4.19922ZM33.6914-29.2969C27.9297-29.2969 24.6582-33.0078 24.6582-37.5C24.6582-41.5039 27.1973-44.5312 30.5664-45.5078C31.2012-52.5391 37.1582-58.1055 44.2871-58.1055C49.6582-58.1055 54.1016-55.127 56.4941-50.5371C62.8906-50.5371 67.8711-46.0938 67.8711-39.9414C67.8711-34.082 63.1836-29.2969 56.9824-29.2969ZM32.1289-14.1113C31.3965-14.1113 30.957-14.6973 31.0059-15.3809L31.1035-17.5781L29.1992-16.2598C28.6621-15.918 27.7832-16.0645 27.5391-16.6992C27.2949-17.2363 27.3438-18.0176 28.125-18.3594L30.0781-19.3359L28.125-20.3613C27.3438-20.752 27.2949-21.5332 27.5879-22.0215C27.8809-22.6074 28.6621-22.7051 29.1992-22.3633L31.1035-20.9961L30.957-23.3398C30.9082-24.0234 31.3965-24.5605 32.1289-24.5605C32.7637-24.5605 33.3008-24.0234 33.252-23.291L33.1055-20.9961L34.9609-22.3633C35.4492-22.7051 36.3281-22.5586 36.6211-22.0215C36.9141-21.4355 36.8164-20.752 36.084-20.4102L34.0332-19.3359L36.084-18.3594C36.8652-18.0176 37.0117-17.1387 36.5723-16.6504C36.2793-16.1133 35.4492-15.918 34.9609-16.2598L33.1055-17.5781L33.252-15.3809C33.3008-14.6973 32.7637-14.1113 32.1289-14.1113ZM45.2637-14.1113C44.5801-14.1113 44.0918-14.6973 44.1406-15.3809L44.2383-17.5781L42.334-16.2598C41.8457-15.918 40.9668-16.0645 40.7227-16.6992C40.4297-17.2363 40.4785-18.0176 41.2598-18.3594L43.2617-19.3359L41.2598-20.3613C40.4785-20.752 40.4297-21.5332 40.7715-22.0215C41.0645-22.6074 41.8457-22.7051 42.334-22.3633L44.2383-20.9961L44.0918-23.3398C44.043-24.0234 44.5801-24.5605 45.2637-24.5605C45.9473-24.5605 46.4355-24.0234 46.3867-23.291L46.2402-20.9961L48.0957-22.3633C48.6328-22.7051 49.5117-22.5586 49.8047-22.0215C50.0488-21.4355 49.9512-20.752 49.2188-20.4102L47.2168-19.3359L49.2188-18.3594C50-18.0176 50.1465-17.1387 49.7559-16.6504C49.4629-16.1133 48.6328-15.918 48.0957-16.2598L46.2402-17.5781L46.3867-15.3809C46.4355-14.6973 45.9473-14.1113 45.2637-14.1113ZM58.4473-14.1113C57.7148-14.1113 57.2754-14.6973 57.3242-15.3809L57.4219-17.5781L55.4688-16.2598C54.9805-15.918 54.1016-16.0645 53.8574-16.6992C53.6133-17.2363 53.6621-18.0176 54.3945-18.3594L56.3965-19.3359L54.3945-20.3613C53.6621-20.752 53.6133-21.5332 53.9062-22.0215C54.1992-22.6074 54.9805-22.7051 55.4688-22.3633L57.4219-20.9961L57.2754-23.3398C57.2266-24.0234 57.7148-24.5605 58.4473-24.5605C59.082-24.5605 59.6191-24.0234 59.5703-23.291L59.375-20.9961L61.2793-22.3633C61.7676-22.7051 62.6465-22.5586 62.9395-22.0215C63.1836-21.4355 63.0859-20.752 62.4023-20.4102L60.3516-19.3359L62.4023-18.3594C63.1348-18.0176 63.2812-17.1387 62.8906-16.6504C62.5977-16.1133 61.7676-15.918 61.2793-16.2598L59.375-17.5781L59.5703-15.3809C59.6191-14.6973 59.082-14.1113 58.4473-14.1113Z"/>
  </g>
  <g id="Ultralight-S" transform="matrix(1 0 0 1 515.649 696)">
   <path class="SFSymbolsPreviewWireframe" d="M44.0606 2.01955C64.5039 2.01955 81.2886-14.7617 81.2886-35.2051C81.2886-55.6484 64.5005-72.4297 44.0571-72.4297C23.5718-72.4297 6.83594-55.6484 6.83594-35.2051C6.83594-14.7617 23.5752 2.01955 44.0606 2.01955ZM30.9214-30.2959C25.6592-30.2959 22.6148-33.7344 22.6148-37.8179C22.6148-41.7764 25.4717-44.5767 29.0225-45.5078C29.6572-52.6753 35.2964-58.3325 42.1528-58.3325C48.0689-58.3325 52.1489-55.0815 54.5415-50.1738C60.7564-50.1738 65.5552-46.0029 65.5552-40.3047C65.5552-34.7178 60.9131-30.2959 55.0752-30.2959ZM30.6758-15.7461C30.1704-15.7461 29.958-16.1958 29.916-16.7432L29.9683-19.5307L27.6099-18.0762C27.1182-17.7798 26.648-17.8354 26.3584-18.334C26.0689-18.7349 26.3901-19.1982 26.8535-19.4946L29.3062-20.7891L26.8535-22.0869C26.4356-22.3413 26.0689-22.8047 26.4072-23.293C26.6548-23.7427 27.1636-23.7041 27.6099-23.4531L29.9683-21.9951L29.958-24.793C29.9546-25.3403 30.1704-25.7866 30.6758-25.7866C31.2197-25.7866 31.4844-25.3403 31.481-24.7895L31.4253-21.9951L33.7803-23.4531C34.2232-23.6587 34.7388-23.7392 34.9863-23.293C35.2793-22.7978 35.0454-22.3413 34.5401-22.0903L32.1714-20.7891L34.5401-19.4946C35.0488-19.2436 35.2861-18.728 34.9829-18.2851C34.69-17.8843 34.1777-17.8252 33.7803-18.0762L31.4253-19.5307L31.481-16.7432C31.4844-16.1958 31.2197-15.7461 30.6758-15.7461ZM43.084-15.7461C42.582-15.7461 42.3208-16.1958 42.3242-16.7432L42.3765-19.5307L40.0181-18.0762C39.5298-17.7798 39.0596-17.8354 38.77-18.334C38.4771-18.7349 38.7529-19.1982 39.2617-19.4946L41.6724-20.7891L39.2617-22.0869C38.7984-22.3413 38.4771-22.8047 38.8189-23.293C39.0664-23.7427 39.5752-23.7041 40.0181-23.4531L42.3765-21.9951L42.3208-24.793C42.3174-25.3403 42.582-25.7866 43.084-25.7866C43.6314-25.7866 43.8926-25.3403 43.8892-24.7895L43.8335-21.9951L46.1885-23.4531C46.6348-23.6587 47.1504-23.7392 47.398-23.293C47.6875-22.7978 47.4536-22.3413 46.9483-22.0903L44.583-20.7891L46.9483-19.4946C47.4571-19.2436 47.6944-18.728 47.3945-18.2851C47.1016-17.8843 46.5894-17.8252 46.1885-18.0762L43.8335-19.5307L43.8892-16.7432C43.8926-16.1958 43.6314-15.7461 43.084-15.7461ZM55.4956-15.7461C54.9903-15.7461 54.7324-16.1958 54.7359-16.7432L54.7881-19.5307L52.4263-18.0762C51.938-17.7798 51.4678-17.8354 51.1782-18.334C50.9341-18.7349 51.1192-19.1982 51.6699-19.4946L54.0806-20.7891L51.6699-22.0869C51.21-22.3413 50.8887-22.8047 51.2271-23.293C51.4746-23.7427 51.9834-23.7041 52.4263-23.4531L54.7881-21.9951L54.7324-24.793C54.729-25.3403 54.9903-25.7866 55.4956-25.7866C56.0396-25.7866 56.2588-25.3403 56.2554-24.7895L56.1963-21.9951L58.6001-23.4531C59.043-23.7041 59.5586-23.7392 59.7608-23.293C60.1411-22.7978 59.771-22.3413 59.3599-22.0903L56.9458-20.7891L59.3599-19.4946C59.7744-19.2436 60.0572-18.728 59.8028-18.2851C59.5098-17.8843 58.9976-17.8252 58.6001-18.0762L56.1963-19.5307L56.2554-16.7432C56.2588-16.1958 56.0396-15.7461 55.4956-15.7461Z"/>
  </g>
 </g>
</svg>
