<?xml version="1.0" encoding="UTF-8"?>
<!--Generator: Apple Native CoreSVG 232.5-->
<!DOCTYPE svg
PUBLIC "-//W3C//DTD SVG 1.1//EN"
       "http://www.w3.org/Graphics/SVG/1.1/DTD/svg11.dtd">
<svg version="1.1" xmlns="http://www.w3.org/2000/svg" xmlns:xlink="http://www.w3.org/1999/xlink" width="3300" height="2200">
 <!--glyph: "uni1016DB.medium", point size: 100.0, font version: "19.2d2e1", template writer version: "128"-->
 <style>.SFSymbolsPreviewWireframe {fill:none;opacity:1.0;stroke:black;stroke-width:0.5}
</style>
 <g id="Notes">
  <rect height="2200" id="artboard" style="fill:white;opacity:1" width="3300" x="0" y="0"/>
  <line style="fill:none;stroke:black;opacity:1;stroke-width:0.5;" x1="263" x2="3036" y1="292" y2="292"/>
  <text style="stroke:none;fill:black;font-family:sans-serif;font-size:13;font-weight:bold;" transform="matrix(1 0 0 1 263 322)">Weight/Scale Variations</text>
  <text style="stroke:none;fill:black;font-family:sans-serif;font-size:13;text-anchor:middle;" transform="matrix(1 0 0 1 559.711 322)">Ultralight</text>
  <text style="stroke:none;fill:black;font-family:sans-serif;font-size:13;text-anchor:middle;" transform="matrix(1 0 0 1 856.422 322)">Thin</text>
  <text style="stroke:none;fill:black;font-family:sans-serif;font-size:13;text-anchor:middle;" transform="matrix(1 0 0 1 1153.13 322)">Light</text>
  <text style="stroke:none;fill:black;font-family:sans-serif;font-size:13;text-anchor:middle;" transform="matrix(1 0 0 1 1449.84 322)">Regular</text>
  <text style="stroke:none;fill:black;font-family:sans-serif;font-size:13;text-anchor:middle;" transform="matrix(1 0 0 1 1746.56 322)">Medium</text>
  <text style="stroke:none;fill:black;font-family:sans-serif;font-size:13;text-anchor:middle;" transform="matrix(1 0 0 1 2043.27 322)">Semibold</text>
  <text style="stroke:none;fill:black;font-family:sans-serif;font-size:13;text-anchor:middle;" transform="matrix(1 0 0 1 2339.98 322)">Bold</text>
  <text style="stroke:none;fill:black;font-family:sans-serif;font-size:13;text-anchor:middle;" transform="matrix(1 0 0 1 2636.69 322)">Heavy</text>
  <text style="stroke:none;fill:black;font-family:sans-serif;font-size:13;text-anchor:middle;" transform="matrix(1 0 0 1 2933.4 322)">Black</text>
  <line style="fill:none;stroke:black;opacity:1;stroke-width:0.5;" x1="263" x2="3036" y1="1903" y2="1903"/>
  <g transform="matrix(0.2 0 0 0.2 263 1933)">
   <path d="m46.2402 4.15039c21.5332 0 39.4531-17.8711 39.4531-39.4043s-17.9688-39.4043-39.502-39.4043c-21.4844 0-39.3555 17.8711-39.3555 39.4043s17.9199 39.4043 39.4043 39.4043Zm0-7.42188c-17.7246 0-31.8848-14.209-31.8848-31.9824s14.1113-31.9824 31.8359-31.9824c17.7734 0 32.0312 14.209 32.0312 31.9824s-14.209 31.9824-31.9824 31.9824Zm-17.9688-31.9824c0 2.14844 1.51367 3.61328 3.75977 3.61328h10.498v10.5957c0 2.19727 1.46484 3.71094 3.61328 3.71094 2.24609 0 3.71094-1.51367 3.71094-3.71094v-10.5957h10.5957c2.19727 0 3.71094-1.46484 3.71094-3.61328 0-2.19727-1.51367-3.71094-3.71094-3.71094h-10.5957v-10.5469c0-2.24609-1.46484-3.75977-3.71094-3.75977-2.14844 0-3.61328 1.51367-3.61328 3.75977v10.5469h-10.498c-2.24609 0-3.75977 1.51367-3.75977 3.71094Z"/>
  </g>
  <g transform="matrix(0.2 0 0 0.2 281.506 1933)">
   <path d="m58.5449 14.5508c27.2461 0 49.8047-22.6074 49.8047-49.8047 0-27.2461-22.6074-49.8047-49.8535-49.8047-27.1973 0-49.7559 22.5586-49.7559 49.8047 0 27.1973 22.6074 49.8047 49.8047 49.8047Zm0-8.30078c-23.0469 0-41.4551-18.457-41.4551-41.5039s18.3594-41.5039 41.4062-41.5039 41.5527 18.457 41.5527 41.5039-18.457 41.5039-41.5039 41.5039Zm-22.6562-41.5039c0 2.39258 1.66016 4.00391 4.15039 4.00391h14.3555v14.4043c0 2.44141 1.66016 4.15039 4.05273 4.15039 2.44141 0 4.15039-1.66016 4.15039-4.15039v-14.4043h14.4043c2.44141 0 4.15039-1.61133 4.15039-4.00391 0-2.44141-1.70898-4.15039-4.15039-4.15039h-14.4043v-14.3555c0-2.49023-1.70898-4.19922-4.15039-4.19922-2.39258 0-4.05273 1.70898-4.05273 4.19922v14.3555h-14.3555c-2.49023 0-4.15039 1.70898-4.15039 4.15039Z"/>
  </g>
  <g transform="matrix(0.2 0 0 0.2 304.924 1933)">
   <path d="m74.8535 28.3203c34.8145 0 63.623-28.8086 63.623-63.5742 0-34.8145-28.8574-63.623-63.6719-63.623-34.7656 0-63.5254 28.8086-63.5254 63.623 0 34.7656 28.8086 63.5742 63.5742 63.5742Zm0-9.08203c-30.1758 0-54.4434-24.3164-54.4434-54.4922 0-30.2246 24.2188-54.4922 54.3945-54.4922 30.2246 0 54.541 24.2676 54.541 54.4922 0 30.1758-24.2676 54.4922-54.4922 54.4922Zm-28.8574-54.4922c0 2.58789 1.85547 4.39453 4.58984 4.39453h19.7266v19.7754c0 2.68555 1.85547 4.58984 4.44336 4.58984 2.68555 0 4.54102-1.85547 4.54102-4.58984v-19.7754h19.7754c2.68555 0 4.58984-1.80664 4.58984-4.39453 0-2.73438-1.85547-4.58984-4.58984-4.58984h-19.7754v-19.7266c0-2.73438-1.85547-4.63867-4.54102-4.63867-2.58789 0-4.44336 1.9043-4.44336 4.63867v19.7266h-19.7266c-2.73438 0-4.58984 1.85547-4.58984 4.58984Z"/>
  </g>
  <text style="stroke:none;fill:black;font-family:sans-serif;font-size:13;font-weight:bold;" transform="matrix(1 0 0 1 263 1953)">Design Variations</text>
  <text style="stroke:none;fill:black;font-family:sans-serif;font-size:13;" transform="matrix(1 0 0 1 263 1971)">Symbols are supported in up to nine weights and three scales.</text>
  <text style="stroke:none;fill:black;font-family:sans-serif;font-size:13;" transform="matrix(1 0 0 1 263 1989)">For optimal layout with text and other symbols, vertically align</text>
  <text style="stroke:none;fill:black;font-family:sans-serif;font-size:13;" transform="matrix(1 0 0 1 263 2007)">symbols with the adjacent text.</text>
  <line style="fill:none;stroke:#00AEEF;stroke-width:0.5;opacity:1.0;" x1="776" x2="776" y1="1919" y2="1933"/>
  <g transform="matrix(0.2 0 0 0.2 776 1933)">
   <path d="m16.5527 0.78125c2.58789 0 3.85742-0.976562 4.78516-3.71094l6.29883-17.2363h28.8086l6.29883 17.2363c0.927734 2.73438 2.19727 3.71094 4.73633 3.71094 2.58789 0 4.24805-1.5625 4.24805-4.00391 0-0.830078-0.146484-1.61133-0.537109-2.63672l-22.9004-60.9863c-1.12305-2.97852-3.125-4.49219-6.25-4.49219-3.02734 0-5.07812 1.46484-6.15234 4.44336l-22.9004 61.084c-0.390625 1.02539-0.537109 1.80664-0.537109 2.63672 0 2.44141 1.5625 3.95508 4.10156 3.95508Zm13.4766-28.3691 11.8652-32.8613h0.244141l11.8652 32.8613Z"/>
  </g>
  <line style="fill:none;stroke:#00AEEF;stroke-width:0.5;opacity:1.0;" x1="792.836" x2="792.836" y1="1919" y2="1933"/>
  <text style="stroke:none;fill:black;font-family:sans-serif;font-size:13;font-weight:bold;" transform="matrix(1 0 0 1 776 1953)">Margins</text>
  <text style="stroke:none;fill:black;font-family:sans-serif;font-size:13;" transform="matrix(1 0 0 1 776 1971)">Leading and trailing margins on the left and right side of each symbol</text>
  <text style="stroke:none;fill:black;font-family:sans-serif;font-size:13;" transform="matrix(1 0 0 1 776 1989)">can be adjusted by modifying the x-location of the margin guidelines.</text>
  <text style="stroke:none;fill:black;font-family:sans-serif;font-size:13;" transform="matrix(1 0 0 1 776 2007)">Modifications are automatically applied proportionally to all</text>
  <text style="stroke:none;fill:black;font-family:sans-serif;font-size:13;" transform="matrix(1 0 0 1 776 2025)">scales and weights.</text>
  <g transform="matrix(0.2 0 0 0.2 1289 1933)">
   <path d="m14.209 9.32617 8.49609 8.54492c4.29688 4.3457 9.22852 4.05273 13.8672-1.07422l53.4668-58.9355-4.83398-4.88281-53.0762 58.3984c-1.75781 2.00195-3.41797 2.49023-5.76172 0.146484l-5.85938-5.81055c-2.34375-2.29492-1.80664-4.00391 0.195312-5.81055l57.373-54.0039-4.88281-4.83398-57.959 54.4434c-4.93164 4.58984-5.32227 9.47266-1.02539 13.8184Zm32.0801-90.9668c-2.09961 2.05078-2.24609 4.93164-1.07422 6.88477 1.17188 1.80664 3.4668 2.97852 6.68945 2.14844 7.32422-1.70898 14.9414-2.00195 22.0703 2.68555l-2.92969 7.27539c-1.70898 4.15039-0.830078 7.08008 1.85547 9.81445l11.4746 11.5723c2.44141 2.44141 4.49219 2.53906 7.32422 2.05078l5.32227-0.976562 3.32031 3.36914-0.195312 2.7832c-0.195312 2.49023 0.439453 4.39453 2.88086 6.78711l3.80859 3.71094c2.39258 2.39258 5.46875 2.53906 7.8125 0.195312l14.5508-14.5996c2.34375-2.34375 2.24609-5.32227-0.146484-7.71484l-3.85742-3.80859c-2.39258-2.39258-4.24805-3.17383-6.64062-2.97852l-2.88086 0.244141-3.22266-3.17383 1.2207-5.61523c0.634766-2.83203-0.146484-5.0293-3.07617-7.95898l-10.9863-10.9375c-16.6992-16.6016-38.8672-16.2109-53.3203-1.75781Zm7.4707 1.85547c12.1582-8.88672 28.6133-7.37305 39.7461 3.75977l12.1582 12.0605c1.17188 1.17188 1.36719 2.09961 1.02539 3.80859l-1.61133 7.42188 7.51953 7.42188 4.93164-0.292969c1.26953-0.0488281 1.66016 0.0488281 2.63672 1.02539l2.88086 2.88086-12.207 12.207-2.88086-2.88086c-0.976562-0.976562-1.12305-1.36719-1.07422-2.68555l0.341797-4.88281-7.4707-7.42188-7.61719 1.26953c-1.61133 0.341797-2.34375 0.195312-3.56445-0.976562l-10.0098-10.0098c-1.26953-1.17188-1.41602-2.00195-0.634766-3.85742l4.39453-10.4492c-7.8125-7.27539-17.9688-10.4004-28.125-7.42188-0.78125 0.195312-1.07422-0.439453-0.439453-0.976562Z"/>
  </g>
  <text style="stroke:none;fill:black;font-family:sans-serif;font-size:13;font-weight:bold;" transform="matrix(1 0 0 1 1289 1953)">Exporting</text>
  <text style="stroke:none;fill:black;font-family:sans-serif;font-size:13;" transform="matrix(1 0 0 1 1289 1971)">Symbols should be outlined when exporting to ensure the</text>
  <text style="stroke:none;fill:black;font-family:sans-serif;font-size:13;" transform="matrix(1 0 0 1 1289 1989)">design is preserved when submitting to Xcode.</text>
  <text id="template-version" style="stroke:none;fill:black;font-family:sans-serif;font-size:13;text-anchor:end;" transform="matrix(1 0 0 1 3036 1933)">Template v.5.0</text>
  <text style="stroke:none;fill:black;font-family:sans-serif;font-size:13;text-anchor:end;" transform="matrix(1 0 0 1 3036 1951)">Requires Xcode 15 or greater</text>
  <text id="descriptive-name" style="stroke:none;fill:black;font-family:sans-serif;font-size:13;text-anchor:end;" transform="matrix(1 0 0 1 3036 1969)">Generated from cloud.sleet.circle</text>
  <text style="stroke:none;fill:black;font-family:sans-serif;font-size:13;text-anchor:end;" transform="matrix(1 0 0 1 3036 1987)">Typeset at 100.0 points</text>
  <text style="stroke:none;fill:black;font-family:sans-serif;font-size:13;" transform="matrix(1 0 0 1 263 726)">Small</text>
  <text style="stroke:none;fill:black;font-family:sans-serif;font-size:13;" transform="matrix(1 0 0 1 263 1156)">Medium</text>
  <text style="stroke:none;fill:black;font-family:sans-serif;font-size:13;" transform="matrix(1 0 0 1 263 1586)">Large</text>
 </g>
 <g id="Guides">
  <g id="H-reference" style="fill:#27AAE1;stroke:none;" transform="matrix(1 0 0 1 339 696)">
   <path d="M0.993654 0L3.63775 0L29.3281-67.1323L30.0303-67.1323L30.0303-70.459L28.1226-70.459ZM11.6885-24.4799L46.9815-24.4799L46.2315-26.7285L12.4385-26.7285ZM55.1196 0L57.7637 0L30.6382-70.459L29.4326-70.459L29.4326-67.1323Z"/>
  </g>
  <line id="Baseline-S" style="fill:none;stroke:#27AAE1;opacity:1;stroke-width:0.5;" x1="263" x2="3036" y1="696" y2="696"/>
  <line id="Capline-S" style="fill:none;stroke:#27AAE1;opacity:1;stroke-width:0.5;" x1="263" x2="3036" y1="625.541" y2="625.541"/>
  <g id="H-reference" style="fill:#27AAE1;stroke:none;" transform="matrix(1 0 0 1 339 1126)">
   <path d="M0.993654 0L3.63775 0L29.3281-67.1323L30.0303-67.1323L30.0303-70.459L28.1226-70.459ZM11.6885-24.4799L46.9815-24.4799L46.2315-26.7285L12.4385-26.7285ZM55.1196 0L57.7637 0L30.6382-70.459L29.4326-70.459L29.4326-67.1323Z"/>
  </g>
  <line id="Baseline-M" style="fill:none;stroke:#27AAE1;opacity:1;stroke-width:0.5;" x1="263" x2="3036" y1="1126" y2="1126"/>
  <line id="Capline-M" style="fill:none;stroke:#27AAE1;opacity:1;stroke-width:0.5;" x1="263" x2="3036" y1="1055.54" y2="1055.54"/>
  <g id="H-reference" style="fill:#27AAE1;stroke:none;" transform="matrix(1 0 0 1 339 1556)">
   <path d="M0.993654 0L3.63775 0L29.3281-67.1323L30.0303-67.1323L30.0303-70.459L28.1226-70.459ZM11.6885-24.4799L46.9815-24.4799L46.2315-26.7285L12.4385-26.7285ZM55.1196 0L57.7637 0L30.6382-70.459L29.4326-70.459L29.4326-67.1323Z"/>
  </g>
  <line id="Baseline-L" style="fill:none;stroke:#27AAE1;opacity:1;stroke-width:0.5;" x1="263" x2="3036" y1="1556" y2="1556"/>
  <line id="Capline-L" style="fill:none;stroke:#27AAE1;opacity:1;stroke-width:0.5;" x1="263" x2="3036" y1="1485.54" y2="1485.54"/>
  <line id="left-margin-Ultralight-S" style="fill:none;stroke:#00AEEF;stroke-width:0.5;opacity:1.0;" x1="515.649" x2="515.649" y1="600.785" y2="720.121"/>
  <line id="right-margin-Ultralight-S" style="fill:none;stroke:#00AEEF;stroke-width:0.5;opacity:1.0;" x1="603.773" x2="603.773" y1="600.785" y2="720.121"/>
  <line id="left-margin-Regular-S" style="fill:none;stroke:#00AEEF;stroke-width:0.5;opacity:1.0;" x1="1403.58" x2="1403.58" y1="600.785" y2="720.121"/>
  <line id="right-margin-Regular-S" style="fill:none;stroke:#00AEEF;stroke-width:0.5;opacity:1.0;" x1="1496.11" x2="1496.11" y1="600.785" y2="720.121"/>
  <line id="left-margin-Black-S" style="fill:none;stroke:#00AEEF;stroke-width:0.5;opacity:1.0;" x1="2884.57" x2="2884.57" y1="600.785" y2="720.121"/>
  <line id="right-margin-Black-S" style="fill:none;stroke:#00AEEF;stroke-width:0.5;opacity:1.0;" x1="2982.23" x2="2982.23" y1="600.785" y2="720.121"/>
 </g>
 <g id="Symbols">
  <g id="Black-S" transform="matrix(1 0 0 1 2884.57 696)">
   <path class="SFSymbolsPreviewWireframe" d="M48.8281 6.78711C71.9727 6.78711 90.8203-12.0605 90.8203-35.2051C90.8203-58.3496 71.9727-77.1973 48.8281-77.1973C25.6836-77.1973 6.83594-58.3496 6.83594-35.2051C6.83594-12.0605 25.6836 6.78711 48.8281 6.78711ZM48.8281-7.37305C33.4473-7.37305 20.9961-19.8242 20.9961-35.2051C20.9961-50.5859 33.4473-63.0371 48.8281-63.0371C64.209-63.0371 76.6602-50.5859 76.6602-35.2051C76.6602-19.8242 64.209-7.37305 48.8281-7.37305ZM39.5508-31.8848L58.7402-31.8848C64.1602-31.8848 68.3594-35.9863 68.3594-41.3574C68.3594-46.875 64.2578-51.0742 58.6914-51.0742C56.6406-55.0293 53.1738-56.9824 48.3887-56.9824C42.334-56.9824 37.4023-52.9785 36.4258-46.9238C33.1543-45.6543 31.25-43.0176 31.25-39.6973C31.25-35.1562 34.668-31.8848 39.5508-31.8848ZM42.6758-22.8516L44.3848-25.8789C44.873-26.7578 44.6289-27.9785 43.7012-28.5156C42.7246-29.0527 41.5039-28.7109 41.0156-27.832L39.3066-24.8047C38.8184-23.9258 39.0625-22.7051 40.0391-22.168C40.9668-21.6309 42.1875-21.9727 42.6758-22.8516ZM50.9766-22.7539L52.6855-25.7812C53.1738-26.6602 52.9297-27.8809 52.002-28.418C51.0254-28.9551 49.8047-28.6133 49.3164-27.7344L47.6074-24.707C47.1191-23.8281 47.3633-22.6074 48.3398-22.0703C49.2676-21.5332 50.4883-21.875 50.9766-22.7539ZM59.2773-22.8516L60.9863-25.8789C61.4746-26.7578 61.2305-27.9785 60.3027-28.5156C59.3262-29.0527 58.1055-28.7109 57.6172-27.832L55.9082-24.8047C55.4199-23.9258 55.6641-22.7051 56.6406-22.168C57.5684-21.6309 58.7891-21.9727 59.2773-22.8516ZM37.793-14.6484C38.4277-14.6484 38.8672-15.2344 38.7207-15.8691L38.4766-17.1387L39.502-16.3086C40.0391-15.8691 40.625-15.918 40.918-16.4551C41.2598-17.041 40.9668-17.7246 40.332-17.9199L39.209-18.3105L40.3809-18.75C40.9668-18.9453 41.2598-19.6289 40.918-20.166C40.625-20.6543 39.9902-20.7031 39.502-20.3613L38.4766-19.5801L38.7207-20.752C38.8672-21.4355 38.4277-22.0215 37.793-22.0215C37.1582-22.0215 36.7188-21.4355 36.8164-20.752L37.0117-19.5801L36.084-20.3613C35.5957-20.752 34.9121-20.6543 34.6191-20.166C34.2773-19.6289 34.5703-18.9941 35.2051-18.75L36.377-18.3594L35.1562-17.8711C34.5703-17.627 34.2773-17.041 34.6191-16.4551C34.9121-15.918 35.5957-15.8691 36.084-16.3086L37.0117-17.0898L36.8164-15.8691C36.7188-15.2344 37.1582-14.6484 37.793-14.6484ZM46.0938-14.5508C46.7285-14.5508 47.168-15.1367 47.0215-15.7715L46.7773-17.041L47.8027-16.2109C48.3398-15.8203 48.9258-15.8203 49.2188-16.3574C49.5605-16.9434 49.2676-17.627 48.6328-17.8223L47.5098-18.2129L48.6816-18.6523C49.2676-18.8477 49.5605-19.5312 49.2188-20.0684C48.9258-20.5566 48.291-20.6055 47.8027-20.2637L46.7773-19.4824L47.0215-20.6543C47.168-21.3379 46.7285-21.9238 46.0938-21.9238C45.459-21.9238 44.9707-21.3379 45.1172-20.6543L45.3125-19.4824L44.3848-20.2637C43.8965-20.6543 43.2129-20.5566 42.9199-20.0684C42.5781-19.5312 42.8711-18.8965 43.5059-18.6523L44.6777-18.2617L43.457-17.7734C42.8711-17.5781 42.5781-16.9434 42.9199-16.3574C43.2129-15.8203 43.8965-15.7715 44.3848-16.2109L45.3125-16.9922L45.1172-15.7715C44.9707-15.1367 45.459-14.5508 46.0938-14.5508ZM54.3945-14.6484C55.0293-14.6484 55.4688-15.2344 55.3223-15.8691L55.0781-17.1387L56.1035-16.3086C56.6406-15.8691 57.2266-15.918 57.5195-16.4551C57.8613-17.041 57.5684-17.7246 56.9336-17.9199L55.8105-18.3105L56.9824-18.75C57.5684-18.9453 57.8613-19.6289 57.5195-20.166C57.2266-20.6543 56.5918-20.7031 56.1035-20.3613L55.0781-19.5801L55.3223-20.752C55.4688-21.4355 55.0293-22.0215 54.3945-22.0215C53.7598-22.0215 53.3203-21.4355 53.418-20.752L53.6133-19.5801L52.6855-20.3613C52.1973-20.752 51.5137-20.6543 51.2207-20.166C50.8789-19.6289 51.1719-18.9941 51.8066-18.75L52.9785-18.3594L51.7578-17.8711C51.1719-17.627 50.8789-17.041 51.2207-16.4551C51.5137-15.918 52.1973-15.8691 52.6855-16.3086L53.6133-17.0898L53.418-15.8691C53.3203-15.2344 53.7598-14.6484 54.3945-14.6484Z"/>
  </g>
  <g id="Regular-S" transform="matrix(1 0 0 1 1403.58 696)">
   <path class="SFSymbolsPreviewWireframe" d="M46.2402 4.15039C67.7734 4.15039 85.6934-13.7207 85.6934-35.2539C85.6934-56.7871 67.7246-74.6582 46.1914-74.6582C24.707-74.6582 6.83594-56.7871 6.83594-35.2539C6.83594-13.7207 24.7559 4.15039 46.2402 4.15039ZM46.2402-3.27148C28.5156-3.27148 14.3555-17.4805 14.3555-35.2539C14.3555-53.0273 28.4668-67.2363 46.1914-67.2363C63.9648-67.2363 78.2227-53.0273 78.2227-35.2539C78.2227-17.4805 64.0137-3.27148 46.2402-3.27148ZM35.1074-31.4941L57.5684-31.4941C63.5254-31.4941 68.0664-36.1328 68.0664-41.7969C68.0664-47.7051 63.2812-52.002 57.0801-52.002C54.7363-56.3965 50.4883-59.3262 45.3613-59.3262C38.4277-59.3262 32.7148-53.9062 32.0801-47.168C28.8574-46.1914 26.3672-43.3105 26.3672-39.4531C26.3672-35.0586 29.541-31.4941 35.1074-31.4941ZM37.4023-21.9238L39.3555-25.293C39.8438-26.123 39.5996-27.3926 38.6719-27.8809C37.7441-28.418 36.5723-28.0273 36.084-27.1973L34.1309-23.8281C33.6426-22.9492 33.8867-21.7285 34.8633-21.1914C35.7422-20.7031 36.9629-21.0449 37.4023-21.9238ZM47.9004-21.9238L49.8535-25.293C50.3418-26.123 50.0977-27.3926 49.1211-27.8809C48.2422-28.418 47.0215-28.0273 46.582-27.1973L44.5801-23.8281C44.1406-22.9492 44.3848-21.7285 45.3125-21.1914C46.1914-20.7031 47.4121-21.0449 47.9004-21.9238ZM58.3008-21.9238L60.2539-25.293C60.7422-26.123 60.498-27.3926 59.5215-27.8809C58.6426-28.418 57.4707-28.0273 56.9824-27.1973L55.0293-23.8281C54.541-22.9492 54.7852-21.7285 55.7129-21.1914C56.6406-20.7031 57.8125-21.0449 58.3008-21.9238ZM32.7148-12.8418C33.252-12.8418 33.6914-13.2812 33.6426-13.8672L33.5449-15.1855L34.6191-14.4531C35.0586-14.1602 35.6934-14.3555 35.9375-14.6973C36.2305-15.1367 36.1816-15.8691 35.5469-16.1621L34.375-16.6992L35.5469-17.2852C36.1328-17.5781 36.2305-18.1641 36.0352-18.6035C35.791-19.1406 35.0586-19.2383 34.6191-18.9453L33.5449-18.1641L33.6426-19.4824C33.6914-20.1172 33.252-20.5566 32.7148-20.5566C32.0801-20.5566 31.6406-20.0684 31.6895-19.4824L31.7871-18.1641L30.7129-18.9453C30.3223-19.2383 29.6387-19.1895 29.3457-18.6523C29.1504-18.3105 29.1504-17.5293 29.7852-17.2363L30.957-16.6992L29.7852-16.1621C29.1504-15.8691 29.0527-15.1855 29.2969-14.7461C29.5898-14.2578 30.2734-14.1602 30.7129-14.4531L31.7871-15.1855L31.7383-13.8672C31.7383-13.3301 32.0801-12.8418 32.7148-12.8418ZM43.1641-12.8418C43.7012-12.8418 44.1406-13.2812 44.0918-13.8672L43.9941-15.1855L45.0684-14.4531C45.5078-14.1602 46.1914-14.3555 46.4355-14.6973C46.7285-15.1367 46.6797-15.8691 46.0449-16.1621L44.8242-16.6992L46.0449-17.2852C46.582-17.5781 46.7285-18.1641 46.4844-18.6035C46.2891-19.1406 45.5078-19.2383 45.0684-18.9453L43.9941-18.1641L44.0918-19.4824C44.1406-20.1172 43.7012-20.5566 43.1641-20.5566C42.5781-20.5566 42.1387-20.0684 42.1875-19.4824L42.2852-18.1641L41.1621-18.9453C40.7715-19.2383 40.0879-19.1895 39.7949-18.6523C39.5996-18.3105 39.5996-17.5293 40.2344-17.2363L41.4062-16.6992L40.2344-16.1621C39.5996-15.8691 39.502-15.1855 39.7461-14.7461C40.0391-14.2578 40.7227-14.1602 41.1621-14.4531L42.2852-15.1855L42.2363-13.8672C42.2363-13.3301 42.5781-12.8418 43.1641-12.8418ZM53.6133-12.8418C54.1016-12.8418 54.541-13.2812 54.4922-13.8672L54.3945-15.1855L55.4688-14.4531C55.9082-14.1602 56.5918-14.3555 56.8359-14.6973C57.1289-15.1367 57.0801-15.8691 56.4453-16.1621L55.2246-16.6992L56.4453-17.2852C57.0312-17.5781 57.1289-18.1641 56.9336-18.6035C56.6895-19.1406 55.9082-19.2383 55.4688-18.9453L54.3945-18.1641L54.4922-19.4824C54.541-20.1172 54.1016-20.5566 53.6133-20.5566C52.9785-20.5566 52.5391-20.0684 52.5879-19.4824L52.6855-18.1641L51.5625-18.9453C51.1719-19.2383 50.4883-19.1895 50.1953-18.6523C50-18.3105 50.0488-17.5293 50.6348-17.2363L51.8066-16.6992L50.6348-16.1621C50.0488-15.8691 49.9023-15.1855 50.1465-14.7461C50.4395-14.2578 51.123-14.1602 51.5625-14.4531L52.6855-15.1855L52.6367-13.8672C52.6367-13.3301 52.9785-12.8418 53.6133-12.8418Z"/>
  </g>
  <g id="Ultralight-S" transform="matrix(1 0 0 1 515.649 696)">
   <path class="SFSymbolsPreviewWireframe" d="M44.0606 1.97072C64.5039 1.97072 81.2886-14.8105 81.2886-35.2539C81.2886-55.6973 64.5005-72.4785 44.0571-72.4785C23.5718-72.4785 6.83594-55.6973 6.83594-35.2539C6.83594-14.8105 23.5752 1.97072 44.0606 1.97072ZM44.0606-0.274438C24.7466-0.274438 9.04252-15.9365 9.04252-35.2539C9.04252-54.5713 24.7432-70.2334 44.0571-70.2334C63.3745-70.2334 79.04-54.5713 79.04-35.2539C79.04-15.9365 63.3779-0.274438 44.0606-0.274438ZM31.4292-31.8574L55.5703-31.8574C61.3911-31.8574 66.023-36.269 66.023-41.8423C66.023-47.5234 61.2378-51.6841 55.0366-51.6841C52.6475-56.5781 48.5811-59.8257 42.6822-59.8257C35.8394-59.8257 30.2173-54.1787 29.5825-47.0317C26.042-46.1006 23.1431-43.3105 23.1431-39.3623C23.1431-35.2856 26.1807-31.8574 31.4292-31.8574ZM33.4971-20.9702L36.4492-25.9741C36.7559-26.4863 36.5572-27.1201 36.0381-27.4268C35.5645-27.6914 34.9375-27.5278 34.6309-27.0156L31.7241-21.9663C31.4175-21.4507 31.6162-20.8657 32.1387-20.5557C32.5635-20.2944 33.1939-20.4546 33.4971-20.9702ZM44.1768-20.9702L47.1289-25.9741C47.4356-26.4863 47.2368-27.1201 46.7144-27.4268C46.2442-27.6914 45.6138-27.5278 45.3106-27.0156L42.4004-21.9663C42.0972-21.4507 42.2959-20.8657 42.815-20.5557C43.2852-20.2944 43.8701-20.4546 44.1768-20.9702ZM54.8496-20.9702L57.8018-25.9741C58.1084-26.4863 57.9097-27.1201 57.3872-27.4268C56.917-27.6914 56.29-27.5278 56.0288-27.0156L53.0767-21.9663C52.77-21.4507 52.9688-20.8657 53.4878-20.5557C53.9614-20.2944 54.543-20.4546 54.8496-20.9702ZM29.3545-11.3433C29.7554-11.3433 30.104-11.6919 30.1006-12.1416L30.0484-14.4136L31.8491-13.2725C32.1978-13.0249 32.6509-13.1294 32.895-13.4712C33.2334-13.8652 33.0938-14.2798 32.5498-14.5728L30.7422-15.5186L32.5498-16.5132C32.9541-16.7607 33.1426-17.2105 32.8565-17.6045C32.7031-17.9146 32.2432-17.9668 31.8491-17.7192L30.0484-16.6655L30.1006-18.8921C30.104-19.3452 29.7554-19.6939 29.3545-19.6939C28.9922-19.6939 28.689-19.3418 28.6924-18.8921L28.7447-16.6655L26.9439-17.7647C26.5533-18.0122 26.0967-17.918 25.8946-17.5625C25.6538-17.2207 25.7901-16.8027 26.2432-16.5552L28.0508-15.5186L26.2432-14.5728C25.7447-14.3252 25.5562-13.8687 25.8457-13.4746C26.0479-13.0772 26.5498-13.0249 26.9439-13.2725L28.7447-14.4136L28.6958-12.1416C28.6958-11.6953 28.9922-11.3433 29.3545-11.3433ZM40.0762-11.3433C40.4317-11.3433 40.7803-11.6919 40.7769-12.1416L40.7246-14.4136L42.5254-13.2725C42.874-13.0249 43.3306-13.1294 43.5747-13.4712C43.9131-13.8652 43.7735-14.2798 43.2295-14.5728L41.4185-15.5186L43.2295-16.5132C43.6758-16.7607 43.8223-17.2105 43.5781-17.6045C43.3828-17.9146 42.9195-17.9668 42.5254-17.7192L40.7246-16.6655L40.7769-18.8921C40.7803-19.3452 40.4317-19.6939 40.0762-19.6939C39.6719-19.6939 39.3687-19.3418 39.3721-18.8921L39.4243-16.6655L37.6201-17.7647C37.2295-18.0122 36.773-17.918 36.5708-17.5625C36.3301-17.2207 36.5117-16.8027 36.9195-16.5552L38.7271-15.5186L36.9195-14.5728C36.4209-14.3252 36.2324-13.8687 36.522-13.4746C36.7241-13.0772 37.2261-13.0249 37.6201-13.2725L39.4243-14.4136L39.3755-12.1416C39.3755-11.6953 39.6719-11.3433 40.0762-11.3433ZM50.7525-11.3433C51.1499-11.3433 51.4986-11.6919 51.4951-12.1416L51.4429-14.4136L53.1983-13.2725C53.5469-13.0249 54.0034-13.1294 54.2476-13.4712C54.586-13.8652 54.4463-14.3252 53.9024-14.5728L52.1367-15.5186L53.9024-16.5132C54.3521-16.7153 54.4951-17.2105 54.2544-17.6045C54.0557-17.9146 53.5923-17.9668 53.1983-17.7192L51.4429-16.6655L51.4951-18.8921C51.4986-19.3452 51.1499-19.6939 50.7525-19.6939C50.3447-19.6939 50.0415-19.3418 50.0449-18.8921L50.0972-16.6655L48.293-17.7647C47.9024-18.0122 47.4912-17.918 47.2891-17.5625C47.0484-17.2207 47.188-16.8027 47.6377-16.5552L49.3999-15.5186L47.6377-14.5728C47.1426-14.3252 46.9507-13.8687 47.2403-13.4746C47.4424-13.0772 47.899-13.0249 48.293-13.2725L50.0972-14.4136L50.0484-12.1416C50.0484-11.6953 50.3447-11.3433 50.7525-11.3433Z"/>
  </g>
 </g>
</svg>
