<?xml version="1.0" encoding="UTF-8"?>
<!--Generator: Apple Native CoreSVG 232.5-->
<!DOCTYPE svg
PUBLIC "-//W3C//DTD SVG 1.1//EN"
       "http://www.w3.org/Graphics/SVG/1.1/DTD/svg11.dtd">
<svg version="1.1" xmlns="http://www.w3.org/2000/svg" xmlns:xlink="http://www.w3.org/1999/xlink" width="3300" height="2200">
 <!--glyph: "uni101AC1.medium", point size: 100.0, font version: "19.2d2e1", template writer version: "128"-->
 <style>.SFSymbolsPreviewWireframe {fill:none;opacity:1.0;stroke:black;stroke-width:0.5}
</style>
 <g id="Notes">
  <rect height="2200" id="artboard" style="fill:white;opacity:1" width="3300" x="0" y="0"/>
  <line style="fill:none;stroke:black;opacity:1;stroke-width:0.5;" x1="263" x2="3036" y1="292" y2="292"/>
  <text style="stroke:none;fill:black;font-family:sans-serif;font-size:13;font-weight:bold;" transform="matrix(1 0 0 1 263 322)">Weight/Scale Variations</text>
  <text style="stroke:none;fill:black;font-family:sans-serif;font-size:13;text-anchor:middle;" transform="matrix(1 0 0 1 559.711 322)">Ultralight</text>
  <text style="stroke:none;fill:black;font-family:sans-serif;font-size:13;text-anchor:middle;" transform="matrix(1 0 0 1 856.422 322)">Thin</text>
  <text style="stroke:none;fill:black;font-family:sans-serif;font-size:13;text-anchor:middle;" transform="matrix(1 0 0 1 1153.13 322)">Light</text>
  <text style="stroke:none;fill:black;font-family:sans-serif;font-size:13;text-anchor:middle;" transform="matrix(1 0 0 1 1449.84 322)">Regular</text>
  <text style="stroke:none;fill:black;font-family:sans-serif;font-size:13;text-anchor:middle;" transform="matrix(1 0 0 1 1746.56 322)">Medium</text>
  <text style="stroke:none;fill:black;font-family:sans-serif;font-size:13;text-anchor:middle;" transform="matrix(1 0 0 1 2043.27 322)">Semibold</text>
  <text style="stroke:none;fill:black;font-family:sans-serif;font-size:13;text-anchor:middle;" transform="matrix(1 0 0 1 2339.98 322)">Bold</text>
  <text style="stroke:none;fill:black;font-family:sans-serif;font-size:13;text-anchor:middle;" transform="matrix(1 0 0 1 2636.69 322)">Heavy</text>
  <text style="stroke:none;fill:black;font-family:sans-serif;font-size:13;text-anchor:middle;" transform="matrix(1 0 0 1 2933.4 322)">Black</text>
  <line style="fill:none;stroke:black;opacity:1;stroke-width:0.5;" x1="263" x2="3036" y1="1903" y2="1903"/>
  <g transform="matrix(0.2 0 0 0.2 263 1933)">
   <path d="m46.2402 4.15039c21.5332 0 39.4531-17.8711 39.4531-39.4043s-17.9688-39.4043-39.502-39.4043c-21.4844 0-39.3555 17.8711-39.3555 39.4043s17.9199 39.4043 39.4043 39.4043Zm0-7.42188c-17.7246 0-31.8848-14.209-31.8848-31.9824s14.1113-31.9824 31.8359-31.9824c17.7734 0 32.0312 14.209 32.0312 31.9824s-14.209 31.9824-31.9824 31.9824Zm-17.9688-31.9824c0 2.14844 1.51367 3.61328 3.75977 3.61328h10.498v10.5957c0 2.19727 1.46484 3.71094 3.61328 3.71094 2.24609 0 3.71094-1.51367 3.71094-3.71094v-10.5957h10.5957c2.19727 0 3.71094-1.46484 3.71094-3.61328 0-2.19727-1.51367-3.71094-3.71094-3.71094h-10.5957v-10.5469c0-2.24609-1.46484-3.75977-3.71094-3.75977-2.14844 0-3.61328 1.51367-3.61328 3.75977v10.5469h-10.498c-2.24609 0-3.75977 1.51367-3.75977 3.71094Z"/>
  </g>
  <g transform="matrix(0.2 0 0 0.2 281.506 1933)">
   <path d="m58.5449 14.5508c27.2461 0 49.8047-22.6074 49.8047-49.8047 0-27.2461-22.6074-49.8047-49.8535-49.8047-27.1973 0-49.7559 22.5586-49.7559 49.8047 0 27.1973 22.6074 49.8047 49.8047 49.8047Zm0-8.30078c-23.0469 0-41.4551-18.457-41.4551-41.5039s18.3594-41.5039 41.4062-41.5039 41.5527 18.457 41.5527 41.5039-18.457 41.5039-41.5039 41.5039Zm-22.6562-41.5039c0 2.39258 1.66016 4.00391 4.15039 4.00391h14.3555v14.4043c0 2.44141 1.66016 4.15039 4.05273 4.15039 2.44141 0 4.15039-1.66016 4.15039-4.15039v-14.4043h14.4043c2.44141 0 4.15039-1.61133 4.15039-4.00391 0-2.44141-1.70898-4.15039-4.15039-4.15039h-14.4043v-14.3555c0-2.49023-1.70898-4.19922-4.15039-4.19922-2.39258 0-4.05273 1.70898-4.05273 4.19922v14.3555h-14.3555c-2.49023 0-4.15039 1.70898-4.15039 4.15039Z"/>
  </g>
  <g transform="matrix(0.2 0 0 0.2 304.924 1933)">
   <path d="m74.8535 28.3203c34.8145 0 63.623-28.8086 63.623-63.5742 0-34.8145-28.8574-63.623-63.6719-63.623-34.7656 0-63.5254 28.8086-63.5254 63.623 0 34.7656 28.8086 63.5742 63.5742 63.5742Zm0-9.08203c-30.1758 0-54.4434-24.3164-54.4434-54.4922 0-30.2246 24.2188-54.4922 54.3945-54.4922 30.2246 0 54.541 24.2676 54.541 54.4922 0 30.1758-24.2676 54.4922-54.4922 54.4922Zm-28.8574-54.4922c0 2.58789 1.85547 4.39453 4.58984 4.39453h19.7266v19.7754c0 2.68555 1.85547 4.58984 4.44336 4.58984 2.68555 0 4.54102-1.85547 4.54102-4.58984v-19.7754h19.7754c2.68555 0 4.58984-1.80664 4.58984-4.39453 0-2.73438-1.85547-4.58984-4.58984-4.58984h-19.7754v-19.7266c0-2.73438-1.85547-4.63867-4.54102-4.63867-2.58789 0-4.44336 1.9043-4.44336 4.63867v19.7266h-19.7266c-2.73438 0-4.58984 1.85547-4.58984 4.58984Z"/>
  </g>
  <text style="stroke:none;fill:black;font-family:sans-serif;font-size:13;font-weight:bold;" transform="matrix(1 0 0 1 263 1953)">Design Variations</text>
  <text style="stroke:none;fill:black;font-family:sans-serif;font-size:13;" transform="matrix(1 0 0 1 263 1971)">Symbols are supported in up to nine weights and three scales.</text>
  <text style="stroke:none;fill:black;font-family:sans-serif;font-size:13;" transform="matrix(1 0 0 1 263 1989)">For optimal layout with text and other symbols, vertically align</text>
  <text style="stroke:none;fill:black;font-family:sans-serif;font-size:13;" transform="matrix(1 0 0 1 263 2007)">symbols with the adjacent text.</text>
  <line style="fill:none;stroke:#00AEEF;stroke-width:0.5;opacity:1.0;" x1="776" x2="776" y1="1919" y2="1933"/>
  <g transform="matrix(0.2 0 0 0.2 776 1933)">
   <path d="m16.5527 0.78125c2.58789 0 3.85742-0.976562 4.78516-3.71094l6.29883-17.2363h28.8086l6.29883 17.2363c0.927734 2.73438 2.19727 3.71094 4.73633 3.71094 2.58789 0 4.24805-1.5625 4.24805-4.00391 0-0.830078-0.146484-1.61133-0.537109-2.63672l-22.9004-60.9863c-1.12305-2.97852-3.125-4.49219-6.25-4.49219-3.02734 0-5.07812 1.46484-6.15234 4.44336l-22.9004 61.084c-0.390625 1.02539-0.537109 1.80664-0.537109 2.63672 0 2.44141 1.5625 3.95508 4.10156 3.95508Zm13.4766-28.3691 11.8652-32.8613h0.244141l11.8652 32.8613Z"/>
  </g>
  <line style="fill:none;stroke:#00AEEF;stroke-width:0.5;opacity:1.0;" x1="792.836" x2="792.836" y1="1919" y2="1933"/>
  <text style="stroke:none;fill:black;font-family:sans-serif;font-size:13;font-weight:bold;" transform="matrix(1 0 0 1 776 1953)">Margins</text>
  <text style="stroke:none;fill:black;font-family:sans-serif;font-size:13;" transform="matrix(1 0 0 1 776 1971)">Leading and trailing margins on the left and right side of each symbol</text>
  <text style="stroke:none;fill:black;font-family:sans-serif;font-size:13;" transform="matrix(1 0 0 1 776 1989)">can be adjusted by modifying the x-location of the margin guidelines.</text>
  <text style="stroke:none;fill:black;font-family:sans-serif;font-size:13;" transform="matrix(1 0 0 1 776 2007)">Modifications are automatically applied proportionally to all</text>
  <text style="stroke:none;fill:black;font-family:sans-serif;font-size:13;" transform="matrix(1 0 0 1 776 2025)">scales and weights.</text>
  <g transform="matrix(0.2 0 0 0.2 1289 1933)">
   <path d="m14.209 9.32617 8.49609 8.54492c4.29688 4.3457 9.22852 4.05273 13.8672-1.07422l53.4668-58.9355-4.83398-4.88281-53.0762 58.3984c-1.75781 2.00195-3.41797 2.49023-5.76172 0.146484l-5.85938-5.81055c-2.34375-2.29492-1.80664-4.00391 0.195312-5.81055l57.373-54.0039-4.88281-4.83398-57.959 54.4434c-4.93164 4.58984-5.32227 9.47266-1.02539 13.8184Zm32.0801-90.9668c-2.09961 2.05078-2.24609 4.93164-1.07422 6.88477 1.17188 1.80664 3.4668 2.97852 6.68945 2.14844 7.32422-1.70898 14.9414-2.00195 22.0703 2.68555l-2.92969 7.27539c-1.70898 4.15039-0.830078 7.08008 1.85547 9.81445l11.4746 11.5723c2.44141 2.44141 4.49219 2.53906 7.32422 2.05078l5.32227-0.976562 3.32031 3.36914-0.195312 2.7832c-0.195312 2.49023 0.439453 4.39453 2.88086 6.78711l3.80859 3.71094c2.39258 2.39258 5.46875 2.53906 7.8125 0.195312l14.5508-14.5996c2.34375-2.34375 2.24609-5.32227-0.146484-7.71484l-3.85742-3.80859c-2.39258-2.39258-4.24805-3.17383-6.64062-2.97852l-2.88086 0.244141-3.22266-3.17383 1.2207-5.61523c0.634766-2.83203-0.146484-5.0293-3.07617-7.95898l-10.9863-10.9375c-16.6992-16.6016-38.8672-16.2109-53.3203-1.75781Zm7.4707 1.85547c12.1582-8.88672 28.6133-7.37305 39.7461 3.75977l12.1582 12.0605c1.17188 1.17188 1.36719 2.09961 1.02539 3.80859l-1.61133 7.42188 7.51953 7.42188 4.93164-0.292969c1.26953-0.0488281 1.66016 0.0488281 2.63672 1.02539l2.88086 2.88086-12.207 12.207-2.88086-2.88086c-0.976562-0.976562-1.12305-1.36719-1.07422-2.68555l0.341797-4.88281-7.4707-7.42188-7.61719 1.26953c-1.61133 0.341797-2.34375 0.195312-3.56445-0.976562l-10.0098-10.0098c-1.26953-1.17188-1.41602-2.00195-0.634766-3.85742l4.39453-10.4492c-7.8125-7.27539-17.9688-10.4004-28.125-7.42188-0.78125 0.195312-1.07422-0.439453-0.439453-0.976562Z"/>
  </g>
  <text style="stroke:none;fill:black;font-family:sans-serif;font-size:13;font-weight:bold;" transform="matrix(1 0 0 1 1289 1953)">Exporting</text>
  <text style="stroke:none;fill:black;font-family:sans-serif;font-size:13;" transform="matrix(1 0 0 1 1289 1971)">Symbols should be outlined when exporting to ensure the</text>
  <text style="stroke:none;fill:black;font-family:sans-serif;font-size:13;" transform="matrix(1 0 0 1 1289 1989)">design is preserved when submitting to Xcode.</text>
  <text id="template-version" style="stroke:none;fill:black;font-family:sans-serif;font-size:13;text-anchor:end;" transform="matrix(1 0 0 1 3036 1933)">Template v.5.0</text>
  <text style="stroke:none;fill:black;font-family:sans-serif;font-size:13;text-anchor:end;" transform="matrix(1 0 0 1 3036 1951)">Requires Xcode 15 or greater</text>
  <text id="descriptive-name" style="stroke:none;fill:black;font-family:sans-serif;font-size:13;text-anchor:end;" transform="matrix(1 0 0 1 3036 1969)">Generated from cloud.sun.rain.fill</text>
  <text style="stroke:none;fill:black;font-family:sans-serif;font-size:13;text-anchor:end;" transform="matrix(1 0 0 1 3036 1987)">Typeset at 100.0 points</text>
  <text style="stroke:none;fill:black;font-family:sans-serif;font-size:13;" transform="matrix(1 0 0 1 263 726)">Small</text>
  <text style="stroke:none;fill:black;font-family:sans-serif;font-size:13;" transform="matrix(1 0 0 1 263 1156)">Medium</text>
  <text style="stroke:none;fill:black;font-family:sans-serif;font-size:13;" transform="matrix(1 0 0 1 263 1586)">Large</text>
 </g>
 <g id="Guides">
  <g id="H-reference" style="fill:#27AAE1;stroke:none;" transform="matrix(1 0 0 1 339 696)">
   <path d="M0.993654 0L3.63775 0L29.3281-67.1323L30.0303-67.1323L30.0303-70.459L28.1226-70.459ZM11.6885-24.4799L46.9815-24.4799L46.2315-26.7285L12.4385-26.7285ZM55.1196 0L57.7637 0L30.6382-70.459L29.4326-70.459L29.4326-67.1323Z"/>
  </g>
  <line id="Baseline-S" style="fill:none;stroke:#27AAE1;opacity:1;stroke-width:0.5;" x1="263" x2="3036" y1="696" y2="696"/>
  <line id="Capline-S" style="fill:none;stroke:#27AAE1;opacity:1;stroke-width:0.5;" x1="263" x2="3036" y1="625.541" y2="625.541"/>
  <g id="H-reference" style="fill:#27AAE1;stroke:none;" transform="matrix(1 0 0 1 339 1126)">
   <path d="M0.993654 0L3.63775 0L29.3281-67.1323L30.0303-67.1323L30.0303-70.459L28.1226-70.459ZM11.6885-24.4799L46.9815-24.4799L46.2315-26.7285L12.4385-26.7285ZM55.1196 0L57.7637 0L30.6382-70.459L29.4326-70.459L29.4326-67.1323Z"/>
  </g>
  <line id="Baseline-M" style="fill:none;stroke:#27AAE1;opacity:1;stroke-width:0.5;" x1="263" x2="3036" y1="1126" y2="1126"/>
  <line id="Capline-M" style="fill:none;stroke:#27AAE1;opacity:1;stroke-width:0.5;" x1="263" x2="3036" y1="1055.54" y2="1055.54"/>
  <g id="H-reference" style="fill:#27AAE1;stroke:none;" transform="matrix(1 0 0 1 339 1556)">
   <path d="M0.993654 0L3.63775 0L29.3281-67.1323L30.0303-67.1323L30.0303-70.459L28.1226-70.459ZM11.6885-24.4799L46.9815-24.4799L46.2315-26.7285L12.4385-26.7285ZM55.1196 0L57.7637 0L30.6382-70.459L29.4326-70.459L29.4326-67.1323Z"/>
  </g>
  <line id="Baseline-L" style="fill:none;stroke:#27AAE1;opacity:1;stroke-width:0.5;" x1="263" x2="3036" y1="1556" y2="1556"/>
  <line id="Capline-L" style="fill:none;stroke:#27AAE1;opacity:1;stroke-width:0.5;" x1="263" x2="3036" y1="1485.54" y2="1485.54"/>
  <line id="left-margin-Ultralight-S" style="fill:none;stroke:#00AEEF;stroke-width:0.5;opacity:1.0;" x1="505.373" x2="505.373" y1="600.785" y2="720.121"/>
  <line id="right-margin-Ultralight-S" style="fill:none;stroke:#FF3B30;stroke-width:0.5;opacity:1.0;" x1="614.049" x2="614.049" y1="600.785" y2="720.121"/>
  <line id="left-margin-Regular-S" style="fill:none;stroke:#FF3B30;stroke-width:0.5;opacity:1.0;" x1="1393.99" x2="1393.99" y1="600.785" y2="720.121"/>
  <line id="right-margin-Regular-S" style="fill:none;stroke:#FF3B30;stroke-width:0.5;opacity:1.0;" x1="1505.7" x2="1505.7" y1="600.785" y2="720.121"/>
  <line id="left-margin-Black-S" style="fill:none;stroke:#FF3B30;stroke-width:0.5;opacity:1.0;" x1="2872.61" x2="2872.61" y1="600.785" y2="720.121"/>
  <line id="right-margin-Black-S" style="fill:none;stroke:#FF3B30;stroke-width:0.5;opacity:1.0;" x1="2994.19" x2="2994.19" y1="600.785" y2="720.121"/>
 </g>
 <g id="Symbols">
  <g id="Black-S" transform="matrix(1 0 0 1 2872.61 696)">
   <path class="SFSymbolsPreviewWireframe" d="M23.3887 11.2793L28.125 3.125C29.0527 1.51367 28.6621-0.585938 26.9531-1.5625C25.2441-2.53906 23.3887-1.9043 22.3633-0.146484L17.627 8.00781C16.6992 9.61914 17.041 11.6699 18.75 12.6465C20.459 13.623 22.4609 12.8906 23.3887 11.2793ZM35.5469 21.9727L40.2832 13.8184C41.2109 12.207 40.8203 10.1074 39.1113 9.13086C37.4023 8.1543 35.5469 8.78906 34.5215 10.5469L29.7852 18.7012C28.8574 20.3125 29.1992 22.3633 30.9082 23.3398C32.6172 24.3164 34.6191 23.584 35.5469 21.9727ZM53.8574 11.2793L58.5938 3.125C59.5215 1.51367 59.1309-0.585938 57.4219-1.5625C55.7129-2.53906 53.8574-1.9043 52.832-0.146484L48.0957 8.00781C47.168 9.61914 47.5098 11.6699 49.2188 12.6465C50.9277 13.623 52.9297 12.8906 53.8574 11.2793ZM66.0156 21.9727L70.752 13.8184C71.6797 12.207 71.2891 10.1074 69.5801 9.13086C67.8711 8.1543 66.0156 8.78906 64.9902 10.5469L60.2539 18.7012C59.3262 20.3125 59.668 22.3633 61.377 23.3398C63.0859 24.3164 65.0879 23.584 66.0156 21.9727ZM83.0078-78.5156C85.6445-78.5156 87.793-80.7617 87.793-83.3984L87.793-89.6484C87.793-92.334 85.6445-94.5312 83.0078-94.5312C80.3711-94.5312 78.2227-92.334 78.2227-89.6484L78.2227-83.3984C78.2227-80.7617 80.3711-78.5156 83.0078-78.5156ZM101.465-70.8496C103.32-68.9941 106.445-69.0918 108.301-70.9473L112.744-75.3418C114.648-77.1973 114.648-80.3223 112.793-82.1777C110.938-84.0332 107.861-83.9844 105.957-82.0801L101.514-77.7344C99.6094-75.8789 99.6094-72.7051 101.465-70.8496ZM108.984-52.4902C108.984-49.8535 111.23-47.7539 113.867-47.7539L120.117-47.7539C122.803-47.7539 125-49.8535 125-52.4902C125-55.127 122.803-57.3242 120.117-57.3242L113.867-57.3242C111.23-57.3242 108.984-55.127 108.984-52.4902ZM101.611-34.082C99.7559-32.2266 99.8535-29.1992 101.709-27.2461L106.055-22.7539C107.861-20.8496 111.084-20.8984 112.939-22.7539C114.795-24.6094 114.697-27.6855 112.842-29.541L108.447-33.9844C106.543-35.8887 103.467-35.9375 101.611-34.082ZM83.2031-26.4648C80.5664-26.4648 78.418-24.2188 78.418-21.582L78.418-15.332C78.418-12.6465 80.5664-10.4492 83.2031-10.4492C85.8398-10.4492 87.9883-12.6465 87.9883-15.332L87.9883-21.582C87.9883-24.2188 85.8398-26.4648 83.2031-26.4648ZM64.7461-34.1309C62.8906-35.9863 59.7656-35.8887 57.9102-34.0332L53.4668-29.6387C51.5625-27.7832 51.5625-24.6582 53.418-22.8027C55.2734-20.9473 58.3496-20.9961 60.2539-22.9004L64.6973-27.2461C66.6016-29.1016 66.6016-32.2754 64.7461-34.1309ZM57.2266-52.4902C57.2266-55.127 54.9805-57.3242 52.3438-57.3242L46.0938-57.3242C43.4082-57.3242 41.2109-55.127 41.2109-52.4902C41.2109-49.8535 43.4082-47.7539 46.0938-47.7539L52.3438-47.7539C54.9805-47.7539 57.2266-49.8535 57.2266-52.4902ZM64.5996-70.8984C66.4551-72.7539 66.3574-75.7812 64.502-77.7344L60.1562-82.2266C58.3496-84.1309 55.127-84.082 53.2715-82.2266C51.416-80.3711 51.5137-77.2949 53.3691-75.4395L57.7637-70.9961C59.668-69.0918 62.7441-69.043 64.5996-70.8984ZM83.1055-32.373C94.2383-32.373 103.223-41.3574 103.223-52.4902C103.223-63.623 94.2383-72.6074 83.1055-72.6074C71.9727-72.6074 62.9883-63.623 62.9883-52.4902C62.9883-41.3574 71.9727-32.373 83.1055-32.373ZM20.5566-1.02539L68.3105-1.02539C83.7402-1.02539 95.3613-13.2324 95.3613-28.9551C95.3613-44.043 85.0098-55.6152 70.5078-57.4219C65.332-64.7949 56.3965-71.7773 42.0898-71.7773C25.8301-71.7773 12.1582-60.8887 8.74023-45.6543C0.976562-41.7969-3.90625-33.8867-3.90625-24.6582C-3.90625-10.8398 6.39648-1.02539 20.5566-1.02539ZM20.5566-8.34961L68.3105-8.34961C79.5898-8.34961 88.0371-17.1875 88.0371-28.9551C88.0371-41.4062 78.9062-50.4395 66.2598-50.3418C62.5-57.3242 55.2246-64.4531 42.0898-64.4531C27.9297-64.4531 16.4062-54.1016 15.332-40.332C8.10547-38.5254 3.41797-32.373 3.41797-24.6582C3.41797-14.9414 10.3516-8.34961 20.5566-8.34961Z"/>
  </g>
  <g id="Regular-S" transform="matrix(1 0 0 1 1393.99 696)">
   <path class="SFSymbolsPreviewWireframe" d="M20.1172 6.34766L24.8535-1.85547C25.6348-3.17383 25.1953-4.63867 23.9258-5.41992C22.6074-6.15234 21.1426-5.76172 20.3613-4.44336L15.625 3.80859C14.8926 5.0293 15.2832 6.54297 16.6016 7.27539C17.8711 8.00781 19.4336 7.56836 20.1172 6.34766ZM32.0801 17.0898L36.7676 8.93555C37.5488 7.61719 37.1094 6.10352 35.8398 5.37109C34.5215 4.63867 33.0566 5.0293 32.3242 6.34766L27.5391 14.5996C26.8066 15.8203 27.1973 17.334 28.5156 18.0664C29.7852 18.7988 31.3477 18.3594 32.0801 17.0898ZM50.5371 6.29883L55.2734-1.9043C56.0547-3.17383 55.6152-4.6875 54.3457-5.46875C53.0273-6.20117 51.5625-5.81055 50.7812-4.49219L46.0449 3.75977C45.3125 4.98047 45.7031 6.49414 47.0215 7.22656C48.291 7.95898 49.8535 7.51953 50.5371 6.29883ZM62.5 17.0898L67.1875 8.88672C67.9688 7.56836 67.5293 6.10352 66.2598 5.32227C64.9414 4.58984 63.4766 4.98047 62.7441 6.29883L57.959 14.5508C57.2266 15.7715 57.6172 17.2852 58.9355 18.0176C60.2051 18.75 61.7676 18.3105 62.5 17.0898ZM75.293-74.4141C77.2949-74.4141 78.9551-76.0254 78.9551-77.9785L78.9551-85.6934C78.9551-87.6465 77.2949-89.3066 75.293-89.3066C73.3398-89.3066 71.6309-87.6465 71.6309-85.6934L71.6309-77.9785C71.6309-76.0254 73.3398-74.4141 75.293-74.4141ZM92.9688-66.9922C94.3848-65.5762 96.7285-65.5273 98.1934-66.9922L103.613-72.4121C105.029-73.7793 105.029-76.1719 103.613-77.5879C102.197-79.0039 99.8535-79.0039 98.4863-77.5879L92.9688-72.0703C91.6016-70.7031 91.6016-68.3594 92.9688-66.9922ZM100.293-49.3164C100.293-47.2656 102.002-45.6543 103.955-45.6543L111.572-45.6543C113.574-45.6543 115.186-47.2656 115.186-49.3164C115.186-51.2695 113.574-52.9297 111.572-52.9297L103.955-52.9297C102.002-52.9297 100.293-51.2695 100.293-49.3164ZM92.9688-31.5918C91.6016-30.1758 91.6016-27.832 92.9688-26.416L98.4863-20.9473C99.8535-19.5312 102.197-19.5801 103.613-20.9961C105.029-22.3633 105.029-24.707 103.613-26.123L98.1445-31.5918C96.7285-32.959 94.3848-32.959 92.9688-31.5918ZM75.293-24.2188C73.3398-24.2188 71.6309-22.5098 71.6309-20.5566L71.6309-12.8906C71.6309-10.8887 73.3398-9.22852 75.293-9.22852C77.2949-9.22852 78.9551-10.8887 78.9551-12.8906L78.9551-20.5566C78.9551-22.5098 77.2949-24.2188 75.293-24.2188ZM57.6172-31.5918C56.25-32.959 53.8574-32.959 52.4414-31.5918L47.0215-26.1719C45.6055-24.7559 45.6055-22.4121 46.9727-21.0449C48.3887-19.6289 50.7812-19.5801 52.1484-20.9961L57.5684-26.416C58.9844-27.832 58.9844-30.1758 57.6172-31.5918ZM50.293-49.3164C50.293-51.2695 48.6328-52.9297 46.6309-52.9297L39.0137-52.9297C37.0605-52.9297 35.4004-51.2695 35.4004-49.3164C35.4004-47.2656 37.0605-45.6543 39.0137-45.6543L46.6309-45.6543C48.6328-45.6543 50.293-47.2656 50.293-49.3164ZM57.5684-66.9922C58.9844-68.3105 58.9844-70.752 57.6172-72.0703L52.1484-77.5879C50.8301-78.9551 48.4863-79.0039 47.0703-77.5879C45.6543-76.1719 45.6543-73.7793 47.0215-72.4609L52.4414-66.9922C53.8574-65.5762 56.2012-65.5762 57.5684-66.9922ZM75.293-30.0781C85.791-30.0781 94.4824-38.7695 94.4824-49.3164C94.4824-59.8145 85.791-68.5059 75.293-68.5059C64.8438-68.5059 56.1523-59.8145 56.1523-49.3164C56.1523-38.7695 64.8438-30.0781 75.293-30.0781ZM20.1172-7.12891L61.377-7.12891C75-7.12891 85.6934-17.5781 85.6934-31.1035C85.6934-43.6523 76.2207-53.3691 63.4766-54.6875C58.0566-63.1348 49.0723-68.2129 38.916-68.2129C24.8535-68.2129 12.793-58.1543 10.0586-44.5801C3.36914-41.3086-0.927734-34.6191-0.927734-26.7578C-0.927734-15.2344 7.8125-7.12891 20.1172-7.12891ZM20.1172-11.9141L61.377-11.9141C72.4121-11.9141 80.9082-20.2637 80.9082-31.1035C80.9082-41.8457 72.2656-49.9512 60.6445-50.0488C56.25-58.3984 48.1934-63.4277 38.916-63.4277C26.2695-63.4277 15.5762-53.7598 14.4043-41.1621C8.00781-39.1602 3.85742-33.5938 3.85742-26.7578C3.85742-17.9688 10.4004-11.9141 20.1172-11.9141Z"/>
  </g>
  <g id="Ultralight-S" transform="matrix(1 0 0 1 505.373 696)">
   <path class="SFSymbolsPreviewWireframe" d="M17.1656 5.98438L23.2642-4.58006C23.6821-5.26268 23.5151-5.86474 23.0176-6.14648C22.5166-6.4248 21.9145-6.26123 21.542-5.62401L15.398 4.98925C15.0288 5.61962 15.147 6.2251 15.6934 6.54883C16.1909 6.82716 16.7998 6.66016 17.1656 5.98438ZM29.3101 16.6812L35.4053 6.12014C35.8233 5.43752 35.6563 4.83204 35.1587 4.55372C34.6577 4.27539 34.0557 4.43897 33.6865 5.07618L27.5391 15.6894C27.1699 16.3198 27.2881 16.9253 27.8345 17.249C28.332 17.5274 28.9409 17.3604 29.3101 16.6812ZM47.6309 5.98096L53.7295-4.58347C54.1475-5.26268 53.9805-5.86815 53.4829-6.1499C52.9819-6.42822 52.3799-6.26464 52.0073-5.62743L45.8633 4.98583C45.4941 5.61621 45.6123 6.22168 46.1587 6.54542C46.6563 6.82374 47.2652 6.65675 47.6309 5.98096ZM59.7754 16.6812L65.8706 6.11672C66.2886 5.4341 66.1216 4.83204 65.624 4.5503C65.123 4.27198 64.5664 4.43555 64.1518 5.07276L58.0044 15.686C57.6353 16.3164 57.7534 16.9219 58.2998 17.2456C58.7974 17.5239 59.4063 17.3569 59.7754 16.6812ZM74.7935-74.8682C75.3423-74.8682 75.8672-75.3897 75.8672-75.8897L75.8672-87.0557C75.8672-87.6011 75.3423-88.0352 74.7935-88.0352C74.2026-88.0352 73.7197-87.6011 73.7197-87.0557L73.7197-75.8897C73.7197-75.3897 74.2026-74.8682 74.7935-74.8682ZM92.4692-67.4917C92.8408-67.1201 93.5044-67.1167 93.9248-67.4917L101.797-75.3637C102.259-75.8227 102.214-76.4443 101.797-76.8613C101.425-77.2329 100.762-77.2783 100.348-76.8613L92.4692-68.9824C92.0557-68.5689 92.0557-67.9053 92.4692-67.4917ZM99.7481-49.8159C99.7481-49.2637 100.186-48.833 100.731-48.833L111.936-48.833C112.575-48.833 113.006-49.2637 113.006-49.8159C113.006-50.4067 112.575-50.8408 111.936-50.8408L100.731-50.8408C100.186-50.8408 99.7481-50.4067 99.7481-49.8159ZM92.4692-32.2275C92.0557-31.8559 92.0557-31.1924 92.4692-30.7754L100.348-22.8999C100.762-22.4375 101.425-22.4863 101.797-22.9033C102.214-23.2715 102.259-23.9351 101.797-24.3521L93.9214-32.2275C93.5044-32.6411 92.8408-32.6411 92.4692-32.2275ZM74.7935-24.8545C74.2026-24.8545 73.7197-24.3716 73.7197-23.8716L73.7197-12.709C73.7197-12.1601 74.2026-11.6806 74.7935-11.6806C75.3423-11.6806 75.8672-12.1601 75.8672-12.709L75.8672-23.8716C75.8672-24.3716 75.3423-24.8545 74.7935-24.8545ZM57.1177-32.2275C56.7041-32.6411 56.0371-32.6411 55.6655-32.2275L47.748-24.3555C47.331-23.9385 47.3765-23.2749 47.7446-22.9067C48.1616-22.4897 48.7832-22.4409 49.2422-22.9033L57.1143-30.7754C57.4859-31.1924 57.4859-31.8559 57.1177-32.2275ZM49.7481-49.8159C49.7481-50.4067 49.2685-50.8408 48.7197-50.8408L37.5151-50.8408C36.9243-50.8408 36.4902-50.4067 36.4902-49.8159C36.4902-49.2637 36.9243-48.833 37.5151-48.833L48.7197-48.833C49.2685-48.833 49.7481-49.2637 49.7481-49.8159ZM57.1143-67.4917C57.4859-67.9019 57.4859-68.5723 57.1177-68.9824L49.2422-76.8613C48.7866-77.2749 48.1685-77.2329 47.7515-76.8613C47.3799-76.4443 47.3345-75.8227 47.748-75.3672L55.6655-67.4917C56.0371-67.1201 56.7007-67.1201 57.1143-67.4917ZM74.7481-32.0307C84.565-32.0307 92.5752-40.041 92.5752-49.8613C92.5752-59.7236 84.565-67.7339 74.7481-67.7339C64.8892-67.7339 56.8789-59.7236 56.8789-49.8613C56.8789-40.041 64.8892-32.0307 74.7481-32.0307ZM18.9365-9.71726L61.0137-9.71726C72.9111-9.71726 82.333-18.8042 82.333-30.2861C82.333-41.291 73.6323-49.6455 62.0234-50.5098C57.1484-58.9571 49.2539-64.7163 38.5981-64.7163C25.6709-64.7163 15.018-54.7032 12.9194-41.7647C6.45701-39.356 1.34276-33.7564 1.34276-25.9404C1.34276-17.1416 8.08496-9.71726 18.9365-9.71726ZM18.9365-12.7314L61.0137-12.7314C71.2769-12.7314 79.3189-20.4907 79.3189-30.2861C79.3189-40.0747 71.085-47.499 60.2358-47.5513C55.8413-56.0371 48.602-61.7022 38.5981-61.7022C26.6328-61.7022 16.8022-51.898 15.7212-39.4365C9.41552-37.7979 4.35693-32.958 4.35693-25.9404C4.35693-18.6953 9.85547-12.7314 18.9365-12.7314Z"/>
  </g>
 </g>
</svg>
