<?xml version="1.0" encoding="UTF-8"?>
<!--Generator: Apple Native CoreSVG 232.5-->
<!DOCTYPE svg
PUBLIC "-//W3C//DTD SVG 1.1//EN"
       "http://www.w3.org/Graphics/SVG/1.1/DTD/svg11.dtd">
<svg version="1.1" xmlns="http://www.w3.org/2000/svg" xmlns:xlink="http://www.w3.org/1999/xlink" width="3300" height="2200">
 <!--glyph: "uni1009D3.medium", point size: 100.0, font version: "19.2d2e1", template writer version: "128"-->
 <style>.SFSymbolsPreviewWireframe {fill:none;opacity:1.0;stroke:black;stroke-width:0.5}
</style>
 <g id="Notes">
  <rect height="2200" id="artboard" style="fill:white;opacity:1" width="3300" x="0" y="0"/>
  <line style="fill:none;stroke:black;opacity:1;stroke-width:0.5;" x1="263" x2="3036" y1="292" y2="292"/>
  <text style="stroke:none;fill:black;font-family:sans-serif;font-size:13;font-weight:bold;" transform="matrix(1 0 0 1 263 322)">Weight/Scale Variations</text>
  <text style="stroke:none;fill:black;font-family:sans-serif;font-size:13;text-anchor:middle;" transform="matrix(1 0 0 1 559.711 322)">Ultralight</text>
  <text style="stroke:none;fill:black;font-family:sans-serif;font-size:13;text-anchor:middle;" transform="matrix(1 0 0 1 856.422 322)">Thin</text>
  <text style="stroke:none;fill:black;font-family:sans-serif;font-size:13;text-anchor:middle;" transform="matrix(1 0 0 1 1153.13 322)">Light</text>
  <text style="stroke:none;fill:black;font-family:sans-serif;font-size:13;text-anchor:middle;" transform="matrix(1 0 0 1 1449.84 322)">Regular</text>
  <text style="stroke:none;fill:black;font-family:sans-serif;font-size:13;text-anchor:middle;" transform="matrix(1 0 0 1 1746.56 322)">Medium</text>
  <text style="stroke:none;fill:black;font-family:sans-serif;font-size:13;text-anchor:middle;" transform="matrix(1 0 0 1 2043.27 322)">Semibold</text>
  <text style="stroke:none;fill:black;font-family:sans-serif;font-size:13;text-anchor:middle;" transform="matrix(1 0 0 1 2339.98 322)">Bold</text>
  <text style="stroke:none;fill:black;font-family:sans-serif;font-size:13;text-anchor:middle;" transform="matrix(1 0 0 1 2636.69 322)">Heavy</text>
  <text style="stroke:none;fill:black;font-family:sans-serif;font-size:13;text-anchor:middle;" transform="matrix(1 0 0 1 2933.4 322)">Black</text>
  <line style="fill:none;stroke:black;opacity:1;stroke-width:0.5;" x1="263" x2="3036" y1="1903" y2="1903"/>
  <g transform="matrix(0.2 0 0 0.2 263 1933)">
   <path d="m46.2402 4.15039c21.5332 0 39.4531-17.8711 39.4531-39.4043s-17.9688-39.4043-39.502-39.4043c-21.4844 0-39.3555 17.8711-39.3555 39.4043s17.9199 39.4043 39.4043 39.4043Zm0-7.42188c-17.7246 0-31.8848-14.209-31.8848-31.9824s14.1113-31.9824 31.8359-31.9824c17.7734 0 32.0312 14.209 32.0312 31.9824s-14.209 31.9824-31.9824 31.9824Zm-17.9688-31.9824c0 2.14844 1.51367 3.61328 3.75977 3.61328h10.498v10.5957c0 2.19727 1.46484 3.71094 3.61328 3.71094 2.24609 0 3.71094-1.51367 3.71094-3.71094v-10.5957h10.5957c2.19727 0 3.71094-1.46484 3.71094-3.61328 0-2.19727-1.51367-3.71094-3.71094-3.71094h-10.5957v-10.5469c0-2.24609-1.46484-3.75977-3.71094-3.75977-2.14844 0-3.61328 1.51367-3.61328 3.75977v10.5469h-10.498c-2.24609 0-3.75977 1.51367-3.75977 3.71094Z"/>
  </g>
  <g transform="matrix(0.2 0 0 0.2 281.506 1933)">
   <path d="m58.5449 14.5508c27.2461 0 49.8047-22.6074 49.8047-49.8047 0-27.2461-22.6074-49.8047-49.8535-49.8047-27.1973 0-49.7559 22.5586-49.7559 49.8047 0 27.1973 22.6074 49.8047 49.8047 49.8047Zm0-8.30078c-23.0469 0-41.4551-18.457-41.4551-41.5039s18.3594-41.5039 41.4062-41.5039 41.5527 18.457 41.5527 41.5039-18.457 41.5039-41.5039 41.5039Zm-22.6562-41.5039c0 2.39258 1.66016 4.00391 4.15039 4.00391h14.3555v14.4043c0 2.44141 1.66016 4.15039 4.05273 4.15039 2.44141 0 4.15039-1.66016 4.15039-4.15039v-14.4043h14.4043c2.44141 0 4.15039-1.61133 4.15039-4.00391 0-2.44141-1.70898-4.15039-4.15039-4.15039h-14.4043v-14.3555c0-2.49023-1.70898-4.19922-4.15039-4.19922-2.39258 0-4.05273 1.70898-4.05273 4.19922v14.3555h-14.3555c-2.49023 0-4.15039 1.70898-4.15039 4.15039Z"/>
  </g>
  <g transform="matrix(0.2 0 0 0.2 304.924 1933)">
   <path d="m74.8535 28.3203c34.8145 0 63.623-28.8086 63.623-63.5742 0-34.8145-28.8574-63.623-63.6719-63.623-34.7656 0-63.5254 28.8086-63.5254 63.623 0 34.7656 28.8086 63.5742 63.5742 63.5742Zm0-9.08203c-30.1758 0-54.4434-24.3164-54.4434-54.4922 0-30.2246 24.2188-54.4922 54.3945-54.4922 30.2246 0 54.541 24.2676 54.541 54.4922 0 30.1758-24.2676 54.4922-54.4922 54.4922Zm-28.8574-54.4922c0 2.58789 1.85547 4.39453 4.58984 4.39453h19.7266v19.7754c0 2.68555 1.85547 4.58984 4.44336 4.58984 2.68555 0 4.54102-1.85547 4.54102-4.58984v-19.7754h19.7754c2.68555 0 4.58984-1.80664 4.58984-4.39453 0-2.73438-1.85547-4.58984-4.58984-4.58984h-19.7754v-19.7266c0-2.73438-1.85547-4.63867-4.54102-4.63867-2.58789 0-4.44336 1.9043-4.44336 4.63867v19.7266h-19.7266c-2.73438 0-4.58984 1.85547-4.58984 4.58984Z"/>
  </g>
  <text style="stroke:none;fill:black;font-family:sans-serif;font-size:13;font-weight:bold;" transform="matrix(1 0 0 1 263 1953)">Design Variations</text>
  <text style="stroke:none;fill:black;font-family:sans-serif;font-size:13;" transform="matrix(1 0 0 1 263 1971)">Symbols are supported in up to nine weights and three scales.</text>
  <text style="stroke:none;fill:black;font-family:sans-serif;font-size:13;" transform="matrix(1 0 0 1 263 1989)">For optimal layout with text and other symbols, vertically align</text>
  <text style="stroke:none;fill:black;font-family:sans-serif;font-size:13;" transform="matrix(1 0 0 1 263 2007)">symbols with the adjacent text.</text>
  <line style="fill:none;stroke:#00AEEF;stroke-width:0.5;opacity:1.0;" x1="776" x2="776" y1="1919" y2="1933"/>
  <g transform="matrix(0.2 0 0 0.2 776 1933)">
   <path d="m16.5527 0.78125c2.58789 0 3.85742-0.976562 4.78516-3.71094l6.29883-17.2363h28.8086l6.29883 17.2363c0.927734 2.73438 2.19727 3.71094 4.73633 3.71094 2.58789 0 4.24805-1.5625 4.24805-4.00391 0-0.830078-0.146484-1.61133-0.537109-2.63672l-22.9004-60.9863c-1.12305-2.97852-3.125-4.49219-6.25-4.49219-3.02734 0-5.07812 1.46484-6.15234 4.44336l-22.9004 61.084c-0.390625 1.02539-0.537109 1.80664-0.537109 2.63672 0 2.44141 1.5625 3.95508 4.10156 3.95508Zm13.4766-28.3691 11.8652-32.8613h0.244141l11.8652 32.8613Z"/>
  </g>
  <line style="fill:none;stroke:#00AEEF;stroke-width:0.5;opacity:1.0;" x1="792.836" x2="792.836" y1="1919" y2="1933"/>
  <text style="stroke:none;fill:black;font-family:sans-serif;font-size:13;font-weight:bold;" transform="matrix(1 0 0 1 776 1953)">Margins</text>
  <text style="stroke:none;fill:black;font-family:sans-serif;font-size:13;" transform="matrix(1 0 0 1 776 1971)">Leading and trailing margins on the left and right side of each symbol</text>
  <text style="stroke:none;fill:black;font-family:sans-serif;font-size:13;" transform="matrix(1 0 0 1 776 1989)">can be adjusted by modifying the x-location of the margin guidelines.</text>
  <text style="stroke:none;fill:black;font-family:sans-serif;font-size:13;" transform="matrix(1 0 0 1 776 2007)">Modifications are automatically applied proportionally to all</text>
  <text style="stroke:none;fill:black;font-family:sans-serif;font-size:13;" transform="matrix(1 0 0 1 776 2025)">scales and weights.</text>
  <g transform="matrix(0.2 0 0 0.2 1289 1933)">
   <path d="m14.209 9.32617 8.49609 8.54492c4.29688 4.3457 9.22852 4.05273 13.8672-1.07422l53.4668-58.9355-4.83398-4.88281-53.0762 58.3984c-1.75781 2.00195-3.41797 2.49023-5.76172 0.146484l-5.85938-5.81055c-2.34375-2.29492-1.80664-4.00391 0.195312-5.81055l57.373-54.0039-4.88281-4.83398-57.959 54.4434c-4.93164 4.58984-5.32227 9.47266-1.02539 13.8184Zm32.0801-90.9668c-2.09961 2.05078-2.24609 4.93164-1.07422 6.88477 1.17188 1.80664 3.4668 2.97852 6.68945 2.14844 7.32422-1.70898 14.9414-2.00195 22.0703 2.68555l-2.92969 7.27539c-1.70898 4.15039-0.830078 7.08008 1.85547 9.81445l11.4746 11.5723c2.44141 2.44141 4.49219 2.53906 7.32422 2.05078l5.32227-0.976562 3.32031 3.36914-0.195312 2.7832c-0.195312 2.49023 0.439453 4.39453 2.88086 6.78711l3.80859 3.71094c2.39258 2.39258 5.46875 2.53906 7.8125 0.195312l14.5508-14.5996c2.34375-2.34375 2.24609-5.32227-0.146484-7.71484l-3.85742-3.80859c-2.39258-2.39258-4.24805-3.17383-6.64062-2.97852l-2.88086 0.244141-3.22266-3.17383 1.2207-5.61523c0.634766-2.83203-0.146484-5.0293-3.07617-7.95898l-10.9863-10.9375c-16.6992-16.6016-38.8672-16.2109-53.3203-1.75781Zm7.4707 1.85547c12.1582-8.88672 28.6133-7.37305 39.7461 3.75977l12.1582 12.0605c1.17188 1.17188 1.36719 2.09961 1.02539 3.80859l-1.61133 7.42188 7.51953 7.42188 4.93164-0.292969c1.26953-0.0488281 1.66016 0.0488281 2.63672 1.02539l2.88086 2.88086-12.207 12.207-2.88086-2.88086c-0.976562-0.976562-1.12305-1.36719-1.07422-2.68555l0.341797-4.88281-7.4707-7.42188-7.61719 1.26953c-1.61133 0.341797-2.34375 0.195312-3.56445-0.976562l-10.0098-10.0098c-1.26953-1.17188-1.41602-2.00195-0.634766-3.85742l4.39453-10.4492c-7.8125-7.27539-17.9688-10.4004-28.125-7.42188-0.78125 0.195312-1.07422-0.439453-0.439453-0.976562Z"/>
  </g>
  <text style="stroke:none;fill:black;font-family:sans-serif;font-size:13;font-weight:bold;" transform="matrix(1 0 0 1 1289 1953)">Exporting</text>
  <text style="stroke:none;fill:black;font-family:sans-serif;font-size:13;" transform="matrix(1 0 0 1 1289 1971)">Symbols should be outlined when exporting to ensure the</text>
  <text style="stroke:none;fill:black;font-family:sans-serif;font-size:13;" transform="matrix(1 0 0 1 1289 1989)">design is preserved when submitting to Xcode.</text>
  <text id="template-version" style="stroke:none;fill:black;font-family:sans-serif;font-size:13;text-anchor:end;" transform="matrix(1 0 0 1 3036 1933)">Template v.5.0</text>
  <text style="stroke:none;fill:black;font-family:sans-serif;font-size:13;text-anchor:end;" transform="matrix(1 0 0 1 3036 1951)">Requires Xcode 15 or greater</text>
  <text id="descriptive-name" style="stroke:none;fill:black;font-family:sans-serif;font-size:13;text-anchor:end;" transform="matrix(1 0 0 1 3036 1969)">Generated from cpu.fill</text>
  <text style="stroke:none;fill:black;font-family:sans-serif;font-size:13;text-anchor:end;" transform="matrix(1 0 0 1 3036 1987)">Typeset at 100.0 points</text>
  <text style="stroke:none;fill:black;font-family:sans-serif;font-size:13;" transform="matrix(1 0 0 1 263 726)">Small</text>
  <text style="stroke:none;fill:black;font-family:sans-serif;font-size:13;" transform="matrix(1 0 0 1 263 1156)">Medium</text>
  <text style="stroke:none;fill:black;font-family:sans-serif;font-size:13;" transform="matrix(1 0 0 1 263 1586)">Large</text>
 </g>
 <g id="Guides">
  <g id="H-reference" style="fill:#27AAE1;stroke:none;" transform="matrix(1 0 0 1 339 696)">
   <path d="M0.993654 0L3.63775 0L29.3281-67.1323L30.0303-67.1323L30.0303-70.459L28.1226-70.459ZM11.6885-24.4799L46.9815-24.4799L46.2315-26.7285L12.4385-26.7285ZM55.1196 0L57.7637 0L30.6382-70.459L29.4326-70.459L29.4326-67.1323Z"/>
  </g>
  <line id="Baseline-S" style="fill:none;stroke:#27AAE1;opacity:1;stroke-width:0.5;" x1="263" x2="3036" y1="696" y2="696"/>
  <line id="Capline-S" style="fill:none;stroke:#27AAE1;opacity:1;stroke-width:0.5;" x1="263" x2="3036" y1="625.541" y2="625.541"/>
  <g id="H-reference" style="fill:#27AAE1;stroke:none;" transform="matrix(1 0 0 1 339 1126)">
   <path d="M0.993654 0L3.63775 0L29.3281-67.1323L30.0303-67.1323L30.0303-70.459L28.1226-70.459ZM11.6885-24.4799L46.9815-24.4799L46.2315-26.7285L12.4385-26.7285ZM55.1196 0L57.7637 0L30.6382-70.459L29.4326-70.459L29.4326-67.1323Z"/>
  </g>
  <line id="Baseline-M" style="fill:none;stroke:#27AAE1;opacity:1;stroke-width:0.5;" x1="263" x2="3036" y1="1126" y2="1126"/>
  <line id="Capline-M" style="fill:none;stroke:#27AAE1;opacity:1;stroke-width:0.5;" x1="263" x2="3036" y1="1055.54" y2="1055.54"/>
  <g id="H-reference" style="fill:#27AAE1;stroke:none;" transform="matrix(1 0 0 1 339 1556)">
   <path d="M0.993654 0L3.63775 0L29.3281-67.1323L30.0303-67.1323L30.0303-70.459L28.1226-70.459ZM11.6885-24.4799L46.9815-24.4799L46.2315-26.7285L12.4385-26.7285ZM55.1196 0L57.7637 0L30.6382-70.459L29.4326-70.459L29.4326-67.1323Z"/>
  </g>
  <line id="Baseline-L" style="fill:none;stroke:#27AAE1;opacity:1;stroke-width:0.5;" x1="263" x2="3036" y1="1556" y2="1556"/>
  <line id="Capline-L" style="fill:none;stroke:#27AAE1;opacity:1;stroke-width:0.5;" x1="263" x2="3036" y1="1485.54" y2="1485.54"/>
  <line id="left-margin-Ultralight-S" style="fill:none;stroke:#00AEEF;stroke-width:0.5;opacity:1.0;" x1="515.224" x2="515.224" y1="600.785" y2="720.121"/>
  <line id="right-margin-Ultralight-S" style="fill:none;stroke:#00AEEF;stroke-width:0.5;opacity:1.0;" x1="604.199" x2="604.199" y1="600.785" y2="720.121"/>
  <line id="left-margin-Regular-S" style="fill:none;stroke:#00AEEF;stroke-width:0.5;opacity:1.0;" x1="1400.75" x2="1400.75" y1="600.785" y2="720.121"/>
  <line id="right-margin-Regular-S" style="fill:none;stroke:#00AEEF;stroke-width:0.5;opacity:1.0;" x1="1498.94" x2="1498.94" y1="600.785" y2="720.121"/>
  <line id="left-margin-Black-S" style="fill:none;stroke:#00AEEF;stroke-width:0.5;opacity:1.0;" x1="2882.57" x2="2882.57" y1="600.785" y2="720.121"/>
  <line id="right-margin-Black-S" style="fill:none;stroke:#00AEEF;stroke-width:0.5;opacity:1.0;" x1="2984.23" x2="2984.23" y1="600.785" y2="720.121"/>
 </g>
 <g id="Symbols">
  <g id="Black-S" transform="matrix(1 0 0 1 2882.57 696)">
   <path class="SFSymbolsPreviewWireframe" d="M9.76562-22.0703C9.76562-19.5801 11.8164-17.5293 14.3066-17.5293L17.5781-17.5293L17.5781-6.34766C17.5781-3.71094 19.3359-1.95312 21.9727-1.95312L33.1055-1.95312L33.1055 1.31836C33.1055 3.80859 35.1562 5.85938 37.6465 5.85938C40.1367 5.85938 42.1875 3.80859 42.1875 1.31836L42.1875-1.95312L46.2891-1.95312L46.2891 1.31836C46.2891 3.80859 48.3398 5.85938 50.8301 5.85938C53.3203 5.85938 55.3711 3.80859 55.3711 1.31836L55.3711-1.95312L59.4727-1.95312L59.4727 1.31836C59.4727 3.80859 61.5234 5.85938 64.0137 5.85938C66.5039 5.85938 68.5547 3.80859 68.5547 1.31836L68.5547-1.95312L79.6875-1.95312C82.3242-1.95312 84.082-3.71094 84.082-6.34766L84.082-17.5293L87.3535-17.5293C89.8438-17.5293 91.8945-19.5801 91.8945-22.0703C91.8945-24.5605 89.8438-26.6113 87.3535-26.6113L84.082-26.6113L84.082-30.7129L87.3535-30.7129C89.8438-30.7129 91.8945-32.7637 91.8945-35.2539C91.8945-37.7441 89.8438-39.7949 87.3535-39.7949L84.082-39.7949L84.082-43.8965L87.3535-43.8965C89.8438-43.8965 91.8945-45.9473 91.8945-48.4375C91.8945-50.9277 89.8438-52.9785 87.3535-52.9785L84.082-52.9785L84.082-64.0625C84.082-66.6992 82.3242-68.457 79.6875-68.457L68.5547-68.457L68.5547-71.7285C68.5547-74.2188 66.5039-76.2695 64.0137-76.2695C61.5234-76.2695 59.4727-74.2188 59.4727-71.7285L59.4727-68.457L55.3711-68.457L55.3711-71.7285C55.3711-74.2188 53.3203-76.2695 50.8301-76.2695C48.3398-76.2695 46.2891-74.2188 46.2891-71.7285L46.2891-68.457L42.1875-68.457L42.1875-71.7285C42.1875-74.2188 40.1367-76.2695 37.6465-76.2695C35.1562-76.2695 33.1055-74.2188 33.1055-71.7285L33.1055-68.457L21.9727-68.457C19.3359-68.457 17.5781-66.6992 17.5781-64.0625L17.5781-52.9785L14.3066-52.9785C11.8164-52.9785 9.76562-50.9277 9.76562-48.4375C9.76562-45.9473 11.8164-43.8965 14.3066-43.8965L17.5781-43.8965L17.5781-39.7949L14.3066-39.7949C11.8164-39.7949 9.76562-37.7441 9.76562-35.2539C9.76562-32.7637 11.8164-30.7129 14.3066-30.7129L17.5781-30.7129L17.5781-26.6113L14.3066-26.6113C11.8164-26.6113 9.76562-24.5605 9.76562-22.0703ZM38.1348-19.7754C36.4258-19.7754 35.3027-20.8984 35.3027-22.6074L35.3027-47.9004C35.3027-49.6094 36.4258-50.7324 38.1348-50.7324L63.5254-50.7324C65.2344-50.7324 66.3574-49.6094 66.3574-47.9004L66.3574-22.6074C66.3574-20.8984 65.2344-19.7754 63.5254-19.7754ZM44.4824-29.6387C44.4824-29.248 44.7754-28.9551 45.166-28.9551L56.4941-28.9551C56.8848-28.9551 57.1777-29.248 57.1777-29.6387L57.1777-40.8691C57.1777-41.2598 56.8848-41.5527 56.4941-41.5527L45.166-41.5527C44.7754-41.5527 44.4824-41.2598 44.4824-40.8691Z"/>
  </g>
  <g id="Regular-S" transform="matrix(1 0 0 1 1400.75 696)">
   <path class="SFSymbolsPreviewWireframe" d="M9.76562-22.7539C9.76562-20.6055 11.1816-19.2383 13.2812-19.2383L16.9922-19.2383L16.9922-6.44531C16.9922-4.44336 18.3594-3.125 20.3613-3.125L33.1055-3.125L33.1055 0.585938C33.1055 2.73438 34.5215 4.15039 36.6211 4.15039C38.7207 4.15039 40.1367 2.73438 40.1367 0.585938L40.1367-3.125L45.5566-3.125L45.5566 0.585938C45.5566 2.73438 46.9727 4.15039 49.0723 4.15039C51.2207 4.15039 52.6367 2.73438 52.6367 0.585938L52.6367-3.125L58.0566-3.125L58.0566 0.585938C58.0566 2.73438 59.4727 4.15039 61.5723 4.15039C63.6719 4.15039 65.0879 2.73438 65.0879 0.585938L65.0879-3.125L77.832-3.125C79.834-3.125 81.2012-4.44336 81.2012-6.44531L81.2012-19.2871L84.9121-19.2871C87.0117-19.2871 88.4277-20.6543 88.4277-22.8027C88.4277-24.9023 87.0117-26.3184 84.9121-26.3184L81.2012-26.3184L81.2012-31.7383L84.9121-31.7383C87.0117-31.7383 88.4277-33.1543 88.4277-35.2539C88.4277-37.3535 87.0117-38.7695 84.9121-38.7695L81.2012-38.7695L81.2012-44.1895L84.9121-44.1895C87.0117-44.1895 88.4277-45.6055 88.4277-47.7051C88.4277-49.8535 87.0117-51.2207 84.9121-51.2207L81.2012-51.2207L81.2012-63.9648C81.2012-65.9668 79.834-67.2852 77.832-67.2852L65.0879-67.2852L65.0879-70.9961C65.0879-73.1445 63.6719-74.5117 61.5723-74.5117C59.4727-74.5117 58.0566-73.1445 58.0566-70.9961L58.0566-67.2852L52.6367-67.2852L52.6367-70.9961C52.6367-73.1445 51.2207-74.5117 49.0723-74.5117C46.9727-74.5117 45.5566-73.1445 45.5566-70.9961L45.5566-67.2852L40.1367-67.2852L40.1367-70.9961C40.1367-73.1445 38.7207-74.5117 36.6211-74.5117C34.5215-74.5117 33.1055-73.1445 33.1055-70.9961L33.1055-67.2852L20.3613-67.2852C18.3594-67.2852 16.9922-65.9668 16.9922-63.9648L16.9922-51.2207L13.2812-51.2207C11.1816-51.2207 9.76562-49.8047 9.76562-47.6562C9.76562-45.5566 11.1816-44.1406 13.2812-44.1406L16.9922-44.1406L16.9922-38.7207L13.2812-38.7207C11.1816-38.7207 9.76562-37.3047 9.76562-35.2051C9.76562-33.1055 11.1816-31.6895 13.2812-31.6895L16.9922-31.6895L16.9922-26.2695L13.2812-26.2695C11.1816-26.2695 9.76562-24.8535 9.76562-22.7539ZM34.9609-17.7734C32.7148-17.7734 31.6895-18.8477 31.6895-21.0938L31.6895-49.2676C31.6895-51.5625 32.7148-52.6367 34.9609-52.6367L63.2324-52.6367C65.4785-52.6367 66.5039-51.5625 66.5039-49.2676L66.5039-21.0938C66.5039-18.8477 65.4785-17.7734 63.2324-17.7734ZM37.5488-24.707C37.5488-24.0723 37.9395-23.6816 38.5742-23.6816L59.6191-23.6816C60.2539-23.6816 60.6445-24.0723 60.6445-24.707L60.6445-45.7031C60.6445-46.3379 60.2539-46.7285 59.6191-46.7285L38.5742-46.7285C37.9395-46.7285 37.5488-46.3379 37.5488-45.7031Z"/>
  </g>
  <g id="Ultralight-S" transform="matrix(1 0 0 1 515.224 696)">
   <path class="SFSymbolsPreviewWireframe" d="M9.76562-21.6187C9.76562-21.0142 10.2734-20.5552 10.8745-20.5552L15.6753-20.5552L15.6753-8.17088C15.6753-7.03172 16.3613-6.39451 17.5005-6.39451L29.7451-6.39451L29.7451-1.54832C29.7451-0.943819 30.253-0.435999 30.854-0.435999C31.5005-0.435999 31.963-0.943819 31.963-1.54832L31.963-6.39451L43.377-6.39451L43.377-1.54832C43.377-0.943819 43.8848-0.435999 44.4859-0.435999C45.0904-0.435999 45.5982-0.943819 45.5982-1.54832L45.5982-6.39451L56.9668-6.39451L56.9668-1.54832C56.9668-0.943819 57.4746-0.435999 58.0757-0.435999C58.7222-0.435999 59.1846-0.943819 59.1846-1.54832L59.1846-6.39451L71.4747-6.39451C72.6138-6.39451 73.2545-7.03172 73.2545-8.17088L73.2545-20.5586L78.1006-20.5586C78.7017-20.5586 79.2095-21.0176 79.2095-21.6221C79.2095-22.2686 78.7017-22.731 78.1006-22.731L73.2545-22.731L73.2545-34.145L78.1006-34.145C78.7017-34.145 79.2095-34.6528 79.2095-35.2539C79.2095-35.855 78.7017-36.3628 78.1006-36.3628L73.2545-36.3628L73.2545-47.7768L78.1006-47.7768C78.7017-47.7768 79.2095-48.2392 79.2095-48.8857C79.2095-49.4902 78.7017-49.9492 78.1006-49.9492L73.2545-49.9492L73.2545-62.1485C73.2545-63.2876 72.6138-63.9248 71.4747-63.9248L59.1846-63.9248L59.1846-68.771C59.1846-69.3755 58.7222-69.8799 58.0757-69.8799C57.4746-69.8799 56.9668-69.3755 56.9668-68.771L56.9668-63.9248L45.5982-63.9248L45.5982-68.771C45.5982-69.3755 45.0904-69.8799 44.4859-69.8799C43.8848-69.8799 43.377-69.3755 43.377-68.771L43.377-63.9248L31.963-63.9248L31.963-68.771C31.963-69.3755 31.5005-69.8799 30.854-69.8799C30.253-69.8799 29.7451-69.3755 29.7451-68.771L29.7451-63.9248L17.5005-63.9248C16.3613-63.9248 15.6753-63.2876 15.6753-62.1485L15.6753-49.9492L10.8745-49.9492C10.2734-49.9492 9.76562-49.4868 9.76562-48.8823C9.76562-48.2358 10.2734-47.7734 10.8745-47.7734L15.6753-47.7734L15.6753-36.3594L10.8745-36.3594C10.2734-36.3594 9.76562-35.8516 9.76562-35.2505C9.76562-34.6494 10.2734-34.1416 10.8745-34.1416L15.6753-34.1416L15.6753-22.7276L10.8745-22.7276C10.2734-22.7276 9.76562-22.2652 9.76562-21.6187ZM27.4683-16.3657C26.3575-16.3657 25.6954-17.0313 25.6954-18.1875L25.6954-52.1284C25.6954-53.2881 26.3575-53.9536 27.4683-53.9536L61.4614-53.9536C62.6177-53.9536 63.2344-53.2881 63.2344-52.1284L63.2344-18.1875C63.2344-17.0313 62.6177-16.3657 61.4614-16.3657ZM27.8311-19.2579C27.8311-18.8047 28.1309-18.5503 28.5841-18.5503L60.3457-18.5503C60.7988-18.5503 61.0986-18.8047 61.0986-19.2579L61.0986-51.0615C61.0986-51.4692 60.7988-51.769 60.3457-51.769L28.5841-51.769C28.1309-51.769 27.8311-51.4692 27.8311-51.0615Z"/>
  </g>
 </g>
</svg>
