<?xml version="1.0" encoding="UTF-8"?>
<!--Generator: Apple Native CoreSVG 232.5-->
<!DOCTYPE svg
PUBLIC "-//W3C//DTD SVG 1.1//EN"
       "http://www.w3.org/Graphics/SVG/1.1/DTD/svg11.dtd">
<svg version="1.1" xmlns="http://www.w3.org/2000/svg" xmlns:xlink="http://www.w3.org/1999/xlink" width="3300" height="2200">
 <!--glyph: "uni101BC0.medium", point size: 100.0, font version: "19.2d2e1", template writer version: "128"-->
 <style>.SFSymbolsPreviewWireframe {fill:none;opacity:1.0;stroke:black;stroke-width:0.5}
</style>
 <g id="Notes">
  <rect height="2200" id="artboard" style="fill:white;opacity:1" width="3300" x="0" y="0"/>
  <line style="fill:none;stroke:black;opacity:1;stroke-width:0.5;" x1="263" x2="3036" y1="292" y2="292"/>
  <text style="stroke:none;fill:black;font-family:sans-serif;font-size:13;font-weight:bold;" transform="matrix(1 0 0 1 263 322)">Weight/Scale Variations</text>
  <text style="stroke:none;fill:black;font-family:sans-serif;font-size:13;text-anchor:middle;" transform="matrix(1 0 0 1 559.711 322)">Ultralight</text>
  <text style="stroke:none;fill:black;font-family:sans-serif;font-size:13;text-anchor:middle;" transform="matrix(1 0 0 1 856.422 322)">Thin</text>
  <text style="stroke:none;fill:black;font-family:sans-serif;font-size:13;text-anchor:middle;" transform="matrix(1 0 0 1 1153.13 322)">Light</text>
  <text style="stroke:none;fill:black;font-family:sans-serif;font-size:13;text-anchor:middle;" transform="matrix(1 0 0 1 1449.84 322)">Regular</text>
  <text style="stroke:none;fill:black;font-family:sans-serif;font-size:13;text-anchor:middle;" transform="matrix(1 0 0 1 1746.56 322)">Medium</text>
  <text style="stroke:none;fill:black;font-family:sans-serif;font-size:13;text-anchor:middle;" transform="matrix(1 0 0 1 2043.27 322)">Semibold</text>
  <text style="stroke:none;fill:black;font-family:sans-serif;font-size:13;text-anchor:middle;" transform="matrix(1 0 0 1 2339.98 322)">Bold</text>
  <text style="stroke:none;fill:black;font-family:sans-serif;font-size:13;text-anchor:middle;" transform="matrix(1 0 0 1 2636.69 322)">Heavy</text>
  <text style="stroke:none;fill:black;font-family:sans-serif;font-size:13;text-anchor:middle;" transform="matrix(1 0 0 1 2933.4 322)">Black</text>
  <line style="fill:none;stroke:black;opacity:1;stroke-width:0.5;" x1="263" x2="3036" y1="1903" y2="1903"/>
  <g transform="matrix(0.2 0 0 0.2 263 1933)">
   <path d="m46.2402 4.15039c21.5332 0 39.4531-17.8711 39.4531-39.4043s-17.9688-39.4043-39.502-39.4043c-21.4844 0-39.3555 17.8711-39.3555 39.4043s17.9199 39.4043 39.4043 39.4043Zm0-7.42188c-17.7246 0-31.8848-14.209-31.8848-31.9824s14.1113-31.9824 31.8359-31.9824c17.7734 0 32.0312 14.209 32.0312 31.9824s-14.209 31.9824-31.9824 31.9824Zm-17.9688-31.9824c0 2.14844 1.51367 3.61328 3.75977 3.61328h10.498v10.5957c0 2.19727 1.46484 3.71094 3.61328 3.71094 2.24609 0 3.71094-1.51367 3.71094-3.71094v-10.5957h10.5957c2.19727 0 3.71094-1.46484 3.71094-3.61328 0-2.19727-1.51367-3.71094-3.71094-3.71094h-10.5957v-10.5469c0-2.24609-1.46484-3.75977-3.71094-3.75977-2.14844 0-3.61328 1.51367-3.61328 3.75977v10.5469h-10.498c-2.24609 0-3.75977 1.51367-3.75977 3.71094Z"/>
  </g>
  <g transform="matrix(0.2 0 0 0.2 281.506 1933)">
   <path d="m58.5449 14.5508c27.2461 0 49.8047-22.6074 49.8047-49.8047 0-27.2461-22.6074-49.8047-49.8535-49.8047-27.1973 0-49.7559 22.5586-49.7559 49.8047 0 27.1973 22.6074 49.8047 49.8047 49.8047Zm0-8.30078c-23.0469 0-41.4551-18.457-41.4551-41.5039s18.3594-41.5039 41.4062-41.5039 41.5527 18.457 41.5527 41.5039-18.457 41.5039-41.5039 41.5039Zm-22.6562-41.5039c0 2.39258 1.66016 4.00391 4.15039 4.00391h14.3555v14.4043c0 2.44141 1.66016 4.15039 4.05273 4.15039 2.44141 0 4.15039-1.66016 4.15039-4.15039v-14.4043h14.4043c2.44141 0 4.15039-1.61133 4.15039-4.00391 0-2.44141-1.70898-4.15039-4.15039-4.15039h-14.4043v-14.3555c0-2.49023-1.70898-4.19922-4.15039-4.19922-2.39258 0-4.05273 1.70898-4.05273 4.19922v14.3555h-14.3555c-2.49023 0-4.15039 1.70898-4.15039 4.15039Z"/>
  </g>
  <g transform="matrix(0.2 0 0 0.2 304.924 1933)">
   <path d="m74.8535 28.3203c34.8145 0 63.623-28.8086 63.623-63.5742 0-34.8145-28.8574-63.623-63.6719-63.623-34.7656 0-63.5254 28.8086-63.5254 63.623 0 34.7656 28.8086 63.5742 63.5742 63.5742Zm0-9.08203c-30.1758 0-54.4434-24.3164-54.4434-54.4922 0-30.2246 24.2188-54.4922 54.3945-54.4922 30.2246 0 54.541 24.2676 54.541 54.4922 0 30.1758-24.2676 54.4922-54.4922 54.4922Zm-28.8574-54.4922c0 2.58789 1.85547 4.39453 4.58984 4.39453h19.7266v19.7754c0 2.68555 1.85547 4.58984 4.44336 4.58984 2.68555 0 4.54102-1.85547 4.54102-4.58984v-19.7754h19.7754c2.68555 0 4.58984-1.80664 4.58984-4.39453 0-2.73438-1.85547-4.58984-4.58984-4.58984h-19.7754v-19.7266c0-2.73438-1.85547-4.63867-4.54102-4.63867-2.58789 0-4.44336 1.9043-4.44336 4.63867v19.7266h-19.7266c-2.73438 0-4.58984 1.85547-4.58984 4.58984Z"/>
  </g>
  <text style="stroke:none;fill:black;font-family:sans-serif;font-size:13;font-weight:bold;" transform="matrix(1 0 0 1 263 1953)">Design Variations</text>
  <text style="stroke:none;fill:black;font-family:sans-serif;font-size:13;" transform="matrix(1 0 0 1 263 1971)">Symbols are supported in up to nine weights and three scales.</text>
  <text style="stroke:none;fill:black;font-family:sans-serif;font-size:13;" transform="matrix(1 0 0 1 263 1989)">For optimal layout with text and other symbols, vertically align</text>
  <text style="stroke:none;fill:black;font-family:sans-serif;font-size:13;" transform="matrix(1 0 0 1 263 2007)">symbols with the adjacent text.</text>
  <line style="fill:none;stroke:#00AEEF;stroke-width:0.5;opacity:1.0;" x1="776" x2="776" y1="1919" y2="1933"/>
  <g transform="matrix(0.2 0 0 0.2 776 1933)">
   <path d="m16.5527 0.78125c2.58789 0 3.85742-0.976562 4.78516-3.71094l6.29883-17.2363h28.8086l6.29883 17.2363c0.927734 2.73438 2.19727 3.71094 4.73633 3.71094 2.58789 0 4.24805-1.5625 4.24805-4.00391 0-0.830078-0.146484-1.61133-0.537109-2.63672l-22.9004-60.9863c-1.12305-2.97852-3.125-4.49219-6.25-4.49219-3.02734 0-5.07812 1.46484-6.15234 4.44336l-22.9004 61.084c-0.390625 1.02539-0.537109 1.80664-0.537109 2.63672 0 2.44141 1.5625 3.95508 4.10156 3.95508Zm13.4766-28.3691 11.8652-32.8613h0.244141l11.8652 32.8613Z"/>
  </g>
  <line style="fill:none;stroke:#00AEEF;stroke-width:0.5;opacity:1.0;" x1="792.836" x2="792.836" y1="1919" y2="1933"/>
  <text style="stroke:none;fill:black;font-family:sans-serif;font-size:13;font-weight:bold;" transform="matrix(1 0 0 1 776 1953)">Margins</text>
  <text style="stroke:none;fill:black;font-family:sans-serif;font-size:13;" transform="matrix(1 0 0 1 776 1971)">Leading and trailing margins on the left and right side of each symbol</text>
  <text style="stroke:none;fill:black;font-family:sans-serif;font-size:13;" transform="matrix(1 0 0 1 776 1989)">can be adjusted by modifying the x-location of the margin guidelines.</text>
  <text style="stroke:none;fill:black;font-family:sans-serif;font-size:13;" transform="matrix(1 0 0 1 776 2007)">Modifications are automatically applied proportionally to all</text>
  <text style="stroke:none;fill:black;font-family:sans-serif;font-size:13;" transform="matrix(1 0 0 1 776 2025)">scales and weights.</text>
  <g transform="matrix(0.2 0 0 0.2 1289 1933)">
   <path d="m14.209 9.32617 8.49609 8.54492c4.29688 4.3457 9.22852 4.05273 13.8672-1.07422l53.4668-58.9355-4.83398-4.88281-53.0762 58.3984c-1.75781 2.00195-3.41797 2.49023-5.76172 0.146484l-5.85938-5.81055c-2.34375-2.29492-1.80664-4.00391 0.195312-5.81055l57.373-54.0039-4.88281-4.83398-57.959 54.4434c-4.93164 4.58984-5.32227 9.47266-1.02539 13.8184Zm32.0801-90.9668c-2.09961 2.05078-2.24609 4.93164-1.07422 6.88477 1.17188 1.80664 3.4668 2.97852 6.68945 2.14844 7.32422-1.70898 14.9414-2.00195 22.0703 2.68555l-2.92969 7.27539c-1.70898 4.15039-0.830078 7.08008 1.85547 9.81445l11.4746 11.5723c2.44141 2.44141 4.49219 2.53906 7.32422 2.05078l5.32227-0.976562 3.32031 3.36914-0.195312 2.7832c-0.195312 2.49023 0.439453 4.39453 2.88086 6.78711l3.80859 3.71094c2.39258 2.39258 5.46875 2.53906 7.8125 0.195312l14.5508-14.5996c2.34375-2.34375 2.24609-5.32227-0.146484-7.71484l-3.85742-3.80859c-2.39258-2.39258-4.24805-3.17383-6.64062-2.97852l-2.88086 0.244141-3.22266-3.17383 1.2207-5.61523c0.634766-2.83203-0.146484-5.0293-3.07617-7.95898l-10.9863-10.9375c-16.6992-16.6016-38.8672-16.2109-53.3203-1.75781Zm7.4707 1.85547c12.1582-8.88672 28.6133-7.37305 39.7461 3.75977l12.1582 12.0605c1.17188 1.17188 1.36719 2.09961 1.02539 3.80859l-1.61133 7.42188 7.51953 7.42188 4.93164-0.292969c1.26953-0.0488281 1.66016 0.0488281 2.63672 1.02539l2.88086 2.88086-12.207 12.207-2.88086-2.88086c-0.976562-0.976562-1.12305-1.36719-1.07422-2.68555l0.341797-4.88281-7.4707-7.42188-7.61719 1.26953c-1.61133 0.341797-2.34375 0.195312-3.56445-0.976562l-10.0098-10.0098c-1.26953-1.17188-1.41602-2.00195-0.634766-3.85742l4.39453-10.4492c-7.8125-7.27539-17.9688-10.4004-28.125-7.42188-0.78125 0.195312-1.07422-0.439453-0.439453-0.976562Z"/>
  </g>
  <text style="stroke:none;fill:black;font-family:sans-serif;font-size:13;font-weight:bold;" transform="matrix(1 0 0 1 1289 1953)">Exporting</text>
  <text style="stroke:none;fill:black;font-family:sans-serif;font-size:13;" transform="matrix(1 0 0 1 1289 1971)">Symbols should be outlined when exporting to ensure the</text>
  <text style="stroke:none;fill:black;font-family:sans-serif;font-size:13;" transform="matrix(1 0 0 1 1289 1989)">design is preserved when submitting to Xcode.</text>
  <text id="template-version" style="stroke:none;fill:black;font-family:sans-serif;font-size:13;text-anchor:end;" transform="matrix(1 0 0 1 3036 1933)">Template v.5.0</text>
  <text style="stroke:none;fill:black;font-family:sans-serif;font-size:13;text-anchor:end;" transform="matrix(1 0 0 1 3036 1951)">Requires Xcode 15 or greater</text>
  <text id="descriptive-name" style="stroke:none;fill:black;font-family:sans-serif;font-size:13;text-anchor:end;" transform="matrix(1 0 0 1 3036 1969)">Generated from dehumidifier.fill</text>
  <text style="stroke:none;fill:black;font-family:sans-serif;font-size:13;text-anchor:end;" transform="matrix(1 0 0 1 3036 1987)">Typeset at 100.0 points</text>
  <text style="stroke:none;fill:black;font-family:sans-serif;font-size:13;" transform="matrix(1 0 0 1 263 726)">Small</text>
  <text style="stroke:none;fill:black;font-family:sans-serif;font-size:13;" transform="matrix(1 0 0 1 263 1156)">Medium</text>
  <text style="stroke:none;fill:black;font-family:sans-serif;font-size:13;" transform="matrix(1 0 0 1 263 1586)">Large</text>
 </g>
 <g id="Guides">
  <g id="H-reference" style="fill:#27AAE1;stroke:none;" transform="matrix(1 0 0 1 339 696)">
   <path d="M0.993654 0L3.63775 0L29.3281-67.1323L30.0303-67.1323L30.0303-70.459L28.1226-70.459ZM11.6885-24.4799L46.9815-24.4799L46.2315-26.7285L12.4385-26.7285ZM55.1196 0L57.7637 0L30.6382-70.459L29.4326-70.459L29.4326-67.1323Z"/>
  </g>
  <line id="Baseline-S" style="fill:none;stroke:#27AAE1;opacity:1;stroke-width:0.5;" x1="263" x2="3036" y1="696" y2="696"/>
  <line id="Capline-S" style="fill:none;stroke:#27AAE1;opacity:1;stroke-width:0.5;" x1="263" x2="3036" y1="625.541" y2="625.541"/>
  <g id="H-reference" style="fill:#27AAE1;stroke:none;" transform="matrix(1 0 0 1 339 1126)">
   <path d="M0.993654 0L3.63775 0L29.3281-67.1323L30.0303-67.1323L30.0303-70.459L28.1226-70.459ZM11.6885-24.4799L46.9815-24.4799L46.2315-26.7285L12.4385-26.7285ZM55.1196 0L57.7637 0L30.6382-70.459L29.4326-70.459L29.4326-67.1323Z"/>
  </g>
  <line id="Baseline-M" style="fill:none;stroke:#27AAE1;opacity:1;stroke-width:0.5;" x1="263" x2="3036" y1="1126" y2="1126"/>
  <line id="Capline-M" style="fill:none;stroke:#27AAE1;opacity:1;stroke-width:0.5;" x1="263" x2="3036" y1="1055.54" y2="1055.54"/>
  <g id="H-reference" style="fill:#27AAE1;stroke:none;" transform="matrix(1 0 0 1 339 1556)">
   <path d="M0.993654 0L3.63775 0L29.3281-67.1323L30.0303-67.1323L30.0303-70.459L28.1226-70.459ZM11.6885-24.4799L46.9815-24.4799L46.2315-26.7285L12.4385-26.7285ZM55.1196 0L57.7637 0L30.6382-70.459L29.4326-70.459L29.4326-67.1323Z"/>
  </g>
  <line id="Baseline-L" style="fill:none;stroke:#27AAE1;opacity:1;stroke-width:0.5;" x1="263" x2="3036" y1="1556" y2="1556"/>
  <line id="Capline-L" style="fill:none;stroke:#27AAE1;opacity:1;stroke-width:0.5;" x1="263" x2="3036" y1="1485.54" y2="1485.54"/>
  <line id="left-margin-Ultralight-S" style="fill:none;stroke:#00AEEF;stroke-width:0.5;opacity:1.0;" x1="525.386" x2="525.386" y1="600.785" y2="720.121"/>
  <line id="right-margin-Ultralight-S" style="fill:none;stroke:#FF3B30;stroke-width:0.5;opacity:1.0;" x1="594.036" x2="594.036" y1="600.785" y2="720.121"/>
  <line id="left-margin-Regular-S" style="fill:none;stroke:#00AEEF;stroke-width:0.5;opacity:1.0;" x1="1410.03" x2="1410.03" y1="600.785" y2="720.121"/>
  <line id="right-margin-Regular-S" style="fill:none;stroke:#FF3B30;stroke-width:0.5;opacity:1.0;" x1="1489.66" x2="1489.66" y1="600.785" y2="720.121"/>
  <line id="left-margin-Black-S" style="fill:none;stroke:#00AEEF;stroke-width:0.5;opacity:1.0;" x1="2887.7" x2="2887.7" y1="600.785" y2="720.121"/>
  <line id="right-margin-Black-S" style="fill:none;stroke:#FF3B30;stroke-width:0.5;opacity:1.0;" x1="2979.1" x2="2979.1" y1="600.785" y2="720.121"/>
 </g>
 <g id="Symbols">
  <g id="Black-S" transform="matrix(1 0 0 1 2887.7 696)">
   <path class="SFSymbolsPreviewWireframe" d="M25 7.66602L66.4062 7.66602C75.9766 7.66602 81.6406 2.00195 81.6406-7.56836L81.6406-72.6074C81.6406-82.1777 75.9766-87.8418 66.4062-87.8418L25-87.8418C15.4297-87.8418 9.76562-82.1777 9.76562-72.6074L9.76562-7.56836C9.76562 2.00195 15.4297 7.66602 25 7.66602ZM32.4707-60.2051C28.7598-60.2051 25.8301-63.2324 25.8301-66.8945C25.8301-70.5078 28.7598-73.5352 32.4707-73.5352C36.1328-73.5352 39.1113-70.5078 39.1113-66.8945C39.1113-63.2324 36.1328-60.2051 32.4707-60.2051ZM29.4434-26.709C27.3926-26.709 25.8301-28.3691 25.8301-30.3711C25.8301-32.4219 27.3926-34.082 29.4434-34.082L38.9648-34.082C41.0156-34.082 42.627-32.4219 42.627-30.3711C42.627-28.3691 41.0156-26.709 38.9648-26.709ZM29.4434-16.6992C27.3926-16.6992 25.8301-18.3105 25.8301-20.3613C25.8301-22.4121 27.3926-24.0234 29.4434-24.0234L38.9648-24.0234C41.0156-24.0234 42.627-22.4121 42.627-20.3613C42.627-18.3105 41.0156-16.6992 38.9648-16.6992ZM29.4434-6.64062C27.3926-6.64062 25.8301-8.30078 25.8301-10.3027C25.8301-12.3535 27.3926-14.0137 29.4434-14.0137L38.9648-14.0137C41.0156-14.0137 42.627-12.3535 42.627-10.3027C42.627-8.30078 41.0156-6.64062 38.9648-6.64062ZM52.4414-26.709C50.3906-26.709 48.7793-28.3691 48.7793-30.3711C48.7793-32.4219 50.3906-34.082 52.4414-34.082L61.9629-34.082C64.0137-34.082 65.5762-32.4219 65.5762-30.3711C65.5762-28.3691 64.0137-26.709 61.9629-26.709ZM52.4414-16.6992C50.3906-16.6992 48.7793-18.3105 48.7793-20.3613C48.7793-22.4121 50.3906-24.0234 52.4414-24.0234L61.9629-24.0234C64.0137-24.0234 65.5762-22.4121 65.5762-20.3613C65.5762-18.3105 64.0137-16.6992 61.9629-16.6992ZM52.4414-6.64062C50.3906-6.64062 48.7793-8.30078 48.7793-10.3027C48.7793-12.3535 50.3906-14.0137 52.4414-14.0137L61.9629-14.0137C64.0137-14.0137 65.5762-12.3535 65.5762-10.3027C65.5762-8.30078 64.0137-6.64062 61.9629-6.64062ZM22.3145 17.334C25.5859 17.334 27.9297 14.9902 27.9297 11.7188L27.9297 1.61133L16.6992 1.61133L16.6992 11.7188C16.6992 14.9902 19.043 17.334 22.3145 17.334ZM69.0918 17.334C72.3633 17.334 74.707 14.9902 74.707 11.7188L74.707 1.61133L63.4766 1.61133L63.4766 11.7188C63.4766 14.9902 65.8203 17.334 69.0918 17.334ZM75.0488-39.1602C88.1348-39.1602 97.1191-48.1934 97.1191-60.9863C97.1191-65.625 95.5078-70.459 93.3105-75.0488C90.8691-80.2246 87.4512-85.6445 84.3262-90.4785C81.9824-93.8477 78.8086-96.0938 75.0488-96.0938C71.2891-96.0938 68.1641-93.8477 65.8203-90.5273C62.5977-85.6445 59.1309-80.127 56.7383-74.9512C54.541-70.4102 52.9785-65.625 52.9785-60.9863C52.9785-48.1934 61.9629-39.1602 75.0488-39.1602ZM75.0488-45.5078C84.6191-45.5078 90.7715-51.709 90.7715-60.9863C90.7715-64.4043 89.5508-68.2617 87.5977-72.3145C85.3027-77.0996 82.1289-82.1289 79.0527-86.9629C77.832-88.6719 76.4648-89.7461 75.0488-89.7461C73.6328-89.7461 72.2656-88.6719 71.0449-86.9629C67.8711-82.1289 64.6973-77.0508 62.5-72.2656C60.5469-68.2129 59.3262-64.4043 59.3262-60.9863C59.3262-51.709 65.4785-45.5078 75.0488-45.5078Z"/>
  </g>
  <g id="Regular-S" transform="matrix(1 0 0 1 1410.03 696)">
   <path class="SFSymbolsPreviewWireframe" d="M22.168 3.95508L57.4707 3.95508C65.7715 3.95508 69.873-0.0976562 69.873-8.25195L69.873-69.3848C69.873-77.5879 65.6738-81.5918 57.4707-81.5918L22.168-81.5918C13.9648-81.5918 9.76562-77.5879 9.76562-69.3848L9.76562-8.25195C9.76562-0.0976562 13.8672 3.95508 22.168 3.95508ZM25.9277-59.4238C22.7539-59.4238 20.166-62.0117 20.166-65.2344C20.166-68.3594 22.7539-70.9961 25.9277-70.9961C29.1504-70.9961 31.7383-68.3594 31.7383-65.2344C31.7383-62.0117 29.1504-59.4238 25.9277-59.4238ZM22.8027-26.7578C21.2891-26.7578 20.1172-27.9785 20.1172-29.4922C20.1172-31.0059 21.2891-32.2266 22.8027-32.2266L34.1309-32.2266C35.6934-32.2266 36.8652-31.0059 36.8652-29.4922C36.8652-27.9785 35.6934-26.7578 34.1309-26.7578ZM22.8027-16.6992C21.2891-16.6992 20.1172-17.8711 20.1172-19.4336C20.1172-20.9473 21.2891-22.1191 22.8027-22.1191L34.1309-22.1191C35.6934-22.1191 36.8652-20.9473 36.8652-19.4336C36.8652-17.8711 35.6934-16.6992 34.1309-16.6992ZM22.8027-6.5918C21.2891-6.5918 20.1172-7.8125 20.1172-9.32617C20.1172-10.8398 21.2891-12.0605 22.8027-12.0605L34.1309-12.0605C35.6934-12.0605 36.8652-10.8398 36.8652-9.32617C36.8652-7.8125 35.6934-6.5918 34.1309-6.5918ZM45.459-26.7578C43.9453-26.7578 42.7734-27.9785 42.7734-29.4922C42.7734-31.0059 43.9453-32.2266 45.459-32.2266L56.7871-32.2266C58.3496-32.2266 59.5215-31.0059 59.5215-29.4922C59.5215-27.9785 58.3496-26.7578 56.7871-26.7578ZM45.459-16.6992C43.9453-16.6992 42.7734-17.8711 42.7734-19.4336C42.7734-20.9473 43.9453-22.1191 45.459-22.1191L56.7871-22.1191C58.3496-22.1191 59.5215-20.9473 59.5215-19.4336C59.5215-17.8711 58.3496-16.6992 56.7871-16.6992ZM45.459-6.5918C43.9453-6.5918 42.7734-7.8125 42.7734-9.32617C42.7734-10.8398 43.9453-12.0605 45.459-12.0605L56.7871-12.0605C58.3496-12.0605 59.5215-10.8398 59.5215-9.32617C59.5215-7.8125 58.3496-6.5918 56.7871-6.5918ZM21.4355 11.0352C23.5352 11.0352 24.9512 9.61914 24.9512 7.51953L24.9512-0.488281L17.9199-0.488281L17.9199 7.51953C17.9199 9.61914 19.3359 11.0352 21.4355 11.0352ZM58.2031 11.0352C60.3027 11.0352 61.7188 9.61914 61.7188 7.51953L61.7188-0.488281L54.6875-0.488281L54.6875 7.51953C54.6875 9.61914 56.1035 11.0352 58.2031 11.0352ZM64.1113-37.1094C75.8789-37.1094 84.2773-45.2148 84.2773-56.7871C84.2773-62.5488 81.8359-67.1875 80.8594-69.3848C78.4668-74.6094 74.3652-81.3477 71.0938-86.4258C69.3359-88.9648 66.8457-90.332 64.1113-90.332C61.4258-90.332 58.9355-88.9648 57.1777-86.4258C53.9062-81.3477 49.8047-74.6094 47.4121-69.3848C46.3867-67.1875 43.9941-62.5488 43.9941-56.7871C43.9941-45.2148 52.3926-37.1094 64.1113-37.1094ZM64.1113-42.8223C72.7539-42.8223 78.5645-48.4375 78.5645-56.7871C78.5645-61.084 76.7578-64.6484 75.6836-67.041C73.3887-71.9727 69.5801-78.2715 66.3574-83.252C65.6738-84.1797 64.9414-84.6191 64.1113-84.6191C63.2812-84.6191 62.5977-84.1797 61.9141-83.252C58.6914-78.2715 54.8828-71.9727 52.5879-67.041C51.5137-64.6484 49.6582-61.084 49.6582-56.7871C49.6582-48.4375 55.5176-42.8223 64.1113-42.8223Z"/>
  </g>
  <g id="Ultralight-S" transform="matrix(1 0 0 1 525.386 696)">
   <path class="SFSymbolsPreviewWireframe" d="M18.8076-1.63033L49.7964-1.63033C55.4181-1.63033 58.8839-5.04732 58.8839-10.6587L58.8839-65.1162C58.8839-70.731 55.4112-74.1446 49.7964-74.1446L18.8076-74.1446C13.2383-74.1446 9.76562-70.731 9.76562-65.1162L9.76562-10.6587C9.76562-5.04732 13.2315-1.63033 18.8076-1.63033ZM22.1133-57.4258C19.666-57.4258 17.5777-59.5142 17.5777-62.0103C17.5777-64.4995 19.666-66.5913 22.1133-66.5913C24.6548-66.5913 26.7432-64.4995 26.7432-62.0103C26.7432-59.5142 24.6548-57.4258 22.1133-57.4258ZM18.1709-28.0293C17.293-28.0293 16.6206-28.6597 16.6206-29.5376C16.6206-30.4155 17.293-31.0459 18.1709-31.0459L30.3164-31.0459C31.1978-31.0459 31.8702-30.4155 31.8702-29.5376C31.8702-28.6597 31.1978-28.0293 30.3164-28.0293ZM18.1709-19.1513C17.293-19.1513 16.6206-19.8237 16.6206-20.7051C16.6206-21.5376 17.293-22.21 18.1709-22.21L30.3164-22.21C31.1978-22.21 31.8702-21.5376 31.8702-20.7051C31.8702-19.8237 31.1978-19.1513 30.3164-19.1513ZM18.1709-10.3154C17.293-10.3154 16.6206-10.9912 16.6206-11.8237C16.6206-12.7016 17.293-13.3774 18.1709-13.3774L30.3164-13.3774C31.1978-13.3774 31.8702-12.7016 31.8702-11.8237C31.8702-10.9912 31.1978-10.3154 30.3164-10.3154ZM38.3296-28.0293C37.4517-28.0293 36.7793-28.6597 36.7793-29.5376C36.7793-30.4155 37.4517-31.0459 38.3296-31.0459L50.4751-31.0459C51.3565-31.0459 51.9835-30.4155 51.9835-29.5376C51.9835-28.6597 51.3565-28.0293 50.4751-28.0293ZM38.3296-19.1513C37.4517-19.1513 36.7793-19.8237 36.7793-20.7051C36.7793-21.5376 37.4517-22.21 38.3296-22.21L50.4751-22.21C51.3565-22.21 51.9835-21.5376 51.9835-20.7051C51.9835-19.8237 51.3565-19.1513 50.4751-19.1513ZM38.3296-10.3154C37.4517-10.3154 36.7793-10.9912 36.7793-11.8237C36.7793-12.7016 37.4517-13.3774 38.3296-13.3774L50.4751-13.3774C51.3565-13.3774 51.9835-12.7016 51.9835-11.8237C51.9835-10.9912 51.3565-10.3154 50.4751-10.3154ZM18.1206 3.63336C18.7671 3.63336 19.2295 3.17095 19.2295 2.56986L19.2295-2.80418L17.0571-2.80418L17.0571 2.56986C17.0571 3.17095 17.5195 3.63336 18.1206 3.63336ZM50.4835 3.63336C51.13 3.63336 51.5924 3.17095 51.5924 2.56986L51.5924-2.80418L49.3746-2.80418L49.3746 2.56986C49.3746 3.17095 49.8824 3.63336 50.4835 3.63336ZM54.439-37.6997C63.7999-37.6997 70.2457-43.9434 70.2457-53.1997C70.2457-56.8726 68.8487-61.1934 66.7823-65.3887C64.6622-70.023 61.7413-75.0811 58.7423-79.6143C57.6656-81.1998 56.2652-82.0674 54.439-82.0674C52.6617-82.0674 51.2159-81.1998 50.1846-79.6143C47.1402-75.0811 44.2193-70.023 42.0538-65.3887C40.0748-61.148 38.6358-56.8726 38.6358-53.1997C38.6358-43.9434 45.127-37.6997 54.439-37.6997ZM54.439-40.7788C62.128-40.7788 67.212-45.7129 67.212-53.1997C67.212-56.316 65.9503-60.1075 64.0133-64.1348C61.9908-68.5669 59.1358-73.458 56.1856-77.8936C55.6837-78.6397 55.2237-78.9883 54.439-78.9883C53.6544-78.9883 53.2432-78.6397 52.7413-77.8936C49.7457-73.458 46.9361-68.5669 44.8228-64.1348C42.9766-60.1075 41.7115-56.316 41.7115-53.1997C41.7115-45.7129 46.7989-40.7788 54.439-40.7788Z"/>
  </g>
 </g>
</svg>
