<?xml version="1.0" encoding="UTF-8"?>
<!--Generator: Apple Native CoreSVG 232.5-->
<!DOCTYPE svg
PUBLIC "-//W3C//DTD SVG 1.1//EN"
       "http://www.w3.org/Graphics/SVG/1.1/DTD/svg11.dtd">
<svg version="1.1" xmlns="http://www.w3.org/2000/svg" xmlns:xlink="http://www.w3.org/1999/xlink" width="3300" height="2200">
 <!--glyph: "uni1013A3.medium", point size: 100.0, font version: "19.2d2e1", template writer version: "128"-->
 <style>.SFSymbolsPreviewWireframe {fill:none;opacity:1.0;stroke:black;stroke-width:0.5}
</style>
 <g id="Notes">
  <rect height="2200" id="artboard" style="fill:white;opacity:1" width="3300" x="0" y="0"/>
  <line style="fill:none;stroke:black;opacity:1;stroke-width:0.5;" x1="263" x2="3036" y1="292" y2="292"/>
  <text style="stroke:none;fill:black;font-family:sans-serif;font-size:13;font-weight:bold;" transform="matrix(1 0 0 1 263 322)">Weight/Scale Variations</text>
  <text style="stroke:none;fill:black;font-family:sans-serif;font-size:13;text-anchor:middle;" transform="matrix(1 0 0 1 559.711 322)">Ultralight</text>
  <text style="stroke:none;fill:black;font-family:sans-serif;font-size:13;text-anchor:middle;" transform="matrix(1 0 0 1 856.422 322)">Thin</text>
  <text style="stroke:none;fill:black;font-family:sans-serif;font-size:13;text-anchor:middle;" transform="matrix(1 0 0 1 1153.13 322)">Light</text>
  <text style="stroke:none;fill:black;font-family:sans-serif;font-size:13;text-anchor:middle;" transform="matrix(1 0 0 1 1449.84 322)">Regular</text>
  <text style="stroke:none;fill:black;font-family:sans-serif;font-size:13;text-anchor:middle;" transform="matrix(1 0 0 1 1746.56 322)">Medium</text>
  <text style="stroke:none;fill:black;font-family:sans-serif;font-size:13;text-anchor:middle;" transform="matrix(1 0 0 1 2043.27 322)">Semibold</text>
  <text style="stroke:none;fill:black;font-family:sans-serif;font-size:13;text-anchor:middle;" transform="matrix(1 0 0 1 2339.98 322)">Bold</text>
  <text style="stroke:none;fill:black;font-family:sans-serif;font-size:13;text-anchor:middle;" transform="matrix(1 0 0 1 2636.69 322)">Heavy</text>
  <text style="stroke:none;fill:black;font-family:sans-serif;font-size:13;text-anchor:middle;" transform="matrix(1 0 0 1 2933.4 322)">Black</text>
  <line style="fill:none;stroke:black;opacity:1;stroke-width:0.5;" x1="263" x2="3036" y1="1903" y2="1903"/>
  <g transform="matrix(0.2 0 0 0.2 263 1933)">
   <path d="m46.2402 4.15039c21.5332 0 39.4531-17.8711 39.4531-39.4043s-17.9688-39.4043-39.502-39.4043c-21.4844 0-39.3555 17.8711-39.3555 39.4043s17.9199 39.4043 39.4043 39.4043Zm0-7.42188c-17.7246 0-31.8848-14.209-31.8848-31.9824s14.1113-31.9824 31.8359-31.9824c17.7734 0 32.0312 14.209 32.0312 31.9824s-14.209 31.9824-31.9824 31.9824Zm-17.9688-31.9824c0 2.14844 1.51367 3.61328 3.75977 3.61328h10.498v10.5957c0 2.19727 1.46484 3.71094 3.61328 3.71094 2.24609 0 3.71094-1.51367 3.71094-3.71094v-10.5957h10.5957c2.19727 0 3.71094-1.46484 3.71094-3.61328 0-2.19727-1.51367-3.71094-3.71094-3.71094h-10.5957v-10.5469c0-2.24609-1.46484-3.75977-3.71094-3.75977-2.14844 0-3.61328 1.51367-3.61328 3.75977v10.5469h-10.498c-2.24609 0-3.75977 1.51367-3.75977 3.71094Z"/>
  </g>
  <g transform="matrix(0.2 0 0 0.2 281.506 1933)">
   <path d="m58.5449 14.5508c27.2461 0 49.8047-22.6074 49.8047-49.8047 0-27.2461-22.6074-49.8047-49.8535-49.8047-27.1973 0-49.7559 22.5586-49.7559 49.8047 0 27.1973 22.6074 49.8047 49.8047 49.8047Zm0-8.30078c-23.0469 0-41.4551-18.457-41.4551-41.5039s18.3594-41.5039 41.4062-41.5039 41.5527 18.457 41.5527 41.5039-18.457 41.5039-41.5039 41.5039Zm-22.6562-41.5039c0 2.39258 1.66016 4.00391 4.15039 4.00391h14.3555v14.4043c0 2.44141 1.66016 4.15039 4.05273 4.15039 2.44141 0 4.15039-1.66016 4.15039-4.15039v-14.4043h14.4043c2.44141 0 4.15039-1.61133 4.15039-4.00391 0-2.44141-1.70898-4.15039-4.15039-4.15039h-14.4043v-14.3555c0-2.49023-1.70898-4.19922-4.15039-4.19922-2.39258 0-4.05273 1.70898-4.05273 4.19922v14.3555h-14.3555c-2.49023 0-4.15039 1.70898-4.15039 4.15039Z"/>
  </g>
  <g transform="matrix(0.2 0 0 0.2 304.924 1933)">
   <path d="m74.8535 28.3203c34.8145 0 63.623-28.8086 63.623-63.5742 0-34.8145-28.8574-63.623-63.6719-63.623-34.7656 0-63.5254 28.8086-63.5254 63.623 0 34.7656 28.8086 63.5742 63.5742 63.5742Zm0-9.08203c-30.1758 0-54.4434-24.3164-54.4434-54.4922 0-30.2246 24.2188-54.4922 54.3945-54.4922 30.2246 0 54.541 24.2676 54.541 54.4922 0 30.1758-24.2676 54.4922-54.4922 54.4922Zm-28.8574-54.4922c0 2.58789 1.85547 4.39453 4.58984 4.39453h19.7266v19.7754c0 2.68555 1.85547 4.58984 4.44336 4.58984 2.68555 0 4.54102-1.85547 4.54102-4.58984v-19.7754h19.7754c2.68555 0 4.58984-1.80664 4.58984-4.39453 0-2.73438-1.85547-4.58984-4.58984-4.58984h-19.7754v-19.7266c0-2.73438-1.85547-4.63867-4.54102-4.63867-2.58789 0-4.44336 1.9043-4.44336 4.63867v19.7266h-19.7266c-2.73438 0-4.58984 1.85547-4.58984 4.58984Z"/>
  </g>
  <text style="stroke:none;fill:black;font-family:sans-serif;font-size:13;font-weight:bold;" transform="matrix(1 0 0 1 263 1953)">Design Variations</text>
  <text style="stroke:none;fill:black;font-family:sans-serif;font-size:13;" transform="matrix(1 0 0 1 263 1971)">Symbols are supported in up to nine weights and three scales.</text>
  <text style="stroke:none;fill:black;font-family:sans-serif;font-size:13;" transform="matrix(1 0 0 1 263 1989)">For optimal layout with text and other symbols, vertically align</text>
  <text style="stroke:none;fill:black;font-family:sans-serif;font-size:13;" transform="matrix(1 0 0 1 263 2007)">symbols with the adjacent text.</text>
  <line style="fill:none;stroke:#00AEEF;stroke-width:0.5;opacity:1.0;" x1="776" x2="776" y1="1919" y2="1933"/>
  <g transform="matrix(0.2 0 0 0.2 776 1933)">
   <path d="m16.5527 0.78125c2.58789 0 3.85742-0.976562 4.78516-3.71094l6.29883-17.2363h28.8086l6.29883 17.2363c0.927734 2.73438 2.19727 3.71094 4.73633 3.71094 2.58789 0 4.24805-1.5625 4.24805-4.00391 0-0.830078-0.146484-1.61133-0.537109-2.63672l-22.9004-60.9863c-1.12305-2.97852-3.125-4.49219-6.25-4.49219-3.02734 0-5.07812 1.46484-6.15234 4.44336l-22.9004 61.084c-0.390625 1.02539-0.537109 1.80664-0.537109 2.63672 0 2.44141 1.5625 3.95508 4.10156 3.95508Zm13.4766-28.3691 11.8652-32.8613h0.244141l11.8652 32.8613Z"/>
  </g>
  <line style="fill:none;stroke:#00AEEF;stroke-width:0.5;opacity:1.0;" x1="792.836" x2="792.836" y1="1919" y2="1933"/>
  <text style="stroke:none;fill:black;font-family:sans-serif;font-size:13;font-weight:bold;" transform="matrix(1 0 0 1 776 1953)">Margins</text>
  <text style="stroke:none;fill:black;font-family:sans-serif;font-size:13;" transform="matrix(1 0 0 1 776 1971)">Leading and trailing margins on the left and right side of each symbol</text>
  <text style="stroke:none;fill:black;font-family:sans-serif;font-size:13;" transform="matrix(1 0 0 1 776 1989)">can be adjusted by modifying the x-location of the margin guidelines.</text>
  <text style="stroke:none;fill:black;font-family:sans-serif;font-size:13;" transform="matrix(1 0 0 1 776 2007)">Modifications are automatically applied proportionally to all</text>
  <text style="stroke:none;fill:black;font-family:sans-serif;font-size:13;" transform="matrix(1 0 0 1 776 2025)">scales and weights.</text>
  <g transform="matrix(0.2 0 0 0.2 1289 1933)">
   <path d="m14.209 9.32617 8.49609 8.54492c4.29688 4.3457 9.22852 4.05273 13.8672-1.07422l53.4668-58.9355-4.83398-4.88281-53.0762 58.3984c-1.75781 2.00195-3.41797 2.49023-5.76172 0.146484l-5.85938-5.81055c-2.34375-2.29492-1.80664-4.00391 0.195312-5.81055l57.373-54.0039-4.88281-4.83398-57.959 54.4434c-4.93164 4.58984-5.32227 9.47266-1.02539 13.8184Zm32.0801-90.9668c-2.09961 2.05078-2.24609 4.93164-1.07422 6.88477 1.17188 1.80664 3.4668 2.97852 6.68945 2.14844 7.32422-1.70898 14.9414-2.00195 22.0703 2.68555l-2.92969 7.27539c-1.70898 4.15039-0.830078 7.08008 1.85547 9.81445l11.4746 11.5723c2.44141 2.44141 4.49219 2.53906 7.32422 2.05078l5.32227-0.976562 3.32031 3.36914-0.195312 2.7832c-0.195312 2.49023 0.439453 4.39453 2.88086 6.78711l3.80859 3.71094c2.39258 2.39258 5.46875 2.53906 7.8125 0.195312l14.5508-14.5996c2.34375-2.34375 2.24609-5.32227-0.146484-7.71484l-3.85742-3.80859c-2.39258-2.39258-4.24805-3.17383-6.64062-2.97852l-2.88086 0.244141-3.22266-3.17383 1.2207-5.61523c0.634766-2.83203-0.146484-5.0293-3.07617-7.95898l-10.9863-10.9375c-16.6992-16.6016-38.8672-16.2109-53.3203-1.75781Zm7.4707 1.85547c12.1582-8.88672 28.6133-7.37305 39.7461 3.75977l12.1582 12.0605c1.17188 1.17188 1.36719 2.09961 1.02539 3.80859l-1.61133 7.42188 7.51953 7.42188 4.93164-0.292969c1.26953-0.0488281 1.66016 0.0488281 2.63672 1.02539l2.88086 2.88086-12.207 12.207-2.88086-2.88086c-0.976562-0.976562-1.12305-1.36719-1.07422-2.68555l0.341797-4.88281-7.4707-7.42188-7.61719 1.26953c-1.61133 0.341797-2.34375 0.195312-3.56445-0.976562l-10.0098-10.0098c-1.26953-1.17188-1.41602-2.00195-0.634766-3.85742l4.39453-10.4492c-7.8125-7.27539-17.9688-10.4004-28.125-7.42188-0.78125 0.195312-1.07422-0.439453-0.439453-0.976562Z"/>
  </g>
  <text style="stroke:none;fill:black;font-family:sans-serif;font-size:13;font-weight:bold;" transform="matrix(1 0 0 1 1289 1953)">Exporting</text>
  <text style="stroke:none;fill:black;font-family:sans-serif;font-size:13;" transform="matrix(1 0 0 1 1289 1971)">Symbols should be outlined when exporting to ensure the</text>
  <text style="stroke:none;fill:black;font-family:sans-serif;font-size:13;" transform="matrix(1 0 0 1 1289 1989)">design is preserved when submitting to Xcode.</text>
  <text id="template-version" style="stroke:none;fill:black;font-family:sans-serif;font-size:13;text-anchor:end;" transform="matrix(1 0 0 1 3036 1933)">Template v.5.0</text>
  <text style="stroke:none;fill:black;font-family:sans-serif;font-size:13;text-anchor:end;" transform="matrix(1 0 0 1 3036 1951)">Requires Xcode 15 or greater</text>
  <text id="descriptive-name" style="stroke:none;fill:black;font-family:sans-serif;font-size:13;text-anchor:end;" transform="matrix(1 0 0 1 3036 1969)">Generated from dollarsign.arrow.circlepath</text>
  <text style="stroke:none;fill:black;font-family:sans-serif;font-size:13;text-anchor:end;" transform="matrix(1 0 0 1 3036 1987)">Typeset at 100.0 points</text>
  <text style="stroke:none;fill:black;font-family:sans-serif;font-size:13;" transform="matrix(1 0 0 1 263 726)">Small</text>
  <text style="stroke:none;fill:black;font-family:sans-serif;font-size:13;" transform="matrix(1 0 0 1 263 1156)">Medium</text>
  <text style="stroke:none;fill:black;font-family:sans-serif;font-size:13;" transform="matrix(1 0 0 1 263 1586)">Large</text>
 </g>
 <g id="Guides">
  <g id="H-reference" style="fill:#27AAE1;stroke:none;" transform="matrix(1 0 0 1 339 696)">
   <path d="M0.993654 0L3.63775 0L29.3281-67.1323L30.0303-67.1323L30.0303-70.459L28.1226-70.459ZM11.6885-24.4799L46.9815-24.4799L46.2315-26.7285L12.4385-26.7285ZM55.1196 0L57.7637 0L30.6382-70.459L29.4326-70.459L29.4326-67.1323Z"/>
  </g>
  <line id="Baseline-S" style="fill:none;stroke:#27AAE1;opacity:1;stroke-width:0.5;" x1="263" x2="3036" y1="696" y2="696"/>
  <line id="Capline-S" style="fill:none;stroke:#27AAE1;opacity:1;stroke-width:0.5;" x1="263" x2="3036" y1="625.541" y2="625.541"/>
  <g id="H-reference" style="fill:#27AAE1;stroke:none;" transform="matrix(1 0 0 1 339 1126)">
   <path d="M0.993654 0L3.63775 0L29.3281-67.1323L30.0303-67.1323L30.0303-70.459L28.1226-70.459ZM11.6885-24.4799L46.9815-24.4799L46.2315-26.7285L12.4385-26.7285ZM55.1196 0L57.7637 0L30.6382-70.459L29.4326-70.459L29.4326-67.1323Z"/>
  </g>
  <line id="Baseline-M" style="fill:none;stroke:#27AAE1;opacity:1;stroke-width:0.5;" x1="263" x2="3036" y1="1126" y2="1126"/>
  <line id="Capline-M" style="fill:none;stroke:#27AAE1;opacity:1;stroke-width:0.5;" x1="263" x2="3036" y1="1055.54" y2="1055.54"/>
  <g id="H-reference" style="fill:#27AAE1;stroke:none;" transform="matrix(1 0 0 1 339 1556)">
   <path d="M0.993654 0L3.63775 0L29.3281-67.1323L30.0303-67.1323L30.0303-70.459L28.1226-70.459ZM11.6885-24.4799L46.9815-24.4799L46.2315-26.7285L12.4385-26.7285ZM55.1196 0L57.7637 0L30.6382-70.459L29.4326-70.459L29.4326-67.1323Z"/>
  </g>
  <line id="Baseline-L" style="fill:none;stroke:#27AAE1;opacity:1;stroke-width:0.5;" x1="263" x2="3036" y1="1556" y2="1556"/>
  <line id="Capline-L" style="fill:none;stroke:#27AAE1;opacity:1;stroke-width:0.5;" x1="263" x2="3036" y1="1485.54" y2="1485.54"/>
  <line id="left-margin-Ultralight-S" style="fill:none;stroke:#00AEEF;stroke-width:0.5;opacity:1.0;" x1="512.05" x2="512.05" y1="600.785" y2="720.121"/>
  <line id="right-margin-Ultralight-S" style="fill:none;stroke:#00AEEF;stroke-width:0.5;opacity:1.0;" x1="607.373" x2="607.373" y1="600.785" y2="720.121"/>
  <line id="left-margin-Regular-S" style="fill:none;stroke:#00AEEF;stroke-width:0.5;opacity:1.0;" x1="1399.84" x2="1399.84" y1="600.785" y2="720.121"/>
  <line id="right-margin-Regular-S" style="fill:none;stroke:#00AEEF;stroke-width:0.5;opacity:1.0;" x1="1499.84" x2="1499.84" y1="600.785" y2="720.121"/>
  <line id="left-margin-Black-S" style="fill:none;stroke:#00AEEF;stroke-width:0.5;opacity:1.0;" x1="2880.47" x2="2880.47" y1="600.785" y2="720.121"/>
  <line id="right-margin-Black-S" style="fill:none;stroke:#00AEEF;stroke-width:0.5;opacity:1.0;" x1="2986.33" x2="2986.33" y1="600.785" y2="720.121"/>
 </g>
 <g id="Symbols">
  <g id="Black-S" transform="matrix(1 0 0 1 2880.47 696)">
   <path class="SFSymbolsPreviewWireframe" d="M57.0312 6.78711C80.1758 6.78711 99.0234-12.0605 99.0234-35.2051C99.0234-58.3496 80.1758-77.1973 57.0312-77.1973C34.1309-77.1973 15.4785-58.7891 15.0391-35.9863L29.1992-35.9863C29.6387-51.0254 41.8945-63.0371 57.0312-63.0371C72.4121-63.0371 84.8633-50.5859 84.8633-35.2051C84.8633-19.8242 72.4121-7.37305 57.0312-7.37305C49.8047-7.37305 43.75-9.91211 38.3301-14.5996C35.0586-17.4805 30.7129-18.4082 27.5391-15.2832C24.7559-12.5 24.9023-8.34961 28.3691-4.54102C34.4727 2.19727 47.0215 6.78711 57.0312 6.78711ZM10.8887-45.0195C6.73828-45.0195 5.76172-40.8691 7.95898-38.0859L20.8008-21.7773C22.2168-20.0195 25-20.0195 26.416-21.7773L39.209-38.0859C41.3574-40.8203 40.4297-45.0195 36.3281-45.0195ZM57.0312-15.4785C57.8613-15.4785 58.4473-16.0645 58.4473-16.9922L58.4473-19.043C65.9668-19.5801 70.7031-23.584 70.7031-29.541C70.7031-34.8145 67.4805-37.5488 60.791-38.9648L58.4473-39.4531L58.4473-43.8965C59.5703-43.6523 60.3516-43.0664 60.9375-42.2363C62.1582-40.4785 63.5254-39.6973 65.4297-39.6973C68.0664-39.6973 69.6777-41.1133 69.6777-43.2617C69.6777-43.8965 69.5312-44.5801 69.3359-45.166C68.2129-48.2422 64.5996-51.0742 58.4473-51.5137L58.4473-53.7109C58.4473-54.6387 57.8613-55.2246 57.0312-55.2246C56.2012-55.2246 55.6152-54.6387 55.6152-53.7109L55.6152-51.5137C48.5352-51.1719 43.5059-47.2656 43.5059-41.2598C43.5059-35.8398 46.9727-32.9102 53.3203-31.5918L55.6152-31.1035L55.6152-26.5625C54.1016-26.7578 53.2227-27.3926 52.7344-28.2715C51.7578-29.9316 50.4395-30.957 48.3887-30.957C45.459-30.957 43.8965-29.2969 43.8965-26.9043C43.8965-26.3184 43.9941-25.6348 44.3359-24.9023C45.459-22.4121 48.6816-19.2871 55.6152-18.9941L55.6152-16.9922C55.6152-16.0645 56.2012-15.4785 57.0312-15.4785ZM55.6152-40.0879L55.3711-40.1367C53.8574-40.4297 53.0273-41.0645 53.0273-42.1387C53.0273-43.2617 54.0527-43.9941 55.6152-44.043ZM58.4473-30.5176L58.6914-30.4688C60.4492-30.127 61.2305-29.6387 61.2305-28.5156C61.2305-27.3438 60.1562-26.7578 58.4473-26.5625Z"/>
  </g>
  <g id="Regular-S" transform="matrix(1 0 0 1 1399.84 696)">
   <path class="SFSymbolsPreviewWireframe" d="M53.7109 4.15039C75.2441 4.15039 93.1641-13.7207 93.1641-35.2539C93.1641-56.7871 75.2441-74.6582 53.7109-74.6582C32.1777-74.6582 14.3066-56.8359 14.3066-35.3027L21.7773-35.3027C21.7773-53.0762 35.9375-67.1875 53.7109-67.1875C71.4844-67.1875 85.6934-53.0273 85.6934-35.2539C85.6934-17.4805 71.4844-3.17383 53.7109-3.27148C43.2617-3.32031 34.0332-8.20312 28.2715-15.8691C26.9531-17.6758 24.8535-18.2129 23.0469-17.0898C21.2402-16.0156 20.8008-13.5742 22.2656-11.6699C29.6387-2.14844 41.0156 4.15039 53.7109 4.15039ZM9.86328-42.8711C6.78711-42.8711 6.05469-40.7715 7.71484-38.4277L16.4062-26.0742C17.7734-24.1699 19.8242-24.1699 21.1426-26.0742L29.834-38.4766C31.4453-40.7715 30.6641-42.8711 27.6367-42.8711ZM53.7109-13.1836C54.8828-13.1836 55.7129-14.0137 55.7129-15.1855L55.7129-17.7734C61.5723-18.4082 66.2598-21.7773 66.2598-27.7832C66.2598-33.1055 62.793-36.377 56.0547-37.5L55.7129-37.5488L55.7129-47.7051C58.1055-47.168 59.7656-45.7031 60.5957-43.2617C61.0352-42.041 61.8652-41.2109 63.2324-41.2109C64.6973-41.2109 65.7227-42.2363 65.7227-43.75C65.7227-44.1406 65.625-44.5312 65.5273-44.9707C64.502-49.2188 60.5957-52.002 55.7129-52.5879L55.7129-55.2734C55.7129-56.4453 54.8828-57.2266 53.7109-57.2266C52.5879-57.2266 51.7578-56.4453 51.7578-55.2734L51.7578-52.5879C45.8496-51.9043 41.7969-48.2422 41.7969-42.9199C41.7969-37.8906 45.1172-34.9121 51.5625-33.3984L51.7578-33.3496L51.7578-22.6562C48.584-23.1445 46.875-24.8535 46.1914-27.1484C45.7031-28.5645 44.7754-29.248 43.5547-29.248C42.0898-29.248 41.0645-28.2227 41.0645-26.7578C41.0645-26.3184 41.1621-25.9277 41.2598-25.4883C42.3828-21.0938 46.7285-18.4082 51.7578-17.8223L51.7578-15.1855C51.7578-14.0137 52.5879-13.1836 53.7109-13.1836ZM51.7578-38.623L51.4648-38.7207C48.3887-39.6973 47.0703-41.1133 47.0703-43.2129C47.0703-45.2637 48.7305-47.0703 51.7578-47.7051ZM55.7129-32.3242L56.543-32.1289C59.9121-31.1523 60.9375-29.6387 60.9375-27.4414C60.9375-24.9512 59.375-23.0957 55.7129-22.6562Z"/>
  </g>
  <g id="Ultralight-S" transform="matrix(1 0 0 1 512.05 696)">
   <path class="SFSymbolsPreviewWireframe" d="M51.2588 1.97072C71.7476 1.97072 88.4869-14.8105 88.4869-35.2539C88.4869-55.6973 71.7476-72.4785 51.2588-72.4785C30.8154-72.4785 14.0342-55.7007 14.0342-35.2573L16.2828-35.2573C16.2828-54.5747 31.9868-70.23 51.2588-70.23C70.5762-70.23 86.2837-54.5713 86.2837-35.2539C86.2837-15.9365 70.5762-0.267601 51.2588-0.274438C38.3575-0.277856 27.2671-7.38575 21.0059-17.7309C20.6412-18.2661 19.9947-18.4399 19.4595-18.1797C18.9243-17.8774 18.7119-17.207 19.1323-16.5742C26.0967-5.78122 37.6099 1.97072 51.2588 1.97072ZM8.22853-41.645C6.87793-41.645 6.41797-40.7261 7.26075-39.5176L15.2256-28.1177C15.957-27.0761 16.8726-27.0761 17.6006-28.1177L25.5201-39.4756C26.4048-40.7261 25.896-41.645 24.5943-41.645ZM51.2134-14.3188C51.7949-14.3188 52.2617-14.6948 52.2617-15.2764L52.2617-18.4546C58.5752-18.8169 62.8086-22.5039 62.8086-27.3745C62.8086-31.7886 59.8413-34.4697 53.5117-35.9107L52.2617-36.1865L52.2617-49.249C56.4707-48.939 59.5386-46.5205 60.0508-43.3071C60.1724-42.5859 60.5029-42.21 61.1436-42.21C61.7456-42.21 62.1807-42.645 62.1807-43.3413C62.1807-43.6411 62.1284-43.9409 62.0762-44.2441C61.2779-48.0381 57.3716-51.0483 52.2617-51.3164L52.2617-54.002C52.2617-54.5835 51.7949-55.0015 51.2134-55.0015C50.6353-55.0015 50.2593-54.6289 50.2593-54.002L50.2593-51.3164C44.8052-50.9961 40.48-47.5156 40.48-42.8745C40.48-38.7534 43.4824-36.0928 49.6099-34.6699L50.2593-34.5303L50.2593-20.5674C45.5869-20.9195 42.1524-23.582 41.7412-27.4209C41.7071-28.1104 41.3697-28.5215 40.6939-28.5215C40.1372-28.5215 39.7022-28.0864 39.7022-27.3481C39.7022-27.0449 39.7544-26.7451 39.8067-26.4419C40.6572-22.0019 44.6851-18.8169 50.2593-18.5034L50.2593-15.2764C50.2593-14.6494 50.6807-14.3188 51.2134-14.3188ZM50.2593-36.6704L50.0571-36.7227C45.1646-37.8809 42.5747-39.6602 42.5747-42.895C42.5747-46.3989 45.9605-48.9321 50.2593-49.249ZM52.2617-34.0498L53.0918-33.8545C58.3682-32.6509 60.7105-30.7285 60.7105-27.3506C60.7105-23.5889 57.3316-20.8252 52.2617-20.5674Z"/>
  </g>
 </g>
</svg>
