<?xml version="1.0" encoding="UTF-8"?>
<!--Generator: Apple Native CoreSVG 232.5-->
<!DOCTYPE svg
PUBLIC "-//W3C//DTD SVG 1.1//EN"
       "http://www.w3.org/Graphics/SVG/1.1/DTD/svg11.dtd">
<svg version="1.1" xmlns="http://www.w3.org/2000/svg" xmlns:xlink="http://www.w3.org/1999/xlink" width="3300" height="2200">
 <!--glyph: "uni100319.medium", point size: 100.0, font version: "19.2d2e1", template writer version: "128"-->
 <style>.SFSymbolsPreviewWireframe {fill:none;opacity:1.0;stroke:black;stroke-width:0.5}
</style>
 <g id="Notes">
  <rect height="2200" id="artboard" style="fill:white;opacity:1" width="3300" x="0" y="0"/>
  <line style="fill:none;stroke:black;opacity:1;stroke-width:0.5;" x1="263" x2="3036" y1="292" y2="292"/>
  <text style="stroke:none;fill:black;font-family:sans-serif;font-size:13;font-weight:bold;" transform="matrix(1 0 0 1 263 322)">Weight/Scale Variations</text>
  <text style="stroke:none;fill:black;font-family:sans-serif;font-size:13;text-anchor:middle;" transform="matrix(1 0 0 1 559.711 322)">Ultralight</text>
  <text style="stroke:none;fill:black;font-family:sans-serif;font-size:13;text-anchor:middle;" transform="matrix(1 0 0 1 856.422 322)">Thin</text>
  <text style="stroke:none;fill:black;font-family:sans-serif;font-size:13;text-anchor:middle;" transform="matrix(1 0 0 1 1153.13 322)">Light</text>
  <text style="stroke:none;fill:black;font-family:sans-serif;font-size:13;text-anchor:middle;" transform="matrix(1 0 0 1 1449.84 322)">Regular</text>
  <text style="stroke:none;fill:black;font-family:sans-serif;font-size:13;text-anchor:middle;" transform="matrix(1 0 0 1 1746.56 322)">Medium</text>
  <text style="stroke:none;fill:black;font-family:sans-serif;font-size:13;text-anchor:middle;" transform="matrix(1 0 0 1 2043.27 322)">Semibold</text>
  <text style="stroke:none;fill:black;font-family:sans-serif;font-size:13;text-anchor:middle;" transform="matrix(1 0 0 1 2339.98 322)">Bold</text>
  <text style="stroke:none;fill:black;font-family:sans-serif;font-size:13;text-anchor:middle;" transform="matrix(1 0 0 1 2636.69 322)">Heavy</text>
  <text style="stroke:none;fill:black;font-family:sans-serif;font-size:13;text-anchor:middle;" transform="matrix(1 0 0 1 2933.4 322)">Black</text>
  <line style="fill:none;stroke:black;opacity:1;stroke-width:0.5;" x1="263" x2="3036" y1="1903" y2="1903"/>
  <g transform="matrix(0.2 0 0 0.2 263 1933)">
   <path d="m46.2402 4.15039c21.5332 0 39.4531-17.8711 39.4531-39.4043s-17.9688-39.4043-39.502-39.4043c-21.4844 0-39.3555 17.8711-39.3555 39.4043s17.9199 39.4043 39.4043 39.4043Zm0-7.42188c-17.7246 0-31.8848-14.209-31.8848-31.9824s14.1113-31.9824 31.8359-31.9824c17.7734 0 32.0312 14.209 32.0312 31.9824s-14.209 31.9824-31.9824 31.9824Zm-17.9688-31.9824c0 2.14844 1.51367 3.61328 3.75977 3.61328h10.498v10.5957c0 2.19727 1.46484 3.71094 3.61328 3.71094 2.24609 0 3.71094-1.51367 3.71094-3.71094v-10.5957h10.5957c2.19727 0 3.71094-1.46484 3.71094-3.61328 0-2.19727-1.51367-3.71094-3.71094-3.71094h-10.5957v-10.5469c0-2.24609-1.46484-3.75977-3.71094-3.75977-2.14844 0-3.61328 1.51367-3.61328 3.75977v10.5469h-10.498c-2.24609 0-3.75977 1.51367-3.75977 3.71094Z"/>
  </g>
  <g transform="matrix(0.2 0 0 0.2 281.506 1933)">
   <path d="m58.5449 14.5508c27.2461 0 49.8047-22.6074 49.8047-49.8047 0-27.2461-22.6074-49.8047-49.8535-49.8047-27.1973 0-49.7559 22.5586-49.7559 49.8047 0 27.1973 22.6074 49.8047 49.8047 49.8047Zm0-8.30078c-23.0469 0-41.4551-18.457-41.4551-41.5039s18.3594-41.5039 41.4062-41.5039 41.5527 18.457 41.5527 41.5039-18.457 41.5039-41.5039 41.5039Zm-22.6562-41.5039c0 2.39258 1.66016 4.00391 4.15039 4.00391h14.3555v14.4043c0 2.44141 1.66016 4.15039 4.05273 4.15039 2.44141 0 4.15039-1.66016 4.15039-4.15039v-14.4043h14.4043c2.44141 0 4.15039-1.61133 4.15039-4.00391 0-2.44141-1.70898-4.15039-4.15039-4.15039h-14.4043v-14.3555c0-2.49023-1.70898-4.19922-4.15039-4.19922-2.39258 0-4.05273 1.70898-4.05273 4.19922v14.3555h-14.3555c-2.49023 0-4.15039 1.70898-4.15039 4.15039Z"/>
  </g>
  <g transform="matrix(0.2 0 0 0.2 304.924 1933)">
   <path d="m74.8535 28.3203c34.8145 0 63.623-28.8086 63.623-63.5742 0-34.8145-28.8574-63.623-63.6719-63.623-34.7656 0-63.5254 28.8086-63.5254 63.623 0 34.7656 28.8086 63.5742 63.5742 63.5742Zm0-9.08203c-30.1758 0-54.4434-24.3164-54.4434-54.4922 0-30.2246 24.2188-54.4922 54.3945-54.4922 30.2246 0 54.541 24.2676 54.541 54.4922 0 30.1758-24.2676 54.4922-54.4922 54.4922Zm-28.8574-54.4922c0 2.58789 1.85547 4.39453 4.58984 4.39453h19.7266v19.7754c0 2.68555 1.85547 4.58984 4.44336 4.58984 2.68555 0 4.54102-1.85547 4.54102-4.58984v-19.7754h19.7754c2.68555 0 4.58984-1.80664 4.58984-4.39453 0-2.73438-1.85547-4.58984-4.58984-4.58984h-19.7754v-19.7266c0-2.73438-1.85547-4.63867-4.54102-4.63867-2.58789 0-4.44336 1.9043-4.44336 4.63867v19.7266h-19.7266c-2.73438 0-4.58984 1.85547-4.58984 4.58984Z"/>
  </g>
  <text style="stroke:none;fill:black;font-family:sans-serif;font-size:13;font-weight:bold;" transform="matrix(1 0 0 1 263 1953)">Design Variations</text>
  <text style="stroke:none;fill:black;font-family:sans-serif;font-size:13;" transform="matrix(1 0 0 1 263 1971)">Symbols are supported in up to nine weights and three scales.</text>
  <text style="stroke:none;fill:black;font-family:sans-serif;font-size:13;" transform="matrix(1 0 0 1 263 1989)">For optimal layout with text and other symbols, vertically align</text>
  <text style="stroke:none;fill:black;font-family:sans-serif;font-size:13;" transform="matrix(1 0 0 1 263 2007)">symbols with the adjacent text.</text>
  <line style="fill:none;stroke:#00AEEF;stroke-width:0.5;opacity:1.0;" x1="776" x2="776" y1="1919" y2="1933"/>
  <g transform="matrix(0.2 0 0 0.2 776 1933)">
   <path d="m16.5527 0.78125c2.58789 0 3.85742-0.976562 4.78516-3.71094l6.29883-17.2363h28.8086l6.29883 17.2363c0.927734 2.73438 2.19727 3.71094 4.73633 3.71094 2.58789 0 4.24805-1.5625 4.24805-4.00391 0-0.830078-0.146484-1.61133-0.537109-2.63672l-22.9004-60.9863c-1.12305-2.97852-3.125-4.49219-6.25-4.49219-3.02734 0-5.07812 1.46484-6.15234 4.44336l-22.9004 61.084c-0.390625 1.02539-0.537109 1.80664-0.537109 2.63672 0 2.44141 1.5625 3.95508 4.10156 3.95508Zm13.4766-28.3691 11.8652-32.8613h0.244141l11.8652 32.8613Z"/>
  </g>
  <line style="fill:none;stroke:#00AEEF;stroke-width:0.5;opacity:1.0;" x1="792.836" x2="792.836" y1="1919" y2="1933"/>
  <text style="stroke:none;fill:black;font-family:sans-serif;font-size:13;font-weight:bold;" transform="matrix(1 0 0 1 776 1953)">Margins</text>
  <text style="stroke:none;fill:black;font-family:sans-serif;font-size:13;" transform="matrix(1 0 0 1 776 1971)">Leading and trailing margins on the left and right side of each symbol</text>
  <text style="stroke:none;fill:black;font-family:sans-serif;font-size:13;" transform="matrix(1 0 0 1 776 1989)">can be adjusted by modifying the x-location of the margin guidelines.</text>
  <text style="stroke:none;fill:black;font-family:sans-serif;font-size:13;" transform="matrix(1 0 0 1 776 2007)">Modifications are automatically applied proportionally to all</text>
  <text style="stroke:none;fill:black;font-family:sans-serif;font-size:13;" transform="matrix(1 0 0 1 776 2025)">scales and weights.</text>
  <g transform="matrix(0.2 0 0 0.2 1289 1933)">
   <path d="m14.209 9.32617 8.49609 8.54492c4.29688 4.3457 9.22852 4.05273 13.8672-1.07422l53.4668-58.9355-4.83398-4.88281-53.0762 58.3984c-1.75781 2.00195-3.41797 2.49023-5.76172 0.146484l-5.85938-5.81055c-2.34375-2.29492-1.80664-4.00391 0.195312-5.81055l57.373-54.0039-4.88281-4.83398-57.959 54.4434c-4.93164 4.58984-5.32227 9.47266-1.02539 13.8184Zm32.0801-90.9668c-2.09961 2.05078-2.24609 4.93164-1.07422 6.88477 1.17188 1.80664 3.4668 2.97852 6.68945 2.14844 7.32422-1.70898 14.9414-2.00195 22.0703 2.68555l-2.92969 7.27539c-1.70898 4.15039-0.830078 7.08008 1.85547 9.81445l11.4746 11.5723c2.44141 2.44141 4.49219 2.53906 7.32422 2.05078l5.32227-0.976562 3.32031 3.36914-0.195312 2.7832c-0.195312 2.49023 0.439453 4.39453 2.88086 6.78711l3.80859 3.71094c2.39258 2.39258 5.46875 2.53906 7.8125 0.195312l14.5508-14.5996c2.34375-2.34375 2.24609-5.32227-0.146484-7.71484l-3.85742-3.80859c-2.39258-2.39258-4.24805-3.17383-6.64062-2.97852l-2.88086 0.244141-3.22266-3.17383 1.2207-5.61523c0.634766-2.83203-0.146484-5.0293-3.07617-7.95898l-10.9863-10.9375c-16.6992-16.6016-38.8672-16.2109-53.3203-1.75781Zm7.4707 1.85547c12.1582-8.88672 28.6133-7.37305 39.7461 3.75977l12.1582 12.0605c1.17188 1.17188 1.36719 2.09961 1.02539 3.80859l-1.61133 7.42188 7.51953 7.42188 4.93164-0.292969c1.26953-0.0488281 1.66016 0.0488281 2.63672 1.02539l2.88086 2.88086-12.207 12.207-2.88086-2.88086c-0.976562-0.976562-1.12305-1.36719-1.07422-2.68555l0.341797-4.88281-7.4707-7.42188-7.61719 1.26953c-1.61133 0.341797-2.34375 0.195312-3.56445-0.976562l-10.0098-10.0098c-1.26953-1.17188-1.41602-2.00195-0.634766-3.85742l4.39453-10.4492c-7.8125-7.27539-17.9688-10.4004-28.125-7.42188-0.78125 0.195312-1.07422-0.439453-0.439453-0.976562Z"/>
  </g>
  <text style="stroke:none;fill:black;font-family:sans-serif;font-size:13;font-weight:bold;" transform="matrix(1 0 0 1 1289 1953)">Exporting</text>
  <text style="stroke:none;fill:black;font-family:sans-serif;font-size:13;" transform="matrix(1 0 0 1 1289 1971)">Symbols should be outlined when exporting to ensure the</text>
  <text style="stroke:none;fill:black;font-family:sans-serif;font-size:13;" transform="matrix(1 0 0 1 1289 1989)">design is preserved when submitting to Xcode.</text>
  <text id="template-version" style="stroke:none;fill:black;font-family:sans-serif;font-size:13;text-anchor:end;" transform="matrix(1 0 0 1 3036 1933)">Template v.5.0</text>
  <text style="stroke:none;fill:black;font-family:sans-serif;font-size:13;text-anchor:end;" transform="matrix(1 0 0 1 3036 1951)">Requires Xcode 15 or greater</text>
  <text id="descriptive-name" style="stroke:none;fill:black;font-family:sans-serif;font-size:13;text-anchor:end;" transform="matrix(1 0 0 1 3036 1969)">Generated from dot.radiowaves.left.and.right</text>
  <text style="stroke:none;fill:black;font-family:sans-serif;font-size:13;text-anchor:end;" transform="matrix(1 0 0 1 3036 1987)">Typeset at 100.0 points</text>
  <text style="stroke:none;fill:black;font-family:sans-serif;font-size:13;" transform="matrix(1 0 0 1 263 726)">Small</text>
  <text style="stroke:none;fill:black;font-family:sans-serif;font-size:13;" transform="matrix(1 0 0 1 263 1156)">Medium</text>
  <text style="stroke:none;fill:black;font-family:sans-serif;font-size:13;" transform="matrix(1 0 0 1 263 1586)">Large</text>
 </g>
 <g id="Guides">
  <g id="H-reference" style="fill:#27AAE1;stroke:none;" transform="matrix(1 0 0 1 339 696)">
   <path d="M0.993654 0L3.63775 0L29.3281-67.1323L30.0303-67.1323L30.0303-70.459L28.1226-70.459ZM11.6885-24.4799L46.9815-24.4799L46.2315-26.7285L12.4385-26.7285ZM55.1196 0L57.7637 0L30.6382-70.459L29.4326-70.459L29.4326-67.1323Z"/>
  </g>
  <line id="Baseline-S" style="fill:none;stroke:#27AAE1;opacity:1;stroke-width:0.5;" x1="263" x2="3036" y1="696" y2="696"/>
  <line id="Capline-S" style="fill:none;stroke:#27AAE1;opacity:1;stroke-width:0.5;" x1="263" x2="3036" y1="625.541" y2="625.541"/>
  <g id="H-reference" style="fill:#27AAE1;stroke:none;" transform="matrix(1 0 0 1 339 1126)">
   <path d="M0.993654 0L3.63775 0L29.3281-67.1323L30.0303-67.1323L30.0303-70.459L28.1226-70.459ZM11.6885-24.4799L46.9815-24.4799L46.2315-26.7285L12.4385-26.7285ZM55.1196 0L57.7637 0L30.6382-70.459L29.4326-70.459L29.4326-67.1323Z"/>
  </g>
  <line id="Baseline-M" style="fill:none;stroke:#27AAE1;opacity:1;stroke-width:0.5;" x1="263" x2="3036" y1="1126" y2="1126"/>
  <line id="Capline-M" style="fill:none;stroke:#27AAE1;opacity:1;stroke-width:0.5;" x1="263" x2="3036" y1="1055.54" y2="1055.54"/>
  <g id="H-reference" style="fill:#27AAE1;stroke:none;" transform="matrix(1 0 0 1 339 1556)">
   <path d="M0.993654 0L3.63775 0L29.3281-67.1323L30.0303-67.1323L30.0303-70.459L28.1226-70.459ZM11.6885-24.4799L46.9815-24.4799L46.2315-26.7285L12.4385-26.7285ZM55.1196 0L57.7637 0L30.6382-70.459L29.4326-70.459L29.4326-67.1323Z"/>
  </g>
  <line id="Baseline-L" style="fill:none;stroke:#27AAE1;opacity:1;stroke-width:0.5;" x1="263" x2="3036" y1="1556" y2="1556"/>
  <line id="Capline-L" style="fill:none;stroke:#27AAE1;opacity:1;stroke-width:0.5;" x1="263" x2="3036" y1="1485.54" y2="1485.54"/>
  <line id="left-margin-Ultralight-S" style="fill:none;stroke:#00AEEF;stroke-width:0.5;opacity:1.0;" x1="509.954" x2="509.954" y1="600.785" y2="720.121"/>
  <line id="right-margin-Ultralight-S" style="fill:none;stroke:#00AEEF;stroke-width:0.5;opacity:1.0;" x1="609.468" x2="609.468" y1="600.785" y2="720.121"/>
  <line id="left-margin-Regular-S" style="fill:none;stroke:#00AEEF;stroke-width:0.5;opacity:1.0;" x1="1391.64" x2="1391.64" y1="600.785" y2="720.121"/>
  <line id="right-margin-Regular-S" style="fill:none;stroke:#00AEEF;stroke-width:0.5;opacity:1.0;" x1="1508.05" x2="1508.05" y1="600.785" y2="720.121"/>
  <line id="left-margin-Black-S" style="fill:none;stroke:#00AEEF;stroke-width:0.5;opacity:1.0;" x1="2870.07" x2="2870.07" y1="600.785" y2="720.121"/>
  <line id="right-margin-Black-S" style="fill:none;stroke:#00AEEF;stroke-width:0.5;opacity:1.0;" x1="2996.73" x2="2996.73" y1="600.785" y2="720.121"/>
 </g>
 <g id="Symbols">
  <g id="Black-S" transform="matrix(1 0 0 1 2870.07 696)">
   <path class="SFSymbolsPreviewWireframe" d="M6.83594-35.2051C6.83594-22.0215 11.6211-9.66797 20.3613-0.439453C22.5098 1.85547 25.8789 1.9043 27.9297-0.341797C29.834-2.44141 29.541-5.46875 27.3926-7.76367C20.6543-14.9414 16.9922-24.6094 16.9922-35.2051C16.9922-45.8008 20.6543-55.4688 27.3926-62.6465C29.541-64.9414 29.834-67.9688 27.9297-70.0684C25.8789-72.3145 22.5098-72.2656 20.3613-69.9707C11.6211-60.7422 6.83594-48.3887 6.83594-35.2051ZM21.9238-35.2051C21.9238-25.6836 25.293-16.6504 31.3477-9.91211C33.5938-7.4707 37.1094-7.37305 39.1602-9.76562C41.0645-11.9141 40.7227-14.7461 38.5742-17.1387C34.3262-22.0703 32.0801-28.2715 32.0801-35.2051C32.0801-42.1387 34.3262-48.3398 38.5742-53.2715C40.7227-55.6641 41.0645-58.4961 39.1602-60.6445C37.1094-63.0371 33.5938-62.9395 31.3477-60.498C25.293-53.7598 21.9238-44.7266 21.9238-35.2051ZM37.0117-35.2051C37.0117-29.7852 38.8184-24.4629 42.041-20.2148C44.0918-17.5293 47.8516-17.334 50-19.7754C51.8555-21.7773 51.5137-24.3164 49.6094-27.0508C47.998-29.3457 47.168-32.0312 47.168-35.2051C47.168-38.3789 47.998-41.0645 49.6094-43.3594C51.5137-46.0938 51.8555-48.6328 50-50.6348C47.8516-53.0762 44.0918-52.8809 42.041-50.1953C38.8184-45.9473 37.0117-40.625 37.0117-35.2051ZM89.6484-35.2051C89.6484-40.625 87.8418-45.9473 84.6191-50.1953C82.5684-52.8809 78.8086-53.0762 76.6602-50.6348C74.8047-48.6328 75.1465-46.0938 77.0508-43.3594C78.6621-41.0645 79.4922-38.3789 79.4922-35.2051C79.4922-32.0312 78.6621-29.3457 77.0508-27.0508C75.1465-24.3164 74.8047-21.7773 76.6602-19.7754C78.8086-17.334 82.5684-17.5293 84.6191-20.2148C87.8418-24.4629 89.6484-29.7852 89.6484-35.2051ZM104.736-35.2051C104.736-44.7266 101.367-53.7598 95.3125-60.498C93.0664-62.9395 89.5508-63.0371 87.5-60.6445C85.5957-58.4961 85.9375-55.6641 88.0859-53.2715C92.334-48.3398 94.5801-42.1387 94.5801-35.2051C94.5801-28.2715 92.334-22.0703 88.0859-17.1387C85.9375-14.7461 85.5957-11.9141 87.5-9.76562C89.5508-7.37305 93.0664-7.4707 95.3125-9.91211C101.367-16.6504 104.736-25.6836 104.736-35.2051ZM119.824-35.2051C119.824-48.3887 115.039-60.7422 106.299-69.9707C104.15-72.2656 100.781-72.3145 98.7305-70.0684C96.8262-67.9688 97.1191-64.9414 99.2676-62.6465C106.006-55.4688 109.668-45.8008 109.668-35.2051C109.668-24.6094 106.006-14.9414 99.2676-7.76367C97.1191-5.46875 96.8262-2.44141 98.7305-0.341797C100.781 1.9043 104.15 1.85547 106.299-0.439453C115.039-9.66797 119.824-22.0215 119.824-35.2051ZM54.6387-35.1074C54.6387-30.4688 58.6914-26.5625 63.4277-26.5625C68.1641-26.5625 72.0703-30.4688 72.0703-35.2051C72.0703-40.0391 68.2129-43.9453 63.4277-43.9453C58.5938-43.9453 54.6387-39.8926 54.6387-35.1074Z"/>
  </g>
  <g id="Regular-S" transform="matrix(1 0 0 1 1391.64 696)">
   <path class="SFSymbolsPreviewWireframe" d="M6.83594-35.2051C6.83594-22.3145 11.5723-10.498 19.9219-1.70898C21.4355-0.0488281 23.584-0.244141 24.8047-1.61133C26.0742-2.97852 25.7812-4.93164 24.3164-6.49414C17.2363-14.0137 13.3301-24.1211 13.3301-35.2051C13.3301-46.2891 17.2363-56.3965 24.3164-63.916C25.7812-65.4785 26.0742-67.4805 24.8047-68.7988C23.584-70.166 21.4355-70.3613 19.9219-68.75C11.5723-59.9121 6.83594-48.0957 6.83594-35.2051ZM20.8496-35.2051C20.8496-26.0742 24.0234-17.5781 29.834-11.1328C31.3965-9.47266 33.5938-9.47266 34.9121-10.9375C36.1816-12.4023 35.8398-14.2578 34.375-15.918C29.834-21.0938 27.3438-27.832 27.3438-35.2051C27.3438-42.5781 29.834-49.3164 34.375-54.541C35.8398-56.1523 36.1816-58.0078 34.9121-59.4727C33.5938-60.9375 31.3965-60.9375 29.834-59.2773C24.0234-52.832 20.8496-44.3359 20.8496-35.2051ZM34.8633-35.2051C34.8633-30.0293 36.5723-25.1953 39.5508-21.2891C40.9668-19.4824 43.3594-19.4824 44.6777-20.9473C45.9961-22.4121 45.459-24.1699 44.1895-25.9277C42.2852-28.5156 41.3574-31.7383 41.3574-35.2051C41.3574-38.6719 42.2852-41.8945 44.1895-44.4824C45.459-46.2402 45.9961-47.998 44.6777-49.4629C43.3594-50.9277 40.9668-50.9277 39.5508-49.1211C36.5723-45.2637 34.8633-40.3809 34.8633-35.2051ZM81.543-35.2051C81.543-40.3809 79.834-45.2637 76.8066-49.1211C75.4395-50.9277 72.998-50.9277 71.6797-49.4629C70.4102-47.998 70.9473-46.2402 72.2168-44.4824C74.0723-41.8945 75.0488-38.6719 75.0488-35.2051C75.0488-31.7383 74.0723-28.5156 72.2168-25.9277C70.9473-24.1699 70.4102-22.4121 71.6797-20.9473C72.998-19.4824 75.4395-19.4824 76.8066-21.2891C79.834-25.1953 81.543-30.0293 81.543-35.2051ZM95.5566-35.2051C95.5566-44.3359 92.334-52.832 86.5234-59.2773C85.0098-60.9375 82.7637-60.9375 81.4453-59.4727C80.1758-58.0078 80.5664-56.1523 82.0312-54.541C86.5723-49.3164 89.0625-42.5781 89.0625-35.2051C89.0625-27.832 86.5723-21.0938 82.0312-15.918C80.5664-14.2578 80.1758-12.4023 81.4453-10.9375C82.7637-9.47266 85.0098-9.47266 86.5234-11.1328C92.334-17.5781 95.5566-26.0742 95.5566-35.2051ZM109.57-35.2051C109.57-48.0957 104.834-59.9121 96.4844-68.75C94.9219-70.3613 92.8223-70.166 91.6016-68.7988C90.332-67.4805 90.625-65.4785 92.0898-63.916C99.1699-56.3965 103.076-46.2891 103.076-35.2051C103.076-24.1211 99.1699-14.0137 92.0898-6.49414C90.625-4.93164 90.332-2.97852 91.6016-1.61133C92.8223-0.244141 94.9219-0.0488281 96.4844-1.70898C104.834-10.498 109.57-22.3145 109.57-35.2051ZM51.0742-35.1074C51.0742-31.3477 54.3457-28.125 58.252-28.125C62.1094-28.125 65.332-31.3477 65.332-35.2051C65.332-39.1113 62.1582-42.334 58.252-42.334C54.2969-42.334 51.0742-39.0137 51.0742-35.1074Z"/>
  </g>
  <g id="Ultralight-S" transform="matrix(1 0 0 1 509.954 696)">
   <path class="SFSymbolsPreviewWireframe" d="M6.83594-35.2505C6.83594-22.6323 12.0264-11.3608 20.4214-3.02587C20.936-2.45555 21.7222-2.46922 22.1709-2.97362C22.5323-3.3872 22.4663-4.11426 21.9551-4.58693C13.6035-12.8784 9.10697-23.667 9.10697-35.2505C9.10697-46.834 13.6035-57.6225 21.9551-65.914C22.4663-66.3867 22.5323-67.1172 22.1709-67.5274C21.7222-68.0318 20.936-68.0454 20.4214-67.4785C12.0264-59.1401 6.83594-47.8687 6.83594-35.2505ZM19.0332-35.2505C19.0332-26.3013 22.6157-18.2139 28.5625-12.3135C29.0806-11.7431 29.8247-11.6977 30.2349-12.1636C30.6871-12.6294 30.6631-13.395 30.1065-13.8745C24.4302-19.5952 21.3042-27.1509 21.3042-35.2505C21.3042-43.3501 24.4302-50.9057 30.1065-56.6299C30.6631-57.1059 30.6871-57.8716 30.2349-58.3374C29.8247-58.8032 29.0806-58.7578 28.5625-58.1875C22.6157-52.2871 19.0332-44.1997 19.0332-35.2505ZM31.2305-35.2505C31.2305-30.2109 33.1211-25.604 36.5083-22.1973C37.0161-21.6621 37.774-21.6621 38.275-22.1733C38.5943-22.6392 38.5567-23.3071 38.0137-23.7935C35.1558-26.7446 33.5015-30.7847 33.5015-35.2505C33.5015-39.7617 35.1558-43.7563 38.0137-46.7075C38.5567-47.1938 38.5943-47.8618 38.275-48.3276C37.774-48.8389 37.0161-48.8389 36.5083-48.3037C33.1211-44.9004 31.2305-40.29 31.2305-35.2505ZM68.2833-35.2505C68.2833-40.29 66.3927-44.9004 63.0021-48.3037C62.4977-48.8389 61.7364-48.8389 61.2354-48.3276C60.8741-47.8618 60.9571-47.1938 61.5001-46.7075C64.3546-43.7563 66.0123-39.7617 66.0123-35.2505C66.0123-30.7847 64.3546-26.7446 61.5001-23.7935C60.9571-23.3071 60.8741-22.6392 61.2354-22.1733C61.7364-21.6621 62.4977-21.6621 63.0021-22.1973C66.3927-25.604 68.2833-30.2109 68.2833-35.2505ZM80.4806-35.2505C80.4806-44.1997 76.8947-52.2871 70.9479-58.1875C70.4332-58.7578 69.6856-58.8032 69.2755-58.3374C68.8233-57.8716 68.8507-57.1059 69.4073-56.6299C75.0382-50.9057 78.2096-43.3501 78.2096-35.2505C78.2096-27.1509 75.0382-19.5952 69.4073-13.8745C68.8507-13.395 68.8233-12.6294 69.2755-12.1636C69.6856-11.6977 70.4332-11.7431 70.9479-12.3135C76.8947-18.2139 80.4806-26.3013 80.4806-35.2505ZM92.6779-35.2505C92.6779-47.8687 87.4874-59.1401 79.0924-67.4785C78.5743-68.0454 77.7916-68.0318 77.3429-67.5274C76.9816-67.1172 77.0021-66.3867 77.5587-65.914C85.9103-57.6225 90.4068-46.834 90.4068-35.2505C90.4068-23.667 85.9103-12.8784 77.5587-4.58693C77.0021-4.11426 76.9816-3.3872 77.3429-2.97362C77.7916-2.46922 78.5743-2.45555 79.0924-3.02587C87.4874-11.3608 92.6779-22.6323 92.6779-35.2505ZM43.4908-35.1528C43.4908-31.8472 46.399-29.0332 49.8057-29.0332C53.2091-29.0332 56.023-31.8472 56.023-35.2505C56.023-38.7026 53.2579-41.5166 49.8057-41.5166C46.3502-41.5166 43.4908-38.605 43.4908-35.1528Z"/>
  </g>
 </g>
</svg>
