<?xml version="1.0" encoding="UTF-8"?>
<!--Generator: Apple Native CoreSVG 232.5-->
<!DOCTYPE svg
PUBLIC "-//W3C//DTD SVG 1.1//EN"
       "http://www.w3.org/Graphics/SVG/1.1/DTD/svg11.dtd">
<svg version="1.1" xmlns="http://www.w3.org/2000/svg" xmlns:xlink="http://www.w3.org/1999/xlink" width="3300" height="2200">
 <!--glyph: "uni100998.medium", point size: 100.0, font version: "19.2d2e1", template writer version: "128"-->
 <style>.SFSymbolsPreviewWireframe {fill:none;opacity:1.0;stroke:black;stroke-width:0.5}
</style>
 <g id="Notes">
  <rect height="2200" id="artboard" style="fill:white;opacity:1" width="3300" x="0" y="0"/>
  <line style="fill:none;stroke:black;opacity:1;stroke-width:0.5;" x1="263" x2="3036" y1="292" y2="292"/>
  <text style="stroke:none;fill:black;font-family:sans-serif;font-size:13;font-weight:bold;" transform="matrix(1 0 0 1 263 322)">Weight/Scale Variations</text>
  <text style="stroke:none;fill:black;font-family:sans-serif;font-size:13;text-anchor:middle;" transform="matrix(1 0 0 1 559.711 322)">Ultralight</text>
  <text style="stroke:none;fill:black;font-family:sans-serif;font-size:13;text-anchor:middle;" transform="matrix(1 0 0 1 856.422 322)">Thin</text>
  <text style="stroke:none;fill:black;font-family:sans-serif;font-size:13;text-anchor:middle;" transform="matrix(1 0 0 1 1153.13 322)">Light</text>
  <text style="stroke:none;fill:black;font-family:sans-serif;font-size:13;text-anchor:middle;" transform="matrix(1 0 0 1 1449.84 322)">Regular</text>
  <text style="stroke:none;fill:black;font-family:sans-serif;font-size:13;text-anchor:middle;" transform="matrix(1 0 0 1 1746.56 322)">Medium</text>
  <text style="stroke:none;fill:black;font-family:sans-serif;font-size:13;text-anchor:middle;" transform="matrix(1 0 0 1 2043.27 322)">Semibold</text>
  <text style="stroke:none;fill:black;font-family:sans-serif;font-size:13;text-anchor:middle;" transform="matrix(1 0 0 1 2339.98 322)">Bold</text>
  <text style="stroke:none;fill:black;font-family:sans-serif;font-size:13;text-anchor:middle;" transform="matrix(1 0 0 1 2636.69 322)">Heavy</text>
  <text style="stroke:none;fill:black;font-family:sans-serif;font-size:13;text-anchor:middle;" transform="matrix(1 0 0 1 2933.4 322)">Black</text>
  <line style="fill:none;stroke:black;opacity:1;stroke-width:0.5;" x1="263" x2="3036" y1="1903" y2="1903"/>
  <g transform="matrix(0.2 0 0 0.2 263 1933)">
   <path d="m46.2402 4.15039c21.5332 0 39.4531-17.8711 39.4531-39.4043s-17.9688-39.4043-39.502-39.4043c-21.4844 0-39.3555 17.8711-39.3555 39.4043s17.9199 39.4043 39.4043 39.4043Zm0-7.42188c-17.7246 0-31.8848-14.209-31.8848-31.9824s14.1113-31.9824 31.8359-31.9824c17.7734 0 32.0312 14.209 32.0312 31.9824s-14.209 31.9824-31.9824 31.9824Zm-17.9688-31.9824c0 2.14844 1.51367 3.61328 3.75977 3.61328h10.498v10.5957c0 2.19727 1.46484 3.71094 3.61328 3.71094 2.24609 0 3.71094-1.51367 3.71094-3.71094v-10.5957h10.5957c2.19727 0 3.71094-1.46484 3.71094-3.61328 0-2.19727-1.51367-3.71094-3.71094-3.71094h-10.5957v-10.5469c0-2.24609-1.46484-3.75977-3.71094-3.75977-2.14844 0-3.61328 1.51367-3.61328 3.75977v10.5469h-10.498c-2.24609 0-3.75977 1.51367-3.75977 3.71094Z"/>
  </g>
  <g transform="matrix(0.2 0 0 0.2 281.506 1933)">
   <path d="m58.5449 14.5508c27.2461 0 49.8047-22.6074 49.8047-49.8047 0-27.2461-22.6074-49.8047-49.8535-49.8047-27.1973 0-49.7559 22.5586-49.7559 49.8047 0 27.1973 22.6074 49.8047 49.8047 49.8047Zm0-8.30078c-23.0469 0-41.4551-18.457-41.4551-41.5039s18.3594-41.5039 41.4062-41.5039 41.5527 18.457 41.5527 41.5039-18.457 41.5039-41.5039 41.5039Zm-22.6562-41.5039c0 2.39258 1.66016 4.00391 4.15039 4.00391h14.3555v14.4043c0 2.44141 1.66016 4.15039 4.05273 4.15039 2.44141 0 4.15039-1.66016 4.15039-4.15039v-14.4043h14.4043c2.44141 0 4.15039-1.61133 4.15039-4.00391 0-2.44141-1.70898-4.15039-4.15039-4.15039h-14.4043v-14.3555c0-2.49023-1.70898-4.19922-4.15039-4.19922-2.39258 0-4.05273 1.70898-4.05273 4.19922v14.3555h-14.3555c-2.49023 0-4.15039 1.70898-4.15039 4.15039Z"/>
  </g>
  <g transform="matrix(0.2 0 0 0.2 304.924 1933)">
   <path d="m74.8535 28.3203c34.8145 0 63.623-28.8086 63.623-63.5742 0-34.8145-28.8574-63.623-63.6719-63.623-34.7656 0-63.5254 28.8086-63.5254 63.623 0 34.7656 28.8086 63.5742 63.5742 63.5742Zm0-9.08203c-30.1758 0-54.4434-24.3164-54.4434-54.4922 0-30.2246 24.2188-54.4922 54.3945-54.4922 30.2246 0 54.541 24.2676 54.541 54.4922 0 30.1758-24.2676 54.4922-54.4922 54.4922Zm-28.8574-54.4922c0 2.58789 1.85547 4.39453 4.58984 4.39453h19.7266v19.7754c0 2.68555 1.85547 4.58984 4.44336 4.58984 2.68555 0 4.54102-1.85547 4.54102-4.58984v-19.7754h19.7754c2.68555 0 4.58984-1.80664 4.58984-4.39453 0-2.73438-1.85547-4.58984-4.58984-4.58984h-19.7754v-19.7266c0-2.73438-1.85547-4.63867-4.54102-4.63867-2.58789 0-4.44336 1.9043-4.44336 4.63867v19.7266h-19.7266c-2.73438 0-4.58984 1.85547-4.58984 4.58984Z"/>
  </g>
  <text style="stroke:none;fill:black;font-family:sans-serif;font-size:13;font-weight:bold;" transform="matrix(1 0 0 1 263 1953)">Design Variations</text>
  <text style="stroke:none;fill:black;font-family:sans-serif;font-size:13;" transform="matrix(1 0 0 1 263 1971)">Symbols are supported in up to nine weights and three scales.</text>
  <text style="stroke:none;fill:black;font-family:sans-serif;font-size:13;" transform="matrix(1 0 0 1 263 1989)">For optimal layout with text and other symbols, vertically align</text>
  <text style="stroke:none;fill:black;font-family:sans-serif;font-size:13;" transform="matrix(1 0 0 1 263 2007)">symbols with the adjacent text.</text>
  <line style="fill:none;stroke:#00AEEF;stroke-width:0.5;opacity:1.0;" x1="776" x2="776" y1="1919" y2="1933"/>
  <g transform="matrix(0.2 0 0 0.2 776 1933)">
   <path d="m16.5527 0.78125c2.58789 0 3.85742-0.976562 4.78516-3.71094l6.29883-17.2363h28.8086l6.29883 17.2363c0.927734 2.73438 2.19727 3.71094 4.73633 3.71094 2.58789 0 4.24805-1.5625 4.24805-4.00391 0-0.830078-0.146484-1.61133-0.537109-2.63672l-22.9004-60.9863c-1.12305-2.97852-3.125-4.49219-6.25-4.49219-3.02734 0-5.07812 1.46484-6.15234 4.44336l-22.9004 61.084c-0.390625 1.02539-0.537109 1.80664-0.537109 2.63672 0 2.44141 1.5625 3.95508 4.10156 3.95508Zm13.4766-28.3691 11.8652-32.8613h0.244141l11.8652 32.8613Z"/>
  </g>
  <line style="fill:none;stroke:#00AEEF;stroke-width:0.5;opacity:1.0;" x1="792.836" x2="792.836" y1="1919" y2="1933"/>
  <text style="stroke:none;fill:black;font-family:sans-serif;font-size:13;font-weight:bold;" transform="matrix(1 0 0 1 776 1953)">Margins</text>
  <text style="stroke:none;fill:black;font-family:sans-serif;font-size:13;" transform="matrix(1 0 0 1 776 1971)">Leading and trailing margins on the left and right side of each symbol</text>
  <text style="stroke:none;fill:black;font-family:sans-serif;font-size:13;" transform="matrix(1 0 0 1 776 1989)">can be adjusted by modifying the x-location of the margin guidelines.</text>
  <text style="stroke:none;fill:black;font-family:sans-serif;font-size:13;" transform="matrix(1 0 0 1 776 2007)">Modifications are automatically applied proportionally to all</text>
  <text style="stroke:none;fill:black;font-family:sans-serif;font-size:13;" transform="matrix(1 0 0 1 776 2025)">scales and weights.</text>
  <g transform="matrix(0.2 0 0 0.2 1289 1933)">
   <path d="m14.209 9.32617 8.49609 8.54492c4.29688 4.3457 9.22852 4.05273 13.8672-1.07422l53.4668-58.9355-4.83398-4.88281-53.0762 58.3984c-1.75781 2.00195-3.41797 2.49023-5.76172 0.146484l-5.85938-5.81055c-2.34375-2.29492-1.80664-4.00391 0.195312-5.81055l57.373-54.0039-4.88281-4.83398-57.959 54.4434c-4.93164 4.58984-5.32227 9.47266-1.02539 13.8184Zm32.0801-90.9668c-2.09961 2.05078-2.24609 4.93164-1.07422 6.88477 1.17188 1.80664 3.4668 2.97852 6.68945 2.14844 7.32422-1.70898 14.9414-2.00195 22.0703 2.68555l-2.92969 7.27539c-1.70898 4.15039-0.830078 7.08008 1.85547 9.81445l11.4746 11.5723c2.44141 2.44141 4.49219 2.53906 7.32422 2.05078l5.32227-0.976562 3.32031 3.36914-0.195312 2.7832c-0.195312 2.49023 0.439453 4.39453 2.88086 6.78711l3.80859 3.71094c2.39258 2.39258 5.46875 2.53906 7.8125 0.195312l14.5508-14.5996c2.34375-2.34375 2.24609-5.32227-0.146484-7.71484l-3.85742-3.80859c-2.39258-2.39258-4.24805-3.17383-6.64062-2.97852l-2.88086 0.244141-3.22266-3.17383 1.2207-5.61523c0.634766-2.83203-0.146484-5.0293-3.07617-7.95898l-10.9863-10.9375c-16.6992-16.6016-38.8672-16.2109-53.3203-1.75781Zm7.4707 1.85547c12.1582-8.88672 28.6133-7.37305 39.7461 3.75977l12.1582 12.0605c1.17188 1.17188 1.36719 2.09961 1.02539 3.80859l-1.61133 7.42188 7.51953 7.42188 4.93164-0.292969c1.26953-0.0488281 1.66016 0.0488281 2.63672 1.02539l2.88086 2.88086-12.207 12.207-2.88086-2.88086c-0.976562-0.976562-1.12305-1.36719-1.07422-2.68555l0.341797-4.88281-7.4707-7.42188-7.61719 1.26953c-1.61133 0.341797-2.34375 0.195312-3.56445-0.976562l-10.0098-10.0098c-1.26953-1.17188-1.41602-2.00195-0.634766-3.85742l4.39453-10.4492c-7.8125-7.27539-17.9688-10.4004-28.125-7.42188-0.78125 0.195312-1.07422-0.439453-0.439453-0.976562Z"/>
  </g>
  <text style="stroke:none;fill:black;font-family:sans-serif;font-size:13;font-weight:bold;" transform="matrix(1 0 0 1 1289 1953)">Exporting</text>
  <text style="stroke:none;fill:black;font-family:sans-serif;font-size:13;" transform="matrix(1 0 0 1 1289 1971)">Symbols should be outlined when exporting to ensure the</text>
  <text style="stroke:none;fill:black;font-family:sans-serif;font-size:13;" transform="matrix(1 0 0 1 1289 1989)">design is preserved when submitting to Xcode.</text>
  <text id="template-version" style="stroke:none;fill:black;font-family:sans-serif;font-size:13;text-anchor:end;" transform="matrix(1 0 0 1 3036 1933)">Template v.5.0</text>
  <text style="stroke:none;fill:black;font-family:sans-serif;font-size:13;text-anchor:end;" transform="matrix(1 0 0 1 3036 1951)">Requires Xcode 15 or greater</text>
  <text id="descriptive-name" style="stroke:none;fill:black;font-family:sans-serif;font-size:13;text-anchor:end;" transform="matrix(1 0 0 1 3036 1969)">Generated from envelope.arrow.triangle.branch.fill</text>
  <text style="stroke:none;fill:black;font-family:sans-serif;font-size:13;text-anchor:end;" transform="matrix(1 0 0 1 3036 1987)">Typeset at 100.0 points</text>
  <text style="stroke:none;fill:black;font-family:sans-serif;font-size:13;" transform="matrix(1 0 0 1 263 726)">Small</text>
  <text style="stroke:none;fill:black;font-family:sans-serif;font-size:13;" transform="matrix(1 0 0 1 263 1156)">Medium</text>
  <text style="stroke:none;fill:black;font-family:sans-serif;font-size:13;" transform="matrix(1 0 0 1 263 1586)">Large</text>
 </g>
 <g id="Guides">
  <g id="H-reference" style="fill:#27AAE1;stroke:none;" transform="matrix(1 0 0 1 339 696)">
   <path d="M0.993654 0L3.63775 0L29.3281-67.1323L30.0303-67.1323L30.0303-70.459L28.1226-70.459ZM11.6885-24.4799L46.9815-24.4799L46.2315-26.7285L12.4385-26.7285ZM55.1196 0L57.7637 0L30.6382-70.459L29.4326-70.459L29.4326-67.1323Z"/>
  </g>
  <line id="Baseline-S" style="fill:none;stroke:#27AAE1;opacity:1;stroke-width:0.5;" x1="263" x2="3036" y1="696" y2="696"/>
  <line id="Capline-S" style="fill:none;stroke:#27AAE1;opacity:1;stroke-width:0.5;" x1="263" x2="3036" y1="625.541" y2="625.541"/>
  <g id="H-reference" style="fill:#27AAE1;stroke:none;" transform="matrix(1 0 0 1 339 1126)">
   <path d="M0.993654 0L3.63775 0L29.3281-67.1323L30.0303-67.1323L30.0303-70.459L28.1226-70.459ZM11.6885-24.4799L46.9815-24.4799L46.2315-26.7285L12.4385-26.7285ZM55.1196 0L57.7637 0L30.6382-70.459L29.4326-70.459L29.4326-67.1323Z"/>
  </g>
  <line id="Baseline-M" style="fill:none;stroke:#27AAE1;opacity:1;stroke-width:0.5;" x1="263" x2="3036" y1="1126" y2="1126"/>
  <line id="Capline-M" style="fill:none;stroke:#27AAE1;opacity:1;stroke-width:0.5;" x1="263" x2="3036" y1="1055.54" y2="1055.54"/>
  <g id="H-reference" style="fill:#27AAE1;stroke:none;" transform="matrix(1 0 0 1 339 1556)">
   <path d="M0.993654 0L3.63775 0L29.3281-67.1323L30.0303-67.1323L30.0303-70.459L28.1226-70.459ZM11.6885-24.4799L46.9815-24.4799L46.2315-26.7285L12.4385-26.7285ZM55.1196 0L57.7637 0L30.6382-70.459L29.4326-70.459L29.4326-67.1323Z"/>
  </g>
  <line id="Baseline-L" style="fill:none;stroke:#27AAE1;opacity:1;stroke-width:0.5;" x1="263" x2="3036" y1="1556" y2="1556"/>
  <line id="Capline-L" style="fill:none;stroke:#27AAE1;opacity:1;stroke-width:0.5;" x1="263" x2="3036" y1="1485.54" y2="1485.54"/>
  <line id="left-margin-Ultralight-S" style="fill:none;stroke:#00AEEF;stroke-width:0.5;opacity:1.0;" x1="505.59" x2="505.59" y1="600.785" y2="720.121"/>
  <line id="right-margin-Ultralight-S" style="fill:none;stroke:#00AEEF;stroke-width:0.5;opacity:1.0;" x1="613.832" x2="613.832" y1="600.785" y2="720.121"/>
  <line id="left-margin-Regular-S" style="fill:none;stroke:#00AEEF;stroke-width:0.5;opacity:1.0;" x1="1393.52" x2="1393.52" y1="600.785" y2="720.121"/>
  <line id="right-margin-Regular-S" style="fill:none;stroke:#00AEEF;stroke-width:0.5;opacity:1.0;" x1="1506.17" x2="1506.17" y1="600.785" y2="720.121"/>
  <line id="left-margin-Black-S" style="fill:none;stroke:#00AEEF;stroke-width:0.5;opacity:1.0;" x1="2873.44" x2="2873.44" y1="600.785" y2="720.121"/>
  <line id="right-margin-Black-S" style="fill:none;stroke:#00AEEF;stroke-width:0.5;opacity:1.0;" x1="2993.36" x2="2993.36" y1="600.785" y2="720.121"/>
 </g>
 <g id="Symbols">
  <g id="Black-S" transform="matrix(1 0 0 1 2873.44 696)">
   <path class="SFSymbolsPreviewWireframe" d="M59.9609-49.707C63.4766-49.707 65.9668-52.3438 65.9668-55.957L65.9668-57.6172C65.9668-62.6953 69.873-66.4062 76.6602-67.627L77.5391-63.7695C78.1738-60.9863 81.0059-60.791 83.1055-63.2324L92.8223-74.707C94.4824-76.6602 93.9453-79.1992 91.5527-80.2246L77.832-86.1816C74.7559-87.5 72.4121-86.084 73.0469-83.2031L74.1699-78.2715C69.0918-77.2949 63.5254-74.8535 59.9609-70.752C56.25-74.9512 50.4883-77.4414 45.2637-78.3691L46.3867-83.2031C47.0703-86.084 44.6777-87.5 41.6016-86.1816L27.8809-80.2246C25.4883-79.1992 24.9512-76.6602 26.6113-74.707L36.3281-63.2324C38.4277-60.791 41.2109-60.9863 41.8945-63.7695L42.8223-67.6758C49.8535-66.5527 53.9551-62.793 53.9551-57.6172L53.9551-55.957C53.9551-52.3438 56.4453-49.707 59.9609-49.707ZM94.9219-55.957L67.4316-55.957L67.4316-46.5332C67.4316-42.4316 64.0625-39.1113 59.9609-39.1113C55.8594-39.1113 52.4902-42.4316 52.4902-46.5332L52.4902-55.957L25-55.957C22.4609-55.957 20.2148-55.5664 18.2129-54.7852L57.0801-19.6777C58.3008-18.6035 59.0332-18.2617 59.9609-18.2617C60.8887-18.2617 61.6211-18.6035 62.8418-19.6777L101.709-54.7852C99.707-55.5664 97.4609-55.957 94.9219-55.957ZM10.5957 7.61719L39.502-21.2402L10.791-47.168C10.1074-45.2637 9.76562-43.1152 9.76562-40.7227L9.76562 1.75781C9.76562 3.90625 10.0586 5.85938 10.5957 7.61719ZM25 16.9922L94.9219 16.9922C97.7051 16.9922 100.146 16.5039 102.197 15.625L72.4609-14.1113L68.9941-10.9863C65.918-8.20312 63.4277-7.12891 59.9609-7.12891C56.4941-7.12891 54.0039-8.20312 50.9277-10.9863L47.4609-14.1113L17.7246 15.625C19.7754 16.5039 22.2168 16.9922 25 16.9922ZM109.326 7.61719C109.863 5.85938 110.156 3.90625 110.156 1.75781L110.156-40.7227C110.156-43.1152 109.814-45.2637 109.131-47.168L80.4199-21.2402Z"/>
  </g>
  <g id="Regular-S" transform="matrix(1 0 0 1 1393.52 696)">
   <path class="SFSymbolsPreviewWireframe" d="M56.2988-51.416C58.252-51.416 59.8145-53.0273 59.8145-54.9316L59.8145-55.9082C59.8145-61.9629 63.5742-66.8457 71.8262-68.1152L72.5586-64.4043C72.998-61.8652 75-61.2793 76.8555-63.1836L84.7656-71.4355C86.2305-72.9492 85.791-74.8047 83.8867-75.6836L73.4863-80.3223C71.1426-81.3477 69.5312-80.127 70.0195-77.6367L70.7031-73.9746C65.1367-72.9004 57.8125-69.1895 56.2988-64.5508C54.834-69.1895 47.4609-72.9004 41.9434-73.9746L42.627-77.6367C43.1152-80.127 41.5039-81.3477 39.1113-80.3223L28.7109-75.6836C26.8555-74.8047 26.416-72.9492 27.8809-71.4355L35.791-63.1836C37.6465-61.2793 39.5996-61.8652 40.0879-64.4043L40.8203-68.1152C49.0723-66.8457 52.7832-61.9629 52.7832-55.9082L52.7832-54.9316C52.7832-53.0273 54.3945-51.416 56.2988-51.416ZM90.4297-55.8594L60.7422-55.8594L60.7422-39.1602C60.7422-36.7676 58.7402-34.8145 56.2988-34.8145C53.9062-34.8145 51.9043-36.7676 51.9043-39.1602L51.9043-55.8594L22.2168-55.8594C18.8965-55.8594 16.5039-55.2734 14.2578-53.9062L52.7832-20.166C53.9062-19.1406 55.127-18.6523 56.2988-18.6523C57.5195-18.6523 58.7402-19.1406 59.8633-20.166L98.3398-53.9062C96.1426-55.2734 93.75-55.8594 90.4297-55.8594ZM10.5957 4.05273L38.7207-24.0723L10.498-48.7793C10.2051-48.1445 9.76562-46.2891 9.76562-43.6035L9.76562-1.41602C9.76562 0.976562 10.1074 2.68555 10.5957 4.05273ZM20.8496 10.8398L91.7969 10.8398C94.5312 10.8398 96.7285 10.2051 98.1934 9.22852L69.043-19.873L63.623-15.0391C61.3281-13.0371 58.7891-12.0117 56.2988-12.0117C53.8574-12.0117 51.3184-13.0371 49.0234-15.0391L43.5547-19.873L14.4043 9.22852C15.8691 10.2051 18.1152 10.8398 20.8496 10.8398ZM102.051 4.05273C102.49 2.68555 102.881 0.976562 102.881-1.41602L102.881-43.6035C102.881-46.2891 102.441-48.1445 102.148-48.7793L73.9258-24.0723Z"/>
  </g>
  <g id="Ultralight-S" transform="matrix(1 0 0 1 505.59 696)">
   <path class="SFSymbolsPreviewWireframe" d="M54.1192-54.2314C54.71-54.2314 55.2281-54.7529 55.2281-55.3403L55.2281-55.6357C55.2281-61.5996 59.4873-66.3916 66.9673-68.2515L68.063-62.6333C68.2754-61.5474 69.0967-61.3247 69.9986-62.23L77.9087-70.4365C78.6016-71.1328 78.4346-71.8985 77.4839-72.3233L67.129-76.9165C66.0113-77.4424 65.3081-76.8574 65.524-75.8203L66.5708-70.251C58.7339-68.314 55.4058-64.0581 54.1192-61.0996C52.836-64.0581 49.5044-68.314 41.6709-70.251L42.7178-75.8203C42.9336-76.8574 42.2305-77.4424 41.1094-76.9165L30.7544-72.3233C29.7617-71.8985 29.6401-71.1328 30.333-70.4365L38.2431-62.23C39.145-61.3247 39.9629-61.5474 40.1787-62.6333L41.2744-68.2515C48.7544-66.3916 53.0103-61.5996 53.0103-55.6357L53.0103-55.3403C53.0103-54.7529 53.5317-54.2314 54.1192-54.2314ZM88.4771-55.4053L55.7471-55.4053L55.7471-37.9795C55.7471-37.1309 54.9712-36.4038 54.1192-36.4038C53.2705-36.4038 52.4946-37.1309 52.4946-37.9795L52.4946-55.4053L19.7647-55.4053C16.8076-55.4053 14.5059-54.6831 12.8955-53.3159L49.9224-20.0752C51.4087-18.7319 52.6748-18.1528 54.1192-18.1528C55.5669-18.1528 56.833-18.7319 58.3193-20.0752L95.3428-53.3159C93.7359-54.6831 91.4341-55.4053 88.4771-55.4053ZM11.5039 3.417L40.5371-25.5254L11.4062-51.6401C10.3867-50.2334 9.76562-47.9692 9.76562-45.4199L9.76562-3.05077C9.76562-0.385731 10.3345 1.82276 11.5039 3.417ZM19.669 6.9346L88.5274 6.9346C91.8067 6.9346 93.7315 6.16361 95.1055 5.05081L66.0913-24.0053L59.8994-18.5356C57.9224-16.7607 56.2007-15.9624 54.1192-15.9624C52.041-15.9624 50.3193-16.7607 48.3423-18.5356L42.147-24.0053L13.1328 5.05081C14.5068 6.16361 16.4351 6.9346 19.669 6.9346ZM96.6924 3.417C97.9038 1.82276 98.4761-0.385731 98.4761-3.05077L98.4761-45.4199C98.4761-47.9692 97.855-50.2334 96.7901-51.6401L67.7046-25.5254Z"/>
  </g>
 </g>
</svg>
