<?xml version="1.0" encoding="UTF-8"?>
<!--Generator: Apple Native CoreSVG 232.5-->
<!DOCTYPE svg
PUBLIC "-//W3C//DTD SVG 1.1//EN"
       "http://www.w3.org/Graphics/SVG/1.1/DTD/svg11.dtd">
<svg version="1.1" xmlns="http://www.w3.org/2000/svg" xmlns:xlink="http://www.w3.org/1999/xlink" width="3300" height="2200">
 <!--glyph: "uni101EB1.medium", point size: 100.0, font version: "19.2d2e1", template writer version: "128"-->
 <style>.SFSymbolsPreviewWireframe {fill:none;opacity:1.0;stroke:black;stroke-width:0.5}
</style>
 <g id="Notes">
  <rect height="2200" id="artboard" style="fill:white;opacity:1" width="3300" x="0" y="0"/>
  <line style="fill:none;stroke:black;opacity:1;stroke-width:0.5;" x1="263" x2="3036" y1="292" y2="292"/>
  <text style="stroke:none;fill:black;font-family:sans-serif;font-size:13;font-weight:bold;" transform="matrix(1 0 0 1 263 322)">Weight/Scale Variations</text>
  <text style="stroke:none;fill:black;font-family:sans-serif;font-size:13;text-anchor:middle;" transform="matrix(1 0 0 1 559.711 322)">Ultralight</text>
  <text style="stroke:none;fill:black;font-family:sans-serif;font-size:13;text-anchor:middle;" transform="matrix(1 0 0 1 856.422 322)">Thin</text>
  <text style="stroke:none;fill:black;font-family:sans-serif;font-size:13;text-anchor:middle;" transform="matrix(1 0 0 1 1153.13 322)">Light</text>
  <text style="stroke:none;fill:black;font-family:sans-serif;font-size:13;text-anchor:middle;" transform="matrix(1 0 0 1 1449.84 322)">Regular</text>
  <text style="stroke:none;fill:black;font-family:sans-serif;font-size:13;text-anchor:middle;" transform="matrix(1 0 0 1 1746.56 322)">Medium</text>
  <text style="stroke:none;fill:black;font-family:sans-serif;font-size:13;text-anchor:middle;" transform="matrix(1 0 0 1 2043.27 322)">Semibold</text>
  <text style="stroke:none;fill:black;font-family:sans-serif;font-size:13;text-anchor:middle;" transform="matrix(1 0 0 1 2339.98 322)">Bold</text>
  <text style="stroke:none;fill:black;font-family:sans-serif;font-size:13;text-anchor:middle;" transform="matrix(1 0 0 1 2636.69 322)">Heavy</text>
  <text style="stroke:none;fill:black;font-family:sans-serif;font-size:13;text-anchor:middle;" transform="matrix(1 0 0 1 2933.4 322)">Black</text>
  <line style="fill:none;stroke:black;opacity:1;stroke-width:0.5;" x1="263" x2="3036" y1="1903" y2="1903"/>
  <g transform="matrix(0.2 0 0 0.2 263 1933)">
   <path d="m46.2402 4.15039c21.5332 0 39.4531-17.8711 39.4531-39.4043s-17.9688-39.4043-39.502-39.4043c-21.4844 0-39.3555 17.8711-39.3555 39.4043s17.9199 39.4043 39.4043 39.4043Zm0-7.42188c-17.7246 0-31.8848-14.209-31.8848-31.9824s14.1113-31.9824 31.8359-31.9824c17.7734 0 32.0312 14.209 32.0312 31.9824s-14.209 31.9824-31.9824 31.9824Zm-17.9688-31.9824c0 2.14844 1.51367 3.61328 3.75977 3.61328h10.498v10.5957c0 2.19727 1.46484 3.71094 3.61328 3.71094 2.24609 0 3.71094-1.51367 3.71094-3.71094v-10.5957h10.5957c2.19727 0 3.71094-1.46484 3.71094-3.61328 0-2.19727-1.51367-3.71094-3.71094-3.71094h-10.5957v-10.5469c0-2.24609-1.46484-3.75977-3.71094-3.75977-2.14844 0-3.61328 1.51367-3.61328 3.75977v10.5469h-10.498c-2.24609 0-3.75977 1.51367-3.75977 3.71094Z"/>
  </g>
  <g transform="matrix(0.2 0 0 0.2 281.506 1933)">
   <path d="m58.5449 14.5508c27.2461 0 49.8047-22.6074 49.8047-49.8047 0-27.2461-22.6074-49.8047-49.8535-49.8047-27.1973 0-49.7559 22.5586-49.7559 49.8047 0 27.1973 22.6074 49.8047 49.8047 49.8047Zm0-8.30078c-23.0469 0-41.4551-18.457-41.4551-41.5039s18.3594-41.5039 41.4062-41.5039 41.5527 18.457 41.5527 41.5039-18.457 41.5039-41.5039 41.5039Zm-22.6562-41.5039c0 2.39258 1.66016 4.00391 4.15039 4.00391h14.3555v14.4043c0 2.44141 1.66016 4.15039 4.05273 4.15039 2.44141 0 4.15039-1.66016 4.15039-4.15039v-14.4043h14.4043c2.44141 0 4.15039-1.61133 4.15039-4.00391 0-2.44141-1.70898-4.15039-4.15039-4.15039h-14.4043v-14.3555c0-2.49023-1.70898-4.19922-4.15039-4.19922-2.39258 0-4.05273 1.70898-4.05273 4.19922v14.3555h-14.3555c-2.49023 0-4.15039 1.70898-4.15039 4.15039Z"/>
  </g>
  <g transform="matrix(0.2 0 0 0.2 304.924 1933)">
   <path d="m74.8535 28.3203c34.8145 0 63.623-28.8086 63.623-63.5742 0-34.8145-28.8574-63.623-63.6719-63.623-34.7656 0-63.5254 28.8086-63.5254 63.623 0 34.7656 28.8086 63.5742 63.5742 63.5742Zm0-9.08203c-30.1758 0-54.4434-24.3164-54.4434-54.4922 0-30.2246 24.2188-54.4922 54.3945-54.4922 30.2246 0 54.541 24.2676 54.541 54.4922 0 30.1758-24.2676 54.4922-54.4922 54.4922Zm-28.8574-54.4922c0 2.58789 1.85547 4.39453 4.58984 4.39453h19.7266v19.7754c0 2.68555 1.85547 4.58984 4.44336 4.58984 2.68555 0 4.54102-1.85547 4.54102-4.58984v-19.7754h19.7754c2.68555 0 4.58984-1.80664 4.58984-4.39453 0-2.73438-1.85547-4.58984-4.58984-4.58984h-19.7754v-19.7266c0-2.73438-1.85547-4.63867-4.54102-4.63867-2.58789 0-4.44336 1.9043-4.44336 4.63867v19.7266h-19.7266c-2.73438 0-4.58984 1.85547-4.58984 4.58984Z"/>
  </g>
  <text style="stroke:none;fill:black;font-family:sans-serif;font-size:13;font-weight:bold;" transform="matrix(1 0 0 1 263 1953)">Design Variations</text>
  <text style="stroke:none;fill:black;font-family:sans-serif;font-size:13;" transform="matrix(1 0 0 1 263 1971)">Symbols are supported in up to nine weights and three scales.</text>
  <text style="stroke:none;fill:black;font-family:sans-serif;font-size:13;" transform="matrix(1 0 0 1 263 1989)">For optimal layout with text and other symbols, vertically align</text>
  <text style="stroke:none;fill:black;font-family:sans-serif;font-size:13;" transform="matrix(1 0 0 1 263 2007)">symbols with the adjacent text.</text>
  <line style="fill:none;stroke:#00AEEF;stroke-width:0.5;opacity:1.0;" x1="776" x2="776" y1="1919" y2="1933"/>
  <g transform="matrix(0.2 0 0 0.2 776 1933)">
   <path d="m16.5527 0.78125c2.58789 0 3.85742-0.976562 4.78516-3.71094l6.29883-17.2363h28.8086l6.29883 17.2363c0.927734 2.73438 2.19727 3.71094 4.73633 3.71094 2.58789 0 4.24805-1.5625 4.24805-4.00391 0-0.830078-0.146484-1.61133-0.537109-2.63672l-22.9004-60.9863c-1.12305-2.97852-3.125-4.49219-6.25-4.49219-3.02734 0-5.07812 1.46484-6.15234 4.44336l-22.9004 61.084c-0.390625 1.02539-0.537109 1.80664-0.537109 2.63672 0 2.44141 1.5625 3.95508 4.10156 3.95508Zm13.4766-28.3691 11.8652-32.8613h0.244141l11.8652 32.8613Z"/>
  </g>
  <line style="fill:none;stroke:#00AEEF;stroke-width:0.5;opacity:1.0;" x1="792.836" x2="792.836" y1="1919" y2="1933"/>
  <text style="stroke:none;fill:black;font-family:sans-serif;font-size:13;font-weight:bold;" transform="matrix(1 0 0 1 776 1953)">Margins</text>
  <text style="stroke:none;fill:black;font-family:sans-serif;font-size:13;" transform="matrix(1 0 0 1 776 1971)">Leading and trailing margins on the left and right side of each symbol</text>
  <text style="stroke:none;fill:black;font-family:sans-serif;font-size:13;" transform="matrix(1 0 0 1 776 1989)">can be adjusted by modifying the x-location of the margin guidelines.</text>
  <text style="stroke:none;fill:black;font-family:sans-serif;font-size:13;" transform="matrix(1 0 0 1 776 2007)">Modifications are automatically applied proportionally to all</text>
  <text style="stroke:none;fill:black;font-family:sans-serif;font-size:13;" transform="matrix(1 0 0 1 776 2025)">scales and weights.</text>
  <g transform="matrix(0.2 0 0 0.2 1289 1933)">
   <path d="m14.209 9.32617 8.49609 8.54492c4.29688 4.3457 9.22852 4.05273 13.8672-1.07422l53.4668-58.9355-4.83398-4.88281-53.0762 58.3984c-1.75781 2.00195-3.41797 2.49023-5.76172 0.146484l-5.85938-5.81055c-2.34375-2.29492-1.80664-4.00391 0.195312-5.81055l57.373-54.0039-4.88281-4.83398-57.959 54.4434c-4.93164 4.58984-5.32227 9.47266-1.02539 13.8184Zm32.0801-90.9668c-2.09961 2.05078-2.24609 4.93164-1.07422 6.88477 1.17188 1.80664 3.4668 2.97852 6.68945 2.14844 7.32422-1.70898 14.9414-2.00195 22.0703 2.68555l-2.92969 7.27539c-1.70898 4.15039-0.830078 7.08008 1.85547 9.81445l11.4746 11.5723c2.44141 2.44141 4.49219 2.53906 7.32422 2.05078l5.32227-0.976562 3.32031 3.36914-0.195312 2.7832c-0.195312 2.49023 0.439453 4.39453 2.88086 6.78711l3.80859 3.71094c2.39258 2.39258 5.46875 2.53906 7.8125 0.195312l14.5508-14.5996c2.34375-2.34375 2.24609-5.32227-0.146484-7.71484l-3.85742-3.80859c-2.39258-2.39258-4.24805-3.17383-6.64062-2.97852l-2.88086 0.244141-3.22266-3.17383 1.2207-5.61523c0.634766-2.83203-0.146484-5.0293-3.07617-7.95898l-10.9863-10.9375c-16.6992-16.6016-38.8672-16.2109-53.3203-1.75781Zm7.4707 1.85547c12.1582-8.88672 28.6133-7.37305 39.7461 3.75977l12.1582 12.0605c1.17188 1.17188 1.36719 2.09961 1.02539 3.80859l-1.61133 7.42188 7.51953 7.42188 4.93164-0.292969c1.26953-0.0488281 1.66016 0.0488281 2.63672 1.02539l2.88086 2.88086-12.207 12.207-2.88086-2.88086c-0.976562-0.976562-1.12305-1.36719-1.07422-2.68555l0.341797-4.88281-7.4707-7.42188-7.61719 1.26953c-1.61133 0.341797-2.34375 0.195312-3.56445-0.976562l-10.0098-10.0098c-1.26953-1.17188-1.41602-2.00195-0.634766-3.85742l4.39453-10.4492c-7.8125-7.27539-17.9688-10.4004-28.125-7.42188-0.78125 0.195312-1.07422-0.439453-0.439453-0.976562Z"/>
  </g>
  <text style="stroke:none;fill:black;font-family:sans-serif;font-size:13;font-weight:bold;" transform="matrix(1 0 0 1 1289 1953)">Exporting</text>
  <text style="stroke:none;fill:black;font-family:sans-serif;font-size:13;" transform="matrix(1 0 0 1 1289 1971)">Symbols should be outlined when exporting to ensure the</text>
  <text style="stroke:none;fill:black;font-family:sans-serif;font-size:13;" transform="matrix(1 0 0 1 1289 1989)">design is preserved when submitting to Xcode.</text>
  <text id="template-version" style="stroke:none;fill:black;font-family:sans-serif;font-size:13;text-anchor:end;" transform="matrix(1 0 0 1 3036 1933)">Template v.5.0</text>
  <text style="stroke:none;fill:black;font-family:sans-serif;font-size:13;text-anchor:end;" transform="matrix(1 0 0 1 3036 1951)">Requires Xcode 15 or greater</text>
  <text id="descriptive-name" style="stroke:none;fill:black;font-family:sans-serif;font-size:13;text-anchor:end;" transform="matrix(1 0 0 1 3036 1969)">Generated from ev.plug.ac.gb.t.fill</text>
  <text style="stroke:none;fill:black;font-family:sans-serif;font-size:13;text-anchor:end;" transform="matrix(1 0 0 1 3036 1987)">Typeset at 100.0 points</text>
  <text style="stroke:none;fill:black;font-family:sans-serif;font-size:13;" transform="matrix(1 0 0 1 263 726)">Small</text>
  <text style="stroke:none;fill:black;font-family:sans-serif;font-size:13;" transform="matrix(1 0 0 1 263 1156)">Medium</text>
  <text style="stroke:none;fill:black;font-family:sans-serif;font-size:13;" transform="matrix(1 0 0 1 263 1586)">Large</text>
 </g>
 <g id="Guides">
  <g id="H-reference" style="fill:#27AAE1;stroke:none;" transform="matrix(1 0 0 1 339 696)">
   <path d="M0.993654 0L3.63775 0L29.3281-67.1323L30.0303-67.1323L30.0303-70.459L28.1226-70.459ZM11.6885-24.4799L46.9815-24.4799L46.2315-26.7285L12.4385-26.7285ZM55.1196 0L57.7637 0L30.6382-70.459L29.4326-70.459L29.4326-67.1323Z"/>
  </g>
  <line id="Baseline-S" style="fill:none;stroke:#27AAE1;opacity:1;stroke-width:0.5;" x1="263" x2="3036" y1="696" y2="696"/>
  <line id="Capline-S" style="fill:none;stroke:#27AAE1;opacity:1;stroke-width:0.5;" x1="263" x2="3036" y1="625.541" y2="625.541"/>
  <g id="H-reference" style="fill:#27AAE1;stroke:none;" transform="matrix(1 0 0 1 339 1126)">
   <path d="M0.993654 0L3.63775 0L29.3281-67.1323L30.0303-67.1323L30.0303-70.459L28.1226-70.459ZM11.6885-24.4799L46.9815-24.4799L46.2315-26.7285L12.4385-26.7285ZM55.1196 0L57.7637 0L30.6382-70.459L29.4326-70.459L29.4326-67.1323Z"/>
  </g>
  <line id="Baseline-M" style="fill:none;stroke:#27AAE1;opacity:1;stroke-width:0.5;" x1="263" x2="3036" y1="1126" y2="1126"/>
  <line id="Capline-M" style="fill:none;stroke:#27AAE1;opacity:1;stroke-width:0.5;" x1="263" x2="3036" y1="1055.54" y2="1055.54"/>
  <g id="H-reference" style="fill:#27AAE1;stroke:none;" transform="matrix(1 0 0 1 339 1556)">
   <path d="M0.993654 0L3.63775 0L29.3281-67.1323L30.0303-67.1323L30.0303-70.459L28.1226-70.459ZM11.6885-24.4799L46.9815-24.4799L46.2315-26.7285L12.4385-26.7285ZM55.1196 0L57.7637 0L30.6382-70.459L29.4326-70.459L29.4326-67.1323Z"/>
  </g>
  <line id="Baseline-L" style="fill:none;stroke:#27AAE1;opacity:1;stroke-width:0.5;" x1="263" x2="3036" y1="1556" y2="1556"/>
  <line id="Capline-L" style="fill:none;stroke:#27AAE1;opacity:1;stroke-width:0.5;" x1="263" x2="3036" y1="1485.54" y2="1485.54"/>
  <line id="left-margin-Ultralight-S" style="fill:none;stroke:#00AEEF;stroke-width:0.5;opacity:1.0;" x1="506.104" x2="506.104" y1="600.785" y2="720.121"/>
  <line id="right-margin-Ultralight-S" style="fill:none;stroke:#00AEEF;stroke-width:0.5;opacity:1.0;" x1="613.318" x2="613.318" y1="600.785" y2="720.121"/>
  <line id="left-margin-Regular-S" style="fill:none;stroke:#00AEEF;stroke-width:0.5;opacity:1.0;" x1="1397.94" x2="1397.94" y1="600.785" y2="720.121"/>
  <line id="right-margin-Regular-S" style="fill:none;stroke:#00AEEF;stroke-width:0.5;opacity:1.0;" x1="1501.75" x2="1501.75" y1="600.785" y2="720.121"/>
  <line id="left-margin-Black-S" style="fill:none;stroke:#00AEEF;stroke-width:0.5;opacity:1.0;" x1="2874.29" x2="2874.29" y1="600.785" y2="720.121"/>
  <line id="right-margin-Black-S" style="fill:none;stroke:#00AEEF;stroke-width:0.5;opacity:1.0;" x1="2992.51" x2="2992.51" y1="600.785" y2="720.121"/>
 </g>
 <g id="Symbols">
  <g id="Black-S" transform="matrix(1 0 0 1 2874.29 696)">
   <path class="SFSymbolsPreviewWireframe" d="M59.082 11.084C88.4277 11.084 111.377-11.8164 111.377-39.5508C111.377-54.248 104.98-67.334 95.9961-75.8301C91.6504-79.834 87.0117-81.6406 80.7617-81.6406L37.4023-81.6406C31.1523-81.6406 26.5137-79.834 22.168-75.8301C13.2324-67.334 6.83594-54.248 6.83594-39.5508C6.83594-11.8164 29.7363 11.084 59.082 11.084ZM46.0938-50.4395C41.6016-50.4395 37.9395-54.1504 37.9395-58.5938C37.9395-63.0859 41.6016-66.6992 46.0938-66.6992C50.5371-66.6992 54.1992-63.0859 54.1992-58.5938C54.1992-54.1504 50.5371-50.4395 46.0938-50.4395ZM72.0215-50.4395C67.5781-50.4395 63.8672-54.1504 63.8672-58.5938C63.8672-63.0859 67.5781-66.6992 72.0215-66.6992C76.5137-66.6992 80.1758-63.0859 80.1758-58.5938C80.1758-54.1504 76.5137-50.4395 72.0215-50.4395ZM33.1543-28.7598C27.0996-28.7598 22.1191-33.6914 22.1191-39.7949C22.1191-45.8984 27.0996-50.8301 33.1543-50.8301C39.2578-50.8301 44.1895-45.8984 44.1895-39.7949C44.1895-33.6914 39.2578-28.7598 33.1543-28.7598ZM59.082-28.7598C53.0273-28.7598 48.0469-33.6914 48.0469-39.7949C48.0469-45.8984 53.0273-50.8301 59.082-50.8301C65.1855-50.8301 70.1172-45.8984 70.1172-39.7949C70.1172-33.6914 65.1855-28.7598 59.082-28.7598ZM85.0098-28.7598C78.9062-28.7598 73.9746-33.6914 73.9746-39.7949C73.9746-45.8984 78.9062-50.8301 85.0098-50.8301C91.0645-50.8301 96.0449-45.8984 96.0449-39.7949C96.0449-33.6914 91.0645-28.7598 85.0098-28.7598ZM46.1426-6.78711C40.0391-6.78711 35.1074-11.7188 35.1074-17.8223C35.1074-23.9258 40.0391-28.8574 46.1426-28.8574C52.1973-28.8574 57.1777-23.9258 57.1777-17.8223C57.1777-11.7188 52.1973-6.78711 46.1426-6.78711ZM72.0215-6.78711C65.9668-6.78711 60.9863-11.7188 60.9863-17.8223C60.9863-23.9258 65.9668-28.8574 72.0215-28.8574C78.125-28.8574 83.0566-23.9258 83.0566-17.8223C83.0566-11.7188 78.125-6.78711 72.0215-6.78711Z"/>
  </g>
  <g id="Regular-S" transform="matrix(1 0 0 1 1397.94 696)">
   <path class="SFSymbolsPreviewWireframe" d="M51.9043 4.44336C77.1484 4.44336 96.9727-15.3809 96.9727-39.1602C96.9727-51.7578 91.5039-63.0859 83.7402-70.4102C80.3711-73.584 76.7578-74.9512 71.7285-74.9512L32.0801-74.9512C27.0508-74.9512 23.4375-73.584 20.0684-70.4102C12.3047-63.0859 6.83594-51.7578 6.83594-39.1602C6.83594-15.3809 26.6602 4.44336 51.9043 4.44336ZM40.0391-49.8535C36.3281-49.8535 33.3496-52.8809 33.3496-56.543C33.3496-60.2051 36.3281-63.1836 40.0391-63.1836C43.75-63.1836 46.6797-60.2051 46.6797-56.543C46.6797-52.8809 43.75-49.8535 40.0391-49.8535ZM63.7695-49.8535C60.0586-49.8535 57.1289-52.8809 57.1289-56.543C57.1289-60.2051 60.0586-63.1836 63.7695-63.1836C67.4805-63.1836 70.459-60.2051 70.459-56.543C70.459-52.8809 67.4805-49.8535 63.7695-49.8535ZM28.125-30.0293C23.0469-30.0293 18.8965-34.1797 18.8965-39.2578C18.8965-44.3359 23.0469-48.4863 28.125-48.4863C33.2031-48.4863 37.4023-44.3359 37.4023-39.2578C37.4023-34.1797 33.2031-30.0293 28.125-30.0293ZM51.9043-30.0293C46.8262-30.0293 42.6758-34.1797 42.6758-39.2578C42.6758-44.3359 46.8262-48.4863 51.9043-48.4863C56.9824-48.4863 61.1328-44.3359 61.1328-39.2578C61.1328-34.1797 56.9824-30.0293 51.9043-30.0293ZM75.6836-30.0293C70.6055-30.0293 66.4062-34.1797 66.4062-39.2578C66.4062-44.3359 70.6055-48.4863 75.6836-48.4863C80.7617-48.4863 84.9121-44.3359 84.9121-39.2578C84.9121-34.1797 80.7617-30.0293 75.6836-30.0293ZM40.0391-9.96094C34.9609-9.96094 30.7617-14.1113 30.7617-19.1895C30.7617-24.2676 34.9609-28.4668 40.0391-28.4668C45.1172-28.4668 49.2676-24.2676 49.2676-19.1895C49.2676-14.1113 45.1172-9.96094 40.0391-9.96094ZM63.7695-9.96094C58.6914-9.96094 54.541-14.1113 54.541-19.1895C54.541-24.2676 58.6914-28.4668 63.7695-28.4668C68.8477-28.4668 73.0469-24.2676 73.0469-19.1895C73.0469-14.1113 68.8477-9.96094 63.7695-9.96094Z"/>
  </g>
  <g id="Ultralight-S" transform="matrix(1 0 0 1 506.104 696)">
   <path class="SFSymbolsPreviewWireframe" d="M53.5845 5.89647C79.7368 5.89647 100.378-14.6543 100.378-39.3418C100.378-52.3935 94.5918-64.085 86.1015-72.272C83.0503-75.1279 79.8457-76.4497 75.3613-76.4497L31.8076-76.4497C27.2778-76.4497 24.0732-75.1279 21.022-72.272C12.5317-64.085 6.83594-52.3935 6.83594-39.3418C6.83594-14.6543 27.3867 5.89647 53.5845 5.89647ZM40.811-50.6255C36.5552-50.6255 33.0772-54.1069 33.0772-58.3594C33.0772-62.6118 36.5552-66.0898 40.811-66.0898C45.0669-66.0898 48.5869-62.6118 48.5869-58.3594C48.5869-54.1069 45.0669-50.6255 40.811-50.6255ZM66.3125-50.6255C62.102-50.6255 58.582-54.1069 58.582-58.3594C58.582-62.6118 62.102-66.0898 66.3125-66.0898C70.5683-66.0898 74.0918-62.6118 74.0918-58.3594C74.0918-54.1069 70.5683-50.6255 66.3125-50.6255ZM28.0342-28.4854C22.0933-28.4854 17.1709-33.3169 17.1709-39.3486C17.1709-45.335 22.0933-50.1665 28.0342-50.1665C34.0659-50.1665 38.9463-45.335 38.9463-39.3486C38.9463-33.3169 34.0659-28.4854 28.0342-28.4854ZM53.5845-28.4854C47.5981-28.4854 42.7212-33.3169 42.7212-39.3486C42.7212-45.335 47.5981-50.1665 53.5845-50.1665C59.5254-50.1665 64.4477-45.335 64.4477-39.3486C64.4477-33.3169 59.5254-28.4854 53.5845-28.4854ZM79.1347-28.4854C73.0576-28.4854 68.2226-33.3169 68.2226-39.3486C68.2226-45.335 73.0576-50.1665 79.1347-50.1665C85.0756-50.1665 89.9526-45.335 89.9526-39.3486C89.9526-33.3169 85.0756-28.4854 79.1347-28.4854ZM40.811-6.05569C34.8247-6.05569 29.9898-10.8872 29.9898-16.9644C29.9898-22.9961 34.8247-27.8311 40.811-27.8311C46.7974-27.8311 51.6743-22.9961 51.6743-16.9644C51.6743-10.8872 46.7974-6.05569 40.811-6.05569ZM66.3125-6.05569C60.3716-6.05569 55.4946-10.8872 55.4946-16.9644C55.4946-22.9961 60.3716-27.8311 66.3125-27.8311C72.3442-27.8311 77.1792-22.9961 77.1792-16.9644C77.1792-10.8872 72.3442-6.05569 66.3125-6.05569Z"/>
  </g>
 </g>
</svg>
