<?xml version="1.0" encoding="UTF-8"?>
<!--Generator: Apple Native CoreSVG 232.5-->
<!DOCTYPE svg
PUBLIC "-//W3C//DTD SVG 1.1//EN"
       "http://www.w3.org/Graphics/SVG/1.1/DTD/svg11.dtd">
<svg version="1.1" xmlns="http://www.w3.org/2000/svg" xmlns:xlink="http://www.w3.org/1999/xlink" width="3300" height="2200">
 <!--glyph: "uni101EB2.medium", point size: 100.0, font version: "19.2d2e1", template writer version: "128"-->
 <style>.SFSymbolsPreviewWireframe {fill:none;opacity:1.0;stroke:black;stroke-width:0.5}
</style>
 <g id="Notes">
  <rect height="2200" id="artboard" style="fill:white;opacity:1" width="3300" x="0" y="0"/>
  <line style="fill:none;stroke:black;opacity:1;stroke-width:0.5;" x1="263" x2="3036" y1="292" y2="292"/>
  <text style="stroke:none;fill:black;font-family:sans-serif;font-size:13;font-weight:bold;" transform="matrix(1 0 0 1 263 322)">Weight/Scale Variations</text>
  <text style="stroke:none;fill:black;font-family:sans-serif;font-size:13;text-anchor:middle;" transform="matrix(1 0 0 1 559.711 322)">Ultralight</text>
  <text style="stroke:none;fill:black;font-family:sans-serif;font-size:13;text-anchor:middle;" transform="matrix(1 0 0 1 856.422 322)">Thin</text>
  <text style="stroke:none;fill:black;font-family:sans-serif;font-size:13;text-anchor:middle;" transform="matrix(1 0 0 1 1153.13 322)">Light</text>
  <text style="stroke:none;fill:black;font-family:sans-serif;font-size:13;text-anchor:middle;" transform="matrix(1 0 0 1 1449.84 322)">Regular</text>
  <text style="stroke:none;fill:black;font-family:sans-serif;font-size:13;text-anchor:middle;" transform="matrix(1 0 0 1 1746.56 322)">Medium</text>
  <text style="stroke:none;fill:black;font-family:sans-serif;font-size:13;text-anchor:middle;" transform="matrix(1 0 0 1 2043.27 322)">Semibold</text>
  <text style="stroke:none;fill:black;font-family:sans-serif;font-size:13;text-anchor:middle;" transform="matrix(1 0 0 1 2339.98 322)">Bold</text>
  <text style="stroke:none;fill:black;font-family:sans-serif;font-size:13;text-anchor:middle;" transform="matrix(1 0 0 1 2636.69 322)">Heavy</text>
  <text style="stroke:none;fill:black;font-family:sans-serif;font-size:13;text-anchor:middle;" transform="matrix(1 0 0 1 2933.4 322)">Black</text>
  <line style="fill:none;stroke:black;opacity:1;stroke-width:0.5;" x1="263" x2="3036" y1="1903" y2="1903"/>
  <g transform="matrix(0.2 0 0 0.2 263 1933)">
   <path d="m46.2402 4.15039c21.5332 0 39.4531-17.8711 39.4531-39.4043s-17.9688-39.4043-39.502-39.4043c-21.4844 0-39.3555 17.8711-39.3555 39.4043s17.9199 39.4043 39.4043 39.4043Zm0-7.42188c-17.7246 0-31.8848-14.209-31.8848-31.9824s14.1113-31.9824 31.8359-31.9824c17.7734 0 32.0312 14.209 32.0312 31.9824s-14.209 31.9824-31.9824 31.9824Zm-17.9688-31.9824c0 2.14844 1.51367 3.61328 3.75977 3.61328h10.498v10.5957c0 2.19727 1.46484 3.71094 3.61328 3.71094 2.24609 0 3.71094-1.51367 3.71094-3.71094v-10.5957h10.5957c2.19727 0 3.71094-1.46484 3.71094-3.61328 0-2.19727-1.51367-3.71094-3.71094-3.71094h-10.5957v-10.5469c0-2.24609-1.46484-3.75977-3.71094-3.75977-2.14844 0-3.61328 1.51367-3.61328 3.75977v10.5469h-10.498c-2.24609 0-3.75977 1.51367-3.75977 3.71094Z"/>
  </g>
  <g transform="matrix(0.2 0 0 0.2 281.506 1933)">
   <path d="m58.5449 14.5508c27.2461 0 49.8047-22.6074 49.8047-49.8047 0-27.2461-22.6074-49.8047-49.8535-49.8047-27.1973 0-49.7559 22.5586-49.7559 49.8047 0 27.1973 22.6074 49.8047 49.8047 49.8047Zm0-8.30078c-23.0469 0-41.4551-18.457-41.4551-41.5039s18.3594-41.5039 41.4062-41.5039 41.5527 18.457 41.5527 41.5039-18.457 41.5039-41.5039 41.5039Zm-22.6562-41.5039c0 2.39258 1.66016 4.00391 4.15039 4.00391h14.3555v14.4043c0 2.44141 1.66016 4.15039 4.05273 4.15039 2.44141 0 4.15039-1.66016 4.15039-4.15039v-14.4043h14.4043c2.44141 0 4.15039-1.61133 4.15039-4.00391 0-2.44141-1.70898-4.15039-4.15039-4.15039h-14.4043v-14.3555c0-2.49023-1.70898-4.19922-4.15039-4.19922-2.39258 0-4.05273 1.70898-4.05273 4.19922v14.3555h-14.3555c-2.49023 0-4.15039 1.70898-4.15039 4.15039Z"/>
  </g>
  <g transform="matrix(0.2 0 0 0.2 304.924 1933)">
   <path d="m74.8535 28.3203c34.8145 0 63.623-28.8086 63.623-63.5742 0-34.8145-28.8574-63.623-63.6719-63.623-34.7656 0-63.5254 28.8086-63.5254 63.623 0 34.7656 28.8086 63.5742 63.5742 63.5742Zm0-9.08203c-30.1758 0-54.4434-24.3164-54.4434-54.4922 0-30.2246 24.2188-54.4922 54.3945-54.4922 30.2246 0 54.541 24.2676 54.541 54.4922 0 30.1758-24.2676 54.4922-54.4922 54.4922Zm-28.8574-54.4922c0 2.58789 1.85547 4.39453 4.58984 4.39453h19.7266v19.7754c0 2.68555 1.85547 4.58984 4.44336 4.58984 2.68555 0 4.54102-1.85547 4.54102-4.58984v-19.7754h19.7754c2.68555 0 4.58984-1.80664 4.58984-4.39453 0-2.73438-1.85547-4.58984-4.58984-4.58984h-19.7754v-19.7266c0-2.73438-1.85547-4.63867-4.54102-4.63867-2.58789 0-4.44336 1.9043-4.44336 4.63867v19.7266h-19.7266c-2.73438 0-4.58984 1.85547-4.58984 4.58984Z"/>
  </g>
  <text style="stroke:none;fill:black;font-family:sans-serif;font-size:13;font-weight:bold;" transform="matrix(1 0 0 1 263 1953)">Design Variations</text>
  <text style="stroke:none;fill:black;font-family:sans-serif;font-size:13;" transform="matrix(1 0 0 1 263 1971)">Symbols are supported in up to nine weights and three scales.</text>
  <text style="stroke:none;fill:black;font-family:sans-serif;font-size:13;" transform="matrix(1 0 0 1 263 1989)">For optimal layout with text and other symbols, vertically align</text>
  <text style="stroke:none;fill:black;font-family:sans-serif;font-size:13;" transform="matrix(1 0 0 1 263 2007)">symbols with the adjacent text.</text>
  <line style="fill:none;stroke:#00AEEF;stroke-width:0.5;opacity:1.0;" x1="776" x2="776" y1="1919" y2="1933"/>
  <g transform="matrix(0.2 0 0 0.2 776 1933)">
   <path d="m16.5527 0.78125c2.58789 0 3.85742-0.976562 4.78516-3.71094l6.29883-17.2363h28.8086l6.29883 17.2363c0.927734 2.73438 2.19727 3.71094 4.73633 3.71094 2.58789 0 4.24805-1.5625 4.24805-4.00391 0-0.830078-0.146484-1.61133-0.537109-2.63672l-22.9004-60.9863c-1.12305-2.97852-3.125-4.49219-6.25-4.49219-3.02734 0-5.07812 1.46484-6.15234 4.44336l-22.9004 61.084c-0.390625 1.02539-0.537109 1.80664-0.537109 2.63672 0 2.44141 1.5625 3.95508 4.10156 3.95508Zm13.4766-28.3691 11.8652-32.8613h0.244141l11.8652 32.8613Z"/>
  </g>
  <line style="fill:none;stroke:#00AEEF;stroke-width:0.5;opacity:1.0;" x1="792.836" x2="792.836" y1="1919" y2="1933"/>
  <text style="stroke:none;fill:black;font-family:sans-serif;font-size:13;font-weight:bold;" transform="matrix(1 0 0 1 776 1953)">Margins</text>
  <text style="stroke:none;fill:black;font-family:sans-serif;font-size:13;" transform="matrix(1 0 0 1 776 1971)">Leading and trailing margins on the left and right side of each symbol</text>
  <text style="stroke:none;fill:black;font-family:sans-serif;font-size:13;" transform="matrix(1 0 0 1 776 1989)">can be adjusted by modifying the x-location of the margin guidelines.</text>
  <text style="stroke:none;fill:black;font-family:sans-serif;font-size:13;" transform="matrix(1 0 0 1 776 2007)">Modifications are automatically applied proportionally to all</text>
  <text style="stroke:none;fill:black;font-family:sans-serif;font-size:13;" transform="matrix(1 0 0 1 776 2025)">scales and weights.</text>
  <g transform="matrix(0.2 0 0 0.2 1289 1933)">
   <path d="m14.209 9.32617 8.49609 8.54492c4.29688 4.3457 9.22852 4.05273 13.8672-1.07422l53.4668-58.9355-4.83398-4.88281-53.0762 58.3984c-1.75781 2.00195-3.41797 2.49023-5.76172 0.146484l-5.85938-5.81055c-2.34375-2.29492-1.80664-4.00391 0.195312-5.81055l57.373-54.0039-4.88281-4.83398-57.959 54.4434c-4.93164 4.58984-5.32227 9.47266-1.02539 13.8184Zm32.0801-90.9668c-2.09961 2.05078-2.24609 4.93164-1.07422 6.88477 1.17188 1.80664 3.4668 2.97852 6.68945 2.14844 7.32422-1.70898 14.9414-2.00195 22.0703 2.68555l-2.92969 7.27539c-1.70898 4.15039-0.830078 7.08008 1.85547 9.81445l11.4746 11.5723c2.44141 2.44141 4.49219 2.53906 7.32422 2.05078l5.32227-0.976562 3.32031 3.36914-0.195312 2.7832c-0.195312 2.49023 0.439453 4.39453 2.88086 6.78711l3.80859 3.71094c2.39258 2.39258 5.46875 2.53906 7.8125 0.195312l14.5508-14.5996c2.34375-2.34375 2.24609-5.32227-0.146484-7.71484l-3.85742-3.80859c-2.39258-2.39258-4.24805-3.17383-6.64062-2.97852l-2.88086 0.244141-3.22266-3.17383 1.2207-5.61523c0.634766-2.83203-0.146484-5.0293-3.07617-7.95898l-10.9863-10.9375c-16.6992-16.6016-38.8672-16.2109-53.3203-1.75781Zm7.4707 1.85547c12.1582-8.88672 28.6133-7.37305 39.7461 3.75977l12.1582 12.0605c1.17188 1.17188 1.36719 2.09961 1.02539 3.80859l-1.61133 7.42188 7.51953 7.42188 4.93164-0.292969c1.26953-0.0488281 1.66016 0.0488281 2.63672 1.02539l2.88086 2.88086-12.207 12.207-2.88086-2.88086c-0.976562-0.976562-1.12305-1.36719-1.07422-2.68555l0.341797-4.88281-7.4707-7.42188-7.61719 1.26953c-1.61133 0.341797-2.34375 0.195312-3.56445-0.976562l-10.0098-10.0098c-1.26953-1.17188-1.41602-2.00195-0.634766-3.85742l4.39453-10.4492c-7.8125-7.27539-17.9688-10.4004-28.125-7.42188-0.78125 0.195312-1.07422-0.439453-0.439453-0.976562Z"/>
  </g>
  <text style="stroke:none;fill:black;font-family:sans-serif;font-size:13;font-weight:bold;" transform="matrix(1 0 0 1 1289 1953)">Exporting</text>
  <text style="stroke:none;fill:black;font-family:sans-serif;font-size:13;" transform="matrix(1 0 0 1 1289 1971)">Symbols should be outlined when exporting to ensure the</text>
  <text style="stroke:none;fill:black;font-family:sans-serif;font-size:13;" transform="matrix(1 0 0 1 1289 1989)">design is preserved when submitting to Xcode.</text>
  <text id="template-version" style="stroke:none;fill:black;font-family:sans-serif;font-size:13;text-anchor:end;" transform="matrix(1 0 0 1 3036 1933)">Template v.5.0</text>
  <text style="stroke:none;fill:black;font-family:sans-serif;font-size:13;text-anchor:end;" transform="matrix(1 0 0 1 3036 1951)">Requires Xcode 15 or greater</text>
  <text id="descriptive-name" style="stroke:none;fill:black;font-family:sans-serif;font-size:13;text-anchor:end;" transform="matrix(1 0 0 1 3036 1969)">Generated from ev.plug.dc.ccs1</text>
  <text style="stroke:none;fill:black;font-family:sans-serif;font-size:13;text-anchor:end;" transform="matrix(1 0 0 1 3036 1987)">Typeset at 100.0 points</text>
  <text style="stroke:none;fill:black;font-family:sans-serif;font-size:13;" transform="matrix(1 0 0 1 263 726)">Small</text>
  <text style="stroke:none;fill:black;font-family:sans-serif;font-size:13;" transform="matrix(1 0 0 1 263 1156)">Medium</text>
  <text style="stroke:none;fill:black;font-family:sans-serif;font-size:13;" transform="matrix(1 0 0 1 263 1586)">Large</text>
 </g>
 <g id="Guides">
  <g id="H-reference" style="fill:#27AAE1;stroke:none;" transform="matrix(1 0 0 1 339 696)">
   <path d="M0.993654 0L3.63775 0L29.3281-67.1323L30.0303-67.1323L30.0303-70.459L28.1226-70.459ZM11.6885-24.4799L46.9815-24.4799L46.2315-26.7285L12.4385-26.7285ZM55.1196 0L57.7637 0L30.6382-70.459L29.4326-70.459L29.4326-67.1323Z"/>
  </g>
  <line id="Baseline-S" style="fill:none;stroke:#27AAE1;opacity:1;stroke-width:0.5;" x1="263" x2="3036" y1="696" y2="696"/>
  <line id="Capline-S" style="fill:none;stroke:#27AAE1;opacity:1;stroke-width:0.5;" x1="263" x2="3036" y1="625.541" y2="625.541"/>
  <g id="H-reference" style="fill:#27AAE1;stroke:none;" transform="matrix(1 0 0 1 339 1126)">
   <path d="M0.993654 0L3.63775 0L29.3281-67.1323L30.0303-67.1323L30.0303-70.459L28.1226-70.459ZM11.6885-24.4799L46.9815-24.4799L46.2315-26.7285L12.4385-26.7285ZM55.1196 0L57.7637 0L30.6382-70.459L29.4326-70.459L29.4326-67.1323Z"/>
  </g>
  <line id="Baseline-M" style="fill:none;stroke:#27AAE1;opacity:1;stroke-width:0.5;" x1="263" x2="3036" y1="1126" y2="1126"/>
  <line id="Capline-M" style="fill:none;stroke:#27AAE1;opacity:1;stroke-width:0.5;" x1="263" x2="3036" y1="1055.54" y2="1055.54"/>
  <g id="H-reference" style="fill:#27AAE1;stroke:none;" transform="matrix(1 0 0 1 339 1556)">
   <path d="M0.993654 0L3.63775 0L29.3281-67.1323L30.0303-67.1323L30.0303-70.459L28.1226-70.459ZM11.6885-24.4799L46.9815-24.4799L46.2315-26.7285L12.4385-26.7285ZM55.1196 0L57.7637 0L30.6382-70.459L29.4326-70.459L29.4326-67.1323Z"/>
  </g>
  <line id="Baseline-L" style="fill:none;stroke:#27AAE1;opacity:1;stroke-width:0.5;" x1="263" x2="3036" y1="1556" y2="1556"/>
  <line id="Capline-L" style="fill:none;stroke:#27AAE1;opacity:1;stroke-width:0.5;" x1="263" x2="3036" y1="1485.54" y2="1485.54"/>
  <line id="left-margin-Ultralight-S" style="fill:none;stroke:#00AEEF;stroke-width:0.5;opacity:1.0;" x1="522.264" x2="522.264" y1="600.785" y2="720.121"/>
  <line id="right-margin-Ultralight-S" style="fill:none;stroke:#00AEEF;stroke-width:0.5;opacity:1.0;" x1="597.158" x2="597.158" y1="600.785" y2="720.121"/>
  <line id="left-margin-Regular-S" style="fill:none;stroke:#00AEEF;stroke-width:0.5;opacity:1.0;" x1="1409.85" x2="1409.85" y1="600.785" y2="720.121"/>
  <line id="right-margin-Regular-S" style="fill:none;stroke:#00AEEF;stroke-width:0.5;opacity:1.0;" x1="1489.83" x2="1489.83" y1="600.785" y2="720.121"/>
  <line id="left-margin-Black-S" style="fill:none;stroke:#00AEEF;stroke-width:0.5;opacity:1.0;" x1="2890.82" x2="2890.82" y1="600.785" y2="720.121"/>
  <line id="right-margin-Black-S" style="fill:none;stroke:#00AEEF;stroke-width:0.5;opacity:1.0;" x1="2975.98" x2="2975.98" y1="600.785" y2="720.121"/>
 </g>
 <g id="Symbols">
  <g id="Black-S" transform="matrix(1 0 0 1 2890.82 696)">
   <path class="SFSymbolsPreviewWireframe" d="M42.627-27.6855C59.7168-27.6855 73.877-41.8457 73.877-58.9355C73.877-76.0254 59.6191-90.1855 42.5781-90.1855C25.4883-90.1855 11.377-75.9766 11.377-58.9355C11.377-41.8457 25.5371-27.6855 42.627-27.6855ZM42.627-39.1602C31.25-39.1602 22.9004-47.5586 22.9004-58.9355C22.9004-70.3125 31.25-78.7109 42.5781-78.7109C53.9551-78.7109 62.4023-70.3125 62.4023-58.9355C62.4023-47.5586 54.0039-39.1602 42.627-39.1602ZM34.375-59.5703C37.6953-59.5703 40.4297-62.3047 40.4297-65.625C40.4297-68.9453 37.6953-71.6797 34.375-71.6797C31.0547-71.6797 28.3203-68.9453 28.3203-65.625C28.3203-62.3047 31.0547-59.5703 34.375-59.5703ZM50.8789-59.5703C54.1992-59.5703 56.9336-62.3047 56.9336-65.625C56.9336-68.9453 54.1992-71.6797 50.8789-71.6797C47.5586-71.6797 44.8242-68.9453 44.8242-65.625C44.8242-62.3047 47.5586-59.5703 50.8789-59.5703ZM31.4941-49.0234C33.8867-49.0234 35.8887-51.0254 35.8887-53.418C35.8887-55.8105 33.8867-57.8125 31.4941-57.8125C29.1016-57.8125 27.0996-55.8105 27.0996-53.418C27.0996-51.0254 29.1016-49.0234 31.4941-49.0234ZM53.7598-49.0234C56.1523-49.0234 58.1543-51.0254 58.1543-53.418C58.1543-55.8105 56.1523-57.8125 53.7598-57.8125C51.3672-57.8125 49.3652-55.8105 49.3652-53.418C49.3652-51.0254 51.3672-49.0234 53.7598-49.0234ZM42.627-41.4062C45.9473-41.4062 48.6816-44.1406 48.6816-47.4609C48.6816-50.7812 45.9473-53.5156 42.627-53.5156C39.3066-53.5156 36.5723-50.7812 36.5723-47.4609C36.5723-44.1406 39.3066-41.4062 42.627-41.4062ZM29.4434 19.6777L55.7129 19.6777C68.3594 19.6777 78.3203 9.47266 78.3203-3.02734C78.3203-15.5273 68.3594-25.7324 55.7129-25.7324L29.4434-25.7324C16.7969-25.7324 6.83594-15.5273 6.83594-3.02734C6.83594 9.47266 16.7969 19.6777 29.4434 19.6777ZM29.4434 8.20312C22.8027 8.20312 18.2129 3.61328 18.2129-3.02734C18.2129-9.66797 22.8027-14.2578 29.4434-14.2578L55.7129-14.2578C62.3535-14.2578 66.9434-9.66797 66.9434-3.02734C66.9434 3.61328 62.3535 8.20312 55.7129 8.20312ZM29.4434 6.05469C34.4238 6.05469 38.5254 1.95312 38.5254-3.02734C38.5254-8.00781 34.4238-12.1094 29.4434-12.1094C24.4629-12.1094 20.3613-8.00781 20.3613-3.02734C20.3613 1.95312 24.4629 6.05469 29.4434 6.05469ZM55.7129 6.05469C60.6934 6.05469 64.7949 1.95312 64.7949-3.02734C64.7949-8.00781 60.6934-12.1094 55.7129-12.1094C50.7324-12.1094 46.6309-8.00781 46.6309-3.02734C46.6309 1.95312 50.7324 6.05469 55.7129 6.05469Z"/>
  </g>
  <g id="Regular-S" transform="matrix(1 0 0 1 1409.85 696)">
   <path class="SFSymbolsPreviewWireframe" d="M40.0391-27.6855C55.6641-27.6855 68.7012-40.6738 68.7012-56.2988C68.7012-71.9727 55.6152-84.9609 39.9902-84.9609C24.3652-84.9609 11.377-71.9727 11.377-56.2988C11.377-40.6738 24.4141-27.6855 40.0391-27.6855ZM40.0391-34.0332C27.5879-34.0332 17.7734-43.8477 17.7734-56.2988C17.7734-68.75 27.5879-78.6133 39.9902-78.6133C52.4414-78.6133 62.3535-68.75 62.3535-56.2988C62.3535-43.8477 52.4902-34.0332 40.0391-34.0332ZM30.2246-58.3496C33.7402-58.3496 36.5723-61.1816 36.5723-64.6973C36.5723-68.2129 33.7402-71.0449 30.2246-71.0449C26.709-71.0449 23.877-68.2129 23.877-64.6973C23.877-61.1816 26.709-58.3496 30.2246-58.3496ZM49.7559-58.3496C53.2715-58.3496 56.1035-61.1816 56.1035-64.6973C56.1035-68.2129 53.2715-71.0449 49.7559-71.0449C46.2402-71.0449 43.4082-68.2129 43.4082-64.6973C43.4082-61.1816 46.2402-58.3496 49.7559-58.3496ZM26.8066-45.7031C29.248-45.7031 31.2012-47.6562 31.2012-50.0977C31.2012-52.5391 29.248-54.4922 26.8066-54.4922C24.3652-54.4922 22.4121-52.5391 22.4121-50.0977C22.4121-47.6562 24.3652-45.7031 26.8066-45.7031ZM53.1738-45.7031C55.6152-45.7031 57.5684-47.6562 57.5684-50.0977C57.5684-52.5391 55.6152-54.4922 53.1738-54.4922C50.7324-54.4922 48.7793-52.5391 48.7793-50.0977C48.7793-47.6562 50.7324-45.7031 53.1738-45.7031ZM39.9902-36.4258C43.5059-36.4258 46.3379-39.2578 46.3379-42.7734C46.3379-46.2402 43.5059-49.0723 39.9902-49.0723C36.4746-49.0723 33.6426-46.2402 33.6426-42.7734C33.6426-39.2578 36.4746-36.4258 39.9902-36.4258ZM26.8066 14.4531L53.1738 14.4531C64.3555 14.4531 73.1445 5.51758 73.1445-5.61523C73.1445-16.6992 64.3555-25.6836 53.1738-25.6836L26.8066-25.6836C15.625-25.6836 6.83594-16.6992 6.83594-5.61523C6.83594 5.51758 15.625 14.4531 26.8066 14.4531ZM26.8066 8.10547C19.0918 8.10547 13.0859 2.09961 13.0859-5.61523C13.0859-13.3301 19.0918-19.3359 26.8066-19.3359L53.1738-19.3359C60.8887-19.3359 66.8945-13.3301 66.8945-5.61523C66.8945 2.09961 60.8887 8.10547 53.1738 8.10547ZM26.8066 4.63867C32.4707 4.63867 37.0605 0.0488281 37.0605-5.61523C37.0605-11.2793 32.4707-15.8203 26.8066-15.8203C21.1426-15.8203 16.5527-11.2793 16.5527-5.61523C16.5527 0.0488281 21.1426 4.63867 26.8066 4.63867ZM53.1738 4.63867C58.8379 4.63867 63.4277 0.0488281 63.4277-5.61523C63.4277-11.2793 58.8379-15.8203 53.1738-15.8203C47.5098-15.8203 42.9199-11.2793 42.9199-5.61523C42.9199 0.0488281 47.5098 4.63867 53.1738 4.63867Z"/>
  </g>
  <g id="Ultralight-S" transform="matrix(1 0 0 1 522.264 696)">
   <path class="SFSymbolsPreviewWireframe" d="M37.4961-27.3223C51.7134-27.3223 63.5699-39.1299 63.5699-53.3926C63.5699-67.5679 51.6646-79.4209 37.4473-79.4209C23.1846-79.4209 11.4224-67.5679 11.4224-53.3926C11.4224-39.1299 23.2334-27.3223 37.4961-27.3223ZM37.4961-29.4922C24.1822-29.4922 13.5957-40.0786 13.5957-53.3926C13.5957-66.6611 24.1367-77.251 37.4473-77.251C50.7158-77.251 61.3999-66.6157 61.3999-53.3926C61.3999-40.0786 50.7647-29.4922 37.4961-29.4922ZM27.5908-55.3526C31.0156-55.3526 33.7114-58.003 33.7114-61.4278C33.7114-64.8526 31.0156-67.5484 27.5908-67.5484C24.166-67.5484 21.4702-64.8526 21.4702-61.4278C21.4702-58.003 24.166-55.3526 27.5908-55.3526ZM47.3037-55.3526C50.7285-55.3526 53.4243-58.003 53.4243-61.4278C53.4243-64.8526 50.7285-67.5484 47.3037-67.5484C43.8789-67.5484 41.1831-64.8526 41.1831-61.4278C41.1831-58.003 43.8789-55.3526 47.3037-55.3526ZM23.4009-41.6617C25.8423-41.6617 27.7954-43.6148 27.7954-46.0562C27.7954-48.4976 25.8423-50.4507 23.4009-50.4507C20.9595-50.4507 19.0064-48.4976 19.0064-46.0562C19.0064-43.6148 20.9595-41.6617 23.4009-41.6617ZM51.4483-41.6617C53.8897-41.6617 55.8428-43.6148 55.8428-46.0562C55.8428-48.4976 53.8897-50.4507 51.4483-50.4507C49.0068-50.4507 47.0537-48.4976 47.0537-46.0562C47.0537-43.6148 49.0068-41.6617 51.4483-41.6617ZM37.4473-32.9292C40.8721-32.9292 43.5679-35.625 43.5679-39.0498C43.5679-42.4712 40.8721-45.167 37.4473-45.167C34.0225-45.167 31.3267-42.4712 31.3267-39.0498C31.3267-35.625 34.0225-32.9292 37.4473-32.9292ZM23.7188 8.91313L51.1758 8.91313C61.0406 8.91313 68.0586 1.97561 68.0586-7.74949C68.0586-17.4712 61.0406-24.4121 51.1758-24.4121L23.7188-24.4121C13.8086-24.4121 6.83594-17.4712 6.83594-7.74949C6.83594 1.97561 13.8086 8.91313 23.7188 8.91313ZM23.7188 6.74317C15.0957 6.74317 8.99906 0.737315 8.99906-7.74949C8.99906-16.2363 15.0957-22.2422 23.7188-22.2422L51.1758-22.2422C59.7534-22.2422 65.8955-16.2363 65.8955-7.74949C65.8955 0.737315 59.7534 6.74317 51.1758 6.74317ZM23.4917 2.41359C29.1558 2.41359 33.6548-2.08543 33.6548-7.74949C33.6548-13.4136 29.1558-17.9092 23.4917-17.9092C17.8277-17.9092 13.3286-13.4136 13.3286-7.74949C13.3286-2.08543 17.8277 2.41359 23.4917 2.41359ZM51.3574 2.41359C57.0215 2.41359 61.5205-2.08543 61.5205-7.74949C61.5205-13.4136 57.0215-17.9092 51.3574-17.9092C45.6934-17.9092 41.1943-13.4136 41.1943-7.74949C41.1943-2.08543 45.6934 2.41359 51.3574 2.41359Z"/>
  </g>
 </g>
</svg>
