<?xml version="1.0" encoding="UTF-8"?>
<!--Generator: Apple Native CoreSVG 232.5-->
<!DOCTYPE svg
PUBLIC "-//W3C//DTD SVG 1.1//EN"
       "http://www.w3.org/Graphics/SVG/1.1/DTD/svg11.dtd">
<svg version="1.1" xmlns="http://www.w3.org/2000/svg" xmlns:xlink="http://www.w3.org/1999/xlink" width="3300" height="2200">
 <!--glyph: "uni10102E.medium", point size: 100.0, font version: "19.2d2e1", template writer version: "128"-->
 <style>.SFSymbolsPreviewWireframe {fill:none;opacity:1.0;stroke:black;stroke-width:0.5}
</style>
 <g id="Notes">
  <rect height="2200" id="artboard" style="fill:white;opacity:1" width="3300" x="0" y="0"/>
  <line style="fill:none;stroke:black;opacity:1;stroke-width:0.5;" x1="263" x2="3036" y1="292" y2="292"/>
  <text style="stroke:none;fill:black;font-family:sans-serif;font-size:13;font-weight:bold;" transform="matrix(1 0 0 1 263 322)">Weight/Scale Variations</text>
  <text style="stroke:none;fill:black;font-family:sans-serif;font-size:13;text-anchor:middle;" transform="matrix(1 0 0 1 559.711 322)">Ultralight</text>
  <text style="stroke:none;fill:black;font-family:sans-serif;font-size:13;text-anchor:middle;" transform="matrix(1 0 0 1 856.422 322)">Thin</text>
  <text style="stroke:none;fill:black;font-family:sans-serif;font-size:13;text-anchor:middle;" transform="matrix(1 0 0 1 1153.13 322)">Light</text>
  <text style="stroke:none;fill:black;font-family:sans-serif;font-size:13;text-anchor:middle;" transform="matrix(1 0 0 1 1449.84 322)">Regular</text>
  <text style="stroke:none;fill:black;font-family:sans-serif;font-size:13;text-anchor:middle;" transform="matrix(1 0 0 1 1746.56 322)">Medium</text>
  <text style="stroke:none;fill:black;font-family:sans-serif;font-size:13;text-anchor:middle;" transform="matrix(1 0 0 1 2043.27 322)">Semibold</text>
  <text style="stroke:none;fill:black;font-family:sans-serif;font-size:13;text-anchor:middle;" transform="matrix(1 0 0 1 2339.98 322)">Bold</text>
  <text style="stroke:none;fill:black;font-family:sans-serif;font-size:13;text-anchor:middle;" transform="matrix(1 0 0 1 2636.69 322)">Heavy</text>
  <text style="stroke:none;fill:black;font-family:sans-serif;font-size:13;text-anchor:middle;" transform="matrix(1 0 0 1 2933.4 322)">Black</text>
  <line style="fill:none;stroke:black;opacity:1;stroke-width:0.5;" x1="263" x2="3036" y1="1903" y2="1903"/>
  <g transform="matrix(0.2 0 0 0.2 263 1933)">
   <path d="m46.2402 4.15039c21.5332 0 39.4531-17.8711 39.4531-39.4043s-17.9688-39.4043-39.502-39.4043c-21.4844 0-39.3555 17.8711-39.3555 39.4043s17.9199 39.4043 39.4043 39.4043Zm0-7.42188c-17.7246 0-31.8848-14.209-31.8848-31.9824s14.1113-31.9824 31.8359-31.9824c17.7734 0 32.0312 14.209 32.0312 31.9824s-14.209 31.9824-31.9824 31.9824Zm-17.9688-31.9824c0 2.14844 1.51367 3.61328 3.75977 3.61328h10.498v10.5957c0 2.19727 1.46484 3.71094 3.61328 3.71094 2.24609 0 3.71094-1.51367 3.71094-3.71094v-10.5957h10.5957c2.19727 0 3.71094-1.46484 3.71094-3.61328 0-2.19727-1.51367-3.71094-3.71094-3.71094h-10.5957v-10.5469c0-2.24609-1.46484-3.75977-3.71094-3.75977-2.14844 0-3.61328 1.51367-3.61328 3.75977v10.5469h-10.498c-2.24609 0-3.75977 1.51367-3.75977 3.71094Z"/>
  </g>
  <g transform="matrix(0.2 0 0 0.2 281.506 1933)">
   <path d="m58.5449 14.5508c27.2461 0 49.8047-22.6074 49.8047-49.8047 0-27.2461-22.6074-49.8047-49.8535-49.8047-27.1973 0-49.7559 22.5586-49.7559 49.8047 0 27.1973 22.6074 49.8047 49.8047 49.8047Zm0-8.30078c-23.0469 0-41.4551-18.457-41.4551-41.5039s18.3594-41.5039 41.4062-41.5039 41.5527 18.457 41.5527 41.5039-18.457 41.5039-41.5039 41.5039Zm-22.6562-41.5039c0 2.39258 1.66016 4.00391 4.15039 4.00391h14.3555v14.4043c0 2.44141 1.66016 4.15039 4.05273 4.15039 2.44141 0 4.15039-1.66016 4.15039-4.15039v-14.4043h14.4043c2.44141 0 4.15039-1.61133 4.15039-4.00391 0-2.44141-1.70898-4.15039-4.15039-4.15039h-14.4043v-14.3555c0-2.49023-1.70898-4.19922-4.15039-4.19922-2.39258 0-4.05273 1.70898-4.05273 4.19922v14.3555h-14.3555c-2.49023 0-4.15039 1.70898-4.15039 4.15039Z"/>
  </g>
  <g transform="matrix(0.2 0 0 0.2 304.924 1933)">
   <path d="m74.8535 28.3203c34.8145 0 63.623-28.8086 63.623-63.5742 0-34.8145-28.8574-63.623-63.6719-63.623-34.7656 0-63.5254 28.8086-63.5254 63.623 0 34.7656 28.8086 63.5742 63.5742 63.5742Zm0-9.08203c-30.1758 0-54.4434-24.3164-54.4434-54.4922 0-30.2246 24.2188-54.4922 54.3945-54.4922 30.2246 0 54.541 24.2676 54.541 54.4922 0 30.1758-24.2676 54.4922-54.4922 54.4922Zm-28.8574-54.4922c0 2.58789 1.85547 4.39453 4.58984 4.39453h19.7266v19.7754c0 2.68555 1.85547 4.58984 4.44336 4.58984 2.68555 0 4.54102-1.85547 4.54102-4.58984v-19.7754h19.7754c2.68555 0 4.58984-1.80664 4.58984-4.39453 0-2.73438-1.85547-4.58984-4.58984-4.58984h-19.7754v-19.7266c0-2.73438-1.85547-4.63867-4.54102-4.63867-2.58789 0-4.44336 1.9043-4.44336 4.63867v19.7266h-19.7266c-2.73438 0-4.58984 1.85547-4.58984 4.58984Z"/>
  </g>
  <text style="stroke:none;fill:black;font-family:sans-serif;font-size:13;font-weight:bold;" transform="matrix(1 0 0 1 263 1953)">Design Variations</text>
  <text style="stroke:none;fill:black;font-family:sans-serif;font-size:13;" transform="matrix(1 0 0 1 263 1971)">Symbols are supported in up to nine weights and three scales.</text>
  <text style="stroke:none;fill:black;font-family:sans-serif;font-size:13;" transform="matrix(1 0 0 1 263 1989)">For optimal layout with text and other symbols, vertically align</text>
  <text style="stroke:none;fill:black;font-family:sans-serif;font-size:13;" transform="matrix(1 0 0 1 263 2007)">symbols with the adjacent text.</text>
  <line style="fill:none;stroke:#00AEEF;stroke-width:0.5;opacity:1.0;" x1="776" x2="776" y1="1919" y2="1933"/>
  <g transform="matrix(0.2 0 0 0.2 776 1933)">
   <path d="m16.5527 0.78125c2.58789 0 3.85742-0.976562 4.78516-3.71094l6.29883-17.2363h28.8086l6.29883 17.2363c0.927734 2.73438 2.19727 3.71094 4.73633 3.71094 2.58789 0 4.24805-1.5625 4.24805-4.00391 0-0.830078-0.146484-1.61133-0.537109-2.63672l-22.9004-60.9863c-1.12305-2.97852-3.125-4.49219-6.25-4.49219-3.02734 0-5.07812 1.46484-6.15234 4.44336l-22.9004 61.084c-0.390625 1.02539-0.537109 1.80664-0.537109 2.63672 0 2.44141 1.5625 3.95508 4.10156 3.95508Zm13.4766-28.3691 11.8652-32.8613h0.244141l11.8652 32.8613Z"/>
  </g>
  <line style="fill:none;stroke:#00AEEF;stroke-width:0.5;opacity:1.0;" x1="792.836" x2="792.836" y1="1919" y2="1933"/>
  <text style="stroke:none;fill:black;font-family:sans-serif;font-size:13;font-weight:bold;" transform="matrix(1 0 0 1 776 1953)">Margins</text>
  <text style="stroke:none;fill:black;font-family:sans-serif;font-size:13;" transform="matrix(1 0 0 1 776 1971)">Leading and trailing margins on the left and right side of each symbol</text>
  <text style="stroke:none;fill:black;font-family:sans-serif;font-size:13;" transform="matrix(1 0 0 1 776 1989)">can be adjusted by modifying the x-location of the margin guidelines.</text>
  <text style="stroke:none;fill:black;font-family:sans-serif;font-size:13;" transform="matrix(1 0 0 1 776 2007)">Modifications are automatically applied proportionally to all</text>
  <text style="stroke:none;fill:black;font-family:sans-serif;font-size:13;" transform="matrix(1 0 0 1 776 2025)">scales and weights.</text>
  <g transform="matrix(0.2 0 0 0.2 1289 1933)">
   <path d="m14.209 9.32617 8.49609 8.54492c4.29688 4.3457 9.22852 4.05273 13.8672-1.07422l53.4668-58.9355-4.83398-4.88281-53.0762 58.3984c-1.75781 2.00195-3.41797 2.49023-5.76172 0.146484l-5.85938-5.81055c-2.34375-2.29492-1.80664-4.00391 0.195312-5.81055l57.373-54.0039-4.88281-4.83398-57.959 54.4434c-4.93164 4.58984-5.32227 9.47266-1.02539 13.8184Zm32.0801-90.9668c-2.09961 2.05078-2.24609 4.93164-1.07422 6.88477 1.17188 1.80664 3.4668 2.97852 6.68945 2.14844 7.32422-1.70898 14.9414-2.00195 22.0703 2.68555l-2.92969 7.27539c-1.70898 4.15039-0.830078 7.08008 1.85547 9.81445l11.4746 11.5723c2.44141 2.44141 4.49219 2.53906 7.32422 2.05078l5.32227-0.976562 3.32031 3.36914-0.195312 2.7832c-0.195312 2.49023 0.439453 4.39453 2.88086 6.78711l3.80859 3.71094c2.39258 2.39258 5.46875 2.53906 7.8125 0.195312l14.5508-14.5996c2.34375-2.34375 2.24609-5.32227-0.146484-7.71484l-3.85742-3.80859c-2.39258-2.39258-4.24805-3.17383-6.64062-2.97852l-2.88086 0.244141-3.22266-3.17383 1.2207-5.61523c0.634766-2.83203-0.146484-5.0293-3.07617-7.95898l-10.9863-10.9375c-16.6992-16.6016-38.8672-16.2109-53.3203-1.75781Zm7.4707 1.85547c12.1582-8.88672 28.6133-7.37305 39.7461 3.75977l12.1582 12.0605c1.17188 1.17188 1.36719 2.09961 1.02539 3.80859l-1.61133 7.42188 7.51953 7.42188 4.93164-0.292969c1.26953-0.0488281 1.66016 0.0488281 2.63672 1.02539l2.88086 2.88086-12.207 12.207-2.88086-2.88086c-0.976562-0.976562-1.12305-1.36719-1.07422-2.68555l0.341797-4.88281-7.4707-7.42188-7.61719 1.26953c-1.61133 0.341797-2.34375 0.195312-3.56445-0.976562l-10.0098-10.0098c-1.26953-1.17188-1.41602-2.00195-0.634766-3.85742l4.39453-10.4492c-7.8125-7.27539-17.9688-10.4004-28.125-7.42188-0.78125 0.195312-1.07422-0.439453-0.439453-0.976562Z"/>
  </g>
  <text style="stroke:none;fill:black;font-family:sans-serif;font-size:13;font-weight:bold;" transform="matrix(1 0 0 1 1289 1953)">Exporting</text>
  <text style="stroke:none;fill:black;font-family:sans-serif;font-size:13;" transform="matrix(1 0 0 1 1289 1971)">Symbols should be outlined when exporting to ensure the</text>
  <text style="stroke:none;fill:black;font-family:sans-serif;font-size:13;" transform="matrix(1 0 0 1 1289 1989)">design is preserved when submitting to Xcode.</text>
  <text id="template-version" style="stroke:none;fill:black;font-family:sans-serif;font-size:13;text-anchor:end;" transform="matrix(1 0 0 1 3036 1933)">Template v.5.0</text>
  <text style="stroke:none;fill:black;font-family:sans-serif;font-size:13;text-anchor:end;" transform="matrix(1 0 0 1 3036 1951)">Requires Xcode 15 or greater</text>
  <text id="descriptive-name" style="stroke:none;fill:black;font-family:sans-serif;font-size:13;text-anchor:end;" transform="matrix(1 0 0 1 3036 1969)">Generated from exclamationmark.warninglight</text>
  <text style="stroke:none;fill:black;font-family:sans-serif;font-size:13;text-anchor:end;" transform="matrix(1 0 0 1 3036 1987)">Typeset at 100.0 points</text>
  <text style="stroke:none;fill:black;font-family:sans-serif;font-size:13;" transform="matrix(1 0 0 1 263 726)">Small</text>
  <text style="stroke:none;fill:black;font-family:sans-serif;font-size:13;" transform="matrix(1 0 0 1 263 1156)">Medium</text>
  <text style="stroke:none;fill:black;font-family:sans-serif;font-size:13;" transform="matrix(1 0 0 1 263 1586)">Large</text>
 </g>
 <g id="Guides">
  <g id="H-reference" style="fill:#27AAE1;stroke:none;" transform="matrix(1 0 0 1 339 696)">
   <path d="M0.993654 0L3.63775 0L29.3281-67.1323L30.0303-67.1323L30.0303-70.459L28.1226-70.459ZM11.6885-24.4799L46.9815-24.4799L46.2315-26.7285L12.4385-26.7285ZM55.1196 0L57.7637 0L30.6382-70.459L29.4326-70.459L29.4326-67.1323Z"/>
  </g>
  <line id="Baseline-S" style="fill:none;stroke:#27AAE1;opacity:1;stroke-width:0.5;" x1="263" x2="3036" y1="696" y2="696"/>
  <line id="Capline-S" style="fill:none;stroke:#27AAE1;opacity:1;stroke-width:0.5;" x1="263" x2="3036" y1="625.541" y2="625.541"/>
  <g id="H-reference" style="fill:#27AAE1;stroke:none;" transform="matrix(1 0 0 1 339 1126)">
   <path d="M0.993654 0L3.63775 0L29.3281-67.1323L30.0303-67.1323L30.0303-70.459L28.1226-70.459ZM11.6885-24.4799L46.9815-24.4799L46.2315-26.7285L12.4385-26.7285ZM55.1196 0L57.7637 0L30.6382-70.459L29.4326-70.459L29.4326-67.1323Z"/>
  </g>
  <line id="Baseline-M" style="fill:none;stroke:#27AAE1;opacity:1;stroke-width:0.5;" x1="263" x2="3036" y1="1126" y2="1126"/>
  <line id="Capline-M" style="fill:none;stroke:#27AAE1;opacity:1;stroke-width:0.5;" x1="263" x2="3036" y1="1055.54" y2="1055.54"/>
  <g id="H-reference" style="fill:#27AAE1;stroke:none;" transform="matrix(1 0 0 1 339 1556)">
   <path d="M0.993654 0L3.63775 0L29.3281-67.1323L30.0303-67.1323L30.0303-70.459L28.1226-70.459ZM11.6885-24.4799L46.9815-24.4799L46.2315-26.7285L12.4385-26.7285ZM55.1196 0L57.7637 0L30.6382-70.459L29.4326-70.459L29.4326-67.1323Z"/>
  </g>
  <line id="Baseline-L" style="fill:none;stroke:#27AAE1;opacity:1;stroke-width:0.5;" x1="263" x2="3036" y1="1556" y2="1556"/>
  <line id="Capline-L" style="fill:none;stroke:#27AAE1;opacity:1;stroke-width:0.5;" x1="263" x2="3036" y1="1485.54" y2="1485.54"/>
  <line id="left-margin-Ultralight-S" style="fill:none;stroke:#00AEEF;stroke-width:0.5;opacity:1.0;" x1="508.235" x2="508.235" y1="600.785" y2="720.121"/>
  <line id="right-margin-Ultralight-S" style="fill:none;stroke:#00AEEF;stroke-width:0.5;opacity:1.0;" x1="611.188" x2="611.188" y1="600.785" y2="720.121"/>
  <line id="left-margin-Regular-S" style="fill:none;stroke:#00AEEF;stroke-width:0.5;opacity:1.0;" x1="1392.37" x2="1392.37" y1="600.785" y2="720.121"/>
  <line id="right-margin-Regular-S" style="fill:none;stroke:#00AEEF;stroke-width:0.5;opacity:1.0;" x1="1507.32" x2="1507.32" y1="600.785" y2="720.121"/>
  <line id="left-margin-Black-S" style="fill:none;stroke:#00AEEF;stroke-width:0.5;opacity:1.0;" x1="2869.48" x2="2869.48" y1="600.785" y2="720.121"/>
  <line id="right-margin-Black-S" style="fill:none;stroke:#00AEEF;stroke-width:0.5;opacity:1.0;" x1="2997.32" x2="2997.32" y1="600.785" y2="720.121"/>
 </g>
 <g id="Symbols">
  <g id="Black-S" transform="matrix(1 0 0 1 2869.48 696)">
   <path class="SFSymbolsPreviewWireframe" d="M47.1191-59.082L59.3262-59.082L59.3262-69.6777C59.3262-70.4102 59.8145-70.8984 60.5469-70.8984L67.3828-70.8984C68.1152-70.8984 68.6035-70.4102 68.6035-69.6777L68.6035-59.082L80.8105-59.082L80.8105-72.5098C80.8105-78.9062 76.6113-83.1055 70.2148-83.1055L57.7148-83.1055C51.3184-83.1055 47.1191-78.9062 47.1191-72.5098ZM63.8672-3.75977C81.0547-3.75977 95.3613-18.0664 95.3613-35.2539C95.3613-52.4902 81.0547-66.748 63.916-66.748C46.6797-66.748 32.373-52.3926 32.373-35.2539C32.373-18.0664 46.6797-3.75977 63.8672-3.75977ZM63.9648-15.918C53.5156-15.918 44.6289-24.8047 44.6289-35.2539C44.6289-45.7031 53.4668-54.5898 63.916-54.5898C74.4141-54.5898 83.3008-45.752 83.3008-35.2539C83.3008-24.8047 74.4141-15.918 63.9648-15.918ZM99.5605-62.3047L104.248-66.9434C106.689-69.4336 106.689-73.1934 104.248-75.5859C101.855-78.0273 98.0957-78.0273 95.6055-75.5859L90.9668-70.8984C88.5254-68.5059 88.5254-64.6973 90.9668-62.3047C93.3594-59.8633 97.168-59.8633 99.5605-62.3047ZM108.252-29.1504L114.844-29.1504C118.311-29.1504 120.996-31.8359 120.996-35.2539C120.996-38.6719 118.311-41.3574 114.844-41.3574L108.252-41.3574C104.834-41.3574 102.148-38.6719 102.148-35.2539C102.148-31.8359 104.834-29.1504 108.252-29.1504ZM90.9668 0.390625L95.6055 5.07812C98.0957 7.51953 101.855 7.51953 104.248 5.07812C106.689 2.68555 106.689-1.07422 104.248-3.56445L99.5605-8.20312C97.168-10.6445 93.3594-10.6445 90.9668-8.20312C88.5254-5.81055 88.5254-2.00195 90.9668 0.390625ZM70.0684 8.54492C70.0684 5.12695 67.3828 2.44141 63.9648 2.44141C60.5469 2.44141 57.8613 5.12695 57.8613 8.54492L57.8613 15.1367C57.8613 18.6035 60.5469 21.2891 63.9648 21.2891C67.3828 21.2891 70.0684 18.6035 70.0684 15.1367ZM36.8652 0.390625C39.3066-2.00195 39.3066-5.81055 36.8652-8.20312C34.4727-10.6445 30.6641-10.6445 28.2715-8.20312L23.584-3.56445C21.1426-1.07422 21.1426 2.68555 23.584 5.07812C25.9766 7.51953 29.7363 7.51953 32.2266 5.07812ZM19.5801-29.1504C22.998-29.1504 25.6836-31.8359 25.6836-35.2539C25.6836-38.6719 22.998-41.3574 19.5801-41.3574L12.9883-41.3574C9.52148-41.3574 6.83594-38.6719 6.83594-35.2539C6.83594-31.8359 9.52148-29.1504 12.9883-29.1504ZM28.2715-62.3047C30.6641-59.8633 34.4727-59.8633 36.8652-62.3047C39.3066-64.6973 39.3066-68.5059 36.8652-70.8984L32.2266-75.5859C29.7363-78.0273 25.9766-78.0273 23.584-75.5859C21.1426-73.1934 21.1426-69.4336 23.584-66.9434ZM64.0137-33.2031C66.7969-33.2031 68.3594-34.668 68.6035-37.5488L69.1406-45.459C69.3359-48.4863 67.2363-50.5371 63.9648-50.5371C60.6934-50.5371 58.5938-48.4863 58.7891-45.459L59.3262-37.5C59.5703-34.668 61.1816-33.2031 64.0137-33.2031ZM64.0137-20.9473C67.4805-20.9473 69.3848-22.6562 69.3848-25.5371C69.3848-28.418 67.3828-30.127 64.0137-30.127C60.4492-30.127 58.5449-28.418 58.5449-25.5371C58.5449-22.6562 60.4492-20.9473 64.0137-20.9473Z"/>
  </g>
  <g id="Regular-S" transform="matrix(1 0 0 1 1392.37 696)">
   <path class="SFSymbolsPreviewWireframe" d="M43.2129-57.0801L49.8047-57.0801L49.8047-69.7754C49.8047-71.1426 50.4883-71.8262 51.8555-71.8262L63.1836-71.8262C64.502-71.8262 65.1855-71.1426 65.1855-69.7754L65.1855-57.0801L71.8262-57.0801L71.8262-70.3613C71.8262-75.3906 68.7988-78.418 63.7695-78.418L51.2695-78.418C46.2402-78.418 43.2129-75.3906 43.2129-70.3613ZM57.4219-6.15234C73.291-6.15234 86.5234-19.3848 86.5234-35.2539C86.5234-51.123 73.3398-64.3555 57.4707-64.3555C41.5527-64.3555 28.3203-51.123 28.3203-35.2539C28.3203-19.3848 41.5527-6.15234 57.4219-6.15234ZM57.5195-13.1836C45.5078-13.1836 35.4492-23.2422 35.4492-35.2539C35.4492-47.2168 45.5078-57.3242 57.4707-57.3242C69.4824-57.3242 79.541-47.2656 79.541-35.2539C79.541-23.2422 69.5312-13.1836 57.5195-13.1836ZM87.6953-60.1074L93.2617-65.6738C94.7266-67.1387 94.7266-69.5801 93.2617-71.0449C91.7969-72.5098 89.3555-72.5098 87.8906-71.0449L82.3242-65.4785C80.8594-64.0137 80.8594-61.5723 82.3242-60.1074C83.7402-58.6426 86.2305-58.6426 87.6953-60.1074ZM96.3867-31.4453L104.297-31.4453C106.348-31.4453 108.105-33.2031 108.105-35.2539C108.105-37.3047 106.348-39.0625 104.297-39.0625L96.3867-39.0625C94.3359-39.0625 92.627-37.3047 92.627-35.2539C92.627-33.2031 94.3359-31.4453 96.3867-31.4453ZM82.3242-5.0293L87.8906 0.537109C89.3555 2.00195 91.7969 2.00195 93.2617 0.537109C94.7266-0.927734 94.7266-3.36914 93.2617-4.83398L87.6953-10.4004C86.2305-11.8652 83.7402-11.8652 82.3242-10.4004C80.8594-8.93555 80.8594-6.49414 82.3242-5.0293ZM61.3281 3.71094C61.3281 1.66016 59.5703-0.0488281 57.5195-0.0488281C55.4688-0.0488281 53.7109 1.66016 53.7109 3.71094L53.7109 11.6211C53.7109 13.6719 55.4688 15.4297 57.5195 15.4297C59.5703 15.4297 61.3281 13.6719 61.3281 11.6211ZM32.6172-5.0293C34.082-6.49414 34.082-8.93555 32.6172-10.4004C31.1523-11.8652 28.6621-11.8652 27.2461-10.4004L21.6797-4.83398C20.2148-3.36914 20.2148-0.927734 21.6797 0.537109C23.1445 2.00195 25.5859 2.00195 27.002 0.537109ZM18.5059-31.4453C20.5566-31.4453 22.3145-33.2031 22.3145-35.2539C22.3145-37.3047 20.5566-39.0625 18.5059-39.0625L10.6445-39.0625C8.59375-39.0625 6.83594-37.3047 6.83594-35.2539C6.83594-33.2031 8.59375-31.4453 10.6445-31.4453ZM27.2461-60.1074C28.6621-58.6426 31.1523-58.6426 32.6172-60.1074C34.082-61.5723 34.082-64.0137 32.6172-65.4785L27.002-71.0449C25.5859-72.5098 23.1445-72.5098 21.6797-71.0449C20.2148-69.5801 20.2148-67.1387 21.6797-65.6738ZM57.5684-31.6406C59.6191-31.6406 60.7422-32.7637 60.8398-35.0098L61.4746-48.1934C61.5723-50.5371 59.7656-52.1973 57.5195-52.1973C55.1758-52.1973 53.5156-50.5859 53.6133-48.2422L54.1504-35.0098C54.248-32.8125 55.3711-31.6406 57.5684-31.6406ZM57.5195-18.8965C59.9121-18.8965 61.9629-20.752 61.9629-23.1934C61.9629-25.6348 59.9609-27.4902 57.5195-27.4902C55.0781-27.4902 53.0273-25.5859 53.0273-23.1934C53.0273-20.8008 55.127-18.8965 57.5195-18.8965Z"/>
  </g>
  <g id="Ultralight-S" transform="matrix(1 0 0 1 508.235 696)">
   <path class="SFSymbolsPreviewWireframe" d="M38.7173-56.6714L40.9044-56.6714L40.9044-67.2779C40.9044-69.9619 42.4962-71.5537 45.2256-71.5537L57.8252-71.5537C60.5513-71.5537 62.1885-69.9619 62.1885-67.2779L62.1885-56.6714L64.3336-56.6714L64.3336-67.4097C64.3336-71.3492 61.9874-73.7408 58.0025-73.7408L45.0484-73.7408C41.1089-73.7408 38.7173-71.3492 38.7173-67.4097ZM51.4732-9.69431C65.5713-9.69431 77.0328-21.1557 77.0328-35.2539C77.0328-49.3521 65.5748-60.8135 51.4766-60.8135C37.375-60.8135 25.9136-49.3521 25.9136-35.2539C25.9136-21.1557 37.375-9.69431 51.4732-9.69431ZM51.48-11.8667C38.6055-11.8667 28.0928-22.3794 28.0928-35.2539C28.0928-48.125 38.6055-58.6411 51.4766-58.6411C64.3965-58.6411 74.8638-48.1284 74.8638-35.2539C74.8638-22.3794 64.3999-11.8667 51.48-11.8667ZM76.025-58.2456L83.0445-65.2651C83.5103-65.6401 83.5103-66.4014 83.0445-66.8218C82.6695-67.2422 81.8629-67.2422 81.4878-66.8218L74.4683-59.8023C74.0479-59.4273 74.0479-58.666 74.4683-58.2456C74.8853-57.8252 75.65-57.8252 76.025-58.2456ZM85.1251-34.1245L95.0333-34.1245C95.6309-34.1245 96.1173-34.6562 96.1173-35.2539C96.1173-35.8516 95.6309-36.3833 95.0333-36.3833L85.1251-36.3833C84.482-36.3833 83.9991-35.8516 83.9991-35.2539C83.9991-34.6562 84.482-34.1245 85.1251-34.1245ZM74.4683-10.7055L81.4878-3.686C81.8629-3.26558 82.6695-3.26558 83.0445-3.686C83.5103-4.10642 83.5103-4.86766 83.0445-5.24267L76.025-12.2622C75.65-12.6826 74.8853-12.6826 74.4683-12.2622C74.0479-11.8418 74.0479-11.0805 74.4683-10.7055ZM52.7003-1.73824C52.7003-2.33591 52.1685-2.81883 51.5708-2.81883C50.9732-2.81883 50.4414-2.33591 50.4414-1.73824L50.4414 8.16995C50.4414 8.81303 50.9732 9.29936 51.5708 9.29936C52.1685 9.29936 52.7003 8.81303 52.7003 8.16995ZM28.4849-10.7055C28.9507-11.0805 28.9507-11.8418 28.4849-12.2622C28.1099-12.6826 27.2998-12.6826 26.9282-12.2622L19.9087-5.24267C19.4883-4.86766 19.4883-4.10642 19.9087-3.686C20.3291-3.26558 21.0904-3.26558 21.462-3.686ZM17.8701-34.1245C18.4678-34.1245 18.9541-34.6562 18.9541-35.2539C18.9541-35.8516 18.4678-36.3833 17.8701-36.3833L7.96535-36.3833C7.32228-36.3833 6.83594-35.8516 6.83594-35.2539C6.83594-34.6562 7.32228-34.1245 7.96535-34.1245ZM26.9282-58.2456C27.2998-57.8252 28.1099-57.8252 28.4849-58.2456C28.9507-58.666 28.9507-59.4273 28.4849-59.8023L21.462-66.8218C21.0904-67.2422 20.3291-67.2422 19.9087-66.8218C19.4883-66.4014 19.4883-65.6401 19.9087-65.2651ZM51.4834-29.7334C52.2173-29.7334 52.7501-30.357 52.7569-31.2862L53.0284-49.0561C53.0352-50.0376 52.4092-50.6533 51.48-50.6533C50.544-50.6533 49.9283-50.041 49.9351-49.0596L50.1997-31.2862C50.2066-30.3604 50.7393-29.7334 51.4834-29.7334ZM51.48-19.8047C52.919-19.8047 54.0162-21.0244 54.0162-22.376C54.0162-23.7276 52.9224-24.9019 51.48-24.9019C50.083-24.9019 48.9405-23.7241 48.9405-22.376C48.9405-21.0278 50.0865-19.8047 51.48-19.8047Z"/>
  </g>
 </g>
</svg>
