<?xml version="1.0" encoding="UTF-8"?>
<!--Generator: Apple Native CoreSVG 232.5-->
<!DOCTYPE svg
PUBLIC "-//W3C//DTD SVG 1.1//EN"
       "http://www.w3.org/Graphics/SVG/1.1/DTD/svg11.dtd">
<svg version="1.1" xmlns="http://www.w3.org/2000/svg" xmlns:xlink="http://www.w3.org/1999/xlink" width="3300" height="2200">
 <!--glyph: "uni101504.medium", point size: 100.0, font version: "19.2d2e1", template writer version: "128"-->
 <style>.SFSymbolsPreviewWireframe {fill:none;opacity:1.0;stroke:black;stroke-width:0.5}
</style>
 <g id="Notes">
  <rect height="2200" id="artboard" style="fill:white;opacity:1" width="3300" x="0" y="0"/>
  <line style="fill:none;stroke:black;opacity:1;stroke-width:0.5;" x1="263" x2="3036" y1="292" y2="292"/>
  <text style="stroke:none;fill:black;font-family:sans-serif;font-size:13;font-weight:bold;" transform="matrix(1 0 0 1 263 322)">Weight/Scale Variations</text>
  <text style="stroke:none;fill:black;font-family:sans-serif;font-size:13;text-anchor:middle;" transform="matrix(1 0 0 1 559.711 322)">Ultralight</text>
  <text style="stroke:none;fill:black;font-family:sans-serif;font-size:13;text-anchor:middle;" transform="matrix(1 0 0 1 856.422 322)">Thin</text>
  <text style="stroke:none;fill:black;font-family:sans-serif;font-size:13;text-anchor:middle;" transform="matrix(1 0 0 1 1153.13 322)">Light</text>
  <text style="stroke:none;fill:black;font-family:sans-serif;font-size:13;text-anchor:middle;" transform="matrix(1 0 0 1 1449.84 322)">Regular</text>
  <text style="stroke:none;fill:black;font-family:sans-serif;font-size:13;text-anchor:middle;" transform="matrix(1 0 0 1 1746.56 322)">Medium</text>
  <text style="stroke:none;fill:black;font-family:sans-serif;font-size:13;text-anchor:middle;" transform="matrix(1 0 0 1 2043.27 322)">Semibold</text>
  <text style="stroke:none;fill:black;font-family:sans-serif;font-size:13;text-anchor:middle;" transform="matrix(1 0 0 1 2339.98 322)">Bold</text>
  <text style="stroke:none;fill:black;font-family:sans-serif;font-size:13;text-anchor:middle;" transform="matrix(1 0 0 1 2636.69 322)">Heavy</text>
  <text style="stroke:none;fill:black;font-family:sans-serif;font-size:13;text-anchor:middle;" transform="matrix(1 0 0 1 2933.4 322)">Black</text>
  <line style="fill:none;stroke:black;opacity:1;stroke-width:0.5;" x1="263" x2="3036" y1="1903" y2="1903"/>
  <g transform="matrix(0.2 0 0 0.2 263 1933)">
   <path d="m46.2402 4.15039c21.5332 0 39.4531-17.8711 39.4531-39.4043s-17.9688-39.4043-39.502-39.4043c-21.4844 0-39.3555 17.8711-39.3555 39.4043s17.9199 39.4043 39.4043 39.4043Zm0-7.42188c-17.7246 0-31.8848-14.209-31.8848-31.9824s14.1113-31.9824 31.8359-31.9824c17.7734 0 32.0312 14.209 32.0312 31.9824s-14.209 31.9824-31.9824 31.9824Zm-17.9688-31.9824c0 2.14844 1.51367 3.61328 3.75977 3.61328h10.498v10.5957c0 2.19727 1.46484 3.71094 3.61328 3.71094 2.24609 0 3.71094-1.51367 3.71094-3.71094v-10.5957h10.5957c2.19727 0 3.71094-1.46484 3.71094-3.61328 0-2.19727-1.51367-3.71094-3.71094-3.71094h-10.5957v-10.5469c0-2.24609-1.46484-3.75977-3.71094-3.75977-2.14844 0-3.61328 1.51367-3.61328 3.75977v10.5469h-10.498c-2.24609 0-3.75977 1.51367-3.75977 3.71094Z"/>
  </g>
  <g transform="matrix(0.2 0 0 0.2 281.506 1933)">
   <path d="m58.5449 14.5508c27.2461 0 49.8047-22.6074 49.8047-49.8047 0-27.2461-22.6074-49.8047-49.8535-49.8047-27.1973 0-49.7559 22.5586-49.7559 49.8047 0 27.1973 22.6074 49.8047 49.8047 49.8047Zm0-8.30078c-23.0469 0-41.4551-18.457-41.4551-41.5039s18.3594-41.5039 41.4062-41.5039 41.5527 18.457 41.5527 41.5039-18.457 41.5039-41.5039 41.5039Zm-22.6562-41.5039c0 2.39258 1.66016 4.00391 4.15039 4.00391h14.3555v14.4043c0 2.44141 1.66016 4.15039 4.05273 4.15039 2.44141 0 4.15039-1.66016 4.15039-4.15039v-14.4043h14.4043c2.44141 0 4.15039-1.61133 4.15039-4.00391 0-2.44141-1.70898-4.15039-4.15039-4.15039h-14.4043v-14.3555c0-2.49023-1.70898-4.19922-4.15039-4.19922-2.39258 0-4.05273 1.70898-4.05273 4.19922v14.3555h-14.3555c-2.49023 0-4.15039 1.70898-4.15039 4.15039Z"/>
  </g>
  <g transform="matrix(0.2 0 0 0.2 304.924 1933)">
   <path d="m74.8535 28.3203c34.8145 0 63.623-28.8086 63.623-63.5742 0-34.8145-28.8574-63.623-63.6719-63.623-34.7656 0-63.5254 28.8086-63.5254 63.623 0 34.7656 28.8086 63.5742 63.5742 63.5742Zm0-9.08203c-30.1758 0-54.4434-24.3164-54.4434-54.4922 0-30.2246 24.2188-54.4922 54.3945-54.4922 30.2246 0 54.541 24.2676 54.541 54.4922 0 30.1758-24.2676 54.4922-54.4922 54.4922Zm-28.8574-54.4922c0 2.58789 1.85547 4.39453 4.58984 4.39453h19.7266v19.7754c0 2.68555 1.85547 4.58984 4.44336 4.58984 2.68555 0 4.54102-1.85547 4.54102-4.58984v-19.7754h19.7754c2.68555 0 4.58984-1.80664 4.58984-4.39453 0-2.73438-1.85547-4.58984-4.58984-4.58984h-19.7754v-19.7266c0-2.73438-1.85547-4.63867-4.54102-4.63867-2.58789 0-4.44336 1.9043-4.44336 4.63867v19.7266h-19.7266c-2.73438 0-4.58984 1.85547-4.58984 4.58984Z"/>
  </g>
  <text style="stroke:none;fill:black;font-family:sans-serif;font-size:13;font-weight:bold;" transform="matrix(1 0 0 1 263 1953)">Design Variations</text>
  <text style="stroke:none;fill:black;font-family:sans-serif;font-size:13;" transform="matrix(1 0 0 1 263 1971)">Symbols are supported in up to nine weights and three scales.</text>
  <text style="stroke:none;fill:black;font-family:sans-serif;font-size:13;" transform="matrix(1 0 0 1 263 1989)">For optimal layout with text and other symbols, vertically align</text>
  <text style="stroke:none;fill:black;font-family:sans-serif;font-size:13;" transform="matrix(1 0 0 1 263 2007)">symbols with the adjacent text.</text>
  <line style="fill:none;stroke:#00AEEF;stroke-width:0.5;opacity:1.0;" x1="776" x2="776" y1="1919" y2="1933"/>
  <g transform="matrix(0.2 0 0 0.2 776 1933)">
   <path d="m16.5527 0.78125c2.58789 0 3.85742-0.976562 4.78516-3.71094l6.29883-17.2363h28.8086l6.29883 17.2363c0.927734 2.73438 2.19727 3.71094 4.73633 3.71094 2.58789 0 4.24805-1.5625 4.24805-4.00391 0-0.830078-0.146484-1.61133-0.537109-2.63672l-22.9004-60.9863c-1.12305-2.97852-3.125-4.49219-6.25-4.49219-3.02734 0-5.07812 1.46484-6.15234 4.44336l-22.9004 61.084c-0.390625 1.02539-0.537109 1.80664-0.537109 2.63672 0 2.44141 1.5625 3.95508 4.10156 3.95508Zm13.4766-28.3691 11.8652-32.8613h0.244141l11.8652 32.8613Z"/>
  </g>
  <line style="fill:none;stroke:#00AEEF;stroke-width:0.5;opacity:1.0;" x1="792.836" x2="792.836" y1="1919" y2="1933"/>
  <text style="stroke:none;fill:black;font-family:sans-serif;font-size:13;font-weight:bold;" transform="matrix(1 0 0 1 776 1953)">Margins</text>
  <text style="stroke:none;fill:black;font-family:sans-serif;font-size:13;" transform="matrix(1 0 0 1 776 1971)">Leading and trailing margins on the left and right side of each symbol</text>
  <text style="stroke:none;fill:black;font-family:sans-serif;font-size:13;" transform="matrix(1 0 0 1 776 1989)">can be adjusted by modifying the x-location of the margin guidelines.</text>
  <text style="stroke:none;fill:black;font-family:sans-serif;font-size:13;" transform="matrix(1 0 0 1 776 2007)">Modifications are automatically applied proportionally to all</text>
  <text style="stroke:none;fill:black;font-family:sans-serif;font-size:13;" transform="matrix(1 0 0 1 776 2025)">scales and weights.</text>
  <g transform="matrix(0.2 0 0 0.2 1289 1933)">
   <path d="m14.209 9.32617 8.49609 8.54492c4.29688 4.3457 9.22852 4.05273 13.8672-1.07422l53.4668-58.9355-4.83398-4.88281-53.0762 58.3984c-1.75781 2.00195-3.41797 2.49023-5.76172 0.146484l-5.85938-5.81055c-2.34375-2.29492-1.80664-4.00391 0.195312-5.81055l57.373-54.0039-4.88281-4.83398-57.959 54.4434c-4.93164 4.58984-5.32227 9.47266-1.02539 13.8184Zm32.0801-90.9668c-2.09961 2.05078-2.24609 4.93164-1.07422 6.88477 1.17188 1.80664 3.4668 2.97852 6.68945 2.14844 7.32422-1.70898 14.9414-2.00195 22.0703 2.68555l-2.92969 7.27539c-1.70898 4.15039-0.830078 7.08008 1.85547 9.81445l11.4746 11.5723c2.44141 2.44141 4.49219 2.53906 7.32422 2.05078l5.32227-0.976562 3.32031 3.36914-0.195312 2.7832c-0.195312 2.49023 0.439453 4.39453 2.88086 6.78711l3.80859 3.71094c2.39258 2.39258 5.46875 2.53906 7.8125 0.195312l14.5508-14.5996c2.34375-2.34375 2.24609-5.32227-0.146484-7.71484l-3.85742-3.80859c-2.39258-2.39258-4.24805-3.17383-6.64062-2.97852l-2.88086 0.244141-3.22266-3.17383 1.2207-5.61523c0.634766-2.83203-0.146484-5.0293-3.07617-7.95898l-10.9863-10.9375c-16.6992-16.6016-38.8672-16.2109-53.3203-1.75781Zm7.4707 1.85547c12.1582-8.88672 28.6133-7.37305 39.7461 3.75977l12.1582 12.0605c1.17188 1.17188 1.36719 2.09961 1.02539 3.80859l-1.61133 7.42188 7.51953 7.42188 4.93164-0.292969c1.26953-0.0488281 1.66016 0.0488281 2.63672 1.02539l2.88086 2.88086-12.207 12.207-2.88086-2.88086c-0.976562-0.976562-1.12305-1.36719-1.07422-2.68555l0.341797-4.88281-7.4707-7.42188-7.61719 1.26953c-1.61133 0.341797-2.34375 0.195312-3.56445-0.976562l-10.0098-10.0098c-1.26953-1.17188-1.41602-2.00195-0.634766-3.85742l4.39453-10.4492c-7.8125-7.27539-17.9688-10.4004-28.125-7.42188-0.78125 0.195312-1.07422-0.439453-0.439453-0.976562Z"/>
  </g>
  <text style="stroke:none;fill:black;font-family:sans-serif;font-size:13;font-weight:bold;" transform="matrix(1 0 0 1 1289 1953)">Exporting</text>
  <text style="stroke:none;fill:black;font-family:sans-serif;font-size:13;" transform="matrix(1 0 0 1 1289 1971)">Symbols should be outlined when exporting to ensure the</text>
  <text style="stroke:none;fill:black;font-family:sans-serif;font-size:13;" transform="matrix(1 0 0 1 1289 1989)">design is preserved when submitting to Xcode.</text>
  <text id="template-version" style="stroke:none;fill:black;font-family:sans-serif;font-size:13;text-anchor:end;" transform="matrix(1 0 0 1 3036 1933)">Template v.5.0</text>
  <text style="stroke:none;fill:black;font-family:sans-serif;font-size:13;text-anchor:end;" transform="matrix(1 0 0 1 3036 1951)">Requires Xcode 15 or greater</text>
  <text id="descriptive-name" style="stroke:none;fill:black;font-family:sans-serif;font-size:13;text-anchor:end;" transform="matrix(1 0 0 1 3036 1969)">Generated from fan.oscillation</text>
  <text style="stroke:none;fill:black;font-family:sans-serif;font-size:13;text-anchor:end;" transform="matrix(1 0 0 1 3036 1987)">Typeset at 100.0 points</text>
  <text style="stroke:none;fill:black;font-family:sans-serif;font-size:13;" transform="matrix(1 0 0 1 263 726)">Small</text>
  <text style="stroke:none;fill:black;font-family:sans-serif;font-size:13;" transform="matrix(1 0 0 1 263 1156)">Medium</text>
  <text style="stroke:none;fill:black;font-family:sans-serif;font-size:13;" transform="matrix(1 0 0 1 263 1586)">Large</text>
 </g>
 <g id="Guides">
  <g id="H-reference" style="fill:#27AAE1;stroke:none;" transform="matrix(1 0 0 1 339 696)">
   <path d="M0.993654 0L3.63775 0L29.3281-67.1323L30.0303-67.1323L30.0303-70.459L28.1226-70.459ZM11.6885-24.4799L46.9815-24.4799L46.2315-26.7285L12.4385-26.7285ZM55.1196 0L57.7637 0L30.6382-70.459L29.4326-70.459L29.4326-67.1323Z"/>
  </g>
  <line id="Baseline-S" style="fill:none;stroke:#27AAE1;opacity:1;stroke-width:0.5;" x1="263" x2="3036" y1="696" y2="696"/>
  <line id="Capline-S" style="fill:none;stroke:#27AAE1;opacity:1;stroke-width:0.5;" x1="263" x2="3036" y1="625.541" y2="625.541"/>
  <g id="H-reference" style="fill:#27AAE1;stroke:none;" transform="matrix(1 0 0 1 339 1126)">
   <path d="M0.993654 0L3.63775 0L29.3281-67.1323L30.0303-67.1323L30.0303-70.459L28.1226-70.459ZM11.6885-24.4799L46.9815-24.4799L46.2315-26.7285L12.4385-26.7285ZM55.1196 0L57.7637 0L30.6382-70.459L29.4326-70.459L29.4326-67.1323Z"/>
  </g>
  <line id="Baseline-M" style="fill:none;stroke:#27AAE1;opacity:1;stroke-width:0.5;" x1="263" x2="3036" y1="1126" y2="1126"/>
  <line id="Capline-M" style="fill:none;stroke:#27AAE1;opacity:1;stroke-width:0.5;" x1="263" x2="3036" y1="1055.54" y2="1055.54"/>
  <g id="H-reference" style="fill:#27AAE1;stroke:none;" transform="matrix(1 0 0 1 339 1556)">
   <path d="M0.993654 0L3.63775 0L29.3281-67.1323L30.0303-67.1323L30.0303-70.459L28.1226-70.459ZM11.6885-24.4799L46.9815-24.4799L46.2315-26.7285L12.4385-26.7285ZM55.1196 0L57.7637 0L30.6382-70.459L29.4326-70.459L29.4326-67.1323Z"/>
  </g>
  <line id="Baseline-L" style="fill:none;stroke:#27AAE1;opacity:1;stroke-width:0.5;" x1="263" x2="3036" y1="1556" y2="1556"/>
  <line id="Capline-L" style="fill:none;stroke:#27AAE1;opacity:1;stroke-width:0.5;" x1="263" x2="3036" y1="1485.54" y2="1485.54"/>
  <line id="left-margin-Ultralight-S" style="fill:none;stroke:#00AEEF;stroke-width:0.5;opacity:1.0;" x1="513.473" x2="513.473" y1="600.785" y2="720.121"/>
  <line id="right-margin-Ultralight-S" style="fill:none;stroke:#00AEEF;stroke-width:0.5;opacity:1.0;" x1="605.949" x2="605.949" y1="600.785" y2="720.121"/>
  <line id="left-margin-Regular-S" style="fill:none;stroke:#00AEEF;stroke-width:0.5;opacity:1.0;" x1="1400.06" x2="1400.06" y1="600.785" y2="720.121"/>
  <line id="right-margin-Regular-S" style="fill:none;stroke:#00AEEF;stroke-width:0.5;opacity:1.0;" x1="1499.62" x2="1499.62" y1="600.785" y2="720.121"/>
  <line id="left-margin-Black-S" style="fill:none;stroke:#00AEEF;stroke-width:0.5;opacity:1.0;" x1="2882.42" x2="2882.42" y1="600.785" y2="720.121"/>
  <line id="right-margin-Black-S" style="fill:none;stroke:#00AEEF;stroke-width:0.5;opacity:1.0;" x1="2984.38" x2="2984.38" y1="600.785" y2="720.121"/>
 </g>
 <g id="Symbols">
  <g id="Black-S" transform="matrix(1 0 0 1 2882.42 696)">
   <path class="SFSymbolsPreviewWireframe" d="M50.7324-59.3262L50.7324-74.5117C50.7324-80.957 47.0703-84.7168 40.7715-84.7168C30.7617-84.668 20.166-75.6348 20.166-66.6504C20.166-57.5684 29.0527-52.9785 42.0898-48.3398L45.7031-56.4941C34.2285-60.8398 28.9551-62.8418 28.9551-66.6504C28.9551-70.8496 35.1074-75.9277 40.7715-75.9277C41.8945-75.9277 41.8945-75.9277 41.8945-74.5117L41.8945-56.6895ZM58.1543-52.4414L73.291-52.4414C79.7363-52.4414 83.5449-56.1035 83.5449-62.3535C83.5449-72.4121 74.4141-83.0078 65.4297-83.0078C56.3965-83.0078 51.7578-74.1211 47.168-61.084L55.3223-57.4219C59.6191-68.9453 61.6211-74.2188 65.4297-74.2188C69.6777-74.2188 74.707-68.0664 74.707-62.3535C74.707-61.2793 74.707-61.2793 73.291-61.2793L55.4688-61.2793ZM51.2695-45.0195L51.2695-29.834C51.2695-23.3887 54.9316-19.6289 61.1816-19.6289C71.2402-19.6289 81.8359-28.7109 81.8359-37.6953C81.8359-46.7773 72.9492-51.3672 59.9121-56.0059L56.25-47.8516C67.7246-43.5059 73.0469-41.5039 73.0469-37.6953C73.0469-33.4961 66.8457-28.418 61.1816-28.4668C60.1074-28.4668 60.1074-28.4668 60.1074-29.834L60.1074-47.6562ZM43.7988-51.9531L28.6621-51.9531C22.2168-51.9531 18.457-48.2422 18.457-41.9922C18.457-31.9336 27.5391-21.3379 36.5234-21.3379C45.6055-21.3379 50.1953-30.2246 54.834-43.2617L46.6797-46.9238C42.334-35.4004 40.332-30.1758 36.5234-30.1758C32.2754-30.1758 27.2949-36.2793 27.2949-41.9922C27.2949-43.1152 27.2949-43.1152 28.6621-43.1152L46.4844-43.1152ZM50.9766-40.2344C57.7148-40.2344 62.9883-45.459 62.9883-52.1484C62.9883-58.8867 57.7148-64.1602 50.9766-64.1602C44.2871-64.1602 39.0137-58.8867 39.0137-52.1484C39.0137-45.459 44.2871-40.2344 50.9766-40.2344ZM50.9766-47.7051C48.4375-47.7051 46.4844-49.6582 46.4844-52.1484C46.4844-54.6875 48.4375-56.6895 50.9766-56.6895C53.4668-56.6895 55.4199-54.6875 55.4199-52.1484C55.4199-49.6582 53.4668-47.7051 50.9766-47.7051ZM50.9766 14.2578C73.877 14.2578 92.1875 9.27734 92.1875-0.292969C92.1875-6.68945 84.0332-10.9863 72.168-13.1348L67.041-5.12695C77.6855-3.85742 83.3984-1.70898 83.3984-0.292969C83.3984 2.00195 70.752 5.46875 50.9766 5.46875C31.2012 5.46875 18.5547 2.00195 18.5547-0.292969C18.5547-1.70898 24.2676-3.85742 34.9121-5.12695L29.7852-13.1348C17.9199-10.9863 9.76562-6.68945 9.76562-0.292969C9.76562 9.27734 28.0762 14.2578 50.9766 14.2578ZM25.6348-13.8184L30.127-2.44141C31.0059-0.195312 34.0332 0.292969 35.5957-2.24609L40.625-10.3516C41.9922-12.5488 41.3086-15.0391 38.5742-15.7715L29.2969-18.3105C26.3672-19.0918 24.7559-16.0645 25.6348-13.8184ZM76.3184-13.8184C77.1973-16.0645 75.5859-19.0918 72.6562-18.3105L63.3789-15.7715C60.6445-15.0391 59.9609-12.5488 61.3281-10.3516L66.3574-2.24609C67.9199 0.292969 70.9473-0.195312 71.8262-2.44141Z"/>
  </g>
  <g id="Regular-S" transform="matrix(1 0 0 1 1400.06 696)">
   <path class="SFSymbolsPreviewWireframe" d="M48.4375-59.8633L48.4375-74.2188C48.4375-80.0781 45.3125-83.3008 39.5996-83.3008C30.1758-83.252 20.166-74.707 20.166-66.3574C20.166-58.2031 28.0273-53.9551 40.332-49.4629L43.0664-55.6152C32.3242-59.7168 26.709-61.9629 26.709-66.3574C26.709-71.0938 33.5449-76.709 39.5996-76.709C41.6992-76.709 41.8457-76.5625 41.8457-74.2188L41.8457-57.9102ZM57.7637-53.2715L72.0703-53.2715C77.9297-53.2715 81.2012-56.4453 81.2012-62.0605C81.2012-71.582 72.5586-81.5918 64.209-81.5918C56.1035-81.5918 51.7578-73.7305 47.3633-61.4258L53.5156-58.6426C57.5684-69.3848 59.8145-75 64.209-75C68.9453-75 74.5605-68.1641 74.5605-62.0605C74.5605-60.0098 74.4629-59.9121 72.0703-59.9121L55.7617-59.9121ZM51.1719-43.9453L51.1719-29.6387C51.1719-23.7793 54.3457-20.5566 59.9609-20.5566C69.4824-20.5566 79.4922-29.1504 79.4922-37.4512C79.4922-45.6055 71.6309-49.9023 59.3262-54.3945L56.543-48.1934C67.2363-44.1406 72.9004-41.8945 72.9004-37.4512C72.9004-32.7637 66.0156-27.0996 59.9609-27.1484C57.9102-27.1484 57.8125-27.2461 57.8125-29.6387L57.8125-45.9473ZM41.7969-50.5859L27.5391-50.5859C21.6797-50.5859 18.457-47.4121 18.457-41.748C18.457-32.2754 27.0508-22.2656 35.3516-22.2656C43.5059-22.2656 47.8027-30.127 52.2461-42.4316L46.0938-45.2148C42.041-34.4727 39.7949-28.8574 35.3516-28.8574C30.6152-28.8574 25.0488-35.6445 25.0488-41.748C25.0488-43.8965 25.1465-43.9941 27.5391-43.9941L43.8477-43.9941ZM49.8047-40.9668C55.8594-40.9668 60.791-45.8496 60.791-51.9043C60.791-58.0078 55.8594-62.8906 49.8047-62.8906C43.75-62.8906 38.8184-58.0078 38.8184-51.9043C38.8184-45.8496 43.75-40.9668 49.8047-40.9668ZM49.8047-47.4609C47.3145-47.4609 45.3125-49.4141 45.3125-51.9043C45.3125-54.3945 47.3145-56.3965 49.8047-56.3965C52.2461-56.3965 54.2969-54.3945 54.2969-51.9043C54.2969-49.4141 52.2461-47.4609 49.8047-47.4609ZM49.8047 12.9395C72.3633 12.9395 89.7949 8.05664 89.7949-0.488281C89.7949-5.95703 82.6172-9.96094 71.4844-12.1094L67.6758-6.20117C77.3926-4.83398 83.252-2.53906 83.252-0.488281C83.252 2.68555 69.7266 6.34766 49.8047 6.34766C29.834 6.34766 16.3574 2.68555 16.3574-0.488281C16.3574-2.53906 22.2168-4.83398 31.8848-6.20117L28.0762-12.1094C16.9434-9.96094 9.76562-5.95703 9.76562-0.488281C9.76562 8.05664 27.1973 12.9395 49.8047 12.9395ZM24.9023-13.3789L28.8574-4.05273C29.541-2.53906 31.3477-2.24609 32.5195-4.00391L37.4512-11.084C38.4766-12.5977 38.0859-14.4531 36.084-14.7949L27.3926-16.3574C25.293-16.748 24.2676-14.8926 24.9023-13.3789ZM74.6582-13.3789C75.3418-14.8926 74.3164-16.748 72.168-16.3574L63.4766-14.7949C61.4746-14.4531 61.084-12.5977 62.1094-11.084L67.041-4.00391C68.2129-2.24609 70.0684-2.53906 70.7031-4.05273Z"/>
  </g>
  <g id="Ultralight-S" transform="matrix(1 0 0 1 513.473 696)">
   <path class="SFSymbolsPreviewWireframe" d="M42.8521-57.6836L42.8521-69.9502C42.8521-74.7198 41.044-76.671 36.3755-76.671C28.0869-76.6221 19.7573-69.4395 19.7573-62.4068C19.7573-56.1143 25.439-52.6836 35.9727-48.7363L36.9361-50.8472C27.647-54.4039 21.941-57.0132 21.941-62.4068C21.941-68.2329 29.5034-74.4839 36.3755-74.4839C39.6104-74.4839 40.665-73.52 40.665-69.9502L40.665-57.0928ZM55.4932-51.8638L67.711-51.8638C72.4805-51.8638 74.4351-53.7207 74.4351-58.2461C74.4351-66.6324 67.1548-75.0074 60.1221-75.0074C53.9238-75.0074 50.3955-69.2803 46.5459-58.7466L48.6568-57.7798C52.1646-67.0235 54.7286-72.8657 60.1221-72.8657C65.9937-72.8657 72.2446-65.2124 72.2446-58.2461C72.2446-55.1509 71.375-54.0997 67.711-54.0997L54.8081-54.0997ZM49.6734-39.2681L49.6734-26.9595C49.6734-22.1445 51.4849-20.3296 56.0557-20.3296C64.4419-20.3296 72.8169-27.4702 72.8169-34.5449C72.8169-40.792 67.0445-44.2261 56.5108-48.1734L55.5894-46.0591C64.7842-42.5059 70.6299-39.9419 70.6299-34.5449C70.6299-28.7222 62.9732-22.4224 56.0557-22.5166C52.8243-22.5166 51.8638-23.4317 51.8638-26.9595L51.8638-39.8624ZM36.9834-45.0914L24.7691-45.0914C19.9541-45.0914 18.1392-43.2344 18.1392-38.7056C18.1392-30.2774 25.2798-21.9478 32.3545-21.9478C38.6016-21.9478 42.0357-27.6748 45.9795-38.2085L43.8233-39.1753C40.27-29.8863 37.7515-24.1802 32.3545-24.1802C26.4829-24.1802 20.3262-31.6939 20.3262-38.7056C20.3262-41.9439 21.2412-42.9043 24.7691-42.9043L37.6265-42.9043ZM46.2173-38.0152C52.0904-38.0152 56.7495-42.5801 56.7495-48.4077C56.7495-54.2842 52.0904-58.94 46.2173-58.94C40.3443-58.94 35.7759-54.2842 35.7759-48.4077C35.7759-42.5801 40.3443-38.0152 46.2173-38.0152ZM46.2173-40.1954C41.5928-40.1954 37.9107-43.7832 37.9107-48.4077C37.9107-53.0776 41.5928-56.7598 46.2173-56.7598C50.8838-56.7598 54.5693-53.0776 54.5693-48.4077C54.5693-43.7832 50.8838-40.1954 46.2173-40.1954ZM46.2173 6.30962C67.7315 6.30962 82.711 2.06255 82.711-4.57516C82.711-8.45457 77.6675-11.4595 68.124-13.4717L66.9946-11.6958C75.5308-10.1923 80.5728-7.89742 80.5728-4.57516C80.5728 0.642106 66.6387 4.12258 46.2173 4.12258C25.8379 4.12258 11.9073 0.642106 11.9073-4.57516C11.9073-7.89742 16.9039-10.1923 25.482-11.6958L24.3072-13.4717C14.8091-11.4595 9.76562-8.45457 9.76562-4.57516C9.76562 2.06255 24.7451 6.30962 46.2173 6.30962ZM22.4502-16.2851L25.6787-8.77535C25.9082-8.35152 26.4434-8.24019 26.7979-8.81734L30.8668-15.0346C31.211-15.5039 30.9566-15.9516 30.3169-16.0664L23.2149-17.1748C22.523-17.293 22.2241-16.8452 22.4502-16.2851ZM70.0264-16.2851C70.2559-16.8452 69.9571-17.293 69.2617-17.1748L62.1143-16.0664C61.52-15.9516 61.2656-15.5039 61.6099-15.0346L65.6333-8.81734C66.0332-8.24019 66.5264-8.35152 66.7525-8.77535Z"/>
  </g>
 </g>
</svg>
