<?xml version="1.0" encoding="UTF-8"?>
<!--Generator: Apple Native CoreSVG 232.5-->
<!DOCTYPE svg
PUBLIC "-//W3C//DTD SVG 1.1//EN"
       "http://www.w3.org/Graphics/SVG/1.1/DTD/svg11.dtd">
<svg version="1.1" xmlns="http://www.w3.org/2000/svg" xmlns:xlink="http://www.w3.org/1999/xlink" width="3300" height="2200">
 <!--glyph: "uni1015C6.medium", point size: 100.0, font version: "19.2d2e1", template writer version: "128"-->
 <style>.SFSymbolsPreviewWireframe {fill:none;opacity:1.0;stroke:black;stroke-width:0.5}
</style>
 <g id="Notes">
  <rect height="2200" id="artboard" style="fill:white;opacity:1" width="3300" x="0" y="0"/>
  <line style="fill:none;stroke:black;opacity:1;stroke-width:0.5;" x1="263" x2="3036" y1="292" y2="292"/>
  <text style="stroke:none;fill:black;font-family:sans-serif;font-size:13;font-weight:bold;" transform="matrix(1 0 0 1 263 322)">Weight/Scale Variations</text>
  <text style="stroke:none;fill:black;font-family:sans-serif;font-size:13;text-anchor:middle;" transform="matrix(1 0 0 1 559.711 322)">Ultralight</text>
  <text style="stroke:none;fill:black;font-family:sans-serif;font-size:13;text-anchor:middle;" transform="matrix(1 0 0 1 856.422 322)">Thin</text>
  <text style="stroke:none;fill:black;font-family:sans-serif;font-size:13;text-anchor:middle;" transform="matrix(1 0 0 1 1153.13 322)">Light</text>
  <text style="stroke:none;fill:black;font-family:sans-serif;font-size:13;text-anchor:middle;" transform="matrix(1 0 0 1 1449.84 322)">Regular</text>
  <text style="stroke:none;fill:black;font-family:sans-serif;font-size:13;text-anchor:middle;" transform="matrix(1 0 0 1 1746.56 322)">Medium</text>
  <text style="stroke:none;fill:black;font-family:sans-serif;font-size:13;text-anchor:middle;" transform="matrix(1 0 0 1 2043.27 322)">Semibold</text>
  <text style="stroke:none;fill:black;font-family:sans-serif;font-size:13;text-anchor:middle;" transform="matrix(1 0 0 1 2339.98 322)">Bold</text>
  <text style="stroke:none;fill:black;font-family:sans-serif;font-size:13;text-anchor:middle;" transform="matrix(1 0 0 1 2636.69 322)">Heavy</text>
  <text style="stroke:none;fill:black;font-family:sans-serif;font-size:13;text-anchor:middle;" transform="matrix(1 0 0 1 2933.4 322)">Black</text>
  <line style="fill:none;stroke:black;opacity:1;stroke-width:0.5;" x1="263" x2="3036" y1="1903" y2="1903"/>
  <g transform="matrix(0.2 0 0 0.2 263 1933)">
   <path d="m46.2402 4.15039c21.5332 0 39.4531-17.8711 39.4531-39.4043s-17.9688-39.4043-39.502-39.4043c-21.4844 0-39.3555 17.8711-39.3555 39.4043s17.9199 39.4043 39.4043 39.4043Zm0-7.42188c-17.7246 0-31.8848-14.209-31.8848-31.9824s14.1113-31.9824 31.8359-31.9824c17.7734 0 32.0312 14.209 32.0312 31.9824s-14.209 31.9824-31.9824 31.9824Zm-17.9688-31.9824c0 2.14844 1.51367 3.61328 3.75977 3.61328h10.498v10.5957c0 2.19727 1.46484 3.71094 3.61328 3.71094 2.24609 0 3.71094-1.51367 3.71094-3.71094v-10.5957h10.5957c2.19727 0 3.71094-1.46484 3.71094-3.61328 0-2.19727-1.51367-3.71094-3.71094-3.71094h-10.5957v-10.5469c0-2.24609-1.46484-3.75977-3.71094-3.75977-2.14844 0-3.61328 1.51367-3.61328 3.75977v10.5469h-10.498c-2.24609 0-3.75977 1.51367-3.75977 3.71094Z"/>
  </g>
  <g transform="matrix(0.2 0 0 0.2 281.506 1933)">
   <path d="m58.5449 14.5508c27.2461 0 49.8047-22.6074 49.8047-49.8047 0-27.2461-22.6074-49.8047-49.8535-49.8047-27.1973 0-49.7559 22.5586-49.7559 49.8047 0 27.1973 22.6074 49.8047 49.8047 49.8047Zm0-8.30078c-23.0469 0-41.4551-18.457-41.4551-41.5039s18.3594-41.5039 41.4062-41.5039 41.5527 18.457 41.5527 41.5039-18.457 41.5039-41.5039 41.5039Zm-22.6562-41.5039c0 2.39258 1.66016 4.00391 4.15039 4.00391h14.3555v14.4043c0 2.44141 1.66016 4.15039 4.05273 4.15039 2.44141 0 4.15039-1.66016 4.15039-4.15039v-14.4043h14.4043c2.44141 0 4.15039-1.61133 4.15039-4.00391 0-2.44141-1.70898-4.15039-4.15039-4.15039h-14.4043v-14.3555c0-2.49023-1.70898-4.19922-4.15039-4.19922-2.39258 0-4.05273 1.70898-4.05273 4.19922v14.3555h-14.3555c-2.49023 0-4.15039 1.70898-4.15039 4.15039Z"/>
  </g>
  <g transform="matrix(0.2 0 0 0.2 304.924 1933)">
   <path d="m74.8535 28.3203c34.8145 0 63.623-28.8086 63.623-63.5742 0-34.8145-28.8574-63.623-63.6719-63.623-34.7656 0-63.5254 28.8086-63.5254 63.623 0 34.7656 28.8086 63.5742 63.5742 63.5742Zm0-9.08203c-30.1758 0-54.4434-24.3164-54.4434-54.4922 0-30.2246 24.2188-54.4922 54.3945-54.4922 30.2246 0 54.541 24.2676 54.541 54.4922 0 30.1758-24.2676 54.4922-54.4922 54.4922Zm-28.8574-54.4922c0 2.58789 1.85547 4.39453 4.58984 4.39453h19.7266v19.7754c0 2.68555 1.85547 4.58984 4.44336 4.58984 2.68555 0 4.54102-1.85547 4.54102-4.58984v-19.7754h19.7754c2.68555 0 4.58984-1.80664 4.58984-4.39453 0-2.73438-1.85547-4.58984-4.58984-4.58984h-19.7754v-19.7266c0-2.73438-1.85547-4.63867-4.54102-4.63867-2.58789 0-4.44336 1.9043-4.44336 4.63867v19.7266h-19.7266c-2.73438 0-4.58984 1.85547-4.58984 4.58984Z"/>
  </g>
  <text style="stroke:none;fill:black;font-family:sans-serif;font-size:13;font-weight:bold;" transform="matrix(1 0 0 1 263 1953)">Design Variations</text>
  <text style="stroke:none;fill:black;font-family:sans-serif;font-size:13;" transform="matrix(1 0 0 1 263 1971)">Symbols are supported in up to nine weights and three scales.</text>
  <text style="stroke:none;fill:black;font-family:sans-serif;font-size:13;" transform="matrix(1 0 0 1 263 1989)">For optimal layout with text and other symbols, vertically align</text>
  <text style="stroke:none;fill:black;font-family:sans-serif;font-size:13;" transform="matrix(1 0 0 1 263 2007)">symbols with the adjacent text.</text>
  <line style="fill:none;stroke:#00AEEF;stroke-width:0.5;opacity:1.0;" x1="776" x2="776" y1="1919" y2="1933"/>
  <g transform="matrix(0.2 0 0 0.2 776 1933)">
   <path d="m16.5527 0.78125c2.58789 0 3.85742-0.976562 4.78516-3.71094l6.29883-17.2363h28.8086l6.29883 17.2363c0.927734 2.73438 2.19727 3.71094 4.73633 3.71094 2.58789 0 4.24805-1.5625 4.24805-4.00391 0-0.830078-0.146484-1.61133-0.537109-2.63672l-22.9004-60.9863c-1.12305-2.97852-3.125-4.49219-6.25-4.49219-3.02734 0-5.07812 1.46484-6.15234 4.44336l-22.9004 61.084c-0.390625 1.02539-0.537109 1.80664-0.537109 2.63672 0 2.44141 1.5625 3.95508 4.10156 3.95508Zm13.4766-28.3691 11.8652-32.8613h0.244141l11.8652 32.8613Z"/>
  </g>
  <line style="fill:none;stroke:#00AEEF;stroke-width:0.5;opacity:1.0;" x1="792.836" x2="792.836" y1="1919" y2="1933"/>
  <text style="stroke:none;fill:black;font-family:sans-serif;font-size:13;font-weight:bold;" transform="matrix(1 0 0 1 776 1953)">Margins</text>
  <text style="stroke:none;fill:black;font-family:sans-serif;font-size:13;" transform="matrix(1 0 0 1 776 1971)">Leading and trailing margins on the left and right side of each symbol</text>
  <text style="stroke:none;fill:black;font-family:sans-serif;font-size:13;" transform="matrix(1 0 0 1 776 1989)">can be adjusted by modifying the x-location of the margin guidelines.</text>
  <text style="stroke:none;fill:black;font-family:sans-serif;font-size:13;" transform="matrix(1 0 0 1 776 2007)">Modifications are automatically applied proportionally to all</text>
  <text style="stroke:none;fill:black;font-family:sans-serif;font-size:13;" transform="matrix(1 0 0 1 776 2025)">scales and weights.</text>
  <g transform="matrix(0.2 0 0 0.2 1289 1933)">
   <path d="m14.209 9.32617 8.49609 8.54492c4.29688 4.3457 9.22852 4.05273 13.8672-1.07422l53.4668-58.9355-4.83398-4.88281-53.0762 58.3984c-1.75781 2.00195-3.41797 2.49023-5.76172 0.146484l-5.85938-5.81055c-2.34375-2.29492-1.80664-4.00391 0.195312-5.81055l57.373-54.0039-4.88281-4.83398-57.959 54.4434c-4.93164 4.58984-5.32227 9.47266-1.02539 13.8184Zm32.0801-90.9668c-2.09961 2.05078-2.24609 4.93164-1.07422 6.88477 1.17188 1.80664 3.4668 2.97852 6.68945 2.14844 7.32422-1.70898 14.9414-2.00195 22.0703 2.68555l-2.92969 7.27539c-1.70898 4.15039-0.830078 7.08008 1.85547 9.81445l11.4746 11.5723c2.44141 2.44141 4.49219 2.53906 7.32422 2.05078l5.32227-0.976562 3.32031 3.36914-0.195312 2.7832c-0.195312 2.49023 0.439453 4.39453 2.88086 6.78711l3.80859 3.71094c2.39258 2.39258 5.46875 2.53906 7.8125 0.195312l14.5508-14.5996c2.34375-2.34375 2.24609-5.32227-0.146484-7.71484l-3.85742-3.80859c-2.39258-2.39258-4.24805-3.17383-6.64062-2.97852l-2.88086 0.244141-3.22266-3.17383 1.2207-5.61523c0.634766-2.83203-0.146484-5.0293-3.07617-7.95898l-10.9863-10.9375c-16.6992-16.6016-38.8672-16.2109-53.3203-1.75781Zm7.4707 1.85547c12.1582-8.88672 28.6133-7.37305 39.7461 3.75977l12.1582 12.0605c1.17188 1.17188 1.36719 2.09961 1.02539 3.80859l-1.61133 7.42188 7.51953 7.42188 4.93164-0.292969c1.26953-0.0488281 1.66016 0.0488281 2.63672 1.02539l2.88086 2.88086-12.207 12.207-2.88086-2.88086c-0.976562-0.976562-1.12305-1.36719-1.07422-2.68555l0.341797-4.88281-7.4707-7.42188-7.61719 1.26953c-1.61133 0.341797-2.34375 0.195312-3.56445-0.976562l-10.0098-10.0098c-1.26953-1.17188-1.41602-2.00195-0.634766-3.85742l4.39453-10.4492c-7.8125-7.27539-17.9688-10.4004-28.125-7.42188-0.78125 0.195312-1.07422-0.439453-0.439453-0.976562Z"/>
  </g>
  <text style="stroke:none;fill:black;font-family:sans-serif;font-size:13;font-weight:bold;" transform="matrix(1 0 0 1 1289 1953)">Exporting</text>
  <text style="stroke:none;fill:black;font-family:sans-serif;font-size:13;" transform="matrix(1 0 0 1 1289 1971)">Symbols should be outlined when exporting to ensure the</text>
  <text style="stroke:none;fill:black;font-family:sans-serif;font-size:13;" transform="matrix(1 0 0 1 1289 1989)">design is preserved when submitting to Xcode.</text>
  <text id="template-version" style="stroke:none;fill:black;font-family:sans-serif;font-size:13;text-anchor:end;" transform="matrix(1 0 0 1 3036 1933)">Template v.5.0</text>
  <text style="stroke:none;fill:black;font-family:sans-serif;font-size:13;text-anchor:end;" transform="matrix(1 0 0 1 3036 1951)">Requires Xcode 15 or greater</text>
  <text id="descriptive-name" style="stroke:none;fill:black;font-family:sans-serif;font-size:13;text-anchor:end;" transform="matrix(1 0 0 1 3036 1969)">Generated from figure.2.arms.open</text>
  <text style="stroke:none;fill:black;font-family:sans-serif;font-size:13;text-anchor:end;" transform="matrix(1 0 0 1 3036 1987)">Typeset at 100.0 points</text>
  <text style="stroke:none;fill:black;font-family:sans-serif;font-size:13;" transform="matrix(1 0 0 1 263 726)">Small</text>
  <text style="stroke:none;fill:black;font-family:sans-serif;font-size:13;" transform="matrix(1 0 0 1 263 1156)">Medium</text>
  <text style="stroke:none;fill:black;font-family:sans-serif;font-size:13;" transform="matrix(1 0 0 1 263 1586)">Large</text>
 </g>
 <g id="Guides">
  <g id="H-reference" style="fill:#27AAE1;stroke:none;" transform="matrix(1 0 0 1 339 696)">
   <path d="M0.993654 0L3.63775 0L29.3281-67.1323L30.0303-67.1323L30.0303-70.459L28.1226-70.459ZM11.6885-24.4799L46.9815-24.4799L46.2315-26.7285L12.4385-26.7285ZM55.1196 0L57.7637 0L30.6382-70.459L29.4326-70.459L29.4326-67.1323Z"/>
  </g>
  <line id="Baseline-S" style="fill:none;stroke:#27AAE1;opacity:1;stroke-width:0.5;" x1="263" x2="3036" y1="696" y2="696"/>
  <line id="Capline-S" style="fill:none;stroke:#27AAE1;opacity:1;stroke-width:0.5;" x1="263" x2="3036" y1="625.541" y2="625.541"/>
  <g id="H-reference" style="fill:#27AAE1;stroke:none;" transform="matrix(1 0 0 1 339 1126)">
   <path d="M0.993654 0L3.63775 0L29.3281-67.1323L30.0303-67.1323L30.0303-70.459L28.1226-70.459ZM11.6885-24.4799L46.9815-24.4799L46.2315-26.7285L12.4385-26.7285ZM55.1196 0L57.7637 0L30.6382-70.459L29.4326-70.459L29.4326-67.1323Z"/>
  </g>
  <line id="Baseline-M" style="fill:none;stroke:#27AAE1;opacity:1;stroke-width:0.5;" x1="263" x2="3036" y1="1126" y2="1126"/>
  <line id="Capline-M" style="fill:none;stroke:#27AAE1;opacity:1;stroke-width:0.5;" x1="263" x2="3036" y1="1055.54" y2="1055.54"/>
  <g id="H-reference" style="fill:#27AAE1;stroke:none;" transform="matrix(1 0 0 1 339 1556)">
   <path d="M0.993654 0L3.63775 0L29.3281-67.1323L30.0303-67.1323L30.0303-70.459L28.1226-70.459ZM11.6885-24.4799L46.9815-24.4799L46.2315-26.7285L12.4385-26.7285ZM55.1196 0L57.7637 0L30.6382-70.459L29.4326-70.459L29.4326-67.1323Z"/>
  </g>
  <line id="Baseline-L" style="fill:none;stroke:#27AAE1;opacity:1;stroke-width:0.5;" x1="263" x2="3036" y1="1556" y2="1556"/>
  <line id="Capline-L" style="fill:none;stroke:#27AAE1;opacity:1;stroke-width:0.5;" x1="263" x2="3036" y1="1485.54" y2="1485.54"/>
  <line id="left-margin-Ultralight-S" style="fill:none;stroke:#00AEEF;stroke-width:0.5;opacity:1.0;" x1="506.288" x2="506.288" y1="600.785" y2="720.121"/>
  <line id="right-margin-Ultralight-S" style="fill:none;stroke:#00AEEF;stroke-width:0.5;opacity:1.0;" x1="613.134" x2="613.134" y1="600.785" y2="720.121"/>
  <line id="left-margin-Regular-S" style="fill:none;stroke:#00AEEF;stroke-width:0.5;opacity:1.0;" x1="1391.49" x2="1391.49" y1="600.785" y2="720.121"/>
  <line id="right-margin-Regular-S" style="fill:none;stroke:#00AEEF;stroke-width:0.5;opacity:1.0;" x1="1508.19" x2="1508.19" y1="600.785" y2="720.121"/>
  <line id="left-margin-Black-S" style="fill:none;stroke:#00AEEF;stroke-width:0.5;opacity:1.0;" x1="2872.1" x2="2872.1" y1="600.785" y2="720.121"/>
  <line id="right-margin-Black-S" style="fill:none;stroke:#00AEEF;stroke-width:0.5;opacity:1.0;" x1="2994.7" x2="2994.7" y1="600.785" y2="720.121"/>
 </g>
 <g id="Symbols">
  <g id="Black-S" transform="matrix(1 0 0 1 2872.1 696)">
   <path class="SFSymbolsPreviewWireframe" d="M37.9395-63.623C43.3105-63.623 47.7051-68.0176 47.7051-73.3887C47.7051-78.7598 43.3105-83.1543 37.9395-83.1543C32.5684-83.1543 28.1738-78.7598 28.1738-73.3887C28.1738-68.0176 32.5684-63.623 37.9395-63.623ZM37.9395-23.5352C39.1113-23.5352 39.502-22.8516 40.4785-20.0195C41.8457-15.9668 45.8984 1.02539 47.2656 6.00586C48.0957 8.88672 49.7559 10.1562 51.9531 10.1562C55.0781 10.1562 57.0312 7.32422 56.2012 4.24805C55.9082 3.22266 50.0488-21.3867 49.1699-26.4648C48.5352-30.1758 48.3887-37.3047 48.3398-42.1875C48.3398-42.627 48.8281-42.7734 49.0723-42.4316C52.2949-37.7441 56.8359-31.3477 57.9102-30.127C59.375-28.5156 61.7188-28.2227 63.5742-29.2969C66.0645-30.6641 66.6992-33.3496 65.5762-35.2539C65.2832-35.8398 64.7949-36.4746 64.4531-37.0117L53.6621-53.0762C50.5371-57.7148 46.582-60.4492 37.9395-60.4492C29.2969-60.4492 25.3418-57.7148 22.2168-53.0762L11.4258-37.0117C11.084-36.4746 10.5957-35.8398 10.3027-35.2539C9.17969-33.3496 9.81445-30.6641 12.3047-29.2969C14.1602-28.2227 16.5039-28.5156 17.9688-30.127C19.043-31.3477 23.584-37.7441 26.8066-42.4316C27.0508-42.7734 27.5391-42.627 27.5391-42.1875C27.4902-37.3047 27.3438-30.1758 26.709-26.4648C25.8301-21.3867 19.9707 3.22266 19.6777 4.24805C18.8477 7.32422 20.8008 10.1562 23.9258 10.1562C26.123 10.1562 27.7832 8.88672 28.6133 6.00586C29.9805 1.02539 34.0332-15.9668 35.4004-20.0195C36.377-22.8516 36.7676-23.5352 37.9395-23.5352ZM84.668-63.623C90.0391-63.623 94.4336-68.0176 94.4336-73.3887C94.4336-78.7598 90.0391-83.1543 84.668-83.1543C79.2969-83.1543 74.9023-78.7598 74.9023-73.3887C74.9023-68.0176 79.2969-63.623 84.668-63.623ZM84.668-23.5352C85.8398-23.5352 86.2305-22.8516 87.207-20.0195C88.5742-15.9668 92.627 1.02539 93.9941 6.00586C94.8242 8.88672 96.4844 10.1562 98.6816 10.1562C101.807 10.1562 103.76 7.32422 102.93 4.24805C102.637 3.22266 96.7773-21.3867 95.8984-26.4648C95.2637-30.1758 95.1172-37.3047 95.0684-42.1875C95.0684-42.627 95.5566-42.7734 95.8008-42.4316C99.0234-37.7441 103.564-31.3477 104.639-30.127C106.104-28.5156 108.447-28.2227 110.303-29.2969C112.793-30.6641 113.428-33.3496 112.305-35.2539C112.012-35.8398 111.523-36.4746 111.182-37.0117L100.391-53.0762C97.2656-57.7148 93.3105-60.4492 84.668-60.4492C76.0254-60.4492 72.0703-57.7148 68.9453-53.0762L58.1543-37.0117C57.8125-36.4746 57.3242-35.8398 57.0312-35.2539C55.9082-33.3496 56.543-30.6641 59.0332-29.2969C60.8887-28.2227 63.2324-28.5156 64.6973-30.127C65.7715-31.3477 70.3125-37.7441 73.5352-42.4316C73.7793-42.7734 74.2676-42.627 74.2676-42.1875C74.2188-37.3047 74.0723-30.1758 73.4375-26.4648C72.5586-21.3867 66.6992 3.22266 66.4062 4.24805C65.5762 7.32422 67.5293 10.1562 70.6543 10.1562C72.8516 10.1562 74.5117 8.88672 75.3418 6.00586C76.709 1.02539 80.7617-15.9668 82.1289-20.0195C83.1055-22.8516 83.4961-23.5352 84.668-23.5352Z"/>
  </g>
  <g id="Regular-S" transform="matrix(1 0 0 1 1391.49 696)">
   <path class="SFSymbolsPreviewWireframe" d="M35.9863-62.5C40.6738-62.5 44.4336-66.2598 44.4336-70.9961C44.4336-75.6836 40.6738-79.4434 35.9863-79.4434C31.2988-79.4434 27.4902-75.6836 27.4902-70.9961C27.4902-66.2598 31.2988-62.5 35.9863-62.5ZM35.9863-24.7559C37.5488-24.7559 38.1348-23.6816 39.0625-20.8984C40.3809-16.9922 44.2871-0.683594 45.6055 4.05273C46.2891 6.54297 47.5586 7.51953 49.3652 7.51953C51.9043 7.51953 53.4668 5.22461 52.7344 2.7832C52.4414 1.75781 46.8262-21.8262 46.0449-26.709C45.3613-30.8105 45.2148-38.9648 45.2148-43.457C45.2148-44.0918 45.8984-44.3359 46.2891-43.7988C49.3652-39.502 54.541-32.0801 55.5664-30.8594C56.7383-29.541 58.5938-29.2969 60.1562-30.1758C62.1582-31.2988 62.5977-33.4473 61.8164-34.9121C61.4746-35.4492 61.084-36.0352 60.7422-36.5723L50.4883-51.8066C47.4609-56.2012 43.7988-58.5938 35.9863-58.5938C28.125-58.5938 24.4629-56.2012 21.4844-51.8066L11.1816-36.5723C10.8398-36.0352 10.4492-35.4492 10.1562-34.9121C9.32617-33.4473 9.76562-31.2988 11.8164-30.1758C13.3301-29.2969 15.1855-29.541 16.3574-30.8594C17.4316-32.0801 22.6074-39.4531 25.6348-43.7988C25.9766-44.2871 26.7578-44.0918 26.7578-43.4082C26.7578-38.916 26.6113-30.8105 25.9277-26.709C25.0977-21.8262 19.5312 1.75781 19.2383 2.7832C18.5059 5.22461 20.0684 7.51953 22.5586 7.51953C24.4141 7.51953 25.6836 6.54297 26.3184 4.05273C27.6367-0.683594 31.543-16.9922 32.9102-20.8984C33.8379-23.6816 34.4238-24.7559 35.9863-24.7559ZM80.7617-62.5C85.4492-62.5 89.209-66.2598 89.209-70.9961C89.209-75.6836 85.4492-79.4434 80.7617-79.4434C76.0254-79.4434 72.2656-75.6836 72.2656-70.9961C72.2656-66.2598 76.0254-62.5 80.7617-62.5ZM80.7617-24.7559C82.3242-24.7559 82.9102-23.6816 83.8379-20.8984C85.1562-16.9922 89.0625-0.683594 90.3809 4.05273C91.0645 6.54297 92.334 7.51953 94.1406 7.51953C96.6797 7.51953 98.1934 5.22461 97.5098 2.7832C97.2168 1.75781 91.6016-21.8262 90.7715-26.709C90.1367-30.8105 89.9414-38.9648 89.9414-43.457C89.9414-44.0918 90.6738-44.3359 91.0645-43.7988C94.1406-39.502 99.3164-32.0801 100.342-30.8594C101.514-29.541 103.369-29.2969 104.932-30.1758C106.934-31.2988 107.373-33.4473 106.543-34.9121C106.25-35.4492 105.859-36.0352 105.518-36.5723L95.2148-51.8066C92.2363-56.2012 88.5742-58.5938 80.7617-58.5938C72.9004-58.5938 69.2383-56.2012 66.2598-51.8066L55.957-36.5723C55.6152-36.0352 55.2246-35.4492 54.9316-34.9121C54.1016-33.4473 54.541-31.2988 56.5918-30.1758C58.1055-29.2969 59.9609-29.541 61.1328-30.8594C62.207-32.0801 67.334-39.4531 70.4102-43.7988C70.752-44.2871 71.5332-44.0918 71.5332-43.4082C71.5332-38.916 71.3867-30.8105 70.7031-26.709C69.873-21.8262 64.3066 1.75781 64.0137 2.7832C63.2812 5.22461 64.7949 7.51953 67.334 7.51953C69.1895 7.51953 70.4102 6.54297 71.0938 4.05273C72.4121-0.683594 76.3184-16.9922 77.6855-20.8984C78.5645-23.6816 79.1992-24.7559 80.7617-24.7559Z"/>
  </g>
  <g id="Ultralight-S" transform="matrix(1 0 0 1 506.288 696)">
   <path class="SFSymbolsPreviewWireframe" d="M33.2163-59.3213C37.2681-59.3213 40.4829-62.4908 40.4829-66.5913C40.4829-70.7339 37.2681-73.858 33.2163-73.858C29.1192-73.858 25.9463-70.7339 25.9463-66.5913C25.9463-62.4908 29.1192-59.3213 33.2163-59.3213ZM33.2163-25.6186C34.7788-25.6186 35.5464-24.499 36.2471-21.9883C37.2476-18.3545 41.0176-3.40818 42.2451 0.964868C42.7925 2.95559 43.835 3.93216 45.46 3.93216C47.5904 3.93216 48.8804 2.00051 48.3296-0.123024C48.0821-1.0576 42.7393-22.6435 42.1851-27.1177C41.6377-31.6279 41.355-41.5986 41.355-43.5479C41.355-44.001 41.9024-44.1997 42.2476-43.7534C44.3247-40.9551 50-33.0337 50.8892-31.8584C51.9248-30.54 53.5987-30.2959 54.9795-31.0386C56.5728-31.8892 57.0123-33.6289 56.2764-35.0029C55.8892-35.6763 55.4532-36.2622 54.8843-37.1172L46.6739-48.9004C42.7837-54.4756 37.941-54.961 33.2163-54.961C28.4429-54.961 23.6455-54.4756 19.7134-48.9004L11.4995-37.1172C10.9307-36.2622 10.4946-35.6763 10.1108-35.0029C9.37158-33.6289 9.81103-31.8892 11.4531-31.0386C12.8306-30.2959 14.5044-30.54 15.54-31.8584C16.4326-33.0337 22.1079-40.9516 24.1362-43.7534C24.478-44.1963 25.0322-44.001 25.0322-43.5444C25.0322-41.5952 24.7495-31.6279 24.2022-27.1177C23.6445-22.6435 18.3052-1.0576 18.0576-0.123024C17.5523 2.00051 18.7969 3.93216 20.9238 3.93216C22.5523 3.93216 23.5947 2.95559 24.1387 0.964868C25.3662-3.40818 29.1817-18.3545 30.1856-21.9883C30.8863-24.499 31.6538-25.6186 33.2163-25.6186ZM73.6778-59.3213C77.7296-59.3213 80.9444-62.4908 80.9444-66.5913C80.9444-70.7339 77.7296-73.858 73.6778-73.858C69.5772-73.858 66.4078-70.7339 66.4078-66.5913C66.4078-62.4908 69.5772-59.3213 73.6778-59.3213ZM73.6778-25.6186C75.2403-25.6186 76.0079-24.499 76.7086-21.9883C77.6636-18.3545 81.4791-3.40818 82.7066 0.964868C83.254 2.95559 84.2965 3.93216 85.9215 3.93216C88.0518 3.93216 89.3384 2.00051 88.7911-0.123024C88.5435-1.0576 83.2007-22.6435 82.6431-27.1177C82.0992-31.6279 81.8131-41.5986 81.8131-43.5479C81.8131-44.001 82.3638-44.1997 82.7091-43.7534C84.7862-40.9551 90.4615-33.0337 91.3507-31.8584C92.3863-30.54 94.0601-30.2959 95.3956-31.0386C97.0343-31.8892 97.4737-33.6289 96.7345-35.0029C96.3507-35.6763 95.9146-36.2622 95.3458-37.1172L87.1319-48.9004C83.2452-54.4756 78.4024-54.961 73.6778-54.961C68.9043-54.961 64.107-54.4756 60.1749-48.9004L51.961-37.1172C51.3921-36.2622 50.9561-35.6763 50.5723-35.0029C49.833-33.6289 50.2725-31.8892 51.9146-31.0386C53.292-30.2959 54.9659-30.54 56.0015-31.8584C56.8487-33.0337 62.566-40.9516 64.5977-43.7534C64.9395-44.1963 65.4937-44.001 65.4937-43.5444C65.4937-41.5952 65.211-31.6279 64.6636-27.1177C64.106-22.6435 58.7666-1.0576 58.5191-0.123024C58.0137 2.00051 59.2549 3.93216 61.3853 3.93216C63.0137 3.93216 64.0528 2.95559 64.6001 0.964868C65.8277-3.40818 69.6431-18.3545 70.647-21.9883C71.3443-24.499 72.1153-25.6186 73.6778-25.6186Z"/>
  </g>
 </g>
</svg>
