<?xml version="1.0" encoding="UTF-8"?>
<!--Generator: Apple Native CoreSVG 232.5-->
<!DOCTYPE svg
PUBLIC "-//W3C//DTD SVG 1.1//EN"
       "http://www.w3.org/Graphics/SVG/1.1/DTD/svg11.dtd">
<svg version="1.1" xmlns="http://www.w3.org/2000/svg" xmlns:xlink="http://www.w3.org/1999/xlink" width="3300" height="2200">
 <!--glyph: "uni100E7D.medium", point size: 100.0, font version: "19.2d2e1", template writer version: "128"-->
 <style>.SFSymbolsPreviewWireframe {fill:none;opacity:1.0;stroke:black;stroke-width:0.5}
</style>
 <g id="Notes">
  <rect height="2200" id="artboard" style="fill:white;opacity:1" width="3300" x="0" y="0"/>
  <line style="fill:none;stroke:black;opacity:1;stroke-width:0.5;" x1="263" x2="3036" y1="292" y2="292"/>
  <text style="stroke:none;fill:black;font-family:sans-serif;font-size:13;font-weight:bold;" transform="matrix(1 0 0 1 263 322)">Weight/Scale Variations</text>
  <text style="stroke:none;fill:black;font-family:sans-serif;font-size:13;text-anchor:middle;" transform="matrix(1 0 0 1 559.711 322)">Ultralight</text>
  <text style="stroke:none;fill:black;font-family:sans-serif;font-size:13;text-anchor:middle;" transform="matrix(1 0 0 1 856.422 322)">Thin</text>
  <text style="stroke:none;fill:black;font-family:sans-serif;font-size:13;text-anchor:middle;" transform="matrix(1 0 0 1 1153.13 322)">Light</text>
  <text style="stroke:none;fill:black;font-family:sans-serif;font-size:13;text-anchor:middle;" transform="matrix(1 0 0 1 1449.84 322)">Regular</text>
  <text style="stroke:none;fill:black;font-family:sans-serif;font-size:13;text-anchor:middle;" transform="matrix(1 0 0 1 1746.56 322)">Medium</text>
  <text style="stroke:none;fill:black;font-family:sans-serif;font-size:13;text-anchor:middle;" transform="matrix(1 0 0 1 2043.27 322)">Semibold</text>
  <text style="stroke:none;fill:black;font-family:sans-serif;font-size:13;text-anchor:middle;" transform="matrix(1 0 0 1 2339.98 322)">Bold</text>
  <text style="stroke:none;fill:black;font-family:sans-serif;font-size:13;text-anchor:middle;" transform="matrix(1 0 0 1 2636.69 322)">Heavy</text>
  <text style="stroke:none;fill:black;font-family:sans-serif;font-size:13;text-anchor:middle;" transform="matrix(1 0 0 1 2933.4 322)">Black</text>
  <line style="fill:none;stroke:black;opacity:1;stroke-width:0.5;" x1="263" x2="3036" y1="1903" y2="1903"/>
  <g transform="matrix(0.2 0 0 0.2 263 1933)">
   <path d="m46.2402 4.15039c21.5332 0 39.4531-17.8711 39.4531-39.4043s-17.9688-39.4043-39.502-39.4043c-21.4844 0-39.3555 17.8711-39.3555 39.4043s17.9199 39.4043 39.4043 39.4043Zm0-7.42188c-17.7246 0-31.8848-14.209-31.8848-31.9824s14.1113-31.9824 31.8359-31.9824c17.7734 0 32.0312 14.209 32.0312 31.9824s-14.209 31.9824-31.9824 31.9824Zm-17.9688-31.9824c0 2.14844 1.51367 3.61328 3.75977 3.61328h10.498v10.5957c0 2.19727 1.46484 3.71094 3.61328 3.71094 2.24609 0 3.71094-1.51367 3.71094-3.71094v-10.5957h10.5957c2.19727 0 3.71094-1.46484 3.71094-3.61328 0-2.19727-1.51367-3.71094-3.71094-3.71094h-10.5957v-10.5469c0-2.24609-1.46484-3.75977-3.71094-3.75977-2.14844 0-3.61328 1.51367-3.61328 3.75977v10.5469h-10.498c-2.24609 0-3.75977 1.51367-3.75977 3.71094Z"/>
  </g>
  <g transform="matrix(0.2 0 0 0.2 281.506 1933)">
   <path d="m58.5449 14.5508c27.2461 0 49.8047-22.6074 49.8047-49.8047 0-27.2461-22.6074-49.8047-49.8535-49.8047-27.1973 0-49.7559 22.5586-49.7559 49.8047 0 27.1973 22.6074 49.8047 49.8047 49.8047Zm0-8.30078c-23.0469 0-41.4551-18.457-41.4551-41.5039s18.3594-41.5039 41.4062-41.5039 41.5527 18.457 41.5527 41.5039-18.457 41.5039-41.5039 41.5039Zm-22.6562-41.5039c0 2.39258 1.66016 4.00391 4.15039 4.00391h14.3555v14.4043c0 2.44141 1.66016 4.15039 4.05273 4.15039 2.44141 0 4.15039-1.66016 4.15039-4.15039v-14.4043h14.4043c2.44141 0 4.15039-1.61133 4.15039-4.00391 0-2.44141-1.70898-4.15039-4.15039-4.15039h-14.4043v-14.3555c0-2.49023-1.70898-4.19922-4.15039-4.19922-2.39258 0-4.05273 1.70898-4.05273 4.19922v14.3555h-14.3555c-2.49023 0-4.15039 1.70898-4.15039 4.15039Z"/>
  </g>
  <g transform="matrix(0.2 0 0 0.2 304.924 1933)">
   <path d="m74.8535 28.3203c34.8145 0 63.623-28.8086 63.623-63.5742 0-34.8145-28.8574-63.623-63.6719-63.623-34.7656 0-63.5254 28.8086-63.5254 63.623 0 34.7656 28.8086 63.5742 63.5742 63.5742Zm0-9.08203c-30.1758 0-54.4434-24.3164-54.4434-54.4922 0-30.2246 24.2188-54.4922 54.3945-54.4922 30.2246 0 54.541 24.2676 54.541 54.4922 0 30.1758-24.2676 54.4922-54.4922 54.4922Zm-28.8574-54.4922c0 2.58789 1.85547 4.39453 4.58984 4.39453h19.7266v19.7754c0 2.68555 1.85547 4.58984 4.44336 4.58984 2.68555 0 4.54102-1.85547 4.54102-4.58984v-19.7754h19.7754c2.68555 0 4.58984-1.80664 4.58984-4.39453 0-2.73438-1.85547-4.58984-4.58984-4.58984h-19.7754v-19.7266c0-2.73438-1.85547-4.63867-4.54102-4.63867-2.58789 0-4.44336 1.9043-4.44336 4.63867v19.7266h-19.7266c-2.73438 0-4.58984 1.85547-4.58984 4.58984Z"/>
  </g>
  <text style="stroke:none;fill:black;font-family:sans-serif;font-size:13;font-weight:bold;" transform="matrix(1 0 0 1 263 1953)">Design Variations</text>
  <text style="stroke:none;fill:black;font-family:sans-serif;font-size:13;" transform="matrix(1 0 0 1 263 1971)">Symbols are supported in up to nine weights and three scales.</text>
  <text style="stroke:none;fill:black;font-family:sans-serif;font-size:13;" transform="matrix(1 0 0 1 263 1989)">For optimal layout with text and other symbols, vertically align</text>
  <text style="stroke:none;fill:black;font-family:sans-serif;font-size:13;" transform="matrix(1 0 0 1 263 2007)">symbols with the adjacent text.</text>
  <line style="fill:none;stroke:#00AEEF;stroke-width:0.5;opacity:1.0;" x1="776" x2="776" y1="1919" y2="1933"/>
  <g transform="matrix(0.2 0 0 0.2 776 1933)">
   <path d="m16.5527 0.78125c2.58789 0 3.85742-0.976562 4.78516-3.71094l6.29883-17.2363h28.8086l6.29883 17.2363c0.927734 2.73438 2.19727 3.71094 4.73633 3.71094 2.58789 0 4.24805-1.5625 4.24805-4.00391 0-0.830078-0.146484-1.61133-0.537109-2.63672l-22.9004-60.9863c-1.12305-2.97852-3.125-4.49219-6.25-4.49219-3.02734 0-5.07812 1.46484-6.15234 4.44336l-22.9004 61.084c-0.390625 1.02539-0.537109 1.80664-0.537109 2.63672 0 2.44141 1.5625 3.95508 4.10156 3.95508Zm13.4766-28.3691 11.8652-32.8613h0.244141l11.8652 32.8613Z"/>
  </g>
  <line style="fill:none;stroke:#00AEEF;stroke-width:0.5;opacity:1.0;" x1="792.836" x2="792.836" y1="1919" y2="1933"/>
  <text style="stroke:none;fill:black;font-family:sans-serif;font-size:13;font-weight:bold;" transform="matrix(1 0 0 1 776 1953)">Margins</text>
  <text style="stroke:none;fill:black;font-family:sans-serif;font-size:13;" transform="matrix(1 0 0 1 776 1971)">Leading and trailing margins on the left and right side of each symbol</text>
  <text style="stroke:none;fill:black;font-family:sans-serif;font-size:13;" transform="matrix(1 0 0 1 776 1989)">can be adjusted by modifying the x-location of the margin guidelines.</text>
  <text style="stroke:none;fill:black;font-family:sans-serif;font-size:13;" transform="matrix(1 0 0 1 776 2007)">Modifications are automatically applied proportionally to all</text>
  <text style="stroke:none;fill:black;font-family:sans-serif;font-size:13;" transform="matrix(1 0 0 1 776 2025)">scales and weights.</text>
  <g transform="matrix(0.2 0 0 0.2 1289 1933)">
   <path d="m14.209 9.32617 8.49609 8.54492c4.29688 4.3457 9.22852 4.05273 13.8672-1.07422l53.4668-58.9355-4.83398-4.88281-53.0762 58.3984c-1.75781 2.00195-3.41797 2.49023-5.76172 0.146484l-5.85938-5.81055c-2.34375-2.29492-1.80664-4.00391 0.195312-5.81055l57.373-54.0039-4.88281-4.83398-57.959 54.4434c-4.93164 4.58984-5.32227 9.47266-1.02539 13.8184Zm32.0801-90.9668c-2.09961 2.05078-2.24609 4.93164-1.07422 6.88477 1.17188 1.80664 3.4668 2.97852 6.68945 2.14844 7.32422-1.70898 14.9414-2.00195 22.0703 2.68555l-2.92969 7.27539c-1.70898 4.15039-0.830078 7.08008 1.85547 9.81445l11.4746 11.5723c2.44141 2.44141 4.49219 2.53906 7.32422 2.05078l5.32227-0.976562 3.32031 3.36914-0.195312 2.7832c-0.195312 2.49023 0.439453 4.39453 2.88086 6.78711l3.80859 3.71094c2.39258 2.39258 5.46875 2.53906 7.8125 0.195312l14.5508-14.5996c2.34375-2.34375 2.24609-5.32227-0.146484-7.71484l-3.85742-3.80859c-2.39258-2.39258-4.24805-3.17383-6.64062-2.97852l-2.88086 0.244141-3.22266-3.17383 1.2207-5.61523c0.634766-2.83203-0.146484-5.0293-3.07617-7.95898l-10.9863-10.9375c-16.6992-16.6016-38.8672-16.2109-53.3203-1.75781Zm7.4707 1.85547c12.1582-8.88672 28.6133-7.37305 39.7461 3.75977l12.1582 12.0605c1.17188 1.17188 1.36719 2.09961 1.02539 3.80859l-1.61133 7.42188 7.51953 7.42188 4.93164-0.292969c1.26953-0.0488281 1.66016 0.0488281 2.63672 1.02539l2.88086 2.88086-12.207 12.207-2.88086-2.88086c-0.976562-0.976562-1.12305-1.36719-1.07422-2.68555l0.341797-4.88281-7.4707-7.42188-7.61719 1.26953c-1.61133 0.341797-2.34375 0.195312-3.56445-0.976562l-10.0098-10.0098c-1.26953-1.17188-1.41602-2.00195-0.634766-3.85742l4.39453-10.4492c-7.8125-7.27539-17.9688-10.4004-28.125-7.42188-0.78125 0.195312-1.07422-0.439453-0.439453-0.976562Z"/>
  </g>
  <text style="stroke:none;fill:black;font-family:sans-serif;font-size:13;font-weight:bold;" transform="matrix(1 0 0 1 1289 1953)">Exporting</text>
  <text style="stroke:none;fill:black;font-family:sans-serif;font-size:13;" transform="matrix(1 0 0 1 1289 1971)">Symbols should be outlined when exporting to ensure the</text>
  <text style="stroke:none;fill:black;font-family:sans-serif;font-size:13;" transform="matrix(1 0 0 1 1289 1989)">design is preserved when submitting to Xcode.</text>
  <text id="template-version" style="stroke:none;fill:black;font-family:sans-serif;font-size:13;text-anchor:end;" transform="matrix(1 0 0 1 3036 1933)">Template v.5.0</text>
  <text style="stroke:none;fill:black;font-family:sans-serif;font-size:13;text-anchor:end;" transform="matrix(1 0 0 1 3036 1951)">Requires Xcode 15 or greater</text>
  <text id="descriptive-name" style="stroke:none;fill:black;font-family:sans-serif;font-size:13;text-anchor:end;" transform="matrix(1 0 0 1 3036 1969)">Generated from figure.2.circle</text>
  <text style="stroke:none;fill:black;font-family:sans-serif;font-size:13;text-anchor:end;" transform="matrix(1 0 0 1 3036 1987)">Typeset at 100.0 points</text>
  <text style="stroke:none;fill:black;font-family:sans-serif;font-size:13;" transform="matrix(1 0 0 1 263 726)">Small</text>
  <text style="stroke:none;fill:black;font-family:sans-serif;font-size:13;" transform="matrix(1 0 0 1 263 1156)">Medium</text>
  <text style="stroke:none;fill:black;font-family:sans-serif;font-size:13;" transform="matrix(1 0 0 1 263 1586)">Large</text>
 </g>
 <g id="Guides">
  <g id="H-reference" style="fill:#27AAE1;stroke:none;" transform="matrix(1 0 0 1 339 696)">
   <path d="M0.993654 0L3.63775 0L29.3281-67.1323L30.0303-67.1323L30.0303-70.459L28.1226-70.459ZM11.6885-24.4799L46.9815-24.4799L46.2315-26.7285L12.4385-26.7285ZM55.1196 0L57.7637 0L30.6382-70.459L29.4326-70.459L29.4326-67.1323Z"/>
  </g>
  <line id="Baseline-S" style="fill:none;stroke:#27AAE1;opacity:1;stroke-width:0.5;" x1="263" x2="3036" y1="696" y2="696"/>
  <line id="Capline-S" style="fill:none;stroke:#27AAE1;opacity:1;stroke-width:0.5;" x1="263" x2="3036" y1="625.541" y2="625.541"/>
  <g id="H-reference" style="fill:#27AAE1;stroke:none;" transform="matrix(1 0 0 1 339 1126)">
   <path d="M0.993654 0L3.63775 0L29.3281-67.1323L30.0303-67.1323L30.0303-70.459L28.1226-70.459ZM11.6885-24.4799L46.9815-24.4799L46.2315-26.7285L12.4385-26.7285ZM55.1196 0L57.7637 0L30.6382-70.459L29.4326-70.459L29.4326-67.1323Z"/>
  </g>
  <line id="Baseline-M" style="fill:none;stroke:#27AAE1;opacity:1;stroke-width:0.5;" x1="263" x2="3036" y1="1126" y2="1126"/>
  <line id="Capline-M" style="fill:none;stroke:#27AAE1;opacity:1;stroke-width:0.5;" x1="263" x2="3036" y1="1055.54" y2="1055.54"/>
  <g id="H-reference" style="fill:#27AAE1;stroke:none;" transform="matrix(1 0 0 1 339 1556)">
   <path d="M0.993654 0L3.63775 0L29.3281-67.1323L30.0303-67.1323L30.0303-70.459L28.1226-70.459ZM11.6885-24.4799L46.9815-24.4799L46.2315-26.7285L12.4385-26.7285ZM55.1196 0L57.7637 0L30.6382-70.459L29.4326-70.459L29.4326-67.1323Z"/>
  </g>
  <line id="Baseline-L" style="fill:none;stroke:#27AAE1;opacity:1;stroke-width:0.5;" x1="263" x2="3036" y1="1556" y2="1556"/>
  <line id="Capline-L" style="fill:none;stroke:#27AAE1;opacity:1;stroke-width:0.5;" x1="263" x2="3036" y1="1485.54" y2="1485.54"/>
  <line id="left-margin-Ultralight-S" style="fill:none;stroke:#00AEEF;stroke-width:0.5;opacity:1.0;" x1="515.649" x2="515.649" y1="600.785" y2="720.121"/>
  <line id="right-margin-Ultralight-S" style="fill:none;stroke:#00AEEF;stroke-width:0.5;opacity:1.0;" x1="603.773" x2="603.773" y1="600.785" y2="720.121"/>
  <line id="left-margin-Regular-S" style="fill:none;stroke:#00AEEF;stroke-width:0.5;opacity:1.0;" x1="1403.58" x2="1403.58" y1="600.785" y2="720.121"/>
  <line id="right-margin-Regular-S" style="fill:none;stroke:#00AEEF;stroke-width:0.5;opacity:1.0;" x1="1496.11" x2="1496.11" y1="600.785" y2="720.121"/>
  <line id="left-margin-Black-S" style="fill:none;stroke:#00AEEF;stroke-width:0.5;opacity:1.0;" x1="2884.57" x2="2884.57" y1="600.785" y2="720.121"/>
  <line id="right-margin-Black-S" style="fill:none;stroke:#00AEEF;stroke-width:0.5;opacity:1.0;" x1="2982.23" x2="2982.23" y1="600.785" y2="720.121"/>
 </g>
 <g id="Symbols">
  <g id="Black-S" transform="matrix(1 0 0 1 2884.57 696)">
   <path class="SFSymbolsPreviewWireframe" d="M48.8281 6.78711C71.9727 6.78711 90.8203-12.0605 90.8203-35.2051C90.8203-58.3496 71.9727-77.1973 48.8281-77.1973C25.6836-77.1973 6.83594-58.3496 6.83594-35.2051C6.83594-12.0605 25.6836 6.78711 48.8281 6.78711ZM48.8281-7.37305C33.4473-7.37305 20.9961-19.8242 20.9961-35.2051C20.9961-50.5859 33.4473-63.0371 48.8281-63.0371C64.209-63.0371 76.6602-50.5859 76.6602-35.2051C76.6602-19.8242 64.209-7.37305 48.8281-7.37305ZM48.7793-40.2832C50.0977-40.2832 51.3672-40.2344 52.1973-40.0879C52.832-39.9902 53.0762-39.6484 53.0762-39.0137C53.125-37.793 53.0762-33.5938 52.7344-31.7383C52.4414-29.834 50.2441-20.6055 50.1465-20.2148C49.707-18.8965 50.6348-17.5781 52.0508-17.5781C53.125-17.5781 53.8086-18.2129 54.1504-19.3848C54.6387-21.2402 56.2012-27.6367 56.7383-29.1504C57.0312-30.127 57.1289-30.2246 57.3242-30.2246C57.6172-30.2246 57.7148-30.0781 57.959-29.1992C58.4473-27.6855 60.0586-21.2891 60.498-19.3848C60.791-18.2129 61.5234-17.5781 62.5977-17.5781C63.9648-17.5781 64.8926-18.8965 64.4531-20.2148C64.4043-20.6055 62.207-29.834 61.8652-31.7383C61.5723-33.5938 61.6211-37.793 61.6211-39.1113C61.6211-39.7461 61.8164-40.0879 62.2559-40.1367C62.8906-40.332 68.75-40.8691 69.7266-41.2109C70.6543-41.5527 71.1914-42.334 71.1914-43.2617C71.1914-44.3848 70.3125-45.3125 69.2383-45.3125C68.9941-45.3125 68.6523-45.2637 68.457-45.2148C66.0156-44.7754 60.9863-44.3848 57.2754-44.1895C54.2969-44.1406 50.9766-43.9941 48.877-43.9941C46.7285-43.9941 43.2617-44.1406 40.2344-44.1895C36.6699-44.3359 31.5918-44.7266 29.1504-45.166C28.8086-45.3125 28.5156-45.3125 28.3203-45.3125C27.1973-45.3125 26.3672-44.4336 26.3672-43.2617C26.3672-42.2363 27.002-41.4551 27.9297-41.2109C28.8086-41.0156 34.5703-40.2832 35.3027-40.0879C35.6934-40.0391 35.9375-39.6973 35.9863-39.1113C36.0352-37.793 35.9863-33.5938 35.6445-31.7383C35.3516-29.834 33.1055-20.6055 33.0566-20.2148C32.6172-18.8965 33.5449-17.5781 34.9121-17.5781C35.9863-17.5781 36.7188-18.1641 37.0605-19.3848C37.5488-21.2402 39.1113-27.6367 39.6484-29.1504C39.9414-30.127 40.0391-30.2246 40.1855-30.2246C40.4785-30.2246 40.5762-30.0781 40.8691-29.1504C41.3574-27.6855 42.9688-21.2891 43.4082-19.3848C43.7012-18.2129 44.4336-17.5781 45.459-17.5781C46.875-17.5781 47.8027-18.8965 47.3633-20.2148C47.3145-20.6055 45.0684-29.834 44.7754-31.7383C44.4824-33.5938 44.4824-37.793 44.4824-39.0137C44.5312-39.6973 44.7754-39.9902 45.4102-40.0879C46.1914-40.2344 47.6074-40.332 48.7793-40.2832ZM40.1855-45.1172C42.334-45.1172 44.1895-46.9238 44.1895-49.0723C44.1895-51.2695 42.4316-53.0273 40.1855-53.0273C38.0371-53.0273 36.2793-51.2695 36.2793-49.0723C36.2793-46.9238 38.0859-45.1172 40.1855-45.1172ZM57.3242-45.1172C59.4727-45.1172 61.2793-46.9238 61.2793-49.0723C61.2793-51.2695 59.5215-53.0273 57.3242-53.0273C55.127-53.0273 53.3691-51.2695 53.3691-49.0723C53.3691-46.9238 55.1758-45.1172 57.3242-45.1172Z"/>
  </g>
  <g id="Regular-S" transform="matrix(1 0 0 1 1403.58 696)">
   <path class="SFSymbolsPreviewWireframe" d="M46.2402 4.15039C67.7734 4.15039 85.6934-13.7207 85.6934-35.2539C85.6934-56.7871 67.7246-74.6582 46.1914-74.6582C24.707-74.6582 6.83594-56.7871 6.83594-35.2539C6.83594-13.7207 24.7559 4.15039 46.2402 4.15039ZM46.2402-3.27148C28.5156-3.27148 14.3555-17.4805 14.3555-35.2539C14.3555-53.0273 28.4668-67.2363 46.1914-67.2363C63.9648-67.2363 78.2227-53.0273 78.2227-35.2539C78.2227-17.4805 64.0137-3.27148 46.2402-3.27148ZM46.1914-41.9434C48.0957-41.9434 49.5117-41.8457 50.293-41.6992C51.2695-41.5039 51.709-41.0156 51.709-39.9414C51.7578-38.5742 51.709-33.5938 51.3672-31.3965C50.9766-29.1504 48.4375-18.3594 48.291-17.9688C47.9004-16.6504 48.7305-15.4785 50.0488-15.4785C51.0254-15.4785 51.709-16.0645 52.002-17.1875C52.5879-19.3848 54.3457-26.9043 54.9316-28.6133C55.4199-29.9805 55.7129-30.2246 56.1523-30.2246C56.6895-30.2246 56.9824-29.8828 57.4219-28.6133C58.0078-26.9531 59.8633-19.4336 60.3516-17.1875C60.6934-16.0156 61.3281-15.4785 62.3047-15.4785C63.5742-15.4785 64.4043-16.6992 64.0625-17.9199C63.916-18.3594 61.377-29.1504 60.9863-31.3965C60.6445-33.5938 60.6445-38.5742 60.6445-40.0391C60.6445-40.9668 61.0352-41.6016 61.7676-41.748C62.6465-41.9922 69.4336-42.627 70.459-43.0176C71.2891-43.3105 71.8262-44.043 71.8262-44.9219C71.8262-45.9473 71.0449-46.8262 70.1172-46.8262C69.7754-46.8262 69.4824-46.7285 69.1895-46.6797C66.3574-46.1426 60.4004-45.752 56.1523-45.5078C52.6855-45.4102 48.7793-45.3125 46.2891-45.3125C43.7988-45.3125 39.7949-45.4102 36.2305-45.5078C32.0312-45.7031 26.0254-46.0938 23.1934-46.6797C22.9492-46.7285 22.6074-46.8262 22.3145-46.8262C21.3379-46.8262 20.6055-45.9473 20.6055-44.9219C20.6055-43.9453 21.1426-43.1641 22.0215-43.0176C22.998-42.7734 29.7852-41.9434 30.6152-41.748C31.3477-41.6016 31.7871-40.9668 31.7871-40.0391C31.7871-38.5742 31.7871-33.5938 31.3965-31.3965C31.0059-29.1504 28.4668-18.3594 28.3203-17.9688C27.9297-16.6992 28.8086-15.4785 30.0781-15.4785C31.0547-15.4785 31.6895-16.0156 32.0801-17.1875C32.6172-19.3848 34.4238-26.9043 35.0586-28.6133C35.4492-29.9316 35.6934-30.2246 36.2305-30.2246C36.7676-30.2246 37.0605-29.8828 37.4512-28.6621C37.9883-26.9531 39.9414-19.4336 40.4297-17.1875C40.6738-16.0645 41.3086-15.4785 42.334-15.4785C43.6523-15.4785 44.4824-16.6504 44.0918-17.9199C43.9941-18.3594 41.4062-29.1504 41.0645-31.3965C40.7227-33.5938 40.7227-38.5742 40.7227-39.9414C40.7715-41.0156 41.1621-41.5039 42.1387-41.6992C43.1152-41.8945 44.7266-41.9922 46.1914-41.9434ZM36.2305-47.0703C38.5254-47.0703 40.332-48.877 40.332-51.1719C40.332-53.418 38.5254-55.2246 36.2305-55.2246C33.9355-55.2246 32.1289-53.418 32.1289-51.1719C32.1289-48.877 33.9355-47.0703 36.2305-47.0703ZM56.1523-47.0703C58.4473-47.0703 60.3027-48.9258 60.3027-51.1719C60.3027-53.418 58.4473-55.2246 56.1523-55.2246C53.9062-55.2246 52.0996-53.418 52.0996-51.1719C52.0996-48.877 53.9062-47.0703 56.1523-47.0703Z"/>
  </g>
  <g id="Ultralight-S" transform="matrix(1 0 0 1 515.649 696)">
   <path class="SFSymbolsPreviewWireframe" d="M44.0606 1.97072C64.5039 1.97072 81.2886-14.8105 81.2886-35.2539C81.2886-55.6973 64.5005-72.4785 44.0571-72.4785C23.5718-72.4785 6.83594-55.6973 6.83594-35.2539C6.83594-14.8105 23.5752 1.97072 44.0606 1.97072ZM44.0606-0.274438C24.7466-0.274438 9.04252-15.9365 9.04252-35.2539C9.04252-54.5713 24.7432-70.2334 44.0571-70.2334C63.3745-70.2334 79.04-54.5713 79.04-35.2539C79.04-15.9365 63.3779-0.274438 44.0606-0.274438ZM44.1026-42.8061C45.8706-42.8061 47.4683-42.7085 48.4312-42.5166C49.6802-42.3213 50.2559-41.5605 50.3013-40.2593C50.3047-38.8013 50.3013-33.6392 49.9141-31.2148C49.5234-28.8779 46.8482-17.542 46.7017-17.106C46.3565-16.0147 47.0049-15.0698 48.0508-15.0698C48.8911-15.0698 49.3931-15.5195 49.6406-16.5518C50.272-18.8398 52.166-26.6772 52.7974-28.5225C53.2403-29.8896 53.624-30.4971 54.5176-30.4971C55.2817-30.4971 55.7109-30.019 56.2412-28.5225C56.8272-26.7261 58.8643-18.8433 59.398-16.5518C59.5581-15.5161 60.0567-15.0698 60.897-15.0698C61.9395-15.0698 62.5879-16.0181 62.2915-17.1025C62.1904-17.5874 59.4697-28.8779 59.0791-31.2148C58.7373-33.6392 58.7827-38.8013 58.7827-40.3569C58.7827-41.5117 59.3096-42.4189 60.2691-42.6108C61.1934-42.855 68.2983-43.5806 69.2783-43.9258C69.9722-44.1279 70.4185-44.7241 70.4185-45.4668C70.4185-46.3105 69.8189-47.0078 69.1636-47.0078C68.8218-47.0078 68.6196-46.9102 68.2813-46.8159C65.2222-46.3696 58.9927-45.8428 54.5176-45.5986C50.8237-45.5464 46.7359-45.4033 44.2002-45.4033C41.5737-45.4033 37.3428-45.5464 33.5513-45.5986C29.1704-45.8394 22.8467-46.2754 19.7876-46.8159C19.4981-46.9102 19.2925-47.0078 18.9541-47.0078C18.2954-47.0078 17.6992-46.356 17.6992-45.4668C17.6992-44.6719 18.1455-43.9814 18.752-43.9258C19.8194-43.6362 26.8789-42.8061 27.8452-42.6108C28.7139-42.4189 29.335-41.5571 29.3804-40.3569C29.4258-38.8013 29.3804-33.6392 28.9898-31.2148C28.5991-28.8779 25.9238-17.542 25.7774-17.106C25.523-16.0181 26.084-15.0698 27.1719-15.0698C28.0122-15.0698 28.4199-15.5161 28.7198-16.5518C29.3477-18.8398 31.2451-26.6772 31.8799-28.5225C32.4068-29.8862 32.7417-30.4971 33.5513-30.4971C34.4517-30.4971 34.9263-30.019 35.3623-28.5259C35.8994-26.7261 37.9434-18.8433 38.4771-16.5518C38.6758-15.5195 39.1743-15.0698 40.0635-15.0698C41.064-15.0698 41.7124-16.0147 41.3672-17.1025C41.2241-17.5874 38.5454-28.8779 38.1582-31.2148C37.8164-33.6392 37.8164-38.8013 37.8618-40.2593C37.9107-41.5605 38.4829-42.3213 39.732-42.5166C40.7993-42.7119 42.5923-42.855 44.1026-42.8061ZM33.5513-48.2056C35.6646-48.2056 37.4258-49.8306 37.4258-51.9893C37.4258-54.0537 35.71-55.8149 33.5513-55.8149C31.4834-55.8149 29.7676-54.0537 29.7676-51.9893C29.7676-49.8306 31.4834-48.2056 33.5513-48.2056ZM54.5176-48.2056C56.5855-48.2056 58.3501-49.834 58.3501-51.9893C58.3501-54.0537 56.6309-55.8149 54.5176-55.8149C52.3623-55.8149 50.6919-54.0537 50.6919-51.9893C50.6919-49.8306 52.4077-48.2056 54.5176-48.2056Z"/>
  </g>
 </g>
</svg>
