<?xml version="1.0" encoding="UTF-8"?>
<!--Generator: Apple Native CoreSVG 232.5-->
<!DOCTYPE svg
PUBLIC "-//W3C//DTD SVG 1.1//EN"
       "http://www.w3.org/Graphics/SVG/1.1/DTD/svg11.dtd">
<svg version="1.1" xmlns="http://www.w3.org/2000/svg" xmlns:xlink="http://www.w3.org/1999/xlink" width="3300" height="2200">
 <!--glyph: "uni100435.medium", point size: 100.0, font version: "19.2d2e1", template writer version: "128"-->
 <style>.SFSymbolsPreviewWireframe {fill:none;opacity:1.0;stroke:black;stroke-width:0.5}
</style>
 <g id="Notes">
  <rect height="2200" id="artboard" style="fill:white;opacity:1" width="3300" x="0" y="0"/>
  <line style="fill:none;stroke:black;opacity:1;stroke-width:0.5;" x1="263" x2="3036" y1="292" y2="292"/>
  <text style="stroke:none;fill:black;font-family:sans-serif;font-size:13;font-weight:bold;" transform="matrix(1 0 0 1 263 322)">Weight/Scale Variations</text>
  <text style="stroke:none;fill:black;font-family:sans-serif;font-size:13;text-anchor:middle;" transform="matrix(1 0 0 1 559.711 322)">Ultralight</text>
  <text style="stroke:none;fill:black;font-family:sans-serif;font-size:13;text-anchor:middle;" transform="matrix(1 0 0 1 856.422 322)">Thin</text>
  <text style="stroke:none;fill:black;font-family:sans-serif;font-size:13;text-anchor:middle;" transform="matrix(1 0 0 1 1153.13 322)">Light</text>
  <text style="stroke:none;fill:black;font-family:sans-serif;font-size:13;text-anchor:middle;" transform="matrix(1 0 0 1 1449.84 322)">Regular</text>
  <text style="stroke:none;fill:black;font-family:sans-serif;font-size:13;text-anchor:middle;" transform="matrix(1 0 0 1 1746.56 322)">Medium</text>
  <text style="stroke:none;fill:black;font-family:sans-serif;font-size:13;text-anchor:middle;" transform="matrix(1 0 0 1 2043.27 322)">Semibold</text>
  <text style="stroke:none;fill:black;font-family:sans-serif;font-size:13;text-anchor:middle;" transform="matrix(1 0 0 1 2339.98 322)">Bold</text>
  <text style="stroke:none;fill:black;font-family:sans-serif;font-size:13;text-anchor:middle;" transform="matrix(1 0 0 1 2636.69 322)">Heavy</text>
  <text style="stroke:none;fill:black;font-family:sans-serif;font-size:13;text-anchor:middle;" transform="matrix(1 0 0 1 2933.4 322)">Black</text>
  <line style="fill:none;stroke:black;opacity:1;stroke-width:0.5;" x1="263" x2="3036" y1="1903" y2="1903"/>
  <g transform="matrix(0.2 0 0 0.2 263 1933)">
   <path d="m46.2402 4.15039c21.5332 0 39.4531-17.8711 39.4531-39.4043s-17.9688-39.4043-39.502-39.4043c-21.4844 0-39.3555 17.8711-39.3555 39.4043s17.9199 39.4043 39.4043 39.4043Zm0-7.42188c-17.7246 0-31.8848-14.209-31.8848-31.9824s14.1113-31.9824 31.8359-31.9824c17.7734 0 32.0312 14.209 32.0312 31.9824s-14.209 31.9824-31.9824 31.9824Zm-17.9688-31.9824c0 2.14844 1.51367 3.61328 3.75977 3.61328h10.498v10.5957c0 2.19727 1.46484 3.71094 3.61328 3.71094 2.24609 0 3.71094-1.51367 3.71094-3.71094v-10.5957h10.5957c2.19727 0 3.71094-1.46484 3.71094-3.61328 0-2.19727-1.51367-3.71094-3.71094-3.71094h-10.5957v-10.5469c0-2.24609-1.46484-3.75977-3.71094-3.75977-2.14844 0-3.61328 1.51367-3.61328 3.75977v10.5469h-10.498c-2.24609 0-3.75977 1.51367-3.75977 3.71094Z"/>
  </g>
  <g transform="matrix(0.2 0 0 0.2 281.506 1933)">
   <path d="m58.5449 14.5508c27.2461 0 49.8047-22.6074 49.8047-49.8047 0-27.2461-22.6074-49.8047-49.8535-49.8047-27.1973 0-49.7559 22.5586-49.7559 49.8047 0 27.1973 22.6074 49.8047 49.8047 49.8047Zm0-8.30078c-23.0469 0-41.4551-18.457-41.4551-41.5039s18.3594-41.5039 41.4062-41.5039 41.5527 18.457 41.5527 41.5039-18.457 41.5039-41.5039 41.5039Zm-22.6562-41.5039c0 2.39258 1.66016 4.00391 4.15039 4.00391h14.3555v14.4043c0 2.44141 1.66016 4.15039 4.05273 4.15039 2.44141 0 4.15039-1.66016 4.15039-4.15039v-14.4043h14.4043c2.44141 0 4.15039-1.61133 4.15039-4.00391 0-2.44141-1.70898-4.15039-4.15039-4.15039h-14.4043v-14.3555c0-2.49023-1.70898-4.19922-4.15039-4.19922-2.39258 0-4.05273 1.70898-4.05273 4.19922v14.3555h-14.3555c-2.49023 0-4.15039 1.70898-4.15039 4.15039Z"/>
  </g>
  <g transform="matrix(0.2 0 0 0.2 304.924 1933)">
   <path d="m74.8535 28.3203c34.8145 0 63.623-28.8086 63.623-63.5742 0-34.8145-28.8574-63.623-63.6719-63.623-34.7656 0-63.5254 28.8086-63.5254 63.623 0 34.7656 28.8086 63.5742 63.5742 63.5742Zm0-9.08203c-30.1758 0-54.4434-24.3164-54.4434-54.4922 0-30.2246 24.2188-54.4922 54.3945-54.4922 30.2246 0 54.541 24.2676 54.541 54.4922 0 30.1758-24.2676 54.4922-54.4922 54.4922Zm-28.8574-54.4922c0 2.58789 1.85547 4.39453 4.58984 4.39453h19.7266v19.7754c0 2.68555 1.85547 4.58984 4.44336 4.58984 2.68555 0 4.54102-1.85547 4.54102-4.58984v-19.7754h19.7754c2.68555 0 4.58984-1.80664 4.58984-4.39453 0-2.73438-1.85547-4.58984-4.58984-4.58984h-19.7754v-19.7266c0-2.73438-1.85547-4.63867-4.54102-4.63867-2.58789 0-4.44336 1.9043-4.44336 4.63867v19.7266h-19.7266c-2.73438 0-4.58984 1.85547-4.58984 4.58984Z"/>
  </g>
  <text style="stroke:none;fill:black;font-family:sans-serif;font-size:13;font-weight:bold;" transform="matrix(1 0 0 1 263 1953)">Design Variations</text>
  <text style="stroke:none;fill:black;font-family:sans-serif;font-size:13;" transform="matrix(1 0 0 1 263 1971)">Symbols are supported in up to nine weights and three scales.</text>
  <text style="stroke:none;fill:black;font-family:sans-serif;font-size:13;" transform="matrix(1 0 0 1 263 1989)">For optimal layout with text and other symbols, vertically align</text>
  <text style="stroke:none;fill:black;font-family:sans-serif;font-size:13;" transform="matrix(1 0 0 1 263 2007)">symbols with the adjacent text.</text>
  <line style="fill:none;stroke:#00AEEF;stroke-width:0.5;opacity:1.0;" x1="776" x2="776" y1="1919" y2="1933"/>
  <g transform="matrix(0.2 0 0 0.2 776 1933)">
   <path d="m16.5527 0.78125c2.58789 0 3.85742-0.976562 4.78516-3.71094l6.29883-17.2363h28.8086l6.29883 17.2363c0.927734 2.73438 2.19727 3.71094 4.73633 3.71094 2.58789 0 4.24805-1.5625 4.24805-4.00391 0-0.830078-0.146484-1.61133-0.537109-2.63672l-22.9004-60.9863c-1.12305-2.97852-3.125-4.49219-6.25-4.49219-3.02734 0-5.07812 1.46484-6.15234 4.44336l-22.9004 61.084c-0.390625 1.02539-0.537109 1.80664-0.537109 2.63672 0 2.44141 1.5625 3.95508 4.10156 3.95508Zm13.4766-28.3691 11.8652-32.8613h0.244141l11.8652 32.8613Z"/>
  </g>
  <line style="fill:none;stroke:#00AEEF;stroke-width:0.5;opacity:1.0;" x1="792.836" x2="792.836" y1="1919" y2="1933"/>
  <text style="stroke:none;fill:black;font-family:sans-serif;font-size:13;font-weight:bold;" transform="matrix(1 0 0 1 776 1953)">Margins</text>
  <text style="stroke:none;fill:black;font-family:sans-serif;font-size:13;" transform="matrix(1 0 0 1 776 1971)">Leading and trailing margins on the left and right side of each symbol</text>
  <text style="stroke:none;fill:black;font-family:sans-serif;font-size:13;" transform="matrix(1 0 0 1 776 1989)">can be adjusted by modifying the x-location of the margin guidelines.</text>
  <text style="stroke:none;fill:black;font-family:sans-serif;font-size:13;" transform="matrix(1 0 0 1 776 2007)">Modifications are automatically applied proportionally to all</text>
  <text style="stroke:none;fill:black;font-family:sans-serif;font-size:13;" transform="matrix(1 0 0 1 776 2025)">scales and weights.</text>
  <g transform="matrix(0.2 0 0 0.2 1289 1933)">
   <path d="m14.209 9.32617 8.49609 8.54492c4.29688 4.3457 9.22852 4.05273 13.8672-1.07422l53.4668-58.9355-4.83398-4.88281-53.0762 58.3984c-1.75781 2.00195-3.41797 2.49023-5.76172 0.146484l-5.85938-5.81055c-2.34375-2.29492-1.80664-4.00391 0.195312-5.81055l57.373-54.0039-4.88281-4.83398-57.959 54.4434c-4.93164 4.58984-5.32227 9.47266-1.02539 13.8184Zm32.0801-90.9668c-2.09961 2.05078-2.24609 4.93164-1.07422 6.88477 1.17188 1.80664 3.4668 2.97852 6.68945 2.14844 7.32422-1.70898 14.9414-2.00195 22.0703 2.68555l-2.92969 7.27539c-1.70898 4.15039-0.830078 7.08008 1.85547 9.81445l11.4746 11.5723c2.44141 2.44141 4.49219 2.53906 7.32422 2.05078l5.32227-0.976562 3.32031 3.36914-0.195312 2.7832c-0.195312 2.49023 0.439453 4.39453 2.88086 6.78711l3.80859 3.71094c2.39258 2.39258 5.46875 2.53906 7.8125 0.195312l14.5508-14.5996c2.34375-2.34375 2.24609-5.32227-0.146484-7.71484l-3.85742-3.80859c-2.39258-2.39258-4.24805-3.17383-6.64062-2.97852l-2.88086 0.244141-3.22266-3.17383 1.2207-5.61523c0.634766-2.83203-0.146484-5.0293-3.07617-7.95898l-10.9863-10.9375c-16.6992-16.6016-38.8672-16.2109-53.3203-1.75781Zm7.4707 1.85547c12.1582-8.88672 28.6133-7.37305 39.7461 3.75977l12.1582 12.0605c1.17188 1.17188 1.36719 2.09961 1.02539 3.80859l-1.61133 7.42188 7.51953 7.42188 4.93164-0.292969c1.26953-0.0488281 1.66016 0.0488281 2.63672 1.02539l2.88086 2.88086-12.207 12.207-2.88086-2.88086c-0.976562-0.976562-1.12305-1.36719-1.07422-2.68555l0.341797-4.88281-7.4707-7.42188-7.61719 1.26953c-1.61133 0.341797-2.34375 0.195312-3.56445-0.976562l-10.0098-10.0098c-1.26953-1.17188-1.41602-2.00195-0.634766-3.85742l4.39453-10.4492c-7.8125-7.27539-17.9688-10.4004-28.125-7.42188-0.78125 0.195312-1.07422-0.439453-0.439453-0.976562Z"/>
  </g>
  <text style="stroke:none;fill:black;font-family:sans-serif;font-size:13;font-weight:bold;" transform="matrix(1 0 0 1 1289 1953)">Exporting</text>
  <text style="stroke:none;fill:black;font-family:sans-serif;font-size:13;" transform="matrix(1 0 0 1 1289 1971)">Symbols should be outlined when exporting to ensure the</text>
  <text style="stroke:none;fill:black;font-family:sans-serif;font-size:13;" transform="matrix(1 0 0 1 1289 1989)">design is preserved when submitting to Xcode.</text>
  <text id="template-version" style="stroke:none;fill:black;font-family:sans-serif;font-size:13;text-anchor:end;" transform="matrix(1 0 0 1 3036 1933)">Template v.5.0</text>
  <text style="stroke:none;fill:black;font-family:sans-serif;font-size:13;text-anchor:end;" transform="matrix(1 0 0 1 3036 1951)">Requires Xcode 15 or greater</text>
  <text id="descriptive-name" style="stroke:none;fill:black;font-family:sans-serif;font-size:13;text-anchor:end;" transform="matrix(1 0 0 1 3036 1969)">Generated from figure.run.circle.fill</text>
  <text style="stroke:none;fill:black;font-family:sans-serif;font-size:13;text-anchor:end;" transform="matrix(1 0 0 1 3036 1987)">Typeset at 100.0 points</text>
  <text style="stroke:none;fill:black;font-family:sans-serif;font-size:13;" transform="matrix(1 0 0 1 263 726)">Small</text>
  <text style="stroke:none;fill:black;font-family:sans-serif;font-size:13;" transform="matrix(1 0 0 1 263 1156)">Medium</text>
  <text style="stroke:none;fill:black;font-family:sans-serif;font-size:13;" transform="matrix(1 0 0 1 263 1586)">Large</text>
 </g>
 <g id="Guides">
  <g id="H-reference" style="fill:#27AAE1;stroke:none;" transform="matrix(1 0 0 1 339 696)">
   <path d="M0.993654 0L3.63775 0L29.3281-67.1323L30.0303-67.1323L30.0303-70.459L28.1226-70.459ZM11.6885-24.4799L46.9815-24.4799L46.2315-26.7285L12.4385-26.7285ZM55.1196 0L57.7637 0L30.6382-70.459L29.4326-70.459L29.4326-67.1323Z"/>
  </g>
  <line id="Baseline-S" style="fill:none;stroke:#27AAE1;opacity:1;stroke-width:0.5;" x1="263" x2="3036" y1="696" y2="696"/>
  <line id="Capline-S" style="fill:none;stroke:#27AAE1;opacity:1;stroke-width:0.5;" x1="263" x2="3036" y1="625.541" y2="625.541"/>
  <g id="H-reference" style="fill:#27AAE1;stroke:none;" transform="matrix(1 0 0 1 339 1126)">
   <path d="M0.993654 0L3.63775 0L29.3281-67.1323L30.0303-67.1323L30.0303-70.459L28.1226-70.459ZM11.6885-24.4799L46.9815-24.4799L46.2315-26.7285L12.4385-26.7285ZM55.1196 0L57.7637 0L30.6382-70.459L29.4326-70.459L29.4326-67.1323Z"/>
  </g>
  <line id="Baseline-M" style="fill:none;stroke:#27AAE1;opacity:1;stroke-width:0.5;" x1="263" x2="3036" y1="1126" y2="1126"/>
  <line id="Capline-M" style="fill:none;stroke:#27AAE1;opacity:1;stroke-width:0.5;" x1="263" x2="3036" y1="1055.54" y2="1055.54"/>
  <g id="H-reference" style="fill:#27AAE1;stroke:none;" transform="matrix(1 0 0 1 339 1556)">
   <path d="M0.993654 0L3.63775 0L29.3281-67.1323L30.0303-67.1323L30.0303-70.459L28.1226-70.459ZM11.6885-24.4799L46.9815-24.4799L46.2315-26.7285L12.4385-26.7285ZM55.1196 0L57.7637 0L30.6382-70.459L29.4326-70.459L29.4326-67.1323Z"/>
  </g>
  <line id="Baseline-L" style="fill:none;stroke:#27AAE1;opacity:1;stroke-width:0.5;" x1="263" x2="3036" y1="1556" y2="1556"/>
  <line id="Capline-L" style="fill:none;stroke:#27AAE1;opacity:1;stroke-width:0.5;" x1="263" x2="3036" y1="1485.54" y2="1485.54"/>
  <line id="left-margin-Ultralight-S" style="fill:none;stroke:#00AEEF;stroke-width:0.5;opacity:1.0;" x1="515.649" x2="515.649" y1="600.785" y2="720.121"/>
  <line id="right-margin-Ultralight-S" style="fill:none;stroke:#00AEEF;stroke-width:0.5;opacity:1.0;" x1="603.773" x2="603.773" y1="600.785" y2="720.121"/>
  <line id="left-margin-Regular-S" style="fill:none;stroke:#00AEEF;stroke-width:0.5;opacity:1.0;" x1="1403.58" x2="1403.58" y1="600.785" y2="720.121"/>
  <line id="right-margin-Regular-S" style="fill:none;stroke:#00AEEF;stroke-width:0.5;opacity:1.0;" x1="1496.11" x2="1496.11" y1="600.785" y2="720.121"/>
  <line id="left-margin-Black-S" style="fill:none;stroke:#00AEEF;stroke-width:0.5;opacity:1.0;" x1="2884.57" x2="2884.57" y1="600.785" y2="720.121"/>
  <line id="right-margin-Black-S" style="fill:none;stroke:#00AEEF;stroke-width:0.5;opacity:1.0;" x1="2982.23" x2="2982.23" y1="600.785" y2="720.121"/>
 </g>
 <g id="Symbols">
  <g id="Black-S" transform="matrix(1 0 0 1 2884.57 696)">
   <path class="SFSymbolsPreviewWireframe" d="M48.8281 6.78711C71.9727 6.78711 90.8203-12.0605 90.8203-35.2051C90.8203-58.3496 71.9727-77.1973 48.8281-77.1973C25.6836-77.1973 6.83594-58.3496 6.83594-35.2051C6.83594-12.0605 25.6836 6.78711 48.8281 6.78711ZM54.2969-48.9746C51.5137-48.9746 49.1699-51.3184 49.1699-54.1016C49.1699-56.9336 51.5137-59.1797 54.2969-59.1797C57.1289-59.1797 59.375-56.9336 59.375-54.1016C59.375-51.3184 57.1289-48.9746 54.2969-48.9746ZM46.582-30.127C44.6777-31.25 42.041-32.3242 43.1641-36.2793L44.9219-42.4316C45.0684-42.8711 44.7754-43.1641 44.2871-43.1641L41.6016-42.9688L40.7227-37.0605C40.4785-35.5469 39.502-34.6191 38.1348-34.7656C36.7188-34.9609 35.8887-36.084 36.084-37.6465L37.1094-45.2637C37.3047-46.7285 38.3301-47.5586 39.6973-47.7051L47.2168-48.2422C51.123-48.5352 53.7109-47.4609 55.8105-44.6289L59.3262-39.7949L64.4043-42.041C65.8203-42.627 67.041-42.2363 67.6758-40.9668C68.3105-39.6973 67.7246-38.3789 66.3574-37.7441L59.5215-34.668C58.5449-34.2773 57.2754-34.5215 56.5918-35.5469L54.248-38.9648C53.9551-39.4531 53.4668-39.4043 53.3203-38.8672L51.7578-33.6426L59.5703-28.5645C61.084-27.5879 61.2305-25.4883 60.0098-24.3652L52.6367-18.1152C51.416-17.041 49.9512-17.041 48.9258-18.1152C47.9492-19.1406 48.1934-20.7031 49.3652-21.6797L54.248-25.8789ZM32.1777-11.7676C30.957-12.6953 30.957-14.4043 32.1777-15.5762L39.2578-22.6562L41.6016-30.7617C42.4316-29.834 43.6523-28.8086 45.3125-27.9785L46.4355-27.2949L43.8965-20.6543C43.6035-19.7266 43.4082-19.5312 42.7246-18.8965L35.8398-12.0117C34.7168-10.9375 33.252-10.791 32.1777-11.7676Z"/>
  </g>
  <g id="Regular-S" transform="matrix(1 0 0 1 1403.58 696)">
   <path class="SFSymbolsPreviewWireframe" d="M46.2402 4.15039C67.7734 4.15039 85.6934-13.7207 85.6934-35.2539C85.6934-56.7871 67.7246-74.6582 46.1914-74.6582C24.707-74.6582 6.83594-56.7871 6.83594-35.2539C6.83594-13.7207 24.7559 4.15039 46.2402 4.15039ZM52.9785-51.0742C50.0977-51.0742 47.7539-53.418 47.7539-56.2988C47.7539-59.1797 50.0977-61.5723 52.9785-61.5723C55.8594-61.5723 58.2031-59.1797 58.2031-56.2988C58.2031-53.418 55.8594-51.0742 52.9785-51.0742ZM44.7754-30.3223C42.7734-31.4941 40.1367-32.5684 41.3086-36.6211L43.2129-43.4082C43.457-44.3848 42.7734-44.873 42.041-44.7754L38.7207-44.5312L37.6953-37.6465C37.5-36.1816 36.6211-35.3516 35.2539-35.498C33.8867-35.6445 33.2031-36.6699 33.3984-38.1836L34.4727-46.6797C34.668-48.0469 35.5957-48.9746 36.9629-49.0723L45.3613-49.6582C49.7559-50 52.3926-48.7793 54.541-45.752L58.6426-40.0879L64.6973-42.7246C65.9668-43.3105 67.1387-42.9688 67.7734-41.748C68.3594-40.5273 67.8711-39.3555 66.5039-38.7695L58.9355-35.3516C57.9102-34.9121 56.7383-35.2539 56.1035-36.1816L53.5156-40.0391C53.0273-40.7715 52.002-40.625 51.7578-39.7461L50.0488-33.5938L58.9355-27.7832C60.3027-26.8555 60.498-24.8047 59.3262-23.8281L51.123-16.7969C49.7559-15.625 48.3398-15.918 47.5586-16.748C46.7773-17.627 46.7285-19.043 48.0469-20.166L53.9062-25.1953ZM28.8574-9.66797C27.8809-10.498 27.5879-12.1094 28.9062-13.3789L36.8652-21.3379L39.6973-31.2988C40.5762-30.2246 41.8457-29.1992 43.7012-28.2227L44.4336-27.7832L41.2598-19.4824C40.8691-18.5059 40.7227-18.3594 40.0879-17.6758L32.3242-10.0098C31.1035-8.83789 29.7363-8.93555 28.8574-9.66797Z"/>
  </g>
  <g id="Ultralight-S" transform="matrix(1 0 0 1 515.649 696)">
   <path class="SFSymbolsPreviewWireframe" d="M44.0606 1.97072C64.5039 1.97072 81.2886-14.8105 81.2886-35.2539C81.2886-55.6973 64.5005-72.4785 44.0571-72.4785C23.5718-72.4785 6.83594-55.6973 6.83594-35.2539C6.83594-14.8105 23.5752 1.97072 44.0606 1.97072ZM49.9361-50.0752C47.3277-50.0752 45.211-52.1465 45.211-54.7549C45.211-57.3633 47.3277-59.4834 49.9361-59.4834C52.5445-59.4834 54.6158-57.3633 54.6158-54.7549C54.6158-52.1465 52.5445-50.0752 49.9361-50.0752ZM42.5049-30.8672C40.5938-31.9482 38.3203-32.9316 39.356-36.5303L41.124-42.9087C41.3228-43.749 40.73-44.3281 39.8613-44.2759L36.6319-44.0772L35.6519-37.5557C35.502-36.2271 34.7139-35.5786 33.6192-35.7251C32.3882-35.8262 31.8408-36.6699 31.9907-38.002L33.0195-45.9531C33.1694-47.0933 34.0064-47.8848 35.1465-47.937L42.9546-48.523C46.895-48.7739 49.4409-47.8257 51.4531-45.0254L55.1914-39.5884L60.8828-42.1343C62.0616-42.6294 63.0972-42.3784 63.5503-41.3394C64.0909-40.2095 63.6026-39.1738 62.5078-38.6787L55.439-35.5786C54.5952-35.1846 53.605-35.4355 53.0611-36.2271L50.6094-39.7666C50.0757-40.5898 49.0503-40.4888 48.7608-39.519L47.0972-33.7754L55.439-28.2373C56.5791-27.4004 56.7744-25.6221 55.8296-24.7817L48.2168-18.3408C47.1221-17.4414 45.8877-17.3711 45.0611-18.292C44.3252-19.1255 44.5034-20.3599 45.5493-21.2559L51.1363-26.0127ZM27.7222-11.7114C26.791-12.5415 26.7705-13.9258 27.771-14.9228L35.2305-22.2915L37.9263-32.1162C38.669-31.1328 39.8477-30.1528 41.6123-29.2217L42.1631-28.9639L39.0347-20.7993C38.6441-19.8682 38.543-19.7217 37.9082-19.1289L30.7803-12.0532C29.832-11.063 28.6465-10.979 27.7222-11.7114Z"/>
  </g>
 </g>
</svg>
