<?xml version="1.0" encoding="UTF-8"?>
<!--Generator: Apple Native CoreSVG 232.5-->
<!DOCTYPE svg
PUBLIC "-//W3C//DTD SVG 1.1//EN"
       "http://www.w3.org/Graphics/SVG/1.1/DTD/svg11.dtd">
<svg version="1.1" xmlns="http://www.w3.org/2000/svg" xmlns:xlink="http://www.w3.org/1999/xlink" width="3300" height="2200">
 <!--glyph: "uni10153C.medium", point size: 100.0, font version: "19.2d2e1", template writer version: "128"-->
 <style>.SFSymbolsPreviewWireframe {fill:none;opacity:1.0;stroke:black;stroke-width:0.5}
</style>
 <g id="Notes">
  <rect height="2200" id="artboard" style="fill:white;opacity:1" width="3300" x="0" y="0"/>
  <line style="fill:none;stroke:black;opacity:1;stroke-width:0.5;" x1="263" x2="3036" y1="292" y2="292"/>
  <text style="stroke:none;fill:black;font-family:sans-serif;font-size:13;font-weight:bold;" transform="matrix(1 0 0 1 263 322)">Weight/Scale Variations</text>
  <text style="stroke:none;fill:black;font-family:sans-serif;font-size:13;text-anchor:middle;" transform="matrix(1 0 0 1 559.711 322)">Ultralight</text>
  <text style="stroke:none;fill:black;font-family:sans-serif;font-size:13;text-anchor:middle;" transform="matrix(1 0 0 1 856.422 322)">Thin</text>
  <text style="stroke:none;fill:black;font-family:sans-serif;font-size:13;text-anchor:middle;" transform="matrix(1 0 0 1 1153.13 322)">Light</text>
  <text style="stroke:none;fill:black;font-family:sans-serif;font-size:13;text-anchor:middle;" transform="matrix(1 0 0 1 1449.84 322)">Regular</text>
  <text style="stroke:none;fill:black;font-family:sans-serif;font-size:13;text-anchor:middle;" transform="matrix(1 0 0 1 1746.56 322)">Medium</text>
  <text style="stroke:none;fill:black;font-family:sans-serif;font-size:13;text-anchor:middle;" transform="matrix(1 0 0 1 2043.27 322)">Semibold</text>
  <text style="stroke:none;fill:black;font-family:sans-serif;font-size:13;text-anchor:middle;" transform="matrix(1 0 0 1 2339.98 322)">Bold</text>
  <text style="stroke:none;fill:black;font-family:sans-serif;font-size:13;text-anchor:middle;" transform="matrix(1 0 0 1 2636.69 322)">Heavy</text>
  <text style="stroke:none;fill:black;font-family:sans-serif;font-size:13;text-anchor:middle;" transform="matrix(1 0 0 1 2933.4 322)">Black</text>
  <line style="fill:none;stroke:black;opacity:1;stroke-width:0.5;" x1="263" x2="3036" y1="1903" y2="1903"/>
  <g transform="matrix(0.2 0 0 0.2 263 1933)">
   <path d="m46.2402 4.15039c21.5332 0 39.4531-17.8711 39.4531-39.4043s-17.9688-39.4043-39.502-39.4043c-21.4844 0-39.3555 17.8711-39.3555 39.4043s17.9199 39.4043 39.4043 39.4043Zm0-7.42188c-17.7246 0-31.8848-14.209-31.8848-31.9824s14.1113-31.9824 31.8359-31.9824c17.7734 0 32.0312 14.209 32.0312 31.9824s-14.209 31.9824-31.9824 31.9824Zm-17.9688-31.9824c0 2.14844 1.51367 3.61328 3.75977 3.61328h10.498v10.5957c0 2.19727 1.46484 3.71094 3.61328 3.71094 2.24609 0 3.71094-1.51367 3.71094-3.71094v-10.5957h10.5957c2.19727 0 3.71094-1.46484 3.71094-3.61328 0-2.19727-1.51367-3.71094-3.71094-3.71094h-10.5957v-10.5469c0-2.24609-1.46484-3.75977-3.71094-3.75977-2.14844 0-3.61328 1.51367-3.61328 3.75977v10.5469h-10.498c-2.24609 0-3.75977 1.51367-3.75977 3.71094Z"/>
  </g>
  <g transform="matrix(0.2 0 0 0.2 281.506 1933)">
   <path d="m58.5449 14.5508c27.2461 0 49.8047-22.6074 49.8047-49.8047 0-27.2461-22.6074-49.8047-49.8535-49.8047-27.1973 0-49.7559 22.5586-49.7559 49.8047 0 27.1973 22.6074 49.8047 49.8047 49.8047Zm0-8.30078c-23.0469 0-41.4551-18.457-41.4551-41.5039s18.3594-41.5039 41.4062-41.5039 41.5527 18.457 41.5527 41.5039-18.457 41.5039-41.5039 41.5039Zm-22.6562-41.5039c0 2.39258 1.66016 4.00391 4.15039 4.00391h14.3555v14.4043c0 2.44141 1.66016 4.15039 4.05273 4.15039 2.44141 0 4.15039-1.66016 4.15039-4.15039v-14.4043h14.4043c2.44141 0 4.15039-1.61133 4.15039-4.00391 0-2.44141-1.70898-4.15039-4.15039-4.15039h-14.4043v-14.3555c0-2.49023-1.70898-4.19922-4.15039-4.19922-2.39258 0-4.05273 1.70898-4.05273 4.19922v14.3555h-14.3555c-2.49023 0-4.15039 1.70898-4.15039 4.15039Z"/>
  </g>
  <g transform="matrix(0.2 0 0 0.2 304.924 1933)">
   <path d="m74.8535 28.3203c34.8145 0 63.623-28.8086 63.623-63.5742 0-34.8145-28.8574-63.623-63.6719-63.623-34.7656 0-63.5254 28.8086-63.5254 63.623 0 34.7656 28.8086 63.5742 63.5742 63.5742Zm0-9.08203c-30.1758 0-54.4434-24.3164-54.4434-54.4922 0-30.2246 24.2188-54.4922 54.3945-54.4922 30.2246 0 54.541 24.2676 54.541 54.4922 0 30.1758-24.2676 54.4922-54.4922 54.4922Zm-28.8574-54.4922c0 2.58789 1.85547 4.39453 4.58984 4.39453h19.7266v19.7754c0 2.68555 1.85547 4.58984 4.44336 4.58984 2.68555 0 4.54102-1.85547 4.54102-4.58984v-19.7754h19.7754c2.68555 0 4.58984-1.80664 4.58984-4.39453 0-2.73438-1.85547-4.58984-4.58984-4.58984h-19.7754v-19.7266c0-2.73438-1.85547-4.63867-4.54102-4.63867-2.58789 0-4.44336 1.9043-4.44336 4.63867v19.7266h-19.7266c-2.73438 0-4.58984 1.85547-4.58984 4.58984Z"/>
  </g>
  <text style="stroke:none;fill:black;font-family:sans-serif;font-size:13;font-weight:bold;" transform="matrix(1 0 0 1 263 1953)">Design Variations</text>
  <text style="stroke:none;fill:black;font-family:sans-serif;font-size:13;" transform="matrix(1 0 0 1 263 1971)">Symbols are supported in up to nine weights and three scales.</text>
  <text style="stroke:none;fill:black;font-family:sans-serif;font-size:13;" transform="matrix(1 0 0 1 263 1989)">For optimal layout with text and other symbols, vertically align</text>
  <text style="stroke:none;fill:black;font-family:sans-serif;font-size:13;" transform="matrix(1 0 0 1 263 2007)">symbols with the adjacent text.</text>
  <line style="fill:none;stroke:#00AEEF;stroke-width:0.5;opacity:1.0;" x1="776" x2="776" y1="1919" y2="1933"/>
  <g transform="matrix(0.2 0 0 0.2 776 1933)">
   <path d="m16.5527 0.78125c2.58789 0 3.85742-0.976562 4.78516-3.71094l6.29883-17.2363h28.8086l6.29883 17.2363c0.927734 2.73438 2.19727 3.71094 4.73633 3.71094 2.58789 0 4.24805-1.5625 4.24805-4.00391 0-0.830078-0.146484-1.61133-0.537109-2.63672l-22.9004-60.9863c-1.12305-2.97852-3.125-4.49219-6.25-4.49219-3.02734 0-5.07812 1.46484-6.15234 4.44336l-22.9004 61.084c-0.390625 1.02539-0.537109 1.80664-0.537109 2.63672 0 2.44141 1.5625 3.95508 4.10156 3.95508Zm13.4766-28.3691 11.8652-32.8613h0.244141l11.8652 32.8613Z"/>
  </g>
  <line style="fill:none;stroke:#00AEEF;stroke-width:0.5;opacity:1.0;" x1="792.836" x2="792.836" y1="1919" y2="1933"/>
  <text style="stroke:none;fill:black;font-family:sans-serif;font-size:13;font-weight:bold;" transform="matrix(1 0 0 1 776 1953)">Margins</text>
  <text style="stroke:none;fill:black;font-family:sans-serif;font-size:13;" transform="matrix(1 0 0 1 776 1971)">Leading and trailing margins on the left and right side of each symbol</text>
  <text style="stroke:none;fill:black;font-family:sans-serif;font-size:13;" transform="matrix(1 0 0 1 776 1989)">can be adjusted by modifying the x-location of the margin guidelines.</text>
  <text style="stroke:none;fill:black;font-family:sans-serif;font-size:13;" transform="matrix(1 0 0 1 776 2007)">Modifications are automatically applied proportionally to all</text>
  <text style="stroke:none;fill:black;font-family:sans-serif;font-size:13;" transform="matrix(1 0 0 1 776 2025)">scales and weights.</text>
  <g transform="matrix(0.2 0 0 0.2 1289 1933)">
   <path d="m14.209 9.32617 8.49609 8.54492c4.29688 4.3457 9.22852 4.05273 13.8672-1.07422l53.4668-58.9355-4.83398-4.88281-53.0762 58.3984c-1.75781 2.00195-3.41797 2.49023-5.76172 0.146484l-5.85938-5.81055c-2.34375-2.29492-1.80664-4.00391 0.195312-5.81055l57.373-54.0039-4.88281-4.83398-57.959 54.4434c-4.93164 4.58984-5.32227 9.47266-1.02539 13.8184Zm32.0801-90.9668c-2.09961 2.05078-2.24609 4.93164-1.07422 6.88477 1.17188 1.80664 3.4668 2.97852 6.68945 2.14844 7.32422-1.70898 14.9414-2.00195 22.0703 2.68555l-2.92969 7.27539c-1.70898 4.15039-0.830078 7.08008 1.85547 9.81445l11.4746 11.5723c2.44141 2.44141 4.49219 2.53906 7.32422 2.05078l5.32227-0.976562 3.32031 3.36914-0.195312 2.7832c-0.195312 2.49023 0.439453 4.39453 2.88086 6.78711l3.80859 3.71094c2.39258 2.39258 5.46875 2.53906 7.8125 0.195312l14.5508-14.5996c2.34375-2.34375 2.24609-5.32227-0.146484-7.71484l-3.85742-3.80859c-2.39258-2.39258-4.24805-3.17383-6.64062-2.97852l-2.88086 0.244141-3.22266-3.17383 1.2207-5.61523c0.634766-2.83203-0.146484-5.0293-3.07617-7.95898l-10.9863-10.9375c-16.6992-16.6016-38.8672-16.2109-53.3203-1.75781Zm7.4707 1.85547c12.1582-8.88672 28.6133-7.37305 39.7461 3.75977l12.1582 12.0605c1.17188 1.17188 1.36719 2.09961 1.02539 3.80859l-1.61133 7.42188 7.51953 7.42188 4.93164-0.292969c1.26953-0.0488281 1.66016 0.0488281 2.63672 1.02539l2.88086 2.88086-12.207 12.207-2.88086-2.88086c-0.976562-0.976562-1.12305-1.36719-1.07422-2.68555l0.341797-4.88281-7.4707-7.42188-7.61719 1.26953c-1.61133 0.341797-2.34375 0.195312-3.56445-0.976562l-10.0098-10.0098c-1.26953-1.17188-1.41602-2.00195-0.634766-3.85742l4.39453-10.4492c-7.8125-7.27539-17.9688-10.4004-28.125-7.42188-0.78125 0.195312-1.07422-0.439453-0.439453-0.976562Z"/>
  </g>
  <text style="stroke:none;fill:black;font-family:sans-serif;font-size:13;font-weight:bold;" transform="matrix(1 0 0 1 1289 1953)">Exporting</text>
  <text style="stroke:none;fill:black;font-family:sans-serif;font-size:13;" transform="matrix(1 0 0 1 1289 1971)">Symbols should be outlined when exporting to ensure the</text>
  <text style="stroke:none;fill:black;font-family:sans-serif;font-size:13;" transform="matrix(1 0 0 1 1289 1989)">design is preserved when submitting to Xcode.</text>
  <text id="template-version" style="stroke:none;fill:black;font-family:sans-serif;font-size:13;text-anchor:end;" transform="matrix(1 0 0 1 3036 1933)">Template v.5.0</text>
  <text style="stroke:none;fill:black;font-family:sans-serif;font-size:13;text-anchor:end;" transform="matrix(1 0 0 1 3036 1951)">Requires Xcode 15 or greater</text>
  <text id="descriptive-name" style="stroke:none;fill:black;font-family:sans-serif;font-size:13;text-anchor:end;" transform="matrix(1 0 0 1 3036 1969)">Generated from figure.sailing</text>
  <text style="stroke:none;fill:black;font-family:sans-serif;font-size:13;text-anchor:end;" transform="matrix(1 0 0 1 3036 1987)">Typeset at 100.0 points</text>
  <text style="stroke:none;fill:black;font-family:sans-serif;font-size:13;" transform="matrix(1 0 0 1 263 726)">Small</text>
  <text style="stroke:none;fill:black;font-family:sans-serif;font-size:13;" transform="matrix(1 0 0 1 263 1156)">Medium</text>
  <text style="stroke:none;fill:black;font-family:sans-serif;font-size:13;" transform="matrix(1 0 0 1 263 1586)">Large</text>
 </g>
 <g id="Guides">
  <g id="H-reference" style="fill:#27AAE1;stroke:none;" transform="matrix(1 0 0 1 339 696)">
   <path d="M0.993654 0L3.63775 0L29.3281-67.1323L30.0303-67.1323L30.0303-70.459L28.1226-70.459ZM11.6885-24.4799L46.9815-24.4799L46.2315-26.7285L12.4385-26.7285ZM55.1196 0L57.7637 0L30.6382-70.459L29.4326-70.459L29.4326-67.1323Z"/>
  </g>
  <line id="Baseline-S" style="fill:none;stroke:#27AAE1;opacity:1;stroke-width:0.5;" x1="263" x2="3036" y1="696" y2="696"/>
  <line id="Capline-S" style="fill:none;stroke:#27AAE1;opacity:1;stroke-width:0.5;" x1="263" x2="3036" y1="625.541" y2="625.541"/>
  <g id="H-reference" style="fill:#27AAE1;stroke:none;" transform="matrix(1 0 0 1 339 1126)">
   <path d="M0.993654 0L3.63775 0L29.3281-67.1323L30.0303-67.1323L30.0303-70.459L28.1226-70.459ZM11.6885-24.4799L46.9815-24.4799L46.2315-26.7285L12.4385-26.7285ZM55.1196 0L57.7637 0L30.6382-70.459L29.4326-70.459L29.4326-67.1323Z"/>
  </g>
  <line id="Baseline-M" style="fill:none;stroke:#27AAE1;opacity:1;stroke-width:0.5;" x1="263" x2="3036" y1="1126" y2="1126"/>
  <line id="Capline-M" style="fill:none;stroke:#27AAE1;opacity:1;stroke-width:0.5;" x1="263" x2="3036" y1="1055.54" y2="1055.54"/>
  <g id="H-reference" style="fill:#27AAE1;stroke:none;" transform="matrix(1 0 0 1 339 1556)">
   <path d="M0.993654 0L3.63775 0L29.3281-67.1323L30.0303-67.1323L30.0303-70.459L28.1226-70.459ZM11.6885-24.4799L46.9815-24.4799L46.2315-26.7285L12.4385-26.7285ZM55.1196 0L57.7637 0L30.6382-70.459L29.4326-70.459L29.4326-67.1323Z"/>
  </g>
  <line id="Baseline-L" style="fill:none;stroke:#27AAE1;opacity:1;stroke-width:0.5;" x1="263" x2="3036" y1="1556" y2="1556"/>
  <line id="Capline-L" style="fill:none;stroke:#27AAE1;opacity:1;stroke-width:0.5;" x1="263" x2="3036" y1="1485.54" y2="1485.54"/>
  <line id="left-margin-Ultralight-S" style="fill:none;stroke:#00AEEF;stroke-width:0.5;opacity:1.0;" x1="506.409" x2="506.409" y1="600.785" y2="720.121"/>
  <line id="right-margin-Ultralight-S" style="fill:none;stroke:#00AEEF;stroke-width:0.5;opacity:1.0;" x1="613.013" x2="613.013" y1="600.785" y2="720.121"/>
  <line id="left-margin-Regular-S" style="fill:none;stroke:#00AEEF;stroke-width:0.5;opacity:1.0;" x1="1393.55" x2="1393.55" y1="600.785" y2="720.121"/>
  <line id="right-margin-Regular-S" style="fill:none;stroke:#00AEEF;stroke-width:0.5;opacity:1.0;" x1="1506.14" x2="1506.14" y1="600.785" y2="720.121"/>
  <line id="left-margin-Black-S" style="fill:none;stroke:#00AEEF;stroke-width:0.5;opacity:1.0;" x1="2874.1" x2="2874.1" y1="600.785" y2="720.121"/>
  <line id="right-margin-Black-S" style="fill:none;stroke:#00AEEF;stroke-width:0.5;opacity:1.0;" x1="2992.7" x2="2992.7" y1="600.785" y2="720.121"/>
 </g>
 <g id="Symbols">
  <g id="Black-S" transform="matrix(1 0 0 1 2874.1 696)">
   <path class="SFSymbolsPreviewWireframe" d="M84.2285-37.8906C89.5996-37.8906 93.9941-42.2852 93.9941-47.6562C93.9941-53.0273 89.5996-57.4219 84.2285-57.4219C78.8574-57.4219 74.4629-53.0273 74.4629-47.6562C74.4629-42.2852 78.8574-37.8906 84.2285-37.8906ZM54.7852-4.39453L72.3633-4.39453L88.8184-20.8496C89.5508-21.582 90.5762-21.6309 91.3574-20.8496L97.0215-15.2344L90.625-8.78906C86.084-4.19922 93.0176 2.68555 97.5586-1.9043L107.373-11.7676C109.375-13.8184 109.326-16.748 107.373-18.7012L95.8984-30.1758C93.5059-32.5684 90.2832-33.9844 86.9141-33.9844L56.0059-33.9844L56.0059-24.1211L65.0879-24.1211C65.8203-24.1211 65.8203-23.4863 65.5273-23.1934L54.7852-12.4512ZM15.8691-4.39453L59.3262-4.39453L59.3262-79.9805C59.3262-83.9844 53.6133-85.5957 51.2207-81.2988L12.3047-11.1816C10.3516-7.66602 12.4023-4.39453 15.8691-4.39453ZM23.3887-12.207C22.6074-12.207 22.5098-12.8418 22.8027-13.3789L50.6836-63.4766C50.8789-63.8672 51.5137-63.6719 51.5137-63.2324L51.5137-12.207ZM13.2812 15.0391L17.5293 15.0391C29.248 15.0391 31.2988 8.49609 37.9395 8.49609C44.5801 8.49609 46.6797 15.0391 58.3496 15.0391C70.0684 15.0391 72.168 8.49609 78.7598 8.49609C85.4004 8.49609 87.5 15.0391 99.1699 15.0391L103.467 15.0391C105.42 15.0391 106.982 13.4766 106.982 11.5234C106.982 9.57031 105.42 8.00781 103.467 8.00781L99.1699 8.00781C92.334 8.00781 90.0391 1.46484 78.7598 1.46484C67.5293 1.46484 65.2344 8.00781 58.3496 8.00781C51.4648 8.00781 49.1699 1.46484 37.9395 1.46484C26.709 1.46484 24.4141 8.00781 17.5293 8.00781L13.2812 8.00781C11.3281 8.00781 9.76562 9.57031 9.76562 11.5234C9.76562 13.4766 11.3281 15.0391 13.2812 15.0391Z"/>
  </g>
  <g id="Regular-S" transform="matrix(1 0 0 1 1393.55 696)">
   <path class="SFSymbolsPreviewWireframe" d="M80.1758-35.8887C84.8633-35.8887 88.6719-39.6484 88.6719-44.3848C88.6719-49.0723 84.8633-52.8809 80.1758-52.8809C75.4395-52.8809 71.6797-49.0723 71.6797-44.3848C71.6797-39.6484 75.4395-35.8887 80.1758-35.8887ZM53.0273-5.51758L68.457-5.51758L84.375-21.4355C85.1562-22.2168 86.4258-22.2168 87.207-21.4355L93.7012-14.9414L86.9629-8.1543C83.4473-4.63867 88.7695 0.634766 92.2363-2.83203L101.66-12.2559C103.223-13.8184 103.174-16.1133 101.66-17.627L90.7227-28.5645C88.5742-30.7129 85.7422-31.9336 82.7148-31.9336L54.1504-31.9336L54.1504-24.3652L63.6719-24.3652C64.3066-24.3652 64.6484-23.6328 64.1602-23.1445L53.0273-11.9629ZM14.7949-5.51758L55.4199-5.51758L55.4199-76.8555C55.4199-79.7363 51.2695-81.0059 49.4141-77.6855L12.1582-10.5957C10.6445-7.91016 12.1582-5.51758 14.7949-5.51758ZM18.0176-10.2539C17.7246-10.2539 17.5781-10.5469 17.7246-10.7422L50-68.8965C50.1953-69.2383 50.7324-69.1895 50.7324-68.75L50.7324-10.2539ZM12.1094 10.4492L16.1621 10.4492C26.6113 10.4492 28.8574 4.15039 35.791 4.15039C42.7734 4.15039 45.0195 10.4492 55.4199 10.4492C65.8691 10.4492 68.1152 4.15039 75.0488 4.15039C82.0312 4.15039 84.2773 10.4492 94.6777 10.4492L98.7305 10.4492C100.049 10.4492 101.123 9.42383 101.123 8.05664C101.123 6.73828 100.049 5.71289 98.7305 5.71289L94.6777 5.71289C87.5 5.71289 85.0586-0.585938 75.0488-0.585938C65.0879-0.585938 62.6465 5.71289 55.4199 5.71289C48.2422 5.71289 45.8008-0.585938 35.791-0.585938C25.8301-0.585938 23.3887 5.71289 16.1621 5.71289L12.1094 5.71289C10.791 5.71289 9.76562 6.73828 9.76562 8.05664C9.76562 9.42383 10.791 10.4492 12.1094 10.4492Z"/>
  </g>
  <g id="Ultralight-S" transform="matrix(1 0 0 1 506.409 696)">
   <path class="SFSymbolsPreviewWireframe" d="M75.771-36.3882C80.0498-36.3882 83.4952-39.8755 83.4952-44.1577C83.4952-48.4365 80.0498-51.8818 75.771-51.8818C71.4888-51.8818 68.0015-48.4365 68.0015-44.1577C68.0015-39.8755 71.4888-36.3882 75.771-36.3882ZM51.8467-8.01512L65.0967-8.01512L79.607-22.5254C80.3428-23.2158 81.4761-23.1704 82.1665-22.5254L88.0704-16.5762L81.9678-10.3794C78.8155-7.18162 83.5928-2.36228 86.7417-5.55662L95.3482-14.1631C96.7745-15.5893 96.7256-17.6572 95.3482-19.0347L85.3189-28.9731C83.3975-30.8945 80.8379-32.0244 78.1285-32.0244L52.1069-32.0244L52.1069-25.1372L60.7656-25.1372C61.4004-25.1372 61.6968-24.4956 61.2539-24.0527L51.8467-14.6875ZM16.3389-8.01512L53.2857-8.01512L53.2857-72.9048C53.2857-75.5132 49.4531-76.6465 47.7793-73.6441L13.9292-12.6391C12.5517-10.1806 13.9292-8.01512 16.3389-8.01512ZM16.7461-10.1177C15.6358-10.1177 15.4439-11.0918 15.8174-11.7412L49.4097-72.2568C50.0137-73.3706 51.1865-73.0039 51.1865-72.1103L51.1865-10.1177ZM10.7925 6.1807L13.9824 6.1807C23.251 6.1807 26.042-0.11813 33.6113-0.11813C41.1841-0.11813 43.9297 6.1807 53.2403 6.1807C62.5088 6.1807 65.2998-0.11813 72.8692-0.11813C80.4419-0.11813 83.1875 6.1807 92.4981 6.1807L95.688 6.1807C96.2344 6.1807 96.7183 5.70022 96.7183 5.15041C96.7183 4.55861 96.2344 4.07814 95.688 4.07814L92.4981 4.07814C84.5938 4.07814 81.7891-2.22069 72.8692-2.22069C63.9072-2.22069 61.148 4.07814 53.2403 4.07814C45.336 4.07814 42.5313-2.22069 33.6113-2.22069C24.6494-2.22069 21.8901 4.07814 13.9824 4.07814L10.7925 4.07814C10.2461 4.07814 9.76562 4.55861 9.76562 5.15041C9.76562 5.70022 10.2461 6.1807 10.7925 6.1807Z"/>
  </g>
 </g>
</svg>
