<?xml version="1.0" encoding="UTF-8"?>
<!--Generator: Apple Native CoreSVG 232.5-->
<!DOCTYPE svg
PUBLIC "-//W3C//DTD SVG 1.1//EN"
       "http://www.w3.org/Graphics/SVG/1.1/DTD/svg11.dtd">
<svg version="1.1" xmlns="http://www.w3.org/2000/svg" xmlns:xlink="http://www.w3.org/1999/xlink" width="3300" height="2200">
 <!--glyph: "uni101439.medium", point size: 100.0, font version: "19.2d2e1", template writer version: "128"-->
 <style>.SFSymbolsPreviewWireframe {fill:none;opacity:1.0;stroke:black;stroke-width:0.5}
</style>
 <g id="Notes">
  <rect height="2200" id="artboard" style="fill:white;opacity:1" width="3300" x="0" y="0"/>
  <line style="fill:none;stroke:black;opacity:1;stroke-width:0.5;" x1="263" x2="3036" y1="292" y2="292"/>
  <text style="stroke:none;fill:black;font-family:sans-serif;font-size:13;font-weight:bold;" transform="matrix(1 0 0 1 263 322)">Weight/Scale Variations</text>
  <text style="stroke:none;fill:black;font-family:sans-serif;font-size:13;text-anchor:middle;" transform="matrix(1 0 0 1 559.711 322)">Ultralight</text>
  <text style="stroke:none;fill:black;font-family:sans-serif;font-size:13;text-anchor:middle;" transform="matrix(1 0 0 1 856.422 322)">Thin</text>
  <text style="stroke:none;fill:black;font-family:sans-serif;font-size:13;text-anchor:middle;" transform="matrix(1 0 0 1 1153.13 322)">Light</text>
  <text style="stroke:none;fill:black;font-family:sans-serif;font-size:13;text-anchor:middle;" transform="matrix(1 0 0 1 1449.84 322)">Regular</text>
  <text style="stroke:none;fill:black;font-family:sans-serif;font-size:13;text-anchor:middle;" transform="matrix(1 0 0 1 1746.56 322)">Medium</text>
  <text style="stroke:none;fill:black;font-family:sans-serif;font-size:13;text-anchor:middle;" transform="matrix(1 0 0 1 2043.27 322)">Semibold</text>
  <text style="stroke:none;fill:black;font-family:sans-serif;font-size:13;text-anchor:middle;" transform="matrix(1 0 0 1 2339.98 322)">Bold</text>
  <text style="stroke:none;fill:black;font-family:sans-serif;font-size:13;text-anchor:middle;" transform="matrix(1 0 0 1 2636.69 322)">Heavy</text>
  <text style="stroke:none;fill:black;font-family:sans-serif;font-size:13;text-anchor:middle;" transform="matrix(1 0 0 1 2933.4 322)">Black</text>
  <line style="fill:none;stroke:black;opacity:1;stroke-width:0.5;" x1="263" x2="3036" y1="1903" y2="1903"/>
  <g transform="matrix(0.2 0 0 0.2 263 1933)">
   <path d="m46.2402 4.15039c21.5332 0 39.4531-17.8711 39.4531-39.4043s-17.9688-39.4043-39.502-39.4043c-21.4844 0-39.3555 17.8711-39.3555 39.4043s17.9199 39.4043 39.4043 39.4043Zm0-7.42188c-17.7246 0-31.8848-14.209-31.8848-31.9824s14.1113-31.9824 31.8359-31.9824c17.7734 0 32.0312 14.209 32.0312 31.9824s-14.209 31.9824-31.9824 31.9824Zm-17.9688-31.9824c0 2.14844 1.51367 3.61328 3.75977 3.61328h10.498v10.5957c0 2.19727 1.46484 3.71094 3.61328 3.71094 2.24609 0 3.71094-1.51367 3.71094-3.71094v-10.5957h10.5957c2.19727 0 3.71094-1.46484 3.71094-3.61328 0-2.19727-1.51367-3.71094-3.71094-3.71094h-10.5957v-10.5469c0-2.24609-1.46484-3.75977-3.71094-3.75977-2.14844 0-3.61328 1.51367-3.61328 3.75977v10.5469h-10.498c-2.24609 0-3.75977 1.51367-3.75977 3.71094Z"/>
  </g>
  <g transform="matrix(0.2 0 0 0.2 281.506 1933)">
   <path d="m58.5449 14.5508c27.2461 0 49.8047-22.6074 49.8047-49.8047 0-27.2461-22.6074-49.8047-49.8535-49.8047-27.1973 0-49.7559 22.5586-49.7559 49.8047 0 27.1973 22.6074 49.8047 49.8047 49.8047Zm0-8.30078c-23.0469 0-41.4551-18.457-41.4551-41.5039s18.3594-41.5039 41.4062-41.5039 41.5527 18.457 41.5527 41.5039-18.457 41.5039-41.5039 41.5039Zm-22.6562-41.5039c0 2.39258 1.66016 4.00391 4.15039 4.00391h14.3555v14.4043c0 2.44141 1.66016 4.15039 4.05273 4.15039 2.44141 0 4.15039-1.66016 4.15039-4.15039v-14.4043h14.4043c2.44141 0 4.15039-1.61133 4.15039-4.00391 0-2.44141-1.70898-4.15039-4.15039-4.15039h-14.4043v-14.3555c0-2.49023-1.70898-4.19922-4.15039-4.19922-2.39258 0-4.05273 1.70898-4.05273 4.19922v14.3555h-14.3555c-2.49023 0-4.15039 1.70898-4.15039 4.15039Z"/>
  </g>
  <g transform="matrix(0.2 0 0 0.2 304.924 1933)">
   <path d="m74.8535 28.3203c34.8145 0 63.623-28.8086 63.623-63.5742 0-34.8145-28.8574-63.623-63.6719-63.623-34.7656 0-63.5254 28.8086-63.5254 63.623 0 34.7656 28.8086 63.5742 63.5742 63.5742Zm0-9.08203c-30.1758 0-54.4434-24.3164-54.4434-54.4922 0-30.2246 24.2188-54.4922 54.3945-54.4922 30.2246 0 54.541 24.2676 54.541 54.4922 0 30.1758-24.2676 54.4922-54.4922 54.4922Zm-28.8574-54.4922c0 2.58789 1.85547 4.39453 4.58984 4.39453h19.7266v19.7754c0 2.68555 1.85547 4.58984 4.44336 4.58984 2.68555 0 4.54102-1.85547 4.54102-4.58984v-19.7754h19.7754c2.68555 0 4.58984-1.80664 4.58984-4.39453 0-2.73438-1.85547-4.58984-4.58984-4.58984h-19.7754v-19.7266c0-2.73438-1.85547-4.63867-4.54102-4.63867-2.58789 0-4.44336 1.9043-4.44336 4.63867v19.7266h-19.7266c-2.73438 0-4.58984 1.85547-4.58984 4.58984Z"/>
  </g>
  <text style="stroke:none;fill:black;font-family:sans-serif;font-size:13;font-weight:bold;" transform="matrix(1 0 0 1 263 1953)">Design Variations</text>
  <text style="stroke:none;fill:black;font-family:sans-serif;font-size:13;" transform="matrix(1 0 0 1 263 1971)">Symbols are supported in up to nine weights and three scales.</text>
  <text style="stroke:none;fill:black;font-family:sans-serif;font-size:13;" transform="matrix(1 0 0 1 263 1989)">For optimal layout with text and other symbols, vertically align</text>
  <text style="stroke:none;fill:black;font-family:sans-serif;font-size:13;" transform="matrix(1 0 0 1 263 2007)">symbols with the adjacent text.</text>
  <line style="fill:none;stroke:#00AEEF;stroke-width:0.5;opacity:1.0;" x1="776" x2="776" y1="1919" y2="1933"/>
  <g transform="matrix(0.2 0 0 0.2 776 1933)">
   <path d="m16.5527 0.78125c2.58789 0 3.85742-0.976562 4.78516-3.71094l6.29883-17.2363h28.8086l6.29883 17.2363c0.927734 2.73438 2.19727 3.71094 4.73633 3.71094 2.58789 0 4.24805-1.5625 4.24805-4.00391 0-0.830078-0.146484-1.61133-0.537109-2.63672l-22.9004-60.9863c-1.12305-2.97852-3.125-4.49219-6.25-4.49219-3.02734 0-5.07812 1.46484-6.15234 4.44336l-22.9004 61.084c-0.390625 1.02539-0.537109 1.80664-0.537109 2.63672 0 2.44141 1.5625 3.95508 4.10156 3.95508Zm13.4766-28.3691 11.8652-32.8613h0.244141l11.8652 32.8613Z"/>
  </g>
  <line style="fill:none;stroke:#00AEEF;stroke-width:0.5;opacity:1.0;" x1="792.836" x2="792.836" y1="1919" y2="1933"/>
  <text style="stroke:none;fill:black;font-family:sans-serif;font-size:13;font-weight:bold;" transform="matrix(1 0 0 1 776 1953)">Margins</text>
  <text style="stroke:none;fill:black;font-family:sans-serif;font-size:13;" transform="matrix(1 0 0 1 776 1971)">Leading and trailing margins on the left and right side of each symbol</text>
  <text style="stroke:none;fill:black;font-family:sans-serif;font-size:13;" transform="matrix(1 0 0 1 776 1989)">can be adjusted by modifying the x-location of the margin guidelines.</text>
  <text style="stroke:none;fill:black;font-family:sans-serif;font-size:13;" transform="matrix(1 0 0 1 776 2007)">Modifications are automatically applied proportionally to all</text>
  <text style="stroke:none;fill:black;font-family:sans-serif;font-size:13;" transform="matrix(1 0 0 1 776 2025)">scales and weights.</text>
  <g transform="matrix(0.2 0 0 0.2 1289 1933)">
   <path d="m14.209 9.32617 8.49609 8.54492c4.29688 4.3457 9.22852 4.05273 13.8672-1.07422l53.4668-58.9355-4.83398-4.88281-53.0762 58.3984c-1.75781 2.00195-3.41797 2.49023-5.76172 0.146484l-5.85938-5.81055c-2.34375-2.29492-1.80664-4.00391 0.195312-5.81055l57.373-54.0039-4.88281-4.83398-57.959 54.4434c-4.93164 4.58984-5.32227 9.47266-1.02539 13.8184Zm32.0801-90.9668c-2.09961 2.05078-2.24609 4.93164-1.07422 6.88477 1.17188 1.80664 3.4668 2.97852 6.68945 2.14844 7.32422-1.70898 14.9414-2.00195 22.0703 2.68555l-2.92969 7.27539c-1.70898 4.15039-0.830078 7.08008 1.85547 9.81445l11.4746 11.5723c2.44141 2.44141 4.49219 2.53906 7.32422 2.05078l5.32227-0.976562 3.32031 3.36914-0.195312 2.7832c-0.195312 2.49023 0.439453 4.39453 2.88086 6.78711l3.80859 3.71094c2.39258 2.39258 5.46875 2.53906 7.8125 0.195312l14.5508-14.5996c2.34375-2.34375 2.24609-5.32227-0.146484-7.71484l-3.85742-3.80859c-2.39258-2.39258-4.24805-3.17383-6.64062-2.97852l-2.88086 0.244141-3.22266-3.17383 1.2207-5.61523c0.634766-2.83203-0.146484-5.0293-3.07617-7.95898l-10.9863-10.9375c-16.6992-16.6016-38.8672-16.2109-53.3203-1.75781Zm7.4707 1.85547c12.1582-8.88672 28.6133-7.37305 39.7461 3.75977l12.1582 12.0605c1.17188 1.17188 1.36719 2.09961 1.02539 3.80859l-1.61133 7.42188 7.51953 7.42188 4.93164-0.292969c1.26953-0.0488281 1.66016 0.0488281 2.63672 1.02539l2.88086 2.88086-12.207 12.207-2.88086-2.88086c-0.976562-0.976562-1.12305-1.36719-1.07422-2.68555l0.341797-4.88281-7.4707-7.42188-7.61719 1.26953c-1.61133 0.341797-2.34375 0.195312-3.56445-0.976562l-10.0098-10.0098c-1.26953-1.17188-1.41602-2.00195-0.634766-3.85742l4.39453-10.4492c-7.8125-7.27539-17.9688-10.4004-28.125-7.42188-0.78125 0.195312-1.07422-0.439453-0.439453-0.976562Z"/>
  </g>
  <text style="stroke:none;fill:black;font-family:sans-serif;font-size:13;font-weight:bold;" transform="matrix(1 0 0 1 1289 1953)">Exporting</text>
  <text style="stroke:none;fill:black;font-family:sans-serif;font-size:13;" transform="matrix(1 0 0 1 1289 1971)">Symbols should be outlined when exporting to ensure the</text>
  <text style="stroke:none;fill:black;font-family:sans-serif;font-size:13;" transform="matrix(1 0 0 1 1289 1989)">design is preserved when submitting to Xcode.</text>
  <text id="template-version" style="stroke:none;fill:black;font-family:sans-serif;font-size:13;text-anchor:end;" transform="matrix(1 0 0 1 3036 1933)">Template v.5.0</text>
  <text style="stroke:none;fill:black;font-family:sans-serif;font-size:13;text-anchor:end;" transform="matrix(1 0 0 1 3036 1951)">Requires Xcode 15 or greater</text>
  <text id="descriptive-name" style="stroke:none;fill:black;font-family:sans-serif;font-size:13;text-anchor:end;" transform="matrix(1 0 0 1 3036 1969)">Generated from fireplace.fill</text>
  <text style="stroke:none;fill:black;font-family:sans-serif;font-size:13;text-anchor:end;" transform="matrix(1 0 0 1 3036 1987)">Typeset at 100.0 points</text>
  <text style="stroke:none;fill:black;font-family:sans-serif;font-size:13;" transform="matrix(1 0 0 1 263 726)">Small</text>
  <text style="stroke:none;fill:black;font-family:sans-serif;font-size:13;" transform="matrix(1 0 0 1 263 1156)">Medium</text>
  <text style="stroke:none;fill:black;font-family:sans-serif;font-size:13;" transform="matrix(1 0 0 1 263 1586)">Large</text>
 </g>
 <g id="Guides">
  <g id="H-reference" style="fill:#27AAE1;stroke:none;" transform="matrix(1 0 0 1 339 696)">
   <path d="M0.993654 0L3.63775 0L29.3281-67.1323L30.0303-67.1323L30.0303-70.459L28.1226-70.459ZM11.6885-24.4799L46.9815-24.4799L46.2315-26.7285L12.4385-26.7285ZM55.1196 0L57.7637 0L30.6382-70.459L29.4326-70.459L29.4326-67.1323Z"/>
  </g>
  <line id="Baseline-S" style="fill:none;stroke:#27AAE1;opacity:1;stroke-width:0.5;" x1="263" x2="3036" y1="696" y2="696"/>
  <line id="Capline-S" style="fill:none;stroke:#27AAE1;opacity:1;stroke-width:0.5;" x1="263" x2="3036" y1="625.541" y2="625.541"/>
  <g id="H-reference" style="fill:#27AAE1;stroke:none;" transform="matrix(1 0 0 1 339 1126)">
   <path d="M0.993654 0L3.63775 0L29.3281-67.1323L30.0303-67.1323L30.0303-70.459L28.1226-70.459ZM11.6885-24.4799L46.9815-24.4799L46.2315-26.7285L12.4385-26.7285ZM55.1196 0L57.7637 0L30.6382-70.459L29.4326-70.459L29.4326-67.1323Z"/>
  </g>
  <line id="Baseline-M" style="fill:none;stroke:#27AAE1;opacity:1;stroke-width:0.5;" x1="263" x2="3036" y1="1126" y2="1126"/>
  <line id="Capline-M" style="fill:none;stroke:#27AAE1;opacity:1;stroke-width:0.5;" x1="263" x2="3036" y1="1055.54" y2="1055.54"/>
  <g id="H-reference" style="fill:#27AAE1;stroke:none;" transform="matrix(1 0 0 1 339 1556)">
   <path d="M0.993654 0L3.63775 0L29.3281-67.1323L30.0303-67.1323L30.0303-70.459L28.1226-70.459ZM11.6885-24.4799L46.9815-24.4799L46.2315-26.7285L12.4385-26.7285ZM55.1196 0L57.7637 0L30.6382-70.459L29.4326-70.459L29.4326-67.1323Z"/>
  </g>
  <line id="Baseline-L" style="fill:none;stroke:#27AAE1;opacity:1;stroke-width:0.5;" x1="263" x2="3036" y1="1556" y2="1556"/>
  <line id="Capline-L" style="fill:none;stroke:#27AAE1;opacity:1;stroke-width:0.5;" x1="263" x2="3036" y1="1485.54" y2="1485.54"/>
  <line id="left-margin-Ultralight-S" style="fill:none;stroke:#00AEEF;stroke-width:0.5;opacity:1.0;" x1="511.519" x2="511.519" y1="600.785" y2="720.121"/>
  <line id="right-margin-Ultralight-S" style="fill:none;stroke:#00AEEF;stroke-width:0.5;opacity:1.0;" x1="607.903" x2="607.903" y1="600.785" y2="720.121"/>
  <line id="left-margin-Regular-S" style="fill:none;stroke:#00AEEF;stroke-width:0.5;opacity:1.0;" x1="1395.18" x2="1395.18" y1="600.785" y2="720.121"/>
  <line id="right-margin-Regular-S" style="fill:none;stroke:#00AEEF;stroke-width:0.5;opacity:1.0;" x1="1504.51" x2="1504.51" y1="600.785" y2="720.121"/>
  <line id="left-margin-Black-S" style="fill:none;stroke:#00AEEF;stroke-width:0.5;opacity:1.0;" x1="2869.56" x2="2869.56" y1="600.785" y2="720.121"/>
  <line id="right-margin-Black-S" style="fill:none;stroke:#00AEEF;stroke-width:0.5;opacity:1.0;" x1="2997.24" x2="2997.24" y1="600.785" y2="720.121"/>
 </g>
 <g id="Symbols">
  <g id="Black-S" transform="matrix(1 0 0 1 2869.56 696)">
   <path class="SFSymbolsPreviewWireframe" d="M16.5039-58.9355L111.23-58.9355C114.893-58.9355 117.48-61.5234 117.48-65.1855L117.48-76.9531C117.48-80.6152 114.893-83.1543 111.23-83.1543L16.5039-83.1543C12.8418-83.1543 10.2539-80.6152 10.2539-76.9531L10.2539-65.1855C10.2539-61.5234 12.8418-58.9355 16.5039-58.9355ZM20.8984 2.14844L106.787 2.14844L106.787-53.0762L20.8984-53.0762ZM38.8184-1.51367L38.8184-40.1367C38.8184-43.4082 40.9668-45.5078 44.2383-45.5078L83.4473-45.5078C86.7188-45.5078 88.8672-43.4082 88.8672-40.1367L88.8672-1.51367L80.8105-1.51367L80.8105-35.9375C80.8105-36.9141 80.1758-37.5488 79.1992-37.5488L48.4863-37.5488C47.5098-37.5488 46.875-36.9141 46.875-35.9375L46.875-1.51367ZM63.3789-3.71094C57.2754-3.71094 53.125-7.32422 53.125-12.7441C53.125-17.4805 55.2734-19.2871 55.2734-22.4609C55.2734-22.9492 55.2734-23.584 55.2734-23.877C55.2734-24.4629 55.6641-24.8047 56.25-24.8047C57.4707-24.8047 58.7402-23.8281 59.5215-22.4121C59.4727-25.6836 57.9102-27.7344 56.4453-29.5898C55.4199-31.0059 56.2988-32.1289 58.252-32.1289C65.0391-32.1289 75.0488-27.2461 75.0488-15.4785C75.0488-8.44727 70.459-3.71094 63.3789-3.71094ZM63.8184-7.37305C66.9922-7.37305 68.5059-9.7168 68.5059-12.3535C68.5059-15.918 65.8691-18.7012 63.8672-19.3359C64.3555-16.748 63.8184-14.9414 63.0859-13.916C62.6953-14.8926 62.3047-15.5273 61.5723-16.0156C61.3281-14.3555 59.6191-13.4766 59.6191-11.1328C59.6191-8.83789 61.3281-7.37305 63.8184-7.37305ZM16.8457 12.6465L110.84 12.6465C114.746 12.6465 117.92 9.47266 117.92 5.56641C117.92 1.66016 114.746-1.51367 110.84-1.51367L16.8457-1.51367C12.9395-1.51367 9.76562 1.66016 9.76562 5.56641C9.76562 9.47266 12.9395 12.6465 16.8457 12.6465Z"/>
  </g>
  <g id="Regular-S" transform="matrix(1 0 0 1 1395.18 696)">
   <path class="SFSymbolsPreviewWireframe" d="M14.0137-57.8125L95.3613-57.8125C97.8516-57.8125 99.5605-59.5703 99.5605-62.0605L99.5605-70.8008C99.5605-73.291 97.8516-75 95.3613-75L14.0137-75C11.4746-75 9.76562-73.291 9.76562-70.8008L9.76562-62.0605C9.76562-59.5703 11.4746-57.8125 14.0137-57.8125ZM18.8965 0.78125L90.4785 0.78125L90.4785-53.0273L18.8965-53.0273ZM31.9336-2.73438L31.9336-39.9414C31.9336-43.2129 34.082-45.3125 37.3535-45.3125L72.0215-45.3125C75.293-45.3125 77.3926-43.2129 77.3926-39.9414L77.3926-2.73438L71.9727-2.73438L71.9727-38.2324C71.9727-39.2578 71.3379-39.9414 70.3125-39.9414L39.0625-39.9414C38.0371-39.9414 37.3535-39.2578 37.3535-38.2324L37.3535-2.73438ZM54.1992-6.64062C48.4375-6.64062 44.5801-10.0098 44.5801-15.1367C44.5801-19.5312 46.582-21.2402 46.582-24.2676C46.582-24.6582 46.582-25.2441 46.582-25.5371C46.582-26.0742 46.9238-26.416 47.4609-26.416C48.584-26.416 49.8535-25.4883 50.5371-24.1211C50.5371-27.1973 49.0723-29.1992 47.7051-31.0059C46.7773-32.2266 47.5098-33.3008 49.3164-33.3008C55.7129-33.3008 65.0879-28.7109 65.0879-17.627C65.0879-11.084 60.791-6.64062 54.1992-6.64062ZM54.5898-10.1074C57.5684-10.1074 58.9844-12.2559 58.9844-14.7461C58.9844-18.0176 56.543-20.6055 54.6875-21.2402C55.0781-18.8477 54.5898-17.1875 53.9062-16.2109C53.5645-17.0898 53.1738-17.7246 52.5391-18.1641C52.2949-16.6016 50.6836-15.8203 50.6836-13.623C50.6836-11.4746 52.2949-10.1074 54.5898-10.1074ZM13.3301 4.3457L96.0449 4.3457C97.9492 4.3457 99.5605 2.73438 99.5605 0.78125C99.5605-1.12305 97.9492-2.73438 96.0449-2.73438L13.3301-2.73438C11.377-2.73438 9.81445-1.12305 9.81445 0.78125C9.81445 2.73438 11.377 4.3457 13.3301 4.3457Z"/>
  </g>
  <g id="Ultralight-S" transform="matrix(1 0 0 1 511.519 696)">
   <path class="SFSymbolsPreviewWireframe" d="M13.0147-53.8618L83.3731-53.8618C85.3639-53.8618 86.6188-55.1202 86.6188-57.1563L86.6188-64.4888C86.6188-66.525 85.3639-67.7798 83.3731-67.7798L13.0147-67.7798C11.0205-67.7798 9.76562-66.525 9.76562-64.4888L9.76562-57.1563C9.76562-55.1202 11.0205-53.8618 13.0147-53.8618ZM17.1709-4.35006L79.2169-4.35006L79.2169-50.8477L17.1709-50.8477ZM27.9829-4.95946L27.9829-40.895C27.9829-44.3027 29.8589-46.1753 33.1304-46.1753L63.2574-46.1753C66.5289-46.1753 68.4014-44.3027 68.4014-40.895L68.4014-4.95946L66.251-4.95946L66.251-40.9116C66.251-42.936 65.1622-44.0737 63.274-44.0737L33.1138-44.0737C31.2256-44.0737 30.1334-42.936 30.1334-40.9116L30.1334-4.95946ZM48.1143-8.59325C41.7623-8.59325 37.7232-12.0532 37.7232-17.4526C37.7232-22.1196 40.0884-23.5561 40.0884-27.31C40.0884-27.9731 39.9522-28.7861 39.9522-29.1699C39.9522-29.4345 40.1124-29.5039 40.377-29.5039C41.3184-29.5039 43.1329-28.4853 43.9073-26.8911C44.5884-29.831 43.4869-32.9682 41.0752-35.8647C40.5108-36.5405 40.9253-37.2968 41.96-37.2968C49.4463-37.2968 59.5025-32.2529 59.5025-20.397C59.5025-13.2637 54.9332-8.59325 48.1143-8.59325ZM48.3687-12.4687C51.3018-12.4687 52.7178-14.6172 52.7178-17.062C52.7178-19.5615 51.1846-22.1494 48.4209-23.5107C48.8116-21.6631 48.5958-19.7759 47.8213-18.5268C47.5249-19.2241 46.9073-19.9951 46.3179-20.3891C46.0284-18.8721 44.5079-18.0908 44.5079-15.9389C44.5079-13.8813 46.0284-12.4687 48.3687-12.4687ZM11.4229-2.73823L85.0103-2.73823C85.5978-2.73823 86.1192-3.25972 86.1192-3.85055C86.1192-4.48337 85.5978-4.95946 85.0103-4.95946L11.4229-4.95946C10.832-4.95946 10.314-4.48337 10.314-3.85055C10.314-3.25972 10.832-2.73823 11.4229-2.73823Z"/>
  </g>
 </g>
</svg>
