<?xml version="1.0" encoding="UTF-8"?>
<!--Generator: Apple Native CoreSVG 232.5-->
<!DOCTYPE svg
PUBLIC "-//W3C//DTD SVG 1.1//EN"
       "http://www.w3.org/Graphics/SVG/1.1/DTD/svg11.dtd">
<svg version="1.1" xmlns="http://www.w3.org/2000/svg" xmlns:xlink="http://www.w3.org/1999/xlink" width="3300" height="2200">
 <!--glyph: "uni101A61.medium", point size: 100.0, font version: "19.2d2e1", template writer version: "128"-->
 <style>.SFSymbolsPreviewWireframe {fill:none;opacity:1.0;stroke:black;stroke-width:0.5}
</style>
 <g id="Notes">
  <rect height="2200" id="artboard" style="fill:white;opacity:1" width="3300" x="0" y="0"/>
  <line style="fill:none;stroke:black;opacity:1;stroke-width:0.5;" x1="263" x2="3036" y1="292" y2="292"/>
  <text style="stroke:none;fill:black;font-family:sans-serif;font-size:13;font-weight:bold;" transform="matrix(1 0 0 1 263 322)">Weight/Scale Variations</text>
  <text style="stroke:none;fill:black;font-family:sans-serif;font-size:13;text-anchor:middle;" transform="matrix(1 0 0 1 559.711 322)">Ultralight</text>
  <text style="stroke:none;fill:black;font-family:sans-serif;font-size:13;text-anchor:middle;" transform="matrix(1 0 0 1 856.422 322)">Thin</text>
  <text style="stroke:none;fill:black;font-family:sans-serif;font-size:13;text-anchor:middle;" transform="matrix(1 0 0 1 1153.13 322)">Light</text>
  <text style="stroke:none;fill:black;font-family:sans-serif;font-size:13;text-anchor:middle;" transform="matrix(1 0 0 1 1449.84 322)">Regular</text>
  <text style="stroke:none;fill:black;font-family:sans-serif;font-size:13;text-anchor:middle;" transform="matrix(1 0 0 1 1746.56 322)">Medium</text>
  <text style="stroke:none;fill:black;font-family:sans-serif;font-size:13;text-anchor:middle;" transform="matrix(1 0 0 1 2043.27 322)">Semibold</text>
  <text style="stroke:none;fill:black;font-family:sans-serif;font-size:13;text-anchor:middle;" transform="matrix(1 0 0 1 2339.98 322)">Bold</text>
  <text style="stroke:none;fill:black;font-family:sans-serif;font-size:13;text-anchor:middle;" transform="matrix(1 0 0 1 2636.69 322)">Heavy</text>
  <text style="stroke:none;fill:black;font-family:sans-serif;font-size:13;text-anchor:middle;" transform="matrix(1 0 0 1 2933.4 322)">Black</text>
  <line style="fill:none;stroke:black;opacity:1;stroke-width:0.5;" x1="263" x2="3036" y1="1903" y2="1903"/>
  <g transform="matrix(0.2 0 0 0.2 263 1933)">
   <path d="m46.2402 4.15039c21.5332 0 39.4531-17.8711 39.4531-39.4043s-17.9688-39.4043-39.502-39.4043c-21.4844 0-39.3555 17.8711-39.3555 39.4043s17.9199 39.4043 39.4043 39.4043Zm0-7.42188c-17.7246 0-31.8848-14.209-31.8848-31.9824s14.1113-31.9824 31.8359-31.9824c17.7734 0 32.0312 14.209 32.0312 31.9824s-14.209 31.9824-31.9824 31.9824Zm-17.9688-31.9824c0 2.14844 1.51367 3.61328 3.75977 3.61328h10.498v10.5957c0 2.19727 1.46484 3.71094 3.61328 3.71094 2.24609 0 3.71094-1.51367 3.71094-3.71094v-10.5957h10.5957c2.19727 0 3.71094-1.46484 3.71094-3.61328 0-2.19727-1.51367-3.71094-3.71094-3.71094h-10.5957v-10.5469c0-2.24609-1.46484-3.75977-3.71094-3.75977-2.14844 0-3.61328 1.51367-3.61328 3.75977v10.5469h-10.498c-2.24609 0-3.75977 1.51367-3.75977 3.71094Z"/>
  </g>
  <g transform="matrix(0.2 0 0 0.2 281.506 1933)">
   <path d="m58.5449 14.5508c27.2461 0 49.8047-22.6074 49.8047-49.8047 0-27.2461-22.6074-49.8047-49.8535-49.8047-27.1973 0-49.7559 22.5586-49.7559 49.8047 0 27.1973 22.6074 49.8047 49.8047 49.8047Zm0-8.30078c-23.0469 0-41.4551-18.457-41.4551-41.5039s18.3594-41.5039 41.4062-41.5039 41.5527 18.457 41.5527 41.5039-18.457 41.5039-41.5039 41.5039Zm-22.6562-41.5039c0 2.39258 1.66016 4.00391 4.15039 4.00391h14.3555v14.4043c0 2.44141 1.66016 4.15039 4.05273 4.15039 2.44141 0 4.15039-1.66016 4.15039-4.15039v-14.4043h14.4043c2.44141 0 4.15039-1.61133 4.15039-4.00391 0-2.44141-1.70898-4.15039-4.15039-4.15039h-14.4043v-14.3555c0-2.49023-1.70898-4.19922-4.15039-4.19922-2.39258 0-4.05273 1.70898-4.05273 4.19922v14.3555h-14.3555c-2.49023 0-4.15039 1.70898-4.15039 4.15039Z"/>
  </g>
  <g transform="matrix(0.2 0 0 0.2 304.924 1933)">
   <path d="m74.8535 28.3203c34.8145 0 63.623-28.8086 63.623-63.5742 0-34.8145-28.8574-63.623-63.6719-63.623-34.7656 0-63.5254 28.8086-63.5254 63.623 0 34.7656 28.8086 63.5742 63.5742 63.5742Zm0-9.08203c-30.1758 0-54.4434-24.3164-54.4434-54.4922 0-30.2246 24.2188-54.4922 54.3945-54.4922 30.2246 0 54.541 24.2676 54.541 54.4922 0 30.1758-24.2676 54.4922-54.4922 54.4922Zm-28.8574-54.4922c0 2.58789 1.85547 4.39453 4.58984 4.39453h19.7266v19.7754c0 2.68555 1.85547 4.58984 4.44336 4.58984 2.68555 0 4.54102-1.85547 4.54102-4.58984v-19.7754h19.7754c2.68555 0 4.58984-1.80664 4.58984-4.39453 0-2.73438-1.85547-4.58984-4.58984-4.58984h-19.7754v-19.7266c0-2.73438-1.85547-4.63867-4.54102-4.63867-2.58789 0-4.44336 1.9043-4.44336 4.63867v19.7266h-19.7266c-2.73438 0-4.58984 1.85547-4.58984 4.58984Z"/>
  </g>
  <text style="stroke:none;fill:black;font-family:sans-serif;font-size:13;font-weight:bold;" transform="matrix(1 0 0 1 263 1953)">Design Variations</text>
  <text style="stroke:none;fill:black;font-family:sans-serif;font-size:13;" transform="matrix(1 0 0 1 263 1971)">Symbols are supported in up to nine weights and three scales.</text>
  <text style="stroke:none;fill:black;font-family:sans-serif;font-size:13;" transform="matrix(1 0 0 1 263 1989)">For optimal layout with text and other symbols, vertically align</text>
  <text style="stroke:none;fill:black;font-family:sans-serif;font-size:13;" transform="matrix(1 0 0 1 263 2007)">symbols with the adjacent text.</text>
  <line style="fill:none;stroke:#00AEEF;stroke-width:0.5;opacity:1.0;" x1="776" x2="776" y1="1919" y2="1933"/>
  <g transform="matrix(0.2 0 0 0.2 776 1933)">
   <path d="m16.5527 0.78125c2.58789 0 3.85742-0.976562 4.78516-3.71094l6.29883-17.2363h28.8086l6.29883 17.2363c0.927734 2.73438 2.19727 3.71094 4.73633 3.71094 2.58789 0 4.24805-1.5625 4.24805-4.00391 0-0.830078-0.146484-1.61133-0.537109-2.63672l-22.9004-60.9863c-1.12305-2.97852-3.125-4.49219-6.25-4.49219-3.02734 0-5.07812 1.46484-6.15234 4.44336l-22.9004 61.084c-0.390625 1.02539-0.537109 1.80664-0.537109 2.63672 0 2.44141 1.5625 3.95508 4.10156 3.95508Zm13.4766-28.3691 11.8652-32.8613h0.244141l11.8652 32.8613Z"/>
  </g>
  <line style="fill:none;stroke:#00AEEF;stroke-width:0.5;opacity:1.0;" x1="792.836" x2="792.836" y1="1919" y2="1933"/>
  <text style="stroke:none;fill:black;font-family:sans-serif;font-size:13;font-weight:bold;" transform="matrix(1 0 0 1 776 1953)">Margins</text>
  <text style="stroke:none;fill:black;font-family:sans-serif;font-size:13;" transform="matrix(1 0 0 1 776 1971)">Leading and trailing margins on the left and right side of each symbol</text>
  <text style="stroke:none;fill:black;font-family:sans-serif;font-size:13;" transform="matrix(1 0 0 1 776 1989)">can be adjusted by modifying the x-location of the margin guidelines.</text>
  <text style="stroke:none;fill:black;font-family:sans-serif;font-size:13;" transform="matrix(1 0 0 1 776 2007)">Modifications are automatically applied proportionally to all</text>
  <text style="stroke:none;fill:black;font-family:sans-serif;font-size:13;" transform="matrix(1 0 0 1 776 2025)">scales and weights.</text>
  <g transform="matrix(0.2 0 0 0.2 1289 1933)">
   <path d="m14.209 9.32617 8.49609 8.54492c4.29688 4.3457 9.22852 4.05273 13.8672-1.07422l53.4668-58.9355-4.83398-4.88281-53.0762 58.3984c-1.75781 2.00195-3.41797 2.49023-5.76172 0.146484l-5.85938-5.81055c-2.34375-2.29492-1.80664-4.00391 0.195312-5.81055l57.373-54.0039-4.88281-4.83398-57.959 54.4434c-4.93164 4.58984-5.32227 9.47266-1.02539 13.8184Zm32.0801-90.9668c-2.09961 2.05078-2.24609 4.93164-1.07422 6.88477 1.17188 1.80664 3.4668 2.97852 6.68945 2.14844 7.32422-1.70898 14.9414-2.00195 22.0703 2.68555l-2.92969 7.27539c-1.70898 4.15039-0.830078 7.08008 1.85547 9.81445l11.4746 11.5723c2.44141 2.44141 4.49219 2.53906 7.32422 2.05078l5.32227-0.976562 3.32031 3.36914-0.195312 2.7832c-0.195312 2.49023 0.439453 4.39453 2.88086 6.78711l3.80859 3.71094c2.39258 2.39258 5.46875 2.53906 7.8125 0.195312l14.5508-14.5996c2.34375-2.34375 2.24609-5.32227-0.146484-7.71484l-3.85742-3.80859c-2.39258-2.39258-4.24805-3.17383-6.64062-2.97852l-2.88086 0.244141-3.22266-3.17383 1.2207-5.61523c0.634766-2.83203-0.146484-5.0293-3.07617-7.95898l-10.9863-10.9375c-16.6992-16.6016-38.8672-16.2109-53.3203-1.75781Zm7.4707 1.85547c12.1582-8.88672 28.6133-7.37305 39.7461 3.75977l12.1582 12.0605c1.17188 1.17188 1.36719 2.09961 1.02539 3.80859l-1.61133 7.42188 7.51953 7.42188 4.93164-0.292969c1.26953-0.0488281 1.66016 0.0488281 2.63672 1.02539l2.88086 2.88086-12.207 12.207-2.88086-2.88086c-0.976562-0.976562-1.12305-1.36719-1.07422-2.68555l0.341797-4.88281-7.4707-7.42188-7.61719 1.26953c-1.61133 0.341797-2.34375 0.195312-3.56445-0.976562l-10.0098-10.0098c-1.26953-1.17188-1.41602-2.00195-0.634766-3.85742l4.39453-10.4492c-7.8125-7.27539-17.9688-10.4004-28.125-7.42188-0.78125 0.195312-1.07422-0.439453-0.439453-0.976562Z"/>
  </g>
  <text style="stroke:none;fill:black;font-family:sans-serif;font-size:13;font-weight:bold;" transform="matrix(1 0 0 1 1289 1953)">Exporting</text>
  <text style="stroke:none;fill:black;font-family:sans-serif;font-size:13;" transform="matrix(1 0 0 1 1289 1971)">Symbols should be outlined when exporting to ensure the</text>
  <text style="stroke:none;fill:black;font-family:sans-serif;font-size:13;" transform="matrix(1 0 0 1 1289 1989)">design is preserved when submitting to Xcode.</text>
  <text id="template-version" style="stroke:none;fill:black;font-family:sans-serif;font-size:13;text-anchor:end;" transform="matrix(1 0 0 1 3036 1933)">Template v.5.0</text>
  <text style="stroke:none;fill:black;font-family:sans-serif;font-size:13;text-anchor:end;" transform="matrix(1 0 0 1 3036 1951)">Requires Xcode 15 or greater</text>
  <text id="descriptive-name" style="stroke:none;fill:black;font-family:sans-serif;font-size:13;text-anchor:end;" transform="matrix(1 0 0 1 3036 1969)">Generated from flag.and.flag.filled.crossed</text>
  <text style="stroke:none;fill:black;font-family:sans-serif;font-size:13;text-anchor:end;" transform="matrix(1 0 0 1 3036 1987)">Typeset at 100.0 points</text>
  <text style="stroke:none;fill:black;font-family:sans-serif;font-size:13;" transform="matrix(1 0 0 1 263 726)">Small</text>
  <text style="stroke:none;fill:black;font-family:sans-serif;font-size:13;" transform="matrix(1 0 0 1 263 1156)">Medium</text>
  <text style="stroke:none;fill:black;font-family:sans-serif;font-size:13;" transform="matrix(1 0 0 1 263 1586)">Large</text>
 </g>
 <g id="Guides">
  <g id="H-reference" style="fill:#27AAE1;stroke:none;" transform="matrix(1 0 0 1 339 696)">
   <path d="M0.993654 0L3.63775 0L29.3281-67.1323L30.0303-67.1323L30.0303-70.459L28.1226-70.459ZM11.6885-24.4799L46.9815-24.4799L46.2315-26.7285L12.4385-26.7285ZM55.1196 0L57.7637 0L30.6382-70.459L29.4326-70.459L29.4326-67.1323Z"/>
  </g>
  <line id="Baseline-S" style="fill:none;stroke:#27AAE1;opacity:1;stroke-width:0.5;" x1="263" x2="3036" y1="696" y2="696"/>
  <line id="Capline-S" style="fill:none;stroke:#27AAE1;opacity:1;stroke-width:0.5;" x1="263" x2="3036" y1="625.541" y2="625.541"/>
  <g id="H-reference" style="fill:#27AAE1;stroke:none;" transform="matrix(1 0 0 1 339 1126)">
   <path d="M0.993654 0L3.63775 0L29.3281-67.1323L30.0303-67.1323L30.0303-70.459L28.1226-70.459ZM11.6885-24.4799L46.9815-24.4799L46.2315-26.7285L12.4385-26.7285ZM55.1196 0L57.7637 0L30.6382-70.459L29.4326-70.459L29.4326-67.1323Z"/>
  </g>
  <line id="Baseline-M" style="fill:none;stroke:#27AAE1;opacity:1;stroke-width:0.5;" x1="263" x2="3036" y1="1126" y2="1126"/>
  <line id="Capline-M" style="fill:none;stroke:#27AAE1;opacity:1;stroke-width:0.5;" x1="263" x2="3036" y1="1055.54" y2="1055.54"/>
  <g id="H-reference" style="fill:#27AAE1;stroke:none;" transform="matrix(1 0 0 1 339 1556)">
   <path d="M0.993654 0L3.63775 0L29.3281-67.1323L30.0303-67.1323L30.0303-70.459L28.1226-70.459ZM11.6885-24.4799L46.9815-24.4799L46.2315-26.7285L12.4385-26.7285ZM55.1196 0L57.7637 0L30.6382-70.459L29.4326-70.459L29.4326-67.1323Z"/>
  </g>
  <line id="Baseline-L" style="fill:none;stroke:#27AAE1;opacity:1;stroke-width:0.5;" x1="263" x2="3036" y1="1556" y2="1556"/>
  <line id="Capline-L" style="fill:none;stroke:#27AAE1;opacity:1;stroke-width:0.5;" x1="263" x2="3036" y1="1485.54" y2="1485.54"/>
  <line id="left-margin-Ultralight-S" style="fill:none;stroke:#00AEEF;stroke-width:0.5;opacity:1.0;" x1="485.659" x2="485.659" y1="600.785" y2="720.121"/>
  <line id="right-margin-Ultralight-S" style="fill:none;stroke:#00AEEF;stroke-width:0.5;opacity:1.0;" x1="633.764" x2="633.764" y1="600.785" y2="720.121"/>
  <line id="left-margin-Regular-S" style="fill:none;stroke:#00AEEF;stroke-width:0.5;opacity:1.0;" x1="1370.86" x2="1370.86" y1="600.785" y2="720.121"/>
  <line id="right-margin-Regular-S" style="fill:none;stroke:#00AEEF;stroke-width:0.5;opacity:1.0;" x1="1528.82" x2="1528.82" y1="600.785" y2="720.121"/>
  <line id="left-margin-Black-S" style="fill:none;stroke:#00AEEF;stroke-width:0.5;opacity:1.0;" x1="2852.91" x2="2852.91" y1="600.785" y2="720.121"/>
  <line id="right-margin-Black-S" style="fill:none;stroke:#00AEEF;stroke-width:0.5;opacity:1.0;" x1="3013.89" x2="3013.89" y1="600.785" y2="720.121"/>
 </g>
 <g id="Symbols">
  <g id="Black-S" transform="matrix(1 0 0 1 2852.91 696)">
   <path class="SFSymbolsPreviewWireframe" d="M61.4746-5.71289C59.5703-2.39258 60.6934 1.9043 64.0137 3.90625C67.3828 5.9082 71.6797 4.63867 73.6328 1.26953L93.4082-32.959C94.3359-32.5195 95.3125-32.0312 96.2891-31.4941C103.613-27.2461 108.057-18.7012 116.504-13.8184C120.312-11.6211 123.926-10.2051 126.953-10.0098C130.42-9.66797 133.252-10.791 134.961-13.7695L150.146-40.1367C152.441-44.0918 150.879-48.4375 146.924-50.7324C144.971-51.8555 141.797-52.7344 138.574-54.5898C131.25-58.8379 126.807-67.3828 118.359-72.2656C114.551-74.4629 110.938-75.8301 107.91-76.0742C104.443-76.3672 101.66-75.293 99.9023-72.2656ZM104.59-8.64258L66.1621-75.1953C63.5742-79.6387 58.9844-82.4707 52.5879-81.9336C48.5352-81.5918 44.043-79.834 39.6973-77.3438C29.7852-71.582 25.3418-63.0371 19.4824-59.668C16.8457-58.1543 13.8184-57.3242 11.1328-55.8105C4.3457-51.8555 1.85547-43.9453 5.76172-37.207L20.9473-10.8398C23.4375-6.49414 28.0762-3.56445 34.5215-4.15039C38.623-4.44336 43.1152-6.29883 47.4121-8.74023C56.0059-13.7207 60.4492-20.752 65.2832-24.8047C65.332-24.8535 65.4297-24.9023 65.4785-24.9512L82.2754 4.19922C85.8398 10.4004 93.7988 12.5977 100 8.93555C106.055 5.27344 108.105-2.58789 104.59-8.64258ZM99.5117-5.71289L61.084-72.2656C59.3262-75.293 56.543-76.3672 53.0762-76.0742C50.0488-75.8301 46.4355-74.4629 42.627-72.2656C34.1797-67.3828 29.7363-58.8379 22.4121-54.5898C19.1895-52.7344 16.0156-51.8555 14.0625-50.7324C10.1074-48.4375 8.54492-44.0918 10.8398-40.1367L26.0254-13.7695C27.7344-10.791 30.5664-9.66797 34.0332-10.0098C37.0605-10.2051 40.6738-11.6211 44.4824-13.8184C52.9297-18.7012 57.373-27.2461 64.6973-31.4941C65.6738-32.0312 66.6504-32.5195 67.5781-32.959L87.3535 1.26953C89.3066 4.63867 93.6035 5.9082 96.9727 3.90625C100.293 1.9043 101.416-2.39258 99.5117-5.71289ZM60.498-45.2148C59.5703-44.6777 58.6426-44.1406 57.7148-43.6035C47.5098-37.793 44.4824-29.8828 37.3047-25.9766C36.7676-25.6836 36.2305-25.3418 35.6934-25.0977L26.6113-40.8203C27.5391-41.3574 28.4668-41.8945 29.3945-42.4316C39.5996-48.291 42.627-56.1523 49.8047-60.0586C50.3418-60.4004 50.8789-60.6934 51.416-60.9863Z"/>
  </g>
  <g id="Regular-S" transform="matrix(1 0 0 1 1370.86 696)">
   <path class="SFSymbolsPreviewWireframe" d="M57.5195-0.439453C56.6406 1.12305 57.1777 3.22266 58.7402 4.10156C60.3516 5.0293 62.3047 4.49219 63.1836 2.88086L86.9629-38.2812C88.8184-37.5488 91.4551-36.6211 94.2871-34.9609C103.467-29.6875 107.08-21.1426 116.748-15.5273C119.58-13.8672 122.559-12.6953 124.756-12.4023C127.783-12.1582 130.42-13.0859 132.373-16.4062L147.607-42.8223C148.926-45.166 147.9-47.2656 145.752-48.5352C144.043-49.5117 140.527-50.3906 136.475-52.7344C127.344-58.0078 123.73-66.5527 114.014-72.168C111.23-73.7793 108.252-74.9512 106.006-75.2441C103.027-75.5371 100.391-74.5605 98.4375-71.1914ZM104.541-2.7832L63.623-73.584C60.9863-78.1738 56.7383-80.5664 51.3184-79.9805C48.4375-79.6387 44.7754-78.2227 41.5039-76.2695C30.2246-69.7754 26.9531-61.4258 19.043-56.8848C15.4785-54.7852 12.1094-54.0039 9.81445-52.6855C5.41992-50.0977 3.51562-45.1172 6.20117-40.4297L21.4355-14.0625C24.0723-9.47266 28.2715-7.12891 33.6914-7.66602C36.6211-8.00781 40.332-9.47266 43.5547-11.4258C54.7852-17.8711 58.1055-26.2207 66.0156-30.8105C67.041-31.3965 68.0176-31.8848 68.8965-32.2754L90.5762 5.27344C92.7734 9.17969 97.7051 10.498 101.562 8.20312C105.42 6.00586 106.738 1.02539 104.541-2.7832ZM100.391-0.439453L59.4727-71.1914C57.5684-74.5605 54.8828-75.5371 51.9043-75.2441C49.707-74.9512 46.6797-73.7793 43.8965-72.168C34.2285-66.5527 30.6152-58.0078 21.4355-52.7344C17.4316-50.3906 13.8672-49.5117 12.1582-48.5352C10.0586-47.2656 9.0332-45.166 10.3516-42.8223L25.5859-16.4062C27.4902-13.0859 30.1758-12.1582 33.1543-12.4023C35.3516-12.6953 38.3789-13.8672 41.1621-15.5273C50.8301-21.1426 54.4434-29.6875 63.623-34.9609C66.5039-36.6211 69.0918-37.5488 70.9473-38.2812L94.7266 2.88086C95.6055 4.49219 97.5586 5.0293 99.1699 4.10156C100.732 3.22266 101.318 1.12305 100.391-0.439453ZM67.4805-44.1895C65.4785-43.6523 62.5-41.9434 60.3516-40.7227C50.3906-34.9609 46.9727-26.4648 37.8906-21.2402C36.9141-20.6543 34.2773-19.1895 31.6895-18.9941L17.5293-43.457C19.5801-44.043 22.5586-45.752 24.707-46.9727C34.668-52.7344 38.0859-61.1816 47.168-66.4551C48.1445-66.9922 50.7812-68.5059 53.3691-68.7012Z"/>
  </g>
  <g id="Ultralight-S" transform="matrix(1 0 0 1 485.659 696)">
   <path class="SFSymbolsPreviewWireframe" d="M51.7071 0.832021C51.3731 1.3501 51.5923 1.99659 52.1104 2.33058C52.6319 2.62258 53.2681 2.44875 53.5567 1.92725L78.1988-40.688C79.7818-40.228 83.5084-39.2095 87.7481-36.8227C97.5181-31.1406 101.131-22.7319 110.254-17.3891C112.678-15.9106 115.793-14.6025 118.217-14.4004C119.836-14.2925 121.202-14.6299 121.974-15.9976L138.026-43.8213C138.663-44.939 138.319-45.9033 137.215-46.5825C135.597-47.4683 131.945-48.211 127.711-50.6455C117.853-56.3276 114.24-64.7363 105.204-70.0791C102.739-71.5542 99.6241-72.9077 97.1964-73.0645C95.5347-73.1758 94.2603-72.835 93.4878-71.4639ZM99.001-0.694352L57.2657-72.9937C55.9004-75.3584 53.5596-76.2525 50.728-76.0752C47.7109-75.8697 44.0942-74.272 41.3677-72.6822C31.4961-66.8692 27.8613-58.4741 18.9067-53.252C14.979-50.9707 11.5645-50.3711 9.40576-49.189C6.82763-47.7363 5.96775-44.8901 7.47265-42.3369L23.5244-14.4712C24.8896-12.1064 27.2725-11.2158 30.104-11.3896C33.1245-11.6406 36.6992-13.1508 39.4224-14.8315C49.336-20.5957 52.9742-28.9907 61.8833-34.2163C64.4527-35.665 66.7461-36.5166 68.5332-37.0888L91.9385 3.41164C93.0913 5.41067 95.5708 6.04789 97.521 4.93362C99.4712 3.78078 100.199 1.25244 99.001-0.694352ZM96.3946 0.832021L54.6592-71.4639C53.8448-72.835 52.5669-73.1758 50.9507-73.0645C48.481-72.9077 45.3628-71.5542 42.9429-70.0791C33.8652-64.7363 30.252-56.3276 20.4365-50.6455C16.1602-48.211 12.5049-47.4683 10.8867-46.5825C9.78613-45.9033 9.44189-44.939 10.0791-43.8213L26.1309-15.9976C26.9453-14.6299 28.2686-14.2925 29.8848-14.4004C32.3545-14.6025 35.4727-15.9106 37.8472-17.3891C46.9702-22.7319 50.5835-31.1406 60.3535-36.8227C64.5967-39.2095 68.3652-40.228 69.9483-40.688L94.5449 1.92725C94.8789 2.44875 95.4697 2.62258 95.9912 2.33058C96.5093 1.99659 96.732 1.3501 96.3946 0.832021ZM68.7519-42.7363C64.3433-41.291 61.4102-39.9453 59.2617-38.7246C49.21-32.9175 45.792-24.4668 36.7554-19.2876C35.7334-18.6563 31.7798-16.4195 28.3745-16.542L12.0801-44.7285C16.5376-46.1772 19.3345-47.5229 21.4829-48.789C31.5801-54.5962 35.0435-62.998 43.9893-68.1807C45.1021-68.8086 49.0103-71.0488 52.4609-70.9717Z"/>
  </g>
 </g>
</svg>
