<?xml version="1.0" encoding="UTF-8"?>
<!--Generator: Apple Native CoreSVG 232.5-->
<!DOCTYPE svg
PUBLIC "-//W3C//DTD SVG 1.1//EN"
       "http://www.w3.org/Graphics/SVG/1.1/DTD/svg11.dtd">
<svg version="1.1" xmlns="http://www.w3.org/2000/svg" xmlns:xlink="http://www.w3.org/1999/xlink" width="3300" height="2200">
 <!--glyph: "uni101555.medium", point size: 100.0, font version: "19.2d2e1", template writer version: "128"-->
 <style>.SFSymbolsPreviewWireframe {fill:none;opacity:1.0;stroke:black;stroke-width:0.5}
</style>
 <g id="Notes">
  <rect height="2200" id="artboard" style="fill:white;opacity:1" width="3300" x="0" y="0"/>
  <line style="fill:none;stroke:black;opacity:1;stroke-width:0.5;" x1="263" x2="3036" y1="292" y2="292"/>
  <text style="stroke:none;fill:black;font-family:sans-serif;font-size:13;font-weight:bold;" transform="matrix(1 0 0 1 263 322)">Weight/Scale Variations</text>
  <text style="stroke:none;fill:black;font-family:sans-serif;font-size:13;text-anchor:middle;" transform="matrix(1 0 0 1 559.711 322)">Ultralight</text>
  <text style="stroke:none;fill:black;font-family:sans-serif;font-size:13;text-anchor:middle;" transform="matrix(1 0 0 1 856.422 322)">Thin</text>
  <text style="stroke:none;fill:black;font-family:sans-serif;font-size:13;text-anchor:middle;" transform="matrix(1 0 0 1 1153.13 322)">Light</text>
  <text style="stroke:none;fill:black;font-family:sans-serif;font-size:13;text-anchor:middle;" transform="matrix(1 0 0 1 1449.84 322)">Regular</text>
  <text style="stroke:none;fill:black;font-family:sans-serif;font-size:13;text-anchor:middle;" transform="matrix(1 0 0 1 1746.56 322)">Medium</text>
  <text style="stroke:none;fill:black;font-family:sans-serif;font-size:13;text-anchor:middle;" transform="matrix(1 0 0 1 2043.27 322)">Semibold</text>
  <text style="stroke:none;fill:black;font-family:sans-serif;font-size:13;text-anchor:middle;" transform="matrix(1 0 0 1 2339.98 322)">Bold</text>
  <text style="stroke:none;fill:black;font-family:sans-serif;font-size:13;text-anchor:middle;" transform="matrix(1 0 0 1 2636.69 322)">Heavy</text>
  <text style="stroke:none;fill:black;font-family:sans-serif;font-size:13;text-anchor:middle;" transform="matrix(1 0 0 1 2933.4 322)">Black</text>
  <line style="fill:none;stroke:black;opacity:1;stroke-width:0.5;" x1="263" x2="3036" y1="1903" y2="1903"/>
  <g transform="matrix(0.2 0 0 0.2 263 1933)">
   <path d="m46.2402 4.15039c21.5332 0 39.4531-17.8711 39.4531-39.4043s-17.9688-39.4043-39.502-39.4043c-21.4844 0-39.3555 17.8711-39.3555 39.4043s17.9199 39.4043 39.4043 39.4043Zm0-7.42188c-17.7246 0-31.8848-14.209-31.8848-31.9824s14.1113-31.9824 31.8359-31.9824c17.7734 0 32.0312 14.209 32.0312 31.9824s-14.209 31.9824-31.9824 31.9824Zm-17.9688-31.9824c0 2.14844 1.51367 3.61328 3.75977 3.61328h10.498v10.5957c0 2.19727 1.46484 3.71094 3.61328 3.71094 2.24609 0 3.71094-1.51367 3.71094-3.71094v-10.5957h10.5957c2.19727 0 3.71094-1.46484 3.71094-3.61328 0-2.19727-1.51367-3.71094-3.71094-3.71094h-10.5957v-10.5469c0-2.24609-1.46484-3.75977-3.71094-3.75977-2.14844 0-3.61328 1.51367-3.61328 3.75977v10.5469h-10.498c-2.24609 0-3.75977 1.51367-3.75977 3.71094Z"/>
  </g>
  <g transform="matrix(0.2 0 0 0.2 281.506 1933)">
   <path d="m58.5449 14.5508c27.2461 0 49.8047-22.6074 49.8047-49.8047 0-27.2461-22.6074-49.8047-49.8535-49.8047-27.1973 0-49.7559 22.5586-49.7559 49.8047 0 27.1973 22.6074 49.8047 49.8047 49.8047Zm0-8.30078c-23.0469 0-41.4551-18.457-41.4551-41.5039s18.3594-41.5039 41.4062-41.5039 41.5527 18.457 41.5527 41.5039-18.457 41.5039-41.5039 41.5039Zm-22.6562-41.5039c0 2.39258 1.66016 4.00391 4.15039 4.00391h14.3555v14.4043c0 2.44141 1.66016 4.15039 4.05273 4.15039 2.44141 0 4.15039-1.66016 4.15039-4.15039v-14.4043h14.4043c2.44141 0 4.15039-1.61133 4.15039-4.00391 0-2.44141-1.70898-4.15039-4.15039-4.15039h-14.4043v-14.3555c0-2.49023-1.70898-4.19922-4.15039-4.19922-2.39258 0-4.05273 1.70898-4.05273 4.19922v14.3555h-14.3555c-2.49023 0-4.15039 1.70898-4.15039 4.15039Z"/>
  </g>
  <g transform="matrix(0.2 0 0 0.2 304.924 1933)">
   <path d="m74.8535 28.3203c34.8145 0 63.623-28.8086 63.623-63.5742 0-34.8145-28.8574-63.623-63.6719-63.623-34.7656 0-63.5254 28.8086-63.5254 63.623 0 34.7656 28.8086 63.5742 63.5742 63.5742Zm0-9.08203c-30.1758 0-54.4434-24.3164-54.4434-54.4922 0-30.2246 24.2188-54.4922 54.3945-54.4922 30.2246 0 54.541 24.2676 54.541 54.4922 0 30.1758-24.2676 54.4922-54.4922 54.4922Zm-28.8574-54.4922c0 2.58789 1.85547 4.39453 4.58984 4.39453h19.7266v19.7754c0 2.68555 1.85547 4.58984 4.44336 4.58984 2.68555 0 4.54102-1.85547 4.54102-4.58984v-19.7754h19.7754c2.68555 0 4.58984-1.80664 4.58984-4.39453 0-2.73438-1.85547-4.58984-4.58984-4.58984h-19.7754v-19.7266c0-2.73438-1.85547-4.63867-4.54102-4.63867-2.58789 0-4.44336 1.9043-4.44336 4.63867v19.7266h-19.7266c-2.73438 0-4.58984 1.85547-4.58984 4.58984Z"/>
  </g>
  <text style="stroke:none;fill:black;font-family:sans-serif;font-size:13;font-weight:bold;" transform="matrix(1 0 0 1 263 1953)">Design Variations</text>
  <text style="stroke:none;fill:black;font-family:sans-serif;font-size:13;" transform="matrix(1 0 0 1 263 1971)">Symbols are supported in up to nine weights and three scales.</text>
  <text style="stroke:none;fill:black;font-family:sans-serif;font-size:13;" transform="matrix(1 0 0 1 263 1989)">For optimal layout with text and other symbols, vertically align</text>
  <text style="stroke:none;fill:black;font-family:sans-serif;font-size:13;" transform="matrix(1 0 0 1 263 2007)">symbols with the adjacent text.</text>
  <line style="fill:none;stroke:#00AEEF;stroke-width:0.5;opacity:1.0;" x1="776" x2="776" y1="1919" y2="1933"/>
  <g transform="matrix(0.2 0 0 0.2 776 1933)">
   <path d="m16.5527 0.78125c2.58789 0 3.85742-0.976562 4.78516-3.71094l6.29883-17.2363h28.8086l6.29883 17.2363c0.927734 2.73438 2.19727 3.71094 4.73633 3.71094 2.58789 0 4.24805-1.5625 4.24805-4.00391 0-0.830078-0.146484-1.61133-0.537109-2.63672l-22.9004-60.9863c-1.12305-2.97852-3.125-4.49219-6.25-4.49219-3.02734 0-5.07812 1.46484-6.15234 4.44336l-22.9004 61.084c-0.390625 1.02539-0.537109 1.80664-0.537109 2.63672 0 2.44141 1.5625 3.95508 4.10156 3.95508Zm13.4766-28.3691 11.8652-32.8613h0.244141l11.8652 32.8613Z"/>
  </g>
  <line style="fill:none;stroke:#00AEEF;stroke-width:0.5;opacity:1.0;" x1="792.836" x2="792.836" y1="1919" y2="1933"/>
  <text style="stroke:none;fill:black;font-family:sans-serif;font-size:13;font-weight:bold;" transform="matrix(1 0 0 1 776 1953)">Margins</text>
  <text style="stroke:none;fill:black;font-family:sans-serif;font-size:13;" transform="matrix(1 0 0 1 776 1971)">Leading and trailing margins on the left and right side of each symbol</text>
  <text style="stroke:none;fill:black;font-family:sans-serif;font-size:13;" transform="matrix(1 0 0 1 776 1989)">can be adjusted by modifying the x-location of the margin guidelines.</text>
  <text style="stroke:none;fill:black;font-family:sans-serif;font-size:13;" transform="matrix(1 0 0 1 776 2007)">Modifications are automatically applied proportionally to all</text>
  <text style="stroke:none;fill:black;font-family:sans-serif;font-size:13;" transform="matrix(1 0 0 1 776 2025)">scales and weights.</text>
  <g transform="matrix(0.2 0 0 0.2 1289 1933)">
   <path d="m14.209 9.32617 8.49609 8.54492c4.29688 4.3457 9.22852 4.05273 13.8672-1.07422l53.4668-58.9355-4.83398-4.88281-53.0762 58.3984c-1.75781 2.00195-3.41797 2.49023-5.76172 0.146484l-5.85938-5.81055c-2.34375-2.29492-1.80664-4.00391 0.195312-5.81055l57.373-54.0039-4.88281-4.83398-57.959 54.4434c-4.93164 4.58984-5.32227 9.47266-1.02539 13.8184Zm32.0801-90.9668c-2.09961 2.05078-2.24609 4.93164-1.07422 6.88477 1.17188 1.80664 3.4668 2.97852 6.68945 2.14844 7.32422-1.70898 14.9414-2.00195 22.0703 2.68555l-2.92969 7.27539c-1.70898 4.15039-0.830078 7.08008 1.85547 9.81445l11.4746 11.5723c2.44141 2.44141 4.49219 2.53906 7.32422 2.05078l5.32227-0.976562 3.32031 3.36914-0.195312 2.7832c-0.195312 2.49023 0.439453 4.39453 2.88086 6.78711l3.80859 3.71094c2.39258 2.39258 5.46875 2.53906 7.8125 0.195312l14.5508-14.5996c2.34375-2.34375 2.24609-5.32227-0.146484-7.71484l-3.85742-3.80859c-2.39258-2.39258-4.24805-3.17383-6.64062-2.97852l-2.88086 0.244141-3.22266-3.17383 1.2207-5.61523c0.634766-2.83203-0.146484-5.0293-3.07617-7.95898l-10.9863-10.9375c-16.6992-16.6016-38.8672-16.2109-53.3203-1.75781Zm7.4707 1.85547c12.1582-8.88672 28.6133-7.37305 39.7461 3.75977l12.1582 12.0605c1.17188 1.17188 1.36719 2.09961 1.02539 3.80859l-1.61133 7.42188 7.51953 7.42188 4.93164-0.292969c1.26953-0.0488281 1.66016 0.0488281 2.63672 1.02539l2.88086 2.88086-12.207 12.207-2.88086-2.88086c-0.976562-0.976562-1.12305-1.36719-1.07422-2.68555l0.341797-4.88281-7.4707-7.42188-7.61719 1.26953c-1.61133 0.341797-2.34375 0.195312-3.56445-0.976562l-10.0098-10.0098c-1.26953-1.17188-1.41602-2.00195-0.634766-3.85742l4.39453-10.4492c-7.8125-7.27539-17.9688-10.4004-28.125-7.42188-0.78125 0.195312-1.07422-0.439453-0.439453-0.976562Z"/>
  </g>
  <text style="stroke:none;fill:black;font-family:sans-serif;font-size:13;font-weight:bold;" transform="matrix(1 0 0 1 1289 1953)">Exporting</text>
  <text style="stroke:none;fill:black;font-family:sans-serif;font-size:13;" transform="matrix(1 0 0 1 1289 1971)">Symbols should be outlined when exporting to ensure the</text>
  <text style="stroke:none;fill:black;font-family:sans-serif;font-size:13;" transform="matrix(1 0 0 1 1289 1989)">design is preserved when submitting to Xcode.</text>
  <text id="template-version" style="stroke:none;fill:black;font-family:sans-serif;font-size:13;text-anchor:end;" transform="matrix(1 0 0 1 3036 1933)">Template v.5.0</text>
  <text style="stroke:none;fill:black;font-family:sans-serif;font-size:13;text-anchor:end;" transform="matrix(1 0 0 1 3036 1951)">Requires Xcode 15 or greater</text>
  <text id="descriptive-name" style="stroke:none;fill:black;font-family:sans-serif;font-size:13;text-anchor:end;" transform="matrix(1 0 0 1 3036 1969)">Generated from fossil.shell.fill</text>
  <text style="stroke:none;fill:black;font-family:sans-serif;font-size:13;text-anchor:end;" transform="matrix(1 0 0 1 3036 1987)">Typeset at 100.0 points</text>
  <text style="stroke:none;fill:black;font-family:sans-serif;font-size:13;" transform="matrix(1 0 0 1 263 726)">Small</text>
  <text style="stroke:none;fill:black;font-family:sans-serif;font-size:13;" transform="matrix(1 0 0 1 263 1156)">Medium</text>
  <text style="stroke:none;fill:black;font-family:sans-serif;font-size:13;" transform="matrix(1 0 0 1 263 1586)">Large</text>
 </g>
 <g id="Guides">
  <g id="H-reference" style="fill:#27AAE1;stroke:none;" transform="matrix(1 0 0 1 339 696)">
   <path d="M0.993654 0L3.63775 0L29.3281-67.1323L30.0303-67.1323L30.0303-70.459L28.1226-70.459ZM11.6885-24.4799L46.9815-24.4799L46.2315-26.7285L12.4385-26.7285ZM55.1196 0L57.7637 0L30.6382-70.459L29.4326-70.459L29.4326-67.1323Z"/>
  </g>
  <line id="Baseline-S" style="fill:none;stroke:#27AAE1;opacity:1;stroke-width:0.5;" x1="263" x2="3036" y1="696" y2="696"/>
  <line id="Capline-S" style="fill:none;stroke:#27AAE1;opacity:1;stroke-width:0.5;" x1="263" x2="3036" y1="625.541" y2="625.541"/>
  <g id="H-reference" style="fill:#27AAE1;stroke:none;" transform="matrix(1 0 0 1 339 1126)">
   <path d="M0.993654 0L3.63775 0L29.3281-67.1323L30.0303-67.1323L30.0303-70.459L28.1226-70.459ZM11.6885-24.4799L46.9815-24.4799L46.2315-26.7285L12.4385-26.7285ZM55.1196 0L57.7637 0L30.6382-70.459L29.4326-70.459L29.4326-67.1323Z"/>
  </g>
  <line id="Baseline-M" style="fill:none;stroke:#27AAE1;opacity:1;stroke-width:0.5;" x1="263" x2="3036" y1="1126" y2="1126"/>
  <line id="Capline-M" style="fill:none;stroke:#27AAE1;opacity:1;stroke-width:0.5;" x1="263" x2="3036" y1="1055.54" y2="1055.54"/>
  <g id="H-reference" style="fill:#27AAE1;stroke:none;" transform="matrix(1 0 0 1 339 1556)">
   <path d="M0.993654 0L3.63775 0L29.3281-67.1323L30.0303-67.1323L30.0303-70.459L28.1226-70.459ZM11.6885-24.4799L46.9815-24.4799L46.2315-26.7285L12.4385-26.7285ZM55.1196 0L57.7637 0L30.6382-70.459L29.4326-70.459L29.4326-67.1323Z"/>
  </g>
  <line id="Baseline-L" style="fill:none;stroke:#27AAE1;opacity:1;stroke-width:0.5;" x1="263" x2="3036" y1="1556" y2="1556"/>
  <line id="Capline-L" style="fill:none;stroke:#27AAE1;opacity:1;stroke-width:0.5;" x1="263" x2="3036" y1="1485.54" y2="1485.54"/>
  <line id="left-margin-Ultralight-S" style="fill:none;stroke:#00AEEF;stroke-width:0.5;opacity:1.0;" x1="505.064" x2="505.064" y1="600.785" y2="720.121"/>
  <line id="right-margin-Ultralight-S" style="fill:none;stroke:#00AEEF;stroke-width:0.5;opacity:1.0;" x1="614.358" x2="614.358" y1="600.785" y2="720.121"/>
  <line id="left-margin-Regular-S" style="fill:none;stroke:#00AEEF;stroke-width:0.5;opacity:1.0;" x1="1395.08" x2="1395.08" y1="600.785" y2="720.121"/>
  <line id="right-margin-Regular-S" style="fill:none;stroke:#00AEEF;stroke-width:0.5;opacity:1.0;" x1="1504.61" x2="1504.61" y1="600.785" y2="720.121"/>
  <line id="left-margin-Black-S" style="fill:none;stroke:#00AEEF;stroke-width:0.5;opacity:1.0;" x1="2872.58" x2="2872.58" y1="600.785" y2="720.121"/>
  <line id="right-margin-Black-S" style="fill:none;stroke:#00AEEF;stroke-width:0.5;opacity:1.0;" x1="2994.22" x2="2994.22" y1="600.785" y2="720.121"/>
 </g>
 <g id="Symbols">
  <g id="Black-S" transform="matrix(1 0 0 1 2872.58 696)">
   <path class="SFSymbolsPreviewWireframe" d="M52.2949-25.6836C65.1855-25.6836 74.4141-35.498 74.4141-49.4141C74.4141-55.5664 72.6562-60.8398 69.7266-65.2832L63.7695-59.3262C65.6738-56.3965 66.8945-52.9785 66.8945-49.2676C66.8945-40.7715 60.4492-34.1309 52.2949-34.1309C45.5566-34.1309 40.2344-38.5742 40.2344-44.1895C40.2344-46.7285 42.334-47.9004 44.1406-47.9004C45.8496-47.9004 46.9727-46.9727 47.5098-45.2148C48.1934-43.1152 49.9023-41.748 52.002-41.748C55.7129-41.748 58.6426-44.873 58.6426-48.8281C58.6426-54.7363 53.8086-59.1309 47.2656-59.1309C39.209-59.1309 32.7637-52.4902 32.7637-43.6523C32.7637-33.1055 40.8203-25.6836 52.2949-25.6836ZM48.6328-67.5293C52.0508-67.2852 55.3223-66.3086 57.8613-64.6484L64.502-71.1914C60.2051-74.6582 54.8828-76.8555 48.6328-77.4902ZM33.3008-62.793C35.498-64.4531 37.9883-65.7715 40.7227-66.6016L40.7227-77.6367C34.4238-77.0996 28.8574-75.1465 24.0234-72.1191ZM7.8125-48.291L24.6582-48.291C25.2441-51.416 26.4648-54.3457 28.0273-56.8848L17.8223-67.1875C12.8906-62.2559 9.42383-55.8594 7.8125-48.291ZM6.83594-38.8672C6.83594-29.3457 9.27734-20.8984 13.7695-13.8672L28.9062-29.1016C26.6113-32.4707 25-36.377 24.5117-40.4297L6.83594-40.4297C6.83594-39.8926 6.83594-39.4043 6.83594-38.8672ZM18.6035-7.51953C25.5371-0.195312 35.0586 4.6875 46.6309 6.54297L46.6309-17.7734C41.9922-18.6523 37.6953-20.6055 34.3262-23.3398ZM54.541 7.32422C55.3223 7.37305 56.0547 7.37305 56.7871 7.37305C68.7988 7.37305 79.4434 4.05273 88.4766-1.66016L68.5059-21.582C64.6484-19.2383 60.0098-17.627 54.541-17.2852ZM94.8242-6.39648C104.834-14.9414 111.816-26.8555 114.6-38.916C115.625-43.457 112.402-47.6074 107.422-47.6074L82.5684-47.6074C82.5195-40.8203 79.9316-32.7637 74.5605-26.709Z"/>
  </g>
  <g id="Regular-S" transform="matrix(1 0 0 1 1395.08 696)">
   <path class="SFSymbolsPreviewWireframe" d="M47.2656-26.2207C58.7402-26.2207 67.1387-35.2539 67.1387-47.6562C67.1387-53.5156 65.4785-58.7402 62.4512-62.793L55.7617-56.0547C57.6172-53.6621 58.6914-50.6348 58.6914-47.4121C58.6914-40.2344 53.6621-35.0098 47.168-35.0098C41.9922-35.0098 37.6465-38.4277 37.6465-42.627C37.6465-43.9941 38.8184-44.9219 40.0391-44.9219C40.9668-44.9219 41.8945-44.3359 42.2363-42.9688C42.7246-41.0645 44.4336-39.6484 46.875-39.6484C50.9277-39.6484 53.4668-42.5293 53.4668-47.0215C53.4668-52.4902 48.8281-56.7383 42.9199-56.7383C35.6445-56.7383 29.4922-50.4883 29.4922-42.5293C29.4922-33.4473 36.9141-26.2207 47.2656-26.2207ZM43.0664-62.1094C46.4355-62.0605 49.5605-61.1328 52.0996-59.4727L59.1309-66.4551C55.0781-70.166 49.5117-72.5098 43.0664-72.9492ZM30.9082-57.666C33.0078-59.4238 35.4492-60.791 38.1348-61.4746L38.1348-73.0469C31.7871-72.7539 26.0254-70.7031 21.2402-67.4316ZM7.42188-45.5566L24.3652-45.5566C24.8047-48.6328 25.9277-51.5137 27.6367-54.0039L17.3828-64.3555C12.3535-59.6191 8.78906-53.1738 7.42188-45.5566ZM6.83594-38.4277C6.83594-29.541 9.22852-21.6797 13.623-15.2344L28.418-30.0293C26.0742-33.1055 24.6582-36.7188 24.2676-40.5762L6.88477-40.5762C6.83594-39.8438 6.83594-39.1602 6.83594-38.4277ZM16.6992-11.2305C23.0469-4.15039 32.1777 0.634766 43.3105 2.19727L43.3105-21.1914C38.8672-21.875 34.9121-23.7305 31.7871-26.416ZM48.3398 2.63672C49.2676 2.68555 50.293 2.68555 51.2695 2.68555C62.207 2.68555 72.0703-0.439453 80.2734-5.95703L61.2305-24.8535C57.7637-22.5586 53.4668-21.0449 48.3398-20.8496ZM84.1797-8.83789C93.3594-16.4062 99.8047-27.2461 102.539-39.0625C103.32-42.3828 100.635-44.4824 98.0469-44.4824L72.3145-44.4824C71.9727-38.8672 69.5801-32.666 65.0391-28.0273Z"/>
  </g>
  <g id="Ultralight-S" transform="matrix(1 0 0 1 505.064 696)">
   <path class="SFSymbolsPreviewWireframe" d="M46.3574-29.9897C54.9712-29.9897 64.3233-37.1611 64.3233-48.6553C64.3233-54.1514 62.5723-59.1943 59.4541-63.2017L49.3589-53.1485C51.2144-51.4824 52.2886-49.1362 52.2886-46.4131C52.2886-41.7329 49.1211-38.4609 44.6704-38.4609C40.7661-38.4609 38.7363-40.9707 38.7363-42.7178C38.7363-43.4038 39.1816-43.832 39.812-43.7866C40.3765-43.7866 40.6231-43.4732 40.8286-42.9688C41.3623-41.7002 42.3447-40.5112 44.6499-40.5112C47.9761-40.5112 50.1519-42.938 50.1519-46.3857C50.1519-50.583 46.8755-53.5596 42.2388-53.5596C36.7344-53.5596 32.353-48.8535 32.353-42.8926C32.353-35.6723 38.5034-29.9897 46.3574-29.9897ZM40.9776-55.6612C42.2578-55.794 45.2012-55.729 47.6494-54.3868L58.041-64.7749C53.9429-69.2578 47.9678-72.1011 40.9776-72.4497ZM34.1323-52.3985C35.4599-53.7022 37.084-54.6607 38.8613-55.2081L38.8613-72.502C31.8779-72.3452 25.5259-70.0674 20.332-66.1602ZM7.01319-42.1509L30.3139-42.1509C29.936-44.773 31.0136-48.4712 32.7226-50.7798L18.6543-64.855C12.2173-59.3921 7.97169-51.3574 7.01319-42.1509ZM6.83594-38.5186C6.83594-29.4502 9.45556-21.4072 14.168-14.9165L33.2314-34.0708C31.9321-35.7846 30.9702-37.8994 30.5341-40.0767L6.88477-40.0767C6.83594-39.5713 6.83594-39.0239 6.83594-38.5186ZM15.4277-13.2739C22.2295-4.96777 32.5864 0.498536 45.2632 1.78858L45.2632-27.9121C41.0469-28.1416 37.2734-29.8608 34.6025-32.5463ZM47.3862 1.95557C48.6318 2.04981 49.8843 2.09522 51.1333 2.09522C62.4341 2.09522 72.479-1.16601 80.6821-6.81982L56.5987-30.8022C53.9492-29.1884 50.8784-28.038 47.3862-27.8881ZM82.3633-8.06592C92.4058-15.5889 99.396-26.792 102.357-39.9707C102.73-41.5654 101.952-42.4844 100.272-42.4844L65.5938-42.4844C64.8887-39.2305 62.3145-35.0727 58.3184-32.0234Z"/>
  </g>
 </g>
</svg>
