<?xml version="1.0" encoding="UTF-8"?>
<!--Generator: Apple Native CoreSVG 232.5-->
<!DOCTYPE svg
PUBLIC "-//W3C//DTD SVG 1.1//EN"
       "http://www.w3.org/Graphics/SVG/1.1/DTD/svg11.dtd">
<svg version="1.1" xmlns="http://www.w3.org/2000/svg" xmlns:xlink="http://www.w3.org/1999/xlink" width="3300" height="2200">
 <!--glyph: "uni101554.medium", point size: 100.0, font version: "19.2d2e1", template writer version: "128"-->
 <style>.SFSymbolsPreviewWireframe {fill:none;opacity:1.0;stroke:black;stroke-width:0.5}
</style>
 <g id="Notes">
  <rect height="2200" id="artboard" style="fill:white;opacity:1" width="3300" x="0" y="0"/>
  <line style="fill:none;stroke:black;opacity:1;stroke-width:0.5;" x1="263" x2="3036" y1="292" y2="292"/>
  <text style="stroke:none;fill:black;font-family:sans-serif;font-size:13;font-weight:bold;" transform="matrix(1 0 0 1 263 322)">Weight/Scale Variations</text>
  <text style="stroke:none;fill:black;font-family:sans-serif;font-size:13;text-anchor:middle;" transform="matrix(1 0 0 1 559.711 322)">Ultralight</text>
  <text style="stroke:none;fill:black;font-family:sans-serif;font-size:13;text-anchor:middle;" transform="matrix(1 0 0 1 856.422 322)">Thin</text>
  <text style="stroke:none;fill:black;font-family:sans-serif;font-size:13;text-anchor:middle;" transform="matrix(1 0 0 1 1153.13 322)">Light</text>
  <text style="stroke:none;fill:black;font-family:sans-serif;font-size:13;text-anchor:middle;" transform="matrix(1 0 0 1 1449.84 322)">Regular</text>
  <text style="stroke:none;fill:black;font-family:sans-serif;font-size:13;text-anchor:middle;" transform="matrix(1 0 0 1 1746.56 322)">Medium</text>
  <text style="stroke:none;fill:black;font-family:sans-serif;font-size:13;text-anchor:middle;" transform="matrix(1 0 0 1 2043.27 322)">Semibold</text>
  <text style="stroke:none;fill:black;font-family:sans-serif;font-size:13;text-anchor:middle;" transform="matrix(1 0 0 1 2339.98 322)">Bold</text>
  <text style="stroke:none;fill:black;font-family:sans-serif;font-size:13;text-anchor:middle;" transform="matrix(1 0 0 1 2636.69 322)">Heavy</text>
  <text style="stroke:none;fill:black;font-family:sans-serif;font-size:13;text-anchor:middle;" transform="matrix(1 0 0 1 2933.4 322)">Black</text>
  <line style="fill:none;stroke:black;opacity:1;stroke-width:0.5;" x1="263" x2="3036" y1="1903" y2="1903"/>
  <g transform="matrix(0.2 0 0 0.2 263 1933)">
   <path d="m46.2402 4.15039c21.5332 0 39.4531-17.8711 39.4531-39.4043s-17.9688-39.4043-39.502-39.4043c-21.4844 0-39.3555 17.8711-39.3555 39.4043s17.9199 39.4043 39.4043 39.4043Zm0-7.42188c-17.7246 0-31.8848-14.209-31.8848-31.9824s14.1113-31.9824 31.8359-31.9824c17.7734 0 32.0312 14.209 32.0312 31.9824s-14.209 31.9824-31.9824 31.9824Zm-17.9688-31.9824c0 2.14844 1.51367 3.61328 3.75977 3.61328h10.498v10.5957c0 2.19727 1.46484 3.71094 3.61328 3.71094 2.24609 0 3.71094-1.51367 3.71094-3.71094v-10.5957h10.5957c2.19727 0 3.71094-1.46484 3.71094-3.61328 0-2.19727-1.51367-3.71094-3.71094-3.71094h-10.5957v-10.5469c0-2.24609-1.46484-3.75977-3.71094-3.75977-2.14844 0-3.61328 1.51367-3.61328 3.75977v10.5469h-10.498c-2.24609 0-3.75977 1.51367-3.75977 3.71094Z"/>
  </g>
  <g transform="matrix(0.2 0 0 0.2 281.506 1933)">
   <path d="m58.5449 14.5508c27.2461 0 49.8047-22.6074 49.8047-49.8047 0-27.2461-22.6074-49.8047-49.8535-49.8047-27.1973 0-49.7559 22.5586-49.7559 49.8047 0 27.1973 22.6074 49.8047 49.8047 49.8047Zm0-8.30078c-23.0469 0-41.4551-18.457-41.4551-41.5039s18.3594-41.5039 41.4062-41.5039 41.5527 18.457 41.5527 41.5039-18.457 41.5039-41.5039 41.5039Zm-22.6562-41.5039c0 2.39258 1.66016 4.00391 4.15039 4.00391h14.3555v14.4043c0 2.44141 1.66016 4.15039 4.05273 4.15039 2.44141 0 4.15039-1.66016 4.15039-4.15039v-14.4043h14.4043c2.44141 0 4.15039-1.61133 4.15039-4.00391 0-2.44141-1.70898-4.15039-4.15039-4.15039h-14.4043v-14.3555c0-2.49023-1.70898-4.19922-4.15039-4.19922-2.39258 0-4.05273 1.70898-4.05273 4.19922v14.3555h-14.3555c-2.49023 0-4.15039 1.70898-4.15039 4.15039Z"/>
  </g>
  <g transform="matrix(0.2 0 0 0.2 304.924 1933)">
   <path d="m74.8535 28.3203c34.8145 0 63.623-28.8086 63.623-63.5742 0-34.8145-28.8574-63.623-63.6719-63.623-34.7656 0-63.5254 28.8086-63.5254 63.623 0 34.7656 28.8086 63.5742 63.5742 63.5742Zm0-9.08203c-30.1758 0-54.4434-24.3164-54.4434-54.4922 0-30.2246 24.2188-54.4922 54.3945-54.4922 30.2246 0 54.541 24.2676 54.541 54.4922 0 30.1758-24.2676 54.4922-54.4922 54.4922Zm-28.8574-54.4922c0 2.58789 1.85547 4.39453 4.58984 4.39453h19.7266v19.7754c0 2.68555 1.85547 4.58984 4.44336 4.58984 2.68555 0 4.54102-1.85547 4.54102-4.58984v-19.7754h19.7754c2.68555 0 4.58984-1.80664 4.58984-4.39453 0-2.73438-1.85547-4.58984-4.58984-4.58984h-19.7754v-19.7266c0-2.73438-1.85547-4.63867-4.54102-4.63867-2.58789 0-4.44336 1.9043-4.44336 4.63867v19.7266h-19.7266c-2.73438 0-4.58984 1.85547-4.58984 4.58984Z"/>
  </g>
  <text style="stroke:none;fill:black;font-family:sans-serif;font-size:13;font-weight:bold;" transform="matrix(1 0 0 1 263 1953)">Design Variations</text>
  <text style="stroke:none;fill:black;font-family:sans-serif;font-size:13;" transform="matrix(1 0 0 1 263 1971)">Symbols are supported in up to nine weights and three scales.</text>
  <text style="stroke:none;fill:black;font-family:sans-serif;font-size:13;" transform="matrix(1 0 0 1 263 1989)">For optimal layout with text and other symbols, vertically align</text>
  <text style="stroke:none;fill:black;font-family:sans-serif;font-size:13;" transform="matrix(1 0 0 1 263 2007)">symbols with the adjacent text.</text>
  <line style="fill:none;stroke:#00AEEF;stroke-width:0.5;opacity:1.0;" x1="776" x2="776" y1="1919" y2="1933"/>
  <g transform="matrix(0.2 0 0 0.2 776 1933)">
   <path d="m16.5527 0.78125c2.58789 0 3.85742-0.976562 4.78516-3.71094l6.29883-17.2363h28.8086l6.29883 17.2363c0.927734 2.73438 2.19727 3.71094 4.73633 3.71094 2.58789 0 4.24805-1.5625 4.24805-4.00391 0-0.830078-0.146484-1.61133-0.537109-2.63672l-22.9004-60.9863c-1.12305-2.97852-3.125-4.49219-6.25-4.49219-3.02734 0-5.07812 1.46484-6.15234 4.44336l-22.9004 61.084c-0.390625 1.02539-0.537109 1.80664-0.537109 2.63672 0 2.44141 1.5625 3.95508 4.10156 3.95508Zm13.4766-28.3691 11.8652-32.8613h0.244141l11.8652 32.8613Z"/>
  </g>
  <line style="fill:none;stroke:#00AEEF;stroke-width:0.5;opacity:1.0;" x1="792.836" x2="792.836" y1="1919" y2="1933"/>
  <text style="stroke:none;fill:black;font-family:sans-serif;font-size:13;font-weight:bold;" transform="matrix(1 0 0 1 776 1953)">Margins</text>
  <text style="stroke:none;fill:black;font-family:sans-serif;font-size:13;" transform="matrix(1 0 0 1 776 1971)">Leading and trailing margins on the left and right side of each symbol</text>
  <text style="stroke:none;fill:black;font-family:sans-serif;font-size:13;" transform="matrix(1 0 0 1 776 1989)">can be adjusted by modifying the x-location of the margin guidelines.</text>
  <text style="stroke:none;fill:black;font-family:sans-serif;font-size:13;" transform="matrix(1 0 0 1 776 2007)">Modifications are automatically applied proportionally to all</text>
  <text style="stroke:none;fill:black;font-family:sans-serif;font-size:13;" transform="matrix(1 0 0 1 776 2025)">scales and weights.</text>
  <g transform="matrix(0.2 0 0 0.2 1289 1933)">
   <path d="m14.209 9.32617 8.49609 8.54492c4.29688 4.3457 9.22852 4.05273 13.8672-1.07422l53.4668-58.9355-4.83398-4.88281-53.0762 58.3984c-1.75781 2.00195-3.41797 2.49023-5.76172 0.146484l-5.85938-5.81055c-2.34375-2.29492-1.80664-4.00391 0.195312-5.81055l57.373-54.0039-4.88281-4.83398-57.959 54.4434c-4.93164 4.58984-5.32227 9.47266-1.02539 13.8184Zm32.0801-90.9668c-2.09961 2.05078-2.24609 4.93164-1.07422 6.88477 1.17188 1.80664 3.4668 2.97852 6.68945 2.14844 7.32422-1.70898 14.9414-2.00195 22.0703 2.68555l-2.92969 7.27539c-1.70898 4.15039-0.830078 7.08008 1.85547 9.81445l11.4746 11.5723c2.44141 2.44141 4.49219 2.53906 7.32422 2.05078l5.32227-0.976562 3.32031 3.36914-0.195312 2.7832c-0.195312 2.49023 0.439453 4.39453 2.88086 6.78711l3.80859 3.71094c2.39258 2.39258 5.46875 2.53906 7.8125 0.195312l14.5508-14.5996c2.34375-2.34375 2.24609-5.32227-0.146484-7.71484l-3.85742-3.80859c-2.39258-2.39258-4.24805-3.17383-6.64062-2.97852l-2.88086 0.244141-3.22266-3.17383 1.2207-5.61523c0.634766-2.83203-0.146484-5.0293-3.07617-7.95898l-10.9863-10.9375c-16.6992-16.6016-38.8672-16.2109-53.3203-1.75781Zm7.4707 1.85547c12.1582-8.88672 28.6133-7.37305 39.7461 3.75977l12.1582 12.0605c1.17188 1.17188 1.36719 2.09961 1.02539 3.80859l-1.61133 7.42188 7.51953 7.42188 4.93164-0.292969c1.26953-0.0488281 1.66016 0.0488281 2.63672 1.02539l2.88086 2.88086-12.207 12.207-2.88086-2.88086c-0.976562-0.976562-1.12305-1.36719-1.07422-2.68555l0.341797-4.88281-7.4707-7.42188-7.61719 1.26953c-1.61133 0.341797-2.34375 0.195312-3.56445-0.976562l-10.0098-10.0098c-1.26953-1.17188-1.41602-2.00195-0.634766-3.85742l4.39453-10.4492c-7.8125-7.27539-17.9688-10.4004-28.125-7.42188-0.78125 0.195312-1.07422-0.439453-0.439453-0.976562Z"/>
  </g>
  <text style="stroke:none;fill:black;font-family:sans-serif;font-size:13;font-weight:bold;" transform="matrix(1 0 0 1 1289 1953)">Exporting</text>
  <text style="stroke:none;fill:black;font-family:sans-serif;font-size:13;" transform="matrix(1 0 0 1 1289 1971)">Symbols should be outlined when exporting to ensure the</text>
  <text style="stroke:none;fill:black;font-family:sans-serif;font-size:13;" transform="matrix(1 0 0 1 1289 1989)">design is preserved when submitting to Xcode.</text>
  <text id="template-version" style="stroke:none;fill:black;font-family:sans-serif;font-size:13;text-anchor:end;" transform="matrix(1 0 0 1 3036 1933)">Template v.5.0</text>
  <text style="stroke:none;fill:black;font-family:sans-serif;font-size:13;text-anchor:end;" transform="matrix(1 0 0 1 3036 1951)">Requires Xcode 15 or greater</text>
  <text id="descriptive-name" style="stroke:none;fill:black;font-family:sans-serif;font-size:13;text-anchor:end;" transform="matrix(1 0 0 1 3036 1969)">Generated from fossil.shell</text>
  <text style="stroke:none;fill:black;font-family:sans-serif;font-size:13;text-anchor:end;" transform="matrix(1 0 0 1 3036 1987)">Typeset at 100.0 points</text>
  <text style="stroke:none;fill:black;font-family:sans-serif;font-size:13;" transform="matrix(1 0 0 1 263 726)">Small</text>
  <text style="stroke:none;fill:black;font-family:sans-serif;font-size:13;" transform="matrix(1 0 0 1 263 1156)">Medium</text>
  <text style="stroke:none;fill:black;font-family:sans-serif;font-size:13;" transform="matrix(1 0 0 1 263 1586)">Large</text>
 </g>
 <g id="Guides">
  <g id="H-reference" style="fill:#27AAE1;stroke:none;" transform="matrix(1 0 0 1 339 696)">
   <path d="M0.993654 0L3.63775 0L29.3281-67.1323L30.0303-67.1323L30.0303-70.459L28.1226-70.459ZM11.6885-24.4799L46.9815-24.4799L46.2315-26.7285L12.4385-26.7285ZM55.1196 0L57.7637 0L30.6382-70.459L29.4326-70.459L29.4326-67.1323Z"/>
  </g>
  <line id="Baseline-S" style="fill:none;stroke:#27AAE1;opacity:1;stroke-width:0.5;" x1="263" x2="3036" y1="696" y2="696"/>
  <line id="Capline-S" style="fill:none;stroke:#27AAE1;opacity:1;stroke-width:0.5;" x1="263" x2="3036" y1="625.541" y2="625.541"/>
  <g id="H-reference" style="fill:#27AAE1;stroke:none;" transform="matrix(1 0 0 1 339 1126)">
   <path d="M0.993654 0L3.63775 0L29.3281-67.1323L30.0303-67.1323L30.0303-70.459L28.1226-70.459ZM11.6885-24.4799L46.9815-24.4799L46.2315-26.7285L12.4385-26.7285ZM55.1196 0L57.7637 0L30.6382-70.459L29.4326-70.459L29.4326-67.1323Z"/>
  </g>
  <line id="Baseline-M" style="fill:none;stroke:#27AAE1;opacity:1;stroke-width:0.5;" x1="263" x2="3036" y1="1126" y2="1126"/>
  <line id="Capline-M" style="fill:none;stroke:#27AAE1;opacity:1;stroke-width:0.5;" x1="263" x2="3036" y1="1055.54" y2="1055.54"/>
  <g id="H-reference" style="fill:#27AAE1;stroke:none;" transform="matrix(1 0 0 1 339 1556)">
   <path d="M0.993654 0L3.63775 0L29.3281-67.1323L30.0303-67.1323L30.0303-70.459L28.1226-70.459ZM11.6885-24.4799L46.9815-24.4799L46.2315-26.7285L12.4385-26.7285ZM55.1196 0L57.7637 0L30.6382-70.459L29.4326-70.459L29.4326-67.1323Z"/>
  </g>
  <line id="Baseline-L" style="fill:none;stroke:#27AAE1;opacity:1;stroke-width:0.5;" x1="263" x2="3036" y1="1556" y2="1556"/>
  <line id="Capline-L" style="fill:none;stroke:#27AAE1;opacity:1;stroke-width:0.5;" x1="263" x2="3036" y1="1485.54" y2="1485.54"/>
  <line id="left-margin-Ultralight-S" style="fill:none;stroke:#00AEEF;stroke-width:0.5;opacity:1.0;" x1="505.064" x2="505.064" y1="600.785" y2="720.121"/>
  <line id="right-margin-Ultralight-S" style="fill:none;stroke:#00AEEF;stroke-width:0.5;opacity:1.0;" x1="614.358" x2="614.358" y1="600.785" y2="720.121"/>
  <line id="left-margin-Regular-S" style="fill:none;stroke:#00AEEF;stroke-width:0.5;opacity:1.0;" x1="1395.08" x2="1395.08" y1="600.785" y2="720.121"/>
  <line id="right-margin-Regular-S" style="fill:none;stroke:#00AEEF;stroke-width:0.5;opacity:1.0;" x1="1504.61" x2="1504.61" y1="600.785" y2="720.121"/>
  <line id="left-margin-Black-S" style="fill:none;stroke:#00AEEF;stroke-width:0.5;opacity:1.0;" x1="2872.49" x2="2872.49" y1="600.785" y2="720.121"/>
  <line id="right-margin-Black-S" style="fill:none;stroke:#00AEEF;stroke-width:0.5;opacity:1.0;" x1="2994.31" x2="2994.31" y1="600.785" y2="720.121"/>
 </g>
 <g id="Symbols">
  <g id="Black-S" transform="matrix(1 0 0 1 2872.49 696)">
   <path class="SFSymbolsPreviewWireframe" d="M58.1055 7.51953C86.9141 7.51953 108.887-12.3535 114.795-38.7207C115.918-43.6035 112.451-47.6562 107.422-47.6562L69.043-47.6562L69.043-35.3027L108.887-35.3027L102.979-41.6504C97.8027-19.6777 80.8105-4.78516 58.1055-4.78516C35.2051-4.78516 19.0918-18.7012 19.0918-38.5254C19.0918-53.7109 30.4688-65.625 44.9219-65.625C55.957-65.625 64.6484-57.5684 64.6484-47.3633C64.6484-37.5977 57.2754-33.0566 51.2695-33.0566C45.8496-33.0566 40.5762-36.8652 40.5762-42.9688C40.5762-47.4609 43.457-50.8789 47.6562-50.8789C50.9766-50.8789 52.832-48.9258 52.832-46.875C52.832-44.9707 51.6602-43.7988 50.1465-43.7988C49.4629-43.7988 48.9746-43.9453 48.2422-44.1895C47.7539-44.3848 47.2656-44.5801 46.4355-44.5801C44.5801-44.5801 43.457-43.1641 43.457-41.4551C43.457-39.0137 45.8984-36.084 50.1953-36.084C55.6641-36.084 60.2051-40.0879 60.2051-46.4355C60.2051-52.9785 54.6387-58.252 47.6562-58.252C39.8438-58.252 32.7148-51.5625 32.7148-42.4805C32.7148-31.5918 41.3574-22.998 52.2461-22.998C70.6055-22.998 76.9043-39.5508 76.9043-47.3633C76.9043-64.4531 62.8418-77.9297 44.9219-77.9297C23.6328-77.9297 6.83594-60.6445 6.83594-38.5254C6.83594-11.4746 28.0273 7.51953 58.1055 7.51953ZM66.8457-67.7246L52.0996-55.2734L56.9824-49.7559L71.6309-62.0117ZM42.5293-75L42.5293-55.6641L49.9023-55.6641L49.9023-75ZM20.6543-64.3555L35.8398-49.1211L40.4785-54.8828L25.8789-69.5801ZM13.9648-39.9902L35.8887-39.9902L35.8887-47.3633L13.9648-47.3633ZM24.2188-11.6699L43.75-31.2012L38.4766-36.4258L18.9453-16.8457ZM47.9492 1.95312L55.3223 1.95312L55.3223-28.9551L47.9492-28.9551ZM84.8145-5.85938L90.0391-11.0352L64.7949-36.4258L59.5215-31.2012Z"/>
  </g>
  <g id="Regular-S" transform="matrix(1 0 0 1 1395.08 696)">
   <path class="SFSymbolsPreviewWireframe" d="M51.4648 2.68555C77.4414 2.68555 97.2168-15.1855 102.539-39.0625C103.223-42.0898 101.221-44.4824 98.0469-44.4824L63.5742-44.4824L63.5742-37.7441L98.7793-37.7441L95.9961-40.0879C90.8203-18.8477 73.5352-3.95508 51.4648-3.95508C28.6133-3.95508 13.4766-18.1152 13.4766-38.3789C13.4766-54.8828 25-66.4551 40.332-66.4551C52.2461-66.4551 60.498-58.8867 60.498-48.0957C60.498-39.1113 55.0781-32.8125 47.2656-32.8125C40.5762-32.8125 36.1328-37.1094 36.1328-42.5293C36.1328-46.875 38.916-50.1465 42.9199-50.1465C46.1426-50.1465 47.9004-48.291 47.9004-45.8496C47.9004-43.9941 46.875-42.7734 45.3125-42.7734C44.043-42.7734 43.6035-43.3594 43.2129-43.9941C42.7734-44.7266 42.1387-45.166 41.0645-45.166C39.7461-45.166 38.3301-44.0918 38.3301-42.1387C38.3301-39.502 40.625-36.0352 45.3125-36.0352C50.4395-36.0352 54.6387-39.8926 54.6387-45.8496C54.6387-51.9531 49.4629-56.8359 42.9199-56.8359C35.5957-56.8359 29.3945-50.5371 29.3945-42.5293C29.3945-33.3496 36.8652-26.123 47.2656-26.123C62.4023-26.123 67.1875-39.7461 67.1875-48.0957C67.1875-62.6953 56.0547-73.0957 40.332-73.0957C21.1914-73.0957 6.83594-58.7402 6.83594-38.3789C6.83594-14.3066 24.707 2.68555 51.4648 2.68555ZM58.8867-66.2109L44.4824-51.7578L47.998-48.291L62.3535-62.6465ZM38.1836-71.8262L38.1836-51.3672L43.0664-51.3672L43.0664-71.8262ZM18.8965-62.7441L33.3984-48.1445L36.9141-51.6602L22.3633-66.2598ZM11.9141-40.5762L32.7148-40.5762L32.7148-45.5566L11.9141-45.5566ZM19.7754-14.3555L36.9141-31.543L33.4473-35.0586L16.2109-17.8223ZM43.3105-1.07422L48.291-1.07422L48.291-28.3691L43.3105-28.3691ZM77.1973-8.78906L80.7129-12.3047L58.1055-34.9609L54.5898-31.4453Z"/>
  </g>
  <g id="Ultralight-S" transform="matrix(1 0 0 1 505.064 696)">
   <path class="SFSymbolsPreviewWireframe" d="M51.147 2.09522C77.4414 2.09522 96.8989-15.5034 102.357-39.9707C102.723-41.5449 101.947-42.4844 100.272-42.4844L63.2109-42.4844L63.2109-40.2871L101.004-40.2871L100.446-40.9507C95.0434-16.5318 75.4878-0.0952452 51.147-0.0952452C26.3428-0.0952452 8.98099-15.981 8.98099-38.5151C8.98099-56.3813 22.4116-70.3149 39.5601-70.3149C52.7456-70.3149 63.041-60.8393 63.041-48.686C63.041-38.3848 55.7139-30.315 46.3574-30.315C38.669-30.315 32.6817-35.8379 32.6817-42.8926C32.6817-48.6914 36.8726-53.2344 42.2388-53.2344C46.7329-53.2344 49.8984-50.3799 49.8984-46.3037C49.8984-43.0405 47.7378-40.6846 44.7676-40.6846C42.3174-40.6846 41.4238-41.8154 40.897-43.0405C40.6846-43.4551 40.4131-43.8037 39.8384-43.8037C39.2466-43.8037 38.7388-43.4106 38.7388-42.6836C38.7388-40.8188 40.8975-38.4873 44.5859-38.4873C48.9409-38.4873 52.0957-41.709 52.0957-46.3037C52.0957-51.6807 47.9644-55.4282 42.2388-55.4282C35.6865-55.4282 30.5298-49.9468 30.5298-42.8926C30.5298-34.6211 37.4556-28.1211 46.3574-28.1211C57.0894-28.1211 65.2349-37.3848 65.2349-48.686C65.2349-62.0596 53.9658-72.5054 39.5601-72.5054C21.1914-72.5054 6.83594-57.5596 6.83594-38.5151C6.83594-14.6699 25.0703 2.09522 51.147 2.09522ZM57.7969-64.5308L47.0254-53.7558L48.4521-52.1963L59.3111-63.0098ZM38.8647-71.5537L38.8647-54.2734L40.9776-54.2734L40.9776-71.5537ZM19.3052-64.1973L33.6255-49.8701L35.0523-51.4331L20.8193-65.6694ZM8.09964-40.0767L31.4434-40.0767L31.4434-42.1509L8.09964-42.1509ZM16.2788-14.1738L35.5972-33.4502L34.1284-34.9224L14.9395-15.7334ZM45.2632 0.197256L47.3828 0.197256L47.3828-28.687L45.2632-28.687ZM79.9219-7.51759L81.394-8.98977L57.3335-33.0537L55.8613-31.5815Z"/>
  </g>
 </g>
</svg>
