<?xml version="1.0" encoding="UTF-8"?>
<!--Generator: Apple Native CoreSVG 232.5-->
<!DOCTYPE svg
PUBLIC "-//W3C//DTD SVG 1.1//EN"
       "http://www.w3.org/Graphics/SVG/1.1/DTD/svg11.dtd">
<svg version="1.1" xmlns="http://www.w3.org/2000/svg" xmlns:xlink="http://www.w3.org/1999/xlink" width="3300" height="2200">
 <!--glyph: "uni101598.medium", point size: 100.0, font version: "19.2d2e1", template writer version: "128"-->
 <style>.SFSymbolsPreviewWireframe {fill:none;opacity:1.0;stroke:black;stroke-width:0.5}
</style>
 <g id="Notes">
  <rect height="2200" id="artboard" style="fill:white;opacity:1" width="3300" x="0" y="0"/>
  <line style="fill:none;stroke:black;opacity:1;stroke-width:0.5;" x1="263" x2="3036" y1="292" y2="292"/>
  <text style="stroke:none;fill:black;font-family:sans-serif;font-size:13;font-weight:bold;" transform="matrix(1 0 0 1 263 322)">Weight/Scale Variations</text>
  <text style="stroke:none;fill:black;font-family:sans-serif;font-size:13;text-anchor:middle;" transform="matrix(1 0 0 1 559.711 322)">Ultralight</text>
  <text style="stroke:none;fill:black;font-family:sans-serif;font-size:13;text-anchor:middle;" transform="matrix(1 0 0 1 856.422 322)">Thin</text>
  <text style="stroke:none;fill:black;font-family:sans-serif;font-size:13;text-anchor:middle;" transform="matrix(1 0 0 1 1153.13 322)">Light</text>
  <text style="stroke:none;fill:black;font-family:sans-serif;font-size:13;text-anchor:middle;" transform="matrix(1 0 0 1 1449.84 322)">Regular</text>
  <text style="stroke:none;fill:black;font-family:sans-serif;font-size:13;text-anchor:middle;" transform="matrix(1 0 0 1 1746.56 322)">Medium</text>
  <text style="stroke:none;fill:black;font-family:sans-serif;font-size:13;text-anchor:middle;" transform="matrix(1 0 0 1 2043.27 322)">Semibold</text>
  <text style="stroke:none;fill:black;font-family:sans-serif;font-size:13;text-anchor:middle;" transform="matrix(1 0 0 1 2339.98 322)">Bold</text>
  <text style="stroke:none;fill:black;font-family:sans-serif;font-size:13;text-anchor:middle;" transform="matrix(1 0 0 1 2636.69 322)">Heavy</text>
  <text style="stroke:none;fill:black;font-family:sans-serif;font-size:13;text-anchor:middle;" transform="matrix(1 0 0 1 2933.4 322)">Black</text>
  <line style="fill:none;stroke:black;opacity:1;stroke-width:0.5;" x1="263" x2="3036" y1="1903" y2="1903"/>
  <g transform="matrix(0.2 0 0 0.2 263 1933)">
   <path d="m46.2402 4.15039c21.5332 0 39.4531-17.8711 39.4531-39.4043s-17.9688-39.4043-39.502-39.4043c-21.4844 0-39.3555 17.8711-39.3555 39.4043s17.9199 39.4043 39.4043 39.4043Zm0-7.42188c-17.7246 0-31.8848-14.209-31.8848-31.9824s14.1113-31.9824 31.8359-31.9824c17.7734 0 32.0312 14.209 32.0312 31.9824s-14.209 31.9824-31.9824 31.9824Zm-17.9688-31.9824c0 2.14844 1.51367 3.61328 3.75977 3.61328h10.498v10.5957c0 2.19727 1.46484 3.71094 3.61328 3.71094 2.24609 0 3.71094-1.51367 3.71094-3.71094v-10.5957h10.5957c2.19727 0 3.71094-1.46484 3.71094-3.61328 0-2.19727-1.51367-3.71094-3.71094-3.71094h-10.5957v-10.5469c0-2.24609-1.46484-3.75977-3.71094-3.75977-2.14844 0-3.61328 1.51367-3.61328 3.75977v10.5469h-10.498c-2.24609 0-3.75977 1.51367-3.75977 3.71094Z"/>
  </g>
  <g transform="matrix(0.2 0 0 0.2 281.506 1933)">
   <path d="m58.5449 14.5508c27.2461 0 49.8047-22.6074 49.8047-49.8047 0-27.2461-22.6074-49.8047-49.8535-49.8047-27.1973 0-49.7559 22.5586-49.7559 49.8047 0 27.1973 22.6074 49.8047 49.8047 49.8047Zm0-8.30078c-23.0469 0-41.4551-18.457-41.4551-41.5039s18.3594-41.5039 41.4062-41.5039 41.5527 18.457 41.5527 41.5039-18.457 41.5039-41.5039 41.5039Zm-22.6562-41.5039c0 2.39258 1.66016 4.00391 4.15039 4.00391h14.3555v14.4043c0 2.44141 1.66016 4.15039 4.05273 4.15039 2.44141 0 4.15039-1.66016 4.15039-4.15039v-14.4043h14.4043c2.44141 0 4.15039-1.61133 4.15039-4.00391 0-2.44141-1.70898-4.15039-4.15039-4.15039h-14.4043v-14.3555c0-2.49023-1.70898-4.19922-4.15039-4.19922-2.39258 0-4.05273 1.70898-4.05273 4.19922v14.3555h-14.3555c-2.49023 0-4.15039 1.70898-4.15039 4.15039Z"/>
  </g>
  <g transform="matrix(0.2 0 0 0.2 304.924 1933)">
   <path d="m74.8535 28.3203c34.8145 0 63.623-28.8086 63.623-63.5742 0-34.8145-28.8574-63.623-63.6719-63.623-34.7656 0-63.5254 28.8086-63.5254 63.623 0 34.7656 28.8086 63.5742 63.5742 63.5742Zm0-9.08203c-30.1758 0-54.4434-24.3164-54.4434-54.4922 0-30.2246 24.2188-54.4922 54.3945-54.4922 30.2246 0 54.541 24.2676 54.541 54.4922 0 30.1758-24.2676 54.4922-54.4922 54.4922Zm-28.8574-54.4922c0 2.58789 1.85547 4.39453 4.58984 4.39453h19.7266v19.7754c0 2.68555 1.85547 4.58984 4.44336 4.58984 2.68555 0 4.54102-1.85547 4.54102-4.58984v-19.7754h19.7754c2.68555 0 4.58984-1.80664 4.58984-4.39453 0-2.73438-1.85547-4.58984-4.58984-4.58984h-19.7754v-19.7266c0-2.73438-1.85547-4.63867-4.54102-4.63867-2.58789 0-4.44336 1.9043-4.44336 4.63867v19.7266h-19.7266c-2.73438 0-4.58984 1.85547-4.58984 4.58984Z"/>
  </g>
  <text style="stroke:none;fill:black;font-family:sans-serif;font-size:13;font-weight:bold;" transform="matrix(1 0 0 1 263 1953)">Design Variations</text>
  <text style="stroke:none;fill:black;font-family:sans-serif;font-size:13;" transform="matrix(1 0 0 1 263 1971)">Symbols are supported in up to nine weights and three scales.</text>
  <text style="stroke:none;fill:black;font-family:sans-serif;font-size:13;" transform="matrix(1 0 0 1 263 1989)">For optimal layout with text and other symbols, vertically align</text>
  <text style="stroke:none;fill:black;font-family:sans-serif;font-size:13;" transform="matrix(1 0 0 1 263 2007)">symbols with the adjacent text.</text>
  <line style="fill:none;stroke:#00AEEF;stroke-width:0.5;opacity:1.0;" x1="776" x2="776" y1="1919" y2="1933"/>
  <g transform="matrix(0.2 0 0 0.2 776 1933)">
   <path d="m16.5527 0.78125c2.58789 0 3.85742-0.976562 4.78516-3.71094l6.29883-17.2363h28.8086l6.29883 17.2363c0.927734 2.73438 2.19727 3.71094 4.73633 3.71094 2.58789 0 4.24805-1.5625 4.24805-4.00391 0-0.830078-0.146484-1.61133-0.537109-2.63672l-22.9004-60.9863c-1.12305-2.97852-3.125-4.49219-6.25-4.49219-3.02734 0-5.07812 1.46484-6.15234 4.44336l-22.9004 61.084c-0.390625 1.02539-0.537109 1.80664-0.537109 2.63672 0 2.44141 1.5625 3.95508 4.10156 3.95508Zm13.4766-28.3691 11.8652-32.8613h0.244141l11.8652 32.8613Z"/>
  </g>
  <line style="fill:none;stroke:#00AEEF;stroke-width:0.5;opacity:1.0;" x1="792.836" x2="792.836" y1="1919" y2="1933"/>
  <text style="stroke:none;fill:black;font-family:sans-serif;font-size:13;font-weight:bold;" transform="matrix(1 0 0 1 776 1953)">Margins</text>
  <text style="stroke:none;fill:black;font-family:sans-serif;font-size:13;" transform="matrix(1 0 0 1 776 1971)">Leading and trailing margins on the left and right side of each symbol</text>
  <text style="stroke:none;fill:black;font-family:sans-serif;font-size:13;" transform="matrix(1 0 0 1 776 1989)">can be adjusted by modifying the x-location of the margin guidelines.</text>
  <text style="stroke:none;fill:black;font-family:sans-serif;font-size:13;" transform="matrix(1 0 0 1 776 2007)">Modifications are automatically applied proportionally to all</text>
  <text style="stroke:none;fill:black;font-family:sans-serif;font-size:13;" transform="matrix(1 0 0 1 776 2025)">scales and weights.</text>
  <g transform="matrix(0.2 0 0 0.2 1289 1933)">
   <path d="m14.209 9.32617 8.49609 8.54492c4.29688 4.3457 9.22852 4.05273 13.8672-1.07422l53.4668-58.9355-4.83398-4.88281-53.0762 58.3984c-1.75781 2.00195-3.41797 2.49023-5.76172 0.146484l-5.85938-5.81055c-2.34375-2.29492-1.80664-4.00391 0.195312-5.81055l57.373-54.0039-4.88281-4.83398-57.959 54.4434c-4.93164 4.58984-5.32227 9.47266-1.02539 13.8184Zm32.0801-90.9668c-2.09961 2.05078-2.24609 4.93164-1.07422 6.88477 1.17188 1.80664 3.4668 2.97852 6.68945 2.14844 7.32422-1.70898 14.9414-2.00195 22.0703 2.68555l-2.92969 7.27539c-1.70898 4.15039-0.830078 7.08008 1.85547 9.81445l11.4746 11.5723c2.44141 2.44141 4.49219 2.53906 7.32422 2.05078l5.32227-0.976562 3.32031 3.36914-0.195312 2.7832c-0.195312 2.49023 0.439453 4.39453 2.88086 6.78711l3.80859 3.71094c2.39258 2.39258 5.46875 2.53906 7.8125 0.195312l14.5508-14.5996c2.34375-2.34375 2.24609-5.32227-0.146484-7.71484l-3.85742-3.80859c-2.39258-2.39258-4.24805-3.17383-6.64062-2.97852l-2.88086 0.244141-3.22266-3.17383 1.2207-5.61523c0.634766-2.83203-0.146484-5.0293-3.07617-7.95898l-10.9863-10.9375c-16.6992-16.6016-38.8672-16.2109-53.3203-1.75781Zm7.4707 1.85547c12.1582-8.88672 28.6133-7.37305 39.7461 3.75977l12.1582 12.0605c1.17188 1.17188 1.36719 2.09961 1.02539 3.80859l-1.61133 7.42188 7.51953 7.42188 4.93164-0.292969c1.26953-0.0488281 1.66016 0.0488281 2.63672 1.02539l2.88086 2.88086-12.207 12.207-2.88086-2.88086c-0.976562-0.976562-1.12305-1.36719-1.07422-2.68555l0.341797-4.88281-7.4707-7.42188-7.61719 1.26953c-1.61133 0.341797-2.34375 0.195312-3.56445-0.976562l-10.0098-10.0098c-1.26953-1.17188-1.41602-2.00195-0.634766-3.85742l4.39453-10.4492c-7.8125-7.27539-17.9688-10.4004-28.125-7.42188-0.78125 0.195312-1.07422-0.439453-0.439453-0.976562Z"/>
  </g>
  <text style="stroke:none;fill:black;font-family:sans-serif;font-size:13;font-weight:bold;" transform="matrix(1 0 0 1 1289 1953)">Exporting</text>
  <text style="stroke:none;fill:black;font-family:sans-serif;font-size:13;" transform="matrix(1 0 0 1 1289 1971)">Symbols should be outlined when exporting to ensure the</text>
  <text style="stroke:none;fill:black;font-family:sans-serif;font-size:13;" transform="matrix(1 0 0 1 1289 1989)">design is preserved when submitting to Xcode.</text>
  <text id="template-version" style="stroke:none;fill:black;font-family:sans-serif;font-size:13;text-anchor:end;" transform="matrix(1 0 0 1 3036 1933)">Template v.5.0</text>
  <text style="stroke:none;fill:black;font-family:sans-serif;font-size:13;text-anchor:end;" transform="matrix(1 0 0 1 3036 1951)">Requires Xcode 15 or greater</text>
  <text id="descriptive-name" style="stroke:none;fill:black;font-family:sans-serif;font-size:13;text-anchor:end;" transform="matrix(1 0 0 1 3036 1969)">Generated from gauge.open.with.lines.needle.84percent.exclamation</text>
  <text style="stroke:none;fill:black;font-family:sans-serif;font-size:13;text-anchor:end;" transform="matrix(1 0 0 1 3036 1987)">Typeset at 100.0 points</text>
  <text style="stroke:none;fill:black;font-family:sans-serif;font-size:13;" transform="matrix(1 0 0 1 263 726)">Small</text>
  <text style="stroke:none;fill:black;font-family:sans-serif;font-size:13;" transform="matrix(1 0 0 1 263 1156)">Medium</text>
  <text style="stroke:none;fill:black;font-family:sans-serif;font-size:13;" transform="matrix(1 0 0 1 263 1586)">Large</text>
 </g>
 <g id="Guides">
  <g id="H-reference" style="fill:#27AAE1;stroke:none;" transform="matrix(1 0 0 1 339 696)">
   <path d="M0.993654 0L3.63775 0L29.3281-67.1323L30.0303-67.1323L30.0303-70.459L28.1226-70.459ZM11.6885-24.4799L46.9815-24.4799L46.2315-26.7285L12.4385-26.7285ZM55.1196 0L57.7637 0L30.6382-70.459L29.4326-70.459L29.4326-67.1323Z"/>
  </g>
  <line id="Baseline-S" style="fill:none;stroke:#27AAE1;opacity:1;stroke-width:0.5;" x1="263" x2="3036" y1="696" y2="696"/>
  <line id="Capline-S" style="fill:none;stroke:#27AAE1;opacity:1;stroke-width:0.5;" x1="263" x2="3036" y1="625.541" y2="625.541"/>
  <g id="H-reference" style="fill:#27AAE1;stroke:none;" transform="matrix(1 0 0 1 339 1126)">
   <path d="M0.993654 0L3.63775 0L29.3281-67.1323L30.0303-67.1323L30.0303-70.459L28.1226-70.459ZM11.6885-24.4799L46.9815-24.4799L46.2315-26.7285L12.4385-26.7285ZM55.1196 0L57.7637 0L30.6382-70.459L29.4326-70.459L29.4326-67.1323Z"/>
  </g>
  <line id="Baseline-M" style="fill:none;stroke:#27AAE1;opacity:1;stroke-width:0.5;" x1="263" x2="3036" y1="1126" y2="1126"/>
  <line id="Capline-M" style="fill:none;stroke:#27AAE1;opacity:1;stroke-width:0.5;" x1="263" x2="3036" y1="1055.54" y2="1055.54"/>
  <g id="H-reference" style="fill:#27AAE1;stroke:none;" transform="matrix(1 0 0 1 339 1556)">
   <path d="M0.993654 0L3.63775 0L29.3281-67.1323L30.0303-67.1323L30.0303-70.459L28.1226-70.459ZM11.6885-24.4799L46.9815-24.4799L46.2315-26.7285L12.4385-26.7285ZM55.1196 0L57.7637 0L30.6382-70.459L29.4326-70.459L29.4326-67.1323Z"/>
  </g>
  <line id="Baseline-L" style="fill:none;stroke:#27AAE1;opacity:1;stroke-width:0.5;" x1="263" x2="3036" y1="1556" y2="1556"/>
  <line id="Capline-L" style="fill:none;stroke:#27AAE1;opacity:1;stroke-width:0.5;" x1="263" x2="3036" y1="1485.54" y2="1485.54"/>
  <line id="left-margin-Ultralight-S" style="fill:none;stroke:#00AEEF;stroke-width:0.5;opacity:1.0;" x1="506.047" x2="506.047" y1="600.785" y2="720.121"/>
  <line id="right-margin-Ultralight-S" style="fill:none;stroke:#00AEEF;stroke-width:0.5;opacity:1.0;" x1="613.375" x2="613.375" y1="600.785" y2="720.121"/>
  <line id="left-margin-Regular-S" style="fill:none;stroke:#00AEEF;stroke-width:0.5;opacity:1.0;" x1="1390.64" x2="1390.64" y1="600.785" y2="720.121"/>
  <line id="right-margin-Regular-S" style="fill:none;stroke:#00AEEF;stroke-width:0.5;opacity:1.0;" x1="1509.05" x2="1509.05" y1="600.785" y2="720.121"/>
  <line id="left-margin-Black-S" style="fill:none;stroke:#00AEEF;stroke-width:0.5;opacity:1.0;" x1="2868.53" x2="2868.53" y1="600.785" y2="720.121"/>
  <line id="right-margin-Black-S" style="fill:none;stroke:#00AEEF;stroke-width:0.5;opacity:1.0;" x1="2998.27" x2="2998.27" y1="600.785" y2="720.121"/>
 </g>
 <g id="Symbols">
  <g id="Black-S" transform="matrix(1 0 0 1 2868.53 696)">
   <path class="SFSymbolsPreviewWireframe" d="M6.83594-29.9316C6.83594-19.1406 10.9375-9.27734 17.627-1.85547C20.5566 1.41602 25.2441 0.488281 27.4414-1.70898L35.8398-10.1074C37.7441-12.0117 37.7441-15.0879 35.8398-16.9922C33.9355-18.8965 30.8594-18.8965 28.9551-16.9922L25.9766-14.0137C22.8516-18.5547 20.9961-24.0234 20.9961-29.9805C20.9961-45.3125 33.4473-57.7637 48.8281-57.7637C64.209-57.7637 76.6602-45.3125 76.6602-29.9805C76.6602-24.0234 74.8047-18.5547 71.6797-14.0137L68.7012-16.9922C66.7969-18.8965 63.7207-18.8965 61.8164-16.9922C59.9121-15.0879 59.9121-12.0117 61.8164-10.1074L70.2148-1.70898C72.4121 0.488281 77.0996 1.41602 80.0293-1.85547C86.7188-9.27734 90.8203-19.1406 90.8203-29.9316C90.8203-53.0762 71.9727-71.9238 48.8281-71.9238C25.6836-71.9238 6.83594-53.0762 6.83594-29.9316ZM25.5859-34.8633L19.5312-34.8633L19.5312-25.0977L25.5859-25.0977C28.2715-25.0977 30.4688-27.2949 30.4688-29.9805C30.4688-32.666 28.2715-34.8633 25.5859-34.8633ZM35.8398-49.8535L31.543-54.1504L24.6582-47.2656L28.9551-42.9688C30.8594-41.0645 33.9355-41.0645 35.8398-42.9688C37.7441-44.873 37.7441-47.9492 35.8398-49.8535ZM53.7109-52.6855L53.7109-58.7402L43.9453-58.7402L43.9453-52.6855C43.9453-50 46.1426-47.8027 48.8281-47.8027C51.5137-47.8027 53.7109-50 53.7109-52.6855ZM61.8164-49.8535C59.9121-47.9492 59.9121-44.873 61.8164-42.9688C63.7207-41.0645 66.7969-41.0645 68.7012-42.9688L72.998-47.2656L66.1133-54.1504ZM40.2832-29.9805C40.2832-25.7812 43.6523-22.4121 47.8516-22.4121C48.4375-22.4121 49.6582-22.6074 51.7578-23.0957L66.6992-26.5625C68.6035-27.002 69.6777-28.2227 69.6777-29.9805C69.6777-31.7383 68.6035-32.959 66.6992-33.3984L51.7578-36.8652C49.6582-37.3535 48.4375-37.5488 47.8516-37.5488C43.6523-37.5488 40.2832-34.1797 40.2832-29.9805ZM111.768-9.13086C116.699-9.13086 119.971-12.1582 119.971-16.6992C119.971-21.1914 116.699-24.2188 111.768-24.2188C106.738-24.2188 103.369-21.1914 103.369-16.6992C103.369-12.1582 106.738-9.13086 111.768-9.13086ZM111.768-28.6621C116.064-28.6621 118.701-31.0547 118.896-35.498L119.727-53.5156C119.922-58.252 116.748-61.4258 111.67-61.4258C106.543-61.4258 103.32-58.252 103.564-53.5156L104.492-35.3516C104.688-31.0547 107.373-28.6621 111.768-28.6621Z"/>
  </g>
  <g id="Regular-S" transform="matrix(1 0 0 1 1390.64 696)">
   <path class="SFSymbolsPreviewWireframe" d="M6.83594-29.9805C6.83594-19.9707 10.6934-10.7422 16.9922-3.75977C18.9453-1.61133 22.3633-1.12305 24.9512-3.66211L29.7363-8.44727C31.1035-9.76562 31.1035-12.0605 29.7363-13.3789C28.3691-14.7461 26.123-14.7461 24.7559-13.3789L21.3379-9.96094C16.9434-15.4297 14.3555-22.3633 14.3555-29.9805C14.3555-47.7539 28.4668-61.9629 46.1914-61.9629C63.9648-61.9629 78.0762-47.7539 78.0762-29.9805C78.0762-22.3633 75.4883-15.4297 71.0938-9.96094L67.6758-13.3789C66.3086-14.7461 64.0625-14.7461 62.6953-13.3789C61.3281-12.0605 61.3281-9.76562 62.6953-8.44727L67.4805-3.66211C70.0684-1.12305 73.4863-1.61133 75.3906-3.75977C81.7383-10.7422 85.5957-19.9707 85.5957-29.9805C85.5957-51.5137 67.7246-69.3848 46.1914-69.3848C24.707-69.3848 6.83594-51.5137 6.83594-29.9805ZM19.3359-33.4961L10.5957-33.4961L10.5957-26.4648L19.3359-26.4648C21.2402-26.4648 22.8516-28.0762 22.8516-29.9805C22.8516-31.8848 21.2402-33.4961 19.3359-33.4961ZM29.5898-51.5625L23.3887-57.7148L18.4082-52.7344L24.6094-46.582C25.9766-45.2148 28.2227-45.2148 29.5898-46.582C30.957-47.9492 30.957-50.1953 29.5898-51.5625ZM49.7559-56.9824L49.7559-65.7227L42.6758-65.7227L42.6758-56.9824C42.6758-55.0293 44.2871-53.418 46.1914-53.418C48.1445-53.418 49.7559-55.0293 49.7559-56.9824ZM62.8418-51.5625C61.4746-50.1953 61.4746-47.9492 62.8418-46.582C64.209-45.2148 66.4551-45.2148 67.8223-46.582L74.0234-52.7344L69.043-57.7148ZM39.4043-29.9316C39.4043-26.1719 42.0898-23.4863 45.8984-23.4863C46.6309-23.4863 47.998-23.6816 48.8281-23.8281L70.7031-27.9785C71.9238-28.2227 72.5098-29.0527 72.5098-29.9316C72.5098-30.8105 71.9238-31.6406 70.7031-31.8848L48.8281-36.0352C47.998-36.1816 46.6309-36.4258 45.8984-36.4258C42.0898-36.4258 39.4043-33.7402 39.4043-29.9316ZM103.125-8.88672C106.104-8.88672 108.643-11.3281 108.643-14.1602C108.643-17.0898 106.152-19.4336 103.125-19.4336C100.098-19.4336 97.6074-17.0898 97.6074-14.1602C97.6074-11.3281 100.146-8.88672 103.125-8.88672ZM103.125-26.3184C105.273-26.3184 106.787-27.832 106.885-30.0781L107.812-56.9824C107.91-59.7656 106.006-61.6699 103.125-61.6699C100.195-61.6699 98.3398-59.7656 98.4375-56.9824L99.3652-30.0781C99.4629-27.832 100.977-26.3184 103.125-26.3184Z"/>
  </g>
  <g id="Ultralight-S" transform="matrix(1 0 0 1 506.047 696)">
   <path class="SFSymbolsPreviewWireframe" d="M6.83594-30.0259C6.83594-19.9707 10.875-10.7876 17.4009-4.03222C18.0371-3.42772 18.8213-3.25731 19.6382-4.0708L27.8291-12.2163C28.2881-12.581 28.2427-13.3774 27.8291-13.7876C27.4155-14.2012 26.6226-14.2466 26.2544-13.7876L18.5679-6.05569C12.6748-12.3872 9.04252-20.7285 9.04252-30.0259C9.04252-49.3432 24.7432-65.0053 44.0571-65.0053C63.3745-65.0053 79.0298-49.3432 79.0298-30.0259C79.0298-20.7285 75.4429-12.3872 69.5498-6.05569L61.8633-13.7876C61.4952-14.2466 60.7022-14.2012 60.2886-13.7876C59.875-13.3774 59.8296-12.581 60.2886-12.2163L68.4341-4.0708C69.2964-3.25731 70.0806-3.42772 70.7134-4.03222C77.2427-10.7876 81.2818-19.9707 81.2818-30.0259C81.2818-50.5147 64.5005-67.2505 44.0571-67.2505C23.5718-67.2505 6.83594-50.5147 6.83594-30.0259ZM19.9717-31.1348L7.96193-31.1348L7.96193-28.917L19.9717-28.917C20.6045-28.917 21.0806-29.4385 21.0806-30.0259C21.0806-30.6133 20.6045-31.1348 19.9717-31.1348ZM27.8189-47.8389L19.3018-56.3071L17.7725-54.7778L26.2441-46.2642C26.6123-45.8052 27.4053-45.8506 27.8189-46.2642C28.2324-46.6777 28.2779-47.4707 27.8189-47.8389ZM45.1695-54.1216L45.1695-66.1313L42.9482-66.1313L42.9482-54.1216C42.9482-53.4854 43.4697-53.0093 44.0571-53.0093C44.648-53.0093 45.1695-53.4854 45.1695-54.1216ZM60.2988-47.8389C59.8399-47.4707 59.8853-46.6777 60.2988-46.2642C60.7124-45.8506 61.5054-45.8052 61.8736-46.2642L70.3452-54.7778L68.8159-56.3071ZM39.6313-30.0225C39.6313-27.5796 41.5903-25.6206 44.0366-25.6206C44.3604-25.6206 44.9556-25.6797 45.3316-25.7353L68.9776-29.1138C69.4717-29.1309 69.8306-29.4614 69.8306-30.0225C69.8306-30.5835 69.4717-30.9141 68.9776-30.9766L45.3316-34.3096C44.9556-34.3652 44.3604-34.4278 44.0366-34.4278C41.5903-34.4278 39.6313-32.4688 39.6313-30.0225ZM94.7242-12.5649C96.2496-12.5649 97.5626-13.8711 97.5626-15.3862C97.5626-16.9536 96.253-18.1621 94.7242-18.1621C93.15-18.1621 91.8858-16.9536 91.8858-15.3862C91.8858-13.8711 93.1988-12.5649 94.7242-12.5649ZM94.7242-27.5444C95.3287-27.5444 95.8433-28.0137 95.8502-28.625L96.006-56.71C96.0128-57.4951 95.5162-57.9917 94.7242-57.9917C93.9288-57.9917 93.4356-57.4951 93.4424-56.71L93.5982-28.625C93.605-28.0137 94.1197-27.5444 94.7242-27.5444Z"/>
  </g>
 </g>
</svg>
