<?xml version="1.0" encoding="UTF-8"?>
<!--Generator: Apple Native CoreSVG 232.5-->
<!DOCTYPE svg
PUBLIC "-//W3C//DTD SVG 1.1//EN"
       "http://www.w3.org/Graphics/SVG/1.1/DTD/svg11.dtd">
<svg version="1.1" xmlns="http://www.w3.org/2000/svg" xmlns:xlink="http://www.w3.org/1999/xlink" width="3300" height="2200">
 <!--glyph: "uni100EBA.medium", point size: 100.0, font version: "19.2d2e1", template writer version: "128"-->
 <style>.SFSymbolsPreviewWireframe {fill:none;opacity:1.0;stroke:black;stroke-width:0.5}
</style>
 <g id="Notes">
  <rect height="2200" id="artboard" style="fill:white;opacity:1" width="3300" x="0" y="0"/>
  <line style="fill:none;stroke:black;opacity:1;stroke-width:0.5;" x1="263" x2="3036" y1="292" y2="292"/>
  <text style="stroke:none;fill:black;font-family:sans-serif;font-size:13;font-weight:bold;" transform="matrix(1 0 0 1 263 322)">Weight/Scale Variations</text>
  <text style="stroke:none;fill:black;font-family:sans-serif;font-size:13;text-anchor:middle;" transform="matrix(1 0 0 1 559.711 322)">Ultralight</text>
  <text style="stroke:none;fill:black;font-family:sans-serif;font-size:13;text-anchor:middle;" transform="matrix(1 0 0 1 856.422 322)">Thin</text>
  <text style="stroke:none;fill:black;font-family:sans-serif;font-size:13;text-anchor:middle;" transform="matrix(1 0 0 1 1153.13 322)">Light</text>
  <text style="stroke:none;fill:black;font-family:sans-serif;font-size:13;text-anchor:middle;" transform="matrix(1 0 0 1 1449.84 322)">Regular</text>
  <text style="stroke:none;fill:black;font-family:sans-serif;font-size:13;text-anchor:middle;" transform="matrix(1 0 0 1 1746.56 322)">Medium</text>
  <text style="stroke:none;fill:black;font-family:sans-serif;font-size:13;text-anchor:middle;" transform="matrix(1 0 0 1 2043.27 322)">Semibold</text>
  <text style="stroke:none;fill:black;font-family:sans-serif;font-size:13;text-anchor:middle;" transform="matrix(1 0 0 1 2339.98 322)">Bold</text>
  <text style="stroke:none;fill:black;font-family:sans-serif;font-size:13;text-anchor:middle;" transform="matrix(1 0 0 1 2636.69 322)">Heavy</text>
  <text style="stroke:none;fill:black;font-family:sans-serif;font-size:13;text-anchor:middle;" transform="matrix(1 0 0 1 2933.4 322)">Black</text>
  <line style="fill:none;stroke:black;opacity:1;stroke-width:0.5;" x1="263" x2="3036" y1="1903" y2="1903"/>
  <g transform="matrix(0.2 0 0 0.2 263 1933)">
   <path d="m46.2402 4.15039c21.5332 0 39.4531-17.8711 39.4531-39.4043s-17.9688-39.4043-39.502-39.4043c-21.4844 0-39.3555 17.8711-39.3555 39.4043s17.9199 39.4043 39.4043 39.4043Zm0-7.42188c-17.7246 0-31.8848-14.209-31.8848-31.9824s14.1113-31.9824 31.8359-31.9824c17.7734 0 32.0312 14.209 32.0312 31.9824s-14.209 31.9824-31.9824 31.9824Zm-17.9688-31.9824c0 2.14844 1.51367 3.61328 3.75977 3.61328h10.498v10.5957c0 2.19727 1.46484 3.71094 3.61328 3.71094 2.24609 0 3.71094-1.51367 3.71094-3.71094v-10.5957h10.5957c2.19727 0 3.71094-1.46484 3.71094-3.61328 0-2.19727-1.51367-3.71094-3.71094-3.71094h-10.5957v-10.5469c0-2.24609-1.46484-3.75977-3.71094-3.75977-2.14844 0-3.61328 1.51367-3.61328 3.75977v10.5469h-10.498c-2.24609 0-3.75977 1.51367-3.75977 3.71094Z"/>
  </g>
  <g transform="matrix(0.2 0 0 0.2 281.506 1933)">
   <path d="m58.5449 14.5508c27.2461 0 49.8047-22.6074 49.8047-49.8047 0-27.2461-22.6074-49.8047-49.8535-49.8047-27.1973 0-49.7559 22.5586-49.7559 49.8047 0 27.1973 22.6074 49.8047 49.8047 49.8047Zm0-8.30078c-23.0469 0-41.4551-18.457-41.4551-41.5039s18.3594-41.5039 41.4062-41.5039 41.5527 18.457 41.5527 41.5039-18.457 41.5039-41.5039 41.5039Zm-22.6562-41.5039c0 2.39258 1.66016 4.00391 4.15039 4.00391h14.3555v14.4043c0 2.44141 1.66016 4.15039 4.05273 4.15039 2.44141 0 4.15039-1.66016 4.15039-4.15039v-14.4043h14.4043c2.44141 0 4.15039-1.61133 4.15039-4.00391 0-2.44141-1.70898-4.15039-4.15039-4.15039h-14.4043v-14.3555c0-2.49023-1.70898-4.19922-4.15039-4.19922-2.39258 0-4.05273 1.70898-4.05273 4.19922v14.3555h-14.3555c-2.49023 0-4.15039 1.70898-4.15039 4.15039Z"/>
  </g>
  <g transform="matrix(0.2 0 0 0.2 304.924 1933)">
   <path d="m74.8535 28.3203c34.8145 0 63.623-28.8086 63.623-63.5742 0-34.8145-28.8574-63.623-63.6719-63.623-34.7656 0-63.5254 28.8086-63.5254 63.623 0 34.7656 28.8086 63.5742 63.5742 63.5742Zm0-9.08203c-30.1758 0-54.4434-24.3164-54.4434-54.4922 0-30.2246 24.2188-54.4922 54.3945-54.4922 30.2246 0 54.541 24.2676 54.541 54.4922 0 30.1758-24.2676 54.4922-54.4922 54.4922Zm-28.8574-54.4922c0 2.58789 1.85547 4.39453 4.58984 4.39453h19.7266v19.7754c0 2.68555 1.85547 4.58984 4.44336 4.58984 2.68555 0 4.54102-1.85547 4.54102-4.58984v-19.7754h19.7754c2.68555 0 4.58984-1.80664 4.58984-4.39453 0-2.73438-1.85547-4.58984-4.58984-4.58984h-19.7754v-19.7266c0-2.73438-1.85547-4.63867-4.54102-4.63867-2.58789 0-4.44336 1.9043-4.44336 4.63867v19.7266h-19.7266c-2.73438 0-4.58984 1.85547-4.58984 4.58984Z"/>
  </g>
  <text style="stroke:none;fill:black;font-family:sans-serif;font-size:13;font-weight:bold;" transform="matrix(1 0 0 1 263 1953)">Design Variations</text>
  <text style="stroke:none;fill:black;font-family:sans-serif;font-size:13;" transform="matrix(1 0 0 1 263 1971)">Symbols are supported in up to nine weights and three scales.</text>
  <text style="stroke:none;fill:black;font-family:sans-serif;font-size:13;" transform="matrix(1 0 0 1 263 1989)">For optimal layout with text and other symbols, vertically align</text>
  <text style="stroke:none;fill:black;font-family:sans-serif;font-size:13;" transform="matrix(1 0 0 1 263 2007)">symbols with the adjacent text.</text>
  <line style="fill:none;stroke:#00AEEF;stroke-width:0.5;opacity:1.0;" x1="776" x2="776" y1="1919" y2="1933"/>
  <g transform="matrix(0.2 0 0 0.2 776 1933)">
   <path d="m16.5527 0.78125c2.58789 0 3.85742-0.976562 4.78516-3.71094l6.29883-17.2363h28.8086l6.29883 17.2363c0.927734 2.73438 2.19727 3.71094 4.73633 3.71094 2.58789 0 4.24805-1.5625 4.24805-4.00391 0-0.830078-0.146484-1.61133-0.537109-2.63672l-22.9004-60.9863c-1.12305-2.97852-3.125-4.49219-6.25-4.49219-3.02734 0-5.07812 1.46484-6.15234 4.44336l-22.9004 61.084c-0.390625 1.02539-0.537109 1.80664-0.537109 2.63672 0 2.44141 1.5625 3.95508 4.10156 3.95508Zm13.4766-28.3691 11.8652-32.8613h0.244141l11.8652 32.8613Z"/>
  </g>
  <line style="fill:none;stroke:#00AEEF;stroke-width:0.5;opacity:1.0;" x1="792.836" x2="792.836" y1="1919" y2="1933"/>
  <text style="stroke:none;fill:black;font-family:sans-serif;font-size:13;font-weight:bold;" transform="matrix(1 0 0 1 776 1953)">Margins</text>
  <text style="stroke:none;fill:black;font-family:sans-serif;font-size:13;" transform="matrix(1 0 0 1 776 1971)">Leading and trailing margins on the left and right side of each symbol</text>
  <text style="stroke:none;fill:black;font-family:sans-serif;font-size:13;" transform="matrix(1 0 0 1 776 1989)">can be adjusted by modifying the x-location of the margin guidelines.</text>
  <text style="stroke:none;fill:black;font-family:sans-serif;font-size:13;" transform="matrix(1 0 0 1 776 2007)">Modifications are automatically applied proportionally to all</text>
  <text style="stroke:none;fill:black;font-family:sans-serif;font-size:13;" transform="matrix(1 0 0 1 776 2025)">scales and weights.</text>
  <g transform="matrix(0.2 0 0 0.2 1289 1933)">
   <path d="m14.209 9.32617 8.49609 8.54492c4.29688 4.3457 9.22852 4.05273 13.8672-1.07422l53.4668-58.9355-4.83398-4.88281-53.0762 58.3984c-1.75781 2.00195-3.41797 2.49023-5.76172 0.146484l-5.85938-5.81055c-2.34375-2.29492-1.80664-4.00391 0.195312-5.81055l57.373-54.0039-4.88281-4.83398-57.959 54.4434c-4.93164 4.58984-5.32227 9.47266-1.02539 13.8184Zm32.0801-90.9668c-2.09961 2.05078-2.24609 4.93164-1.07422 6.88477 1.17188 1.80664 3.4668 2.97852 6.68945 2.14844 7.32422-1.70898 14.9414-2.00195 22.0703 2.68555l-2.92969 7.27539c-1.70898 4.15039-0.830078 7.08008 1.85547 9.81445l11.4746 11.5723c2.44141 2.44141 4.49219 2.53906 7.32422 2.05078l5.32227-0.976562 3.32031 3.36914-0.195312 2.7832c-0.195312 2.49023 0.439453 4.39453 2.88086 6.78711l3.80859 3.71094c2.39258 2.39258 5.46875 2.53906 7.8125 0.195312l14.5508-14.5996c2.34375-2.34375 2.24609-5.32227-0.146484-7.71484l-3.85742-3.80859c-2.39258-2.39258-4.24805-3.17383-6.64062-2.97852l-2.88086 0.244141-3.22266-3.17383 1.2207-5.61523c0.634766-2.83203-0.146484-5.0293-3.07617-7.95898l-10.9863-10.9375c-16.6992-16.6016-38.8672-16.2109-53.3203-1.75781Zm7.4707 1.85547c12.1582-8.88672 28.6133-7.37305 39.7461 3.75977l12.1582 12.0605c1.17188 1.17188 1.36719 2.09961 1.02539 3.80859l-1.61133 7.42188 7.51953 7.42188 4.93164-0.292969c1.26953-0.0488281 1.66016 0.0488281 2.63672 1.02539l2.88086 2.88086-12.207 12.207-2.88086-2.88086c-0.976562-0.976562-1.12305-1.36719-1.07422-2.68555l0.341797-4.88281-7.4707-7.42188-7.61719 1.26953c-1.61133 0.341797-2.34375 0.195312-3.56445-0.976562l-10.0098-10.0098c-1.26953-1.17188-1.41602-2.00195-0.634766-3.85742l4.39453-10.4492c-7.8125-7.27539-17.9688-10.4004-28.125-7.42188-0.78125 0.195312-1.07422-0.439453-0.439453-0.976562Z"/>
  </g>
  <text style="stroke:none;fill:black;font-family:sans-serif;font-size:13;font-weight:bold;" transform="matrix(1 0 0 1 1289 1953)">Exporting</text>
  <text style="stroke:none;fill:black;font-family:sans-serif;font-size:13;" transform="matrix(1 0 0 1 1289 1971)">Symbols should be outlined when exporting to ensure the</text>
  <text style="stroke:none;fill:black;font-family:sans-serif;font-size:13;" transform="matrix(1 0 0 1 1289 1989)">design is preserved when submitting to Xcode.</text>
  <text id="template-version" style="stroke:none;fill:black;font-family:sans-serif;font-size:13;text-anchor:end;" transform="matrix(1 0 0 1 3036 1933)">Template v.5.0</text>
  <text style="stroke:none;fill:black;font-family:sans-serif;font-size:13;text-anchor:end;" transform="matrix(1 0 0 1 3036 1951)">Requires Xcode 15 or greater</text>
  <text id="descriptive-name" style="stroke:none;fill:black;font-family:sans-serif;font-size:13;text-anchor:end;" transform="matrix(1 0 0 1 3036 1969)">Generated from gear.circle</text>
  <text style="stroke:none;fill:black;font-family:sans-serif;font-size:13;text-anchor:end;" transform="matrix(1 0 0 1 3036 1987)">Typeset at 100.0 points</text>
  <text style="stroke:none;fill:black;font-family:sans-serif;font-size:13;" transform="matrix(1 0 0 1 263 726)">Small</text>
  <text style="stroke:none;fill:black;font-family:sans-serif;font-size:13;" transform="matrix(1 0 0 1 263 1156)">Medium</text>
  <text style="stroke:none;fill:black;font-family:sans-serif;font-size:13;" transform="matrix(1 0 0 1 263 1586)">Large</text>
 </g>
 <g id="Guides">
  <g id="H-reference" style="fill:#27AAE1;stroke:none;" transform="matrix(1 0 0 1 339 696)">
   <path d="M0.993654 0L3.63775 0L29.3281-67.1323L30.0303-67.1323L30.0303-70.459L28.1226-70.459ZM11.6885-24.4799L46.9815-24.4799L46.2315-26.7285L12.4385-26.7285ZM55.1196 0L57.7637 0L30.6382-70.459L29.4326-70.459L29.4326-67.1323Z"/>
  </g>
  <line id="Baseline-S" style="fill:none;stroke:#27AAE1;opacity:1;stroke-width:0.5;" x1="263" x2="3036" y1="696" y2="696"/>
  <line id="Capline-S" style="fill:none;stroke:#27AAE1;opacity:1;stroke-width:0.5;" x1="263" x2="3036" y1="625.541" y2="625.541"/>
  <g id="H-reference" style="fill:#27AAE1;stroke:none;" transform="matrix(1 0 0 1 339 1126)">
   <path d="M0.993654 0L3.63775 0L29.3281-67.1323L30.0303-67.1323L30.0303-70.459L28.1226-70.459ZM11.6885-24.4799L46.9815-24.4799L46.2315-26.7285L12.4385-26.7285ZM55.1196 0L57.7637 0L30.6382-70.459L29.4326-70.459L29.4326-67.1323Z"/>
  </g>
  <line id="Baseline-M" style="fill:none;stroke:#27AAE1;opacity:1;stroke-width:0.5;" x1="263" x2="3036" y1="1126" y2="1126"/>
  <line id="Capline-M" style="fill:none;stroke:#27AAE1;opacity:1;stroke-width:0.5;" x1="263" x2="3036" y1="1055.54" y2="1055.54"/>
  <g id="H-reference" style="fill:#27AAE1;stroke:none;" transform="matrix(1 0 0 1 339 1556)">
   <path d="M0.993654 0L3.63775 0L29.3281-67.1323L30.0303-67.1323L30.0303-70.459L28.1226-70.459ZM11.6885-24.4799L46.9815-24.4799L46.2315-26.7285L12.4385-26.7285ZM55.1196 0L57.7637 0L30.6382-70.459L29.4326-70.459L29.4326-67.1323Z"/>
  </g>
  <line id="Baseline-L" style="fill:none;stroke:#27AAE1;opacity:1;stroke-width:0.5;" x1="263" x2="3036" y1="1556" y2="1556"/>
  <line id="Capline-L" style="fill:none;stroke:#27AAE1;opacity:1;stroke-width:0.5;" x1="263" x2="3036" y1="1485.54" y2="1485.54"/>
  <line id="left-margin-Ultralight-S" style="fill:none;stroke:#00AEEF;stroke-width:0.5;opacity:1.0;" x1="515.649" x2="515.649" y1="600.785" y2="720.121"/>
  <line id="right-margin-Ultralight-S" style="fill:none;stroke:#00AEEF;stroke-width:0.5;opacity:1.0;" x1="603.773" x2="603.773" y1="600.785" y2="720.121"/>
  <line id="left-margin-Regular-S" style="fill:none;stroke:#00AEEF;stroke-width:0.5;opacity:1.0;" x1="1403.58" x2="1403.58" y1="600.785" y2="720.121"/>
  <line id="right-margin-Regular-S" style="fill:none;stroke:#00AEEF;stroke-width:0.5;opacity:1.0;" x1="1496.11" x2="1496.11" y1="600.785" y2="720.121"/>
  <line id="left-margin-Black-S" style="fill:none;stroke:#00AEEF;stroke-width:0.5;opacity:1.0;" x1="2884.57" x2="2884.57" y1="600.785" y2="720.121"/>
  <line id="right-margin-Black-S" style="fill:none;stroke:#00AEEF;stroke-width:0.5;opacity:1.0;" x1="2982.23" x2="2982.23" y1="600.785" y2="720.121"/>
 </g>
 <g id="Symbols">
  <g id="Black-S" transform="matrix(1 0 0 1 2884.57 696)">
   <path class="SFSymbolsPreviewWireframe" d="M48.8281 6.78711C71.9727 6.78711 90.8203-12.0605 90.8203-35.2051C90.8203-58.3496 71.9727-77.1973 48.8281-77.1973C25.6836-77.1973 6.83594-58.3496 6.83594-35.2051C6.83594-12.0605 25.6836 6.78711 48.8281 6.78711ZM48.8281-7.37305C33.4473-7.37305 20.9961-19.8242 20.9961-35.2051C20.9961-50.5859 33.4473-63.0371 48.8281-63.0371C64.209-63.0371 76.6602-50.5859 76.6602-35.2051C76.6602-19.8242 64.209-7.37305 48.8281-7.37305ZM48.877-16.4551C49.1699-16.4551 49.4629-16.4551 49.7559-16.5039L50.6348-14.8438C50.9766-14.1113 51.7578-13.6719 52.6367-13.8184C53.4668-13.9648 54.0527-14.6484 54.1504-15.4297L54.4434-17.334C55.0293-17.4805 55.5664-17.7246 56.1523-17.9199L57.5195-16.6992C58.1543-16.1621 58.9844-16.0156 59.7656-16.4062C60.498-16.8457 60.791-17.6758 60.6445-18.457L60.2539-20.3125C60.6934-20.6543 61.1816-21.0449 61.6699-21.4844L63.3789-20.752C64.1602-20.4102 64.9902-20.6543 65.5762-21.2891C66.0156-21.875 66.1133-22.7539 65.6738-23.4863L64.6973-25.0977C64.9902-25.5859 65.332-26.123 65.5762-26.6602L67.4805-26.6113C68.3105-26.6113 69.0918-27.0508 69.3359-27.832C69.5801-28.6133 69.3359-29.4922 68.7012-29.9805L67.1875-31.1035C67.334-31.6895 67.4805-32.3242 67.5293-32.9102L69.3359-33.4961C70.1172-33.7402 70.6543-34.4727 70.6543-35.3027C70.6543-36.1328 70.1172-36.8164 69.3359-37.0605L67.5293-37.6465C67.4805-38.2324 67.334-38.8672 67.1875-39.4531L68.7012-40.625C69.3359-41.1133 69.5801-41.9434 69.3359-42.6758C69.0918-43.5059 68.3105-43.9453 67.4805-43.9453L65.5762-43.8965C65.332-44.4336 64.9902-44.9707 64.6973-45.5078L65.6738-47.0703C66.1133-47.7539 66.0156-48.6816 65.5762-49.2676C64.9902-49.9023 64.1602-50.0977 63.3789-49.8047L61.6211-49.1211C61.1816-49.5117 60.6934-49.9023 60.2539-50.293L60.6445-52.0996C60.8398-52.9297 60.4492-53.7598 59.7168-54.1504C58.9844-54.541 58.1055-54.4922 57.5195-53.9062L56.1523-52.6367C55.5664-52.8809 54.9805-53.0762 54.4434-53.2715L54.1504-55.127C54.0039-55.9082 53.4668-56.5918 52.5879-56.7383C51.7578-56.8848 51.0254-56.3965 50.6836-55.7617L49.7559-54.1016C49.4629-54.1016 49.1699-54.1016 48.877-54.1016C48.5352-54.1016 48.2422-54.1016 47.9492-54.1016L47.0703-55.7617C46.7285-56.4453 45.9473-56.8848 45.0684-56.7383C44.2383-56.5918 43.7012-55.9082 43.5547-55.127L43.2617-53.2715C42.7246-53.0762 42.1387-52.8809 41.5527-52.6367L40.1855-53.8574C39.5996-54.4922 38.7207-54.541 37.9395-54.1504C37.2559-53.7598 36.8652-52.9297 37.0605-52.0996L37.4512-50.293C37.0117-49.9023 36.5234-49.5117 36.084-49.1211L34.3262-49.8047C33.5449-50.0977 32.7148-49.9023 32.1289-49.2676C31.6895-48.6816 31.5918-47.7539 32.0312-47.0703L33.0078-45.5078C32.7148-44.9707 32.373-44.4336 32.1289-43.8965L30.2246-43.9453C29.3945-43.9453 28.6133-43.5059 28.3691-42.7246C28.125-41.9434 28.3691-41.1133 29.0039-40.625L30.5176-39.4531C30.3711-38.8672 30.2246-38.2324 30.1758-37.6465L28.3691-37.0605C27.5879-36.8164 27.0508-36.1328 27.0508-35.3027C27.0508-34.4727 27.5879-33.7402 28.3691-33.4961L30.1758-32.9102C30.2246-32.3242 30.3711-31.6895 30.5176-31.1035L29.0039-29.9805C28.3691-29.4922 28.125-28.6133 28.3691-27.8809C28.6133-27.0508 29.3945-26.6113 30.2734-26.6113L32.1289-26.6602C32.373-26.123 32.7148-25.5859 33.0078-25.0977L31.9824-23.4863C31.543-22.8027 31.6895-21.875 32.1289-21.2891C32.7148-20.6543 33.5449-20.4102 34.3262-20.752L36.0352-21.4844C36.5234-21.0449 37.0117-20.6543 37.4512-20.3125L37.0605-18.457C36.9141-17.6758 37.207-16.8457 37.9883-16.4062C38.7207-16.0156 39.5996-16.1133 40.1855-16.6504L41.5527-17.9199C42.1387-17.7246 42.6758-17.4805 43.2617-17.334L43.5547-15.4297C43.6523-14.6484 44.2383-13.9648 45.1172-13.8184C45.9473-13.6719 46.6797-14.1113 47.0703-14.8438L47.9492-16.5039C48.2422-16.4551 48.5352-16.4551 48.877-16.4551ZM48.8281-21.9238C41.5039-21.9238 35.8887-27.8809 35.8887-35.3027C35.8887-42.6758 41.5039-48.6328 48.8281-48.6328C56.1523-48.6328 61.8164-42.6758 61.8164-35.3027C61.8164-27.8809 56.1523-21.9238 48.8281-21.9238ZM48.8281-28.8574C51.2207-28.8574 53.5645-30.1758 54.6875-32.7637L64.3555-32.7637L64.3555-37.8906L54.6875-37.8906C53.5645-40.4785 51.2207-41.7969 48.8281-41.7969C48.6328-41.7969 48.3398-41.7969 47.998-41.6992L43.2129-50L38.6719-47.9004L43.75-39.1113C42.8711-37.8906 42.4805-36.5234 42.4805-35.3027C42.4805-34.082 42.8223-32.9102 43.75-31.6406L38.4766-22.8516L42.9199-20.7031L47.9004-28.9062C48.291-28.8574 48.584-28.8574 48.8281-28.8574ZM46.7285-35.3027C46.7285-36.4746 47.6562-37.3535 48.8281-37.3535C49.9512-37.3535 50.8789-36.4746 50.8789-35.3027C50.8789-34.1309 49.9512-33.2031 48.8281-33.2031C47.7051-33.2031 46.7285-34.1309 46.7285-35.3027Z"/>
  </g>
  <g id="Regular-S" transform="matrix(1 0 0 1 1403.58 696)">
   <path class="SFSymbolsPreviewWireframe" d="M46.2402 4.15039C67.7734 4.15039 85.6934-13.7207 85.6934-35.2539C85.6934-56.7871 67.7246-74.6582 46.1914-74.6582C24.707-74.6582 6.83594-56.7871 6.83594-35.2539C6.83594-13.7207 24.7559 4.15039 46.2402 4.15039ZM46.2402-3.27148C28.5156-3.27148 14.3555-17.4805 14.3555-35.2539C14.3555-53.0273 28.4668-67.2363 46.1914-67.2363C63.9648-67.2363 78.2227-53.0273 78.2227-35.2539C78.2227-17.4805 64.0137-3.27148 46.2402-3.27148ZM46.1914-13.7695C46.6797-13.7695 47.0703-13.8184 47.5098-13.8184L48.6328-11.7676C48.9746-11.0352 49.707-10.5957 50.5371-10.7422C51.2695-10.8887 51.8555-11.5234 52.002-12.3047L52.3438-14.6973C53.125-14.9414 54.0039-15.2344 54.7852-15.5273L56.543-14.0137C57.1289-13.4277 57.8613-13.3301 58.6914-13.7207C59.3262-14.1113 59.668-14.8438 59.5215-15.6738L58.9844-18.0664C59.7656-18.6035 60.4492-19.1406 60.9863-19.6777L63.1836-18.7988C63.9648-18.457 64.7461-18.6523 65.332-19.3359C65.8203-19.9219 65.8691-20.752 65.4785-21.3867L64.1602-23.4863C64.5996-24.1699 65.0879-24.9023 65.4297-25.7324L67.8711-25.5859C68.6523-25.5859 69.3848-26.0254 69.6289-26.7578C69.9219-27.5391 69.6289-28.3691 68.9941-28.8086L67.0898-30.2734C67.2852-31.1035 67.4805-31.9336 67.5781-32.9102L69.8242-33.5938C70.6543-33.8867 71.1426-34.4727 71.1426-35.3027C71.1426-36.084 70.6055-36.7676 69.8242-37.0605L67.5781-37.7441C67.4805-38.623 67.2852-39.4531 67.0898-40.2832L68.9941-41.7969C69.6777-42.2852 69.9219-43.1152 69.6289-43.7988C69.3848-44.5801 68.6035-45.0684 67.8223-45.0195L65.4297-44.9219C64.9902-45.8008 64.5508-46.5332 64.1602-47.168L65.4785-49.2188C65.8691-49.8535 65.7715-50.7324 65.2832-51.3184C64.7461-51.9043 63.9648-52.0996 63.2324-51.8066L60.9863-50.9766C60.4004-51.5137 59.7168-52.0508 58.9844-52.5879L59.5215-54.8828C59.668-55.7617 59.3262-56.543 58.6914-56.8359C57.959-57.2754 57.1289-57.1777 56.543-56.5918L54.7852-55.0781C54.0039-55.3711 53.1738-55.6641 52.3438-55.9082L52.002-58.3496C51.8555-59.082 51.2695-59.668 50.5371-59.8145C49.7559-59.9609 48.9746-59.5703 48.6328-58.9355L47.5098-56.7383C47.0703-56.7383 46.7285-56.7871 46.1914-56.7871C45.752-56.7871 45.3125-56.7383 44.9219-56.7383L43.75-58.9355C43.4082-59.6191 42.627-59.9609 41.8945-59.8145C41.1621-59.668 40.5273-59.082 40.3809-58.3496L40.0879-55.9082C39.2578-55.6641 38.4277-55.3711 37.6465-55.0781L35.8887-56.5918C35.3027-57.1289 34.4727-57.2754 33.7402-56.8359C33.1055-56.4941 32.7148-55.7617 32.8613-54.8828L33.3984-52.5879C32.666-52.0508 31.9824-51.5137 31.3965-50.9766L29.1992-51.8066C28.418-52.0996 27.6367-51.9043 27.1484-51.3184C26.6113-50.7812 26.5137-49.9023 26.9043-49.2188L28.2227-47.168C27.7344-46.4355 27.3438-45.6543 26.9531-44.9219L24.6094-45.0195C23.8281-45.0684 23.0469-44.5801 22.8027-43.7988C22.5098-43.1152 22.7539-42.334 23.3887-41.7969L25.293-40.2832C25.0488-39.3555 24.9023-38.5254 24.8047-37.7441L22.5586-37.0605C21.7773-36.7676 21.2891-36.084 21.2891-35.3027C21.2891-34.4727 21.7773-33.8867 22.5586-33.5938L24.8047-32.9102C24.9023-32.0801 25.0488-31.25 25.293-30.2734L23.3887-28.8086C22.7539-28.3203 22.5098-27.4902 22.8027-26.7578C23.0469-26.0254 23.7793-25.5859 24.5605-25.5859L26.9531-25.7324C27.3438-24.9512 27.7344-24.1699 28.2227-23.4863L26.9043-21.3867C26.5137-20.7031 26.6113-19.873 27.0996-19.3359C27.6367-18.6523 28.4668-18.457 29.1992-18.7988L31.3965-19.6777C31.9336-19.1406 32.6172-18.6035 33.3984-18.0664L32.8613-15.6738C32.7148-14.8438 33.0566-14.1113 33.7402-13.7207C34.4727-13.3301 35.3027-13.4277 35.8887-14.0137L37.6465-15.5273C38.4277-15.2344 39.2578-14.9414 40.0879-14.6973L40.3809-12.3047C40.5273-11.5234 41.1621-10.8887 41.8945-10.7422C42.6758-10.5957 43.4082-11.0352 43.75-11.7676L44.9219-13.8184C45.3125-13.8184 45.752-13.7695 46.1914-13.7695ZM46.1914-18.5059C36.9141-18.5059 29.5898-25.8789 29.5898-35.2539C29.5898-44.6777 36.9141-52.0508 46.1914-52.0508C55.5176-52.0508 62.793-44.6777 62.793-35.2539C62.793-25.8789 55.5176-18.5059 46.1914-18.5059ZM46.1426-28.8574C48.7793-28.8574 50.8789-30.4199 52.1484-33.2031L66.0156-33.2031L66.0156-37.3535L52.0996-37.3535C50.8789-40.0879 48.7793-41.6016 46.1426-41.6016C45.8496-41.6016 45.5078-41.6016 44.9219-41.5039L37.9883-53.3691L34.3262-51.3184L41.4062-39.2578C40.332-37.9883 39.8438-36.6699 39.8438-35.2051C39.8438-33.8379 40.332-32.5684 41.3574-31.2988L33.9844-19.3848L37.5977-17.1875L44.873-29.0039C45.459-28.8574 45.8496-28.8574 46.1426-28.8574ZM44.1895-35.2539C44.1895-36.2793 45.1172-37.1582 46.1914-37.1582C47.3145-37.1582 48.2422-36.3281 48.2422-35.2539C48.2422-34.1797 47.3145-33.3008 46.1914-33.3008C45.1172-33.3008 44.1895-34.1797 44.1895-35.2539Z"/>
  </g>
  <g id="Ultralight-S" transform="matrix(1 0 0 1 515.649 696)">
   <path class="SFSymbolsPreviewWireframe" d="M44.0606 1.97072C64.5039 1.97072 81.2886-14.8105 81.2886-35.2539C81.2886-55.6973 64.5005-72.4785 44.0571-72.4785C23.5718-72.4785 6.83594-55.6973 6.83594-35.2539C6.83594-14.8105 23.5752 1.97072 44.0606 1.97072ZM44.0606-0.274438C24.7466-0.274438 9.04252-15.9365 9.04252-35.2539C9.04252-54.5713 24.7432-70.2334 44.0571-70.2334C63.3745-70.2334 79.04-54.5713 79.04-35.2539C79.04-15.9365 63.3779-0.274438 44.0606-0.274438ZM44.0571-13.9058C44.6817-13.9058 45.2993-13.9546 45.9204-14L46.8164-12.2671C47.1128-11.6709 47.5728-11.4585 48.2666-11.5596C48.9536-11.6152 49.3125-11.9775 49.3682-12.7134L49.6646-14.6973C50.8999-14.9868 52.0967-15.3706 53.1958-15.8906L54.5903-14.6494C55.0401-14.1997 55.5454-14.1475 56.1939-14.4473C56.7378-14.7017 56.898-15.1162 56.8423-15.8555L56.4414-17.7939C57.6314-18.6489 58.542-19.4131 59.2608-20.1772L61.0493-19.48C61.6489-19.1382 62.1123-19.2881 62.6529-19.8809C63.1865-20.376 63.19-20.8882 62.7085-21.4775L61.708-23.123C62.5108-24.2607 63.1353-25.311 63.5679-26.3227L65.5098-26.2217C66.2002-26.1763 66.6148-26.4341 66.8135-27.1211C67.1065-27.7207 66.9497-28.2329 66.4058-28.627L64.8194-29.8647C65.1509-31.0127 65.3462-32.2969 65.4893-33.5459L67.3721-34.1387C68.0205-34.3862 68.2818-34.7905 68.2818-35.439C68.2818-36.0386 68.0171-36.4497 67.3721-36.6973L65.4893-37.3355C65.3462-38.5776 65.1509-39.771 64.8194-41.0098L66.3604-42.251C66.8623-42.603 67.0156-42.979 66.8589-43.6626C66.6148-44.3984 66.1968-44.6597 65.5064-44.6108L63.5679-44.5132C63.0376-45.5737 62.4619-46.624 61.708-47.7129L62.7085-49.4004C63.1446-49.9443 63.0923-50.46 62.6494-50.9551C62.1577-51.541 61.6489-51.6909 61.0528-51.3525L59.2608-50.6587C58.5386-51.4229 57.6279-52.187 56.4414-53.042L56.8423-54.9736C56.898-55.7163 56.7378-56.1343 56.1939-56.3818C55.5523-56.7305 55.0401-56.6782 54.5903-56.2285L53.1504-54.9419C52.0967-55.4619 50.8579-55.8457 49.6646-56.1353L49.3682-58.1226C49.3125-58.855 48.9536-59.2139 48.2666-59.2695C47.6216-59.3706 47.1128-59.1616 46.8164-58.6177L45.9204-56.8291C45.2993-56.8745 44.6851-56.9233 44.0571-56.9233C43.4815-56.9233 42.8604-56.8745 42.2427-56.8291L41.2979-58.6177C41.0015-59.2105 40.5381-59.3706 39.8511-59.2695C39.1641-59.2139 38.8018-58.855 38.7461-58.1226L38.4531-56.1807C37.2144-55.8457 36.0664-55.4165 34.9673-54.9419L33.5274-56.1831C33.0322-56.6294 32.5654-56.7305 31.9693-56.3818C31.3799-56.0855 31.2163-55.6709 31.3174-54.9282L31.7183-53.042C30.5318-52.187 29.6211-51.4229 28.8989-50.6587L27.1104-51.3525C26.5108-51.6909 26.0474-51.5864 25.4683-50.9551C25.022-50.4634 24.9697-49.9478 25.4058-49.4458L26.4517-47.7129C25.6001-46.5264 25.0279-45.5181 24.5918-44.5132L22.6113-44.6108C21.9209-44.6597 21.5029-44.3984 21.3042-43.708C21.0112-43.0698 21.1646-42.6064 21.7993-42.251L23.2949-41.0098C23.0054-39.7642 22.7681-38.5708 22.6704-37.3355L20.7876-36.7427C20.1426-36.4951 19.8359-36.1294 19.8359-35.439C19.8359-34.7905 20.0972-34.3862 20.7876-34.1387L22.6704-33.5005C22.7681-32.3071 22.96-31.023 23.2949-29.8647L21.7993-28.627C21.2554-28.2749 21.0567-27.8081 21.2588-27.1211C21.5029-26.4341 21.9175-26.1763 22.6079-26.2217L24.5918-26.3227C25.0279-25.3599 25.6001-24.3516 26.4063-23.123L25.3604-21.4775C24.9697-20.8394 25.022-20.3726 25.4649-19.8809C26.0474-19.2427 26.5142-19.1382 27.1104-19.48L28.8989-20.1772C29.6177-19.4131 30.5283-18.6489 31.7183-17.7939L31.3174-15.9009C31.2163-15.1616 31.3765-14.7471 31.9693-14.4473C32.6109-14.1475 33.0777-14.1997 33.5274-14.6494L34.9219-15.8906C36.0664-15.3706 37.2598-14.9414 38.4531-14.6519L38.7461-12.7134C38.8018-11.9775 39.1641-11.6152 39.8965-11.5596C40.5415-11.4585 41.0015-11.6709 41.2979-12.2671L42.2427-14C42.815-13.9546 43.4815-13.9058 44.0571-13.9058ZM44.0571-16.0083C33.3267-16.0083 24.9126-24.562 24.9126-35.4355C24.9126-46.3125 33.3267-54.8208 44.0571-54.8208C54.791-54.8208 63.2017-46.3125 63.2017-35.4355C63.2017-24.562 54.791-16.0083 44.0571-16.0083ZM44.0991-30.0835C46.5996-30.0835 48.6992-31.8276 49.2422-34.293L65.2437-34.293L65.2437-36.5361L49.148-36.5361C48.563-38.8164 46.5088-40.4663 44.0991-40.4663C43.5337-40.4663 43.0557-40.3755 42.606-40.2324L34.4463-54.1411L32.4644-53.0439L40.5889-39.1216C39.5601-38.1245 38.9356-36.7607 38.9356-35.2959C38.9356-33.7471 39.6055-32.2959 40.7671-31.3442L32.4859-17.6138L34.5098-16.4609L42.7842-30.2754C43.2339-30.1289 43.6699-30.0835 44.0991-30.0835ZM41.147-35.2993C41.147-36.8696 42.4834-38.248 44.1026-38.248C45.7251-38.248 47.0615-36.873 47.0615-35.2993C47.0615-33.6802 45.7251-32.3472 44.1026-32.3472C42.4834-32.3472 41.147-33.6802 41.147-35.2993Z"/>
  </g>
 </g>
</svg>
