<?xml version="1.0" encoding="UTF-8"?>
<!--Generator: Apple Native CoreSVG 232.5-->
<!DOCTYPE svg
PUBLIC "-//W3C//DTD SVG 1.1//EN"
       "http://www.w3.org/Graphics/SVG/1.1/DTD/svg11.dtd">
<svg version="1.1" xmlns="http://www.w3.org/2000/svg" xmlns:xlink="http://www.w3.org/1999/xlink" width="3300" height="2200">
 <!--glyph: "uni100EBB.medium", point size: 100.0, font version: "19.2d2e1", template writer version: "128"-->
 <style>.SFSymbolsPreviewWireframe {fill:none;opacity:1.0;stroke:black;stroke-width:0.5}
</style>
 <g id="Notes">
  <rect height="2200" id="artboard" style="fill:white;opacity:1" width="3300" x="0" y="0"/>
  <line style="fill:none;stroke:black;opacity:1;stroke-width:0.5;" x1="263" x2="3036" y1="292" y2="292"/>
  <text style="stroke:none;fill:black;font-family:sans-serif;font-size:13;font-weight:bold;" transform="matrix(1 0 0 1 263 322)">Weight/Scale Variations</text>
  <text style="stroke:none;fill:black;font-family:sans-serif;font-size:13;text-anchor:middle;" transform="matrix(1 0 0 1 559.711 322)">Ultralight</text>
  <text style="stroke:none;fill:black;font-family:sans-serif;font-size:13;text-anchor:middle;" transform="matrix(1 0 0 1 856.422 322)">Thin</text>
  <text style="stroke:none;fill:black;font-family:sans-serif;font-size:13;text-anchor:middle;" transform="matrix(1 0 0 1 1153.13 322)">Light</text>
  <text style="stroke:none;fill:black;font-family:sans-serif;font-size:13;text-anchor:middle;" transform="matrix(1 0 0 1 1449.84 322)">Regular</text>
  <text style="stroke:none;fill:black;font-family:sans-serif;font-size:13;text-anchor:middle;" transform="matrix(1 0 0 1 1746.56 322)">Medium</text>
  <text style="stroke:none;fill:black;font-family:sans-serif;font-size:13;text-anchor:middle;" transform="matrix(1 0 0 1 2043.27 322)">Semibold</text>
  <text style="stroke:none;fill:black;font-family:sans-serif;font-size:13;text-anchor:middle;" transform="matrix(1 0 0 1 2339.98 322)">Bold</text>
  <text style="stroke:none;fill:black;font-family:sans-serif;font-size:13;text-anchor:middle;" transform="matrix(1 0 0 1 2636.69 322)">Heavy</text>
  <text style="stroke:none;fill:black;font-family:sans-serif;font-size:13;text-anchor:middle;" transform="matrix(1 0 0 1 2933.4 322)">Black</text>
  <line style="fill:none;stroke:black;opacity:1;stroke-width:0.5;" x1="263" x2="3036" y1="1903" y2="1903"/>
  <g transform="matrix(0.2 0 0 0.2 263 1933)">
   <path d="m46.2402 4.15039c21.5332 0 39.4531-17.8711 39.4531-39.4043s-17.9688-39.4043-39.502-39.4043c-21.4844 0-39.3555 17.8711-39.3555 39.4043s17.9199 39.4043 39.4043 39.4043Zm0-7.42188c-17.7246 0-31.8848-14.209-31.8848-31.9824s14.1113-31.9824 31.8359-31.9824c17.7734 0 32.0312 14.209 32.0312 31.9824s-14.209 31.9824-31.9824 31.9824Zm-17.9688-31.9824c0 2.14844 1.51367 3.61328 3.75977 3.61328h10.498v10.5957c0 2.19727 1.46484 3.71094 3.61328 3.71094 2.24609 0 3.71094-1.51367 3.71094-3.71094v-10.5957h10.5957c2.19727 0 3.71094-1.46484 3.71094-3.61328 0-2.19727-1.51367-3.71094-3.71094-3.71094h-10.5957v-10.5469c0-2.24609-1.46484-3.75977-3.71094-3.75977-2.14844 0-3.61328 1.51367-3.61328 3.75977v10.5469h-10.498c-2.24609 0-3.75977 1.51367-3.75977 3.71094Z"/>
  </g>
  <g transform="matrix(0.2 0 0 0.2 281.506 1933)">
   <path d="m58.5449 14.5508c27.2461 0 49.8047-22.6074 49.8047-49.8047 0-27.2461-22.6074-49.8047-49.8535-49.8047-27.1973 0-49.7559 22.5586-49.7559 49.8047 0 27.1973 22.6074 49.8047 49.8047 49.8047Zm0-8.30078c-23.0469 0-41.4551-18.457-41.4551-41.5039s18.3594-41.5039 41.4062-41.5039 41.5527 18.457 41.5527 41.5039-18.457 41.5039-41.5039 41.5039Zm-22.6562-41.5039c0 2.39258 1.66016 4.00391 4.15039 4.00391h14.3555v14.4043c0 2.44141 1.66016 4.15039 4.05273 4.15039 2.44141 0 4.15039-1.66016 4.15039-4.15039v-14.4043h14.4043c2.44141 0 4.15039-1.61133 4.15039-4.00391 0-2.44141-1.70898-4.15039-4.15039-4.15039h-14.4043v-14.3555c0-2.49023-1.70898-4.19922-4.15039-4.19922-2.39258 0-4.05273 1.70898-4.05273 4.19922v14.3555h-14.3555c-2.49023 0-4.15039 1.70898-4.15039 4.15039Z"/>
  </g>
  <g transform="matrix(0.2 0 0 0.2 304.924 1933)">
   <path d="m74.8535 28.3203c34.8145 0 63.623-28.8086 63.623-63.5742 0-34.8145-28.8574-63.623-63.6719-63.623-34.7656 0-63.5254 28.8086-63.5254 63.623 0 34.7656 28.8086 63.5742 63.5742 63.5742Zm0-9.08203c-30.1758 0-54.4434-24.3164-54.4434-54.4922 0-30.2246 24.2188-54.4922 54.3945-54.4922 30.2246 0 54.541 24.2676 54.541 54.4922 0 30.1758-24.2676 54.4922-54.4922 54.4922Zm-28.8574-54.4922c0 2.58789 1.85547 4.39453 4.58984 4.39453h19.7266v19.7754c0 2.68555 1.85547 4.58984 4.44336 4.58984 2.68555 0 4.54102-1.85547 4.54102-4.58984v-19.7754h19.7754c2.68555 0 4.58984-1.80664 4.58984-4.39453 0-2.73438-1.85547-4.58984-4.58984-4.58984h-19.7754v-19.7266c0-2.73438-1.85547-4.63867-4.54102-4.63867-2.58789 0-4.44336 1.9043-4.44336 4.63867v19.7266h-19.7266c-2.73438 0-4.58984 1.85547-4.58984 4.58984Z"/>
  </g>
  <text style="stroke:none;fill:black;font-family:sans-serif;font-size:13;font-weight:bold;" transform="matrix(1 0 0 1 263 1953)">Design Variations</text>
  <text style="stroke:none;fill:black;font-family:sans-serif;font-size:13;" transform="matrix(1 0 0 1 263 1971)">Symbols are supported in up to nine weights and three scales.</text>
  <text style="stroke:none;fill:black;font-family:sans-serif;font-size:13;" transform="matrix(1 0 0 1 263 1989)">For optimal layout with text and other symbols, vertically align</text>
  <text style="stroke:none;fill:black;font-family:sans-serif;font-size:13;" transform="matrix(1 0 0 1 263 2007)">symbols with the adjacent text.</text>
  <line style="fill:none;stroke:#00AEEF;stroke-width:0.5;opacity:1.0;" x1="776" x2="776" y1="1919" y2="1933"/>
  <g transform="matrix(0.2 0 0 0.2 776 1933)">
   <path d="m16.5527 0.78125c2.58789 0 3.85742-0.976562 4.78516-3.71094l6.29883-17.2363h28.8086l6.29883 17.2363c0.927734 2.73438 2.19727 3.71094 4.73633 3.71094 2.58789 0 4.24805-1.5625 4.24805-4.00391 0-0.830078-0.146484-1.61133-0.537109-2.63672l-22.9004-60.9863c-1.12305-2.97852-3.125-4.49219-6.25-4.49219-3.02734 0-5.07812 1.46484-6.15234 4.44336l-22.9004 61.084c-0.390625 1.02539-0.537109 1.80664-0.537109 2.63672 0 2.44141 1.5625 3.95508 4.10156 3.95508Zm13.4766-28.3691 11.8652-32.8613h0.244141l11.8652 32.8613Z"/>
  </g>
  <line style="fill:none;stroke:#00AEEF;stroke-width:0.5;opacity:1.0;" x1="792.836" x2="792.836" y1="1919" y2="1933"/>
  <text style="stroke:none;fill:black;font-family:sans-serif;font-size:13;font-weight:bold;" transform="matrix(1 0 0 1 776 1953)">Margins</text>
  <text style="stroke:none;fill:black;font-family:sans-serif;font-size:13;" transform="matrix(1 0 0 1 776 1971)">Leading and trailing margins on the left and right side of each symbol</text>
  <text style="stroke:none;fill:black;font-family:sans-serif;font-size:13;" transform="matrix(1 0 0 1 776 1989)">can be adjusted by modifying the x-location of the margin guidelines.</text>
  <text style="stroke:none;fill:black;font-family:sans-serif;font-size:13;" transform="matrix(1 0 0 1 776 2007)">Modifications are automatically applied proportionally to all</text>
  <text style="stroke:none;fill:black;font-family:sans-serif;font-size:13;" transform="matrix(1 0 0 1 776 2025)">scales and weights.</text>
  <g transform="matrix(0.2 0 0 0.2 1289 1933)">
   <path d="m14.209 9.32617 8.49609 8.54492c4.29688 4.3457 9.22852 4.05273 13.8672-1.07422l53.4668-58.9355-4.83398-4.88281-53.0762 58.3984c-1.75781 2.00195-3.41797 2.49023-5.76172 0.146484l-5.85938-5.81055c-2.34375-2.29492-1.80664-4.00391 0.195312-5.81055l57.373-54.0039-4.88281-4.83398-57.959 54.4434c-4.93164 4.58984-5.32227 9.47266-1.02539 13.8184Zm32.0801-90.9668c-2.09961 2.05078-2.24609 4.93164-1.07422 6.88477 1.17188 1.80664 3.4668 2.97852 6.68945 2.14844 7.32422-1.70898 14.9414-2.00195 22.0703 2.68555l-2.92969 7.27539c-1.70898 4.15039-0.830078 7.08008 1.85547 9.81445l11.4746 11.5723c2.44141 2.44141 4.49219 2.53906 7.32422 2.05078l5.32227-0.976562 3.32031 3.36914-0.195312 2.7832c-0.195312 2.49023 0.439453 4.39453 2.88086 6.78711l3.80859 3.71094c2.39258 2.39258 5.46875 2.53906 7.8125 0.195312l14.5508-14.5996c2.34375-2.34375 2.24609-5.32227-0.146484-7.71484l-3.85742-3.80859c-2.39258-2.39258-4.24805-3.17383-6.64062-2.97852l-2.88086 0.244141-3.22266-3.17383 1.2207-5.61523c0.634766-2.83203-0.146484-5.0293-3.07617-7.95898l-10.9863-10.9375c-16.6992-16.6016-38.8672-16.2109-53.3203-1.75781Zm7.4707 1.85547c12.1582-8.88672 28.6133-7.37305 39.7461 3.75977l12.1582 12.0605c1.17188 1.17188 1.36719 2.09961 1.02539 3.80859l-1.61133 7.42188 7.51953 7.42188 4.93164-0.292969c1.26953-0.0488281 1.66016 0.0488281 2.63672 1.02539l2.88086 2.88086-12.207 12.207-2.88086-2.88086c-0.976562-0.976562-1.12305-1.36719-1.07422-2.68555l0.341797-4.88281-7.4707-7.42188-7.61719 1.26953c-1.61133 0.341797-2.34375 0.195312-3.56445-0.976562l-10.0098-10.0098c-1.26953-1.17188-1.41602-2.00195-0.634766-3.85742l4.39453-10.4492c-7.8125-7.27539-17.9688-10.4004-28.125-7.42188-0.78125 0.195312-1.07422-0.439453-0.439453-0.976562Z"/>
  </g>
  <text style="stroke:none;fill:black;font-family:sans-serif;font-size:13;font-weight:bold;" transform="matrix(1 0 0 1 1289 1953)">Exporting</text>
  <text style="stroke:none;fill:black;font-family:sans-serif;font-size:13;" transform="matrix(1 0 0 1 1289 1971)">Symbols should be outlined when exporting to ensure the</text>
  <text style="stroke:none;fill:black;font-family:sans-serif;font-size:13;" transform="matrix(1 0 0 1 1289 1989)">design is preserved when submitting to Xcode.</text>
  <text id="template-version" style="stroke:none;fill:black;font-family:sans-serif;font-size:13;text-anchor:end;" transform="matrix(1 0 0 1 3036 1933)">Template v.5.0</text>
  <text style="stroke:none;fill:black;font-family:sans-serif;font-size:13;text-anchor:end;" transform="matrix(1 0 0 1 3036 1951)">Requires Xcode 15 or greater</text>
  <text id="descriptive-name" style="stroke:none;fill:black;font-family:sans-serif;font-size:13;text-anchor:end;" transform="matrix(1 0 0 1 3036 1969)">Generated from gear.circle.fill</text>
  <text style="stroke:none;fill:black;font-family:sans-serif;font-size:13;text-anchor:end;" transform="matrix(1 0 0 1 3036 1987)">Typeset at 100.0 points</text>
  <text style="stroke:none;fill:black;font-family:sans-serif;font-size:13;" transform="matrix(1 0 0 1 263 726)">Small</text>
  <text style="stroke:none;fill:black;font-family:sans-serif;font-size:13;" transform="matrix(1 0 0 1 263 1156)">Medium</text>
  <text style="stroke:none;fill:black;font-family:sans-serif;font-size:13;" transform="matrix(1 0 0 1 263 1586)">Large</text>
 </g>
 <g id="Guides">
  <g id="H-reference" style="fill:#27AAE1;stroke:none;" transform="matrix(1 0 0 1 339 696)">
   <path d="M0.993654 0L3.63775 0L29.3281-67.1323L30.0303-67.1323L30.0303-70.459L28.1226-70.459ZM11.6885-24.4799L46.9815-24.4799L46.2315-26.7285L12.4385-26.7285ZM55.1196 0L57.7637 0L30.6382-70.459L29.4326-70.459L29.4326-67.1323Z"/>
  </g>
  <line id="Baseline-S" style="fill:none;stroke:#27AAE1;opacity:1;stroke-width:0.5;" x1="263" x2="3036" y1="696" y2="696"/>
  <line id="Capline-S" style="fill:none;stroke:#27AAE1;opacity:1;stroke-width:0.5;" x1="263" x2="3036" y1="625.541" y2="625.541"/>
  <g id="H-reference" style="fill:#27AAE1;stroke:none;" transform="matrix(1 0 0 1 339 1126)">
   <path d="M0.993654 0L3.63775 0L29.3281-67.1323L30.0303-67.1323L30.0303-70.459L28.1226-70.459ZM11.6885-24.4799L46.9815-24.4799L46.2315-26.7285L12.4385-26.7285ZM55.1196 0L57.7637 0L30.6382-70.459L29.4326-70.459L29.4326-67.1323Z"/>
  </g>
  <line id="Baseline-M" style="fill:none;stroke:#27AAE1;opacity:1;stroke-width:0.5;" x1="263" x2="3036" y1="1126" y2="1126"/>
  <line id="Capline-M" style="fill:none;stroke:#27AAE1;opacity:1;stroke-width:0.5;" x1="263" x2="3036" y1="1055.54" y2="1055.54"/>
  <g id="H-reference" style="fill:#27AAE1;stroke:none;" transform="matrix(1 0 0 1 339 1556)">
   <path d="M0.993654 0L3.63775 0L29.3281-67.1323L30.0303-67.1323L30.0303-70.459L28.1226-70.459ZM11.6885-24.4799L46.9815-24.4799L46.2315-26.7285L12.4385-26.7285ZM55.1196 0L57.7637 0L30.6382-70.459L29.4326-70.459L29.4326-67.1323Z"/>
  </g>
  <line id="Baseline-L" style="fill:none;stroke:#27AAE1;opacity:1;stroke-width:0.5;" x1="263" x2="3036" y1="1556" y2="1556"/>
  <line id="Capline-L" style="fill:none;stroke:#27AAE1;opacity:1;stroke-width:0.5;" x1="263" x2="3036" y1="1485.54" y2="1485.54"/>
  <line id="left-margin-Ultralight-S" style="fill:none;stroke:#00AEEF;stroke-width:0.5;opacity:1.0;" x1="515.649" x2="515.649" y1="600.785" y2="720.121"/>
  <line id="right-margin-Ultralight-S" style="fill:none;stroke:#00AEEF;stroke-width:0.5;opacity:1.0;" x1="603.773" x2="603.773" y1="600.785" y2="720.121"/>
  <line id="left-margin-Regular-S" style="fill:none;stroke:#00AEEF;stroke-width:0.5;opacity:1.0;" x1="1403.58" x2="1403.58" y1="600.785" y2="720.121"/>
  <line id="right-margin-Regular-S" style="fill:none;stroke:#00AEEF;stroke-width:0.5;opacity:1.0;" x1="1496.11" x2="1496.11" y1="600.785" y2="720.121"/>
  <line id="left-margin-Black-S" style="fill:none;stroke:#00AEEF;stroke-width:0.5;opacity:1.0;" x1="2884.57" x2="2884.57" y1="600.785" y2="720.121"/>
  <line id="right-margin-Black-S" style="fill:none;stroke:#00AEEF;stroke-width:0.5;opacity:1.0;" x1="2982.23" x2="2982.23" y1="600.785" y2="720.121"/>
 </g>
 <g id="Symbols">
  <g id="Black-S" transform="matrix(1 0 0 1 2884.57 696)">
   <path class="SFSymbolsPreviewWireframe" d="M48.8281 6.83594C71.9727 6.83594 90.8203-12.0117 90.8203-35.1562C90.8203-58.3008 71.9727-77.1484 48.8281-77.1484C25.6836-77.1484 6.83594-58.3008 6.83594-35.1562C6.83594-12.0117 25.6836 6.83594 48.8281 6.83594ZM48.877-14.8438C48.4863-14.8438 48.1934-14.8438 47.8516-14.8926L46.9238-13.0859C46.4844-12.3047 45.7031-11.8164 44.8242-11.9629C43.8477-12.1094 43.2617-12.8906 43.1152-13.7207L42.8223-15.7715C42.1875-15.918 41.6016-16.2109 40.9668-16.4062L39.502-15.0391C38.8672-14.4531 37.8906-14.3555 37.1094-14.7461C36.2793-15.2344 35.9375-16.1621 36.084-16.9922L36.5234-18.9941C36.0352-19.3848 35.498-19.7754 35.0098-20.2637L33.1543-19.4824C32.2754-19.0918 31.3965-19.3848 30.7617-20.0684C30.2734-20.7031 30.127-21.6797 30.6152-22.4121L31.7383-24.1699C31.3965-24.707 31.0059-25.293 30.7617-25.8789L28.7598-25.8301C27.7832-25.7812 26.9531-26.2695 26.709-27.1973C26.416-27.9785 26.709-28.9551 27.3926-29.4434L29.0039-30.6641C28.8574-31.2988 28.7109-31.9824 28.6621-32.6172L26.709-33.252C25.8789-33.5449 25.293-34.3262 25.293-35.2051C25.293-36.084 25.8789-36.8164 26.709-37.1094L28.6621-37.7441C28.7109-38.3789 28.8574-39.0625 29.0039-39.6973L27.3926-40.9668C26.709-41.5039 26.416-42.3828 26.709-43.2129C26.9531-44.0918 27.7832-44.5801 28.7109-44.5312L30.7617-44.4824C31.0059-45.0684 31.3965-45.6543 31.7383-46.2402L30.6641-47.9492C30.1758-48.6816 30.2734-49.6582 30.7617-50.293C31.3965-50.9766 32.2754-51.2207 33.1543-50.8789L35.0586-50.1465C35.5469-50.5859 36.0352-50.9766 36.5234-51.416L36.084-53.3691C35.8887-54.2969 36.3281-55.1758 37.0605-55.6152C37.8906-56.0059 38.8672-55.957 39.502-55.2734L40.9668-53.9551C41.6016-54.1992 42.2363-54.4434 42.8223-54.6387L43.1152-56.6406C43.2617-57.5195 43.8477-58.252 44.7754-58.3984C45.7031-58.5449 46.5332-58.0566 46.9238-57.3242L47.8516-55.5176C48.1934-55.5176 48.5352-55.5176 48.877-55.5176C49.2188-55.5176 49.5117-55.5176 49.8535-55.5176L50.8301-57.3242C51.2207-58.0078 52.002-58.5449 52.8809-58.3984C53.8574-58.252 54.4434-57.5195 54.5898-56.6406L54.8828-54.6387C55.4688-54.4434 56.1035-54.1992 56.7383-53.9551L58.2031-55.3223C58.8867-55.957 59.8145-56.0059 60.5957-55.6152C61.377-55.1758 61.8164-54.2969 61.6211-53.3691L61.1816-51.416C61.6699-50.9766 62.1582-50.5859 62.6465-50.1465L64.5508-50.8789C65.4297-51.2207 66.3086-50.9766 66.9434-50.293C67.4316-49.6582 67.5293-48.6816 67.041-47.9492L65.9668-46.2402C66.3086-45.6543 66.6992-45.0684 66.9434-44.4824L68.9941-44.5312C69.9219-44.5801 70.752-44.0918 70.9961-43.1641C71.2891-42.3828 70.9961-41.5039 70.3125-40.9668L68.7012-39.6973C68.8477-39.0625 68.9941-38.3789 69.043-37.7441L70.9961-37.1094C71.8262-36.8164 72.4121-36.084 72.4121-35.2051C72.4121-34.3262 71.8262-33.5449 70.9961-33.252L69.043-32.6172C68.9941-31.9824 68.8477-31.2988 68.7012-30.6641L70.3125-29.4434C70.9961-28.9551 71.2891-27.9785 70.9961-27.1484C70.752-26.2695 69.9219-25.7812 68.9941-25.8301L66.9434-25.8789C66.6992-25.293 66.3086-24.707 65.9668-24.1699L67.041-22.4121C67.5293-21.6309 67.4316-20.7031 66.9434-20.0684C66.3086-19.3848 65.4297-19.0918 64.5508-19.4824L62.6953-20.2637C62.207-19.7754 61.6699-19.3848 61.1816-18.9941L61.6211-16.9922C61.7676-16.1621 61.4258-15.2344 60.6445-14.7461C59.8145-14.3555 58.8867-14.502 58.2031-15.0879L56.7383-16.4062C56.1035-16.2109 55.5176-15.918 54.8828-15.7715L54.5898-13.7207C54.4434-12.8906 53.8574-12.1094 52.9297-11.9629C52.002-11.8164 51.2207-12.3047 50.7812-13.0859L49.8535-14.8926C49.5117-14.8438 49.2188-14.8438 48.877-14.8438ZM34.8145-35.2051C34.8145-30.957 36.5234-27.1484 39.3066-24.5117L43.3105-31.25C42.334-32.6172 41.9434-33.8867 41.9434-35.2051C41.9434-36.5234 42.3828-37.9883 43.3105-39.3066L39.4531-45.9961C36.6211-43.3594 34.8145-39.502 34.8145-35.2051ZM48.8281-49.6094C47.168-49.6094 45.5566-49.3164 44.0918-48.7793L47.9492-42.1387C48.291-42.2363 48.6328-42.2363 48.8281-42.2363C51.416-42.2363 53.9551-40.8203 55.1758-37.9883L62.5977-37.9883C61.377-44.6289 55.8105-49.6094 48.8281-49.6094ZM48.8281-20.752C55.8105-20.752 61.4258-25.7812 62.6465-32.4707L55.1758-32.4707C53.9551-29.6387 51.416-28.2227 48.8281-28.2227C48.584-28.2227 48.2422-28.2227 47.8027-28.2715L43.7988-21.6797C45.3613-21.0449 47.0215-20.752 48.8281-20.752ZM46.5332-35.2051C46.5332-33.9355 47.6074-32.959 48.8281-32.959C50.0488-32.959 51.0254-33.9355 51.0254-35.2051C51.0254-36.4746 50.0488-37.4023 48.8281-37.4023C47.5586-37.4023 46.5332-36.4746 46.5332-35.2051Z"/>
  </g>
  <g id="Regular-S" transform="matrix(1 0 0 1 1403.58 696)">
   <path class="SFSymbolsPreviewWireframe" d="M46.2402 4.19922C67.7734 4.19922 85.6934-13.6719 85.6934-35.2051C85.6934-56.7383 67.7246-74.6094 46.1914-74.6094C24.707-74.6094 6.83594-56.7383 6.83594-35.2051C6.83594-13.6719 24.7559 4.19922 46.2402 4.19922ZM46.2402-12.8906C45.8008-12.8906 45.3125-12.9395 44.9219-12.9395L43.7012-10.8398C43.3594-10.0586 42.627-9.61914 41.748-9.76562C41.0156-9.91211 40.332-10.5469 40.1855-11.377L39.8926-13.8672C39.0137-14.1113 38.1836-14.4531 37.3535-14.7461L35.5957-13.1836C34.9609-12.5488 34.0332-12.4512 33.3008-12.8418C32.6172-13.2812 32.2754-14.0137 32.4219-14.8926L32.959-17.334C32.1289-17.9199 31.4453-18.5059 30.9082-18.9941L28.6133-18.0664C27.7832-17.7246 27.002-17.9199 26.416-18.6523C25.9277-19.1895 25.8301-20.1172 26.2207-20.8496L27.5879-22.9492C27.0996-23.7305 26.709-24.4629 26.2695-25.293L23.7793-25.1465C22.998-25.1465 22.2168-25.6348 21.9727-26.416C21.6797-27.1973 21.9238-27.9785 22.5586-28.5156L24.5117-30.0781C24.2676-31.0547 24.1699-31.8848 24.0234-32.7637L21.7285-33.4961C20.8984-33.7891 20.4102-34.375 20.4102-35.2539C20.4102-36.084 20.8984-36.7676 21.7285-37.0117L24.0234-37.7441C24.1699-38.623 24.2676-39.4043 24.5117-40.4297L22.5586-41.9434C21.9238-42.5781 21.6797-43.3594 21.9727-44.043C22.2168-44.873 23.0469-45.3613 23.8281-45.3125L26.2695-45.2148C26.709-45.9473 27.0996-46.8262 27.5879-47.5586L26.2207-49.707C25.8301-50.3906 25.9277-51.3184 26.4648-51.8555C27.002-52.4902 27.7344-52.7344 28.5645-52.4414L30.9082-51.5137C31.4941-52.0508 32.2266-52.6367 32.959-53.1738L32.4219-55.5664C32.2754-56.4941 32.6172-57.2266 33.3008-57.6172C34.0332-58.0566 34.9609-57.9102 35.5957-57.3242L37.3535-55.7617C38.1836-56.0547 39.0137-56.3965 39.8926-56.6406L40.1855-59.1797C40.332-59.9121 41.0156-60.5469 41.748-60.6934C42.5781-60.8398 43.3594-60.4492 43.7012-59.7656L44.9219-57.5195C45.3125-57.5195 45.8008-57.5684 46.2402-57.5684C46.7773-57.5684 47.168-57.5195 47.6074-57.5195L48.7793-59.7656C49.1211-60.4004 49.9512-60.8398 50.7812-60.6934C51.5137-60.5469 52.1484-59.9121 52.2949-59.1797L52.5879-56.6406C53.5156-56.3965 54.2969-56.0547 55.1758-55.7617L56.9336-57.3242C57.5684-57.959 58.4961-58.0566 59.1797-57.6172C59.8633-57.2754 60.2051-56.4941 60.0586-55.5664L59.4727-53.1738C60.2539-52.6367 60.9863-52.0508 61.5723-51.5137L63.9648-52.4414C64.6973-52.7344 65.4785-52.4902 66.0645-51.8555C66.5527-51.2695 66.6504-50.3418 66.2598-49.707L64.8926-47.5586C65.332-46.9238 65.7227-46.1426 66.2109-45.2148L68.7012-45.3125C69.4824-45.3613 70.3125-44.873 70.5566-44.043C70.8008-43.3105 70.6055-42.5293 69.9219-41.9434L67.9199-40.4297C68.1152-39.5508 68.3105-38.7207 68.457-37.7441L70.752-37.0117C71.582-36.7188 72.0703-36.084 72.0703-35.2539C72.0703-34.375 71.6309-33.7891 70.752-33.4961L68.457-32.7637C68.3105-31.7383 68.1152-30.9082 67.9199-30.0781L69.9219-28.5156C70.5566-28.0273 70.8496-27.1973 70.5566-26.416C70.3125-25.6348 69.5312-25.1465 68.75-25.1465L66.2109-25.293C65.8203-24.4629 65.3809-23.6816 64.8926-22.9492L66.2598-20.8496C66.6504-20.166 66.6016-19.2383 66.1133-18.6523C65.4785-17.9199 64.6973-17.7246 63.916-18.0664L61.5723-18.9941C61.0352-18.5059 60.3516-17.9199 59.4727-17.334L60.0586-14.8926C60.2051-14.0137 59.8633-13.2812 59.1797-12.8418C58.3984-12.4512 57.5684-12.5488 56.9336-13.1836L55.1758-14.7461C54.2969-14.4531 53.4668-14.1113 52.5879-13.8672L52.2949-11.3281C52.1484-10.5469 51.5137-9.91211 50.7812-9.76562C49.9023-9.61914 49.1211-10.0586 48.7793-10.8398L47.6074-12.9395C47.168-12.9395 46.7285-12.8906 46.2402-12.8906ZM29.0527-35.2051C29.0527-29.6875 31.4941-24.8047 35.4004-21.6309L41.2109-31.1035C40.1367-32.4219 39.6484-33.7402 39.6484-35.1562C39.6484-36.6699 40.1367-38.0371 41.2598-39.3555L35.5957-49.0234C31.5918-45.8496 29.0527-40.8691 29.0527-35.2051ZM46.2402-52.6367C43.7988-52.6367 41.4551-52.1484 39.3066-51.2695L44.9219-41.6504C45.5078-41.748 45.8984-41.748 46.1914-41.748C48.9258-41.748 51.123-40.2344 52.3926-37.4023L63.3301-37.4023C62.3047-46.1426 55.2246-52.6367 46.2402-52.6367ZM46.2402-17.8223C55.2246-17.8223 62.3047-24.3652 63.3301-33.0566L52.3926-33.0566C51.123-30.1758 48.9258-28.6133 46.1914-28.6133C45.8984-28.6133 45.459-28.6133 44.873-28.7598L39.1113-19.2871C41.2598-18.3594 43.7012-17.8223 46.2402-17.8223ZM44.1406-35.2051C44.1406-34.082 45.1172-33.1543 46.1914-33.1543C47.4121-33.1543 48.3398-34.082 48.3398-35.2051C48.3398-36.3281 47.4121-37.1582 46.1914-37.1582C45.1172-37.1582 44.1406-36.2793 44.1406-35.2051Z"/>
  </g>
  <g id="Ultralight-S" transform="matrix(1 0 0 1 515.649 696)">
   <path class="SFSymbolsPreviewWireframe" d="M44.0606 2.01955C64.5039 2.01955 81.2886-14.7617 81.2886-35.2051C81.2886-55.6484 64.5005-72.4297 44.0571-72.4297C23.5718-72.4297 6.83594-55.6484 6.83594-35.2051C6.83594-14.7617 23.5752 2.01955 44.0606 2.01955ZM44.0606-13.708C43.4849-13.708 42.815-13.7568 42.2427-13.8022L41.2945-12.1113C40.9981-11.5117 40.5381-11.2993 39.8862-11.4004C39.1538-11.456 38.7881-11.8183 38.7324-12.5576L38.4395-14.4575C37.2427-14.7471 36.0493-15.1797 34.9014-15.6997L33.5069-14.5005C33.0537-14.0474 32.5801-13.9951 31.9385-14.2949C31.3457-14.5981 31.1856-14.9673 31.2866-15.71L31.6875-17.6064C30.4942-18.4648 29.5835-19.2324 28.8648-19.9932L27.0693-19.3379C26.4663-18.9961 26.0483-19.1006 25.4624-19.7422C25.0195-20.1885 24.9673-20.6621 25.3579-21.3037L26.3618-22.9492C25.5557-24.1846 24.9834-25.1894 24.544-26.1558L22.5532-26.0547C21.8628-26.0093 21.4902-26.2705 21.2461-26.9609C21.044-27.6514 21.2427-28.1147 21.7866-28.4702L23.2402-29.7148C22.9053-30.873 22.7168-32.1572 22.6157-33.354L20.7749-33.9956C20.0811-34.2432 19.8198-34.6475 19.8198-35.2993C19.8198-35.9932 20.1265-36.3589 20.7749-36.603L22.6157-37.1992C22.7168-38.4414 22.9507-39.6313 23.2402-40.8838L21.7866-42.125C21.1519-42.4873 20.9985-42.9507 21.2915-43.5889C21.4902-44.2827 21.8662-44.544 22.5567-44.4951L24.544-44.3975C24.9834-45.4023 25.5557-46.4175 26.4072-47.604L25.4033-49.3438C24.9673-49.8457 25.0195-50.3648 25.4658-50.8565C26.0483-51.4912 26.4629-51.5537 27.0659-51.2153L28.8648-50.5601C29.5869-51.3242 30.501-52.0918 31.6875-52.9468L31.2866-54.8398C31.1856-55.5859 31.3457-55.9551 31.9385-56.2549C32.5347-56.6035 33.0083-56.5025 33.5069-56.0527L34.9468-54.8535C36.0493-55.3281 37.1973-55.7607 38.4395-56.0957L38.7324-57.999C38.7881-58.7315 39.1538-59.0938 39.8408-59.1494C40.5347-59.2505 40.9981-59.0869 41.2945-58.4942L42.2427-56.7476C42.8604-56.793 43.4849-56.8418 44.0606-56.8418C44.6885-56.8418 45.3062-56.793 45.9273-56.7476L46.8267-58.4942C47.1231-59.0381 47.6353-59.2505 48.2837-59.1494C48.9707-59.0938 49.333-58.7315 49.3887-57.999L49.6817-56.0503C50.8819-55.7607 52.1172-55.3735 53.1778-54.8535L54.6177-56.0982C55.0708-56.5513 55.5899-56.6035 56.2281-56.2549C56.7754-56.0039 56.8902-55.6314 56.8345-54.8853L56.4756-52.9468C57.6655-52.0918 58.5796-51.3242 59.3018-50.5601L61.104-51.2153C61.7002-51.5537 62.1636-51.4004 62.6587-50.8565C63.1016-50.3613 63.1538-49.8423 62.7178-49.2983L61.7139-47.604C62.5166-46.5151 63.0889-45.4614 63.6226-44.3975L65.5225-44.4951C66.2129-44.544 66.6343-44.2827 66.8784-43.5435C67.0318-42.8564 66.8819-42.4839 66.3799-42.125L64.8775-40.8838C65.209-39.6416 65.4043-38.4482 65.5508-37.1992L67.3916-36.5576C68.0401-36.3101 68.3013-35.9023 68.3013-35.2993C68.3013-34.6475 68.0435-34.2432 67.3916-33.9956L65.5508-33.3994C65.4043-32.147 65.209-30.8628 64.8775-29.7148L66.4253-28.4702C66.9693-28.0728 67.126-27.5605 66.833-26.9609C66.6343-26.2705 66.2163-26.0093 65.5259-26.0547L63.6226-26.1558C63.1865-25.144 62.5655-24.0903 61.7139-22.9492L62.7178-21.3037C63.1992-20.7109 63.1958-20.1919 62.6621-19.7422C62.1182-19.146 61.7002-18.9961 61.1006-19.3379L59.3018-19.9932C58.583-19.2324 57.6724-18.4648 56.4756-17.6064L56.8345-15.6645C56.8902-14.9219 56.7754-14.5527 56.2281-14.2949C55.583-13.9951 55.0708-14.0474 54.6177-14.5005L53.2232-15.6997C52.1172-15.1797 50.9238-14.7925 49.6817-14.5029L49.3887-12.5542C49.333-11.8183 48.9707-11.456 48.2837-11.4004C47.5864-11.2993 47.1231-11.5117 46.8267-12.1113L45.9273-13.8022C45.3062-13.7568 44.6851-13.708 44.0606-13.708ZM24.875-35.2959C24.875-28.416 28.2246-22.4888 33.4024-19.0425L40.7568-31.1943C39.5918-32.1494 38.9219-33.604 38.9219-35.1562C38.9219-36.6245 39.5464-37.9917 40.5786-38.9922L33.3252-51.4756C28.1861-47.9839 24.875-42.1406 24.875-35.2959ZM44.0606-54.7256C40.8926-54.7256 37.8677-53.9648 35.2652-52.6318L42.606-40.1065C43.0557-40.2495 43.5371-40.3403 44.1026-40.3403C46.5191-40.3403 48.5801-38.6904 49.1231-36.4033L63.1938-36.4033C62.668-46.7329 54.4526-54.7256 44.0606-54.7256ZM44.0606-15.8242C54.4072-15.8242 62.6226-23.8203 63.1938-34.1465L49.2139-34.1465C48.7163-31.6743 46.6099-29.9302 44.1026-29.9302C43.6734-29.9302 43.2339-29.9756 42.7842-30.1221L35.4331-17.834C37.9903-16.543 40.9312-15.8242 44.0606-15.8242ZM41.1436-35.1597C41.1436-33.5371 42.4834-32.2007 44.1026-32.2007C45.7319-32.2007 47.0684-33.5371 47.0684-35.1597C47.0684-36.7368 45.7319-38.0664 44.1026-38.0664C42.4834-38.0664 41.1436-36.7334 41.1436-35.1597Z"/>
  </g>
 </g>
</svg>
