<?xml version="1.0" encoding="UTF-8"?>
<!--Generator: Apple Native CoreSVG 232.5-->
<!DOCTYPE svg
PUBLIC "-//W3C//DTD SVG 1.1//EN"
       "http://www.w3.org/Graphics/SVG/1.1/DTD/svg11.dtd">
<svg version="1.1" xmlns="http://www.w3.org/2000/svg" xmlns:xlink="http://www.w3.org/1999/xlink" width="3300" height="2200">
 <!--glyph: "uni10094E.medium", point size: 100.0, font version: "19.2d2e1", template writer version: "128"-->
 <style>.SFSymbolsPreviewWireframe {fill:none;opacity:1.0;stroke:black;stroke-width:0.5}
</style>
 <g id="Notes">
  <rect height="2200" id="artboard" style="fill:white;opacity:1" width="3300" x="0" y="0"/>
  <line style="fill:none;stroke:black;opacity:1;stroke-width:0.5;" x1="263" x2="3036" y1="292" y2="292"/>
  <text style="stroke:none;fill:black;font-family:sans-serif;font-size:13;font-weight:bold;" transform="matrix(1 0 0 1 263 322)">Weight/Scale Variations</text>
  <text style="stroke:none;fill:black;font-family:sans-serif;font-size:13;text-anchor:middle;" transform="matrix(1 0 0 1 559.711 322)">Ultralight</text>
  <text style="stroke:none;fill:black;font-family:sans-serif;font-size:13;text-anchor:middle;" transform="matrix(1 0 0 1 856.422 322)">Thin</text>
  <text style="stroke:none;fill:black;font-family:sans-serif;font-size:13;text-anchor:middle;" transform="matrix(1 0 0 1 1153.13 322)">Light</text>
  <text style="stroke:none;fill:black;font-family:sans-serif;font-size:13;text-anchor:middle;" transform="matrix(1 0 0 1 1449.84 322)">Regular</text>
  <text style="stroke:none;fill:black;font-family:sans-serif;font-size:13;text-anchor:middle;" transform="matrix(1 0 0 1 1746.56 322)">Medium</text>
  <text style="stroke:none;fill:black;font-family:sans-serif;font-size:13;text-anchor:middle;" transform="matrix(1 0 0 1 2043.27 322)">Semibold</text>
  <text style="stroke:none;fill:black;font-family:sans-serif;font-size:13;text-anchor:middle;" transform="matrix(1 0 0 1 2339.98 322)">Bold</text>
  <text style="stroke:none;fill:black;font-family:sans-serif;font-size:13;text-anchor:middle;" transform="matrix(1 0 0 1 2636.69 322)">Heavy</text>
  <text style="stroke:none;fill:black;font-family:sans-serif;font-size:13;text-anchor:middle;" transform="matrix(1 0 0 1 2933.4 322)">Black</text>
  <line style="fill:none;stroke:black;opacity:1;stroke-width:0.5;" x1="263" x2="3036" y1="1903" y2="1903"/>
  <g transform="matrix(0.2 0 0 0.2 263 1933)">
   <path d="m46.2402 4.15039c21.5332 0 39.4531-17.8711 39.4531-39.4043s-17.9688-39.4043-39.502-39.4043c-21.4844 0-39.3555 17.8711-39.3555 39.4043s17.9199 39.4043 39.4043 39.4043Zm0-7.42188c-17.7246 0-31.8848-14.209-31.8848-31.9824s14.1113-31.9824 31.8359-31.9824c17.7734 0 32.0312 14.209 32.0312 31.9824s-14.209 31.9824-31.9824 31.9824Zm-17.9688-31.9824c0 2.14844 1.51367 3.61328 3.75977 3.61328h10.498v10.5957c0 2.19727 1.46484 3.71094 3.61328 3.71094 2.24609 0 3.71094-1.51367 3.71094-3.71094v-10.5957h10.5957c2.19727 0 3.71094-1.46484 3.71094-3.61328 0-2.19727-1.51367-3.71094-3.71094-3.71094h-10.5957v-10.5469c0-2.24609-1.46484-3.75977-3.71094-3.75977-2.14844 0-3.61328 1.51367-3.61328 3.75977v10.5469h-10.498c-2.24609 0-3.75977 1.51367-3.75977 3.71094Z"/>
  </g>
  <g transform="matrix(0.2 0 0 0.2 281.506 1933)">
   <path d="m58.5449 14.5508c27.2461 0 49.8047-22.6074 49.8047-49.8047 0-27.2461-22.6074-49.8047-49.8535-49.8047-27.1973 0-49.7559 22.5586-49.7559 49.8047 0 27.1973 22.6074 49.8047 49.8047 49.8047Zm0-8.30078c-23.0469 0-41.4551-18.457-41.4551-41.5039s18.3594-41.5039 41.4062-41.5039 41.5527 18.457 41.5527 41.5039-18.457 41.5039-41.5039 41.5039Zm-22.6562-41.5039c0 2.39258 1.66016 4.00391 4.15039 4.00391h14.3555v14.4043c0 2.44141 1.66016 4.15039 4.05273 4.15039 2.44141 0 4.15039-1.66016 4.15039-4.15039v-14.4043h14.4043c2.44141 0 4.15039-1.61133 4.15039-4.00391 0-2.44141-1.70898-4.15039-4.15039-4.15039h-14.4043v-14.3555c0-2.49023-1.70898-4.19922-4.15039-4.19922-2.39258 0-4.05273 1.70898-4.05273 4.19922v14.3555h-14.3555c-2.49023 0-4.15039 1.70898-4.15039 4.15039Z"/>
  </g>
  <g transform="matrix(0.2 0 0 0.2 304.924 1933)">
   <path d="m74.8535 28.3203c34.8145 0 63.623-28.8086 63.623-63.5742 0-34.8145-28.8574-63.623-63.6719-63.623-34.7656 0-63.5254 28.8086-63.5254 63.623 0 34.7656 28.8086 63.5742 63.5742 63.5742Zm0-9.08203c-30.1758 0-54.4434-24.3164-54.4434-54.4922 0-30.2246 24.2188-54.4922 54.3945-54.4922 30.2246 0 54.541 24.2676 54.541 54.4922 0 30.1758-24.2676 54.4922-54.4922 54.4922Zm-28.8574-54.4922c0 2.58789 1.85547 4.39453 4.58984 4.39453h19.7266v19.7754c0 2.68555 1.85547 4.58984 4.44336 4.58984 2.68555 0 4.54102-1.85547 4.54102-4.58984v-19.7754h19.7754c2.68555 0 4.58984-1.80664 4.58984-4.39453 0-2.73438-1.85547-4.58984-4.58984-4.58984h-19.7754v-19.7266c0-2.73438-1.85547-4.63867-4.54102-4.63867-2.58789 0-4.44336 1.9043-4.44336 4.63867v19.7266h-19.7266c-2.73438 0-4.58984 1.85547-4.58984 4.58984Z"/>
  </g>
  <text style="stroke:none;fill:black;font-family:sans-serif;font-size:13;font-weight:bold;" transform="matrix(1 0 0 1 263 1953)">Design Variations</text>
  <text style="stroke:none;fill:black;font-family:sans-serif;font-size:13;" transform="matrix(1 0 0 1 263 1971)">Symbols are supported in up to nine weights and three scales.</text>
  <text style="stroke:none;fill:black;font-family:sans-serif;font-size:13;" transform="matrix(1 0 0 1 263 1989)">For optimal layout with text and other symbols, vertically align</text>
  <text style="stroke:none;fill:black;font-family:sans-serif;font-size:13;" transform="matrix(1 0 0 1 263 2007)">symbols with the adjacent text.</text>
  <line style="fill:none;stroke:#00AEEF;stroke-width:0.5;opacity:1.0;" x1="776" x2="776" y1="1919" y2="1933"/>
  <g transform="matrix(0.2 0 0 0.2 776 1933)">
   <path d="m16.5527 0.78125c2.58789 0 3.85742-0.976562 4.78516-3.71094l6.29883-17.2363h28.8086l6.29883 17.2363c0.927734 2.73438 2.19727 3.71094 4.73633 3.71094 2.58789 0 4.24805-1.5625 4.24805-4.00391 0-0.830078-0.146484-1.61133-0.537109-2.63672l-22.9004-60.9863c-1.12305-2.97852-3.125-4.49219-6.25-4.49219-3.02734 0-5.07812 1.46484-6.15234 4.44336l-22.9004 61.084c-0.390625 1.02539-0.537109 1.80664-0.537109 2.63672 0 2.44141 1.5625 3.95508 4.10156 3.95508Zm13.4766-28.3691 11.8652-32.8613h0.244141l11.8652 32.8613Z"/>
  </g>
  <line style="fill:none;stroke:#00AEEF;stroke-width:0.5;opacity:1.0;" x1="792.836" x2="792.836" y1="1919" y2="1933"/>
  <text style="stroke:none;fill:black;font-family:sans-serif;font-size:13;font-weight:bold;" transform="matrix(1 0 0 1 776 1953)">Margins</text>
  <text style="stroke:none;fill:black;font-family:sans-serif;font-size:13;" transform="matrix(1 0 0 1 776 1971)">Leading and trailing margins on the left and right side of each symbol</text>
  <text style="stroke:none;fill:black;font-family:sans-serif;font-size:13;" transform="matrix(1 0 0 1 776 1989)">can be adjusted by modifying the x-location of the margin guidelines.</text>
  <text style="stroke:none;fill:black;font-family:sans-serif;font-size:13;" transform="matrix(1 0 0 1 776 2007)">Modifications are automatically applied proportionally to all</text>
  <text style="stroke:none;fill:black;font-family:sans-serif;font-size:13;" transform="matrix(1 0 0 1 776 2025)">scales and weights.</text>
  <g transform="matrix(0.2 0 0 0.2 1289 1933)">
   <path d="m14.209 9.32617 8.49609 8.54492c4.29688 4.3457 9.22852 4.05273 13.8672-1.07422l53.4668-58.9355-4.83398-4.88281-53.0762 58.3984c-1.75781 2.00195-3.41797 2.49023-5.76172 0.146484l-5.85938-5.81055c-2.34375-2.29492-1.80664-4.00391 0.195312-5.81055l57.373-54.0039-4.88281-4.83398-57.959 54.4434c-4.93164 4.58984-5.32227 9.47266-1.02539 13.8184Zm32.0801-90.9668c-2.09961 2.05078-2.24609 4.93164-1.07422 6.88477 1.17188 1.80664 3.4668 2.97852 6.68945 2.14844 7.32422-1.70898 14.9414-2.00195 22.0703 2.68555l-2.92969 7.27539c-1.70898 4.15039-0.830078 7.08008 1.85547 9.81445l11.4746 11.5723c2.44141 2.44141 4.49219 2.53906 7.32422 2.05078l5.32227-0.976562 3.32031 3.36914-0.195312 2.7832c-0.195312 2.49023 0.439453 4.39453 2.88086 6.78711l3.80859 3.71094c2.39258 2.39258 5.46875 2.53906 7.8125 0.195312l14.5508-14.5996c2.34375-2.34375 2.24609-5.32227-0.146484-7.71484l-3.85742-3.80859c-2.39258-2.39258-4.24805-3.17383-6.64062-2.97852l-2.88086 0.244141-3.22266-3.17383 1.2207-5.61523c0.634766-2.83203-0.146484-5.0293-3.07617-7.95898l-10.9863-10.9375c-16.6992-16.6016-38.8672-16.2109-53.3203-1.75781Zm7.4707 1.85547c12.1582-8.88672 28.6133-7.37305 39.7461 3.75977l12.1582 12.0605c1.17188 1.17188 1.36719 2.09961 1.02539 3.80859l-1.61133 7.42188 7.51953 7.42188 4.93164-0.292969c1.26953-0.0488281 1.66016 0.0488281 2.63672 1.02539l2.88086 2.88086-12.207 12.207-2.88086-2.88086c-0.976562-0.976562-1.12305-1.36719-1.07422-2.68555l0.341797-4.88281-7.4707-7.42188-7.61719 1.26953c-1.61133 0.341797-2.34375 0.195312-3.56445-0.976562l-10.0098-10.0098c-1.26953-1.17188-1.41602-2.00195-0.634766-3.85742l4.39453-10.4492c-7.8125-7.27539-17.9688-10.4004-28.125-7.42188-0.78125 0.195312-1.07422-0.439453-0.439453-0.976562Z"/>
  </g>
  <text style="stroke:none;fill:black;font-family:sans-serif;font-size:13;font-weight:bold;" transform="matrix(1 0 0 1 1289 1953)">Exporting</text>
  <text style="stroke:none;fill:black;font-family:sans-serif;font-size:13;" transform="matrix(1 0 0 1 1289 1971)">Symbols should be outlined when exporting to ensure the</text>
  <text style="stroke:none;fill:black;font-family:sans-serif;font-size:13;" transform="matrix(1 0 0 1 1289 1989)">design is preserved when submitting to Xcode.</text>
  <text id="template-version" style="stroke:none;fill:black;font-family:sans-serif;font-size:13;text-anchor:end;" transform="matrix(1 0 0 1 3036 1933)">Template v.5.0</text>
  <text style="stroke:none;fill:black;font-family:sans-serif;font-size:13;text-anchor:end;" transform="matrix(1 0 0 1 3036 1951)">Requires Xcode 15 or greater</text>
  <text id="descriptive-name" style="stroke:none;fill:black;font-family:sans-serif;font-size:13;text-anchor:end;" transform="matrix(1 0 0 1 3036 1969)">Generated from gearshape.2</text>
  <text style="stroke:none;fill:black;font-family:sans-serif;font-size:13;text-anchor:end;" transform="matrix(1 0 0 1 3036 1987)">Typeset at 100.0 points</text>
  <text style="stroke:none;fill:black;font-family:sans-serif;font-size:13;" transform="matrix(1 0 0 1 263 726)">Small</text>
  <text style="stroke:none;fill:black;font-family:sans-serif;font-size:13;" transform="matrix(1 0 0 1 263 1156)">Medium</text>
  <text style="stroke:none;fill:black;font-family:sans-serif;font-size:13;" transform="matrix(1 0 0 1 263 1586)">Large</text>
 </g>
 <g id="Guides">
  <g id="H-reference" style="fill:#27AAE1;stroke:none;" transform="matrix(1 0 0 1 339 696)">
   <path d="M0.993654 0L3.63775 0L29.3281-67.1323L30.0303-67.1323L30.0303-70.459L28.1226-70.459ZM11.6885-24.4799L46.9815-24.4799L46.2315-26.7285L12.4385-26.7285ZM55.1196 0L57.7637 0L30.6382-70.459L29.4326-70.459L29.4326-67.1323Z"/>
  </g>
  <line id="Baseline-S" style="fill:none;stroke:#27AAE1;opacity:1;stroke-width:0.5;" x1="263" x2="3036" y1="696" y2="696"/>
  <line id="Capline-S" style="fill:none;stroke:#27AAE1;opacity:1;stroke-width:0.5;" x1="263" x2="3036" y1="625.541" y2="625.541"/>
  <g id="H-reference" style="fill:#27AAE1;stroke:none;" transform="matrix(1 0 0 1 339 1126)">
   <path d="M0.993654 0L3.63775 0L29.3281-67.1323L30.0303-67.1323L30.0303-70.459L28.1226-70.459ZM11.6885-24.4799L46.9815-24.4799L46.2315-26.7285L12.4385-26.7285ZM55.1196 0L57.7637 0L30.6382-70.459L29.4326-70.459L29.4326-67.1323Z"/>
  </g>
  <line id="Baseline-M" style="fill:none;stroke:#27AAE1;opacity:1;stroke-width:0.5;" x1="263" x2="3036" y1="1126" y2="1126"/>
  <line id="Capline-M" style="fill:none;stroke:#27AAE1;opacity:1;stroke-width:0.5;" x1="263" x2="3036" y1="1055.54" y2="1055.54"/>
  <g id="H-reference" style="fill:#27AAE1;stroke:none;" transform="matrix(1 0 0 1 339 1556)">
   <path d="M0.993654 0L3.63775 0L29.3281-67.1323L30.0303-67.1323L30.0303-70.459L28.1226-70.459ZM11.6885-24.4799L46.9815-24.4799L46.2315-26.7285L12.4385-26.7285ZM55.1196 0L57.7637 0L30.6382-70.459L29.4326-70.459L29.4326-67.1323Z"/>
  </g>
  <line id="Baseline-L" style="fill:none;stroke:#27AAE1;opacity:1;stroke-width:0.5;" x1="263" x2="3036" y1="1556" y2="1556"/>
  <line id="Capline-L" style="fill:none;stroke:#27AAE1;opacity:1;stroke-width:0.5;" x1="263" x2="3036" y1="1485.54" y2="1485.54"/>
  <line id="left-margin-Ultralight-S" style="fill:none;stroke:#00AEEF;stroke-width:0.5;opacity:1.0;" x1="503.268" x2="503.268" y1="600.785" y2="720.121"/>
  <line id="right-margin-Ultralight-S" style="fill:none;stroke:#00AEEF;stroke-width:0.5;opacity:1.0;" x1="616.154" x2="616.154" y1="600.785" y2="720.121"/>
  <line id="left-margin-Regular-S" style="fill:none;stroke:#00AEEF;stroke-width:0.5;opacity:1.0;" x1="1389.86" x2="1389.86" y1="600.785" y2="720.121"/>
  <line id="right-margin-Regular-S" style="fill:none;stroke:#00AEEF;stroke-width:0.5;opacity:1.0;" x1="1509.83" x2="1509.83" y1="600.785" y2="720.121"/>
  <line id="left-margin-Black-S" style="fill:none;stroke:#00AEEF;stroke-width:0.5;opacity:1.0;" x1="2871.27" x2="2871.27" y1="600.785" y2="720.121"/>
  <line id="right-margin-Black-S" style="fill:none;stroke:#00AEEF;stroke-width:0.5;opacity:1.0;" x1="2995.53" x2="2995.53" y1="600.785" y2="720.121"/>
 </g>
 <g id="Symbols">
  <g id="Black-S" transform="matrix(1 0 0 1 2871.27 696)">
   <path class="SFSymbolsPreviewWireframe" d="M35.498-16.3574L41.1621-16.3574C44.1406-16.3574 46.8262-18.2617 47.3145-21.1426L47.3633-21.4355C47.3633-23.8281 47.3633-24.6582 47.4121-24.9512L51.123-22.7539C53.6133-21.2891 56.7383-21.6309 58.7402-23.6816L62.6465-27.6367C64.7949-29.7852 65.1855-32.8613 63.5742-35.3516L60.2051-40.625C60.2051-37.2559 60.2051-40.2832 60.2051-37.8906L65.0879-39.1113C67.8711-39.7949 69.8242-42.2852 69.8242-45.2637L69.8242-50.4395C69.8242-53.418 67.9199-55.9082 65.0879-56.5918L60.2051-57.8125C60.2051-56.8359 60.2051-56.8359 60.2051-55.0781L63.5742-60.3516C65.1855-62.8418 64.7949-65.918 62.6465-68.0664L58.7402-72.0215C56.7383-74.0723 53.6133-74.4141 51.123-72.9492L45.5078-69.6289C49.0234-69.6289 45.8984-69.6289 48.291-69.6289L47.3145-74.5605C46.7285-77.3926 44.1895-79.3457 41.1621-79.3457L35.498-79.3457C32.5195-79.3457 29.9316-77.3926 29.3457-74.5605L28.3203-69.6289C29.248-69.6289 29.248-69.6289 31.1035-69.6289L25.5371-72.9492C23.0469-74.4629 19.9219-74.0723 17.9199-72.0215L14.0137-68.0664C11.9141-65.9668 11.4746-62.8418 13.0859-60.3516L16.4551-55.0781C16.4551-58.4473 16.4551-55.4199 16.4551-57.8125L11.5723-56.5918C8.74023-55.9082 6.83594-53.418 6.83594-50.4395L6.83594-45.2637C6.83594-42.2852 8.74023-39.7949 11.5723-39.1113L16.4551-37.8906C16.4551-38.8672 16.4551-38.8672 16.4551-40.625L13.0859-35.3516C11.4746-32.8613 11.8652-29.7852 14.0137-27.6367L17.9199-23.6816C19.9707-21.6309 22.9492-21.2891 25.4883-22.7539L29.248-24.9512C29.248-25.0977 29.2969-25.0977 29.2969-21.4355L29.3457-21.1426C29.834-18.2617 32.5195-16.3574 35.498-16.3574ZM36.377-24.6094C36.1328-24.6094 37.0117-23.9258 36.9629-24.1699L35.1074-31.7871C32.7148-32.1777 30.6641-33.3008 29.0527-34.2285L22.4121-30.2734C22.2168-30.1758 23.2422-29.9805 23.0957-30.127L20.3613-32.8125C20.2148-32.959 20.4102-31.8848 20.5078-32.0801L24.4141-38.5254C24.0723-39.8926 22.4609-42.0898 22.168-44.7266L14.5996-46.5332C14.3555-46.582 15.0391-45.7031 15.0391-45.9473L15.0391-49.7559C15.0391-50 14.3555-49.1211 14.5996-49.1699L22.168-50.9766C22.4609-53.6133 24.0723-55.8105 24.4141-57.1777L20.5078-63.623C20.4102-63.8184 20.2148-62.7441 20.3613-62.8906L23.0957-65.5762C23.2422-65.7227 22.2168-65.5273 22.4121-65.4297L29.0527-61.4746C30.6641-62.4023 32.7148-63.5254 35.1074-63.916L36.9629-71.5332C37.0117-71.7773 36.1328-71.0938 36.377-71.0938L40.2832-71.0938C40.5273-71.0938 39.6484-71.7773 39.6973-71.5332L41.5527-63.916C43.9453-63.5254 45.9961-62.4023 47.6074-61.4746L54.248-65.4297C54.4434-65.5273 53.418-65.7227 53.5645-65.5762L56.2988-62.8906C56.4453-62.7441 56.25-63.8184 56.1523-63.623L52.2461-57.1777C52.5879-55.8105 54.1992-53.6133 54.4922-50.9766L62.0605-49.1699C62.3047-49.1211 61.6211-50 61.6211-49.7559L61.6211-45.9473C61.6211-45.7031 62.3047-46.582 62.0605-46.5332L54.4922-44.7266C54.1992-42.0898 52.5879-39.8926 52.2461-38.5254L56.1523-32.0801C56.25-31.8848 56.4453-32.959 56.2988-32.8125L53.5645-30.127C53.418-29.9805 54.4434-30.1758 54.248-30.2734L47.6074-34.2285C45.9961-33.3008 43.9453-32.1777 41.5527-31.7871L39.6973-24.1699C39.6484-23.9258 40.5273-24.6094 40.2832-24.6094ZM38.3301-36.6211C44.4336-36.6211 49.4629-41.6992 49.4629-47.8516C49.4629-53.9551 44.4336-58.9844 38.3301-58.9844C32.1777-58.9844 27.1484-54.0039 27.1484-47.8516C27.1484-41.6992 32.1777-36.6211 38.3301-36.6211ZM38.3301-44.2871C36.377-44.2871 34.7656-45.8984 34.7656-47.8516C34.7656-49.7559 36.4258-51.3672 38.3301-51.3672C40.2344-51.3672 41.7969-49.7559 41.7969-47.8516C41.7969-45.8984 40.2344-44.2871 38.3301-44.2871ZM88.4766 8.83789L92.9688 8.83789C95.8008 8.83789 98.2422 7.03125 98.6816 4.49219L99.3652 0.732422C98.4375 0.732422 98.4375 0.732422 96.6309 0.732422L101.025 3.41797C103.32 4.83398 106.201 4.49219 108.105 2.53906L111.279-0.683594C113.281-2.73438 113.574-5.61523 112.109-7.86133L109.375-11.9629C109.375-8.69141 109.375-11.6699 109.375-9.32617L113.086-10.0586C115.625-10.5469 117.432-12.9883 117.432-15.7227L117.432-20.1172C117.432-22.8516 115.625-25.293 113.086-25.7812L109.375-26.5137C109.375-25.5859 109.375-25.5859 109.375-23.877L112.109-27.9785C113.574-30.2246 113.281-33.1055 111.279-35.1562L108.105-38.3789C106.201-40.332 103.32-40.6738 101.025-39.2578L96.6309-36.5723C100.049-36.5723 97.0215-36.5723 99.3652-36.5723L98.6816-40.332C98.2422-42.8711 95.8008-44.6777 92.9688-44.6777L88.4766-44.6777C85.6445-44.6777 83.2031-42.8711 82.7637-40.332L82.0801-36.5723C83.0078-36.5723 83.0078-36.5723 84.8145-36.5723L80.4199-39.2578C78.125-40.6738 75.2441-40.332 73.3398-38.3789L70.166-35.1562C68.1641-33.1055 67.8711-30.2246 69.3359-27.9785L72.0703-23.877C72.0703-27.1484 72.0703-24.1699 72.0703-26.5137L68.3594-25.7812C65.8203-25.293 64.0137-22.8516 64.0137-20.1172L64.0137-15.7227C64.0137-12.9883 65.8203-10.5469 68.3594-10.0586L72.0703-9.32617C72.0703-10.2539 72.0703-10.2539 72.0703-11.9629L69.3359-7.86133C67.8711-5.61523 68.1641-2.73438 70.166-0.683594L73.3398 2.53906C75.2441 4.49219 78.125 4.83398 80.4199 3.41797L84.8145 0.732422C81.3965 0.732422 84.4238 0.732422 82.0801 0.732422L82.7637 4.49219C83.2031 7.03125 85.6445 8.83789 88.4766 8.83789ZM89.6973 0.927734C89.4043 0.927734 90.0879 1.31836 90.0391 1.12305L88.4766-4.93164C86.4746-5.27344 84.8633-5.95703 83.1055-7.22656L77.6855-3.90625C77.7832-4.00391 78.2227-3.71094 78.125-3.80859L76.5625-5.41992C76.4648-5.51758 76.709-5.07812 76.6113-4.98047L79.6875-9.96094C79.7363-10.9863 77.9297-13.2812 77.7344-15.7227L71.582-17.2363C71.4355-17.2852 71.875-16.6016 71.875-16.7969L71.875-19.043C71.875-19.2383 71.4355-18.5547 71.582-18.6035L77.7344-20.1172C77.9297-22.5586 79.7363-24.8535 79.6875-25.8789L76.6113-30.8594C76.709-30.7617 76.4648-30.3223 76.5625-30.4199L78.125-32.0312C78.2227-32.1289 77.7832-31.8359 77.6855-31.9336L83.1055-28.6133C84.8633-29.8828 86.4746-30.5664 88.4766-30.9082L90.0391-36.9629C90.0879-37.1582 89.4043-36.7676 89.6973-36.7676L91.748-36.7676C92.041-36.7676 91.3574-37.1582 91.4062-36.9629L92.9688-30.9082C94.9707-30.5664 96.582-29.8828 98.3398-28.6133L103.76-31.9336C103.662-31.8359 103.223-32.1289 103.32-32.0312L104.883-30.4199C104.98-30.3223 104.736-30.7617 104.834-30.8594L101.758-25.8789C101.709-24.8535 103.516-22.5586 103.711-20.1172L109.863-18.6035C110.01-18.5547 109.57-19.2383 109.57-19.043L109.57-16.7969C109.57-16.6016 110.01-17.2852 109.863-17.2363L103.711-15.7227C103.516-13.2812 101.709-10.9863 101.758-9.96094L104.834-4.98047C104.736-5.07812 104.98-5.51758 104.883-5.41992L103.32-3.80859C103.223-3.71094 103.662-4.00391 103.76-3.90625L98.3398-7.22656C96.582-5.95703 94.9707-5.27344 92.9688-4.93164L91.4062 1.12305C91.3574 1.31836 92.041 0.927734 91.748 0.927734ZM90.7227-9.0332C95.5566-9.0332 99.5605-13.0371 99.5605-17.9199C99.5605-22.7539 95.5566-26.7578 90.7227-26.7578C85.791-26.7578 81.7871-22.8027 81.7871-17.9199C81.7871-13.0371 85.8398-9.0332 90.7227-9.0332ZM90.7715-15.6738C89.4531-15.6738 88.4766-16.6992 88.4766-17.9688C88.4766-19.1895 89.4531-20.166 90.7715-20.166C91.9434-20.166 92.9199-19.1895 92.9199-17.9688C92.9199-16.748 91.8945-15.6738 90.7715-15.6738Z"/>
  </g>
  <g id="Regular-S" transform="matrix(1 0 0 1 1389.86 696)">
   <path class="SFSymbolsPreviewWireframe" d="M34.4238-16.4551L40.0879-16.4551C42.5781-16.4551 44.6289-18.0176 45.166-20.4102L46.1914-25.1465C46.2402-25.1465 46.2891-25.1953 46.3379-25.1953L50.5371-22.6562C52.5879-21.4844 55.1758-21.7285 56.8848-23.4375L60.791-27.3926C62.5977-29.1992 62.8418-31.7383 61.5723-33.7891L58.9844-37.8418C59.0332-37.8906 59.0332-37.9395 59.0332-37.9883L63.7207-39.1113C66.0156-39.6973 67.6758-41.748 67.6758-44.2383L67.6758-49.4629C67.6758-51.9531 66.0645-54.0039 63.7207-54.5898L59.0332-55.7129C59.0332-55.7617 59.0332-55.8105 58.9844-55.9082L61.5723-59.9121C62.8418-62.0117 62.5977-64.502 60.791-66.3086L56.8848-70.2637C55.1758-71.9727 52.5879-72.2168 50.5371-71.0449L46.3379-68.5059C46.2402-68.5059 46.2402-68.5547 46.1426-68.5547L45.166-73.3398C44.6777-75.6836 42.5781-77.2461 40.0879-77.2461L34.4238-77.2461C31.9336-77.2461 29.8828-75.6836 29.3457-73.3398L28.2715-68.5547C28.2227-68.5547 28.1738-68.5059 28.125-68.5059L23.9258-71.0449C21.9238-72.2168 19.3359-71.9727 17.5781-70.2637L13.6719-66.3086C11.8652-64.502 11.6699-61.9629 12.9395-59.9121L15.4785-55.9082C15.4785-55.8105 15.4785-55.7617 15.4297-55.7129L10.791-54.5898C8.39844-54.0039 6.83594-51.9531 6.83594-49.4629L6.83594-44.2383C6.83594-41.748 8.39844-39.6973 10.791-39.1113L15.4297-37.9883C15.4785-37.9395 15.4785-37.8906 15.4785-37.8418L12.9395-33.7891C11.6211-31.7383 11.8652-29.1992 13.6719-27.3926L17.5781-23.4375C19.3359-21.7285 21.875-21.4844 23.877-22.6562L28.1738-25.1953C28.1738-25.1953 28.2715-25.1465 28.2715-25.1465L29.3457-20.4102C29.8828-18.0176 31.9336-16.4551 34.4238-16.4551ZM35.2539-22.5098C35.0098-22.5098 34.9121-22.6562 34.8633-22.9004L33.1543-29.8828C31.1523-30.3223 29.3457-31.2012 27.9785-31.9824L21.875-28.2715C21.6309-28.1738 21.4355-28.1738 21.2891-28.3203L18.5059-31.0547C18.3105-31.25 18.3105-31.3965 18.457-31.5918L22.1191-37.6953C21.6797-38.8672 20.5566-40.6738 20.1172-42.8711L13.2324-44.4824C12.9883-44.5801 12.8418-44.6777 12.8418-44.9219L12.8418-48.7793C12.8418-49.0234 12.9883-49.1699 13.2324-49.2188L20.1172-50.8789C20.5566-53.0273 21.6797-54.8828 22.1191-56.0547L18.457-62.1094C18.3105-62.3535 18.3105-62.4512 18.5059-62.6465L21.2891-65.3809C21.4355-65.5273 21.6309-65.5273 21.875-65.4297L27.9785-61.7188C29.3457-62.5 31.1523-63.4277 33.1543-63.8672L34.8633-70.8496C34.9121-71.0938 35.0098-71.1914 35.2539-71.1914L39.209-71.1914C39.4531-71.1914 39.5996-71.0938 39.6484-70.8496L41.3574-63.8672C43.3594-63.4277 45.1172-62.5 46.5332-61.7188L52.6367-65.4297C52.8809-65.5273 53.0273-65.5273 53.2227-65.3809L56.0059-62.6465C56.1523-62.4512 56.1523-62.3535 56.0547-62.1094L52.3438-56.0547C52.7832-54.8828 53.9551-53.0273 54.3945-50.8789L61.2793-49.2188C61.5234-49.1699 61.6211-49.0234 61.6211-48.7793L61.6211-44.9219C61.6211-44.6777 61.5234-44.5801 61.2793-44.4824L54.3945-42.8711C53.9551-40.6738 52.7832-38.8672 52.3438-37.6953L56.0547-31.5918C56.1523-31.3965 56.1523-31.25 56.0059-31.0547L53.2227-28.3203C53.0273-28.1738 52.8809-28.1738 52.6367-28.2715L46.5332-31.9824C45.1172-31.2012 43.3594-30.3223 41.3574-29.8828L39.6484-22.9004C39.5996-22.6562 39.4531-22.5098 39.209-22.5098ZM37.2559-35.2051C43.6035-35.2051 48.8281-40.4785 48.8281-46.875C48.8281-53.2227 43.6035-58.3984 37.2559-58.3984C30.8105-58.3984 25.6348-53.2227 25.6348-46.875C25.6348-40.5273 30.8105-35.2051 37.2559-35.2051ZM37.2559-41.6504C34.4238-41.6504 32.0312-43.9453 32.0312-46.875C32.0312-49.6582 34.4238-52.002 37.2559-52.002C40.0391-52.002 42.3828-49.6582 42.3828-46.875C42.3828-43.9941 40.0391-41.6504 37.2559-41.6504ZM85.2539 6.73828L89.6973 6.73828C91.9922 6.73828 93.9941 5.37109 94.3848 3.27148L95.0684-0.390625C95.1172-0.390625 95.166-0.390625 95.2148-0.390625L98.291 1.51367C100.195 2.63672 102.539 2.39258 104.102 0.78125L107.275-2.44141C108.838-4.05273 109.18-6.39648 107.959-8.25195L106.006-11.2305C106.006-11.2793 106.006-11.3281 106.055-11.377L109.619-12.1582C111.67-12.5488 113.135-14.502 113.135-16.748L113.135-21.0938C113.135-23.3398 111.67-25.293 109.619-25.7324L106.055-26.4648C106.006-26.5625 106.006-26.5625 106.006-26.6602L107.959-29.5898C109.18-31.4453 108.838-33.7891 107.275-35.4004L104.102-38.623C102.539-40.2832 100.195-40.5273 98.291-39.3555L95.2148-37.4512C95.166-37.4512 95.1172-37.4512 95.0684-37.5L94.3848-41.1133C93.9941-43.2129 91.9922-44.6289 89.6973-44.6289L85.2539-44.6289C82.959-44.6289 80.957-43.2129 80.6152-41.1133L79.8828-37.5C79.834-37.4512 79.7852-37.4512 79.7363-37.4512L76.6602-39.3555C74.7559-40.5273 72.4121-40.2832 70.8496-38.623L67.6758-35.4004C66.1133-33.7891 65.7715-31.4453 66.9922-29.5898L68.9453-26.6602C68.9453-26.5625 68.9453-26.5625 68.8965-26.4648L65.332-25.7324C63.2812-25.293 61.8652-23.3398 61.8652-21.0938L61.8652-16.748C61.8652-14.502 63.2812-12.5488 65.332-12.1582L68.8965-11.377C68.9453-11.3281 68.9453-11.2793 68.9453-11.2305L66.9922-8.25195C65.7715-6.39648 66.1133-4.05273 67.6758-2.44141L70.8496 0.78125C72.4121 2.39258 74.7559 2.63672 76.6602 1.51367L79.7363-0.390625C79.7852-0.390625 79.834-0.390625 79.8828-0.390625L80.6152 3.27148C80.957 5.37109 82.959 6.73828 85.2539 6.73828ZM86.4258 1.02539C86.0352 1.02539 85.8887 0.78125 85.791 0.488281L84.375-5.0293C82.7637-5.37109 81.3477-5.95703 79.7852-6.93359L74.9512-3.95508C74.6582-3.80859 74.3652-3.80859 74.1211-4.05273L72.5586-5.66406C72.2656-5.95703 72.2656-6.20117 72.4121-6.49414L75.293-11.2305C75.0488-12.1582 73.9258-13.8672 73.5352-15.8691L68.0664-17.1875C67.7246-17.2363 67.5293-17.4805 67.5293-17.7734L67.5293-20.0684C67.5293-20.3613 67.7246-20.6055 68.0664-20.6543L73.5352-21.9727C73.9258-23.9746 75.0488-25.7324 75.293-26.6602L72.4121-31.3965C72.2656-31.6406 72.2656-31.8848 72.5586-32.1777L74.1211-33.8379C74.3652-34.0332 74.6582-34.0332 74.9512-33.8867L79.7852-30.9082C81.3477-31.8848 82.7637-32.4707 84.375-32.8125L85.791-38.3301C85.8887-38.6719 86.0352-38.8672 86.4258-38.8672L88.5254-38.8672C88.916-38.8672 89.0625-38.6719 89.1602-38.3301L90.5762-32.8125C92.1875-32.4707 93.6035-31.8848 95.166-30.9082L100-33.8867C100.293-34.0332 100.586-34.0332 100.83-33.8379L102.441-32.1777C102.686-31.8848 102.686-31.6406 102.539-31.3965L99.6582-26.6602C99.9023-25.7324 101.025-23.9746 101.416-21.9727L106.885-20.6543C107.227-20.6055 107.422-20.3613 107.422-20.0684L107.422-17.7734C107.422-17.4805 107.227-17.2363 106.885-17.1875L101.416-15.8691C101.025-13.8672 99.9023-12.1582 99.6582-11.2305L102.539-6.49414C102.686-6.20117 102.686-5.95703 102.441-5.66406L100.83-4.05273C100.586-3.80859 100.293-3.80859 100-3.95508L95.166-6.93359C93.6035-5.95703 92.1875-5.37109 90.5762-5.0293L89.1602 0.488281C89.0625 0.78125 88.916 1.02539 88.5254 1.02539ZM87.5-9.76562C92.4805-9.76562 96.582-13.8672 96.582-18.9453C96.582-23.9258 92.4805-28.0273 87.5-28.0273C82.373-28.0273 78.2715-23.9258 78.2715-18.9453C78.2715-13.916 82.373-9.76562 87.5-9.76562ZM87.5-15.1855C85.4004-15.1855 83.7402-16.8457 83.7402-18.9453C83.7402-20.9473 85.4004-22.5586 87.5-22.5586C89.4043-22.5586 91.0645-20.9473 91.0645-18.9453C91.0645-16.8945 89.4043-15.1855 87.5-15.1855Z"/>
  </g>
  <g id="Ultralight-S" transform="matrix(1 0 0 1 503.268 696)">
   <path class="SFSymbolsPreviewWireframe" d="M32.6528-18.0444L38.0899-18.0444C39.9444-18.0444 41.1778-18.9712 41.6241-20.8188L42.8765-26.2363C43.4248-26.418 43.9278-26.603 44.3853-26.8301L49.1294-23.9277C50.7715-22.9375 52.3604-23.1816 53.6153-24.4365L57.4761-28.2554C58.8286-29.5625 58.982-31.1934 57.9849-32.79L55.0791-37.4785C55.3096-37.9814 55.5366-38.4844 55.7183-38.9873L61.1323-40.292C62.9732-40.6963 63.9068-41.9751 63.9068-43.8296L63.9068-49.1904C63.9068-51.0449 62.9766-52.2783 61.1323-52.728L55.7183-53.9873C55.5366-54.4902 55.3096-55.0386 55.0791-55.5449L57.9849-60.23C58.982-61.8301 58.8286-63.4121 57.4761-64.7193L53.6153-68.5381C52.3604-69.8384 50.7715-70.0825 49.1294-69.0923L44.3853-66.19C43.9243-66.417 43.4248-66.6021 42.8731-66.7837L41.6241-72.1592C41.1812-74.0034 39.9444-74.9756 38.0899-74.9756L32.6528-74.9756C30.7983-74.9756 29.5649-74.0034 29.1187-72.1592L27.8628-66.7837C27.3599-66.6021 26.8115-66.417 26.354-66.19L21.6099-69.0923C19.9712-70.0825 18.4277-69.8384 17.124-68.5381L13.2632-64.7193C11.9106-63.4121 11.7607-61.8267 12.7578-60.23L15.6602-55.5449C15.4331-55.0386 15.2061-54.4902 15.021-53.9873L9.61036-52.728C7.80811-52.2783 6.83594-51.0449 6.83594-49.1904L6.83594-43.8296C6.83594-41.9751 7.80811-40.6963 9.61036-40.292L15.021-38.9873C15.2061-38.4844 15.4331-37.9814 15.6602-37.4785L12.7578-32.79C11.7573-31.1934 11.9106-29.5625 13.2632-28.2554L17.124-24.4365C18.4277-23.1816 19.9678-22.9375 21.6065-23.9277L26.3574-26.8301C26.8115-26.603 27.3633-26.418 27.8628-26.2363L29.1187-20.8188C29.5649-18.9712 30.7983-18.0444 32.6528-18.0444ZM32.938-20.1939C31.9219-20.1939 31.3247-20.6582 31.0943-21.7197L29.6577-27.8394C28.4732-28.2334 27.2569-28.749 26.1621-29.3032L20.876-25.9556C19.9053-25.4038 19.2105-25.4947 18.4737-26.1861L14.9639-29.6016C14.2237-30.3418 14.1783-31.0786 14.7788-32.0005L18.0777-37.332C17.5474-38.4585 17.0147-39.6748 16.6206-40.8277L10.5532-42.2573C9.44632-42.4912 8.98196-43.043 8.98196-44.1045L8.98196-48.9155C8.98196-49.9316 9.44632-50.5322 10.5532-50.7627L16.6206-52.1958C17.0147-53.3452 17.5474-54.5649 18.0777-55.6914L14.7788-60.9741C14.1783-61.9448 14.2237-62.6782 14.9639-63.373L18.4737-66.834C19.2105-67.5254 19.9053-67.6162 20.876-67.0644L26.1621-63.7168C27.2569-64.271 28.4732-64.79 29.6577-65.1841L31.0943-71.2583C31.3247-72.3652 31.9219-72.8262 32.938-72.8262L37.8013-72.8262C38.8628-72.8262 39.418-72.3652 39.6484-71.2583L41.085-65.1841C42.2695-64.79 43.4824-64.271 44.5806-63.7168L49.9121-67.0644C50.8374-67.6162 51.5288-67.5254 52.3145-66.834L55.7788-63.373C56.5156-62.6782 56.561-61.9448 55.9639-60.9741L52.6616-55.6914C53.1919-54.5649 53.728-53.3452 54.1221-52.1958L60.1895-50.7627C61.2964-50.5322 61.7573-49.9316 61.7573-48.9155L61.7573-44.1045C61.7573-43.043 61.2964-42.4912 60.1895-42.2573L54.1221-40.8277C53.728-39.6748 53.1919-38.4585 52.6616-37.332L55.9639-32.0005C56.561-31.0786 56.5156-30.3418 55.7788-29.6016L52.3145-26.1861C51.5288-25.4947 50.8374-25.4038 49.9121-25.9556L44.5806-29.3032C43.4824-28.749 42.2695-28.2334 41.085-27.8394L39.6484-21.7197C39.418-20.6582 38.8628-20.1939 37.8013-20.1939ZM35.3486-35.1143C41.6509-35.1143 46.7393-40.2061 46.7393-46.5117C46.7393-52.814 41.6509-57.8989 35.3486-57.8989C29.0396-57.8989 23.9546-52.814 23.9546-46.5117C23.9546-40.2095 29.0396-35.1143 35.3486-35.1143ZM35.3486-37.291C30.2461-37.291 26.128-41.4024 26.128-46.5117C26.128-51.6108 30.2461-55.7256 35.3486-55.7256C40.4478-55.7256 44.5625-51.6108 44.5625-46.5117C44.5625-41.4058 40.4478-37.291 35.3486-37.291ZM80.0772 4.5132L84.0665 4.5132C85.9073 4.5132 87.001 3.69093 87.3008 2.18165L88.2115-2.52489C88.7144-2.70652 89.2173-2.88816 89.6748-3.11521L93.7046-0.484359C95.0186 0.366229 96.3179 0.167498 97.608-1.12596L100.419-3.93993C101.709-5.23339 101.914-6.53271 101.057-7.84326L98.377-11.8208C98.6041-12.2783 98.8311-12.7812 99.0162-13.2842L103.716-14.2471C105.222-14.5469 106.051-15.6372 106.051-17.4292L106.051-21.457C106.051-23.2944 105.222-24.3848 103.716-24.6426L99.0162-25.6475C98.8311-26.1538 98.6041-26.6079 98.377-27.0688L101.057-31.0884C101.914-32.3535 101.709-33.6982 100.419-34.9917L97.608-37.8057C96.3179-39.0571 95.0186-39.2559 93.7046-38.4473L89.6748-35.771C89.2173-35.9981 88.7144-36.1797 88.2115-36.3648L87.3008-41.1133C87.001-42.6226 85.9073-43.4028 84.0665-43.4028L80.0772-43.4028C78.2364-43.4028 77.1426-42.6226 76.8462-41.1133L75.9322-36.3648C75.4292-36.1797 74.9263-35.9981 74.4234-35.771L70.439-38.4473C69.125-39.2559 67.8257-39.0571 66.5357-37.8057L63.7251-34.9917C62.4351-33.6982 62.2295-32.3535 63.0869-31.0884L65.7212-27.0688C65.4942-26.6079 65.3125-26.1538 65.1275-25.6475L60.4278-24.6426C58.9219-24.3848 58.0962-23.2944 58.0962-21.457L58.0962-17.4292C58.0962-15.6372 58.9219-14.5469 60.4278-14.2471L65.1275-13.2842C65.3125-12.7812 65.4942-12.2783 65.7212-11.8208L63.0869-7.84326C62.2295-6.53271 62.4351-5.23339 63.7251-3.93993L66.5357-1.12596C67.8257 0.167498 69.125 0.366229 70.439-0.484359L74.4234-3.11521C74.9263-2.88816 75.4292-2.70652 75.9322-2.52489L76.8462 2.18165C77.1426 3.69093 78.2364 4.5132 80.0772 4.5132ZM80.3409 2.38768C79.4961 2.38768 78.9864 2.00731 78.8433 1.26025L77.6998-4.16651C76.4971-4.50831 75.3536-5.00343 74.2906-5.5713L69.6836-2.50196C69.0728-2.12843 68.462-2.21925 67.8545-2.82667L65.4747-5.25537C64.8184-5.86621 64.7276-6.47363 65.1465-7.08447L68.209-11.6846C67.6016-12.6577 67.1143-13.8672 66.7691-15.0972L61.3458-16.2339C60.6407-16.3735 60.2637-16.8901 60.2637-17.728L60.2637-21.2036C60.2637-22.0415 60.6407-22.5581 61.3458-22.6977L66.7691-23.8345C67.1143-25.0644 67.6016-26.2319 68.209-27.2051L65.1465-31.8052C64.7276-32.4126 64.8184-33.0654 65.4747-33.6763L67.8545-36.063C68.462-36.667 69.0728-36.7578 69.6836-36.3843L74.2906-33.3149C75.3536-33.9282 76.4971-34.4233 77.6998-34.7651L78.8433-40.1919C78.9864-40.897 79.4961-41.2739 80.3409-41.2739L83.8028-41.2739C84.6475-41.2739 85.1573-40.897 85.3003-40.1919L86.4439-34.7651C87.6465-34.4233 88.7901-33.9282 89.8077-33.3149L94.4146-36.3843C95.0254-36.7578 95.6817-36.667 96.2891-36.063L98.6724-33.6763C99.2798-33.0654 99.3706-32.4126 98.9971-31.8052L95.9346-27.2051C96.4966-26.2319 97.0293-25.0644 97.3745-23.8345L102.798-22.6977C103.503-22.5581 103.88-22.0415 103.88-21.2036L103.88-17.728C103.88-16.8901 103.503-16.3735 102.798-16.2339L97.3745-15.0972C97.0293-13.8672 96.4966-12.6577 95.9346-11.6846L98.9971-7.08447C99.3706-6.47363 99.2798-5.86621 98.6724-5.25537L96.2891-2.82667C95.6817-2.21925 95.0254-2.12843 94.4146-2.50196L89.8077-5.5713C88.7901-5.00343 87.6465-4.50831 86.4439-4.16651L85.3003 1.26025C85.1573 2.00731 84.6475 2.38768 83.8028 2.38768ZM82.0508-11.355C86.5318-11.355 90.1792-15.0024 90.1792-19.4448C90.1792-23.9258 86.5318-27.5732 82.0508-27.5732C77.605-27.5732 73.9576-23.9258 73.9576-19.4448C73.9576-15.0059 77.605-11.355 82.0508-11.355ZM82.0508-13.46C78.7706-13.46 76.066-16.1646 76.066-19.4448C76.066-22.7637 78.7706-25.4194 82.0508-25.4194C85.3628-25.4194 88.0674-22.7637 88.0674-19.4448C88.0674-16.168 85.3628-13.46 82.0508-13.46Z"/>
  </g>
 </g>
</svg>
