<?xml version="1.0" encoding="UTF-8"?>
<!--Generator: Apple Native CoreSVG 232.5-->
<!DOCTYPE svg
PUBLIC "-//W3C//DTD SVG 1.1//EN"
       "http://www.w3.org/Graphics/SVG/1.1/DTD/svg11.dtd">
<svg version="1.1" xmlns="http://www.w3.org/2000/svg" xmlns:xlink="http://www.w3.org/1999/xlink" width="3300" height="2200">
 <!--glyph: "uni10067D.medium", point size: 100.0, font version: "19.2d2e1", template writer version: "128"-->
 <style>.SFSymbolsPreviewWireframe {fill:none;opacity:1.0;stroke:black;stroke-width:0.5}
</style>
 <g id="Notes">
  <rect height="2200" id="artboard" style="fill:white;opacity:1" width="3300" x="0" y="0"/>
  <line style="fill:none;stroke:black;opacity:1;stroke-width:0.5;" x1="263" x2="3036" y1="292" y2="292"/>
  <text style="stroke:none;fill:black;font-family:sans-serif;font-size:13;font-weight:bold;" transform="matrix(1 0 0 1 263 322)">Weight/Scale Variations</text>
  <text style="stroke:none;fill:black;font-family:sans-serif;font-size:13;text-anchor:middle;" transform="matrix(1 0 0 1 559.711 322)">Ultralight</text>
  <text style="stroke:none;fill:black;font-family:sans-serif;font-size:13;text-anchor:middle;" transform="matrix(1 0 0 1 856.422 322)">Thin</text>
  <text style="stroke:none;fill:black;font-family:sans-serif;font-size:13;text-anchor:middle;" transform="matrix(1 0 0 1 1153.13 322)">Light</text>
  <text style="stroke:none;fill:black;font-family:sans-serif;font-size:13;text-anchor:middle;" transform="matrix(1 0 0 1 1449.84 322)">Regular</text>
  <text style="stroke:none;fill:black;font-family:sans-serif;font-size:13;text-anchor:middle;" transform="matrix(1 0 0 1 1746.56 322)">Medium</text>
  <text style="stroke:none;fill:black;font-family:sans-serif;font-size:13;text-anchor:middle;" transform="matrix(1 0 0 1 2043.27 322)">Semibold</text>
  <text style="stroke:none;fill:black;font-family:sans-serif;font-size:13;text-anchor:middle;" transform="matrix(1 0 0 1 2339.98 322)">Bold</text>
  <text style="stroke:none;fill:black;font-family:sans-serif;font-size:13;text-anchor:middle;" transform="matrix(1 0 0 1 2636.69 322)">Heavy</text>
  <text style="stroke:none;fill:black;font-family:sans-serif;font-size:13;text-anchor:middle;" transform="matrix(1 0 0 1 2933.4 322)">Black</text>
  <line style="fill:none;stroke:black;opacity:1;stroke-width:0.5;" x1="263" x2="3036" y1="1903" y2="1903"/>
  <g transform="matrix(0.2 0 0 0.2 263 1933)">
   <path d="m46.2402 4.15039c21.5332 0 39.4531-17.8711 39.4531-39.4043s-17.9688-39.4043-39.502-39.4043c-21.4844 0-39.3555 17.8711-39.3555 39.4043s17.9199 39.4043 39.4043 39.4043Zm0-7.42188c-17.7246 0-31.8848-14.209-31.8848-31.9824s14.1113-31.9824 31.8359-31.9824c17.7734 0 32.0312 14.209 32.0312 31.9824s-14.209 31.9824-31.9824 31.9824Zm-17.9688-31.9824c0 2.14844 1.51367 3.61328 3.75977 3.61328h10.498v10.5957c0 2.19727 1.46484 3.71094 3.61328 3.71094 2.24609 0 3.71094-1.51367 3.71094-3.71094v-10.5957h10.5957c2.19727 0 3.71094-1.46484 3.71094-3.61328 0-2.19727-1.51367-3.71094-3.71094-3.71094h-10.5957v-10.5469c0-2.24609-1.46484-3.75977-3.71094-3.75977-2.14844 0-3.61328 1.51367-3.61328 3.75977v10.5469h-10.498c-2.24609 0-3.75977 1.51367-3.75977 3.71094Z"/>
  </g>
  <g transform="matrix(0.2 0 0 0.2 281.506 1933)">
   <path d="m58.5449 14.5508c27.2461 0 49.8047-22.6074 49.8047-49.8047 0-27.2461-22.6074-49.8047-49.8535-49.8047-27.1973 0-49.7559 22.5586-49.7559 49.8047 0 27.1973 22.6074 49.8047 49.8047 49.8047Zm0-8.30078c-23.0469 0-41.4551-18.457-41.4551-41.5039s18.3594-41.5039 41.4062-41.5039 41.5527 18.457 41.5527 41.5039-18.457 41.5039-41.5039 41.5039Zm-22.6562-41.5039c0 2.39258 1.66016 4.00391 4.15039 4.00391h14.3555v14.4043c0 2.44141 1.66016 4.15039 4.05273 4.15039 2.44141 0 4.15039-1.66016 4.15039-4.15039v-14.4043h14.4043c2.44141 0 4.15039-1.61133 4.15039-4.00391 0-2.44141-1.70898-4.15039-4.15039-4.15039h-14.4043v-14.3555c0-2.49023-1.70898-4.19922-4.15039-4.19922-2.39258 0-4.05273 1.70898-4.05273 4.19922v14.3555h-14.3555c-2.49023 0-4.15039 1.70898-4.15039 4.15039Z"/>
  </g>
  <g transform="matrix(0.2 0 0 0.2 304.924 1933)">
   <path d="m74.8535 28.3203c34.8145 0 63.623-28.8086 63.623-63.5742 0-34.8145-28.8574-63.623-63.6719-63.623-34.7656 0-63.5254 28.8086-63.5254 63.623 0 34.7656 28.8086 63.5742 63.5742 63.5742Zm0-9.08203c-30.1758 0-54.4434-24.3164-54.4434-54.4922 0-30.2246 24.2188-54.4922 54.3945-54.4922 30.2246 0 54.541 24.2676 54.541 54.4922 0 30.1758-24.2676 54.4922-54.4922 54.4922Zm-28.8574-54.4922c0 2.58789 1.85547 4.39453 4.58984 4.39453h19.7266v19.7754c0 2.68555 1.85547 4.58984 4.44336 4.58984 2.68555 0 4.54102-1.85547 4.54102-4.58984v-19.7754h19.7754c2.68555 0 4.58984-1.80664 4.58984-4.39453 0-2.73438-1.85547-4.58984-4.58984-4.58984h-19.7754v-19.7266c0-2.73438-1.85547-4.63867-4.54102-4.63867-2.58789 0-4.44336 1.9043-4.44336 4.63867v19.7266h-19.7266c-2.73438 0-4.58984 1.85547-4.58984 4.58984Z"/>
  </g>
  <text style="stroke:none;fill:black;font-family:sans-serif;font-size:13;font-weight:bold;" transform="matrix(1 0 0 1 263 1953)">Design Variations</text>
  <text style="stroke:none;fill:black;font-family:sans-serif;font-size:13;" transform="matrix(1 0 0 1 263 1971)">Symbols are supported in up to nine weights and three scales.</text>
  <text style="stroke:none;fill:black;font-family:sans-serif;font-size:13;" transform="matrix(1 0 0 1 263 1989)">For optimal layout with text and other symbols, vertically align</text>
  <text style="stroke:none;fill:black;font-family:sans-serif;font-size:13;" transform="matrix(1 0 0 1 263 2007)">symbols with the adjacent text.</text>
  <line style="fill:none;stroke:#00AEEF;stroke-width:0.5;opacity:1.0;" x1="776" x2="776" y1="1919" y2="1933"/>
  <g transform="matrix(0.2 0 0 0.2 776 1933)">
   <path d="m16.5527 0.78125c2.58789 0 3.85742-0.976562 4.78516-3.71094l6.29883-17.2363h28.8086l6.29883 17.2363c0.927734 2.73438 2.19727 3.71094 4.73633 3.71094 2.58789 0 4.24805-1.5625 4.24805-4.00391 0-0.830078-0.146484-1.61133-0.537109-2.63672l-22.9004-60.9863c-1.12305-2.97852-3.125-4.49219-6.25-4.49219-3.02734 0-5.07812 1.46484-6.15234 4.44336l-22.9004 61.084c-0.390625 1.02539-0.537109 1.80664-0.537109 2.63672 0 2.44141 1.5625 3.95508 4.10156 3.95508Zm13.4766-28.3691 11.8652-32.8613h0.244141l11.8652 32.8613Z"/>
  </g>
  <line style="fill:none;stroke:#00AEEF;stroke-width:0.5;opacity:1.0;" x1="792.836" x2="792.836" y1="1919" y2="1933"/>
  <text style="stroke:none;fill:black;font-family:sans-serif;font-size:13;font-weight:bold;" transform="matrix(1 0 0 1 776 1953)">Margins</text>
  <text style="stroke:none;fill:black;font-family:sans-serif;font-size:13;" transform="matrix(1 0 0 1 776 1971)">Leading and trailing margins on the left and right side of each symbol</text>
  <text style="stroke:none;fill:black;font-family:sans-serif;font-size:13;" transform="matrix(1 0 0 1 776 1989)">can be adjusted by modifying the x-location of the margin guidelines.</text>
  <text style="stroke:none;fill:black;font-family:sans-serif;font-size:13;" transform="matrix(1 0 0 1 776 2007)">Modifications are automatically applied proportionally to all</text>
  <text style="stroke:none;fill:black;font-family:sans-serif;font-size:13;" transform="matrix(1 0 0 1 776 2025)">scales and weights.</text>
  <g transform="matrix(0.2 0 0 0.2 1289 1933)">
   <path d="m14.209 9.32617 8.49609 8.54492c4.29688 4.3457 9.22852 4.05273 13.8672-1.07422l53.4668-58.9355-4.83398-4.88281-53.0762 58.3984c-1.75781 2.00195-3.41797 2.49023-5.76172 0.146484l-5.85938-5.81055c-2.34375-2.29492-1.80664-4.00391 0.195312-5.81055l57.373-54.0039-4.88281-4.83398-57.959 54.4434c-4.93164 4.58984-5.32227 9.47266-1.02539 13.8184Zm32.0801-90.9668c-2.09961 2.05078-2.24609 4.93164-1.07422 6.88477 1.17188 1.80664 3.4668 2.97852 6.68945 2.14844 7.32422-1.70898 14.9414-2.00195 22.0703 2.68555l-2.92969 7.27539c-1.70898 4.15039-0.830078 7.08008 1.85547 9.81445l11.4746 11.5723c2.44141 2.44141 4.49219 2.53906 7.32422 2.05078l5.32227-0.976562 3.32031 3.36914-0.195312 2.7832c-0.195312 2.49023 0.439453 4.39453 2.88086 6.78711l3.80859 3.71094c2.39258 2.39258 5.46875 2.53906 7.8125 0.195312l14.5508-14.5996c2.34375-2.34375 2.24609-5.32227-0.146484-7.71484l-3.85742-3.80859c-2.39258-2.39258-4.24805-3.17383-6.64062-2.97852l-2.88086 0.244141-3.22266-3.17383 1.2207-5.61523c0.634766-2.83203-0.146484-5.0293-3.07617-7.95898l-10.9863-10.9375c-16.6992-16.6016-38.8672-16.2109-53.3203-1.75781Zm7.4707 1.85547c12.1582-8.88672 28.6133-7.37305 39.7461 3.75977l12.1582 12.0605c1.17188 1.17188 1.36719 2.09961 1.02539 3.80859l-1.61133 7.42188 7.51953 7.42188 4.93164-0.292969c1.26953-0.0488281 1.66016 0.0488281 2.63672 1.02539l2.88086 2.88086-12.207 12.207-2.88086-2.88086c-0.976562-0.976562-1.12305-1.36719-1.07422-2.68555l0.341797-4.88281-7.4707-7.42188-7.61719 1.26953c-1.61133 0.341797-2.34375 0.195312-3.56445-0.976562l-10.0098-10.0098c-1.26953-1.17188-1.41602-2.00195-0.634766-3.85742l4.39453-10.4492c-7.8125-7.27539-17.9688-10.4004-28.125-7.42188-0.78125 0.195312-1.07422-0.439453-0.439453-0.976562Z"/>
  </g>
  <text style="stroke:none;fill:black;font-family:sans-serif;font-size:13;font-weight:bold;" transform="matrix(1 0 0 1 1289 1953)">Exporting</text>
  <text style="stroke:none;fill:black;font-family:sans-serif;font-size:13;" transform="matrix(1 0 0 1 1289 1971)">Symbols should be outlined when exporting to ensure the</text>
  <text style="stroke:none;fill:black;font-family:sans-serif;font-size:13;" transform="matrix(1 0 0 1 1289 1989)">design is preserved when submitting to Xcode.</text>
  <text id="template-version" style="stroke:none;fill:black;font-family:sans-serif;font-size:13;text-anchor:end;" transform="matrix(1 0 0 1 3036 1933)">Template v.5.0</text>
  <text style="stroke:none;fill:black;font-family:sans-serif;font-size:13;text-anchor:end;" transform="matrix(1 0 0 1 3036 1951)">Requires Xcode 15 or greater</text>
  <text id="descriptive-name" style="stroke:none;fill:black;font-family:sans-serif;font-size:13;text-anchor:end;" transform="matrix(1 0 0 1 3036 1969)">Generated from hand.point.left</text>
  <text style="stroke:none;fill:black;font-family:sans-serif;font-size:13;text-anchor:end;" transform="matrix(1 0 0 1 3036 1987)">Typeset at 100.0 points</text>
  <text style="stroke:none;fill:black;font-family:sans-serif;font-size:13;" transform="matrix(1 0 0 1 263 726)">Small</text>
  <text style="stroke:none;fill:black;font-family:sans-serif;font-size:13;" transform="matrix(1 0 0 1 263 1156)">Medium</text>
  <text style="stroke:none;fill:black;font-family:sans-serif;font-size:13;" transform="matrix(1 0 0 1 263 1586)">Large</text>
 </g>
 <g id="Guides">
  <g id="H-reference" style="fill:#27AAE1;stroke:none;" transform="matrix(1 0 0 1 339 696)">
   <path d="M0.993654 0L3.63775 0L29.3281-67.1323L30.0303-67.1323L30.0303-70.459L28.1226-70.459ZM11.6885-24.4799L46.9815-24.4799L46.2315-26.7285L12.4385-26.7285ZM55.1196 0L57.7637 0L30.6382-70.459L29.4326-70.459L29.4326-67.1323Z"/>
  </g>
  <line id="Baseline-S" style="fill:none;stroke:#27AAE1;opacity:1;stroke-width:0.5;" x1="263" x2="3036" y1="696" y2="696"/>
  <line id="Capline-S" style="fill:none;stroke:#27AAE1;opacity:1;stroke-width:0.5;" x1="263" x2="3036" y1="625.541" y2="625.541"/>
  <g id="H-reference" style="fill:#27AAE1;stroke:none;" transform="matrix(1 0 0 1 339 1126)">
   <path d="M0.993654 0L3.63775 0L29.3281-67.1323L30.0303-67.1323L30.0303-70.459L28.1226-70.459ZM11.6885-24.4799L46.9815-24.4799L46.2315-26.7285L12.4385-26.7285ZM55.1196 0L57.7637 0L30.6382-70.459L29.4326-70.459L29.4326-67.1323Z"/>
  </g>
  <line id="Baseline-M" style="fill:none;stroke:#27AAE1;opacity:1;stroke-width:0.5;" x1="263" x2="3036" y1="1126" y2="1126"/>
  <line id="Capline-M" style="fill:none;stroke:#27AAE1;opacity:1;stroke-width:0.5;" x1="263" x2="3036" y1="1055.54" y2="1055.54"/>
  <g id="H-reference" style="fill:#27AAE1;stroke:none;" transform="matrix(1 0 0 1 339 1556)">
   <path d="M0.993654 0L3.63775 0L29.3281-67.1323L30.0303-67.1323L30.0303-70.459L28.1226-70.459ZM11.6885-24.4799L46.9815-24.4799L46.2315-26.7285L12.4385-26.7285ZM55.1196 0L57.7637 0L30.6382-70.459L29.4326-70.459L29.4326-67.1323Z"/>
  </g>
  <line id="Baseline-L" style="fill:none;stroke:#27AAE1;opacity:1;stroke-width:0.5;" x1="263" x2="3036" y1="1556" y2="1556"/>
  <line id="Capline-L" style="fill:none;stroke:#27AAE1;opacity:1;stroke-width:0.5;" x1="263" x2="3036" y1="1485.54" y2="1485.54"/>
  <line id="left-margin-Ultralight-S" style="fill:none;stroke:#00AEEF;stroke-width:0.5;opacity:1.0;" x1="513.861" x2="513.861" y1="600.785" y2="720.121"/>
  <line id="right-margin-Ultralight-S" style="fill:none;stroke:#00AEEF;stroke-width:0.5;opacity:1.0;" x1="605.561" x2="605.561" y1="600.785" y2="720.121"/>
  <line id="left-margin-Regular-S" style="fill:none;stroke:#00AEEF;stroke-width:0.5;opacity:1.0;" x1="1399.45" x2="1399.45" y1="600.785" y2="720.121"/>
  <line id="right-margin-Regular-S" style="fill:none;stroke:#00AEEF;stroke-width:0.5;opacity:1.0;" x1="1500.24" x2="1500.24" y1="600.785" y2="720.121"/>
  <line id="left-margin-Black-S" style="fill:none;stroke:#00AEEF;stroke-width:0.5;opacity:1.0;" x1="2879.4" x2="2879.4" y1="600.785" y2="720.121"/>
  <line id="right-margin-Black-S" style="fill:none;stroke:#00AEEF;stroke-width:0.5;opacity:1.0;" x1="2987.4" x2="2987.4" y1="600.785" y2="720.121"/>
 </g>
 <g id="Symbols">
  <g id="Black-S" transform="matrix(1 0 0 1 2879.4 696)">
   <path class="SFSymbolsPreviewWireframe" d="M101.172-30.3711C101.221-47.0215 92.2852-59.375 75.7812-65.4297L55.6152-72.8027C53.9062-73.4863 51.9043-73.8281 50-73.8281C43.7012-73.8281 39.3555-69.4336 39.3555-63.0859C39.3555-59.9609 40.5762-57.2266 42.7734-55.3223L42.9688-55.127C43.0664-55.0293 43.1152-54.9805 43.1152-54.8828C43.1152-54.7363 42.9688-54.6387 42.6758-54.6387L20.0195-54.6387C12.7441-54.6387 7.8125-49.707 7.8125-42.3828C7.8125-35.4004 12.7441-30.6641 20.0195-30.6641L25.7324-30.6641C25.7324-30.6152 25.7324-30.5664 25.7324-30.5176C25.7324-26.7578 27.5879-23.877 30.957-22.0703C30.8105-21.3867 30.7617-20.6543 30.7617-19.9219C30.7617-15.9668 32.666-12.5488 35.7422-10.9375C36.2793-2.05078 43.0176 3.51562 53.2715 3.51562L66.3574 3.51562C88.5254 3.51562 101.123-8.74023 101.172-30.3711ZM88.623-30.0781C88.623-16.1621 80.127-8.10547 65.5273-8.10547L51.3184-8.10547C49.2188-8.10547 48.4863-8.78906 48.4863-10.4004L49.8047-10.4004C52.3438-10.4004 54.3945-12.4512 54.3945-14.9414C54.3945-17.4805 52.3438-19.5312 49.8047-19.5312L43.5547-19.5312C42.9688-19.5312 42.5293-20.0684 42.5293-20.6055C42.5293-20.9473 42.5293-21.2891 42.5293-21.6309L48.2422-21.6309C50.6836-21.6309 52.6367-23.584 52.6367-26.0254C52.6367-28.4668 50.6836-30.4199 48.2422-30.4199L38.5254-30.4199C37.9395-30.4199 37.5-30.957 37.5-31.4941C37.5-31.8359 37.5-32.1777 37.5-32.5195L46.3867-32.5195C48.877-32.5195 50.9277-34.5703 50.9277-37.0605C50.9277-39.5508 48.877-41.6016 46.3867-41.6016L19.3848-41.6016C18.7988-41.6016 18.3594-42.0898 18.3594-42.6758C18.3594-43.2617 18.7988-43.6523 19.3848-43.6523L60.6934-43.7012C64.209-43.7012 66.1621-46.2402 66.1621-48.9258C66.1621-50.8301 65.2344-52.7832 63.1348-53.9062L50.8789-60.498C50.5859-60.6445 50.3906-60.9375 50.3906-61.2305C50.3906-61.8652 50.7812-62.1582 51.2207-62.1582C51.416-62.1582 51.5625-62.1094 51.8066-62.0117L71.2402-53.7598C82.5684-48.9258 88.623-41.5527 88.623-30.0781Z"/>
  </g>
  <g id="Regular-S" transform="matrix(1 0 0 1 1399.45 696)">
   <path class="SFSymbolsPreviewWireframe" d="M93.9453-31.0059C93.9453-45.5078 86.1328-55.6152 70.459-61.1816L50.9766-68.1152C49.4629-68.6523 47.7539-68.9453 46.4844-68.8965C41.8457-68.8965 39.3066-65.2832 39.3066-61.2305C39.3066-58.252 41.0156-55.8594 44.1895-54.4922L49.3164-52.2949C49.4629-52.2461 49.5605-52.1484 49.5605-51.9531C49.5605-51.7578 49.4141-51.6602 49.2188-51.6602L16.6992-51.6602C11.377-51.6602 7.8125-48.1445 7.8125-43.0664C7.8125-37.9395 11.377-34.4727 16.6992-34.4727L29.7363-34.4727C29.4922-33.5938 29.3945-32.666 29.3945-31.7871C29.3945-28.2227 31.3965-25.4883 34.7656-24.3652C34.4238-23.291 34.2285-22.168 34.2285-20.9473C34.2285-17.5781 35.9863-15.0879 38.9648-14.1113C39.0625-6.49414 44.6289-1.9043 53.9062-1.9043L63.0371-1.9043C81.9336-1.9043 93.9453-13.3789 93.9453-31.0059ZM87.6465-30.7129C87.6465-16.2598 78.3203-7.91016 62.2559-7.91016L54.8828-7.91016C48.8281-7.91016 45.2637-9.81445 45.2637-13.0371L49.6582-13.0371C51.2207-13.0371 52.3926-14.3555 52.3926-15.8691C52.3926-17.3828 51.2207-18.7988 49.6582-18.7988L43.1152-18.7988C41.3086-18.7988 40.0879-19.873 40.0879-21.7285C40.0879-22.4609 40.2832-23.291 40.5762-23.9258L48.0957-23.9258C49.707-23.9258 50.8301-25.2441 50.8301-26.7578C50.8301-28.2715 49.707-29.6387 48.0957-29.6387L38.3301-29.6387C36.4746-29.6387 35.2539-30.7617 35.2539-32.5684C35.2539-33.3496 35.4492-34.1797 35.7422-34.7656L46.582-34.7656C48.1445-34.7656 49.3164-36.1328 49.3164-37.5977C49.3164-39.1602 48.1445-40.5273 46.582-40.5273L16.2598-40.5273C14.7461-40.5273 13.6719-41.5527 13.6719-43.0664C13.6719-44.5312 14.7461-45.6543 16.2598-45.6543L58.5938-45.6543C60.498-45.6543 61.9629-46.8262 61.9629-48.6328C61.9629-50.0977 61.2793-51.4648 59.082-52.4414L46.9238-58.0078C45.752-58.5449 44.9707-59.2285 44.9707-60.5469C44.9707-62.0605 46.0938-62.9395 47.3633-62.9395C48.0469-62.9395 48.5352-62.8418 49.0723-62.6465L68.5547-55.6641C82.7637-50.5371 87.6465-41.8945 87.6465-30.7129Z"/>
  </g>
  <g id="Ultralight-S" transform="matrix(1 0 0 1 513.861 696)">
   <path class="SFSymbolsPreviewWireframe" d="M84.8634-30.7334C84.8634-43.2373 78.0499-52.2549 65.6455-56.6407L44.0743-64.21C43.1509-64.5655 42.0323-64.7222 41.1714-64.7642C37.668-64.8096 35.4014-62.0137 35.4014-58.8237C35.4468-56.5264 36.8833-54.3609 39.8755-53.1753L52.041-48.3443C52.2783-48.25 52.376-48.0616 52.376-47.9117C52.376-47.7163 52.2295-47.6187 52.0342-47.6187L14.2925-47.6187C10.1963-47.6187 7.8125-44.875 7.8125-41.4317C7.8125-38.1665 10.1963-35.3354 14.2925-35.3354L29.0098-35.3354C28.6294-34.1387 28.3955-32.8931 28.3955-31.7871C28.3955-28.5859 30.125-26.2602 32.8584-25.6367C32.4258-24.29 32.1397-22.9853 32.1397-21.7646C32.1397-18.5771 33.9429-16.4048 36.6489-15.6553C36.7012-8.94627 41.541-5.40085 50.6822-5.40085L57.9058-5.40085C76.1211-5.40085 84.8634-16.4214 84.8634-30.7334ZM82.833-30.7129C82.833-17.5312 74.5967-7.6377 57.8511-7.6377L50.7505-7.6377C42.8794-7.6377 38.7701-10.314 38.7701-15.3984L44.1636-15.3984C45.272-15.3984 45.6719-15.9448 45.6719-16.5049C45.6719-17.1104 45.272-17.6182 44.1636-17.6182L39.1192-17.6182C35.9502-17.6182 34.1846-19.2827 34.1846-22.001C34.1846-23.0059 34.4253-24.29 34.8545-25.4243L42.6011-25.4243C43.7129-25.4243 44.1548-25.9253 44.1548-26.5308C44.1548-27.0908 43.7129-27.6406 42.6011-27.6406L35.333-27.6406C32.1607-27.6406 30.3951-29.2178 30.3951-32.0234C30.3951-33.0317 30.6812-34.2705 31.065-35.356L41.1329-35.356C41.9234-35.356 42.5958-35.7241 42.5958-36.4624C42.5958-37.2529 41.9234-37.6211 41.1329-37.6211L14.2617-37.6211C11.5674-37.6211 9.81204-39.0552 9.81204-41.4317C9.81204-43.8955 11.5674-45.3818 14.2617-45.3818L52.7359-45.3818C54.2315-45.3818 55.0152-46.4175 55.0152-47.6792C55.0152-48.7354 54.5132-49.603 53.2696-50.1255L40.6573-55.147C38.668-55.9566 37.5235-57.2759 37.5235-58.8213C37.5235-60.9253 39.1461-62.5308 41.0513-62.5308C41.9166-62.5308 42.5411-62.3877 43.2598-62.1016L64.8311-54.5288C76.1793-50.5825 82.833-42.0762 82.833-30.7129Z"/>
  </g>
 </g>
</svg>
