<?xml version="1.0" encoding="UTF-8"?>
<!--Generator: Apple Native CoreSVG 232.5-->
<!DOCTYPE svg
PUBLIC "-//W3C//DTD SVG 1.1//EN"
       "http://www.w3.org/Graphics/SVG/1.1/DTD/svg11.dtd">
<svg version="1.1" xmlns="http://www.w3.org/2000/svg" xmlns:xlink="http://www.w3.org/1999/xlink" width="3300" height="2200">
 <!--glyph: "uni101BC8.medium", point size: 100.0, font version: "19.2d2e1", template writer version: "128"-->
 <style>.SFSymbolsPreviewWireframe {fill:none;opacity:1.0;stroke:black;stroke-width:0.5}
</style>
 <g id="Notes">
  <rect height="2200" id="artboard" style="fill:white;opacity:1" width="3300" x="0" y="0"/>
  <line style="fill:none;stroke:black;opacity:1;stroke-width:0.5;" x1="263" x2="3036" y1="292" y2="292"/>
  <text style="stroke:none;fill:black;font-family:sans-serif;font-size:13;font-weight:bold;" transform="matrix(1 0 0 1 263 322)">Weight/Scale Variations</text>
  <text style="stroke:none;fill:black;font-family:sans-serif;font-size:13;text-anchor:middle;" transform="matrix(1 0 0 1 559.711 322)">Ultralight</text>
  <text style="stroke:none;fill:black;font-family:sans-serif;font-size:13;text-anchor:middle;" transform="matrix(1 0 0 1 856.422 322)">Thin</text>
  <text style="stroke:none;fill:black;font-family:sans-serif;font-size:13;text-anchor:middle;" transform="matrix(1 0 0 1 1153.13 322)">Light</text>
  <text style="stroke:none;fill:black;font-family:sans-serif;font-size:13;text-anchor:middle;" transform="matrix(1 0 0 1 1449.84 322)">Regular</text>
  <text style="stroke:none;fill:black;font-family:sans-serif;font-size:13;text-anchor:middle;" transform="matrix(1 0 0 1 1746.56 322)">Medium</text>
  <text style="stroke:none;fill:black;font-family:sans-serif;font-size:13;text-anchor:middle;" transform="matrix(1 0 0 1 2043.27 322)">Semibold</text>
  <text style="stroke:none;fill:black;font-family:sans-serif;font-size:13;text-anchor:middle;" transform="matrix(1 0 0 1 2339.98 322)">Bold</text>
  <text style="stroke:none;fill:black;font-family:sans-serif;font-size:13;text-anchor:middle;" transform="matrix(1 0 0 1 2636.69 322)">Heavy</text>
  <text style="stroke:none;fill:black;font-family:sans-serif;font-size:13;text-anchor:middle;" transform="matrix(1 0 0 1 2933.4 322)">Black</text>
  <line style="fill:none;stroke:black;opacity:1;stroke-width:0.5;" x1="263" x2="3036" y1="1903" y2="1903"/>
  <g transform="matrix(0.2 0 0 0.2 263 1933)">
   <path d="m46.2402 4.15039c21.5332 0 39.4531-17.8711 39.4531-39.4043s-17.9688-39.4043-39.502-39.4043c-21.4844 0-39.3555 17.8711-39.3555 39.4043s17.9199 39.4043 39.4043 39.4043Zm0-7.42188c-17.7246 0-31.8848-14.209-31.8848-31.9824s14.1113-31.9824 31.8359-31.9824c17.7734 0 32.0312 14.209 32.0312 31.9824s-14.209 31.9824-31.9824 31.9824Zm-17.9688-31.9824c0 2.14844 1.51367 3.61328 3.75977 3.61328h10.498v10.5957c0 2.19727 1.46484 3.71094 3.61328 3.71094 2.24609 0 3.71094-1.51367 3.71094-3.71094v-10.5957h10.5957c2.19727 0 3.71094-1.46484 3.71094-3.61328 0-2.19727-1.51367-3.71094-3.71094-3.71094h-10.5957v-10.5469c0-2.24609-1.46484-3.75977-3.71094-3.75977-2.14844 0-3.61328 1.51367-3.61328 3.75977v10.5469h-10.498c-2.24609 0-3.75977 1.51367-3.75977 3.71094Z"/>
  </g>
  <g transform="matrix(0.2 0 0 0.2 281.506 1933)">
   <path d="m58.5449 14.5508c27.2461 0 49.8047-22.6074 49.8047-49.8047 0-27.2461-22.6074-49.8047-49.8535-49.8047-27.1973 0-49.7559 22.5586-49.7559 49.8047 0 27.1973 22.6074 49.8047 49.8047 49.8047Zm0-8.30078c-23.0469 0-41.4551-18.457-41.4551-41.5039s18.3594-41.5039 41.4062-41.5039 41.5527 18.457 41.5527 41.5039-18.457 41.5039-41.5039 41.5039Zm-22.6562-41.5039c0 2.39258 1.66016 4.00391 4.15039 4.00391h14.3555v14.4043c0 2.44141 1.66016 4.15039 4.05273 4.15039 2.44141 0 4.15039-1.66016 4.15039-4.15039v-14.4043h14.4043c2.44141 0 4.15039-1.61133 4.15039-4.00391 0-2.44141-1.70898-4.15039-4.15039-4.15039h-14.4043v-14.3555c0-2.49023-1.70898-4.19922-4.15039-4.19922-2.39258 0-4.05273 1.70898-4.05273 4.19922v14.3555h-14.3555c-2.49023 0-4.15039 1.70898-4.15039 4.15039Z"/>
  </g>
  <g transform="matrix(0.2 0 0 0.2 304.924 1933)">
   <path d="m74.8535 28.3203c34.8145 0 63.623-28.8086 63.623-63.5742 0-34.8145-28.8574-63.623-63.6719-63.623-34.7656 0-63.5254 28.8086-63.5254 63.623 0 34.7656 28.8086 63.5742 63.5742 63.5742Zm0-9.08203c-30.1758 0-54.4434-24.3164-54.4434-54.4922 0-30.2246 24.2188-54.4922 54.3945-54.4922 30.2246 0 54.541 24.2676 54.541 54.4922 0 30.1758-24.2676 54.4922-54.4922 54.4922Zm-28.8574-54.4922c0 2.58789 1.85547 4.39453 4.58984 4.39453h19.7266v19.7754c0 2.68555 1.85547 4.58984 4.44336 4.58984 2.68555 0 4.54102-1.85547 4.54102-4.58984v-19.7754h19.7754c2.68555 0 4.58984-1.80664 4.58984-4.39453 0-2.73438-1.85547-4.58984-4.58984-4.58984h-19.7754v-19.7266c0-2.73438-1.85547-4.63867-4.54102-4.63867-2.58789 0-4.44336 1.9043-4.44336 4.63867v19.7266h-19.7266c-2.73438 0-4.58984 1.85547-4.58984 4.58984Z"/>
  </g>
  <text style="stroke:none;fill:black;font-family:sans-serif;font-size:13;font-weight:bold;" transform="matrix(1 0 0 1 263 1953)">Design Variations</text>
  <text style="stroke:none;fill:black;font-family:sans-serif;font-size:13;" transform="matrix(1 0 0 1 263 1971)">Symbols are supported in up to nine weights and three scales.</text>
  <text style="stroke:none;fill:black;font-family:sans-serif;font-size:13;" transform="matrix(1 0 0 1 263 1989)">For optimal layout with text and other symbols, vertically align</text>
  <text style="stroke:none;fill:black;font-family:sans-serif;font-size:13;" transform="matrix(1 0 0 1 263 2007)">symbols with the adjacent text.</text>
  <line style="fill:none;stroke:#00AEEF;stroke-width:0.5;opacity:1.0;" x1="776" x2="776" y1="1919" y2="1933"/>
  <g transform="matrix(0.2 0 0 0.2 776 1933)">
   <path d="m16.5527 0.78125c2.58789 0 3.85742-0.976562 4.78516-3.71094l6.29883-17.2363h28.8086l6.29883 17.2363c0.927734 2.73438 2.19727 3.71094 4.73633 3.71094 2.58789 0 4.24805-1.5625 4.24805-4.00391 0-0.830078-0.146484-1.61133-0.537109-2.63672l-22.9004-60.9863c-1.12305-2.97852-3.125-4.49219-6.25-4.49219-3.02734 0-5.07812 1.46484-6.15234 4.44336l-22.9004 61.084c-0.390625 1.02539-0.537109 1.80664-0.537109 2.63672 0 2.44141 1.5625 3.95508 4.10156 3.95508Zm13.4766-28.3691 11.8652-32.8613h0.244141l11.8652 32.8613Z"/>
  </g>
  <line style="fill:none;stroke:#00AEEF;stroke-width:0.5;opacity:1.0;" x1="792.836" x2="792.836" y1="1919" y2="1933"/>
  <text style="stroke:none;fill:black;font-family:sans-serif;font-size:13;font-weight:bold;" transform="matrix(1 0 0 1 776 1953)">Margins</text>
  <text style="stroke:none;fill:black;font-family:sans-serif;font-size:13;" transform="matrix(1 0 0 1 776 1971)">Leading and trailing margins on the left and right side of each symbol</text>
  <text style="stroke:none;fill:black;font-family:sans-serif;font-size:13;" transform="matrix(1 0 0 1 776 1989)">can be adjusted by modifying the x-location of the margin guidelines.</text>
  <text style="stroke:none;fill:black;font-family:sans-serif;font-size:13;" transform="matrix(1 0 0 1 776 2007)">Modifications are automatically applied proportionally to all</text>
  <text style="stroke:none;fill:black;font-family:sans-serif;font-size:13;" transform="matrix(1 0 0 1 776 2025)">scales and weights.</text>
  <g transform="matrix(0.2 0 0 0.2 1289 1933)">
   <path d="m14.209 9.32617 8.49609 8.54492c4.29688 4.3457 9.22852 4.05273 13.8672-1.07422l53.4668-58.9355-4.83398-4.88281-53.0762 58.3984c-1.75781 2.00195-3.41797 2.49023-5.76172 0.146484l-5.85938-5.81055c-2.34375-2.29492-1.80664-4.00391 0.195312-5.81055l57.373-54.0039-4.88281-4.83398-57.959 54.4434c-4.93164 4.58984-5.32227 9.47266-1.02539 13.8184Zm32.0801-90.9668c-2.09961 2.05078-2.24609 4.93164-1.07422 6.88477 1.17188 1.80664 3.4668 2.97852 6.68945 2.14844 7.32422-1.70898 14.9414-2.00195 22.0703 2.68555l-2.92969 7.27539c-1.70898 4.15039-0.830078 7.08008 1.85547 9.81445l11.4746 11.5723c2.44141 2.44141 4.49219 2.53906 7.32422 2.05078l5.32227-0.976562 3.32031 3.36914-0.195312 2.7832c-0.195312 2.49023 0.439453 4.39453 2.88086 6.78711l3.80859 3.71094c2.39258 2.39258 5.46875 2.53906 7.8125 0.195312l14.5508-14.5996c2.34375-2.34375 2.24609-5.32227-0.146484-7.71484l-3.85742-3.80859c-2.39258-2.39258-4.24805-3.17383-6.64062-2.97852l-2.88086 0.244141-3.22266-3.17383 1.2207-5.61523c0.634766-2.83203-0.146484-5.0293-3.07617-7.95898l-10.9863-10.9375c-16.6992-16.6016-38.8672-16.2109-53.3203-1.75781Zm7.4707 1.85547c12.1582-8.88672 28.6133-7.37305 39.7461 3.75977l12.1582 12.0605c1.17188 1.17188 1.36719 2.09961 1.02539 3.80859l-1.61133 7.42188 7.51953 7.42188 4.93164-0.292969c1.26953-0.0488281 1.66016 0.0488281 2.63672 1.02539l2.88086 2.88086-12.207 12.207-2.88086-2.88086c-0.976562-0.976562-1.12305-1.36719-1.07422-2.68555l0.341797-4.88281-7.4707-7.42188-7.61719 1.26953c-1.61133 0.341797-2.34375 0.195312-3.56445-0.976562l-10.0098-10.0098c-1.26953-1.17188-1.41602-2.00195-0.634766-3.85742l4.39453-10.4492c-7.8125-7.27539-17.9688-10.4004-28.125-7.42188-0.78125 0.195312-1.07422-0.439453-0.439453-0.976562Z"/>
  </g>
  <text style="stroke:none;fill:black;font-family:sans-serif;font-size:13;font-weight:bold;" transform="matrix(1 0 0 1 1289 1953)">Exporting</text>
  <text style="stroke:none;fill:black;font-family:sans-serif;font-size:13;" transform="matrix(1 0 0 1 1289 1971)">Symbols should be outlined when exporting to ensure the</text>
  <text style="stroke:none;fill:black;font-family:sans-serif;font-size:13;" transform="matrix(1 0 0 1 1289 1989)">design is preserved when submitting to Xcode.</text>
  <text id="template-version" style="stroke:none;fill:black;font-family:sans-serif;font-size:13;text-anchor:end;" transform="matrix(1 0 0 1 3036 1933)">Template v.5.0</text>
  <text style="stroke:none;fill:black;font-family:sans-serif;font-size:13;text-anchor:end;" transform="matrix(1 0 0 1 3036 1951)">Requires Xcode 15 or greater</text>
  <text id="descriptive-name" style="stroke:none;fill:black;font-family:sans-serif;font-size:13;text-anchor:end;" transform="matrix(1 0 0 1 3036 1969)">Generated from hand.draw</text>
  <text style="stroke:none;fill:black;font-family:sans-serif;font-size:13;text-anchor:end;" transform="matrix(1 0 0 1 3036 1987)">Typeset at 100.0 points</text>
  <text style="stroke:none;fill:black;font-family:sans-serif;font-size:13;" transform="matrix(1 0 0 1 263 726)">Small</text>
  <text style="stroke:none;fill:black;font-family:sans-serif;font-size:13;" transform="matrix(1 0 0 1 263 1156)">Medium</text>
  <text style="stroke:none;fill:black;font-family:sans-serif;font-size:13;" transform="matrix(1 0 0 1 263 1586)">Large</text>
 </g>
 <g id="Guides">
  <g id="H-reference" style="fill:#27AAE1;stroke:none;" transform="matrix(1 0 0 1 339 696)">
   <path d="M0.993654 0L3.63775 0L29.3281-67.1323L30.0303-67.1323L30.0303-70.459L28.1226-70.459ZM11.6885-24.4799L46.9815-24.4799L46.2315-26.7285L12.4385-26.7285ZM55.1196 0L57.7637 0L30.6382-70.459L29.4326-70.459L29.4326-67.1323Z"/>
  </g>
  <line id="Baseline-S" style="fill:none;stroke:#27AAE1;opacity:1;stroke-width:0.5;" x1="263" x2="3036" y1="696" y2="696"/>
  <line id="Capline-S" style="fill:none;stroke:#27AAE1;opacity:1;stroke-width:0.5;" x1="263" x2="3036" y1="625.541" y2="625.541"/>
  <g id="H-reference" style="fill:#27AAE1;stroke:none;" transform="matrix(1 0 0 1 339 1126)">
   <path d="M0.993654 0L3.63775 0L29.3281-67.1323L30.0303-67.1323L30.0303-70.459L28.1226-70.459ZM11.6885-24.4799L46.9815-24.4799L46.2315-26.7285L12.4385-26.7285ZM55.1196 0L57.7637 0L30.6382-70.459L29.4326-70.459L29.4326-67.1323Z"/>
  </g>
  <line id="Baseline-M" style="fill:none;stroke:#27AAE1;opacity:1;stroke-width:0.5;" x1="263" x2="3036" y1="1126" y2="1126"/>
  <line id="Capline-M" style="fill:none;stroke:#27AAE1;opacity:1;stroke-width:0.5;" x1="263" x2="3036" y1="1055.54" y2="1055.54"/>
  <g id="H-reference" style="fill:#27AAE1;stroke:none;" transform="matrix(1 0 0 1 339 1556)">
   <path d="M0.993654 0L3.63775 0L29.3281-67.1323L30.0303-67.1323L30.0303-70.459L28.1226-70.459ZM11.6885-24.4799L46.9815-24.4799L46.2315-26.7285L12.4385-26.7285ZM55.1196 0L57.7637 0L30.6382-70.459L29.4326-70.459L29.4326-67.1323Z"/>
  </g>
  <line id="Baseline-L" style="fill:none;stroke:#27AAE1;opacity:1;stroke-width:0.5;" x1="263" x2="3036" y1="1556" y2="1556"/>
  <line id="Capline-L" style="fill:none;stroke:#27AAE1;opacity:1;stroke-width:0.5;" x1="263" x2="3036" y1="1485.54" y2="1485.54"/>
  <line id="left-margin-Ultralight-S" style="fill:none;stroke:#00AEEF;stroke-width:0.5;opacity:1.0;" x1="515.787" x2="515.787" y1="600.785" y2="720.121"/>
  <line id="right-margin-Ultralight-S" style="fill:none;stroke:#00AEEF;stroke-width:0.5;opacity:1.0;" x1="603.635" x2="603.635" y1="600.785" y2="720.121"/>
  <line id="left-margin-Regular-S" style="fill:none;stroke:#00AEEF;stroke-width:0.5;opacity:1.0;" x1="1399.06" x2="1399.06" y1="600.785" y2="720.121"/>
  <line id="right-margin-Regular-S" style="fill:none;stroke:#00AEEF;stroke-width:0.5;opacity:1.0;" x1="1500.63" x2="1500.63" y1="600.785" y2="720.121"/>
  <line id="left-margin-Black-S" style="fill:none;stroke:#00AEEF;stroke-width:0.5;opacity:1.0;" x1="2875.34" x2="2875.34" y1="600.785" y2="720.121"/>
  <line id="right-margin-Black-S" style="fill:none;stroke:#00AEEF;stroke-width:0.5;opacity:1.0;" x1="2991.46" x2="2991.46" y1="600.785" y2="720.121"/>
 </g>
 <g id="Symbols">
  <g id="Black-S" transform="matrix(1 0 0 1 2875.34 696)">
   <path class="SFSymbolsPreviewWireframe" d="M11.2793-25.3906C13.6719-25.3906 15.5273-27.3438 15.5762-29.7852C15.918-45.2637 23.4863-57.2266 35.9375-62.2559C38.3789-63.2324 39.6484-65.4297 38.8184-67.9199C37.9883-70.4102 35.5957-71.7285 33.1543-70.752C17.041-64.4043 6.83594-48.6816 6.83594-29.8828C6.83594-27.3926 8.88672-25.3906 11.2793-25.3906ZM88.623 11.7188C112.207 3.07617 121.094-16.5527 112.305-40.6738L107.812-53.0273C103.564-64.5996 94.1895-70.8008 83.5938-69.1406C80.3223-70.8984 76.3184-71.4844 72.168-70.5566C69.6777-71.4844 67.0898-72.0215 64.502-72.0703L64.4531-72.2168C61.0352-82.5195 51.0742-87.4512 41.0156-83.7891C30.8594-80.127 26.1719-70.1172 29.8828-59.9609L34.375-47.6562C33.6914-47.5098 33.0566-47.3145 32.373-47.0703C23.0957-43.75 18.75-34.5215 22.1191-25.293C22.998-22.8027 24.4141-20.3125 26.1719-18.3594L39.9414-2.00195C52.9785 13.4766 70.459 18.4082 88.623 11.7188ZM86.4258 5.76172C106.738-1.66016 113.916-17.6758 106.348-38.5254L101.855-50.8301C98.3398-60.4492 90.8203-64.8926 82.2754-62.3535C79.7363-64.6973 75.8789-65.2832 72.168-63.9648C71.4355-63.7207 70.8008-63.4277 70.2148-63.0371C67.334-65.5762 64.0137-66.3574 60.4492-65.0391C60.4004-65.0391 60.3516-65.0391 60.3516-64.9902L58.3984-70.3613C55.9082-77.1973 49.7559-80.2246 43.1641-77.832C36.3281-75.3418 33.3496-68.9941 35.8398-62.1582L43.6035-40.8691C43.7012-40.625 43.6523-40.4297 43.5059-40.3809C43.4082-40.332 43.3594-40.3809 43.2129-40.4297L42.9688-40.5762C40.4297-41.9922 37.4512-42.1875 34.5215-41.1133C28.5645-38.9648 25.9277-33.3496 28.0762-27.4414C28.7109-25.6348 29.7363-23.877 30.957-22.5098L44.7754-6.10352C56.1035 7.37305 70.8008 11.5234 86.4258 5.76172ZM82.373-6.10352C71.6309-2.19727 62.5977-5.37109 54.1992-14.3555L39.7949-29.7852C39.5996-29.9805 39.502-30.0781 39.4531-30.2734C39.3066-30.7129 39.4531-31.1523 40.0391-31.3965C40.332-31.4941 40.6738-31.3965 40.918-31.1523L51.2695-21.9238C53.0762-20.3125 55.2246-20.1172 56.9824-20.752C59.5215-21.6797 61.2305-24.3652 60.0586-27.6855L45.9473-66.5039C45.752-67.0898 45.9473-67.627 46.5332-67.8223C47.0703-68.0176 47.6562-67.7734 47.9004-67.2363L57.1289-41.8457C57.959-39.502 60.5957-38.2812 62.9395-39.1602C65.2832-39.9902 66.5039-42.627 65.6738-44.9707L62.5977-53.3203C62.9395-53.418 63.2324-53.5645 63.5742-53.6621C64.0625-53.8574 64.7461-53.6133 64.9414-53.0762L68.2617-43.9453C69.0918-41.6504 71.582-40.4785 73.877-41.3086C76.1719-42.1387 77.3438-44.6289 76.5137-46.9238L74.5605-52.2949C74.9023-52.4414 75.1953-52.5391 75.5371-52.6367C76.0254-52.832 76.709-52.6367 76.9043-52.0508L79.0039-46.1914C79.8828-43.7988 82.5195-42.5781 84.9121-43.457C87.2559-44.2871 88.4766-46.9238 87.5977-49.3164L87.1582-50.5371C88.6719-51.123 89.5508-50.6348 90.2832-48.6816L95.1172-35.3027C100.146-21.582 95.459-10.8887 82.373-6.10352Z"/>
  </g>
  <g id="Regular-S" transform="matrix(1 0 0 1 1399.06 696)">
   <path class="SFSymbolsPreviewWireframe" d="M9.61914-24.4141C11.1328-24.4629 12.207-25.6348 12.2559-27.1484C12.6465-39.5996 16.9922-51.5137 31.5918-60.4004C32.9102-61.2793 33.3008-62.8418 32.666-64.1602C31.9336-65.3809 30.0781-65.9668 28.7598-65.0879C12.9395-55.957 6.83594-41.8457 6.83594-27.2461C6.83594-25.6836 8.1543-24.3652 9.61914-24.4141ZM78.418 6.05469C97.168-0.732422 104.883-18.5059 97.7539-38.3789L94.8242-46.582C91.3086-56.2988 83.7891-61.5723 75.1953-60.2539C71.9727-62.4512 67.627-62.8906 63.7207-61.2793C61.3281-62.7441 58.5938-63.2812 55.8105-62.9395L53.5645-69.2871C50.8301-76.8555 43.3105-80.6152 35.6445-77.8809C28.1738-75.0977 24.5605-67.5293 27.3926-59.8145L33.0566-44.2383C31.8848-44.2871 30.7617-44.1406 29.6387-43.75C23.0957-41.3574 19.1406-34.7168 21.6309-27.6367C22.2168-25.9766 23.2422-23.877 24.8535-22.0215L37.4023-6.88477C48.9746 7.03125 63.0371 11.6699 78.418 6.05469ZM76.4648 0.683594C92.2363-5.0293 98.584-19.5312 92.3828-36.4746L89.4531-44.6289C86.4258-52.9297 80.5176-56.3965 73.6816-54.0039C71.8262-56.3965 68.9941-57.1777 65.9668-56.1035C64.8926-55.6641 63.916-55.127 63.0859-54.4434C60.9863-57.0801 57.8613-58.0078 54.6875-56.8359C53.9062-56.543 53.125-56.1523 52.4414-55.6641L48.1445-67.334C46.4355-72.0703 42.1387-74.1699 37.5977-72.5098C33.0566-70.8496 31.0547-66.5039 32.7637-61.7188L43.3594-32.6172C43.457-32.4219 43.4082-32.2754 43.2129-32.1777C43.0664-32.1289 42.9688-32.1777 42.8711-32.3242L39.209-36.1816C36.9629-38.5742 34.2285-39.3555 31.5918-38.3789C27.9297-37.0605 25.5859-33.5938 27.0508-29.4922C27.4414-28.3203 28.2715-26.8555 29.1992-25.6836L41.7969-10.498C51.8555 1.70898 63.4766 5.41992 76.4648 0.683594ZM74.6582-5.0293C64.5996-1.41602 55.3223-2.97852 46.1426-14.0137L33.4961-29.1504C33.1543-29.5898 32.9102-29.9805 32.666-30.6152C32.2754-31.7383 32.7148-33.0078 34.082-33.4961C35.2539-33.9355 36.084-33.4961 36.9629-32.5684L45.8984-23.5352C47.5098-21.875 48.877-21.7285 50.2441-22.2168C51.8066-22.8027 52.4414-24.5117 51.8066-26.2207L38.0371-64.1113C37.5488-65.4297 38.1836-66.748 39.502-67.2363C40.8691-67.7246 42.1387-67.0898 42.627-65.7715L52.4902-38.623C53.0273-37.207 54.6387-36.6211 56.0059-37.1582C57.3242-37.6465 58.1543-39.1113 57.666-40.4785L54.1016-50.1465C54.541-50.6348 55.2246-51.0742 55.9082-51.3184C57.5684-51.9531 58.9355-51.2207 59.5703-49.5605L62.7441-40.7715C63.2324-39.3555 64.8438-38.8184 66.2109-39.3066C67.5781-39.7949 68.4082-41.2598 67.8711-42.627L65.4297-49.4141C65.8691-49.8535 66.5527-50.3418 67.1875-50.5859C68.8477-51.1719 70.2148-50.4395 70.8496-48.7793L72.9492-42.9199C73.4863-41.5527 75.0977-40.9668 76.4648-41.4551C77.7832-41.9434 78.6133-43.4082 78.125-44.8242L76.6602-48.7793C79.541-49.8047 82.4219-47.2168 84.375-41.7969L86.7676-35.2051C91.9922-20.8496 87.5488-9.76562 74.6582-5.0293Z"/>
  </g>
  <g id="Ultralight-S" transform="matrix(1 0 0 1 515.787 696)">
   <path class="SFSymbolsPreviewWireframe" d="M7.89357-28.7734C8.49904-28.7768 8.89212-29.2221 8.89553-29.873C8.92288-44.0498 15.8115-55.4643 27.0962-60.8091C27.5972-61.0522 27.8062-61.5703 27.6255-62.2075C27.3926-62.8833 26.7178-63.106 26.126-62.772C14.1201-56.956 6.83594-44.5703 6.83594-29.9253C6.83594-29.3618 7.38233-28.77 7.89357-28.7734ZM66.1119 0.87797C80.2755-4.27439 88.3536-17.3252 81.7697-35.4273L79.4757-41.9048C76.278-50.5772 70.711-54.9878 63.7975-53.5787C60.1207-56.5933 55.6388-55.6705 53.0494-54.1954C50.0665-56.2959 47.2413-55.9249 44.3673-54.9927L40.7589-64.7461C38.7965-70.044 33.6837-71.9874 29.2872-70.3428C24.7227-68.6949 22.063-63.9419 24.0323-58.5884L31.6489-37.6993C28.9331-40.3819 25.6758-40.9619 22.7818-40.0264C18.1006-38.2696 15.7349-33.4453 17.4986-28.9082C17.8575-28.02 18.565-26.647 19.4043-25.6997L33.2246-8.8828C41.9815 1.76371 53.6827 5.40337 66.1119 0.87797ZM65.067-2.04099C77.8414-6.66405 84.8702-18.0781 78.8961-34.3858L76.6022-40.8145C73.5748-49.0244 68.8473-52.2188 62.8287-50.0987C61.2911-52.2642 58.7315-53.1363 55.8858-52.1075C54.7662-51.7134 53.6988-51.0401 52.6871-50.2202C51.1778-52.4029 48.5523-53.2852 45.6964-52.2495C44.6881-51.8658 43.6344-51.2481 42.6783-50.4873L37.8819-63.6558C36.5816-67.3023 33.2838-68.5845 30.3321-67.5147C27.2442-66.354 25.6055-63.3252 26.9058-59.6753L39.2271-25.8965C39.2793-25.7012 39.2305-25.5093 39.0806-25.4571C38.9341-25.4083 38.7456-25.4571 38.6026-25.649L30.2633-35.001C28.2442-37.2573 25.8731-37.8115 23.7813-37.1074C20.8912-36.0615 19.1377-33.1851 20.3755-30.0371C20.6753-29.2739 21.1876-28.354 21.752-27.6362L35.5757-10.8159C43.5455-1.10642 53.8497 2.0596 65.067-2.04099ZM64.3956-3.89405C54.2008-0.189951 44.4239-3.34179 37.1968-12.1519L23.4151-29.0142C22.9371-29.5898 22.6021-30.1167 22.3126-30.8877C21.6949-32.6011 22.5885-34.5063 24.4552-35.1763C25.8995-35.7065 27.4107-35.1308 28.7891-33.6128L37.4068-23.9893C38.2462-23.0557 39.1593-22.8638 40.1632-23.2158C41.2716-23.6201 41.9517-24.6934 41.4532-25.9937L28.9097-60.4331C28.0582-62.7959 28.8292-64.8862 31.0103-65.647C33.1495-66.4531 35.0093-65.3189 35.8609-62.9561L44.6343-38.8955C44.8536-38.206 45.4205-37.7109 46.1065-37.9756C46.8346-38.2368 46.8927-38.9297 46.6314-39.6157L43.3394-48.648C44.1876-49.3633 45.2345-50.0298 46.1451-50.3193C48.6226-51.2266 50.6256-50.1763 51.669-47.3809L54.0709-40.8169C54.4229-39.8096 54.9898-39.6357 55.5396-39.8516C56.044-40.022 56.42-40.5786 56.0645-41.5371L53.5323-48.5059C54.3805-49.2178 55.4273-49.8877 56.3346-50.1772C58.8121-51.0811 60.815-50.0308 61.8585-47.2354L63.504-42.6929C63.8595-41.7344 64.4264-41.5117 64.9762-41.7275C65.4771-41.8979 65.8531-42.4546 65.5011-43.4165L63.7184-48.2798C68.2794-49.9409 72.023-47.126 74.5665-40.0713L76.9137-33.7066C82.3653-18.7153 76.1964-8.17628 64.3956-3.89405Z"/>
  </g>
 </g>
</svg>
