<?xml version="1.0" encoding="UTF-8"?>
<!--Generator: Apple Native CoreSVG 232.5-->
<!DOCTYPE svg
PUBLIC "-//W3C//DTD SVG 1.1//EN"
       "http://www.w3.org/Graphics/SVG/1.1/DTD/svg11.dtd">
<svg version="1.1" xmlns="http://www.w3.org/2000/svg" xmlns:xlink="http://www.w3.org/1999/xlink" width="3300" height="2200">
 <!--glyph: "uni101BCE.medium", point size: 100.0, font version: "19.2d2e1", template writer version: "128"-->
 <style>.SFSymbolsPreviewWireframe {fill:none;opacity:1.0;stroke:black;stroke-width:0.5}
</style>
 <g id="Notes">
  <rect height="2200" id="artboard" style="fill:white;opacity:1" width="3300" x="0" y="0"/>
  <line style="fill:none;stroke:black;opacity:1;stroke-width:0.5;" x1="263" x2="3036" y1="292" y2="292"/>
  <text style="stroke:none;fill:black;font-family:sans-serif;font-size:13;font-weight:bold;" transform="matrix(1 0 0 1 263 322)">Weight/Scale Variations</text>
  <text style="stroke:none;fill:black;font-family:sans-serif;font-size:13;text-anchor:middle;" transform="matrix(1 0 0 1 559.711 322)">Ultralight</text>
  <text style="stroke:none;fill:black;font-family:sans-serif;font-size:13;text-anchor:middle;" transform="matrix(1 0 0 1 856.422 322)">Thin</text>
  <text style="stroke:none;fill:black;font-family:sans-serif;font-size:13;text-anchor:middle;" transform="matrix(1 0 0 1 1153.13 322)">Light</text>
  <text style="stroke:none;fill:black;font-family:sans-serif;font-size:13;text-anchor:middle;" transform="matrix(1 0 0 1 1449.84 322)">Regular</text>
  <text style="stroke:none;fill:black;font-family:sans-serif;font-size:13;text-anchor:middle;" transform="matrix(1 0 0 1 1746.56 322)">Medium</text>
  <text style="stroke:none;fill:black;font-family:sans-serif;font-size:13;text-anchor:middle;" transform="matrix(1 0 0 1 2043.27 322)">Semibold</text>
  <text style="stroke:none;fill:black;font-family:sans-serif;font-size:13;text-anchor:middle;" transform="matrix(1 0 0 1 2339.98 322)">Bold</text>
  <text style="stroke:none;fill:black;font-family:sans-serif;font-size:13;text-anchor:middle;" transform="matrix(1 0 0 1 2636.69 322)">Heavy</text>
  <text style="stroke:none;fill:black;font-family:sans-serif;font-size:13;text-anchor:middle;" transform="matrix(1 0 0 1 2933.4 322)">Black</text>
  <line style="fill:none;stroke:black;opacity:1;stroke-width:0.5;" x1="263" x2="3036" y1="1903" y2="1903"/>
  <g transform="matrix(0.2 0 0 0.2 263 1933)">
   <path d="m46.2402 4.15039c21.5332 0 39.4531-17.8711 39.4531-39.4043s-17.9688-39.4043-39.502-39.4043c-21.4844 0-39.3555 17.8711-39.3555 39.4043s17.9199 39.4043 39.4043 39.4043Zm0-7.42188c-17.7246 0-31.8848-14.209-31.8848-31.9824s14.1113-31.9824 31.8359-31.9824c17.7734 0 32.0312 14.209 32.0312 31.9824s-14.209 31.9824-31.9824 31.9824Zm-17.9688-31.9824c0 2.14844 1.51367 3.61328 3.75977 3.61328h10.498v10.5957c0 2.19727 1.46484 3.71094 3.61328 3.71094 2.24609 0 3.71094-1.51367 3.71094-3.71094v-10.5957h10.5957c2.19727 0 3.71094-1.46484 3.71094-3.61328 0-2.19727-1.51367-3.71094-3.71094-3.71094h-10.5957v-10.5469c0-2.24609-1.46484-3.75977-3.71094-3.75977-2.14844 0-3.61328 1.51367-3.61328 3.75977v10.5469h-10.498c-2.24609 0-3.75977 1.51367-3.75977 3.71094Z"/>
  </g>
  <g transform="matrix(0.2 0 0 0.2 281.506 1933)">
   <path d="m58.5449 14.5508c27.2461 0 49.8047-22.6074 49.8047-49.8047 0-27.2461-22.6074-49.8047-49.8535-49.8047-27.1973 0-49.7559 22.5586-49.7559 49.8047 0 27.1973 22.6074 49.8047 49.8047 49.8047Zm0-8.30078c-23.0469 0-41.4551-18.457-41.4551-41.5039s18.3594-41.5039 41.4062-41.5039 41.5527 18.457 41.5527 41.5039-18.457 41.5039-41.5039 41.5039Zm-22.6562-41.5039c0 2.39258 1.66016 4.00391 4.15039 4.00391h14.3555v14.4043c0 2.44141 1.66016 4.15039 4.05273 4.15039 2.44141 0 4.15039-1.66016 4.15039-4.15039v-14.4043h14.4043c2.44141 0 4.15039-1.61133 4.15039-4.00391 0-2.44141-1.70898-4.15039-4.15039-4.15039h-14.4043v-14.3555c0-2.49023-1.70898-4.19922-4.15039-4.19922-2.39258 0-4.05273 1.70898-4.05273 4.19922v14.3555h-14.3555c-2.49023 0-4.15039 1.70898-4.15039 4.15039Z"/>
  </g>
  <g transform="matrix(0.2 0 0 0.2 304.924 1933)">
   <path d="m74.8535 28.3203c34.8145 0 63.623-28.8086 63.623-63.5742 0-34.8145-28.8574-63.623-63.6719-63.623-34.7656 0-63.5254 28.8086-63.5254 63.623 0 34.7656 28.8086 63.5742 63.5742 63.5742Zm0-9.08203c-30.1758 0-54.4434-24.3164-54.4434-54.4922 0-30.2246 24.2188-54.4922 54.3945-54.4922 30.2246 0 54.541 24.2676 54.541 54.4922 0 30.1758-24.2676 54.4922-54.4922 54.4922Zm-28.8574-54.4922c0 2.58789 1.85547 4.39453 4.58984 4.39453h19.7266v19.7754c0 2.68555 1.85547 4.58984 4.44336 4.58984 2.68555 0 4.54102-1.85547 4.54102-4.58984v-19.7754h19.7754c2.68555 0 4.58984-1.80664 4.58984-4.39453 0-2.73438-1.85547-4.58984-4.58984-4.58984h-19.7754v-19.7266c0-2.73438-1.85547-4.63867-4.54102-4.63867-2.58789 0-4.44336 1.9043-4.44336 4.63867v19.7266h-19.7266c-2.73438 0-4.58984 1.85547-4.58984 4.58984Z"/>
  </g>
  <text style="stroke:none;fill:black;font-family:sans-serif;font-size:13;font-weight:bold;" transform="matrix(1 0 0 1 263 1953)">Design Variations</text>
  <text style="stroke:none;fill:black;font-family:sans-serif;font-size:13;" transform="matrix(1 0 0 1 263 1971)">Symbols are supported in up to nine weights and three scales.</text>
  <text style="stroke:none;fill:black;font-family:sans-serif;font-size:13;" transform="matrix(1 0 0 1 263 1989)">For optimal layout with text and other symbols, vertically align</text>
  <text style="stroke:none;fill:black;font-family:sans-serif;font-size:13;" transform="matrix(1 0 0 1 263 2007)">symbols with the adjacent text.</text>
  <line style="fill:none;stroke:#00AEEF;stroke-width:0.5;opacity:1.0;" x1="776" x2="776" y1="1919" y2="1933"/>
  <g transform="matrix(0.2 0 0 0.2 776 1933)">
   <path d="m16.5527 0.78125c2.58789 0 3.85742-0.976562 4.78516-3.71094l6.29883-17.2363h28.8086l6.29883 17.2363c0.927734 2.73438 2.19727 3.71094 4.73633 3.71094 2.58789 0 4.24805-1.5625 4.24805-4.00391 0-0.830078-0.146484-1.61133-0.537109-2.63672l-22.9004-60.9863c-1.12305-2.97852-3.125-4.49219-6.25-4.49219-3.02734 0-5.07812 1.46484-6.15234 4.44336l-22.9004 61.084c-0.390625 1.02539-0.537109 1.80664-0.537109 2.63672 0 2.44141 1.5625 3.95508 4.10156 3.95508Zm13.4766-28.3691 11.8652-32.8613h0.244141l11.8652 32.8613Z"/>
  </g>
  <line style="fill:none;stroke:#00AEEF;stroke-width:0.5;opacity:1.0;" x1="792.836" x2="792.836" y1="1919" y2="1933"/>
  <text style="stroke:none;fill:black;font-family:sans-serif;font-size:13;font-weight:bold;" transform="matrix(1 0 0 1 776 1953)">Margins</text>
  <text style="stroke:none;fill:black;font-family:sans-serif;font-size:13;" transform="matrix(1 0 0 1 776 1971)">Leading and trailing margins on the left and right side of each symbol</text>
  <text style="stroke:none;fill:black;font-family:sans-serif;font-size:13;" transform="matrix(1 0 0 1 776 1989)">can be adjusted by modifying the x-location of the margin guidelines.</text>
  <text style="stroke:none;fill:black;font-family:sans-serif;font-size:13;" transform="matrix(1 0 0 1 776 2007)">Modifications are automatically applied proportionally to all</text>
  <text style="stroke:none;fill:black;font-family:sans-serif;font-size:13;" transform="matrix(1 0 0 1 776 2025)">scales and weights.</text>
  <g transform="matrix(0.2 0 0 0.2 1289 1933)">
   <path d="m14.209 9.32617 8.49609 8.54492c4.29688 4.3457 9.22852 4.05273 13.8672-1.07422l53.4668-58.9355-4.83398-4.88281-53.0762 58.3984c-1.75781 2.00195-3.41797 2.49023-5.76172 0.146484l-5.85938-5.81055c-2.34375-2.29492-1.80664-4.00391 0.195312-5.81055l57.373-54.0039-4.88281-4.83398-57.959 54.4434c-4.93164 4.58984-5.32227 9.47266-1.02539 13.8184Zm32.0801-90.9668c-2.09961 2.05078-2.24609 4.93164-1.07422 6.88477 1.17188 1.80664 3.4668 2.97852 6.68945 2.14844 7.32422-1.70898 14.9414-2.00195 22.0703 2.68555l-2.92969 7.27539c-1.70898 4.15039-0.830078 7.08008 1.85547 9.81445l11.4746 11.5723c2.44141 2.44141 4.49219 2.53906 7.32422 2.05078l5.32227-0.976562 3.32031 3.36914-0.195312 2.7832c-0.195312 2.49023 0.439453 4.39453 2.88086 6.78711l3.80859 3.71094c2.39258 2.39258 5.46875 2.53906 7.8125 0.195312l14.5508-14.5996c2.34375-2.34375 2.24609-5.32227-0.146484-7.71484l-3.85742-3.80859c-2.39258-2.39258-4.24805-3.17383-6.64062-2.97852l-2.88086 0.244141-3.22266-3.17383 1.2207-5.61523c0.634766-2.83203-0.146484-5.0293-3.07617-7.95898l-10.9863-10.9375c-16.6992-16.6016-38.8672-16.2109-53.3203-1.75781Zm7.4707 1.85547c12.1582-8.88672 28.6133-7.37305 39.7461 3.75977l12.1582 12.0605c1.17188 1.17188 1.36719 2.09961 1.02539 3.80859l-1.61133 7.42188 7.51953 7.42188 4.93164-0.292969c1.26953-0.0488281 1.66016 0.0488281 2.63672 1.02539l2.88086 2.88086-12.207 12.207-2.88086-2.88086c-0.976562-0.976562-1.12305-1.36719-1.07422-2.68555l0.341797-4.88281-7.4707-7.42188-7.61719 1.26953c-1.61133 0.341797-2.34375 0.195312-3.56445-0.976562l-10.0098-10.0098c-1.26953-1.17188-1.41602-2.00195-0.634766-3.85742l4.39453-10.4492c-7.8125-7.27539-17.9688-10.4004-28.125-7.42188-0.78125 0.195312-1.07422-0.439453-0.439453-0.976562Z"/>
  </g>
  <text style="stroke:none;fill:black;font-family:sans-serif;font-size:13;font-weight:bold;" transform="matrix(1 0 0 1 1289 1953)">Exporting</text>
  <text style="stroke:none;fill:black;font-family:sans-serif;font-size:13;" transform="matrix(1 0 0 1 1289 1971)">Symbols should be outlined when exporting to ensure the</text>
  <text style="stroke:none;fill:black;font-family:sans-serif;font-size:13;" transform="matrix(1 0 0 1 1289 1989)">design is preserved when submitting to Xcode.</text>
  <text id="template-version" style="stroke:none;fill:black;font-family:sans-serif;font-size:13;text-anchor:end;" transform="matrix(1 0 0 1 3036 1933)">Template v.5.0</text>
  <text style="stroke:none;fill:black;font-family:sans-serif;font-size:13;text-anchor:end;" transform="matrix(1 0 0 1 3036 1951)">Requires Xcode 15 or greater</text>
  <text id="descriptive-name" style="stroke:none;fill:black;font-family:sans-serif;font-size:13;text-anchor:end;" transform="matrix(1 0 0 1 3036 1969)">Generated from hands.clap</text>
  <text style="stroke:none;fill:black;font-family:sans-serif;font-size:13;text-anchor:end;" transform="matrix(1 0 0 1 3036 1987)">Typeset at 100.0 points</text>
  <text style="stroke:none;fill:black;font-family:sans-serif;font-size:13;" transform="matrix(1 0 0 1 263 726)">Small</text>
  <text style="stroke:none;fill:black;font-family:sans-serif;font-size:13;" transform="matrix(1 0 0 1 263 1156)">Medium</text>
  <text style="stroke:none;fill:black;font-family:sans-serif;font-size:13;" transform="matrix(1 0 0 1 263 1586)">Large</text>
 </g>
 <g id="Guides">
  <g id="H-reference" style="fill:#27AAE1;stroke:none;" transform="matrix(1 0 0 1 339 696)">
   <path d="M0.993654 0L3.63775 0L29.3281-67.1323L30.0303-67.1323L30.0303-70.459L28.1226-70.459ZM11.6885-24.4799L46.9815-24.4799L46.2315-26.7285L12.4385-26.7285ZM55.1196 0L57.7637 0L30.6382-70.459L29.4326-70.459L29.4326-67.1323Z"/>
  </g>
  <line id="Baseline-S" style="fill:none;stroke:#27AAE1;opacity:1;stroke-width:0.5;" x1="263" x2="3036" y1="696" y2="696"/>
  <line id="Capline-S" style="fill:none;stroke:#27AAE1;opacity:1;stroke-width:0.5;" x1="263" x2="3036" y1="625.541" y2="625.541"/>
  <g id="H-reference" style="fill:#27AAE1;stroke:none;" transform="matrix(1 0 0 1 339 1126)">
   <path d="M0.993654 0L3.63775 0L29.3281-67.1323L30.0303-67.1323L30.0303-70.459L28.1226-70.459ZM11.6885-24.4799L46.9815-24.4799L46.2315-26.7285L12.4385-26.7285ZM55.1196 0L57.7637 0L30.6382-70.459L29.4326-70.459L29.4326-67.1323Z"/>
  </g>
  <line id="Baseline-M" style="fill:none;stroke:#27AAE1;opacity:1;stroke-width:0.5;" x1="263" x2="3036" y1="1126" y2="1126"/>
  <line id="Capline-M" style="fill:none;stroke:#27AAE1;opacity:1;stroke-width:0.5;" x1="263" x2="3036" y1="1055.54" y2="1055.54"/>
  <g id="H-reference" style="fill:#27AAE1;stroke:none;" transform="matrix(1 0 0 1 339 1556)">
   <path d="M0.993654 0L3.63775 0L29.3281-67.1323L30.0303-67.1323L30.0303-70.459L28.1226-70.459ZM11.6885-24.4799L46.9815-24.4799L46.2315-26.7285L12.4385-26.7285ZM55.1196 0L57.7637 0L30.6382-70.459L29.4326-70.459L29.4326-67.1323Z"/>
  </g>
  <line id="Baseline-L" style="fill:none;stroke:#27AAE1;opacity:1;stroke-width:0.5;" x1="263" x2="3036" y1="1556" y2="1556"/>
  <line id="Capline-L" style="fill:none;stroke:#27AAE1;opacity:1;stroke-width:0.5;" x1="263" x2="3036" y1="1485.54" y2="1485.54"/>
  <line id="left-margin-Ultralight-S" style="fill:none;stroke:#00AEEF;stroke-width:0.5;opacity:1.0;" x1="504.997" x2="504.997" y1="600.785" y2="720.121"/>
  <line id="right-margin-Ultralight-S" style="fill:none;stroke:#00AEEF;stroke-width:0.5;opacity:1.0;" x1="614.425" x2="614.425" y1="600.785" y2="720.121"/>
  <line id="left-margin-Regular-S" style="fill:none;stroke:#00AEEF;stroke-width:0.5;opacity:1.0;" x1="1390.57" x2="1390.57" y1="600.785" y2="720.121"/>
  <line id="right-margin-Regular-S" style="fill:none;stroke:#00AEEF;stroke-width:0.5;opacity:1.0;" x1="1509.12" x2="1509.12" y1="600.785" y2="720.121"/>
  <line id="left-margin-Black-S" style="fill:none;stroke:#00AEEF;stroke-width:0.5;opacity:1.0;" x1="2865.31" x2="2865.31" y1="600.785" y2="720.121"/>
  <line id="right-margin-Black-S" style="fill:none;stroke:#00AEEF;stroke-width:0.5;opacity:1.0;" x1="3001.49" x2="3001.49" y1="600.785" y2="720.121"/>
 </g>
 <g id="Symbols">
  <g id="Black-S" transform="matrix(1 0 0 1 2865.31 696)">
   <path class="SFSymbolsPreviewWireframe" d="M18.6035-53.3691C20.8984-52.8809 23.2422-54.3945 23.6328-56.6895C24.0234-59.0332 22.6562-61.2305 20.3125-61.7188L12.0605-63.4766C9.57031-64.0137 7.27539-62.4023 6.88477-59.9121C6.54297-57.6172 8.05664-55.5176 10.3027-55.0781ZM22.8516-68.1152C24.5605-66.4062 27.2949-66.4062 28.9062-68.1152C30.5176-69.8242 30.6152-72.4609 28.9062-74.1699L22.9492-80.127C21.2402-81.8359 18.6035-81.8359 16.8945-80.127C15.1855-78.418 15.1855-75.7812 16.8945-74.0723ZM40.4297-73.4863C42.7246-74.0234 44.1895-76.3672 43.7012-78.6133L41.9434-86.8164C41.4551-89.1113 39.209-90.625 36.8652-90.1367C34.5215-89.6484 33.0078-87.3047 33.4961-85.0098L35.2539-76.8555C35.7422-74.5117 38.0371-72.9492 40.4297-73.4863ZM119.238 5.61523C131.445-6.64062 133.594-21.4844 125.635-38.3301L116.504-57.666C115.674-59.4727 114.6-60.9863 113.379-62.1582C109.326-66.2598 103.027-66.6504 98.6328-62.2559C96.4844-60.1074 95.3125-56.7871 96.2891-53.9062L96.2891-53.7598C96.3379-53.6621 96.3379-53.6133 96.2891-53.5156C96.1914-53.418 96.0449-53.4668 95.9961-53.5156L79.2969-70.2637C74.6582-74.8535 68.0664-74.707 63.2812-69.9219C62.5977-69.2383 62.0605-68.5059 61.5234-67.6758C57.666-68.9453 53.6621-67.8223 50.4395-64.5996C47.3633-61.5723 46.2891-57.4707 47.4121-53.6621C46.7285-53.2227 46.0938-52.7344 45.5078-52.1484C41.0156-47.6562 40.8691-41.3574 45.2148-37.0117L45.3125-36.9141C44.7754-36.5234 44.2871-36.1816 43.8477-35.7422C39.3555-31.25 39.4043-24.5605 43.8477-20.1172L69.5312 5.56641C84.6191 20.6055 104.199 20.6055 119.238 5.61523ZM110.449-2.73438C100.195 7.51953 87.5977 7.51953 76.9531-3.07617L52.9785-27.0996C52.5391-27.4902 52.5391-28.125 52.9785-28.5645C53.3691-28.9551 54.0039-28.9551 54.4434-28.5645L68.8477-14.1113C70.752-12.207 73.8281-12.2559 75.7324-14.1602C77.6367-16.0645 77.6367-19.0918 75.7324-20.9961L53.8086-42.9199C53.3691-43.3105 53.3691-43.9453 53.8086-44.3359C54.1992-44.7754 54.834-44.7754 55.2734-44.3359L75.6348-23.9746C77.5391-22.0703 80.6152-22.1191 82.5195-24.0234C84.375-25.9277 84.375-28.9551 82.5195-30.8594L58.3496-54.9805C57.959-55.4199 57.959-56.0059 58.3496-56.4453C58.7891-56.8359 59.375-56.8359 59.8145-56.4453L82.0801-34.1797C83.9844-32.2754 87.0605-32.3242 88.9648-34.1797C90.8691-36.084 90.8691-39.1602 88.9648-41.0645L70.459-59.5703C70.0195-59.9609 70.0195-60.5469 70.4102-60.9863C70.8008-61.377 71.4844-61.4258 71.875-60.9863L100.391-32.5195C102.93-29.9805 106.201-30.5664 108.154-32.6172C109.717-34.2285 110.547-36.7676 109.57-39.2578L104.59-52.0508C104.297-52.832 104.736-53.418 105.176-53.6133C105.713-53.7598 106.299-53.6621 106.592-53.0273L115.283-33.3984C120.801-20.8984 119.629-11.9141 110.449-2.73438ZM103.613 5.61523C115.82-6.64062 117.969-21.4844 110.01-38.3301L100.879-57.666C100.049-59.4727 98.9746-60.9863 97.7539-62.1582C93.7012-66.2598 87.4023-66.6504 83.0078-62.2559C80.8594-60.1074 79.6875-56.7871 80.6641-53.9062L80.6641-53.7598C80.7129-53.6621 80.7129-53.6133 80.6641-53.5156C80.5664-53.418 80.4199-53.4668 80.3711-53.5156L63.6719-70.2637C59.0332-74.8535 52.4414-74.707 47.6562-69.9219C46.9727-69.2383 46.4355-68.5059 45.8984-67.6758C42.041-68.9453 38.0371-67.8223 34.8145-64.5996C31.7383-61.5723 30.6641-57.4707 31.7871-53.6621C31.1035-53.2227 30.4688-52.7344 29.8828-52.1484C25.3906-47.6562 25.2441-41.3574 29.5898-37.0117L29.6875-36.9141C29.1504-36.5234 28.6621-36.1816 28.2227-35.7422C23.7305-31.25 23.7793-24.5605 28.2227-20.1172L53.9062 5.56641C68.9941 20.6055 88.5742 20.6055 103.613 5.61523ZM94.8242-2.73438C84.5703 7.51953 71.9727 7.51953 61.3281-3.07617L37.3535-27.0996C36.9141-27.4902 36.9141-28.125 37.3535-28.5645C37.7441-28.9551 38.3789-28.9551 38.8184-28.5645L53.2227-14.1113C55.127-12.207 58.2031-12.2559 60.1074-14.1602C62.0117-16.0645 62.0117-19.0918 60.1074-20.9961L38.1836-42.9199C37.7441-43.3105 37.7441-43.9453 38.1836-44.3359C38.5742-44.7754 39.209-44.7754 39.6484-44.3359L60.0098-23.9746C61.9141-22.0703 64.9902-22.1191 66.8945-24.0234C68.75-25.9277 68.75-28.9551 66.8945-30.8594L42.7246-54.9805C42.334-55.4199 42.334-56.0059 42.7246-56.4453C43.1641-56.8359 43.75-56.8359 44.1895-56.4453L66.4551-34.1797C68.3594-32.2754 71.4355-32.3242 73.3398-34.1797C75.2441-36.084 75.2441-39.1602 73.3398-41.0645L54.834-59.5703C54.3945-59.9609 54.3945-60.5469 54.7852-60.9863C55.1758-61.377 55.8594-61.4258 56.25-60.9863L84.7656-32.5195C87.3047-29.9805 90.5762-30.5664 92.5293-32.6172C94.0918-34.2285 94.9219-36.7676 93.9453-39.2578L88.9648-52.0508C88.6719-52.832 89.1113-53.418 89.5508-53.6133C90.0879-53.7598 90.6738-53.6621 90.9668-53.0273L99.6582-33.3984C105.176-20.8984 104.004-11.9141 94.8242-2.73438Z"/>
  </g>
  <g id="Regular-S" transform="matrix(1 0 0 1 1390.57 696)">
   <path class="SFSymbolsPreviewWireframe" d="M20.166-52.0996C21.582-51.8555 23.0957-52.7344 23.3398-54.248C23.6328-55.7129 22.7539-57.0801 21.2402-57.4219L10.1562-59.8145C8.54492-60.1562 7.08008-59.1309 6.83594-57.5195C6.68945-56.1035 7.61719-54.7363 9.0332-54.4434ZM23.9258-64.9902C25-63.916 26.7578-63.916 27.7832-64.9902C28.8574-66.0645 28.9062-67.7734 27.7832-68.8477L19.7754-76.8555C18.6523-77.9785 16.9922-77.9297 15.918-76.8555C14.8438-75.7812 14.7949-74.1211 15.918-72.998ZM38.5742-68.6035C40.0391-68.9453 41.0645-70.459 40.7227-71.875L38.3301-82.9102C38.0371-84.4238 36.5723-85.3027 35.1074-85.0098C33.6426-84.7168 32.6172-83.3008 32.9102-81.7871L35.3027-70.8008C35.6445-69.3359 37.0605-68.3105 38.5742-68.6035ZM103.027-1.80664C112.793-11.5723 114.355-23.6816 107.52-37.9883L99.1211-55.8105C98.4375-57.1289 97.7051-58.2031 96.875-59.082C93.8477-62.1094 89.4531-61.9141 86.6211-59.0332C84.668-57.0801 84.082-54.248 85.3027-51.123L87.3047-46.2402C87.4023-46.0938 87.4023-45.9473 87.3047-45.8496C87.1582-45.7031 86.9629-45.752 86.8164-45.8984L65.9668-66.748C62.6953-70.0195 58.5938-70.0195 55.3711-66.8457C54.2969-65.7715 53.6621-64.3555 53.5645-62.9395C50.3418-65.332 46.8262-65.1367 44.0918-62.4023C41.4551-59.7656 41.2598-56.1523 43.5059-52.9785C42.1875-52.9297 40.8691-52.3438 39.8926-51.3672C36.9629-48.4375 37.1094-44.4824 40.1855-41.4062L42.9688-38.623C41.5527-38.623 40.0391-37.9395 38.8672-36.7676C35.9375-33.8379 36.084-29.6387 39.209-26.5137L62.5977-3.07617C75.3418 9.66797 91.1621 10.0098 103.027-1.80664ZM98.584-5.9082C88.8672 3.80859 76.9043 3.17383 66.1133-7.66602L43.7012-30.0781C42.6758-31.1035 42.6758-32.5195 43.6523-33.5449C44.6777-34.5215 46.1426-34.5703 47.1191-33.5449L61.1328-19.5801C62.1582-18.5059 63.8184-18.6523 64.8438-19.6777C65.8691-20.7031 66.0156-22.3633 64.9902-23.4375L44.1895-44.2383C43.1641-45.2637 43.1152-46.6797 44.1406-47.7051C45.166-48.6816 46.6309-48.7305 47.6074-47.7051L67.041-28.2715C68.1152-27.1973 69.7754-27.3438 70.752-28.3691C71.7773-29.3945 71.9727-31.1035 70.8984-32.1289L48.0469-54.9805C47.0703-56.0059 47.0215-57.4219 48.0469-58.4473C49.0234-59.4238 50.4883-59.4727 51.5137-58.4473L74.3652-35.5957C75.3906-34.5703 77.0996-34.668 78.0762-35.6934C79.1016-36.7188 79.2969-38.4277 78.2227-39.4531L58.7891-58.8867C57.8125-59.9121 57.8125-61.3281 58.7891-62.3535C59.8145-63.3301 61.2305-63.3301 62.2559-62.3535L89.0625-35.5469C90.4785-34.1309 92.1387-34.082 93.3594-35.2539C94.3848-36.2793 94.7754-37.5977 93.9941-39.7461L89.2578-52.4902C88.7207-54.0527 89.3066-55.2734 90.4785-55.8105C91.7969-56.4453 92.9688-55.8105 93.75-54.1504L102.49-35.5469C108.643-22.5098 106.152-13.4766 98.584-5.9082ZM93.0664 1.66016C102.832-8.10547 104.395-20.2148 97.6074-34.5215L89.1602-52.3438C88.4766-53.6621 87.7441-54.7363 86.9141-55.6152C83.8867-58.6426 79.4922-58.4473 76.6602-55.5664C74.707-53.6133 74.1211-50.7812 75.3418-47.7051L77.3438-42.7734C77.4414-42.627 77.4414-42.4805 77.3438-42.3828C77.1973-42.2363 77.002-42.2852 76.8555-42.4316L56.0059-63.2812C52.7344-66.5527 48.6328-66.6016 45.459-63.3789C44.3359-62.3047 43.7012-60.8887 43.6035-59.4727C40.3809-61.8652 36.8652-61.6699 34.1309-58.9355C31.4941-56.2988 31.2988-52.6855 33.5449-49.5117C32.2266-49.4629 30.9082-48.877 29.9805-47.9004C27.0508-44.9707 27.1484-41.0156 30.2246-37.9883L33.0078-35.1562C31.5918-35.1562 30.0781-34.4727 28.9062-33.3008C25.9766-30.3711 26.123-26.1719 29.248-23.0469L52.6367 0.390625C65.4297 13.1348 81.2012 13.4766 93.0664 1.66016ZM88.623-2.44141C78.9062 7.27539 66.9434 6.5918 56.1523-4.19922L33.7402-26.6113C32.7148-27.6367 32.7148-29.0527 33.6914-30.0781C34.7168-31.0547 36.1816-31.1035 37.1582-30.0781L51.1719-16.1133C52.1973-15.0391 53.8574-15.1855 54.8828-16.2109C55.9082-17.2363 56.0547-18.9453 55.0293-19.9707L34.2285-40.7715C33.2031-41.7969 33.2031-43.2129 34.1797-44.2383C35.2051-45.2148 36.6699-45.2637 37.6465-44.2383L57.0801-24.8047C58.1543-23.7793 59.8145-23.877 60.791-24.9023C61.8652-25.9277 62.0117-27.6367 60.9375-28.6621L38.0859-51.5137C37.1094-52.5391 37.0605-54.0039 38.0859-54.9805C39.0625-56.0059 40.5273-56.0059 41.5527-54.9805L64.4043-32.1289C65.4297-31.1035 67.1387-31.2012 68.1152-32.2266C69.1895-33.252 69.3359-34.9609 68.2617-35.9863L48.8281-55.4199C47.8516-56.4453 47.8516-57.8613 48.8281-58.8867C49.8535-59.8633 51.2695-59.9121 52.2949-58.8867L79.1016-32.0801C80.5176-30.6641 82.1777-30.6152 83.3984-31.7871C84.4238-32.8125 84.8633-34.1309 84.0332-36.3281L79.2969-49.0234C78.7598-50.5859 79.3457-51.8066 80.5176-52.3438C81.8359-52.9785 83.0566-52.3438 83.7891-50.6836L92.5293-32.0801C98.6816-19.043 96.1914-10.0098 88.623-2.44141Z"/>
  </g>
  <g id="Ultralight-S" transform="matrix(1 0 0 1 504.997 696)">
   <path class="SFSymbolsPreviewWireframe" d="M18.7129-49.8745C19.2207-49.7666 19.7808-50.1006 19.8433-50.6153C19.9546-51.1719 19.666-51.6309 19.106-51.7457L8.02199-54.1382C7.5005-54.253 6.89844-53.9541 6.83594-53.3872C6.78027-52.834 7.07227-52.3296 7.6255-52.2183ZM22.9722-61.8115C23.3198-61.4639 23.9878-61.4639 24.3321-61.8115C24.7251-62.2046 24.7285-62.8692 24.3321-63.2168L16.3242-71.2247C15.9278-71.6666 15.312-71.6177 14.9644-71.2247C14.5713-70.877 14.5225-70.2613 14.9644-69.8194ZM35.5772-66.3784C36.0884-66.4932 36.4781-67.0532 36.3633-67.5157L33.9707-78.5962C33.8594-79.1109 33.3482-79.4449 32.7915-79.3335C32.2349-79.2222 31.8906-78.7144 32.002-78.1997L34.3945-67.1226C34.5093-66.6568 35.0171-66.2671 35.5772-66.3784ZM94.9444-2.35156C103.348-10.8003 104.819-21.4566 99.4366-32.7662L89.9937-52.4502C89.5826-53.3599 89.0318-54.1162 88.3834-54.7681C86.1734-56.9781 82.8687-56.9644 80.5816-54.6739C79.0372-53.1294 78.542-50.6153 79.7627-47.8081L84.7163-36.3409C84.814-36.1036 84.7686-35.9117 84.6709-35.814C84.5244-35.6676 84.3745-35.7164 84.228-35.8629L58.8375-61.2535C56.1109-63.98 52.8721-63.9346 50.6031-61.669C49.4834-60.5948 48.8487-59.1333 49.0235-57.5357C46.3911-60.0191 43.1026-60.4141 40.5952-57.9522C38.1402-55.4971 38.4444-51.8384 40.8721-49.3457C39.2359-49.524 37.7813-48.8926 36.7139-47.7798C34.4654-45.5313 34.4302-42.3028 37.1431-39.5899L40.9707-35.7168C39.3731-35.8985 37.9048-35.2149 36.8237-34.0884C34.5752-31.8399 34.5855-28.6397 37.3018-25.9233L59.7368-3.48486C71.9815 8.80518 85.3042 7.23977 94.9444-2.35156ZM93.4527-3.81935C84.5987 5.08007 72.4541 6.26169 61.209-5.03225L38.8423-27.3989C37.045-29.1963 36.7271-31.2481 38.3848-32.9092C40.0005-34.5215 42.2827-34.4341 44.0313-32.6367L57.2276-19.4438C57.9351-18.7329 58.5962-18.834 58.9859-19.2236C59.3755-19.6133 59.4766-20.229 58.7237-20.9854L38.6495-41.0142C36.8521-42.8115 36.5762-44.9087 38.1919-46.5244C39.8077-48.1367 42.0899-48.0493 43.8838-46.252L62.5454-27.5903C63.3018-26.834 63.9629-26.9351 64.3038-27.3247C64.7388-27.7144 64.7979-28.3335 64.0416-29.0864L42.3707-50.7574C40.6221-52.5547 40.3462-54.9243 42.0074-56.5855C43.5289-58.1069 45.8111-57.7471 47.6084-55.9951L69.3247-34.2788C69.8506-33.7529 70.5152-33.4873 71.0377-34.0586C71.5635-34.5391 71.3502-35.249 70.8209-35.7749L52.1138-54.482C50.3199-56.2793 50.2291-58.5581 51.8414-60.1738C53.4571-61.7861 55.5542-61.5137 57.3516-59.7197L83.1592-33.8667C84.1666-32.9048 85.418-33.0376 86.23-33.8916C86.983-34.6445 87.192-35.5542 86.6832-36.7036L81.629-48.6304C80.5469-51.0557 81.1329-53.0484 83.0767-53.9487C85.0308-54.9014 86.9292-53.8579 88.0284-51.562L97.4952-31.9141C102.467-21.6016 101.112-11.4785 93.4527-3.81935ZM85.8462 1.06983C94.295-7.37891 95.7667-18.0352 90.3419-29.3448L80.941-49.0288C80.4844-49.9385 79.9337-50.6949 79.3306-51.3467C77.0752-53.5567 73.7706-53.543 71.4834-51.2525C69.939-49.708 69.4439-47.1939 70.6646-44.3902L75.6182-32.9195C75.7158-32.6822 75.6704-32.4903 75.5728-32.3927C75.4263-32.2462 75.2764-32.295 75.1299-32.4415L49.7393-57.8321C47.0127-60.5586 43.774-60.5166 41.5083-58.2476C40.4307-57.1734 39.7959-55.712 39.9707-54.1143C37.3384-56.5977 34.0044-56.9927 31.5425-54.5308C29.0874-52.0757 29.3462-48.4624 31.7739-45.9243C30.1831-46.1026 28.7285-45.4712 27.6192-44.3584C25.3706-42.1099 25.332-38.8814 28.0449-36.1719L31.918-32.2954C30.3203-32.4771 28.8521-31.7935 27.7256-30.667C25.4771-28.4185 25.4873-25.2183 28.2036-22.502L50.6387-0.063473C62.9321 12.2266 76.2515 10.6612 85.8462 1.06983ZM84.3999-0.397965C75.5005 8.50146 63.4014 9.67966 52.1109-1.61086L29.7442-23.9776C27.9468-25.7749 27.6744-27.8267 29.2867-29.4878C30.9024-31.1001 33.1846-31.0127 34.9785-29.2153L48.1294-16.0225C48.8824-15.3115 49.4981-15.4126 49.8877-15.8022C50.3228-16.1919 50.3785-16.8111 49.6255-17.564L29.5967-37.5928C27.7994-39.3902 27.4815-41.4873 29.0938-43.103C30.7549-44.7153 32.9917-44.6279 34.7857-42.8306L53.4927-24.169C54.2036-23.416 54.8648-23.5137 55.251-23.9033C55.6441-24.293 55.7452-24.9121 54.9888-25.6651L33.3179-47.336C31.524-49.1333 31.2935-51.5064 32.9092-53.1641C34.4307-54.689 36.7583-54.3711 38.5557-52.5737L60.2266-30.8574C60.7525-30.3315 61.417-30.0659 61.9849-30.6372C62.4688-31.1177 62.252-31.8277 61.7681-32.3535L43.0157-51.0606C41.2217-52.8579 41.1309-55.1367 42.7886-56.7525C44.4043-58.3648 46.4561-58.0957 48.2534-56.2984L74.1065-30.4453C75.0684-29.4834 76.3199-29.6162 77.1773-30.4702C77.8848-31.2232 78.1426-32.1328 77.6304-33.2857L72.5308-45.209C71.4942-47.6343 72.0801-49.627 74.024-50.5274C75.9781-51.48 77.8799-50.4365 78.9756-48.1406L88.397-28.4927C93.3687-18.1802 92.0591-8.05714 84.3999-0.397965Z"/>
  </g>
 </g>
</svg>
