<?xml version="1.0" encoding="UTF-8"?>
<!--Generator: Apple Native CoreSVG 232.5-->
<!DOCTYPE svg
PUBLIC "-//W3C//DTD SVG 1.1//EN"
       "http://www.w3.org/Graphics/SVG/1.1/DTD/svg11.dtd">
<svg version="1.1" xmlns="http://www.w3.org/2000/svg" xmlns:xlink="http://www.w3.org/1999/xlink" width="3300" height="2200">
 <!--glyph: "uni100983.medium", point size: 100.0, font version: "19.2d2e1", template writer version: "128"-->
 <style>.SFSymbolsPreviewWireframe {fill:none;opacity:1.0;stroke:black;stroke-width:0.5}
</style>
 <g id="Notes">
  <rect height="2200" id="artboard" style="fill:white;opacity:1" width="3300" x="0" y="0"/>
  <line style="fill:none;stroke:black;opacity:1;stroke-width:0.5;" x1="263" x2="3036" y1="292" y2="292"/>
  <text style="stroke:none;fill:black;font-family:sans-serif;font-size:13;font-weight:bold;" transform="matrix(1 0 0 1 263 322)">Weight/Scale Variations</text>
  <text style="stroke:none;fill:black;font-family:sans-serif;font-size:13;text-anchor:middle;" transform="matrix(1 0 0 1 559.711 322)">Ultralight</text>
  <text style="stroke:none;fill:black;font-family:sans-serif;font-size:13;text-anchor:middle;" transform="matrix(1 0 0 1 856.422 322)">Thin</text>
  <text style="stroke:none;fill:black;font-family:sans-serif;font-size:13;text-anchor:middle;" transform="matrix(1 0 0 1 1153.13 322)">Light</text>
  <text style="stroke:none;fill:black;font-family:sans-serif;font-size:13;text-anchor:middle;" transform="matrix(1 0 0 1 1449.84 322)">Regular</text>
  <text style="stroke:none;fill:black;font-family:sans-serif;font-size:13;text-anchor:middle;" transform="matrix(1 0 0 1 1746.56 322)">Medium</text>
  <text style="stroke:none;fill:black;font-family:sans-serif;font-size:13;text-anchor:middle;" transform="matrix(1 0 0 1 2043.27 322)">Semibold</text>
  <text style="stroke:none;fill:black;font-family:sans-serif;font-size:13;text-anchor:middle;" transform="matrix(1 0 0 1 2339.98 322)">Bold</text>
  <text style="stroke:none;fill:black;font-family:sans-serif;font-size:13;text-anchor:middle;" transform="matrix(1 0 0 1 2636.69 322)">Heavy</text>
  <text style="stroke:none;fill:black;font-family:sans-serif;font-size:13;text-anchor:middle;" transform="matrix(1 0 0 1 2933.4 322)">Black</text>
  <line style="fill:none;stroke:black;opacity:1;stroke-width:0.5;" x1="263" x2="3036" y1="1903" y2="1903"/>
  <g transform="matrix(0.2 0 0 0.2 263 1933)">
   <path d="m46.2402 4.15039c21.5332 0 39.4531-17.8711 39.4531-39.4043s-17.9688-39.4043-39.502-39.4043c-21.4844 0-39.3555 17.8711-39.3555 39.4043s17.9199 39.4043 39.4043 39.4043Zm0-7.42188c-17.7246 0-31.8848-14.209-31.8848-31.9824s14.1113-31.9824 31.8359-31.9824c17.7734 0 32.0312 14.209 32.0312 31.9824s-14.209 31.9824-31.9824 31.9824Zm-17.9688-31.9824c0 2.14844 1.51367 3.61328 3.75977 3.61328h10.498v10.5957c0 2.19727 1.46484 3.71094 3.61328 3.71094 2.24609 0 3.71094-1.51367 3.71094-3.71094v-10.5957h10.5957c2.19727 0 3.71094-1.46484 3.71094-3.61328 0-2.19727-1.51367-3.71094-3.71094-3.71094h-10.5957v-10.5469c0-2.24609-1.46484-3.75977-3.71094-3.75977-2.14844 0-3.61328 1.51367-3.61328 3.75977v10.5469h-10.498c-2.24609 0-3.75977 1.51367-3.75977 3.71094Z"/>
  </g>
  <g transform="matrix(0.2 0 0 0.2 281.506 1933)">
   <path d="m58.5449 14.5508c27.2461 0 49.8047-22.6074 49.8047-49.8047 0-27.2461-22.6074-49.8047-49.8535-49.8047-27.1973 0-49.7559 22.5586-49.7559 49.8047 0 27.1973 22.6074 49.8047 49.8047 49.8047Zm0-8.30078c-23.0469 0-41.4551-18.457-41.4551-41.5039s18.3594-41.5039 41.4062-41.5039 41.5527 18.457 41.5527 41.5039-18.457 41.5039-41.5039 41.5039Zm-22.6562-41.5039c0 2.39258 1.66016 4.00391 4.15039 4.00391h14.3555v14.4043c0 2.44141 1.66016 4.15039 4.05273 4.15039 2.44141 0 4.15039-1.66016 4.15039-4.15039v-14.4043h14.4043c2.44141 0 4.15039-1.61133 4.15039-4.00391 0-2.44141-1.70898-4.15039-4.15039-4.15039h-14.4043v-14.3555c0-2.49023-1.70898-4.19922-4.15039-4.19922-2.39258 0-4.05273 1.70898-4.05273 4.19922v14.3555h-14.3555c-2.49023 0-4.15039 1.70898-4.15039 4.15039Z"/>
  </g>
  <g transform="matrix(0.2 0 0 0.2 304.924 1933)">
   <path d="m74.8535 28.3203c34.8145 0 63.623-28.8086 63.623-63.5742 0-34.8145-28.8574-63.623-63.6719-63.623-34.7656 0-63.5254 28.8086-63.5254 63.623 0 34.7656 28.8086 63.5742 63.5742 63.5742Zm0-9.08203c-30.1758 0-54.4434-24.3164-54.4434-54.4922 0-30.2246 24.2188-54.4922 54.3945-54.4922 30.2246 0 54.541 24.2676 54.541 54.4922 0 30.1758-24.2676 54.4922-54.4922 54.4922Zm-28.8574-54.4922c0 2.58789 1.85547 4.39453 4.58984 4.39453h19.7266v19.7754c0 2.68555 1.85547 4.58984 4.44336 4.58984 2.68555 0 4.54102-1.85547 4.54102-4.58984v-19.7754h19.7754c2.68555 0 4.58984-1.80664 4.58984-4.39453 0-2.73438-1.85547-4.58984-4.58984-4.58984h-19.7754v-19.7266c0-2.73438-1.85547-4.63867-4.54102-4.63867-2.58789 0-4.44336 1.9043-4.44336 4.63867v19.7266h-19.7266c-2.73438 0-4.58984 1.85547-4.58984 4.58984Z"/>
  </g>
  <text style="stroke:none;fill:black;font-family:sans-serif;font-size:13;font-weight:bold;" transform="matrix(1 0 0 1 263 1953)">Design Variations</text>
  <text style="stroke:none;fill:black;font-family:sans-serif;font-size:13;" transform="matrix(1 0 0 1 263 1971)">Symbols are supported in up to nine weights and three scales.</text>
  <text style="stroke:none;fill:black;font-family:sans-serif;font-size:13;" transform="matrix(1 0 0 1 263 1989)">For optimal layout with text and other symbols, vertically align</text>
  <text style="stroke:none;fill:black;font-family:sans-serif;font-size:13;" transform="matrix(1 0 0 1 263 2007)">symbols with the adjacent text.</text>
  <line style="fill:none;stroke:#00AEEF;stroke-width:0.5;opacity:1.0;" x1="776" x2="776" y1="1919" y2="1933"/>
  <g transform="matrix(0.2 0 0 0.2 776 1933)">
   <path d="m16.5527 0.78125c2.58789 0 3.85742-0.976562 4.78516-3.71094l6.29883-17.2363h28.8086l6.29883 17.2363c0.927734 2.73438 2.19727 3.71094 4.73633 3.71094 2.58789 0 4.24805-1.5625 4.24805-4.00391 0-0.830078-0.146484-1.61133-0.537109-2.63672l-22.9004-60.9863c-1.12305-2.97852-3.125-4.49219-6.25-4.49219-3.02734 0-5.07812 1.46484-6.15234 4.44336l-22.9004 61.084c-0.390625 1.02539-0.537109 1.80664-0.537109 2.63672 0 2.44141 1.5625 3.95508 4.10156 3.95508Zm13.4766-28.3691 11.8652-32.8613h0.244141l11.8652 32.8613Z"/>
  </g>
  <line style="fill:none;stroke:#00AEEF;stroke-width:0.5;opacity:1.0;" x1="792.836" x2="792.836" y1="1919" y2="1933"/>
  <text style="stroke:none;fill:black;font-family:sans-serif;font-size:13;font-weight:bold;" transform="matrix(1 0 0 1 776 1953)">Margins</text>
  <text style="stroke:none;fill:black;font-family:sans-serif;font-size:13;" transform="matrix(1 0 0 1 776 1971)">Leading and trailing margins on the left and right side of each symbol</text>
  <text style="stroke:none;fill:black;font-family:sans-serif;font-size:13;" transform="matrix(1 0 0 1 776 1989)">can be adjusted by modifying the x-location of the margin guidelines.</text>
  <text style="stroke:none;fill:black;font-family:sans-serif;font-size:13;" transform="matrix(1 0 0 1 776 2007)">Modifications are automatically applied proportionally to all</text>
  <text style="stroke:none;fill:black;font-family:sans-serif;font-size:13;" transform="matrix(1 0 0 1 776 2025)">scales and weights.</text>
  <g transform="matrix(0.2 0 0 0.2 1289 1933)">
   <path d="m14.209 9.32617 8.49609 8.54492c4.29688 4.3457 9.22852 4.05273 13.8672-1.07422l53.4668-58.9355-4.83398-4.88281-53.0762 58.3984c-1.75781 2.00195-3.41797 2.49023-5.76172 0.146484l-5.85938-5.81055c-2.34375-2.29492-1.80664-4.00391 0.195312-5.81055l57.373-54.0039-4.88281-4.83398-57.959 54.4434c-4.93164 4.58984-5.32227 9.47266-1.02539 13.8184Zm32.0801-90.9668c-2.09961 2.05078-2.24609 4.93164-1.07422 6.88477 1.17188 1.80664 3.4668 2.97852 6.68945 2.14844 7.32422-1.70898 14.9414-2.00195 22.0703 2.68555l-2.92969 7.27539c-1.70898 4.15039-0.830078 7.08008 1.85547 9.81445l11.4746 11.5723c2.44141 2.44141 4.49219 2.53906 7.32422 2.05078l5.32227-0.976562 3.32031 3.36914-0.195312 2.7832c-0.195312 2.49023 0.439453 4.39453 2.88086 6.78711l3.80859 3.71094c2.39258 2.39258 5.46875 2.53906 7.8125 0.195312l14.5508-14.5996c2.34375-2.34375 2.24609-5.32227-0.146484-7.71484l-3.85742-3.80859c-2.39258-2.39258-4.24805-3.17383-6.64062-2.97852l-2.88086 0.244141-3.22266-3.17383 1.2207-5.61523c0.634766-2.83203-0.146484-5.0293-3.07617-7.95898l-10.9863-10.9375c-16.6992-16.6016-38.8672-16.2109-53.3203-1.75781Zm7.4707 1.85547c12.1582-8.88672 28.6133-7.37305 39.7461 3.75977l12.1582 12.0605c1.17188 1.17188 1.36719 2.09961 1.02539 3.80859l-1.61133 7.42188 7.51953 7.42188 4.93164-0.292969c1.26953-0.0488281 1.66016 0.0488281 2.63672 1.02539l2.88086 2.88086-12.207 12.207-2.88086-2.88086c-0.976562-0.976562-1.12305-1.36719-1.07422-2.68555l0.341797-4.88281-7.4707-7.42188-7.61719 1.26953c-1.61133 0.341797-2.34375 0.195312-3.56445-0.976562l-10.0098-10.0098c-1.26953-1.17188-1.41602-2.00195-0.634766-3.85742l4.39453-10.4492c-7.8125-7.27539-17.9688-10.4004-28.125-7.42188-0.78125 0.195312-1.07422-0.439453-0.439453-0.976562Z"/>
  </g>
  <text style="stroke:none;fill:black;font-family:sans-serif;font-size:13;font-weight:bold;" transform="matrix(1 0 0 1 1289 1953)">Exporting</text>
  <text style="stroke:none;fill:black;font-family:sans-serif;font-size:13;" transform="matrix(1 0 0 1 1289 1971)">Symbols should be outlined when exporting to ensure the</text>
  <text style="stroke:none;fill:black;font-family:sans-serif;font-size:13;" transform="matrix(1 0 0 1 1289 1989)">design is preserved when submitting to Xcode.</text>
  <text id="template-version" style="stroke:none;fill:black;font-family:sans-serif;font-size:13;text-anchor:end;" transform="matrix(1 0 0 1 3036 1933)">Template v.5.0</text>
  <text style="stroke:none;fill:black;font-family:sans-serif;font-size:13;text-anchor:end;" transform="matrix(1 0 0 1 3036 1951)">Requires Xcode 15 or greater</text>
  <text id="descriptive-name" style="stroke:none;fill:black;font-family:sans-serif;font-size:13;text-anchor:end;" transform="matrix(1 0 0 1 3036 1969)">Generated from hand.point.up.braille.fill</text>
  <text style="stroke:none;fill:black;font-family:sans-serif;font-size:13;text-anchor:end;" transform="matrix(1 0 0 1 3036 1987)">Typeset at 100.0 points</text>
  <text style="stroke:none;fill:black;font-family:sans-serif;font-size:13;" transform="matrix(1 0 0 1 263 726)">Small</text>
  <text style="stroke:none;fill:black;font-family:sans-serif;font-size:13;" transform="matrix(1 0 0 1 263 1156)">Medium</text>
  <text style="stroke:none;fill:black;font-family:sans-serif;font-size:13;" transform="matrix(1 0 0 1 263 1586)">Large</text>
 </g>
 <g id="Guides">
  <g id="H-reference" style="fill:#27AAE1;stroke:none;" transform="matrix(1 0 0 1 339 696)">
   <path d="M0.993654 0L3.63775 0L29.3281-67.1323L30.0303-67.1323L30.0303-70.459L28.1226-70.459ZM11.6885-24.4799L46.9815-24.4799L46.2315-26.7285L12.4385-26.7285ZM55.1196 0L57.7637 0L30.6382-70.459L29.4326-70.459L29.4326-67.1323Z"/>
  </g>
  <line id="Baseline-S" style="fill:none;stroke:#27AAE1;opacity:1;stroke-width:0.5;" x1="263" x2="3036" y1="696" y2="696"/>
  <line id="Capline-S" style="fill:none;stroke:#27AAE1;opacity:1;stroke-width:0.5;" x1="263" x2="3036" y1="625.541" y2="625.541"/>
  <g id="H-reference" style="fill:#27AAE1;stroke:none;" transform="matrix(1 0 0 1 339 1126)">
   <path d="M0.993654 0L3.63775 0L29.3281-67.1323L30.0303-67.1323L30.0303-70.459L28.1226-70.459ZM11.6885-24.4799L46.9815-24.4799L46.2315-26.7285L12.4385-26.7285ZM55.1196 0L57.7637 0L30.6382-70.459L29.4326-70.459L29.4326-67.1323Z"/>
  </g>
  <line id="Baseline-M" style="fill:none;stroke:#27AAE1;opacity:1;stroke-width:0.5;" x1="263" x2="3036" y1="1126" y2="1126"/>
  <line id="Capline-M" style="fill:none;stroke:#27AAE1;opacity:1;stroke-width:0.5;" x1="263" x2="3036" y1="1055.54" y2="1055.54"/>
  <g id="H-reference" style="fill:#27AAE1;stroke:none;" transform="matrix(1 0 0 1 339 1556)">
   <path d="M0.993654 0L3.63775 0L29.3281-67.1323L30.0303-67.1323L30.0303-70.459L28.1226-70.459ZM11.6885-24.4799L46.9815-24.4799L46.2315-26.7285L12.4385-26.7285ZM55.1196 0L57.7637 0L30.6382-70.459L29.4326-70.459L29.4326-67.1323Z"/>
  </g>
  <line id="Baseline-L" style="fill:none;stroke:#27AAE1;opacity:1;stroke-width:0.5;" x1="263" x2="3036" y1="1556" y2="1556"/>
  <line id="Capline-L" style="fill:none;stroke:#27AAE1;opacity:1;stroke-width:0.5;" x1="263" x2="3036" y1="1485.54" y2="1485.54"/>
  <line id="left-margin-Ultralight-S" style="fill:none;stroke:#00AEEF;stroke-width:0.5;opacity:1.0;" x1="523.695" x2="523.695" y1="600.785" y2="720.121"/>
  <line id="right-margin-Ultralight-S" style="fill:none;stroke:#00AEEF;stroke-width:0.5;opacity:1.0;" x1="595.727" x2="595.727" y1="600.785" y2="720.121"/>
  <line id="left-margin-Regular-S" style="fill:none;stroke:#00AEEF;stroke-width:0.5;opacity:1.0;" x1="1409.22" x2="1409.22" y1="600.785" y2="720.121"/>
  <line id="right-margin-Regular-S" style="fill:none;stroke:#00AEEF;stroke-width:0.5;opacity:1.0;" x1="1490.47" x2="1490.47" y1="600.785" y2="720.121"/>
  <line id="left-margin-Black-S" style="fill:none;stroke:#00AEEF;stroke-width:0.5;opacity:1.0;" x1="2889.33" x2="2889.33" y1="600.785" y2="720.121"/>
  <line id="right-margin-Black-S" style="fill:none;stroke:#00AEEF;stroke-width:0.5;opacity:1.0;" x1="2977.47" x2="2977.47" y1="600.785" y2="720.121"/>
 </g>
 <g id="Symbols">
  <g id="Black-S" transform="matrix(1 0 0 1 2889.33 696)">
   <path class="SFSymbolsPreviewWireframe" d="M34.1797-79.1016C37.4023-79.1016 40.0391-81.7383 40.0391-84.9609C40.0391-88.1836 37.4023-90.8203 34.1797-90.8203C30.957-90.8203 28.3203-88.1836 28.3203-84.9609C28.3203-81.7383 30.957-79.1016 34.1797-79.1016ZM12.6953-59.375C15.918-59.375 18.5547-62.0117 18.5547-65.2344C18.5547-68.457 15.918-71.0938 12.6953-71.0938C9.47266-71.0938 6.83594-68.457 6.83594-65.2344C6.83594-62.0117 9.47266-59.375 12.6953-59.375ZM55.9082-59.5703C59.1309-59.5703 61.7676-62.207 61.7676-65.4297C61.7676-68.6523 59.1309-71.2891 55.9082-71.2891C52.6855-71.2891 50.0488-68.6523 50.0488-65.4297C50.0488-62.207 52.6855-59.5703 55.9082-59.5703ZM74.4629-59.5703C77.6855-59.5703 80.3223-62.207 80.3223-65.4297C80.3223-68.6523 77.6855-71.2891 74.4629-71.2891C71.2402-71.2891 68.6035-68.6523 68.6035-65.4297C68.6035-62.207 71.2402-59.5703 74.4629-59.5703ZM74.4629-79.1016C77.6855-79.1016 80.3223-81.7383 80.3223-84.9609C80.3223-88.1836 77.6855-90.8203 74.4629-90.8203C71.2402-90.8203 68.6035-88.1836 68.6035-84.9609C68.6035-81.7383 71.2402-79.1016 74.4629-79.1016ZM49.9023 19.3359C69.6289 19.3359 81.2988 6.98242 81.2988-13.8184L81.2988-22.6562C81.2988-30.4199 77.4414-36.2305 72.168-36.2305C70.5566-36.2305 69.5312-35.2051 69.5312-33.5938L69.5312-30.127C69.5312-29.0527 69.1406-28.4668 68.5547-28.4668C67.9199-28.4668 67.5293-29.0039 67.5293-30.127L67.5293-32.373C67.5293-37.4023 64.209-41.0156 59.5703-41.0156C57.1777-41.0156 55.8105-39.7461 55.8105-37.5488L55.8105-32.7148C55.8105-31.5918 55.4688-31.0547 54.8828-31.0547C54.1992-31.0547 53.8086-31.543 53.8086-32.7148L53.8086-37.207C53.8086-42.4805 50.7812-45.8008 45.8984-45.8008C43.5547-45.8008 42.1387-44.5312 42.1387-42.3828L42.1387-32.7148C42.1387-31.6406 41.748-31.0547 41.2109-31.0547C40.5762-31.0547 40.1855-31.5918 40.1855-32.7148L40.1855-63.0859C40.1855-66.8945 37.5977-69.6777 34.082-69.6777C30.4199-69.6777 27.832-66.9434 27.832-63.0859L27.832-20.6055C27.832-19.9707 27.5879-19.6289 27.1973-19.6289C26.9043-19.6289 26.6113-19.8242 26.4648-20.2148L21.1426-33.0078C20.0684-35.5957 18.1641-37.793 14.7949-37.793C10.8887-37.793 8.05664-35.2051 8.05664-31.2988C8.05664-30.1758 8.20312-29.0527 8.54492-28.1738L16.5039-6.00586C22.7539 11.4258 34.0332 19.3359 49.9023 19.3359Z"/>
  </g>
  <g id="Regular-S" transform="matrix(1 0 0 1 1409.22 696)">
   <path class="SFSymbolsPreviewWireframe" d="M31.7871-73.7793C34.9121-73.7793 37.3535-76.2207 37.3535-79.3457C37.3535-82.4219 34.9121-84.9121 31.7871-84.9121C28.7109-84.9121 26.2207-82.4219 26.2207-79.3457C26.2207-76.2207 28.7109-73.7793 31.7871-73.7793ZM12.4023-56.3477C15.5273-56.3477 17.9688-58.8379 17.9688-61.9141C17.9688-65.0391 15.5273-67.4805 12.4023-67.4805C9.32617-67.4805 6.83594-65.0391 6.83594-61.9141C6.83594-58.8379 9.32617-56.3477 12.4023-56.3477ZM51.416-56.3477C54.4922-56.3477 56.9824-58.8379 56.9824-61.9141C56.9824-65.0391 54.4922-67.4805 51.416-67.4805C48.291-67.4805 45.8496-65.0391 45.8496-61.9141C45.8496-58.8379 48.291-56.3477 51.416-56.3477ZM68.8477-56.3477C71.9238-56.3477 74.4141-58.8379 74.4141-61.9141C74.4141-65.0391 71.9238-67.4805 68.8477-67.4805C65.7227-67.4805 63.2812-65.0391 63.2812-61.9141C63.2812-58.8379 65.7227-56.3477 68.8477-56.3477ZM68.8477-73.7793C71.9238-73.7793 74.4141-76.2207 74.4141-79.3457C74.4141-82.4219 71.9238-84.9121 68.8477-84.9121C65.7227-84.9121 63.2812-82.4219 63.2812-79.3457C63.2812-76.2207 65.7227-73.7793 68.8477-73.7793ZM45.6055 12.6953C62.4023 12.6953 71.9727 1.85547 71.9727-15.8691L71.9727-23.5352C71.9727-30.2734 68.75-34.4238 65.0879-34.4238C64.2578-34.4238 63.8184-33.9844 63.8184-33.2031L63.8184-30.0781C63.8184-28.3691 62.9883-27.5879 61.9629-27.5879C60.8887-27.5879 60.0586-28.3691 60.0586-30.0781L60.0586-32.0801C60.0586-36.0352 57.5195-38.623 54.1016-38.623C52.5391-38.623 51.8555-37.9883 51.8555-36.6699L51.8555-32.373C51.8555-30.6641 50.9766-29.8828 50-29.8828C48.877-29.8828 48.0469-30.6641 48.0469-32.373L48.0469-36.3281C48.0469-40.7715 45.459-42.8711 42.1387-42.8711C40.6738-42.8711 39.8926-42.1875 39.8926-40.918L39.8926-32.373C39.8926-30.6641 39.0137-29.8828 38.0371-29.8828C36.9141-29.8828 36.084-30.6641 36.084-32.373L36.084-61.8164C36.084-64.6484 34.1797-66.5527 31.7871-66.5527C29.1504-66.5527 27.3926-64.6484 27.3926-61.8164L27.3926-18.1152C27.3926-16.9922 26.709-16.4062 26.0254-16.4062C25.3906-16.4062 24.8535-16.8457 24.3652-17.9688L18.7012-31.3965C17.8711-33.3496 16.6016-34.2285 14.7949-34.2285C12.207-34.2285 10.4492-32.4219 10.4492-30.2734C10.4492-29.3457 10.6445-28.6133 10.8398-28.0273L16.9922-9.81445C22.5098 6.49414 33.1055 12.6953 45.6055 12.6953Z"/>
  </g>
  <g id="Ultralight-S" transform="matrix(1 0 0 1 523.695 696)">
   <path class="SFSymbolsPreviewWireframe" d="M28.4722-71.0093C31.1885-71.0093 33.4029-73.2237 33.4029-75.8946C33.4029-78.6075 31.1885-80.8252 28.4722-80.8252C25.8047-80.8252 23.5869-78.6075 23.5869-75.8946C23.5869-73.2237 25.8047-71.0093 28.4722-71.0093ZM11.7666-56.2114C14.4375-56.2114 16.6519-58.4292 16.6519-61.1421C16.6519-63.813 14.4375-66.0274 11.7666-66.0274C9.05371-66.0274 6.83594-63.813 6.83594-61.1421C6.83594-58.4292 9.05371-56.2114 11.7666-56.2114ZM45.4673-56.2114C48.1802-56.2114 50.398-58.4292 50.398-61.1421C50.398-63.813 48.1802-66.0274 45.4673-66.0274C42.751-66.0274 40.5367-63.813 40.5367-61.1421C40.5367-58.4292 42.751-56.2114 45.4673-56.2114ZM60.2652-56.2114C62.9781-56.2114 65.1959-58.4292 65.1959-61.1421C65.1959-63.813 62.9781-66.0274 60.2652-66.0274C57.5489-66.0274 55.3345-63.813 55.3345-61.1421C55.3345-58.4292 57.5489-56.2114 60.2652-56.2114ZM60.2652-71.0093C62.9781-71.0093 65.1959-73.2237 65.1959-75.8946C65.1959-78.6075 62.9781-80.8252 60.2652-80.8252C57.5489-80.8252 55.3345-78.6075 55.3345-75.8946C55.3345-73.2237 57.5489-71.0093 60.2652-71.0093ZM39.3843 10.0161C55.0005 10.0161 63.2086 1.58301 63.2086-16.5049L63.2086-22.3999C63.2086-28.9111 59.9859-32.8799 56.3238-32.8799C55.4937-32.8799 55.0543-32.4404 55.0543-31.6592L55.0543-27.8076C55.0543-26.9614 54.5875-26.4526 54.0162-26.4526C53.4415-26.4526 53.0201-26.9614 53.0201-27.8076L53.0201-30.5361C53.0201-34.4912 50.481-37.0791 47.063-37.0791C45.5005-37.0791 44.8169-36.4443 44.8169-35.126L44.8169-30.1026C44.8169-29.2564 44.3467-28.7476 43.7789-28.7476C43.2007-28.7476 42.7339-29.2564 42.7339-30.1026L42.7339-34.7842C42.7339-39.2276 40.146-41.3272 36.8257-41.3272C35.3609-41.3272 34.5796-40.6436 34.5796-39.374L34.5796-30.1026C34.5796-29.2564 34.1548-28.7476 33.5869-28.7476C33.0088-28.7476 32.542-29.2564 32.542-30.1026L32.542-57.23C32.542-60.062 30.8648-61.7393 28.4722-61.7393C26.1533-61.7393 24.3501-60.062 24.3501-57.23L24.3501-20.2495C24.3501-19.4443 23.7573-18.9946 23.1192-18.9946C22.6206-18.9946 22.1289-19.2524 21.7769-20.0576L16.249-32.5317C15.3736-34.5303 14.0586-35.2275 12.6153-35.2275C9.93654-35.2275 8.63283-33.5117 8.63283-31.227C8.63283-30.5718 8.78273-29.8848 9.02345-29.1626L15.3574-9.63281C19.4219 2.81595 28.3374 10.0161 39.3843 10.0161Z"/>
  </g>
 </g>
</svg>
