<?xml version="1.0" encoding="UTF-8"?>
<!--Generator: Apple Native CoreSVG 232.5-->
<!DOCTYPE svg
PUBLIC "-//W3C//DTD SVG 1.1//EN"
       "http://www.w3.org/Graphics/SVG/1.1/DTD/svg11.dtd">
<svg version="1.1" xmlns="http://www.w3.org/2000/svg" xmlns:xlink="http://www.w3.org/1999/xlink" width="3300" height="2200">
 <!--glyph: "uni100B02.medium", point size: 100.0, font version: "19.2d2e1", template writer version: "128"-->
 <style>.SFSymbolsPreviewWireframe {fill:none;opacity:1.0;stroke:black;stroke-width:0.5}
</style>
 <g id="Notes">
  <rect height="2200" id="artboard" style="fill:white;opacity:1" width="3300" x="0" y="0"/>
  <line style="fill:none;stroke:black;opacity:1;stroke-width:0.5;" x1="263" x2="3036" y1="292" y2="292"/>
  <text style="stroke:none;fill:black;font-family:sans-serif;font-size:13;font-weight:bold;" transform="matrix(1 0 0 1 263 322)">Weight/Scale Variations</text>
  <text style="stroke:none;fill:black;font-family:sans-serif;font-size:13;text-anchor:middle;" transform="matrix(1 0 0 1 559.711 322)">Ultralight</text>
  <text style="stroke:none;fill:black;font-family:sans-serif;font-size:13;text-anchor:middle;" transform="matrix(1 0 0 1 856.422 322)">Thin</text>
  <text style="stroke:none;fill:black;font-family:sans-serif;font-size:13;text-anchor:middle;" transform="matrix(1 0 0 1 1153.13 322)">Light</text>
  <text style="stroke:none;fill:black;font-family:sans-serif;font-size:13;text-anchor:middle;" transform="matrix(1 0 0 1 1449.84 322)">Regular</text>
  <text style="stroke:none;fill:black;font-family:sans-serif;font-size:13;text-anchor:middle;" transform="matrix(1 0 0 1 1746.56 322)">Medium</text>
  <text style="stroke:none;fill:black;font-family:sans-serif;font-size:13;text-anchor:middle;" transform="matrix(1 0 0 1 2043.27 322)">Semibold</text>
  <text style="stroke:none;fill:black;font-family:sans-serif;font-size:13;text-anchor:middle;" transform="matrix(1 0 0 1 2339.98 322)">Bold</text>
  <text style="stroke:none;fill:black;font-family:sans-serif;font-size:13;text-anchor:middle;" transform="matrix(1 0 0 1 2636.69 322)">Heavy</text>
  <text style="stroke:none;fill:black;font-family:sans-serif;font-size:13;text-anchor:middle;" transform="matrix(1 0 0 1 2933.4 322)">Black</text>
  <line style="fill:none;stroke:black;opacity:1;stroke-width:0.5;" x1="263" x2="3036" y1="1903" y2="1903"/>
  <g transform="matrix(0.2 0 0 0.2 263 1933)">
   <path d="m46.2402 4.15039c21.5332 0 39.4531-17.8711 39.4531-39.4043s-17.9688-39.4043-39.502-39.4043c-21.4844 0-39.3555 17.8711-39.3555 39.4043s17.9199 39.4043 39.4043 39.4043Zm0-7.42188c-17.7246 0-31.8848-14.209-31.8848-31.9824s14.1113-31.9824 31.8359-31.9824c17.7734 0 32.0312 14.209 32.0312 31.9824s-14.209 31.9824-31.9824 31.9824Zm-17.9688-31.9824c0 2.14844 1.51367 3.61328 3.75977 3.61328h10.498v10.5957c0 2.19727 1.46484 3.71094 3.61328 3.71094 2.24609 0 3.71094-1.51367 3.71094-3.71094v-10.5957h10.5957c2.19727 0 3.71094-1.46484 3.71094-3.61328 0-2.19727-1.51367-3.71094-3.71094-3.71094h-10.5957v-10.5469c0-2.24609-1.46484-3.75977-3.71094-3.75977-2.14844 0-3.61328 1.51367-3.61328 3.75977v10.5469h-10.498c-2.24609 0-3.75977 1.51367-3.75977 3.71094Z"/>
  </g>
  <g transform="matrix(0.2 0 0 0.2 281.506 1933)">
   <path d="m58.5449 14.5508c27.2461 0 49.8047-22.6074 49.8047-49.8047 0-27.2461-22.6074-49.8047-49.8535-49.8047-27.1973 0-49.7559 22.5586-49.7559 49.8047 0 27.1973 22.6074 49.8047 49.8047 49.8047Zm0-8.30078c-23.0469 0-41.4551-18.457-41.4551-41.5039s18.3594-41.5039 41.4062-41.5039 41.5527 18.457 41.5527 41.5039-18.457 41.5039-41.5039 41.5039Zm-22.6562-41.5039c0 2.39258 1.66016 4.00391 4.15039 4.00391h14.3555v14.4043c0 2.44141 1.66016 4.15039 4.05273 4.15039 2.44141 0 4.15039-1.66016 4.15039-4.15039v-14.4043h14.4043c2.44141 0 4.15039-1.61133 4.15039-4.00391 0-2.44141-1.70898-4.15039-4.15039-4.15039h-14.4043v-14.3555c0-2.49023-1.70898-4.19922-4.15039-4.19922-2.39258 0-4.05273 1.70898-4.05273 4.19922v14.3555h-14.3555c-2.49023 0-4.15039 1.70898-4.15039 4.15039Z"/>
  </g>
  <g transform="matrix(0.2 0 0 0.2 304.924 1933)">
   <path d="m74.8535 28.3203c34.8145 0 63.623-28.8086 63.623-63.5742 0-34.8145-28.8574-63.623-63.6719-63.623-34.7656 0-63.5254 28.8086-63.5254 63.623 0 34.7656 28.8086 63.5742 63.5742 63.5742Zm0-9.08203c-30.1758 0-54.4434-24.3164-54.4434-54.4922 0-30.2246 24.2188-54.4922 54.3945-54.4922 30.2246 0 54.541 24.2676 54.541 54.4922 0 30.1758-24.2676 54.4922-54.4922 54.4922Zm-28.8574-54.4922c0 2.58789 1.85547 4.39453 4.58984 4.39453h19.7266v19.7754c0 2.68555 1.85547 4.58984 4.44336 4.58984 2.68555 0 4.54102-1.85547 4.54102-4.58984v-19.7754h19.7754c2.68555 0 4.58984-1.80664 4.58984-4.39453 0-2.73438-1.85547-4.58984-4.58984-4.58984h-19.7754v-19.7266c0-2.73438-1.85547-4.63867-4.54102-4.63867-2.58789 0-4.44336 1.9043-4.44336 4.63867v19.7266h-19.7266c-2.73438 0-4.58984 1.85547-4.58984 4.58984Z"/>
  </g>
  <text style="stroke:none;fill:black;font-family:sans-serif;font-size:13;font-weight:bold;" transform="matrix(1 0 0 1 263 1953)">Design Variations</text>
  <text style="stroke:none;fill:black;font-family:sans-serif;font-size:13;" transform="matrix(1 0 0 1 263 1971)">Symbols are supported in up to nine weights and three scales.</text>
  <text style="stroke:none;fill:black;font-family:sans-serif;font-size:13;" transform="matrix(1 0 0 1 263 1989)">For optimal layout with text and other symbols, vertically align</text>
  <text style="stroke:none;fill:black;font-family:sans-serif;font-size:13;" transform="matrix(1 0 0 1 263 2007)">symbols with the adjacent text.</text>
  <line style="fill:none;stroke:#00AEEF;stroke-width:0.5;opacity:1.0;" x1="776" x2="776" y1="1919" y2="1933"/>
  <g transform="matrix(0.2 0 0 0.2 776 1933)">
   <path d="m16.5527 0.78125c2.58789 0 3.85742-0.976562 4.78516-3.71094l6.29883-17.2363h28.8086l6.29883 17.2363c0.927734 2.73438 2.19727 3.71094 4.73633 3.71094 2.58789 0 4.24805-1.5625 4.24805-4.00391 0-0.830078-0.146484-1.61133-0.537109-2.63672l-22.9004-60.9863c-1.12305-2.97852-3.125-4.49219-6.25-4.49219-3.02734 0-5.07812 1.46484-6.15234 4.44336l-22.9004 61.084c-0.390625 1.02539-0.537109 1.80664-0.537109 2.63672 0 2.44141 1.5625 3.95508 4.10156 3.95508Zm13.4766-28.3691 11.8652-32.8613h0.244141l11.8652 32.8613Z"/>
  </g>
  <line style="fill:none;stroke:#00AEEF;stroke-width:0.5;opacity:1.0;" x1="792.836" x2="792.836" y1="1919" y2="1933"/>
  <text style="stroke:none;fill:black;font-family:sans-serif;font-size:13;font-weight:bold;" transform="matrix(1 0 0 1 776 1953)">Margins</text>
  <text style="stroke:none;fill:black;font-family:sans-serif;font-size:13;" transform="matrix(1 0 0 1 776 1971)">Leading and trailing margins on the left and right side of each symbol</text>
  <text style="stroke:none;fill:black;font-family:sans-serif;font-size:13;" transform="matrix(1 0 0 1 776 1989)">can be adjusted by modifying the x-location of the margin guidelines.</text>
  <text style="stroke:none;fill:black;font-family:sans-serif;font-size:13;" transform="matrix(1 0 0 1 776 2007)">Modifications are automatically applied proportionally to all</text>
  <text style="stroke:none;fill:black;font-family:sans-serif;font-size:13;" transform="matrix(1 0 0 1 776 2025)">scales and weights.</text>
  <g transform="matrix(0.2 0 0 0.2 1289 1933)">
   <path d="m14.209 9.32617 8.49609 8.54492c4.29688 4.3457 9.22852 4.05273 13.8672-1.07422l53.4668-58.9355-4.83398-4.88281-53.0762 58.3984c-1.75781 2.00195-3.41797 2.49023-5.76172 0.146484l-5.85938-5.81055c-2.34375-2.29492-1.80664-4.00391 0.195312-5.81055l57.373-54.0039-4.88281-4.83398-57.959 54.4434c-4.93164 4.58984-5.32227 9.47266-1.02539 13.8184Zm32.0801-90.9668c-2.09961 2.05078-2.24609 4.93164-1.07422 6.88477 1.17188 1.80664 3.4668 2.97852 6.68945 2.14844 7.32422-1.70898 14.9414-2.00195 22.0703 2.68555l-2.92969 7.27539c-1.70898 4.15039-0.830078 7.08008 1.85547 9.81445l11.4746 11.5723c2.44141 2.44141 4.49219 2.53906 7.32422 2.05078l5.32227-0.976562 3.32031 3.36914-0.195312 2.7832c-0.195312 2.49023 0.439453 4.39453 2.88086 6.78711l3.80859 3.71094c2.39258 2.39258 5.46875 2.53906 7.8125 0.195312l14.5508-14.5996c2.34375-2.34375 2.24609-5.32227-0.146484-7.71484l-3.85742-3.80859c-2.39258-2.39258-4.24805-3.17383-6.64062-2.97852l-2.88086 0.244141-3.22266-3.17383 1.2207-5.61523c0.634766-2.83203-0.146484-5.0293-3.07617-7.95898l-10.9863-10.9375c-16.6992-16.6016-38.8672-16.2109-53.3203-1.75781Zm7.4707 1.85547c12.1582-8.88672 28.6133-7.37305 39.7461 3.75977l12.1582 12.0605c1.17188 1.17188 1.36719 2.09961 1.02539 3.80859l-1.61133 7.42188 7.51953 7.42188 4.93164-0.292969c1.26953-0.0488281 1.66016 0.0488281 2.63672 1.02539l2.88086 2.88086-12.207 12.207-2.88086-2.88086c-0.976562-0.976562-1.12305-1.36719-1.07422-2.68555l0.341797-4.88281-7.4707-7.42188-7.61719 1.26953c-1.61133 0.341797-2.34375 0.195312-3.56445-0.976562l-10.0098-10.0098c-1.26953-1.17188-1.41602-2.00195-0.634766-3.85742l4.39453-10.4492c-7.8125-7.27539-17.9688-10.4004-28.125-7.42188-0.78125 0.195312-1.07422-0.439453-0.439453-0.976562Z"/>
  </g>
  <text style="stroke:none;fill:black;font-family:sans-serif;font-size:13;font-weight:bold;" transform="matrix(1 0 0 1 1289 1953)">Exporting</text>
  <text style="stroke:none;fill:black;font-family:sans-serif;font-size:13;" transform="matrix(1 0 0 1 1289 1971)">Symbols should be outlined when exporting to ensure the</text>
  <text style="stroke:none;fill:black;font-family:sans-serif;font-size:13;" transform="matrix(1 0 0 1 1289 1989)">design is preserved when submitting to Xcode.</text>
  <text id="template-version" style="stroke:none;fill:black;font-family:sans-serif;font-size:13;text-anchor:end;" transform="matrix(1 0 0 1 3036 1933)">Template v.5.0</text>
  <text style="stroke:none;fill:black;font-family:sans-serif;font-size:13;text-anchor:end;" transform="matrix(1 0 0 1 3036 1951)">Requires Xcode 15 or greater</text>
  <text id="descriptive-name" style="stroke:none;fill:black;font-family:sans-serif;font-size:13;text-anchor:end;" transform="matrix(1 0 0 1 3036 1969)">Generated from hand.tap.fill</text>
  <text style="stroke:none;fill:black;font-family:sans-serif;font-size:13;text-anchor:end;" transform="matrix(1 0 0 1 3036 1987)">Typeset at 100.0 points</text>
  <text style="stroke:none;fill:black;font-family:sans-serif;font-size:13;" transform="matrix(1 0 0 1 263 726)">Small</text>
  <text style="stroke:none;fill:black;font-family:sans-serif;font-size:13;" transform="matrix(1 0 0 1 263 1156)">Medium</text>
  <text style="stroke:none;fill:black;font-family:sans-serif;font-size:13;" transform="matrix(1 0 0 1 263 1586)">Large</text>
 </g>
 <g id="Guides">
  <g id="H-reference" style="fill:#27AAE1;stroke:none;" transform="matrix(1 0 0 1 339 696)">
   <path d="M0.993654 0L3.63775 0L29.3281-67.1323L30.0303-67.1323L30.0303-70.459L28.1226-70.459ZM11.6885-24.4799L46.9815-24.4799L46.2315-26.7285L12.4385-26.7285ZM55.1196 0L57.7637 0L30.6382-70.459L29.4326-70.459L29.4326-67.1323Z"/>
  </g>
  <line id="Baseline-S" style="fill:none;stroke:#27AAE1;opacity:1;stroke-width:0.5;" x1="263" x2="3036" y1="696" y2="696"/>
  <line id="Capline-S" style="fill:none;stroke:#27AAE1;opacity:1;stroke-width:0.5;" x1="263" x2="3036" y1="625.541" y2="625.541"/>
  <g id="H-reference" style="fill:#27AAE1;stroke:none;" transform="matrix(1 0 0 1 339 1126)">
   <path d="M0.993654 0L3.63775 0L29.3281-67.1323L30.0303-67.1323L30.0303-70.459L28.1226-70.459ZM11.6885-24.4799L46.9815-24.4799L46.2315-26.7285L12.4385-26.7285ZM55.1196 0L57.7637 0L30.6382-70.459L29.4326-70.459L29.4326-67.1323Z"/>
  </g>
  <line id="Baseline-M" style="fill:none;stroke:#27AAE1;opacity:1;stroke-width:0.5;" x1="263" x2="3036" y1="1126" y2="1126"/>
  <line id="Capline-M" style="fill:none;stroke:#27AAE1;opacity:1;stroke-width:0.5;" x1="263" x2="3036" y1="1055.54" y2="1055.54"/>
  <g id="H-reference" style="fill:#27AAE1;stroke:none;" transform="matrix(1 0 0 1 339 1556)">
   <path d="M0.993654 0L3.63775 0L29.3281-67.1323L30.0303-67.1323L30.0303-70.459L28.1226-70.459ZM11.6885-24.4799L46.9815-24.4799L46.2315-26.7285L12.4385-26.7285ZM55.1196 0L57.7637 0L30.6382-70.459L29.4326-70.459L29.4326-67.1323Z"/>
  </g>
  <line id="Baseline-L" style="fill:none;stroke:#27AAE1;opacity:1;stroke-width:0.5;" x1="263" x2="3036" y1="1556" y2="1556"/>
  <line id="Capline-L" style="fill:none;stroke:#27AAE1;opacity:1;stroke-width:0.5;" x1="263" x2="3036" y1="1485.54" y2="1485.54"/>
  <line id="left-margin-Ultralight-S" style="fill:none;stroke:#00AEEF;stroke-width:0.5;opacity:1.0;" x1="520.423" x2="520.423" y1="600.785" y2="720.121"/>
  <line id="right-margin-Ultralight-S" style="fill:none;stroke:#00AEEF;stroke-width:0.5;opacity:1.0;" x1="598.999" x2="598.999" y1="600.785" y2="720.121"/>
  <line id="left-margin-Regular-S" style="fill:none;stroke:#00AEEF;stroke-width:0.5;opacity:1.0;" x1="1405.29" x2="1405.29" y1="600.785" y2="720.121"/>
  <line id="right-margin-Regular-S" style="fill:none;stroke:#00AEEF;stroke-width:0.5;opacity:1.0;" x1="1494.4" x2="1494.4" y1="600.785" y2="720.121"/>
  <line id="left-margin-Black-S" style="fill:none;stroke:#00AEEF;stroke-width:0.5;opacity:1.0;" x1="2881.79" x2="2881.79" y1="600.785" y2="720.121"/>
  <line id="right-margin-Black-S" style="fill:none;stroke:#00AEEF;stroke-width:0.5;opacity:1.0;" x1="2985.01" x2="2985.01" y1="600.785" y2="720.121"/>
 </g>
 <g id="Symbols">
  <g id="Black-S" transform="matrix(1 0 0 1 2881.79 696)">
   <path class="SFSymbolsPreviewWireframe" d="M33.6914-95.5566C18.8965-95.5566 6.83594-83.5938 6.83594-68.8477C6.83594-64.0625 8.44727-57.9102 10.9863-53.9551C12.3047-51.9531 14.1113-51.123 15.8691-51.123C20.1172-51.123 22.8516-55.5176 20.2637-59.4727C18.75-62.0117 17.5293-65.5273 17.5293-68.8477C17.5293-77.6855 24.8047-84.8145 33.6426-84.8145C40.7715-84.8145 47.168-80.0293 49.1699-72.9004C49.2188-72.7539 49.2676-72.5586 49.3164-72.4121C50.0488-70.0684 51.2207-68.1152 54.2969-68.1152C57.8613-68.1152 59.8145-70.459 59.8145-73.4375C59.8145-73.9258 59.7168-75.0488 59.5215-75.6348C56.2988-87.6953 45.5078-95.5566 33.6914-95.5566ZM75.4395 2.73438C93.9941-4.00391 100.732-19.5801 93.6035-39.1602L90.5762-47.4609C87.9395-54.7363 82.3242-58.8867 77.3438-57.0801C75.8301-56.543 75.2441-55.2246 75.7812-53.7109L76.9531-50.4395C77.3438-49.4141 77.1484-48.7305 76.6113-48.5352C76.0254-48.3398 75.4883-48.6816 75.0977-49.7559L74.3164-51.8555C72.6074-56.5918 68.2617-58.8379 63.8672-57.2754C61.6211-56.4453 60.791-54.7852 61.5234-52.7344L63.1836-48.1934C63.5742-47.1191 63.4277-46.4844 62.8906-46.2891C62.2559-46.0938 61.7188-46.3867 61.3281-47.5098L59.7656-51.709C57.959-56.6895 54.0039-58.7402 49.4141-57.0801C47.2168-56.2988 46.2891-54.5898 47.0215-52.5879L50.3418-43.5059C50.7324-42.4805 50.5371-41.7969 50.0488-41.6504C49.4629-41.4062 48.877-41.7969 48.4863-42.8223L38.1348-71.3867C36.8164-74.9512 33.4473-76.709 30.127-75.4883C26.709-74.2188 25.1953-70.8008 26.5137-67.1387L41.0645-27.2461C41.2598-26.6602 41.1621-26.2207 40.7715-26.123C40.5273-25.9766 40.1855-26.0742 39.8926-26.416L30.5176-36.6211C28.6133-38.6719 26.0742-40.0879 22.9004-38.916C19.2383-37.5977 17.4805-34.1797 18.7988-30.5176C19.1895-29.4434 19.7266-28.4668 20.3125-27.7344L35.4004-9.61914C47.2168 4.58984 60.5469 8.1543 75.4395 2.73438Z"/>
  </g>
  <g id="Regular-S" transform="matrix(1 0 0 1 1405.29 696)">
   <path class="SFSymbolsPreviewWireframe" d="M26.8066-85.1562C15.7715-85.1562 6.83594-76.2207 6.83594-65.2344C6.83594-60.4492 8.49609-56.0547 11.2793-52.6367C11.9629-51.7578 12.8418-51.416 13.6719-51.416C15.8203-51.416 17.5781-53.9062 15.8203-56.1035C13.7207-58.5449 12.5-61.7188 12.5-65.2344C12.5-73.0957 18.8477-79.4922 26.8066-79.4922C34.668-79.4922 41.0645-73.0957 41.0645-65.2344C41.0645-64.9902 41.0645-64.7461 41.0645-64.3066C41.0645-62.4023 42.4316-61.5234 43.75-61.5234C45.1172-61.5234 46.5332-62.4512 46.6309-63.9648C46.6797-64.3066 46.6797-64.6484 46.6797-65.2344C46.6797-76.2207 37.793-85.1562 26.8066-85.1562ZM64.7949-1.12305C80.6152-6.88477 85.8887-20.3125 79.834-36.9629L77.1973-44.1406C74.9023-50.5371 70.459-53.3203 67.041-52.0508C66.2598-51.7578 65.9668-51.2207 66.2598-50.4883L67.334-47.5586C67.8711-45.9473 67.3828-44.873 66.4062-44.5312C65.3809-44.1895 64.3066-44.6289 63.7207-46.2402L63.0371-48.1445C61.7188-51.8555 58.4473-53.418 55.2246-52.2461C53.7598-51.709 53.3203-50.8789 53.7598-49.6094L55.2246-45.6055C55.8105-43.9941 55.2734-42.9688 54.3457-42.5781C53.3203-42.2363 52.2461-42.6758 51.6602-44.2871L50.3418-47.998C48.7793-52.1973 45.6543-53.2715 42.5293-52.1484C41.1621-51.6602 40.6738-50.7324 41.0645-49.5117L43.9941-41.5039C44.5801-39.8926 44.043-38.8672 43.1152-38.5254C42.0898-38.1348 41.0156-38.623 40.4297-40.1855L30.3711-67.8711C29.3945-70.5566 26.9531-71.6797 24.707-70.8496C22.2656-69.9707 21.2402-67.5781 22.2168-64.9414L37.1582-23.8281C37.5488-22.7539 37.1094-22.0215 36.4746-21.7773C35.8398-21.5332 35.2051-21.7773 34.375-22.6562L24.4629-33.3496C22.998-34.9121 21.4844-35.3027 19.8242-34.668C17.3828-33.7891 16.3086-31.4941 17.0898-29.4434C17.3828-28.6133 17.8223-27.9785 18.2129-27.4902L30.2246-12.4512C40.9668 0.927734 53.0762 3.17383 64.7949-1.12305Z"/>
  </g>
  <g id="Ultralight-S" transform="matrix(1 0 0 1 520.423 696)">
   <path class="SFSymbolsPreviewWireframe" d="M22.3565-78.1177C13.7735-78.1177 6.83594-71.1802 6.83594-62.646C6.83594-59.0415 8.042-55.646 10.2803-52.9092C10.5552-52.5298 10.9346-52.3696 11.2652-52.3696C12.0513-52.3696 12.7647-53.3159 12.0513-54.1055C10.0879-56.4107 8.95804-59.4483 8.95804-62.646C8.95804-70.0532 14.9424-75.9502 22.3565-75.9502C29.7183-75.9502 35.6153-70.0078 35.6153-62.646C35.6153-62.4019 35.6153-62.294 35.6153-62.127C35.6153-61.4033 36.1651-61.0693 36.6661-61.0693C37.3521-61.0693 37.7691-61.5884 37.7759-62.1485C37.7794-62.2632 37.7794-62.4234 37.7794-62.646C37.7794-71.1802 30.8453-78.1177 22.3565-78.1177ZM55.8038-2.84862C70.4888-8.15624 75.3082-18.9048 69.1173-35.8731L67.0709-41.4614C64.8668-47.5401 60.4688-50.187 57.0509-48.9175C56.2696-48.6245 55.9766-48.0874 56.2696-47.355L57.5709-43.6988C57.8809-42.9502 57.6197-42.2847 57.0518-42.1245C56.5259-41.919 55.9512-42.2222 55.6378-43.0161L54.7271-45.6016C53.3633-49.3125 50.0919-50.875 46.8692-49.7031C45.4044-49.166 45.0103-48.336 45.4498-47.1118L47.1417-42.3814C47.4551-41.5874 47.1905-40.9707 46.6714-40.7617C46.1456-40.5562 45.5254-40.9048 45.2574-41.6533L43.6211-46.0908C42.1041-50.2446 38.9791-51.3189 35.8541-50.1958C34.4869-49.7075 33.9532-48.7798 34.3892-47.6045L37.5914-38.8701C37.8594-38.0762 37.5948-37.4595 37.0757-37.2539C36.5498-37.0903 35.9297-37.397 35.6617-38.1875L26.375-63.648C25.3985-66.3335 23.2749-67.3203 21.0288-66.4903C18.8145-65.7022 17.6983-63.4912 18.6748-60.8545L31.3003-26.0986C31.5547-25.3423 31.1607-24.7461 30.5713-24.5019C30.1182-24.3486 29.5743-24.4111 28.9712-25.063L19.5132-34.8481C18.003-36.456 16.4893-36.665 15.147-36.2119C12.6602-35.2876 12.0401-33.1743 12.7759-31.0781C13.0235-30.4297 13.4175-29.8403 13.899-29.2158L26.501-13.0415C34.564-2.75046 45.4019 0.948748 55.8038-2.84862Z"/>
  </g>
 </g>
</svg>
