<?xml version="1.0" encoding="UTF-8"?>
<!--Generator: Apple Native CoreSVG 232.5-->
<!DOCTYPE svg
PUBLIC "-//W3C//DTD SVG 1.1//EN"
       "http://www.w3.org/Graphics/SVG/1.1/DTD/svg11.dtd">
<svg version="1.1" xmlns="http://www.w3.org/2000/svg" xmlns:xlink="http://www.w3.org/1999/xlink" width="3300" height="2200">
 <!--glyph: "uni102039.medium", point size: 100.0, font version: "19.2d2e1", template writer version: "128"-->
 <style>.SFSymbolsPreviewWireframe {fill:none;opacity:1.0;stroke:black;stroke-width:0.5}
</style>
 <g id="Notes">
  <rect height="2200" id="artboard" style="fill:white;opacity:1" width="3300" x="0" y="0"/>
  <line style="fill:none;stroke:black;opacity:1;stroke-width:0.5;" x1="263" x2="3036" y1="292" y2="292"/>
  <text style="stroke:none;fill:black;font-family:sans-serif;font-size:13;font-weight:bold;" transform="matrix(1 0 0 1 263 322)">Weight/Scale Variations</text>
  <text style="stroke:none;fill:black;font-family:sans-serif;font-size:13;text-anchor:middle;" transform="matrix(1 0 0 1 559.711 322)">Ultralight</text>
  <text style="stroke:none;fill:black;font-family:sans-serif;font-size:13;text-anchor:middle;" transform="matrix(1 0 0 1 856.422 322)">Thin</text>
  <text style="stroke:none;fill:black;font-family:sans-serif;font-size:13;text-anchor:middle;" transform="matrix(1 0 0 1 1153.13 322)">Light</text>
  <text style="stroke:none;fill:black;font-family:sans-serif;font-size:13;text-anchor:middle;" transform="matrix(1 0 0 1 1449.84 322)">Regular</text>
  <text style="stroke:none;fill:black;font-family:sans-serif;font-size:13;text-anchor:middle;" transform="matrix(1 0 0 1 1746.56 322)">Medium</text>
  <text style="stroke:none;fill:black;font-family:sans-serif;font-size:13;text-anchor:middle;" transform="matrix(1 0 0 1 2043.27 322)">Semibold</text>
  <text style="stroke:none;fill:black;font-family:sans-serif;font-size:13;text-anchor:middle;" transform="matrix(1 0 0 1 2339.98 322)">Bold</text>
  <text style="stroke:none;fill:black;font-family:sans-serif;font-size:13;text-anchor:middle;" transform="matrix(1 0 0 1 2636.69 322)">Heavy</text>
  <text style="stroke:none;fill:black;font-family:sans-serif;font-size:13;text-anchor:middle;" transform="matrix(1 0 0 1 2933.4 322)">Black</text>
  <line style="fill:none;stroke:black;opacity:1;stroke-width:0.5;" x1="263" x2="3036" y1="1903" y2="1903"/>
  <g transform="matrix(0.2 0 0 0.2 263 1933)">
   <path d="m46.2402 4.15039c21.5332 0 39.4531-17.8711 39.4531-39.4043s-17.9688-39.4043-39.502-39.4043c-21.4844 0-39.3555 17.8711-39.3555 39.4043s17.9199 39.4043 39.4043 39.4043Zm0-7.42188c-17.7246 0-31.8848-14.209-31.8848-31.9824s14.1113-31.9824 31.8359-31.9824c17.7734 0 32.0312 14.209 32.0312 31.9824s-14.209 31.9824-31.9824 31.9824Zm-17.9688-31.9824c0 2.14844 1.51367 3.61328 3.75977 3.61328h10.498v10.5957c0 2.19727 1.46484 3.71094 3.61328 3.71094 2.24609 0 3.71094-1.51367 3.71094-3.71094v-10.5957h10.5957c2.19727 0 3.71094-1.46484 3.71094-3.61328 0-2.19727-1.51367-3.71094-3.71094-3.71094h-10.5957v-10.5469c0-2.24609-1.46484-3.75977-3.71094-3.75977-2.14844 0-3.61328 1.51367-3.61328 3.75977v10.5469h-10.498c-2.24609 0-3.75977 1.51367-3.75977 3.71094Z"/>
  </g>
  <g transform="matrix(0.2 0 0 0.2 281.506 1933)">
   <path d="m58.5449 14.5508c27.2461 0 49.8047-22.6074 49.8047-49.8047 0-27.2461-22.6074-49.8047-49.8535-49.8047-27.1973 0-49.7559 22.5586-49.7559 49.8047 0 27.1973 22.6074 49.8047 49.8047 49.8047Zm0-8.30078c-23.0469 0-41.4551-18.457-41.4551-41.5039s18.3594-41.5039 41.4062-41.5039 41.5527 18.457 41.5527 41.5039-18.457 41.5039-41.5039 41.5039Zm-22.6562-41.5039c0 2.39258 1.66016 4.00391 4.15039 4.00391h14.3555v14.4043c0 2.44141 1.66016 4.15039 4.05273 4.15039 2.44141 0 4.15039-1.66016 4.15039-4.15039v-14.4043h14.4043c2.44141 0 4.15039-1.61133 4.15039-4.00391 0-2.44141-1.70898-4.15039-4.15039-4.15039h-14.4043v-14.3555c0-2.49023-1.70898-4.19922-4.15039-4.19922-2.39258 0-4.05273 1.70898-4.05273 4.19922v14.3555h-14.3555c-2.49023 0-4.15039 1.70898-4.15039 4.15039Z"/>
  </g>
  <g transform="matrix(0.2 0 0 0.2 304.924 1933)">
   <path d="m74.8535 28.3203c34.8145 0 63.623-28.8086 63.623-63.5742 0-34.8145-28.8574-63.623-63.6719-63.623-34.7656 0-63.5254 28.8086-63.5254 63.623 0 34.7656 28.8086 63.5742 63.5742 63.5742Zm0-9.08203c-30.1758 0-54.4434-24.3164-54.4434-54.4922 0-30.2246 24.2188-54.4922 54.3945-54.4922 30.2246 0 54.541 24.2676 54.541 54.4922 0 30.1758-24.2676 54.4922-54.4922 54.4922Zm-28.8574-54.4922c0 2.58789 1.85547 4.39453 4.58984 4.39453h19.7266v19.7754c0 2.68555 1.85547 4.58984 4.44336 4.58984 2.68555 0 4.54102-1.85547 4.54102-4.58984v-19.7754h19.7754c2.68555 0 4.58984-1.80664 4.58984-4.39453 0-2.73438-1.85547-4.58984-4.58984-4.58984h-19.7754v-19.7266c0-2.73438-1.85547-4.63867-4.54102-4.63867-2.58789 0-4.44336 1.9043-4.44336 4.63867v19.7266h-19.7266c-2.73438 0-4.58984 1.85547-4.58984 4.58984Z"/>
  </g>
  <text style="stroke:none;fill:black;font-family:sans-serif;font-size:13;font-weight:bold;" transform="matrix(1 0 0 1 263 1953)">Design Variations</text>
  <text style="stroke:none;fill:black;font-family:sans-serif;font-size:13;" transform="matrix(1 0 0 1 263 1971)">Symbols are supported in up to nine weights and three scales.</text>
  <text style="stroke:none;fill:black;font-family:sans-serif;font-size:13;" transform="matrix(1 0 0 1 263 1989)">For optimal layout with text and other symbols, vertically align</text>
  <text style="stroke:none;fill:black;font-family:sans-serif;font-size:13;" transform="matrix(1 0 0 1 263 2007)">symbols with the adjacent text.</text>
  <line style="fill:none;stroke:#00AEEF;stroke-width:0.5;opacity:1.0;" x1="776" x2="776" y1="1919" y2="1933"/>
  <g transform="matrix(0.2 0 0 0.2 776 1933)">
   <path d="m16.5527 0.78125c2.58789 0 3.85742-0.976562 4.78516-3.71094l6.29883-17.2363h28.8086l6.29883 17.2363c0.927734 2.73438 2.19727 3.71094 4.73633 3.71094 2.58789 0 4.24805-1.5625 4.24805-4.00391 0-0.830078-0.146484-1.61133-0.537109-2.63672l-22.9004-60.9863c-1.12305-2.97852-3.125-4.49219-6.25-4.49219-3.02734 0-5.07812 1.46484-6.15234 4.44336l-22.9004 61.084c-0.390625 1.02539-0.537109 1.80664-0.537109 2.63672 0 2.44141 1.5625 3.95508 4.10156 3.95508Zm13.4766-28.3691 11.8652-32.8613h0.244141l11.8652 32.8613Z"/>
  </g>
  <line style="fill:none;stroke:#00AEEF;stroke-width:0.5;opacity:1.0;" x1="792.836" x2="792.836" y1="1919" y2="1933"/>
  <text style="stroke:none;fill:black;font-family:sans-serif;font-size:13;font-weight:bold;" transform="matrix(1 0 0 1 776 1953)">Margins</text>
  <text style="stroke:none;fill:black;font-family:sans-serif;font-size:13;" transform="matrix(1 0 0 1 776 1971)">Leading and trailing margins on the left and right side of each symbol</text>
  <text style="stroke:none;fill:black;font-family:sans-serif;font-size:13;" transform="matrix(1 0 0 1 776 1989)">can be adjusted by modifying the x-location of the margin guidelines.</text>
  <text style="stroke:none;fill:black;font-family:sans-serif;font-size:13;" transform="matrix(1 0 0 1 776 2007)">Modifications are automatically applied proportionally to all</text>
  <text style="stroke:none;fill:black;font-family:sans-serif;font-size:13;" transform="matrix(1 0 0 1 776 2025)">scales and weights.</text>
  <g transform="matrix(0.2 0 0 0.2 1289 1933)">
   <path d="m14.209 9.32617 8.49609 8.54492c4.29688 4.3457 9.22852 4.05273 13.8672-1.07422l53.4668-58.9355-4.83398-4.88281-53.0762 58.3984c-1.75781 2.00195-3.41797 2.49023-5.76172 0.146484l-5.85938-5.81055c-2.34375-2.29492-1.80664-4.00391 0.195312-5.81055l57.373-54.0039-4.88281-4.83398-57.959 54.4434c-4.93164 4.58984-5.32227 9.47266-1.02539 13.8184Zm32.0801-90.9668c-2.09961 2.05078-2.24609 4.93164-1.07422 6.88477 1.17188 1.80664 3.4668 2.97852 6.68945 2.14844 7.32422-1.70898 14.9414-2.00195 22.0703 2.68555l-2.92969 7.27539c-1.70898 4.15039-0.830078 7.08008 1.85547 9.81445l11.4746 11.5723c2.44141 2.44141 4.49219 2.53906 7.32422 2.05078l5.32227-0.976562 3.32031 3.36914-0.195312 2.7832c-0.195312 2.49023 0.439453 4.39453 2.88086 6.78711l3.80859 3.71094c2.39258 2.39258 5.46875 2.53906 7.8125 0.195312l14.5508-14.5996c2.34375-2.34375 2.24609-5.32227-0.146484-7.71484l-3.85742-3.80859c-2.39258-2.39258-4.24805-3.17383-6.64062-2.97852l-2.88086 0.244141-3.22266-3.17383 1.2207-5.61523c0.634766-2.83203-0.146484-5.0293-3.07617-7.95898l-10.9863-10.9375c-16.6992-16.6016-38.8672-16.2109-53.3203-1.75781Zm7.4707 1.85547c12.1582-8.88672 28.6133-7.37305 39.7461 3.75977l12.1582 12.0605c1.17188 1.17188 1.36719 2.09961 1.02539 3.80859l-1.61133 7.42188 7.51953 7.42188 4.93164-0.292969c1.26953-0.0488281 1.66016 0.0488281 2.63672 1.02539l2.88086 2.88086-12.207 12.207-2.88086-2.88086c-0.976562-0.976562-1.12305-1.36719-1.07422-2.68555l0.341797-4.88281-7.4707-7.42188-7.61719 1.26953c-1.61133 0.341797-2.34375 0.195312-3.56445-0.976562l-10.0098-10.0098c-1.26953-1.17188-1.41602-2.00195-0.634766-3.85742l4.39453-10.4492c-7.8125-7.27539-17.9688-10.4004-28.125-7.42188-0.78125 0.195312-1.07422-0.439453-0.439453-0.976562Z"/>
  </g>
  <text style="stroke:none;fill:black;font-family:sans-serif;font-size:13;font-weight:bold;" transform="matrix(1 0 0 1 1289 1953)">Exporting</text>
  <text style="stroke:none;fill:black;font-family:sans-serif;font-size:13;" transform="matrix(1 0 0 1 1289 1971)">Symbols should be outlined when exporting to ensure the</text>
  <text style="stroke:none;fill:black;font-family:sans-serif;font-size:13;" transform="matrix(1 0 0 1 1289 1989)">design is preserved when submitting to Xcode.</text>
  <text id="template-version" style="stroke:none;fill:black;font-family:sans-serif;font-size:13;text-anchor:end;" transform="matrix(1 0 0 1 3036 1933)">Template v.5.0</text>
  <text style="stroke:none;fill:black;font-family:sans-serif;font-size:13;text-anchor:end;" transform="matrix(1 0 0 1 3036 1951)">Requires Xcode 15 or greater</text>
  <text id="descriptive-name" style="stroke:none;fill:black;font-family:sans-serif;font-size:13;text-anchor:end;" transform="matrix(1 0 0 1 3036 1969)">Generated from hare.circle.fill</text>
  <text style="stroke:none;fill:black;font-family:sans-serif;font-size:13;text-anchor:end;" transform="matrix(1 0 0 1 3036 1987)">Typeset at 100.0 points</text>
  <text style="stroke:none;fill:black;font-family:sans-serif;font-size:13;" transform="matrix(1 0 0 1 263 726)">Small</text>
  <text style="stroke:none;fill:black;font-family:sans-serif;font-size:13;" transform="matrix(1 0 0 1 263 1156)">Medium</text>
  <text style="stroke:none;fill:black;font-family:sans-serif;font-size:13;" transform="matrix(1 0 0 1 263 1586)">Large</text>
 </g>
 <g id="Guides">
  <g id="H-reference" style="fill:#27AAE1;stroke:none;" transform="matrix(1 0 0 1 339 696)">
   <path d="M0.993654 0L3.63775 0L29.3281-67.1323L30.0303-67.1323L30.0303-70.459L28.1226-70.459ZM11.6885-24.4799L46.9815-24.4799L46.2315-26.7285L12.4385-26.7285ZM55.1196 0L57.7637 0L30.6382-70.459L29.4326-70.459L29.4326-67.1323Z"/>
  </g>
  <line id="Baseline-S" style="fill:none;stroke:#27AAE1;opacity:1;stroke-width:0.5;" x1="263" x2="3036" y1="696" y2="696"/>
  <line id="Capline-S" style="fill:none;stroke:#27AAE1;opacity:1;stroke-width:0.5;" x1="263" x2="3036" y1="625.541" y2="625.541"/>
  <g id="H-reference" style="fill:#27AAE1;stroke:none;" transform="matrix(1 0 0 1 339 1126)">
   <path d="M0.993654 0L3.63775 0L29.3281-67.1323L30.0303-67.1323L30.0303-70.459L28.1226-70.459ZM11.6885-24.4799L46.9815-24.4799L46.2315-26.7285L12.4385-26.7285ZM55.1196 0L57.7637 0L30.6382-70.459L29.4326-70.459L29.4326-67.1323Z"/>
  </g>
  <line id="Baseline-M" style="fill:none;stroke:#27AAE1;opacity:1;stroke-width:0.5;" x1="263" x2="3036" y1="1126" y2="1126"/>
  <line id="Capline-M" style="fill:none;stroke:#27AAE1;opacity:1;stroke-width:0.5;" x1="263" x2="3036" y1="1055.54" y2="1055.54"/>
  <g id="H-reference" style="fill:#27AAE1;stroke:none;" transform="matrix(1 0 0 1 339 1556)">
   <path d="M0.993654 0L3.63775 0L29.3281-67.1323L30.0303-67.1323L30.0303-70.459L28.1226-70.459ZM11.6885-24.4799L46.9815-24.4799L46.2315-26.7285L12.4385-26.7285ZM55.1196 0L57.7637 0L30.6382-70.459L29.4326-70.459L29.4326-67.1323Z"/>
  </g>
  <line id="Baseline-L" style="fill:none;stroke:#27AAE1;opacity:1;stroke-width:0.5;" x1="263" x2="3036" y1="1556" y2="1556"/>
  <line id="Capline-L" style="fill:none;stroke:#27AAE1;opacity:1;stroke-width:0.5;" x1="263" x2="3036" y1="1485.54" y2="1485.54"/>
  <line id="left-margin-Ultralight-S" style="fill:none;stroke:#00AEEF;stroke-width:0.5;opacity:1.0;" x1="515.649" x2="515.649" y1="600.785" y2="720.121"/>
  <line id="right-margin-Ultralight-S" style="fill:none;stroke:#00AEEF;stroke-width:0.5;opacity:1.0;" x1="603.773" x2="603.773" y1="600.785" y2="720.121"/>
  <line id="left-margin-Regular-S" style="fill:none;stroke:#00AEEF;stroke-width:0.5;opacity:1.0;" x1="1403.58" x2="1403.58" y1="600.785" y2="720.121"/>
  <line id="right-margin-Regular-S" style="fill:none;stroke:#00AEEF;stroke-width:0.5;opacity:1.0;" x1="1496.11" x2="1496.11" y1="600.785" y2="720.121"/>
  <line id="left-margin-Black-S" style="fill:none;stroke:#00AEEF;stroke-width:0.5;opacity:1.0;" x1="2884.57" x2="2884.57" y1="600.785" y2="720.121"/>
  <line id="right-margin-Black-S" style="fill:none;stroke:#00AEEF;stroke-width:0.5;opacity:1.0;" x1="2982.23" x2="2982.23" y1="600.785" y2="720.121"/>
 </g>
 <g id="Symbols">
  <g id="Black-S" transform="matrix(1 0 0 1 2884.57 696)">
   <path class="SFSymbolsPreviewWireframe" d="M48.8281 6.78711C71.9727 6.78711 90.8203-12.0605 90.8203-35.2051C90.8203-58.3496 71.9727-77.1973 48.8281-77.1973C25.6836-77.1973 6.83594-58.3496 6.83594-35.2051C6.83594-12.0605 25.6836 6.78711 48.8281 6.78711ZM50.293-18.3105C48.8281-18.3105 46.9238-18.6523 45.3125-20.0195L38.4766-25.8301C38.1348-25.8301 37.793-25.8301 37.4023-25.8301C31.9336-25.8301 28.8574-27.4414 26.2695-32.2266C24.1699-32.1777 22.6562-33.3008 22.6562-35.1074C22.6562-36.6699 24.0234-37.793 25.8301-37.5977C28.0762-44.6777 32.959-47.4609 38.1348-47.4609C44.1406-47.4609 47.168-44.9219 52.6367-41.3086C54.1504-40.5273 55.957-39.3066 57.4707-39.3066C58.7402-39.3066 59.1797-39.7461 59.8633-40.332L51.1719-46.3379C49.1211-47.8027 46.3867-49.6582 46.3867-50.8301C46.3867-52.6855 51.1719-53.9551 53.5645-53.9551C56.6895-53.9551 60.0098-52.4414 62.1094-49.0234L65.3809-43.5547C71.9238-43.9941 75.3906-38.8672 75.3906-33.6426C75.3906-29.1504 73.1445-27.4902 70.166-27.4902C65.918-27.4902 63.916-29.0527 61.9141-30.3223C61.1816-29.7852 59.9609-29.3945 58.8379-29.0039C57.8613-29.3457 56.8848-29.3945 55.957-29.3945C54.7363-29.3945 53.5645-29.2969 52.4902-29.0527L51.4648-31.25C48.7305-36.8652 43.8965-39.4043 38.5254-39.4043C36.6699-39.4043 35.0098-39.0625 35.0098-37.5488C35.0098-36.6211 35.5957-36.1328 36.6211-36.1328L38.6719-36.1328C42.4316-36.1328 46.4844-34.4727 48.5352-30.2246L50.5859-25.8789C52.2461-26.1719 53.3203-26.8066 56.1035-26.8066C61.1816-26.8066 63.4277-23.9258 63.4277-21.2402C63.4277-19.3359 61.8652-18.3105 59.5215-18.3105C57.8613-18.3105 57.0801-18.8477 54.9316-18.8477C52.7832-18.8477 51.416-18.3105 50.293-18.3105ZM36.4746-16.8457C33.0078-16.8457 30.7617-18.3105 30.7617-20.4102C30.7617-21.7773 31.7871-22.6562 33.5938-22.6562C34.8145-22.6562 36.5723-22.3633 37.3047-22.3633C37.5488-22.3633 37.8418-22.4121 37.9883-22.4121L42.7734-18.3594C41.1621-17.2852 39.209-16.8457 36.4746-16.8457ZM67.8223-33.9355C68.8477-33.9355 69.7266-34.8145 69.7266-35.9375C69.7266-36.9629 68.8965-37.8418 67.8223-37.8418C66.748-37.8418 65.918-36.9141 65.918-35.8398C65.918-34.7656 66.748-33.9355 67.8223-33.9355Z"/>
  </g>
  <g id="Regular-S" transform="matrix(1 0 0 1 1403.58 696)">
   <path class="SFSymbolsPreviewWireframe" d="M46.2402 4.15039C67.7734 4.15039 85.6934-13.7207 85.6934-35.2539C85.6934-56.7871 67.7246-74.6582 46.1914-74.6582C24.707-74.6582 6.83594-56.7871 6.83594-35.2539C6.83594-13.7207 24.7559 4.15039 46.2402 4.15039ZM47.5586-18.2129C46.1426-18.2129 45.2637-18.4082 43.2617-20.166L35.7422-26.5137C35.498-26.5137 35.2051-26.4648 34.9121-26.4648C29.834-26.4648 25.3418-27.9297 22.6074-31.7383C20.3613-31.7383 18.6035-33.1055 18.6035-35.2051C18.6035-37.0605 20.1172-38.3789 22.0703-38.3789C24.5605-45.3125 29.248-48.877 35.3516-48.877C41.2598-48.877 45.6543-45.8008 51.3184-42.5293C53.5156-41.2598 55.0781-40.332 56.5918-40.332C57.5195-40.332 58.1543-40.6738 58.8379-41.2598L48.3398-47.8027C46.0449-49.2188 42.9688-51.3672 42.9688-52.832C42.9688-55.0781 47.0215-56.6406 49.7559-56.6406C52.9785-56.6406 56.25-54.834 59.0332-51.2695L64.0625-44.7266C69.7754-44.6289 73.8281-40.3809 73.8281-34.7168C73.8281-29.7852 71.4844-28.6621 66.3574-28.6621C63.9648-28.6621 61.7676-29.4922 59.7168-30.7617C57.7637-30.1758 56.4941-29.2969 55.3711-28.5156C54.3457-28.6133 53.3203-28.7109 52.2461-28.7109C50.8789-28.7109 49.5117-28.5645 48.291-28.3691L47.0215-31.4453C44.5312-37.3535 40.5273-40.332 35.1562-40.332C33.4473-40.332 31.9336-40.0391 31.9336-38.916C31.9336-38.1348 32.4219-37.8418 33.1543-37.8418L35.3027-37.8418C39.8438-37.8418 42.9688-34.9609 44.873-30.6641L46.8262-26.0742C48.4375-26.4648 49.6582-26.709 52.3926-26.709C58.0078-26.709 61.4258-24.6094 61.4258-21.2891C61.4258-19.2383 60.0098-18.2129 57.3242-18.2129C55.4688-18.2129 54.834-18.7988 52.4414-18.7988C49.9512-18.7988 48.8281-18.2129 47.5586-18.2129ZM34.4238-16.5039C30.5176-16.5039 27.9785-18.1641 27.9785-20.6543C27.9785-22.4121 29.2969-23.4863 31.3477-23.4863C33.0566-23.4863 34.2773-23.1934 35.2539-23.1934C35.6445-23.1934 35.9375-23.291 36.2305-23.291L41.8457-18.5059C40.1367-17.2852 38.0371-16.5039 34.4238-16.5039ZM66.0156-35.4492C66.8457-35.4492 67.5781-36.2793 67.5781-37.1582C67.5781-37.9395 66.8945-38.6719 66.0645-38.6719C65.1855-38.6719 64.4531-37.8906 64.4531-37.0117C64.4531-36.2305 65.1367-35.4492 66.0156-35.4492Z"/>
  </g>
  <g id="Ultralight-S" transform="matrix(1 0 0 1 515.649 696)">
   <path class="SFSymbolsPreviewWireframe" d="M44.0606 1.97072C64.5039 1.97072 81.2886-14.8105 81.2886-35.2539C81.2886-55.6973 64.5005-72.4785 44.0571-72.4785C23.5718-72.4785 6.83594-55.6973 6.83594-35.2539C6.83594-14.8105 23.5752 1.97072 44.0606 1.97072ZM45.4697-18.9394C44.0537-18.9394 42.5845-19.498 40.9912-20.6201L33.6079-26.0142C33.3638-26.0142 33.0708-26.0107 32.8233-26.0107C27.2456-26.0107 22.9805-27.7026 20.4278-31.4204C18-31.5112 16.2876-32.7422 16.2876-34.978C16.2876-36.9243 17.8013-38.1064 19.8452-38.2427C22.3809-44.813 27.023-48.2866 33.2627-48.2866C39.2617-48.2866 43.7017-44.8472 49.3657-41.6665C51.6084-40.3062 52.6714-39.9233 53.9126-39.9233C54.7949-39.9233 55.8384-40.4922 57.5664-42.2134L46.5235-48.4839C44.0469-49.8545 41.2886-51.5488 41.2886-53.0591C41.2886-55.1235 44.9326-56.6406 47.667-56.6406C51.1621-56.6406 54.6607-54.8794 57.1714-51.2241L61.8828-44.3179C66.8238-44.9014 72.0117-40.2446 72.0117-33.8086C72.0117-29.5581 69.8042-28.4351 64.9497-28.4351C62.103-28.4351 59.0884-29.583 56.9922-31.5791C55.357-29.9033 54.0874-28.8428 52.9644-28.0161C51.8482-28.2046 51.2769-28.2114 50.1572-28.2114C48.6992-28.2114 47.2412-28.1558 46.0205-27.7788L44.7056-31.082C42.3516-36.9448 38.4385-39.9233 33.0674-39.9233C31.5855-39.9233 30.0718-39.6304 30.0718-38.689C30.0718-38.0894 30.4238-37.7964 31.1109-37.7964L33.2139-37.7964C37.5279-37.7964 40.8799-35.3242 43.0112-30.4824L44.9644-26.165C46.3941-26.5103 47.6602-26.7544 50.3491-26.7544C55.5557-26.7544 59.6094-24.564 59.6094-21.5161C59.6094-20.0102 58.1026-18.9394 55.2808-18.9394C53.3799-18.9394 52.6543-19.5708 50.3526-19.5708C48.1348-19.5708 46.6939-18.9394 45.4697-18.9394ZM31.1543-18.2749C27.1118-18.2749 25.0723-19.8442 25.0723-22.2436C25.0723-23.6836 25.9365-24.667 27.9873-24.667C29.2422-24.667 31.3257-24.4648 31.939-24.4648C32.375-24.4648 32.668-24.4717 32.961-24.4717L38.9395-19.959C36.8672-18.7837 34.5406-18.2749 31.1543-18.2749ZM64.1538-35.0405C64.8477-35.0405 65.4893-35.7798 65.4893-36.4771C65.4893-37.2129 64.9419-37.7637 64.1572-37.7637C63.5054-37.7637 62.8638-37.1641 62.8638-36.4214C62.8638-35.731 63.4566-35.0405 64.1538-35.0405Z"/>
  </g>
 </g>
</svg>
