<?xml version="1.0" encoding="UTF-8"?>
<!--Generator: Apple Native CoreSVG 232.5-->
<!DOCTYPE svg
PUBLIC "-//W3C//DTD SVG 1.1//EN"
       "http://www.w3.org/Graphics/SVG/1.1/DTD/svg11.dtd">
<svg version="1.1" xmlns="http://www.w3.org/2000/svg" xmlns:xlink="http://www.w3.org/1999/xlink" width="3300" height="2200">
 <!--glyph: "uni101B07.medium", point size: 100.0, font version: "19.2d2e1", template writer version: "128"-->
 <style>.SFSymbolsPreviewWireframe {fill:none;opacity:1.0;stroke:black;stroke-width:0.5}
</style>
 <g id="Notes">
  <rect height="2200" id="artboard" style="fill:white;opacity:1" width="3300" x="0" y="0"/>
  <line style="fill:none;stroke:black;opacity:1;stroke-width:0.5;" x1="263" x2="3036" y1="292" y2="292"/>
  <text style="stroke:none;fill:black;font-family:sans-serif;font-size:13;font-weight:bold;" transform="matrix(1 0 0 1 263 322)">Weight/Scale Variations</text>
  <text style="stroke:none;fill:black;font-family:sans-serif;font-size:13;text-anchor:middle;" transform="matrix(1 0 0 1 559.711 322)">Ultralight</text>
  <text style="stroke:none;fill:black;font-family:sans-serif;font-size:13;text-anchor:middle;" transform="matrix(1 0 0 1 856.422 322)">Thin</text>
  <text style="stroke:none;fill:black;font-family:sans-serif;font-size:13;text-anchor:middle;" transform="matrix(1 0 0 1 1153.13 322)">Light</text>
  <text style="stroke:none;fill:black;font-family:sans-serif;font-size:13;text-anchor:middle;" transform="matrix(1 0 0 1 1449.84 322)">Regular</text>
  <text style="stroke:none;fill:black;font-family:sans-serif;font-size:13;text-anchor:middle;" transform="matrix(1 0 0 1 1746.56 322)">Medium</text>
  <text style="stroke:none;fill:black;font-family:sans-serif;font-size:13;text-anchor:middle;" transform="matrix(1 0 0 1 2043.27 322)">Semibold</text>
  <text style="stroke:none;fill:black;font-family:sans-serif;font-size:13;text-anchor:middle;" transform="matrix(1 0 0 1 2339.98 322)">Bold</text>
  <text style="stroke:none;fill:black;font-family:sans-serif;font-size:13;text-anchor:middle;" transform="matrix(1 0 0 1 2636.69 322)">Heavy</text>
  <text style="stroke:none;fill:black;font-family:sans-serif;font-size:13;text-anchor:middle;" transform="matrix(1 0 0 1 2933.4 322)">Black</text>
  <line style="fill:none;stroke:black;opacity:1;stroke-width:0.5;" x1="263" x2="3036" y1="1903" y2="1903"/>
  <g transform="matrix(0.2 0 0 0.2 263 1933)">
   <path d="m46.2402 4.15039c21.5332 0 39.4531-17.8711 39.4531-39.4043s-17.9688-39.4043-39.502-39.4043c-21.4844 0-39.3555 17.8711-39.3555 39.4043s17.9199 39.4043 39.4043 39.4043Zm0-7.42188c-17.7246 0-31.8848-14.209-31.8848-31.9824s14.1113-31.9824 31.8359-31.9824c17.7734 0 32.0312 14.209 32.0312 31.9824s-14.209 31.9824-31.9824 31.9824Zm-17.9688-31.9824c0 2.14844 1.51367 3.61328 3.75977 3.61328h10.498v10.5957c0 2.19727 1.46484 3.71094 3.61328 3.71094 2.24609 0 3.71094-1.51367 3.71094-3.71094v-10.5957h10.5957c2.19727 0 3.71094-1.46484 3.71094-3.61328 0-2.19727-1.51367-3.71094-3.71094-3.71094h-10.5957v-10.5469c0-2.24609-1.46484-3.75977-3.71094-3.75977-2.14844 0-3.61328 1.51367-3.61328 3.75977v10.5469h-10.498c-2.24609 0-3.75977 1.51367-3.75977 3.71094Z"/>
  </g>
  <g transform="matrix(0.2 0 0 0.2 281.506 1933)">
   <path d="m58.5449 14.5508c27.2461 0 49.8047-22.6074 49.8047-49.8047 0-27.2461-22.6074-49.8047-49.8535-49.8047-27.1973 0-49.7559 22.5586-49.7559 49.8047 0 27.1973 22.6074 49.8047 49.8047 49.8047Zm0-8.30078c-23.0469 0-41.4551-18.457-41.4551-41.5039s18.3594-41.5039 41.4062-41.5039 41.5527 18.457 41.5527 41.5039-18.457 41.5039-41.5039 41.5039Zm-22.6562-41.5039c0 2.39258 1.66016 4.00391 4.15039 4.00391h14.3555v14.4043c0 2.44141 1.66016 4.15039 4.05273 4.15039 2.44141 0 4.15039-1.66016 4.15039-4.15039v-14.4043h14.4043c2.44141 0 4.15039-1.61133 4.15039-4.00391 0-2.44141-1.70898-4.15039-4.15039-4.15039h-14.4043v-14.3555c0-2.49023-1.70898-4.19922-4.15039-4.19922-2.39258 0-4.05273 1.70898-4.05273 4.19922v14.3555h-14.3555c-2.49023 0-4.15039 1.70898-4.15039 4.15039Z"/>
  </g>
  <g transform="matrix(0.2 0 0 0.2 304.924 1933)">
   <path d="m74.8535 28.3203c34.8145 0 63.623-28.8086 63.623-63.5742 0-34.8145-28.8574-63.623-63.6719-63.623-34.7656 0-63.5254 28.8086-63.5254 63.623 0 34.7656 28.8086 63.5742 63.5742 63.5742Zm0-9.08203c-30.1758 0-54.4434-24.3164-54.4434-54.4922 0-30.2246 24.2188-54.4922 54.3945-54.4922 30.2246 0 54.541 24.2676 54.541 54.4922 0 30.1758-24.2676 54.4922-54.4922 54.4922Zm-28.8574-54.4922c0 2.58789 1.85547 4.39453 4.58984 4.39453h19.7266v19.7754c0 2.68555 1.85547 4.58984 4.44336 4.58984 2.68555 0 4.54102-1.85547 4.54102-4.58984v-19.7754h19.7754c2.68555 0 4.58984-1.80664 4.58984-4.39453 0-2.73438-1.85547-4.58984-4.58984-4.58984h-19.7754v-19.7266c0-2.73438-1.85547-4.63867-4.54102-4.63867-2.58789 0-4.44336 1.9043-4.44336 4.63867v19.7266h-19.7266c-2.73438 0-4.58984 1.85547-4.58984 4.58984Z"/>
  </g>
  <text style="stroke:none;fill:black;font-family:sans-serif;font-size:13;font-weight:bold;" transform="matrix(1 0 0 1 263 1953)">Design Variations</text>
  <text style="stroke:none;fill:black;font-family:sans-serif;font-size:13;" transform="matrix(1 0 0 1 263 1971)">Symbols are supported in up to nine weights and three scales.</text>
  <text style="stroke:none;fill:black;font-family:sans-serif;font-size:13;" transform="matrix(1 0 0 1 263 1989)">For optimal layout with text and other symbols, vertically align</text>
  <text style="stroke:none;fill:black;font-family:sans-serif;font-size:13;" transform="matrix(1 0 0 1 263 2007)">symbols with the adjacent text.</text>
  <line style="fill:none;stroke:#00AEEF;stroke-width:0.5;opacity:1.0;" x1="776" x2="776" y1="1919" y2="1933"/>
  <g transform="matrix(0.2 0 0 0.2 776 1933)">
   <path d="m16.5527 0.78125c2.58789 0 3.85742-0.976562 4.78516-3.71094l6.29883-17.2363h28.8086l6.29883 17.2363c0.927734 2.73438 2.19727 3.71094 4.73633 3.71094 2.58789 0 4.24805-1.5625 4.24805-4.00391 0-0.830078-0.146484-1.61133-0.537109-2.63672l-22.9004-60.9863c-1.12305-2.97852-3.125-4.49219-6.25-4.49219-3.02734 0-5.07812 1.46484-6.15234 4.44336l-22.9004 61.084c-0.390625 1.02539-0.537109 1.80664-0.537109 2.63672 0 2.44141 1.5625 3.95508 4.10156 3.95508Zm13.4766-28.3691 11.8652-32.8613h0.244141l11.8652 32.8613Z"/>
  </g>
  <line style="fill:none;stroke:#00AEEF;stroke-width:0.5;opacity:1.0;" x1="792.836" x2="792.836" y1="1919" y2="1933"/>
  <text style="stroke:none;fill:black;font-family:sans-serif;font-size:13;font-weight:bold;" transform="matrix(1 0 0 1 776 1953)">Margins</text>
  <text style="stroke:none;fill:black;font-family:sans-serif;font-size:13;" transform="matrix(1 0 0 1 776 1971)">Leading and trailing margins on the left and right side of each symbol</text>
  <text style="stroke:none;fill:black;font-family:sans-serif;font-size:13;" transform="matrix(1 0 0 1 776 1989)">can be adjusted by modifying the x-location of the margin guidelines.</text>
  <text style="stroke:none;fill:black;font-family:sans-serif;font-size:13;" transform="matrix(1 0 0 1 776 2007)">Modifications are automatically applied proportionally to all</text>
  <text style="stroke:none;fill:black;font-family:sans-serif;font-size:13;" transform="matrix(1 0 0 1 776 2025)">scales and weights.</text>
  <g transform="matrix(0.2 0 0 0.2 1289 1933)">
   <path d="m14.209 9.32617 8.49609 8.54492c4.29688 4.3457 9.22852 4.05273 13.8672-1.07422l53.4668-58.9355-4.83398-4.88281-53.0762 58.3984c-1.75781 2.00195-3.41797 2.49023-5.76172 0.146484l-5.85938-5.81055c-2.34375-2.29492-1.80664-4.00391 0.195312-5.81055l57.373-54.0039-4.88281-4.83398-57.959 54.4434c-4.93164 4.58984-5.32227 9.47266-1.02539 13.8184Zm32.0801-90.9668c-2.09961 2.05078-2.24609 4.93164-1.07422 6.88477 1.17188 1.80664 3.4668 2.97852 6.68945 2.14844 7.32422-1.70898 14.9414-2.00195 22.0703 2.68555l-2.92969 7.27539c-1.70898 4.15039-0.830078 7.08008 1.85547 9.81445l11.4746 11.5723c2.44141 2.44141 4.49219 2.53906 7.32422 2.05078l5.32227-0.976562 3.32031 3.36914-0.195312 2.7832c-0.195312 2.49023 0.439453 4.39453 2.88086 6.78711l3.80859 3.71094c2.39258 2.39258 5.46875 2.53906 7.8125 0.195312l14.5508-14.5996c2.34375-2.34375 2.24609-5.32227-0.146484-7.71484l-3.85742-3.80859c-2.39258-2.39258-4.24805-3.17383-6.64062-2.97852l-2.88086 0.244141-3.22266-3.17383 1.2207-5.61523c0.634766-2.83203-0.146484-5.0293-3.07617-7.95898l-10.9863-10.9375c-16.6992-16.6016-38.8672-16.2109-53.3203-1.75781Zm7.4707 1.85547c12.1582-8.88672 28.6133-7.37305 39.7461 3.75977l12.1582 12.0605c1.17188 1.17188 1.36719 2.09961 1.02539 3.80859l-1.61133 7.42188 7.51953 7.42188 4.93164-0.292969c1.26953-0.0488281 1.66016 0.0488281 2.63672 1.02539l2.88086 2.88086-12.207 12.207-2.88086-2.88086c-0.976562-0.976562-1.12305-1.36719-1.07422-2.68555l0.341797-4.88281-7.4707-7.42188-7.61719 1.26953c-1.61133 0.341797-2.34375 0.195312-3.56445-0.976562l-10.0098-10.0098c-1.26953-1.17188-1.41602-2.00195-0.634766-3.85742l4.39453-10.4492c-7.8125-7.27539-17.9688-10.4004-28.125-7.42188-0.78125 0.195312-1.07422-0.439453-0.439453-0.976562Z"/>
  </g>
  <text style="stroke:none;fill:black;font-family:sans-serif;font-size:13;font-weight:bold;" transform="matrix(1 0 0 1 1289 1953)">Exporting</text>
  <text style="stroke:none;fill:black;font-family:sans-serif;font-size:13;" transform="matrix(1 0 0 1 1289 1971)">Symbols should be outlined when exporting to ensure the</text>
  <text style="stroke:none;fill:black;font-family:sans-serif;font-size:13;" transform="matrix(1 0 0 1 1289 1989)">design is preserved when submitting to Xcode.</text>
  <text id="template-version" style="stroke:none;fill:black;font-family:sans-serif;font-size:13;text-anchor:end;" transform="matrix(1 0 0 1 3036 1933)">Template v.5.0</text>
  <text style="stroke:none;fill:black;font-family:sans-serif;font-size:13;text-anchor:end;" transform="matrix(1 0 0 1 3036 1951)">Requires Xcode 15 or greater</text>
  <text id="descriptive-name" style="stroke:none;fill:black;font-family:sans-serif;font-size:13;text-anchor:end;" transform="matrix(1 0 0 1 3036 1969)">Generated from humidity</text>
  <text style="stroke:none;fill:black;font-family:sans-serif;font-size:13;text-anchor:end;" transform="matrix(1 0 0 1 3036 1987)">Typeset at 100.0 points</text>
  <text style="stroke:none;fill:black;font-family:sans-serif;font-size:13;" transform="matrix(1 0 0 1 263 726)">Small</text>
  <text style="stroke:none;fill:black;font-family:sans-serif;font-size:13;" transform="matrix(1 0 0 1 263 1156)">Medium</text>
  <text style="stroke:none;fill:black;font-family:sans-serif;font-size:13;" transform="matrix(1 0 0 1 263 1586)">Large</text>
 </g>
 <g id="Guides">
  <g id="H-reference" style="fill:#27AAE1;stroke:none;" transform="matrix(1 0 0 1 339 696)">
   <path d="M0.993654 0L3.63775 0L29.3281-67.1323L30.0303-67.1323L30.0303-70.459L28.1226-70.459ZM11.6885-24.4799L46.9815-24.4799L46.2315-26.7285L12.4385-26.7285ZM55.1196 0L57.7637 0L30.6382-70.459L29.4326-70.459L29.4326-67.1323Z"/>
  </g>
  <line id="Baseline-S" style="fill:none;stroke:#27AAE1;opacity:1;stroke-width:0.5;" x1="263" x2="3036" y1="696" y2="696"/>
  <line id="Capline-S" style="fill:none;stroke:#27AAE1;opacity:1;stroke-width:0.5;" x1="263" x2="3036" y1="625.541" y2="625.541"/>
  <g id="H-reference" style="fill:#27AAE1;stroke:none;" transform="matrix(1 0 0 1 339 1126)">
   <path d="M0.993654 0L3.63775 0L29.3281-67.1323L30.0303-67.1323L30.0303-70.459L28.1226-70.459ZM11.6885-24.4799L46.9815-24.4799L46.2315-26.7285L12.4385-26.7285ZM55.1196 0L57.7637 0L30.6382-70.459L29.4326-70.459L29.4326-67.1323Z"/>
  </g>
  <line id="Baseline-M" style="fill:none;stroke:#27AAE1;opacity:1;stroke-width:0.5;" x1="263" x2="3036" y1="1126" y2="1126"/>
  <line id="Capline-M" style="fill:none;stroke:#27AAE1;opacity:1;stroke-width:0.5;" x1="263" x2="3036" y1="1055.54" y2="1055.54"/>
  <g id="H-reference" style="fill:#27AAE1;stroke:none;" transform="matrix(1 0 0 1 339 1556)">
   <path d="M0.993654 0L3.63775 0L29.3281-67.1323L30.0303-67.1323L30.0303-70.459L28.1226-70.459ZM11.6885-24.4799L46.9815-24.4799L46.2315-26.7285L12.4385-26.7285ZM55.1196 0L57.7637 0L30.6382-70.459L29.4326-70.459L29.4326-67.1323Z"/>
  </g>
  <line id="Baseline-L" style="fill:none;stroke:#27AAE1;opacity:1;stroke-width:0.5;" x1="263" x2="3036" y1="1556" y2="1556"/>
  <line id="Capline-L" style="fill:none;stroke:#27AAE1;opacity:1;stroke-width:0.5;" x1="263" x2="3036" y1="1485.54" y2="1485.54"/>
  <line id="left-margin-Ultralight-S" style="fill:none;stroke:#00AEEF;stroke-width:0.5;opacity:1.0;" x1="509.968" x2="509.968" y1="600.785" y2="720.121"/>
  <line id="right-margin-Ultralight-S" style="fill:none;stroke:#00AEEF;stroke-width:0.5;opacity:1.0;" x1="609.454" x2="609.454" y1="600.785" y2="720.121"/>
  <line id="left-margin-Regular-S" style="fill:none;stroke:#00AEEF;stroke-width:0.5;opacity:1.0;" x1="1398.65" x2="1398.65" y1="600.785" y2="720.121"/>
  <line id="right-margin-Regular-S" style="fill:none;stroke:#00AEEF;stroke-width:0.5;opacity:1.0;" x1="1501.04" x2="1501.04" y1="600.785" y2="720.121"/>
  <line id="left-margin-Black-S" style="fill:none;stroke:#00AEEF;stroke-width:0.5;opacity:1.0;" x1="2884.43" x2="2884.43" y1="600.785" y2="720.121"/>
  <line id="right-margin-Black-S" style="fill:none;stroke:#FF3B30;stroke-width:0.5;opacity:1.0;" x1="2982.37" x2="2982.37" y1="600.785" y2="720.121"/>
 </g>
 <g id="Symbols">
  <g id="Black-S" transform="matrix(1 0 0 1 2884.43 696)">
   <path class="SFSymbolsPreviewWireframe" d="M78.0762 11.1816C91.8945 11.1816 103.027 0.292969 103.027-13.3789C103.027-20.5078 99.707-27.0508 97.5098-31.1523L88.9648-47.0215C86.7676-51.1719 82.7637-53.6133 78.0762-53.6133C73.4375-53.6133 69.4336-51.1719 67.2363-47.0703L58.7402-31.2012C56.4941-27.0508 53.125-20.5566 53.125-13.3789C53.125 0.292969 64.3066 11.1816 78.0762 11.1816ZM78.0762 4.83398C88.4277 4.83398 96.6797-3.27148 96.6797-13.3789C96.6797-18.8965 93.9941-24.2188 91.8945-28.1738L83.3496-44.043C82.2266-46.1426 80.3711-47.2656 78.0762-47.2656C75.7812-47.2656 73.9258-46.0938 72.8027-44.043L64.3066-28.1738C62.1582-24.2188 59.4727-18.8965 59.4727-13.3789C59.4727-3.27148 67.7734 4.83398 78.0762 4.83398ZM78.0762-6.78711C73.0957-6.78711 69.1406-10.5957 69.1406-15.332C69.1406-18.5547 70.8008-21.6309 72.9004-25.5859L77.6855-34.5215C77.8809-34.9121 78.3203-34.9121 78.5156-34.5215L83.252-25.5859C85.3516-21.6309 87.0117-18.5547 87.0117-15.332C87.0117-10.5957 83.1055-6.78711 78.0762-6.78711ZM27.7344-42.8223C46.2891-42.8223 55.1758-57.2754 70.2148-57.2754C73.6816-57.2754 76.4648-56.4941 79.8828-54.4922C82.4707-53.0762 85.4492-53.7109 87.1582-56.1035C89.1602-58.9844 88.1836-62.6465 84.9609-64.5508C80.4199-67.1387 75.4395-68.5059 70.2148-68.5059C51.6602-68.5059 42.7734-54.0527 27.7344-54.0527C24.2676-54.0527 21.4844-54.834 18.0664-56.8359C15.4297-58.3008 12.4023-57.5684 10.791-55.127C8.83789-52.2461 9.81445-48.6328 12.9883-46.7773C17.5293-44.1895 22.5098-42.8223 27.7344-42.8223ZM27.7344-22.3145C46.2891-22.3145 55.1758-36.7676 70.2148-36.7676C73.6816-36.7676 76.4648-35.9863 79.8828-33.9844C82.4707-32.5684 85.4492-33.2031 87.1582-35.5957C89.1602-38.4766 88.1836-42.1387 84.9609-44.043C80.4199-46.6309 75.4395-47.998 70.2148-47.998C51.6602-47.998 42.7734-33.5449 27.7344-33.5449C24.2676-33.5449 21.4844-34.3262 18.0664-36.3281C15.4297-37.793 12.4023-37.0605 10.791-34.6191C8.83789-31.7383 9.81445-28.125 12.9883-26.2695C17.5293-23.6816 22.5098-22.3145 27.7344-22.3145ZM27.7344-1.80664C46.2891-1.80664 55.1758-16.2598 70.2148-16.2598C73.6816-16.2598 76.4648-15.4785 79.8828-13.4766C82.4707-12.0605 85.4492-12.6953 87.1582-15.0879C89.1602-17.9688 88.1836-21.6309 84.9609-23.5352C80.4199-26.123 75.4395-27.4902 70.2148-27.4902C51.6602-27.4902 42.7734-13.0371 27.7344-13.0371C24.2676-13.0371 21.4844-13.8184 18.0664-15.8203C15.4297-17.2852 12.4023-16.5527 10.791-14.1113C8.83789-11.2305 9.81445-7.61719 12.9883-5.76172C17.5293-3.17383 22.5098-1.80664 27.7344-1.80664Z"/>
  </g>
  <g id="Regular-S" transform="matrix(1 0 0 1 1398.65 696)">
   <path class="SFSymbolsPreviewWireframe" d="M75.9277 6.54297C88.2812 6.54297 98.291-3.22266 98.291-15.4297C98.291-21.875 95.2148-27.832 93.1152-31.8848L84.7168-47.5098C82.8125-51.0254 80.0781-53.1738 75.9277-53.1738C71.8262-53.1738 69.0918-51.0254 67.1875-47.5098L58.8379-31.8359C56.7383-27.832 53.6133-21.875 53.6133-15.4297C53.6133-3.22266 63.623 6.54297 75.9277 6.54297ZM75.9277 0.830078C85.2051 0.830078 92.627-6.44531 92.627-15.4297C92.627-20.4102 90.1367-25.293 88.0371-29.1992L79.6387-44.7754C78.6621-46.6309 77.7832-47.4609 75.9277-47.4609C74.0723-47.4609 73.1934-46.6309 72.2168-44.7754L63.8672-29.1992C61.8164-25.293 59.3262-20.4102 59.3262-15.4297C59.3262-6.44531 66.748 0.830078 75.9277 0.830078ZM75.9277-4.88281C69.873-4.88281 65.0391-9.52148 65.0391-15.4297C65.0391-19.0918 66.8945-22.6074 68.9453-26.5137L75.6348-38.916C75.8301-39.2578 76.123-39.2578 76.3184-38.916L82.9102-26.5137C84.9609-22.6074 86.9141-19.0918 86.9141-15.4297C86.9141-9.52148 82.0312-4.88281 75.9277-4.88281ZM25.6348-45.0195C42.9688-45.0195 52.002-59.4727 68.0664-59.4727C71.6309-59.4727 74.9023-58.6914 78.8086-56.4453C80.6152-55.3711 82.373-56.1035 83.3008-57.4219C84.375-58.9355 84.2773-61.3281 81.7871-62.793C77.4902-65.2832 72.9492-66.5039 68.0664-66.5039C50.6348-66.5039 41.6504-52.0508 25.6348-52.0508C22.0703-52.0508 18.7988-52.832 14.8926-55.0781C13.0859-56.1523 11.2793-55.4199 10.4004-54.0527C9.375-52.4902 9.47266-50.0977 11.8652-48.7305C16.1621-46.2402 20.752-45.0195 25.6348-45.0195ZM25.6836-24.5117C43.0176-24.5117 52.0508-38.9648 68.1152-38.9648C71.6797-38.9648 74.9512-38.1836 78.8574-35.9375C80.6641-34.8633 82.4219-35.5957 83.3496-36.9141C84.4238-38.4277 84.3262-40.8203 81.8359-42.2852C77.5391-44.7754 72.998-45.9961 68.1152-45.9961C50.6836-45.9961 41.6992-31.543 25.6836-31.543C22.1191-31.543 18.8477-32.3242 14.9414-34.5703C13.0859-35.6445 11.3281-34.9121 10.4492-33.5449C9.42383-31.9824 9.47266-29.5898 11.9141-28.2227C16.2109-25.7324 20.8008-24.5117 25.6836-24.5117ZM25.6348-4.00391C42.9688-4.00391 52.002-18.457 68.0664-18.457C71.6309-18.457 74.9023-17.6758 78.8086-15.4297C80.6152-14.3555 82.373-15.0879 83.3008-16.4062C84.375-17.9199 84.2773-20.3125 81.7871-21.7773C77.4902-24.2676 72.9492-25.4883 68.0664-25.4883C50.6348-25.4883 41.6504-11.0352 25.6348-11.0352C22.0703-11.0352 18.7988-11.8164 14.8926-14.0625C13.0859-15.1367 11.2793-14.4043 10.4004-13.0371C9.375-11.4746 9.47266-9.08203 11.8652-7.71484C16.1621-5.22461 20.752-4.00391 25.6348-4.00391Z"/>
  </g>
  <g id="Ultralight-S" transform="matrix(1 0 0 1 509.968 696)">
   <path class="SFSymbolsPreviewWireframe" d="M73.6118 3.9092C84.2398 3.9092 92.751-4.40331 92.751-14.8848C92.751-20.5581 90.0381-26.1065 87.6661-30.3862L78.5865-47.3735C77.4996-49.436 75.7642-50.4947 73.6118-50.4947C71.4629-50.4947 69.7275-49.436 68.6406-47.4644L59.519-30.3828C57.1924-26.1065 54.4307-20.5581 54.4307-14.8848C54.4307-4.40331 62.9873 3.9092 73.6118 3.9092ZM73.6118 0.830078C82.5713 0.830078 89.7207-6.12744 89.7207-14.8848C89.7207-19.8198 87.2759-24.7481 84.9947-28.9722L75.8697-45.956C75.3018-46.9941 74.6045-47.4155 73.6118-47.4155C72.5737-47.4155 71.8765-46.9941 71.354-46.0015L62.2324-28.9722C59.9546-24.7481 57.5098-19.8198 57.5098-14.8848C57.5098-6.12744 64.6592 0.830078 73.6118 0.830078ZM73.6118-1.29544C65.8316-1.29544 59.6353-7.2964 59.6353-14.8848C59.6353-19.3188 61.8995-23.7881 64.1319-27.9668L73.0918-44.6831C73.3325-45.1611 73.898-45.1611 74.1387-44.6831L83.0918-27.9668C85.3242-23.7881 87.5498-19.3188 87.5498-14.8848C87.5498-7.2964 81.3955-1.29544 73.6118-1.29544ZM23.7276-47.3808C39.336-47.3808 49.4136-61.834 65.251-61.834C69.9053-61.834 73.6309-60.7803 77.4917-58.5796C78.1631-58.1865 78.7403-58.4194 79.0323-58.875C79.3345-59.3442 79.2823-60.0567 78.6538-60.4317C74.2661-62.9673 70.2246-64.0518 65.251-64.0518C48.2735-64.0518 38.5625-49.5987 23.7276-49.5987C19.0733-49.5987 15.3477-50.6524 11.4868-52.853C10.8154-53.2461 10.2349-53.0132 9.94629-52.5542C9.64746-52.0815 9.69971-51.3691 10.3213-51.001C14.709-48.4653 18.7539-47.3808 23.7276-47.3808ZM23.731-26.873C39.3394-26.873 49.417-41.3262 65.2544-41.3262C69.9087-41.3262 73.6343-40.2724 77.4951-38.0718C78.1665-37.6787 78.7437-37.9116 79.0357-38.3672C79.3379-38.8364 79.2857-39.5488 78.6573-39.9238C74.2696-42.4595 70.228-43.544 65.2544-43.544C48.2315-43.544 38.5659-29.0908 23.731-29.0908C19.0767-29.0908 15.3511-30.1445 11.4903-32.3452C10.8154-32.7383 10.2383-32.5054 9.94971-32.0464C9.65088-31.5737 9.69971-30.8613 10.3247-30.4931C14.7124-27.9575 18.7573-26.873 23.731-26.873ZM23.7276-6.36522C39.336-6.36522 49.4136-20.8183 65.251-20.8183C69.9053-20.8183 73.6309-19.7646 77.4917-17.5639C78.1631-17.1709 78.7403-17.4038 79.0323-17.8594C79.3345-18.3286 79.2823-19.041 78.6538-19.416C74.2661-21.9517 70.2246-23.0362 65.251-23.0362C48.2735-23.0362 38.5625-8.58303 23.7276-8.58303C19.0733-8.58303 15.3477-9.63674 11.4868-11.8374C10.8154-12.2305 10.2349-11.9976 9.94629-11.5386C9.64746-11.0659 9.69971-10.3535 10.3213-9.98533C14.709-7.44969 18.7539-6.36522 23.7276-6.36522Z"/>
  </g>
 </g>
</svg>
