<?xml version="1.0" encoding="UTF-8"?>
<!--Generator: Apple Native CoreSVG 232.5-->
<!DOCTYPE svg
PUBLIC "-//W3C//DTD SVG 1.1//EN"
       "http://www.w3.org/Graphics/SVG/1.1/DTD/svg11.dtd">
<svg version="1.1" xmlns="http://www.w3.org/2000/svg" xmlns:xlink="http://www.w3.org/1999/xlink" width="3300" height="2200">
 <!--glyph: "uni100E91.medium", point size: 100.0, font version: "19.2d2e1", template writer version: "128"-->
 <style>.SFSymbolsPreviewWireframe {fill:none;opacity:1.0;stroke:black;stroke-width:0.5}
</style>
 <g id="Notes">
  <rect height="2200" id="artboard" style="fill:white;opacity:1" width="3300" x="0" y="0"/>
  <line style="fill:none;stroke:black;opacity:1;stroke-width:0.5;" x1="263" x2="3036" y1="292" y2="292"/>
  <text style="stroke:none;fill:black;font-family:sans-serif;font-size:13;font-weight:bold;" transform="matrix(1 0 0 1 263 322)">Weight/Scale Variations</text>
  <text style="stroke:none;fill:black;font-family:sans-serif;font-size:13;text-anchor:middle;" transform="matrix(1 0 0 1 559.711 322)">Ultralight</text>
  <text style="stroke:none;fill:black;font-family:sans-serif;font-size:13;text-anchor:middle;" transform="matrix(1 0 0 1 856.422 322)">Thin</text>
  <text style="stroke:none;fill:black;font-family:sans-serif;font-size:13;text-anchor:middle;" transform="matrix(1 0 0 1 1153.13 322)">Light</text>
  <text style="stroke:none;fill:black;font-family:sans-serif;font-size:13;text-anchor:middle;" transform="matrix(1 0 0 1 1449.84 322)">Regular</text>
  <text style="stroke:none;fill:black;font-family:sans-serif;font-size:13;text-anchor:middle;" transform="matrix(1 0 0 1 1746.56 322)">Medium</text>
  <text style="stroke:none;fill:black;font-family:sans-serif;font-size:13;text-anchor:middle;" transform="matrix(1 0 0 1 2043.27 322)">Semibold</text>
  <text style="stroke:none;fill:black;font-family:sans-serif;font-size:13;text-anchor:middle;" transform="matrix(1 0 0 1 2339.98 322)">Bold</text>
  <text style="stroke:none;fill:black;font-family:sans-serif;font-size:13;text-anchor:middle;" transform="matrix(1 0 0 1 2636.69 322)">Heavy</text>
  <text style="stroke:none;fill:black;font-family:sans-serif;font-size:13;text-anchor:middle;" transform="matrix(1 0 0 1 2933.4 322)">Black</text>
  <line style="fill:none;stroke:black;opacity:1;stroke-width:0.5;" x1="263" x2="3036" y1="1903" y2="1903"/>
  <g transform="matrix(0.2 0 0 0.2 263 1933)">
   <path d="m46.2402 4.15039c21.5332 0 39.4531-17.8711 39.4531-39.4043s-17.9688-39.4043-39.502-39.4043c-21.4844 0-39.3555 17.8711-39.3555 39.4043s17.9199 39.4043 39.4043 39.4043Zm0-7.42188c-17.7246 0-31.8848-14.209-31.8848-31.9824s14.1113-31.9824 31.8359-31.9824c17.7734 0 32.0312 14.209 32.0312 31.9824s-14.209 31.9824-31.9824 31.9824Zm-17.9688-31.9824c0 2.14844 1.51367 3.61328 3.75977 3.61328h10.498v10.5957c0 2.19727 1.46484 3.71094 3.61328 3.71094 2.24609 0 3.71094-1.51367 3.71094-3.71094v-10.5957h10.5957c2.19727 0 3.71094-1.46484 3.71094-3.61328 0-2.19727-1.51367-3.71094-3.71094-3.71094h-10.5957v-10.5469c0-2.24609-1.46484-3.75977-3.71094-3.75977-2.14844 0-3.61328 1.51367-3.61328 3.75977v10.5469h-10.498c-2.24609 0-3.75977 1.51367-3.75977 3.71094Z"/>
  </g>
  <g transform="matrix(0.2 0 0 0.2 281.506 1933)">
   <path d="m58.5449 14.5508c27.2461 0 49.8047-22.6074 49.8047-49.8047 0-27.2461-22.6074-49.8047-49.8535-49.8047-27.1973 0-49.7559 22.5586-49.7559 49.8047 0 27.1973 22.6074 49.8047 49.8047 49.8047Zm0-8.30078c-23.0469 0-41.4551-18.457-41.4551-41.5039s18.3594-41.5039 41.4062-41.5039 41.5527 18.457 41.5527 41.5039-18.457 41.5039-41.5039 41.5039Zm-22.6562-41.5039c0 2.39258 1.66016 4.00391 4.15039 4.00391h14.3555v14.4043c0 2.44141 1.66016 4.15039 4.05273 4.15039 2.44141 0 4.15039-1.66016 4.15039-4.15039v-14.4043h14.4043c2.44141 0 4.15039-1.61133 4.15039-4.00391 0-2.44141-1.70898-4.15039-4.15039-4.15039h-14.4043v-14.3555c0-2.49023-1.70898-4.19922-4.15039-4.19922-2.39258 0-4.05273 1.70898-4.05273 4.19922v14.3555h-14.3555c-2.49023 0-4.15039 1.70898-4.15039 4.15039Z"/>
  </g>
  <g transform="matrix(0.2 0 0 0.2 304.924 1933)">
   <path d="m74.8535 28.3203c34.8145 0 63.623-28.8086 63.623-63.5742 0-34.8145-28.8574-63.623-63.6719-63.623-34.7656 0-63.5254 28.8086-63.5254 63.623 0 34.7656 28.8086 63.5742 63.5742 63.5742Zm0-9.08203c-30.1758 0-54.4434-24.3164-54.4434-54.4922 0-30.2246 24.2188-54.4922 54.3945-54.4922 30.2246 0 54.541 24.2676 54.541 54.4922 0 30.1758-24.2676 54.4922-54.4922 54.4922Zm-28.8574-54.4922c0 2.58789 1.85547 4.39453 4.58984 4.39453h19.7266v19.7754c0 2.68555 1.85547 4.58984 4.44336 4.58984 2.68555 0 4.54102-1.85547 4.54102-4.58984v-19.7754h19.7754c2.68555 0 4.58984-1.80664 4.58984-4.39453 0-2.73438-1.85547-4.58984-4.58984-4.58984h-19.7754v-19.7266c0-2.73438-1.85547-4.63867-4.54102-4.63867-2.58789 0-4.44336 1.9043-4.44336 4.63867v19.7266h-19.7266c-2.73438 0-4.58984 1.85547-4.58984 4.58984Z"/>
  </g>
  <text style="stroke:none;fill:black;font-family:sans-serif;font-size:13;font-weight:bold;" transform="matrix(1 0 0 1 263 1953)">Design Variations</text>
  <text style="stroke:none;fill:black;font-family:sans-serif;font-size:13;" transform="matrix(1 0 0 1 263 1971)">Symbols are supported in up to nine weights and three scales.</text>
  <text style="stroke:none;fill:black;font-family:sans-serif;font-size:13;" transform="matrix(1 0 0 1 263 1989)">For optimal layout with text and other symbols, vertically align</text>
  <text style="stroke:none;fill:black;font-family:sans-serif;font-size:13;" transform="matrix(1 0 0 1 263 2007)">symbols with the adjacent text.</text>
  <line style="fill:none;stroke:#00AEEF;stroke-width:0.5;opacity:1.0;" x1="776" x2="776" y1="1919" y2="1933"/>
  <g transform="matrix(0.2 0 0 0.2 776 1933)">
   <path d="m16.5527 0.78125c2.58789 0 3.85742-0.976562 4.78516-3.71094l6.29883-17.2363h28.8086l6.29883 17.2363c0.927734 2.73438 2.19727 3.71094 4.73633 3.71094 2.58789 0 4.24805-1.5625 4.24805-4.00391 0-0.830078-0.146484-1.61133-0.537109-2.63672l-22.9004-60.9863c-1.12305-2.97852-3.125-4.49219-6.25-4.49219-3.02734 0-5.07812 1.46484-6.15234 4.44336l-22.9004 61.084c-0.390625 1.02539-0.537109 1.80664-0.537109 2.63672 0 2.44141 1.5625 3.95508 4.10156 3.95508Zm13.4766-28.3691 11.8652-32.8613h0.244141l11.8652 32.8613Z"/>
  </g>
  <line style="fill:none;stroke:#00AEEF;stroke-width:0.5;opacity:1.0;" x1="792.836" x2="792.836" y1="1919" y2="1933"/>
  <text style="stroke:none;fill:black;font-family:sans-serif;font-size:13;font-weight:bold;" transform="matrix(1 0 0 1 776 1953)">Margins</text>
  <text style="stroke:none;fill:black;font-family:sans-serif;font-size:13;" transform="matrix(1 0 0 1 776 1971)">Leading and trailing margins on the left and right side of each symbol</text>
  <text style="stroke:none;fill:black;font-family:sans-serif;font-size:13;" transform="matrix(1 0 0 1 776 1989)">can be adjusted by modifying the x-location of the margin guidelines.</text>
  <text style="stroke:none;fill:black;font-family:sans-serif;font-size:13;" transform="matrix(1 0 0 1 776 2007)">Modifications are automatically applied proportionally to all</text>
  <text style="stroke:none;fill:black;font-family:sans-serif;font-size:13;" transform="matrix(1 0 0 1 776 2025)">scales and weights.</text>
  <g transform="matrix(0.2 0 0 0.2 1289 1933)">
   <path d="m14.209 9.32617 8.49609 8.54492c4.29688 4.3457 9.22852 4.05273 13.8672-1.07422l53.4668-58.9355-4.83398-4.88281-53.0762 58.3984c-1.75781 2.00195-3.41797 2.49023-5.76172 0.146484l-5.85938-5.81055c-2.34375-2.29492-1.80664-4.00391 0.195312-5.81055l57.373-54.0039-4.88281-4.83398-57.959 54.4434c-4.93164 4.58984-5.32227 9.47266-1.02539 13.8184Zm32.0801-90.9668c-2.09961 2.05078-2.24609 4.93164-1.07422 6.88477 1.17188 1.80664 3.4668 2.97852 6.68945 2.14844 7.32422-1.70898 14.9414-2.00195 22.0703 2.68555l-2.92969 7.27539c-1.70898 4.15039-0.830078 7.08008 1.85547 9.81445l11.4746 11.5723c2.44141 2.44141 4.49219 2.53906 7.32422 2.05078l5.32227-0.976562 3.32031 3.36914-0.195312 2.7832c-0.195312 2.49023 0.439453 4.39453 2.88086 6.78711l3.80859 3.71094c2.39258 2.39258 5.46875 2.53906 7.8125 0.195312l14.5508-14.5996c2.34375-2.34375 2.24609-5.32227-0.146484-7.71484l-3.85742-3.80859c-2.39258-2.39258-4.24805-3.17383-6.64062-2.97852l-2.88086 0.244141-3.22266-3.17383 1.2207-5.61523c0.634766-2.83203-0.146484-5.0293-3.07617-7.95898l-10.9863-10.9375c-16.6992-16.6016-38.8672-16.2109-53.3203-1.75781Zm7.4707 1.85547c12.1582-8.88672 28.6133-7.37305 39.7461 3.75977l12.1582 12.0605c1.17188 1.17188 1.36719 2.09961 1.02539 3.80859l-1.61133 7.42188 7.51953 7.42188 4.93164-0.292969c1.26953-0.0488281 1.66016 0.0488281 2.63672 1.02539l2.88086 2.88086-12.207 12.207-2.88086-2.88086c-0.976562-0.976562-1.12305-1.36719-1.07422-2.68555l0.341797-4.88281-7.4707-7.42188-7.61719 1.26953c-1.61133 0.341797-2.34375 0.195312-3.56445-0.976562l-10.0098-10.0098c-1.26953-1.17188-1.41602-2.00195-0.634766-3.85742l4.39453-10.4492c-7.8125-7.27539-17.9688-10.4004-28.125-7.42188-0.78125 0.195312-1.07422-0.439453-0.439453-0.976562Z"/>
  </g>
  <text style="stroke:none;fill:black;font-family:sans-serif;font-size:13;font-weight:bold;" transform="matrix(1 0 0 1 1289 1953)">Exporting</text>
  <text style="stroke:none;fill:black;font-family:sans-serif;font-size:13;" transform="matrix(1 0 0 1 1289 1971)">Symbols should be outlined when exporting to ensure the</text>
  <text style="stroke:none;fill:black;font-family:sans-serif;font-size:13;" transform="matrix(1 0 0 1 1289 1989)">design is preserved when submitting to Xcode.</text>
  <text id="template-version" style="stroke:none;fill:black;font-family:sans-serif;font-size:13;text-anchor:end;" transform="matrix(1 0 0 1 3036 1933)">Template v.5.0</text>
  <text style="stroke:none;fill:black;font-family:sans-serif;font-size:13;text-anchor:end;" transform="matrix(1 0 0 1 3036 1951)">Requires Xcode 15 or greater</text>
  <text id="descriptive-name" style="stroke:none;fill:black;font-family:sans-serif;font-size:13;text-anchor:end;" transform="matrix(1 0 0 1 3036 1969)">Generated from keyboard.fill</text>
  <text style="stroke:none;fill:black;font-family:sans-serif;font-size:13;text-anchor:end;" transform="matrix(1 0 0 1 3036 1987)">Typeset at 100.0 points</text>
  <text style="stroke:none;fill:black;font-family:sans-serif;font-size:13;" transform="matrix(1 0 0 1 263 726)">Small</text>
  <text style="stroke:none;fill:black;font-family:sans-serif;font-size:13;" transform="matrix(1 0 0 1 263 1156)">Medium</text>
  <text style="stroke:none;fill:black;font-family:sans-serif;font-size:13;" transform="matrix(1 0 0 1 263 1586)">Large</text>
 </g>
 <g id="Guides">
  <g id="H-reference" style="fill:#27AAE1;stroke:none;" transform="matrix(1 0 0 1 339 696)">
   <path d="M0.993654 0L3.63775 0L29.3281-67.1323L30.0303-67.1323L30.0303-70.459L28.1226-70.459ZM11.6885-24.4799L46.9815-24.4799L46.2315-26.7285L12.4385-26.7285ZM55.1196 0L57.7637 0L30.6382-70.459L29.4326-70.459L29.4326-67.1323Z"/>
  </g>
  <line id="Baseline-S" style="fill:none;stroke:#27AAE1;opacity:1;stroke-width:0.5;" x1="263" x2="3036" y1="696" y2="696"/>
  <line id="Capline-S" style="fill:none;stroke:#27AAE1;opacity:1;stroke-width:0.5;" x1="263" x2="3036" y1="625.541" y2="625.541"/>
  <g id="H-reference" style="fill:#27AAE1;stroke:none;" transform="matrix(1 0 0 1 339 1126)">
   <path d="M0.993654 0L3.63775 0L29.3281-67.1323L30.0303-67.1323L30.0303-70.459L28.1226-70.459ZM11.6885-24.4799L46.9815-24.4799L46.2315-26.7285L12.4385-26.7285ZM55.1196 0L57.7637 0L30.6382-70.459L29.4326-70.459L29.4326-67.1323Z"/>
  </g>
  <line id="Baseline-M" style="fill:none;stroke:#27AAE1;opacity:1;stroke-width:0.5;" x1="263" x2="3036" y1="1126" y2="1126"/>
  <line id="Capline-M" style="fill:none;stroke:#27AAE1;opacity:1;stroke-width:0.5;" x1="263" x2="3036" y1="1055.54" y2="1055.54"/>
  <g id="H-reference" style="fill:#27AAE1;stroke:none;" transform="matrix(1 0 0 1 339 1556)">
   <path d="M0.993654 0L3.63775 0L29.3281-67.1323L30.0303-67.1323L30.0303-70.459L28.1226-70.459ZM11.6885-24.4799L46.9815-24.4799L46.2315-26.7285L12.4385-26.7285ZM55.1196 0L57.7637 0L30.6382-70.459L29.4326-70.459L29.4326-67.1323Z"/>
  </g>
  <line id="Baseline-L" style="fill:none;stroke:#27AAE1;opacity:1;stroke-width:0.5;" x1="263" x2="3036" y1="1556" y2="1556"/>
  <line id="Capline-L" style="fill:none;stroke:#27AAE1;opacity:1;stroke-width:0.5;" x1="263" x2="3036" y1="1485.54" y2="1485.54"/>
  <line id="left-margin-Ultralight-S" style="fill:none;stroke:#00AEEF;stroke-width:0.5;opacity:1.0;" x1="503.501" x2="503.501" y1="600.785" y2="720.121"/>
  <line id="right-margin-Ultralight-S" style="fill:none;stroke:#00AEEF;stroke-width:0.5;opacity:1.0;" x1="615.921" x2="615.921" y1="600.785" y2="720.121"/>
  <line id="left-margin-Regular-S" style="fill:none;stroke:#00AEEF;stroke-width:0.5;opacity:1.0;" x1="1391.57" x2="1391.57" y1="600.785" y2="720.121"/>
  <line id="right-margin-Regular-S" style="fill:none;stroke:#00AEEF;stroke-width:0.5;opacity:1.0;" x1="1508.12" x2="1508.12" y1="600.785" y2="720.121"/>
  <line id="left-margin-Black-S" style="fill:none;stroke:#00AEEF;stroke-width:0.5;opacity:1.0;" x1="2872.07" x2="2872.07" y1="600.785" y2="720.121"/>
  <line id="right-margin-Black-S" style="fill:none;stroke:#00AEEF;stroke-width:0.5;opacity:1.0;" x1="2994.73" x2="2994.73" y1="600.785" y2="720.121"/>
 </g>
 <g id="Symbols">
  <g id="Black-S" transform="matrix(1 0 0 1 2872.07 696)">
   <path class="SFSymbolsPreviewWireframe" d="M25-0.830078L97.6562-0.830078C107.227-0.830078 112.891-6.49414 112.891-16.0645L112.891-54.541C112.891-64.1113 107.227-69.7754 97.6562-69.7754L25-69.7754C15.4297-69.7754 9.76562-64.1113 9.76562-54.541L9.76562-16.0645C9.76562-6.49414 15.4297-0.830078 25-0.830078ZM29.541-43.4082C28.0762-43.4082 27.1973-44.2383 27.1973-45.7031L27.1973-49.6094C27.1973-51.123 28.0762-51.9531 29.541-51.9531L33.3984-51.9531C34.8633-51.9531 35.6934-51.123 35.6934-49.6094L35.6934-45.7031C35.6934-44.2383 34.8633-43.4082 33.3984-43.4082ZM41.4551-43.4082C39.9902-43.4082 39.1602-44.2383 39.1602-45.7031L39.1602-49.6094C39.1602-51.123 39.9902-51.9531 41.4551-51.9531L45.3125-51.9531C46.8262-51.9531 47.6562-51.123 47.6562-49.6094L47.6562-45.7031C47.6562-44.2383 46.8262-43.4082 45.3125-43.4082ZM53.418-43.4082C51.9531-43.4082 51.0742-44.2383 51.0742-45.7031L51.0742-49.6094C51.0742-51.123 51.9531-51.9531 53.418-51.9531L57.2754-51.9531C58.7402-51.9531 59.5703-51.123 59.5703-49.6094L59.5703-45.7031C59.5703-44.2383 58.7402-43.4082 57.2754-43.4082ZM65.332-43.4082C63.8672-43.4082 63.0371-44.2383 63.0371-45.7031L63.0371-49.6094C63.0371-51.123 63.8672-51.9531 65.332-51.9531L69.1895-51.9531C70.6543-51.9531 71.5332-51.123 71.5332-49.6094L71.5332-45.7031C71.5332-44.2383 70.6543-43.4082 69.1895-43.4082ZM77.7832-43.4082C76.0254-43.4082 74.9512-44.2383 74.9512-45.7031L74.9512-49.6094C74.9512-51.123 76.0254-51.9531 77.7832-51.9531L81.1523-51.9531C82.6172-51.9531 83.4473-51.123 83.4473-49.6094L83.4473-45.7031C83.4473-44.2383 82.6172-43.4082 81.1523-43.4082ZM89.209-43.4082C87.7441-43.4082 86.9141-44.2383 86.9141-45.7031L86.9141-49.6094C86.9141-51.123 87.7441-51.9531 89.209-51.9531L93.0664-51.9531C94.5312-51.9531 95.4102-51.123 95.4102-49.6094L95.4102-45.7031C95.4102-44.2383 94.5312-43.4082 93.0664-43.4082ZM29.541-30.9082C28.0762-30.9082 27.1973-31.7871 27.1973-33.252L27.1973-37.1582C27.1973-38.623 28.0762-39.502 29.541-39.502L33.3984-39.502C34.8633-39.502 35.6934-38.623 35.6934-37.1582L35.6934-33.252C35.6934-31.7871 34.8633-30.9082 33.3984-30.9082ZM41.4551-30.9082C39.9902-30.9082 39.1602-31.7871 39.1602-33.252L39.1602-37.1582C39.1602-38.623 39.9902-39.502 41.4551-39.502L45.3125-39.502C46.8262-39.502 47.6562-38.623 47.6562-37.1582L47.6562-33.252C47.6562-31.7871 46.8262-30.9082 45.3125-30.9082ZM53.418-30.9082C51.9531-30.9082 51.0742-31.7871 51.0742-33.252L51.0742-37.1582C51.0742-38.623 51.9531-39.502 53.418-39.502L57.2754-39.502C58.7402-39.502 59.5703-38.623 59.5703-37.1582L59.5703-33.252C59.5703-31.7871 58.7402-30.9082 57.2754-30.9082ZM65.332-30.9082C63.8672-30.9082 63.0371-31.7871 63.0371-33.252L63.0371-37.1582C63.0371-38.623 63.8672-39.502 65.332-39.502L69.1895-39.502C70.6543-39.502 71.5332-38.623 71.5332-37.1582L71.5332-33.252C71.5332-31.7871 70.6543-30.9082 69.1895-30.9082ZM77.7832-30.9082C76.0254-30.9082 74.9512-31.7871 74.9512-33.252L74.9512-37.1582C74.9512-38.623 76.0254-39.502 77.7832-39.502L81.1523-39.502C82.6172-39.502 83.4473-38.623 83.4473-37.1582L83.4473-33.252C83.4473-31.7871 82.6172-30.9082 81.1523-30.9082ZM89.209-30.9082C87.7441-30.9082 86.9141-31.7871 86.9141-33.252L86.9141-37.1582C86.9141-38.623 87.7441-39.502 89.209-39.502L93.0664-39.502C94.5312-39.502 95.4102-38.623 95.4102-37.1582L95.4102-33.252C95.4102-31.7871 94.5312-30.9082 93.0664-30.9082ZM29.541-18.457C28.0762-18.457 27.1973-19.2871 27.1973-20.8008L27.1973-24.707C27.1973-26.1719 28.0762-27.002 29.541-27.002L33.3984-27.002C34.8633-27.002 35.6934-26.1719 35.6934-24.707L35.6934-20.8008C35.6934-19.2871 34.8633-18.457 33.3984-18.457ZM41.4551-18.457C39.9902-18.457 39.1602-19.2871 39.1602-20.8008L39.1602-24.707C39.1602-26.1719 39.9902-27.002 41.4551-27.002L81.1523-27.002C82.6172-27.002 83.4473-26.1719 83.4473-24.707L83.4473-20.8008C83.4473-19.2871 82.6172-18.457 81.1523-18.457ZM89.209-18.457C87.7441-18.457 86.9141-19.2871 86.9141-20.8008L86.9141-24.707C86.9141-26.1719 87.7441-27.002 89.209-27.002L93.0664-27.002C94.5312-27.002 95.4102-26.1719 95.4102-24.707L95.4102-20.8008C95.4102-19.2871 94.5312-18.457 93.0664-18.457Z"/>
  </g>
  <g id="Regular-S" transform="matrix(1 0 0 1 1391.57 696)">
   <path class="SFSymbolsPreviewWireframe" d="M22.2168-4.6875L94.3359-4.6875C102.637-4.6875 106.787-8.78906 106.787-16.9922L106.787-53.5645C106.787-61.7188 102.637-65.8203 94.3359-65.8203L22.2168-65.8203C13.8672-65.8203 9.76562-61.7676 9.76562-53.5645L9.76562-16.9922C9.76562-8.78906 13.8672-4.6875 22.2168-4.6875ZM24.4141-44.3359C23.291-44.3359 22.6074-45.0195 22.6074-46.1426L22.6074-49.9512C22.6074-51.0254 23.291-51.7578 24.4141-51.7578L28.2227-51.7578C29.3457-51.7578 30.0781-51.0254 30.0781-49.9512L30.0781-46.1426C30.0781-45.0195 29.3457-44.3359 28.2227-44.3359ZM37.207-44.3359C36.084-44.3359 35.4004-45.0195 35.4004-46.1426L35.4004-49.9512C35.4004-51.0254 36.084-51.7578 37.207-51.7578L40.9668-51.7578C42.0898-51.7578 42.8223-51.0254 42.8223-49.9512L42.8223-46.1426C42.8223-45.0195 42.0898-44.3359 40.9668-44.3359ZM49.9512-44.3359C48.877-44.3359 48.1445-45.0195 48.1445-46.1426L48.1445-49.9512C48.1445-51.0254 48.877-51.7578 49.9512-51.7578L53.7598-51.7578C54.8828-51.7578 55.6152-51.0254 55.6152-49.9512L55.6152-46.1426C55.6152-45.0195 54.8828-44.3359 53.7598-44.3359ZM62.7441-44.3359C61.6699-44.3359 60.9375-45.0195 60.9375-46.1426L60.9375-49.9512C60.9375-51.0254 61.6699-51.7578 62.7441-51.7578L66.5527-51.7578C67.627-51.7578 68.3594-51.0254 68.3594-49.9512L68.3594-46.1426C68.3594-45.0195 67.627-44.3359 66.5527-44.3359ZM75.5371-44.3359C74.4141-44.3359 73.6816-45.0195 73.6816-46.1426L73.6816-49.9512C73.6816-51.0254 74.4141-51.7578 75.5371-51.7578L79.3457-51.7578C80.4688-51.7578 81.1035-51.0254 81.1035-49.9512L81.1035-46.1426C81.1035-45.0195 80.4688-44.3359 79.3457-44.3359ZM88.2812-44.3359C87.207-44.3359 86.4746-45.0195 86.4746-46.1426L86.4746-49.9512C86.4746-51.0254 87.207-51.7578 88.2812-51.7578L92.0898-51.7578C93.2129-51.7578 93.8965-51.0254 93.8965-49.9512L93.8965-46.1426C93.8965-45.0195 93.2129-44.3359 92.0898-44.3359ZM24.4141-31.543C23.291-31.543 22.6074-32.2754 22.6074-33.3496L22.6074-37.207C22.6074-38.2812 23.291-38.9648 24.4141-38.9648L28.2227-38.9648C29.3457-38.9648 30.0781-38.2812 30.0781-37.207L30.0781-33.3496C30.0781-32.2754 29.3457-31.543 28.2227-31.543ZM37.207-31.543C36.084-31.543 35.4004-32.2754 35.4004-33.3496L35.4004-37.207C35.4004-38.2812 36.084-38.9648 37.207-38.9648L40.9668-38.9648C42.0898-38.9648 42.8223-38.2812 42.8223-37.207L42.8223-33.3496C42.8223-32.2754 42.0898-31.543 40.9668-31.543ZM49.9512-31.543C48.877-31.543 48.1445-32.2754 48.1445-33.3496L48.1445-37.207C48.1445-38.2812 48.877-38.9648 49.9512-38.9648L53.7598-38.9648C54.8828-38.9648 55.6152-38.2812 55.6152-37.207L55.6152-33.3496C55.6152-32.2754 54.8828-31.543 53.7598-31.543ZM62.7441-31.543C61.6699-31.543 60.9375-32.2754 60.9375-33.3496L60.9375-37.207C60.9375-38.2812 61.6699-38.9648 62.7441-38.9648L66.5527-38.9648C67.627-38.9648 68.3594-38.2812 68.3594-37.207L68.3594-33.3496C68.3594-32.2754 67.627-31.543 66.5527-31.543ZM75.5371-31.543C74.4141-31.543 73.6816-32.2754 73.6816-33.3496L73.6816-37.207C73.6816-38.2812 74.4141-38.9648 75.5371-38.9648L79.3457-38.9648C80.4688-38.9648 81.1035-38.2812 81.1035-37.207L81.1035-33.3496C81.1035-32.2754 80.4688-31.543 79.3457-31.543ZM88.2812-31.543C87.207-31.543 86.4746-32.2754 86.4746-33.3496L86.4746-37.207C86.4746-38.2812 87.207-38.9648 88.2812-38.9648L92.0898-38.9648C93.2129-38.9648 93.8965-38.2812 93.8965-37.207L93.8965-33.3496C93.8965-32.2754 93.2129-31.543 92.0898-31.543ZM24.4141-18.7988C23.291-18.7988 22.6074-19.4824 22.6074-20.5566L22.6074-24.3652C22.6074-25.4883 23.291-26.2207 24.4141-26.2207L28.2227-26.2207C29.3457-26.2207 30.0781-25.4883 30.0781-24.3652L30.0781-20.5566C30.0781-19.4824 29.3457-18.7988 28.2227-18.7988ZM37.6953-18.7988C36.2305-18.7988 35.4004-19.6289 35.4004-21.0938L35.4004-23.9258C35.4004-25.3418 36.2305-26.2207 37.6953-26.2207L78.8086-26.2207C80.2734-26.2207 81.1035-25.3418 81.1035-23.9258L81.1035-21.0938C81.1035-19.6289 80.2734-18.7988 78.8086-18.7988ZM88.2812-18.7988C87.207-18.7988 86.4746-19.4824 86.4746-20.5566L86.4746-24.3652C86.4746-25.4883 87.207-26.2207 88.2812-26.2207L92.0898-26.2207C93.2129-26.2207 93.8965-25.4883 93.8965-24.3652L93.8965-20.5566C93.8965-19.4824 93.2129-18.7988 92.0898-18.7988Z"/>
  </g>
  <g id="Ultralight-S" transform="matrix(1 0 0 1 503.501 696)">
   <path class="SFSymbolsPreviewWireframe" d="M19.7647-6.59471L92.6558-6.59471C99.1856-6.59471 102.655-10.1514 102.655-16.5835L102.655-54.0186C102.655-60.4473 99.1856-64.0039 92.6558-64.0039L19.7647-64.0039C13.2315-64.0039 9.76562-60.5415 9.76562-54.0186L9.76562-16.5835C9.76562-10.0605 13.2315-6.59471 19.7647-6.59471ZM23.6875-44.8354C22.6553-44.8354 22.1079-45.3828 22.1079-46.415L22.1079-49.2246C22.1079-50.2534 22.6553-50.8042 23.6875-50.8042L26.4517-50.8042C27.4839-50.8042 28.0347-50.2534 28.0347-49.2246L28.0347-46.415C28.0347-45.3828 27.4839-44.8354 26.4517-44.8354ZM35.981-44.8354C34.9487-44.8354 34.4468-45.3828 34.4468-46.415L34.4468-49.2246C34.4468-50.2534 34.9487-50.8042 35.981-50.8042L38.7871-50.8042C39.8194-50.8042 40.3701-50.2534 40.3701-49.2246L40.3701-46.415C40.3701-45.3828 39.8194-44.8354 38.7871-44.8354ZM48.3164-44.8354C47.2876-44.8354 46.7368-45.3828 46.7368-46.415L46.7368-49.2246C46.7368-50.2534 47.2876-50.8042 48.3164-50.8042L51.126-50.8042C52.1582-50.8042 52.709-50.2534 52.709-49.2246L52.709-46.415C52.709-45.3828 52.1582-44.8354 51.126-44.8354ZM60.6553-44.8354C59.6265-44.8354 59.0757-45.3828 59.0757-46.415L59.0757-49.2246C59.0757-50.2534 59.6265-50.8042 60.6553-50.8042L63.4649-50.8042C64.4483-50.8042 64.999-50.2534 64.999-49.2246L64.999-46.415C64.999-45.3828 64.4483-44.8354 63.4649-44.8354ZM72.9942-44.8354C71.9619-44.8354 71.4112-45.3828 71.4112-46.415L71.4112-49.2246C71.4112-50.2534 71.9619-50.8042 72.9942-50.8042L75.7583-50.8042C76.7906-50.8042 77.3345-50.2534 77.3345-49.2246L77.3345-46.415C77.3345-45.3828 76.7906-44.8354 75.7583-44.8354ZM85.3296-44.8354C84.3008-44.8354 83.75-45.3828 83.75-46.415L83.75-49.2246C83.75-50.2534 84.3008-50.8042 85.3296-50.8042L88.0938-50.8042C89.126-50.8042 89.6734-50.2534 89.6734-49.2246L89.6734-46.415C89.6734-45.3828 89.126-44.8354 88.0938-44.8354ZM23.6875-32.4966C22.6553-32.4966 22.1079-33.0474 22.1079-34.0762L22.1079-36.8892C22.1079-37.918 22.6553-38.4653 23.6875-38.4653L26.4517-38.4653C27.4839-38.4653 28.0347-37.918 28.0347-36.8892L28.0347-34.0762C28.0347-33.0474 27.4839-32.4966 26.4517-32.4966ZM35.981-32.4966C34.9487-32.4966 34.4468-33.0474 34.4468-34.0762L34.4468-36.8892C34.4468-37.918 34.9487-38.4653 35.981-38.4653L38.7871-38.4653C39.8194-38.4653 40.3701-37.918 40.3701-36.8892L40.3701-34.0762C40.3701-33.0474 39.8194-32.4966 38.7871-32.4966ZM48.3164-32.4966C47.2876-32.4966 46.7368-33.0474 46.7368-34.0762L46.7368-36.8892C46.7368-37.918 47.2876-38.4653 48.3164-38.4653L51.126-38.4653C52.1582-38.4653 52.709-37.918 52.709-36.8892L52.709-34.0762C52.709-33.0474 52.1582-32.4966 51.126-32.4966ZM60.6553-32.4966C59.6265-32.4966 59.0757-33.0474 59.0757-34.0762L59.0757-36.8892C59.0757-37.918 59.6265-38.4653 60.6553-38.4653L63.4649-38.4653C64.4483-38.4653 64.999-37.918 64.999-36.8892L64.999-34.0762C64.999-33.0474 64.4483-32.4966 63.4649-32.4966ZM72.9942-32.4966C71.9619-32.4966 71.4112-33.0474 71.4112-34.0762L71.4112-36.8892C71.4112-37.918 71.9619-38.4653 72.9942-38.4653L75.7583-38.4653C76.7906-38.4653 77.3345-37.918 77.3345-36.8892L77.3345-34.0762C77.3345-33.0474 76.7906-32.4966 75.7583-32.4966ZM85.3296-32.4966C84.3008-32.4966 83.75-33.0474 83.75-34.0762L83.75-36.8892C83.75-37.918 84.3008-38.4653 85.3296-38.4653L88.0938-38.4653C89.126-38.4653 89.6734-37.918 89.6734-36.8892L89.6734-34.0762C89.6734-33.0474 89.126-32.4966 88.0938-32.4966ZM23.6875-20.2065C22.6553-20.2065 22.1079-20.7539 22.1079-21.7827L22.1079-24.5469C22.1079-25.5791 22.6553-26.1299 23.6875-26.1299L26.4517-26.1299C27.4839-26.1299 28.0347-25.5791 28.0347-24.5469L28.0347-21.7827C28.0347-20.7539 27.4839-20.2065 26.4517-20.2065ZM36.0151-20.2065C34.959-20.2065 34.4468-20.7642 34.4468-21.7749L34.4468-24.5161C34.4468-25.5688 34.959-26.1299 36.0151-26.1299L75.7661-26.1299C76.7769-26.1299 77.3345-25.5688 77.3345-24.5161L77.3345-21.7749C77.3345-20.7642 76.7769-20.2065 75.7661-20.2065ZM85.3296-20.2065C84.3008-20.2065 83.75-20.7539 83.75-21.7827L83.75-24.5469C83.75-25.5791 84.3008-26.1299 85.3296-26.1299L88.0938-26.1299C89.126-26.1299 89.6734-25.5791 89.6734-24.5469L89.6734-21.7827C89.6734-20.7539 89.126-20.2065 88.0938-20.2065Z"/>
  </g>
 </g>
</svg>
