<?xml version="1.0" encoding="UTF-8"?>
<!--Generator: Apple Native CoreSVG 232.5-->
<!DOCTYPE svg
PUBLIC "-//W3C//DTD SVG 1.1//EN"
       "http://www.w3.org/Graphics/SVG/1.1/DTD/svg11.dtd">
<svg version="1.1" xmlns="http://www.w3.org/2000/svg" xmlns:xlink="http://www.w3.org/1999/xlink" width="3300" height="2200">
 <!--glyph: "uni1018BD.medium", point size: 100.0, font version: "19.2d2e1", template writer version: "128"-->
 <style>.SFSymbolsPreviewWireframe {fill:none;opacity:1.0;stroke:black;stroke-width:0.5}
</style>
 <g id="Notes">
  <rect height="2200" id="artboard" style="fill:white;opacity:1" width="3300" x="0" y="0"/>
  <line style="fill:none;stroke:black;opacity:1;stroke-width:0.5;" x1="263" x2="3036" y1="292" y2="292"/>
  <text style="stroke:none;fill:black;font-family:sans-serif;font-size:13;font-weight:bold;" transform="matrix(1 0 0 1 263 322)">Weight/Scale Variations</text>
  <text style="stroke:none;fill:black;font-family:sans-serif;font-size:13;text-anchor:middle;" transform="matrix(1 0 0 1 559.711 322)">Ultralight</text>
  <text style="stroke:none;fill:black;font-family:sans-serif;font-size:13;text-anchor:middle;" transform="matrix(1 0 0 1 856.422 322)">Thin</text>
  <text style="stroke:none;fill:black;font-family:sans-serif;font-size:13;text-anchor:middle;" transform="matrix(1 0 0 1 1153.13 322)">Light</text>
  <text style="stroke:none;fill:black;font-family:sans-serif;font-size:13;text-anchor:middle;" transform="matrix(1 0 0 1 1449.84 322)">Regular</text>
  <text style="stroke:none;fill:black;font-family:sans-serif;font-size:13;text-anchor:middle;" transform="matrix(1 0 0 1 1746.56 322)">Medium</text>
  <text style="stroke:none;fill:black;font-family:sans-serif;font-size:13;text-anchor:middle;" transform="matrix(1 0 0 1 2043.27 322)">Semibold</text>
  <text style="stroke:none;fill:black;font-family:sans-serif;font-size:13;text-anchor:middle;" transform="matrix(1 0 0 1 2339.98 322)">Bold</text>
  <text style="stroke:none;fill:black;font-family:sans-serif;font-size:13;text-anchor:middle;" transform="matrix(1 0 0 1 2636.69 322)">Heavy</text>
  <text style="stroke:none;fill:black;font-family:sans-serif;font-size:13;text-anchor:middle;" transform="matrix(1 0 0 1 2933.4 322)">Black</text>
  <line style="fill:none;stroke:black;opacity:1;stroke-width:0.5;" x1="263" x2="3036" y1="1903" y2="1903"/>
  <g transform="matrix(0.2 0 0 0.2 263 1933)">
   <path d="m46.2402 4.15039c21.5332 0 39.4531-17.8711 39.4531-39.4043s-17.9688-39.4043-39.502-39.4043c-21.4844 0-39.3555 17.8711-39.3555 39.4043s17.9199 39.4043 39.4043 39.4043Zm0-7.42188c-17.7246 0-31.8848-14.209-31.8848-31.9824s14.1113-31.9824 31.8359-31.9824c17.7734 0 32.0312 14.209 32.0312 31.9824s-14.209 31.9824-31.9824 31.9824Zm-17.9688-31.9824c0 2.14844 1.51367 3.61328 3.75977 3.61328h10.498v10.5957c0 2.19727 1.46484 3.71094 3.61328 3.71094 2.24609 0 3.71094-1.51367 3.71094-3.71094v-10.5957h10.5957c2.19727 0 3.71094-1.46484 3.71094-3.61328 0-2.19727-1.51367-3.71094-3.71094-3.71094h-10.5957v-10.5469c0-2.24609-1.46484-3.75977-3.71094-3.75977-2.14844 0-3.61328 1.51367-3.61328 3.75977v10.5469h-10.498c-2.24609 0-3.75977 1.51367-3.75977 3.71094Z"/>
  </g>
  <g transform="matrix(0.2 0 0 0.2 281.506 1933)">
   <path d="m58.5449 14.5508c27.2461 0 49.8047-22.6074 49.8047-49.8047 0-27.2461-22.6074-49.8047-49.8535-49.8047-27.1973 0-49.7559 22.5586-49.7559 49.8047 0 27.1973 22.6074 49.8047 49.8047 49.8047Zm0-8.30078c-23.0469 0-41.4551-18.457-41.4551-41.5039s18.3594-41.5039 41.4062-41.5039 41.5527 18.457 41.5527 41.5039-18.457 41.5039-41.5039 41.5039Zm-22.6562-41.5039c0 2.39258 1.66016 4.00391 4.15039 4.00391h14.3555v14.4043c0 2.44141 1.66016 4.15039 4.05273 4.15039 2.44141 0 4.15039-1.66016 4.15039-4.15039v-14.4043h14.4043c2.44141 0 4.15039-1.61133 4.15039-4.00391 0-2.44141-1.70898-4.15039-4.15039-4.15039h-14.4043v-14.3555c0-2.49023-1.70898-4.19922-4.15039-4.19922-2.39258 0-4.05273 1.70898-4.05273 4.19922v14.3555h-14.3555c-2.49023 0-4.15039 1.70898-4.15039 4.15039Z"/>
  </g>
  <g transform="matrix(0.2 0 0 0.2 304.924 1933)">
   <path d="m74.8535 28.3203c34.8145 0 63.623-28.8086 63.623-63.5742 0-34.8145-28.8574-63.623-63.6719-63.623-34.7656 0-63.5254 28.8086-63.5254 63.623 0 34.7656 28.8086 63.5742 63.5742 63.5742Zm0-9.08203c-30.1758 0-54.4434-24.3164-54.4434-54.4922 0-30.2246 24.2188-54.4922 54.3945-54.4922 30.2246 0 54.541 24.2676 54.541 54.4922 0 30.1758-24.2676 54.4922-54.4922 54.4922Zm-28.8574-54.4922c0 2.58789 1.85547 4.39453 4.58984 4.39453h19.7266v19.7754c0 2.68555 1.85547 4.58984 4.44336 4.58984 2.68555 0 4.54102-1.85547 4.54102-4.58984v-19.7754h19.7754c2.68555 0 4.58984-1.80664 4.58984-4.39453 0-2.73438-1.85547-4.58984-4.58984-4.58984h-19.7754v-19.7266c0-2.73438-1.85547-4.63867-4.54102-4.63867-2.58789 0-4.44336 1.9043-4.44336 4.63867v19.7266h-19.7266c-2.73438 0-4.58984 1.85547-4.58984 4.58984Z"/>
  </g>
  <text style="stroke:none;fill:black;font-family:sans-serif;font-size:13;font-weight:bold;" transform="matrix(1 0 0 1 263 1953)">Design Variations</text>
  <text style="stroke:none;fill:black;font-family:sans-serif;font-size:13;" transform="matrix(1 0 0 1 263 1971)">Symbols are supported in up to nine weights and three scales.</text>
  <text style="stroke:none;fill:black;font-family:sans-serif;font-size:13;" transform="matrix(1 0 0 1 263 1989)">For optimal layout with text and other symbols, vertically align</text>
  <text style="stroke:none;fill:black;font-family:sans-serif;font-size:13;" transform="matrix(1 0 0 1 263 2007)">symbols with the adjacent text.</text>
  <line style="fill:none;stroke:#00AEEF;stroke-width:0.5;opacity:1.0;" x1="776" x2="776" y1="1919" y2="1933"/>
  <g transform="matrix(0.2 0 0 0.2 776 1933)">
   <path d="m16.5527 0.78125c2.58789 0 3.85742-0.976562 4.78516-3.71094l6.29883-17.2363h28.8086l6.29883 17.2363c0.927734 2.73438 2.19727 3.71094 4.73633 3.71094 2.58789 0 4.24805-1.5625 4.24805-4.00391 0-0.830078-0.146484-1.61133-0.537109-2.63672l-22.9004-60.9863c-1.12305-2.97852-3.125-4.49219-6.25-4.49219-3.02734 0-5.07812 1.46484-6.15234 4.44336l-22.9004 61.084c-0.390625 1.02539-0.537109 1.80664-0.537109 2.63672 0 2.44141 1.5625 3.95508 4.10156 3.95508Zm13.4766-28.3691 11.8652-32.8613h0.244141l11.8652 32.8613Z"/>
  </g>
  <line style="fill:none;stroke:#00AEEF;stroke-width:0.5;opacity:1.0;" x1="792.836" x2="792.836" y1="1919" y2="1933"/>
  <text style="stroke:none;fill:black;font-family:sans-serif;font-size:13;font-weight:bold;" transform="matrix(1 0 0 1 776 1953)">Margins</text>
  <text style="stroke:none;fill:black;font-family:sans-serif;font-size:13;" transform="matrix(1 0 0 1 776 1971)">Leading and trailing margins on the left and right side of each symbol</text>
  <text style="stroke:none;fill:black;font-family:sans-serif;font-size:13;" transform="matrix(1 0 0 1 776 1989)">can be adjusted by modifying the x-location of the margin guidelines.</text>
  <text style="stroke:none;fill:black;font-family:sans-serif;font-size:13;" transform="matrix(1 0 0 1 776 2007)">Modifications are automatically applied proportionally to all</text>
  <text style="stroke:none;fill:black;font-family:sans-serif;font-size:13;" transform="matrix(1 0 0 1 776 2025)">scales and weights.</text>
  <g transform="matrix(0.2 0 0 0.2 1289 1933)">
   <path d="m14.209 9.32617 8.49609 8.54492c4.29688 4.3457 9.22852 4.05273 13.8672-1.07422l53.4668-58.9355-4.83398-4.88281-53.0762 58.3984c-1.75781 2.00195-3.41797 2.49023-5.76172 0.146484l-5.85938-5.81055c-2.34375-2.29492-1.80664-4.00391 0.195312-5.81055l57.373-54.0039-4.88281-4.83398-57.959 54.4434c-4.93164 4.58984-5.32227 9.47266-1.02539 13.8184Zm32.0801-90.9668c-2.09961 2.05078-2.24609 4.93164-1.07422 6.88477 1.17188 1.80664 3.4668 2.97852 6.68945 2.14844 7.32422-1.70898 14.9414-2.00195 22.0703 2.68555l-2.92969 7.27539c-1.70898 4.15039-0.830078 7.08008 1.85547 9.81445l11.4746 11.5723c2.44141 2.44141 4.49219 2.53906 7.32422 2.05078l5.32227-0.976562 3.32031 3.36914-0.195312 2.7832c-0.195312 2.49023 0.439453 4.39453 2.88086 6.78711l3.80859 3.71094c2.39258 2.39258 5.46875 2.53906 7.8125 0.195312l14.5508-14.5996c2.34375-2.34375 2.24609-5.32227-0.146484-7.71484l-3.85742-3.80859c-2.39258-2.39258-4.24805-3.17383-6.64062-2.97852l-2.88086 0.244141-3.22266-3.17383 1.2207-5.61523c0.634766-2.83203-0.146484-5.0293-3.07617-7.95898l-10.9863-10.9375c-16.6992-16.6016-38.8672-16.2109-53.3203-1.75781Zm7.4707 1.85547c12.1582-8.88672 28.6133-7.37305 39.7461 3.75977l12.1582 12.0605c1.17188 1.17188 1.36719 2.09961 1.02539 3.80859l-1.61133 7.42188 7.51953 7.42188 4.93164-0.292969c1.26953-0.0488281 1.66016 0.0488281 2.63672 1.02539l2.88086 2.88086-12.207 12.207-2.88086-2.88086c-0.976562-0.976562-1.12305-1.36719-1.07422-2.68555l0.341797-4.88281-7.4707-7.42188-7.61719 1.26953c-1.61133 0.341797-2.34375 0.195312-3.56445-0.976562l-10.0098-10.0098c-1.26953-1.17188-1.41602-2.00195-0.634766-3.85742l4.39453-10.4492c-7.8125-7.27539-17.9688-10.4004-28.125-7.42188-0.78125 0.195312-1.07422-0.439453-0.439453-0.976562Z"/>
  </g>
  <text style="stroke:none;fill:black;font-family:sans-serif;font-size:13;font-weight:bold;" transform="matrix(1 0 0 1 1289 1953)">Exporting</text>
  <text style="stroke:none;fill:black;font-family:sans-serif;font-size:13;" transform="matrix(1 0 0 1 1289 1971)">Symbols should be outlined when exporting to ensure the</text>
  <text style="stroke:none;fill:black;font-family:sans-serif;font-size:13;" transform="matrix(1 0 0 1 1289 1989)">design is preserved when submitting to Xcode.</text>
  <text id="template-version" style="stroke:none;fill:black;font-family:sans-serif;font-size:13;text-anchor:end;" transform="matrix(1 0 0 1 3036 1933)">Template v.5.0</text>
  <text style="stroke:none;fill:black;font-family:sans-serif;font-size:13;text-anchor:end;" transform="matrix(1 0 0 1 3036 1951)">Requires Xcode 15 or greater</text>
  <text id="descriptive-name" style="stroke:none;fill:black;font-family:sans-serif;font-size:13;text-anchor:end;" transform="matrix(1 0 0 1 3036 1969)">Generated from kph</text>
  <text style="stroke:none;fill:black;font-family:sans-serif;font-size:13;text-anchor:end;" transform="matrix(1 0 0 1 3036 1987)">Typeset at 100.0 points</text>
  <text style="stroke:none;fill:black;font-family:sans-serif;font-size:13;" transform="matrix(1 0 0 1 263 726)">Small</text>
  <text style="stroke:none;fill:black;font-family:sans-serif;font-size:13;" transform="matrix(1 0 0 1 263 1156)">Medium</text>
  <text style="stroke:none;fill:black;font-family:sans-serif;font-size:13;" transform="matrix(1 0 0 1 263 1586)">Large</text>
 </g>
 <g id="Guides">
  <g id="H-reference" style="fill:#27AAE1;stroke:none;" transform="matrix(1 0 0 1 339 696)">
   <path d="M0.993654 0L3.63775 0L29.3281-67.1323L30.0303-67.1323L30.0303-70.459L28.1226-70.459ZM11.6885-24.4799L46.9815-24.4799L46.2315-26.7285L12.4385-26.7285ZM55.1196 0L57.7637 0L30.6382-70.459L29.4326-70.459L29.4326-67.1323Z"/>
  </g>
  <line id="Baseline-S" style="fill:none;stroke:#27AAE1;opacity:1;stroke-width:0.5;" x1="263" x2="3036" y1="696" y2="696"/>
  <line id="Capline-S" style="fill:none;stroke:#27AAE1;opacity:1;stroke-width:0.5;" x1="263" x2="3036" y1="625.541" y2="625.541"/>
  <g id="H-reference" style="fill:#27AAE1;stroke:none;" transform="matrix(1 0 0 1 339 1126)">
   <path d="M0.993654 0L3.63775 0L29.3281-67.1323L30.0303-67.1323L30.0303-70.459L28.1226-70.459ZM11.6885-24.4799L46.9815-24.4799L46.2315-26.7285L12.4385-26.7285ZM55.1196 0L57.7637 0L30.6382-70.459L29.4326-70.459L29.4326-67.1323Z"/>
  </g>
  <line id="Baseline-M" style="fill:none;stroke:#27AAE1;opacity:1;stroke-width:0.5;" x1="263" x2="3036" y1="1126" y2="1126"/>
  <line id="Capline-M" style="fill:none;stroke:#27AAE1;opacity:1;stroke-width:0.5;" x1="263" x2="3036" y1="1055.54" y2="1055.54"/>
  <g id="H-reference" style="fill:#27AAE1;stroke:none;" transform="matrix(1 0 0 1 339 1556)">
   <path d="M0.993654 0L3.63775 0L29.3281-67.1323L30.0303-67.1323L30.0303-70.459L28.1226-70.459ZM11.6885-24.4799L46.9815-24.4799L46.2315-26.7285L12.4385-26.7285ZM55.1196 0L57.7637 0L30.6382-70.459L29.4326-70.459L29.4326-67.1323Z"/>
  </g>
  <line id="Baseline-L" style="fill:none;stroke:#27AAE1;opacity:1;stroke-width:0.5;" x1="263" x2="3036" y1="1556" y2="1556"/>
  <line id="Capline-L" style="fill:none;stroke:#27AAE1;opacity:1;stroke-width:0.5;" x1="263" x2="3036" y1="1485.54" y2="1485.54"/>
  <line id="left-margin-Ultralight-S" style="fill:none;stroke:#00AEEF;stroke-width:0.5;opacity:1.0;" x1="498.032" x2="498.032" y1="600.785" y2="720.121"/>
  <line id="right-margin-Ultralight-S" style="fill:none;stroke:#00AEEF;stroke-width:0.5;opacity:1.0;" x1="621.39" x2="621.39" y1="600.785" y2="720.121"/>
  <line id="left-margin-Regular-S" style="fill:none;stroke:#00AEEF;stroke-width:0.5;opacity:1.0;" x1="1387.08" x2="1387.08" y1="600.785" y2="720.121"/>
  <line id="right-margin-Regular-S" style="fill:none;stroke:#00AEEF;stroke-width:0.5;opacity:1.0;" x1="1512.61" x2="1512.61" y1="600.785" y2="720.121"/>
  <line id="left-margin-Black-S" style="fill:none;stroke:#00AEEF;stroke-width:0.5;opacity:1.0;" x1="2858.08" x2="2858.08" y1="600.785" y2="720.121"/>
  <line id="right-margin-Black-S" style="fill:none;stroke:#00AEEF;stroke-width:0.5;opacity:1.0;" x1="3008.72" x2="3008.72" y1="600.785" y2="720.121"/>
 </g>
 <g id="Symbols">
  <g id="Black-S" transform="matrix(1 0 0 1 2858.08 696)">
   <path class="SFSymbolsPreviewWireframe" d="M17.8711-6.29883C23.2422-6.29883 25.9766-9.57031 25.9766-14.8926L25.9766-21.7773L28.0762-26.3672L34.1797-12.8906C36.084-8.64258 38.623-6.29883 43.1152-6.29883C47.1191-6.29883 50.5371-9.17969 50.5371-13.9648C50.5371-16.748 48.584-21.0449 47.3633-23.5352L41.1621-36.5234L47.3633-48.6816C48.877-51.709 49.8535-53.6133 49.8535-57.0801C49.8535-61.084 46.6797-64.209 42.7246-64.209C37.8906-64.209 35.8398-61.2305 33.9355-56.8848L26.7578-40.4297L25.9766-40.4297L25.9766-55.5664C25.9766-60.9375 23.2422-64.209 17.8711-64.209C12.5488-64.209 9.76562-60.8887 9.76562-55.5664L9.76562-14.8926C9.76562-9.61914 12.5488-6.29883 17.8711-6.29883ZM64.1602-6.29883C69.9219-6.29883 72.3633-9.86328 72.3633-14.8926L72.3633-22.5586L76.0254-22.5586C87.3047-22.5586 93.8965-31.1523 93.8965-42.8223C93.8965-54.248 88.1836-63.2324 77.3438-63.2324L64.209-63.2324C58.7891-63.2324 55.9082-60.0098 55.9082-54.5898L55.9082-14.8926C55.9082-9.81445 58.4961-6.29883 64.1602-6.29883ZM72.3633-34.668L72.3633-50.8301L72.8027-50.8301C76.9531-50.8301 77.6367-46.9238 77.6367-42.7734C77.6367-38.5254 76.9531-34.668 72.7051-34.668ZM108.691-6.29883C114.111-6.29883 116.895-9.47266 116.895-14.8926L116.895-28.9062L124.414-28.9062L124.414-14.8926C124.414-9.81445 127.002-6.29883 132.666-6.29883C138.086-6.29883 140.869-9.47266 140.869-14.8926L140.869-55.5664C140.869-61.0352 138.037-64.209 132.666-64.209C127.441-64.209 124.414-61.1328 124.414-55.5664L124.414-41.9922L116.895-41.9922L116.895-55.5664C116.895-62.0605 113.037-64.209 108.691-64.209C104.248-64.209 100.488-62.0117 100.488-55.5664L100.488-14.8926C100.488-9.66797 103.076-6.29883 108.691-6.29883Z"/>
  </g>
  <g id="Regular-S" transform="matrix(1 0 0 1 1387.08 696)">
   <path class="SFSymbolsPreviewWireframe" d="M13.8184-6.64062C16.2598-6.64062 17.8223-8.05664 17.8223-10.8398L17.8223-24.9512L22.0703-31.6895L33.6914-9.91211C34.7656-7.86133 35.6934-6.88477 37.7441-6.88477C39.8438-6.88477 41.4551-8.44727 41.4551-10.5469C41.4551-11.6699 40.8203-12.9395 40.332-13.8184L27.1973-38.0859L38.6719-56.7383C39.2578-57.6172 39.6973-58.4961 39.6973-59.668C39.6973-62.0117 37.9883-63.4766 36.0352-63.4766C34.1309-63.4766 33.1543-62.3535 32.2266-60.791L17.8711-36.7188L17.8223-36.7188L17.8223-59.5215C17.8223-62.1582 16.3086-63.6719 13.6719-63.6719C11.6699-63.6719 9.76562-62.5488 9.76562-59.5215L9.76562-10.8398C9.76562-8.05664 11.5234-6.64062 13.8184-6.64062ZM51.8555-6.88477C54.1016-6.88477 55.9082-8.10547 55.9082-11.084L55.9082-26.7578L62.3535-26.7578C71.7285-26.7578 76.9531-35.0586 76.9531-44.873C76.9531-54.0527 72.2168-62.8906 62.6953-62.8906L51.8066-62.8906C49.3164-62.8906 47.9004-61.1328 47.9004-58.6914L47.9004-11.084C47.9004-8.44727 49.3164-6.88477 51.8555-6.88477ZM55.9082-33.6914L55.9082-55.9082L60.791-55.9082C66.6504-55.9082 68.9941-51.2207 68.9941-44.873C68.9941-38.7207 66.748-33.6914 60.791-33.6914ZM88.5254-6.64062C91.3574-6.64062 92.5293-8.69141 92.5293-11.1328L92.5293-32.1777L107.715-32.1777L107.715-11.1328C107.715-8.49609 109.082-6.64062 111.719-6.64062C114.355-6.64062 115.771-8.49609 115.771-11.1328L115.771-59.1797C115.771-61.8164 114.355-63.6719 111.719-63.6719C109.082-63.6719 107.715-61.8164 107.715-59.1797L107.715-39.3066L92.5293-39.3066L92.5293-59.1797C92.5293-61.6699 91.3574-63.6719 88.5254-63.6719C85.8887-63.6719 84.5215-61.8164 84.5215-59.1797L84.5215-11.1328C84.5215-8.49609 85.8887-6.64062 88.5254-6.64062Z"/>
  </g>
  <g id="Ultralight-S" transform="matrix(1 0 0 1 498.032 696)">
   <path class="SFSymbolsPreviewWireframe" d="M11.003-3.64358C11.855-3.64358 12.2369-4.10599 12.2369-4.98198L12.2369-25.7231L18.4375-36.2758L35.7803-4.3267C36.0825-3.86527 36.3745-3.61526 36.9722-3.61526C37.7095-3.61526 38.1402-4.17874 38.1402-4.77983C38.1402-5.0855 38.0957-5.2652 37.8799-5.6446L19.9771-38.4946L35.6748-64.8212C35.8067-65.0644 35.9283-65.2622 35.9283-65.6167C35.9283-66.2802 35.4453-66.7915 34.7637-66.7915C34.2217-66.7915 33.8809-66.4858 33.5889-65.9223L12.4219-30.1797L12.2369-30.1797L12.1915-65.5156C12.1915-66.3359 11.7676-66.8506 10.9927-66.8506C10.2168-66.8506 9.76562-66.3633 9.76562-65.5156L9.76562-4.98198C9.76562-4.10599 10.1611-3.64358 11.003-3.64358ZM48.9492-3.66067C49.6968-3.66067 50.1412-4.20023 50.1412-5.04448L50.1412-29.8457L59.4019-29.8457C69.231-29.8457 74.1377-38.1011 74.1377-48.0517C74.1377-57.8672 69.1743-66.2055 59.4258-66.2055L48.9004-66.2055C48.0903-66.2055 47.7188-65.6284 47.7188-64.8217L47.7188-5.04448C47.7188-4.22415 48.1358-3.66067 48.9492-3.66067ZM50.1412-32.1475L50.1412-63.9003L58.9746-63.9003C67.5586-63.9003 71.5825-56.8061 71.5825-48.0517C71.5825-39.311 67.7017-32.1475 58.9746-32.1475ZM86.1641-3.64358C86.9981-3.64358 87.398-4.19584 87.398-5.0479L87.398-34.9023L111.121-34.9023L111.121-5.0479C111.121-4.18216 111.489-3.64358 112.309-3.64358C113.129-3.64358 113.592-4.18216 113.592-5.0479L113.592-65.4462C113.592-66.312 113.175-66.8506 112.309-66.8506C111.489-66.8506 111.121-66.312 111.121-65.4462L111.121-37.2178L87.398-37.2178L87.398-65.4462C87.398-66.3017 86.9981-66.8506 86.1641-66.8506C85.3438-66.8506 84.9302-66.312 84.9302-65.4462L84.9302-5.0479C84.9302-4.18216 85.3438-3.64358 86.1641-3.64358Z"/>
  </g>
 </g>
</svg>
