<?xml version="1.0" encoding="UTF-8"?>
<!--Generator: Apple Native CoreSVG 232.5-->
<!DOCTYPE svg
PUBLIC "-//W3C//DTD SVG 1.1//EN"
       "http://www.w3.org/Graphics/SVG/1.1/DTD/svg11.dtd">
<svg version="1.1" xmlns="http://www.w3.org/2000/svg" xmlns:xlink="http://www.w3.org/1999/xlink" width="3300" height="2200">
 <!--glyph: "uni100BD4.medium", point size: 100.0, font version: "19.2d2e1", template writer version: "128"-->
 <style>.SFSymbolsPreviewWireframe {fill:none;opacity:1.0;stroke:black;stroke-width:0.5}
</style>
 <g id="Notes">
  <rect height="2200" id="artboard" style="fill:white;opacity:1" width="3300" x="0" y="0"/>
  <line style="fill:none;stroke:black;opacity:1;stroke-width:0.5;" x1="263" x2="3036" y1="292" y2="292"/>
  <text style="stroke:none;fill:black;font-family:sans-serif;font-size:13;font-weight:bold;" transform="matrix(1 0 0 1 263 322)">Weight/Scale Variations</text>
  <text style="stroke:none;fill:black;font-family:sans-serif;font-size:13;text-anchor:middle;" transform="matrix(1 0 0 1 559.711 322)">Ultralight</text>
  <text style="stroke:none;fill:black;font-family:sans-serif;font-size:13;text-anchor:middle;" transform="matrix(1 0 0 1 856.422 322)">Thin</text>
  <text style="stroke:none;fill:black;font-family:sans-serif;font-size:13;text-anchor:middle;" transform="matrix(1 0 0 1 1153.13 322)">Light</text>
  <text style="stroke:none;fill:black;font-family:sans-serif;font-size:13;text-anchor:middle;" transform="matrix(1 0 0 1 1449.84 322)">Regular</text>
  <text style="stroke:none;fill:black;font-family:sans-serif;font-size:13;text-anchor:middle;" transform="matrix(1 0 0 1 1746.56 322)">Medium</text>
  <text style="stroke:none;fill:black;font-family:sans-serif;font-size:13;text-anchor:middle;" transform="matrix(1 0 0 1 2043.27 322)">Semibold</text>
  <text style="stroke:none;fill:black;font-family:sans-serif;font-size:13;text-anchor:middle;" transform="matrix(1 0 0 1 2339.98 322)">Bold</text>
  <text style="stroke:none;fill:black;font-family:sans-serif;font-size:13;text-anchor:middle;" transform="matrix(1 0 0 1 2636.69 322)">Heavy</text>
  <text style="stroke:none;fill:black;font-family:sans-serif;font-size:13;text-anchor:middle;" transform="matrix(1 0 0 1 2933.4 322)">Black</text>
  <line style="fill:none;stroke:black;opacity:1;stroke-width:0.5;" x1="263" x2="3036" y1="1903" y2="1903"/>
  <g transform="matrix(0.2 0 0 0.2 263 1933)">
   <path d="m46.2402 4.15039c21.5332 0 39.4531-17.8711 39.4531-39.4043s-17.9688-39.4043-39.502-39.4043c-21.4844 0-39.3555 17.8711-39.3555 39.4043s17.9199 39.4043 39.4043 39.4043Zm0-7.42188c-17.7246 0-31.8848-14.209-31.8848-31.9824s14.1113-31.9824 31.8359-31.9824c17.7734 0 32.0312 14.209 32.0312 31.9824s-14.209 31.9824-31.9824 31.9824Zm-17.9688-31.9824c0 2.14844 1.51367 3.61328 3.75977 3.61328h10.498v10.5957c0 2.19727 1.46484 3.71094 3.61328 3.71094 2.24609 0 3.71094-1.51367 3.71094-3.71094v-10.5957h10.5957c2.19727 0 3.71094-1.46484 3.71094-3.61328 0-2.19727-1.51367-3.71094-3.71094-3.71094h-10.5957v-10.5469c0-2.24609-1.46484-3.75977-3.71094-3.75977-2.14844 0-3.61328 1.51367-3.61328 3.75977v10.5469h-10.498c-2.24609 0-3.75977 1.51367-3.75977 3.71094Z"/>
  </g>
  <g transform="matrix(0.2 0 0 0.2 281.506 1933)">
   <path d="m58.5449 14.5508c27.2461 0 49.8047-22.6074 49.8047-49.8047 0-27.2461-22.6074-49.8047-49.8535-49.8047-27.1973 0-49.7559 22.5586-49.7559 49.8047 0 27.1973 22.6074 49.8047 49.8047 49.8047Zm0-8.30078c-23.0469 0-41.4551-18.457-41.4551-41.5039s18.3594-41.5039 41.4062-41.5039 41.5527 18.457 41.5527 41.5039-18.457 41.5039-41.5039 41.5039Zm-22.6562-41.5039c0 2.39258 1.66016 4.00391 4.15039 4.00391h14.3555v14.4043c0 2.44141 1.66016 4.15039 4.05273 4.15039 2.44141 0 4.15039-1.66016 4.15039-4.15039v-14.4043h14.4043c2.44141 0 4.15039-1.61133 4.15039-4.00391 0-2.44141-1.70898-4.15039-4.15039-4.15039h-14.4043v-14.3555c0-2.49023-1.70898-4.19922-4.15039-4.19922-2.39258 0-4.05273 1.70898-4.05273 4.19922v14.3555h-14.3555c-2.49023 0-4.15039 1.70898-4.15039 4.15039Z"/>
  </g>
  <g transform="matrix(0.2 0 0 0.2 304.924 1933)">
   <path d="m74.8535 28.3203c34.8145 0 63.623-28.8086 63.623-63.5742 0-34.8145-28.8574-63.623-63.6719-63.623-34.7656 0-63.5254 28.8086-63.5254 63.623 0 34.7656 28.8086 63.5742 63.5742 63.5742Zm0-9.08203c-30.1758 0-54.4434-24.3164-54.4434-54.4922 0-30.2246 24.2188-54.4922 54.3945-54.4922 30.2246 0 54.541 24.2676 54.541 54.4922 0 30.1758-24.2676 54.4922-54.4922 54.4922Zm-28.8574-54.4922c0 2.58789 1.85547 4.39453 4.58984 4.39453h19.7266v19.7754c0 2.68555 1.85547 4.58984 4.44336 4.58984 2.68555 0 4.54102-1.85547 4.54102-4.58984v-19.7754h19.7754c2.68555 0 4.58984-1.80664 4.58984-4.39453 0-2.73438-1.85547-4.58984-4.58984-4.58984h-19.7754v-19.7266c0-2.73438-1.85547-4.63867-4.54102-4.63867-2.58789 0-4.44336 1.9043-4.44336 4.63867v19.7266h-19.7266c-2.73438 0-4.58984 1.85547-4.58984 4.58984Z"/>
  </g>
  <text style="stroke:none;fill:black;font-family:sans-serif;font-size:13;font-weight:bold;" transform="matrix(1 0 0 1 263 1953)">Design Variations</text>
  <text style="stroke:none;fill:black;font-family:sans-serif;font-size:13;" transform="matrix(1 0 0 1 263 1971)">Symbols are supported in up to nine weights and three scales.</text>
  <text style="stroke:none;fill:black;font-family:sans-serif;font-size:13;" transform="matrix(1 0 0 1 263 1989)">For optimal layout with text and other symbols, vertically align</text>
  <text style="stroke:none;fill:black;font-family:sans-serif;font-size:13;" transform="matrix(1 0 0 1 263 2007)">symbols with the adjacent text.</text>
  <line style="fill:none;stroke:#00AEEF;stroke-width:0.5;opacity:1.0;" x1="776" x2="776" y1="1919" y2="1933"/>
  <g transform="matrix(0.2 0 0 0.2 776 1933)">
   <path d="m16.5527 0.78125c2.58789 0 3.85742-0.976562 4.78516-3.71094l6.29883-17.2363h28.8086l6.29883 17.2363c0.927734 2.73438 2.19727 3.71094 4.73633 3.71094 2.58789 0 4.24805-1.5625 4.24805-4.00391 0-0.830078-0.146484-1.61133-0.537109-2.63672l-22.9004-60.9863c-1.12305-2.97852-3.125-4.49219-6.25-4.49219-3.02734 0-5.07812 1.46484-6.15234 4.44336l-22.9004 61.084c-0.390625 1.02539-0.537109 1.80664-0.537109 2.63672 0 2.44141 1.5625 3.95508 4.10156 3.95508Zm13.4766-28.3691 11.8652-32.8613h0.244141l11.8652 32.8613Z"/>
  </g>
  <line style="fill:none;stroke:#00AEEF;stroke-width:0.5;opacity:1.0;" x1="792.836" x2="792.836" y1="1919" y2="1933"/>
  <text style="stroke:none;fill:black;font-family:sans-serif;font-size:13;font-weight:bold;" transform="matrix(1 0 0 1 776 1953)">Margins</text>
  <text style="stroke:none;fill:black;font-family:sans-serif;font-size:13;" transform="matrix(1 0 0 1 776 1971)">Leading and trailing margins on the left and right side of each symbol</text>
  <text style="stroke:none;fill:black;font-family:sans-serif;font-size:13;" transform="matrix(1 0 0 1 776 1989)">can be adjusted by modifying the x-location of the margin guidelines.</text>
  <text style="stroke:none;fill:black;font-family:sans-serif;font-size:13;" transform="matrix(1 0 0 1 776 2007)">Modifications are automatically applied proportionally to all</text>
  <text style="stroke:none;fill:black;font-family:sans-serif;font-size:13;" transform="matrix(1 0 0 1 776 2025)">scales and weights.</text>
  <g transform="matrix(0.2 0 0 0.2 1289 1933)">
   <path d="m14.209 9.32617 8.49609 8.54492c4.29688 4.3457 9.22852 4.05273 13.8672-1.07422l53.4668-58.9355-4.83398-4.88281-53.0762 58.3984c-1.75781 2.00195-3.41797 2.49023-5.76172 0.146484l-5.85938-5.81055c-2.34375-2.29492-1.80664-4.00391 0.195312-5.81055l57.373-54.0039-4.88281-4.83398-57.959 54.4434c-4.93164 4.58984-5.32227 9.47266-1.02539 13.8184Zm32.0801-90.9668c-2.09961 2.05078-2.24609 4.93164-1.07422 6.88477 1.17188 1.80664 3.4668 2.97852 6.68945 2.14844 7.32422-1.70898 14.9414-2.00195 22.0703 2.68555l-2.92969 7.27539c-1.70898 4.15039-0.830078 7.08008 1.85547 9.81445l11.4746 11.5723c2.44141 2.44141 4.49219 2.53906 7.32422 2.05078l5.32227-0.976562 3.32031 3.36914-0.195312 2.7832c-0.195312 2.49023 0.439453 4.39453 2.88086 6.78711l3.80859 3.71094c2.39258 2.39258 5.46875 2.53906 7.8125 0.195312l14.5508-14.5996c2.34375-2.34375 2.24609-5.32227-0.146484-7.71484l-3.85742-3.80859c-2.39258-2.39258-4.24805-3.17383-6.64062-2.97852l-2.88086 0.244141-3.22266-3.17383 1.2207-5.61523c0.634766-2.83203-0.146484-5.0293-3.07617-7.95898l-10.9863-10.9375c-16.6992-16.6016-38.8672-16.2109-53.3203-1.75781Zm7.4707 1.85547c12.1582-8.88672 28.6133-7.37305 39.7461 3.75977l12.1582 12.0605c1.17188 1.17188 1.36719 2.09961 1.02539 3.80859l-1.61133 7.42188 7.51953 7.42188 4.93164-0.292969c1.26953-0.0488281 1.66016 0.0488281 2.63672 1.02539l2.88086 2.88086-12.207 12.207-2.88086-2.88086c-0.976562-0.976562-1.12305-1.36719-1.07422-2.68555l0.341797-4.88281-7.4707-7.42188-7.61719 1.26953c-1.61133 0.341797-2.34375 0.195312-3.56445-0.976562l-10.0098-10.0098c-1.26953-1.17188-1.41602-2.00195-0.634766-3.85742l4.39453-10.4492c-7.8125-7.27539-17.9688-10.4004-28.125-7.42188-0.78125 0.195312-1.07422-0.439453-0.439453-0.976562Z"/>
  </g>
  <text style="stroke:none;fill:black;font-family:sans-serif;font-size:13;font-weight:bold;" transform="matrix(1 0 0 1 1289 1953)">Exporting</text>
  <text style="stroke:none;fill:black;font-family:sans-serif;font-size:13;" transform="matrix(1 0 0 1 1289 1971)">Symbols should be outlined when exporting to ensure the</text>
  <text style="stroke:none;fill:black;font-family:sans-serif;font-size:13;" transform="matrix(1 0 0 1 1289 1989)">design is preserved when submitting to Xcode.</text>
  <text id="template-version" style="stroke:none;fill:black;font-family:sans-serif;font-size:13;text-anchor:end;" transform="matrix(1 0 0 1 3036 1933)">Template v.5.0</text>
  <text style="stroke:none;fill:black;font-family:sans-serif;font-size:13;text-anchor:end;" transform="matrix(1 0 0 1 3036 1951)">Requires Xcode 15 or greater</text>
  <text id="descriptive-name" style="stroke:none;fill:black;font-family:sans-serif;font-size:13;text-anchor:end;" transform="matrix(1 0 0 1 3036 1969)">Generated from ladybug</text>
  <text style="stroke:none;fill:black;font-family:sans-serif;font-size:13;text-anchor:end;" transform="matrix(1 0 0 1 3036 1987)">Typeset at 100.0 points</text>
  <text style="stroke:none;fill:black;font-family:sans-serif;font-size:13;" transform="matrix(1 0 0 1 263 726)">Small</text>
  <text style="stroke:none;fill:black;font-family:sans-serif;font-size:13;" transform="matrix(1 0 0 1 263 1156)">Medium</text>
  <text style="stroke:none;fill:black;font-family:sans-serif;font-size:13;" transform="matrix(1 0 0 1 263 1586)">Large</text>
 </g>
 <g id="Guides">
  <g id="H-reference" style="fill:#27AAE1;stroke:none;" transform="matrix(1 0 0 1 339 696)">
   <path d="M0.993654 0L3.63775 0L29.3281-67.1323L30.0303-67.1323L30.0303-70.459L28.1226-70.459ZM11.6885-24.4799L46.9815-24.4799L46.2315-26.7285L12.4385-26.7285ZM55.1196 0L57.7637 0L30.6382-70.459L29.4326-70.459L29.4326-67.1323Z"/>
  </g>
  <line id="Baseline-S" style="fill:none;stroke:#27AAE1;opacity:1;stroke-width:0.5;" x1="263" x2="3036" y1="696" y2="696"/>
  <line id="Capline-S" style="fill:none;stroke:#27AAE1;opacity:1;stroke-width:0.5;" x1="263" x2="3036" y1="625.541" y2="625.541"/>
  <g id="H-reference" style="fill:#27AAE1;stroke:none;" transform="matrix(1 0 0 1 339 1126)">
   <path d="M0.993654 0L3.63775 0L29.3281-67.1323L30.0303-67.1323L30.0303-70.459L28.1226-70.459ZM11.6885-24.4799L46.9815-24.4799L46.2315-26.7285L12.4385-26.7285ZM55.1196 0L57.7637 0L30.6382-70.459L29.4326-70.459L29.4326-67.1323Z"/>
  </g>
  <line id="Baseline-M" style="fill:none;stroke:#27AAE1;opacity:1;stroke-width:0.5;" x1="263" x2="3036" y1="1126" y2="1126"/>
  <line id="Capline-M" style="fill:none;stroke:#27AAE1;opacity:1;stroke-width:0.5;" x1="263" x2="3036" y1="1055.54" y2="1055.54"/>
  <g id="H-reference" style="fill:#27AAE1;stroke:none;" transform="matrix(1 0 0 1 339 1556)">
   <path d="M0.993654 0L3.63775 0L29.3281-67.1323L30.0303-67.1323L30.0303-70.459L28.1226-70.459ZM11.6885-24.4799L46.9815-24.4799L46.2315-26.7285L12.4385-26.7285ZM55.1196 0L57.7637 0L30.6382-70.459L29.4326-70.459L29.4326-67.1323Z"/>
  </g>
  <line id="Baseline-L" style="fill:none;stroke:#27AAE1;opacity:1;stroke-width:0.5;" x1="263" x2="3036" y1="1556" y2="1556"/>
  <line id="Capline-L" style="fill:none;stroke:#27AAE1;opacity:1;stroke-width:0.5;" x1="263" x2="3036" y1="1485.54" y2="1485.54"/>
  <line id="left-margin-Ultralight-S" style="fill:none;stroke:#00AEEF;stroke-width:0.5;opacity:1.0;" x1="509.56" x2="509.56" y1="600.785" y2="720.121"/>
  <line id="right-margin-Ultralight-S" style="fill:none;stroke:#00AEEF;stroke-width:0.5;opacity:1.0;" x1="609.863" x2="609.863" y1="600.785" y2="720.121"/>
  <line id="left-margin-Regular-S" style="fill:none;stroke:#00AEEF;stroke-width:0.5;opacity:1.0;" x1="1396.06" x2="1396.06" y1="600.785" y2="720.121"/>
  <line id="right-margin-Regular-S" style="fill:none;stroke:#00AEEF;stroke-width:0.5;opacity:1.0;" x1="1503.63" x2="1503.63" y1="600.785" y2="720.121"/>
  <line id="left-margin-Black-S" style="fill:none;stroke:#00AEEF;stroke-width:0.5;opacity:1.0;" x1="2875.73" x2="2875.73" y1="600.785" y2="720.121"/>
  <line id="right-margin-Black-S" style="fill:none;stroke:#00AEEF;stroke-width:0.5;opacity:1.0;" x1="2991.07" x2="2991.07" y1="600.785" y2="720.121"/>
 </g>
 <g id="Symbols">
  <g id="Black-S" transform="matrix(1 0 0 1 2875.73 696)">
   <path class="SFSymbolsPreviewWireframe" d="M57.666 14.7461C80.0781 14.7461 95.1172-0.585938 95.1172-23.4863C95.1172-35.7422 89.8926-48.291 81.25-56.3965C80.6152-68.457 71.582-75.5371 57.666-75.5371C43.75-75.5371 34.7168-68.457 34.082-56.3965C25.4395-48.291 20.2148-35.7422 20.2148-23.4863C20.2148-0.585938 35.2539 14.7461 57.666 14.7461ZM57.666-43.75C64.0625-43.75 70.8496-44.6777 76.416-46.2402C81.7871-39.8438 84.7656-31.7383 84.7656-23.4863C84.7656-6.68945 73.9746 4.39453 57.666 4.39453C41.3574 4.39453 30.5664-6.68945 30.5664-23.4863C30.5664-31.7383 33.5449-39.8438 38.916-46.2402C44.4824-44.6777 51.2695-43.75 57.666-43.75ZM53.7598 6.78711L61.5723 6.78711L61.5723-35.5957C61.5723-37.793 59.8633-39.502 57.666-39.502C55.4688-39.502 53.7598-37.793 53.7598-35.5957ZM44.9707-31.0547C48.2422-31.0547 50.9277-33.7402 50.9277-37.0117C50.9277-40.2832 48.2422-42.9688 44.9707-42.9688C41.748-42.9688 39.0625-40.2832 39.0625-37.0117C39.0625-33.7402 41.748-31.0547 44.9707-31.0547ZM40.1855-15.3809C43.8477-15.3809 46.875-18.4082 46.875-22.1191C46.875-25.7324 43.8477-28.7598 40.1855-28.7598C36.4746-28.7598 33.4473-25.7812 33.4473-22.1191C33.4473-18.4082 36.4746-15.3809 40.1855-15.3809ZM44.9707-1.9043C47.8516-1.9043 50.2441-4.24805 50.2441-7.12891C50.2441-10.0098 47.8516-12.4023 44.9707-12.4023C42.0898-12.4023 39.6973-10.0098 39.6973-7.12891C39.6973-4.24805 42.0898-1.9043 44.9707-1.9043ZM70.3613-31.0547C73.584-31.0547 76.2695-33.7402 76.2695-37.0117C76.2695-40.2832 73.584-42.9688 70.3613-42.9688C67.0898-42.9688 64.4043-40.2832 64.4043-37.0117C64.4043-33.7402 67.0898-31.0547 70.3613-31.0547ZM75.1465-15.3809C78.8574-15.3809 81.8848-18.4082 81.8848-22.1191C81.8848-25.7812 78.8574-28.7598 75.1465-28.7598C71.4844-28.7598 68.457-25.7324 68.457-22.1191C68.457-18.4082 71.4844-15.3809 75.1465-15.3809ZM70.3613-1.9043C73.2422-1.9043 75.6348-4.24805 75.6348-7.12891C75.6348-10.0098 73.2422-12.4023 70.3613-12.4023C67.4805-12.4023 65.0879-10.0098 65.0879-7.12891C65.0879-4.24805 67.4805-1.9043 70.3613-1.9043ZM39.9414-74.5605L41.9922-74.0234C43.1641-73.7305 43.2129-73.4375 43.1152-72.998L42.2363-69.3848L52.3926-69.4336L52.7344-72.6074C53.2715-77.6367 50.7324-81.3965 45.752-83.1055L43.0664-84.0332C36.5723-86.2793 33.3984-76.2695 39.9414-74.5605ZM75.3906-74.5605C81.9336-76.2695 78.7598-86.2793 72.2656-84.0332L69.5801-83.1055C64.5996-81.3965 62.0605-77.6367 62.5977-72.6074L62.9395-69.4336L73.0957-69.3848L72.2168-72.998C72.1191-73.4375 72.168-73.7305 73.3398-74.0234ZM36.084-47.7051L23.877-57.0312C21.2891-59.0332 18.3105-59.0332 16.4551-56.7871C14.5996-54.6387 14.9414-51.3672 17.4805-49.4141L29.7363-40.0879ZM26.6113-30.8594L15.1367-30.8105C11.9629-30.8105 9.76562-28.7109 9.76562-25.7324C9.76562-22.7539 11.9629-20.7031 15.1367-20.7031L26.6113-20.752ZM28.1738-5.95703L19.5801 1.31836C17.1387 3.41797 16.6992 6.5918 18.5547 8.83789C20.4102 11.084 23.584 11.1816 26.0254 9.08203L34.6191 1.80664ZM79.248-47.7051L85.5957-40.0879L97.8516-49.4141C100.391-51.3672 100.732-54.6387 98.877-56.7871C97.0215-59.0332 94.043-59.0332 91.4551-57.0312ZM88.7207-30.8594L88.7207-20.752L100.195-20.7031C103.369-20.7031 105.566-22.7539 105.566-25.7324C105.566-28.7109 103.369-30.8105 100.195-30.8105ZM87.1582-5.95703L80.7129 1.80664L89.3066 9.08203C91.748 11.1816 94.9219 11.084 96.7773 8.83789C98.6328 6.5918 98.1934 3.41797 95.752 1.31836Z"/>
  </g>
  <g id="Regular-S" transform="matrix(1 0 0 1 1396.06 696)">
   <path class="SFSymbolsPreviewWireframe" d="M53.8086 10.791C74.2676 10.791 87.8906-3.125 87.8906-24.1211C87.8906-35.791 82.8125-47.5586 74.4629-54.9805C74.3652-65.8203 66.3086-72.1191 53.8086-72.1191C41.2109-72.1191 33.2031-65.7715 33.1055-54.9805C24.8535-47.6074 19.6777-35.9375 19.6777-24.1211C19.6777-3.125 33.3496 10.791 53.8086 10.791ZM53.8086-45.3125C60.4004-45.3125 66.9434-46.5332 71.3379-48.4863C75.7812-43.7012 81.1035-35.3027 81.1035-24.1211C81.1035-7.27539 70.166 3.95508 53.8086 3.95508C37.4023 3.95508 26.5137-7.27539 26.5137-24.1211C26.5137-35.3027 31.7871-43.6523 36.2793-48.4863C40.625-46.5332 47.168-45.3125 53.8086-45.3125ZM50.7812 5.9082L56.4453 5.9082L56.4453-38.1348C56.4453-39.6973 55.1758-40.9668 53.6133-40.9668C52.0508-40.9668 50.7812-39.6973 50.7812-38.1348ZM41.6504-32.1289C44.3359-32.1289 46.4844-34.3262 46.4844-36.9629C46.4844-39.5996 44.3359-41.7969 41.6504-41.7969C39.0137-41.7969 36.8652-39.5996 36.8652-36.9629C36.8652-34.3262 39.0137-32.1289 41.6504-32.1289ZM37.1094-17.041C40.1855-17.041 42.7246-19.5801 42.7246-22.7051C42.7246-25.7812 40.1855-28.3203 37.1094-28.3203C33.9844-28.3203 31.4453-25.7812 31.4453-22.7051C31.4453-19.5801 33.9844-17.041 37.1094-17.041ZM41.6504-3.95508C44.1895-3.95508 46.1914-5.95703 46.1914-8.44727C46.1914-10.9863 44.1895-13.0371 41.6504-13.0371C39.1602-13.0371 37.1582-10.9863 37.1582-8.44727C37.1582-5.95703 39.1602-3.95508 41.6504-3.95508ZM65.918-32.1289C68.5547-32.1289 70.7031-34.3262 70.7031-36.9629C70.7031-39.5996 68.5547-41.7969 65.918-41.7969C63.2324-41.7969 61.084-39.5996 61.084-36.9629C61.084-34.3262 63.2324-32.1289 65.918-32.1289ZM70.459-17.041C73.584-17.041 76.123-19.5801 76.123-22.7051C76.123-25.7812 73.584-28.3203 70.459-28.3203C67.3828-28.3203 64.8438-25.7812 64.8438-22.7051C64.8438-19.5801 67.3828-17.041 70.459-17.041ZM65.918-3.95508C68.4082-3.95508 70.459-5.95703 70.459-8.44727C70.459-10.9863 68.4082-13.0371 65.918-13.0371C63.4277-13.0371 61.377-10.9863 61.377-8.44727C61.377-5.95703 63.4277-3.95508 65.918-3.95508ZM37.207-74.0723L39.3066-73.4375C41.0156-72.9492 41.6992-72.0703 41.3574-70.7031L40.918-68.9941L47.3145-69.043L47.5098-70.8496C47.9492-74.8535 46.0449-77.832 41.9922-79.1992L39.3066-80.127C35.0098-81.543 32.959-75.2441 37.207-74.0723ZM70.3613-74.0723C74.6094-75.2441 72.5586-81.543 68.2617-80.127L65.5762-79.1992C61.5234-77.832 59.6191-74.8535 60.0586-70.8496L60.3027-69.043L66.6504-68.9941L66.2109-70.7031C65.918-72.0703 66.5527-72.9492 68.2617-73.4375ZM29.8828-47.5586L22.8027-53.6133C21.1914-54.9805 19.1406-55.127 17.8223-53.5156C16.5039-52.002 16.9922-49.8535 18.5547-48.5352L25.6836-42.4805ZM22.8516-29.6387L13.3301-29.5898C11.1816-29.5898 9.76562-28.2715 9.76562-26.2695C9.76562-24.3164 11.1816-22.998 13.3301-22.998L22.8516-23.0469ZM25.6348-7.22656L18.5059-1.17188C16.9434 0.146484 16.4551 2.24609 17.7734 3.80859C19.0918 5.41992 21.1426 5.22461 22.7539 3.85742L29.834-2.14844ZM77.6855-47.5586L81.8848-42.4805L89.0137-48.5352C90.5762-49.8535 91.1133-52.002 89.7949-53.5156C88.4766-55.127 86.377-54.9805 84.7656-53.6133ZM84.7168-29.6387L84.7168-23.0469L94.2383-22.998C96.3867-22.998 97.8027-24.3164 97.8027-26.2695C97.8027-28.2715 96.3867-29.5898 94.2383-29.5898ZM81.9336-7.22656L77.7344-2.19727L84.8145 3.85742C86.4258 5.22461 88.4766 5.41992 89.7949 3.80859C91.1133 2.24609 90.625 0.146484 89.0625-1.17188Z"/>
  </g>
  <g id="Ultralight-S" transform="matrix(1 0 0 1 509.56 696)">
   <path class="SFSymbolsPreviewWireframe" d="M50.1304 7.24905C68.9546 7.24905 81.4424-5.94041 81.4424-25.8467C81.4424-36.4722 76.5459-47.9219 69.4224-53.709C69.4156-63.3682 61.2681-70.2119 50.1304-70.2119C39.0313-70.2119 30.8872-63.3648 30.8804-53.709C23.4458-47.5166 18.8604-36.5732 18.8604-25.8467C18.8604-5.94041 31.3062 7.24905 50.1304 7.24905ZM50.1304-47.2197C57.4033-47.2197 64.8091-48.8491 69.249-50.8022C75.1455-45.2451 79.1963-35.2119 79.1963-25.8467C79.1963-7.3208 67.5777 5.04491 50.1304 5.04491C32.7251 5.04491 21.0645-7.3208 21.0645-25.8467C21.0645-35.1211 24.7486-44.8784 31.0118-50.8022C35.4937-48.8945 42.8994-47.2197 50.1304-47.2197ZM49.0557 5.63574L51.1778 5.63574L51.1778-39.8603C51.1778-40.4238 50.7256-40.9214 50.1167-40.9214C49.5532-40.9214 49.0557-40.4238 49.0557-39.8603ZM37.5181-32.9463C40.1582-32.9463 42.3067-35.1435 42.3067-37.7803C42.3067-40.417 40.2036-42.5688 37.5181-42.5688C34.9268-42.5688 32.7784-40.417 32.7784-37.7803C32.7784-35.189 34.9268-32.9463 37.5181-32.9463ZM32.9317-17.3135C36.0078-17.3135 38.5015-19.8071 38.5015-22.9321C38.5015-26.0083 36.0078-28.502 32.9317-28.502C29.8521-28.502 27.3584-26.0083 27.3584-22.9321C27.3584-19.8071 29.8521-17.3135 32.9317-17.3135ZM37.5181-4.5C39.7847-4.5 41.605-6.2749 41.605-8.5835C41.605-10.8501 39.7847-12.6284 37.5181-12.6284C35.2549-12.6284 33.4346-10.8501 33.4346-8.5835C33.4346-6.2749 35.2549-4.5 37.5181-4.5ZM62.7393-32.9463C65.3306-32.9463 67.479-35.189 67.479-37.7803C67.479-40.417 65.3306-42.5688 62.7393-42.5688C60.0537-42.5688 57.9961-40.417 57.9961-37.7803C57.9961-35.1435 60.1446-32.9463 62.7393-32.9463ZM67.3711-17.3135C70.4053-17.3135 72.899-19.8071 72.899-22.9321C72.899-26.0083 70.4053-28.502 67.3711-28.502C64.2949-28.502 61.8013-26.0083 61.8013-22.9321C61.8013-19.8071 64.2949-17.3135 67.3711-17.3135ZM62.7393-4.5C65.0025-4.5 66.8262-6.2749 66.8262-8.5835C66.8262-10.8501 65.0025-12.6284 62.7393-12.6284C60.5215-12.6284 58.6978-10.8501 58.6978-8.5835C58.6978-6.2749 60.5215-4.5 62.7393-4.5ZM32.1211-74.9351L36.8545-72.5293C38.3819-71.7232 38.9292-70.7988 38.6782-69.2954L38.2388-66.4512L40.3668-66.4546L40.8345-69.0786C41.274-71.4478 40.2325-73.064 37.7691-74.3858L33.0401-76.9029C31.6494-77.6377 30.8247-75.562 32.1211-74.9351ZM68.1817-74.9351C69.4781-75.562 68.6079-77.6377 67.2627-76.9029L62.5337-74.3858C60.0249-73.064 59.0288-71.4478 59.4683-69.0786L59.9395-66.4546L62.064-66.4512L61.6245-69.2954C61.377-70.7988 61.9209-71.7232 63.4483-72.5293ZM26.5679-48.1489L19.2608-54.0674C18.6939-54.5718 17.8692-54.5366 17.4136-53.9243C16.958-53.3188 17.083-52.6235 17.7373-52.1679L25.2749-46.0678ZM19.8545-29.3662L11.0142-29.4082C10.2734-29.4082 9.76562-28.9072 9.76562-28.1767C9.76562-27.3589 10.2734-26.9033 11.0596-26.9033L19.8545-26.9067ZM24.2725-7.09033L17.1436-1.35351C16.5347-0.807121 16.4097-0.206035 16.9561 0.402859C17.3662 1.06058 18.1455 1.04691 18.7578 0.542507L25.7925-5.05466ZM73.5533-48.0581L74.9371-45.9316L82.5655-52.1679C83.1744-52.6235 83.3028-53.3188 82.8926-53.9243C82.3916-54.5366 81.6089-54.5718 80.9966-54.0674ZM80.4937-29.3662L80.4937-26.9067L89.2432-26.9033C90.0293-26.9033 90.5372-27.3589 90.5372-28.1767C90.5372-28.9072 90.0293-29.4082 89.2886-29.4082ZM75.8487-7.22656L74.4195-5.1489L81.4995 0.542507C82.1573 1.04691 82.8912 1.06058 83.3467 0.402859C83.8931-0.206035 83.7681-0.807121 83.1138-1.35351Z"/>
  </g>
 </g>
</svg>
