<?xml version="1.0" encoding="UTF-8"?>
<!--Generator: Apple Native CoreSVG 232.5-->
<!DOCTYPE svg
PUBLIC "-//W3C//DTD SVG 1.1//EN"
       "http://www.w3.org/Graphics/SVG/1.1/DTD/svg11.dtd">
<svg version="1.1" xmlns="http://www.w3.org/2000/svg" xmlns:xlink="http://www.w3.org/1999/xlink" width="3300" height="2200">
 <!--glyph: "uni10205D.medium", point size: 100.0, font version: "19.2d2e1", template writer version: "128"-->
 <style>.SFSymbolsPreviewWireframe {fill:none;opacity:1.0;stroke:black;stroke-width:0.5}
</style>
 <g id="Notes">
  <rect height="2200" id="artboard" style="fill:white;opacity:1" width="3300" x="0" y="0"/>
  <line style="fill:none;stroke:black;opacity:1;stroke-width:0.5;" x1="263" x2="3036" y1="292" y2="292"/>
  <text style="stroke:none;fill:black;font-family:sans-serif;font-size:13;font-weight:bold;" transform="matrix(1 0 0 1 263 322)">Weight/Scale Variations</text>
  <text style="stroke:none;fill:black;font-family:sans-serif;font-size:13;text-anchor:middle;" transform="matrix(1 0 0 1 559.711 322)">Ultralight</text>
  <text style="stroke:none;fill:black;font-family:sans-serif;font-size:13;text-anchor:middle;" transform="matrix(1 0 0 1 856.422 322)">Thin</text>
  <text style="stroke:none;fill:black;font-family:sans-serif;font-size:13;text-anchor:middle;" transform="matrix(1 0 0 1 1153.13 322)">Light</text>
  <text style="stroke:none;fill:black;font-family:sans-serif;font-size:13;text-anchor:middle;" transform="matrix(1 0 0 1 1449.84 322)">Regular</text>
  <text style="stroke:none;fill:black;font-family:sans-serif;font-size:13;text-anchor:middle;" transform="matrix(1 0 0 1 1746.56 322)">Medium</text>
  <text style="stroke:none;fill:black;font-family:sans-serif;font-size:13;text-anchor:middle;" transform="matrix(1 0 0 1 2043.27 322)">Semibold</text>
  <text style="stroke:none;fill:black;font-family:sans-serif;font-size:13;text-anchor:middle;" transform="matrix(1 0 0 1 2339.98 322)">Bold</text>
  <text style="stroke:none;fill:black;font-family:sans-serif;font-size:13;text-anchor:middle;" transform="matrix(1 0 0 1 2636.69 322)">Heavy</text>
  <text style="stroke:none;fill:black;font-family:sans-serif;font-size:13;text-anchor:middle;" transform="matrix(1 0 0 1 2933.4 322)">Black</text>
  <line style="fill:none;stroke:black;opacity:1;stroke-width:0.5;" x1="263" x2="3036" y1="1903" y2="1903"/>
  <g transform="matrix(0.2 0 0 0.2 263 1933)">
   <path d="m46.2402 4.15039c21.5332 0 39.4531-17.8711 39.4531-39.4043s-17.9688-39.4043-39.502-39.4043c-21.4844 0-39.3555 17.8711-39.3555 39.4043s17.9199 39.4043 39.4043 39.4043Zm0-7.42188c-17.7246 0-31.8848-14.209-31.8848-31.9824s14.1113-31.9824 31.8359-31.9824c17.7734 0 32.0312 14.209 32.0312 31.9824s-14.209 31.9824-31.9824 31.9824Zm-17.9688-31.9824c0 2.14844 1.51367 3.61328 3.75977 3.61328h10.498v10.5957c0 2.19727 1.46484 3.71094 3.61328 3.71094 2.24609 0 3.71094-1.51367 3.71094-3.71094v-10.5957h10.5957c2.19727 0 3.71094-1.46484 3.71094-3.61328 0-2.19727-1.51367-3.71094-3.71094-3.71094h-10.5957v-10.5469c0-2.24609-1.46484-3.75977-3.71094-3.75977-2.14844 0-3.61328 1.51367-3.61328 3.75977v10.5469h-10.498c-2.24609 0-3.75977 1.51367-3.75977 3.71094Z"/>
  </g>
  <g transform="matrix(0.2 0 0 0.2 281.506 1933)">
   <path d="m58.5449 14.5508c27.2461 0 49.8047-22.6074 49.8047-49.8047 0-27.2461-22.6074-49.8047-49.8535-49.8047-27.1973 0-49.7559 22.5586-49.7559 49.8047 0 27.1973 22.6074 49.8047 49.8047 49.8047Zm0-8.30078c-23.0469 0-41.4551-18.457-41.4551-41.5039s18.3594-41.5039 41.4062-41.5039 41.5527 18.457 41.5527 41.5039-18.457 41.5039-41.5039 41.5039Zm-22.6562-41.5039c0 2.39258 1.66016 4.00391 4.15039 4.00391h14.3555v14.4043c0 2.44141 1.66016 4.15039 4.05273 4.15039 2.44141 0 4.15039-1.66016 4.15039-4.15039v-14.4043h14.4043c2.44141 0 4.15039-1.61133 4.15039-4.00391 0-2.44141-1.70898-4.15039-4.15039-4.15039h-14.4043v-14.3555c0-2.49023-1.70898-4.19922-4.15039-4.19922-2.39258 0-4.05273 1.70898-4.05273 4.19922v14.3555h-14.3555c-2.49023 0-4.15039 1.70898-4.15039 4.15039Z"/>
  </g>
  <g transform="matrix(0.2 0 0 0.2 304.924 1933)">
   <path d="m74.8535 28.3203c34.8145 0 63.623-28.8086 63.623-63.5742 0-34.8145-28.8574-63.623-63.6719-63.623-34.7656 0-63.5254 28.8086-63.5254 63.623 0 34.7656 28.8086 63.5742 63.5742 63.5742Zm0-9.08203c-30.1758 0-54.4434-24.3164-54.4434-54.4922 0-30.2246 24.2188-54.4922 54.3945-54.4922 30.2246 0 54.541 24.2676 54.541 54.4922 0 30.1758-24.2676 54.4922-54.4922 54.4922Zm-28.8574-54.4922c0 2.58789 1.85547 4.39453 4.58984 4.39453h19.7266v19.7754c0 2.68555 1.85547 4.58984 4.44336 4.58984 2.68555 0 4.54102-1.85547 4.54102-4.58984v-19.7754h19.7754c2.68555 0 4.58984-1.80664 4.58984-4.39453 0-2.73438-1.85547-4.58984-4.58984-4.58984h-19.7754v-19.7266c0-2.73438-1.85547-4.63867-4.54102-4.63867-2.58789 0-4.44336 1.9043-4.44336 4.63867v19.7266h-19.7266c-2.73438 0-4.58984 1.85547-4.58984 4.58984Z"/>
  </g>
  <text style="stroke:none;fill:black;font-family:sans-serif;font-size:13;font-weight:bold;" transform="matrix(1 0 0 1 263 1953)">Design Variations</text>
  <text style="stroke:none;fill:black;font-family:sans-serif;font-size:13;" transform="matrix(1 0 0 1 263 1971)">Symbols are supported in up to nine weights and three scales.</text>
  <text style="stroke:none;fill:black;font-family:sans-serif;font-size:13;" transform="matrix(1 0 0 1 263 1989)">For optimal layout with text and other symbols, vertically align</text>
  <text style="stroke:none;fill:black;font-family:sans-serif;font-size:13;" transform="matrix(1 0 0 1 263 2007)">symbols with the adjacent text.</text>
  <line style="fill:none;stroke:#00AEEF;stroke-width:0.5;opacity:1.0;" x1="776" x2="776" y1="1919" y2="1933"/>
  <g transform="matrix(0.2 0 0 0.2 776 1933)">
   <path d="m16.5527 0.78125c2.58789 0 3.85742-0.976562 4.78516-3.71094l6.29883-17.2363h28.8086l6.29883 17.2363c0.927734 2.73438 2.19727 3.71094 4.73633 3.71094 2.58789 0 4.24805-1.5625 4.24805-4.00391 0-0.830078-0.146484-1.61133-0.537109-2.63672l-22.9004-60.9863c-1.12305-2.97852-3.125-4.49219-6.25-4.49219-3.02734 0-5.07812 1.46484-6.15234 4.44336l-22.9004 61.084c-0.390625 1.02539-0.537109 1.80664-0.537109 2.63672 0 2.44141 1.5625 3.95508 4.10156 3.95508Zm13.4766-28.3691 11.8652-32.8613h0.244141l11.8652 32.8613Z"/>
  </g>
  <line style="fill:none;stroke:#00AEEF;stroke-width:0.5;opacity:1.0;" x1="792.836" x2="792.836" y1="1919" y2="1933"/>
  <text style="stroke:none;fill:black;font-family:sans-serif;font-size:13;font-weight:bold;" transform="matrix(1 0 0 1 776 1953)">Margins</text>
  <text style="stroke:none;fill:black;font-family:sans-serif;font-size:13;" transform="matrix(1 0 0 1 776 1971)">Leading and trailing margins on the left and right side of each symbol</text>
  <text style="stroke:none;fill:black;font-family:sans-serif;font-size:13;" transform="matrix(1 0 0 1 776 1989)">can be adjusted by modifying the x-location of the margin guidelines.</text>
  <text style="stroke:none;fill:black;font-family:sans-serif;font-size:13;" transform="matrix(1 0 0 1 776 2007)">Modifications are automatically applied proportionally to all</text>
  <text style="stroke:none;fill:black;font-family:sans-serif;font-size:13;" transform="matrix(1 0 0 1 776 2025)">scales and weights.</text>
  <g transform="matrix(0.2 0 0 0.2 1289 1933)">
   <path d="m14.209 9.32617 8.49609 8.54492c4.29688 4.3457 9.22852 4.05273 13.8672-1.07422l53.4668-58.9355-4.83398-4.88281-53.0762 58.3984c-1.75781 2.00195-3.41797 2.49023-5.76172 0.146484l-5.85938-5.81055c-2.34375-2.29492-1.80664-4.00391 0.195312-5.81055l57.373-54.0039-4.88281-4.83398-57.959 54.4434c-4.93164 4.58984-5.32227 9.47266-1.02539 13.8184Zm32.0801-90.9668c-2.09961 2.05078-2.24609 4.93164-1.07422 6.88477 1.17188 1.80664 3.4668 2.97852 6.68945 2.14844 7.32422-1.70898 14.9414-2.00195 22.0703 2.68555l-2.92969 7.27539c-1.70898 4.15039-0.830078 7.08008 1.85547 9.81445l11.4746 11.5723c2.44141 2.44141 4.49219 2.53906 7.32422 2.05078l5.32227-0.976562 3.32031 3.36914-0.195312 2.7832c-0.195312 2.49023 0.439453 4.39453 2.88086 6.78711l3.80859 3.71094c2.39258 2.39258 5.46875 2.53906 7.8125 0.195312l14.5508-14.5996c2.34375-2.34375 2.24609-5.32227-0.146484-7.71484l-3.85742-3.80859c-2.39258-2.39258-4.24805-3.17383-6.64062-2.97852l-2.88086 0.244141-3.22266-3.17383 1.2207-5.61523c0.634766-2.83203-0.146484-5.0293-3.07617-7.95898l-10.9863-10.9375c-16.6992-16.6016-38.8672-16.2109-53.3203-1.75781Zm7.4707 1.85547c12.1582-8.88672 28.6133-7.37305 39.7461 3.75977l12.1582 12.0605c1.17188 1.17188 1.36719 2.09961 1.02539 3.80859l-1.61133 7.42188 7.51953 7.42188 4.93164-0.292969c1.26953-0.0488281 1.66016 0.0488281 2.63672 1.02539l2.88086 2.88086-12.207 12.207-2.88086-2.88086c-0.976562-0.976562-1.12305-1.36719-1.07422-2.68555l0.341797-4.88281-7.4707-7.42188-7.61719 1.26953c-1.61133 0.341797-2.34375 0.195312-3.56445-0.976562l-10.0098-10.0098c-1.26953-1.17188-1.41602-2.00195-0.634766-3.85742l4.39453-10.4492c-7.8125-7.27539-17.9688-10.4004-28.125-7.42188-0.78125 0.195312-1.07422-0.439453-0.439453-0.976562Z"/>
  </g>
  <text style="stroke:none;fill:black;font-family:sans-serif;font-size:13;font-weight:bold;" transform="matrix(1 0 0 1 1289 1953)">Exporting</text>
  <text style="stroke:none;fill:black;font-family:sans-serif;font-size:13;" transform="matrix(1 0 0 1 1289 1971)">Symbols should be outlined when exporting to ensure the</text>
  <text style="stroke:none;fill:black;font-family:sans-serif;font-size:13;" transform="matrix(1 0 0 1 1289 1989)">design is preserved when submitting to Xcode.</text>
  <text id="template-version" style="stroke:none;fill:black;font-family:sans-serif;font-size:13;text-anchor:end;" transform="matrix(1 0 0 1 3036 1933)">Template v.5.0</text>
  <text style="stroke:none;fill:black;font-family:sans-serif;font-size:13;text-anchor:end;" transform="matrix(1 0 0 1 3036 1951)">Requires Xcode 15 or greater</text>
  <text id="descriptive-name" style="stroke:none;fill:black;font-family:sans-serif;font-size:13;text-anchor:end;" transform="matrix(1 0 0 1 3036 1969)">Generated from laser.burst</text>
  <text style="stroke:none;fill:black;font-family:sans-serif;font-size:13;text-anchor:end;" transform="matrix(1 0 0 1 3036 1987)">Typeset at 100.0 points</text>
  <text style="stroke:none;fill:black;font-family:sans-serif;font-size:13;" transform="matrix(1 0 0 1 263 726)">Small</text>
  <text style="stroke:none;fill:black;font-family:sans-serif;font-size:13;" transform="matrix(1 0 0 1 263 1156)">Medium</text>
  <text style="stroke:none;fill:black;font-family:sans-serif;font-size:13;" transform="matrix(1 0 0 1 263 1586)">Large</text>
 </g>
 <g id="Guides">
  <g id="H-reference" style="fill:#27AAE1;stroke:none;" transform="matrix(1 0 0 1 339 696)">
   <path d="M0.993654 0L3.63775 0L29.3281-67.1323L30.0303-67.1323L30.0303-70.459L28.1226-70.459ZM11.6885-24.4799L46.9815-24.4799L46.2315-26.7285L12.4385-26.7285ZM55.1196 0L57.7637 0L30.6382-70.459L29.4326-70.459L29.4326-67.1323Z"/>
  </g>
  <line id="Baseline-S" style="fill:none;stroke:#27AAE1;opacity:1;stroke-width:0.5;" x1="263" x2="3036" y1="696" y2="696"/>
  <line id="Capline-S" style="fill:none;stroke:#27AAE1;opacity:1;stroke-width:0.5;" x1="263" x2="3036" y1="625.541" y2="625.541"/>
  <g id="H-reference" style="fill:#27AAE1;stroke:none;" transform="matrix(1 0 0 1 339 1126)">
   <path d="M0.993654 0L3.63775 0L29.3281-67.1323L30.0303-67.1323L30.0303-70.459L28.1226-70.459ZM11.6885-24.4799L46.9815-24.4799L46.2315-26.7285L12.4385-26.7285ZM55.1196 0L57.7637 0L30.6382-70.459L29.4326-70.459L29.4326-67.1323Z"/>
  </g>
  <line id="Baseline-M" style="fill:none;stroke:#27AAE1;opacity:1;stroke-width:0.5;" x1="263" x2="3036" y1="1126" y2="1126"/>
  <line id="Capline-M" style="fill:none;stroke:#27AAE1;opacity:1;stroke-width:0.5;" x1="263" x2="3036" y1="1055.54" y2="1055.54"/>
  <g id="H-reference" style="fill:#27AAE1;stroke:none;" transform="matrix(1 0 0 1 339 1556)">
   <path d="M0.993654 0L3.63775 0L29.3281-67.1323L30.0303-67.1323L30.0303-70.459L28.1226-70.459ZM11.6885-24.4799L46.9815-24.4799L46.2315-26.7285L12.4385-26.7285ZM55.1196 0L57.7637 0L30.6382-70.459L29.4326-70.459L29.4326-67.1323Z"/>
  </g>
  <line id="Baseline-L" style="fill:none;stroke:#27AAE1;opacity:1;stroke-width:0.5;" x1="263" x2="3036" y1="1556" y2="1556"/>
  <line id="Capline-L" style="fill:none;stroke:#27AAE1;opacity:1;stroke-width:0.5;" x1="263" x2="3036" y1="1485.54" y2="1485.54"/>
  <line id="left-margin-Ultralight-S" style="fill:none;stroke:#00AEEF;stroke-width:0.5;opacity:1.0;" x1="507.698" x2="507.698" y1="600.785" y2="720.121"/>
  <line id="right-margin-Ultralight-S" style="fill:none;stroke:#00AEEF;stroke-width:0.5;opacity:1.0;" x1="611.724" x2="611.724" y1="600.785" y2="720.121"/>
  <line id="left-margin-Regular-S" style="fill:none;stroke:#00AEEF;stroke-width:0.5;opacity:1.0;" x1="1393.79" x2="1393.79" y1="600.785" y2="720.121"/>
  <line id="right-margin-Regular-S" style="fill:none;stroke:#00AEEF;stroke-width:0.5;opacity:1.0;" x1="1505.9" x2="1505.9" y1="600.785" y2="720.121"/>
  <line id="left-margin-Black-S" style="fill:none;stroke:#00AEEF;stroke-width:0.5;opacity:1.0;" x1="2873.54" x2="2873.54" y1="600.785" y2="720.121"/>
  <line id="right-margin-Black-S" style="fill:none;stroke:#00AEEF;stroke-width:0.5;opacity:1.0;" x1="2993.26" x2="2993.26" y1="600.785" y2="720.121"/>
 </g>
 <g id="Symbols">
  <g id="Black-S" transform="matrix(1 0 0 1 2873.54 696)">
   <path class="SFSymbolsPreviewWireframe" d="M14.6484-40.1367C11.9141-40.1367 9.76562-37.9883 9.76562-35.2539C9.76562-32.5195 11.9141-30.3711 14.6484-30.3711L105.078-30.3711C107.812-30.3711 109.961-32.5195 109.961-35.2539C109.961-37.9883 107.812-40.1367 105.078-40.1367ZM64.7461-80.4688C64.7461-83.2031 62.5977-85.3516 59.8633-85.3516C57.1289-85.3516 54.9805-83.2031 54.9805-80.4688L54.9805 9.96094C54.9805 12.6953 57.1289 14.8438 59.8633 14.8438C62.5977 14.8438 64.7461 12.6953 64.7461 9.96094ZM79.3945-69.6289C80.4199-72.168 79.248-74.9512 76.7578-75.9766C74.2676-76.9531 71.3867-75.8789 70.3613-73.3887L40.332-0.878906C39.3066 1.66016 40.4785 4.44336 42.9688 5.46875C45.5078 6.44531 48.3398 5.37109 49.3652 2.88086ZM99.3652-67.9688C101.318-69.8242 101.318-72.8516 99.3652-74.7559C97.5098-76.6602 94.4336-76.6602 92.5781-74.7559L20.3125-2.58789C18.3594-0.683594 18.457 2.34375 20.4102 4.19922C22.2168 6.10352 25.293 6.20117 27.1973 4.24805ZM98.0469-45.752C100.537-46.7773 101.562-49.6582 100.537-52.0996C99.5605-54.5898 96.7773-55.7617 94.2383-54.7363L21.6797-24.7559C19.1895-23.7305 18.1641-20.8984 19.1895-18.4082C20.166-15.918 22.9492-14.7461 25.4883-15.7715ZM94.2383-15.7227C96.6797-14.6973 99.4629-15.918 100.586-18.4082C101.562-20.8984 100.391-23.6816 97.9004-24.707L25.4883-54.7852C23.0469-55.8105 20.2637-54.5898 19.1406-52.0996C18.1641-49.6094 19.3359-46.8262 21.8262-45.8008ZM92.5781 4.24805C94.4824 6.20117 97.4609 6.20117 99.3652 4.19922C101.27 2.39258 101.318-0.634766 99.3652-2.53906L27.1973-74.8047C25.293-76.7578 22.2656-76.6602 20.4102-74.7559C18.5059-72.9004 18.4082-69.873 20.3613-67.9688ZM70.3613 2.92969C71.3867 5.41992 74.2676 6.44531 76.709 5.41992C79.1992 4.44336 80.3711 1.70898 79.3457-0.830078L49.3652-73.4375C48.3398-75.9277 45.5078-76.9531 43.0176-75.9277C40.5273-74.9512 39.3555-72.2168 40.3809-69.6777Z"/>
  </g>
  <g id="Regular-S" transform="matrix(1 0 0 1 1393.79 696)">
   <path class="SFSymbolsPreviewWireframe" d="M12.8418-38.3301C11.1328-38.3301 9.76562-36.9629 9.76562-35.2539C9.76562-33.5449 11.1328-32.1777 12.8418-32.1777L99.3164-32.1777C101.025-32.1777 102.344-33.5449 102.344-35.2539C102.344-36.9629 101.025-38.3301 99.3164-38.3301ZM59.1309-78.5156C59.1309-80.2246 57.7637-81.543 56.0547-81.543C54.3457-81.543 53.0273-80.2246 53.0273-78.5156L53.0273 8.00781C53.0273 9.66797 54.3457 11.0352 56.0547 11.0352C57.7637 11.0352 59.1309 9.66797 59.1309 8.00781ZM73.877-70.2148C74.5117-71.8262 73.7305-73.584 72.2168-74.2188C70.6055-74.8047 68.8477-74.0723 68.2129-72.5586L38.2324-0.292969C37.6465 1.31836 38.3789 3.07617 39.8926 3.71094C41.5527 4.29688 43.2617 3.56445 43.9453 2.05078ZM94.2383-69.0918C95.4102-70.2637 95.3613-72.168 94.1895-73.3887C92.9688-74.5605 91.0645-74.5117 89.8926-73.3887L17.8711-1.41602C16.748-0.244141 16.748 1.66016 17.9199 2.88086C19.1406 4.05273 21.0449 4.00391 22.2656 2.88086ZM93.4082-47.3633C94.873-48.0469 95.6055-49.7559 94.9707-51.3672C94.3848-52.9297 92.627-53.6133 91.0156-53.0273L18.7012-23.1445C17.2363-22.4609 16.5039-20.752 17.1387-19.1406C17.7246-17.5781 19.5312-16.8945 21.0938-17.4805ZM91.0156-17.4316C92.627-16.8457 94.3359-17.5781 95.0195-19.1406C95.6055-20.752 94.9219-22.4121 93.3105-23.0957L21.0938-53.0762C19.5312-53.6621 17.7734-52.9297 17.0898-51.3672C16.5039-49.7559 17.1875-48.0957 18.7988-47.4121ZM89.8926 2.92969C91.0645 4.05273 92.9688 4.05273 94.1895 2.88086C95.3613 1.66016 95.3613-0.146484 94.1895-1.36719L22.2656-73.4375C21.0449-74.5605 19.1406-74.5605 17.9199-73.3887C16.748-72.168 16.748-70.3613 17.9199-69.1406ZM68.2129 2.09961C68.8477 3.61328 70.6543 4.29688 72.168 3.66211C73.7305 3.07617 74.4629 1.26953 73.8281-0.244141L43.9453-72.6074C43.2617-74.1211 41.5039-74.8047 39.9414-74.1699C38.3789-73.584 37.6953-71.875 38.2812-70.2637Z"/>
  </g>
  <g id="Ultralight-S" transform="matrix(1 0 0 1 507.698 696)">
   <path class="SFSymbolsPreviewWireframe" d="M10.8438-36.332C10.27-36.332 9.76562-35.8276 9.76562-35.2539C9.76562-34.6802 10.27-34.1758 10.8438-34.1758L93.2315-34.1758C93.8506-34.1758 94.2608-34.6802 94.2608-35.2539C94.2608-35.8276 93.8506-36.332 93.2315-36.332ZM53.0914-76.4722C53.0914-77.0459 52.6324-77.5015 52.0132-77.5015C51.4395-77.5015 50.9385-77.0459 50.9385-76.4722L50.9385 5.91896C50.9385 6.48928 51.4395 6.99368 52.0132 6.99368C52.6324 6.99368 53.0914 6.48928 53.0914 5.91896ZM67.2925-69.2612C67.5186-69.7827 67.2369-70.4053 66.6768-70.6314C66.1553-70.854 65.4873-70.6211 65.3067-70.1065L36.7339-1.24657C36.5112-0.725082 36.7896-0.102514 37.3496 0.123563C37.8745 0.346223 38.5391 0.0678986 38.814-0.492167ZM87.1089-68.8193C87.4634-69.1738 87.4146-69.8521 87.0601-70.3008C86.6114-70.6553 86.024-70.6519 85.5786-70.3008L16.9629-1.73388C16.5664-1.33398 16.6118-0.655743 17.0117-0.207007C17.4151 0.147492 18.0933 0.144073 18.4966-0.207007ZM86.8692-48.5439C87.3804-48.728 87.6133-49.3472 87.3419-49.8687C87.1646-50.4321 86.542-50.7071 86.0205-50.4844L17.2026-22.0093C16.6914-21.7798 16.4131-21.1606 16.6846-20.6391C16.9072-20.0757 17.4878-19.8008 18.0513-20.0234ZM86.0205-19.9746C86.542-19.7519 87.2066-20.0757 87.3907-20.6391C87.6133-21.1606 87.3384-21.7764 86.8169-21.9605L18.0513-50.5332C17.4878-50.7559 16.9107-50.4321 16.6357-49.8233C16.4131-49.3472 16.688-48.7769 17.2095-48.5474ZM85.5786-0.158179C85.9786 0.192901 86.6114 0.147492 87.0601-0.207007C87.4146-0.655743 87.4146-1.28173 87.0601-1.68506L18.4966-70.3496C18.0933-70.7007 17.4151-70.6553 17.0117-70.3008C16.6118-69.8521 16.6118-69.2261 17.0117-68.8228ZM65.3067-0.39793C65.4873 0.116727 66.1133 0.346223 66.628 0.0747353C67.1915-0.147924 67.4698-0.68309 67.2437-1.19775L38.814-70.0645C38.5391-70.5791 37.9165-70.854 37.3985-70.5825C36.835-70.3599 36.5601-69.8316 36.7827-69.3101Z"/>
  </g>
 </g>
</svg>
