<?xml version="1.0" encoding="UTF-8"?>
<!--Generator: Apple Native CoreSVG 232.5-->
<!DOCTYPE svg
PUBLIC "-//W3C//DTD SVG 1.1//EN"
       "http://www.w3.org/Graphics/SVG/1.1/DTD/svg11.dtd">
<svg version="1.1" xmlns="http://www.w3.org/2000/svg" xmlns:xlink="http://www.w3.org/1999/xlink" width="3300" height="2200">
 <!--glyph: "uni10149C.medium", point size: 100.0, font version: "19.2d2e1", template writer version: "128"-->
 <style>.SFSymbolsPreviewWireframe {fill:none;opacity:1.0;stroke:black;stroke-width:0.5}
</style>
 <g id="Notes">
  <rect height="2200" id="artboard" style="fill:white;opacity:1" width="3300" x="0" y="0"/>
  <line style="fill:none;stroke:black;opacity:1;stroke-width:0.5;" x1="263" x2="3036" y1="292" y2="292"/>
  <text style="stroke:none;fill:black;font-family:sans-serif;font-size:13;font-weight:bold;" transform="matrix(1 0 0 1 263 322)">Weight/Scale Variations</text>
  <text style="stroke:none;fill:black;font-family:sans-serif;font-size:13;text-anchor:middle;" transform="matrix(1 0 0 1 559.711 322)">Ultralight</text>
  <text style="stroke:none;fill:black;font-family:sans-serif;font-size:13;text-anchor:middle;" transform="matrix(1 0 0 1 856.422 322)">Thin</text>
  <text style="stroke:none;fill:black;font-family:sans-serif;font-size:13;text-anchor:middle;" transform="matrix(1 0 0 1 1153.13 322)">Light</text>
  <text style="stroke:none;fill:black;font-family:sans-serif;font-size:13;text-anchor:middle;" transform="matrix(1 0 0 1 1449.84 322)">Regular</text>
  <text style="stroke:none;fill:black;font-family:sans-serif;font-size:13;text-anchor:middle;" transform="matrix(1 0 0 1 1746.56 322)">Medium</text>
  <text style="stroke:none;fill:black;font-family:sans-serif;font-size:13;text-anchor:middle;" transform="matrix(1 0 0 1 2043.27 322)">Semibold</text>
  <text style="stroke:none;fill:black;font-family:sans-serif;font-size:13;text-anchor:middle;" transform="matrix(1 0 0 1 2339.98 322)">Bold</text>
  <text style="stroke:none;fill:black;font-family:sans-serif;font-size:13;text-anchor:middle;" transform="matrix(1 0 0 1 2636.69 322)">Heavy</text>
  <text style="stroke:none;fill:black;font-family:sans-serif;font-size:13;text-anchor:middle;" transform="matrix(1 0 0 1 2933.4 322)">Black</text>
  <line style="fill:none;stroke:black;opacity:1;stroke-width:0.5;" x1="263" x2="3036" y1="1903" y2="1903"/>
  <g transform="matrix(0.2 0 0 0.2 263 1933)">
   <path d="m46.2402 4.15039c21.5332 0 39.4531-17.8711 39.4531-39.4043s-17.9688-39.4043-39.502-39.4043c-21.4844 0-39.3555 17.8711-39.3555 39.4043s17.9199 39.4043 39.4043 39.4043Zm0-7.42188c-17.7246 0-31.8848-14.209-31.8848-31.9824s14.1113-31.9824 31.8359-31.9824c17.7734 0 32.0312 14.209 32.0312 31.9824s-14.209 31.9824-31.9824 31.9824Zm-17.9688-31.9824c0 2.14844 1.51367 3.61328 3.75977 3.61328h10.498v10.5957c0 2.19727 1.46484 3.71094 3.61328 3.71094 2.24609 0 3.71094-1.51367 3.71094-3.71094v-10.5957h10.5957c2.19727 0 3.71094-1.46484 3.71094-3.61328 0-2.19727-1.51367-3.71094-3.71094-3.71094h-10.5957v-10.5469c0-2.24609-1.46484-3.75977-3.71094-3.75977-2.14844 0-3.61328 1.51367-3.61328 3.75977v10.5469h-10.498c-2.24609 0-3.75977 1.51367-3.75977 3.71094Z"/>
  </g>
  <g transform="matrix(0.2 0 0 0.2 281.506 1933)">
   <path d="m58.5449 14.5508c27.2461 0 49.8047-22.6074 49.8047-49.8047 0-27.2461-22.6074-49.8047-49.8535-49.8047-27.1973 0-49.7559 22.5586-49.7559 49.8047 0 27.1973 22.6074 49.8047 49.8047 49.8047Zm0-8.30078c-23.0469 0-41.4551-18.457-41.4551-41.5039s18.3594-41.5039 41.4062-41.5039 41.5527 18.457 41.5527 41.5039-18.457 41.5039-41.5039 41.5039Zm-22.6562-41.5039c0 2.39258 1.66016 4.00391 4.15039 4.00391h14.3555v14.4043c0 2.44141 1.66016 4.15039 4.05273 4.15039 2.44141 0 4.15039-1.66016 4.15039-4.15039v-14.4043h14.4043c2.44141 0 4.15039-1.61133 4.15039-4.00391 0-2.44141-1.70898-4.15039-4.15039-4.15039h-14.4043v-14.3555c0-2.49023-1.70898-4.19922-4.15039-4.19922-2.39258 0-4.05273 1.70898-4.05273 4.19922v14.3555h-14.3555c-2.49023 0-4.15039 1.70898-4.15039 4.15039Z"/>
  </g>
  <g transform="matrix(0.2 0 0 0.2 304.924 1933)">
   <path d="m74.8535 28.3203c34.8145 0 63.623-28.8086 63.623-63.5742 0-34.8145-28.8574-63.623-63.6719-63.623-34.7656 0-63.5254 28.8086-63.5254 63.623 0 34.7656 28.8086 63.5742 63.5742 63.5742Zm0-9.08203c-30.1758 0-54.4434-24.3164-54.4434-54.4922 0-30.2246 24.2188-54.4922 54.3945-54.4922 30.2246 0 54.541 24.2676 54.541 54.4922 0 30.1758-24.2676 54.4922-54.4922 54.4922Zm-28.8574-54.4922c0 2.58789 1.85547 4.39453 4.58984 4.39453h19.7266v19.7754c0 2.68555 1.85547 4.58984 4.44336 4.58984 2.68555 0 4.54102-1.85547 4.54102-4.58984v-19.7754h19.7754c2.68555 0 4.58984-1.80664 4.58984-4.39453 0-2.73438-1.85547-4.58984-4.58984-4.58984h-19.7754v-19.7266c0-2.73438-1.85547-4.63867-4.54102-4.63867-2.58789 0-4.44336 1.9043-4.44336 4.63867v19.7266h-19.7266c-2.73438 0-4.58984 1.85547-4.58984 4.58984Z"/>
  </g>
  <text style="stroke:none;fill:black;font-family:sans-serif;font-size:13;font-weight:bold;" transform="matrix(1 0 0 1 263 1953)">Design Variations</text>
  <text style="stroke:none;fill:black;font-family:sans-serif;font-size:13;" transform="matrix(1 0 0 1 263 1971)">Symbols are supported in up to nine weights and three scales.</text>
  <text style="stroke:none;fill:black;font-family:sans-serif;font-size:13;" transform="matrix(1 0 0 1 263 1989)">For optimal layout with text and other symbols, vertically align</text>
  <text style="stroke:none;fill:black;font-family:sans-serif;font-size:13;" transform="matrix(1 0 0 1 263 2007)">symbols with the adjacent text.</text>
  <line style="fill:none;stroke:#00AEEF;stroke-width:0.5;opacity:1.0;" x1="776" x2="776" y1="1919" y2="1933"/>
  <g transform="matrix(0.2 0 0 0.2 776 1933)">
   <path d="m16.5527 0.78125c2.58789 0 3.85742-0.976562 4.78516-3.71094l6.29883-17.2363h28.8086l6.29883 17.2363c0.927734 2.73438 2.19727 3.71094 4.73633 3.71094 2.58789 0 4.24805-1.5625 4.24805-4.00391 0-0.830078-0.146484-1.61133-0.537109-2.63672l-22.9004-60.9863c-1.12305-2.97852-3.125-4.49219-6.25-4.49219-3.02734 0-5.07812 1.46484-6.15234 4.44336l-22.9004 61.084c-0.390625 1.02539-0.537109 1.80664-0.537109 2.63672 0 2.44141 1.5625 3.95508 4.10156 3.95508Zm13.4766-28.3691 11.8652-32.8613h0.244141l11.8652 32.8613Z"/>
  </g>
  <line style="fill:none;stroke:#00AEEF;stroke-width:0.5;opacity:1.0;" x1="792.836" x2="792.836" y1="1919" y2="1933"/>
  <text style="stroke:none;fill:black;font-family:sans-serif;font-size:13;font-weight:bold;" transform="matrix(1 0 0 1 776 1953)">Margins</text>
  <text style="stroke:none;fill:black;font-family:sans-serif;font-size:13;" transform="matrix(1 0 0 1 776 1971)">Leading and trailing margins on the left and right side of each symbol</text>
  <text style="stroke:none;fill:black;font-family:sans-serif;font-size:13;" transform="matrix(1 0 0 1 776 1989)">can be adjusted by modifying the x-location of the margin guidelines.</text>
  <text style="stroke:none;fill:black;font-family:sans-serif;font-size:13;" transform="matrix(1 0 0 1 776 2007)">Modifications are automatically applied proportionally to all</text>
  <text style="stroke:none;fill:black;font-family:sans-serif;font-size:13;" transform="matrix(1 0 0 1 776 2025)">scales and weights.</text>
  <g transform="matrix(0.2 0 0 0.2 1289 1933)">
   <path d="m14.209 9.32617 8.49609 8.54492c4.29688 4.3457 9.22852 4.05273 13.8672-1.07422l53.4668-58.9355-4.83398-4.88281-53.0762 58.3984c-1.75781 2.00195-3.41797 2.49023-5.76172 0.146484l-5.85938-5.81055c-2.34375-2.29492-1.80664-4.00391 0.195312-5.81055l57.373-54.0039-4.88281-4.83398-57.959 54.4434c-4.93164 4.58984-5.32227 9.47266-1.02539 13.8184Zm32.0801-90.9668c-2.09961 2.05078-2.24609 4.93164-1.07422 6.88477 1.17188 1.80664 3.4668 2.97852 6.68945 2.14844 7.32422-1.70898 14.9414-2.00195 22.0703 2.68555l-2.92969 7.27539c-1.70898 4.15039-0.830078 7.08008 1.85547 9.81445l11.4746 11.5723c2.44141 2.44141 4.49219 2.53906 7.32422 2.05078l5.32227-0.976562 3.32031 3.36914-0.195312 2.7832c-0.195312 2.49023 0.439453 4.39453 2.88086 6.78711l3.80859 3.71094c2.39258 2.39258 5.46875 2.53906 7.8125 0.195312l14.5508-14.5996c2.34375-2.34375 2.24609-5.32227-0.146484-7.71484l-3.85742-3.80859c-2.39258-2.39258-4.24805-3.17383-6.64062-2.97852l-2.88086 0.244141-3.22266-3.17383 1.2207-5.61523c0.634766-2.83203-0.146484-5.0293-3.07617-7.95898l-10.9863-10.9375c-16.6992-16.6016-38.8672-16.2109-53.3203-1.75781Zm7.4707 1.85547c12.1582-8.88672 28.6133-7.37305 39.7461 3.75977l12.1582 12.0605c1.17188 1.17188 1.36719 2.09961 1.02539 3.80859l-1.61133 7.42188 7.51953 7.42188 4.93164-0.292969c1.26953-0.0488281 1.66016 0.0488281 2.63672 1.02539l2.88086 2.88086-12.207 12.207-2.88086-2.88086c-0.976562-0.976562-1.12305-1.36719-1.07422-2.68555l0.341797-4.88281-7.4707-7.42188-7.61719 1.26953c-1.61133 0.341797-2.34375 0.195312-3.56445-0.976562l-10.0098-10.0098c-1.26953-1.17188-1.41602-2.00195-0.634766-3.85742l4.39453-10.4492c-7.8125-7.27539-17.9688-10.4004-28.125-7.42188-0.78125 0.195312-1.07422-0.439453-0.439453-0.976562Z"/>
  </g>
  <text style="stroke:none;fill:black;font-family:sans-serif;font-size:13;font-weight:bold;" transform="matrix(1 0 0 1 1289 1953)">Exporting</text>
  <text style="stroke:none;fill:black;font-family:sans-serif;font-size:13;" transform="matrix(1 0 0 1 1289 1971)">Symbols should be outlined when exporting to ensure the</text>
  <text style="stroke:none;fill:black;font-family:sans-serif;font-size:13;" transform="matrix(1 0 0 1 1289 1989)">design is preserved when submitting to Xcode.</text>
  <text id="template-version" style="stroke:none;fill:black;font-family:sans-serif;font-size:13;text-anchor:end;" transform="matrix(1 0 0 1 3036 1933)">Template v.5.0</text>
  <text style="stroke:none;fill:black;font-family:sans-serif;font-size:13;text-anchor:end;" transform="matrix(1 0 0 1 3036 1951)">Requires Xcode 15 or greater</text>
  <text id="descriptive-name" style="stroke:none;fill:black;font-family:sans-serif;font-size:13;text-anchor:end;" transform="matrix(1 0 0 1 3036 1969)">Generated from light.ribbon</text>
  <text style="stroke:none;fill:black;font-family:sans-serif;font-size:13;text-anchor:end;" transform="matrix(1 0 0 1 3036 1987)">Typeset at 100.0 points</text>
  <text style="stroke:none;fill:black;font-family:sans-serif;font-size:13;" transform="matrix(1 0 0 1 263 726)">Small</text>
  <text style="stroke:none;fill:black;font-family:sans-serif;font-size:13;" transform="matrix(1 0 0 1 263 1156)">Medium</text>
  <text style="stroke:none;fill:black;font-family:sans-serif;font-size:13;" transform="matrix(1 0 0 1 263 1586)">Large</text>
 </g>
 <g id="Guides">
  <g id="H-reference" style="fill:#27AAE1;stroke:none;" transform="matrix(1 0 0 1 339 696)">
   <path d="M0.993654 0L3.63775 0L29.3281-67.1323L30.0303-67.1323L30.0303-70.459L28.1226-70.459ZM11.6885-24.4799L46.9815-24.4799L46.2315-26.7285L12.4385-26.7285ZM55.1196 0L57.7637 0L30.6382-70.459L29.4326-70.459L29.4326-67.1323Z"/>
  </g>
  <line id="Baseline-S" style="fill:none;stroke:#27AAE1;opacity:1;stroke-width:0.5;" x1="263" x2="3036" y1="696" y2="696"/>
  <line id="Capline-S" style="fill:none;stroke:#27AAE1;opacity:1;stroke-width:0.5;" x1="263" x2="3036" y1="625.541" y2="625.541"/>
  <g id="H-reference" style="fill:#27AAE1;stroke:none;" transform="matrix(1 0 0 1 339 1126)">
   <path d="M0.993654 0L3.63775 0L29.3281-67.1323L30.0303-67.1323L30.0303-70.459L28.1226-70.459ZM11.6885-24.4799L46.9815-24.4799L46.2315-26.7285L12.4385-26.7285ZM55.1196 0L57.7637 0L30.6382-70.459L29.4326-70.459L29.4326-67.1323Z"/>
  </g>
  <line id="Baseline-M" style="fill:none;stroke:#27AAE1;opacity:1;stroke-width:0.5;" x1="263" x2="3036" y1="1126" y2="1126"/>
  <line id="Capline-M" style="fill:none;stroke:#27AAE1;opacity:1;stroke-width:0.5;" x1="263" x2="3036" y1="1055.54" y2="1055.54"/>
  <g id="H-reference" style="fill:#27AAE1;stroke:none;" transform="matrix(1 0 0 1 339 1556)">
   <path d="M0.993654 0L3.63775 0L29.3281-67.1323L30.0303-67.1323L30.0303-70.459L28.1226-70.459ZM11.6885-24.4799L46.9815-24.4799L46.2315-26.7285L12.4385-26.7285ZM55.1196 0L57.7637 0L30.6382-70.459L29.4326-70.459L29.4326-67.1323Z"/>
  </g>
  <line id="Baseline-L" style="fill:none;stroke:#27AAE1;opacity:1;stroke-width:0.5;" x1="263" x2="3036" y1="1556" y2="1556"/>
  <line id="Capline-L" style="fill:none;stroke:#27AAE1;opacity:1;stroke-width:0.5;" x1="263" x2="3036" y1="1485.54" y2="1485.54"/>
  <line id="left-margin-Ultralight-S" style="fill:none;stroke:#00AEEF;stroke-width:0.5;opacity:1.0;" x1="511.112" x2="511.112" y1="600.785" y2="720.121"/>
  <line id="right-margin-Ultralight-S" style="fill:none;stroke:#00AEEF;stroke-width:0.5;opacity:1.0;" x1="608.31" x2="608.31" y1="600.785" y2="720.121"/>
  <line id="left-margin-Regular-S" style="fill:none;stroke:#00AEEF;stroke-width:0.5;opacity:1.0;" x1="1394.89" x2="1394.89" y1="600.785" y2="720.121"/>
  <line id="right-margin-Regular-S" style="fill:none;stroke:#00AEEF;stroke-width:0.5;opacity:1.0;" x1="1504.8" x2="1504.8" y1="600.785" y2="720.121"/>
  <line id="left-margin-Black-S" style="fill:none;stroke:#00AEEF;stroke-width:0.5;opacity:1.0;" x1="2871.73" x2="2871.73" y1="600.785" y2="720.121"/>
  <line id="right-margin-Black-S" style="fill:none;stroke:#00AEEF;stroke-width:0.5;opacity:1.0;" x1="2995.07" x2="2995.07" y1="600.785" y2="720.121"/>
 </g>
 <g id="Symbols">
  <g id="Black-S" transform="matrix(1 0 0 1 2871.73 696)">
   <path class="SFSymbolsPreviewWireframe" d="M13.5254-50.7324C8.49609-47.8516 7.51953-42.627 10.4004-37.6953L16.6016-27.0996C18.5547-23.7793 21.5332-21.9727 24.8047-21.9727L50.4883-21.9727L39.7461-15.7715C34.7656-12.8906 33.5938-7.71484 36.4258-2.7832L42.5781 7.8125C45.459 12.793 50.4395 14.502 55.4688 11.6211L109.814-19.7754C114.844-22.6562 115.869-27.832 112.939-32.8125L106.738-43.4082C104.785-46.7285 101.807-48.4863 98.5352-48.4863L72.8516-48.4863L83.5938-54.7363C88.5742-57.6172 89.7461-62.793 86.9141-67.7246L80.7617-78.3203C77.8809-83.252 72.9004-85.0098 67.8711-82.1289ZM19.5312-43.3105L71.3379-73.2422C71.9238-73.584 72.7051-73.291 73.0957-72.6074L78.125-63.9648C78.5156-63.2812 78.3691-62.5 77.7832-62.1582L25.8789-32.2266C25.2441-31.8848 24.4629-32.0801 24.0723-32.7637L19.0918-41.4551C18.7012-42.1387 18.8965-42.9688 19.5312-43.3105ZM43.2617-31.3965L56.543-39.1113L80.127-39.1113L66.8457-31.3965ZM45.6055-8.34961L97.4609-38.2812C98.0957-38.623 98.877-38.4277 99.2676-37.7441L104.199-29.0527C104.59-28.3691 104.443-27.5391 103.857-27.1973L52.002 2.73438C51.416 3.07617 50.6348 2.7832 50.2441 2.09961L45.2148-6.54297C44.8242-7.22656 44.9707-7.95898 45.6055-8.34961ZM73.291-78.7109L77.5391-71.3867L86.2793-76.4648C88.3789-77.6855 89.1113-80.2734 87.9395-82.2754C86.7188-84.375 84.1797-84.9609 82.1289-83.7891ZM79.1992-68.5059L83.4473-61.1816L92.1875-66.2598C94.2871-67.4805 94.9707-70.0684 93.7988-72.1191C92.627-74.1211 90.0879-74.7559 88.0371-73.584ZM64.9414-62.1582C65.8691-60.5957 67.9199-60.0586 69.5312-60.9863C71.1426-61.9629 71.7285-63.9648 70.8008-65.5762C69.8242-67.1875 67.8223-67.7734 66.1621-66.7969C64.5996-65.8691 64.0137-63.8184 64.9414-62.1582ZM55.3223-56.6406C56.25-55.0293 58.3008-54.541 59.8633-55.4688C61.5234-56.3965 62.0605-58.3984 61.1328-60.0098C60.2539-61.6699 58.2031-62.1582 56.543-61.2305C54.9316-60.3027 54.3945-58.252 55.3223-56.6406ZM45.6543-51.0742C46.582-49.4629 48.6328-48.9258 50.293-49.8535C51.9043-50.8301 52.4414-52.832 51.5137-54.4434C50.5859-56.0547 48.5352-56.6406 46.9238-55.6641C45.3125-54.7363 44.7266-52.6855 45.6543-51.0742ZM36.084-45.5078C37.0117-43.8965 39.0625-43.4082 40.625-44.3359C42.2852-45.2637 42.8223-47.3145 41.8945-48.877C40.9668-50.5371 38.9648-51.0254 37.3047-50.1465C35.6934-49.2188 35.1074-47.168 36.084-45.5078ZM26.4648-39.9902C27.3926-38.3301 29.4434-37.8418 31.0059-38.7207C32.666-39.6973 33.1543-41.6992 32.2266-43.3105C31.2988-44.9219 29.2969-45.5078 27.6855-44.5312C26.0742-43.6035 25.4883-41.6016 26.4648-39.9902ZM50.0488 8.20312L45.752 0.878906L37.0605 5.95703C34.9609 7.17773 34.2285 9.76562 35.4004 11.8164C36.6211 13.8672 39.1602 14.4531 41.2109 13.2812ZM44.1406-2.00195L39.8926-9.32617L31.1523-4.24805C29.0527-3.02734 28.3203-0.439453 29.541 1.61133C30.7129 3.61328 33.252 4.24805 35.3027 3.07617ZM91.1133-27.1973C92.041-25.5859 94.0918-25 95.7031-25.9277C97.3145-26.8555 97.8516-28.9551 96.9238-30.5664C95.9961-32.1777 93.8965-32.7148 92.334-31.7871C90.6738-30.8105 90.1855-28.8086 91.1133-27.1973ZM81.4453-21.6309C82.373-19.9707 84.4238-19.4336 86.084-20.4102C87.6465-21.2891 88.2324-23.3398 87.3047-25C86.377-26.6113 84.2773-27.0996 82.666-26.1719C81.0547-25.2441 80.5176-23.1934 81.4453-21.6309ZM71.8262-16.0645C72.7539-14.4531 74.8047-13.8672 76.416-14.7949C78.0273-15.7227 78.6621-17.8223 77.6855-19.4824C76.7578-21.0449 74.707-21.582 73.0469-20.6543C71.3867-19.6777 70.8984-17.6758 71.8262-16.0645ZM62.1582-10.498C63.0859-8.83789 65.1367-8.30078 66.7969-9.27734C68.4082-10.2051 68.9941-12.2559 68.0176-13.8672C67.0898-15.4785 65.0391-15.9668 63.4277-15.0391C61.7676-14.1113 61.2793-12.0605 62.1582-10.498ZM52.5391-4.93164C53.4668-3.32031 55.5176-2.73438 57.1777-3.66211C58.7402-4.58984 59.375-6.68945 58.3984-8.34961C57.4707-9.91211 55.4199-10.4492 53.8086-9.52148C52.1484-8.54492 51.6113-6.54297 52.5391-4.93164Z"/>
  </g>
  <g id="Regular-S" transform="matrix(1 0 0 1 1394.89 696)">
   <path class="SFSymbolsPreviewWireframe" d="M12.7441-48.1445C8.74023-45.8008 7.66602-42.1875 10.0098-38.1836L15.5762-28.5156C17.2363-25.6836 19.6289-24.6582 22.4121-24.6582L49.7559-24.6582L34.082-15.5762C30.0293-13.2324 29.1016-9.66797 31.3477-5.71289L36.9141 4.00391C39.2578 8.05664 42.8223 8.93555 46.8262 6.5918L97.168-22.4121C101.221-24.7559 102.246-28.3691 99.9023-32.373L94.3359-42.041C92.7246-44.8242 90.3809-45.8496 87.6953-45.8496L60.0586-45.8496L75.8789-54.9805C79.8828-57.3242 80.8594-60.8887 78.5645-64.8438L73.0469-74.5605C70.7031-78.6133 67.1387-79.4922 63.0859-77.1484ZM15.9668-43.6035L65.4785-72.1191C66.6992-72.8516 67.7734-72.5586 68.5059-71.2402L73.5352-62.5977C74.2676-61.377 73.9258-60.2539 72.6562-59.5215L23.2422-30.957C22.0215-30.2246 20.8496-30.5176 20.1172-31.8359L15.1367-40.3809C14.4043-41.6992 14.6484-42.8223 15.9668-43.6035ZM33.1055-30.2246L50.4883-40.2832L76.709-40.2832L59.375-30.2246ZM37.2559-11.0352L86.6699-39.5996C87.9395-40.332 89.0625-40.0391 89.7949-38.7207L94.7754-30.1758C95.5078-28.8574 95.2637-27.7344 93.9941-26.9531L44.4824 1.5625C43.2129 2.29492 42.1875 2.00195 41.4062 0.732422L36.377-7.95898C35.6445-9.17969 35.9863-10.3027 37.2559-11.0352ZM69.5801-75.0977L71.9727-70.8496L78.6133-74.7559C79.7852-75.4395 80.2246-76.8066 79.541-77.9785C78.8574-79.1504 77.4414-79.4922 76.2695-78.8574ZM74.9023-65.8203L77.3438-61.6211L83.9355-65.4785C85.2539-66.2109 85.5957-67.4316 84.8145-68.75C84.1309-69.9707 82.7637-70.3613 81.543-69.6777ZM61.1328-61.2793C61.9141-59.8145 63.7695-59.3262 65.2344-60.1074C66.6504-60.9863 67.1387-62.793 66.3086-64.3066C65.4785-65.7227 63.6719-66.2109 62.2559-65.4297C60.7422-64.4531 60.3027-62.6953 61.1328-61.2793ZM51.4648-55.6641C52.2461-54.1992 54.0527-53.7109 55.5176-54.4922C56.9824-55.3711 57.5684-57.2266 56.5918-58.5938C55.8105-60.1562 53.9551-60.5957 52.5391-59.7656C51.0254-58.8867 50.5859-57.1289 51.4648-55.6641ZM41.6992-50C42.5293-48.584 44.4336-48.1445 45.8496-48.877C47.2168-49.8047 47.7539-51.6602 46.9238-52.9785C46.0938-54.4922 44.1895-54.9805 42.8711-54.1504C41.3574-53.2715 40.8203-51.5137 41.6992-50ZM31.9824-44.3848C32.8613-43.0176 34.7168-42.5293 36.1816-43.3105C37.5977-44.1406 38.0859-46.0449 37.1582-47.4121C36.4746-48.9258 34.6191-49.4141 33.1055-48.584C31.6895-47.8027 31.1523-45.8496 31.9824-44.3848ZM22.3145-38.8184C23.1445-37.3535 24.9512-36.9141 26.5137-37.6953C27.832-38.5742 28.3203-40.4297 27.5391-41.8457C26.709-43.3105 24.9023-43.75 23.4375-42.9688C21.9238-42.1387 21.4844-40.2832 22.3145-38.8184ZM40.332 4.54102L37.9395 0.292969L31.2988 4.19922C30.127 4.88281 29.6875 6.25 30.4199 7.42188C31.0547 8.59375 32.4707 8.93555 33.6426 8.30078ZM35.0098-4.73633L32.5684-8.93555L25.9766-5.07812C24.6582-4.3457 24.3164-3.125 25.1465-1.80664C25.7812-0.585938 27.1484-0.195312 28.3691-0.878906ZM82.373-28.7109C83.252-27.2461 85.0098-26.8066 86.4746-27.5879C87.9883-28.3691 88.4277-30.2734 87.5977-31.7383C86.7676-33.2031 84.9609-33.6426 83.4473-32.8613C82.0801-31.9824 81.5918-30.127 82.373-28.7109ZM72.8027-23.1445C73.4863-21.6309 75.293-21.1426 76.8066-21.9727C78.2227-22.7539 78.7598-24.707 77.9297-26.1719C77.0508-27.5391 75.2441-28.0273 73.7793-27.2461C72.3145-26.3672 71.8262-24.5117 72.8027-23.1445ZM62.9883-17.5293C63.8672-16.0645 65.7227-15.5762 67.041-16.4062C68.5547-17.2852 69.0918-19.043 68.2129-20.5566C67.3828-21.9727 65.4785-22.4121 64.1113-21.6797C62.6953-20.752 62.1582-18.8965 62.9883-17.5293ZM53.3203-11.9629C54.1016-10.4004 55.957-9.96094 57.373-10.791C58.8867-11.6699 59.3262-13.4277 58.4473-14.8926C57.666-16.3574 55.9082-16.7969 54.4434-16.0645C52.9297-15.1855 52.3438-13.3301 53.3203-11.9629ZM43.6035-6.25C44.4824-4.83398 46.2402-4.3457 47.6562-5.12695C49.1699-6.10352 49.6094-7.86133 48.7793-9.27734C47.998-10.7422 46.1914-11.2305 44.7266-10.4492C43.2617-9.57031 42.7734-7.76367 43.6035-6.25Z"/>
  </g>
  <g id="Ultralight-S" transform="matrix(1 0 0 1 511.112 696)">
   <path class="SFSymbolsPreviewWireframe" d="M11.3364-46.646C8.69482-45.165 8.0747-42.5508 9.64649-39.8183L15.0313-30.5137C16.1465-28.5898 17.7217-27.7461 19.5059-27.7461L50.7549-27.7461L28.0425-14.668C25.4429-13.1416 24.7876-10.5308 26.398-7.80174L31.7828 1.50637C33.3999 4.24222 35.92 4.98489 38.5162 3.50393L85.8609-23.8652C88.4605-25.3462 89.1227-27.9605 87.5055-30.6929L82.1661-39.9976C81.1905-41.6001 79.8912-42.7617 77.7052-42.7617L46.4357-42.7617L69.1128-55.8433C71.709-57.3696 72.3677-59.9805 70.7994-62.7095L65.418-72.0176C63.8008-74.7534 61.2808-75.4961 58.6358-73.9698ZM12.5157-44.9204L59.6207-72.0737C61.1592-72.9424 62.6875-72.4678 63.647-70.8315L68.9034-61.7349C69.8174-60.1055 69.4756-58.4829 67.9336-57.6143L20.8355-30.4575C19.2969-29.5435 17.7163-30.0635 16.8023-31.6543L11.5493-40.7441C10.6353-42.3804 10.9702-44.0029 12.5157-44.9204ZM24.1597-29.9067L42.6778-40.6011L72.9854-40.6011L54.4707-29.9067ZM29.2637-12.897L76.3165-40.0537C77.9039-40.9678 79.481-40.4478 80.3951-38.8569L85.648-29.7671C86.5621-28.1309 86.2271-26.5083 84.6851-25.5908L37.5801 1.5625C36.0381 2.43115 34.5132 1.95654 33.5504 0.323734L28.2486-8.77636C27.3345-10.4058 27.6763-12.0283 29.2637-12.897ZM64.0401-71.3286L65.0704-69.4873L70.712-72.7578C71.1119-72.9873 71.3243-73.628 71.004-74.1641C70.7291-74.6548 70.085-74.815 69.5943-74.5435ZM68.4542-63.6406L69.5333-61.8481L75.0806-65.0698C75.5816-65.3482 75.7872-65.9331 75.46-66.4795C75.1851-66.9737 74.4991-67.0918 74.0958-66.9077ZM55.5928-60.0986C56.3287-58.8608 57.9117-58.418 59.1495-59.1538C60.4747-59.8965 60.9175-61.4761 60.1783-62.7627C59.439-64.0425 57.8594-64.4854 56.5342-63.7495C55.2476-63 54.8536-61.3784 55.5928-60.0986ZM46.7422-55.0283C47.4781-53.7451 49.0122-53.3022 50.3409-54.0381C51.6241-54.7808 52.0738-56.4092 51.3243-57.6856C50.5884-58.9302 48.96-59.3696 47.6802-58.6304C46.3482-57.8877 45.9995-56.3115 46.7422-55.0283ZM37.9302-49.9092C38.6241-48.6748 40.2559-48.2354 41.5357-48.9678C42.812-49.6685 43.2129-51.2969 42.4737-52.5698C41.7344-53.8565 40.148-54.2993 38.875-53.5601C37.6338-52.8174 37.1875-51.1958 37.9302-49.9092ZM28.9854-44.748C29.7281-43.4717 31.3565-43.0742 32.6397-43.8101C33.9649-44.5493 34.4532-46.1812 33.7071-47.4575C32.9781-48.7441 31.3042-49.187 29.9722-48.4023C28.6924-47.6665 28.2461-46.0312 28.9854-44.748ZM20.0894-39.6357C20.8286-38.3525 22.4536-37.9131 23.7891-38.6943C25.062-39.437 25.5049-41.02 24.7691-42.2998C24.0298-43.583 22.4048-44.0225 21.1216-43.2866C19.7896-42.5474 19.3501-40.9189 20.0894-39.6357ZM33.1573 0.817412L32.127-1.02392L26.4854 2.2466C26.0401 2.47609 25.8731 3.16213 26.1514 3.65286C26.4229 4.14359 27.1123 4.30375 27.5577 4.03226ZM28.6978-6.87059L27.6641-8.66309L22.0713-5.4414C21.6157-5.16308 21.4102-4.57811 21.7407-4.03172C22.0122-3.53757 22.6529-3.41941 23.1016-3.60349ZM72.4283-28.2114C73.171-26.9282 74.7472-26.4888 76.0304-27.2246C77.3624-27.9605 77.8018-29.5923 77.0626-30.8755C76.3233-32.1133 74.6983-32.5527 73.4117-31.7715C72.1353-31.0742 71.6925-29.4912 72.4283-28.2114ZM63.4937-23.0537C64.2227-21.7671 65.8931-21.3242 67.2252-22.1089C68.505-22.8447 68.9512-24.48 68.212-25.7632C67.4693-27.0396 65.8443-27.437 64.5611-26.7012C63.2325-25.9585 62.7442-24.3301 63.4937-23.0537ZM54.6783-17.938C55.421-16.6548 57.004-16.2119 58.2769-16.9512C59.5635-17.6938 60.0098-19.3154 59.2672-20.6021C58.5279-21.8818 56.8961-22.2759 55.6197-21.5435C54.3399-20.7974 53.939-19.2144 54.6783-17.938ZM45.8731-12.8257C46.6089-11.581 48.2374-11.1416 49.5172-11.8809C50.8038-12.6235 51.1524-14.1997 50.4551-15.4829C49.7193-16.7661 48.1885-17.2056 46.8599-16.4731C45.5733-15.7305 45.1236-14.102 45.8731-12.8257ZM36.9737-7.74852C37.7164-6.46874 39.3379-6.02587 40.6631-6.76171C41.9498-7.51122 42.3438-9.1328 41.6045-10.4126C40.8687-11.6504 39.2891-12.0933 38.0059-11.3574C36.6773-10.5693 36.2344-9.03515 36.9737-7.74852Z"/>
  </g>
 </g>
</svg>
