<?xml version="1.0" encoding="UTF-8"?>
<!--Generator: Apple Native CoreSVG 232.5-->
<!DOCTYPE svg
PUBLIC "-//W3C//DTD SVG 1.1//EN"
       "http://www.w3.org/Graphics/SVG/1.1/DTD/svg11.dtd">
<svg version="1.1" xmlns="http://www.w3.org/2000/svg" xmlns:xlink="http://www.w3.org/1999/xlink" width="3300" height="2200">
 <!--glyph: "uni101325.medium", point size: 100.0, font version: "19.2d2e1", template writer version: "128"-->
 <style>.SFSymbolsPreviewWireframe {fill:none;opacity:1.0;stroke:black;stroke-width:0.5}
</style>
 <g id="Notes">
  <rect height="2200" id="artboard" style="fill:white;opacity:1" width="3300" x="0" y="0"/>
  <line style="fill:none;stroke:black;opacity:1;stroke-width:0.5;" x1="263" x2="3036" y1="292" y2="292"/>
  <text style="stroke:none;fill:black;font-family:sans-serif;font-size:13;font-weight:bold;" transform="matrix(1 0 0 1 263 322)">Weight/Scale Variations</text>
  <text style="stroke:none;fill:black;font-family:sans-serif;font-size:13;text-anchor:middle;" transform="matrix(1 0 0 1 559.711 322)">Ultralight</text>
  <text style="stroke:none;fill:black;font-family:sans-serif;font-size:13;text-anchor:middle;" transform="matrix(1 0 0 1 856.422 322)">Thin</text>
  <text style="stroke:none;fill:black;font-family:sans-serif;font-size:13;text-anchor:middle;" transform="matrix(1 0 0 1 1153.13 322)">Light</text>
  <text style="stroke:none;fill:black;font-family:sans-serif;font-size:13;text-anchor:middle;" transform="matrix(1 0 0 1 1449.84 322)">Regular</text>
  <text style="stroke:none;fill:black;font-family:sans-serif;font-size:13;text-anchor:middle;" transform="matrix(1 0 0 1 1746.56 322)">Medium</text>
  <text style="stroke:none;fill:black;font-family:sans-serif;font-size:13;text-anchor:middle;" transform="matrix(1 0 0 1 2043.27 322)">Semibold</text>
  <text style="stroke:none;fill:black;font-family:sans-serif;font-size:13;text-anchor:middle;" transform="matrix(1 0 0 1 2339.98 322)">Bold</text>
  <text style="stroke:none;fill:black;font-family:sans-serif;font-size:13;text-anchor:middle;" transform="matrix(1 0 0 1 2636.69 322)">Heavy</text>
  <text style="stroke:none;fill:black;font-family:sans-serif;font-size:13;text-anchor:middle;" transform="matrix(1 0 0 1 2933.4 322)">Black</text>
  <line style="fill:none;stroke:black;opacity:1;stroke-width:0.5;" x1="263" x2="3036" y1="1903" y2="1903"/>
  <g transform="matrix(0.2 0 0 0.2 263 1933)">
   <path d="m46.2402 4.15039c21.5332 0 39.4531-17.8711 39.4531-39.4043s-17.9688-39.4043-39.502-39.4043c-21.4844 0-39.3555 17.8711-39.3555 39.4043s17.9199 39.4043 39.4043 39.4043Zm0-7.42188c-17.7246 0-31.8848-14.209-31.8848-31.9824s14.1113-31.9824 31.8359-31.9824c17.7734 0 32.0312 14.209 32.0312 31.9824s-14.209 31.9824-31.9824 31.9824Zm-17.9688-31.9824c0 2.14844 1.51367 3.61328 3.75977 3.61328h10.498v10.5957c0 2.19727 1.46484 3.71094 3.61328 3.71094 2.24609 0 3.71094-1.51367 3.71094-3.71094v-10.5957h10.5957c2.19727 0 3.71094-1.46484 3.71094-3.61328 0-2.19727-1.51367-3.71094-3.71094-3.71094h-10.5957v-10.5469c0-2.24609-1.46484-3.75977-3.71094-3.75977-2.14844 0-3.61328 1.51367-3.61328 3.75977v10.5469h-10.498c-2.24609 0-3.75977 1.51367-3.75977 3.71094Z"/>
  </g>
  <g transform="matrix(0.2 0 0 0.2 281.506 1933)">
   <path d="m58.5449 14.5508c27.2461 0 49.8047-22.6074 49.8047-49.8047 0-27.2461-22.6074-49.8047-49.8535-49.8047-27.1973 0-49.7559 22.5586-49.7559 49.8047 0 27.1973 22.6074 49.8047 49.8047 49.8047Zm0-8.30078c-23.0469 0-41.4551-18.457-41.4551-41.5039s18.3594-41.5039 41.4062-41.5039 41.5527 18.457 41.5527 41.5039-18.457 41.5039-41.5039 41.5039Zm-22.6562-41.5039c0 2.39258 1.66016 4.00391 4.15039 4.00391h14.3555v14.4043c0 2.44141 1.66016 4.15039 4.05273 4.15039 2.44141 0 4.15039-1.66016 4.15039-4.15039v-14.4043h14.4043c2.44141 0 4.15039-1.61133 4.15039-4.00391 0-2.44141-1.70898-4.15039-4.15039-4.15039h-14.4043v-14.3555c0-2.49023-1.70898-4.19922-4.15039-4.19922-2.39258 0-4.05273 1.70898-4.05273 4.19922v14.3555h-14.3555c-2.49023 0-4.15039 1.70898-4.15039 4.15039Z"/>
  </g>
  <g transform="matrix(0.2 0 0 0.2 304.924 1933)">
   <path d="m74.8535 28.3203c34.8145 0 63.623-28.8086 63.623-63.5742 0-34.8145-28.8574-63.623-63.6719-63.623-34.7656 0-63.5254 28.8086-63.5254 63.623 0 34.7656 28.8086 63.5742 63.5742 63.5742Zm0-9.08203c-30.1758 0-54.4434-24.3164-54.4434-54.4922 0-30.2246 24.2188-54.4922 54.3945-54.4922 30.2246 0 54.541 24.2676 54.541 54.4922 0 30.1758-24.2676 54.4922-54.4922 54.4922Zm-28.8574-54.4922c0 2.58789 1.85547 4.39453 4.58984 4.39453h19.7266v19.7754c0 2.68555 1.85547 4.58984 4.44336 4.58984 2.68555 0 4.54102-1.85547 4.54102-4.58984v-19.7754h19.7754c2.68555 0 4.58984-1.80664 4.58984-4.39453 0-2.73438-1.85547-4.58984-4.58984-4.58984h-19.7754v-19.7266c0-2.73438-1.85547-4.63867-4.54102-4.63867-2.58789 0-4.44336 1.9043-4.44336 4.63867v19.7266h-19.7266c-2.73438 0-4.58984 1.85547-4.58984 4.58984Z"/>
  </g>
  <text style="stroke:none;fill:black;font-family:sans-serif;font-size:13;font-weight:bold;" transform="matrix(1 0 0 1 263 1953)">Design Variations</text>
  <text style="stroke:none;fill:black;font-family:sans-serif;font-size:13;" transform="matrix(1 0 0 1 263 1971)">Symbols are supported in up to nine weights and three scales.</text>
  <text style="stroke:none;fill:black;font-family:sans-serif;font-size:13;" transform="matrix(1 0 0 1 263 1989)">For optimal layout with text and other symbols, vertically align</text>
  <text style="stroke:none;fill:black;font-family:sans-serif;font-size:13;" transform="matrix(1 0 0 1 263 2007)">symbols with the adjacent text.</text>
  <line style="fill:none;stroke:#00AEEF;stroke-width:0.5;opacity:1.0;" x1="776" x2="776" y1="1919" y2="1933"/>
  <g transform="matrix(0.2 0 0 0.2 776 1933)">
   <path d="m16.5527 0.78125c2.58789 0 3.85742-0.976562 4.78516-3.71094l6.29883-17.2363h28.8086l6.29883 17.2363c0.927734 2.73438 2.19727 3.71094 4.73633 3.71094 2.58789 0 4.24805-1.5625 4.24805-4.00391 0-0.830078-0.146484-1.61133-0.537109-2.63672l-22.9004-60.9863c-1.12305-2.97852-3.125-4.49219-6.25-4.49219-3.02734 0-5.07812 1.46484-6.15234 4.44336l-22.9004 61.084c-0.390625 1.02539-0.537109 1.80664-0.537109 2.63672 0 2.44141 1.5625 3.95508 4.10156 3.95508Zm13.4766-28.3691 11.8652-32.8613h0.244141l11.8652 32.8613Z"/>
  </g>
  <line style="fill:none;stroke:#00AEEF;stroke-width:0.5;opacity:1.0;" x1="792.836" x2="792.836" y1="1919" y2="1933"/>
  <text style="stroke:none;fill:black;font-family:sans-serif;font-size:13;font-weight:bold;" transform="matrix(1 0 0 1 776 1953)">Margins</text>
  <text style="stroke:none;fill:black;font-family:sans-serif;font-size:13;" transform="matrix(1 0 0 1 776 1971)">Leading and trailing margins on the left and right side of each symbol</text>
  <text style="stroke:none;fill:black;font-family:sans-serif;font-size:13;" transform="matrix(1 0 0 1 776 1989)">can be adjusted by modifying the x-location of the margin guidelines.</text>
  <text style="stroke:none;fill:black;font-family:sans-serif;font-size:13;" transform="matrix(1 0 0 1 776 2007)">Modifications are automatically applied proportionally to all</text>
  <text style="stroke:none;fill:black;font-family:sans-serif;font-size:13;" transform="matrix(1 0 0 1 776 2025)">scales and weights.</text>
  <g transform="matrix(0.2 0 0 0.2 1289 1933)">
   <path d="m14.209 9.32617 8.49609 8.54492c4.29688 4.3457 9.22852 4.05273 13.8672-1.07422l53.4668-58.9355-4.83398-4.88281-53.0762 58.3984c-1.75781 2.00195-3.41797 2.49023-5.76172 0.146484l-5.85938-5.81055c-2.34375-2.29492-1.80664-4.00391 0.195312-5.81055l57.373-54.0039-4.88281-4.83398-57.959 54.4434c-4.93164 4.58984-5.32227 9.47266-1.02539 13.8184Zm32.0801-90.9668c-2.09961 2.05078-2.24609 4.93164-1.07422 6.88477 1.17188 1.80664 3.4668 2.97852 6.68945 2.14844 7.32422-1.70898 14.9414-2.00195 22.0703 2.68555l-2.92969 7.27539c-1.70898 4.15039-0.830078 7.08008 1.85547 9.81445l11.4746 11.5723c2.44141 2.44141 4.49219 2.53906 7.32422 2.05078l5.32227-0.976562 3.32031 3.36914-0.195312 2.7832c-0.195312 2.49023 0.439453 4.39453 2.88086 6.78711l3.80859 3.71094c2.39258 2.39258 5.46875 2.53906 7.8125 0.195312l14.5508-14.5996c2.34375-2.34375 2.24609-5.32227-0.146484-7.71484l-3.85742-3.80859c-2.39258-2.39258-4.24805-3.17383-6.64062-2.97852l-2.88086 0.244141-3.22266-3.17383 1.2207-5.61523c0.634766-2.83203-0.146484-5.0293-3.07617-7.95898l-10.9863-10.9375c-16.6992-16.6016-38.8672-16.2109-53.3203-1.75781Zm7.4707 1.85547c12.1582-8.88672 28.6133-7.37305 39.7461 3.75977l12.1582 12.0605c1.17188 1.17188 1.36719 2.09961 1.02539 3.80859l-1.61133 7.42188 7.51953 7.42188 4.93164-0.292969c1.26953-0.0488281 1.66016 0.0488281 2.63672 1.02539l2.88086 2.88086-12.207 12.207-2.88086-2.88086c-0.976562-0.976562-1.12305-1.36719-1.07422-2.68555l0.341797-4.88281-7.4707-7.42188-7.61719 1.26953c-1.61133 0.341797-2.34375 0.195312-3.56445-0.976562l-10.0098-10.0098c-1.26953-1.17188-1.41602-2.00195-0.634766-3.85742l4.39453-10.4492c-7.8125-7.27539-17.9688-10.4004-28.125-7.42188-0.78125 0.195312-1.07422-0.439453-0.439453-0.976562Z"/>
  </g>
  <text style="stroke:none;fill:black;font-family:sans-serif;font-size:13;font-weight:bold;" transform="matrix(1 0 0 1 1289 1953)">Exporting</text>
  <text style="stroke:none;fill:black;font-family:sans-serif;font-size:13;" transform="matrix(1 0 0 1 1289 1971)">Symbols should be outlined when exporting to ensure the</text>
  <text style="stroke:none;fill:black;font-family:sans-serif;font-size:13;" transform="matrix(1 0 0 1 1289 1989)">design is preserved when submitting to Xcode.</text>
  <text id="template-version" style="stroke:none;fill:black;font-family:sans-serif;font-size:13;text-anchor:end;" transform="matrix(1 0 0 1 3036 1933)">Template v.5.0</text>
  <text style="stroke:none;fill:black;font-family:sans-serif;font-size:13;text-anchor:end;" transform="matrix(1 0 0 1 3036 1951)">Requires Xcode 15 or greater</text>
  <text id="descriptive-name" style="stroke:none;fill:black;font-family:sans-serif;font-size:13;text-anchor:end;" transform="matrix(1 0 0 1 3036 1969)">Generated from light.strip.2</text>
  <text style="stroke:none;fill:black;font-family:sans-serif;font-size:13;text-anchor:end;" transform="matrix(1 0 0 1 3036 1987)">Typeset at 100.0 points</text>
  <text style="stroke:none;fill:black;font-family:sans-serif;font-size:13;" transform="matrix(1 0 0 1 263 726)">Small</text>
  <text style="stroke:none;fill:black;font-family:sans-serif;font-size:13;" transform="matrix(1 0 0 1 263 1156)">Medium</text>
  <text style="stroke:none;fill:black;font-family:sans-serif;font-size:13;" transform="matrix(1 0 0 1 263 1586)">Large</text>
 </g>
 <g id="Guides">
  <g id="H-reference" style="fill:#27AAE1;stroke:none;" transform="matrix(1 0 0 1 339 696)">
   <path d="M0.993654 0L3.63775 0L29.3281-67.1323L30.0303-67.1323L30.0303-70.459L28.1226-70.459ZM11.6885-24.4799L46.9815-24.4799L46.2315-26.7285L12.4385-26.7285ZM55.1196 0L57.7637 0L30.6382-70.459L29.4326-70.459L29.4326-67.1323Z"/>
  </g>
  <line id="Baseline-S" style="fill:none;stroke:#27AAE1;opacity:1;stroke-width:0.5;" x1="263" x2="3036" y1="696" y2="696"/>
  <line id="Capline-S" style="fill:none;stroke:#27AAE1;opacity:1;stroke-width:0.5;" x1="263" x2="3036" y1="625.541" y2="625.541"/>
  <g id="H-reference" style="fill:#27AAE1;stroke:none;" transform="matrix(1 0 0 1 339 1126)">
   <path d="M0.993654 0L3.63775 0L29.3281-67.1323L30.0303-67.1323L30.0303-70.459L28.1226-70.459ZM11.6885-24.4799L46.9815-24.4799L46.2315-26.7285L12.4385-26.7285ZM55.1196 0L57.7637 0L30.6382-70.459L29.4326-70.459L29.4326-67.1323Z"/>
  </g>
  <line id="Baseline-M" style="fill:none;stroke:#27AAE1;opacity:1;stroke-width:0.5;" x1="263" x2="3036" y1="1126" y2="1126"/>
  <line id="Capline-M" style="fill:none;stroke:#27AAE1;opacity:1;stroke-width:0.5;" x1="263" x2="3036" y1="1055.54" y2="1055.54"/>
  <g id="H-reference" style="fill:#27AAE1;stroke:none;" transform="matrix(1 0 0 1 339 1556)">
   <path d="M0.993654 0L3.63775 0L29.3281-67.1323L30.0303-67.1323L30.0303-70.459L28.1226-70.459ZM11.6885-24.4799L46.9815-24.4799L46.2315-26.7285L12.4385-26.7285ZM55.1196 0L57.7637 0L30.6382-70.459L29.4326-70.459L29.4326-67.1323Z"/>
  </g>
  <line id="Baseline-L" style="fill:none;stroke:#27AAE1;opacity:1;stroke-width:0.5;" x1="263" x2="3036" y1="1556" y2="1556"/>
  <line id="Capline-L" style="fill:none;stroke:#27AAE1;opacity:1;stroke-width:0.5;" x1="263" x2="3036" y1="1485.54" y2="1485.54"/>
  <line id="left-margin-Ultralight-S" style="fill:none;stroke:#00AEEF;stroke-width:0.5;opacity:1.0;" x1="522.973" x2="522.973" y1="600.785" y2="720.121"/>
  <line id="right-margin-Ultralight-S" style="fill:none;stroke:#00AEEF;stroke-width:0.5;opacity:1.0;" x1="596.449" x2="596.449" y1="600.785" y2="720.121"/>
  <line id="left-margin-Regular-S" style="fill:none;stroke:#00AEEF;stroke-width:0.5;opacity:1.0;" x1="1405.39" x2="1405.39" y1="600.785" y2="720.121"/>
  <line id="right-margin-Regular-S" style="fill:none;stroke:#00AEEF;stroke-width:0.5;opacity:1.0;" x1="1494.3" x2="1494.3" y1="600.785" y2="720.121"/>
  <line id="left-margin-Black-S" style="fill:none;stroke:#00AEEF;stroke-width:0.5;opacity:1.0;" x1="2876.76" x2="2876.76" y1="600.785" y2="720.121"/>
  <line id="right-margin-Black-S" style="fill:none;stroke:#00AEEF;stroke-width:0.5;opacity:1.0;" x1="2990.04" x2="2990.04" y1="600.785" y2="720.121"/>
 </g>
 <g id="Symbols">
  <g id="Black-S" transform="matrix(1 0 0 1 2876.76 696)">
   <path class="SFSymbolsPreviewWireframe" d="M9.76562-2.24609C9.76562 5.71289 14.6484 10.6934 22.4609 10.6934L39.0625 10.6934C46.875 10.6934 51.7578 5.71289 51.7578-2.24609L51.7578-68.2617C51.7578-76.2207 46.875-81.2012 39.0625-81.2012L21.4844-81.2012C13.6719-81.2012 9.76562-76.2207 9.76562-68.2617ZM20.5566-2.92969L20.5566-67.5781C20.5566-69.2871 21.6309-70.3613 23.3398-70.3613L38.1836-70.3613C39.8926-70.3613 40.9668-69.2871 40.9668-67.5781L40.9668-2.92969C40.9668-1.2207 39.8926-0.146484 38.1836-0.146484L23.3398-0.146484C21.6309-0.146484 20.5566-1.2207 20.5566-2.92969ZM18.4082-75.6348L28.1738-75.6348L28.1738-85.9863C28.1738-88.6719 25.9766-90.8691 23.291-90.8691C20.6055-90.8691 18.4082-88.6719 18.4082-85.9863ZM33.3496-75.6348L43.1152-75.6348L43.1152-85.9863C43.1152-88.6719 40.918-90.8691 38.2324-90.8691C35.5469-90.8691 33.3496-88.6719 33.3496-85.9863ZM30.7617-57.2754C33.2031-57.2754 35.1562-59.2285 35.1562-61.6699C35.1562-64.1113 33.2031-66.0645 30.7617-66.0645C28.3203-66.0645 26.3672-64.1113 26.3672-61.6699C26.3672-59.2285 28.3203-57.2754 30.7617-57.2754ZM30.7617-44.0918C33.2031-44.0918 35.1562-46.0449 35.1562-48.4863C35.1562-50.9277 33.2031-52.8809 30.7617-52.8809C28.3203-52.8809 26.3672-50.9277 26.3672-48.4863C26.3672-46.0449 28.3203-44.0918 30.7617-44.0918ZM30.7617-30.9082C33.2031-30.9082 35.1562-32.8613 35.1562-35.3027C35.1562-37.7441 33.2031-39.6973 30.7617-39.6973C28.3203-39.6973 26.3672-37.7441 26.3672-35.3027C26.3672-32.8613 28.3203-30.9082 30.7617-30.9082ZM30.7617-17.7246C33.2031-17.7246 35.1562-19.6777 35.1562-22.1191C35.1562-24.5605 33.2031-26.5137 30.7617-26.5137C28.3203-26.5137 26.3672-24.5605 26.3672-22.1191C26.3672-19.6777 28.3203-17.7246 30.7617-17.7246ZM30.7617-4.54102C33.2031-4.54102 35.1562-6.49414 35.1562-8.93555C35.1562-11.377 33.2031-13.3301 30.7617-13.3301C28.3203-13.3301 26.3672-11.377 26.3672-8.93555C26.3672-6.49414 28.3203-4.54102 30.7617-4.54102ZM61.5234-2.24609C61.5234 5.71289 65.4297 10.6934 73.2422 10.6934L90.8203 10.6934C98.6328 10.6934 103.516 5.71289 103.516-2.24609L103.516-68.2617C103.516-76.2207 98.6328-81.2012 90.8203-81.2012L74.2188-81.2012C66.4062-81.2012 61.5234-76.2207 61.5234-68.2617ZM72.3145-2.92969L72.3145-67.5781C72.3145-69.2871 73.3887-70.3613 75.0977-70.3613L89.9414-70.3613C91.6504-70.3613 92.7246-69.2871 92.7246-67.5781L92.7246-2.92969C92.7246-1.2207 91.6504-0.146484 89.9414-0.146484L75.0977-0.146484C73.3887-0.146484 72.3145-1.2207 72.3145-2.92969ZM70.166 5.12695L70.166 15.4785C70.166 18.1641 72.3633 20.3613 75.0488 20.3613C77.7344 20.3613 79.9316 18.1641 79.9316 15.4785L79.9316 5.12695ZM85.1074 5.12695L85.1074 15.4785C85.1074 18.1641 87.3047 20.3613 89.9902 20.3613C92.6758 20.3613 94.873 18.1641 94.873 15.4785L94.873 5.12695ZM82.5195-57.1777C84.9609-57.1777 86.9141-59.1309 86.9141-61.5723C86.9141-64.0137 84.9609-65.9668 82.5195-65.9668C80.0781-65.9668 78.125-64.0137 78.125-61.5723C78.125-59.1309 80.0781-57.1777 82.5195-57.1777ZM82.5195-43.9941C84.9609-43.9941 86.9141-45.9473 86.9141-48.3887C86.9141-50.8301 84.9609-52.7832 82.5195-52.7832C80.0781-52.7832 78.125-50.8301 78.125-48.3887C78.125-45.9473 80.0781-43.9941 82.5195-43.9941ZM82.5195-30.8105C84.9609-30.8105 86.9141-32.7637 86.9141-35.2051C86.9141-37.6465 84.9609-39.5996 82.5195-39.5996C80.0781-39.5996 78.125-37.6465 78.125-35.2051C78.125-32.7637 80.0781-30.8105 82.5195-30.8105ZM82.5195-17.627C84.9609-17.627 86.9141-19.5801 86.9141-22.0215C86.9141-24.4629 84.9609-26.416 82.5195-26.416C80.0781-26.416 78.125-24.4629 78.125-22.0215C78.125-19.5801 80.0781-17.627 82.5195-17.627ZM82.5195-4.44336C84.9609-4.44336 86.9141-6.39648 86.9141-8.83789C86.9141-11.2793 84.9609-13.2324 82.5195-13.2324C80.0781-13.2324 78.125-11.2793 78.125-8.83789C78.125-6.39648 80.0781-4.44336 82.5195-4.44336Z"/>
  </g>
  <g id="Regular-S" transform="matrix(1 0 0 1 1405.39 696)">
   <path class="SFSymbolsPreviewWireframe" d="M9.76562-3.66211C9.76562 1.85547 12.8418 4.98047 18.3105 4.98047L31.4941 4.98047C37.0117 4.98047 40.0879 1.85547 40.0879-3.71094L40.0879-66.9922C40.0879-72.5586 37.0117-75.6348 31.4941-75.6348L18.3105-75.6348C12.8418-75.6348 9.76562-72.5586 9.76562-67.041ZM16.3574-4.24805L16.3574-66.4062C16.3574-68.1152 17.334-69.043 19.043-69.043L30.8594-69.043C32.5684-69.043 33.5449-68.1152 33.5449-66.4062L33.5449-4.24805C33.5449-2.53906 32.5684-1.61133 30.8594-1.61133L19.043-1.61133C17.334-1.61133 16.3574-2.53906 16.3574-4.24805ZM15.8203-72.4609L21.5332-72.4609L21.5332-81.4941C21.5332-83.0566 20.2637-84.3262 18.6523-84.3262C17.041-84.3262 15.8203-83.0566 15.8203-81.4941ZM28.3691-72.4609L34.0332-72.4609L34.0332-81.4941C34.0332-83.0566 32.7637-84.3262 31.2012-84.3262C29.5898-84.3262 28.3691-83.0566 28.3691-81.4941ZM24.9512-56.1035C26.9043-56.1035 28.5156-57.7148 28.5156-59.7168C28.5156-61.6699 26.9043-63.2812 24.9512-63.2812C22.9492-63.2812 21.3379-61.6699 21.3379-59.7168C21.3379-57.7148 22.9492-56.1035 24.9512-56.1035ZM24.9512-43.9453C26.9043-43.9453 28.5156-45.5078 28.5156-47.5098C28.5156-49.4629 26.9043-51.0742 24.9512-51.0742C22.9492-51.0742 21.3379-49.4629 21.3379-47.5098C21.3379-45.5078 22.9492-43.9453 24.9512-43.9453ZM24.9512-31.7383C26.9043-31.7383 28.5156-33.3008 28.5156-35.3027C28.5156-37.3047 26.9043-38.8672 24.9512-38.8672C22.9492-38.8672 21.3379-37.3047 21.3379-35.3027C21.3379-33.3008 22.9492-31.7383 24.9512-31.7383ZM24.9512-19.5312C26.9043-19.5312 28.5156-21.0938 28.5156-23.0957C28.5156-25.0977 26.9043-26.6602 24.9512-26.6602C22.9492-26.6602 21.3379-25.0977 21.3379-23.0957C21.3379-21.0938 22.9492-19.5312 24.9512-19.5312ZM24.9512-7.32422C26.9043-7.32422 28.5156-8.88672 28.5156-10.8887C28.5156-12.8906 26.9043-14.4531 24.9512-14.4531C22.9492-14.4531 21.3379-12.8906 21.3379-10.8887C21.3379-8.88672 22.9492-7.32422 24.9512-7.32422ZM48.8281-3.51562C48.8281 2.00195 51.9043 5.07812 57.373 5.07812L70.6055 5.07812C76.0742 5.07812 79.1504 2.00195 79.1504-3.56445L79.1504-66.8457C79.1504-72.4121 76.0742-75.4883 70.6055-75.4883L57.373-75.4883C51.9043-75.4883 48.8281-72.4121 48.8281-66.8945ZM55.4199-4.15039L55.4199-66.2598C55.4199-67.9688 56.3965-68.9453 58.1055-68.9453L69.9219-68.9453C71.6309-68.9453 72.6074-67.9688 72.6074-66.2598L72.6074-4.15039C72.6074-2.39258 71.6309-1.46484 69.9219-1.46484L58.1055-1.46484C56.3965-1.46484 55.4199-2.39258 55.4199-4.15039ZM54.8828 1.9043L54.8828 10.9375C54.8828 12.5488 56.1035 13.7695 57.7148 13.7695C59.3262 13.7695 60.5957 12.5488 60.5957 10.9375L60.5957 1.9043ZM67.4316 1.9043L67.4316 10.9375C67.4316 12.5488 68.6523 13.7695 70.2637 13.7695C71.875 13.7695 73.1445 12.5488 73.1445 10.9375L73.1445 1.9043ZM64.0137-56.0547C65.9668-56.0547 67.5781-57.666 67.5781-59.668C67.5781-61.6211 65.9668-63.2324 64.0137-63.2324C62.0117-63.2324 60.4492-61.6211 60.4492-59.668C60.4492-57.666 62.0117-56.0547 64.0137-56.0547ZM64.0137-43.8477C65.9668-43.8477 67.5781-45.459 67.5781-47.4609C67.5781-49.4141 65.9668-51.0254 64.0137-51.0254C62.0117-51.0254 60.4492-49.4141 60.4492-47.4609C60.4492-45.459 62.0117-43.8477 64.0137-43.8477ZM64.0137-31.6895C65.9668-31.6895 67.5781-33.252 67.5781-35.2539C67.5781-37.207 65.9668-38.8184 64.0137-38.8184C62.0117-38.8184 60.4492-37.207 60.4492-35.2539C60.4492-33.252 62.0117-31.6895 64.0137-31.6895ZM64.0137-19.4824C65.9668-19.4824 67.5781-21.0449 67.5781-23.0469C67.5781-25.0488 65.9668-26.6113 64.0137-26.6113C62.0117-26.6113 60.4492-25.0488 60.4492-23.0469C60.4492-21.0449 62.0117-19.4824 64.0137-19.4824ZM64.0137-7.27539C65.9668-7.27539 67.5781-8.83789 67.5781-10.8398C67.5781-12.8418 65.9668-14.4043 64.0137-14.4043C62.0117-14.4043 60.4492-12.8418 60.4492-10.8398C60.4492-8.83789 62.0117-7.27539 64.0137-7.27539Z"/>
  </g>
  <g id="Ultralight-S" transform="matrix(1 0 0 1 522.973 696)">
   <path class="SFSymbolsPreviewWireframe" d="M9.76562-4.43408C9.76562-1.41404 11.7066 0.484899 14.9048 0.484899L27.6343 0.484899C30.836 0.484899 32.8223-1.41404 32.8223-4.43749L32.8223-65.8569C32.8223-68.9258 30.836-70.8213 27.6343-70.8213L14.9048-70.8213C11.7066-70.8213 9.76562-68.9258 9.76562-65.8604ZM11.9527-4.61133L11.9527-65.7251C11.9527-67.5249 13.1563-68.6343 15.0469-68.6343L27.499-68.6343C29.3897-68.6343 30.6387-67.5249 30.6387-65.7251L30.6387-4.61133C30.6387-2.81152 29.3897-1.70215 27.499-1.70215L15.0469-1.70215C13.1563-1.70215 11.9527-2.81152 11.9527-4.61133ZM15.7295-69.6909L17.855-69.6909L17.855-76.1812C17.855-76.6993 17.4029-77.2422 16.7905-77.2422C16.2236-77.2422 15.7295-76.7447 15.7295-76.1358ZM24.6909-69.6909L26.8585-69.6909L26.8585-76.1358C26.8585-76.7447 26.3609-77.2422 25.752-77.2422C25.1851-77.2422 24.6909-76.6993 24.6909-76.1812ZM21.273-56.4668C22.9082-56.4668 24.2471-57.8057 24.2471-59.4443C24.2471-61.125 22.9082-62.4639 21.273-62.4639C19.6343-62.4639 18.3408-61.125 18.3408-59.4443C18.3408-57.8057 19.6343-56.4668 21.273-56.4668ZM21.273-44.354C22.9082-44.354 24.2471-45.644 24.2471-47.3281C24.2471-48.9634 22.9082-50.3023 21.273-50.3023C19.6343-50.3023 18.3408-48.9634 18.3408-47.3281C18.3408-45.644 19.6343-44.354 21.273-44.354ZM21.273-32.2832C22.9082-32.2832 24.2471-33.6186 24.2471-35.2573C24.2471-36.896 22.9082-38.186 21.273-38.186C19.6343-38.186 18.3408-36.896 18.3408-35.2573C18.3408-33.6186 19.6343-32.2832 21.273-32.2832ZM21.273-20.0762C22.9082-20.0762 24.2471-21.4116 24.2471-23.0503C24.2471-24.7344 22.9082-26.1152 21.273-26.1152C19.6343-26.1152 18.3408-24.7344 18.3408-23.0503C18.3408-21.4116 19.6343-20.0762 21.273-20.0762ZM21.273-7.91455C22.9082-7.91455 24.2471-9.25 24.2471-10.9341C24.2471-12.5728 22.9082-13.9082 21.273-13.9082C19.6343-13.9082 18.3408-12.5728 18.3408-10.9341C18.3408-9.25 19.6343-7.91455 21.273-7.91455ZM40.6544-4.42382C40.6544-1.40378 42.6407 0.491735 45.7935 0.491735L58.5265 0.491735C61.7247 0.491735 63.7111-1.40378 63.7111-4.42724L63.7111-65.8921C63.7111-68.9156 61.7247-70.8111 58.5265-70.8111L45.7935-70.8111C42.6407-70.8111 40.6544-68.9156 40.6544-65.8955ZM42.8414-4.60449L42.8414-65.7148C42.8414-67.5147 44.045-68.6274 45.9356-68.6274L58.3878-68.6274C60.3238-68.6274 61.5274-67.5147 61.5274-65.7148L61.5274-4.60449C61.5274-2.80127 60.3238-1.69189 58.3878-1.69189L45.9356-1.69189C44.045-1.69189 42.8414-2.80127 42.8414-4.60449ZM46.6182-0.638652L46.6182 5.8516C46.6182 6.41851 47.1124 6.91265 47.6793 6.91265C48.2916 6.91265 48.7437 6.3731 48.7437 5.89701L48.7437-0.638652ZM55.5797-0.638652L55.5797 5.89701C55.5797 6.3731 56.0738 6.91265 56.6407 6.91265C57.253 6.91265 57.7506 6.41851 57.7506 5.8516L57.7506-0.638652ZM52.1617-56.418C53.797-56.418 55.1358-57.7568 55.1358-59.3955C55.1358-61.0762 53.797-62.415 52.1617-62.415C50.5684-62.415 49.233-61.0762 49.233-59.3955C49.233-57.7568 50.5684-56.418 52.1617-56.418ZM52.1617-44.2109C53.797-44.2109 55.1358-45.5952 55.1358-47.2793C55.1358-48.9146 53.797-50.2534 52.1617-50.2534C50.5684-50.2534 49.233-48.9146 49.233-47.2793C49.233-45.5952 50.5684-44.2109 52.1617-44.2109ZM52.1617-32.1436C53.797-32.1436 55.1358-33.4336 55.1358-35.0723C55.1358-36.7075 53.797-38.0464 52.1617-38.0464C50.5684-38.0464 49.233-36.7075 49.233-35.0723C49.233-33.4336 50.5684-32.1436 52.1617-32.1436ZM52.1617-20.0273C53.797-20.0273 55.1358-21.3628 55.1358-23.0015C55.1358-24.6855 53.797-25.9756 52.1617-25.9756C50.5684-25.9756 49.233-24.6855 49.233-23.0015C49.233-21.3628 50.5684-20.0273 52.1617-20.0273ZM52.1617-7.86572C53.797-7.86572 55.1358-9.20117 55.1358-10.8853C55.1358-12.5239 53.797-13.8594 52.1617-13.8594C50.5684-13.8594 49.233-12.5239 49.233-10.8853C49.233-9.20117 50.5684-7.86572 52.1617-7.86572Z"/>
  </g>
 </g>
</svg>
