<?xml version="1.0" encoding="UTF-8"?>
<!--Generator: Apple Native CoreSVG 232.5-->
<!DOCTYPE svg
PUBLIC "-//W3C//DTD SVG 1.1//EN"
       "http://www.w3.org/Graphics/SVG/1.1/DTD/svg11.dtd">
<svg version="1.1" xmlns="http://www.w3.org/2000/svg" xmlns:xlink="http://www.w3.org/1999/xlink" width="3300" height="2200">
 <!--glyph: "uni1008E9.medium", point size: 100.0, font version: "19.2d2e1", template writer version: "128"-->
 <style>.SFSymbolsPreviewWireframe {fill:none;opacity:1.0;stroke:black;stroke-width:0.5}
</style>
 <g id="Notes">
  <rect height="2200" id="artboard" style="fill:white;opacity:1" width="3300" x="0" y="0"/>
  <line style="fill:none;stroke:black;opacity:1;stroke-width:0.5;" x1="263" x2="3036" y1="292" y2="292"/>
  <text style="stroke:none;fill:black;font-family:sans-serif;font-size:13;font-weight:bold;" transform="matrix(1 0 0 1 263 322)">Weight/Scale Variations</text>
  <text style="stroke:none;fill:black;font-family:sans-serif;font-size:13;text-anchor:middle;" transform="matrix(1 0 0 1 559.711 322)">Ultralight</text>
  <text style="stroke:none;fill:black;font-family:sans-serif;font-size:13;text-anchor:middle;" transform="matrix(1 0 0 1 856.422 322)">Thin</text>
  <text style="stroke:none;fill:black;font-family:sans-serif;font-size:13;text-anchor:middle;" transform="matrix(1 0 0 1 1153.13 322)">Light</text>
  <text style="stroke:none;fill:black;font-family:sans-serif;font-size:13;text-anchor:middle;" transform="matrix(1 0 0 1 1449.84 322)">Regular</text>
  <text style="stroke:none;fill:black;font-family:sans-serif;font-size:13;text-anchor:middle;" transform="matrix(1 0 0 1 1746.56 322)">Medium</text>
  <text style="stroke:none;fill:black;font-family:sans-serif;font-size:13;text-anchor:middle;" transform="matrix(1 0 0 1 2043.27 322)">Semibold</text>
  <text style="stroke:none;fill:black;font-family:sans-serif;font-size:13;text-anchor:middle;" transform="matrix(1 0 0 1 2339.98 322)">Bold</text>
  <text style="stroke:none;fill:black;font-family:sans-serif;font-size:13;text-anchor:middle;" transform="matrix(1 0 0 1 2636.69 322)">Heavy</text>
  <text style="stroke:none;fill:black;font-family:sans-serif;font-size:13;text-anchor:middle;" transform="matrix(1 0 0 1 2933.4 322)">Black</text>
  <line style="fill:none;stroke:black;opacity:1;stroke-width:0.5;" x1="263" x2="3036" y1="1903" y2="1903"/>
  <g transform="matrix(0.2 0 0 0.2 263 1933)">
   <path d="m46.2402 4.15039c21.5332 0 39.4531-17.8711 39.4531-39.4043s-17.9688-39.4043-39.502-39.4043c-21.4844 0-39.3555 17.8711-39.3555 39.4043s17.9199 39.4043 39.4043 39.4043Zm0-7.42188c-17.7246 0-31.8848-14.209-31.8848-31.9824s14.1113-31.9824 31.8359-31.9824c17.7734 0 32.0312 14.209 32.0312 31.9824s-14.209 31.9824-31.9824 31.9824Zm-17.9688-31.9824c0 2.14844 1.51367 3.61328 3.75977 3.61328h10.498v10.5957c0 2.19727 1.46484 3.71094 3.61328 3.71094 2.24609 0 3.71094-1.51367 3.71094-3.71094v-10.5957h10.5957c2.19727 0 3.71094-1.46484 3.71094-3.61328 0-2.19727-1.51367-3.71094-3.71094-3.71094h-10.5957v-10.5469c0-2.24609-1.46484-3.75977-3.71094-3.75977-2.14844 0-3.61328 1.51367-3.61328 3.75977v10.5469h-10.498c-2.24609 0-3.75977 1.51367-3.75977 3.71094Z"/>
  </g>
  <g transform="matrix(0.2 0 0 0.2 281.506 1933)">
   <path d="m58.5449 14.5508c27.2461 0 49.8047-22.6074 49.8047-49.8047 0-27.2461-22.6074-49.8047-49.8535-49.8047-27.1973 0-49.7559 22.5586-49.7559 49.8047 0 27.1973 22.6074 49.8047 49.8047 49.8047Zm0-8.30078c-23.0469 0-41.4551-18.457-41.4551-41.5039s18.3594-41.5039 41.4062-41.5039 41.5527 18.457 41.5527 41.5039-18.457 41.5039-41.5039 41.5039Zm-22.6562-41.5039c0 2.39258 1.66016 4.00391 4.15039 4.00391h14.3555v14.4043c0 2.44141 1.66016 4.15039 4.05273 4.15039 2.44141 0 4.15039-1.66016 4.15039-4.15039v-14.4043h14.4043c2.44141 0 4.15039-1.61133 4.15039-4.00391 0-2.44141-1.70898-4.15039-4.15039-4.15039h-14.4043v-14.3555c0-2.49023-1.70898-4.19922-4.15039-4.19922-2.39258 0-4.05273 1.70898-4.05273 4.19922v14.3555h-14.3555c-2.49023 0-4.15039 1.70898-4.15039 4.15039Z"/>
  </g>
  <g transform="matrix(0.2 0 0 0.2 304.924 1933)">
   <path d="m74.8535 28.3203c34.8145 0 63.623-28.8086 63.623-63.5742 0-34.8145-28.8574-63.623-63.6719-63.623-34.7656 0-63.5254 28.8086-63.5254 63.623 0 34.7656 28.8086 63.5742 63.5742 63.5742Zm0-9.08203c-30.1758 0-54.4434-24.3164-54.4434-54.4922 0-30.2246 24.2188-54.4922 54.3945-54.4922 30.2246 0 54.541 24.2676 54.541 54.4922 0 30.1758-24.2676 54.4922-54.4922 54.4922Zm-28.8574-54.4922c0 2.58789 1.85547 4.39453 4.58984 4.39453h19.7266v19.7754c0 2.68555 1.85547 4.58984 4.44336 4.58984 2.68555 0 4.54102-1.85547 4.54102-4.58984v-19.7754h19.7754c2.68555 0 4.58984-1.80664 4.58984-4.39453 0-2.73438-1.85547-4.58984-4.58984-4.58984h-19.7754v-19.7266c0-2.73438-1.85547-4.63867-4.54102-4.63867-2.58789 0-4.44336 1.9043-4.44336 4.63867v19.7266h-19.7266c-2.73438 0-4.58984 1.85547-4.58984 4.58984Z"/>
  </g>
  <text style="stroke:none;fill:black;font-family:sans-serif;font-size:13;font-weight:bold;" transform="matrix(1 0 0 1 263 1953)">Design Variations</text>
  <text style="stroke:none;fill:black;font-family:sans-serif;font-size:13;" transform="matrix(1 0 0 1 263 1971)">Symbols are supported in up to nine weights and three scales.</text>
  <text style="stroke:none;fill:black;font-family:sans-serif;font-size:13;" transform="matrix(1 0 0 1 263 1989)">For optimal layout with text and other symbols, vertically align</text>
  <text style="stroke:none;fill:black;font-family:sans-serif;font-size:13;" transform="matrix(1 0 0 1 263 2007)">symbols with the adjacent text.</text>
  <line style="fill:none;stroke:#00AEEF;stroke-width:0.5;opacity:1.0;" x1="776" x2="776" y1="1919" y2="1933"/>
  <g transform="matrix(0.2 0 0 0.2 776 1933)">
   <path d="m16.5527 0.78125c2.58789 0 3.85742-0.976562 4.78516-3.71094l6.29883-17.2363h28.8086l6.29883 17.2363c0.927734 2.73438 2.19727 3.71094 4.73633 3.71094 2.58789 0 4.24805-1.5625 4.24805-4.00391 0-0.830078-0.146484-1.61133-0.537109-2.63672l-22.9004-60.9863c-1.12305-2.97852-3.125-4.49219-6.25-4.49219-3.02734 0-5.07812 1.46484-6.15234 4.44336l-22.9004 61.084c-0.390625 1.02539-0.537109 1.80664-0.537109 2.63672 0 2.44141 1.5625 3.95508 4.10156 3.95508Zm13.4766-28.3691 11.8652-32.8613h0.244141l11.8652 32.8613Z"/>
  </g>
  <line style="fill:none;stroke:#00AEEF;stroke-width:0.5;opacity:1.0;" x1="792.836" x2="792.836" y1="1919" y2="1933"/>
  <text style="stroke:none;fill:black;font-family:sans-serif;font-size:13;font-weight:bold;" transform="matrix(1 0 0 1 776 1953)">Margins</text>
  <text style="stroke:none;fill:black;font-family:sans-serif;font-size:13;" transform="matrix(1 0 0 1 776 1971)">Leading and trailing margins on the left and right side of each symbol</text>
  <text style="stroke:none;fill:black;font-family:sans-serif;font-size:13;" transform="matrix(1 0 0 1 776 1989)">can be adjusted by modifying the x-location of the margin guidelines.</text>
  <text style="stroke:none;fill:black;font-family:sans-serif;font-size:13;" transform="matrix(1 0 0 1 776 2007)">Modifications are automatically applied proportionally to all</text>
  <text style="stroke:none;fill:black;font-family:sans-serif;font-size:13;" transform="matrix(1 0 0 1 776 2025)">scales and weights.</text>
  <g transform="matrix(0.2 0 0 0.2 1289 1933)">
   <path d="m14.209 9.32617 8.49609 8.54492c4.29688 4.3457 9.22852 4.05273 13.8672-1.07422l53.4668-58.9355-4.83398-4.88281-53.0762 58.3984c-1.75781 2.00195-3.41797 2.49023-5.76172 0.146484l-5.85938-5.81055c-2.34375-2.29492-1.80664-4.00391 0.195312-5.81055l57.373-54.0039-4.88281-4.83398-57.959 54.4434c-4.93164 4.58984-5.32227 9.47266-1.02539 13.8184Zm32.0801-90.9668c-2.09961 2.05078-2.24609 4.93164-1.07422 6.88477 1.17188 1.80664 3.4668 2.97852 6.68945 2.14844 7.32422-1.70898 14.9414-2.00195 22.0703 2.68555l-2.92969 7.27539c-1.70898 4.15039-0.830078 7.08008 1.85547 9.81445l11.4746 11.5723c2.44141 2.44141 4.49219 2.53906 7.32422 2.05078l5.32227-0.976562 3.32031 3.36914-0.195312 2.7832c-0.195312 2.49023 0.439453 4.39453 2.88086 6.78711l3.80859 3.71094c2.39258 2.39258 5.46875 2.53906 7.8125 0.195312l14.5508-14.5996c2.34375-2.34375 2.24609-5.32227-0.146484-7.71484l-3.85742-3.80859c-2.39258-2.39258-4.24805-3.17383-6.64062-2.97852l-2.88086 0.244141-3.22266-3.17383 1.2207-5.61523c0.634766-2.83203-0.146484-5.0293-3.07617-7.95898l-10.9863-10.9375c-16.6992-16.6016-38.8672-16.2109-53.3203-1.75781Zm7.4707 1.85547c12.1582-8.88672 28.6133-7.37305 39.7461 3.75977l12.1582 12.0605c1.17188 1.17188 1.36719 2.09961 1.02539 3.80859l-1.61133 7.42188 7.51953 7.42188 4.93164-0.292969c1.26953-0.0488281 1.66016 0.0488281 2.63672 1.02539l2.88086 2.88086-12.207 12.207-2.88086-2.88086c-0.976562-0.976562-1.12305-1.36719-1.07422-2.68555l0.341797-4.88281-7.4707-7.42188-7.61719 1.26953c-1.61133 0.341797-2.34375 0.195312-3.56445-0.976562l-10.0098-10.0098c-1.26953-1.17188-1.41602-2.00195-0.634766-3.85742l4.39453-10.4492c-7.8125-7.27539-17.9688-10.4004-28.125-7.42188-0.78125 0.195312-1.07422-0.439453-0.439453-0.976562Z"/>
  </g>
  <text style="stroke:none;fill:black;font-family:sans-serif;font-size:13;font-weight:bold;" transform="matrix(1 0 0 1 1289 1953)">Exporting</text>
  <text style="stroke:none;fill:black;font-family:sans-serif;font-size:13;" transform="matrix(1 0 0 1 1289 1971)">Symbols should be outlined when exporting to ensure the</text>
  <text style="stroke:none;fill:black;font-family:sans-serif;font-size:13;" transform="matrix(1 0 0 1 1289 1989)">design is preserved when submitting to Xcode.</text>
  <text id="template-version" style="stroke:none;fill:black;font-family:sans-serif;font-size:13;text-anchor:end;" transform="matrix(1 0 0 1 3036 1933)">Template v.5.0</text>
  <text style="stroke:none;fill:black;font-family:sans-serif;font-size:13;text-anchor:end;" transform="matrix(1 0 0 1 3036 1951)">Requires Xcode 15 or greater</text>
  <text id="descriptive-name" style="stroke:none;fill:black;font-family:sans-serif;font-size:13;text-anchor:end;" transform="matrix(1 0 0 1 3036 1969)">Generated from list.star</text>
  <text style="stroke:none;fill:black;font-family:sans-serif;font-size:13;text-anchor:end;" transform="matrix(1 0 0 1 3036 1987)">Typeset at 100.0 points</text>
  <text style="stroke:none;fill:black;font-family:sans-serif;font-size:13;" transform="matrix(1 0 0 1 263 726)">Small</text>
  <text style="stroke:none;fill:black;font-family:sans-serif;font-size:13;" transform="matrix(1 0 0 1 263 1156)">Medium</text>
  <text style="stroke:none;fill:black;font-family:sans-serif;font-size:13;" transform="matrix(1 0 0 1 263 1586)">Large</text>
 </g>
 <g id="Guides">
  <g id="H-reference" style="fill:#27AAE1;stroke:none;" transform="matrix(1 0 0 1 339 696)">
   <path d="M0.993654 0L3.63775 0L29.3281-67.1323L30.0303-67.1323L30.0303-70.459L28.1226-70.459ZM11.6885-24.4799L46.9815-24.4799L46.2315-26.7285L12.4385-26.7285ZM55.1196 0L57.7637 0L30.6382-70.459L29.4326-70.459L29.4326-67.1323Z"/>
  </g>
  <line id="Baseline-S" style="fill:none;stroke:#27AAE1;opacity:1;stroke-width:0.5;" x1="263" x2="3036" y1="696" y2="696"/>
  <line id="Capline-S" style="fill:none;stroke:#27AAE1;opacity:1;stroke-width:0.5;" x1="263" x2="3036" y1="625.541" y2="625.541"/>
  <g id="H-reference" style="fill:#27AAE1;stroke:none;" transform="matrix(1 0 0 1 339 1126)">
   <path d="M0.993654 0L3.63775 0L29.3281-67.1323L30.0303-67.1323L30.0303-70.459L28.1226-70.459ZM11.6885-24.4799L46.9815-24.4799L46.2315-26.7285L12.4385-26.7285ZM55.1196 0L57.7637 0L30.6382-70.459L29.4326-70.459L29.4326-67.1323Z"/>
  </g>
  <line id="Baseline-M" style="fill:none;stroke:#27AAE1;opacity:1;stroke-width:0.5;" x1="263" x2="3036" y1="1126" y2="1126"/>
  <line id="Capline-M" style="fill:none;stroke:#27AAE1;opacity:1;stroke-width:0.5;" x1="263" x2="3036" y1="1055.54" y2="1055.54"/>
  <g id="H-reference" style="fill:#27AAE1;stroke:none;" transform="matrix(1 0 0 1 339 1556)">
   <path d="M0.993654 0L3.63775 0L29.3281-67.1323L30.0303-67.1323L30.0303-70.459L28.1226-70.459ZM11.6885-24.4799L46.9815-24.4799L46.2315-26.7285L12.4385-26.7285ZM55.1196 0L57.7637 0L30.6382-70.459L29.4326-70.459L29.4326-67.1323Z"/>
  </g>
  <line id="Baseline-L" style="fill:none;stroke:#27AAE1;opacity:1;stroke-width:0.5;" x1="263" x2="3036" y1="1556" y2="1556"/>
  <line id="Capline-L" style="fill:none;stroke:#27AAE1;opacity:1;stroke-width:0.5;" x1="263" x2="3036" y1="1485.54" y2="1485.54"/>
  <line id="left-margin-Ultralight-S" style="fill:none;stroke:#00AEEF;stroke-width:0.5;opacity:1.0;" x1="513.207" x2="513.207" y1="600.785" y2="720.121"/>
  <line id="right-margin-Ultralight-S" style="fill:none;stroke:#00AEEF;stroke-width:0.5;opacity:1.0;" x1="606.215" x2="606.215" y1="600.785" y2="720.121"/>
  <line id="left-margin-Regular-S" style="fill:none;stroke:#00AEEF;stroke-width:0.5;opacity:1.0;" x1="1401.14" x2="1401.14" y1="600.785" y2="720.121"/>
  <line id="right-margin-Regular-S" style="fill:none;stroke:#00AEEF;stroke-width:0.5;opacity:1.0;" x1="1498.55" x2="1498.55" y1="600.785" y2="720.121"/>
  <line id="left-margin-Black-S" style="fill:none;stroke:#00AEEF;stroke-width:0.5;opacity:1.0;" x1="2879.69" x2="2879.69" y1="600.785" y2="720.121"/>
  <line id="right-margin-Black-S" style="fill:none;stroke:#00AEEF;stroke-width:0.5;opacity:1.0;" x1="2987.11" x2="2987.11" y1="600.785" y2="720.121"/>
 </g>
 <g id="Symbols">
  <g id="Black-S" transform="matrix(1 0 0 1 2879.69 696)">
   <path class="SFSymbolsPreviewWireframe" d="M43.7012-54.1504L91.3086-54.1504C94.8242-54.1504 97.6562-56.9336 97.6562-60.498C97.6562-64.0137 94.873-66.8457 91.3086-66.8457L43.7012-66.8457C40.1855-66.8457 37.3535-64.0625 37.3535-60.498C37.3535-56.9824 40.1367-54.1504 43.7012-54.1504ZM43.7012-28.8574L91.3086-28.8574C94.8242-28.8574 97.6562-31.6406 97.6562-35.2051C97.6562-38.7207 94.873-41.5527 91.3086-41.5527L43.7012-41.5527C40.1855-41.5527 37.3535-38.7695 37.3535-35.2051C37.3535-31.6895 40.1367-28.8574 43.7012-28.8574ZM43.7012-3.56445L91.3086-3.56445C94.8242-3.56445 97.6562-6.34766 97.6562-9.91211C97.6562-13.4277 94.873-16.2598 91.3086-16.2598L43.7012-16.2598C40.1855-16.2598 37.3535-13.4766 37.3535-9.91211C37.3535-6.39648 40.1367-3.56445 43.7012-3.56445ZM16.2109-52.002L18.9941-54.0527L21.7285-52.002C23.7793-50.4883 26.2695-52.2461 25.4883-54.5898L24.3652-58.0078L27.1484-60.0586C29.0527-61.4746 28.1738-64.3066 25.7812-64.3066L22.3633-64.3066L21.1914-67.9688C20.5078-70.166 17.4805-70.1172 16.7969-67.9688L15.625-64.3066L12.1582-64.3066C9.76562-64.3066 8.88672-61.4746 10.791-60.0586L13.623-57.959L12.5-54.5898C11.7188-52.2461 14.1602-50.4883 16.2109-52.002ZM16.2109-26.709L18.9941-28.7598L21.7285-26.709C23.7793-25.1953 26.2695-26.9531 25.4883-29.2969L24.3652-32.7148L27.1484-34.7656C29.0527-36.1816 28.1738-39.0137 25.7812-39.0137L22.3633-39.0137L21.1914-42.6758C20.5078-44.873 17.4805-44.8242 16.7969-42.6758L15.625-39.0137L12.1582-39.0137C9.76562-39.0137 8.88672-36.1816 10.791-34.7656L13.623-32.666L12.5-29.2969C11.7188-26.9531 14.1602-25.1953 16.2109-26.709ZM16.2109-1.41602L18.9941-3.4668L21.7285-1.41602C23.7793 0.0976562 26.2695-1.66016 25.4883-4.00391L24.3652-7.42188L27.1484-9.47266C29.0527-10.8887 28.1738-13.7207 25.7812-13.7207L22.3633-13.7207L21.1914-17.3828C20.5078-19.5801 17.4805-19.5312 16.7969-17.3828L15.625-13.7207L12.1582-13.7207C9.76562-13.7207 8.88672-10.8887 10.791-9.47266L13.623-7.37305L12.5-4.00391C11.7188-1.66016 14.1602 0.0976562 16.2109-1.41602Z"/>
  </g>
  <g id="Regular-S" transform="matrix(1 0 0 1 1401.14 696)">
   <path class="SFSymbolsPreviewWireframe" d="M36.8652-54.9805L84.1309-54.9805C86.084-54.9805 87.6465-56.543 87.6465-58.4961C87.6465-60.4492 86.084-62.0117 84.1309-62.0117L36.8652-62.0117C34.9121-62.0117 33.3496-60.4492 33.3496-58.4961C33.3496-56.543 34.9121-54.9805 36.8652-54.9805ZM36.8652-31.6895L84.1309-31.6895C86.084-31.6895 87.6465-33.252 87.6465-35.2051C87.6465-37.1582 86.084-38.7207 84.1309-38.7207L36.8652-38.7207C34.9121-38.7207 33.3496-37.1582 33.3496-35.2051C33.3496-33.252 34.9121-31.6895 36.8652-31.6895ZM36.8652-8.39844L84.1309-8.39844C86.084-8.39844 87.6465-9.96094 87.6465-11.9141C87.6465-13.8672 86.084-15.4297 84.1309-15.4297L36.8652-15.4297C34.9121-15.4297 33.3496-13.8672 33.3496-11.9141C33.3496-9.96094 34.9121-8.39844 36.8652-8.39844ZM14.5508-51.9043L17.9199-54.3945L21.1914-51.9043C22.4121-50.9766 23.8281-51.9531 23.3887-53.3691L22.0703-57.373L25.3418-59.8633C26.4648-60.6934 26.0254-62.2559 24.6094-62.2559L20.459-62.2559L19.1406-66.5527C18.75-67.7734 17.041-67.7734 16.6504-66.5527L15.332-62.2559L11.1328-62.2559C9.7168-62.2559 9.27734-60.6934 10.4004-59.8633L13.7207-57.373L12.4512-53.3691C11.9629-51.9531 13.3301-51.0254 14.5508-51.9043ZM14.5508-28.6621L17.9199-31.1523L21.1914-28.6621C22.4121-27.7344 23.8281-28.7109 23.3887-30.127L22.0703-34.1309L25.3418-36.6211C26.4648-37.4512 26.0254-39.0137 24.6094-39.0137L20.459-39.0137L19.1406-43.3105C18.75-44.5312 17.041-44.5801 16.6504-43.3105L15.332-39.0137L11.1328-39.0137C9.7168-39.0137 9.27734-37.4512 10.4004-36.6211L13.7207-34.1309L12.4512-30.127C11.9629-28.7109 13.3301-27.7832 14.5508-28.6621ZM14.5508-5.32227L17.9199-7.8125L21.1914-5.32227C22.4121-4.39453 23.8281-5.37109 23.3887-6.78711L22.0703-10.791L25.3418-13.2812C26.4648-14.1113 26.0254-15.6738 24.6094-15.6738L20.459-15.6738L19.1406-19.9707C18.75-21.2402 17.041-21.2402 16.6504-19.9707L15.332-15.6738L11.1328-15.6738C9.7168-15.6738 9.27734-14.1113 10.4004-13.2812L13.7207-10.791L12.4512-6.78711C11.9629-5.37109 13.3301-4.44336 14.5508-5.32227Z"/>
  </g>
  <g id="Ultralight-S" transform="matrix(1 0 0 1 513.207 696)">
   <path class="SFSymbolsPreviewWireframe" d="M30.0084-56.5244L82.1328-56.5244C82.8145-56.5244 83.2417-56.9517 83.2417-57.6333C83.2417-58.2695 82.8145-58.6968 82.1328-58.6968L30.0084-58.6968C29.3721-58.6968 28.8994-58.2695 28.8994-57.6333C28.8994-56.9517 29.3721-56.5244 30.0084-56.5244ZM30.0084-34.0962L82.1328-34.0962C82.8145-34.0962 83.2417-34.5688 83.2417-35.2051C83.2417-35.8413 82.8145-36.314 82.1328-36.314L30.0084-36.314C29.3721-36.314 28.8994-35.8413 28.8994-35.2051C28.8994-34.5688 29.3721-34.0962 30.0084-34.0962ZM30.0084-11.7134L82.1328-11.7134C82.8145-11.7134 83.2417-12.1406 83.2417-12.7768C83.2417-13.4585 82.8145-13.8858 82.1328-13.8858L30.0084-13.8858C29.3721-13.8858 28.8994-13.4585 28.8994-12.7768C28.8994-12.1406 29.3721-11.7134 30.0084-11.7134ZM12.689-52.6763L15.5586-54.8032L18.376-52.6763C19.0064-52.2934 19.5142-52.6343 19.3018-53.2783L18.1651-56.7373L21.0279-58.8643C21.5152-59.1948 21.3482-59.8491 20.7495-59.8491L17.2349-59.8491L16.0528-63.5557C15.8892-63.959 15.2246-64.0044 15.1065-63.5557L13.9243-59.8491L10.3154-59.8491C9.7168-59.8491 9.5498-59.1948 10.0371-58.8643L12.9033-56.7373L11.8154-53.2783C11.5542-52.6343 12.1494-52.2969 12.689-52.6763ZM12.689-30.3423L15.5586-32.4692L18.376-30.3423C19.0064-29.8686 19.5142-30.3003 19.3018-30.8989L18.1651-34.3579L21.0279-36.4849C21.5152-36.8608 21.3482-37.4697 20.7495-37.4697L17.2349-37.4697L16.0528-41.1763C15.8892-41.625 15.2246-41.6739 15.1065-41.1763L13.9243-37.4697L10.3154-37.4697C9.7168-37.4697 9.5498-36.8608 10.0371-36.4849L12.9033-34.3579L11.8154-30.8989C11.5996-30.3003 12.1494-29.9175 12.689-30.3423ZM12.689-7.86521L15.5586-9.99217L18.376-7.86521C19.0064-7.39158 19.5142-7.82322 19.3018-8.46727L18.1651-11.9263L21.0279-14.0078C21.5152-14.3838 21.3482-15.0381 20.7495-15.0381L17.2349-15.0381L16.0528-18.6992C15.8892-19.1514 15.2246-19.1968 15.1065-18.6992L13.9243-15.0381L10.3154-15.0381C9.7168-15.0381 9.5498-14.3838 10.0371-14.0078L12.9033-11.9263L11.8154-8.46727C11.5996-7.82322 12.1494-7.44041 12.689-7.86521Z"/>
  </g>
 </g>
</svg>
