<?xml version="1.0" encoding="UTF-8"?>
<!--Generator: Apple Native CoreSVG 232.5-->
<!DOCTYPE svg
PUBLIC "-//W3C//DTD SVG 1.1//EN"
       "http://www.w3.org/Graphics/SVG/1.1/DTD/svg11.dtd">
<svg version="1.1" xmlns="http://www.w3.org/2000/svg" xmlns:xlink="http://www.w3.org/1999/xlink" width="3300" height="2200">
 <!--glyph: "uni100B09.medium", point size: 100.0, font version: "19.2d2e1", template writer version: "128"-->
 <style>.SFSymbolsPreviewWireframe {fill:none;opacity:1.0;stroke:black;stroke-width:0.5}
</style>
 <g id="Notes">
  <rect height="2200" id="artboard" style="fill:white;opacity:1" width="3300" x="0" y="0"/>
  <line style="fill:none;stroke:black;opacity:1;stroke-width:0.5;" x1="263" x2="3036" y1="292" y2="292"/>
  <text style="stroke:none;fill:black;font-family:sans-serif;font-size:13;font-weight:bold;" transform="matrix(1 0 0 1 263 322)">Weight/Scale Variations</text>
  <text style="stroke:none;fill:black;font-family:sans-serif;font-size:13;text-anchor:middle;" transform="matrix(1 0 0 1 559.711 322)">Ultralight</text>
  <text style="stroke:none;fill:black;font-family:sans-serif;font-size:13;text-anchor:middle;" transform="matrix(1 0 0 1 856.422 322)">Thin</text>
  <text style="stroke:none;fill:black;font-family:sans-serif;font-size:13;text-anchor:middle;" transform="matrix(1 0 0 1 1153.13 322)">Light</text>
  <text style="stroke:none;fill:black;font-family:sans-serif;font-size:13;text-anchor:middle;" transform="matrix(1 0 0 1 1449.84 322)">Regular</text>
  <text style="stroke:none;fill:black;font-family:sans-serif;font-size:13;text-anchor:middle;" transform="matrix(1 0 0 1 1746.56 322)">Medium</text>
  <text style="stroke:none;fill:black;font-family:sans-serif;font-size:13;text-anchor:middle;" transform="matrix(1 0 0 1 2043.27 322)">Semibold</text>
  <text style="stroke:none;fill:black;font-family:sans-serif;font-size:13;text-anchor:middle;" transform="matrix(1 0 0 1 2339.98 322)">Bold</text>
  <text style="stroke:none;fill:black;font-family:sans-serif;font-size:13;text-anchor:middle;" transform="matrix(1 0 0 1 2636.69 322)">Heavy</text>
  <text style="stroke:none;fill:black;font-family:sans-serif;font-size:13;text-anchor:middle;" transform="matrix(1 0 0 1 2933.4 322)">Black</text>
  <line style="fill:none;stroke:black;opacity:1;stroke-width:0.5;" x1="263" x2="3036" y1="1903" y2="1903"/>
  <g transform="matrix(0.2 0 0 0.2 263 1933)">
   <path d="m46.2402 4.15039c21.5332 0 39.4531-17.8711 39.4531-39.4043s-17.9688-39.4043-39.502-39.4043c-21.4844 0-39.3555 17.8711-39.3555 39.4043s17.9199 39.4043 39.4043 39.4043Zm0-7.42188c-17.7246 0-31.8848-14.209-31.8848-31.9824s14.1113-31.9824 31.8359-31.9824c17.7734 0 32.0312 14.209 32.0312 31.9824s-14.209 31.9824-31.9824 31.9824Zm-17.9688-31.9824c0 2.14844 1.51367 3.61328 3.75977 3.61328h10.498v10.5957c0 2.19727 1.46484 3.71094 3.61328 3.71094 2.24609 0 3.71094-1.51367 3.71094-3.71094v-10.5957h10.5957c2.19727 0 3.71094-1.46484 3.71094-3.61328 0-2.19727-1.51367-3.71094-3.71094-3.71094h-10.5957v-10.5469c0-2.24609-1.46484-3.75977-3.71094-3.75977-2.14844 0-3.61328 1.51367-3.61328 3.75977v10.5469h-10.498c-2.24609 0-3.75977 1.51367-3.75977 3.71094Z"/>
  </g>
  <g transform="matrix(0.2 0 0 0.2 281.506 1933)">
   <path d="m58.5449 14.5508c27.2461 0 49.8047-22.6074 49.8047-49.8047 0-27.2461-22.6074-49.8047-49.8535-49.8047-27.1973 0-49.7559 22.5586-49.7559 49.8047 0 27.1973 22.6074 49.8047 49.8047 49.8047Zm0-8.30078c-23.0469 0-41.4551-18.457-41.4551-41.5039s18.3594-41.5039 41.4062-41.5039 41.5527 18.457 41.5527 41.5039-18.457 41.5039-41.5039 41.5039Zm-22.6562-41.5039c0 2.39258 1.66016 4.00391 4.15039 4.00391h14.3555v14.4043c0 2.44141 1.66016 4.15039 4.05273 4.15039 2.44141 0 4.15039-1.66016 4.15039-4.15039v-14.4043h14.4043c2.44141 0 4.15039-1.61133 4.15039-4.00391 0-2.44141-1.70898-4.15039-4.15039-4.15039h-14.4043v-14.3555c0-2.49023-1.70898-4.19922-4.15039-4.19922-2.39258 0-4.05273 1.70898-4.05273 4.19922v14.3555h-14.3555c-2.49023 0-4.15039 1.70898-4.15039 4.15039Z"/>
  </g>
  <g transform="matrix(0.2 0 0 0.2 304.924 1933)">
   <path d="m74.8535 28.3203c34.8145 0 63.623-28.8086 63.623-63.5742 0-34.8145-28.8574-63.623-63.6719-63.623-34.7656 0-63.5254 28.8086-63.5254 63.623 0 34.7656 28.8086 63.5742 63.5742 63.5742Zm0-9.08203c-30.1758 0-54.4434-24.3164-54.4434-54.4922 0-30.2246 24.2188-54.4922 54.3945-54.4922 30.2246 0 54.541 24.2676 54.541 54.4922 0 30.1758-24.2676 54.4922-54.4922 54.4922Zm-28.8574-54.4922c0 2.58789 1.85547 4.39453 4.58984 4.39453h19.7266v19.7754c0 2.68555 1.85547 4.58984 4.44336 4.58984 2.68555 0 4.54102-1.85547 4.54102-4.58984v-19.7754h19.7754c2.68555 0 4.58984-1.80664 4.58984-4.39453 0-2.73438-1.85547-4.58984-4.58984-4.58984h-19.7754v-19.7266c0-2.73438-1.85547-4.63867-4.54102-4.63867-2.58789 0-4.44336 1.9043-4.44336 4.63867v19.7266h-19.7266c-2.73438 0-4.58984 1.85547-4.58984 4.58984Z"/>
  </g>
  <text style="stroke:none;fill:black;font-family:sans-serif;font-size:13;font-weight:bold;" transform="matrix(1 0 0 1 263 1953)">Design Variations</text>
  <text style="stroke:none;fill:black;font-family:sans-serif;font-size:13;" transform="matrix(1 0 0 1 263 1971)">Symbols are supported in up to nine weights and three scales.</text>
  <text style="stroke:none;fill:black;font-family:sans-serif;font-size:13;" transform="matrix(1 0 0 1 263 1989)">For optimal layout with text and other symbols, vertically align</text>
  <text style="stroke:none;fill:black;font-family:sans-serif;font-size:13;" transform="matrix(1 0 0 1 263 2007)">symbols with the adjacent text.</text>
  <line style="fill:none;stroke:#00AEEF;stroke-width:0.5;opacity:1.0;" x1="776" x2="776" y1="1919" y2="1933"/>
  <g transform="matrix(0.2 0 0 0.2 776 1933)">
   <path d="m16.5527 0.78125c2.58789 0 3.85742-0.976562 4.78516-3.71094l6.29883-17.2363h28.8086l6.29883 17.2363c0.927734 2.73438 2.19727 3.71094 4.73633 3.71094 2.58789 0 4.24805-1.5625 4.24805-4.00391 0-0.830078-0.146484-1.61133-0.537109-2.63672l-22.9004-60.9863c-1.12305-2.97852-3.125-4.49219-6.25-4.49219-3.02734 0-5.07812 1.46484-6.15234 4.44336l-22.9004 61.084c-0.390625 1.02539-0.537109 1.80664-0.537109 2.63672 0 2.44141 1.5625 3.95508 4.10156 3.95508Zm13.4766-28.3691 11.8652-32.8613h0.244141l11.8652 32.8613Z"/>
  </g>
  <line style="fill:none;stroke:#00AEEF;stroke-width:0.5;opacity:1.0;" x1="792.836" x2="792.836" y1="1919" y2="1933"/>
  <text style="stroke:none;fill:black;font-family:sans-serif;font-size:13;font-weight:bold;" transform="matrix(1 0 0 1 776 1953)">Margins</text>
  <text style="stroke:none;fill:black;font-family:sans-serif;font-size:13;" transform="matrix(1 0 0 1 776 1971)">Leading and trailing margins on the left and right side of each symbol</text>
  <text style="stroke:none;fill:black;font-family:sans-serif;font-size:13;" transform="matrix(1 0 0 1 776 1989)">can be adjusted by modifying the x-location of the margin guidelines.</text>
  <text style="stroke:none;fill:black;font-family:sans-serif;font-size:13;" transform="matrix(1 0 0 1 776 2007)">Modifications are automatically applied proportionally to all</text>
  <text style="stroke:none;fill:black;font-family:sans-serif;font-size:13;" transform="matrix(1 0 0 1 776 2025)">scales and weights.</text>
  <g transform="matrix(0.2 0 0 0.2 1289 1933)">
   <path d="m14.209 9.32617 8.49609 8.54492c4.29688 4.3457 9.22852 4.05273 13.8672-1.07422l53.4668-58.9355-4.83398-4.88281-53.0762 58.3984c-1.75781 2.00195-3.41797 2.49023-5.76172 0.146484l-5.85938-5.81055c-2.34375-2.29492-1.80664-4.00391 0.195312-5.81055l57.373-54.0039-4.88281-4.83398-57.959 54.4434c-4.93164 4.58984-5.32227 9.47266-1.02539 13.8184Zm32.0801-90.9668c-2.09961 2.05078-2.24609 4.93164-1.07422 6.88477 1.17188 1.80664 3.4668 2.97852 6.68945 2.14844 7.32422-1.70898 14.9414-2.00195 22.0703 2.68555l-2.92969 7.27539c-1.70898 4.15039-0.830078 7.08008 1.85547 9.81445l11.4746 11.5723c2.44141 2.44141 4.49219 2.53906 7.32422 2.05078l5.32227-0.976562 3.32031 3.36914-0.195312 2.7832c-0.195312 2.49023 0.439453 4.39453 2.88086 6.78711l3.80859 3.71094c2.39258 2.39258 5.46875 2.53906 7.8125 0.195312l14.5508-14.5996c2.34375-2.34375 2.24609-5.32227-0.146484-7.71484l-3.85742-3.80859c-2.39258-2.39258-4.24805-3.17383-6.64062-2.97852l-2.88086 0.244141-3.22266-3.17383 1.2207-5.61523c0.634766-2.83203-0.146484-5.0293-3.07617-7.95898l-10.9863-10.9375c-16.6992-16.6016-38.8672-16.2109-53.3203-1.75781Zm7.4707 1.85547c12.1582-8.88672 28.6133-7.37305 39.7461 3.75977l12.1582 12.0605c1.17188 1.17188 1.36719 2.09961 1.02539 3.80859l-1.61133 7.42188 7.51953 7.42188 4.93164-0.292969c1.26953-0.0488281 1.66016 0.0488281 2.63672 1.02539l2.88086 2.88086-12.207 12.207-2.88086-2.88086c-0.976562-0.976562-1.12305-1.36719-1.07422-2.68555l0.341797-4.88281-7.4707-7.42188-7.61719 1.26953c-1.61133 0.341797-2.34375 0.195312-3.56445-0.976562l-10.0098-10.0098c-1.26953-1.17188-1.41602-2.00195-0.634766-3.85742l4.39453-10.4492c-7.8125-7.27539-17.9688-10.4004-28.125-7.42188-0.78125 0.195312-1.07422-0.439453-0.439453-0.976562Z"/>
  </g>
  <text style="stroke:none;fill:black;font-family:sans-serif;font-size:13;font-weight:bold;" transform="matrix(1 0 0 1 1289 1953)">Exporting</text>
  <text style="stroke:none;fill:black;font-family:sans-serif;font-size:13;" transform="matrix(1 0 0 1 1289 1971)">Symbols should be outlined when exporting to ensure the</text>
  <text style="stroke:none;fill:black;font-family:sans-serif;font-size:13;" transform="matrix(1 0 0 1 1289 1989)">design is preserved when submitting to Xcode.</text>
  <text id="template-version" style="stroke:none;fill:black;font-family:sans-serif;font-size:13;text-anchor:end;" transform="matrix(1 0 0 1 3036 1933)">Template v.5.0</text>
  <text style="stroke:none;fill:black;font-family:sans-serif;font-size:13;text-anchor:end;" transform="matrix(1 0 0 1 3036 1951)">Requires Xcode 15 or greater</text>
  <text id="descriptive-name" style="stroke:none;fill:black;font-family:sans-serif;font-size:13;text-anchor:end;" transform="matrix(1 0 0 1 3036 1969)">Generated from list.and.film</text>
  <text style="stroke:none;fill:black;font-family:sans-serif;font-size:13;text-anchor:end;" transform="matrix(1 0 0 1 3036 1987)">Typeset at 100.0 points</text>
  <text style="stroke:none;fill:black;font-family:sans-serif;font-size:13;" transform="matrix(1 0 0 1 263 726)">Small</text>
  <text style="stroke:none;fill:black;font-family:sans-serif;font-size:13;" transform="matrix(1 0 0 1 263 1156)">Medium</text>
  <text style="stroke:none;fill:black;font-family:sans-serif;font-size:13;" transform="matrix(1 0 0 1 263 1586)">Large</text>
 </g>
 <g id="Guides">
  <g id="H-reference" style="fill:#27AAE1;stroke:none;" transform="matrix(1 0 0 1 339 696)">
   <path d="M0.993654 0L3.63775 0L29.3281-67.1323L30.0303-67.1323L30.0303-70.459L28.1226-70.459ZM11.6885-24.4799L46.9815-24.4799L46.2315-26.7285L12.4385-26.7285ZM55.1196 0L57.7637 0L30.6382-70.459L29.4326-70.459L29.4326-67.1323Z"/>
  </g>
  <line id="Baseline-S" style="fill:none;stroke:#27AAE1;opacity:1;stroke-width:0.5;" x1="263" x2="3036" y1="696" y2="696"/>
  <line id="Capline-S" style="fill:none;stroke:#27AAE1;opacity:1;stroke-width:0.5;" x1="263" x2="3036" y1="625.541" y2="625.541"/>
  <g id="H-reference" style="fill:#27AAE1;stroke:none;" transform="matrix(1 0 0 1 339 1126)">
   <path d="M0.993654 0L3.63775 0L29.3281-67.1323L30.0303-67.1323L30.0303-70.459L28.1226-70.459ZM11.6885-24.4799L46.9815-24.4799L46.2315-26.7285L12.4385-26.7285ZM55.1196 0L57.7637 0L30.6382-70.459L29.4326-70.459L29.4326-67.1323Z"/>
  </g>
  <line id="Baseline-M" style="fill:none;stroke:#27AAE1;opacity:1;stroke-width:0.5;" x1="263" x2="3036" y1="1126" y2="1126"/>
  <line id="Capline-M" style="fill:none;stroke:#27AAE1;opacity:1;stroke-width:0.5;" x1="263" x2="3036" y1="1055.54" y2="1055.54"/>
  <g id="H-reference" style="fill:#27AAE1;stroke:none;" transform="matrix(1 0 0 1 339 1556)">
   <path d="M0.993654 0L3.63775 0L29.3281-67.1323L30.0303-67.1323L30.0303-70.459L28.1226-70.459ZM11.6885-24.4799L46.9815-24.4799L46.2315-26.7285L12.4385-26.7285ZM55.1196 0L57.7637 0L30.6382-70.459L29.4326-70.459L29.4326-67.1323Z"/>
  </g>
  <line id="Baseline-L" style="fill:none;stroke:#27AAE1;opacity:1;stroke-width:0.5;" x1="263" x2="3036" y1="1556" y2="1556"/>
  <line id="Capline-L" style="fill:none;stroke:#27AAE1;opacity:1;stroke-width:0.5;" x1="263" x2="3036" y1="1485.54" y2="1485.54"/>
  <line id="left-margin-Ultralight-S" style="fill:none;stroke:#00AEEF;stroke-width:0.5;opacity:1.0;" x1="507.256" x2="507.256" y1="600.785" y2="720.121"/>
  <line id="right-margin-Ultralight-S" style="fill:none;stroke:#00AEEF;stroke-width:0.5;opacity:1.0;" x1="612.167" x2="612.167" y1="600.785" y2="720.121"/>
  <line id="left-margin-Regular-S" style="fill:none;stroke:#00AEEF;stroke-width:0.5;opacity:1.0;" x1="1392.98" x2="1392.98" y1="600.785" y2="720.121"/>
  <line id="right-margin-Regular-S" style="fill:none;stroke:#00AEEF;stroke-width:0.5;opacity:1.0;" x1="1506.7" x2="1506.7" y1="600.785" y2="720.121"/>
  <line id="left-margin-Black-S" style="fill:none;stroke:#00AEEF;stroke-width:0.5;opacity:1.0;" x1="2869.8" x2="2869.8" y1="600.785" y2="720.121"/>
  <line id="right-margin-Black-S" style="fill:none;stroke:#00AEEF;stroke-width:0.5;opacity:1.0;" x1="2997" x2="2997" y1="600.785" y2="720.121"/>
 </g>
 <g id="Symbols">
  <g id="Black-S" transform="matrix(1 0 0 1 2869.8 696)">
   <path class="SFSymbolsPreviewWireframe" d="M15.8691-60.2539L91.5527-60.2539C94.9707-60.2539 97.6562-63.2812 97.6562-66.6016C97.6562-70.0684 95.0195-72.9492 91.5527-72.9492L15.8691-72.9492C12.4512-72.9492 9.76562-69.9707 9.76562-66.6016C9.76562-63.3789 12.5-60.2539 15.8691-60.2539ZM15.8691-40.1855L41.748-40.1855C45.166-40.1855 47.8516-43.2129 47.8516-46.5332C47.8516-50 45.2148-52.8809 41.748-52.8809L15.8691-52.8809C12.4512-52.8809 9.76562-49.9023 9.76562-46.5332C9.76562-43.3105 12.5-40.1855 15.8691-40.1855ZM15.8691-20.0684L41.748-20.0684C45.166-20.0684 47.8516-23.0957 47.8516-26.416C47.8516-29.8828 45.2148-32.7637 41.748-32.7637L15.8691-32.7637C12.4512-32.7637 9.76562-29.7852 9.76562-26.416C9.76562-23.1934 12.5-20.0684 15.8691-20.0684ZM15.8691 0L41.748 0C45.166 0 47.8516-3.02734 47.8516-6.34766C47.8516-9.81445 45.2148-12.6953 41.748-12.6953L15.8691-12.6953C12.4512-12.6953 9.76562-9.7168 9.76562-6.34766C9.76562-3.125 12.5 0 15.8691 0ZM63.2812 0L109.326 0C114.209 0 117.432-3.27148 117.432-8.10547L117.432-44.8242C117.432-49.707 114.209-52.9297 109.326-52.9297L63.2812-52.9297C58.3984-52.9297 55.1758-49.707 55.1758-44.8242L55.1758-8.10547C55.1758-3.27148 58.3984 0 63.2812 0ZM62.3535-38.4766C61.7676-38.4766 61.2793-38.916 61.2793-39.5508L61.2793-44.043C61.2793-44.6777 61.7676-45.1172 62.3535-45.1172L66.4062-45.1172C66.9922-45.1172 67.4805-44.6777 67.4805-44.043L67.4805-39.5508C67.4805-38.916 66.9922-38.4766 66.4062-38.4766ZM62.3535-28.2715C61.7676-28.2715 61.2793-28.7109 61.2793-29.3457L61.2793-33.8379C61.2793-34.4238 61.7676-34.9121 62.3535-34.9121L66.4062-34.9121C66.9922-34.9121 67.4805-34.4238 67.4805-33.8379L67.4805-29.3457C67.4805-28.7109 66.9922-28.2715 66.4062-28.2715ZM62.3535-18.1152C61.7676-18.1152 61.2793-18.6035 61.2793-19.1895L61.2793-23.6816C61.2793-24.3164 61.7676-24.7559 62.3535-24.7559L66.4062-24.7559C66.9922-24.7559 67.4805-24.3164 67.4805-23.6816L67.4805-19.1895C67.4805-18.6035 66.9922-18.1152 66.4062-18.1152ZM62.3535-7.91016C61.7676-7.91016 61.2793-8.34961 61.2793-8.98438L61.2793-13.4766C61.2793-14.1113 61.7676-14.5508 62.3535-14.5508L66.4062-14.5508C66.9922-14.5508 67.4805-14.1113 67.4805-13.4766L67.4805-8.98438C67.4805-8.34961 66.9922-7.91016 66.4062-7.91016ZM106.201-38.4766C105.615-38.4766 105.127-38.916 105.127-39.5508L105.127-44.043C105.127-44.6777 105.615-45.1172 106.201-45.1172L110.254-45.1172C110.84-45.1172 111.328-44.6777 111.328-44.043L111.328-39.5508C111.328-38.916 110.84-38.4766 110.254-38.4766ZM106.201-28.2715C105.615-28.2715 105.127-28.7109 105.127-29.3457L105.127-33.8379C105.127-34.4238 105.615-34.9121 106.201-34.9121L110.254-34.9121C110.84-34.9121 111.328-34.4238 111.328-33.8379L111.328-29.3457C111.328-28.7109 110.84-28.2715 110.254-28.2715ZM106.201-18.1152C105.615-18.1152 105.127-18.6035 105.127-19.1895L105.127-23.6816C105.127-24.3164 105.615-24.7559 106.201-24.7559L110.254-24.7559C110.84-24.7559 111.328-24.3164 111.328-23.6816L111.328-19.1895C111.328-18.6035 110.84-18.1152 110.254-18.1152ZM106.201-7.91016C105.615-7.91016 105.127-8.34961 105.127-8.98438L105.127-13.4766C105.127-14.1113 105.615-14.5508 106.201-14.5508L110.254-14.5508C110.84-14.5508 111.328-14.1113 111.328-13.4766L111.328-8.98438C111.328-8.34961 110.84-7.91016 110.254-7.91016ZM74.1211-7.91016C73.0957-7.91016 72.3145-8.74023 72.3145-9.7168L72.3145-20.752C72.3145-21.7773 73.0957-22.5586 74.1211-22.5586L98.5352-22.5586C99.5605-22.5586 100.342-21.7773 100.342-20.752L100.342-9.7168C100.342-8.74023 99.5605-7.91016 98.5352-7.91016ZM74.1211-30.4199C73.0957-30.4199 72.3145-31.25 72.3145-32.2754L72.3145-43.2617C72.3145-44.2871 73.0957-45.1172 74.1211-45.1172L98.5352-45.1172C99.5605-45.1172 100.342-44.2871 100.342-43.2617L100.342-32.2754C100.342-31.25 99.5605-30.4199 98.5352-30.4199Z"/>
  </g>
  <g id="Regular-S" transform="matrix(1 0 0 1 1392.98 696)">
   <path class="SFSymbolsPreviewWireframe" d="M13.0371-62.1582L84.2773-62.1582C86.1328-62.1582 87.6465-63.5742 87.6465-65.4297C87.6465-67.2852 86.1328-68.7012 84.2773-68.7012L13.0371-68.7012C11.2305-68.7012 9.76562-67.2852 9.76562-65.4297C9.76562-63.5742 11.2305-62.1582 13.0371-62.1582ZM13.0371-42.0898L35.8398-42.0898C37.6465-42.0898 39.1602-43.5547 39.1602-45.4102C39.1602-47.2168 37.6465-48.6816 35.8398-48.6816L13.0371-48.6816C11.2305-48.6816 9.76562-47.2168 9.76562-45.4102C9.76562-43.5547 11.2305-42.0898 13.0371-42.0898ZM13.0371-22.0703L35.8398-22.0703C37.6465-22.0703 39.1602-23.5352 39.1602-25.3906C39.1602-27.1973 37.6465-28.6621 35.8398-28.6621L13.0371-28.6621C11.2305-28.6621 9.76562-27.1973 9.76562-25.3906C9.76562-23.5352 11.2305-22.0703 13.0371-22.0703ZM13.0371-2.05078L35.8398-2.05078C37.6465-2.05078 39.1602-3.51562 39.1602-5.37109C39.1602-7.17773 37.6465-8.64258 35.8398-8.64258L13.0371-8.64258C11.2305-8.64258 9.76562-7.17773 9.76562-5.37109C9.76562-3.51562 11.2305-2.05078 13.0371-2.05078ZM52.3926-2.14844L98.3887-2.14844C101.758-2.14844 103.955-4.3457 103.955-7.66602L103.955-43.1152C103.955-46.3867 101.758-48.584 98.3887-48.584L52.3926-48.584C49.0723-48.584 46.8262-46.3867 46.8262-43.1152L46.8262-7.66602C46.8262-4.3457 49.0723-2.14844 52.3926-2.14844ZM52.7832-37.207C52.0508-37.207 51.5625-37.6953 51.5625-38.3789L51.5625-42.7246C51.5625-43.4082 52.0508-43.9453 52.7832-43.9453L56.4453-43.9453C57.1777-43.9453 57.666-43.4082 57.666-42.7246L57.666-38.3789C57.666-37.6953 57.1777-37.207 56.4453-37.207ZM52.7832-27.0996C52.0508-27.0996 51.5625-27.6367 51.5625-28.2227L51.5625-32.5684C51.5625-33.3008 52.0508-33.7891 52.7832-33.7891L56.4453-33.7891C57.1777-33.7891 57.666-33.3008 57.666-32.5684L57.666-28.2227C57.666-27.6367 57.1777-27.0996 56.4453-27.0996ZM52.7832-16.9922C52.0508-16.9922 51.5625-17.4805 51.5625-18.1152L51.5625-22.4609C51.5625-23.1934 52.0508-23.6816 52.7832-23.6816L56.4453-23.6816C57.1777-23.6816 57.666-23.1934 57.666-22.4609L57.666-18.1152C57.666-17.4805 57.1777-16.9922 56.4453-16.9922ZM52.7832-6.83594C52.0508-6.83594 51.5625-7.32422 51.5625-8.00781L51.5625-12.3535C51.5625-13.0859 52.0508-13.5742 52.7832-13.5742L56.4453-13.5742C57.1777-13.5742 57.666-13.0859 57.666-12.3535L57.666-8.00781C57.666-7.32422 57.1777-6.83594 56.4453-6.83594ZM94.3848-37.207C93.6035-37.207 93.1152-37.6953 93.1152-38.3789L93.1152-42.7246C93.1152-43.4082 93.6035-43.9453 94.3848-43.9453L97.998-43.9453C98.7793-43.9453 99.2676-43.4082 99.2676-42.7246L99.2676-38.3789C99.2676-37.6953 98.7793-37.207 97.998-37.207ZM94.3848-27.0996C93.6035-27.0996 93.1152-27.6367 93.1152-28.2227L93.1152-32.5684C93.1152-33.3008 93.6035-33.7891 94.3848-33.7891L97.998-33.7891C98.7793-33.7891 99.2676-33.3008 99.2676-32.5684L99.2676-28.2227C99.2676-27.6367 98.7793-27.0996 97.998-27.0996ZM94.3848-16.9922C93.6035-16.9922 93.1152-17.4805 93.1152-18.1152L93.1152-22.4609C93.1152-23.1934 93.6035-23.6816 94.3848-23.6816L97.998-23.6816C98.7793-23.6816 99.2676-23.1934 99.2676-22.4609L99.2676-18.1152C99.2676-17.4805 98.7793-16.9922 97.998-16.9922ZM94.3848-6.83594C93.6035-6.83594 93.1152-7.32422 93.1152-8.00781L93.1152-12.3535C93.1152-13.0859 93.6035-13.5742 94.3848-13.5742L97.998-13.5742C98.7793-13.5742 99.2676-13.0859 99.2676-12.3535L99.2676-8.00781C99.2676-7.32422 98.7793-6.83594 97.998-6.83594ZM63.4277-8.69141C62.6953-8.69141 62.2559-9.13086 62.2559-9.86328L62.2559-20.8496C62.2559-21.6309 62.6953-22.0703 63.4277-22.0703L87.3535-22.0703C88.0859-22.0703 88.5254-21.6309 88.5254-20.8496L88.5254-9.86328C88.5254-9.13086 88.0859-8.69141 87.3535-8.69141ZM63.4277-28.6133C62.6953-28.6133 62.2559-29.0527 62.2559-29.7852L62.2559-40.918C62.2559-41.6504 62.6953-42.0898 63.4277-42.0898L87.3535-42.0898C88.0859-42.0898 88.5254-41.6504 88.5254-40.918L88.5254-29.7852C88.5254-29.0527 88.0859-28.6133 87.3535-28.6133Z"/>
  </g>
  <g id="Ultralight-S" transform="matrix(1 0 0 1 507.256 696)">
   <path class="SFSymbolsPreviewWireframe" d="M10.8574-64.2925L82.1431-64.2925C82.7725-64.2925 83.2417-64.7549 83.2417-65.3843C83.2417-66.0137 82.7725-66.4761 82.1431-66.4761L10.8574-66.4761C10.2315-66.4761 9.76562-66.0137 9.76562-65.3843C9.76562-64.7549 10.2315-64.2925 10.8574-64.2925ZM10.8574-44.1787L39.8359-44.1787C40.4619-44.1787 40.9311-44.6445 40.9311-45.2739C40.9311-45.8999 40.4619-46.3657 39.8359-46.3657L10.8574-46.3657C10.2315-46.3657 9.76562-45.8999 9.76562-45.2739C9.76562-44.6445 10.2315-44.1787 10.8574-44.1787ZM10.8574-24.0683L39.8359-24.0683C40.4619-24.0683 40.9311-24.4888 40.9311-25.1636C40.9311-25.7896 40.4619-26.2554 39.8359-26.2554L10.8574-26.2554C10.2315-26.2554 9.76562-25.7896 9.76562-25.1636C9.76562-24.4888 10.2315-24.0683 10.8574-24.0683ZM10.8574-3.95799L39.8359-3.95799C40.4619-3.95799 40.9311-4.37841 40.9311-5.05323C40.9311-5.67921 40.4619-6.14504 39.8359-6.14504L10.8574-6.14504C10.2315-6.14504 9.76562-5.67921 9.76562-5.05323C9.76562-4.37841 10.2315-3.95799 10.8574-3.95799ZM49.3955-5.73581L91.7134-5.73581C93.9473-5.73581 95.1456-6.88865 95.1456-9.16454L95.1456-41.0264C95.1456-43.208 93.9473-44.4517 91.7134-44.4517L49.3955-44.4517C47.1196-44.4517 45.9634-43.208 45.9634-41.0264L45.9634-9.16454C45.9634-6.88865 47.1196-5.73581 49.3955-5.73581ZM49.4683-35.5723C48.5542-35.5723 48.0205-36.106 48.0205-36.9712L48.0205-40.8628C48.0205-41.7735 48.5542-42.356 49.4683-42.356L52.8579-42.356C53.772-42.356 54.3057-41.7735 54.3057-40.8628L54.3057-36.9712C54.3057-36.106 53.772-35.5723 52.8579-35.5723ZM49.4683-26.3276C48.5542-26.3276 48.0205-26.8648 48.0205-27.7231L48.0205-31.6148C48.0205-32.5288 48.5542-33.1079 49.4683-33.1079L52.8579-33.1079C53.772-33.1079 54.3057-32.5288 54.3057-31.6148L54.3057-27.7231C54.3057-26.8648 53.772-26.3276 52.8579-26.3276ZM49.4683-17.083C48.5542-17.083 48.0205-17.6167 48.0205-18.4785L48.0205-22.3701C48.0205-23.2842 48.5542-23.8633 49.4683-23.8633L52.8579-23.8633C53.772-23.8633 54.3057-23.2842 54.3057-22.3701L54.3057-18.4785C54.3057-17.6167 53.772-17.083 52.8579-17.083ZM49.4683-7.78954C48.5542-7.78954 48.0205-8.32323 48.0205-9.23388L48.0205-13.0801C48.0205-13.9941 48.5542-14.5732 49.4683-14.5732L52.8579-14.5732C53.772-14.5732 54.3057-13.9941 54.3057-13.0801L54.3057-9.23388C54.3057-8.32323 53.772-7.78954 52.8579-7.78954ZM88.209-35.5723C87.2916-35.5723 86.7579-36.106 86.7579-36.9712L86.7579-40.8628C86.7579-41.7735 87.2916-42.356 88.209-42.356L91.5953-42.356C92.5127-42.356 93.0464-41.7735 93.0464-40.8628L93.0464-36.9712C93.0464-36.106 92.5127-35.5723 91.5953-35.5723ZM88.209-26.3276C87.2916-26.3276 86.7579-26.8648 86.7579-27.7231L86.7579-31.6148C86.7579-32.5288 87.2916-33.1079 88.209-33.1079L91.5953-33.1079C92.5127-33.1079 93.0464-32.5288 93.0464-31.6148L93.0464-27.7231C93.0464-26.8648 92.5127-26.3276 91.5953-26.3276ZM88.209-17.083C87.2916-17.083 86.7579-17.6167 86.7579-18.4785L86.7579-22.3701C86.7579-23.2842 87.2916-23.8633 88.209-23.8633L91.5953-23.8633C92.5127-23.8633 93.0464-23.2842 93.0464-22.3701L93.0464-18.4785C93.0464-17.6167 92.5127-17.083 91.5953-17.083ZM88.209-7.78954C87.2916-7.78954 86.7579-8.32323 86.7579-9.23388L86.7579-13.0801C86.7579-13.9941 87.2916-14.5732 88.209-14.5732L91.5953-14.5732C92.5127-14.5732 93.0464-13.9941 93.0464-13.0801L93.0464-9.23388C93.0464-8.32323 92.5127-7.78954 91.5953-7.78954ZM57.7061-7.91944C56.9283-7.91944 56.398-8.44971 56.398-9.22754L56.398-22.666C56.398-23.4473 56.9283-23.9775 57.7061-23.9775L83.3575-23.9775C84.1353-23.9775 84.6656-23.4473 84.6656-22.666L84.6656-9.22754C84.6656-8.44971 84.1353-7.91944 83.3575-7.91944ZM57.7061-26.2066C56.9283-26.2066 56.398-26.7368 56.398-27.5147L56.398-40.9634C56.398-41.7412 56.9283-42.2715 57.7061-42.2715L83.3575-42.2715C84.1353-42.2715 84.6656-41.7412 84.6656-40.9634L84.6656-27.5147C84.6656-26.7368 84.1353-26.2066 83.3575-26.2066Z"/>
  </g>
 </g>
</svg>
