<?xml version="1.0" encoding="UTF-8"?>
<!--Generator: Apple Native CoreSVG 232.5-->
<!DOCTYPE svg
PUBLIC "-//W3C//DTD SVG 1.1//EN"
       "http://www.w3.org/Graphics/SVG/1.1/DTD/svg11.dtd">
<svg version="1.1" xmlns="http://www.w3.org/2000/svg" xmlns:xlink="http://www.w3.org/1999/xlink" width="3300" height="2200">
 <!--glyph: "uni1015DC.medium", point size: 100.0, font version: "19.2d2e1", template writer version: "128"-->
 <style>.SFSymbolsPreviewWireframe {fill:none;opacity:1.0;stroke:black;stroke-width:0.5}
</style>
 <g id="Notes">
  <rect height="2200" id="artboard" style="fill:white;opacity:1" width="3300" x="0" y="0"/>
  <line style="fill:none;stroke:black;opacity:1;stroke-width:0.5;" x1="263" x2="3036" y1="292" y2="292"/>
  <text style="stroke:none;fill:black;font-family:sans-serif;font-size:13;font-weight:bold;" transform="matrix(1 0 0 1 263 322)">Weight/Scale Variations</text>
  <text style="stroke:none;fill:black;font-family:sans-serif;font-size:13;text-anchor:middle;" transform="matrix(1 0 0 1 559.711 322)">Ultralight</text>
  <text style="stroke:none;fill:black;font-family:sans-serif;font-size:13;text-anchor:middle;" transform="matrix(1 0 0 1 856.422 322)">Thin</text>
  <text style="stroke:none;fill:black;font-family:sans-serif;font-size:13;text-anchor:middle;" transform="matrix(1 0 0 1 1153.13 322)">Light</text>
  <text style="stroke:none;fill:black;font-family:sans-serif;font-size:13;text-anchor:middle;" transform="matrix(1 0 0 1 1449.84 322)">Regular</text>
  <text style="stroke:none;fill:black;font-family:sans-serif;font-size:13;text-anchor:middle;" transform="matrix(1 0 0 1 1746.56 322)">Medium</text>
  <text style="stroke:none;fill:black;font-family:sans-serif;font-size:13;text-anchor:middle;" transform="matrix(1 0 0 1 2043.27 322)">Semibold</text>
  <text style="stroke:none;fill:black;font-family:sans-serif;font-size:13;text-anchor:middle;" transform="matrix(1 0 0 1 2339.98 322)">Bold</text>
  <text style="stroke:none;fill:black;font-family:sans-serif;font-size:13;text-anchor:middle;" transform="matrix(1 0 0 1 2636.69 322)">Heavy</text>
  <text style="stroke:none;fill:black;font-family:sans-serif;font-size:13;text-anchor:middle;" transform="matrix(1 0 0 1 2933.4 322)">Black</text>
  <line style="fill:none;stroke:black;opacity:1;stroke-width:0.5;" x1="263" x2="3036" y1="1903" y2="1903"/>
  <g transform="matrix(0.2 0 0 0.2 263 1933)">
   <path d="m46.2402 4.15039c21.5332 0 39.4531-17.8711 39.4531-39.4043s-17.9688-39.4043-39.502-39.4043c-21.4844 0-39.3555 17.8711-39.3555 39.4043s17.9199 39.4043 39.4043 39.4043Zm0-7.42188c-17.7246 0-31.8848-14.209-31.8848-31.9824s14.1113-31.9824 31.8359-31.9824c17.7734 0 32.0312 14.209 32.0312 31.9824s-14.209 31.9824-31.9824 31.9824Zm-17.9688-31.9824c0 2.14844 1.51367 3.61328 3.75977 3.61328h10.498v10.5957c0 2.19727 1.46484 3.71094 3.61328 3.71094 2.24609 0 3.71094-1.51367 3.71094-3.71094v-10.5957h10.5957c2.19727 0 3.71094-1.46484 3.71094-3.61328 0-2.19727-1.51367-3.71094-3.71094-3.71094h-10.5957v-10.5469c0-2.24609-1.46484-3.75977-3.71094-3.75977-2.14844 0-3.61328 1.51367-3.61328 3.75977v10.5469h-10.498c-2.24609 0-3.75977 1.51367-3.75977 3.71094Z"/>
  </g>
  <g transform="matrix(0.2 0 0 0.2 281.506 1933)">
   <path d="m58.5449 14.5508c27.2461 0 49.8047-22.6074 49.8047-49.8047 0-27.2461-22.6074-49.8047-49.8535-49.8047-27.1973 0-49.7559 22.5586-49.7559 49.8047 0 27.1973 22.6074 49.8047 49.8047 49.8047Zm0-8.30078c-23.0469 0-41.4551-18.457-41.4551-41.5039s18.3594-41.5039 41.4062-41.5039 41.5527 18.457 41.5527 41.5039-18.457 41.5039-41.5039 41.5039Zm-22.6562-41.5039c0 2.39258 1.66016 4.00391 4.15039 4.00391h14.3555v14.4043c0 2.44141 1.66016 4.15039 4.05273 4.15039 2.44141 0 4.15039-1.66016 4.15039-4.15039v-14.4043h14.4043c2.44141 0 4.15039-1.61133 4.15039-4.00391 0-2.44141-1.70898-4.15039-4.15039-4.15039h-14.4043v-14.3555c0-2.49023-1.70898-4.19922-4.15039-4.19922-2.39258 0-4.05273 1.70898-4.05273 4.19922v14.3555h-14.3555c-2.49023 0-4.15039 1.70898-4.15039 4.15039Z"/>
  </g>
  <g transform="matrix(0.2 0 0 0.2 304.924 1933)">
   <path d="m74.8535 28.3203c34.8145 0 63.623-28.8086 63.623-63.5742 0-34.8145-28.8574-63.623-63.6719-63.623-34.7656 0-63.5254 28.8086-63.5254 63.623 0 34.7656 28.8086 63.5742 63.5742 63.5742Zm0-9.08203c-30.1758 0-54.4434-24.3164-54.4434-54.4922 0-30.2246 24.2188-54.4922 54.3945-54.4922 30.2246 0 54.541 24.2676 54.541 54.4922 0 30.1758-24.2676 54.4922-54.4922 54.4922Zm-28.8574-54.4922c0 2.58789 1.85547 4.39453 4.58984 4.39453h19.7266v19.7754c0 2.68555 1.85547 4.58984 4.44336 4.58984 2.68555 0 4.54102-1.85547 4.54102-4.58984v-19.7754h19.7754c2.68555 0 4.58984-1.80664 4.58984-4.39453 0-2.73438-1.85547-4.58984-4.58984-4.58984h-19.7754v-19.7266c0-2.73438-1.85547-4.63867-4.54102-4.63867-2.58789 0-4.44336 1.9043-4.44336 4.63867v19.7266h-19.7266c-2.73438 0-4.58984 1.85547-4.58984 4.58984Z"/>
  </g>
  <text style="stroke:none;fill:black;font-family:sans-serif;font-size:13;font-weight:bold;" transform="matrix(1 0 0 1 263 1953)">Design Variations</text>
  <text style="stroke:none;fill:black;font-family:sans-serif;font-size:13;" transform="matrix(1 0 0 1 263 1971)">Symbols are supported in up to nine weights and three scales.</text>
  <text style="stroke:none;fill:black;font-family:sans-serif;font-size:13;" transform="matrix(1 0 0 1 263 1989)">For optimal layout with text and other symbols, vertically align</text>
  <text style="stroke:none;fill:black;font-family:sans-serif;font-size:13;" transform="matrix(1 0 0 1 263 2007)">symbols with the adjacent text.</text>
  <line style="fill:none;stroke:#00AEEF;stroke-width:0.5;opacity:1.0;" x1="776" x2="776" y1="1919" y2="1933"/>
  <g transform="matrix(0.2 0 0 0.2 776 1933)">
   <path d="m16.5527 0.78125c2.58789 0 3.85742-0.976562 4.78516-3.71094l6.29883-17.2363h28.8086l6.29883 17.2363c0.927734 2.73438 2.19727 3.71094 4.73633 3.71094 2.58789 0 4.24805-1.5625 4.24805-4.00391 0-0.830078-0.146484-1.61133-0.537109-2.63672l-22.9004-60.9863c-1.12305-2.97852-3.125-4.49219-6.25-4.49219-3.02734 0-5.07812 1.46484-6.15234 4.44336l-22.9004 61.084c-0.390625 1.02539-0.537109 1.80664-0.537109 2.63672 0 2.44141 1.5625 3.95508 4.10156 3.95508Zm13.4766-28.3691 11.8652-32.8613h0.244141l11.8652 32.8613Z"/>
  </g>
  <line style="fill:none;stroke:#00AEEF;stroke-width:0.5;opacity:1.0;" x1="792.836" x2="792.836" y1="1919" y2="1933"/>
  <text style="stroke:none;fill:black;font-family:sans-serif;font-size:13;font-weight:bold;" transform="matrix(1 0 0 1 776 1953)">Margins</text>
  <text style="stroke:none;fill:black;font-family:sans-serif;font-size:13;" transform="matrix(1 0 0 1 776 1971)">Leading and trailing margins on the left and right side of each symbol</text>
  <text style="stroke:none;fill:black;font-family:sans-serif;font-size:13;" transform="matrix(1 0 0 1 776 1989)">can be adjusted by modifying the x-location of the margin guidelines.</text>
  <text style="stroke:none;fill:black;font-family:sans-serif;font-size:13;" transform="matrix(1 0 0 1 776 2007)">Modifications are automatically applied proportionally to all</text>
  <text style="stroke:none;fill:black;font-family:sans-serif;font-size:13;" transform="matrix(1 0 0 1 776 2025)">scales and weights.</text>
  <g transform="matrix(0.2 0 0 0.2 1289 1933)">
   <path d="m14.209 9.32617 8.49609 8.54492c4.29688 4.3457 9.22852 4.05273 13.8672-1.07422l53.4668-58.9355-4.83398-4.88281-53.0762 58.3984c-1.75781 2.00195-3.41797 2.49023-5.76172 0.146484l-5.85938-5.81055c-2.34375-2.29492-1.80664-4.00391 0.195312-5.81055l57.373-54.0039-4.88281-4.83398-57.959 54.4434c-4.93164 4.58984-5.32227 9.47266-1.02539 13.8184Zm32.0801-90.9668c-2.09961 2.05078-2.24609 4.93164-1.07422 6.88477 1.17188 1.80664 3.4668 2.97852 6.68945 2.14844 7.32422-1.70898 14.9414-2.00195 22.0703 2.68555l-2.92969 7.27539c-1.70898 4.15039-0.830078 7.08008 1.85547 9.81445l11.4746 11.5723c2.44141 2.44141 4.49219 2.53906 7.32422 2.05078l5.32227-0.976562 3.32031 3.36914-0.195312 2.7832c-0.195312 2.49023 0.439453 4.39453 2.88086 6.78711l3.80859 3.71094c2.39258 2.39258 5.46875 2.53906 7.8125 0.195312l14.5508-14.5996c2.34375-2.34375 2.24609-5.32227-0.146484-7.71484l-3.85742-3.80859c-2.39258-2.39258-4.24805-3.17383-6.64062-2.97852l-2.88086 0.244141-3.22266-3.17383 1.2207-5.61523c0.634766-2.83203-0.146484-5.0293-3.07617-7.95898l-10.9863-10.9375c-16.6992-16.6016-38.8672-16.2109-53.3203-1.75781Zm7.4707 1.85547c12.1582-8.88672 28.6133-7.37305 39.7461 3.75977l12.1582 12.0605c1.17188 1.17188 1.36719 2.09961 1.02539 3.80859l-1.61133 7.42188 7.51953 7.42188 4.93164-0.292969c1.26953-0.0488281 1.66016 0.0488281 2.63672 1.02539l2.88086 2.88086-12.207 12.207-2.88086-2.88086c-0.976562-0.976562-1.12305-1.36719-1.07422-2.68555l0.341797-4.88281-7.4707-7.42188-7.61719 1.26953c-1.61133 0.341797-2.34375 0.195312-3.56445-0.976562l-10.0098-10.0098c-1.26953-1.17188-1.41602-2.00195-0.634766-3.85742l4.39453-10.4492c-7.8125-7.27539-17.9688-10.4004-28.125-7.42188-0.78125 0.195312-1.07422-0.439453-0.439453-0.976562Z"/>
  </g>
  <text style="stroke:none;fill:black;font-family:sans-serif;font-size:13;font-weight:bold;" transform="matrix(1 0 0 1 1289 1953)">Exporting</text>
  <text style="stroke:none;fill:black;font-family:sans-serif;font-size:13;" transform="matrix(1 0 0 1 1289 1971)">Symbols should be outlined when exporting to ensure the</text>
  <text style="stroke:none;fill:black;font-family:sans-serif;font-size:13;" transform="matrix(1 0 0 1 1289 1989)">design is preserved when submitting to Xcode.</text>
  <text id="template-version" style="stroke:none;fill:black;font-family:sans-serif;font-size:13;text-anchor:end;" transform="matrix(1 0 0 1 3036 1933)">Template v.5.0</text>
  <text style="stroke:none;fill:black;font-family:sans-serif;font-size:13;text-anchor:end;" transform="matrix(1 0 0 1 3036 1951)">Requires Xcode 15 or greater</text>
  <text id="descriptive-name" style="stroke:none;fill:black;font-family:sans-serif;font-size:13;text-anchor:end;" transform="matrix(1 0 0 1 3036 1969)">Generated from lizard.fill</text>
  <text style="stroke:none;fill:black;font-family:sans-serif;font-size:13;text-anchor:end;" transform="matrix(1 0 0 1 3036 1987)">Typeset at 100.0 points</text>
  <text style="stroke:none;fill:black;font-family:sans-serif;font-size:13;" transform="matrix(1 0 0 1 263 726)">Small</text>
  <text style="stroke:none;fill:black;font-family:sans-serif;font-size:13;" transform="matrix(1 0 0 1 263 1156)">Medium</text>
  <text style="stroke:none;fill:black;font-family:sans-serif;font-size:13;" transform="matrix(1 0 0 1 263 1586)">Large</text>
 </g>
 <g id="Guides">
  <g id="H-reference" style="fill:#27AAE1;stroke:none;" transform="matrix(1 0 0 1 339 696)">
   <path d="M0.993654 0L3.63775 0L29.3281-67.1323L30.0303-67.1323L30.0303-70.459L28.1226-70.459ZM11.6885-24.4799L46.9815-24.4799L46.2315-26.7285L12.4385-26.7285ZM55.1196 0L57.7637 0L30.6382-70.459L29.4326-70.459L29.4326-67.1323Z"/>
  </g>
  <line id="Baseline-S" style="fill:none;stroke:#27AAE1;opacity:1;stroke-width:0.5;" x1="263" x2="3036" y1="696" y2="696"/>
  <line id="Capline-S" style="fill:none;stroke:#27AAE1;opacity:1;stroke-width:0.5;" x1="263" x2="3036" y1="625.541" y2="625.541"/>
  <g id="H-reference" style="fill:#27AAE1;stroke:none;" transform="matrix(1 0 0 1 339 1126)">
   <path d="M0.993654 0L3.63775 0L29.3281-67.1323L30.0303-67.1323L30.0303-70.459L28.1226-70.459ZM11.6885-24.4799L46.9815-24.4799L46.2315-26.7285L12.4385-26.7285ZM55.1196 0L57.7637 0L30.6382-70.459L29.4326-70.459L29.4326-67.1323Z"/>
  </g>
  <line id="Baseline-M" style="fill:none;stroke:#27AAE1;opacity:1;stroke-width:0.5;" x1="263" x2="3036" y1="1126" y2="1126"/>
  <line id="Capline-M" style="fill:none;stroke:#27AAE1;opacity:1;stroke-width:0.5;" x1="263" x2="3036" y1="1055.54" y2="1055.54"/>
  <g id="H-reference" style="fill:#27AAE1;stroke:none;" transform="matrix(1 0 0 1 339 1556)">
   <path d="M0.993654 0L3.63775 0L29.3281-67.1323L30.0303-67.1323L30.0303-70.459L28.1226-70.459ZM11.6885-24.4799L46.9815-24.4799L46.2315-26.7285L12.4385-26.7285ZM55.1196 0L57.7637 0L30.6382-70.459L29.4326-70.459L29.4326-67.1323Z"/>
  </g>
  <line id="Baseline-L" style="fill:none;stroke:#27AAE1;opacity:1;stroke-width:0.5;" x1="263" x2="3036" y1="1556" y2="1556"/>
  <line id="Capline-L" style="fill:none;stroke:#27AAE1;opacity:1;stroke-width:0.5;" x1="263" x2="3036" y1="1485.54" y2="1485.54"/>
  <line id="left-margin-Ultralight-S" style="fill:none;stroke:#00AEEF;stroke-width:0.5;opacity:1.0;" x1="501.964" x2="501.964" y1="600.785" y2="720.121"/>
  <line id="right-margin-Ultralight-S" style="fill:none;stroke:#00AEEF;stroke-width:0.5;opacity:1.0;" x1="617.458" x2="617.458" y1="600.785" y2="720.121"/>
  <line id="left-margin-Regular-S" style="fill:none;stroke:#00AEEF;stroke-width:0.5;opacity:1.0;" x1="1385.83" x2="1385.83" y1="600.785" y2="720.121"/>
  <line id="right-margin-Regular-S" style="fill:none;stroke:#00AEEF;stroke-width:0.5;opacity:1.0;" x1="1513.86" x2="1513.86" y1="600.785" y2="720.121"/>
  <line id="left-margin-Black-S" style="fill:none;stroke:#00AEEF;stroke-width:0.5;opacity:1.0;" x1="2868.29" x2="2868.29" y1="600.785" y2="720.121"/>
  <line id="right-margin-Black-S" style="fill:none;stroke:#00AEEF;stroke-width:0.5;opacity:1.0;" x1="2998.51" x2="2998.51" y1="600.785" y2="720.121"/>
 </g>
 <g id="Symbols">
  <g id="Black-S" transform="matrix(1 0 0 1 2868.29 696)">
   <path class="SFSymbolsPreviewWireframe" d="M76.7578 16.6992C105.957 16.6992 120.459-9.66797 120.459-24.1699C120.459-31.2988 111.279-31.543 110.449-24.9023C108.545-8.93555 96.3379 1.95312 82.4219 1.95312C67.8223 1.95312 56.7383-8.30078 56.7383-21.875C56.7383-35.4004 65.625-48.877 76.5137-48.877C81.7383-48.877 82.959-46.2891 87.7441-46.2891C95.3125-46.2891 111.279-57.373 111.279-66.1621C111.279-72.5586 102.344-75.9766 89.3066-75.9766C79.6387-75.9766 75.8789-73.1445 74.707-67.0898C74.3652-65.2832 73.6328-64.8926 72.4609-64.8926C49.0723-64.8926 30.9082-47.4121 30.9082-25.0977C30.9082-0.585938 49.9023 16.6992 76.7578 16.6992ZM47.3633-67.7734C46.1426-65.332 46.7773-62.3535 49.2188-60.9375L55.3223-57.373L67.3828-61.8164L55.6152-67.3828L56.9336-72.8516L64.5508-74.2188C68.0664-74.8535 67.0898-80.6152 62.6953-79.248C61.1328-78.7598 60.0098-80.3711 60.8887-81.8359C62.8906-85.2051 57.1289-87.5977 56.0059-84.1797C55.4688-82.5684 53.7109-82.3242 52.8809-84.082C51.1719-87.6465 45.9473-85.2539 47.998-81.8359L51.5137-75.9766ZM67.041-31.9336L76.2207-31.4453L79.541-25.4395C81.4453-21.9727 86.6211-25.6348 84.0332-28.2715C82.7637-29.541 83.9355-31.543 85.5469-31.2012C89.0625-30.4199 89.9414-36.6699 85.9863-36.6211C84.2285-36.6211 83.3984-38.3789 84.6191-39.502C88.0371-42.627 83.5449-46.3379 81.2012-43.6035L76.2207-37.6953L70.8496-39.2578L71.875-52.2461L62.0117-44.043L62.0605-36.9629C62.0605-34.1309 64.3066-32.0801 67.041-31.9336ZM24.3652-17.627L19.3848-9.91211L12.5-10.0586C8.54492-10.1562 9.08203-4.39453 12.6465-4.73633C14.4531-4.88281 15.5762-3.22266 14.4531-2.00195C12.0117 0.634766 17.041 4.63867 18.9453 1.12305C19.8242-0.439453 21.7773-0.244141 22.168 1.41602C23.1445 5.9082 28.6621 3.85742 27.4414 0.439453L24.8047-6.78711L28.8086-10.6445L39.5996-3.27148L37.4023-15.918L31.25-19.4336C28.7598-20.8496 25.8789-19.9707 24.3652-17.627ZM67.2363-21.7285C64.8926-23.1934 61.9141-22.7539 60.2539-20.459L56.1523-14.6973L59.5215-2.29492L66.1621-13.5254L71.4355-11.7188L72.1191-4.05273C72.4609-0.439453 78.3203-0.927734 77.2949-5.41992C76.9043-7.03125 78.6621-8.05664 80.0781-6.98242C83.252-4.63867 86.1328-10.3516 82.8125-11.7188C81.25-12.3535 81.4453-14.9902 83.252-14.9902C86.8652-14.9902 84.7656-21.6309 81.2012-19.873L75.0488-16.8457Z"/>
  </g>
  <g id="Regular-S" transform="matrix(1 0 0 1 1385.83 696)">
   <path class="SFSymbolsPreviewWireframe" d="M76.3184 14.9414C104.395 14.9414 118.262-10.4004 118.262-24.2188C118.262-29.3945 111.963-29.4922 111.377-24.707C109.375-8.25195 96.3867 3.32031 81.9824 3.32031C66.8457 3.32031 54.8828-7.76367 54.8828-21.9238C54.8828-35.8398 64.4531-50.293 78.2227-50.293C82.1777-50.293 82.1289-47.7051 87.2559-47.7051C94.1406-47.7051 109.131-58.252 109.131-65.9668C109.131-71.0938 101.27-74.2188 88.8184-74.2188C79.8828-74.2188 76.5625-71.875 75.9766-67.6758C75.5371-64.6973 73.9258-63.1836 71.0938-63.1836C49.6094-63.1836 32.2266-46.4844 32.2266-25.0977C32.2266-1.61133 50.4395 14.9414 76.3184 14.9414ZM47.168-67.5293C45.9473-65.1367 46.582-62.207 48.9746-60.8398L55.0781-57.2754L66.8945-61.6211L55.2246-67.1387L56.543-72.6562L64.1602-74.0234C67.5781-74.6582 66.6504-80.2734 62.3535-78.9551C60.7422-78.418 59.6191-80.0781 60.498-81.5918C62.4512-84.8633 56.8359-87.207 55.7617-83.8867C55.1758-82.2266 53.3691-81.9824 52.5391-83.7891C50.8789-87.2559 45.752-84.9121 47.7539-81.5918L51.2695-75.7324ZM66.6504-32.0312L75.7812-31.543L79.1016-25.5371C80.957-22.168 85.9863-25.7324 83.4961-28.3203C82.1777-29.6387 83.3984-31.6895 85.0586-31.2988C88.4766-30.5664 89.3066-36.6211 85.498-36.5723C83.6914-36.5723 82.8125-38.4277 84.082-39.5508C87.4023-42.627 83.0566-46.2402 80.7617-43.5547L75.7812-37.6465L70.3613-39.2578L71.3867-52.1484L61.6699-44.0918L61.7188-37.0117C61.7188-34.1797 63.916-32.1777 66.6504-32.0312ZM24.3164-17.6758L19.3359-9.96094L12.4512-10.1074C8.59375-10.2051 9.13086-4.58984 12.5977-4.93164C14.4531-5.07812 15.625-3.36914 14.4531-2.09961C12.0605 0.488281 16.9434 4.39453 18.8477 0.927734C19.7266-0.683594 21.7285-0.439453 22.1191 1.2207C23.0957 5.66406 28.4668 3.66211 27.2949 0.292969L24.6582-6.93359L28.6621-10.8398L39.3555-3.51562L37.207-15.9668L31.1035-19.4336C28.6133-20.8496 25.8301-19.9707 24.3164-17.6758ZM66.748-21.6797C64.4531-23.1445 61.5234-22.7539 59.8633-20.459L55.7617-14.7461L59.0332-2.53906L65.6738-13.6719L70.9961-11.8164L71.6309-4.15039C71.9727-0.634766 77.6367-1.07422 76.6602-5.46875C76.2695-7.12891 78.0762-8.1543 79.541-7.08008C82.6172-4.78516 85.4492-10.3516 82.2266-11.6699C80.6152-12.3535 80.8105-14.9902 82.666-15.0391C86.1816-15.0391 84.1797-21.4844 80.7129-19.7754L74.5117-16.7969Z"/>
  </g>
  <g id="Ultralight-S" transform="matrix(1 0 0 1 501.964 696)">
   <path class="SFSymbolsPreviewWireframe" d="M68.7349 9.67387C93.587 9.67387 105.729-12.4438 105.729-24.6728C105.729-27.5327 102.154-27.812 101.795-25.0249C99.8844-9.47802 87.6226 1.50392 73.8995 1.50392C59.4893 1.50392 48.0713-9.08056 48.0713-22.605C48.0713-35.7944 57.1421-49.6572 70.4576-49.6572C75.2754-49.6572 75.2266-47.2964 78.7188-47.2964C84.5592-47.2964 97.4151-56.2539 97.4151-62.6519C97.4151-66.5074 91.234-68.9512 80.1451-68.9512C72.3448-68.9512 70.0689-67.3794 69.6192-64.043C69.1343-60.792 67.2505-58.9605 63.9644-58.9605C44.9322-58.9605 29.8653-44.4409 29.8653-25.5063C29.8653-4.65378 45.6714 9.67387 68.7349 9.67387ZM43.1265-63.6695C42.0874-61.731 42.5406-59.8911 44.3428-58.8418L50.4917-55.2774L58.6754-58.3516L48.4585-63.2334L50.004-69.6592L57.5303-70.981C59.359-71.2525 58.7945-74.3248 56.5865-73.5967C54.0215-72.7872 52.2173-75.2193 53.5049-77.3687C54.5499-79.1416 51.523-80.3502 50.9029-78.71C50.1353-76.2779 47.375-75.9883 46.2725-78.4307C45.2935-80.4444 42.5279-79.1905 43.6216-77.3687L47.0918-71.6001ZM59.3848-33.9839L68.2432-33.4502L71.5181-27.5351C72.5108-25.7099 75.0426-27.458 73.733-29.2739C72.1876-31.5005 73.7716-33.7783 76.2945-33.2514C78.0777-32.9277 78.5445-36.1216 76.4615-36.1182C73.9283-36.1182 72.7315-38.8364 74.7276-40.686C76.504-42.2183 74.1109-44.2422 72.8604-42.8281L67.9708-36.9653L61.6881-38.8491L62.6226-50.0596L55.7666-44.5005L55.8155-37.4658C55.8155-35.3603 57.2408-34.0849 59.3848-33.9839ZM23.1358-18.2207L18.2915-10.7329L11.4976-10.8794C9.04785-10.9316 9.3125-7.90476 11.5532-8.15574C14.2261-8.39304 15.7612-5.77586 14.0898-3.916C12.5146-2.28172 15.3086-0.101039 16.4863-2.34177C17.7739-4.58884 20.6841-4.20847 21.2564-1.77634C21.9605 1.2139 24.9248 0.120145 24.1162-2.06834L21.4795-9.24949L26.2554-13.7915L34.6783-7.96579L33.1656-16.5571L27.9702-19.479C26.1157-20.6226 24.3316-20.0615 23.1358-18.2207ZM58.211-21.1802C56.461-22.418 54.5757-22.3452 53.2335-20.7314L48.6778-15.3364L50.4053-6.76217L56.9097-15.9424L62.9131-13.4057L62.9122-5.73973C62.8907-3.85886 66.0572-3.88963 65.7618-6.1499C65.3712-8.89989 68.0406-10.1977 70.005-8.5786C71.5372-7.2827 73.2794-10.0337 71.6461-10.898C69.3536-12.0811 69.6397-14.8994 72.2218-15.5386C74.3751-16.1743 73.5992-19.1231 71.6309-18.3677L65.3389-15.9341Z"/>
  </g>
 </g>
</svg>
