<?xml version="1.0" encoding="UTF-8"?>
<!--Generator: Apple Native CoreSVG 232.5-->
<!DOCTYPE svg
PUBLIC "-//W3C//DTD SVG 1.1//EN"
       "http://www.w3.org/Graphics/SVG/1.1/DTD/svg11.dtd">
<svg version="1.1" xmlns="http://www.w3.org/2000/svg" xmlns:xlink="http://www.w3.org/1999/xlink" width="3300" height="2200">
 <!--glyph: "uni101E26.medium", point size: 100.0, font version: "19.2d2e1", template writer version: "128"-->
 <style>.SFSymbolsPreviewWireframe {fill:none;opacity:1.0;stroke:black;stroke-width:0.5}
</style>
 <g id="Notes">
  <rect height="2200" id="artboard" style="fill:white;opacity:1" width="3300" x="0" y="0"/>
  <line style="fill:none;stroke:black;opacity:1;stroke-width:0.5;" x1="263" x2="3036" y1="292" y2="292"/>
  <text style="stroke:none;fill:black;font-family:sans-serif;font-size:13;font-weight:bold;" transform="matrix(1 0 0 1 263 322)">Weight/Scale Variations</text>
  <text style="stroke:none;fill:black;font-family:sans-serif;font-size:13;text-anchor:middle;" transform="matrix(1 0 0 1 559.711 322)">Ultralight</text>
  <text style="stroke:none;fill:black;font-family:sans-serif;font-size:13;text-anchor:middle;" transform="matrix(1 0 0 1 856.422 322)">Thin</text>
  <text style="stroke:none;fill:black;font-family:sans-serif;font-size:13;text-anchor:middle;" transform="matrix(1 0 0 1 1153.13 322)">Light</text>
  <text style="stroke:none;fill:black;font-family:sans-serif;font-size:13;text-anchor:middle;" transform="matrix(1 0 0 1 1449.84 322)">Regular</text>
  <text style="stroke:none;fill:black;font-family:sans-serif;font-size:13;text-anchor:middle;" transform="matrix(1 0 0 1 1746.56 322)">Medium</text>
  <text style="stroke:none;fill:black;font-family:sans-serif;font-size:13;text-anchor:middle;" transform="matrix(1 0 0 1 2043.27 322)">Semibold</text>
  <text style="stroke:none;fill:black;font-family:sans-serif;font-size:13;text-anchor:middle;" transform="matrix(1 0 0 1 2339.98 322)">Bold</text>
  <text style="stroke:none;fill:black;font-family:sans-serif;font-size:13;text-anchor:middle;" transform="matrix(1 0 0 1 2636.69 322)">Heavy</text>
  <text style="stroke:none;fill:black;font-family:sans-serif;font-size:13;text-anchor:middle;" transform="matrix(1 0 0 1 2933.4 322)">Black</text>
  <line style="fill:none;stroke:black;opacity:1;stroke-width:0.5;" x1="263" x2="3036" y1="1903" y2="1903"/>
  <g transform="matrix(0.2 0 0 0.2 263 1933)">
   <path d="m46.2402 4.15039c21.5332 0 39.4531-17.8711 39.4531-39.4043s-17.9688-39.4043-39.502-39.4043c-21.4844 0-39.3555 17.8711-39.3555 39.4043s17.9199 39.4043 39.4043 39.4043Zm0-7.42188c-17.7246 0-31.8848-14.209-31.8848-31.9824s14.1113-31.9824 31.8359-31.9824c17.7734 0 32.0312 14.209 32.0312 31.9824s-14.209 31.9824-31.9824 31.9824Zm-17.9688-31.9824c0 2.14844 1.51367 3.61328 3.75977 3.61328h10.498v10.5957c0 2.19727 1.46484 3.71094 3.61328 3.71094 2.24609 0 3.71094-1.51367 3.71094-3.71094v-10.5957h10.5957c2.19727 0 3.71094-1.46484 3.71094-3.61328 0-2.19727-1.51367-3.71094-3.71094-3.71094h-10.5957v-10.5469c0-2.24609-1.46484-3.75977-3.71094-3.75977-2.14844 0-3.61328 1.51367-3.61328 3.75977v10.5469h-10.498c-2.24609 0-3.75977 1.51367-3.75977 3.71094Z"/>
  </g>
  <g transform="matrix(0.2 0 0 0.2 281.506 1933)">
   <path d="m58.5449 14.5508c27.2461 0 49.8047-22.6074 49.8047-49.8047 0-27.2461-22.6074-49.8047-49.8535-49.8047-27.1973 0-49.7559 22.5586-49.7559 49.8047 0 27.1973 22.6074 49.8047 49.8047 49.8047Zm0-8.30078c-23.0469 0-41.4551-18.457-41.4551-41.5039s18.3594-41.5039 41.4062-41.5039 41.5527 18.457 41.5527 41.5039-18.457 41.5039-41.5039 41.5039Zm-22.6562-41.5039c0 2.39258 1.66016 4.00391 4.15039 4.00391h14.3555v14.4043c0 2.44141 1.66016 4.15039 4.05273 4.15039 2.44141 0 4.15039-1.66016 4.15039-4.15039v-14.4043h14.4043c2.44141 0 4.15039-1.61133 4.15039-4.00391 0-2.44141-1.70898-4.15039-4.15039-4.15039h-14.4043v-14.3555c0-2.49023-1.70898-4.19922-4.15039-4.19922-2.39258 0-4.05273 1.70898-4.05273 4.19922v14.3555h-14.3555c-2.49023 0-4.15039 1.70898-4.15039 4.15039Z"/>
  </g>
  <g transform="matrix(0.2 0 0 0.2 304.924 1933)">
   <path d="m74.8535 28.3203c34.8145 0 63.623-28.8086 63.623-63.5742 0-34.8145-28.8574-63.623-63.6719-63.623-34.7656 0-63.5254 28.8086-63.5254 63.623 0 34.7656 28.8086 63.5742 63.5742 63.5742Zm0-9.08203c-30.1758 0-54.4434-24.3164-54.4434-54.4922 0-30.2246 24.2188-54.4922 54.3945-54.4922 30.2246 0 54.541 24.2676 54.541 54.4922 0 30.1758-24.2676 54.4922-54.4922 54.4922Zm-28.8574-54.4922c0 2.58789 1.85547 4.39453 4.58984 4.39453h19.7266v19.7754c0 2.68555 1.85547 4.58984 4.44336 4.58984 2.68555 0 4.54102-1.85547 4.54102-4.58984v-19.7754h19.7754c2.68555 0 4.58984-1.80664 4.58984-4.39453 0-2.73438-1.85547-4.58984-4.58984-4.58984h-19.7754v-19.7266c0-2.73438-1.85547-4.63867-4.54102-4.63867-2.58789 0-4.44336 1.9043-4.44336 4.63867v19.7266h-19.7266c-2.73438 0-4.58984 1.85547-4.58984 4.58984Z"/>
  </g>
  <text style="stroke:none;fill:black;font-family:sans-serif;font-size:13;font-weight:bold;" transform="matrix(1 0 0 1 263 1953)">Design Variations</text>
  <text style="stroke:none;fill:black;font-family:sans-serif;font-size:13;" transform="matrix(1 0 0 1 263 1971)">Symbols are supported in up to nine weights and three scales.</text>
  <text style="stroke:none;fill:black;font-family:sans-serif;font-size:13;" transform="matrix(1 0 0 1 263 1989)">For optimal layout with text and other symbols, vertically align</text>
  <text style="stroke:none;fill:black;font-family:sans-serif;font-size:13;" transform="matrix(1 0 0 1 263 2007)">symbols with the adjacent text.</text>
  <line style="fill:none;stroke:#00AEEF;stroke-width:0.5;opacity:1.0;" x1="776" x2="776" y1="1919" y2="1933"/>
  <g transform="matrix(0.2 0 0 0.2 776 1933)">
   <path d="m16.5527 0.78125c2.58789 0 3.85742-0.976562 4.78516-3.71094l6.29883-17.2363h28.8086l6.29883 17.2363c0.927734 2.73438 2.19727 3.71094 4.73633 3.71094 2.58789 0 4.24805-1.5625 4.24805-4.00391 0-0.830078-0.146484-1.61133-0.537109-2.63672l-22.9004-60.9863c-1.12305-2.97852-3.125-4.49219-6.25-4.49219-3.02734 0-5.07812 1.46484-6.15234 4.44336l-22.9004 61.084c-0.390625 1.02539-0.537109 1.80664-0.537109 2.63672 0 2.44141 1.5625 3.95508 4.10156 3.95508Zm13.4766-28.3691 11.8652-32.8613h0.244141l11.8652 32.8613Z"/>
  </g>
  <line style="fill:none;stroke:#00AEEF;stroke-width:0.5;opacity:1.0;" x1="792.836" x2="792.836" y1="1919" y2="1933"/>
  <text style="stroke:none;fill:black;font-family:sans-serif;font-size:13;font-weight:bold;" transform="matrix(1 0 0 1 776 1953)">Margins</text>
  <text style="stroke:none;fill:black;font-family:sans-serif;font-size:13;" transform="matrix(1 0 0 1 776 1971)">Leading and trailing margins on the left and right side of each symbol</text>
  <text style="stroke:none;fill:black;font-family:sans-serif;font-size:13;" transform="matrix(1 0 0 1 776 1989)">can be adjusted by modifying the x-location of the margin guidelines.</text>
  <text style="stroke:none;fill:black;font-family:sans-serif;font-size:13;" transform="matrix(1 0 0 1 776 2007)">Modifications are automatically applied proportionally to all</text>
  <text style="stroke:none;fill:black;font-family:sans-serif;font-size:13;" transform="matrix(1 0 0 1 776 2025)">scales and weights.</text>
  <g transform="matrix(0.2 0 0 0.2 1289 1933)">
   <path d="m14.209 9.32617 8.49609 8.54492c4.29688 4.3457 9.22852 4.05273 13.8672-1.07422l53.4668-58.9355-4.83398-4.88281-53.0762 58.3984c-1.75781 2.00195-3.41797 2.49023-5.76172 0.146484l-5.85938-5.81055c-2.34375-2.29492-1.80664-4.00391 0.195312-5.81055l57.373-54.0039-4.88281-4.83398-57.959 54.4434c-4.93164 4.58984-5.32227 9.47266-1.02539 13.8184Zm32.0801-90.9668c-2.09961 2.05078-2.24609 4.93164-1.07422 6.88477 1.17188 1.80664 3.4668 2.97852 6.68945 2.14844 7.32422-1.70898 14.9414-2.00195 22.0703 2.68555l-2.92969 7.27539c-1.70898 4.15039-0.830078 7.08008 1.85547 9.81445l11.4746 11.5723c2.44141 2.44141 4.49219 2.53906 7.32422 2.05078l5.32227-0.976562 3.32031 3.36914-0.195312 2.7832c-0.195312 2.49023 0.439453 4.39453 2.88086 6.78711l3.80859 3.71094c2.39258 2.39258 5.46875 2.53906 7.8125 0.195312l14.5508-14.5996c2.34375-2.34375 2.24609-5.32227-0.146484-7.71484l-3.85742-3.80859c-2.39258-2.39258-4.24805-3.17383-6.64062-2.97852l-2.88086 0.244141-3.22266-3.17383 1.2207-5.61523c0.634766-2.83203-0.146484-5.0293-3.07617-7.95898l-10.9863-10.9375c-16.6992-16.6016-38.8672-16.2109-53.3203-1.75781Zm7.4707 1.85547c12.1582-8.88672 28.6133-7.37305 39.7461 3.75977l12.1582 12.0605c1.17188 1.17188 1.36719 2.09961 1.02539 3.80859l-1.61133 7.42188 7.51953 7.42188 4.93164-0.292969c1.26953-0.0488281 1.66016 0.0488281 2.63672 1.02539l2.88086 2.88086-12.207 12.207-2.88086-2.88086c-0.976562-0.976562-1.12305-1.36719-1.07422-2.68555l0.341797-4.88281-7.4707-7.42188-7.61719 1.26953c-1.61133 0.341797-2.34375 0.195312-3.56445-0.976562l-10.0098-10.0098c-1.26953-1.17188-1.41602-2.00195-0.634766-3.85742l4.39453-10.4492c-7.8125-7.27539-17.9688-10.4004-28.125-7.42188-0.78125 0.195312-1.07422-0.439453-0.439453-0.976562Z"/>
  </g>
  <text style="stroke:none;fill:black;font-family:sans-serif;font-size:13;font-weight:bold;" transform="matrix(1 0 0 1 1289 1953)">Exporting</text>
  <text style="stroke:none;fill:black;font-family:sans-serif;font-size:13;" transform="matrix(1 0 0 1 1289 1971)">Symbols should be outlined when exporting to ensure the</text>
  <text style="stroke:none;fill:black;font-family:sans-serif;font-size:13;" transform="matrix(1 0 0 1 1289 1989)">design is preserved when submitting to Xcode.</text>
  <text id="template-version" style="stroke:none;fill:black;font-family:sans-serif;font-size:13;text-anchor:end;" transform="matrix(1 0 0 1 3036 1933)">Template v.5.0</text>
  <text style="stroke:none;fill:black;font-family:sans-serif;font-size:13;text-anchor:end;" transform="matrix(1 0 0 1 3036 1951)">Requires Xcode 15 or greater</text>
  <text id="descriptive-name" style="stroke:none;fill:black;font-family:sans-serif;font-size:13;text-anchor:end;" transform="matrix(1 0 0 1 3036 1969)">Generated from m2.button.horizontal</text>
  <text style="stroke:none;fill:black;font-family:sans-serif;font-size:13;text-anchor:end;" transform="matrix(1 0 0 1 3036 1987)">Typeset at 100.0 points</text>
  <text style="stroke:none;fill:black;font-family:sans-serif;font-size:13;" transform="matrix(1 0 0 1 263 726)">Small</text>
  <text style="stroke:none;fill:black;font-family:sans-serif;font-size:13;" transform="matrix(1 0 0 1 263 1156)">Medium</text>
  <text style="stroke:none;fill:black;font-family:sans-serif;font-size:13;" transform="matrix(1 0 0 1 263 1586)">Large</text>
 </g>
 <g id="Guides">
  <g id="H-reference" style="fill:#27AAE1;stroke:none;" transform="matrix(1 0 0 1 339 696)">
   <path d="M0.993654 0L3.63775 0L29.3281-67.1323L30.0303-67.1323L30.0303-70.459L28.1226-70.459ZM11.6885-24.4799L46.9815-24.4799L46.2315-26.7285L12.4385-26.7285ZM55.1196 0L57.7637 0L30.6382-70.459L29.4326-70.459L29.4326-67.1323Z"/>
  </g>
  <line id="Baseline-S" style="fill:none;stroke:#27AAE1;opacity:1;stroke-width:0.5;" x1="263" x2="3036" y1="696" y2="696"/>
  <line id="Capline-S" style="fill:none;stroke:#27AAE1;opacity:1;stroke-width:0.5;" x1="263" x2="3036" y1="625.541" y2="625.541"/>
  <g id="H-reference" style="fill:#27AAE1;stroke:none;" transform="matrix(1 0 0 1 339 1126)">
   <path d="M0.993654 0L3.63775 0L29.3281-67.1323L30.0303-67.1323L30.0303-70.459L28.1226-70.459ZM11.6885-24.4799L46.9815-24.4799L46.2315-26.7285L12.4385-26.7285ZM55.1196 0L57.7637 0L30.6382-70.459L29.4326-70.459L29.4326-67.1323Z"/>
  </g>
  <line id="Baseline-M" style="fill:none;stroke:#27AAE1;opacity:1;stroke-width:0.5;" x1="263" x2="3036" y1="1126" y2="1126"/>
  <line id="Capline-M" style="fill:none;stroke:#27AAE1;opacity:1;stroke-width:0.5;" x1="263" x2="3036" y1="1055.54" y2="1055.54"/>
  <g id="H-reference" style="fill:#27AAE1;stroke:none;" transform="matrix(1 0 0 1 339 1556)">
   <path d="M0.993654 0L3.63775 0L29.3281-67.1323L30.0303-67.1323L30.0303-70.459L28.1226-70.459ZM11.6885-24.4799L46.9815-24.4799L46.2315-26.7285L12.4385-26.7285ZM55.1196 0L57.7637 0L30.6382-70.459L29.4326-70.459L29.4326-67.1323Z"/>
  </g>
  <line id="Baseline-L" style="fill:none;stroke:#27AAE1;opacity:1;stroke-width:0.5;" x1="263" x2="3036" y1="1556" y2="1556"/>
  <line id="Capline-L" style="fill:none;stroke:#27AAE1;opacity:1;stroke-width:0.5;" x1="263" x2="3036" y1="1485.54" y2="1485.54"/>
  <line id="left-margin-Ultralight-S" style="fill:none;stroke:#00AEEF;stroke-width:0.5;opacity:1.0;" x1="507.713" x2="507.713" y1="600.785" y2="720.121"/>
  <line id="right-margin-Ultralight-S" style="fill:none;stroke:#00AEEF;stroke-width:0.5;opacity:1.0;" x1="611.709" x2="611.709" y1="600.785" y2="720.121"/>
  <line id="left-margin-Regular-S" style="fill:none;stroke:#00AEEF;stroke-width:0.5;opacity:1.0;" x1="1394.33" x2="1394.33" y1="600.785" y2="720.121"/>
  <line id="right-margin-Regular-S" style="fill:none;stroke:#00AEEF;stroke-width:0.5;opacity:1.0;" x1="1505.36" x2="1505.36" y1="600.785" y2="720.121"/>
  <line id="left-margin-Black-S" style="fill:none;stroke:#00AEEF;stroke-width:0.5;opacity:1.0;" x1="2876.37" x2="2876.37" y1="600.785" y2="720.121"/>
  <line id="right-margin-Black-S" style="fill:none;stroke:#00AEEF;stroke-width:0.5;opacity:1.0;" x1="2990.43" x2="2990.43" y1="600.785" y2="720.121"/>
 </g>
 <g id="Symbols">
  <g id="Black-S" transform="matrix(1 0 0 1 2876.37 696)">
   <path class="SFSymbolsPreviewWireframe" d="M40.625 2.92969L73.4375 2.92969C96.875 2.92969 104.297-4.78516 104.297-28.9062L104.297-41.5039C104.297-65.625 96.875-73.3398 73.4375-73.3398L40.625-73.3398C17.1875-73.3398 9.76562-65.625 9.76562-41.5039L9.76562-28.9062C9.76562-4.78516 17.1875 2.92969 40.625 2.92969ZM40.625-11.2305C27.5391-11.2305 23.9258-14.9902 23.9258-28.9062L23.9258-41.5039C23.9258-55.4199 27.5391-59.1797 40.625-59.1797L73.4375-59.1797C86.5234-59.1797 90.1367-55.4199 90.1367-41.5039L90.1367-28.9062C90.1367-14.9902 86.5234-11.2305 73.4375-11.2305ZM36.6211-20.6055C38.7695-20.6055 39.8438-21.9238 39.8438-24.0723L39.8438-38.8184L40.0391-38.8184L42.8711-24.3652C43.2617-22.4121 44.2383-21.2402 46.2402-21.2402C48.0469-21.2402 49.1211-22.2656 49.5605-24.4141L52.3438-38.8184L52.4902-38.8184L52.4902-24.0723C52.4902-21.9238 53.5645-20.6055 55.7129-20.6055C57.8613-20.6055 58.9844-21.9238 58.9844-24.0723L58.9844-44.7754C58.9844-47.998 57.0312-49.7559 53.8086-49.7559C50.9277-49.7559 49.2188-48.6328 48.7305-45.8496L46.1426-31.6406L46.1426-31.6406L43.5547-45.8496C43.0176-48.8281 41.2109-49.7559 38.5254-49.7559C35.2539-49.7559 33.3984-48.0469 33.3984-44.7754L33.3984-24.0723C33.3984-21.9238 34.4727-20.6055 36.6211-20.6055ZM65.6738-21.1426L77.0996-21.1426C79.1504-21.1426 79.8828-22.5586 79.8828-23.9746C79.8828-25.4395 79.1504-26.8555 77.0996-26.8555L70.8496-26.8555L70.8496-27.1484L74.6094-31.5918C77.2949-34.7656 79.4434-37.5 79.4434-41.6504C79.4434-47.1191 75.6836-50.0977 70.5566-50.0977C66.0156-50.0977 62.207-46.875 62.207-42.8223C62.207-40.9668 63.2812-39.5996 65.2344-39.5996C66.6992-39.5996 67.9199-40.332 68.457-42.1387C68.7988-43.3594 69.2871-44.4824 70.5566-44.4824C72.0703-44.4824 72.4609-43.0176 72.4609-41.4551C72.4609-38.916 70.8008-36.4746 68.5547-33.6426L64.1602-28.0762C62.6465-26.1719 62.2559-25.1953 62.2559-24.0234C62.2559-22.168 63.4766-21.1426 65.6738-21.1426Z"/>
  </g>
  <g id="Regular-S" transform="matrix(1 0 0 1 1394.33 696)">
   <path class="SFSymbolsPreviewWireframe" d="M40.8691-0.390625L70.166-0.390625C92.8223-0.390625 101.27-8.78906 101.27-29.7852L101.27-40.7227C101.27-61.7188 92.8223-70.1172 70.166-70.1172L40.8691-70.1172C18.2129-70.1172 9.76562-61.7188 9.76562-40.7227L9.76562-29.7852C9.76562-8.78906 18.2129-0.390625 40.8691-0.390625ZM40.8691-7.4707C22.9492-7.4707 16.7969-13.1348 16.7969-29.7852L16.7969-40.7227C16.7969-57.373 22.9492-63.0371 40.8691-63.0371L70.166-63.0371C88.0859-63.0371 94.1895-57.373 94.1895-40.7227L94.1895-29.7852C94.1895-13.1348 88.0859-7.4707 70.166-7.4707ZM33.1543-19.1895C34.8633-19.1895 35.9375-20.3125 35.9375-22.168L35.9375-41.6016L36.1816-41.6016L40.918-22.5586C41.3086-20.9473 42.334-19.8242 44.043-19.8242C45.752-19.8242 46.6309-20.9473 47.0703-22.6074L51.8066-41.6016L52.0508-41.6016L52.0508-22.168C52.0508-20.3125 53.0273-19.1895 54.7852-19.1895C56.6406-19.1895 57.5684-20.3125 57.5684-22.168L57.5684-46.8262C57.5684-49.6094 55.8594-51.1719 53.1738-51.1719C50.7324-51.1719 49.3652-50 48.7793-47.6074L44.0918-27.9785L43.9453-27.9785L39.1113-47.6074C38.5742-50.0488 37.1582-51.1719 34.7656-51.1719C32.0801-51.1719 30.3711-49.5117 30.3711-46.8262L30.3711-22.168C30.3711-20.3125 31.4941-19.1895 33.1543-19.1895ZM65.2832-19.7754L78.6133-19.7754C80.127-19.7754 81.0059-20.752 81.0059-22.2656C81.0059-23.877 80.0781-24.8047 78.6133-24.8047L69.9707-24.8047L69.9707-25.0977L75.1465-31.3965C79.1504-36.3281 80.4688-39.1602 80.4688-42.5293C80.4688-47.8516 76.7578-51.5625 71.3379-51.5625C66.3574-51.5625 62.4512-47.5098 62.4512-43.5547C62.4512-41.9434 63.3789-40.8203 64.9902-40.8203C66.4062-40.8203 67.2852-41.4551 67.7246-42.8711C68.5059-45.2148 69.3359-46.6309 71.2891-46.6309C73.3398-46.6309 74.5605-44.873 74.5605-42.2363C74.5605-39.1602 72.2168-35.9375 70.2637-33.4961L64.0625-25.7324C63.2324-24.707 62.4023-23.6328 62.4023-22.2656C62.4023-20.8496 63.3301-19.7754 65.2832-19.7754Z"/>
  </g>
  <g id="Ultralight-S" transform="matrix(1 0 0 1 507.713 696)">
   <path class="SFSymbolsPreviewWireframe" d="M35.6016-3.20603L68.3496-3.20603C88.4175-3.20603 94.231-10.7871 94.231-29.0132L94.231-41.4946C94.231-59.7207 88.4175-67.3018 68.3496-67.3018L35.6016-67.3018C15.5791-67.3018 9.76562-59.7207 9.76562-41.4946L9.76562-29.0132C9.76562-10.7871 15.5791-3.20603 35.6016-3.20603ZM35.6016-5.42726C17.0005-5.42726 11.9834-12.2266 11.9834-29.0132L11.9834-41.4946C11.9834-58.2812 17.0005-65.0806 35.6016-65.0806L68.3496-65.0806C86.9507-65.0806 92.0098-58.2812 92.0098-41.4946L92.0098-29.0132C92.0098-12.2266 86.9507-5.42726 68.3496-5.42726ZM31.792-19.3257C32.502-19.3257 32.9859-19.8584 32.9859-20.5786L32.9859-46.6875L33.1392-46.6875L40.4185-21.1963C40.6729-20.4023 41.0625-19.7334 42.0449-19.7334C43.0274-19.7334 43.4068-20.3115 43.6646-21.1997L50.9893-46.6875L51.0972-46.6875L51.0972-20.5786C51.0972-19.813 51.5742-19.3257 52.2876-19.3257C52.9624-19.3257 53.4361-19.9038 53.4361-20.5786L53.4361-49.1875C53.4361-50.4268 52.8169-51.0811 51.5845-51.0811C50.5508-51.0811 49.9102-50.4995 49.5967-49.3784L42.1846-23.1197L41.9473-23.1197L34.4341-49.3784C34.1241-50.4575 33.4346-51.0811 32.5405-51.0811C31.3535-51.0811 30.6436-50.3745 30.6436-49.1875L30.6436-20.5786C30.6436-19.9038 31.1309-19.3257 31.792-19.3257ZM60.3789-19.7754L73.482-19.7754C74.0874-19.7754 74.5577-20.2524 74.5577-20.8579C74.5577-21.5156 74.084-21.9893 73.482-21.9893L62.3873-21.9893L62.3873-22.146L69.8335-32.668C72.793-36.7822 73.8389-39.5688 73.8389-42.7563C73.8389-47.4883 71.3086-51.3355 66.5245-51.3355C62.0889-51.3355 59.1817-47.2373 59.1817-43.146C59.1817-42.6245 59.5191-42.0464 60.313-42.0464C60.8663-42.0464 61.2911-42.3633 61.3672-42.9165C61.876-46.5771 63.3873-49.1284 66.5664-49.1284C70.0703-49.1284 71.6089-45.6904 71.6089-42.645C71.6089-39.7959 70.5366-37.3452 68.084-33.8594L59.6123-22.0996C59.2818-21.6646 59.1328-21.2715 59.1328-20.8125C59.1328-20.1685 59.6519-19.7754 60.3789-19.7754Z"/>
  </g>
 </g>
</svg>
