<?xml version="1.0" encoding="UTF-8"?>
<!--Generator: Apple Native CoreSVG 232.5-->
<!DOCTYPE svg
PUBLIC "-//W3C//DTD SVG 1.1//EN"
       "http://www.w3.org/Graphics/SVG/1.1/DTD/svg11.dtd">
<svg version="1.1" xmlns="http://www.w3.org/2000/svg" xmlns:xlink="http://www.w3.org/1999/xlink" width="3300" height="2200">
 <!--glyph: "uni1001BE.medium", point size: 100.0, font version: "19.2d2e1", template writer version: "128"-->
 <style>.SFSymbolsPreviewWireframe {fill:none;opacity:1.0;stroke:black;stroke-width:0.5}
</style>
 <g id="Notes">
  <rect height="2200" id="artboard" style="fill:white;opacity:1" width="3300" x="0" y="0"/>
  <line style="fill:none;stroke:black;opacity:1;stroke-width:0.5;" x1="263" x2="3036" y1="292" y2="292"/>
  <text style="stroke:none;fill:black;font-family:sans-serif;font-size:13;font-weight:bold;" transform="matrix(1 0 0 1 263 322)">Weight/Scale Variations</text>
  <text style="stroke:none;fill:black;font-family:sans-serif;font-size:13;text-anchor:middle;" transform="matrix(1 0 0 1 559.711 322)">Ultralight</text>
  <text style="stroke:none;fill:black;font-family:sans-serif;font-size:13;text-anchor:middle;" transform="matrix(1 0 0 1 856.422 322)">Thin</text>
  <text style="stroke:none;fill:black;font-family:sans-serif;font-size:13;text-anchor:middle;" transform="matrix(1 0 0 1 1153.13 322)">Light</text>
  <text style="stroke:none;fill:black;font-family:sans-serif;font-size:13;text-anchor:middle;" transform="matrix(1 0 0 1 1449.84 322)">Regular</text>
  <text style="stroke:none;fill:black;font-family:sans-serif;font-size:13;text-anchor:middle;" transform="matrix(1 0 0 1 1746.56 322)">Medium</text>
  <text style="stroke:none;fill:black;font-family:sans-serif;font-size:13;text-anchor:middle;" transform="matrix(1 0 0 1 2043.27 322)">Semibold</text>
  <text style="stroke:none;fill:black;font-family:sans-serif;font-size:13;text-anchor:middle;" transform="matrix(1 0 0 1 2339.98 322)">Bold</text>
  <text style="stroke:none;fill:black;font-family:sans-serif;font-size:13;text-anchor:middle;" transform="matrix(1 0 0 1 2636.69 322)">Heavy</text>
  <text style="stroke:none;fill:black;font-family:sans-serif;font-size:13;text-anchor:middle;" transform="matrix(1 0 0 1 2933.4 322)">Black</text>
  <line style="fill:none;stroke:black;opacity:1;stroke-width:0.5;" x1="263" x2="3036" y1="1903" y2="1903"/>
  <g transform="matrix(0.2 0 0 0.2 263 1933)">
   <path d="m46.2402 4.15039c21.5332 0 39.4531-17.8711 39.4531-39.4043s-17.9688-39.4043-39.502-39.4043c-21.4844 0-39.3555 17.8711-39.3555 39.4043s17.9199 39.4043 39.4043 39.4043Zm0-7.42188c-17.7246 0-31.8848-14.209-31.8848-31.9824s14.1113-31.9824 31.8359-31.9824c17.7734 0 32.0312 14.209 32.0312 31.9824s-14.209 31.9824-31.9824 31.9824Zm-17.9688-31.9824c0 2.14844 1.51367 3.61328 3.75977 3.61328h10.498v10.5957c0 2.19727 1.46484 3.71094 3.61328 3.71094 2.24609 0 3.71094-1.51367 3.71094-3.71094v-10.5957h10.5957c2.19727 0 3.71094-1.46484 3.71094-3.61328 0-2.19727-1.51367-3.71094-3.71094-3.71094h-10.5957v-10.5469c0-2.24609-1.46484-3.75977-3.71094-3.75977-2.14844 0-3.61328 1.51367-3.61328 3.75977v10.5469h-10.498c-2.24609 0-3.75977 1.51367-3.75977 3.71094Z"/>
  </g>
  <g transform="matrix(0.2 0 0 0.2 281.506 1933)">
   <path d="m58.5449 14.5508c27.2461 0 49.8047-22.6074 49.8047-49.8047 0-27.2461-22.6074-49.8047-49.8535-49.8047-27.1973 0-49.7559 22.5586-49.7559 49.8047 0 27.1973 22.6074 49.8047 49.8047 49.8047Zm0-8.30078c-23.0469 0-41.4551-18.457-41.4551-41.5039s18.3594-41.5039 41.4062-41.5039 41.5527 18.457 41.5527 41.5039-18.457 41.5039-41.5039 41.5039Zm-22.6562-41.5039c0 2.39258 1.66016 4.00391 4.15039 4.00391h14.3555v14.4043c0 2.44141 1.66016 4.15039 4.05273 4.15039 2.44141 0 4.15039-1.66016 4.15039-4.15039v-14.4043h14.4043c2.44141 0 4.15039-1.61133 4.15039-4.00391 0-2.44141-1.70898-4.15039-4.15039-4.15039h-14.4043v-14.3555c0-2.49023-1.70898-4.19922-4.15039-4.19922-2.39258 0-4.05273 1.70898-4.05273 4.19922v14.3555h-14.3555c-2.49023 0-4.15039 1.70898-4.15039 4.15039Z"/>
  </g>
  <g transform="matrix(0.2 0 0 0.2 304.924 1933)">
   <path d="m74.8535 28.3203c34.8145 0 63.623-28.8086 63.623-63.5742 0-34.8145-28.8574-63.623-63.6719-63.623-34.7656 0-63.5254 28.8086-63.5254 63.623 0 34.7656 28.8086 63.5742 63.5742 63.5742Zm0-9.08203c-30.1758 0-54.4434-24.3164-54.4434-54.4922 0-30.2246 24.2188-54.4922 54.3945-54.4922 30.2246 0 54.541 24.2676 54.541 54.4922 0 30.1758-24.2676 54.4922-54.4922 54.4922Zm-28.8574-54.4922c0 2.58789 1.85547 4.39453 4.58984 4.39453h19.7266v19.7754c0 2.68555 1.85547 4.58984 4.44336 4.58984 2.68555 0 4.54102-1.85547 4.54102-4.58984v-19.7754h19.7754c2.68555 0 4.58984-1.80664 4.58984-4.39453 0-2.73438-1.85547-4.58984-4.58984-4.58984h-19.7754v-19.7266c0-2.73438-1.85547-4.63867-4.54102-4.63867-2.58789 0-4.44336 1.9043-4.44336 4.63867v19.7266h-19.7266c-2.73438 0-4.58984 1.85547-4.58984 4.58984Z"/>
  </g>
  <text style="stroke:none;fill:black;font-family:sans-serif;font-size:13;font-weight:bold;" transform="matrix(1 0 0 1 263 1953)">Design Variations</text>
  <text style="stroke:none;fill:black;font-family:sans-serif;font-size:13;" transform="matrix(1 0 0 1 263 1971)">Symbols are supported in up to nine weights and three scales.</text>
  <text style="stroke:none;fill:black;font-family:sans-serif;font-size:13;" transform="matrix(1 0 0 1 263 1989)">For optimal layout with text and other symbols, vertically align</text>
  <text style="stroke:none;fill:black;font-family:sans-serif;font-size:13;" transform="matrix(1 0 0 1 263 2007)">symbols with the adjacent text.</text>
  <line style="fill:none;stroke:#00AEEF;stroke-width:0.5;opacity:1.0;" x1="776" x2="776" y1="1919" y2="1933"/>
  <g transform="matrix(0.2 0 0 0.2 776 1933)">
   <path d="m16.5527 0.78125c2.58789 0 3.85742-0.976562 4.78516-3.71094l6.29883-17.2363h28.8086l6.29883 17.2363c0.927734 2.73438 2.19727 3.71094 4.73633 3.71094 2.58789 0 4.24805-1.5625 4.24805-4.00391 0-0.830078-0.146484-1.61133-0.537109-2.63672l-22.9004-60.9863c-1.12305-2.97852-3.125-4.49219-6.25-4.49219-3.02734 0-5.07812 1.46484-6.15234 4.44336l-22.9004 61.084c-0.390625 1.02539-0.537109 1.80664-0.537109 2.63672 0 2.44141 1.5625 3.95508 4.10156 3.95508Zm13.4766-28.3691 11.8652-32.8613h0.244141l11.8652 32.8613Z"/>
  </g>
  <line style="fill:none;stroke:#00AEEF;stroke-width:0.5;opacity:1.0;" x1="792.836" x2="792.836" y1="1919" y2="1933"/>
  <text style="stroke:none;fill:black;font-family:sans-serif;font-size:13;font-weight:bold;" transform="matrix(1 0 0 1 776 1953)">Margins</text>
  <text style="stroke:none;fill:black;font-family:sans-serif;font-size:13;" transform="matrix(1 0 0 1 776 1971)">Leading and trailing margins on the left and right side of each symbol</text>
  <text style="stroke:none;fill:black;font-family:sans-serif;font-size:13;" transform="matrix(1 0 0 1 776 1989)">can be adjusted by modifying the x-location of the margin guidelines.</text>
  <text style="stroke:none;fill:black;font-family:sans-serif;font-size:13;" transform="matrix(1 0 0 1 776 2007)">Modifications are automatically applied proportionally to all</text>
  <text style="stroke:none;fill:black;font-family:sans-serif;font-size:13;" transform="matrix(1 0 0 1 776 2025)">scales and weights.</text>
  <g transform="matrix(0.2 0 0 0.2 1289 1933)">
   <path d="m14.209 9.32617 8.49609 8.54492c4.29688 4.3457 9.22852 4.05273 13.8672-1.07422l53.4668-58.9355-4.83398-4.88281-53.0762 58.3984c-1.75781 2.00195-3.41797 2.49023-5.76172 0.146484l-5.85938-5.81055c-2.34375-2.29492-1.80664-4.00391 0.195312-5.81055l57.373-54.0039-4.88281-4.83398-57.959 54.4434c-4.93164 4.58984-5.32227 9.47266-1.02539 13.8184Zm32.0801-90.9668c-2.09961 2.05078-2.24609 4.93164-1.07422 6.88477 1.17188 1.80664 3.4668 2.97852 6.68945 2.14844 7.32422-1.70898 14.9414-2.00195 22.0703 2.68555l-2.92969 7.27539c-1.70898 4.15039-0.830078 7.08008 1.85547 9.81445l11.4746 11.5723c2.44141 2.44141 4.49219 2.53906 7.32422 2.05078l5.32227-0.976562 3.32031 3.36914-0.195312 2.7832c-0.195312 2.49023 0.439453 4.39453 2.88086 6.78711l3.80859 3.71094c2.39258 2.39258 5.46875 2.53906 7.8125 0.195312l14.5508-14.5996c2.34375-2.34375 2.24609-5.32227-0.146484-7.71484l-3.85742-3.80859c-2.39258-2.39258-4.24805-3.17383-6.64062-2.97852l-2.88086 0.244141-3.22266-3.17383 1.2207-5.61523c0.634766-2.83203-0.146484-5.0293-3.07617-7.95898l-10.9863-10.9375c-16.6992-16.6016-38.8672-16.2109-53.3203-1.75781Zm7.4707 1.85547c12.1582-8.88672 28.6133-7.37305 39.7461 3.75977l12.1582 12.0605c1.17188 1.17188 1.36719 2.09961 1.02539 3.80859l-1.61133 7.42188 7.51953 7.42188 4.93164-0.292969c1.26953-0.0488281 1.66016 0.0488281 2.63672 1.02539l2.88086 2.88086-12.207 12.207-2.88086-2.88086c-0.976562-0.976562-1.12305-1.36719-1.07422-2.68555l0.341797-4.88281-7.4707-7.42188-7.61719 1.26953c-1.61133 0.341797-2.34375 0.195312-3.56445-0.976562l-10.0098-10.0098c-1.26953-1.17188-1.41602-2.00195-0.634766-3.85742l4.39453-10.4492c-7.8125-7.27539-17.9688-10.4004-28.125-7.42188-0.78125 0.195312-1.07422-0.439453-0.439453-0.976562Z"/>
  </g>
  <text style="stroke:none;fill:black;font-family:sans-serif;font-size:13;font-weight:bold;" transform="matrix(1 0 0 1 1289 1953)">Exporting</text>
  <text style="stroke:none;fill:black;font-family:sans-serif;font-size:13;" transform="matrix(1 0 0 1 1289 1971)">Symbols should be outlined when exporting to ensure the</text>
  <text style="stroke:none;fill:black;font-family:sans-serif;font-size:13;" transform="matrix(1 0 0 1 1289 1989)">design is preserved when submitting to Xcode.</text>
  <text id="template-version" style="stroke:none;fill:black;font-family:sans-serif;font-size:13;text-anchor:end;" transform="matrix(1 0 0 1 3036 1933)">Template v.5.0</text>
  <text style="stroke:none;fill:black;font-family:sans-serif;font-size:13;text-anchor:end;" transform="matrix(1 0 0 1 3036 1951)">Requires Xcode 15 or greater</text>
  <text id="descriptive-name" style="stroke:none;fill:black;font-family:sans-serif;font-size:13;text-anchor:end;" transform="matrix(1 0 0 1 3036 1969)">Generated from moon.zzz.fill</text>
  <text style="stroke:none;fill:black;font-family:sans-serif;font-size:13;text-anchor:end;" transform="matrix(1 0 0 1 3036 1987)">Typeset at 100.0 points</text>
  <text style="stroke:none;fill:black;font-family:sans-serif;font-size:13;" transform="matrix(1 0 0 1 263 726)">Small</text>
  <text style="stroke:none;fill:black;font-family:sans-serif;font-size:13;" transform="matrix(1 0 0 1 263 1156)">Medium</text>
  <text style="stroke:none;fill:black;font-family:sans-serif;font-size:13;" transform="matrix(1 0 0 1 263 1586)">Large</text>
 </g>
 <g id="Guides">
  <g id="H-reference" style="fill:#27AAE1;stroke:none;" transform="matrix(1 0 0 1 339 696)">
   <path d="M0.993654 0L3.63775 0L29.3281-67.1323L30.0303-67.1323L30.0303-70.459L28.1226-70.459ZM11.6885-24.4799L46.9815-24.4799L46.2315-26.7285L12.4385-26.7285ZM55.1196 0L57.7637 0L30.6382-70.459L29.4326-70.459L29.4326-67.1323Z"/>
  </g>
  <line id="Baseline-S" style="fill:none;stroke:#27AAE1;opacity:1;stroke-width:0.5;" x1="263" x2="3036" y1="696" y2="696"/>
  <line id="Capline-S" style="fill:none;stroke:#27AAE1;opacity:1;stroke-width:0.5;" x1="263" x2="3036" y1="625.541" y2="625.541"/>
  <g id="H-reference" style="fill:#27AAE1;stroke:none;" transform="matrix(1 0 0 1 339 1126)">
   <path d="M0.993654 0L3.63775 0L29.3281-67.1323L30.0303-67.1323L30.0303-70.459L28.1226-70.459ZM11.6885-24.4799L46.9815-24.4799L46.2315-26.7285L12.4385-26.7285ZM55.1196 0L57.7637 0L30.6382-70.459L29.4326-70.459L29.4326-67.1323Z"/>
  </g>
  <line id="Baseline-M" style="fill:none;stroke:#27AAE1;opacity:1;stroke-width:0.5;" x1="263" x2="3036" y1="1126" y2="1126"/>
  <line id="Capline-M" style="fill:none;stroke:#27AAE1;opacity:1;stroke-width:0.5;" x1="263" x2="3036" y1="1055.54" y2="1055.54"/>
  <g id="H-reference" style="fill:#27AAE1;stroke:none;" transform="matrix(1 0 0 1 339 1556)">
   <path d="M0.993654 0L3.63775 0L29.3281-67.1323L30.0303-67.1323L30.0303-70.459L28.1226-70.459ZM11.6885-24.4799L46.9815-24.4799L46.2315-26.7285L12.4385-26.7285ZM55.1196 0L57.7637 0L30.6382-70.459L29.4326-70.459L29.4326-67.1323Z"/>
  </g>
  <line id="Baseline-L" style="fill:none;stroke:#27AAE1;opacity:1;stroke-width:0.5;" x1="263" x2="3036" y1="1556" y2="1556"/>
  <line id="Capline-L" style="fill:none;stroke:#27AAE1;opacity:1;stroke-width:0.5;" x1="263" x2="3036" y1="1485.54" y2="1485.54"/>
  <line id="left-margin-Ultralight-S" style="fill:none;stroke:#00AEEF;stroke-width:0.5;opacity:1.0;" x1="518.4" x2="518.4" y1="600.785" y2="720.121"/>
  <line id="right-margin-Ultralight-S" style="fill:none;stroke:#00AEEF;stroke-width:0.5;opacity:1.0;" x1="601.022" x2="601.022" y1="600.785" y2="720.121"/>
  <line id="left-margin-Regular-S" style="fill:none;stroke:#00AEEF;stroke-width:0.5;opacity:1.0;" x1="1405.58" x2="1405.58" y1="600.785" y2="720.121"/>
  <line id="right-margin-Regular-S" style="fill:none;stroke:#00AEEF;stroke-width:0.5;opacity:1.0;" x1="1494.11" x2="1494.11" y1="600.785" y2="720.121"/>
  <line id="left-margin-Black-S" style="fill:none;stroke:#00AEEF;stroke-width:0.5;opacity:1.0;" x1="2883.16" x2="2883.16" y1="600.785" y2="720.121"/>
  <line id="right-margin-Black-S" style="fill:none;stroke:#00AEEF;stroke-width:0.5;opacity:1.0;" x1="2983.64" x2="2983.64" y1="600.785" y2="720.121"/>
 </g>
 <g id="Symbols">
  <g id="Black-S" transform="matrix(1 0 0 1 2883.16 696)">
   <path class="SFSymbolsPreviewWireframe" d="M46.2402 12.1094C62.3535 12.1094 76.6113 2.14844 82.5195-12.207C83.7402-15.1855 83.6914-17.5781 82.2266-18.8965C80.8105-20.166 78.5156-20.3125 76.1719-19.1895C72.9004-17.627 68.1152-16.3574 63.4766-16.3574C47.1191-16.3574 35.6934-27.3926 35.6934-43.1152C35.6934-47.9492 36.9629-53.3691 38.8184-57.4707C40.0879-60.2539 39.9414-62.3047 38.7207-63.6719C37.5-65.0879 35.1074-65.2344 32.1777-64.0625C17.2852-58.1055 6.83594-43.457 6.83594-27.3438C6.83594-4.54102 23.4863 12.1094 46.2402 12.1094ZM74.0723-69.0918L66.4062-69.0918L66.4062-69.2871L75.8301-80.3711C76.9043-81.6406 77.2949-82.4707 77.2949-83.9355C77.2949-86.0352 75.7812-87.5 73.584-87.5L60.2539-87.5C57.8613-87.5 56.4453-86.2305 56.4453-84.1797C56.4453-82.1777 57.959-80.8594 60.2539-80.8594L67.7246-80.8594L67.7246-80.6641L58.4961-69.6777C57.4219-68.4082 57.0312-67.3828 57.0312-66.0645C57.0312-63.9648 58.5449-62.5488 60.6934-62.5488L74.0723-62.5488C76.3672-62.5488 77.8809-63.8184 77.8809-65.8203C77.8809-67.8711 76.4648-69.0918 74.0723-69.0918ZM94.043-52.9297L89.9414-52.9297L89.9414-53.125L95.6055-59.3262C96.6797-60.4004 97.0703-61.377 97.0703-62.793C97.0703-64.7949 95.6055-66.1621 93.5547-66.1621L84.4238-66.1621C82.1777-66.1621 80.8105-65.0879 80.8105-63.2324C80.8105-61.4258 82.2266-60.3027 84.4238-60.3027L88.4277-60.3027L88.4277-60.1074L83.0566-54.248C81.9336-53.0273 81.3965-51.8555 81.3965-50.4883C81.3965-48.4863 82.8125-47.168 84.8633-47.168L94.043-47.168C96.2402-47.168 97.6562-48.2422 97.6562-50.0488C97.6562-51.8555 96.2891-52.9297 94.043-52.9297ZM75.2441-39.0625L71.6309-39.0625L71.6309-39.2578L76.6602-44.5801C77.5879-45.5566 77.9297-46.4355 77.9297-47.7051C77.9297-49.4629 76.6602-50.6836 74.8047-50.6836L65.8203-50.6836C63.8184-50.6836 62.6465-49.6582 62.6465-47.9004C62.6465-46.2402 63.916-45.166 65.8203-45.166L69.4336-45.166L69.4336-44.9707L64.6973-39.9414C63.5254-38.7207 63.1836-37.8418 63.1348-36.5234C63.0859-34.8145 64.3555-33.5938 66.2109-33.5938L75.2441-33.5938C77.1973-33.5938 78.4668-34.668 78.4668-36.3281C78.4668-38.0859 77.2949-39.0625 75.2441-39.0625Z"/>
  </g>
  <g id="Regular-S" transform="matrix(1 0 0 1 1405.58 696)">
   <path class="SFSymbolsPreviewWireframe" d="M41.748 6.00586C55.6641 6.00586 66.9434-1.02539 72.0703-13.2324C72.7051-14.6973 72.6074-15.918 71.8262-16.6992C71.2891-17.2852 70.1172-17.3828 68.8965-16.8945C65.7227-15.625 62.1094-15.0879 58.0566-15.0879C40.8691-15.0879 29.6875-25.9277 29.6875-42.5781C29.6875-47.0215 30.5664-52.002 31.7383-54.4434C32.4707-55.8594 32.4707-57.1289 31.8359-57.8613C31.1523-58.6914 29.9316-58.8379 28.3203-58.252C16.2109-53.7598 8.20312-41.0645 8.20312-26.9043C8.20312-8.05664 22.4121 6.00586 41.748 6.00586ZM62.5977-66.0645L54.0527-66.0645L54.0527-66.2598L62.8906-77.9785C63.7695-79.1016 64.0625-79.834 64.0625-80.5176C64.0625-81.8359 63.0859-82.6172 61.7188-82.6172L49.0234-82.6172C47.7539-82.6172 46.8262-81.7871 46.8262-80.4688C46.8262-79.0527 47.7539-78.2227 49.0234-78.2227L57.0801-78.2227L57.0801-78.0273L48.0957-66.3574C47.2168-65.2344 46.9238-64.5996 46.9238-63.7207C46.9238-62.5488 47.8516-61.6211 49.2188-61.6211L62.5977-61.6211C63.916-61.6211 64.8438-62.4512 64.8438-63.8672C64.8438-65.1855 63.916-66.0645 62.5977-66.0645ZM81.0059-51.1719L75.2441-51.1719L75.2441-51.3184L81.2988-59.2773C82.0312-60.3516 82.373-60.9863 82.373-61.7188C82.373-62.9395 81.4453-63.6719 80.127-63.6719L70.7031-63.6719C69.5312-63.6719 68.6035-62.8906 68.6035-61.6211C68.6035-60.2539 69.5312-59.5215 70.7031-59.5215L75.8301-59.5215L75.8301-59.375L69.8242-51.416C69.043-50.4395 68.75-49.7559 68.75-48.9746C68.75-47.8516 69.6289-47.0215 70.8984-47.0215L81.0059-47.0215C82.2266-47.0215 83.1055-47.7539 83.1055-49.0723C83.1055-50.3418 82.2266-51.1719 81.0059-51.1719ZM63.7695-37.793L58.8379-37.793L58.8379-37.9395L64.0137-44.9219C64.7949-45.9961 65.0879-46.5332 65.0879-47.2168C65.0879-48.3887 64.1602-49.0723 62.9883-49.0723L54.5898-49.0723C53.418-49.0723 52.5879-48.3398 52.5879-47.1191C52.5879-45.8496 53.418-45.166 54.5898-45.166L58.8867-45.166L58.8867-45.0195L53.7109-38.0371C53.0273-37.1094 52.7344-36.4746 52.7344-35.7422C52.7344-34.668 53.5156-33.8379 54.7363-33.8379L63.7695-33.8379C64.9414-33.8379 65.7227-34.6191 65.7227-35.8398C65.7227-37.0117 64.9414-37.793 63.7695-37.793Z"/>
  </g>
  <g id="Ultralight-S" transform="matrix(1 0 0 1 518.4 696)">
   <path class="SFSymbolsPreviewWireframe" d="M37.752 4.05324C51.2593 4.05324 62.1299-2.16064 67.1661-12.9146C67.5738-13.7891 67.5669-14.5557 67.149-15.0191C66.7481-15.4688 66.0303-15.6118 65.0821-15.2598C61.9536-14.0811 58.522-13.3169 53.8335-13.3169C35.9195-13.3169 24.6924-24.1113 24.6924-42.6689C24.6924-46.4766 25.2535-50.6397 27.0157-54.3071C27.4756-55.269 27.3848-56.0391 26.8863-56.5444C26.3843-57.0567 25.4815-57.1123 24.2788-56.481C14.0767-51.0806 6.88624-40.4287 6.88624-27.0859C6.88624-9.69139 18.6431 4.05324 37.752 4.05324ZM59.6006-62.2954L50.2837-62.2954L50.2837-62.4908L59.4849-74.3457C60.0005-74.9693 60.2481-75.293 60.2481-75.8404C60.2481-76.5684 59.6348-76.9864 58.9033-76.9864L48.3877-76.9864C47.7539-76.9864 47.3257-76.5196 47.3257-76.0186C47.3257-75.4654 47.7539-74.9986 48.3877-74.9986L57.2617-74.9986L57.2617-74.8032L48.0957-62.9517C47.5801-62.3736 47.3325-62.0567 47.3325-61.4956C47.3325-60.7324 47.9424-60.3042 48.7192-60.3042L59.6006-60.3042C60.1924-60.3042 60.6206-60.771 60.6206-61.3242C60.6206-61.8252 60.1924-62.2954 59.6006-62.2954ZM75.2842-48.6743L67.5245-48.6743L67.5245-48.8662L75.2139-58.687C75.7193-59.2617 75.9703-59.5786 75.9703-60.1294C75.9703-60.896 75.3604-61.3106 74.587-61.3106L65.6626-61.3106C65.0357-61.3106 64.6075-60.8472 64.6075-60.3042C64.6075-59.7998 65.0357-59.3398 65.6626-59.3398L73.0147-59.3398L73.0147-59.148L65.3741-49.3272C64.8653-48.7139 64.6177-48.3936 64.6177-47.8394C64.6177-47.125 65.2242-46.7036 65.9942-46.7036L75.2842-46.7036C75.9146-46.7036 76.3394-47.1636 76.3394-47.6646C76.3394-48.2075 75.9146-48.6743 75.2842-48.6743ZM59.9551-36.9756L53.6612-36.9756L53.6612-37.1675L59.8814-45.0581C60.3448-45.6782 60.6377-45.9883 60.6377-46.5356C60.6377-47.2534 60.0279-47.6646 59.2647-47.6646L51.7744-47.6646C51.1475-47.6646 50.7261-47.2046 50.7261-46.7105C50.7261-46.1675 51.1475-45.7109 51.7744-45.7109L57.6607-45.7109L57.6607-45.519L51.4859-37.6284C50.9839-36.9731 50.7363-36.7017 50.7363-36.1509C50.7363-35.3945 51.336-35.0185 52.1026-35.0185L59.9551-35.0185C60.5821-35.0185 61-35.4365 61-35.9761C61-36.5122 60.5821-36.9756 59.9551-36.9756Z"/>
  </g>
 </g>
</svg>
