<?xml version="1.0" encoding="UTF-8"?>
<!--Generator: Apple Native CoreSVG 232.5-->
<!DOCTYPE svg
PUBLIC "-//W3C//DTD SVG 1.1//EN"
       "http://www.w3.org/Graphics/SVG/1.1/DTD/svg11.dtd">
<svg version="1.1" xmlns="http://www.w3.org/2000/svg" xmlns:xlink="http://www.w3.org/1999/xlink" width="3300" height="2200">
 <!--glyph: "uni1001C1.medium", point size: 100.0, font version: "19.2d2e1", template writer version: "128"-->
 <style>.SFSymbolsPreviewWireframe {fill:none;opacity:1.0;stroke:black;stroke-width:0.5}
</style>
 <g id="Notes">
  <rect height="2200" id="artboard" style="fill:white;opacity:1" width="3300" x="0" y="0"/>
  <line style="fill:none;stroke:black;opacity:1;stroke-width:0.5;" x1="263" x2="3036" y1="292" y2="292"/>
  <text style="stroke:none;fill:black;font-family:sans-serif;font-size:13;font-weight:bold;" transform="matrix(1 0 0 1 263 322)">Weight/Scale Variations</text>
  <text style="stroke:none;fill:black;font-family:sans-serif;font-size:13;text-anchor:middle;" transform="matrix(1 0 0 1 559.711 322)">Ultralight</text>
  <text style="stroke:none;fill:black;font-family:sans-serif;font-size:13;text-anchor:middle;" transform="matrix(1 0 0 1 856.422 322)">Thin</text>
  <text style="stroke:none;fill:black;font-family:sans-serif;font-size:13;text-anchor:middle;" transform="matrix(1 0 0 1 1153.13 322)">Light</text>
  <text style="stroke:none;fill:black;font-family:sans-serif;font-size:13;text-anchor:middle;" transform="matrix(1 0 0 1 1449.84 322)">Regular</text>
  <text style="stroke:none;fill:black;font-family:sans-serif;font-size:13;text-anchor:middle;" transform="matrix(1 0 0 1 1746.56 322)">Medium</text>
  <text style="stroke:none;fill:black;font-family:sans-serif;font-size:13;text-anchor:middle;" transform="matrix(1 0 0 1 2043.27 322)">Semibold</text>
  <text style="stroke:none;fill:black;font-family:sans-serif;font-size:13;text-anchor:middle;" transform="matrix(1 0 0 1 2339.98 322)">Bold</text>
  <text style="stroke:none;fill:black;font-family:sans-serif;font-size:13;text-anchor:middle;" transform="matrix(1 0 0 1 2636.69 322)">Heavy</text>
  <text style="stroke:none;fill:black;font-family:sans-serif;font-size:13;text-anchor:middle;" transform="matrix(1 0 0 1 2933.4 322)">Black</text>
  <line style="fill:none;stroke:black;opacity:1;stroke-width:0.5;" x1="263" x2="3036" y1="1903" y2="1903"/>
  <g transform="matrix(0.2 0 0 0.2 263 1933)">
   <path d="m46.2402 4.15039c21.5332 0 39.4531-17.8711 39.4531-39.4043s-17.9688-39.4043-39.502-39.4043c-21.4844 0-39.3555 17.8711-39.3555 39.4043s17.9199 39.4043 39.4043 39.4043Zm0-7.42188c-17.7246 0-31.8848-14.209-31.8848-31.9824s14.1113-31.9824 31.8359-31.9824c17.7734 0 32.0312 14.209 32.0312 31.9824s-14.209 31.9824-31.9824 31.9824Zm-17.9688-31.9824c0 2.14844 1.51367 3.61328 3.75977 3.61328h10.498v10.5957c0 2.19727 1.46484 3.71094 3.61328 3.71094 2.24609 0 3.71094-1.51367 3.71094-3.71094v-10.5957h10.5957c2.19727 0 3.71094-1.46484 3.71094-3.61328 0-2.19727-1.51367-3.71094-3.71094-3.71094h-10.5957v-10.5469c0-2.24609-1.46484-3.75977-3.71094-3.75977-2.14844 0-3.61328 1.51367-3.61328 3.75977v10.5469h-10.498c-2.24609 0-3.75977 1.51367-3.75977 3.71094Z"/>
  </g>
  <g transform="matrix(0.2 0 0 0.2 281.506 1933)">
   <path d="m58.5449 14.5508c27.2461 0 49.8047-22.6074 49.8047-49.8047 0-27.2461-22.6074-49.8047-49.8535-49.8047-27.1973 0-49.7559 22.5586-49.7559 49.8047 0 27.1973 22.6074 49.8047 49.8047 49.8047Zm0-8.30078c-23.0469 0-41.4551-18.457-41.4551-41.5039s18.3594-41.5039 41.4062-41.5039 41.5527 18.457 41.5527 41.5039-18.457 41.5039-41.5039 41.5039Zm-22.6562-41.5039c0 2.39258 1.66016 4.00391 4.15039 4.00391h14.3555v14.4043c0 2.44141 1.66016 4.15039 4.05273 4.15039 2.44141 0 4.15039-1.66016 4.15039-4.15039v-14.4043h14.4043c2.44141 0 4.15039-1.61133 4.15039-4.00391 0-2.44141-1.70898-4.15039-4.15039-4.15039h-14.4043v-14.3555c0-2.49023-1.70898-4.19922-4.15039-4.19922-2.39258 0-4.05273 1.70898-4.05273 4.19922v14.3555h-14.3555c-2.49023 0-4.15039 1.70898-4.15039 4.15039Z"/>
  </g>
  <g transform="matrix(0.2 0 0 0.2 304.924 1933)">
   <path d="m74.8535 28.3203c34.8145 0 63.623-28.8086 63.623-63.5742 0-34.8145-28.8574-63.623-63.6719-63.623-34.7656 0-63.5254 28.8086-63.5254 63.623 0 34.7656 28.8086 63.5742 63.5742 63.5742Zm0-9.08203c-30.1758 0-54.4434-24.3164-54.4434-54.4922 0-30.2246 24.2188-54.4922 54.3945-54.4922 30.2246 0 54.541 24.2676 54.541 54.4922 0 30.1758-24.2676 54.4922-54.4922 54.4922Zm-28.8574-54.4922c0 2.58789 1.85547 4.39453 4.58984 4.39453h19.7266v19.7754c0 2.68555 1.85547 4.58984 4.44336 4.58984 2.68555 0 4.54102-1.85547 4.54102-4.58984v-19.7754h19.7754c2.68555 0 4.58984-1.80664 4.58984-4.39453 0-2.73438-1.85547-4.58984-4.58984-4.58984h-19.7754v-19.7266c0-2.73438-1.85547-4.63867-4.54102-4.63867-2.58789 0-4.44336 1.9043-4.44336 4.63867v19.7266h-19.7266c-2.73438 0-4.58984 1.85547-4.58984 4.58984Z"/>
  </g>
  <text style="stroke:none;fill:black;font-family:sans-serif;font-size:13;font-weight:bold;" transform="matrix(1 0 0 1 263 1953)">Design Variations</text>
  <text style="stroke:none;fill:black;font-family:sans-serif;font-size:13;" transform="matrix(1 0 0 1 263 1971)">Symbols are supported in up to nine weights and three scales.</text>
  <text style="stroke:none;fill:black;font-family:sans-serif;font-size:13;" transform="matrix(1 0 0 1 263 1989)">For optimal layout with text and other symbols, vertically align</text>
  <text style="stroke:none;fill:black;font-family:sans-serif;font-size:13;" transform="matrix(1 0 0 1 263 2007)">symbols with the adjacent text.</text>
  <line style="fill:none;stroke:#00AEEF;stroke-width:0.5;opacity:1.0;" x1="776" x2="776" y1="1919" y2="1933"/>
  <g transform="matrix(0.2 0 0 0.2 776 1933)">
   <path d="m16.5527 0.78125c2.58789 0 3.85742-0.976562 4.78516-3.71094l6.29883-17.2363h28.8086l6.29883 17.2363c0.927734 2.73438 2.19727 3.71094 4.73633 3.71094 2.58789 0 4.24805-1.5625 4.24805-4.00391 0-0.830078-0.146484-1.61133-0.537109-2.63672l-22.9004-60.9863c-1.12305-2.97852-3.125-4.49219-6.25-4.49219-3.02734 0-5.07812 1.46484-6.15234 4.44336l-22.9004 61.084c-0.390625 1.02539-0.537109 1.80664-0.537109 2.63672 0 2.44141 1.5625 3.95508 4.10156 3.95508Zm13.4766-28.3691 11.8652-32.8613h0.244141l11.8652 32.8613Z"/>
  </g>
  <line style="fill:none;stroke:#00AEEF;stroke-width:0.5;opacity:1.0;" x1="792.836" x2="792.836" y1="1919" y2="1933"/>
  <text style="stroke:none;fill:black;font-family:sans-serif;font-size:13;font-weight:bold;" transform="matrix(1 0 0 1 776 1953)">Margins</text>
  <text style="stroke:none;fill:black;font-family:sans-serif;font-size:13;" transform="matrix(1 0 0 1 776 1971)">Leading and trailing margins on the left and right side of each symbol</text>
  <text style="stroke:none;fill:black;font-family:sans-serif;font-size:13;" transform="matrix(1 0 0 1 776 1989)">can be adjusted by modifying the x-location of the margin guidelines.</text>
  <text style="stroke:none;fill:black;font-family:sans-serif;font-size:13;" transform="matrix(1 0 0 1 776 2007)">Modifications are automatically applied proportionally to all</text>
  <text style="stroke:none;fill:black;font-family:sans-serif;font-size:13;" transform="matrix(1 0 0 1 776 2025)">scales and weights.</text>
  <g transform="matrix(0.2 0 0 0.2 1289 1933)">
   <path d="m14.209 9.32617 8.49609 8.54492c4.29688 4.3457 9.22852 4.05273 13.8672-1.07422l53.4668-58.9355-4.83398-4.88281-53.0762 58.3984c-1.75781 2.00195-3.41797 2.49023-5.76172 0.146484l-5.85938-5.81055c-2.34375-2.29492-1.80664-4.00391 0.195312-5.81055l57.373-54.0039-4.88281-4.83398-57.959 54.4434c-4.93164 4.58984-5.32227 9.47266-1.02539 13.8184Zm32.0801-90.9668c-2.09961 2.05078-2.24609 4.93164-1.07422 6.88477 1.17188 1.80664 3.4668 2.97852 6.68945 2.14844 7.32422-1.70898 14.9414-2.00195 22.0703 2.68555l-2.92969 7.27539c-1.70898 4.15039-0.830078 7.08008 1.85547 9.81445l11.4746 11.5723c2.44141 2.44141 4.49219 2.53906 7.32422 2.05078l5.32227-0.976562 3.32031 3.36914-0.195312 2.7832c-0.195312 2.49023 0.439453 4.39453 2.88086 6.78711l3.80859 3.71094c2.39258 2.39258 5.46875 2.53906 7.8125 0.195312l14.5508-14.5996c2.34375-2.34375 2.24609-5.32227-0.146484-7.71484l-3.85742-3.80859c-2.39258-2.39258-4.24805-3.17383-6.64062-2.97852l-2.88086 0.244141-3.22266-3.17383 1.2207-5.61523c0.634766-2.83203-0.146484-5.0293-3.07617-7.95898l-10.9863-10.9375c-16.6992-16.6016-38.8672-16.2109-53.3203-1.75781Zm7.4707 1.85547c12.1582-8.88672 28.6133-7.37305 39.7461 3.75977l12.1582 12.0605c1.17188 1.17188 1.36719 2.09961 1.02539 3.80859l-1.61133 7.42188 7.51953 7.42188 4.93164-0.292969c1.26953-0.0488281 1.66016 0.0488281 2.63672 1.02539l2.88086 2.88086-12.207 12.207-2.88086-2.88086c-0.976562-0.976562-1.12305-1.36719-1.07422-2.68555l0.341797-4.88281-7.4707-7.42188-7.61719 1.26953c-1.61133 0.341797-2.34375 0.195312-3.56445-0.976562l-10.0098-10.0098c-1.26953-1.17188-1.41602-2.00195-0.634766-3.85742l4.39453-10.4492c-7.8125-7.27539-17.9688-10.4004-28.125-7.42188-0.78125 0.195312-1.07422-0.439453-0.439453-0.976562Z"/>
  </g>
  <text style="stroke:none;fill:black;font-family:sans-serif;font-size:13;font-weight:bold;" transform="matrix(1 0 0 1 1289 1953)">Exporting</text>
  <text style="stroke:none;fill:black;font-family:sans-serif;font-size:13;" transform="matrix(1 0 0 1 1289 1971)">Symbols should be outlined when exporting to ensure the</text>
  <text style="stroke:none;fill:black;font-family:sans-serif;font-size:13;" transform="matrix(1 0 0 1 1289 1989)">design is preserved when submitting to Xcode.</text>
  <text id="template-version" style="stroke:none;fill:black;font-family:sans-serif;font-size:13;text-anchor:end;" transform="matrix(1 0 0 1 3036 1933)">Template v.5.0</text>
  <text style="stroke:none;fill:black;font-family:sans-serif;font-size:13;text-anchor:end;" transform="matrix(1 0 0 1 3036 1951)">Requires Xcode 15 or greater</text>
  <text id="descriptive-name" style="stroke:none;fill:black;font-family:sans-serif;font-size:13;text-anchor:end;" transform="matrix(1 0 0 1 3036 1969)">Generated from moon.stars.fill</text>
  <text style="stroke:none;fill:black;font-family:sans-serif;font-size:13;text-anchor:end;" transform="matrix(1 0 0 1 3036 1987)">Typeset at 100.0 points</text>
  <text style="stroke:none;fill:black;font-family:sans-serif;font-size:13;" transform="matrix(1 0 0 1 263 726)">Small</text>
  <text style="stroke:none;fill:black;font-family:sans-serif;font-size:13;" transform="matrix(1 0 0 1 263 1156)">Medium</text>
  <text style="stroke:none;fill:black;font-family:sans-serif;font-size:13;" transform="matrix(1 0 0 1 263 1586)">Large</text>
 </g>
 <g id="Guides">
  <g id="H-reference" style="fill:#27AAE1;stroke:none;" transform="matrix(1 0 0 1 339 696)">
   <path d="M0.993654 0L3.63775 0L29.3281-67.1323L30.0303-67.1323L30.0303-70.459L28.1226-70.459ZM11.6885-24.4799L46.9815-24.4799L46.2315-26.7285L12.4385-26.7285ZM55.1196 0L57.7637 0L30.6382-70.459L29.4326-70.459L29.4326-67.1323Z"/>
  </g>
  <line id="Baseline-S" style="fill:none;stroke:#27AAE1;opacity:1;stroke-width:0.5;" x1="263" x2="3036" y1="696" y2="696"/>
  <line id="Capline-S" style="fill:none;stroke:#27AAE1;opacity:1;stroke-width:0.5;" x1="263" x2="3036" y1="625.541" y2="625.541"/>
  <g id="H-reference" style="fill:#27AAE1;stroke:none;" transform="matrix(1 0 0 1 339 1126)">
   <path d="M0.993654 0L3.63775 0L29.3281-67.1323L30.0303-67.1323L30.0303-70.459L28.1226-70.459ZM11.6885-24.4799L46.9815-24.4799L46.2315-26.7285L12.4385-26.7285ZM55.1196 0L57.7637 0L30.6382-70.459L29.4326-70.459L29.4326-67.1323Z"/>
  </g>
  <line id="Baseline-M" style="fill:none;stroke:#27AAE1;opacity:1;stroke-width:0.5;" x1="263" x2="3036" y1="1126" y2="1126"/>
  <line id="Capline-M" style="fill:none;stroke:#27AAE1;opacity:1;stroke-width:0.5;" x1="263" x2="3036" y1="1055.54" y2="1055.54"/>
  <g id="H-reference" style="fill:#27AAE1;stroke:none;" transform="matrix(1 0 0 1 339 1556)">
   <path d="M0.993654 0L3.63775 0L29.3281-67.1323L30.0303-67.1323L30.0303-70.459L28.1226-70.459ZM11.6885-24.4799L46.9815-24.4799L46.2315-26.7285L12.4385-26.7285ZM55.1196 0L57.7637 0L30.6382-70.459L29.4326-70.459L29.4326-67.1323Z"/>
  </g>
  <line id="Baseline-L" style="fill:none;stroke:#27AAE1;opacity:1;stroke-width:0.5;" x1="263" x2="3036" y1="1556" y2="1556"/>
  <line id="Capline-L" style="fill:none;stroke:#27AAE1;opacity:1;stroke-width:0.5;" x1="263" x2="3036" y1="1485.54" y2="1485.54"/>
  <line id="left-margin-Ultralight-S" style="fill:none;stroke:#00AEEF;stroke-width:0.5;opacity:1.0;" x1="518.4" x2="518.4" y1="600.785" y2="720.121"/>
  <line id="right-margin-Ultralight-S" style="fill:none;stroke:#00AEEF;stroke-width:0.5;opacity:1.0;" x1="601.022" x2="601.022" y1="600.785" y2="720.121"/>
  <line id="left-margin-Regular-S" style="fill:none;stroke:#00AEEF;stroke-width:0.5;opacity:1.0;" x1="1405.58" x2="1405.58" y1="600.785" y2="720.121"/>
  <line id="right-margin-Regular-S" style="fill:none;stroke:#00AEEF;stroke-width:0.5;opacity:1.0;" x1="1494.11" x2="1494.11" y1="600.785" y2="720.121"/>
  <line id="left-margin-Black-S" style="fill:none;stroke:#00AEEF;stroke-width:0.5;opacity:1.0;" x1="2883.16" x2="2883.16" y1="600.785" y2="720.121"/>
  <line id="right-margin-Black-S" style="fill:none;stroke:#00AEEF;stroke-width:0.5;opacity:1.0;" x1="2983.64" x2="2983.64" y1="600.785" y2="720.121"/>
 </g>
 <g id="Symbols">
  <g id="Black-S" transform="matrix(1 0 0 1 2883.16 696)">
   <path class="SFSymbolsPreviewWireframe" d="M49.6582 7.51953C65.7715 7.51953 80.0293-2.44141 85.9375-16.7969C87.1582-19.7754 87.1094-22.168 85.6445-23.4863C84.2285-24.7559 81.9336-24.9023 79.5898-23.7793C76.3184-22.2168 71.5332-20.9473 66.8945-20.9473C50.5371-20.9473 39.1113-31.9824 39.1113-47.7051C39.1113-52.5391 40.3809-57.959 42.2363-62.0605C43.5059-64.8438 43.3594-66.8945 42.1387-68.2617C40.918-69.6777 38.5254-69.8242 35.5957-68.6523C20.7031-62.6953 10.2539-48.0469 10.2539-31.9336C10.2539-9.13086 26.9043 7.51953 49.6582 7.51953ZM82.6172-39.3066C83.7891-39.3066 84.668-40.1367 84.8145-41.3574C85.9863-51.123 86.2305-51.5137 96.3867-52.9785C97.7539-53.1738 98.5352-54.0039 98.5352-55.1758C98.5352-56.2988 97.7539-57.1289 96.6309-57.373C86.1816-59.6191 85.9863-59.3262 84.8145-68.9941C84.668-70.2148 83.7891-71.0449 82.6172-71.0449C81.4453-71.0449 80.5664-70.2148 80.4199-69.043C79.1504-58.9355 78.9551-58.7402 68.6523-57.373C67.5293-57.2266 66.6992-56.2988 66.6992-55.1758C66.6992-54.0527 67.4805-53.2227 68.6035-52.9785C79.0527-50.7324 79.1504-50.9766 80.4199-41.2598C80.5664-40.1367 81.4941-39.3066 82.6172-39.3066ZM63.8672-68.0664C64.5996-68.0664 65.1367-68.6035 65.2344-69.3359C66.0645-75.4883 66.1133-75.4883 72.4121-76.5625C73.291-76.709 73.7793-77.1973 73.7793-77.9297C73.7793-78.6621 73.291-79.1504 72.5586-79.2969C66.0156-80.6152 65.9668-80.5664 65.2344-86.4746C65.1367-87.2559 64.5996-87.793 63.8672-87.793C63.1348-87.793 62.5977-87.2559 62.5-86.5234C61.6699-80.2246 61.6699-80.1758 55.2246-79.2969C54.4922-79.1992 53.9551-78.6621 53.9551-77.9297C53.9551-77.1973 54.4434-76.709 55.1758-76.5625C61.6699-75.2441 61.6211-75.293 62.5-69.2871C62.5977-68.6035 63.1348-68.0664 63.8672-68.0664Z"/>
  </g>
  <g id="Regular-S" transform="matrix(1 0 0 1 1405.58 696)">
   <path class="SFSymbolsPreviewWireframe" d="M43.3105 1.26953C57.1777 1.26953 68.5059-5.76172 73.6328-17.9199C74.2188-19.4336 74.1699-20.6543 73.3887-21.4355C72.8027-22.0215 71.6797-22.1191 70.459-21.6309C67.2852-20.3613 63.623-19.8242 59.6191-19.8242C42.4316-19.8242 31.25-30.6641 31.25-47.3145C31.25-51.7578 32.0801-56.7383 33.3008-59.1797C34.0332-60.5957 33.9844-61.8652 33.3984-62.5977C32.7148-63.4277 31.4453-63.5742 29.8828-62.9883C17.7734-58.4961 9.76562-45.8008 9.76562-31.6406C9.76562-12.793 23.9258 1.26953 43.3105 1.26953ZM72.2656-34.0332C73.0469-34.0332 73.6328-34.6191 73.7305-35.4492C74.8535-45.6543 75.4883-46.0449 85.8398-47.6562C86.8164-47.8027 87.3535-48.2422 87.3535-49.1211C87.3535-49.9023 86.8164-50.4395 86.0352-50.5371C75.5859-52.5391 74.8535-52.5391 73.7305-62.7441C73.6328-63.623 73.0469-64.1602 72.2656-64.1602C71.4355-64.1602 70.8984-63.623 70.8008-62.793C69.5312-52.3926 69.043-51.9043 58.4473-50.5371C57.7148-50.4883 57.1289-49.9023 57.1289-49.1211C57.1289-48.291 57.7148-47.8027 58.4473-47.6562C69.043-45.6543 69.4824-45.5566 70.8008-35.3516C70.8984-34.6191 71.4355-34.0332 72.2656-34.0332ZM53.9551-60.4492C54.4434-60.4492 54.7363-60.7422 54.834-61.2305C56.1035-67.5293 55.957-67.627 62.5488-68.9453C62.9883-69.043 63.3301-69.2871 63.3301-69.8242C63.3301-70.3613 62.9883-70.6055 62.5488-70.7031C55.957-72.0215 56.1035-72.1191 54.834-78.418C54.7363-78.9062 54.4434-79.1992 53.9551-79.1992C53.418-79.1992 53.125-78.9062 53.0273-78.418C51.7578-72.1191 51.9043-72.0215 45.3613-70.7031C44.873-70.6055 44.5312-70.3613 44.5312-69.8242C44.5312-69.2871 44.873-69.043 45.3613-68.9453C51.9043-67.627 51.8066-67.5293 53.0273-61.2305C53.125-60.7422 53.418-60.4492 53.9551-60.4492Z"/>
  </g>
  <g id="Ultralight-S" transform="matrix(1 0 0 1 518.4 696)">
   <path class="SFSymbolsPreviewWireframe" d="M40.6314 1.95068C54.1353 1.95068 64.9639-4.21779 70-15.0137C70.4043-15.8462 70.4009-16.6582 69.9829-17.1216C69.5786-17.5713 68.9097-17.7144 67.9614-17.3623C64.833-16.1836 61.398-15.4195 56.7129-15.4195C38.7534-15.4195 27.5264-26.2139 27.5264-44.7715C27.5264-48.5337 28.1294-52.7422 29.8496-56.4097C30.3096-57.3262 30.2154-58.1416 29.7202-58.647C29.2183-59.1592 28.3574-59.2149 27.1582-58.5835C16.9561-53.1377 9.76562-42.4859 9.76562-29.1885C9.76562-11.794 21.5191 1.95068 40.6314 1.95068ZM68.5874-31.5357C68.8692-31.5357 69.0918-31.7129 69.1441-31.9981C70.812-42.294 70.7203-41.958 81.1626-44.0235C81.4126-44.0791 81.6319-44.2461 81.6319-44.5801C81.6319-44.9073 81.4126-45.0357 81.1763-45.0879C70.7725-47.1807 70.812-46.772 69.1441-57.1133C69.0918-57.4473 68.8692-57.6211 68.5874-57.6211C68.3477-57.6211 68.1284-57.4473 68.0762-57.1167C66.3526-46.8526 66.6362-47.1817 56.0405-45.0879C55.7622-45.0391 55.5396-44.9073 55.5396-44.5801C55.5396-44.2495 55.7622-44.0791 56.0405-44.0235C66.6362-41.9307 66.3946-42.2417 68.0762-31.9912C68.1284-31.7129 68.3477-31.5357 68.5874-31.5357ZM50.3223-55.0909C50.4927-55.0909 50.604-55.1568 50.6563-55.3726C51.5625-61.9893 51.8247-62.4956 58.8252-63.587C59.083-63.6392 59.1978-63.7471 59.1978-63.9664C59.1978-64.1856 59.083-64.2935 58.8252-64.3458C51.8701-65.7549 52.2437-66.2159 50.6563-72.5601C50.604-72.7759 50.4927-72.8418 50.3223-72.8418C50.1485-72.8418 50.0825-72.7759 50.0303-72.5601C48.3975-66.2159 48.9527-65.7549 41.8194-64.3458C41.5581-64.2935 41.4888-64.1856 41.4888-63.9664C41.4888-63.7471 41.5581-63.6392 41.8194-63.587C48.9527-62.1778 49.0366-61.9893 50.0303-55.3726C50.0825-55.1568 50.1485-55.0909 50.3223-55.0909Z"/>
  </g>
 </g>
</svg>
