<?xml version="1.0" encoding="UTF-8"?>
<!--Generator: Apple Native CoreSVG 232.5-->
<!DOCTYPE svg
PUBLIC "-//W3C//DTD SVG 1.1//EN"
       "http://www.w3.org/Graphics/SVG/1.1/DTD/svg11.dtd">
<svg version="1.1" xmlns="http://www.w3.org/2000/svg" xmlns:xlink="http://www.w3.org/1999/xlink" width="3300" height="2200">
 <!--glyph: "uni101945.medium", point size: 100.0, font version: "19.2d2e1", template writer version: "128"-->
 <style>.SFSymbolsPreviewWireframe {fill:none;opacity:1.0;stroke:black;stroke-width:0.5}
</style>
 <g id="Notes">
  <rect height="2200" id="artboard" style="fill:white;opacity:1" width="3300" x="0" y="0"/>
  <line style="fill:none;stroke:black;opacity:1;stroke-width:0.5;" x1="263" x2="3036" y1="292" y2="292"/>
  <text style="stroke:none;fill:black;font-family:sans-serif;font-size:13;font-weight:bold;" transform="matrix(1 0 0 1 263 322)">Weight/Scale Variations</text>
  <text style="stroke:none;fill:black;font-family:sans-serif;font-size:13;text-anchor:middle;" transform="matrix(1 0 0 1 559.711 322)">Ultralight</text>
  <text style="stroke:none;fill:black;font-family:sans-serif;font-size:13;text-anchor:middle;" transform="matrix(1 0 0 1 856.422 322)">Thin</text>
  <text style="stroke:none;fill:black;font-family:sans-serif;font-size:13;text-anchor:middle;" transform="matrix(1 0 0 1 1153.13 322)">Light</text>
  <text style="stroke:none;fill:black;font-family:sans-serif;font-size:13;text-anchor:middle;" transform="matrix(1 0 0 1 1449.84 322)">Regular</text>
  <text style="stroke:none;fill:black;font-family:sans-serif;font-size:13;text-anchor:middle;" transform="matrix(1 0 0 1 1746.56 322)">Medium</text>
  <text style="stroke:none;fill:black;font-family:sans-serif;font-size:13;text-anchor:middle;" transform="matrix(1 0 0 1 2043.27 322)">Semibold</text>
  <text style="stroke:none;fill:black;font-family:sans-serif;font-size:13;text-anchor:middle;" transform="matrix(1 0 0 1 2339.98 322)">Bold</text>
  <text style="stroke:none;fill:black;font-family:sans-serif;font-size:13;text-anchor:middle;" transform="matrix(1 0 0 1 2636.69 322)">Heavy</text>
  <text style="stroke:none;fill:black;font-family:sans-serif;font-size:13;text-anchor:middle;" transform="matrix(1 0 0 1 2933.4 322)">Black</text>
  <line style="fill:none;stroke:black;opacity:1;stroke-width:0.5;" x1="263" x2="3036" y1="1903" y2="1903"/>
  <g transform="matrix(0.2 0 0 0.2 263 1933)">
   <path d="m46.2402 4.15039c21.5332 0 39.4531-17.8711 39.4531-39.4043s-17.9688-39.4043-39.502-39.4043c-21.4844 0-39.3555 17.8711-39.3555 39.4043s17.9199 39.4043 39.4043 39.4043Zm0-7.42188c-17.7246 0-31.8848-14.209-31.8848-31.9824s14.1113-31.9824 31.8359-31.9824c17.7734 0 32.0312 14.209 32.0312 31.9824s-14.209 31.9824-31.9824 31.9824Zm-17.9688-31.9824c0 2.14844 1.51367 3.61328 3.75977 3.61328h10.498v10.5957c0 2.19727 1.46484 3.71094 3.61328 3.71094 2.24609 0 3.71094-1.51367 3.71094-3.71094v-10.5957h10.5957c2.19727 0 3.71094-1.46484 3.71094-3.61328 0-2.19727-1.51367-3.71094-3.71094-3.71094h-10.5957v-10.5469c0-2.24609-1.46484-3.75977-3.71094-3.75977-2.14844 0-3.61328 1.51367-3.61328 3.75977v10.5469h-10.498c-2.24609 0-3.75977 1.51367-3.75977 3.71094Z"/>
  </g>
  <g transform="matrix(0.2 0 0 0.2 281.506 1933)">
   <path d="m58.5449 14.5508c27.2461 0 49.8047-22.6074 49.8047-49.8047 0-27.2461-22.6074-49.8047-49.8535-49.8047-27.1973 0-49.7559 22.5586-49.7559 49.8047 0 27.1973 22.6074 49.8047 49.8047 49.8047Zm0-8.30078c-23.0469 0-41.4551-18.457-41.4551-41.5039s18.3594-41.5039 41.4062-41.5039 41.5527 18.457 41.5527 41.5039-18.457 41.5039-41.5039 41.5039Zm-22.6562-41.5039c0 2.39258 1.66016 4.00391 4.15039 4.00391h14.3555v14.4043c0 2.44141 1.66016 4.15039 4.05273 4.15039 2.44141 0 4.15039-1.66016 4.15039-4.15039v-14.4043h14.4043c2.44141 0 4.15039-1.61133 4.15039-4.00391 0-2.44141-1.70898-4.15039-4.15039-4.15039h-14.4043v-14.3555c0-2.49023-1.70898-4.19922-4.15039-4.19922-2.39258 0-4.05273 1.70898-4.05273 4.19922v14.3555h-14.3555c-2.49023 0-4.15039 1.70898-4.15039 4.15039Z"/>
  </g>
  <g transform="matrix(0.2 0 0 0.2 304.924 1933)">
   <path d="m74.8535 28.3203c34.8145 0 63.623-28.8086 63.623-63.5742 0-34.8145-28.8574-63.623-63.6719-63.623-34.7656 0-63.5254 28.8086-63.5254 63.623 0 34.7656 28.8086 63.5742 63.5742 63.5742Zm0-9.08203c-30.1758 0-54.4434-24.3164-54.4434-54.4922 0-30.2246 24.2188-54.4922 54.3945-54.4922 30.2246 0 54.541 24.2676 54.541 54.4922 0 30.1758-24.2676 54.4922-54.4922 54.4922Zm-28.8574-54.4922c0 2.58789 1.85547 4.39453 4.58984 4.39453h19.7266v19.7754c0 2.68555 1.85547 4.58984 4.44336 4.58984 2.68555 0 4.54102-1.85547 4.54102-4.58984v-19.7754h19.7754c2.68555 0 4.58984-1.80664 4.58984-4.39453 0-2.73438-1.85547-4.58984-4.58984-4.58984h-19.7754v-19.7266c0-2.73438-1.85547-4.63867-4.54102-4.63867-2.58789 0-4.44336 1.9043-4.44336 4.63867v19.7266h-19.7266c-2.73438 0-4.58984 1.85547-4.58984 4.58984Z"/>
  </g>
  <text style="stroke:none;fill:black;font-family:sans-serif;font-size:13;font-weight:bold;" transform="matrix(1 0 0 1 263 1953)">Design Variations</text>
  <text style="stroke:none;fill:black;font-family:sans-serif;font-size:13;" transform="matrix(1 0 0 1 263 1971)">Symbols are supported in up to nine weights and three scales.</text>
  <text style="stroke:none;fill:black;font-family:sans-serif;font-size:13;" transform="matrix(1 0 0 1 263 1989)">For optimal layout with text and other symbols, vertically align</text>
  <text style="stroke:none;fill:black;font-family:sans-serif;font-size:13;" transform="matrix(1 0 0 1 263 2007)">symbols with the adjacent text.</text>
  <line style="fill:none;stroke:#00AEEF;stroke-width:0.5;opacity:1.0;" x1="776" x2="776" y1="1919" y2="1933"/>
  <g transform="matrix(0.2 0 0 0.2 776 1933)">
   <path d="m16.5527 0.78125c2.58789 0 3.85742-0.976562 4.78516-3.71094l6.29883-17.2363h28.8086l6.29883 17.2363c0.927734 2.73438 2.19727 3.71094 4.73633 3.71094 2.58789 0 4.24805-1.5625 4.24805-4.00391 0-0.830078-0.146484-1.61133-0.537109-2.63672l-22.9004-60.9863c-1.12305-2.97852-3.125-4.49219-6.25-4.49219-3.02734 0-5.07812 1.46484-6.15234 4.44336l-22.9004 61.084c-0.390625 1.02539-0.537109 1.80664-0.537109 2.63672 0 2.44141 1.5625 3.95508 4.10156 3.95508Zm13.4766-28.3691 11.8652-32.8613h0.244141l11.8652 32.8613Z"/>
  </g>
  <line style="fill:none;stroke:#00AEEF;stroke-width:0.5;opacity:1.0;" x1="792.836" x2="792.836" y1="1919" y2="1933"/>
  <text style="stroke:none;fill:black;font-family:sans-serif;font-size:13;font-weight:bold;" transform="matrix(1 0 0 1 776 1953)">Margins</text>
  <text style="stroke:none;fill:black;font-family:sans-serif;font-size:13;" transform="matrix(1 0 0 1 776 1971)">Leading and trailing margins on the left and right side of each symbol</text>
  <text style="stroke:none;fill:black;font-family:sans-serif;font-size:13;" transform="matrix(1 0 0 1 776 1989)">can be adjusted by modifying the x-location of the margin guidelines.</text>
  <text style="stroke:none;fill:black;font-family:sans-serif;font-size:13;" transform="matrix(1 0 0 1 776 2007)">Modifications are automatically applied proportionally to all</text>
  <text style="stroke:none;fill:black;font-family:sans-serif;font-size:13;" transform="matrix(1 0 0 1 776 2025)">scales and weights.</text>
  <g transform="matrix(0.2 0 0 0.2 1289 1933)">
   <path d="m14.209 9.32617 8.49609 8.54492c4.29688 4.3457 9.22852 4.05273 13.8672-1.07422l53.4668-58.9355-4.83398-4.88281-53.0762 58.3984c-1.75781 2.00195-3.41797 2.49023-5.76172 0.146484l-5.85938-5.81055c-2.34375-2.29492-1.80664-4.00391 0.195312-5.81055l57.373-54.0039-4.88281-4.83398-57.959 54.4434c-4.93164 4.58984-5.32227 9.47266-1.02539 13.8184Zm32.0801-90.9668c-2.09961 2.05078-2.24609 4.93164-1.07422 6.88477 1.17188 1.80664 3.4668 2.97852 6.68945 2.14844 7.32422-1.70898 14.9414-2.00195 22.0703 2.68555l-2.92969 7.27539c-1.70898 4.15039-0.830078 7.08008 1.85547 9.81445l11.4746 11.5723c2.44141 2.44141 4.49219 2.53906 7.32422 2.05078l5.32227-0.976562 3.32031 3.36914-0.195312 2.7832c-0.195312 2.49023 0.439453 4.39453 2.88086 6.78711l3.80859 3.71094c2.39258 2.39258 5.46875 2.53906 7.8125 0.195312l14.5508-14.5996c2.34375-2.34375 2.24609-5.32227-0.146484-7.71484l-3.85742-3.80859c-2.39258-2.39258-4.24805-3.17383-6.64062-2.97852l-2.88086 0.244141-3.22266-3.17383 1.2207-5.61523c0.634766-2.83203-0.146484-5.0293-3.07617-7.95898l-10.9863-10.9375c-16.6992-16.6016-38.8672-16.2109-53.3203-1.75781Zm7.4707 1.85547c12.1582-8.88672 28.6133-7.37305 39.7461 3.75977l12.1582 12.0605c1.17188 1.17188 1.36719 2.09961 1.02539 3.80859l-1.61133 7.42188 7.51953 7.42188 4.93164-0.292969c1.26953-0.0488281 1.66016 0.0488281 2.63672 1.02539l2.88086 2.88086-12.207 12.207-2.88086-2.88086c-0.976562-0.976562-1.12305-1.36719-1.07422-2.68555l0.341797-4.88281-7.4707-7.42188-7.61719 1.26953c-1.61133 0.341797-2.34375 0.195312-3.56445-0.976562l-10.0098-10.0098c-1.26953-1.17188-1.41602-2.00195-0.634766-3.85742l4.39453-10.4492c-7.8125-7.27539-17.9688-10.4004-28.125-7.42188-0.78125 0.195312-1.07422-0.439453-0.439453-0.976562Z"/>
  </g>
  <text style="stroke:none;fill:black;font-family:sans-serif;font-size:13;font-weight:bold;" transform="matrix(1 0 0 1 1289 1953)">Exporting</text>
  <text style="stroke:none;fill:black;font-family:sans-serif;font-size:13;" transform="matrix(1 0 0 1 1289 1971)">Symbols should be outlined when exporting to ensure the</text>
  <text style="stroke:none;fill:black;font-family:sans-serif;font-size:13;" transform="matrix(1 0 0 1 1289 1989)">design is preserved when submitting to Xcode.</text>
  <text id="template-version" style="stroke:none;fill:black;font-family:sans-serif;font-size:13;text-anchor:end;" transform="matrix(1 0 0 1 3036 1933)">Template v.5.0</text>
  <text style="stroke:none;fill:black;font-family:sans-serif;font-size:13;text-anchor:end;" transform="matrix(1 0 0 1 3036 1951)">Requires Xcode 15 or greater</text>
  <text id="descriptive-name" style="stroke:none;fill:black;font-family:sans-serif;font-size:13;text-anchor:end;" transform="matrix(1 0 0 1 3036 1969)">Generated from mountain.2</text>
  <text style="stroke:none;fill:black;font-family:sans-serif;font-size:13;text-anchor:end;" transform="matrix(1 0 0 1 3036 1987)">Typeset at 100.0 points</text>
  <text style="stroke:none;fill:black;font-family:sans-serif;font-size:13;" transform="matrix(1 0 0 1 263 726)">Small</text>
  <text style="stroke:none;fill:black;font-family:sans-serif;font-size:13;" transform="matrix(1 0 0 1 263 1156)">Medium</text>
  <text style="stroke:none;fill:black;font-family:sans-serif;font-size:13;" transform="matrix(1 0 0 1 263 1586)">Large</text>
 </g>
 <g id="Guides">
  <g id="H-reference" style="fill:#27AAE1;stroke:none;" transform="matrix(1 0 0 1 339 696)">
   <path d="M0.993654 0L3.63775 0L29.3281-67.1323L30.0303-67.1323L30.0303-70.459L28.1226-70.459ZM11.6885-24.4799L46.9815-24.4799L46.2315-26.7285L12.4385-26.7285ZM55.1196 0L57.7637 0L30.6382-70.459L29.4326-70.459L29.4326-67.1323Z"/>
  </g>
  <line id="Baseline-S" style="fill:none;stroke:#27AAE1;opacity:1;stroke-width:0.5;" x1="263" x2="3036" y1="696" y2="696"/>
  <line id="Capline-S" style="fill:none;stroke:#27AAE1;opacity:1;stroke-width:0.5;" x1="263" x2="3036" y1="625.541" y2="625.541"/>
  <g id="H-reference" style="fill:#27AAE1;stroke:none;" transform="matrix(1 0 0 1 339 1126)">
   <path d="M0.993654 0L3.63775 0L29.3281-67.1323L30.0303-67.1323L30.0303-70.459L28.1226-70.459ZM11.6885-24.4799L46.9815-24.4799L46.2315-26.7285L12.4385-26.7285ZM55.1196 0L57.7637 0L30.6382-70.459L29.4326-70.459L29.4326-67.1323Z"/>
  </g>
  <line id="Baseline-M" style="fill:none;stroke:#27AAE1;opacity:1;stroke-width:0.5;" x1="263" x2="3036" y1="1126" y2="1126"/>
  <line id="Capline-M" style="fill:none;stroke:#27AAE1;opacity:1;stroke-width:0.5;" x1="263" x2="3036" y1="1055.54" y2="1055.54"/>
  <g id="H-reference" style="fill:#27AAE1;stroke:none;" transform="matrix(1 0 0 1 339 1556)">
   <path d="M0.993654 0L3.63775 0L29.3281-67.1323L30.0303-67.1323L30.0303-70.459L28.1226-70.459ZM11.6885-24.4799L46.9815-24.4799L46.2315-26.7285L12.4385-26.7285ZM55.1196 0L57.7637 0L30.6382-70.459L29.4326-70.459L29.4326-67.1323Z"/>
  </g>
  <line id="Baseline-L" style="fill:none;stroke:#27AAE1;opacity:1;stroke-width:0.5;" x1="263" x2="3036" y1="1556" y2="1556"/>
  <line id="Capline-L" style="fill:none;stroke:#27AAE1;opacity:1;stroke-width:0.5;" x1="263" x2="3036" y1="1485.54" y2="1485.54"/>
  <line id="left-margin-Ultralight-S" style="fill:none;stroke:#00AEEF;stroke-width:0.5;opacity:1.0;" x1="488.415" x2="488.415" y1="600.785" y2="720.121"/>
  <line id="right-margin-Ultralight-S" style="fill:none;stroke:#00AEEF;stroke-width:0.5;opacity:1.0;" x1="631.007" x2="631.007" y1="600.785" y2="720.121"/>
  <line id="left-margin-Regular-S" style="fill:none;stroke:#00AEEF;stroke-width:0.5;opacity:1.0;" x1="1373.92" x2="1373.92" y1="600.785" y2="720.121"/>
  <line id="right-margin-Regular-S" style="fill:none;stroke:#00AEEF;stroke-width:0.5;opacity:1.0;" x1="1525.77" x2="1525.77" y1="600.785" y2="720.121"/>
  <line id="left-margin-Black-S" style="fill:none;stroke:#00AEEF;stroke-width:0.5;opacity:1.0;" x1="2852.59" x2="2852.59" y1="600.785" y2="720.121"/>
  <line id="right-margin-Black-S" style="fill:none;stroke:#00AEEF;stroke-width:0.5;opacity:1.0;" x1="3014.21" x2="3014.21" y1="600.785" y2="720.121"/>
 </g>
 <g id="Symbols">
  <g id="Black-S" transform="matrix(1 0 0 1 2852.59 696)">
   <path class="SFSymbolsPreviewWireframe" d="M17.9199 2.39258L78.2715 2.39258C86.7188 2.39258 91.4551-7.42188 86.1816-14.4043L60.9375-47.998C57.3242-52.832 52.7344-55.127 48.0957-55.127C43.457-55.127 38.8672-52.832 35.2539-47.998L10.0098-14.4043C4.73633-7.42188 9.47266 2.39258 17.9199 2.39258ZM27.5391-10.5469C25.5859-10.5469 24.6582-12.5 25.8301-14.0625L45.6055-40.2344C46.2891-41.1621 47.2656-41.5527 48.0957-41.5527C48.9258-41.5527 49.9023-41.1621 50.5859-40.2344L70.3613-14.0625C71.5332-12.5 70.6055-10.5469 68.6523-10.5469ZM37.0117-19.6289C43.5547-19.6289 45.9961-23.7305 48.0957-23.7305C50.1953-23.7305 52.6367-19.6289 59.1797-19.6289C64.3066-19.6289 66.8945-22.168 68.7988-23.2422L65.6738-29.1016C63.5254-27.9297 61.5723-26.416 59.1797-26.416C55.2734-26.416 52.4414-30.5176 48.0957-30.5176C43.75-30.5176 40.918-26.416 37.0117-26.416C34.6191-26.416 32.666-27.9297 30.5176-29.1016L27.3926-23.2422C29.2969-22.168 31.8848-19.6289 37.0117-19.6289ZM63.623 2.39258L141.65 2.39258C153.516 2.39258 156.934-8.98438 150.781-17.041L115.234-63.3301C107.959-72.8027 97.2656-72.7051 89.9902-63.2324L54.4922-17.041C48.291-8.98438 51.8066 2.39258 63.623 2.39258ZM70.0684-10.498C68.1641-10.498 67.2363-12.4512 68.4082-14.0137L100.244-55.3711C101.611-57.1777 103.662-57.2266 105.029-55.4688L136.865-13.9648C138.086-12.4023 137.109-10.498 135.156-10.498ZM88.916-28.2227C96.9238-28.2227 99.9512-33.6914 102.637-33.6914C105.322-33.6914 108.35-28.2227 116.357-28.2227C123.535-28.2227 126.709-32.5684 129.199-33.4961L124.414-40.0391C121.582-38.4277 119.189-36.2793 116.357-36.2793C111.865-36.2793 108.398-41.748 102.637-41.748C97.3633-41.748 93.457-36.2793 88.916-36.2793C86.0352-36.2793 83.3496-38.5254 80.4688-40.1367L76.3672-33.3984C78.8574-32.2266 82.0312-28.2227 88.916-28.2227Z"/>
  </g>
  <g id="Regular-S" transform="matrix(1 0 0 1 1373.92 696)">
   <path class="SFSymbolsPreviewWireframe" d="M15.5273-0.0976562L76.3672-0.0976562C84.4238-0.0976562 86.1328-7.86133 81.6406-13.3789L53.125-48.6328C50.9277-51.3184 48.4375-52.6855 45.9473-52.6855C43.457-52.6855 40.9668-51.3184 38.7695-48.6328L10.2539-13.3789C5.76172-7.86133 7.4707-0.0976562 15.5273-0.0976562ZM16.6992-7.12891C15.5273-7.12891 15.0879-8.20312 15.8203-9.08203L44.1895-44.1895C44.7266-44.7754 45.3613-45.1172 45.9473-45.1172C46.5332-45.1172 47.168-44.7754 47.6562-44.1895L76.0742-9.08203C76.8066-8.20312 76.3672-7.12891 75.1953-7.12891ZM34.7656-23.8281C40.625-23.8281 43.0176-28.4668 45.9473-28.4668C48.877-28.4668 51.2695-23.8281 57.1289-23.8281C61.377-23.8281 63.8184-28.0762 65.9668-30.3223L62.8418-33.7402C60.498-31.4453 58.7891-28.5645 57.1289-28.5645C54.3945-28.5645 51.5625-33.1543 45.9473-33.1543C40.332-33.1543 37.5-28.5645 34.7656-28.5645C33.1055-28.5645 31.3965-31.4453 29.0527-33.7402L25.9277-30.3223C28.0762-28.0762 30.5176-23.8281 34.7656-23.8281ZM53.5156-0.0976562L136.572-0.0976562C144.141-0.0976562 145.85-7.66602 142.188-12.5L102.295-64.8926C98.1445-70.3125 91.9922-70.4102 87.793-64.8926L47.9004-12.4512C44.1895-7.61719 45.8984-0.0976562 53.5156-0.0976562ZM55.0781-7.12891C53.8574-7.12891 53.4668-8.1543 54.1504-9.08203L93.2617-60.4492C94.1895-61.7188 95.8984-61.6699 96.7773-60.498L135.889-9.13086C136.621-8.20312 136.23-7.12891 134.961-7.12891ZM82.5684-33.6914C89.0625-33.6914 91.7969-38.7207 95.0195-38.7207C98.291-38.7207 100.977-33.6914 107.471-33.6914C111.426-33.6914 114.062-37.0605 116.162-39.5996L112.842-43.6035C110.742-41.2598 109.131-38.916 107.471-38.916C104.395-38.916 101.27-43.9453 95.0195-43.9453C88.7695-43.9453 85.6934-38.916 82.5684-38.916C80.957-38.916 79.3457-41.2598 77.1973-43.6035L73.877-39.5996C76.0254-37.0605 78.6133-33.6914 82.5684-33.6914Z"/>
  </g>
  <g id="Ultralight-S" transform="matrix(1 0 0 1 488.415 696)">
   <path class="SFSymbolsPreviewWireframe" d="M11.9854-4.0029L73.0069-4.0029C76.795-4.0029 78.504-7.67969 76.0552-10.7905L46.4043-47.9517C45.2969-49.3203 43.8965-50.0064 42.4961-50.0064C41.1411-50.0064 39.6953-49.3203 38.6333-47.9517L8.93702-10.7905C6.48828-7.67969 8.19726-4.0029 11.9854-4.0029ZM11.8404-6.22071C10.0328-6.22071 9.50249-7.97608 10.5528-9.21826L40.375-46.5962C41.0938-47.4546 41.774-47.8872 42.4961-47.8872C43.2183-47.8872 43.9439-47.4546 44.6592-46.5962L74.4849-9.21826C75.4898-7.97608 74.9595-6.22071 73.1973-6.22071ZM31.2691-28.7778C36.4019-28.7778 38.2041-33.0986 42.4961-33.0986C46.8335-33.0986 48.6358-28.7778 53.7232-28.7778C56.064-28.7778 57.6426-29.7563 59.1099-30.731L57.8921-32.2417C56.5474-31.3999 55.2471-30.6987 53.7232-30.6987C49.7627-30.6987 47.4302-35.0161 42.4961-35.0161C37.6074-35.0161 35.2749-30.6987 31.2691-30.6987C29.7451-30.6987 28.4903-31.3999 27.1455-32.2417L25.9277-30.731C27.395-29.7563 28.9736-28.7778 31.2691-28.7778ZM48.4751-4.0029L130.397-4.0029C134.378-4.0029 136.041-7.62061 133.696-10.729L93.4854-63.5757C91.3331-66.4073 87.542-66.4141 85.3862-63.5757L45.1758-10.7256C42.7817-7.61719 44.4453-4.0029 48.4751-4.0029ZM48.5391-6.22071C46.274-6.22071 45.7925-7.97266 46.794-9.21826L87.1314-62.2656C88.4678-64.0346 90.3584-64.0312 91.7369-62.269L132.074-9.22168C133.034-7.97608 132.552-6.22071 130.329-6.22071ZM76.983-35.7348C82.7051-35.7348 84.7129-40.7641 89.4341-40.7641C94.2041-40.7641 96.2085-35.7348 101.885-35.7348C105.659-35.7348 107.841-38.0142 110.213-39.5542L108.891-41.1968C106.564-39.6704 104.59-37.8262 101.885-37.8262C97.4468-37.8262 94.8667-42.8555 89.4341-42.8555C84.0469-42.8555 81.4702-37.8262 76.983-37.8262C74.2364-37.8262 72.2164-39.8067 69.7955-41.333L68.3824-39.7358C70.9395-38.1958 73.0733-35.7348 76.983-35.7348Z"/>
  </g>
 </g>
</svg>
