<?xml version="1.0" encoding="UTF-8"?>
<!--Generator: Apple Native CoreSVG 232.5-->
<!DOCTYPE svg
PUBLIC "-//W3C//DTD SVG 1.1//EN"
       "http://www.w3.org/Graphics/SVG/1.1/DTD/svg11.dtd">
<svg version="1.1" xmlns="http://www.w3.org/2000/svg" xmlns:xlink="http://www.w3.org/1999/xlink" width="3300" height="2200">
 <!--glyph: "uni100A2F.medium", point size: 100.0, font version: "19.2d2e1", template writer version: "128"-->
 <style>.SFSymbolsPreviewWireframe {fill:none;opacity:1.0;stroke:black;stroke-width:0.5}
</style>
 <g id="Notes">
  <rect height="2200" id="artboard" style="fill:white;opacity:1" width="3300" x="0" y="0"/>
  <line style="fill:none;stroke:black;opacity:1;stroke-width:0.5;" x1="263" x2="3036" y1="292" y2="292"/>
  <text style="stroke:none;fill:black;font-family:sans-serif;font-size:13;font-weight:bold;" transform="matrix(1 0 0 1 263 322)">Weight/Scale Variations</text>
  <text style="stroke:none;fill:black;font-family:sans-serif;font-size:13;text-anchor:middle;" transform="matrix(1 0 0 1 559.711 322)">Ultralight</text>
  <text style="stroke:none;fill:black;font-family:sans-serif;font-size:13;text-anchor:middle;" transform="matrix(1 0 0 1 856.422 322)">Thin</text>
  <text style="stroke:none;fill:black;font-family:sans-serif;font-size:13;text-anchor:middle;" transform="matrix(1 0 0 1 1153.13 322)">Light</text>
  <text style="stroke:none;fill:black;font-family:sans-serif;font-size:13;text-anchor:middle;" transform="matrix(1 0 0 1 1449.84 322)">Regular</text>
  <text style="stroke:none;fill:black;font-family:sans-serif;font-size:13;text-anchor:middle;" transform="matrix(1 0 0 1 1746.56 322)">Medium</text>
  <text style="stroke:none;fill:black;font-family:sans-serif;font-size:13;text-anchor:middle;" transform="matrix(1 0 0 1 2043.27 322)">Semibold</text>
  <text style="stroke:none;fill:black;font-family:sans-serif;font-size:13;text-anchor:middle;" transform="matrix(1 0 0 1 2339.98 322)">Bold</text>
  <text style="stroke:none;fill:black;font-family:sans-serif;font-size:13;text-anchor:middle;" transform="matrix(1 0 0 1 2636.69 322)">Heavy</text>
  <text style="stroke:none;fill:black;font-family:sans-serif;font-size:13;text-anchor:middle;" transform="matrix(1 0 0 1 2933.4 322)">Black</text>
  <line style="fill:none;stroke:black;opacity:1;stroke-width:0.5;" x1="263" x2="3036" y1="1903" y2="1903"/>
  <g transform="matrix(0.2 0 0 0.2 263 1933)">
   <path d="m46.2402 4.15039c21.5332 0 39.4531-17.8711 39.4531-39.4043s-17.9688-39.4043-39.502-39.4043c-21.4844 0-39.3555 17.8711-39.3555 39.4043s17.9199 39.4043 39.4043 39.4043Zm0-7.42188c-17.7246 0-31.8848-14.209-31.8848-31.9824s14.1113-31.9824 31.8359-31.9824c17.7734 0 32.0312 14.209 32.0312 31.9824s-14.209 31.9824-31.9824 31.9824Zm-17.9688-31.9824c0 2.14844 1.51367 3.61328 3.75977 3.61328h10.498v10.5957c0 2.19727 1.46484 3.71094 3.61328 3.71094 2.24609 0 3.71094-1.51367 3.71094-3.71094v-10.5957h10.5957c2.19727 0 3.71094-1.46484 3.71094-3.61328 0-2.19727-1.51367-3.71094-3.71094-3.71094h-10.5957v-10.5469c0-2.24609-1.46484-3.75977-3.71094-3.75977-2.14844 0-3.61328 1.51367-3.61328 3.75977v10.5469h-10.498c-2.24609 0-3.75977 1.51367-3.75977 3.71094Z"/>
  </g>
  <g transform="matrix(0.2 0 0 0.2 281.506 1933)">
   <path d="m58.5449 14.5508c27.2461 0 49.8047-22.6074 49.8047-49.8047 0-27.2461-22.6074-49.8047-49.8535-49.8047-27.1973 0-49.7559 22.5586-49.7559 49.8047 0 27.1973 22.6074 49.8047 49.8047 49.8047Zm0-8.30078c-23.0469 0-41.4551-18.457-41.4551-41.5039s18.3594-41.5039 41.4062-41.5039 41.5527 18.457 41.5527 41.5039-18.457 41.5039-41.5039 41.5039Zm-22.6562-41.5039c0 2.39258 1.66016 4.00391 4.15039 4.00391h14.3555v14.4043c0 2.44141 1.66016 4.15039 4.05273 4.15039 2.44141 0 4.15039-1.66016 4.15039-4.15039v-14.4043h14.4043c2.44141 0 4.15039-1.61133 4.15039-4.00391 0-2.44141-1.70898-4.15039-4.15039-4.15039h-14.4043v-14.3555c0-2.49023-1.70898-4.19922-4.15039-4.19922-2.39258 0-4.05273 1.70898-4.05273 4.19922v14.3555h-14.3555c-2.49023 0-4.15039 1.70898-4.15039 4.15039Z"/>
  </g>
  <g transform="matrix(0.2 0 0 0.2 304.924 1933)">
   <path d="m74.8535 28.3203c34.8145 0 63.623-28.8086 63.623-63.5742 0-34.8145-28.8574-63.623-63.6719-63.623-34.7656 0-63.5254 28.8086-63.5254 63.623 0 34.7656 28.8086 63.5742 63.5742 63.5742Zm0-9.08203c-30.1758 0-54.4434-24.3164-54.4434-54.4922 0-30.2246 24.2188-54.4922 54.3945-54.4922 30.2246 0 54.541 24.2676 54.541 54.4922 0 30.1758-24.2676 54.4922-54.4922 54.4922Zm-28.8574-54.4922c0 2.58789 1.85547 4.39453 4.58984 4.39453h19.7266v19.7754c0 2.68555 1.85547 4.58984 4.44336 4.58984 2.68555 0 4.54102-1.85547 4.54102-4.58984v-19.7754h19.7754c2.68555 0 4.58984-1.80664 4.58984-4.39453 0-2.73438-1.85547-4.58984-4.58984-4.58984h-19.7754v-19.7266c0-2.73438-1.85547-4.63867-4.54102-4.63867-2.58789 0-4.44336 1.9043-4.44336 4.63867v19.7266h-19.7266c-2.73438 0-4.58984 1.85547-4.58984 4.58984Z"/>
  </g>
  <text style="stroke:none;fill:black;font-family:sans-serif;font-size:13;font-weight:bold;" transform="matrix(1 0 0 1 263 1953)">Design Variations</text>
  <text style="stroke:none;fill:black;font-family:sans-serif;font-size:13;" transform="matrix(1 0 0 1 263 1971)">Symbols are supported in up to nine weights and three scales.</text>
  <text style="stroke:none;fill:black;font-family:sans-serif;font-size:13;" transform="matrix(1 0 0 1 263 1989)">For optimal layout with text and other symbols, vertically align</text>
  <text style="stroke:none;fill:black;font-family:sans-serif;font-size:13;" transform="matrix(1 0 0 1 263 2007)">symbols with the adjacent text.</text>
  <line style="fill:none;stroke:#00AEEF;stroke-width:0.5;opacity:1.0;" x1="776" x2="776" y1="1919" y2="1933"/>
  <g transform="matrix(0.2 0 0 0.2 776 1933)">
   <path d="m16.5527 0.78125c2.58789 0 3.85742-0.976562 4.78516-3.71094l6.29883-17.2363h28.8086l6.29883 17.2363c0.927734 2.73438 2.19727 3.71094 4.73633 3.71094 2.58789 0 4.24805-1.5625 4.24805-4.00391 0-0.830078-0.146484-1.61133-0.537109-2.63672l-22.9004-60.9863c-1.12305-2.97852-3.125-4.49219-6.25-4.49219-3.02734 0-5.07812 1.46484-6.15234 4.44336l-22.9004 61.084c-0.390625 1.02539-0.537109 1.80664-0.537109 2.63672 0 2.44141 1.5625 3.95508 4.10156 3.95508Zm13.4766-28.3691 11.8652-32.8613h0.244141l11.8652 32.8613Z"/>
  </g>
  <line style="fill:none;stroke:#00AEEF;stroke-width:0.5;opacity:1.0;" x1="792.836" x2="792.836" y1="1919" y2="1933"/>
  <text style="stroke:none;fill:black;font-family:sans-serif;font-size:13;font-weight:bold;" transform="matrix(1 0 0 1 776 1953)">Margins</text>
  <text style="stroke:none;fill:black;font-family:sans-serif;font-size:13;" transform="matrix(1 0 0 1 776 1971)">Leading and trailing margins on the left and right side of each symbol</text>
  <text style="stroke:none;fill:black;font-family:sans-serif;font-size:13;" transform="matrix(1 0 0 1 776 1989)">can be adjusted by modifying the x-location of the margin guidelines.</text>
  <text style="stroke:none;fill:black;font-family:sans-serif;font-size:13;" transform="matrix(1 0 0 1 776 2007)">Modifications are automatically applied proportionally to all</text>
  <text style="stroke:none;fill:black;font-family:sans-serif;font-size:13;" transform="matrix(1 0 0 1 776 2025)">scales and weights.</text>
  <g transform="matrix(0.2 0 0 0.2 1289 1933)">
   <path d="m14.209 9.32617 8.49609 8.54492c4.29688 4.3457 9.22852 4.05273 13.8672-1.07422l53.4668-58.9355-4.83398-4.88281-53.0762 58.3984c-1.75781 2.00195-3.41797 2.49023-5.76172 0.146484l-5.85938-5.81055c-2.34375-2.29492-1.80664-4.00391 0.195312-5.81055l57.373-54.0039-4.88281-4.83398-57.959 54.4434c-4.93164 4.58984-5.32227 9.47266-1.02539 13.8184Zm32.0801-90.9668c-2.09961 2.05078-2.24609 4.93164-1.07422 6.88477 1.17188 1.80664 3.4668 2.97852 6.68945 2.14844 7.32422-1.70898 14.9414-2.00195 22.0703 2.68555l-2.92969 7.27539c-1.70898 4.15039-0.830078 7.08008 1.85547 9.81445l11.4746 11.5723c2.44141 2.44141 4.49219 2.53906 7.32422 2.05078l5.32227-0.976562 3.32031 3.36914-0.195312 2.7832c-0.195312 2.49023 0.439453 4.39453 2.88086 6.78711l3.80859 3.71094c2.39258 2.39258 5.46875 2.53906 7.8125 0.195312l14.5508-14.5996c2.34375-2.34375 2.24609-5.32227-0.146484-7.71484l-3.85742-3.80859c-2.39258-2.39258-4.24805-3.17383-6.64062-2.97852l-2.88086 0.244141-3.22266-3.17383 1.2207-5.61523c0.634766-2.83203-0.146484-5.0293-3.07617-7.95898l-10.9863-10.9375c-16.6992-16.6016-38.8672-16.2109-53.3203-1.75781Zm7.4707 1.85547c12.1582-8.88672 28.6133-7.37305 39.7461 3.75977l12.1582 12.0605c1.17188 1.17188 1.36719 2.09961 1.02539 3.80859l-1.61133 7.42188 7.51953 7.42188 4.93164-0.292969c1.26953-0.0488281 1.66016 0.0488281 2.63672 1.02539l2.88086 2.88086-12.207 12.207-2.88086-2.88086c-0.976562-0.976562-1.12305-1.36719-1.07422-2.68555l0.341797-4.88281-7.4707-7.42188-7.61719 1.26953c-1.61133 0.341797-2.34375 0.195312-3.56445-0.976562l-10.0098-10.0098c-1.26953-1.17188-1.41602-2.00195-0.634766-3.85742l4.39453-10.4492c-7.8125-7.27539-17.9688-10.4004-28.125-7.42188-0.78125 0.195312-1.07422-0.439453-0.439453-0.976562Z"/>
  </g>
  <text style="stroke:none;fill:black;font-family:sans-serif;font-size:13;font-weight:bold;" transform="matrix(1 0 0 1 1289 1953)">Exporting</text>
  <text style="stroke:none;fill:black;font-family:sans-serif;font-size:13;" transform="matrix(1 0 0 1 1289 1971)">Symbols should be outlined when exporting to ensure the</text>
  <text style="stroke:none;fill:black;font-family:sans-serif;font-size:13;" transform="matrix(1 0 0 1 1289 1989)">design is preserved when submitting to Xcode.</text>
  <text id="template-version" style="stroke:none;fill:black;font-family:sans-serif;font-size:13;text-anchor:end;" transform="matrix(1 0 0 1 3036 1933)">Template v.5.0</text>
  <text style="stroke:none;fill:black;font-family:sans-serif;font-size:13;text-anchor:end;" transform="matrix(1 0 0 1 3036 1951)">Requires Xcode 15 or greater</text>
  <text id="descriptive-name" style="stroke:none;fill:black;font-family:sans-serif;font-size:13;text-anchor:end;" transform="matrix(1 0 0 1 3036 1969)">Generated from nose</text>
  <text style="stroke:none;fill:black;font-family:sans-serif;font-size:13;text-anchor:end;" transform="matrix(1 0 0 1 3036 1987)">Typeset at 100.0 points</text>
  <text style="stroke:none;fill:black;font-family:sans-serif;font-size:13;" transform="matrix(1 0 0 1 263 726)">Small</text>
  <text style="stroke:none;fill:black;font-family:sans-serif;font-size:13;" transform="matrix(1 0 0 1 263 1156)">Medium</text>
  <text style="stroke:none;fill:black;font-family:sans-serif;font-size:13;" transform="matrix(1 0 0 1 263 1586)">Large</text>
 </g>
 <g id="Guides">
  <g id="H-reference" style="fill:#27AAE1;stroke:none;" transform="matrix(1 0 0 1 339 696)">
   <path d="M0.993654 0L3.63775 0L29.3281-67.1323L30.0303-67.1323L30.0303-70.459L28.1226-70.459ZM11.6885-24.4799L46.9815-24.4799L46.2315-26.7285L12.4385-26.7285ZM55.1196 0L57.7637 0L30.6382-70.459L29.4326-70.459L29.4326-67.1323Z"/>
  </g>
  <line id="Baseline-S" style="fill:none;stroke:#27AAE1;opacity:1;stroke-width:0.5;" x1="263" x2="3036" y1="696" y2="696"/>
  <line id="Capline-S" style="fill:none;stroke:#27AAE1;opacity:1;stroke-width:0.5;" x1="263" x2="3036" y1="625.541" y2="625.541"/>
  <g id="H-reference" style="fill:#27AAE1;stroke:none;" transform="matrix(1 0 0 1 339 1126)">
   <path d="M0.993654 0L3.63775 0L29.3281-67.1323L30.0303-67.1323L30.0303-70.459L28.1226-70.459ZM11.6885-24.4799L46.9815-24.4799L46.2315-26.7285L12.4385-26.7285ZM55.1196 0L57.7637 0L30.6382-70.459L29.4326-70.459L29.4326-67.1323Z"/>
  </g>
  <line id="Baseline-M" style="fill:none;stroke:#27AAE1;opacity:1;stroke-width:0.5;" x1="263" x2="3036" y1="1126" y2="1126"/>
  <line id="Capline-M" style="fill:none;stroke:#27AAE1;opacity:1;stroke-width:0.5;" x1="263" x2="3036" y1="1055.54" y2="1055.54"/>
  <g id="H-reference" style="fill:#27AAE1;stroke:none;" transform="matrix(1 0 0 1 339 1556)">
   <path d="M0.993654 0L3.63775 0L29.3281-67.1323L30.0303-67.1323L30.0303-70.459L28.1226-70.459ZM11.6885-24.4799L46.9815-24.4799L46.2315-26.7285L12.4385-26.7285ZM55.1196 0L57.7637 0L30.6382-70.459L29.4326-70.459L29.4326-67.1323Z"/>
  </g>
  <line id="Baseline-L" style="fill:none;stroke:#27AAE1;opacity:1;stroke-width:0.5;" x1="263" x2="3036" y1="1556" y2="1556"/>
  <line id="Capline-L" style="fill:none;stroke:#27AAE1;opacity:1;stroke-width:0.5;" x1="263" x2="3036" y1="1485.54" y2="1485.54"/>
  <line id="left-margin-Ultralight-S" style="fill:none;stroke:#00AEEF;stroke-width:0.5;opacity:1.0;" x1="516.366" x2="516.366" y1="600.785" y2="720.121"/>
  <line id="right-margin-Ultralight-S" style="fill:none;stroke:#00AEEF;stroke-width:0.5;opacity:1.0;" x1="603.056" x2="603.056" y1="600.785" y2="720.121"/>
  <line id="left-margin-Regular-S" style="fill:none;stroke:#00AEEF;stroke-width:0.5;opacity:1.0;" x1="1404.09" x2="1404.09" y1="600.785" y2="720.121"/>
  <line id="right-margin-Regular-S" style="fill:none;stroke:#00AEEF;stroke-width:0.5;opacity:1.0;" x1="1495.6" x2="1495.6" y1="600.785" y2="720.121"/>
  <line id="left-margin-Black-S" style="fill:none;stroke:#00AEEF;stroke-width:0.5;opacity:1.0;" x1="2883.64" x2="2883.64" y1="600.785" y2="720.121"/>
  <line id="right-margin-Black-S" style="fill:none;stroke:#00AEEF;stroke-width:0.5;opacity:1.0;" x1="2983.16" x2="2983.16" y1="600.785" y2="720.121"/>
 </g>
 <g id="Symbols">
  <g id="Black-S" transform="matrix(1 0 0 1 2883.64 696)">
   <path class="SFSymbolsPreviewWireframe" d="M27.6367 5.51758C32.8125 5.51758 38.3301 3.41797 42.4316-0.878906L34.375-9.22852C32.373-7.12891 30.1758-6.05469 27.6855-6.05469C22.7051-6.05469 19.0918-9.76562 19.0918-14.9414C19.0918-22.1191 26.8555-26.3184 34.1797-23.9258C38.5742-34.7168 42.0898-49.707 44.9219-59.668C45.6543-62.0605 47.4121-63.4766 49.7559-63.4766C52.0996-63.4766 53.8574-62.0605 54.5898-59.668C57.4219-49.707 60.9375-34.7168 65.332-23.9258C72.6562-26.3184 80.4199-22.1191 80.4199-14.9414C80.4199-9.76562 76.8066-6.05469 71.8262-6.05469C69.3359-6.05469 67.1387-7.12891 65.1367-9.22852L57.0801-0.878906C61.1816 3.41797 66.6992 5.51758 71.875 5.51758C84.2773 5.51758 92.6758-2.83203 92.6758-14.8438C92.6758-26.7578 83.7402-34.8633 74.3652-35.2539C70.4102-44.4336 67.627-53.125 66.0645-59.7168C63.6719-69.5801 58.1055-74.707 49.7559-74.707C41.4062-74.707 35.8398-69.5801 33.4473-59.7168C31.8848-53.125 29.1016-44.4336 25.1465-35.2539C15.7715-34.8633 6.83594-26.7578 6.83594-14.8438C6.83594-2.83203 15.2344 5.51758 27.6367 5.51758ZM49.7559 2.24609C60.1074 2.24609 64.4531-2.58789 68.3105-6.73828C69.043-6.44531 69.7754-6.29883 70.5078-6.29883C73.3398-6.29883 76.0254-8.34961 76.0254-11.6699C76.0254-15.1855 73.3398-17.334 70.2637-17.334C67.8711-17.334 66.0645-16.1621 63.623-13.7207C60.4004-10.498 55.6641-8.44727 49.7559-8.44727C43.8477-8.44727 39.1113-10.5469 35.8887-13.7207C33.4473-16.1621 31.6406-17.334 29.248-17.334C26.1719-17.334 23.4863-15.1855 23.4863-11.6699C23.4863-8.34961 26.1719-6.29883 29.0039-6.29883C29.7363-6.29883 30.4688-6.44531 31.2012-6.73828C35.0586-2.58789 39.4043 2.24609 49.7559 2.24609Z"/>
  </g>
  <g id="Regular-S" transform="matrix(1 0 0 1 1404.09 696)">
   <path class="SFSymbolsPreviewWireframe" d="M24.1699 1.41602C27.832 1.41602 31.5918-0.0976562 34.7168-2.7832L30.3223-7.32422C28.5156-5.95703 26.416-5.22461 24.2188-5.22461C18.4082-5.22461 14.1602-9.13086 14.1602-14.6484C14.1602-23.0469 21.1426-27.002 29.0527-25.5859C33.8379-36.2305 36.0352-48.4863 38.623-59.375C39.6973-63.9648 41.6992-66.5039 45.752-66.5039C49.8535-66.5039 51.8066-63.9648 52.8809-59.375C55.5176-48.4863 57.7148-36.2305 62.5-25.5859C70.3613-27.002 77.3438-23.0469 77.3438-14.6484C77.3438-9.13086 73.0957-5.22461 67.2852-5.22461C65.0879-5.22461 62.9883-5.95703 61.2305-7.32422L56.7871-2.7832C59.9121-0.0976562 63.7207 1.41602 67.334 1.41602C77.7832 1.41602 84.668-5.17578 84.668-15.0879C84.668-24.4629 77.9297-31.543 67.6758-32.7148C64.1602-42.5293 61.7188-51.3672 59.5215-61.1816C57.7148-69.2383 53.2227-73.5352 45.752-73.5352C38.2812-73.5352 33.7891-69.2383 31.9824-61.1816C29.7852-51.3672 27.3438-42.5293 23.877-32.7148C13.5742-31.543 6.83594-24.4629 6.83594-15.0879C6.83594-5.17578 13.7695 1.41602 24.1699 1.41602ZM45.752 2.58789C55.4688 2.58789 60.4004-2.14844 63.3789-6.20117C64.1602-5.71289 65.0391-5.46875 66.0156-5.46875C69.2871-5.46875 71.1426-7.86133 71.1426-10.2051C71.1426-12.5488 69.4336-14.8926 66.3086-14.8926C64.1113-14.8926 62.8906-13.7207 61.084-11.7676C56.4941-6.88477 52.1973-4.83398 45.752-4.83398C39.3066-4.83398 34.9609-6.83594 30.4199-11.7676C28.6133-13.7207 27.3926-14.8926 25.2441-14.8926C22.0703-14.8926 20.3613-12.5488 20.3613-10.2051C20.3613-7.86133 22.2168-5.46875 25.5371-5.46875C26.4648-5.46875 27.3438-5.71289 28.1738-6.20117C31.1035-2.14844 36.0352 2.58789 45.752 2.58789Z"/>
  </g>
  <g id="Ultralight-S" transform="matrix(1 0 0 1 516.366 696)">
   <path class="SFSymbolsPreviewWireframe" d="M21.7632-0.809065C25.0166-0.809065 28.0952-1.91405 30.8116-3.60058L29.187-4.96291C26.8355-3.73195 24.5542-2.99953 21.812-2.99953C14.6392-2.99953 9.07426-7.81398 9.07426-15.0571C9.07426-23.2739 16.1475-28.6367 24.5118-28.2197C28.5249-36.3667 31.585-48.7134 34.4908-60.147C35.792-65.3271 38.8384-68.0478 43.3452-68.0478C47.8555-68.0478 50.8984-65.3271 52.1997-60.147C55.1089-48.7134 58.1235-36.3667 62.1821-28.2197C70.543-28.6367 77.6162-23.2739 77.6162-15.0571C77.6162-7.81398 72.0059-2.99953 64.8784-2.99953C62.1363-2.99953 59.8096-3.73195 57.4615-4.96291L55.8789-3.60058C58.5498-1.91405 61.6773-0.809065 64.9273-0.809065C74.0142-0.809065 79.8545-6.49267 79.8545-15.0879C79.8545-23.5547 73.6612-29.7266 64.043-30.3989C60.6636-36.4444 56.5874-51.6396 54.3448-60.4551C52.7198-66.877 48.9541-70.2202 43.3452-70.2202C37.7363-70.2202 33.9707-66.877 32.3457-60.4551C30.103-51.6396 25.9815-36.4444 22.6055-30.3989C13.0293-29.7266 6.83594-23.5547 6.83594-15.0879C6.83594-6.49267 12.6343-0.809065 21.7632-0.809065ZM43.3452 0.317401C51.064 0.317401 55.9956-2.28467 61.4263-8.47166C62.0713-7.80174 63.1319-7.33055 64.063-7.33055C65.9722-7.33055 67.2827-8.49707 67.2827-10.1597C67.2827-11.7769 66.0733-12.9854 64.3106-12.9854C62.7036-12.9854 61.8008-12.086 60.3574-10.4961C54.9502-4.79591 50.7442-1.92776 43.3452-1.92776C35.9009-1.92776 31.6914-4.7925 26.333-10.4961C24.8443-12.086 23.9414-12.9854 22.3833-12.9854C20.5718-12.9854 19.4077-11.7769 19.4077-10.1597C19.4077-8.49707 20.6729-7.33055 22.6309-7.33055C23.5586-7.33055 24.6192-7.80174 25.2676-8.47166C30.6948-2.28467 35.6265 0.317401 43.3452 0.317401Z"/>
  </g>
 </g>
</svg>
