<?xml version="1.0" encoding="UTF-8"?>
<!--Generator: Apple Native CoreSVG 232.5-->
<!DOCTYPE svg
PUBLIC "-//W3C//DTD SVG 1.1//EN"
       "http://www.w3.org/Graphics/SVG/1.1/DTD/svg11.dtd">
<svg version="1.1" xmlns="http://www.w3.org/2000/svg" xmlns:xlink="http://www.w3.org/1999/xlink" width="3300" height="2200">
 <!--glyph: "uni101425.medium", point size: 100.0, font version: "19.2d2e1", template writer version: "128"-->
 <style>.SFSymbolsPreviewWireframe {fill:none;opacity:1.0;stroke:black;stroke-width:0.5}
</style>
 <g id="Notes">
  <rect height="2200" id="artboard" style="fill:white;opacity:1" width="3300" x="0" y="0"/>
  <line style="fill:none;stroke:black;opacity:1;stroke-width:0.5;" x1="263" x2="3036" y1="292" y2="292"/>
  <text style="stroke:none;fill:black;font-family:sans-serif;font-size:13;font-weight:bold;" transform="matrix(1 0 0 1 263 322)">Weight/Scale Variations</text>
  <text style="stroke:none;fill:black;font-family:sans-serif;font-size:13;text-anchor:middle;" transform="matrix(1 0 0 1 559.711 322)">Ultralight</text>
  <text style="stroke:none;fill:black;font-family:sans-serif;font-size:13;text-anchor:middle;" transform="matrix(1 0 0 1 856.422 322)">Thin</text>
  <text style="stroke:none;fill:black;font-family:sans-serif;font-size:13;text-anchor:middle;" transform="matrix(1 0 0 1 1153.13 322)">Light</text>
  <text style="stroke:none;fill:black;font-family:sans-serif;font-size:13;text-anchor:middle;" transform="matrix(1 0 0 1 1449.84 322)">Regular</text>
  <text style="stroke:none;fill:black;font-family:sans-serif;font-size:13;text-anchor:middle;" transform="matrix(1 0 0 1 1746.56 322)">Medium</text>
  <text style="stroke:none;fill:black;font-family:sans-serif;font-size:13;text-anchor:middle;" transform="matrix(1 0 0 1 2043.27 322)">Semibold</text>
  <text style="stroke:none;fill:black;font-family:sans-serif;font-size:13;text-anchor:middle;" transform="matrix(1 0 0 1 2339.98 322)">Bold</text>
  <text style="stroke:none;fill:black;font-family:sans-serif;font-size:13;text-anchor:middle;" transform="matrix(1 0 0 1 2636.69 322)">Heavy</text>
  <text style="stroke:none;fill:black;font-family:sans-serif;font-size:13;text-anchor:middle;" transform="matrix(1 0 0 1 2933.4 322)">Black</text>
  <line style="fill:none;stroke:black;opacity:1;stroke-width:0.5;" x1="263" x2="3036" y1="1903" y2="1903"/>
  <g transform="matrix(0.2 0 0 0.2 263 1933)">
   <path d="m46.2402 4.15039c21.5332 0 39.4531-17.8711 39.4531-39.4043s-17.9688-39.4043-39.502-39.4043c-21.4844 0-39.3555 17.8711-39.3555 39.4043s17.9199 39.4043 39.4043 39.4043Zm0-7.42188c-17.7246 0-31.8848-14.209-31.8848-31.9824s14.1113-31.9824 31.8359-31.9824c17.7734 0 32.0312 14.209 32.0312 31.9824s-14.209 31.9824-31.9824 31.9824Zm-17.9688-31.9824c0 2.14844 1.51367 3.61328 3.75977 3.61328h10.498v10.5957c0 2.19727 1.46484 3.71094 3.61328 3.71094 2.24609 0 3.71094-1.51367 3.71094-3.71094v-10.5957h10.5957c2.19727 0 3.71094-1.46484 3.71094-3.61328 0-2.19727-1.51367-3.71094-3.71094-3.71094h-10.5957v-10.5469c0-2.24609-1.46484-3.75977-3.71094-3.75977-2.14844 0-3.61328 1.51367-3.61328 3.75977v10.5469h-10.498c-2.24609 0-3.75977 1.51367-3.75977 3.71094Z"/>
  </g>
  <g transform="matrix(0.2 0 0 0.2 281.506 1933)">
   <path d="m58.5449 14.5508c27.2461 0 49.8047-22.6074 49.8047-49.8047 0-27.2461-22.6074-49.8047-49.8535-49.8047-27.1973 0-49.7559 22.5586-49.7559 49.8047 0 27.1973 22.6074 49.8047 49.8047 49.8047Zm0-8.30078c-23.0469 0-41.4551-18.457-41.4551-41.5039s18.3594-41.5039 41.4062-41.5039 41.5527 18.457 41.5527 41.5039-18.457 41.5039-41.5039 41.5039Zm-22.6562-41.5039c0 2.39258 1.66016 4.00391 4.15039 4.00391h14.3555v14.4043c0 2.44141 1.66016 4.15039 4.05273 4.15039 2.44141 0 4.15039-1.66016 4.15039-4.15039v-14.4043h14.4043c2.44141 0 4.15039-1.61133 4.15039-4.00391 0-2.44141-1.70898-4.15039-4.15039-4.15039h-14.4043v-14.3555c0-2.49023-1.70898-4.19922-4.15039-4.19922-2.39258 0-4.05273 1.70898-4.05273 4.19922v14.3555h-14.3555c-2.49023 0-4.15039 1.70898-4.15039 4.15039Z"/>
  </g>
  <g transform="matrix(0.2 0 0 0.2 304.924 1933)">
   <path d="m74.8535 28.3203c34.8145 0 63.623-28.8086 63.623-63.5742 0-34.8145-28.8574-63.623-63.6719-63.623-34.7656 0-63.5254 28.8086-63.5254 63.623 0 34.7656 28.8086 63.5742 63.5742 63.5742Zm0-9.08203c-30.1758 0-54.4434-24.3164-54.4434-54.4922 0-30.2246 24.2188-54.4922 54.3945-54.4922 30.2246 0 54.541 24.2676 54.541 54.4922 0 30.1758-24.2676 54.4922-54.4922 54.4922Zm-28.8574-54.4922c0 2.58789 1.85547 4.39453 4.58984 4.39453h19.7266v19.7754c0 2.68555 1.85547 4.58984 4.44336 4.58984 2.68555 0 4.54102-1.85547 4.54102-4.58984v-19.7754h19.7754c2.68555 0 4.58984-1.80664 4.58984-4.39453 0-2.73438-1.85547-4.58984-4.58984-4.58984h-19.7754v-19.7266c0-2.73438-1.85547-4.63867-4.54102-4.63867-2.58789 0-4.44336 1.9043-4.44336 4.63867v19.7266h-19.7266c-2.73438 0-4.58984 1.85547-4.58984 4.58984Z"/>
  </g>
  <text style="stroke:none;fill:black;font-family:sans-serif;font-size:13;font-weight:bold;" transform="matrix(1 0 0 1 263 1953)">Design Variations</text>
  <text style="stroke:none;fill:black;font-family:sans-serif;font-size:13;" transform="matrix(1 0 0 1 263 1971)">Symbols are supported in up to nine weights and three scales.</text>
  <text style="stroke:none;fill:black;font-family:sans-serif;font-size:13;" transform="matrix(1 0 0 1 263 1989)">For optimal layout with text and other symbols, vertically align</text>
  <text style="stroke:none;fill:black;font-family:sans-serif;font-size:13;" transform="matrix(1 0 0 1 263 2007)">symbols with the adjacent text.</text>
  <line style="fill:none;stroke:#00AEEF;stroke-width:0.5;opacity:1.0;" x1="776" x2="776" y1="1919" y2="1933"/>
  <g transform="matrix(0.2 0 0 0.2 776 1933)">
   <path d="m16.5527 0.78125c2.58789 0 3.85742-0.976562 4.78516-3.71094l6.29883-17.2363h28.8086l6.29883 17.2363c0.927734 2.73438 2.19727 3.71094 4.73633 3.71094 2.58789 0 4.24805-1.5625 4.24805-4.00391 0-0.830078-0.146484-1.61133-0.537109-2.63672l-22.9004-60.9863c-1.12305-2.97852-3.125-4.49219-6.25-4.49219-3.02734 0-5.07812 1.46484-6.15234 4.44336l-22.9004 61.084c-0.390625 1.02539-0.537109 1.80664-0.537109 2.63672 0 2.44141 1.5625 3.95508 4.10156 3.95508Zm13.4766-28.3691 11.8652-32.8613h0.244141l11.8652 32.8613Z"/>
  </g>
  <line style="fill:none;stroke:#00AEEF;stroke-width:0.5;opacity:1.0;" x1="792.836" x2="792.836" y1="1919" y2="1933"/>
  <text style="stroke:none;fill:black;font-family:sans-serif;font-size:13;font-weight:bold;" transform="matrix(1 0 0 1 776 1953)">Margins</text>
  <text style="stroke:none;fill:black;font-family:sans-serif;font-size:13;" transform="matrix(1 0 0 1 776 1971)">Leading and trailing margins on the left and right side of each symbol</text>
  <text style="stroke:none;fill:black;font-family:sans-serif;font-size:13;" transform="matrix(1 0 0 1 776 1989)">can be adjusted by modifying the x-location of the margin guidelines.</text>
  <text style="stroke:none;fill:black;font-family:sans-serif;font-size:13;" transform="matrix(1 0 0 1 776 2007)">Modifications are automatically applied proportionally to all</text>
  <text style="stroke:none;fill:black;font-family:sans-serif;font-size:13;" transform="matrix(1 0 0 1 776 2025)">scales and weights.</text>
  <g transform="matrix(0.2 0 0 0.2 1289 1933)">
   <path d="m14.209 9.32617 8.49609 8.54492c4.29688 4.3457 9.22852 4.05273 13.8672-1.07422l53.4668-58.9355-4.83398-4.88281-53.0762 58.3984c-1.75781 2.00195-3.41797 2.49023-5.76172 0.146484l-5.85938-5.81055c-2.34375-2.29492-1.80664-4.00391 0.195312-5.81055l57.373-54.0039-4.88281-4.83398-57.959 54.4434c-4.93164 4.58984-5.32227 9.47266-1.02539 13.8184Zm32.0801-90.9668c-2.09961 2.05078-2.24609 4.93164-1.07422 6.88477 1.17188 1.80664 3.4668 2.97852 6.68945 2.14844 7.32422-1.70898 14.9414-2.00195 22.0703 2.68555l-2.92969 7.27539c-1.70898 4.15039-0.830078 7.08008 1.85547 9.81445l11.4746 11.5723c2.44141 2.44141 4.49219 2.53906 7.32422 2.05078l5.32227-0.976562 3.32031 3.36914-0.195312 2.7832c-0.195312 2.49023 0.439453 4.39453 2.88086 6.78711l3.80859 3.71094c2.39258 2.39258 5.46875 2.53906 7.8125 0.195312l14.5508-14.5996c2.34375-2.34375 2.24609-5.32227-0.146484-7.71484l-3.85742-3.80859c-2.39258-2.39258-4.24805-3.17383-6.64062-2.97852l-2.88086 0.244141-3.22266-3.17383 1.2207-5.61523c0.634766-2.83203-0.146484-5.0293-3.07617-7.95898l-10.9863-10.9375c-16.6992-16.6016-38.8672-16.2109-53.3203-1.75781Zm7.4707 1.85547c12.1582-8.88672 28.6133-7.37305 39.7461 3.75977l12.1582 12.0605c1.17188 1.17188 1.36719 2.09961 1.02539 3.80859l-1.61133 7.42188 7.51953 7.42188 4.93164-0.292969c1.26953-0.0488281 1.66016 0.0488281 2.63672 1.02539l2.88086 2.88086-12.207 12.207-2.88086-2.88086c-0.976562-0.976562-1.12305-1.36719-1.07422-2.68555l0.341797-4.88281-7.4707-7.42188-7.61719 1.26953c-1.61133 0.341797-2.34375 0.195312-3.56445-0.976562l-10.0098-10.0098c-1.26953-1.17188-1.41602-2.00195-0.634766-3.85742l4.39453-10.4492c-7.8125-7.27539-17.9688-10.4004-28.125-7.42188-0.78125 0.195312-1.07422-0.439453-0.439453-0.976562Z"/>
  </g>
  <text style="stroke:none;fill:black;font-family:sans-serif;font-size:13;font-weight:bold;" transform="matrix(1 0 0 1 1289 1953)">Exporting</text>
  <text style="stroke:none;fill:black;font-family:sans-serif;font-size:13;" transform="matrix(1 0 0 1 1289 1971)">Symbols should be outlined when exporting to ensure the</text>
  <text style="stroke:none;fill:black;font-family:sans-serif;font-size:13;" transform="matrix(1 0 0 1 1289 1989)">design is preserved when submitting to Xcode.</text>
  <text id="template-version" style="stroke:none;fill:black;font-family:sans-serif;font-size:13;text-anchor:end;" transform="matrix(1 0 0 1 3036 1933)">Template v.5.0</text>
  <text style="stroke:none;fill:black;font-family:sans-serif;font-size:13;text-anchor:end;" transform="matrix(1 0 0 1 3036 1951)">Requires Xcode 15 or greater</text>
  <text id="descriptive-name" style="stroke:none;fill:black;font-family:sans-serif;font-size:13;text-anchor:end;" transform="matrix(1 0 0 1 3036 1969)">Generated from oven.fill</text>
  <text style="stroke:none;fill:black;font-family:sans-serif;font-size:13;text-anchor:end;" transform="matrix(1 0 0 1 3036 1987)">Typeset at 100.0 points</text>
  <text style="stroke:none;fill:black;font-family:sans-serif;font-size:13;" transform="matrix(1 0 0 1 263 726)">Small</text>
  <text style="stroke:none;fill:black;font-family:sans-serif;font-size:13;" transform="matrix(1 0 0 1 263 1156)">Medium</text>
  <text style="stroke:none;fill:black;font-family:sans-serif;font-size:13;" transform="matrix(1 0 0 1 263 1586)">Large</text>
 </g>
 <g id="Guides">
  <g id="H-reference" style="fill:#27AAE1;stroke:none;" transform="matrix(1 0 0 1 339 696)">
   <path d="M0.993654 0L3.63775 0L29.3281-67.1323L30.0303-67.1323L30.0303-70.459L28.1226-70.459ZM11.6885-24.4799L46.9815-24.4799L46.2315-26.7285L12.4385-26.7285ZM55.1196 0L57.7637 0L30.6382-70.459L29.4326-70.459L29.4326-67.1323Z"/>
  </g>
  <line id="Baseline-S" style="fill:none;stroke:#27AAE1;opacity:1;stroke-width:0.5;" x1="263" x2="3036" y1="696" y2="696"/>
  <line id="Capline-S" style="fill:none;stroke:#27AAE1;opacity:1;stroke-width:0.5;" x1="263" x2="3036" y1="625.541" y2="625.541"/>
  <g id="H-reference" style="fill:#27AAE1;stroke:none;" transform="matrix(1 0 0 1 339 1126)">
   <path d="M0.993654 0L3.63775 0L29.3281-67.1323L30.0303-67.1323L30.0303-70.459L28.1226-70.459ZM11.6885-24.4799L46.9815-24.4799L46.2315-26.7285L12.4385-26.7285ZM55.1196 0L57.7637 0L30.6382-70.459L29.4326-70.459L29.4326-67.1323Z"/>
  </g>
  <line id="Baseline-M" style="fill:none;stroke:#27AAE1;opacity:1;stroke-width:0.5;" x1="263" x2="3036" y1="1126" y2="1126"/>
  <line id="Capline-M" style="fill:none;stroke:#27AAE1;opacity:1;stroke-width:0.5;" x1="263" x2="3036" y1="1055.54" y2="1055.54"/>
  <g id="H-reference" style="fill:#27AAE1;stroke:none;" transform="matrix(1 0 0 1 339 1556)">
   <path d="M0.993654 0L3.63775 0L29.3281-67.1323L30.0303-67.1323L30.0303-70.459L28.1226-70.459ZM11.6885-24.4799L46.9815-24.4799L46.2315-26.7285L12.4385-26.7285ZM55.1196 0L57.7637 0L30.6382-70.459L29.4326-70.459L29.4326-67.1323Z"/>
  </g>
  <line id="Baseline-L" style="fill:none;stroke:#27AAE1;opacity:1;stroke-width:0.5;" x1="263" x2="3036" y1="1556" y2="1556"/>
  <line id="Capline-L" style="fill:none;stroke:#27AAE1;opacity:1;stroke-width:0.5;" x1="263" x2="3036" y1="1485.54" y2="1485.54"/>
  <line id="left-margin-Ultralight-S" style="fill:none;stroke:#00AEEF;stroke-width:0.5;opacity:1.0;" x1="515.155" x2="515.155" y1="600.785" y2="720.121"/>
  <line id="right-margin-Ultralight-S" style="fill:none;stroke:#00AEEF;stroke-width:0.5;opacity:1.0;" x1="604.267" x2="604.267" y1="600.785" y2="720.121"/>
  <line id="left-margin-Regular-S" style="fill:none;stroke:#00AEEF;stroke-width:0.5;opacity:1.0;" x1="1401.07" x2="1401.07" y1="600.785" y2="720.121"/>
  <line id="right-margin-Regular-S" style="fill:none;stroke:#00AEEF;stroke-width:0.5;opacity:1.0;" x1="1498.62" x2="1498.62" y1="600.785" y2="720.121"/>
  <line id="left-margin-Black-S" style="fill:none;stroke:#00AEEF;stroke-width:0.5;opacity:1.0;" x1="2878.47" x2="2878.47" y1="600.785" y2="720.121"/>
  <line id="right-margin-Black-S" style="fill:none;stroke:#00AEEF;stroke-width:0.5;opacity:1.0;" x1="2988.33" x2="2988.33" y1="600.785" y2="720.121"/>
 </g>
 <g id="Symbols">
  <g id="Black-S" transform="matrix(1 0 0 1 2878.47 696)">
   <path class="SFSymbolsPreviewWireframe" d="M9.76562-50.3418L100.098-50.3418L100.098-63.2812C100.098-70.7031 94.9219-75.9766 87.5977-75.9766L22.2168-75.9766C14.8926-75.9766 9.76562-70.7031 9.76562-63.2812ZM30.4199-57.2266C27.6855-57.2266 25.3906-59.4238 25.3906-62.1582C25.3906-64.9902 27.6855-67.1875 30.4199-67.1875C33.1055-67.1875 35.4492-64.9902 35.4492-62.1582C35.4492-59.4238 33.1055-57.2266 30.4199-57.2266ZM42.4316-57.2266C39.6973-57.2266 37.4023-59.4238 37.4023-62.1582C37.4023-64.9902 39.6973-67.1875 42.4316-67.1875C45.166-67.1875 47.4121-64.9902 47.4121-62.1582C47.4121-59.4238 45.166-57.2266 42.4316-57.2266ZM54.3457-57.2266C51.6602-57.2266 49.3652-59.4238 49.3652-62.1582C49.3652-64.9902 51.6602-67.1875 54.3457-67.1875C57.0801-67.1875 59.4238-64.9902 59.4238-62.1582C59.4238-59.4238 57.0801-57.2266 54.3457-57.2266ZM70.3125-58.252C68.1152-58.252 66.3574-60.0586 66.3574-62.207C66.3574-64.3555 68.1152-66.1621 70.3125-66.1621L80.5664-66.1621C82.7148-66.1621 84.5215-64.3555 84.5215-62.207C84.5215-60.0586 82.7148-58.252 80.5664-58.252ZM22.2168 5.37109L87.5977 5.37109C94.9219 5.37109 100.098 0.0976562 100.098-7.32422L100.098-41.8945L9.76562-41.8945L9.76562-7.32422C9.76562 0.0976562 14.8926 5.37109 22.2168 5.37109ZM29.1504-4.15039C26.9043-4.15039 25.3906-5.61523 25.3906-7.91016L25.3906-30.3223C25.3906-32.6172 26.9043-34.082 29.1504-34.082L80.7617-34.082C83.0078-34.082 84.5215-32.6172 84.5215-30.3223L84.5215-7.91016C84.5215-5.61523 83.0078-4.15039 80.7617-4.15039ZM32.8125-23.1934L77.0996-23.1934L77.0996-26.416C77.0996-26.8555 76.7578-27.1973 76.3184-27.1973L33.5938-27.1973C33.1543-27.1973 32.8125-26.8555 32.8125-26.416ZM33.5938-11.5234L76.3184-11.5234C76.7578-11.5234 77.0996-11.9141 77.0996-12.3535L77.0996-18.4082L32.8125-18.4082L32.8125-12.3535C32.8125-11.9141 33.1543-11.5234 33.5938-11.5234Z"/>
  </g>
  <g id="Regular-S" transform="matrix(1 0 0 1 1401.07 696)">
   <path class="SFSymbolsPreviewWireframe" d="M9.76562-50.3418L87.793-50.3418L87.793-60.9375C87.793-65.8203 84.6191-69.0918 79.834-69.0918L17.6758-69.0918C12.9395-69.0918 9.76562-65.8203 9.76562-60.9375ZM24.1699-55.5664C22.2168-55.5664 20.6543-57.0801 20.6543-59.0332C20.6543-60.9375 22.2168-62.5 24.1699-62.5C26.0742-62.5 27.6367-60.9375 27.6367-59.0332C27.6367-57.0801 26.0742-55.5664 24.1699-55.5664ZM34.3262-55.5664C32.373-55.5664 30.8105-57.0801 30.8105-59.0332C30.8105-60.9375 32.373-62.5 34.3262-62.5C36.2305-62.5 37.793-60.9375 37.793-59.0332C37.793-57.0801 36.2305-55.5664 34.3262-55.5664ZM44.4824-55.5664C42.5293-55.5664 40.9668-57.0801 40.9668-59.0332C40.9668-60.9375 42.5293-62.5 44.4824-62.5C46.3867-62.5 47.9492-60.9375 47.9492-59.0332C47.9492-57.0801 46.3867-55.5664 44.4824-55.5664ZM65.4785-56.8359C64.1602-56.8359 63.2812-57.7148 63.2812-59.0332C63.2812-60.3516 64.1602-61.2305 65.4785-61.2305L76.2695-61.2305C77.5879-61.2305 78.418-60.3516 78.418-59.0332C78.418-57.7148 77.5879-56.8359 76.2695-56.8359ZM17.6758-1.41602L79.834-1.41602C84.6191-1.41602 87.793-4.6875 87.793-9.57031L87.793-45.6055L9.76562-45.6055L9.76562-9.57031C9.76562-4.6875 12.9395-1.41602 17.6758-1.41602ZM24.0723-9.86328C21.875-9.86328 20.459-11.2793 20.459-13.4277L20.459-35.9375C20.459-38.1836 21.875-39.5996 24.0723-39.5996L73.5352-39.5996C75.6836-39.5996 77.0996-38.1836 77.0996-35.9375L77.0996-13.4277C77.0996-11.2793 75.6836-9.86328 73.5352-9.86328ZM25.1953-30.2734L72.4121-30.2734L72.4121-33.9844C72.4121-34.4727 72.0215-34.8633 71.5332-34.8633L26.0742-34.8633C25.5859-34.8633 25.1953-34.4727 25.1953-33.9844ZM26.0742-14.5996L71.5332-14.5996C72.0215-14.5996 72.4121-14.9414 72.4121-15.4297L72.4121-25.5371L25.1953-25.5371L25.1953-15.4297C25.1953-14.9414 25.5859-14.5996 26.0742-14.5996Z"/>
  </g>
  <g id="Ultralight-S" transform="matrix(1 0 0 1 515.155 696)">
   <path class="SFSymbolsPreviewWireframe" d="M9.76562-46.4366L79.3467-46.4366L79.3467-57.2593C79.3467-61.6426 76.6724-64.5508 72.7046-64.5508L16.4043-64.5508C12.4399-64.5508 9.76562-61.6426 9.76562-57.2593ZM22.9893-51.0708C21.127-51.0708 19.7461-52.4937 19.7461-54.3106C19.7461-56.1695 21.127-57.5957 22.9893-57.5957C24.8482-57.5957 26.2744-56.1695 26.2744-54.3106C26.2744-52.4937 24.8482-51.0708 22.9893-51.0708ZM33.1909-51.0708C31.374-51.0708 29.9478-52.4937 29.9478-54.3106C29.9478-56.1695 31.374-57.5957 33.1909-57.5957C35.0498-57.5957 36.4761-56.1695 36.4761-54.3106C36.4761-52.4937 35.0498-51.0708 33.1909-51.0708ZM43.3472-51.0708C41.5303-51.0708 40.104-52.4937 40.104-54.3106C40.104-56.1695 41.5303-57.5957 43.3472-57.5957C45.2061-57.5957 46.6323-56.1695 46.6323-54.3106C46.6323-52.4937 45.2061-51.0708 43.3472-51.0708ZM58.9849-53.294C58.3931-53.294 57.9229-53.7642 57.9229-54.356C57.9229-54.9024 58.3931-55.3726 58.9849-55.3726L69.2764-55.3726C69.8228-55.3726 70.2896-54.9024 70.2896-54.356C70.2896-53.7642 69.8228-53.294 69.2764-53.294ZM16.4043-5.91159L72.7046-5.91159C76.6724-5.91159 79.3467-8.81979 79.3467-13.2031L79.3467-44.334L9.76562-44.334L9.76562-13.2031C9.76562-8.81979 12.4399-5.91159 16.4043-5.91159ZM21.3931-13.7685C18.9688-13.7685 17.4619-15.3208 17.4619-17.7417L17.4619-34.4844C17.4619-36.9121 18.9688-38.4644 21.3931-38.4644L67.6773-38.4644C70.0982-38.4644 71.605-36.9121 71.605-34.4844L71.605-17.7417C71.605-15.3208 70.0982-13.7685 67.6773-13.7685ZM19.5191-31.999L69.5513-31.999L69.5513-34.3931C69.5513-35.6533 68.752-36.4072 67.5826-36.4072L21.4878-36.4072C20.273-36.4072 19.5191-35.6533 19.5191-34.3931ZM21.4878-15.8711L67.5826-15.8711C68.752-15.8711 69.5513-16.6216 69.5513-17.8364L69.5513-29.8965L19.5191-29.8965L19.5191-17.8364C19.5191-16.6216 20.273-15.8711 21.4878-15.8711Z"/>
  </g>
 </g>
</svg>
