<?xml version="1.0" encoding="UTF-8"?>
<!--Generator: Apple Native CoreSVG 232.5-->
<!DOCTYPE svg
PUBLIC "-//W3C//DTD SVG 1.1//EN"
       "http://www.w3.org/Graphics/SVG/1.1/DTD/svg11.dtd">
<svg version="1.1" xmlns="http://www.w3.org/2000/svg" xmlns:xlink="http://www.w3.org/1999/xlink" width="3300" height="2200">
 <!--glyph: "uni101085.medium", point size: 100.0, font version: "19.2d2e1", template writer version: "128"-->
 <style>.SFSymbolsPreviewWireframe {fill:none;opacity:1.0;stroke:black;stroke-width:0.5}
</style>
 <g id="Notes">
  <rect height="2200" id="artboard" style="fill:white;opacity:1" width="3300" x="0" y="0"/>
  <line style="fill:none;stroke:black;opacity:1;stroke-width:0.5;" x1="263" x2="3036" y1="292" y2="292"/>
  <text style="stroke:none;fill:black;font-family:sans-serif;font-size:13;font-weight:bold;" transform="matrix(1 0 0 1 263 322)">Weight/Scale Variations</text>
  <text style="stroke:none;fill:black;font-family:sans-serif;font-size:13;text-anchor:middle;" transform="matrix(1 0 0 1 559.711 322)">Ultralight</text>
  <text style="stroke:none;fill:black;font-family:sans-serif;font-size:13;text-anchor:middle;" transform="matrix(1 0 0 1 856.422 322)">Thin</text>
  <text style="stroke:none;fill:black;font-family:sans-serif;font-size:13;text-anchor:middle;" transform="matrix(1 0 0 1 1153.13 322)">Light</text>
  <text style="stroke:none;fill:black;font-family:sans-serif;font-size:13;text-anchor:middle;" transform="matrix(1 0 0 1 1449.84 322)">Regular</text>
  <text style="stroke:none;fill:black;font-family:sans-serif;font-size:13;text-anchor:middle;" transform="matrix(1 0 0 1 1746.56 322)">Medium</text>
  <text style="stroke:none;fill:black;font-family:sans-serif;font-size:13;text-anchor:middle;" transform="matrix(1 0 0 1 2043.27 322)">Semibold</text>
  <text style="stroke:none;fill:black;font-family:sans-serif;font-size:13;text-anchor:middle;" transform="matrix(1 0 0 1 2339.98 322)">Bold</text>
  <text style="stroke:none;fill:black;font-family:sans-serif;font-size:13;text-anchor:middle;" transform="matrix(1 0 0 1 2636.69 322)">Heavy</text>
  <text style="stroke:none;fill:black;font-family:sans-serif;font-size:13;text-anchor:middle;" transform="matrix(1 0 0 1 2933.4 322)">Black</text>
  <line style="fill:none;stroke:black;opacity:1;stroke-width:0.5;" x1="263" x2="3036" y1="1903" y2="1903"/>
  <g transform="matrix(0.2 0 0 0.2 263 1933)">
   <path d="m46.2402 4.15039c21.5332 0 39.4531-17.8711 39.4531-39.4043s-17.9688-39.4043-39.502-39.4043c-21.4844 0-39.3555 17.8711-39.3555 39.4043s17.9199 39.4043 39.4043 39.4043Zm0-7.42188c-17.7246 0-31.8848-14.209-31.8848-31.9824s14.1113-31.9824 31.8359-31.9824c17.7734 0 32.0312 14.209 32.0312 31.9824s-14.209 31.9824-31.9824 31.9824Zm-17.9688-31.9824c0 2.14844 1.51367 3.61328 3.75977 3.61328h10.498v10.5957c0 2.19727 1.46484 3.71094 3.61328 3.71094 2.24609 0 3.71094-1.51367 3.71094-3.71094v-10.5957h10.5957c2.19727 0 3.71094-1.46484 3.71094-3.61328 0-2.19727-1.51367-3.71094-3.71094-3.71094h-10.5957v-10.5469c0-2.24609-1.46484-3.75977-3.71094-3.75977-2.14844 0-3.61328 1.51367-3.61328 3.75977v10.5469h-10.498c-2.24609 0-3.75977 1.51367-3.75977 3.71094Z"/>
  </g>
  <g transform="matrix(0.2 0 0 0.2 281.506 1933)">
   <path d="m58.5449 14.5508c27.2461 0 49.8047-22.6074 49.8047-49.8047 0-27.2461-22.6074-49.8047-49.8535-49.8047-27.1973 0-49.7559 22.5586-49.7559 49.8047 0 27.1973 22.6074 49.8047 49.8047 49.8047Zm0-8.30078c-23.0469 0-41.4551-18.457-41.4551-41.5039s18.3594-41.5039 41.4062-41.5039 41.5527 18.457 41.5527 41.5039-18.457 41.5039-41.5039 41.5039Zm-22.6562-41.5039c0 2.39258 1.66016 4.00391 4.15039 4.00391h14.3555v14.4043c0 2.44141 1.66016 4.15039 4.05273 4.15039 2.44141 0 4.15039-1.66016 4.15039-4.15039v-14.4043h14.4043c2.44141 0 4.15039-1.61133 4.15039-4.00391 0-2.44141-1.70898-4.15039-4.15039-4.15039h-14.4043v-14.3555c0-2.49023-1.70898-4.19922-4.15039-4.19922-2.39258 0-4.05273 1.70898-4.05273 4.19922v14.3555h-14.3555c-2.49023 0-4.15039 1.70898-4.15039 4.15039Z"/>
  </g>
  <g transform="matrix(0.2 0 0 0.2 304.924 1933)">
   <path d="m74.8535 28.3203c34.8145 0 63.623-28.8086 63.623-63.5742 0-34.8145-28.8574-63.623-63.6719-63.623-34.7656 0-63.5254 28.8086-63.5254 63.623 0 34.7656 28.8086 63.5742 63.5742 63.5742Zm0-9.08203c-30.1758 0-54.4434-24.3164-54.4434-54.4922 0-30.2246 24.2188-54.4922 54.3945-54.4922 30.2246 0 54.541 24.2676 54.541 54.4922 0 30.1758-24.2676 54.4922-54.4922 54.4922Zm-28.8574-54.4922c0 2.58789 1.85547 4.39453 4.58984 4.39453h19.7266v19.7754c0 2.68555 1.85547 4.58984 4.44336 4.58984 2.68555 0 4.54102-1.85547 4.54102-4.58984v-19.7754h19.7754c2.68555 0 4.58984-1.80664 4.58984-4.39453 0-2.73438-1.85547-4.58984-4.58984-4.58984h-19.7754v-19.7266c0-2.73438-1.85547-4.63867-4.54102-4.63867-2.58789 0-4.44336 1.9043-4.44336 4.63867v19.7266h-19.7266c-2.73438 0-4.58984 1.85547-4.58984 4.58984Z"/>
  </g>
  <text style="stroke:none;fill:black;font-family:sans-serif;font-size:13;font-weight:bold;" transform="matrix(1 0 0 1 263 1953)">Design Variations</text>
  <text style="stroke:none;fill:black;font-family:sans-serif;font-size:13;" transform="matrix(1 0 0 1 263 1971)">Symbols are supported in up to nine weights and three scales.</text>
  <text style="stroke:none;fill:black;font-family:sans-serif;font-size:13;" transform="matrix(1 0 0 1 263 1989)">For optimal layout with text and other symbols, vertically align</text>
  <text style="stroke:none;fill:black;font-family:sans-serif;font-size:13;" transform="matrix(1 0 0 1 263 2007)">symbols with the adjacent text.</text>
  <line style="fill:none;stroke:#00AEEF;stroke-width:0.5;opacity:1.0;" x1="776" x2="776" y1="1919" y2="1933"/>
  <g transform="matrix(0.2 0 0 0.2 776 1933)">
   <path d="m16.5527 0.78125c2.58789 0 3.85742-0.976562 4.78516-3.71094l6.29883-17.2363h28.8086l6.29883 17.2363c0.927734 2.73438 2.19727 3.71094 4.73633 3.71094 2.58789 0 4.24805-1.5625 4.24805-4.00391 0-0.830078-0.146484-1.61133-0.537109-2.63672l-22.9004-60.9863c-1.12305-2.97852-3.125-4.49219-6.25-4.49219-3.02734 0-5.07812 1.46484-6.15234 4.44336l-22.9004 61.084c-0.390625 1.02539-0.537109 1.80664-0.537109 2.63672 0 2.44141 1.5625 3.95508 4.10156 3.95508Zm13.4766-28.3691 11.8652-32.8613h0.244141l11.8652 32.8613Z"/>
  </g>
  <line style="fill:none;stroke:#00AEEF;stroke-width:0.5;opacity:1.0;" x1="792.836" x2="792.836" y1="1919" y2="1933"/>
  <text style="stroke:none;fill:black;font-family:sans-serif;font-size:13;font-weight:bold;" transform="matrix(1 0 0 1 776 1953)">Margins</text>
  <text style="stroke:none;fill:black;font-family:sans-serif;font-size:13;" transform="matrix(1 0 0 1 776 1971)">Leading and trailing margins on the left and right side of each symbol</text>
  <text style="stroke:none;fill:black;font-family:sans-serif;font-size:13;" transform="matrix(1 0 0 1 776 1989)">can be adjusted by modifying the x-location of the margin guidelines.</text>
  <text style="stroke:none;fill:black;font-family:sans-serif;font-size:13;" transform="matrix(1 0 0 1 776 2007)">Modifications are automatically applied proportionally to all</text>
  <text style="stroke:none;fill:black;font-family:sans-serif;font-size:13;" transform="matrix(1 0 0 1 776 2025)">scales and weights.</text>
  <g transform="matrix(0.2 0 0 0.2 1289 1933)">
   <path d="m14.209 9.32617 8.49609 8.54492c4.29688 4.3457 9.22852 4.05273 13.8672-1.07422l53.4668-58.9355-4.83398-4.88281-53.0762 58.3984c-1.75781 2.00195-3.41797 2.49023-5.76172 0.146484l-5.85938-5.81055c-2.34375-2.29492-1.80664-4.00391 0.195312-5.81055l57.373-54.0039-4.88281-4.83398-57.959 54.4434c-4.93164 4.58984-5.32227 9.47266-1.02539 13.8184Zm32.0801-90.9668c-2.09961 2.05078-2.24609 4.93164-1.07422 6.88477 1.17188 1.80664 3.4668 2.97852 6.68945 2.14844 7.32422-1.70898 14.9414-2.00195 22.0703 2.68555l-2.92969 7.27539c-1.70898 4.15039-0.830078 7.08008 1.85547 9.81445l11.4746 11.5723c2.44141 2.44141 4.49219 2.53906 7.32422 2.05078l5.32227-0.976562 3.32031 3.36914-0.195312 2.7832c-0.195312 2.49023 0.439453 4.39453 2.88086 6.78711l3.80859 3.71094c2.39258 2.39258 5.46875 2.53906 7.8125 0.195312l14.5508-14.5996c2.34375-2.34375 2.24609-5.32227-0.146484-7.71484l-3.85742-3.80859c-2.39258-2.39258-4.24805-3.17383-6.64062-2.97852l-2.88086 0.244141-3.22266-3.17383 1.2207-5.61523c0.634766-2.83203-0.146484-5.0293-3.07617-7.95898l-10.9863-10.9375c-16.6992-16.6016-38.8672-16.2109-53.3203-1.75781Zm7.4707 1.85547c12.1582-8.88672 28.6133-7.37305 39.7461 3.75977l12.1582 12.0605c1.17188 1.17188 1.36719 2.09961 1.02539 3.80859l-1.61133 7.42188 7.51953 7.42188 4.93164-0.292969c1.26953-0.0488281 1.66016 0.0488281 2.63672 1.02539l2.88086 2.88086-12.207 12.207-2.88086-2.88086c-0.976562-0.976562-1.12305-1.36719-1.07422-2.68555l0.341797-4.88281-7.4707-7.42188-7.61719 1.26953c-1.61133 0.341797-2.34375 0.195312-3.56445-0.976562l-10.0098-10.0098c-1.26953-1.17188-1.41602-2.00195-0.634766-3.85742l4.39453-10.4492c-7.8125-7.27539-17.9688-10.4004-28.125-7.42188-0.78125 0.195312-1.07422-0.439453-0.439453-0.976562Z"/>
  </g>
  <text style="stroke:none;fill:black;font-family:sans-serif;font-size:13;font-weight:bold;" transform="matrix(1 0 0 1 1289 1953)">Exporting</text>
  <text style="stroke:none;fill:black;font-family:sans-serif;font-size:13;" transform="matrix(1 0 0 1 1289 1971)">Symbols should be outlined when exporting to ensure the</text>
  <text style="stroke:none;fill:black;font-family:sans-serif;font-size:13;" transform="matrix(1 0 0 1 1289 1989)">design is preserved when submitting to Xcode.</text>
  <text id="template-version" style="stroke:none;fill:black;font-family:sans-serif;font-size:13;text-anchor:end;" transform="matrix(1 0 0 1 3036 1933)">Template v.5.0</text>
  <text style="stroke:none;fill:black;font-family:sans-serif;font-size:13;text-anchor:end;" transform="matrix(1 0 0 1 3036 1951)">Requires Xcode 15 or greater</text>
  <text id="descriptive-name" style="stroke:none;fill:black;font-family:sans-serif;font-size:13;text-anchor:end;" transform="matrix(1 0 0 1 3036 1969)">Generated from phone.down.waves.left.and.right</text>
  <text style="stroke:none;fill:black;font-family:sans-serif;font-size:13;text-anchor:end;" transform="matrix(1 0 0 1 3036 1987)">Typeset at 100.0 points</text>
  <text style="stroke:none;fill:black;font-family:sans-serif;font-size:13;" transform="matrix(1 0 0 1 263 726)">Small</text>
  <text style="stroke:none;fill:black;font-family:sans-serif;font-size:13;" transform="matrix(1 0 0 1 263 1156)">Medium</text>
  <text style="stroke:none;fill:black;font-family:sans-serif;font-size:13;" transform="matrix(1 0 0 1 263 1586)">Large</text>
 </g>
 <g id="Guides">
  <g id="H-reference" style="fill:#27AAE1;stroke:none;" transform="matrix(1 0 0 1 339 696)">
   <path d="M0.993654 0L3.63775 0L29.3281-67.1323L30.0303-67.1323L30.0303-70.459L28.1226-70.459ZM11.6885-24.4799L46.9815-24.4799L46.2315-26.7285L12.4385-26.7285ZM55.1196 0L57.7637 0L30.6382-70.459L29.4326-70.459L29.4326-67.1323Z"/>
  </g>
  <line id="Baseline-S" style="fill:none;stroke:#27AAE1;opacity:1;stroke-width:0.5;" x1="263" x2="3036" y1="696" y2="696"/>
  <line id="Capline-S" style="fill:none;stroke:#27AAE1;opacity:1;stroke-width:0.5;" x1="263" x2="3036" y1="625.541" y2="625.541"/>
  <g id="H-reference" style="fill:#27AAE1;stroke:none;" transform="matrix(1 0 0 1 339 1126)">
   <path d="M0.993654 0L3.63775 0L29.3281-67.1323L30.0303-67.1323L30.0303-70.459L28.1226-70.459ZM11.6885-24.4799L46.9815-24.4799L46.2315-26.7285L12.4385-26.7285ZM55.1196 0L57.7637 0L30.6382-70.459L29.4326-70.459L29.4326-67.1323Z"/>
  </g>
  <line id="Baseline-M" style="fill:none;stroke:#27AAE1;opacity:1;stroke-width:0.5;" x1="263" x2="3036" y1="1126" y2="1126"/>
  <line id="Capline-M" style="fill:none;stroke:#27AAE1;opacity:1;stroke-width:0.5;" x1="263" x2="3036" y1="1055.54" y2="1055.54"/>
  <g id="H-reference" style="fill:#27AAE1;stroke:none;" transform="matrix(1 0 0 1 339 1556)">
   <path d="M0.993654 0L3.63775 0L29.3281-67.1323L30.0303-67.1323L30.0303-70.459L28.1226-70.459ZM11.6885-24.4799L46.9815-24.4799L46.2315-26.7285L12.4385-26.7285ZM55.1196 0L57.7637 0L30.6382-70.459L29.4326-70.459L29.4326-67.1323Z"/>
  </g>
  <line id="Baseline-L" style="fill:none;stroke:#27AAE1;opacity:1;stroke-width:0.5;" x1="263" x2="3036" y1="1556" y2="1556"/>
  <line id="Capline-L" style="fill:none;stroke:#27AAE1;opacity:1;stroke-width:0.5;" x1="263" x2="3036" y1="1485.54" y2="1485.54"/>
  <line id="left-margin-Ultralight-S" style="fill:none;stroke:#00AEEF;stroke-width:0.5;opacity:1.0;" x1="482.369" x2="482.369" y1="600.785" y2="720.121"/>
  <line id="right-margin-Ultralight-S" style="fill:none;stroke:#00AEEF;stroke-width:0.5;opacity:1.0;" x1="637.054" x2="637.054" y1="600.785" y2="720.121"/>
  <line id="left-margin-Regular-S" style="fill:none;stroke:#00AEEF;stroke-width:0.5;opacity:1.0;" x1="1366.03" x2="1366.03" y1="600.785" y2="720.121"/>
  <line id="right-margin-Regular-S" style="fill:none;stroke:#00AEEF;stroke-width:0.5;opacity:1.0;" x1="1533.66" x2="1533.66" y1="600.785" y2="720.121"/>
  <line id="left-margin-Black-S" style="fill:none;stroke:#00AEEF;stroke-width:0.5;opacity:1.0;" x1="2838.04" x2="2838.04" y1="600.785" y2="720.121"/>
  <line id="right-margin-Black-S" style="fill:none;stroke:#00AEEF;stroke-width:0.5;opacity:1.0;" x1="3028.76" x2="3028.76" y1="600.785" y2="720.121"/>
 </g>
 <g id="Symbols">
  <g id="Black-S" transform="matrix(1 0 0 1 2838.04 696)">
   <path class="SFSymbolsPreviewWireframe" d="M6.83594-35.2539C6.83594-25.1465 9.66797-15.5762 15.8203-9.42383C18.75-6.49414 22.0215-6.93359 23.877-9.27734C25.5371-11.377 25-13.916 23.1934-15.918C18.9453-20.6055 16.5527-27.6367 16.5527-35.2539C16.5527-42.8223 18.8965-49.9023 23.1934-54.541C25.0488-56.543 25.5859-59.082 23.877-61.1816C21.9727-63.4766 18.6523-64.0137 15.8203-61.0352C10.2539-55.2246 6.83594-45.2637 6.83594-35.2539ZM24.7559-35.2539C24.7559-29.3457 26.2695-23.7793 29.3457-20.6543C31.9336-18.0176 35.5469-18.1641 37.2559-20.5078C38.7207-22.5586 38.3301-25 36.8652-27.0508C35.6445-28.7598 34.4727-32.4707 34.4727-35.2539C34.4727-38.0371 35.6445-41.748 36.8652-43.5059C38.2812-45.5566 38.7207-47.9492 37.2559-50C35.5469-52.3438 31.9336-52.5391 29.3457-49.9023C26.2695-46.7285 24.7559-41.1621 24.7559-35.2539ZM44.4336-31.6406C44.5801-28.3691 45.7031-25.6836 47.6562-23.7305C49.5117-21.875 52.0508-20.8496 55.127-21.3379L69.5312-23.7305C72.1191-24.1699 73.7305-24.9023 74.8047-25.9766C76.2207-27.3926 76.6602-29.3945 76.6602-32.0801L76.6602-36.3281C76.6602-36.9141 76.9531-37.5 77.2949-37.8418C77.7832-38.3301 78.418-38.623 78.9551-38.7207C81.8848-39.2578 87.6953-39.8926 95.3613-39.8926C103.027-39.8926 108.838-39.2578 111.768-38.7207C112.305-38.623 112.939-38.3301 113.428-37.8418C113.77-37.5 114.062-36.9141 114.062-36.3281L114.062-32.0801C114.062-29.3945 114.502-27.3926 115.918-25.9766C116.992-24.9023 118.604-24.1699 121.191-23.7305L135.596-21.3379C138.672-20.8496 141.211-21.875 143.066-23.7305C145.02-25.6836 146.143-28.3691 146.289-31.6406C146.533-37.3535 144.531-42.041 140.723-45.8496C132.178-54.3945 114.941-58.1543 95.3613-58.2031C75.7812-58.1543 58.5449-54.3945 50-45.8496C46.1914-42.041 44.1895-37.3535 44.4336-31.6406ZM165.967-35.2539C165.967-41.1621 164.453-46.7285 161.377-49.9023C158.789-52.5391 155.176-52.3438 153.467-50C152.002-47.9492 152.441-45.5566 153.857-43.5059C155.078-41.748 156.25-38.0371 156.25-35.2539C156.25-32.4707 155.078-28.7598 153.857-27.0508C152.393-25 152.002-22.5586 153.467-20.5078C155.176-18.1641 158.789-18.0176 161.377-20.6543C164.453-23.7793 165.967-29.3457 165.967-35.2539ZM183.887-35.2539C183.887-45.2637 180.469-55.2246 174.902-61.0352C172.07-64.0137 168.75-63.4766 166.846-61.1816C165.137-59.082 165.674-56.543 167.529-54.541C171.826-49.9023 174.17-42.8223 174.17-35.2539C174.17-27.6367 171.777-20.6055 167.529-15.918C165.723-13.916 165.186-11.377 166.846-9.27734C168.701-6.93359 171.973-6.49414 174.902-9.42383C181.055-15.5762 183.887-25.1465 183.887-35.2539Z"/>
  </g>
  <g id="Regular-S" transform="matrix(1 0 0 1 1366.03 696)">
   <path class="SFSymbolsPreviewWireframe" d="M6.83594-35.2539C6.83594-25.2441 10.3516-15.918 16.748-8.88672C18.457-6.98242 20.8984-6.98242 22.3145-8.64258C23.6816-10.2539 23.291-12.2559 21.6797-14.0625C16.6992-19.7754 13.9648-27.1484 13.9648-35.2539C13.9648-43.3594 16.6992-50.7324 21.6797-56.4453C23.291-58.252 23.6816-60.2539 22.3145-61.8652C20.8984-63.5254 18.457-63.5254 16.748-61.6211C10.3516-54.5898 6.83594-45.2637 6.83594-35.2539ZM22.3145-35.2539C22.3145-29.541 24.2188-24.2188 27.4902-19.9707C29.0527-17.9688 31.6895-18.0176 33.1543-19.6289C34.5215-21.2402 33.9355-23.1445 32.5684-25.0977C30.5176-27.9297 29.4434-31.4453 29.4434-35.2539C29.4434-39.1113 30.5664-42.627 32.5684-45.4102C33.9355-47.3633 34.5215-49.2676 33.1543-50.8789C31.6895-52.4902 29.0527-52.5391 27.4902-50.5371C24.2188-46.2891 22.3145-40.9668 22.3145-35.2539ZM38.3789-32.5195C38.5742-29.3457 39.5996-26.709 41.4062-24.9023C42.8223-23.4863 44.7266-22.6562 46.875-22.998L61.1328-25.3906C63.4277-25.7812 64.9414-26.4648 65.918-27.4414C67.1875-28.7109 67.5293-30.5664 67.5293-32.959L67.5293-36.7676C67.5293-37.4023 67.8223-37.8418 68.1641-38.2324C68.5547-38.7207 69.1406-38.916 69.5801-39.0137C72.2656-39.5996 77.6367-40.0879 83.7891-40.0879C89.9902-40.0879 95.3613-39.5996 97.998-39.0137C98.4375-38.916 99.0723-38.7207 99.4629-38.2324C99.8047-37.8418 100.098-37.4023 100.098-36.7676L100.098-32.959C100.098-30.5664 100.391-28.7109 101.66-27.4414C102.637-26.4648 104.199-25.7812 106.494-25.3906L120.752-22.998C122.9-22.6562 124.756-23.4863 126.172-24.9023C127.979-26.709 129.053-29.3457 129.199-32.5195C129.492-37.6953 127.686-41.9434 124.219-45.459C116.455-53.2227 100.732-56.6895 83.7891-56.6895C66.8945-56.6895 51.1719-53.2227 43.4082-45.459C39.8926-41.9434 38.1348-37.6953 38.3789-32.5195ZM145.312-35.2539C145.312-40.9668 143.359-46.2891 140.088-50.5371C138.525-52.5391 135.938-52.4902 134.473-50.8789C133.057-49.2676 133.643-47.3633 135.01-45.4102C137.109-42.5781 138.135-39.0625 138.135-35.2539C138.135-31.4453 137.109-27.9297 135.01-25.0977C133.643-23.1445 133.057-21.2402 134.473-19.6289C135.938-18.0176 138.525-17.9688 140.088-19.9707C143.359-24.2188 145.312-29.541 145.312-35.2539ZM160.791-35.2539C160.791-45.2637 157.227-54.5898 150.83-61.6211C149.17-63.5254 146.729-63.5254 145.312-61.8652C143.896-60.2539 144.336-58.252 145.947-56.4453C150.928-50.7324 153.613-43.3594 153.613-35.2539C153.613-27.1484 150.928-19.7754 145.947-14.0625C144.336-12.2559 143.896-10.2539 145.312-8.64258C146.729-6.98242 149.17-6.98242 150.83-8.88672C157.227-15.918 160.791-25.2441 160.791-35.2539Z"/>
  </g>
  <g id="Ultralight-S" transform="matrix(1 0 0 1 482.369 696)">
   <path class="SFSymbolsPreviewWireframe" d="M6.83594-35.2539C6.83594-25.8345 10.624-17.4165 16.8389-11.1572C17.3218-10.6606 18.1284-10.6152 18.5454-11.0947C18.959-11.5708 18.7954-12.2559 18.3194-12.7002C12.5215-18.5493 9.06059-26.4219 9.06059-35.2539C9.06059-44.0859 12.5215-51.9585 18.3194-57.8076C18.7954-58.252 18.959-58.937 18.5454-59.4131C18.1284-59.8926 17.3218-59.8472 16.8389-59.3506C10.624-53.0913 6.83594-44.6733 6.83594-35.2539ZM21.4971-35.2539C21.4971-29.9497 23.4922-25.1269 26.9907-21.6055C27.4634-21.0566 28.2383-21.0146 28.7041-21.5361C29.0723-21.9668 28.9859-22.6904 28.4815-23.145C25.2046-26.0679 23.6763-30.5371 23.6763-35.2539C23.6763-39.9741 25.2081-44.4433 28.4815-47.3628C28.9859-47.8174 29.0723-48.541 28.7041-48.9717C28.2383-49.4932 27.4634-49.4512 26.9907-48.9024C23.4922-45.3809 21.4971-40.5581 21.4971-35.2539ZM34.3828-32.1108C34.3965-29.5728 34.9678-26.3911 36.8199-24.5391C37.9634-23.3955 39.6407-22.7471 41.8799-23.1343L55.8199-25.6177C57.2974-25.8721 58.584-26.4194 59.5606-27.3506C60.7393-28.4385 61.3536-30.2031 61.399-32.7773L61.4898-36.7222C61.4898-37.2661 61.6919-37.751 62.0791-38.1416C62.4244-38.4937 62.8287-38.689 63.2681-38.832C65.4996-39.5542 70.5982-40.4512 77.3409-40.4512C84.087-40.4512 89.1856-39.5542 91.4136-38.832C91.8531-38.689 92.2608-38.4937 92.606-38.1416C92.9932-37.751 93.1954-37.2661 93.1954-36.7222L93.2862-32.7773C93.3316-30.2031 93.9424-28.4385 95.1211-27.3506C96.0977-26.4194 97.3877-25.8721 98.8199-25.6177L112.805-23.1343C115.044-22.7471 116.718-23.3955 117.862-24.5391C119.714-26.3911 120.289-29.5728 120.299-32.1108C120.319-37.1958 118.558-41.4439 114.955-45.0503C107.191-52.814 92.3316-56.1899 77.3409-56.2354C62.3536-56.1899 47.4937-52.814 39.73-45.0503C36.1236-41.4439 34.3658-37.1958 34.3828-32.1108ZM133.188-35.2539C133.188-40.5581 131.19-45.3809 127.691-48.9024C127.218-49.4512 126.401-49.4932 125.981-48.9717C125.564-48.541 125.696-47.8174 126.2-47.3628C129.435-44.4399 131.005-39.9707 131.005-35.2539C131.005-30.5371 129.435-26.0679 126.2-23.145C125.696-22.6904 125.564-21.9668 125.981-21.5361C126.401-21.0146 127.218-21.0566 127.691-21.6055C131.19-25.1269 133.188-29.9497 133.188-35.2539ZM147.849-35.2539C147.849-44.6733 144.058-53.0913 137.843-59.3506C137.318-59.8472 136.557-59.8926 136.14-59.4131C135.723-58.937 135.89-58.252 136.32-57.8076C142.164-51.9585 145.621-44.0859 145.621-35.2539C145.621-26.4219 142.164-18.5493 136.32-12.7002C135.89-12.2559 135.723-11.5708 136.14-11.0947C136.557-10.6152 137.318-10.6606 137.843-11.1572C144.058-17.4165 147.849-25.8345 147.849-35.2539Z"/>
  </g>
 </g>
</svg>
