<?xml version="1.0" encoding="UTF-8"?>
<!--Generator: Apple Native CoreSVG 232.5-->
<!DOCTYPE svg
PUBLIC "-//W3C//DTD SVG 1.1//EN"
       "http://www.w3.org/Graphics/SVG/1.1/DTD/svg11.dtd">
<svg version="1.1" xmlns="http://www.w3.org/2000/svg" xmlns:xlink="http://www.w3.org/1999/xlink" width="3300" height="2200">
 <!--glyph: "uni1014DC.medium", point size: 100.0, font version: "19.2d2e1", template writer version: "128"-->
 <style>.SFSymbolsPreviewWireframe {fill:none;opacity:1.0;stroke:black;stroke-width:0.5}
</style>
 <g id="Notes">
  <rect height="2200" id="artboard" style="fill:white;opacity:1" width="3300" x="0" y="0"/>
  <line style="fill:none;stroke:black;opacity:1;stroke-width:0.5;" x1="263" x2="3036" y1="292" y2="292"/>
  <text style="stroke:none;fill:black;font-family:sans-serif;font-size:13;font-weight:bold;" transform="matrix(1 0 0 1 263 322)">Weight/Scale Variations</text>
  <text style="stroke:none;fill:black;font-family:sans-serif;font-size:13;text-anchor:middle;" transform="matrix(1 0 0 1 559.711 322)">Ultralight</text>
  <text style="stroke:none;fill:black;font-family:sans-serif;font-size:13;text-anchor:middle;" transform="matrix(1 0 0 1 856.422 322)">Thin</text>
  <text style="stroke:none;fill:black;font-family:sans-serif;font-size:13;text-anchor:middle;" transform="matrix(1 0 0 1 1153.13 322)">Light</text>
  <text style="stroke:none;fill:black;font-family:sans-serif;font-size:13;text-anchor:middle;" transform="matrix(1 0 0 1 1449.84 322)">Regular</text>
  <text style="stroke:none;fill:black;font-family:sans-serif;font-size:13;text-anchor:middle;" transform="matrix(1 0 0 1 1746.56 322)">Medium</text>
  <text style="stroke:none;fill:black;font-family:sans-serif;font-size:13;text-anchor:middle;" transform="matrix(1 0 0 1 2043.27 322)">Semibold</text>
  <text style="stroke:none;fill:black;font-family:sans-serif;font-size:13;text-anchor:middle;" transform="matrix(1 0 0 1 2339.98 322)">Bold</text>
  <text style="stroke:none;fill:black;font-family:sans-serif;font-size:13;text-anchor:middle;" transform="matrix(1 0 0 1 2636.69 322)">Heavy</text>
  <text style="stroke:none;fill:black;font-family:sans-serif;font-size:13;text-anchor:middle;" transform="matrix(1 0 0 1 2933.4 322)">Black</text>
  <line style="fill:none;stroke:black;opacity:1;stroke-width:0.5;" x1="263" x2="3036" y1="1903" y2="1903"/>
  <g transform="matrix(0.2 0 0 0.2 263 1933)">
   <path d="m46.2402 4.15039c21.5332 0 39.4531-17.8711 39.4531-39.4043s-17.9688-39.4043-39.502-39.4043c-21.4844 0-39.3555 17.8711-39.3555 39.4043s17.9199 39.4043 39.4043 39.4043Zm0-7.42188c-17.7246 0-31.8848-14.209-31.8848-31.9824s14.1113-31.9824 31.8359-31.9824c17.7734 0 32.0312 14.209 32.0312 31.9824s-14.209 31.9824-31.9824 31.9824Zm-17.9688-31.9824c0 2.14844 1.51367 3.61328 3.75977 3.61328h10.498v10.5957c0 2.19727 1.46484 3.71094 3.61328 3.71094 2.24609 0 3.71094-1.51367 3.71094-3.71094v-10.5957h10.5957c2.19727 0 3.71094-1.46484 3.71094-3.61328 0-2.19727-1.51367-3.71094-3.71094-3.71094h-10.5957v-10.5469c0-2.24609-1.46484-3.75977-3.71094-3.75977-2.14844 0-3.61328 1.51367-3.61328 3.75977v10.5469h-10.498c-2.24609 0-3.75977 1.51367-3.75977 3.71094Z"/>
  </g>
  <g transform="matrix(0.2 0 0 0.2 281.506 1933)">
   <path d="m58.5449 14.5508c27.2461 0 49.8047-22.6074 49.8047-49.8047 0-27.2461-22.6074-49.8047-49.8535-49.8047-27.1973 0-49.7559 22.5586-49.7559 49.8047 0 27.1973 22.6074 49.8047 49.8047 49.8047Zm0-8.30078c-23.0469 0-41.4551-18.457-41.4551-41.5039s18.3594-41.5039 41.4062-41.5039 41.5527 18.457 41.5527 41.5039-18.457 41.5039-41.5039 41.5039Zm-22.6562-41.5039c0 2.39258 1.66016 4.00391 4.15039 4.00391h14.3555v14.4043c0 2.44141 1.66016 4.15039 4.05273 4.15039 2.44141 0 4.15039-1.66016 4.15039-4.15039v-14.4043h14.4043c2.44141 0 4.15039-1.61133 4.15039-4.00391 0-2.44141-1.70898-4.15039-4.15039-4.15039h-14.4043v-14.3555c0-2.49023-1.70898-4.19922-4.15039-4.19922-2.39258 0-4.05273 1.70898-4.05273 4.19922v14.3555h-14.3555c-2.49023 0-4.15039 1.70898-4.15039 4.15039Z"/>
  </g>
  <g transform="matrix(0.2 0 0 0.2 304.924 1933)">
   <path d="m74.8535 28.3203c34.8145 0 63.623-28.8086 63.623-63.5742 0-34.8145-28.8574-63.623-63.6719-63.623-34.7656 0-63.5254 28.8086-63.5254 63.623 0 34.7656 28.8086 63.5742 63.5742 63.5742Zm0-9.08203c-30.1758 0-54.4434-24.3164-54.4434-54.4922 0-30.2246 24.2188-54.4922 54.3945-54.4922 30.2246 0 54.541 24.2676 54.541 54.4922 0 30.1758-24.2676 54.4922-54.4922 54.4922Zm-28.8574-54.4922c0 2.58789 1.85547 4.39453 4.58984 4.39453h19.7266v19.7754c0 2.68555 1.85547 4.58984 4.44336 4.58984 2.68555 0 4.54102-1.85547 4.54102-4.58984v-19.7754h19.7754c2.68555 0 4.58984-1.80664 4.58984-4.39453 0-2.73438-1.85547-4.58984-4.58984-4.58984h-19.7754v-19.7266c0-2.73438-1.85547-4.63867-4.54102-4.63867-2.58789 0-4.44336 1.9043-4.44336 4.63867v19.7266h-19.7266c-2.73438 0-4.58984 1.85547-4.58984 4.58984Z"/>
  </g>
  <text style="stroke:none;fill:black;font-family:sans-serif;font-size:13;font-weight:bold;" transform="matrix(1 0 0 1 263 1953)">Design Variations</text>
  <text style="stroke:none;fill:black;font-family:sans-serif;font-size:13;" transform="matrix(1 0 0 1 263 1971)">Symbols are supported in up to nine weights and three scales.</text>
  <text style="stroke:none;fill:black;font-family:sans-serif;font-size:13;" transform="matrix(1 0 0 1 263 1989)">For optimal layout with text and other symbols, vertically align</text>
  <text style="stroke:none;fill:black;font-family:sans-serif;font-size:13;" transform="matrix(1 0 0 1 263 2007)">symbols with the adjacent text.</text>
  <line style="fill:none;stroke:#00AEEF;stroke-width:0.5;opacity:1.0;" x1="776" x2="776" y1="1919" y2="1933"/>
  <g transform="matrix(0.2 0 0 0.2 776 1933)">
   <path d="m16.5527 0.78125c2.58789 0 3.85742-0.976562 4.78516-3.71094l6.29883-17.2363h28.8086l6.29883 17.2363c0.927734 2.73438 2.19727 3.71094 4.73633 3.71094 2.58789 0 4.24805-1.5625 4.24805-4.00391 0-0.830078-0.146484-1.61133-0.537109-2.63672l-22.9004-60.9863c-1.12305-2.97852-3.125-4.49219-6.25-4.49219-3.02734 0-5.07812 1.46484-6.15234 4.44336l-22.9004 61.084c-0.390625 1.02539-0.537109 1.80664-0.537109 2.63672 0 2.44141 1.5625 3.95508 4.10156 3.95508Zm13.4766-28.3691 11.8652-32.8613h0.244141l11.8652 32.8613Z"/>
  </g>
  <line style="fill:none;stroke:#00AEEF;stroke-width:0.5;opacity:1.0;" x1="792.836" x2="792.836" y1="1919" y2="1933"/>
  <text style="stroke:none;fill:black;font-family:sans-serif;font-size:13;font-weight:bold;" transform="matrix(1 0 0 1 776 1953)">Margins</text>
  <text style="stroke:none;fill:black;font-family:sans-serif;font-size:13;" transform="matrix(1 0 0 1 776 1971)">Leading and trailing margins on the left and right side of each symbol</text>
  <text style="stroke:none;fill:black;font-family:sans-serif;font-size:13;" transform="matrix(1 0 0 1 776 1989)">can be adjusted by modifying the x-location of the margin guidelines.</text>
  <text style="stroke:none;fill:black;font-family:sans-serif;font-size:13;" transform="matrix(1 0 0 1 776 2007)">Modifications are automatically applied proportionally to all</text>
  <text style="stroke:none;fill:black;font-family:sans-serif;font-size:13;" transform="matrix(1 0 0 1 776 2025)">scales and weights.</text>
  <g transform="matrix(0.2 0 0 0.2 1289 1933)">
   <path d="m14.209 9.32617 8.49609 8.54492c4.29688 4.3457 9.22852 4.05273 13.8672-1.07422l53.4668-58.9355-4.83398-4.88281-53.0762 58.3984c-1.75781 2.00195-3.41797 2.49023-5.76172 0.146484l-5.85938-5.81055c-2.34375-2.29492-1.80664-4.00391 0.195312-5.81055l57.373-54.0039-4.88281-4.83398-57.959 54.4434c-4.93164 4.58984-5.32227 9.47266-1.02539 13.8184Zm32.0801-90.9668c-2.09961 2.05078-2.24609 4.93164-1.07422 6.88477 1.17188 1.80664 3.4668 2.97852 6.68945 2.14844 7.32422-1.70898 14.9414-2.00195 22.0703 2.68555l-2.92969 7.27539c-1.70898 4.15039-0.830078 7.08008 1.85547 9.81445l11.4746 11.5723c2.44141 2.44141 4.49219 2.53906 7.32422 2.05078l5.32227-0.976562 3.32031 3.36914-0.195312 2.7832c-0.195312 2.49023 0.439453 4.39453 2.88086 6.78711l3.80859 3.71094c2.39258 2.39258 5.46875 2.53906 7.8125 0.195312l14.5508-14.5996c2.34375-2.34375 2.24609-5.32227-0.146484-7.71484l-3.85742-3.80859c-2.39258-2.39258-4.24805-3.17383-6.64062-2.97852l-2.88086 0.244141-3.22266-3.17383 1.2207-5.61523c0.634766-2.83203-0.146484-5.0293-3.07617-7.95898l-10.9863-10.9375c-16.6992-16.6016-38.8672-16.2109-53.3203-1.75781Zm7.4707 1.85547c12.1582-8.88672 28.6133-7.37305 39.7461 3.75977l12.1582 12.0605c1.17188 1.17188 1.36719 2.09961 1.02539 3.80859l-1.61133 7.42188 7.51953 7.42188 4.93164-0.292969c1.26953-0.0488281 1.66016 0.0488281 2.63672 1.02539l2.88086 2.88086-12.207 12.207-2.88086-2.88086c-0.976562-0.976562-1.12305-1.36719-1.07422-2.68555l0.341797-4.88281-7.4707-7.42188-7.61719 1.26953c-1.61133 0.341797-2.34375 0.195312-3.56445-0.976562l-10.0098-10.0098c-1.26953-1.17188-1.41602-2.00195-0.634766-3.85742l4.39453-10.4492c-7.8125-7.27539-17.9688-10.4004-28.125-7.42188-0.78125 0.195312-1.07422-0.439453-0.439453-0.976562Z"/>
  </g>
  <text style="stroke:none;fill:black;font-family:sans-serif;font-size:13;font-weight:bold;" transform="matrix(1 0 0 1 1289 1953)">Exporting</text>
  <text style="stroke:none;fill:black;font-family:sans-serif;font-size:13;" transform="matrix(1 0 0 1 1289 1971)">Symbols should be outlined when exporting to ensure the</text>
  <text style="stroke:none;fill:black;font-family:sans-serif;font-size:13;" transform="matrix(1 0 0 1 1289 1989)">design is preserved when submitting to Xcode.</text>
  <text id="template-version" style="stroke:none;fill:black;font-family:sans-serif;font-size:13;text-anchor:end;" transform="matrix(1 0 0 1 3036 1933)">Template v.5.0</text>
  <text style="stroke:none;fill:black;font-family:sans-serif;font-size:13;text-anchor:end;" transform="matrix(1 0 0 1 3036 1951)">Requires Xcode 15 or greater</text>
  <text id="descriptive-name" style="stroke:none;fill:black;font-family:sans-serif;font-size:13;text-anchor:end;" transform="matrix(1 0 0 1 3036 1969)">Generated from poweroutlet.strip.fill</text>
  <text style="stroke:none;fill:black;font-family:sans-serif;font-size:13;text-anchor:end;" transform="matrix(1 0 0 1 3036 1987)">Typeset at 100.0 points</text>
  <text style="stroke:none;fill:black;font-family:sans-serif;font-size:13;" transform="matrix(1 0 0 1 263 726)">Small</text>
  <text style="stroke:none;fill:black;font-family:sans-serif;font-size:13;" transform="matrix(1 0 0 1 263 1156)">Medium</text>
  <text style="stroke:none;fill:black;font-family:sans-serif;font-size:13;" transform="matrix(1 0 0 1 263 1586)">Large</text>
 </g>
 <g id="Guides">
  <g id="H-reference" style="fill:#27AAE1;stroke:none;" transform="matrix(1 0 0 1 339 696)">
   <path d="M0.993654 0L3.63775 0L29.3281-67.1323L30.0303-67.1323L30.0303-70.459L28.1226-70.459ZM11.6885-24.4799L46.9815-24.4799L46.2315-26.7285L12.4385-26.7285ZM55.1196 0L57.7637 0L30.6382-70.459L29.4326-70.459L29.4326-67.1323Z"/>
  </g>
  <line id="Baseline-S" style="fill:none;stroke:#27AAE1;opacity:1;stroke-width:0.5;" x1="263" x2="3036" y1="696" y2="696"/>
  <line id="Capline-S" style="fill:none;stroke:#27AAE1;opacity:1;stroke-width:0.5;" x1="263" x2="3036" y1="625.541" y2="625.541"/>
  <g id="H-reference" style="fill:#27AAE1;stroke:none;" transform="matrix(1 0 0 1 339 1126)">
   <path d="M0.993654 0L3.63775 0L29.3281-67.1323L30.0303-67.1323L30.0303-70.459L28.1226-70.459ZM11.6885-24.4799L46.9815-24.4799L46.2315-26.7285L12.4385-26.7285ZM55.1196 0L57.7637 0L30.6382-70.459L29.4326-70.459L29.4326-67.1323Z"/>
  </g>
  <line id="Baseline-M" style="fill:none;stroke:#27AAE1;opacity:1;stroke-width:0.5;" x1="263" x2="3036" y1="1126" y2="1126"/>
  <line id="Capline-M" style="fill:none;stroke:#27AAE1;opacity:1;stroke-width:0.5;" x1="263" x2="3036" y1="1055.54" y2="1055.54"/>
  <g id="H-reference" style="fill:#27AAE1;stroke:none;" transform="matrix(1 0 0 1 339 1556)">
   <path d="M0.993654 0L3.63775 0L29.3281-67.1323L30.0303-67.1323L30.0303-70.459L28.1226-70.459ZM11.6885-24.4799L46.9815-24.4799L46.2315-26.7285L12.4385-26.7285ZM55.1196 0L57.7637 0L30.6382-70.459L29.4326-70.459L29.4326-67.1323Z"/>
  </g>
  <line id="Baseline-L" style="fill:none;stroke:#27AAE1;opacity:1;stroke-width:0.5;" x1="263" x2="3036" y1="1556" y2="1556"/>
  <line id="Capline-L" style="fill:none;stroke:#27AAE1;opacity:1;stroke-width:0.5;" x1="263" x2="3036" y1="1485.54" y2="1485.54"/>
  <line id="left-margin-Ultralight-S" style="fill:none;stroke:#00AEEF;stroke-width:0.5;opacity:1.0;" x1="480.389" x2="480.389" y1="600.785" y2="720.121"/>
  <line id="right-margin-Ultralight-S" style="fill:none;stroke:#00AEEF;stroke-width:0.5;opacity:1.0;" x1="639.033" x2="639.033" y1="600.785" y2="720.121"/>
  <line id="left-margin-Regular-S" style="fill:none;stroke:#00AEEF;stroke-width:0.5;opacity:1.0;" x1="1364.03" x2="1364.03" y1="600.785" y2="720.121"/>
  <line id="right-margin-Regular-S" style="fill:none;stroke:#00AEEF;stroke-width:0.5;opacity:1.0;" x1="1535.66" x2="1535.66" y1="600.785" y2="720.121"/>
  <line id="left-margin-Black-S" style="fill:none;stroke:#00AEEF;stroke-width:0.5;opacity:1.0;" x1="2838.65" x2="2838.65" y1="600.785" y2="720.121"/>
  <line id="right-margin-Black-S" style="fill:none;stroke:#00AEEF;stroke-width:0.5;opacity:1.0;" x1="3028.15" x2="3028.15" y1="600.785" y2="720.121"/>
 </g>
 <g id="Symbols">
  <g id="Black-S" transform="matrix(1 0 0 1 2838.65 696)">
   <path class="SFSymbolsPreviewWireframe" d="M21.9727-10.4004L128.906-10.4004C136.572-10.4004 141.113-14.9414 141.113-22.6074L141.113-52.1484C141.113-59.8145 136.572-64.3555 128.906-64.3555L21.9727-64.3555C14.3066-64.3555 9.76562-59.8145 9.76562-52.1484L9.76562-22.6074C9.76562-14.9414 14.3066-10.4004 21.9727-10.4004ZM26.6113-25.7812C24.707-25.7812 23.3887-27.0996 23.3887-29.0039L23.3887-45.8008C23.3887-47.7051 24.707-49.0234 26.6113-49.0234L29.1992-49.0234C31.0547-49.0234 32.373-47.7051 32.373-45.8008L32.373-29.0039C32.373-27.0996 31.0547-25.7812 29.1992-25.7812ZM52.5879-23.4375C44.9219-23.4375 38.6719-29.6387 38.6719-37.3535C38.6719-45.0195 44.9219-51.3184 52.5879-51.3184C60.3027-51.3184 66.5039-45.0195 66.5039-37.3535C66.5039-29.6387 60.3027-23.4375 52.5879-23.4375ZM83.5938-23.4375C75.9277-23.4375 69.6777-29.6387 69.6777-37.3535C69.6777-45.0195 75.9277-51.3184 83.5938-51.3184C91.2598-51.3184 97.5098-45.0195 97.5098-37.3535C97.5098-29.6387 91.2598-23.4375 83.5938-23.4375ZM114.551-23.4375C106.885-23.4375 100.684-29.6387 100.684-37.3535C100.684-45.0195 106.885-51.3184 114.551-51.3184C122.266-51.3184 128.467-45.0195 128.467-37.3535C128.467-29.6387 122.266-23.4375 114.551-23.4375ZM47.8027-30.7129C48.7793-30.7129 49.5605-31.4941 49.5605-32.4707L49.5605-42.1387C49.5605-43.2129 48.7793-44.043 47.8027-44.043C46.7773-44.043 45.8984-43.1641 45.8984-42.1387L45.8984-32.4707C45.8984-31.543 46.7773-30.7129 47.8027-30.7129ZM57.4219-30.7129C58.4473-30.7129 59.2285-31.4941 59.2285-32.4707L59.2285-42.1387C59.2285-43.2129 58.4473-44.043 57.4219-44.043C56.3965-44.043 55.5664-43.2129 55.5664-42.1387L55.5664-32.4707C55.5664-31.4941 56.4453-30.7129 57.4219-30.7129ZM78.7109-30.7129C79.7852-30.7129 80.5664-31.4941 80.5664-32.4707L80.5664-42.1387C80.5664-43.2129 79.7852-44.043 78.7109-44.043C77.7344-44.043 76.8555-43.1641 76.8555-42.1387L76.8555-32.4707C76.8555-31.4941 77.7344-30.7129 78.7109-30.7129ZM88.3789-30.7129C89.4043-30.7129 90.2344-31.4941 90.2344-32.4707L90.2344-42.1387C90.2344-43.2129 89.4531-44.043 88.3789-44.043C87.4023-44.043 86.5234-43.2129 86.5234-42.1387L86.5234-32.4707C86.5234-31.4941 87.4023-30.7129 88.3789-30.7129ZM109.717-30.7129C110.742-30.7129 111.572-31.4941 111.572-32.4707L111.572-42.1387C111.572-43.2129 110.791-44.043 109.717-44.043C108.74-44.043 107.861-43.1641 107.861-42.1387L107.861-32.4707C107.861-31.4941 108.74-30.7129 109.717-30.7129ZM119.385-30.7129C120.41-30.7129 121.191-31.4941 121.191-32.4707L121.191-42.1387C121.191-43.2129 120.41-44.043 119.385-44.043C118.359-44.043 117.48-43.2129 117.48-42.1387L117.48-32.4707C117.48-31.4941 118.408-30.7129 119.385-30.7129ZM136.914-20.9473L145.801-20.9473C149.756-20.9473 152.881-24.0723 152.881-28.0273L152.881-46.7285C152.881-50.6836 149.756-53.8086 145.801-53.8086L136.914-53.8086ZM151.514-31.543L179.736-31.543L179.736-41.7969L151.514-41.7969Z"/>
  </g>
  <g id="Regular-S" transform="matrix(1 0 0 1 1364.03 696)">
   <path class="SFSymbolsPreviewWireframe" d="M20.752-15.9668L117.09-15.9668C123.291-15.9668 128.076-20.752 128.076-26.9531L128.076-49.6582C128.076-55.8594 123.291-60.6934 117.09-60.6934L20.752-60.6934C14.502-60.6934 9.76562-55.8594 9.76562-49.6582L9.76562-26.9531C9.76562-20.752 14.502-15.9668 20.752-15.9668ZM23.0957-29.248C21.875-29.248 21.0449-30.0293 21.0449-31.25L21.0449-45.4102C21.0449-46.6797 21.875-47.4609 23.0957-47.4609L25.6348-47.4609C26.8555-47.4609 27.6367-46.6797 27.6367-45.4102L27.6367-31.25C27.6367-30.0293 26.8555-29.248 25.6348-29.248ZM47.0215-25.9766C40.2344-25.9766 34.7168-31.4941 34.7168-38.2812C34.7168-45.0684 40.2344-50.6348 47.0215-50.6348C53.8086-50.6348 59.375-45.0684 59.375-38.2812C59.375-31.4941 53.8086-25.9766 47.0215-25.9766ZM76.6602-25.9766C69.9219-25.9766 64.4043-31.4941 64.4043-38.2812C64.4043-45.0684 69.9219-50.6348 76.6602-50.6348C83.4961-50.6348 89.0137-45.0684 89.0137-38.2812C89.0137-31.4941 83.4961-25.9766 76.6602-25.9766ZM106.348-25.9766C99.5117-25.9766 94.0918-31.4941 94.0918-38.2812C94.0918-45.0684 99.5117-50.6348 106.348-50.6348C113.135-50.6348 118.701-45.0684 118.701-38.2812C118.701-31.4941 113.135-25.9766 106.348-25.9766ZM42.4316-31.9336C43.4082-31.9336 44.1406-32.666 44.1406-33.5938L44.1406-42.9688C44.1406-43.8965 43.4082-44.7266 42.4316-44.7266C41.5039-44.7266 40.625-43.8477 40.625-42.9688L40.625-33.5938C40.625-32.7148 41.5039-31.9336 42.4316-31.9336ZM51.6602-31.9336C52.5879-31.9336 53.3691-32.666 53.3691-33.5938L53.3691-42.9688C53.3691-43.8965 52.5879-44.7266 51.6602-44.7266C50.6348-44.7266 49.8047-43.8965 49.8047-42.9688L49.8047-33.5938C49.8047-32.666 50.6836-31.9336 51.6602-31.9336ZM72.0703-31.9336C73.0957-31.9336 73.8281-32.666 73.8281-33.5938L73.8281-42.9688C73.8281-43.8965 73.0957-44.7266 72.0703-44.7266C71.0938-44.7266 70.3125-43.8477 70.3125-42.9688L70.3125-33.5938C70.3125-32.666 71.0938-31.9336 72.0703-31.9336ZM81.2988-31.9336C82.2266-31.9336 83.0078-32.666 83.0078-33.5938L83.0078-42.9688C83.0078-43.8965 82.2754-44.7266 81.2988-44.7266C80.3223-44.7266 79.541-43.8965 79.541-42.9688L79.541-33.5938C79.541-32.666 80.3223-31.9336 81.2988-31.9336ZM101.758-31.9336C102.734-31.9336 103.516-32.666 103.516-33.5938L103.516-42.9688C103.516-43.8965 102.783-44.7266 101.758-44.7266C100.781-44.7266 100-43.8477 100-42.9688L100-33.5938C100-32.666 100.781-31.9336 101.758-31.9336ZM110.986-31.9336C111.914-31.9336 112.695-32.666 112.695-33.5938L112.695-42.9688C112.695-43.8965 111.914-44.7266 110.986-44.7266C109.961-44.7266 109.131-43.8965 109.131-42.9688L109.131-33.5938C109.131-32.666 110.01-31.9336 110.986-31.9336ZM126.221-25.4395L132.91-25.4395C135.449-25.4395 137.354-27.3926 137.354-29.9316L137.354-46.7285C137.354-49.2676 135.449-51.2207 132.91-51.2207L126.221-51.2207ZM136.133-34.8145L161.865-34.8145L161.865-41.8457L136.133-41.8457Z"/>
  </g>
  <g id="Ultralight-S" transform="matrix(1 0 0 1 480.389 696)">
   <path class="SFSymbolsPreviewWireframe" d="M19.6621-16.9658L112.231-16.9658C118.659-16.9658 122.127-20.5703 122.127-26.9077L122.127-47.1153C122.127-53.4527 118.659-57.0152 112.231-57.0152L19.6621-57.0152C13.2305-57.0152 9.76562-53.5435 9.76562-47.1153L9.76562-26.9077C9.76562-20.4795 13.2305-16.9658 19.6621-16.9658ZM22.5962-28.5669C21.6934-28.5669 21.0903-29.2119 21.0903-29.9785L21.0903-44.0025C21.0903-44.9541 21.6934-45.5083 22.5962-45.5083L25.8164-45.5083C26.6284-45.5083 27.228-44.9541 27.228-44.0025L27.228-29.9785C27.228-29.2119 26.6284-28.5669 25.8164-28.5669ZM45.2959-25.5679C38.9175-25.5679 33.854-30.6314 33.854-36.9644C33.854-43.2974 38.9175-48.4551 45.2959-48.4551C51.6289-48.4551 56.7412-43.2974 56.7412-36.9644C56.7412-30.6314 51.6289-25.5679 45.2959-25.5679ZM72.8911-25.5679C66.5161-25.5679 61.4527-30.6314 61.4527-36.9644C61.4527-43.2974 66.5161-48.4551 72.8911-48.4551C79.2276-48.4551 84.3365-43.2974 84.3365-36.9644C84.3365-30.6314 79.2276-25.5679 72.8911-25.5679ZM100.444-25.5679C94.0625-25.5679 89.0059-30.6314 89.0059-36.9644C89.0059-43.2974 94.0625-48.4551 100.444-48.4551C106.777-48.4551 111.89-43.2974 111.89-36.9644C111.89-30.6314 106.777-25.5679 100.444-25.5679ZM41.4326-30.7529C42.2275-30.7529 42.8692-31.3945 42.8692-32.2315L42.8692-41.7427C42.8692-42.5796 42.2275-43.228 41.4326-43.228C40.5957-43.228 39.9439-42.5762 39.9439-41.7427L39.9439-32.2315C39.9439-31.398 40.5957-30.7529 41.4326-30.7529ZM49.1626-30.7529C49.9995-30.7529 50.6446-31.3945 50.6446-32.2315L50.6446-41.7427C50.6446-42.5796 49.9995-43.228 49.1626-43.228C48.3189-43.228 47.6704-42.5796 47.6704-41.7427L47.6704-32.2315C47.6704-31.3945 48.3223-30.7529 49.1626-30.7529ZM69.0279-30.7529C69.8262-30.7529 70.4678-31.3945 70.4678-32.2315L70.4678-41.7427C70.4678-42.5796 69.8262-43.228 69.0279-43.228C68.1875-43.228 67.5425-42.5762 67.5425-41.7427L67.5425-32.2315C67.5425-31.3945 68.1875-30.7529 69.0279-30.7529ZM76.7578-30.7529C77.5948-30.7529 78.2398-31.3945 78.2398-32.2315L78.2398-41.7427C78.2398-42.5796 77.5982-43.228 76.7578-43.228C75.9175-43.228 75.2725-42.5796 75.2725-41.7427L75.2725-32.2315C75.2725-31.3945 75.9175-30.7529 76.7578-30.7529ZM96.5811-30.7529C97.376-30.7529 98.021-31.3945 98.021-32.2315L98.021-41.7427C98.021-42.5796 97.3794-43.228 96.5811-43.228C95.7408-43.228 95.0957-42.5762 95.0957-41.7427L95.0957-32.2315C95.0957-31.3945 95.7408-30.7529 96.5811-30.7529ZM104.311-30.7529C105.148-30.7529 105.793-31.3945 105.793-32.2315L105.793-41.7427C105.793-42.5796 105.148-43.228 104.311-43.228C103.467-43.228 102.819-42.5796 102.819-41.7427L102.819-32.2315C102.819-31.3945 103.471-30.7529 104.311-30.7529ZM120.953-24.6675L123.601-24.6675C126.731-24.6675 128.544-26.4844 128.544-29.6138L128.544-44.4126C128.544-47.542 126.731-49.3589 123.601-49.3589L120.953-49.3589ZM127.959-35.2686L148.878-35.2686L148.878-37.4864L127.959-37.4864Z"/>
  </g>
 </g>
</svg>
