<?xml version="1.0" encoding="UTF-8"?>
<!--Generator: Apple Native CoreSVG 232.5-->
<!DOCTYPE svg
PUBLIC "-//W3C//DTD SVG 1.1//EN"
       "http://www.w3.org/Graphics/SVG/1.1/DTD/svg11.dtd">
<svg version="1.1" xmlns="http://www.w3.org/2000/svg" xmlns:xlink="http://www.w3.org/1999/xlink" width="3300" height="2200">
 <!--glyph: "uni101BF4.medium", point size: 100.0, font version: "19.2d2e1", template writer version: "128"-->
 <style>.SFSymbolsPreviewWireframe {fill:none;opacity:1.0;stroke:black;stroke-width:0.5}
</style>
 <g id="Notes">
  <rect height="2200" id="artboard" style="fill:white;opacity:1" width="3300" x="0" y="0"/>
  <line style="fill:none;stroke:black;opacity:1;stroke-width:0.5;" x1="263" x2="3036" y1="292" y2="292"/>
  <text style="stroke:none;fill:black;font-family:sans-serif;font-size:13;font-weight:bold;" transform="matrix(1 0 0 1 263 322)">Weight/Scale Variations</text>
  <text style="stroke:none;fill:black;font-family:sans-serif;font-size:13;text-anchor:middle;" transform="matrix(1 0 0 1 559.711 322)">Ultralight</text>
  <text style="stroke:none;fill:black;font-family:sans-serif;font-size:13;text-anchor:middle;" transform="matrix(1 0 0 1 856.422 322)">Thin</text>
  <text style="stroke:none;fill:black;font-family:sans-serif;font-size:13;text-anchor:middle;" transform="matrix(1 0 0 1 1153.13 322)">Light</text>
  <text style="stroke:none;fill:black;font-family:sans-serif;font-size:13;text-anchor:middle;" transform="matrix(1 0 0 1 1449.84 322)">Regular</text>
  <text style="stroke:none;fill:black;font-family:sans-serif;font-size:13;text-anchor:middle;" transform="matrix(1 0 0 1 1746.56 322)">Medium</text>
  <text style="stroke:none;fill:black;font-family:sans-serif;font-size:13;text-anchor:middle;" transform="matrix(1 0 0 1 2043.27 322)">Semibold</text>
  <text style="stroke:none;fill:black;font-family:sans-serif;font-size:13;text-anchor:middle;" transform="matrix(1 0 0 1 2339.98 322)">Bold</text>
  <text style="stroke:none;fill:black;font-family:sans-serif;font-size:13;text-anchor:middle;" transform="matrix(1 0 0 1 2636.69 322)">Heavy</text>
  <text style="stroke:none;fill:black;font-family:sans-serif;font-size:13;text-anchor:middle;" transform="matrix(1 0 0 1 2933.4 322)">Black</text>
  <line style="fill:none;stroke:black;opacity:1;stroke-width:0.5;" x1="263" x2="3036" y1="1903" y2="1903"/>
  <g transform="matrix(0.2 0 0 0.2 263 1933)">
   <path d="m46.2402 4.15039c21.5332 0 39.4531-17.8711 39.4531-39.4043s-17.9688-39.4043-39.502-39.4043c-21.4844 0-39.3555 17.8711-39.3555 39.4043s17.9199 39.4043 39.4043 39.4043Zm0-7.42188c-17.7246 0-31.8848-14.209-31.8848-31.9824s14.1113-31.9824 31.8359-31.9824c17.7734 0 32.0312 14.209 32.0312 31.9824s-14.209 31.9824-31.9824 31.9824Zm-17.9688-31.9824c0 2.14844 1.51367 3.61328 3.75977 3.61328h10.498v10.5957c0 2.19727 1.46484 3.71094 3.61328 3.71094 2.24609 0 3.71094-1.51367 3.71094-3.71094v-10.5957h10.5957c2.19727 0 3.71094-1.46484 3.71094-3.61328 0-2.19727-1.51367-3.71094-3.71094-3.71094h-10.5957v-10.5469c0-2.24609-1.46484-3.75977-3.71094-3.75977-2.14844 0-3.61328 1.51367-3.61328 3.75977v10.5469h-10.498c-2.24609 0-3.75977 1.51367-3.75977 3.71094Z"/>
  </g>
  <g transform="matrix(0.2 0 0 0.2 281.506 1933)">
   <path d="m58.5449 14.5508c27.2461 0 49.8047-22.6074 49.8047-49.8047 0-27.2461-22.6074-49.8047-49.8535-49.8047-27.1973 0-49.7559 22.5586-49.7559 49.8047 0 27.1973 22.6074 49.8047 49.8047 49.8047Zm0-8.30078c-23.0469 0-41.4551-18.457-41.4551-41.5039s18.3594-41.5039 41.4062-41.5039 41.5527 18.457 41.5527 41.5039-18.457 41.5039-41.5039 41.5039Zm-22.6562-41.5039c0 2.39258 1.66016 4.00391 4.15039 4.00391h14.3555v14.4043c0 2.44141 1.66016 4.15039 4.05273 4.15039 2.44141 0 4.15039-1.66016 4.15039-4.15039v-14.4043h14.4043c2.44141 0 4.15039-1.61133 4.15039-4.00391 0-2.44141-1.70898-4.15039-4.15039-4.15039h-14.4043v-14.3555c0-2.49023-1.70898-4.19922-4.15039-4.19922-2.39258 0-4.05273 1.70898-4.05273 4.19922v14.3555h-14.3555c-2.49023 0-4.15039 1.70898-4.15039 4.15039Z"/>
  </g>
  <g transform="matrix(0.2 0 0 0.2 304.924 1933)">
   <path d="m74.8535 28.3203c34.8145 0 63.623-28.8086 63.623-63.5742 0-34.8145-28.8574-63.623-63.6719-63.623-34.7656 0-63.5254 28.8086-63.5254 63.623 0 34.7656 28.8086 63.5742 63.5742 63.5742Zm0-9.08203c-30.1758 0-54.4434-24.3164-54.4434-54.4922 0-30.2246 24.2188-54.4922 54.3945-54.4922 30.2246 0 54.541 24.2676 54.541 54.4922 0 30.1758-24.2676 54.4922-54.4922 54.4922Zm-28.8574-54.4922c0 2.58789 1.85547 4.39453 4.58984 4.39453h19.7266v19.7754c0 2.68555 1.85547 4.58984 4.44336 4.58984 2.68555 0 4.54102-1.85547 4.54102-4.58984v-19.7754h19.7754c2.68555 0 4.58984-1.80664 4.58984-4.39453 0-2.73438-1.85547-4.58984-4.58984-4.58984h-19.7754v-19.7266c0-2.73438-1.85547-4.63867-4.54102-4.63867-2.58789 0-4.44336 1.9043-4.44336 4.63867v19.7266h-19.7266c-2.73438 0-4.58984 1.85547-4.58984 4.58984Z"/>
  </g>
  <text style="stroke:none;fill:black;font-family:sans-serif;font-size:13;font-weight:bold;" transform="matrix(1 0 0 1 263 1953)">Design Variations</text>
  <text style="stroke:none;fill:black;font-family:sans-serif;font-size:13;" transform="matrix(1 0 0 1 263 1971)">Symbols are supported in up to nine weights and three scales.</text>
  <text style="stroke:none;fill:black;font-family:sans-serif;font-size:13;" transform="matrix(1 0 0 1 263 1989)">For optimal layout with text and other symbols, vertically align</text>
  <text style="stroke:none;fill:black;font-family:sans-serif;font-size:13;" transform="matrix(1 0 0 1 263 2007)">symbols with the adjacent text.</text>
  <line style="fill:none;stroke:#00AEEF;stroke-width:0.5;opacity:1.0;" x1="776" x2="776" y1="1919" y2="1933"/>
  <g transform="matrix(0.2 0 0 0.2 776 1933)">
   <path d="m16.5527 0.78125c2.58789 0 3.85742-0.976562 4.78516-3.71094l6.29883-17.2363h28.8086l6.29883 17.2363c0.927734 2.73438 2.19727 3.71094 4.73633 3.71094 2.58789 0 4.24805-1.5625 4.24805-4.00391 0-0.830078-0.146484-1.61133-0.537109-2.63672l-22.9004-60.9863c-1.12305-2.97852-3.125-4.49219-6.25-4.49219-3.02734 0-5.07812 1.46484-6.15234 4.44336l-22.9004 61.084c-0.390625 1.02539-0.537109 1.80664-0.537109 2.63672 0 2.44141 1.5625 3.95508 4.10156 3.95508Zm13.4766-28.3691 11.8652-32.8613h0.244141l11.8652 32.8613Z"/>
  </g>
  <line style="fill:none;stroke:#00AEEF;stroke-width:0.5;opacity:1.0;" x1="792.836" x2="792.836" y1="1919" y2="1933"/>
  <text style="stroke:none;fill:black;font-family:sans-serif;font-size:13;font-weight:bold;" transform="matrix(1 0 0 1 776 1953)">Margins</text>
  <text style="stroke:none;fill:black;font-family:sans-serif;font-size:13;" transform="matrix(1 0 0 1 776 1971)">Leading and trailing margins on the left and right side of each symbol</text>
  <text style="stroke:none;fill:black;font-family:sans-serif;font-size:13;" transform="matrix(1 0 0 1 776 1989)">can be adjusted by modifying the x-location of the margin guidelines.</text>
  <text style="stroke:none;fill:black;font-family:sans-serif;font-size:13;" transform="matrix(1 0 0 1 776 2007)">Modifications are automatically applied proportionally to all</text>
  <text style="stroke:none;fill:black;font-family:sans-serif;font-size:13;" transform="matrix(1 0 0 1 776 2025)">scales and weights.</text>
  <g transform="matrix(0.2 0 0 0.2 1289 1933)">
   <path d="m14.209 9.32617 8.49609 8.54492c4.29688 4.3457 9.22852 4.05273 13.8672-1.07422l53.4668-58.9355-4.83398-4.88281-53.0762 58.3984c-1.75781 2.00195-3.41797 2.49023-5.76172 0.146484l-5.85938-5.81055c-2.34375-2.29492-1.80664-4.00391 0.195312-5.81055l57.373-54.0039-4.88281-4.83398-57.959 54.4434c-4.93164 4.58984-5.32227 9.47266-1.02539 13.8184Zm32.0801-90.9668c-2.09961 2.05078-2.24609 4.93164-1.07422 6.88477 1.17188 1.80664 3.4668 2.97852 6.68945 2.14844 7.32422-1.70898 14.9414-2.00195 22.0703 2.68555l-2.92969 7.27539c-1.70898 4.15039-0.830078 7.08008 1.85547 9.81445l11.4746 11.5723c2.44141 2.44141 4.49219 2.53906 7.32422 2.05078l5.32227-0.976562 3.32031 3.36914-0.195312 2.7832c-0.195312 2.49023 0.439453 4.39453 2.88086 6.78711l3.80859 3.71094c2.39258 2.39258 5.46875 2.53906 7.8125 0.195312l14.5508-14.5996c2.34375-2.34375 2.24609-5.32227-0.146484-7.71484l-3.85742-3.80859c-2.39258-2.39258-4.24805-3.17383-6.64062-2.97852l-2.88086 0.244141-3.22266-3.17383 1.2207-5.61523c0.634766-2.83203-0.146484-5.0293-3.07617-7.95898l-10.9863-10.9375c-16.6992-16.6016-38.8672-16.2109-53.3203-1.75781Zm7.4707 1.85547c12.1582-8.88672 28.6133-7.37305 39.7461 3.75977l12.1582 12.0605c1.17188 1.17188 1.36719 2.09961 1.02539 3.80859l-1.61133 7.42188 7.51953 7.42188 4.93164-0.292969c1.26953-0.0488281 1.66016 0.0488281 2.63672 1.02539l2.88086 2.88086-12.207 12.207-2.88086-2.88086c-0.976562-0.976562-1.12305-1.36719-1.07422-2.68555l0.341797-4.88281-7.4707-7.42188-7.61719 1.26953c-1.61133 0.341797-2.34375 0.195312-3.56445-0.976562l-10.0098-10.0098c-1.26953-1.17188-1.41602-2.00195-0.634766-3.85742l4.39453-10.4492c-7.8125-7.27539-17.9688-10.4004-28.125-7.42188-0.78125 0.195312-1.07422-0.439453-0.439453-0.976562Z"/>
  </g>
  <text style="stroke:none;fill:black;font-family:sans-serif;font-size:13;font-weight:bold;" transform="matrix(1 0 0 1 1289 1953)">Exporting</text>
  <text style="stroke:none;fill:black;font-family:sans-serif;font-size:13;" transform="matrix(1 0 0 1 1289 1971)">Symbols should be outlined when exporting to ensure the</text>
  <text style="stroke:none;fill:black;font-family:sans-serif;font-size:13;" transform="matrix(1 0 0 1 1289 1989)">design is preserved when submitting to Xcode.</text>
  <text id="template-version" style="stroke:none;fill:black;font-family:sans-serif;font-size:13;text-anchor:end;" transform="matrix(1 0 0 1 3036 1933)">Template v.5.0</text>
  <text style="stroke:none;fill:black;font-family:sans-serif;font-size:13;text-anchor:end;" transform="matrix(1 0 0 1 3036 1951)">Requires Xcode 15 or greater</text>
  <text id="descriptive-name" style="stroke:none;fill:black;font-family:sans-serif;font-size:13;text-anchor:end;" transform="matrix(1 0 0 1 3036 1969)">Generated from printer.fill</text>
  <text style="stroke:none;fill:black;font-family:sans-serif;font-size:13;text-anchor:end;" transform="matrix(1 0 0 1 3036 1987)">Typeset at 100.0 points</text>
  <text style="stroke:none;fill:black;font-family:sans-serif;font-size:13;" transform="matrix(1 0 0 1 263 726)">Small</text>
  <text style="stroke:none;fill:black;font-family:sans-serif;font-size:13;" transform="matrix(1 0 0 1 263 1156)">Medium</text>
  <text style="stroke:none;fill:black;font-family:sans-serif;font-size:13;" transform="matrix(1 0 0 1 263 1586)">Large</text>
 </g>
 <g id="Guides">
  <g id="H-reference" style="fill:#27AAE1;stroke:none;" transform="matrix(1 0 0 1 339 696)">
   <path d="M0.993654 0L3.63775 0L29.3281-67.1323L30.0303-67.1323L30.0303-70.459L28.1226-70.459ZM11.6885-24.4799L46.9815-24.4799L46.2315-26.7285L12.4385-26.7285ZM55.1196 0L57.7637 0L30.6382-70.459L29.4326-70.459L29.4326-67.1323Z"/>
  </g>
  <line id="Baseline-S" style="fill:none;stroke:#27AAE1;opacity:1;stroke-width:0.5;" x1="263" x2="3036" y1="696" y2="696"/>
  <line id="Capline-S" style="fill:none;stroke:#27AAE1;opacity:1;stroke-width:0.5;" x1="263" x2="3036" y1="625.541" y2="625.541"/>
  <g id="H-reference" style="fill:#27AAE1;stroke:none;" transform="matrix(1 0 0 1 339 1126)">
   <path d="M0.993654 0L3.63775 0L29.3281-67.1323L30.0303-67.1323L30.0303-70.459L28.1226-70.459ZM11.6885-24.4799L46.9815-24.4799L46.2315-26.7285L12.4385-26.7285ZM55.1196 0L57.7637 0L30.6382-70.459L29.4326-70.459L29.4326-67.1323Z"/>
  </g>
  <line id="Baseline-M" style="fill:none;stroke:#27AAE1;opacity:1;stroke-width:0.5;" x1="263" x2="3036" y1="1126" y2="1126"/>
  <line id="Capline-M" style="fill:none;stroke:#27AAE1;opacity:1;stroke-width:0.5;" x1="263" x2="3036" y1="1055.54" y2="1055.54"/>
  <g id="H-reference" style="fill:#27AAE1;stroke:none;" transform="matrix(1 0 0 1 339 1556)">
   <path d="M0.993654 0L3.63775 0L29.3281-67.1323L30.0303-67.1323L30.0303-70.459L28.1226-70.459ZM11.6885-24.4799L46.9815-24.4799L46.2315-26.7285L12.4385-26.7285ZM55.1196 0L57.7637 0L30.6382-70.459L29.4326-70.459L29.4326-67.1323Z"/>
  </g>
  <line id="Baseline-L" style="fill:none;stroke:#27AAE1;opacity:1;stroke-width:0.5;" x1="263" x2="3036" y1="1556" y2="1556"/>
  <line id="Capline-L" style="fill:none;stroke:#27AAE1;opacity:1;stroke-width:0.5;" x1="263" x2="3036" y1="1485.54" y2="1485.54"/>
  <line id="left-margin-Ultralight-S" style="fill:none;stroke:#00AEEF;stroke-width:0.5;opacity:1.0;" x1="509.279" x2="509.279" y1="600.785" y2="720.121"/>
  <line id="right-margin-Ultralight-S" style="fill:none;stroke:#00AEEF;stroke-width:0.5;opacity:1.0;" x1="610.143" x2="610.143" y1="600.785" y2="720.121"/>
  <line id="left-margin-Regular-S" style="fill:none;stroke:#00AEEF;stroke-width:0.5;opacity:1.0;" x1="1396.6" x2="1396.6" y1="600.785" y2="720.121"/>
  <line id="right-margin-Regular-S" style="fill:none;stroke:#00AEEF;stroke-width:0.5;opacity:1.0;" x1="1503.09" x2="1503.09" y1="600.785" y2="720.121"/>
  <line id="left-margin-Black-S" style="fill:none;stroke:#00AEEF;stroke-width:0.5;opacity:1.0;" x1="2878.37" x2="2878.37" y1="600.785" y2="720.121"/>
  <line id="right-margin-Black-S" style="fill:none;stroke:#00AEEF;stroke-width:0.5;opacity:1.0;" x1="2988.43" x2="2988.43" y1="600.785" y2="720.121"/>
 </g>
 <g id="Symbols">
  <g id="Black-S" transform="matrix(1 0 0 1 2878.37 696)">
   <path class="SFSymbolsPreviewWireframe" d="M27.0508-62.5L84.8633-62.5L84.8633-68.8477C84.8633-78.125 80.2734-82.7148 70.9961-82.7148L40.918-82.7148C31.6406-82.7148 27.0508-78.125 27.0508-68.8477ZM24.5117 0.830078L85.5469 0.830078C98.3887 0.830078 106.641-7.42188 106.641-20.2637L106.641-49.3164C106.641-62.1582 98.3887-70.4102 85.5469-70.4102L24.5117-70.4102C11.6699-70.4102 3.41797-62.1582 3.41797-49.3164L3.41797-20.2637C3.41797-7.42188 11.6699 0.830078 24.5117 0.830078ZM24.5117-5.51758L85.5469-5.51758C94.873-5.51758 100.293-10.9375 100.293-20.2637L100.293-49.3164C100.293-58.6426 94.873-64.0625 85.5469-64.0625L24.5117-64.0625C15.1855-64.0625 9.76562-58.6426 9.76562-49.3164L9.76562-20.2637C9.76562-10.9375 15.1855-5.51758 24.5117-5.51758ZM77.2949-41.0645C74.0723-41.0645 71.4355-43.7012 71.4355-46.9238C71.4355-50.1465 74.0723-52.7832 77.2949-52.7832C80.5176-52.7832 83.1543-50.1465 83.1543-46.9238C83.1543-43.7012 80.5176-41.0645 77.2949-41.0645ZM25.5371 5.81055C25.5371 12.5977 30.5176 17.5781 37.3047 17.5781L72.5586 17.5781C79.3457 17.5781 84.3262 12.5977 84.3262 5.81055L84.3262-22.3145C84.3262-28.5156 79.7363-33.1055 73.5352-33.1055L36.3281-33.1055C30.127-33.1055 25.5371-28.5156 25.5371-22.3145ZM31.8848 5.81055C31.8848 9.08203 34.0332 11.2305 37.3047 11.2305L72.5586 11.2305C75.8301 11.2305 77.9785 9.08203 77.9785 5.81055L77.9785-22.3145C77.9785-25 76.2207-26.7578 73.5352-26.7578L36.3281-26.7578C33.6426-26.7578 31.8848-25 31.8848-22.3145ZM45.459-10.4492C43.3594-10.4492 41.6992-12.1094 41.6992-14.209C41.6992-16.2598 43.3105-17.8711 45.459-17.8711L64.6973-17.8711C66.7969-17.8711 68.4082-16.2598 68.4082-14.209C68.4082-12.1094 66.7969-10.4492 64.6973-10.4492ZM45.459 2.34375C43.3105 2.34375 41.6992 0.732422 41.6992-1.31836C41.6992-3.41797 43.3594-5.07812 45.459-5.07812L64.6973-5.07812C66.7969-5.07812 68.4082-3.41797 68.4082-1.31836C68.4082 0.732422 66.7969 2.34375 64.6973 2.34375Z"/>
  </g>
  <g id="Regular-S" transform="matrix(1 0 0 1 1396.6 696)">
   <path class="SFSymbolsPreviewWireframe" d="M25-58.1055L82.0312-58.1055L82.0312-64.6973C82.0312-72.5586 78.0762-76.0254 70.6543-76.0254L36.377-76.0254C29.4434-76.0254 25-72.5586 25-64.6973ZM21.6309-2.39258L84.8633-2.39258C95.752-2.39258 102.441-8.83789 102.441-19.7754L102.441-50.0977C102.441-60.9863 95.752-67.4805 84.8633-67.4805L21.6309-67.4805C11.2305-67.4805 4.05273-60.9863 4.05273-50.0977L4.05273-19.7754C4.05273-8.83789 10.7422-2.39258 21.6309-2.39258ZM21.6309-8.10547L84.8633-8.10547C92.5781-8.10547 96.7285-12.0605 96.7285-19.7754L96.7285-50.0977C96.7285-57.8125 92.5781-61.7676 84.8633-61.7676L21.6309-61.7676C14.3555-61.7676 9.76562-57.8125 9.76562-50.0977L9.76562-19.7754C9.76562-12.0605 13.916-8.10547 21.6309-8.10547ZM77.1973-43.6523C74.4141-43.6523 72.168-45.8984 72.168-48.6816C72.168-51.416 74.4141-53.7109 77.1973-53.7109C79.9316-53.7109 82.2266-51.416 82.2266-48.6816C82.2266-45.9473 79.9316-43.6523 77.1973-43.6523ZM22.2168 2.00195C22.2168 8.25195 26.8066 12.8418 33.0566 12.8418L73.4375 12.8418C79.6875 12.8418 84.2773 8.25195 84.2773 2.00195L84.2773-28.418C84.2773-33.5449 80.4199-37.4023 75.293-37.4023L31.2012-37.4023C26.0742-37.4023 22.2168-33.5449 22.2168-28.418ZM27.9297 2.00195C27.9297 5.07812 29.9805 7.12891 33.0566 7.12891L73.4375 7.12891C76.5137 7.12891 78.6133 5.07812 78.6133 2.00195L78.6133-28.418C78.6133-30.4199 77.2949-31.7383 75.293-31.7383L31.2012-31.7383C29.1992-31.7383 27.9297-30.4199 27.9297-28.418ZM41.6016-16.4062C39.9902-16.4062 38.8184-17.627 38.8184-19.1895C38.8184-20.7031 39.9902-21.9238 41.6016-21.9238L64.9902-21.9238C66.5527-21.9238 67.7246-20.7031 67.7246-19.1895C67.7246-17.627 66.5527-16.4062 64.9902-16.4062ZM41.6016-2.68555C39.9902-2.68555 38.8184-3.85742 38.8184-5.37109C38.8184-6.98242 39.9902-8.20312 41.6016-8.20312L64.9902-8.20312C66.5527-8.20312 67.7246-6.98242 67.7246-5.37109C67.7246-3.85742 66.5527-2.68555 64.9902-2.68555Z"/>
  </g>
  <g id="Ultralight-S" transform="matrix(1 0 0 1 509.279 696)">
   <path class="SFSymbolsPreviewWireframe" d="M24.4097-60.6938L76.5367-60.6938L76.5367-66.4682C76.5367-72.1953 73.9439-74.7085 68.2476-74.7085L32.7442-74.7085C27.082-74.7085 24.4097-72.1953 24.4097-66.4682ZM18.9517-4.75389L81.8662-4.75389C89.7124-4.75389 94.1768-9.06494 94.1768-17.0054L94.1768-51.8232C94.1768-59.7149 89.7124-64.0293 81.8662-64.0293L18.9517-64.0293C11.1851-64.0293 6.6865-59.7149 6.6865-51.8232L6.6865-17.0054C6.6865-9.06494 11.1509-4.75389 18.9517-4.75389ZM18.9517-7.83301L81.8662-7.83301C88.0371-7.83301 91.0977-10.7891 91.0977-17.0054L91.0977-51.8232C91.0977-57.9941 88.0371-60.9956 81.8662-60.9956L18.9517-60.9956C12.8569-60.9956 9.76562-57.9941 9.76562-51.8232L9.76562-17.0054C9.76562-10.7891 12.8262-7.83301 18.9517-7.83301ZM72.2022-46.0591C69.8277-46.0591 67.8086-47.8965 67.8086-50.4072C67.8086-52.6875 69.8277-54.71 72.2022-54.71C74.4825-54.71 76.5049-52.6875 76.5049-50.4072C76.5049-48.0361 74.4825-46.0591 72.2022-46.0591ZM22.8979-1.0405C22.8979 3.75638 26.398 7.16557 31.1948 7.16557L69.7593 7.16557C74.5562 7.16557 78.0562 3.75638 78.0562-1.0405L78.0562-33.0044C78.0562-37.768 74.6075-41.1714 69.8438-41.1714L31.1104-41.1714C26.3467-41.1714 22.8979-37.768 22.8979-33.0044ZM25.9771-1.0405C25.9771 2.08108 28.0733 4.13186 31.1948 4.13186L69.7593 4.13186C72.8809 4.13186 74.9805 2.08108 74.9805-1.0405L74.9805-33.0044C74.9805-36.0961 72.9356-38.0957 69.8438-38.0957L31.1104-38.0957C28.0186-38.0957 25.9771-36.0961 25.9771-33.0044ZM36.0616-22.7182C35.4493-22.7182 34.9585-23.2124 34.9585-23.7758C34.9585-24.3813 35.4493-24.8301 36.0616-24.8301L64.8994-24.8301C65.5083-24.8301 65.999-24.3813 65.999-23.7758C65.999-23.2124 65.5083-22.7182 64.8994-22.7182ZM36.0616-9.13374C35.4493-9.13374 34.9585-9.62447 34.9585-10.1845C34.9585-10.7968 35.4493-11.2456 36.0616-11.2456L64.8994-11.2456C65.5083-11.2456 65.999-10.7968 65.999-10.1845C65.999-9.62447 65.5083-9.13374 64.8994-9.13374Z"/>
  </g>
 </g>
</svg>
