<?xml version="1.0" encoding="UTF-8"?>
<!--Generator: Apple Native CoreSVG 232.5-->
<!DOCTYPE svg
PUBLIC "-//W3C//DTD SVG 1.1//EN"
       "http://www.w3.org/Graphics/SVG/1.1/DTD/svg11.dtd">
<svg version="1.1" xmlns="http://www.w3.org/2000/svg" xmlns:xlink="http://www.w3.org/1999/xlink" width="3300" height="2200">
 <!--glyph: "uni100A15.medium", point size: 100.0, font version: "19.2d2e1", template writer version: "128"-->
 <style>.SFSymbolsPreviewWireframe {fill:none;opacity:1.0;stroke:black;stroke-width:0.5}
</style>
 <g id="Notes">
  <rect height="2200" id="artboard" style="fill:white;opacity:1" width="3300" x="0" y="0"/>
  <line style="fill:none;stroke:black;opacity:1;stroke-width:0.5;" x1="263" x2="3036" y1="292" y2="292"/>
  <text style="stroke:none;fill:black;font-family:sans-serif;font-size:13;font-weight:bold;" transform="matrix(1 0 0 1 263 322)">Weight/Scale Variations</text>
  <text style="stroke:none;fill:black;font-family:sans-serif;font-size:13;text-anchor:middle;" transform="matrix(1 0 0 1 559.711 322)">Ultralight</text>
  <text style="stroke:none;fill:black;font-family:sans-serif;font-size:13;text-anchor:middle;" transform="matrix(1 0 0 1 856.422 322)">Thin</text>
  <text style="stroke:none;fill:black;font-family:sans-serif;font-size:13;text-anchor:middle;" transform="matrix(1 0 0 1 1153.13 322)">Light</text>
  <text style="stroke:none;fill:black;font-family:sans-serif;font-size:13;text-anchor:middle;" transform="matrix(1 0 0 1 1449.84 322)">Regular</text>
  <text style="stroke:none;fill:black;font-family:sans-serif;font-size:13;text-anchor:middle;" transform="matrix(1 0 0 1 1746.56 322)">Medium</text>
  <text style="stroke:none;fill:black;font-family:sans-serif;font-size:13;text-anchor:middle;" transform="matrix(1 0 0 1 2043.27 322)">Semibold</text>
  <text style="stroke:none;fill:black;font-family:sans-serif;font-size:13;text-anchor:middle;" transform="matrix(1 0 0 1 2339.98 322)">Bold</text>
  <text style="stroke:none;fill:black;font-family:sans-serif;font-size:13;text-anchor:middle;" transform="matrix(1 0 0 1 2636.69 322)">Heavy</text>
  <text style="stroke:none;fill:black;font-family:sans-serif;font-size:13;text-anchor:middle;" transform="matrix(1 0 0 1 2933.4 322)">Black</text>
  <line style="fill:none;stroke:black;opacity:1;stroke-width:0.5;" x1="263" x2="3036" y1="1903" y2="1903"/>
  <g transform="matrix(0.2 0 0 0.2 263 1933)">
   <path d="m46.2402 4.15039c21.5332 0 39.4531-17.8711 39.4531-39.4043s-17.9688-39.4043-39.502-39.4043c-21.4844 0-39.3555 17.8711-39.3555 39.4043s17.9199 39.4043 39.4043 39.4043Zm0-7.42188c-17.7246 0-31.8848-14.209-31.8848-31.9824s14.1113-31.9824 31.8359-31.9824c17.7734 0 32.0312 14.209 32.0312 31.9824s-14.209 31.9824-31.9824 31.9824Zm-17.9688-31.9824c0 2.14844 1.51367 3.61328 3.75977 3.61328h10.498v10.5957c0 2.19727 1.46484 3.71094 3.61328 3.71094 2.24609 0 3.71094-1.51367 3.71094-3.71094v-10.5957h10.5957c2.19727 0 3.71094-1.46484 3.71094-3.61328 0-2.19727-1.51367-3.71094-3.71094-3.71094h-10.5957v-10.5469c0-2.24609-1.46484-3.75977-3.71094-3.75977-2.14844 0-3.61328 1.51367-3.61328 3.75977v10.5469h-10.498c-2.24609 0-3.75977 1.51367-3.75977 3.71094Z"/>
  </g>
  <g transform="matrix(0.2 0 0 0.2 281.506 1933)">
   <path d="m58.5449 14.5508c27.2461 0 49.8047-22.6074 49.8047-49.8047 0-27.2461-22.6074-49.8047-49.8535-49.8047-27.1973 0-49.7559 22.5586-49.7559 49.8047 0 27.1973 22.6074 49.8047 49.8047 49.8047Zm0-8.30078c-23.0469 0-41.4551-18.457-41.4551-41.5039s18.3594-41.5039 41.4062-41.5039 41.5527 18.457 41.5527 41.5039-18.457 41.5039-41.5039 41.5039Zm-22.6562-41.5039c0 2.39258 1.66016 4.00391 4.15039 4.00391h14.3555v14.4043c0 2.44141 1.66016 4.15039 4.05273 4.15039 2.44141 0 4.15039-1.66016 4.15039-4.15039v-14.4043h14.4043c2.44141 0 4.15039-1.61133 4.15039-4.00391 0-2.44141-1.70898-4.15039-4.15039-4.15039h-14.4043v-14.3555c0-2.49023-1.70898-4.19922-4.15039-4.19922-2.39258 0-4.05273 1.70898-4.05273 4.19922v14.3555h-14.3555c-2.49023 0-4.15039 1.70898-4.15039 4.15039Z"/>
  </g>
  <g transform="matrix(0.2 0 0 0.2 304.924 1933)">
   <path d="m74.8535 28.3203c34.8145 0 63.623-28.8086 63.623-63.5742 0-34.8145-28.8574-63.623-63.6719-63.623-34.7656 0-63.5254 28.8086-63.5254 63.623 0 34.7656 28.8086 63.5742 63.5742 63.5742Zm0-9.08203c-30.1758 0-54.4434-24.3164-54.4434-54.4922 0-30.2246 24.2188-54.4922 54.3945-54.4922 30.2246 0 54.541 24.2676 54.541 54.4922 0 30.1758-24.2676 54.4922-54.4922 54.4922Zm-28.8574-54.4922c0 2.58789 1.85547 4.39453 4.58984 4.39453h19.7266v19.7754c0 2.68555 1.85547 4.58984 4.44336 4.58984 2.68555 0 4.54102-1.85547 4.54102-4.58984v-19.7754h19.7754c2.68555 0 4.58984-1.80664 4.58984-4.39453 0-2.73438-1.85547-4.58984-4.58984-4.58984h-19.7754v-19.7266c0-2.73438-1.85547-4.63867-4.54102-4.63867-2.58789 0-4.44336 1.9043-4.44336 4.63867v19.7266h-19.7266c-2.73438 0-4.58984 1.85547-4.58984 4.58984Z"/>
  </g>
  <text style="stroke:none;fill:black;font-family:sans-serif;font-size:13;font-weight:bold;" transform="matrix(1 0 0 1 263 1953)">Design Variations</text>
  <text style="stroke:none;fill:black;font-family:sans-serif;font-size:13;" transform="matrix(1 0 0 1 263 1971)">Symbols are supported in up to nine weights and three scales.</text>
  <text style="stroke:none;fill:black;font-family:sans-serif;font-size:13;" transform="matrix(1 0 0 1 263 1989)">For optimal layout with text and other symbols, vertically align</text>
  <text style="stroke:none;fill:black;font-family:sans-serif;font-size:13;" transform="matrix(1 0 0 1 263 2007)">symbols with the adjacent text.</text>
  <line style="fill:none;stroke:#00AEEF;stroke-width:0.5;opacity:1.0;" x1="776" x2="776" y1="1919" y2="1933"/>
  <g transform="matrix(0.2 0 0 0.2 776 1933)">
   <path d="m16.5527 0.78125c2.58789 0 3.85742-0.976562 4.78516-3.71094l6.29883-17.2363h28.8086l6.29883 17.2363c0.927734 2.73438 2.19727 3.71094 4.73633 3.71094 2.58789 0 4.24805-1.5625 4.24805-4.00391 0-0.830078-0.146484-1.61133-0.537109-2.63672l-22.9004-60.9863c-1.12305-2.97852-3.125-4.49219-6.25-4.49219-3.02734 0-5.07812 1.46484-6.15234 4.44336l-22.9004 61.084c-0.390625 1.02539-0.537109 1.80664-0.537109 2.63672 0 2.44141 1.5625 3.95508 4.10156 3.95508Zm13.4766-28.3691 11.8652-32.8613h0.244141l11.8652 32.8613Z"/>
  </g>
  <line style="fill:none;stroke:#00AEEF;stroke-width:0.5;opacity:1.0;" x1="792.836" x2="792.836" y1="1919" y2="1933"/>
  <text style="stroke:none;fill:black;font-family:sans-serif;font-size:13;font-weight:bold;" transform="matrix(1 0 0 1 776 1953)">Margins</text>
  <text style="stroke:none;fill:black;font-family:sans-serif;font-size:13;" transform="matrix(1 0 0 1 776 1971)">Leading and trailing margins on the left and right side of each symbol</text>
  <text style="stroke:none;fill:black;font-family:sans-serif;font-size:13;" transform="matrix(1 0 0 1 776 1989)">can be adjusted by modifying the x-location of the margin guidelines.</text>
  <text style="stroke:none;fill:black;font-family:sans-serif;font-size:13;" transform="matrix(1 0 0 1 776 2007)">Modifications are automatically applied proportionally to all</text>
  <text style="stroke:none;fill:black;font-family:sans-serif;font-size:13;" transform="matrix(1 0 0 1 776 2025)">scales and weights.</text>
  <g transform="matrix(0.2 0 0 0.2 1289 1933)">
   <path d="m14.209 9.32617 8.49609 8.54492c4.29688 4.3457 9.22852 4.05273 13.8672-1.07422l53.4668-58.9355-4.83398-4.88281-53.0762 58.3984c-1.75781 2.00195-3.41797 2.49023-5.76172 0.146484l-5.85938-5.81055c-2.34375-2.29492-1.80664-4.00391 0.195312-5.81055l57.373-54.0039-4.88281-4.83398-57.959 54.4434c-4.93164 4.58984-5.32227 9.47266-1.02539 13.8184Zm32.0801-90.9668c-2.09961 2.05078-2.24609 4.93164-1.07422 6.88477 1.17188 1.80664 3.4668 2.97852 6.68945 2.14844 7.32422-1.70898 14.9414-2.00195 22.0703 2.68555l-2.92969 7.27539c-1.70898 4.15039-0.830078 7.08008 1.85547 9.81445l11.4746 11.5723c2.44141 2.44141 4.49219 2.53906 7.32422 2.05078l5.32227-0.976562 3.32031 3.36914-0.195312 2.7832c-0.195312 2.49023 0.439453 4.39453 2.88086 6.78711l3.80859 3.71094c2.39258 2.39258 5.46875 2.53906 7.8125 0.195312l14.5508-14.5996c2.34375-2.34375 2.24609-5.32227-0.146484-7.71484l-3.85742-3.80859c-2.39258-2.39258-4.24805-3.17383-6.64062-2.97852l-2.88086 0.244141-3.22266-3.17383 1.2207-5.61523c0.634766-2.83203-0.146484-5.0293-3.07617-7.95898l-10.9863-10.9375c-16.6992-16.6016-38.8672-16.2109-53.3203-1.75781Zm7.4707 1.85547c12.1582-8.88672 28.6133-7.37305 39.7461 3.75977l12.1582 12.0605c1.17188 1.17188 1.36719 2.09961 1.02539 3.80859l-1.61133 7.42188 7.51953 7.42188 4.93164-0.292969c1.26953-0.0488281 1.66016 0.0488281 2.63672 1.02539l2.88086 2.88086-12.207 12.207-2.88086-2.88086c-0.976562-0.976562-1.12305-1.36719-1.07422-2.68555l0.341797-4.88281-7.4707-7.42188-7.61719 1.26953c-1.61133 0.341797-2.34375 0.195312-3.56445-0.976562l-10.0098-10.0098c-1.26953-1.17188-1.41602-2.00195-0.634766-3.85742l4.39453-10.4492c-7.8125-7.27539-17.9688-10.4004-28.125-7.42188-0.78125 0.195312-1.07422-0.439453-0.439453-0.976562Z"/>
  </g>
  <text style="stroke:none;fill:black;font-family:sans-serif;font-size:13;font-weight:bold;" transform="matrix(1 0 0 1 1289 1953)">Exporting</text>
  <text style="stroke:none;fill:black;font-family:sans-serif;font-size:13;" transform="matrix(1 0 0 1 1289 1971)">Symbols should be outlined when exporting to ensure the</text>
  <text style="stroke:none;fill:black;font-family:sans-serif;font-size:13;" transform="matrix(1 0 0 1 1289 1989)">design is preserved when submitting to Xcode.</text>
  <text id="template-version" style="stroke:none;fill:black;font-family:sans-serif;font-size:13;text-anchor:end;" transform="matrix(1 0 0 1 3036 1933)">Template v.5.0</text>
  <text style="stroke:none;fill:black;font-family:sans-serif;font-size:13;text-anchor:end;" transform="matrix(1 0 0 1 3036 1951)">Requires Xcode 15 or greater</text>
  <text id="descriptive-name" style="stroke:none;fill:black;font-family:sans-serif;font-size:13;text-anchor:end;" transform="matrix(1 0 0 1 3036 1969)">Generated from rb.button.roundedbottom.horizontal</text>
  <text style="stroke:none;fill:black;font-family:sans-serif;font-size:13;text-anchor:end;" transform="matrix(1 0 0 1 3036 1987)">Typeset at 100.0 points</text>
  <text style="stroke:none;fill:black;font-family:sans-serif;font-size:13;" transform="matrix(1 0 0 1 263 726)">Small</text>
  <text style="stroke:none;fill:black;font-family:sans-serif;font-size:13;" transform="matrix(1 0 0 1 263 1156)">Medium</text>
  <text style="stroke:none;fill:black;font-family:sans-serif;font-size:13;" transform="matrix(1 0 0 1 263 1586)">Large</text>
 </g>
 <g id="Guides">
  <g id="H-reference" style="fill:#27AAE1;stroke:none;" transform="matrix(1 0 0 1 339 696)">
   <path d="M0.993654 0L3.63775 0L29.3281-67.1323L30.0303-67.1323L30.0303-70.459L28.1226-70.459ZM11.6885-24.4799L46.9815-24.4799L46.2315-26.7285L12.4385-26.7285ZM55.1196 0L57.7637 0L30.6382-70.459L29.4326-70.459L29.4326-67.1323Z"/>
  </g>
  <line id="Baseline-S" style="fill:none;stroke:#27AAE1;opacity:1;stroke-width:0.5;" x1="263" x2="3036" y1="696" y2="696"/>
  <line id="Capline-S" style="fill:none;stroke:#27AAE1;opacity:1;stroke-width:0.5;" x1="263" x2="3036" y1="625.541" y2="625.541"/>
  <g id="H-reference" style="fill:#27AAE1;stroke:none;" transform="matrix(1 0 0 1 339 1126)">
   <path d="M0.993654 0L3.63775 0L29.3281-67.1323L30.0303-67.1323L30.0303-70.459L28.1226-70.459ZM11.6885-24.4799L46.9815-24.4799L46.2315-26.7285L12.4385-26.7285ZM55.1196 0L57.7637 0L30.6382-70.459L29.4326-70.459L29.4326-67.1323Z"/>
  </g>
  <line id="Baseline-M" style="fill:none;stroke:#27AAE1;opacity:1;stroke-width:0.5;" x1="263" x2="3036" y1="1126" y2="1126"/>
  <line id="Capline-M" style="fill:none;stroke:#27AAE1;opacity:1;stroke-width:0.5;" x1="263" x2="3036" y1="1055.54" y2="1055.54"/>
  <g id="H-reference" style="fill:#27AAE1;stroke:none;" transform="matrix(1 0 0 1 339 1556)">
   <path d="M0.993654 0L3.63775 0L29.3281-67.1323L30.0303-67.1323L30.0303-70.459L28.1226-70.459ZM11.6885-24.4799L46.9815-24.4799L46.2315-26.7285L12.4385-26.7285ZM55.1196 0L57.7637 0L30.6382-70.459L29.4326-70.459L29.4326-67.1323Z"/>
  </g>
  <line id="Baseline-L" style="fill:none;stroke:#27AAE1;opacity:1;stroke-width:0.5;" x1="263" x2="3036" y1="1556" y2="1556"/>
  <line id="Capline-L" style="fill:none;stroke:#27AAE1;opacity:1;stroke-width:0.5;" x1="263" x2="3036" y1="1485.54" y2="1485.54"/>
  <line id="left-margin-Ultralight-S" style="fill:none;stroke:#00AEEF;stroke-width:0.5;opacity:1.0;" x1="508.689" x2="508.689" y1="600.785" y2="720.121"/>
  <line id="right-margin-Ultralight-S" style="fill:none;stroke:#00AEEF;stroke-width:0.5;opacity:1.0;" x1="610.733" x2="610.733" y1="600.785" y2="720.121"/>
  <line id="left-margin-Regular-S" style="fill:none;stroke:#00AEEF;stroke-width:0.5;opacity:1.0;" x1="1395.3" x2="1395.3" y1="600.785" y2="720.121"/>
  <line id="right-margin-Regular-S" style="fill:none;stroke:#00AEEF;stroke-width:0.5;opacity:1.0;" x1="1504.39" x2="1504.39" y1="600.785" y2="720.121"/>
  <line id="left-margin-Black-S" style="fill:none;stroke:#00AEEF;stroke-width:0.5;opacity:1.0;" x1="2876.86" x2="2876.86" y1="600.785" y2="720.121"/>
  <line id="right-margin-Black-S" style="fill:none;stroke:#00AEEF;stroke-width:0.5;opacity:1.0;" x1="2989.94" x2="2989.94" y1="600.785" y2="720.121"/>
 </g>
 <g id="Symbols">
  <g id="Black-S" transform="matrix(1 0 0 1 2876.86 696)">
   <path class="SFSymbolsPreviewWireframe" d="M42.5781 1.70898L70.5078 1.70898C93.9453 1.70898 103.32-7.95898 103.32-32.0801L103.32-56.8848C103.32-66.4551 97.6562-72.1191 88.0859-72.1191L25-72.1191C15.4297-72.1191 9.76562-66.4551 9.76562-56.8848L9.76562-32.0801C9.76562-7.95898 19.1406 1.70898 42.5781 1.70898ZM43.3594-12.4512C29.4922-12.4512 23.9258-18.1641 23.9258-32.373L23.9258-54.6387C23.9258-56.7383 25.1465-57.959 27.2461-57.959L85.8398-57.959C87.9395-57.959 89.1602-56.7383 89.1602-54.6387L89.1602-32.373C89.1602-18.1641 83.5938-12.4512 69.7266-12.4512ZM40.5762-20.6055C43.0176-20.6055 44.2871-22.1191 44.2871-24.5605L44.2871-30.9082L45.459-30.9082L47.5586-23.877C48.2422-21.6309 49.5117-20.6055 51.416-20.6055C53.5156-20.6055 55.0293-22.2168 54.9316-24.3652C54.8828-25.1465 54.7852-25.5859 54.541-26.2207L52.3438-32.4707C54.4922-34.082 55.3223-37.207 55.3223-39.9414C55.3223-46.2402 51.8555-49.3164 45.8984-49.3164L40.5762-49.3164C38.0859-49.3164 36.8164-47.8516 36.8164-45.3613L36.8164-24.5605C36.8164-22.0703 38.0859-20.6055 40.5762-20.6055ZM44.2871-35.9375L44.2871-43.7012L45.2637-43.7012C46.9727-43.7012 47.6562-41.5039 47.6562-39.7949C47.6562-37.9883 47.0215-35.9375 45.2148-35.9375ZM62.5977-21.0938L70.166-21.0938C74.9023-21.0938 77.3438-24.8047 77.3438-29.248C77.3438-32.7148 75.0488-35.8398 72.0703-35.9863L72.0703-36.1328C74.9023-36.5723 76.8555-39.2578 76.8555-42.2852C76.8555-46.6797 74.2188-49.3164 69.8242-49.3164L62.5977-49.3164C59.9609-49.3164 58.8379-47.6562 58.8379-45.4102L58.8379-25C58.8379-22.7539 59.9609-21.0938 62.5977-21.0938ZM66.3086-37.8906L66.3086-44.043L67.4805-44.043C69.2871-44.043 69.8242-42.8223 69.8242-41.0156C69.8242-39.1602 69.1406-37.8906 67.2852-37.8906ZM66.3086-26.3672L66.3086-33.3984L67.334-33.3984C69.1895-33.3984 69.9219-31.7871 69.9219-29.9316C69.9219-28.0273 69.2871-26.3672 67.3828-26.3672Z"/>
  </g>
  <g id="Regular-S" transform="matrix(1 0 0 1 1395.3 696)">
   <path class="SFSymbolsPreviewWireframe" d="M42.8223-1.36719L66.2598-1.36719C88.916-1.36719 99.3164-11.7188 99.3164-33.2031L99.3164-57.0801C99.3164-65.0879 95.166-69.1406 87.0605-69.1406L22.0215-69.1406C13.8672-69.1406 9.76562-65.0879 9.76562-57.0801L9.76562-33.2031C9.76562-11.7188 20.166-1.36719 42.8223-1.36719ZM42.8223-8.44727C24.9023-8.44727 16.7969-16.0645 16.7969-32.7148L16.7969-56.6895C16.7969-60.3027 18.7012-62.0605 22.168-62.0605L86.9141-62.0605C90.332-62.0605 92.2363-60.3027 92.2363-56.6895L92.2363-32.7148C92.2363-16.0645 84.1797-8.44727 66.2598-8.44727ZM36.2793-19.1406C38.2324-19.1406 39.4043-20.459 39.4043-22.4609L39.4043-31.2012L42.5293-31.2012L46.1914-21.7773C46.8262-20.166 47.7539-19.1406 49.5117-19.1406C50.8789-19.1406 52.4414-19.9707 52.4414-22.2168C52.4414-22.7051 52.1484-23.584 51.709-24.6094L48.4863-32.4707C51.5625-34.2285 52.6855-37.6465 52.6855-40.8691C52.6855-47.3145 48.8281-50.5859 42.7734-50.5859L36.2305-50.5859C34.2285-50.5859 33.0566-49.3652 33.0566-47.3633L33.0566-22.4609C33.0566-20.5078 34.2285-19.1406 36.2793-19.1406ZM39.4043-35.7422L39.4043-45.7031L42.1875-45.7031C44.9219-45.7031 46.3379-43.5059 46.3379-40.7715C46.3379-37.8906 45.0684-35.7422 42.1875-35.7422ZM60.6934-19.7266L68.9941-19.7266C74.4629-19.7266 77.5879-23.3887 77.5879-28.5156C77.5879-32.2754 75.293-35.6934 71.6797-36.0352L71.6797-36.2305C74.6094-36.7188 76.6602-39.9414 76.6602-42.9199C76.6602-47.9492 73.2422-50.6836 68.75-50.6836L60.6934-50.6836C58.6914-50.6836 57.5684-49.2676 57.5684-47.3633L57.5684-22.998C57.5684-20.9961 58.7402-19.7266 60.6934-19.7266ZM63.7695-37.7441L63.7695-45.9473L66.9434-45.9473C69.6777-45.9473 70.6543-44.1895 70.6543-41.9434C70.6543-39.3066 69.1406-37.7441 66.5039-37.7441ZM63.7695-24.4141L63.7695-33.5938L66.9434-33.5938C69.4336-33.5938 71.2891-32.2754 71.2891-29.0527C71.2891-26.1719 69.9219-24.4141 67.041-24.4141Z"/>
  </g>
  <g id="Ultralight-S" transform="matrix(1 0 0 1 508.689 696)">
   <path class="SFSymbolsPreviewWireframe" d="M37.5547-4.1826L64.4434-4.1826C84.5113-4.1826 92.2779-13.7168 92.2779-31.9317L92.2779-56.7622C92.2779-62.8628 88.8995-66.3252 82.7012-66.3252L19.3423-66.3252C13.1406-66.3252 9.76562-62.9536 9.76562-56.7622L9.76562-31.9317C9.76562-13.7168 17.5322-4.1826 37.5547-4.1826ZM37.691-6.40382C18.9537-6.40382 11.9834-15.1563 11.9834-32.0337L11.9834-56.644C11.9834-61.5742 14.4781-64.104 19.4434-64.104L82.6001-64.104C87.3804-64.104 90.0567-61.5742 90.0567-56.644L90.0567-32.0337C90.0567-15.1563 83.0444-6.40382 64.3526-6.40382ZM33.8726-19.5493C34.5996-19.5493 35.0904-20.0957 35.0904-20.8262L35.0904-33.1084L40.8945-33.1084L46.373-20.3696C46.6445-19.8027 47.0273-19.5493 47.6045-19.5493C48.336-19.5493 48.8086-20.0615 48.8086-20.7183C48.8086-20.9341 48.7427-21.2227 48.6665-21.4307L43.3096-33.7422C46.4312-34.7734 48.5987-37.6011 48.5987-42.0952C48.5987-47.3599 45.5586-50.8584 40.0943-50.8584L33.8237-50.8584C33.0025-50.8584 32.6025-50.3642 32.6025-49.5884L32.6025-20.8262C32.6025-20.0991 33.0933-19.5493 33.8726-19.5493ZM35.0904-35.2881L35.0904-48.6548L39.8262-48.6548C43.605-48.6548 46.1108-46.3667 46.1108-42.043C46.1108-38.1177 44.1602-35.2881 39.8716-35.2881ZM55.7891-19.6812L63.1363-19.6812C68.3326-19.6812 71.3213-23.0708 71.3213-28.0615C71.3213-31.9121 69.3443-35.3301 65.5948-35.8081L65.5948-35.958C68.3428-36.5371 70.1666-39.8052 70.1666-43.0562C70.1666-47.4043 67.4751-50.6382 62.983-50.6382L55.7891-50.6382C55.0132-50.6382 54.6167-50.085 54.6167-49.3613L54.6167-21C54.6167-20.2695 55.0166-19.6812 55.7891-19.6812ZM57.0035-36.6543L57.0035-48.4448L62.4478-48.4448C65.8633-48.4448 67.7027-46.1875 67.7027-42.7607C67.7027-39.125 65.6441-36.6543 62.0083-36.6543ZM57.0035-21.8711L57.0035-34.5474L62.4024-34.5474C66.4365-34.5474 68.8369-32.2754 68.8369-28.2354C68.8369-24.2647 66.607-21.8711 62.6817-21.8711Z"/>
  </g>
 </g>
</svg>
