<?xml version="1.0" encoding="UTF-8"?>
<!--Generator: Apple Native CoreSVG 232.5-->
<!DOCTYPE svg
PUBLIC "-//W3C//DTD SVG 1.1//EN"
       "http://www.w3.org/Graphics/SVG/1.1/DTD/svg11.dtd">
<svg version="1.1" xmlns="http://www.w3.org/2000/svg" xmlns:xlink="http://www.w3.org/1999/xlink" width="3300" height="2200">
 <!--glyph: "uni101040.medium", point size: 100.0, font version: "19.2d2e1", template writer version: "128"-->
 <style>.SFSymbolsPreviewWireframe {fill:none;opacity:1.0;stroke:black;stroke-width:0.5}
</style>
 <g id="Notes">
  <rect height="2200" id="artboard" style="fill:white;opacity:1" width="3300" x="0" y="0"/>
  <line style="fill:none;stroke:black;opacity:1;stroke-width:0.5;" x1="263" x2="3036" y1="292" y2="292"/>
  <text style="stroke:none;fill:black;font-family:sans-serif;font-size:13;font-weight:bold;" transform="matrix(1 0 0 1 263 322)">Weight/Scale Variations</text>
  <text style="stroke:none;fill:black;font-family:sans-serif;font-size:13;text-anchor:middle;" transform="matrix(1 0 0 1 559.711 322)">Ultralight</text>
  <text style="stroke:none;fill:black;font-family:sans-serif;font-size:13;text-anchor:middle;" transform="matrix(1 0 0 1 856.422 322)">Thin</text>
  <text style="stroke:none;fill:black;font-family:sans-serif;font-size:13;text-anchor:middle;" transform="matrix(1 0 0 1 1153.13 322)">Light</text>
  <text style="stroke:none;fill:black;font-family:sans-serif;font-size:13;text-anchor:middle;" transform="matrix(1 0 0 1 1449.84 322)">Regular</text>
  <text style="stroke:none;fill:black;font-family:sans-serif;font-size:13;text-anchor:middle;" transform="matrix(1 0 0 1 1746.56 322)">Medium</text>
  <text style="stroke:none;fill:black;font-family:sans-serif;font-size:13;text-anchor:middle;" transform="matrix(1 0 0 1 2043.27 322)">Semibold</text>
  <text style="stroke:none;fill:black;font-family:sans-serif;font-size:13;text-anchor:middle;" transform="matrix(1 0 0 1 2339.98 322)">Bold</text>
  <text style="stroke:none;fill:black;font-family:sans-serif;font-size:13;text-anchor:middle;" transform="matrix(1 0 0 1 2636.69 322)">Heavy</text>
  <text style="stroke:none;fill:black;font-family:sans-serif;font-size:13;text-anchor:middle;" transform="matrix(1 0 0 1 2933.4 322)">Black</text>
  <line style="fill:none;stroke:black;opacity:1;stroke-width:0.5;" x1="263" x2="3036" y1="1903" y2="1903"/>
  <g transform="matrix(0.2 0 0 0.2 263 1933)">
   <path d="m46.2402 4.15039c21.5332 0 39.4531-17.8711 39.4531-39.4043s-17.9688-39.4043-39.502-39.4043c-21.4844 0-39.3555 17.8711-39.3555 39.4043s17.9199 39.4043 39.4043 39.4043Zm0-7.42188c-17.7246 0-31.8848-14.209-31.8848-31.9824s14.1113-31.9824 31.8359-31.9824c17.7734 0 32.0312 14.209 32.0312 31.9824s-14.209 31.9824-31.9824 31.9824Zm-17.9688-31.9824c0 2.14844 1.51367 3.61328 3.75977 3.61328h10.498v10.5957c0 2.19727 1.46484 3.71094 3.61328 3.71094 2.24609 0 3.71094-1.51367 3.71094-3.71094v-10.5957h10.5957c2.19727 0 3.71094-1.46484 3.71094-3.61328 0-2.19727-1.51367-3.71094-3.71094-3.71094h-10.5957v-10.5469c0-2.24609-1.46484-3.75977-3.71094-3.75977-2.14844 0-3.61328 1.51367-3.61328 3.75977v10.5469h-10.498c-2.24609 0-3.75977 1.51367-3.75977 3.71094Z"/>
  </g>
  <g transform="matrix(0.2 0 0 0.2 281.506 1933)">
   <path d="m58.5449 14.5508c27.2461 0 49.8047-22.6074 49.8047-49.8047 0-27.2461-22.6074-49.8047-49.8535-49.8047-27.1973 0-49.7559 22.5586-49.7559 49.8047 0 27.1973 22.6074 49.8047 49.8047 49.8047Zm0-8.30078c-23.0469 0-41.4551-18.457-41.4551-41.5039s18.3594-41.5039 41.4062-41.5039 41.5527 18.457 41.5527 41.5039-18.457 41.5039-41.5039 41.5039Zm-22.6562-41.5039c0 2.39258 1.66016 4.00391 4.15039 4.00391h14.3555v14.4043c0 2.44141 1.66016 4.15039 4.05273 4.15039 2.44141 0 4.15039-1.66016 4.15039-4.15039v-14.4043h14.4043c2.44141 0 4.15039-1.61133 4.15039-4.00391 0-2.44141-1.70898-4.15039-4.15039-4.15039h-14.4043v-14.3555c0-2.49023-1.70898-4.19922-4.15039-4.19922-2.39258 0-4.05273 1.70898-4.05273 4.19922v14.3555h-14.3555c-2.49023 0-4.15039 1.70898-4.15039 4.15039Z"/>
  </g>
  <g transform="matrix(0.2 0 0 0.2 304.924 1933)">
   <path d="m74.8535 28.3203c34.8145 0 63.623-28.8086 63.623-63.5742 0-34.8145-28.8574-63.623-63.6719-63.623-34.7656 0-63.5254 28.8086-63.5254 63.623 0 34.7656 28.8086 63.5742 63.5742 63.5742Zm0-9.08203c-30.1758 0-54.4434-24.3164-54.4434-54.4922 0-30.2246 24.2188-54.4922 54.3945-54.4922 30.2246 0 54.541 24.2676 54.541 54.4922 0 30.1758-24.2676 54.4922-54.4922 54.4922Zm-28.8574-54.4922c0 2.58789 1.85547 4.39453 4.58984 4.39453h19.7266v19.7754c0 2.68555 1.85547 4.58984 4.44336 4.58984 2.68555 0 4.54102-1.85547 4.54102-4.58984v-19.7754h19.7754c2.68555 0 4.58984-1.80664 4.58984-4.39453 0-2.73438-1.85547-4.58984-4.58984-4.58984h-19.7754v-19.7266c0-2.73438-1.85547-4.63867-4.54102-4.63867-2.58789 0-4.44336 1.9043-4.44336 4.63867v19.7266h-19.7266c-2.73438 0-4.58984 1.85547-4.58984 4.58984Z"/>
  </g>
  <text style="stroke:none;fill:black;font-family:sans-serif;font-size:13;font-weight:bold;" transform="matrix(1 0 0 1 263 1953)">Design Variations</text>
  <text style="stroke:none;fill:black;font-family:sans-serif;font-size:13;" transform="matrix(1 0 0 1 263 1971)">Symbols are supported in up to nine weights and three scales.</text>
  <text style="stroke:none;fill:black;font-family:sans-serif;font-size:13;" transform="matrix(1 0 0 1 263 1989)">For optimal layout with text and other symbols, vertically align</text>
  <text style="stroke:none;fill:black;font-family:sans-serif;font-size:13;" transform="matrix(1 0 0 1 263 2007)">symbols with the adjacent text.</text>
  <line style="fill:none;stroke:#00AEEF;stroke-width:0.5;opacity:1.0;" x1="776" x2="776" y1="1919" y2="1933"/>
  <g transform="matrix(0.2 0 0 0.2 776 1933)">
   <path d="m16.5527 0.78125c2.58789 0 3.85742-0.976562 4.78516-3.71094l6.29883-17.2363h28.8086l6.29883 17.2363c0.927734 2.73438 2.19727 3.71094 4.73633 3.71094 2.58789 0 4.24805-1.5625 4.24805-4.00391 0-0.830078-0.146484-1.61133-0.537109-2.63672l-22.9004-60.9863c-1.12305-2.97852-3.125-4.49219-6.25-4.49219-3.02734 0-5.07812 1.46484-6.15234 4.44336l-22.9004 61.084c-0.390625 1.02539-0.537109 1.80664-0.537109 2.63672 0 2.44141 1.5625 3.95508 4.10156 3.95508Zm13.4766-28.3691 11.8652-32.8613h0.244141l11.8652 32.8613Z"/>
  </g>
  <line style="fill:none;stroke:#00AEEF;stroke-width:0.5;opacity:1.0;" x1="792.836" x2="792.836" y1="1919" y2="1933"/>
  <text style="stroke:none;fill:black;font-family:sans-serif;font-size:13;font-weight:bold;" transform="matrix(1 0 0 1 776 1953)">Margins</text>
  <text style="stroke:none;fill:black;font-family:sans-serif;font-size:13;" transform="matrix(1 0 0 1 776 1971)">Leading and trailing margins on the left and right side of each symbol</text>
  <text style="stroke:none;fill:black;font-family:sans-serif;font-size:13;" transform="matrix(1 0 0 1 776 1989)">can be adjusted by modifying the x-location of the margin guidelines.</text>
  <text style="stroke:none;fill:black;font-family:sans-serif;font-size:13;" transform="matrix(1 0 0 1 776 2007)">Modifications are automatically applied proportionally to all</text>
  <text style="stroke:none;fill:black;font-family:sans-serif;font-size:13;" transform="matrix(1 0 0 1 776 2025)">scales and weights.</text>
  <g transform="matrix(0.2 0 0 0.2 1289 1933)">
   <path d="m14.209 9.32617 8.49609 8.54492c4.29688 4.3457 9.22852 4.05273 13.8672-1.07422l53.4668-58.9355-4.83398-4.88281-53.0762 58.3984c-1.75781 2.00195-3.41797 2.49023-5.76172 0.146484l-5.85938-5.81055c-2.34375-2.29492-1.80664-4.00391 0.195312-5.81055l57.373-54.0039-4.88281-4.83398-57.959 54.4434c-4.93164 4.58984-5.32227 9.47266-1.02539 13.8184Zm32.0801-90.9668c-2.09961 2.05078-2.24609 4.93164-1.07422 6.88477 1.17188 1.80664 3.4668 2.97852 6.68945 2.14844 7.32422-1.70898 14.9414-2.00195 22.0703 2.68555l-2.92969 7.27539c-1.70898 4.15039-0.830078 7.08008 1.85547 9.81445l11.4746 11.5723c2.44141 2.44141 4.49219 2.53906 7.32422 2.05078l5.32227-0.976562 3.32031 3.36914-0.195312 2.7832c-0.195312 2.49023 0.439453 4.39453 2.88086 6.78711l3.80859 3.71094c2.39258 2.39258 5.46875 2.53906 7.8125 0.195312l14.5508-14.5996c2.34375-2.34375 2.24609-5.32227-0.146484-7.71484l-3.85742-3.80859c-2.39258-2.39258-4.24805-3.17383-6.64062-2.97852l-2.88086 0.244141-3.22266-3.17383 1.2207-5.61523c0.634766-2.83203-0.146484-5.0293-3.07617-7.95898l-10.9863-10.9375c-16.6992-16.6016-38.8672-16.2109-53.3203-1.75781Zm7.4707 1.85547c12.1582-8.88672 28.6133-7.37305 39.7461 3.75977l12.1582 12.0605c1.17188 1.17188 1.36719 2.09961 1.02539 3.80859l-1.61133 7.42188 7.51953 7.42188 4.93164-0.292969c1.26953-0.0488281 1.66016 0.0488281 2.63672 1.02539l2.88086 2.88086-12.207 12.207-2.88086-2.88086c-0.976562-0.976562-1.12305-1.36719-1.07422-2.68555l0.341797-4.88281-7.4707-7.42188-7.61719 1.26953c-1.61133 0.341797-2.34375 0.195312-3.56445-0.976562l-10.0098-10.0098c-1.26953-1.17188-1.41602-2.00195-0.634766-3.85742l4.39453-10.4492c-7.8125-7.27539-17.9688-10.4004-28.125-7.42188-0.78125 0.195312-1.07422-0.439453-0.439453-0.976562Z"/>
  </g>
  <text style="stroke:none;fill:black;font-family:sans-serif;font-size:13;font-weight:bold;" transform="matrix(1 0 0 1 1289 1953)">Exporting</text>
  <text style="stroke:none;fill:black;font-family:sans-serif;font-size:13;" transform="matrix(1 0 0 1 1289 1971)">Symbols should be outlined when exporting to ensure the</text>
  <text style="stroke:none;fill:black;font-family:sans-serif;font-size:13;" transform="matrix(1 0 0 1 1289 1989)">design is preserved when submitting to Xcode.</text>
  <text id="template-version" style="stroke:none;fill:black;font-family:sans-serif;font-size:13;text-anchor:end;" transform="matrix(1 0 0 1 3036 1933)">Template v.5.0</text>
  <text style="stroke:none;fill:black;font-family:sans-serif;font-size:13;text-anchor:end;" transform="matrix(1 0 0 1 3036 1951)">Requires Xcode 15 or greater</text>
  <text id="descriptive-name" style="stroke:none;fill:black;font-family:sans-serif;font-size:13;text-anchor:end;" transform="matrix(1 0 0 1 3036 1969)">Generated from rectangle.2.swap</text>
  <text style="stroke:none;fill:black;font-family:sans-serif;font-size:13;text-anchor:end;" transform="matrix(1 0 0 1 3036 1987)">Typeset at 100.0 points</text>
  <text style="stroke:none;fill:black;font-family:sans-serif;font-size:13;" transform="matrix(1 0 0 1 263 726)">Small</text>
  <text style="stroke:none;fill:black;font-family:sans-serif;font-size:13;" transform="matrix(1 0 0 1 263 1156)">Medium</text>
  <text style="stroke:none;fill:black;font-family:sans-serif;font-size:13;" transform="matrix(1 0 0 1 263 1586)">Large</text>
 </g>
 <g id="Guides">
  <g id="H-reference" style="fill:#27AAE1;stroke:none;" transform="matrix(1 0 0 1 339 696)">
   <path d="M0.993654 0L3.63775 0L29.3281-67.1323L30.0303-67.1323L30.0303-70.459L28.1226-70.459ZM11.6885-24.4799L46.9815-24.4799L46.2315-26.7285L12.4385-26.7285ZM55.1196 0L57.7637 0L30.6382-70.459L29.4326-70.459L29.4326-67.1323Z"/>
  </g>
  <line id="Baseline-S" style="fill:none;stroke:#27AAE1;opacity:1;stroke-width:0.5;" x1="263" x2="3036" y1="696" y2="696"/>
  <line id="Capline-S" style="fill:none;stroke:#27AAE1;opacity:1;stroke-width:0.5;" x1="263" x2="3036" y1="625.541" y2="625.541"/>
  <g id="H-reference" style="fill:#27AAE1;stroke:none;" transform="matrix(1 0 0 1 339 1126)">
   <path d="M0.993654 0L3.63775 0L29.3281-67.1323L30.0303-67.1323L30.0303-70.459L28.1226-70.459ZM11.6885-24.4799L46.9815-24.4799L46.2315-26.7285L12.4385-26.7285ZM55.1196 0L57.7637 0L30.6382-70.459L29.4326-70.459L29.4326-67.1323Z"/>
  </g>
  <line id="Baseline-M" style="fill:none;stroke:#27AAE1;opacity:1;stroke-width:0.5;" x1="263" x2="3036" y1="1126" y2="1126"/>
  <line id="Capline-M" style="fill:none;stroke:#27AAE1;opacity:1;stroke-width:0.5;" x1="263" x2="3036" y1="1055.54" y2="1055.54"/>
  <g id="H-reference" style="fill:#27AAE1;stroke:none;" transform="matrix(1 0 0 1 339 1556)">
   <path d="M0.993654 0L3.63775 0L29.3281-67.1323L30.0303-67.1323L30.0303-70.459L28.1226-70.459ZM11.6885-24.4799L46.9815-24.4799L46.2315-26.7285L12.4385-26.7285ZM55.1196 0L57.7637 0L30.6382-70.459L29.4326-70.459L29.4326-67.1323Z"/>
  </g>
  <line id="Baseline-L" style="fill:none;stroke:#27AAE1;opacity:1;stroke-width:0.5;" x1="263" x2="3036" y1="1556" y2="1556"/>
  <line id="Capline-L" style="fill:none;stroke:#27AAE1;opacity:1;stroke-width:0.5;" x1="263" x2="3036" y1="1485.54" y2="1485.54"/>
  <line id="left-margin-Ultralight-S" style="fill:none;stroke:#00AEEF;stroke-width:0.5;opacity:1.0;" x1="502.808" x2="502.808" y1="600.785" y2="720.121"/>
  <line id="right-margin-Ultralight-S" style="fill:none;stroke:#00AEEF;stroke-width:0.5;opacity:1.0;" x1="616.614" x2="616.614" y1="600.785" y2="720.121"/>
  <line id="left-margin-Regular-S" style="fill:none;stroke:#00AEEF;stroke-width:0.5;opacity:1.0;" x1="1387.83" x2="1387.83" y1="600.785" y2="720.121"/>
  <line id="right-margin-Regular-S" style="fill:none;stroke:#00AEEF;stroke-width:0.5;opacity:1.0;" x1="1511.86" x2="1511.86" y1="600.785" y2="720.121"/>
  <line id="left-margin-Black-S" style="fill:none;stroke:#00AEEF;stroke-width:0.5;opacity:1.0;" x1="2864.75" x2="2864.75" y1="600.785" y2="720.121"/>
  <line id="right-margin-Black-S" style="fill:none;stroke:#00AEEF;stroke-width:0.5;opacity:1.0;" x1="3002.05" x2="3002.05" y1="600.785" y2="720.121"/>
 </g>
 <g id="Symbols">
  <g id="Black-S" transform="matrix(1 0 0 1 2864.75 696)">
   <path class="SFSymbolsPreviewWireframe" d="M25-40.1367L53.418-40.1367C62.9883-40.1367 68.6523-45.8008 68.6523-55.3711L68.6523-71.875C68.6523-81.4453 62.9883-87.1094 53.418-87.1094L25-87.1094C15.4297-87.1094 9.76562-81.4453 9.76562-71.875L9.76562-55.3711C9.76562-45.8008 15.4297-40.1367 25-40.1367ZM27.2461-54.2969C25-54.2969 23.9258-55.1758 23.9258-57.6172L23.9258-69.6289C23.9258-72.0703 25-72.9492 27.2461-72.9492L51.1719-72.9492C53.418-72.9492 54.4922-72.0703 54.4922-69.6289L54.4922-57.6172C54.4922-55.1758 53.418-54.2969 51.1719-54.2969ZM83.8867 16.6016L112.305 16.6016C121.875 16.6016 127.539 10.9375 127.539 1.36719L127.539-15.1367C127.539-24.707 121.875-30.3711 112.305-30.3711L83.8867-30.3711C74.3164-30.3711 68.6523-24.707 68.6523-15.1367L68.6523 1.36719C68.6523 10.9375 74.3164 16.6016 83.8867 16.6016ZM86.1328 2.44141C83.8867 2.44141 82.8125 1.5625 82.8125-0.878906L82.8125-12.8906C82.8125-15.332 83.8867-16.2109 86.1328-16.2109L110.059-16.2109C112.305-16.2109 113.379-15.332 113.379-12.8906L113.379-0.878906C113.379 1.5625 112.305 2.44141 110.059 2.44141ZM105.371-37.0117C106.689-35.3027 109.082-35.3516 110.4-37.0117L119.678-48.9746C121.777-51.709 120.557-55.0293 116.992-55.0293L112.5-55.0293L112.5-58.3496C112.5-70.6543 103.32-80.2734 90.4785-80.2734L82.8613-80.2734C80.3223-80.2734 78.2715-78.2227 78.2715-75.7324C78.2715-73.1934 80.3223-71.1426 82.8613-71.1426L90.4785-71.1426C98.1445-71.1426 103.809-65.8203 103.809-58.5938L103.809-55.0293L98.7305-55.0293C95.3125-55.0293 94.0918-51.6602 96.1426-48.9746ZM46.8262 9.76562L54.4434 9.76562C56.9824 9.76562 59.0332 7.71484 59.0332 5.22461C59.0332 2.68555 56.9824 0.634766 54.4434 0.634766L46.8262 0.634766C39.1602 0.634766 33.4961-4.6875 33.4961-11.9141L33.4961-15.4785L38.5742-15.4785C41.9922-15.4785 43.2129-18.8477 41.1621-21.5332L31.9336-33.4961C30.6152-35.2051 28.2227-35.1562 26.9043-33.4961L17.627-21.5332C15.5273-18.7988 16.748-15.4785 20.3125-15.4785L24.8047-15.4785L24.8047-12.1582C24.8047 0.146484 33.9844 9.76562 46.8262 9.76562Z"/>
  </g>
  <g id="Regular-S" transform="matrix(1 0 0 1 1387.83 696)">
   <path class="SFSymbolsPreviewWireframe" d="M22.2168-40.2832L49.5605-40.2832C57.8613-40.2832 62.0117-44.3848 62.0117-52.5391L62.0117-67.2363C62.0117-75.4395 57.8613-79.541 49.5605-79.541L22.2168-79.541C13.916-79.541 9.76562-75.4395 9.76562-67.2363L9.76562-52.5391C9.76562-44.3359 13.916-40.2832 22.2168-40.2832ZM22.3145-47.3145C18.7988-47.3145 16.7969-49.2188 16.7969-52.9297L16.7969-66.8945C16.7969-70.6055 18.7988-72.5098 22.3145-72.5098L49.4629-72.5098C52.9785-72.5098 54.9805-70.6055 54.9805-66.8945L54.9805-52.9297C54.9805-49.2188 52.9785-47.3145 49.4629-47.3145ZM74.4629 9.0332L101.807 9.0332C110.107 9.0332 114.258 4.93164 114.258-3.27148L114.258-17.9688C114.258-26.123 110.107-30.2246 101.807-30.2246L74.4629-30.2246C66.1621-30.2246 62.0117-26.1719 62.0117-17.9688L62.0117-3.27148C62.0117 4.93164 66.1621 9.0332 74.4629 9.0332ZM74.5605 2.00195C71.0449 2.00195 69.043 0.0976562 69.043-3.61328L69.043-17.5781C69.043-21.2891 71.0449-23.1934 74.5605-23.1934L101.709-23.1934C105.225-23.1934 107.227-21.2891 107.227-17.5781L107.227-3.61328C107.227 0.0976562 105.225 2.00195 101.709 2.00195ZM92.5781-36.8164C93.7988-35.1562 95.2148-35.2051 96.4844-36.8164L103.711-46.5332C105.469-48.877 104.785-51.1719 101.66-51.1719L96.7773-51.1719L96.7773-52.002C96.7773-62.7441 89.4043-69.9219 78.4668-69.9219L72.998-69.9219C71.5332-69.9219 70.3125-68.7012 70.3125-67.2363C70.3125-65.7715 71.5332-64.5508 72.998-64.5508L78.418-64.5508C86.4258-64.5508 91.7969-59.5215 91.7969-51.9531L91.7969-51.1719L87.3535-51.1719C84.3262-51.1719 83.6914-48.877 85.4004-46.5332ZM45.5566-0.585938L51.0254-0.585938C52.4902-0.585938 53.7109-1.80664 53.7109-3.27148C53.7109-4.73633 52.4902-5.95703 51.0254-5.95703L45.5566-5.95703C37.5977-5.95703 32.2266-10.9863 32.2266-18.5547L32.2266-19.3359L36.6211-19.3359C39.6484-19.3359 40.332-21.6309 38.623-23.9746L31.4453-33.6914C30.1758-35.3516 28.8086-35.3027 27.5391-33.6914L20.3125-23.9746C18.5547-21.6309 19.2383-19.3359 22.3633-19.3359L27.2461-19.3359L27.2461-18.5059C27.2461-7.76367 34.5703-0.585938 45.5566-0.585938Z"/>
  </g>
  <g id="Ultralight-S" transform="matrix(1 0 0 1 502.808 696)">
   <path class="SFSymbolsPreviewWireframe" d="M19.7647-42.917L46.9268-42.917C53.4566-42.917 56.9258-46.4736 56.9258-52.9023L56.9258-66.8276C56.9258-73.2598 53.4566-76.8164 46.9268-76.8164L19.7647-76.8164C13.2349-76.8164 9.76562-73.3506 9.76562-66.8276L9.76562-52.9023C9.76562-46.3794 13.2349-42.917 19.7647-42.917ZM19.8623-45.1348C14.6665-45.1348 11.9834-47.811 11.9834-53.0205L11.9834-66.7129C11.9834-71.9224 14.6665-74.5986 19.8623-74.5986L46.8291-74.5986C51.7979-74.5986 54.708-71.9224 54.708-66.7129L54.708-53.0205C54.708-47.811 51.7979-45.1348 46.8291-45.1348ZM66.8795 6.30862L94.0416 6.30862C100.571 6.30862 104.041 2.75197 104.041-3.68017L104.041-17.6055C104.041-24.0342 100.571-27.5908 94.0416-27.5908L66.8795-27.5908C60.3497-27.5908 56.9258-24.1284 56.9258-17.6055L56.9258-3.68017C56.9258 2.84279 60.3497 6.30862 66.8795 6.30862ZM66.9771 4.0908C61.8267 4.0908 59.0982 1.41454 59.0982-3.79492L59.0982-17.4873C59.0982-22.6968 61.8267-25.373 66.9771-25.373L93.9439-25.373C98.9581-25.373 101.823-22.6968 101.823-17.4873L101.823-3.79492C101.823 1.41454 98.9581 4.0908 93.9439 4.0908ZM87.2198-37.1797C88.168-35.792 89.2662-35.7954 90.2178-37.1797L96.6724-46.624C97.522-47.8779 97.0201-49.3555 95.5752-49.3555L89.8296-49.3555L89.8296-49.9585C89.8296-62.0176 82.275-69.8311 71.4283-69.8311L64.5064-69.8311C63.9044-69.8311 63.4556-69.3369 63.4556-68.7803C63.4556-68.1782 63.9044-67.7295 64.5064-67.7295L71.334-67.7295C80.2955-67.7295 87.71-61.3833 87.71-49.9551L87.71-49.3555L81.8589-49.3555C80.4209-49.3555 79.9224-47.8779 80.814-46.624ZM42.3325-0.676757L49.2544-0.676757C49.8565-0.676757 50.3052-1.1709 50.3052-1.72755C50.3052-2.32961 49.8565-2.77835 49.2544-2.77835L42.4688-2.77835C33.4654-2.77835 26.0508-9.12453 26.0508-20.5527L26.0508-21.1523L31.8985-21.1523C33.3365-21.1523 33.8384-22.6299 32.9468-23.8838L26.5411-33.3281C25.5894-34.7158 24.4947-34.7124 23.543-33.3281L17.0884-23.8838C16.2388-22.6299 16.7407-21.1523 18.1856-21.1523L23.9312-21.1523L23.9312-20.5493C23.9312-8.49023 31.5279-0.676757 42.3325-0.676757Z"/>
  </g>
 </g>
</svg>
