<?xml version="1.0" encoding="UTF-8"?>
<!--Generator: Apple Native CoreSVG 232.5-->
<!DOCTYPE svg
PUBLIC "-//W3C//DTD SVG 1.1//EN"
       "http://www.w3.org/Graphics/SVG/1.1/DTD/svg11.dtd">
<svg version="1.1" xmlns="http://www.w3.org/2000/svg" xmlns:xlink="http://www.w3.org/1999/xlink" width="3300" height="2200">
 <!--glyph: "uni1001F6.medium", point size: 100.0, font version: "19.2d2e1", template writer version: "128"-->
 <style>.SFSymbolsPreviewWireframe {fill:none;opacity:1.0;stroke:black;stroke-width:0.5}
</style>
 <g id="Notes">
  <rect height="2200" id="artboard" style="fill:white;opacity:1" width="3300" x="0" y="0"/>
  <line style="fill:none;stroke:black;opacity:1;stroke-width:0.5;" x1="263" x2="3036" y1="292" y2="292"/>
  <text style="stroke:none;fill:black;font-family:sans-serif;font-size:13;font-weight:bold;" transform="matrix(1 0 0 1 263 322)">Weight/Scale Variations</text>
  <text style="stroke:none;fill:black;font-family:sans-serif;font-size:13;text-anchor:middle;" transform="matrix(1 0 0 1 559.711 322)">Ultralight</text>
  <text style="stroke:none;fill:black;font-family:sans-serif;font-size:13;text-anchor:middle;" transform="matrix(1 0 0 1 856.422 322)">Thin</text>
  <text style="stroke:none;fill:black;font-family:sans-serif;font-size:13;text-anchor:middle;" transform="matrix(1 0 0 1 1153.13 322)">Light</text>
  <text style="stroke:none;fill:black;font-family:sans-serif;font-size:13;text-anchor:middle;" transform="matrix(1 0 0 1 1449.84 322)">Regular</text>
  <text style="stroke:none;fill:black;font-family:sans-serif;font-size:13;text-anchor:middle;" transform="matrix(1 0 0 1 1746.56 322)">Medium</text>
  <text style="stroke:none;fill:black;font-family:sans-serif;font-size:13;text-anchor:middle;" transform="matrix(1 0 0 1 2043.27 322)">Semibold</text>
  <text style="stroke:none;fill:black;font-family:sans-serif;font-size:13;text-anchor:middle;" transform="matrix(1 0 0 1 2339.98 322)">Bold</text>
  <text style="stroke:none;fill:black;font-family:sans-serif;font-size:13;text-anchor:middle;" transform="matrix(1 0 0 1 2636.69 322)">Heavy</text>
  <text style="stroke:none;fill:black;font-family:sans-serif;font-size:13;text-anchor:middle;" transform="matrix(1 0 0 1 2933.4 322)">Black</text>
  <line style="fill:none;stroke:black;opacity:1;stroke-width:0.5;" x1="263" x2="3036" y1="1903" y2="1903"/>
  <g transform="matrix(0.2 0 0 0.2 263 1933)">
   <path d="m46.2402 4.15039c21.5332 0 39.4531-17.8711 39.4531-39.4043s-17.9688-39.4043-39.502-39.4043c-21.4844 0-39.3555 17.8711-39.3555 39.4043s17.9199 39.4043 39.4043 39.4043Zm0-7.42188c-17.7246 0-31.8848-14.209-31.8848-31.9824s14.1113-31.9824 31.8359-31.9824c17.7734 0 32.0312 14.209 32.0312 31.9824s-14.209 31.9824-31.9824 31.9824Zm-17.9688-31.9824c0 2.14844 1.51367 3.61328 3.75977 3.61328h10.498v10.5957c0 2.19727 1.46484 3.71094 3.61328 3.71094 2.24609 0 3.71094-1.51367 3.71094-3.71094v-10.5957h10.5957c2.19727 0 3.71094-1.46484 3.71094-3.61328 0-2.19727-1.51367-3.71094-3.71094-3.71094h-10.5957v-10.5469c0-2.24609-1.46484-3.75977-3.71094-3.75977-2.14844 0-3.61328 1.51367-3.61328 3.75977v10.5469h-10.498c-2.24609 0-3.75977 1.51367-3.75977 3.71094Z"/>
  </g>
  <g transform="matrix(0.2 0 0 0.2 281.506 1933)">
   <path d="m58.5449 14.5508c27.2461 0 49.8047-22.6074 49.8047-49.8047 0-27.2461-22.6074-49.8047-49.8535-49.8047-27.1973 0-49.7559 22.5586-49.7559 49.8047 0 27.1973 22.6074 49.8047 49.8047 49.8047Zm0-8.30078c-23.0469 0-41.4551-18.457-41.4551-41.5039s18.3594-41.5039 41.4062-41.5039 41.5527 18.457 41.5527 41.5039-18.457 41.5039-41.5039 41.5039Zm-22.6562-41.5039c0 2.39258 1.66016 4.00391 4.15039 4.00391h14.3555v14.4043c0 2.44141 1.66016 4.15039 4.05273 4.15039 2.44141 0 4.15039-1.66016 4.15039-4.15039v-14.4043h14.4043c2.44141 0 4.15039-1.61133 4.15039-4.00391 0-2.44141-1.70898-4.15039-4.15039-4.15039h-14.4043v-14.3555c0-2.49023-1.70898-4.19922-4.15039-4.19922-2.39258 0-4.05273 1.70898-4.05273 4.19922v14.3555h-14.3555c-2.49023 0-4.15039 1.70898-4.15039 4.15039Z"/>
  </g>
  <g transform="matrix(0.2 0 0 0.2 304.924 1933)">
   <path d="m74.8535 28.3203c34.8145 0 63.623-28.8086 63.623-63.5742 0-34.8145-28.8574-63.623-63.6719-63.623-34.7656 0-63.5254 28.8086-63.5254 63.623 0 34.7656 28.8086 63.5742 63.5742 63.5742Zm0-9.08203c-30.1758 0-54.4434-24.3164-54.4434-54.4922 0-30.2246 24.2188-54.4922 54.3945-54.4922 30.2246 0 54.541 24.2676 54.541 54.4922 0 30.1758-24.2676 54.4922-54.4922 54.4922Zm-28.8574-54.4922c0 2.58789 1.85547 4.39453 4.58984 4.39453h19.7266v19.7754c0 2.68555 1.85547 4.58984 4.44336 4.58984 2.68555 0 4.54102-1.85547 4.54102-4.58984v-19.7754h19.7754c2.68555 0 4.58984-1.80664 4.58984-4.39453 0-2.73438-1.85547-4.58984-4.58984-4.58984h-19.7754v-19.7266c0-2.73438-1.85547-4.63867-4.54102-4.63867-2.58789 0-4.44336 1.9043-4.44336 4.63867v19.7266h-19.7266c-2.73438 0-4.58984 1.85547-4.58984 4.58984Z"/>
  </g>
  <text style="stroke:none;fill:black;font-family:sans-serif;font-size:13;font-weight:bold;" transform="matrix(1 0 0 1 263 1953)">Design Variations</text>
  <text style="stroke:none;fill:black;font-family:sans-serif;font-size:13;" transform="matrix(1 0 0 1 263 1971)">Symbols are supported in up to nine weights and three scales.</text>
  <text style="stroke:none;fill:black;font-family:sans-serif;font-size:13;" transform="matrix(1 0 0 1 263 1989)">For optimal layout with text and other symbols, vertically align</text>
  <text style="stroke:none;fill:black;font-family:sans-serif;font-size:13;" transform="matrix(1 0 0 1 263 2007)">symbols with the adjacent text.</text>
  <line style="fill:none;stroke:#00AEEF;stroke-width:0.5;opacity:1.0;" x1="776" x2="776" y1="1919" y2="1933"/>
  <g transform="matrix(0.2 0 0 0.2 776 1933)">
   <path d="m16.5527 0.78125c2.58789 0 3.85742-0.976562 4.78516-3.71094l6.29883-17.2363h28.8086l6.29883 17.2363c0.927734 2.73438 2.19727 3.71094 4.73633 3.71094 2.58789 0 4.24805-1.5625 4.24805-4.00391 0-0.830078-0.146484-1.61133-0.537109-2.63672l-22.9004-60.9863c-1.12305-2.97852-3.125-4.49219-6.25-4.49219-3.02734 0-5.07812 1.46484-6.15234 4.44336l-22.9004 61.084c-0.390625 1.02539-0.537109 1.80664-0.537109 2.63672 0 2.44141 1.5625 3.95508 4.10156 3.95508Zm13.4766-28.3691 11.8652-32.8613h0.244141l11.8652 32.8613Z"/>
  </g>
  <line style="fill:none;stroke:#00AEEF;stroke-width:0.5;opacity:1.0;" x1="792.836" x2="792.836" y1="1919" y2="1933"/>
  <text style="stroke:none;fill:black;font-family:sans-serif;font-size:13;font-weight:bold;" transform="matrix(1 0 0 1 776 1953)">Margins</text>
  <text style="stroke:none;fill:black;font-family:sans-serif;font-size:13;" transform="matrix(1 0 0 1 776 1971)">Leading and trailing margins on the left and right side of each symbol</text>
  <text style="stroke:none;fill:black;font-family:sans-serif;font-size:13;" transform="matrix(1 0 0 1 776 1989)">can be adjusted by modifying the x-location of the margin guidelines.</text>
  <text style="stroke:none;fill:black;font-family:sans-serif;font-size:13;" transform="matrix(1 0 0 1 776 2007)">Modifications are automatically applied proportionally to all</text>
  <text style="stroke:none;fill:black;font-family:sans-serif;font-size:13;" transform="matrix(1 0 0 1 776 2025)">scales and weights.</text>
  <g transform="matrix(0.2 0 0 0.2 1289 1933)">
   <path d="m14.209 9.32617 8.49609 8.54492c4.29688 4.3457 9.22852 4.05273 13.8672-1.07422l53.4668-58.9355-4.83398-4.88281-53.0762 58.3984c-1.75781 2.00195-3.41797 2.49023-5.76172 0.146484l-5.85938-5.81055c-2.34375-2.29492-1.80664-4.00391 0.195312-5.81055l57.373-54.0039-4.88281-4.83398-57.959 54.4434c-4.93164 4.58984-5.32227 9.47266-1.02539 13.8184Zm32.0801-90.9668c-2.09961 2.05078-2.24609 4.93164-1.07422 6.88477 1.17188 1.80664 3.4668 2.97852 6.68945 2.14844 7.32422-1.70898 14.9414-2.00195 22.0703 2.68555l-2.92969 7.27539c-1.70898 4.15039-0.830078 7.08008 1.85547 9.81445l11.4746 11.5723c2.44141 2.44141 4.49219 2.53906 7.32422 2.05078l5.32227-0.976562 3.32031 3.36914-0.195312 2.7832c-0.195312 2.49023 0.439453 4.39453 2.88086 6.78711l3.80859 3.71094c2.39258 2.39258 5.46875 2.53906 7.8125 0.195312l14.5508-14.5996c2.34375-2.34375 2.24609-5.32227-0.146484-7.71484l-3.85742-3.80859c-2.39258-2.39258-4.24805-3.17383-6.64062-2.97852l-2.88086 0.244141-3.22266-3.17383 1.2207-5.61523c0.634766-2.83203-0.146484-5.0293-3.07617-7.95898l-10.9863-10.9375c-16.6992-16.6016-38.8672-16.2109-53.3203-1.75781Zm7.4707 1.85547c12.1582-8.88672 28.6133-7.37305 39.7461 3.75977l12.1582 12.0605c1.17188 1.17188 1.36719 2.09961 1.02539 3.80859l-1.61133 7.42188 7.51953 7.42188 4.93164-0.292969c1.26953-0.0488281 1.66016 0.0488281 2.63672 1.02539l2.88086 2.88086-12.207 12.207-2.88086-2.88086c-0.976562-0.976562-1.12305-1.36719-1.07422-2.68555l0.341797-4.88281-7.4707-7.42188-7.61719 1.26953c-1.61133 0.341797-2.34375 0.195312-3.56445-0.976562l-10.0098-10.0098c-1.26953-1.17188-1.41602-2.00195-0.634766-3.85742l4.39453-10.4492c-7.8125-7.27539-17.9688-10.4004-28.125-7.42188-0.78125 0.195312-1.07422-0.439453-0.439453-0.976562Z"/>
  </g>
  <text style="stroke:none;fill:black;font-family:sans-serif;font-size:13;font-weight:bold;" transform="matrix(1 0 0 1 1289 1953)">Exporting</text>
  <text style="stroke:none;fill:black;font-family:sans-serif;font-size:13;" transform="matrix(1 0 0 1 1289 1971)">Symbols should be outlined when exporting to ensure the</text>
  <text style="stroke:none;fill:black;font-family:sans-serif;font-size:13;" transform="matrix(1 0 0 1 1289 1989)">design is preserved when submitting to Xcode.</text>
  <text id="template-version" style="stroke:none;fill:black;font-family:sans-serif;font-size:13;text-anchor:end;" transform="matrix(1 0 0 1 3036 1933)">Template v.5.0</text>
  <text style="stroke:none;fill:black;font-family:sans-serif;font-size:13;text-anchor:end;" transform="matrix(1 0 0 1 3036 1951)">Requires Xcode 15 or greater</text>
  <text id="descriptive-name" style="stroke:none;fill:black;font-family:sans-serif;font-size:13;text-anchor:end;" transform="matrix(1 0 0 1 3036 1969)">Generated from rectangle.grid.3x2</text>
  <text style="stroke:none;fill:black;font-family:sans-serif;font-size:13;text-anchor:end;" transform="matrix(1 0 0 1 3036 1987)">Typeset at 100.0 points</text>
  <text style="stroke:none;fill:black;font-family:sans-serif;font-size:13;" transform="matrix(1 0 0 1 263 726)">Small</text>
  <text style="stroke:none;fill:black;font-family:sans-serif;font-size:13;" transform="matrix(1 0 0 1 263 1156)">Medium</text>
  <text style="stroke:none;fill:black;font-family:sans-serif;font-size:13;" transform="matrix(1 0 0 1 263 1586)">Large</text>
 </g>
 <g id="Guides">
  <g id="H-reference" style="fill:#27AAE1;stroke:none;" transform="matrix(1 0 0 1 339 696)">
   <path d="M0.993654 0L3.63775 0L29.3281-67.1323L30.0303-67.1323L30.0303-70.459L28.1226-70.459ZM11.6885-24.4799L46.9815-24.4799L46.2315-26.7285L12.4385-26.7285ZM55.1196 0L57.7637 0L30.6382-70.459L29.4326-70.459L29.4326-67.1323Z"/>
  </g>
  <line id="Baseline-S" style="fill:none;stroke:#27AAE1;opacity:1;stroke-width:0.5;" x1="263" x2="3036" y1="696" y2="696"/>
  <line id="Capline-S" style="fill:none;stroke:#27AAE1;opacity:1;stroke-width:0.5;" x1="263" x2="3036" y1="625.541" y2="625.541"/>
  <g id="H-reference" style="fill:#27AAE1;stroke:none;" transform="matrix(1 0 0 1 339 1126)">
   <path d="M0.993654 0L3.63775 0L29.3281-67.1323L30.0303-67.1323L30.0303-70.459L28.1226-70.459ZM11.6885-24.4799L46.9815-24.4799L46.2315-26.7285L12.4385-26.7285ZM55.1196 0L57.7637 0L30.6382-70.459L29.4326-70.459L29.4326-67.1323Z"/>
  </g>
  <line id="Baseline-M" style="fill:none;stroke:#27AAE1;opacity:1;stroke-width:0.5;" x1="263" x2="3036" y1="1126" y2="1126"/>
  <line id="Capline-M" style="fill:none;stroke:#27AAE1;opacity:1;stroke-width:0.5;" x1="263" x2="3036" y1="1055.54" y2="1055.54"/>
  <g id="H-reference" style="fill:#27AAE1;stroke:none;" transform="matrix(1 0 0 1 339 1556)">
   <path d="M0.993654 0L3.63775 0L29.3281-67.1323L30.0303-67.1323L30.0303-70.459L28.1226-70.459ZM11.6885-24.4799L46.9815-24.4799L46.2315-26.7285L12.4385-26.7285ZM55.1196 0L57.7637 0L30.6382-70.459L29.4326-70.459L29.4326-67.1323Z"/>
  </g>
  <line id="Baseline-L" style="fill:none;stroke:#27AAE1;opacity:1;stroke-width:0.5;" x1="263" x2="3036" y1="1556" y2="1556"/>
  <line id="Capline-L" style="fill:none;stroke:#27AAE1;opacity:1;stroke-width:0.5;" x1="263" x2="3036" y1="1485.54" y2="1485.54"/>
  <line id="left-margin-Ultralight-S" style="fill:none;stroke:#00AEEF;stroke-width:0.5;opacity:1.0;" x1="510.992" x2="510.992" y1="600.785" y2="720.121"/>
  <line id="right-margin-Ultralight-S" style="fill:none;stroke:#00AEEF;stroke-width:0.5;opacity:1.0;" x1="608.43" x2="608.43" y1="600.785" y2="720.121"/>
  <line id="left-margin-Regular-S" style="fill:none;stroke:#00AEEF;stroke-width:0.5;opacity:1.0;" x1="1398.36" x2="1398.36" y1="600.785" y2="720.121"/>
  <line id="right-margin-Regular-S" style="fill:none;stroke:#00AEEF;stroke-width:0.5;opacity:1.0;" x1="1501.33" x2="1501.33" y1="600.785" y2="720.121"/>
  <line id="left-margin-Black-S" style="fill:none;stroke:#00AEEF;stroke-width:0.5;opacity:1.0;" x1="2874.9" x2="2874.9" y1="600.785" y2="720.121"/>
  <line id="right-margin-Black-S" style="fill:none;stroke:#00AEEF;stroke-width:0.5;opacity:1.0;" x1="2991.9" x2="2991.9" y1="600.785" y2="720.121"/>
 </g>
 <g id="Symbols">
  <g id="Black-S" transform="matrix(1 0 0 1 2874.9 696)">
   <path class="SFSymbolsPreviewWireframe" d="M22.5586-37.3047L26.6602-37.3047C35.4492-37.3047 39.4531-41.3086 39.4531-50.0977L39.4531-60.5469C39.4531-69.3359 35.4492-73.3398 26.6602-73.3398L22.5586-73.3398C13.7695-73.3398 9.76562-69.3359 9.76562-60.5469L9.76562-50.0977C9.76562-41.3086 13.7695-37.3047 22.5586-37.3047ZM22.4609-48.0469C21.0938-48.0469 20.5078-48.6328 20.5078-50L20.5078-60.6445C20.5078-62.0117 21.0938-62.5977 22.4609-62.5977L26.7578-62.5977C28.125-62.5977 28.7109-62.0117 28.7109-60.6445L28.7109-50C28.7109-48.6328 28.125-48.0469 26.7578-48.0469ZM56.4453-37.3047L60.5469-37.3047C69.3359-37.3047 73.3398-41.3086 73.3398-50.0977L73.3398-60.5469C73.3398-69.3359 69.3359-73.3398 60.5469-73.3398L56.4453-73.3398C47.6562-73.3398 43.6523-69.3359 43.6523-60.5469L43.6523-50.0977C43.6523-41.3086 47.6562-37.3047 56.4453-37.3047ZM56.3477-48.0469C54.9805-48.0469 54.3945-48.6328 54.3945-50L54.3945-60.6445C54.3945-62.0117 54.9805-62.5977 56.3477-62.5977L60.6445-62.5977C62.0117-62.5977 62.5977-62.0117 62.5977-60.6445L62.5977-50C62.5977-48.6328 62.0117-48.0469 60.6445-48.0469ZM90.332-37.3047L94.4336-37.3047C103.223-37.3047 107.227-41.3086 107.227-50.0977L107.227-60.5469C107.227-69.3359 103.223-73.3398 94.4336-73.3398L90.332-73.3398C81.543-73.3398 77.5391-69.3359 77.5391-60.5469L77.5391-50.0977C77.5391-41.3086 81.543-37.3047 90.332-37.3047ZM90.2344-48.0469C88.8672-48.0469 88.2812-48.6328 88.2812-50L88.2812-60.6445C88.2812-62.0117 88.8672-62.5977 90.2344-62.5977L94.5312-62.5977C95.8984-62.5977 96.4844-62.0117 96.4844-60.6445L96.4844-50C96.4844-48.6328 95.8984-48.0469 94.5312-48.0469ZM22.5586 2.92969L26.6602 2.92969C35.4492 2.92969 39.4531-1.07422 39.4531-9.86328L39.4531-20.3125C39.4531-29.1016 35.4492-33.1055 26.6602-33.1055L22.5586-33.1055C13.7695-33.1055 9.76562-29.1016 9.76562-20.3125L9.76562-9.86328C9.76562-1.07422 13.7695 2.92969 22.5586 2.92969ZM22.4609-7.8125C21.0938-7.8125 20.5078-8.39844 20.5078-9.76562L20.5078-20.4102C20.5078-21.7773 21.0938-22.3633 22.4609-22.3633L26.7578-22.3633C28.125-22.3633 28.7109-21.7773 28.7109-20.4102L28.7109-9.76562C28.7109-8.39844 28.125-7.8125 26.7578-7.8125ZM56.4453 2.92969L60.5469 2.92969C69.3359 2.92969 73.3398-1.07422 73.3398-9.86328L73.3398-20.3125C73.3398-29.1016 69.3359-33.1055 60.5469-33.1055L56.4453-33.1055C47.6562-33.1055 43.6523-29.1016 43.6523-20.3125L43.6523-9.86328C43.6523-1.07422 47.6562 2.92969 56.4453 2.92969ZM56.3477-7.8125C54.9805-7.8125 54.3945-8.39844 54.3945-9.76562L54.3945-20.4102C54.3945-21.7773 54.9805-22.3633 56.3477-22.3633L60.6445-22.3633C62.0117-22.3633 62.5977-21.7773 62.5977-20.4102L62.5977-9.76562C62.5977-8.39844 62.0117-7.8125 60.6445-7.8125ZM90.332 2.92969L94.4336 2.92969C103.223 2.92969 107.227-1.07422 107.227-9.86328L107.227-20.3125C107.227-29.1016 103.223-33.1055 94.4336-33.1055L90.332-33.1055C81.543-33.1055 77.5391-29.1016 77.5391-20.3125L77.5391-9.86328C77.5391-1.07422 81.543 2.92969 90.332 2.92969ZM90.2344-7.8125C88.8672-7.8125 88.2812-8.39844 88.2812-9.76562L88.2812-20.4102C88.2812-21.7773 88.8672-22.3633 90.2344-22.3633L94.5312-22.3633C95.8984-22.3633 96.4844-21.7773 96.4844-20.4102L96.4844-9.76562C96.4844-8.39844 95.8984-7.8125 94.5312-7.8125Z"/>
  </g>
  <g id="Regular-S" transform="matrix(1 0 0 1 1398.36 696)">
   <path class="SFSymbolsPreviewWireframe" d="M17.5781-38.2812L25.6348-38.2812C30.8594-38.2812 33.4473-40.918 33.4473-46.2891L33.4473-62.793C33.4473-68.1641 30.8594-70.8008 25.6348-70.8008L17.5781-70.8008C12.3535-70.8008 9.76562-68.1641 9.76562-62.793L9.76562-46.2891C9.76562-40.918 12.3535-38.2812 17.5781-38.2812ZM17.627-44.4336C16.5039-44.4336 15.8691-45.0684 15.8691-46.2891L15.8691-62.8418C15.8691-64.0137 16.5039-64.6484 17.627-64.6484L25.5371-64.6484C26.709-64.6484 27.3438-64.0137 27.3438-62.8418L27.3438-46.2891C27.3438-45.0684 26.709-44.4336 25.5371-44.4336ZM47.4609-38.2812L55.5176-38.2812C60.7422-38.2812 63.3301-40.918 63.3301-46.2891L63.3301-62.793C63.3301-68.1641 60.7422-70.8008 55.5176-70.8008L47.4609-70.8008C42.2363-70.8008 39.6484-68.1641 39.6484-62.793L39.6484-46.2891C39.6484-40.918 42.2363-38.2812 47.4609-38.2812ZM47.5586-44.4336C46.3867-44.4336 45.752-45.0684 45.752-46.2891L45.752-62.8418C45.752-64.0137 46.3867-64.6484 47.5586-64.6484L55.4688-64.6484C56.6406-64.6484 57.2266-64.0137 57.2266-62.8418L57.2266-46.2891C57.2266-45.0684 56.6406-44.4336 55.4688-44.4336ZM77.3438-38.2812L85.4492-38.2812C90.625-38.2812 93.2129-40.918 93.2129-46.2891L93.2129-62.793C93.2129-68.1641 90.625-70.8008 85.4492-70.8008L77.3438-70.8008C72.1191-70.8008 69.5312-68.1641 69.5312-62.793L69.5312-46.2891C69.5312-40.918 72.1191-38.2812 77.3438-38.2812ZM77.3926-44.4336C76.2695-44.4336 75.6348-45.0684 75.6348-46.2891L75.6348-62.8418C75.6348-64.0137 76.2695-64.6484 77.3926-64.6484L85.3516-64.6484C86.5234-64.6484 87.1094-64.0137 87.1094-62.8418L87.1094-46.2891C87.1094-45.0684 86.5234-44.4336 85.3516-44.4336ZM17.5781 0.390625L25.6348 0.390625C30.8594 0.390625 33.4473-2.24609 33.4473-7.61719L33.4473-24.1211C33.4473-29.4922 30.8594-32.0801 25.6348-32.0801L17.5781-32.0801C12.3535-32.0801 9.76562-29.4922 9.76562-24.1211L9.76562-7.61719C9.76562-2.24609 12.3535 0.390625 17.5781 0.390625ZM17.627-5.76172C16.5039-5.76172 15.8691-6.39648 15.8691-7.56836L15.8691-24.1211C15.8691-25.3418 16.5039-25.9766 17.627-25.9766L25.5371-25.9766C26.709-25.9766 27.3438-25.3418 27.3438-24.1211L27.3438-7.56836C27.3438-6.39648 26.709-5.76172 25.5371-5.76172ZM47.4609 0.390625L55.5176 0.390625C60.7422 0.390625 63.3301-2.24609 63.3301-7.61719L63.3301-24.1211C63.3301-29.4922 60.7422-32.0801 55.5176-32.0801L47.4609-32.0801C42.2363-32.0801 39.6484-29.4922 39.6484-24.1211L39.6484-7.61719C39.6484-2.24609 42.2363 0.390625 47.4609 0.390625ZM47.5586-5.76172C46.3867-5.76172 45.752-6.39648 45.752-7.56836L45.752-24.1211C45.752-25.3418 46.3867-25.9766 47.5586-25.9766L55.4688-25.9766C56.6406-25.9766 57.2266-25.3418 57.2266-24.1211L57.2266-7.56836C57.2266-6.39648 56.6406-5.76172 55.4688-5.76172ZM77.3438 0.390625L85.4492 0.390625C90.625 0.390625 93.2129-2.24609 93.2129-7.61719L93.2129-24.1211C93.2129-29.4922 90.625-32.0801 85.4492-32.0801L77.3438-32.0801C72.1191-32.0801 69.5312-29.4922 69.5312-24.1211L69.5312-7.61719C69.5312-2.24609 72.1191 0.390625 77.3438 0.390625ZM77.3926-5.76172C76.2695-5.76172 75.6348-6.39648 75.6348-7.56836L75.6348-24.1211C75.6348-25.3418 76.2695-25.9766 77.3926-25.9766L85.3516-25.9766C86.5234-25.9766 87.1094-25.3418 87.1094-24.1211L87.1094-7.56836C87.1094-6.39648 86.5234-5.76172 85.3516-5.76172Z"/>
  </g>
  <g id="Ultralight-S" transform="matrix(1 0 0 1 510.992 696)">
   <path class="SFSymbolsPreviewWireframe" d="M14.8989-38.6445L25.9526-38.6445C29.27-38.6445 31.086-40.1914 31.086-43.7915L31.086-63.6103C31.086-67.2559 29.27-68.7573 25.9526-68.7573L14.8989-68.7573C11.5815-68.7573 9.76562-67.2559 9.76562-63.6103L9.76562-43.7915C9.76562-40.1914 11.5815-38.6445 14.8989-38.6445ZM14.9932-40.8008C12.7803-40.8008 11.9185-41.6626 11.9185-43.8823L11.9185-63.5229C11.9185-65.7392 12.7803-66.6011 14.9932-66.6011L25.855-66.6011C28.0713-66.6011 28.9331-65.7392 28.9331-63.5229L28.9331-43.8823C28.9331-41.6626 28.0713-40.8008 25.855-40.8008ZM43.1924-38.6445L54.2461-38.6445C57.5635-38.6445 59.3794-40.1914 59.3794-43.7915L59.3794-63.6103C59.3794-67.2559 57.5635-68.7573 54.2461-68.7573L43.1924-68.7573C39.875-68.7573 38.0591-67.2559 38.0591-63.6103L38.0591-43.7915C38.0591-40.1914 39.875-38.6445 43.1924-38.6445ZM43.2901-40.8008C41.0738-40.8008 40.212-41.6626 40.212-43.8823L40.212-63.5229C40.212-65.7392 41.0738-66.6011 43.2901-66.6011L54.1519-66.6011C56.3682-66.6011 57.2266-65.7392 57.2266-63.5229L57.2266-43.8823C57.2266-41.6626 56.3682-40.8008 54.1519-40.8008ZM71.4859-38.6445L82.5884-38.6445C85.9024-38.6445 87.6729-40.1914 87.6729-43.7915L87.6729-63.6103C87.6729-67.2559 85.9024-68.7573 82.5884-68.7573L71.4859-68.7573C68.1685-68.7573 66.3526-67.2559 66.3526-63.6103L66.3526-43.7915C66.3526-40.1914 68.1685-38.6445 71.4859-38.6445ZM71.5801-40.8008C69.4127-40.8008 68.5508-41.6626 68.5508-43.8823L68.5508-63.5229C68.5508-65.7392 69.4127-66.6011 71.5801-66.6011L82.4907-66.6011C84.6616-66.6011 85.52-65.7392 85.52-63.5229L85.52-43.8823C85.52-41.6626 84.6616-40.8008 82.4907-40.8008ZM14.8989-1.562L25.9526-1.562C29.27-1.562 31.086-3.06347 31.086-6.70899L31.086-26.5278C31.086-30.1279 29.27-31.6714 25.9526-31.6714L14.8989-31.6714C11.5815-31.6714 9.76562-30.1279 9.76562-26.5278L9.76562-6.70899C9.76562-3.06347 11.5815-1.562 14.8989-1.562ZM14.9932-3.71828C12.7803-3.71828 11.9185-4.58009 11.9185-6.79639L11.9185-26.437C11.9185-28.6567 12.7803-29.5185 14.9932-29.5185L25.855-29.5185C28.0713-29.5185 28.9331-28.6567 28.9331-26.437L28.9331-6.79639C28.9331-4.58009 28.0713-3.71828 25.855-3.71828ZM43.1924-1.562L54.2461-1.562C57.5635-1.562 59.3794-3.06347 59.3794-6.70899L59.3794-26.5278C59.3794-30.1279 57.5635-31.6714 54.2461-31.6714L43.1924-31.6714C39.875-31.6714 38.0591-30.1279 38.0591-26.5278L38.0591-6.70899C38.0591-3.06347 39.875-1.562 43.1924-1.562ZM43.2901-3.71828C41.0738-3.71828 40.212-4.58009 40.212-6.79639L40.212-26.437C40.212-28.6567 41.0738-29.5185 43.2901-29.5185L54.1519-29.5185C56.3682-29.5185 57.2266-28.6567 57.2266-26.437L57.2266-6.79639C57.2266-4.58009 56.3682-3.71828 54.1519-3.71828ZM71.4859-1.562L82.5884-1.562C85.9024-1.562 87.6729-3.06347 87.6729-6.70899L87.6729-26.5278C87.6729-30.1279 85.9024-31.6714 82.5884-31.6714L71.4859-31.6714C68.1685-31.6714 66.3526-30.1279 66.3526-26.5278L66.3526-6.70899C66.3526-3.06347 68.1685-1.562 71.4859-1.562ZM71.5801-3.71828C69.4127-3.71828 68.5508-4.58009 68.5508-6.79639L68.5508-26.437C68.5508-28.6567 69.4127-29.5185 71.5801-29.5185L82.4907-29.5185C84.6616-29.5185 85.52-28.6567 85.52-26.437L85.52-6.79639C85.52-4.58009 84.6616-3.71828 82.4907-3.71828Z"/>
  </g>
 </g>
</svg>
