<?xml version="1.0" encoding="UTF-8"?>
<!--Generator: Apple Native CoreSVG 232.5-->
<!DOCTYPE svg
PUBLIC "-//W3C//DTD SVG 1.1//EN"
       "http://www.w3.org/Graphics/SVG/1.1/DTD/svg11.dtd">
<svg version="1.1" xmlns="http://www.w3.org/2000/svg" xmlns:xlink="http://www.w3.org/1999/xlink" width="3300" height="2200">
 <!--glyph: "uni10029F.medium", point size: 100.0, font version: "19.2d2e1", template writer version: "128"-->
 <style>.SFSymbolsPreviewWireframe {fill:none;opacity:1.0;stroke:black;stroke-width:0.5}
</style>
 <g id="Notes">
  <rect height="2200" id="artboard" style="fill:white;opacity:1" width="3300" x="0" y="0"/>
  <line style="fill:none;stroke:black;opacity:1;stroke-width:0.5;" x1="263" x2="3036" y1="292" y2="292"/>
  <text style="stroke:none;fill:black;font-family:sans-serif;font-size:13;font-weight:bold;" transform="matrix(1 0 0 1 263 322)">Weight/Scale Variations</text>
  <text style="stroke:none;fill:black;font-family:sans-serif;font-size:13;text-anchor:middle;" transform="matrix(1 0 0 1 559.711 322)">Ultralight</text>
  <text style="stroke:none;fill:black;font-family:sans-serif;font-size:13;text-anchor:middle;" transform="matrix(1 0 0 1 856.422 322)">Thin</text>
  <text style="stroke:none;fill:black;font-family:sans-serif;font-size:13;text-anchor:middle;" transform="matrix(1 0 0 1 1153.13 322)">Light</text>
  <text style="stroke:none;fill:black;font-family:sans-serif;font-size:13;text-anchor:middle;" transform="matrix(1 0 0 1 1449.84 322)">Regular</text>
  <text style="stroke:none;fill:black;font-family:sans-serif;font-size:13;text-anchor:middle;" transform="matrix(1 0 0 1 1746.56 322)">Medium</text>
  <text style="stroke:none;fill:black;font-family:sans-serif;font-size:13;text-anchor:middle;" transform="matrix(1 0 0 1 2043.27 322)">Semibold</text>
  <text style="stroke:none;fill:black;font-family:sans-serif;font-size:13;text-anchor:middle;" transform="matrix(1 0 0 1 2339.98 322)">Bold</text>
  <text style="stroke:none;fill:black;font-family:sans-serif;font-size:13;text-anchor:middle;" transform="matrix(1 0 0 1 2636.69 322)">Heavy</text>
  <text style="stroke:none;fill:black;font-family:sans-serif;font-size:13;text-anchor:middle;" transform="matrix(1 0 0 1 2933.4 322)">Black</text>
  <line style="fill:none;stroke:black;opacity:1;stroke-width:0.5;" x1="263" x2="3036" y1="1903" y2="1903"/>
  <g transform="matrix(0.2 0 0 0.2 263 1933)">
   <path d="m46.2402 4.15039c21.5332 0 39.4531-17.8711 39.4531-39.4043s-17.9688-39.4043-39.502-39.4043c-21.4844 0-39.3555 17.8711-39.3555 39.4043s17.9199 39.4043 39.4043 39.4043Zm0-7.42188c-17.7246 0-31.8848-14.209-31.8848-31.9824s14.1113-31.9824 31.8359-31.9824c17.7734 0 32.0312 14.209 32.0312 31.9824s-14.209 31.9824-31.9824 31.9824Zm-17.9688-31.9824c0 2.14844 1.51367 3.61328 3.75977 3.61328h10.498v10.5957c0 2.19727 1.46484 3.71094 3.61328 3.71094 2.24609 0 3.71094-1.51367 3.71094-3.71094v-10.5957h10.5957c2.19727 0 3.71094-1.46484 3.71094-3.61328 0-2.19727-1.51367-3.71094-3.71094-3.71094h-10.5957v-10.5469c0-2.24609-1.46484-3.75977-3.71094-3.75977-2.14844 0-3.61328 1.51367-3.61328 3.75977v10.5469h-10.498c-2.24609 0-3.75977 1.51367-3.75977 3.71094Z"/>
  </g>
  <g transform="matrix(0.2 0 0 0.2 281.506 1933)">
   <path d="m58.5449 14.5508c27.2461 0 49.8047-22.6074 49.8047-49.8047 0-27.2461-22.6074-49.8047-49.8535-49.8047-27.1973 0-49.7559 22.5586-49.7559 49.8047 0 27.1973 22.6074 49.8047 49.8047 49.8047Zm0-8.30078c-23.0469 0-41.4551-18.457-41.4551-41.5039s18.3594-41.5039 41.4062-41.5039 41.5527 18.457 41.5527 41.5039-18.457 41.5039-41.5039 41.5039Zm-22.6562-41.5039c0 2.39258 1.66016 4.00391 4.15039 4.00391h14.3555v14.4043c0 2.44141 1.66016 4.15039 4.05273 4.15039 2.44141 0 4.15039-1.66016 4.15039-4.15039v-14.4043h14.4043c2.44141 0 4.15039-1.61133 4.15039-4.00391 0-2.44141-1.70898-4.15039-4.15039-4.15039h-14.4043v-14.3555c0-2.49023-1.70898-4.19922-4.15039-4.19922-2.39258 0-4.05273 1.70898-4.05273 4.19922v14.3555h-14.3555c-2.49023 0-4.15039 1.70898-4.15039 4.15039Z"/>
  </g>
  <g transform="matrix(0.2 0 0 0.2 304.924 1933)">
   <path d="m74.8535 28.3203c34.8145 0 63.623-28.8086 63.623-63.5742 0-34.8145-28.8574-63.623-63.6719-63.623-34.7656 0-63.5254 28.8086-63.5254 63.623 0 34.7656 28.8086 63.5742 63.5742 63.5742Zm0-9.08203c-30.1758 0-54.4434-24.3164-54.4434-54.4922 0-30.2246 24.2188-54.4922 54.3945-54.4922 30.2246 0 54.541 24.2676 54.541 54.4922 0 30.1758-24.2676 54.4922-54.4922 54.4922Zm-28.8574-54.4922c0 2.58789 1.85547 4.39453 4.58984 4.39453h19.7266v19.7754c0 2.68555 1.85547 4.58984 4.44336 4.58984 2.68555 0 4.54102-1.85547 4.54102-4.58984v-19.7754h19.7754c2.68555 0 4.58984-1.80664 4.58984-4.39453 0-2.73438-1.85547-4.58984-4.58984-4.58984h-19.7754v-19.7266c0-2.73438-1.85547-4.63867-4.54102-4.63867-2.58789 0-4.44336 1.9043-4.44336 4.63867v19.7266h-19.7266c-2.73438 0-4.58984 1.85547-4.58984 4.58984Z"/>
  </g>
  <text style="stroke:none;fill:black;font-family:sans-serif;font-size:13;font-weight:bold;" transform="matrix(1 0 0 1 263 1953)">Design Variations</text>
  <text style="stroke:none;fill:black;font-family:sans-serif;font-size:13;" transform="matrix(1 0 0 1 263 1971)">Symbols are supported in up to nine weights and three scales.</text>
  <text style="stroke:none;fill:black;font-family:sans-serif;font-size:13;" transform="matrix(1 0 0 1 263 1989)">For optimal layout with text and other symbols, vertically align</text>
  <text style="stroke:none;fill:black;font-family:sans-serif;font-size:13;" transform="matrix(1 0 0 1 263 2007)">symbols with the adjacent text.</text>
  <line style="fill:none;stroke:#00AEEF;stroke-width:0.5;opacity:1.0;" x1="776" x2="776" y1="1919" y2="1933"/>
  <g transform="matrix(0.2 0 0 0.2 776 1933)">
   <path d="m16.5527 0.78125c2.58789 0 3.85742-0.976562 4.78516-3.71094l6.29883-17.2363h28.8086l6.29883 17.2363c0.927734 2.73438 2.19727 3.71094 4.73633 3.71094 2.58789 0 4.24805-1.5625 4.24805-4.00391 0-0.830078-0.146484-1.61133-0.537109-2.63672l-22.9004-60.9863c-1.12305-2.97852-3.125-4.49219-6.25-4.49219-3.02734 0-5.07812 1.46484-6.15234 4.44336l-22.9004 61.084c-0.390625 1.02539-0.537109 1.80664-0.537109 2.63672 0 2.44141 1.5625 3.95508 4.10156 3.95508Zm13.4766-28.3691 11.8652-32.8613h0.244141l11.8652 32.8613Z"/>
  </g>
  <line style="fill:none;stroke:#00AEEF;stroke-width:0.5;opacity:1.0;" x1="792.836" x2="792.836" y1="1919" y2="1933"/>
  <text style="stroke:none;fill:black;font-family:sans-serif;font-size:13;font-weight:bold;" transform="matrix(1 0 0 1 776 1953)">Margins</text>
  <text style="stroke:none;fill:black;font-family:sans-serif;font-size:13;" transform="matrix(1 0 0 1 776 1971)">Leading and trailing margins on the left and right side of each symbol</text>
  <text style="stroke:none;fill:black;font-family:sans-serif;font-size:13;" transform="matrix(1 0 0 1 776 1989)">can be adjusted by modifying the x-location of the margin guidelines.</text>
  <text style="stroke:none;fill:black;font-family:sans-serif;font-size:13;" transform="matrix(1 0 0 1 776 2007)">Modifications are automatically applied proportionally to all</text>
  <text style="stroke:none;fill:black;font-family:sans-serif;font-size:13;" transform="matrix(1 0 0 1 776 2025)">scales and weights.</text>
  <g transform="matrix(0.2 0 0 0.2 1289 1933)">
   <path d="m14.209 9.32617 8.49609 8.54492c4.29688 4.3457 9.22852 4.05273 13.8672-1.07422l53.4668-58.9355-4.83398-4.88281-53.0762 58.3984c-1.75781 2.00195-3.41797 2.49023-5.76172 0.146484l-5.85938-5.81055c-2.34375-2.29492-1.80664-4.00391 0.195312-5.81055l57.373-54.0039-4.88281-4.83398-57.959 54.4434c-4.93164 4.58984-5.32227 9.47266-1.02539 13.8184Zm32.0801-90.9668c-2.09961 2.05078-2.24609 4.93164-1.07422 6.88477 1.17188 1.80664 3.4668 2.97852 6.68945 2.14844 7.32422-1.70898 14.9414-2.00195 22.0703 2.68555l-2.92969 7.27539c-1.70898 4.15039-0.830078 7.08008 1.85547 9.81445l11.4746 11.5723c2.44141 2.44141 4.49219 2.53906 7.32422 2.05078l5.32227-0.976562 3.32031 3.36914-0.195312 2.7832c-0.195312 2.49023 0.439453 4.39453 2.88086 6.78711l3.80859 3.71094c2.39258 2.39258 5.46875 2.53906 7.8125 0.195312l14.5508-14.5996c2.34375-2.34375 2.24609-5.32227-0.146484-7.71484l-3.85742-3.80859c-2.39258-2.39258-4.24805-3.17383-6.64062-2.97852l-2.88086 0.244141-3.22266-3.17383 1.2207-5.61523c0.634766-2.83203-0.146484-5.0293-3.07617-7.95898l-10.9863-10.9375c-16.6992-16.6016-38.8672-16.2109-53.3203-1.75781Zm7.4707 1.85547c12.1582-8.88672 28.6133-7.37305 39.7461 3.75977l12.1582 12.0605c1.17188 1.17188 1.36719 2.09961 1.02539 3.80859l-1.61133 7.42188 7.51953 7.42188 4.93164-0.292969c1.26953-0.0488281 1.66016 0.0488281 2.63672 1.02539l2.88086 2.88086-12.207 12.207-2.88086-2.88086c-0.976562-0.976562-1.12305-1.36719-1.07422-2.68555l0.341797-4.88281-7.4707-7.42188-7.61719 1.26953c-1.61133 0.341797-2.34375 0.195312-3.56445-0.976562l-10.0098-10.0098c-1.26953-1.17188-1.41602-2.00195-0.634766-3.85742l4.39453-10.4492c-7.8125-7.27539-17.9688-10.4004-28.125-7.42188-0.78125 0.195312-1.07422-0.439453-0.439453-0.976562Z"/>
  </g>
  <text style="stroke:none;fill:black;font-family:sans-serif;font-size:13;font-weight:bold;" transform="matrix(1 0 0 1 1289 1953)">Exporting</text>
  <text style="stroke:none;fill:black;font-family:sans-serif;font-size:13;" transform="matrix(1 0 0 1 1289 1971)">Symbols should be outlined when exporting to ensure the</text>
  <text style="stroke:none;fill:black;font-family:sans-serif;font-size:13;" transform="matrix(1 0 0 1 1289 1989)">design is preserved when submitting to Xcode.</text>
  <text id="template-version" style="stroke:none;fill:black;font-family:sans-serif;font-size:13;text-anchor:end;" transform="matrix(1 0 0 1 3036 1933)">Template v.5.0</text>
  <text style="stroke:none;fill:black;font-family:sans-serif;font-size:13;text-anchor:end;" transform="matrix(1 0 0 1 3036 1951)">Requires Xcode 15 or greater</text>
  <text id="descriptive-name" style="stroke:none;fill:black;font-family:sans-serif;font-size:13;text-anchor:end;" transform="matrix(1 0 0 1 3036 1969)">Generated from repeat.1</text>
  <text style="stroke:none;fill:black;font-family:sans-serif;font-size:13;text-anchor:end;" transform="matrix(1 0 0 1 3036 1987)">Typeset at 100.0 points</text>
  <text style="stroke:none;fill:black;font-family:sans-serif;font-size:13;" transform="matrix(1 0 0 1 263 726)">Small</text>
  <text style="stroke:none;fill:black;font-family:sans-serif;font-size:13;" transform="matrix(1 0 0 1 263 1156)">Medium</text>
  <text style="stroke:none;fill:black;font-family:sans-serif;font-size:13;" transform="matrix(1 0 0 1 263 1586)">Large</text>
 </g>
 <g id="Guides">
  <g id="H-reference" style="fill:#27AAE1;stroke:none;" transform="matrix(1 0 0 1 339 696)">
   <path d="M0.993654 0L3.63775 0L29.3281-67.1323L30.0303-67.1323L30.0303-70.459L28.1226-70.459ZM11.6885-24.4799L46.9815-24.4799L46.2315-26.7285L12.4385-26.7285ZM55.1196 0L57.7637 0L30.6382-70.459L29.4326-70.459L29.4326-67.1323Z"/>
  </g>
  <line id="Baseline-S" style="fill:none;stroke:#27AAE1;opacity:1;stroke-width:0.5;" x1="263" x2="3036" y1="696" y2="696"/>
  <line id="Capline-S" style="fill:none;stroke:#27AAE1;opacity:1;stroke-width:0.5;" x1="263" x2="3036" y1="625.541" y2="625.541"/>
  <g id="H-reference" style="fill:#27AAE1;stroke:none;" transform="matrix(1 0 0 1 339 1126)">
   <path d="M0.993654 0L3.63775 0L29.3281-67.1323L30.0303-67.1323L30.0303-70.459L28.1226-70.459ZM11.6885-24.4799L46.9815-24.4799L46.2315-26.7285L12.4385-26.7285ZM55.1196 0L57.7637 0L30.6382-70.459L29.4326-70.459L29.4326-67.1323Z"/>
  </g>
  <line id="Baseline-M" style="fill:none;stroke:#27AAE1;opacity:1;stroke-width:0.5;" x1="263" x2="3036" y1="1126" y2="1126"/>
  <line id="Capline-M" style="fill:none;stroke:#27AAE1;opacity:1;stroke-width:0.5;" x1="263" x2="3036" y1="1055.54" y2="1055.54"/>
  <g id="H-reference" style="fill:#27AAE1;stroke:none;" transform="matrix(1 0 0 1 339 1556)">
   <path d="M0.993654 0L3.63775 0L29.3281-67.1323L30.0303-67.1323L30.0303-70.459L28.1226-70.459ZM11.6885-24.4799L46.9815-24.4799L46.2315-26.7285L12.4385-26.7285ZM55.1196 0L57.7637 0L30.6382-70.459L29.4326-70.459L29.4326-67.1323Z"/>
  </g>
  <line id="Baseline-L" style="fill:none;stroke:#27AAE1;opacity:1;stroke-width:0.5;" x1="263" x2="3036" y1="1556" y2="1556"/>
  <line id="Capline-L" style="fill:none;stroke:#27AAE1;opacity:1;stroke-width:0.5;" x1="263" x2="3036" y1="1485.54" y2="1485.54"/>
  <line id="left-margin-Ultralight-S" style="fill:none;stroke:#00AEEF;stroke-width:0.5;opacity:1.0;" x1="513.968" x2="513.968" y1="600.785" y2="720.121"/>
  <line id="right-margin-Ultralight-S" style="fill:none;stroke:#00AEEF;stroke-width:0.5;opacity:1.0;" x1="605.454" x2="605.454" y1="600.785" y2="720.121"/>
  <line id="left-margin-Regular-S" style="fill:none;stroke:#00AEEF;stroke-width:0.5;opacity:1.0;" x1="1398.06" x2="1398.06" y1="600.785" y2="720.121"/>
  <line id="right-margin-Regular-S" style="fill:none;stroke:#00AEEF;stroke-width:0.5;opacity:1.0;" x1="1501.63" x2="1501.63" y1="600.785" y2="720.121"/>
  <line id="left-margin-Black-S" style="fill:none;stroke:#00AEEF;stroke-width:0.5;opacity:1.0;" x1="2875.47" x2="2875.47" y1="600.785" y2="720.121"/>
  <line id="right-margin-Black-S" style="fill:none;stroke:#00AEEF;stroke-width:0.5;opacity:1.0;" x1="2991.33" x2="2991.33" y1="600.785" y2="720.121"/>
 </g>
 <g id="Symbols">
  <g id="Black-S" transform="matrix(1 0 0 1 2875.47 696)">
   <path class="SFSymbolsPreviewWireframe" d="M17.1387-33.7402C21.582-33.7402 24.4629-36.6211 24.4629-41.1133L24.4629-43.3594C24.4629-50.293 28.9551-54.2969 36.6211-54.2969L50.0977-54.2969L50.0977-46.2891C50.0977-42.9688 52.1484-40.8691 55.3711-40.8691C56.9336-40.8691 58.0566-41.4062 58.9844-42.1875L76.7578-57.373C79.1504-59.4238 79.1016-62.8418 76.7578-64.8438L58.9844-79.9805C58.0566-80.7617 56.9336-81.2988 55.3711-81.2988C52.1484-81.2988 50.0977-79.1992 50.0977-75.8789L50.0977-68.6523L37.1094-68.6523C20.0195-68.6523 9.76562-60.0098 9.76562-45.6543L9.76562-41.1133C9.76562-36.6699 12.6953-33.7402 17.1387-33.7402ZM98.7305-42.041C94.2871-42.041 91.4062-39.1602 91.4062-34.668L91.4062-32.4219C91.4062-25.4883 86.9141-21.4844 79.248-21.4844L51.123-21.4844L51.123-29.6387C51.123-32.959 49.0723-35.0586 45.8496-35.0586C44.2871-35.0586 43.1641-34.5215 42.2363-33.7402L24.4629-18.5547C22.0703-16.5039 22.1191-13.0859 24.4629-11.084L42.2363 4.05273C43.1641 4.83398 44.2871 5.37109 45.8496 5.37109C49.0723 5.37109 51.123 3.27148 51.123-0.0488281L51.123-7.12891L78.7598-7.12891C95.8496-7.12891 106.104-15.7715 106.104-30.127L106.104-34.668C106.104-39.1113 103.174-42.041 98.7305-42.041ZM99.2188-48.291C103.32-48.291 106.104-50.3906 106.104-55.3711L106.104-73.9746C106.104-78.3691 102.832-81.3477 98.4375-81.3477C95.0195-81.3477 92.5781-80.2734 90.0391-78.4668L84.9121-74.8047C82.5684-73.1445 81.7871-71.9727 81.7871-70.0684C81.7871-67.2852 83.7402-65.5273 86.2305-65.5273C87.6465-65.5273 88.5254-65.8691 89.4531-66.6016L92.1387-68.7012L92.3828-68.7012L92.3828-55.3711C92.3828-50.3906 95.166-48.291 99.2188-48.291Z"/>
  </g>
  <g id="Regular-S" transform="matrix(1 0 0 1 1398.06 696)">
   <path class="SFSymbolsPreviewWireframe" d="M13.3789-33.6426C15.3809-33.6426 16.9434-35.2051 16.9434-37.2559L16.9434-40.9668C16.9434-47.2168 21.4355-51.4648 28.0762-51.4648L50.4883-51.4648L50.4883-42.5293C50.4883-40.8203 51.4648-39.8926 53.1738-39.8926C53.9551-39.8926 54.7363-40.1855 55.3223-40.6738L69.9219-52.9297C71.2402-54.0527 71.2891-55.6152 69.9219-56.7383L55.3223-69.043C54.7363-69.5312 53.9551-69.8242 53.1738-69.8242C51.4648-69.8242 50.4883-68.8965 50.4883-67.1875L50.4883-58.5449L28.8086-58.5449C17.2363-58.5449 9.76562-51.9531 9.76562-41.5039L9.76562-37.2559C9.76562-35.2051 11.3281-33.6426 13.3789-33.6426ZM89.9902-36.7676C87.9395-36.7676 86.377-35.2051 86.377-33.1543L86.377-29.4434C86.377-23.1934 81.8848-18.9453 75.293-18.9453L44.6289-18.9453L44.6289-27.7832C44.6289-29.4922 43.6035-30.4199 41.8945-30.4199C41.1621-30.4199 40.332-30.127 39.7461-29.6387L25.1465-17.3828C23.877-16.2598 23.8281-14.6973 25.1465-13.5742L39.7461-1.26953C40.332-0.78125 41.1621-0.488281 41.8945-0.488281C43.6035-0.488281 44.6289-1.41602 44.6289-3.125L44.6289-11.8652L74.5605-11.8652C86.1328-11.8652 93.6035-18.457 93.6035-28.9062L93.6035-33.1543C93.6035-35.2051 92.041-36.7676 89.9902-36.7676ZM90.0391-44.7266C92.3828-44.7266 93.7988-46.1426 93.7988-48.5352L93.7988-66.2109C93.7988-69.043 91.9922-70.9473 89.209-70.9473C86.9141-70.9473 85.5957-70.2148 83.8379-68.7988L78.8574-64.8926C77.9297-64.1602 77.6855-63.5254 77.6855-62.6465C77.6855-61.377 78.7109-60.4492 80.1758-60.4492C80.7129-60.4492 81.2988-60.6445 81.8848-61.084L85.8398-64.3066L86.2305-64.3066L86.2305-48.5352C86.2305-46.1426 87.6465-44.7266 90.0391-44.7266Z"/>
  </g>
  <g id="Ultralight-S" transform="matrix(1 0 0 1 513.968 696)">
   <path class="SFSymbolsPreviewWireframe" d="M11.4263-34.7324C12.4746-34.7324 13.0835-35.3413 13.0835-36.3931L13.0835-39.6953C13.0835-47.8071 17.5303-52.1006 25.9873-52.1006L44.2217-52.1006L44.2217-42.8018C44.2217-42.001 44.6988-41.5273 45.5904-41.5273C46.0538-41.5273 46.3355-41.6387 46.8306-41.9907L60.6583-52.521C61.6588-53.3262 61.6622-54.7979 60.6583-55.5576L46.8306-66.0913C46.3355-66.4434 46.0538-66.5093 45.5904-66.5093C44.6988-66.5093 44.2217-66.0811 44.2217-65.2349L44.2217-55.1846L26.0386-55.1846C16.3281-55.1846 9.76562-49.8643 9.76562-39.7329L9.76562-36.3931C9.76562-35.3413 10.4199-34.7324 11.4263-34.7324ZM80.0455-35.6323C79.0391-35.6323 78.3848-35.0234 78.3848-33.9717L78.3848-30.6694C78.3848-22.5576 73.9381-18.2642 65.4845-18.2642L39.4522-18.2642L39.4522-27.5562C39.4522-28.3569 38.9717-28.8306 38.0347-28.8306C37.5747-28.8306 37.335-28.7192 36.8399-28.3672L23.0122-17.8369C21.9697-17.0317 21.9663-15.5601 23.0122-14.8003L36.8399-4.26658C37.335-3.95994 37.5747-3.84861 38.0347-3.84861C38.9717-3.84861 39.4522-4.27683 39.4522-5.12303L39.4522-15.1801L65.4786-15.1801C75.1891-15.1801 81.7061-20.5005 81.7061-30.6318L81.7061-33.9717C81.7061-35.0234 81.0973-35.6323 80.0455-35.6323ZM80.0489-45.2715C81.0304-45.2715 81.7198-46.0063 81.7198-46.9458L81.7198-65.5298C81.7198-66.8633 80.776-67.5869 79.5821-67.5869C78.9219-67.5869 78.1939-67.3994 77.5713-66.937L71.8643-63.0308C71.4361-62.7525 71.2828-62.4356 71.2828-62.0562C71.2828-61.4678 71.6724-60.9487 72.4107-60.9487C72.7662-60.9487 73.0342-61.0532 73.3477-61.2656L77.8931-64.4883L78.3746-64.4883L78.3746-46.9458C78.3746-46.0063 79.1094-45.2715 80.0489-45.2715Z"/>
  </g>
 </g>
</svg>
