<?xml version="1.0" encoding="UTF-8"?>
<!--Generator: Apple Native CoreSVG 232.5-->
<!DOCTYPE svg
PUBLIC "-//W3C//DTD SVG 1.1//EN"
       "http://www.w3.org/Graphics/SVG/1.1/DTD/svg11.dtd">
<svg version="1.1" xmlns="http://www.w3.org/2000/svg" xmlns:xlink="http://www.w3.org/1999/xlink" width="3300" height="2200">
 <!--glyph: "uni1007C1.medium", point size: 100.0, font version: "19.2d2e1", template writer version: "128"-->
 <style>.SFSymbolsPreviewWireframe {fill:none;opacity:1.0;stroke:black;stroke-width:0.5}
</style>
 <g id="Notes">
  <rect height="2200" id="artboard" style="fill:white;opacity:1" width="3300" x="0" y="0"/>
  <line style="fill:none;stroke:black;opacity:1;stroke-width:0.5;" x1="263" x2="3036" y1="292" y2="292"/>
  <text style="stroke:none;fill:black;font-family:sans-serif;font-size:13;font-weight:bold;" transform="matrix(1 0 0 1 263 322)">Weight/Scale Variations</text>
  <text style="stroke:none;fill:black;font-family:sans-serif;font-size:13;text-anchor:middle;" transform="matrix(1 0 0 1 559.711 322)">Ultralight</text>
  <text style="stroke:none;fill:black;font-family:sans-serif;font-size:13;text-anchor:middle;" transform="matrix(1 0 0 1 856.422 322)">Thin</text>
  <text style="stroke:none;fill:black;font-family:sans-serif;font-size:13;text-anchor:middle;" transform="matrix(1 0 0 1 1153.13 322)">Light</text>
  <text style="stroke:none;fill:black;font-family:sans-serif;font-size:13;text-anchor:middle;" transform="matrix(1 0 0 1 1449.84 322)">Regular</text>
  <text style="stroke:none;fill:black;font-family:sans-serif;font-size:13;text-anchor:middle;" transform="matrix(1 0 0 1 1746.56 322)">Medium</text>
  <text style="stroke:none;fill:black;font-family:sans-serif;font-size:13;text-anchor:middle;" transform="matrix(1 0 0 1 2043.27 322)">Semibold</text>
  <text style="stroke:none;fill:black;font-family:sans-serif;font-size:13;text-anchor:middle;" transform="matrix(1 0 0 1 2339.98 322)">Bold</text>
  <text style="stroke:none;fill:black;font-family:sans-serif;font-size:13;text-anchor:middle;" transform="matrix(1 0 0 1 2636.69 322)">Heavy</text>
  <text style="stroke:none;fill:black;font-family:sans-serif;font-size:13;text-anchor:middle;" transform="matrix(1 0 0 1 2933.4 322)">Black</text>
  <line style="fill:none;stroke:black;opacity:1;stroke-width:0.5;" x1="263" x2="3036" y1="1903" y2="1903"/>
  <g transform="matrix(0.2 0 0 0.2 263 1933)">
   <path d="m46.2402 4.15039c21.5332 0 39.4531-17.8711 39.4531-39.4043s-17.9688-39.4043-39.502-39.4043c-21.4844 0-39.3555 17.8711-39.3555 39.4043s17.9199 39.4043 39.4043 39.4043Zm0-7.42188c-17.7246 0-31.8848-14.209-31.8848-31.9824s14.1113-31.9824 31.8359-31.9824c17.7734 0 32.0312 14.209 32.0312 31.9824s-14.209 31.9824-31.9824 31.9824Zm-17.9688-31.9824c0 2.14844 1.51367 3.61328 3.75977 3.61328h10.498v10.5957c0 2.19727 1.46484 3.71094 3.61328 3.71094 2.24609 0 3.71094-1.51367 3.71094-3.71094v-10.5957h10.5957c2.19727 0 3.71094-1.46484 3.71094-3.61328 0-2.19727-1.51367-3.71094-3.71094-3.71094h-10.5957v-10.5469c0-2.24609-1.46484-3.75977-3.71094-3.75977-2.14844 0-3.61328 1.51367-3.61328 3.75977v10.5469h-10.498c-2.24609 0-3.75977 1.51367-3.75977 3.71094Z"/>
  </g>
  <g transform="matrix(0.2 0 0 0.2 281.506 1933)">
   <path d="m58.5449 14.5508c27.2461 0 49.8047-22.6074 49.8047-49.8047 0-27.2461-22.6074-49.8047-49.8535-49.8047-27.1973 0-49.7559 22.5586-49.7559 49.8047 0 27.1973 22.6074 49.8047 49.8047 49.8047Zm0-8.30078c-23.0469 0-41.4551-18.457-41.4551-41.5039s18.3594-41.5039 41.4062-41.5039 41.5527 18.457 41.5527 41.5039-18.457 41.5039-41.5039 41.5039Zm-22.6562-41.5039c0 2.39258 1.66016 4.00391 4.15039 4.00391h14.3555v14.4043c0 2.44141 1.66016 4.15039 4.05273 4.15039 2.44141 0 4.15039-1.66016 4.15039-4.15039v-14.4043h14.4043c2.44141 0 4.15039-1.61133 4.15039-4.00391 0-2.44141-1.70898-4.15039-4.15039-4.15039h-14.4043v-14.3555c0-2.49023-1.70898-4.19922-4.15039-4.19922-2.39258 0-4.05273 1.70898-4.05273 4.19922v14.3555h-14.3555c-2.49023 0-4.15039 1.70898-4.15039 4.15039Z"/>
  </g>
  <g transform="matrix(0.2 0 0 0.2 304.924 1933)">
   <path d="m74.8535 28.3203c34.8145 0 63.623-28.8086 63.623-63.5742 0-34.8145-28.8574-63.623-63.6719-63.623-34.7656 0-63.5254 28.8086-63.5254 63.623 0 34.7656 28.8086 63.5742 63.5742 63.5742Zm0-9.08203c-30.1758 0-54.4434-24.3164-54.4434-54.4922 0-30.2246 24.2188-54.4922 54.3945-54.4922 30.2246 0 54.541 24.2676 54.541 54.4922 0 30.1758-24.2676 54.4922-54.4922 54.4922Zm-28.8574-54.4922c0 2.58789 1.85547 4.39453 4.58984 4.39453h19.7266v19.7754c0 2.68555 1.85547 4.58984 4.44336 4.58984 2.68555 0 4.54102-1.85547 4.54102-4.58984v-19.7754h19.7754c2.68555 0 4.58984-1.80664 4.58984-4.39453 0-2.73438-1.85547-4.58984-4.58984-4.58984h-19.7754v-19.7266c0-2.73438-1.85547-4.63867-4.54102-4.63867-2.58789 0-4.44336 1.9043-4.44336 4.63867v19.7266h-19.7266c-2.73438 0-4.58984 1.85547-4.58984 4.58984Z"/>
  </g>
  <text style="stroke:none;fill:black;font-family:sans-serif;font-size:13;font-weight:bold;" transform="matrix(1 0 0 1 263 1953)">Design Variations</text>
  <text style="stroke:none;fill:black;font-family:sans-serif;font-size:13;" transform="matrix(1 0 0 1 263 1971)">Symbols are supported in up to nine weights and three scales.</text>
  <text style="stroke:none;fill:black;font-family:sans-serif;font-size:13;" transform="matrix(1 0 0 1 263 1989)">For optimal layout with text and other symbols, vertically align</text>
  <text style="stroke:none;fill:black;font-family:sans-serif;font-size:13;" transform="matrix(1 0 0 1 263 2007)">symbols with the adjacent text.</text>
  <line style="fill:none;stroke:#00AEEF;stroke-width:0.5;opacity:1.0;" x1="776" x2="776" y1="1919" y2="1933"/>
  <g transform="matrix(0.2 0 0 0.2 776 1933)">
   <path d="m16.5527 0.78125c2.58789 0 3.85742-0.976562 4.78516-3.71094l6.29883-17.2363h28.8086l6.29883 17.2363c0.927734 2.73438 2.19727 3.71094 4.73633 3.71094 2.58789 0 4.24805-1.5625 4.24805-4.00391 0-0.830078-0.146484-1.61133-0.537109-2.63672l-22.9004-60.9863c-1.12305-2.97852-3.125-4.49219-6.25-4.49219-3.02734 0-5.07812 1.46484-6.15234 4.44336l-22.9004 61.084c-0.390625 1.02539-0.537109 1.80664-0.537109 2.63672 0 2.44141 1.5625 3.95508 4.10156 3.95508Zm13.4766-28.3691 11.8652-32.8613h0.244141l11.8652 32.8613Z"/>
  </g>
  <line style="fill:none;stroke:#00AEEF;stroke-width:0.5;opacity:1.0;" x1="792.836" x2="792.836" y1="1919" y2="1933"/>
  <text style="stroke:none;fill:black;font-family:sans-serif;font-size:13;font-weight:bold;" transform="matrix(1 0 0 1 776 1953)">Margins</text>
  <text style="stroke:none;fill:black;font-family:sans-serif;font-size:13;" transform="matrix(1 0 0 1 776 1971)">Leading and trailing margins on the left and right side of each symbol</text>
  <text style="stroke:none;fill:black;font-family:sans-serif;font-size:13;" transform="matrix(1 0 0 1 776 1989)">can be adjusted by modifying the x-location of the margin guidelines.</text>
  <text style="stroke:none;fill:black;font-family:sans-serif;font-size:13;" transform="matrix(1 0 0 1 776 2007)">Modifications are automatically applied proportionally to all</text>
  <text style="stroke:none;fill:black;font-family:sans-serif;font-size:13;" transform="matrix(1 0 0 1 776 2025)">scales and weights.</text>
  <g transform="matrix(0.2 0 0 0.2 1289 1933)">
   <path d="m14.209 9.32617 8.49609 8.54492c4.29688 4.3457 9.22852 4.05273 13.8672-1.07422l53.4668-58.9355-4.83398-4.88281-53.0762 58.3984c-1.75781 2.00195-3.41797 2.49023-5.76172 0.146484l-5.85938-5.81055c-2.34375-2.29492-1.80664-4.00391 0.195312-5.81055l57.373-54.0039-4.88281-4.83398-57.959 54.4434c-4.93164 4.58984-5.32227 9.47266-1.02539 13.8184Zm32.0801-90.9668c-2.09961 2.05078-2.24609 4.93164-1.07422 6.88477 1.17188 1.80664 3.4668 2.97852 6.68945 2.14844 7.32422-1.70898 14.9414-2.00195 22.0703 2.68555l-2.92969 7.27539c-1.70898 4.15039-0.830078 7.08008 1.85547 9.81445l11.4746 11.5723c2.44141 2.44141 4.49219 2.53906 7.32422 2.05078l5.32227-0.976562 3.32031 3.36914-0.195312 2.7832c-0.195312 2.49023 0.439453 4.39453 2.88086 6.78711l3.80859 3.71094c2.39258 2.39258 5.46875 2.53906 7.8125 0.195312l14.5508-14.5996c2.34375-2.34375 2.24609-5.32227-0.146484-7.71484l-3.85742-3.80859c-2.39258-2.39258-4.24805-3.17383-6.64062-2.97852l-2.88086 0.244141-3.22266-3.17383 1.2207-5.61523c0.634766-2.83203-0.146484-5.0293-3.07617-7.95898l-10.9863-10.9375c-16.6992-16.6016-38.8672-16.2109-53.3203-1.75781Zm7.4707 1.85547c12.1582-8.88672 28.6133-7.37305 39.7461 3.75977l12.1582 12.0605c1.17188 1.17188 1.36719 2.09961 1.02539 3.80859l-1.61133 7.42188 7.51953 7.42188 4.93164-0.292969c1.26953-0.0488281 1.66016 0.0488281 2.63672 1.02539l2.88086 2.88086-12.207 12.207-2.88086-2.88086c-0.976562-0.976562-1.12305-1.36719-1.07422-2.68555l0.341797-4.88281-7.4707-7.42188-7.61719 1.26953c-1.61133 0.341797-2.34375 0.195312-3.56445-0.976562l-10.0098-10.0098c-1.26953-1.17188-1.41602-2.00195-0.634766-3.85742l4.39453-10.4492c-7.8125-7.27539-17.9688-10.4004-28.125-7.42188-0.78125 0.195312-1.07422-0.439453-0.439453-0.976562Z"/>
  </g>
  <text style="stroke:none;fill:black;font-family:sans-serif;font-size:13;font-weight:bold;" transform="matrix(1 0 0 1 1289 1953)">Exporting</text>
  <text style="stroke:none;fill:black;font-family:sans-serif;font-size:13;" transform="matrix(1 0 0 1 1289 1971)">Symbols should be outlined when exporting to ensure the</text>
  <text style="stroke:none;fill:black;font-family:sans-serif;font-size:13;" transform="matrix(1 0 0 1 1289 1989)">design is preserved when submitting to Xcode.</text>
  <text id="template-version" style="stroke:none;fill:black;font-family:sans-serif;font-size:13;text-anchor:end;" transform="matrix(1 0 0 1 3036 1933)">Template v.5.0</text>
  <text style="stroke:none;fill:black;font-family:sans-serif;font-size:13;text-anchor:end;" transform="matrix(1 0 0 1 3036 1951)">Requires Xcode 15 or greater</text>
  <text id="descriptive-name" style="stroke:none;fill:black;font-family:sans-serif;font-size:13;text-anchor:end;" transform="matrix(1 0 0 1 3036 1969)">Generated from ruler.fill</text>
  <text style="stroke:none;fill:black;font-family:sans-serif;font-size:13;text-anchor:end;" transform="matrix(1 0 0 1 3036 1987)">Typeset at 100.0 points</text>
  <text style="stroke:none;fill:black;font-family:sans-serif;font-size:13;" transform="matrix(1 0 0 1 263 726)">Small</text>
  <text style="stroke:none;fill:black;font-family:sans-serif;font-size:13;" transform="matrix(1 0 0 1 263 1156)">Medium</text>
  <text style="stroke:none;fill:black;font-family:sans-serif;font-size:13;" transform="matrix(1 0 0 1 263 1586)">Large</text>
 </g>
 <g id="Guides">
  <g id="H-reference" style="fill:#27AAE1;stroke:none;" transform="matrix(1 0 0 1 339 696)">
   <path d="M0.993654 0L3.63775 0L29.3281-67.1323L30.0303-67.1323L30.0303-70.459L28.1226-70.459ZM11.6885-24.4799L46.9815-24.4799L46.2315-26.7285L12.4385-26.7285ZM55.1196 0L57.7637 0L30.6382-70.459L29.4326-70.459L29.4326-67.1323Z"/>
  </g>
  <line id="Baseline-S" style="fill:none;stroke:#27AAE1;opacity:1;stroke-width:0.5;" x1="263" x2="3036" y1="696" y2="696"/>
  <line id="Capline-S" style="fill:none;stroke:#27AAE1;opacity:1;stroke-width:0.5;" x1="263" x2="3036" y1="625.541" y2="625.541"/>
  <g id="H-reference" style="fill:#27AAE1;stroke:none;" transform="matrix(1 0 0 1 339 1126)">
   <path d="M0.993654 0L3.63775 0L29.3281-67.1323L30.0303-67.1323L30.0303-70.459L28.1226-70.459ZM11.6885-24.4799L46.9815-24.4799L46.2315-26.7285L12.4385-26.7285ZM55.1196 0L57.7637 0L30.6382-70.459L29.4326-70.459L29.4326-67.1323Z"/>
  </g>
  <line id="Baseline-M" style="fill:none;stroke:#27AAE1;opacity:1;stroke-width:0.5;" x1="263" x2="3036" y1="1126" y2="1126"/>
  <line id="Capline-M" style="fill:none;stroke:#27AAE1;opacity:1;stroke-width:0.5;" x1="263" x2="3036" y1="1055.54" y2="1055.54"/>
  <g id="H-reference" style="fill:#27AAE1;stroke:none;" transform="matrix(1 0 0 1 339 1556)">
   <path d="M0.993654 0L3.63775 0L29.3281-67.1323L30.0303-67.1323L30.0303-70.459L28.1226-70.459ZM11.6885-24.4799L46.9815-24.4799L46.2315-26.7285L12.4385-26.7285ZM55.1196 0L57.7637 0L30.6382-70.459L29.4326-70.459L29.4326-67.1323Z"/>
  </g>
  <line id="Baseline-L" style="fill:none;stroke:#27AAE1;opacity:1;stroke-width:0.5;" x1="263" x2="3036" y1="1556" y2="1556"/>
  <line id="Capline-L" style="fill:none;stroke:#27AAE1;opacity:1;stroke-width:0.5;" x1="263" x2="3036" y1="1485.54" y2="1485.54"/>
  <line id="left-margin-Ultralight-S" style="fill:none;stroke:#00AEEF;stroke-width:0.5;opacity:1.0;" x1="505.604" x2="505.604" y1="600.785" y2="720.121"/>
  <line id="right-margin-Ultralight-S" style="fill:none;stroke:#00AEEF;stroke-width:0.5;opacity:1.0;" x1="613.819" x2="613.819" y1="600.785" y2="720.121"/>
  <line id="left-margin-Regular-S" style="fill:none;stroke:#00AEEF;stroke-width:0.5;opacity:1.0;" x1="1392.74" x2="1392.74" y1="600.785" y2="720.121"/>
  <line id="right-margin-Regular-S" style="fill:none;stroke:#00AEEF;stroke-width:0.5;opacity:1.0;" x1="1506.95" x2="1506.95" y1="600.785" y2="720.121"/>
  <line id="left-margin-Black-S" style="fill:none;stroke:#00AEEF;stroke-width:0.5;opacity:1.0;" x1="2870.83" x2="2870.83" y1="600.785" y2="720.121"/>
  <line id="right-margin-Black-S" style="fill:none;stroke:#00AEEF;stroke-width:0.5;opacity:1.0;" x1="2995.97" x2="2995.97" y1="600.785" y2="720.121"/>
 </g>
 <g id="Symbols">
  <g id="Black-S" transform="matrix(1 0 0 1 2870.83 696)">
   <path class="SFSymbolsPreviewWireframe" d="M115.381-47.4121C115.381-55.2734 110.205-60.2539 102.295-60.2539L22.8027-60.2539C14.8438-60.2539 9.76562-55.2734 9.76562-47.4121L9.76562-23.2422C9.76562-15.3809 14.8926-10.3027 22.8516-10.3027L102.344-10.3027C110.254-10.3027 115.381-15.3809 115.381-23.2422ZM27.6855-48.5352L27.6855-33.8867C27.6855-32.5195 26.6602-31.4941 25.3418-31.4941C23.9746-31.4941 22.9004-32.5195 22.9004-33.8379L22.9004-48.5352ZM35.1562-48.5352L35.1562-38.6719C35.1562-37.3047 34.1309-36.2793 32.8125-36.2793C31.4453-36.2793 30.3711-37.3047 30.3711-38.623L30.3711-48.5352ZM42.627-48.5352L42.627-38.6719C42.627-37.3047 41.6016-36.2793 40.2832-36.2793C38.916-36.2793 37.8418-37.3047 37.8418-38.623L37.8418-48.5352ZM50.0977-48.5352L50.0977-38.6719C50.0977-37.3047 49.0723-36.2793 47.7539-36.2793C46.3867-36.2793 45.3125-37.3047 45.3125-38.623L45.3125-48.5352ZM57.5684-48.5352L57.5684-38.6719C57.5684-37.3047 56.543-36.2793 55.2246-36.2793C53.8574-36.2793 52.7832-37.3047 52.7832-38.623L52.7832-48.5352ZM65.0391-48.5352L65.0391-33.8867C65.0391-32.5195 64.0137-31.4941 62.6953-31.4941C61.3281-31.4941 60.2539-32.5195 60.2539-33.8379L60.2539-48.5352ZM72.5098-48.5352L72.5098-38.6719C72.5098-37.3047 71.4844-36.2793 70.166-36.2793C68.7988-36.2793 67.7246-37.3047 67.7246-38.623L67.7246-48.5352ZM79.9805-48.5352L79.9805-38.6719C79.9805-37.3047 78.9551-36.2793 77.6367-36.2793C76.2695-36.2793 75.1953-37.3047 75.1953-38.623L75.1953-48.5352ZM87.4512-48.5352L87.4512-38.6719C87.4512-37.3047 86.4258-36.2793 85.1074-36.2793C83.7402-36.2793 82.666-37.3047 82.666-38.623L82.666-48.5352ZM94.9219-48.5352L94.9219-38.6719C94.9219-37.3047 93.8965-36.2793 92.5781-36.2793C91.2109-36.2793 90.1367-37.3047 90.1367-38.623L90.1367-48.5352ZM102.393-48.5352L102.393-33.8867C102.393-32.5195 101.367-31.4941 100.049-31.4941C98.6816-31.4941 97.6074-32.5195 97.6074-33.8379L97.6074-48.5352Z"/>
  </g>
  <g id="Regular-S" transform="matrix(1 0 0 1 1392.74 696)">
   <path class="SFSymbolsPreviewWireframe" d="M104.443-45.9473C104.443-52.9785 100.879-56.543 93.75-56.543L20.459-56.543C13.3301-56.543 9.76562-53.0273 9.76562-45.9473L9.76562-24.4629C9.76562-17.4316 13.3789-13.8672 20.5078-13.8672L93.75-13.8672C100.928-13.8672 104.443-17.4316 104.443-24.4629ZM21.1914-49.5117L21.1914-31.4453C21.1914-30.5176 20.5566-29.7852 19.5312-29.7852C18.6523-29.7852 17.8711-30.4688 17.8711-31.3965L17.8711-49.5117ZM28.7598-49.5117L28.7598-38.1836C28.7598-37.2559 28.0762-36.5234 27.0508-36.5234C26.1719-36.5234 25.3906-37.207 25.3906-38.1348L25.3906-49.5117ZM36.2793-49.5117L36.2793-38.1836C36.2793-37.2559 35.5957-36.5234 34.6191-36.5234C33.6914-36.5234 32.9102-37.207 32.9102-38.1348L32.9102-49.5117ZM43.75-49.5117L43.75-38.1836C43.75-37.2559 43.0664-36.5234 42.0898-36.5234C41.1621-36.5234 40.4297-37.207 40.4297-38.1348L40.4297-49.5117ZM51.2695-49.5117L51.2695-38.1836C51.2695-37.2559 50.6348-36.5234 49.6094-36.5234C48.7305-36.5234 47.9492-37.207 47.9492-38.1348L47.9492-49.5117ZM58.7891-49.5117L58.7891-31.4453C58.7891-30.5176 58.1055-29.7852 57.0801-29.7852C56.2012-29.7852 55.4199-30.4688 55.4199-31.3965L55.4199-49.5117ZM66.3086-49.5117L66.3086-38.1836C66.3086-37.2559 65.625-36.5234 64.6484-36.5234C63.7207-36.5234 62.9395-37.207 62.9395-38.1348L62.9395-49.5117ZM73.8281-49.5117L73.8281-38.1836C73.8281-37.2559 73.1445-36.5234 72.168-36.5234C71.2402-36.5234 70.5078-37.207 70.5078-38.1348L70.5078-49.5117ZM81.2988-49.5117L81.2988-38.1836C81.2988-37.2559 80.6641-36.5234 79.6387-36.5234C78.7598-36.5234 77.9785-37.207 77.9785-38.1348L77.9785-49.5117ZM88.8672-49.5117L88.8672-38.1836C88.8672-37.2559 88.1836-36.5234 87.1582-36.5234C86.2793-36.5234 85.498-37.207 85.498-38.1348L85.498-49.5117ZM96.3379-49.5117L96.3379-31.4453C96.3379-30.5176 95.6543-29.7852 94.6777-29.7852C93.75-29.7852 92.9688-30.4688 92.9688-31.3965L92.9688-49.5117Z"/>
  </g>
  <g id="Ultralight-S" transform="matrix(1 0 0 1 505.604 696)">
   <path class="SFSymbolsPreviewWireframe" d="M98.4493-44.3125C98.4493-49.9815 95.1119-53.2735 89.4815-53.2735L18.7334-53.2735C13.103-53.2735 9.76562-49.9849 9.76562-44.3125L9.76562-26.1885C9.76562-20.5195 13.1064-17.2275 18.7368-17.2275L89.4815-17.2275C95.1153-17.2275 98.4493-20.5195 98.4493-26.1885ZM20.7827-50.1475L20.7827-33.3979C20.7827-32.7427 20.375-32.3281 19.7583-32.3281C19.1519-32.3281 18.7339-32.7392 18.7339-33.3945L18.7339-50.1475ZM27.6245-50.1475L27.6245-40C27.6245-39.3447 27.2588-38.9302 26.6421-38.9302C26.0356-38.9302 25.6177-39.3413 25.6177-39.9966L25.6177-50.1475ZM34.5083-50.1475L34.5083-40C34.5083-39.3447 34.0972-38.9302 33.4839-38.9302C32.9194-38.9302 32.5015-39.3413 32.5015-39.9966L32.5015-50.1475ZM41.3887-50.1475L41.3887-40C41.3887-39.3447 40.9776-38.9302 40.3643-38.9302C39.7544-38.9302 39.3399-39.3413 39.3399-39.9966L39.3399-50.1475ZM48.2725-50.1475L48.2725-40C48.2725-39.3447 47.8648-38.9302 47.2481-38.9302C46.6416-38.9302 46.2236-39.3413 46.2236-39.9966L46.2236-50.1475ZM55.1563-50.1475L55.1563-33.3979C55.1563-32.7427 54.7451-32.3281 54.1739-32.3281C53.5674-32.3281 53.1494-32.7392 53.1494-33.3945L53.1494-50.1475ZM62.0401-50.1475L62.0401-40C62.0401-39.3447 61.6289-38.9302 61.0157-38.9302C60.4058-38.9302 60.0332-39.3413 60.0332-39.9966L60.0332-50.1475ZM68.9239-50.1475L68.9239-40C68.9239-39.3447 68.5127-38.9302 67.8994-38.9302C67.2896-38.9302 66.875-39.3413 66.875-39.9966L66.875-50.1475ZM75.7588-50.1475L75.7588-40C75.7588-39.3447 75.3511-38.9302 74.7798-38.9302C74.1734-38.9302 73.7554-39.3413 73.7554-39.9966L73.7554-50.1475ZM82.646-50.1475L82.646-40C82.646-39.3447 82.2349-38.9302 81.6182-38.9302C81.0118-38.9302 80.6392-39.3413 80.6392-39.9966L80.6392-50.1475ZM89.481-50.1475L89.481-33.3979C89.481-32.7427 89.0699-32.3281 88.4566-32.3281C87.8467-32.3281 87.4288-32.7392 87.4288-33.3945L87.4288-50.1475Z"/>
  </g>
 </g>
</svg>
