<?xml version="1.0" encoding="UTF-8"?>
<!--Generator: Apple Native CoreSVG 232.5-->
<!DOCTYPE svg
PUBLIC "-//W3C//DTD SVG 1.1//EN"
       "http://www.w3.org/Graphics/SVG/1.1/DTD/svg11.dtd">
<svg version="1.1" xmlns="http://www.w3.org/2000/svg" xmlns:xlink="http://www.w3.org/1999/xlink" width="3300" height="2200">
 <!--glyph: "uni1007C0.medium", point size: 100.0, font version: "19.2d2e1", template writer version: "128"-->
 <style>.SFSymbolsPreviewWireframe {fill:none;opacity:1.0;stroke:black;stroke-width:0.5}
</style>
 <g id="Notes">
  <rect height="2200" id="artboard" style="fill:white;opacity:1" width="3300" x="0" y="0"/>
  <line style="fill:none;stroke:black;opacity:1;stroke-width:0.5;" x1="263" x2="3036" y1="292" y2="292"/>
  <text style="stroke:none;fill:black;font-family:sans-serif;font-size:13;font-weight:bold;" transform="matrix(1 0 0 1 263 322)">Weight/Scale Variations</text>
  <text style="stroke:none;fill:black;font-family:sans-serif;font-size:13;text-anchor:middle;" transform="matrix(1 0 0 1 559.711 322)">Ultralight</text>
  <text style="stroke:none;fill:black;font-family:sans-serif;font-size:13;text-anchor:middle;" transform="matrix(1 0 0 1 856.422 322)">Thin</text>
  <text style="stroke:none;fill:black;font-family:sans-serif;font-size:13;text-anchor:middle;" transform="matrix(1 0 0 1 1153.13 322)">Light</text>
  <text style="stroke:none;fill:black;font-family:sans-serif;font-size:13;text-anchor:middle;" transform="matrix(1 0 0 1 1449.84 322)">Regular</text>
  <text style="stroke:none;fill:black;font-family:sans-serif;font-size:13;text-anchor:middle;" transform="matrix(1 0 0 1 1746.56 322)">Medium</text>
  <text style="stroke:none;fill:black;font-family:sans-serif;font-size:13;text-anchor:middle;" transform="matrix(1 0 0 1 2043.27 322)">Semibold</text>
  <text style="stroke:none;fill:black;font-family:sans-serif;font-size:13;text-anchor:middle;" transform="matrix(1 0 0 1 2339.98 322)">Bold</text>
  <text style="stroke:none;fill:black;font-family:sans-serif;font-size:13;text-anchor:middle;" transform="matrix(1 0 0 1 2636.69 322)">Heavy</text>
  <text style="stroke:none;fill:black;font-family:sans-serif;font-size:13;text-anchor:middle;" transform="matrix(1 0 0 1 2933.4 322)">Black</text>
  <line style="fill:none;stroke:black;opacity:1;stroke-width:0.5;" x1="263" x2="3036" y1="1903" y2="1903"/>
  <g transform="matrix(0.2 0 0 0.2 263 1933)">
   <path d="m46.2402 4.15039c21.5332 0 39.4531-17.8711 39.4531-39.4043s-17.9688-39.4043-39.502-39.4043c-21.4844 0-39.3555 17.8711-39.3555 39.4043s17.9199 39.4043 39.4043 39.4043Zm0-7.42188c-17.7246 0-31.8848-14.209-31.8848-31.9824s14.1113-31.9824 31.8359-31.9824c17.7734 0 32.0312 14.209 32.0312 31.9824s-14.209 31.9824-31.9824 31.9824Zm-17.9688-31.9824c0 2.14844 1.51367 3.61328 3.75977 3.61328h10.498v10.5957c0 2.19727 1.46484 3.71094 3.61328 3.71094 2.24609 0 3.71094-1.51367 3.71094-3.71094v-10.5957h10.5957c2.19727 0 3.71094-1.46484 3.71094-3.61328 0-2.19727-1.51367-3.71094-3.71094-3.71094h-10.5957v-10.5469c0-2.24609-1.46484-3.75977-3.71094-3.75977-2.14844 0-3.61328 1.51367-3.61328 3.75977v10.5469h-10.498c-2.24609 0-3.75977 1.51367-3.75977 3.71094Z"/>
  </g>
  <g transform="matrix(0.2 0 0 0.2 281.506 1933)">
   <path d="m58.5449 14.5508c27.2461 0 49.8047-22.6074 49.8047-49.8047 0-27.2461-22.6074-49.8047-49.8535-49.8047-27.1973 0-49.7559 22.5586-49.7559 49.8047 0 27.1973 22.6074 49.8047 49.8047 49.8047Zm0-8.30078c-23.0469 0-41.4551-18.457-41.4551-41.5039s18.3594-41.5039 41.4062-41.5039 41.5527 18.457 41.5527 41.5039-18.457 41.5039-41.5039 41.5039Zm-22.6562-41.5039c0 2.39258 1.66016 4.00391 4.15039 4.00391h14.3555v14.4043c0 2.44141 1.66016 4.15039 4.05273 4.15039 2.44141 0 4.15039-1.66016 4.15039-4.15039v-14.4043h14.4043c2.44141 0 4.15039-1.61133 4.15039-4.00391 0-2.44141-1.70898-4.15039-4.15039-4.15039h-14.4043v-14.3555c0-2.49023-1.70898-4.19922-4.15039-4.19922-2.39258 0-4.05273 1.70898-4.05273 4.19922v14.3555h-14.3555c-2.49023 0-4.15039 1.70898-4.15039 4.15039Z"/>
  </g>
  <g transform="matrix(0.2 0 0 0.2 304.924 1933)">
   <path d="m74.8535 28.3203c34.8145 0 63.623-28.8086 63.623-63.5742 0-34.8145-28.8574-63.623-63.6719-63.623-34.7656 0-63.5254 28.8086-63.5254 63.623 0 34.7656 28.8086 63.5742 63.5742 63.5742Zm0-9.08203c-30.1758 0-54.4434-24.3164-54.4434-54.4922 0-30.2246 24.2188-54.4922 54.3945-54.4922 30.2246 0 54.541 24.2676 54.541 54.4922 0 30.1758-24.2676 54.4922-54.4922 54.4922Zm-28.8574-54.4922c0 2.58789 1.85547 4.39453 4.58984 4.39453h19.7266v19.7754c0 2.68555 1.85547 4.58984 4.44336 4.58984 2.68555 0 4.54102-1.85547 4.54102-4.58984v-19.7754h19.7754c2.68555 0 4.58984-1.80664 4.58984-4.39453 0-2.73438-1.85547-4.58984-4.58984-4.58984h-19.7754v-19.7266c0-2.73438-1.85547-4.63867-4.54102-4.63867-2.58789 0-4.44336 1.9043-4.44336 4.63867v19.7266h-19.7266c-2.73438 0-4.58984 1.85547-4.58984 4.58984Z"/>
  </g>
  <text style="stroke:none;fill:black;font-family:sans-serif;font-size:13;font-weight:bold;" transform="matrix(1 0 0 1 263 1953)">Design Variations</text>
  <text style="stroke:none;fill:black;font-family:sans-serif;font-size:13;" transform="matrix(1 0 0 1 263 1971)">Symbols are supported in up to nine weights and three scales.</text>
  <text style="stroke:none;fill:black;font-family:sans-serif;font-size:13;" transform="matrix(1 0 0 1 263 1989)">For optimal layout with text and other symbols, vertically align</text>
  <text style="stroke:none;fill:black;font-family:sans-serif;font-size:13;" transform="matrix(1 0 0 1 263 2007)">symbols with the adjacent text.</text>
  <line style="fill:none;stroke:#00AEEF;stroke-width:0.5;opacity:1.0;" x1="776" x2="776" y1="1919" y2="1933"/>
  <g transform="matrix(0.2 0 0 0.2 776 1933)">
   <path d="m16.5527 0.78125c2.58789 0 3.85742-0.976562 4.78516-3.71094l6.29883-17.2363h28.8086l6.29883 17.2363c0.927734 2.73438 2.19727 3.71094 4.73633 3.71094 2.58789 0 4.24805-1.5625 4.24805-4.00391 0-0.830078-0.146484-1.61133-0.537109-2.63672l-22.9004-60.9863c-1.12305-2.97852-3.125-4.49219-6.25-4.49219-3.02734 0-5.07812 1.46484-6.15234 4.44336l-22.9004 61.084c-0.390625 1.02539-0.537109 1.80664-0.537109 2.63672 0 2.44141 1.5625 3.95508 4.10156 3.95508Zm13.4766-28.3691 11.8652-32.8613h0.244141l11.8652 32.8613Z"/>
  </g>
  <line style="fill:none;stroke:#00AEEF;stroke-width:0.5;opacity:1.0;" x1="792.836" x2="792.836" y1="1919" y2="1933"/>
  <text style="stroke:none;fill:black;font-family:sans-serif;font-size:13;font-weight:bold;" transform="matrix(1 0 0 1 776 1953)">Margins</text>
  <text style="stroke:none;fill:black;font-family:sans-serif;font-size:13;" transform="matrix(1 0 0 1 776 1971)">Leading and trailing margins on the left and right side of each symbol</text>
  <text style="stroke:none;fill:black;font-family:sans-serif;font-size:13;" transform="matrix(1 0 0 1 776 1989)">can be adjusted by modifying the x-location of the margin guidelines.</text>
  <text style="stroke:none;fill:black;font-family:sans-serif;font-size:13;" transform="matrix(1 0 0 1 776 2007)">Modifications are automatically applied proportionally to all</text>
  <text style="stroke:none;fill:black;font-family:sans-serif;font-size:13;" transform="matrix(1 0 0 1 776 2025)">scales and weights.</text>
  <g transform="matrix(0.2 0 0 0.2 1289 1933)">
   <path d="m14.209 9.32617 8.49609 8.54492c4.29688 4.3457 9.22852 4.05273 13.8672-1.07422l53.4668-58.9355-4.83398-4.88281-53.0762 58.3984c-1.75781 2.00195-3.41797 2.49023-5.76172 0.146484l-5.85938-5.81055c-2.34375-2.29492-1.80664-4.00391 0.195312-5.81055l57.373-54.0039-4.88281-4.83398-57.959 54.4434c-4.93164 4.58984-5.32227 9.47266-1.02539 13.8184Zm32.0801-90.9668c-2.09961 2.05078-2.24609 4.93164-1.07422 6.88477 1.17188 1.80664 3.4668 2.97852 6.68945 2.14844 7.32422-1.70898 14.9414-2.00195 22.0703 2.68555l-2.92969 7.27539c-1.70898 4.15039-0.830078 7.08008 1.85547 9.81445l11.4746 11.5723c2.44141 2.44141 4.49219 2.53906 7.32422 2.05078l5.32227-0.976562 3.32031 3.36914-0.195312 2.7832c-0.195312 2.49023 0.439453 4.39453 2.88086 6.78711l3.80859 3.71094c2.39258 2.39258 5.46875 2.53906 7.8125 0.195312l14.5508-14.5996c2.34375-2.34375 2.24609-5.32227-0.146484-7.71484l-3.85742-3.80859c-2.39258-2.39258-4.24805-3.17383-6.64062-2.97852l-2.88086 0.244141-3.22266-3.17383 1.2207-5.61523c0.634766-2.83203-0.146484-5.0293-3.07617-7.95898l-10.9863-10.9375c-16.6992-16.6016-38.8672-16.2109-53.3203-1.75781Zm7.4707 1.85547c12.1582-8.88672 28.6133-7.37305 39.7461 3.75977l12.1582 12.0605c1.17188 1.17188 1.36719 2.09961 1.02539 3.80859l-1.61133 7.42188 7.51953 7.42188 4.93164-0.292969c1.26953-0.0488281 1.66016 0.0488281 2.63672 1.02539l2.88086 2.88086-12.207 12.207-2.88086-2.88086c-0.976562-0.976562-1.12305-1.36719-1.07422-2.68555l0.341797-4.88281-7.4707-7.42188-7.61719 1.26953c-1.61133 0.341797-2.34375 0.195312-3.56445-0.976562l-10.0098-10.0098c-1.26953-1.17188-1.41602-2.00195-0.634766-3.85742l4.39453-10.4492c-7.8125-7.27539-17.9688-10.4004-28.125-7.42188-0.78125 0.195312-1.07422-0.439453-0.439453-0.976562Z"/>
  </g>
  <text style="stroke:none;fill:black;font-family:sans-serif;font-size:13;font-weight:bold;" transform="matrix(1 0 0 1 1289 1953)">Exporting</text>
  <text style="stroke:none;fill:black;font-family:sans-serif;font-size:13;" transform="matrix(1 0 0 1 1289 1971)">Symbols should be outlined when exporting to ensure the</text>
  <text style="stroke:none;fill:black;font-family:sans-serif;font-size:13;" transform="matrix(1 0 0 1 1289 1989)">design is preserved when submitting to Xcode.</text>
  <text id="template-version" style="stroke:none;fill:black;font-family:sans-serif;font-size:13;text-anchor:end;" transform="matrix(1 0 0 1 3036 1933)">Template v.5.0</text>
  <text style="stroke:none;fill:black;font-family:sans-serif;font-size:13;text-anchor:end;" transform="matrix(1 0 0 1 3036 1951)">Requires Xcode 15 or greater</text>
  <text id="descriptive-name" style="stroke:none;fill:black;font-family:sans-serif;font-size:13;text-anchor:end;" transform="matrix(1 0 0 1 3036 1969)">Generated from ruler</text>
  <text style="stroke:none;fill:black;font-family:sans-serif;font-size:13;text-anchor:end;" transform="matrix(1 0 0 1 3036 1987)">Typeset at 100.0 points</text>
  <text style="stroke:none;fill:black;font-family:sans-serif;font-size:13;" transform="matrix(1 0 0 1 263 726)">Small</text>
  <text style="stroke:none;fill:black;font-family:sans-serif;font-size:13;" transform="matrix(1 0 0 1 263 1156)">Medium</text>
  <text style="stroke:none;fill:black;font-family:sans-serif;font-size:13;" transform="matrix(1 0 0 1 263 1586)">Large</text>
 </g>
 <g id="Guides">
  <g id="H-reference" style="fill:#27AAE1;stroke:none;" transform="matrix(1 0 0 1 339 696)">
   <path d="M0.993654 0L3.63775 0L29.3281-67.1323L30.0303-67.1323L30.0303-70.459L28.1226-70.459ZM11.6885-24.4799L46.9815-24.4799L46.2315-26.7285L12.4385-26.7285ZM55.1196 0L57.7637 0L30.6382-70.459L29.4326-70.459L29.4326-67.1323Z"/>
  </g>
  <line id="Baseline-S" style="fill:none;stroke:#27AAE1;opacity:1;stroke-width:0.5;" x1="263" x2="3036" y1="696" y2="696"/>
  <line id="Capline-S" style="fill:none;stroke:#27AAE1;opacity:1;stroke-width:0.5;" x1="263" x2="3036" y1="625.541" y2="625.541"/>
  <g id="H-reference" style="fill:#27AAE1;stroke:none;" transform="matrix(1 0 0 1 339 1126)">
   <path d="M0.993654 0L3.63775 0L29.3281-67.1323L30.0303-67.1323L30.0303-70.459L28.1226-70.459ZM11.6885-24.4799L46.9815-24.4799L46.2315-26.7285L12.4385-26.7285ZM55.1196 0L57.7637 0L30.6382-70.459L29.4326-70.459L29.4326-67.1323Z"/>
  </g>
  <line id="Baseline-M" style="fill:none;stroke:#27AAE1;opacity:1;stroke-width:0.5;" x1="263" x2="3036" y1="1126" y2="1126"/>
  <line id="Capline-M" style="fill:none;stroke:#27AAE1;opacity:1;stroke-width:0.5;" x1="263" x2="3036" y1="1055.54" y2="1055.54"/>
  <g id="H-reference" style="fill:#27AAE1;stroke:none;" transform="matrix(1 0 0 1 339 1556)">
   <path d="M0.993654 0L3.63775 0L29.3281-67.1323L30.0303-67.1323L30.0303-70.459L28.1226-70.459ZM11.6885-24.4799L46.9815-24.4799L46.2315-26.7285L12.4385-26.7285ZM55.1196 0L57.7637 0L30.6382-70.459L29.4326-70.459L29.4326-67.1323Z"/>
  </g>
  <line id="Baseline-L" style="fill:none;stroke:#27AAE1;opacity:1;stroke-width:0.5;" x1="263" x2="3036" y1="1556" y2="1556"/>
  <line id="Capline-L" style="fill:none;stroke:#27AAE1;opacity:1;stroke-width:0.5;" x1="263" x2="3036" y1="1485.54" y2="1485.54"/>
  <line id="left-margin-Ultralight-S" style="fill:none;stroke:#00AEEF;stroke-width:0.5;opacity:1.0;" x1="505.604" x2="505.604" y1="600.785" y2="720.121"/>
  <line id="right-margin-Ultralight-S" style="fill:none;stroke:#00AEEF;stroke-width:0.5;opacity:1.0;" x1="613.819" x2="613.819" y1="600.785" y2="720.121"/>
  <line id="left-margin-Regular-S" style="fill:none;stroke:#00AEEF;stroke-width:0.5;opacity:1.0;" x1="1392.74" x2="1392.74" y1="600.785" y2="720.121"/>
  <line id="right-margin-Regular-S" style="fill:none;stroke:#00AEEF;stroke-width:0.5;opacity:1.0;" x1="1506.95" x2="1506.95" y1="600.785" y2="720.121"/>
  <line id="left-margin-Black-S" style="fill:none;stroke:#00AEEF;stroke-width:0.5;opacity:1.0;" x1="2870.83" x2="2870.83" y1="600.785" y2="720.121"/>
  <line id="right-margin-Black-S" style="fill:none;stroke:#00AEEF;stroke-width:0.5;opacity:1.0;" x1="2995.97" x2="2995.97" y1="600.785" y2="720.121"/>
 </g>
 <g id="Symbols">
  <g id="Black-S" transform="matrix(1 0 0 1 2870.83 696)">
   <path class="SFSymbolsPreviewWireframe" d="M115.381-47.3633C115.381-55.2246 110.205-60.2051 102.295-60.2051L22.8027-60.2051C14.8438-60.2051 9.76562-55.2246 9.76562-47.3633L9.76562-23.1934C9.76562-15.332 14.8926-10.2539 22.8516-10.2539L102.344-10.2539C110.254-10.2539 115.381-15.332 115.381-23.1934ZM103.223-45.7031L103.223-24.8047C103.223-23.3887 102.344-22.4609 101.025-22.4609L24.1211-22.4609C22.8027-22.4609 21.9238-23.3887 21.9238-24.8047L21.9238-45.7031C21.9238-47.1191 22.8516-48.0469 24.1699-48.0469L101.025-48.0469C102.344-48.0469 103.223-47.1191 103.223-45.7031ZM28.9062-50.5371L24.1699-50.5371L24.1699-33.7891C24.1699-32.4707 25.293-31.4453 26.6113-31.4453C27.9785-31.4453 28.9062-32.4707 28.9062-33.8379ZM36.084-50.5371L31.3477-50.5371L31.3477-38.5742C31.3477-37.2559 32.4707-36.2305 33.7891-36.2305C35.1562-36.2305 36.084-37.2559 36.084-38.623ZM43.2617-50.5371L38.5254-50.5371L38.5254-38.5742C38.5254-37.2559 39.6484-36.2305 40.9668-36.2305C42.334-36.2305 43.2617-37.2559 43.2617-38.623ZM50.4395-50.5371L45.7031-50.5371L45.7031-38.5742C45.7031-37.2559 46.8262-36.2305 48.1445-36.2305C49.5117-36.2305 50.4395-37.2559 50.4395-38.623ZM57.6172-50.5371L52.8809-50.5371L52.8809-38.5742C52.8809-37.2559 54.0039-36.2305 55.3223-36.2305C56.6895-36.2305 57.6172-37.2559 57.6172-38.623ZM64.7949-50.5371L60.0586-50.5371L60.0586-33.7891C60.0586-32.4707 61.1816-31.4453 62.5-31.4453C63.8672-31.4453 64.7949-32.4707 64.7949-33.8379ZM71.9727-50.5371L67.2363-50.5371L67.2363-38.5742C67.2363-37.2559 68.3594-36.2305 69.6777-36.2305C71.0449-36.2305 71.9727-37.2559 71.9727-38.623ZM79.1504-50.5371L74.4141-50.5371L74.4141-38.5742C74.4141-37.2559 75.5371-36.2305 76.8555-36.2305C78.2227-36.2305 79.1504-37.2559 79.1504-38.623ZM86.3281-50.5371L81.5918-50.5371L81.5918-38.5742C81.5918-37.2559 82.7148-36.2305 84.0332-36.2305C85.4004-36.2305 86.3281-37.2559 86.3281-38.623ZM93.5059-50.5371L88.7695-50.5371L88.7695-38.5742C88.7695-37.2559 89.8926-36.2305 91.2109-36.2305C92.5781-36.2305 93.5059-37.2559 93.5059-38.623ZM100.684-50.5371L95.9473-50.5371L95.9473-33.7891C95.9473-32.4707 97.0703-31.4453 98.3887-31.4453C99.7559-31.4453 100.684-32.4707 100.684-33.8379Z"/>
  </g>
  <g id="Regular-S" transform="matrix(1 0 0 1 1392.74 696)">
   <path class="SFSymbolsPreviewWireframe" d="M104.443-45.9473C104.443-52.9785 100.83-56.543 93.7012-56.543L20.4102-56.543C13.2812-56.543 9.76562-52.9785 9.76562-45.9473L9.76562-24.4629C9.76562-17.4316 13.3301-13.8672 20.459-13.8672L93.75-13.8672C100.879-13.8672 104.443-17.4316 104.443-24.4629ZM97.3633-44.6289L97.3633-25.7812C97.3633-22.5586 95.6543-20.8984 92.5781-20.8984L21.5332-20.8984C18.5059-20.8984 16.7969-22.5586 16.7969-25.7812L16.7969-44.6289C16.7969-47.8516 18.5059-49.5117 21.582-49.5117L92.627-49.5117C95.6543-49.5117 97.3633-47.8516 97.3633-44.6289ZM25.1465-51.9043L21.8262-51.9043L21.8262-31.3965C21.8262-30.4688 22.5586-29.7852 23.4863-29.7852C24.4629-29.7852 25.1465-30.5176 25.1465-31.4453ZM31.8848-51.9043L28.5645-51.9043L28.5645-38.1348C28.5645-37.207 29.2969-36.5234 30.2246-36.5234C31.2012-36.5234 31.8848-37.2559 31.8848-38.1836ZM38.5742-51.9043L35.2539-51.9043L35.2539-38.1348C35.2539-37.207 35.9863-36.5234 36.9141-36.5234C37.9395-36.5234 38.5742-37.2559 38.5742-38.1836ZM45.2637-51.9043L41.9434-51.9043L41.9434-38.1348C41.9434-37.207 42.7246-36.5234 43.6035-36.5234C44.6289-36.5234 45.2637-37.2559 45.2637-38.1836ZM52.0508-51.9043L48.6816-51.9043L48.6816-38.1348C48.6816-37.207 49.4629-36.5234 50.3418-36.5234C51.3672-36.5234 52.0508-37.2559 52.0508-38.1836ZM58.7891-51.9043L55.4199-51.9043L55.4199-31.3965C55.4199-30.4688 56.2012-29.7852 57.0801-29.7852C58.1055-29.7852 58.7891-30.5176 58.7891-31.4453ZM65.4785-51.9043L62.1094-51.9043L62.1094-38.1348C62.1094-37.207 62.8906-36.5234 63.8184-36.5234C64.7949-36.5234 65.4785-37.2559 65.4785-38.1836ZM72.2168-51.9043L68.8965-51.9043L68.8965-38.1348C68.8965-37.207 69.6289-36.5234 70.5566-36.5234C71.5332-36.5234 72.2168-37.2559 72.2168-38.1836ZM78.9062-51.9043L75.5859-51.9043L75.5859-38.1348C75.5859-37.207 76.3184-36.5234 77.2461-36.5234C78.2227-36.5234 78.9062-37.2559 78.9062-38.1836ZM85.6445-51.9043L82.3242-51.9043L82.3242-38.1348C82.3242-37.207 83.0566-36.5234 83.9844-36.5234C85.0098-36.5234 85.6445-37.2559 85.6445-38.1836ZM92.3828-51.9043L89.0625-51.9043L89.0625-31.3965C89.0625-30.4688 89.7949-29.7852 90.7227-29.7852C91.748-29.7852 92.3828-30.5176 92.3828-31.4453Z"/>
  </g>
  <g id="Ultralight-S" transform="matrix(1 0 0 1 505.604 696)">
   <path class="SFSymbolsPreviewWireframe" d="M98.4493-44.3125C98.4493-49.9815 95.1084-53.2735 89.4781-53.2735L18.73-53.2735C13.0996-53.2735 9.76562-49.9815 9.76562-44.3125L9.76562-26.1885C9.76562-20.5195 13.103-17.2275 18.7334-17.2275L89.4815-17.2275C95.1119-17.2275 98.4493-20.5195 98.4493-26.1885ZM96.228-44.1748L96.228-26.3262C96.228-21.9229 93.7017-19.3999 89.3086-19.3999L18.8994-19.3999C14.5098-19.3999 11.9834-21.9229 11.9834-26.3262L11.9834-44.1748C11.9834-48.5781 14.5098-51.1011 18.9029-51.1011L89.312-51.1011C93.7017-51.1011 96.228-48.5781 96.228-44.1748ZM20.9688-52.0859L18.9654-52.0859L18.9654-33.3945C18.9654-32.7392 19.3345-32.3281 19.9444-32.3281C20.5576-32.3281 20.9688-32.7427 20.9688-33.3979ZM27.7979-52.0859L25.7945-52.0859L25.7945-39.9966C25.7945-39.3413 26.209-38.9302 26.7735-38.9302C27.3867-38.9302 27.7979-39.3447 27.7979-40ZM34.6236-52.0859L32.6201-52.0859L32.6201-39.9966C32.6201-39.3413 33.0347-38.9302 33.5991-38.9302C34.2158-38.9302 34.6236-39.3447 34.6236-40ZM41.4492-52.0859L39.4458-52.0859L39.4458-39.9966C39.4458-39.3413 39.8638-38.9302 40.4248-38.9302C41.0415-38.9302 41.4492-39.3447 41.4492-40ZM48.2818-52.0859L46.2749-52.0859L46.2749-39.9966C46.2749-39.3413 46.6929-38.9302 47.2993-38.9302C47.8706-38.9302 48.2818-39.3447 48.2818-40ZM55.1563-52.0859L53.1494-52.0859L53.1494-33.3945C53.1494-32.7392 53.5674-32.3281 54.1739-32.3281C54.7451-32.3281 55.1563-32.7427 55.1563-33.3979ZM61.982-52.0859L59.9751-52.0859L59.9751-39.9966C59.9751-39.3413 60.3931-38.9302 61.003-38.9302C61.5708-38.9302 61.982-39.3447 61.982-40ZM68.8111-52.0859L66.8076-52.0859L66.8076-39.9966C66.8076-39.3413 67.2222-38.9302 67.8321-38.9302C68.4453-38.9302 68.8111-39.3447 68.8111-40ZM75.6367-52.0859L73.6333-52.0859L73.6333-39.9966C73.6333-39.3413 74.0479-38.9302 74.6577-38.9302C75.271-38.9302 75.6367-39.3447 75.6367-40ZM82.4658-52.0859L80.4624-52.0859L80.4624-39.9966C80.4624-39.3413 80.877-38.9302 81.4868-38.9302C82.1035-38.9302 82.4658-39.3447 82.4658-40ZM89.2949-52.0859L87.2461-52.0859L87.2461-33.3945C87.2461-32.7392 87.6607-32.3281 88.2705-32.3281C88.8872-32.3281 89.2949-32.7427 89.2949-33.3979Z"/>
  </g>
 </g>
</svg>
