<?xml version="1.0" encoding="UTF-8"?>
<!--Generator: Apple Native CoreSVG 232.5-->
<!DOCTYPE svg
PUBLIC "-//W3C//DTD SVG 1.1//EN"
       "http://www.w3.org/Graphics/SVG/1.1/DTD/svg11.dtd">
<svg version="1.1" xmlns="http://www.w3.org/2000/svg" xmlns:xlink="http://www.w3.org/1999/xlink" width="3300" height="2200">
 <!--glyph: "uni1012F4.medium", point size: 100.0, font version: "19.2d2e1", template writer version: "128"-->
 <style>.SFSymbolsPreviewWireframe {fill:none;opacity:1.0;stroke:black;stroke-width:0.5}
</style>
 <g id="Notes">
  <rect height="2200" id="artboard" style="fill:white;opacity:1" width="3300" x="0" y="0"/>
  <line style="fill:none;stroke:black;opacity:1;stroke-width:0.5;" x1="263" x2="3036" y1="292" y2="292"/>
  <text style="stroke:none;fill:black;font-family:sans-serif;font-size:13;font-weight:bold;" transform="matrix(1 0 0 1 263 322)">Weight/Scale Variations</text>
  <text style="stroke:none;fill:black;font-family:sans-serif;font-size:13;text-anchor:middle;" transform="matrix(1 0 0 1 559.711 322)">Ultralight</text>
  <text style="stroke:none;fill:black;font-family:sans-serif;font-size:13;text-anchor:middle;" transform="matrix(1 0 0 1 856.422 322)">Thin</text>
  <text style="stroke:none;fill:black;font-family:sans-serif;font-size:13;text-anchor:middle;" transform="matrix(1 0 0 1 1153.13 322)">Light</text>
  <text style="stroke:none;fill:black;font-family:sans-serif;font-size:13;text-anchor:middle;" transform="matrix(1 0 0 1 1449.84 322)">Regular</text>
  <text style="stroke:none;fill:black;font-family:sans-serif;font-size:13;text-anchor:middle;" transform="matrix(1 0 0 1 1746.56 322)">Medium</text>
  <text style="stroke:none;fill:black;font-family:sans-serif;font-size:13;text-anchor:middle;" transform="matrix(1 0 0 1 2043.27 322)">Semibold</text>
  <text style="stroke:none;fill:black;font-family:sans-serif;font-size:13;text-anchor:middle;" transform="matrix(1 0 0 1 2339.98 322)">Bold</text>
  <text style="stroke:none;fill:black;font-family:sans-serif;font-size:13;text-anchor:middle;" transform="matrix(1 0 0 1 2636.69 322)">Heavy</text>
  <text style="stroke:none;fill:black;font-family:sans-serif;font-size:13;text-anchor:middle;" transform="matrix(1 0 0 1 2933.4 322)">Black</text>
  <line style="fill:none;stroke:black;opacity:1;stroke-width:0.5;" x1="263" x2="3036" y1="1903" y2="1903"/>
  <g transform="matrix(0.2 0 0 0.2 263 1933)">
   <path d="m46.2402 4.15039c21.5332 0 39.4531-17.8711 39.4531-39.4043s-17.9688-39.4043-39.502-39.4043c-21.4844 0-39.3555 17.8711-39.3555 39.4043s17.9199 39.4043 39.4043 39.4043Zm0-7.42188c-17.7246 0-31.8848-14.209-31.8848-31.9824s14.1113-31.9824 31.8359-31.9824c17.7734 0 32.0312 14.209 32.0312 31.9824s-14.209 31.9824-31.9824 31.9824Zm-17.9688-31.9824c0 2.14844 1.51367 3.61328 3.75977 3.61328h10.498v10.5957c0 2.19727 1.46484 3.71094 3.61328 3.71094 2.24609 0 3.71094-1.51367 3.71094-3.71094v-10.5957h10.5957c2.19727 0 3.71094-1.46484 3.71094-3.61328 0-2.19727-1.51367-3.71094-3.71094-3.71094h-10.5957v-10.5469c0-2.24609-1.46484-3.75977-3.71094-3.75977-2.14844 0-3.61328 1.51367-3.61328 3.75977v10.5469h-10.498c-2.24609 0-3.75977 1.51367-3.75977 3.71094Z"/>
  </g>
  <g transform="matrix(0.2 0 0 0.2 281.506 1933)">
   <path d="m58.5449 14.5508c27.2461 0 49.8047-22.6074 49.8047-49.8047 0-27.2461-22.6074-49.8047-49.8535-49.8047-27.1973 0-49.7559 22.5586-49.7559 49.8047 0 27.1973 22.6074 49.8047 49.8047 49.8047Zm0-8.30078c-23.0469 0-41.4551-18.457-41.4551-41.5039s18.3594-41.5039 41.4062-41.5039 41.5527 18.457 41.5527 41.5039-18.457 41.5039-41.5039 41.5039Zm-22.6562-41.5039c0 2.39258 1.66016 4.00391 4.15039 4.00391h14.3555v14.4043c0 2.44141 1.66016 4.15039 4.05273 4.15039 2.44141 0 4.15039-1.66016 4.15039-4.15039v-14.4043h14.4043c2.44141 0 4.15039-1.61133 4.15039-4.00391 0-2.44141-1.70898-4.15039-4.15039-4.15039h-14.4043v-14.3555c0-2.49023-1.70898-4.19922-4.15039-4.19922-2.39258 0-4.05273 1.70898-4.05273 4.19922v14.3555h-14.3555c-2.49023 0-4.15039 1.70898-4.15039 4.15039Z"/>
  </g>
  <g transform="matrix(0.2 0 0 0.2 304.924 1933)">
   <path d="m74.8535 28.3203c34.8145 0 63.623-28.8086 63.623-63.5742 0-34.8145-28.8574-63.623-63.6719-63.623-34.7656 0-63.5254 28.8086-63.5254 63.623 0 34.7656 28.8086 63.5742 63.5742 63.5742Zm0-9.08203c-30.1758 0-54.4434-24.3164-54.4434-54.4922 0-30.2246 24.2188-54.4922 54.3945-54.4922 30.2246 0 54.541 24.2676 54.541 54.4922 0 30.1758-24.2676 54.4922-54.4922 54.4922Zm-28.8574-54.4922c0 2.58789 1.85547 4.39453 4.58984 4.39453h19.7266v19.7754c0 2.68555 1.85547 4.58984 4.44336 4.58984 2.68555 0 4.54102-1.85547 4.54102-4.58984v-19.7754h19.7754c2.68555 0 4.58984-1.80664 4.58984-4.39453 0-2.73438-1.85547-4.58984-4.58984-4.58984h-19.7754v-19.7266c0-2.73438-1.85547-4.63867-4.54102-4.63867-2.58789 0-4.44336 1.9043-4.44336 4.63867v19.7266h-19.7266c-2.73438 0-4.58984 1.85547-4.58984 4.58984Z"/>
  </g>
  <text style="stroke:none;fill:black;font-family:sans-serif;font-size:13;font-weight:bold;" transform="matrix(1 0 0 1 263 1953)">Design Variations</text>
  <text style="stroke:none;fill:black;font-family:sans-serif;font-size:13;" transform="matrix(1 0 0 1 263 1971)">Symbols are supported in up to nine weights and three scales.</text>
  <text style="stroke:none;fill:black;font-family:sans-serif;font-size:13;" transform="matrix(1 0 0 1 263 1989)">For optimal layout with text and other symbols, vertically align</text>
  <text style="stroke:none;fill:black;font-family:sans-serif;font-size:13;" transform="matrix(1 0 0 1 263 2007)">symbols with the adjacent text.</text>
  <line style="fill:none;stroke:#00AEEF;stroke-width:0.5;opacity:1.0;" x1="776" x2="776" y1="1919" y2="1933"/>
  <g transform="matrix(0.2 0 0 0.2 776 1933)">
   <path d="m16.5527 0.78125c2.58789 0 3.85742-0.976562 4.78516-3.71094l6.29883-17.2363h28.8086l6.29883 17.2363c0.927734 2.73438 2.19727 3.71094 4.73633 3.71094 2.58789 0 4.24805-1.5625 4.24805-4.00391 0-0.830078-0.146484-1.61133-0.537109-2.63672l-22.9004-60.9863c-1.12305-2.97852-3.125-4.49219-6.25-4.49219-3.02734 0-5.07812 1.46484-6.15234 4.44336l-22.9004 61.084c-0.390625 1.02539-0.537109 1.80664-0.537109 2.63672 0 2.44141 1.5625 3.95508 4.10156 3.95508Zm13.4766-28.3691 11.8652-32.8613h0.244141l11.8652 32.8613Z"/>
  </g>
  <line style="fill:none;stroke:#00AEEF;stroke-width:0.5;opacity:1.0;" x1="792.836" x2="792.836" y1="1919" y2="1933"/>
  <text style="stroke:none;fill:black;font-family:sans-serif;font-size:13;font-weight:bold;" transform="matrix(1 0 0 1 776 1953)">Margins</text>
  <text style="stroke:none;fill:black;font-family:sans-serif;font-size:13;" transform="matrix(1 0 0 1 776 1971)">Leading and trailing margins on the left and right side of each symbol</text>
  <text style="stroke:none;fill:black;font-family:sans-serif;font-size:13;" transform="matrix(1 0 0 1 776 1989)">can be adjusted by modifying the x-location of the margin guidelines.</text>
  <text style="stroke:none;fill:black;font-family:sans-serif;font-size:13;" transform="matrix(1 0 0 1 776 2007)">Modifications are automatically applied proportionally to all</text>
  <text style="stroke:none;fill:black;font-family:sans-serif;font-size:13;" transform="matrix(1 0 0 1 776 2025)">scales and weights.</text>
  <g transform="matrix(0.2 0 0 0.2 1289 1933)">
   <path d="m14.209 9.32617 8.49609 8.54492c4.29688 4.3457 9.22852 4.05273 13.8672-1.07422l53.4668-58.9355-4.83398-4.88281-53.0762 58.3984c-1.75781 2.00195-3.41797 2.49023-5.76172 0.146484l-5.85938-5.81055c-2.34375-2.29492-1.80664-4.00391 0.195312-5.81055l57.373-54.0039-4.88281-4.83398-57.959 54.4434c-4.93164 4.58984-5.32227 9.47266-1.02539 13.8184Zm32.0801-90.9668c-2.09961 2.05078-2.24609 4.93164-1.07422 6.88477 1.17188 1.80664 3.4668 2.97852 6.68945 2.14844 7.32422-1.70898 14.9414-2.00195 22.0703 2.68555l-2.92969 7.27539c-1.70898 4.15039-0.830078 7.08008 1.85547 9.81445l11.4746 11.5723c2.44141 2.44141 4.49219 2.53906 7.32422 2.05078l5.32227-0.976562 3.32031 3.36914-0.195312 2.7832c-0.195312 2.49023 0.439453 4.39453 2.88086 6.78711l3.80859 3.71094c2.39258 2.39258 5.46875 2.53906 7.8125 0.195312l14.5508-14.5996c2.34375-2.34375 2.24609-5.32227-0.146484-7.71484l-3.85742-3.80859c-2.39258-2.39258-4.24805-3.17383-6.64062-2.97852l-2.88086 0.244141-3.22266-3.17383 1.2207-5.61523c0.634766-2.83203-0.146484-5.0293-3.07617-7.95898l-10.9863-10.9375c-16.6992-16.6016-38.8672-16.2109-53.3203-1.75781Zm7.4707 1.85547c12.1582-8.88672 28.6133-7.37305 39.7461 3.75977l12.1582 12.0605c1.17188 1.17188 1.36719 2.09961 1.02539 3.80859l-1.61133 7.42188 7.51953 7.42188 4.93164-0.292969c1.26953-0.0488281 1.66016 0.0488281 2.63672 1.02539l2.88086 2.88086-12.207 12.207-2.88086-2.88086c-0.976562-0.976562-1.12305-1.36719-1.07422-2.68555l0.341797-4.88281-7.4707-7.42188-7.61719 1.26953c-1.61133 0.341797-2.34375 0.195312-3.56445-0.976562l-10.0098-10.0098c-1.26953-1.17188-1.41602-2.00195-0.634766-3.85742l4.39453-10.4492c-7.8125-7.27539-17.9688-10.4004-28.125-7.42188-0.78125 0.195312-1.07422-0.439453-0.439453-0.976562Z"/>
  </g>
  <text style="stroke:none;fill:black;font-family:sans-serif;font-size:13;font-weight:bold;" transform="matrix(1 0 0 1 1289 1953)">Exporting</text>
  <text style="stroke:none;fill:black;font-family:sans-serif;font-size:13;" transform="matrix(1 0 0 1 1289 1971)">Symbols should be outlined when exporting to ensure the</text>
  <text style="stroke:none;fill:black;font-family:sans-serif;font-size:13;" transform="matrix(1 0 0 1 1289 1989)">design is preserved when submitting to Xcode.</text>
  <text id="template-version" style="stroke:none;fill:black;font-family:sans-serif;font-size:13;text-anchor:end;" transform="matrix(1 0 0 1 3036 1933)">Template v.5.0</text>
  <text style="stroke:none;fill:black;font-family:sans-serif;font-size:13;text-anchor:end;" transform="matrix(1 0 0 1 3036 1951)">Requires Xcode 15 or greater</text>
  <text id="descriptive-name" style="stroke:none;fill:black;font-family:sans-serif;font-size:13;text-anchor:end;" transform="matrix(1 0 0 1 3036 1969)">Generated from sailboat</text>
  <text style="stroke:none;fill:black;font-family:sans-serif;font-size:13;text-anchor:end;" transform="matrix(1 0 0 1 3036 1987)">Typeset at 100.0 points</text>
  <text style="stroke:none;fill:black;font-family:sans-serif;font-size:13;" transform="matrix(1 0 0 1 263 726)">Small</text>
  <text style="stroke:none;fill:black;font-family:sans-serif;font-size:13;" transform="matrix(1 0 0 1 263 1156)">Medium</text>
  <text style="stroke:none;fill:black;font-family:sans-serif;font-size:13;" transform="matrix(1 0 0 1 263 1586)">Large</text>
 </g>
 <g id="Guides">
  <g id="H-reference" style="fill:#27AAE1;stroke:none;" transform="matrix(1 0 0 1 339 696)">
   <path d="M0.993654 0L3.63775 0L29.3281-67.1323L30.0303-67.1323L30.0303-70.459L28.1226-70.459ZM11.6885-24.4799L46.9815-24.4799L46.2315-26.7285L12.4385-26.7285ZM55.1196 0L57.7637 0L30.6382-70.459L29.4326-70.459L29.4326-67.1323Z"/>
  </g>
  <line id="Baseline-S" style="fill:none;stroke:#27AAE1;opacity:1;stroke-width:0.5;" x1="263" x2="3036" y1="696" y2="696"/>
  <line id="Capline-S" style="fill:none;stroke:#27AAE1;opacity:1;stroke-width:0.5;" x1="263" x2="3036" y1="625.541" y2="625.541"/>
  <g id="H-reference" style="fill:#27AAE1;stroke:none;" transform="matrix(1 0 0 1 339 1126)">
   <path d="M0.993654 0L3.63775 0L29.3281-67.1323L30.0303-67.1323L30.0303-70.459L28.1226-70.459ZM11.6885-24.4799L46.9815-24.4799L46.2315-26.7285L12.4385-26.7285ZM55.1196 0L57.7637 0L30.6382-70.459L29.4326-70.459L29.4326-67.1323Z"/>
  </g>
  <line id="Baseline-M" style="fill:none;stroke:#27AAE1;opacity:1;stroke-width:0.5;" x1="263" x2="3036" y1="1126" y2="1126"/>
  <line id="Capline-M" style="fill:none;stroke:#27AAE1;opacity:1;stroke-width:0.5;" x1="263" x2="3036" y1="1055.54" y2="1055.54"/>
  <g id="H-reference" style="fill:#27AAE1;stroke:none;" transform="matrix(1 0 0 1 339 1556)">
   <path d="M0.993654 0L3.63775 0L29.3281-67.1323L30.0303-67.1323L30.0303-70.459L28.1226-70.459ZM11.6885-24.4799L46.9815-24.4799L46.2315-26.7285L12.4385-26.7285ZM55.1196 0L57.7637 0L30.6382-70.459L29.4326-70.459L29.4326-67.1323Z"/>
  </g>
  <line id="Baseline-L" style="fill:none;stroke:#27AAE1;opacity:1;stroke-width:0.5;" x1="263" x2="3036" y1="1556" y2="1556"/>
  <line id="Capline-L" style="fill:none;stroke:#27AAE1;opacity:1;stroke-width:0.5;" x1="263" x2="3036" y1="1485.54" y2="1485.54"/>
  <line id="left-margin-Ultralight-S" style="fill:none;stroke:#00AEEF;stroke-width:0.5;opacity:1.0;" x1="508.226" x2="508.226" y1="600.785" y2="720.121"/>
  <line id="right-margin-Ultralight-S" style="fill:none;stroke:#00AEEF;stroke-width:0.5;opacity:1.0;" x1="611.196" x2="611.196" y1="600.785" y2="720.121"/>
  <line id="left-margin-Regular-S" style="fill:none;stroke:#00AEEF;stroke-width:0.5;opacity:1.0;" x1="1395.5" x2="1395.5" y1="600.785" y2="720.121"/>
  <line id="right-margin-Regular-S" style="fill:none;stroke:#00AEEF;stroke-width:0.5;opacity:1.0;" x1="1504.19" x2="1504.19" y1="600.785" y2="720.121"/>
  <line id="left-margin-Black-S" style="fill:none;stroke:#00AEEF;stroke-width:0.5;opacity:1.0;" x1="2876.98" x2="2876.98" y1="600.785" y2="720.121"/>
  <line id="right-margin-Black-S" style="fill:none;stroke:#00AEEF;stroke-width:0.5;opacity:1.0;" x1="2989.82" x2="2989.82" y1="600.785" y2="720.121"/>
 </g>
 <g id="Symbols">
  <g id="Black-S" transform="matrix(1 0 0 1 2876.98 696)">
   <path class="SFSymbolsPreviewWireframe" d="M10.2539-4.49219L13.4766 5.51758C14.209 7.86133 15.332 9.66797 16.748 10.9863L24.6094 3.75977C23.4863 3.66211 22.8027 3.07617 22.4121 1.66016L21.0449-3.61328C20.9473-4.00391 21.0449-4.24805 21.3867-4.24805L89.0625-4.24805C89.3066-4.24805 89.4043-4.00391 89.2578-3.80859L84.9121 1.80664C84.3262 2.53906 83.6426 3.02734 82.8613 3.32031L89.502 10.5469C90.3809 9.86328 91.2109 9.0332 91.9922 8.10547L100.879-2.97852C104.932-8.00781 101.758-14.1113 95.3125-14.1113L17.041-14.1113C11.5234-14.1113 8.54492-9.76562 10.2539-4.49219ZM48.291-13.8184L58.4961-13.8184L58.4961-82.8613C58.4961-85.6934 56.1523-87.9883 53.3691-87.9883C50.5371-87.9883 48.291-85.6934 48.291-82.8613ZM54.9805-19.6289L72.998-19.6289C85.6934-19.6289 93.457-28.3691 93.457-39.502C93.457-58.0078 73.4375-78.0762 57.373-85.498L52.1484-76.416C67.8711-70.8984 83.252-52.9297 83.252-40.5273C83.252-35.0098 79.5898-29.8828 73.0469-29.8828L54.9805-29.8828ZM58.8379-75.7324C69.9707-61.1816 68.5547-36.4258 57.3242-29.541L62.0117-20.9473C77.6367-30.0781 81.1523-57.8613 68.5059-77.4414ZM19.3848-19.6289L54.7852-19.6289L54.7852-29.8828L31.3965-29.8828C30.8105-29.8828 30.8105-30.2246 31.2012-30.5176C43.2129-40.5762 56.2012-64.4043 58.0566-79.6387L48.291-82.8613C48.7305-69.043 32.0801-41.2109 15.8203-31.3965C10.0586-27.9297 12.793-19.6289 19.3848-19.6289ZM54.8828 17.4805C67.334 17.4805 68.5547 9.375 73.7793 9.375C79.0039 9.375 79.834 17.4805 93.5059 17.4805L97.8027 17.4805C100.732 17.4805 103.076 15.1367 103.076 12.207C103.076 9.32617 100.732 6.98242 97.8027 6.98242L93.5059 6.98242C91.0156 6.98242 89.0137 6.10352 85.4004 3.51562C82.8125 1.61133 79.0039-1.12305 73.7793-1.12305C68.5547-1.12305 64.7461 1.61133 62.1582 3.51562C59.375 5.56641 57.6172 6.98242 54.8828 6.98242C52.1484 6.98242 50.3906 5.56641 47.6074 3.51562C45.0195 1.61133 41.2109-1.12305 35.9863-1.12305C30.7617-1.12305 26.9531 1.61133 24.3652 3.51562C20.752 6.10352 18.75 6.98242 16.2598 6.98242L15.8691 6.98242C12.9395 6.98242 10.5957 9.32617 10.5957 12.207C10.5957 15.1367 12.9395 17.4805 15.8691 17.4805L16.2598 17.4805C29.9316 17.4805 30.7617 9.375 35.9863 9.375C41.2109 9.375 42.4316 17.4805 54.8828 17.4805Z"/>
  </g>
  <g id="Regular-S" transform="matrix(1 0 0 1 1395.5 696)">
   <path class="SFSymbolsPreviewWireframe" d="M10.1074-7.27539L13.4277 4.54102C14.0137 6.44531 14.7949 7.86133 15.8203 8.93555L21.4844 5.27344C20.166 4.73633 19.2383 3.66211 18.75 2.00195L16.3086-7.66602C16.1621-8.1543 16.3086-8.49609 16.7969-8.49609L90.9668-8.49609C91.4062-8.49609 91.5527-8.10547 91.1621-7.71484L83.0078 1.95312C81.7871 3.32031 80.8594 4.54102 78.4668 5.17578L83.6914 9.08203C85.791 7.61719 87.3535 5.56641 89.3555 3.17383L97.5586-6.49414C100.488-9.96094 98.1934-14.3555 93.6523-14.3555L15.2344-14.3555C10.8887-14.3555 9.0332-11.2793 10.1074-7.27539ZM47.3145-10.6934L53.1738-10.6934L53.1738-83.2031C53.1738-84.8145 51.8555-86.1328 50.2441-86.1328C48.6328-86.1328 47.3145-84.8145 47.3145-83.2031ZM50.6836-24.0723L66.5527-24.0723C78.3203-24.0723 84.8145-30.1758 84.8145-39.8438C84.8145-56.6406 67.2852-75.0488 51.8066-82.959L48.877-77.8809C61.8652-72.3633 79.0039-55.6152 79.0039-40.8203C79.0039-34.2285 74.5117-29.9805 66.6016-29.9805L50.6836-29.9805ZM53.2715-75.6836C66.3086-57.2754 61.9141-35.3516 50.2441-29.4434L51.3672-24.3164C68.1152-31.9336 72.2168-55.6641 58.2031-76.5137ZM19.7754-24.0723L49.6094-24.0723L49.6094-29.9805L25.7324-29.9805C25.2441-29.9805 25.0977-30.4199 25.4395-30.7129C37.4023-39.7949 50.1953-62.6465 52.5879-78.9551L47.3145-82.8613C47.7051-69.7266 34.8633-44.5801 17.4316-31.8848C13.3789-28.9551 15.7227-24.0723 19.7754-24.0723ZM50.9277 13.3789C61.6699 13.3789 63.3301 5.61523 69.0918 5.61523C75 5.61523 75.9766 13.3789 88.2324 13.3789L92.2852 13.3789C93.9941 13.3789 95.3613 12.0605 95.3613 10.3516C95.3613 8.64258 93.9941 7.27539 92.2852 7.27539L88.2324 7.27539C84.2773 7.27539 82.0312 5.66406 79.1504 3.61328C76.6602 1.80664 73.4863-0.488281 69.0918-0.488281C64.5996-0.488281 61.377 1.95312 58.8867 3.80859C56.25 5.81055 54.248 7.27539 50.9277 7.27539C47.6562 7.27539 45.6543 5.81055 43.0176 3.80859C40.5273 1.95312 37.3047-0.488281 32.7637-0.488281C28.418-0.488281 25.2441 1.80664 22.7539 3.61328C19.873 5.66406 17.627 7.27539 13.623 7.27539L13.4277 7.27539C11.7676 7.27539 10.4004 8.64258 10.4004 10.3516C10.4004 12.0605 11.7676 13.3789 13.4277 13.3789L13.623 13.3789C25.8789 13.3789 26.8555 5.61523 32.7637 5.61523C38.5254 5.61523 40.2344 13.3789 50.9277 13.3789Z"/>
  </g>
  <g id="Ultralight-S" transform="matrix(1 0 0 1 508.226 696)">
   <path class="SFSymbolsPreviewWireframe" d="M11.061-6.27638L14.2905 2.6338C15.0581 4.76515 15.8848 6.18117 17.1372 7.07375L19.1685 5.68213C17.8047 5.0542 17.0132 3.88916 16.2979 1.91113L13.2661-6.80323C12.8018-8.10889 13.4478-8.95019 14.7988-8.95019L89.4683-8.95019C90.9976-8.95019 91.2803-7.56055 90.4356-6.76124L81.8272 1.86231C80.0615 3.54736 78.5889 4.81347 76.605 5.53906L78.7417 6.94777C80.4327 6.02784 81.9043 4.74903 83.543 3.0376L92.2002-5.63135C93.9947-7.41799 93.5162-11.086 89.4746-11.086L14.7349-11.086C11.479-11.086 10.0322-9.14504 11.061-6.27638ZM43.9087-9.87598L46.0445-9.87598L46.0445-79.1617C46.0445-79.774 45.5435-80.2295 44.9766-80.2295C44.3643-80.2295 43.9087-79.774 43.9087-79.1617ZM45.0982-21.8926L59.9683-21.8926C70.4644-21.8926 76.3682-26.9517 76.3682-35.8023C76.3682-49.4659 62.7896-67.1475 45.9034-76.4654L44.8809-74.6568C57.9146-68.231 74.2359-50.2569 74.2359-35.8706C74.2359-29.0518 68.7901-24.0318 60.0171-24.0318L45.0982-24.0318ZM50.8648-71.3697C62.3125-53.9605 59.6436-30.856 45.8848-23.9942L46.7808-22.0913C61.667-29.4361 64.7242-53.3028 53.1626-71.7002ZM18.5039-21.8926L44.7051-21.8926L44.7051-24.0318L19.148-24.0318C18.6143-24.0318 18.5132-24.5621 18.8096-24.7642C37.0845-38.0693 45.8814-60.2852 46.0035-72.7339L43.9087-72.9166C43.8907-60.9625 35.499-39.4488 17.2954-26.3448C15.0137-24.732 15.9951-21.8926 18.5039-21.8926ZM48.3848 9.60989C57.583 9.60989 59.107 1.84622 66.5488 1.84622C74.1372 1.84622 75.2046 9.60989 85.6895 9.60989L88.8794 9.60989C89.4532 9.60989 89.9576 9.15432 89.9576 8.53517C89.9576 7.96143 89.4532 7.45703 88.8794 7.45703L85.6895 7.45703C81.0532 7.45703 78.3531 5.43701 75.4722 3.43164C72.982 1.625 70.3076-0.306642 66.5488-0.306642C62.6924-0.306642 60.0147 1.72608 57.5244 3.58154C54.8877 5.5835 52.3408 7.45703 48.3848 7.45703C44.4322 7.45703 41.8853 5.5835 39.2486 3.58154C36.7583 1.72608 34.0806-0.306642 30.2207-0.306642C26.4653-0.306642 23.8364 1.625 21.3462 3.43164C18.4653 5.43701 15.7197 7.45703 11.0801 7.45703L10.8848 7.45703C10.3145 7.45703 9.81006 7.96143 9.81006 8.53517C9.81006 9.15432 10.3145 9.60989 10.8848 9.60989L11.0801 9.60989C21.565 9.60989 22.6324 1.84622 30.2207 1.84622C37.6626 1.84622 39.1899 9.60989 48.3848 9.60989Z"/>
  </g>
 </g>
</svg>
