<?xml version="1.0" encoding="UTF-8"?>
<!--Generator: Apple Native CoreSVG 232.5-->
<!DOCTYPE svg
PUBLIC "-//W3C//DTD SVG 1.1//EN"
       "http://www.w3.org/Graphics/SVG/1.1/DTD/svg11.dtd">
<svg version="1.1" xmlns="http://www.w3.org/2000/svg" xmlns:xlink="http://www.w3.org/1999/xlink" width="3300" height="2200">
 <!--glyph: "uni10223E.medium", point size: 100.0, font version: "19.2d2e1", template writer version: "128"-->
 <style>.SFSymbolsPreviewWireframe {fill:none;opacity:1.0;stroke:black;stroke-width:0.5}
</style>
 <g id="Notes">
  <rect height="2200" id="artboard" style="fill:white;opacity:1" width="3300" x="0" y="0"/>
  <line style="fill:none;stroke:black;opacity:1;stroke-width:0.5;" x1="263" x2="3036" y1="292" y2="292"/>
  <text style="stroke:none;fill:black;font-family:sans-serif;font-size:13;font-weight:bold;" transform="matrix(1 0 0 1 263 322)">Weight/Scale Variations</text>
  <text style="stroke:none;fill:black;font-family:sans-serif;font-size:13;text-anchor:middle;" transform="matrix(1 0 0 1 559.711 322)">Ultralight</text>
  <text style="stroke:none;fill:black;font-family:sans-serif;font-size:13;text-anchor:middle;" transform="matrix(1 0 0 1 856.422 322)">Thin</text>
  <text style="stroke:none;fill:black;font-family:sans-serif;font-size:13;text-anchor:middle;" transform="matrix(1 0 0 1 1153.13 322)">Light</text>
  <text style="stroke:none;fill:black;font-family:sans-serif;font-size:13;text-anchor:middle;" transform="matrix(1 0 0 1 1449.84 322)">Regular</text>
  <text style="stroke:none;fill:black;font-family:sans-serif;font-size:13;text-anchor:middle;" transform="matrix(1 0 0 1 1746.56 322)">Medium</text>
  <text style="stroke:none;fill:black;font-family:sans-serif;font-size:13;text-anchor:middle;" transform="matrix(1 0 0 1 2043.27 322)">Semibold</text>
  <text style="stroke:none;fill:black;font-family:sans-serif;font-size:13;text-anchor:middle;" transform="matrix(1 0 0 1 2339.98 322)">Bold</text>
  <text style="stroke:none;fill:black;font-family:sans-serif;font-size:13;text-anchor:middle;" transform="matrix(1 0 0 1 2636.69 322)">Heavy</text>
  <text style="stroke:none;fill:black;font-family:sans-serif;font-size:13;text-anchor:middle;" transform="matrix(1 0 0 1 2933.4 322)">Black</text>
  <line style="fill:none;stroke:black;opacity:1;stroke-width:0.5;" x1="263" x2="3036" y1="1903" y2="1903"/>
  <g transform="matrix(0.2 0 0 0.2 263 1933)">
   <path d="m46.2402 4.15039c21.5332 0 39.4531-17.8711 39.4531-39.4043s-17.9688-39.4043-39.502-39.4043c-21.4844 0-39.3555 17.8711-39.3555 39.4043s17.9199 39.4043 39.4043 39.4043Zm0-7.42188c-17.7246 0-31.8848-14.209-31.8848-31.9824s14.1113-31.9824 31.8359-31.9824c17.7734 0 32.0312 14.209 32.0312 31.9824s-14.209 31.9824-31.9824 31.9824Zm-17.9688-31.9824c0 2.14844 1.51367 3.61328 3.75977 3.61328h10.498v10.5957c0 2.19727 1.46484 3.71094 3.61328 3.71094 2.24609 0 3.71094-1.51367 3.71094-3.71094v-10.5957h10.5957c2.19727 0 3.71094-1.46484 3.71094-3.61328 0-2.19727-1.51367-3.71094-3.71094-3.71094h-10.5957v-10.5469c0-2.24609-1.46484-3.75977-3.71094-3.75977-2.14844 0-3.61328 1.51367-3.61328 3.75977v10.5469h-10.498c-2.24609 0-3.75977 1.51367-3.75977 3.71094Z"/>
  </g>
  <g transform="matrix(0.2 0 0 0.2 281.506 1933)">
   <path d="m58.5449 14.5508c27.2461 0 49.8047-22.6074 49.8047-49.8047 0-27.2461-22.6074-49.8047-49.8535-49.8047-27.1973 0-49.7559 22.5586-49.7559 49.8047 0 27.1973 22.6074 49.8047 49.8047 49.8047Zm0-8.30078c-23.0469 0-41.4551-18.457-41.4551-41.5039s18.3594-41.5039 41.4062-41.5039 41.5527 18.457 41.5527 41.5039-18.457 41.5039-41.5039 41.5039Zm-22.6562-41.5039c0 2.39258 1.66016 4.00391 4.15039 4.00391h14.3555v14.4043c0 2.44141 1.66016 4.15039 4.05273 4.15039 2.44141 0 4.15039-1.66016 4.15039-4.15039v-14.4043h14.4043c2.44141 0 4.15039-1.61133 4.15039-4.00391 0-2.44141-1.70898-4.15039-4.15039-4.15039h-14.4043v-14.3555c0-2.49023-1.70898-4.19922-4.15039-4.19922-2.39258 0-4.05273 1.70898-4.05273 4.19922v14.3555h-14.3555c-2.49023 0-4.15039 1.70898-4.15039 4.15039Z"/>
  </g>
  <g transform="matrix(0.2 0 0 0.2 304.924 1933)">
   <path d="m74.8535 28.3203c34.8145 0 63.623-28.8086 63.623-63.5742 0-34.8145-28.8574-63.623-63.6719-63.623-34.7656 0-63.5254 28.8086-63.5254 63.623 0 34.7656 28.8086 63.5742 63.5742 63.5742Zm0-9.08203c-30.1758 0-54.4434-24.3164-54.4434-54.4922 0-30.2246 24.2188-54.4922 54.3945-54.4922 30.2246 0 54.541 24.2676 54.541 54.4922 0 30.1758-24.2676 54.4922-54.4922 54.4922Zm-28.8574-54.4922c0 2.58789 1.85547 4.39453 4.58984 4.39453h19.7266v19.7754c0 2.68555 1.85547 4.58984 4.44336 4.58984 2.68555 0 4.54102-1.85547 4.54102-4.58984v-19.7754h19.7754c2.68555 0 4.58984-1.80664 4.58984-4.39453 0-2.73438-1.85547-4.58984-4.58984-4.58984h-19.7754v-19.7266c0-2.73438-1.85547-4.63867-4.54102-4.63867-2.58789 0-4.44336 1.9043-4.44336 4.63867v19.7266h-19.7266c-2.73438 0-4.58984 1.85547-4.58984 4.58984Z"/>
  </g>
  <text style="stroke:none;fill:black;font-family:sans-serif;font-size:13;font-weight:bold;" transform="matrix(1 0 0 1 263 1953)">Design Variations</text>
  <text style="stroke:none;fill:black;font-family:sans-serif;font-size:13;" transform="matrix(1 0 0 1 263 1971)">Symbols are supported in up to nine weights and three scales.</text>
  <text style="stroke:none;fill:black;font-family:sans-serif;font-size:13;" transform="matrix(1 0 0 1 263 1989)">For optimal layout with text and other symbols, vertically align</text>
  <text style="stroke:none;fill:black;font-family:sans-serif;font-size:13;" transform="matrix(1 0 0 1 263 2007)">symbols with the adjacent text.</text>
  <line style="fill:none;stroke:#00AEEF;stroke-width:0.5;opacity:1.0;" x1="776" x2="776" y1="1919" y2="1933"/>
  <g transform="matrix(0.2 0 0 0.2 776 1933)">
   <path d="m16.5527 0.78125c2.58789 0 3.85742-0.976562 4.78516-3.71094l6.29883-17.2363h28.8086l6.29883 17.2363c0.927734 2.73438 2.19727 3.71094 4.73633 3.71094 2.58789 0 4.24805-1.5625 4.24805-4.00391 0-0.830078-0.146484-1.61133-0.537109-2.63672l-22.9004-60.9863c-1.12305-2.97852-3.125-4.49219-6.25-4.49219-3.02734 0-5.07812 1.46484-6.15234 4.44336l-22.9004 61.084c-0.390625 1.02539-0.537109 1.80664-0.537109 2.63672 0 2.44141 1.5625 3.95508 4.10156 3.95508Zm13.4766-28.3691 11.8652-32.8613h0.244141l11.8652 32.8613Z"/>
  </g>
  <line style="fill:none;stroke:#00AEEF;stroke-width:0.5;opacity:1.0;" x1="792.836" x2="792.836" y1="1919" y2="1933"/>
  <text style="stroke:none;fill:black;font-family:sans-serif;font-size:13;font-weight:bold;" transform="matrix(1 0 0 1 776 1953)">Margins</text>
  <text style="stroke:none;fill:black;font-family:sans-serif;font-size:13;" transform="matrix(1 0 0 1 776 1971)">Leading and trailing margins on the left and right side of each symbol</text>
  <text style="stroke:none;fill:black;font-family:sans-serif;font-size:13;" transform="matrix(1 0 0 1 776 1989)">can be adjusted by modifying the x-location of the margin guidelines.</text>
  <text style="stroke:none;fill:black;font-family:sans-serif;font-size:13;" transform="matrix(1 0 0 1 776 2007)">Modifications are automatically applied proportionally to all</text>
  <text style="stroke:none;fill:black;font-family:sans-serif;font-size:13;" transform="matrix(1 0 0 1 776 2025)">scales and weights.</text>
  <g transform="matrix(0.2 0 0 0.2 1289 1933)">
   <path d="m14.209 9.32617 8.49609 8.54492c4.29688 4.3457 9.22852 4.05273 13.8672-1.07422l53.4668-58.9355-4.83398-4.88281-53.0762 58.3984c-1.75781 2.00195-3.41797 2.49023-5.76172 0.146484l-5.85938-5.81055c-2.34375-2.29492-1.80664-4.00391 0.195312-5.81055l57.373-54.0039-4.88281-4.83398-57.959 54.4434c-4.93164 4.58984-5.32227 9.47266-1.02539 13.8184Zm32.0801-90.9668c-2.09961 2.05078-2.24609 4.93164-1.07422 6.88477 1.17188 1.80664 3.4668 2.97852 6.68945 2.14844 7.32422-1.70898 14.9414-2.00195 22.0703 2.68555l-2.92969 7.27539c-1.70898 4.15039-0.830078 7.08008 1.85547 9.81445l11.4746 11.5723c2.44141 2.44141 4.49219 2.53906 7.32422 2.05078l5.32227-0.976562 3.32031 3.36914-0.195312 2.7832c-0.195312 2.49023 0.439453 4.39453 2.88086 6.78711l3.80859 3.71094c2.39258 2.39258 5.46875 2.53906 7.8125 0.195312l14.5508-14.5996c2.34375-2.34375 2.24609-5.32227-0.146484-7.71484l-3.85742-3.80859c-2.39258-2.39258-4.24805-3.17383-6.64062-2.97852l-2.88086 0.244141-3.22266-3.17383 1.2207-5.61523c0.634766-2.83203-0.146484-5.0293-3.07617-7.95898l-10.9863-10.9375c-16.6992-16.6016-38.8672-16.2109-53.3203-1.75781Zm7.4707 1.85547c12.1582-8.88672 28.6133-7.37305 39.7461 3.75977l12.1582 12.0605c1.17188 1.17188 1.36719 2.09961 1.02539 3.80859l-1.61133 7.42188 7.51953 7.42188 4.93164-0.292969c1.26953-0.0488281 1.66016 0.0488281 2.63672 1.02539l2.88086 2.88086-12.207 12.207-2.88086-2.88086c-0.976562-0.976562-1.12305-1.36719-1.07422-2.68555l0.341797-4.88281-7.4707-7.42188-7.61719 1.26953c-1.61133 0.341797-2.34375 0.195312-3.56445-0.976562l-10.0098-10.0098c-1.26953-1.17188-1.41602-2.00195-0.634766-3.85742l4.39453-10.4492c-7.8125-7.27539-17.9688-10.4004-28.125-7.42188-0.78125 0.195312-1.07422-0.439453-0.439453-0.976562Z"/>
  </g>
  <text style="stroke:none;fill:black;font-family:sans-serif;font-size:13;font-weight:bold;" transform="matrix(1 0 0 1 1289 1953)">Exporting</text>
  <text style="stroke:none;fill:black;font-family:sans-serif;font-size:13;" transform="matrix(1 0 0 1 1289 1971)">Symbols should be outlined when exporting to ensure the</text>
  <text style="stroke:none;fill:black;font-family:sans-serif;font-size:13;" transform="matrix(1 0 0 1 1289 1989)">design is preserved when submitting to Xcode.</text>
  <text id="template-version" style="stroke:none;fill:black;font-family:sans-serif;font-size:13;text-anchor:end;" transform="matrix(1 0 0 1 3036 1933)">Template v.5.0</text>
  <text style="stroke:none;fill:black;font-family:sans-serif;font-size:13;text-anchor:end;" transform="matrix(1 0 0 1 3036 1951)">Requires Xcode 15 or greater</text>
  <text id="descriptive-name" style="stroke:none;fill:black;font-family:sans-serif;font-size:13;text-anchor:end;" transform="matrix(1 0 0 1 3036 1969)">Generated from shoe.2</text>
  <text style="stroke:none;fill:black;font-family:sans-serif;font-size:13;text-anchor:end;" transform="matrix(1 0 0 1 3036 1987)">Typeset at 100.0 points</text>
  <text style="stroke:none;fill:black;font-family:sans-serif;font-size:13;" transform="matrix(1 0 0 1 263 726)">Small</text>
  <text style="stroke:none;fill:black;font-family:sans-serif;font-size:13;" transform="matrix(1 0 0 1 263 1156)">Medium</text>
  <text style="stroke:none;fill:black;font-family:sans-serif;font-size:13;" transform="matrix(1 0 0 1 263 1586)">Large</text>
 </g>
 <g id="Guides">
  <g id="H-reference" style="fill:#27AAE1;stroke:none;" transform="matrix(1 0 0 1 339 696)">
   <path d="M0.993654 0L3.63775 0L29.3281-67.1323L30.0303-67.1323L30.0303-70.459L28.1226-70.459ZM11.6885-24.4799L46.9815-24.4799L46.2315-26.7285L12.4385-26.7285ZM55.1196 0L57.7637 0L30.6382-70.459L29.4326-70.459L29.4326-67.1323Z"/>
  </g>
  <line id="Baseline-S" style="fill:none;stroke:#27AAE1;opacity:1;stroke-width:0.5;" x1="263" x2="3036" y1="696" y2="696"/>
  <line id="Capline-S" style="fill:none;stroke:#27AAE1;opacity:1;stroke-width:0.5;" x1="263" x2="3036" y1="625.541" y2="625.541"/>
  <g id="H-reference" style="fill:#27AAE1;stroke:none;" transform="matrix(1 0 0 1 339 1126)">
   <path d="M0.993654 0L3.63775 0L29.3281-67.1323L30.0303-67.1323L30.0303-70.459L28.1226-70.459ZM11.6885-24.4799L46.9815-24.4799L46.2315-26.7285L12.4385-26.7285ZM55.1196 0L57.7637 0L30.6382-70.459L29.4326-70.459L29.4326-67.1323Z"/>
  </g>
  <line id="Baseline-M" style="fill:none;stroke:#27AAE1;opacity:1;stroke-width:0.5;" x1="263" x2="3036" y1="1126" y2="1126"/>
  <line id="Capline-M" style="fill:none;stroke:#27AAE1;opacity:1;stroke-width:0.5;" x1="263" x2="3036" y1="1055.54" y2="1055.54"/>
  <g id="H-reference" style="fill:#27AAE1;stroke:none;" transform="matrix(1 0 0 1 339 1556)">
   <path d="M0.993654 0L3.63775 0L29.3281-67.1323L30.0303-67.1323L30.0303-70.459L28.1226-70.459ZM11.6885-24.4799L46.9815-24.4799L46.2315-26.7285L12.4385-26.7285ZM55.1196 0L57.7637 0L30.6382-70.459L29.4326-70.459L29.4326-67.1323Z"/>
  </g>
  <line id="Baseline-L" style="fill:none;stroke:#27AAE1;opacity:1;stroke-width:0.5;" x1="263" x2="3036" y1="1556" y2="1556"/>
  <line id="Capline-L" style="fill:none;stroke:#27AAE1;opacity:1;stroke-width:0.5;" x1="263" x2="3036" y1="1485.54" y2="1485.54"/>
  <line id="left-margin-Ultralight-S" style="fill:none;stroke:#00AEEF;stroke-width:0.5;opacity:1.0;" x1="487.731" x2="487.731" y1="600.785" y2="720.121"/>
  <line id="right-margin-Ultralight-S" style="fill:none;stroke:#00AEEF;stroke-width:0.5;opacity:1.0;" x1="631.692" x2="631.692" y1="600.785" y2="720.121"/>
  <line id="left-margin-Regular-S" style="fill:none;stroke:#00AEEF;stroke-width:0.5;opacity:1.0;" x1="1371.6" x2="1371.6" y1="600.785" y2="720.121"/>
  <line id="right-margin-Regular-S" style="fill:none;stroke:#00AEEF;stroke-width:0.5;opacity:1.0;" x1="1528.09" x2="1528.09" y1="600.785" y2="720.121"/>
  <line id="left-margin-Black-S" style="fill:none;stroke:#00AEEF;stroke-width:0.5;opacity:1.0;" x1="2846.49" x2="2846.49" y1="600.785" y2="720.121"/>
  <line id="right-margin-Black-S" style="fill:none;stroke:#00AEEF;stroke-width:0.5;opacity:1.0;" x1="3020.31" x2="3020.31" y1="600.785" y2="720.121"/>
 </g>
 <g id="Symbols">
  <g id="Black-S" transform="matrix(1 0 0 1 2846.49 696)">
   <path class="SFSymbolsPreviewWireframe" d="M75.4395-71.6309C65.9668-77.1484 56.25-76.4648 48.8281-66.6992C44.7266-61.5234 41.748-59.9121 37.8906-59.9121C34.3262-59.9121 32.4219-60.6934 29.3945-62.3535C20.459-67.0898 9.76562-61.9629 9.76562-50.9766L9.76562-32.5195C9.76562-14.6484 21.7773-10.1562 30.6152-10.1562L94.0918-10.1562C108.496-10.1562 117.041-12.3535 127.783-18.4082C137.109-23.5352 141.895-30.6152 141.895-38.7207C141.895-50.3418 133.301-58.7402 121.484-58.7402C116.65-58.7402 106.689-57.1289 103.369-57.1289C100.391-57.1289 100.342-57.0801 97.168-58.9355ZM69.5801-61.6699L91.4551-48.9746C96.4844-46.0449 98.8281-45.6055 103.369-45.6055C107.568-45.6055 117.578-47.168 121.387-47.168C127.344-47.168 130.273-44.3359 130.273-38.7207C130.273-34.6191 127.832-31.4941 122.217-28.418C112.988-23.291 106.885-21.7285 94.0918-21.7285L30.5664-21.7285C24.8535-21.7285 21.3379-23.1934 21.3379-32.5195L21.3379-51.0254C21.3379-52.4414 22.5098-52.8809 23.584-52.2949C27.6367-50.1953 32.0312-48.3887 37.8906-48.3887C44.9219-48.3887 52.1973-52.1973 57.959-59.7168C61.7676-64.5996 64.0625-64.8438 69.5801-61.6699ZM21.0938-27.7832C23.2422-26.6113 25.293-26.123 28.418-26.123L94.0918-26.123C104.932-26.123 110.596-27.6855 117.432-31.3477L122.803-34.2285C130.029-38.0859 131.934-43.2129 128.271-47.168L121.387-47.168C124.414-47.168 125.928-43.2617 121.924-41.1133L114.941-37.3535C108.838-34.082 104.395-32.7637 94.0918-32.7637L28.418-32.7637C24.2188-32.7637 22.168-33.3496 21.0938-34.7168ZM71.5332-66.4062L63.7207-55.8105C62.5977-54.2969 62.7441-52.0508 64.209-50.8301C65.6738-49.6094 68.0176-49.6582 69.2383-51.3184L77.002-61.8652ZM80.9082-61.8652L72.9492-51.1719C71.7285-49.5605 71.9238-47.4121 73.4375-46.2402C75.0977-44.873 77.2461-45.0195 78.5156-46.7285L86.2793-57.3242ZM90.1367-57.2266L82.2266-46.6309C81.0547-45.0195 81.2012-42.9199 82.666-41.6992C84.2285-40.332 86.4258-40.4297 87.6953-42.1875L95.5078-52.7344ZM97.6074-54.834C88.1348-60.3516 78.418-59.668 70.9961-49.9023C66.8945-44.7266 63.916-43.1152 60.0586-43.1152C56.4941-43.1152 54.5898-43.8965 51.5625-45.5566C42.627-50.293 31.9336-45.166 31.9336-34.1797L31.9336-15.7227C31.9336 2.14844 43.9453 6.64062 52.7832 6.64062L116.26 6.64062C130.664 6.64062 139.209 4.44336 149.951-1.61133C159.277-6.73828 164.062-13.8184 164.062-21.9238C164.062-33.5449 155.469-41.9434 143.652-41.9434C138.818-41.9434 128.857-40.332 125.537-40.332C122.559-40.332 122.51-40.2832 119.336-42.1387ZM91.748-44.873L113.623-32.1777C118.652-29.248 120.996-28.8086 125.537-28.8086C129.736-28.8086 139.746-30.3711 143.555-30.3711C149.512-30.3711 152.441-27.5391 152.441-21.9238C152.441-17.8223 150-14.6973 144.385-11.6211C135.156-6.49414 129.053-4.93164 116.26-4.93164L52.7344-4.93164C47.0215-4.93164 43.5059-6.39648 43.5059-15.7227L43.5059-34.2285C43.5059-35.6445 44.6777-36.084 45.752-35.498C49.8047-33.3984 54.1992-31.5918 60.0586-31.5918C67.0898-31.5918 74.3652-35.4004 80.127-42.9199C83.9355-47.8027 86.2305-48.0469 91.748-44.873ZM43.2617-10.9863C45.4102-9.81445 47.4609-9.32617 50.5859-9.32617L116.26-9.32617C127.1-9.32617 132.764-10.8887 139.6-14.5508L144.971-17.4316C152.197-21.2891 154.102-26.416 150.439-30.3711L143.555-30.3711C146.582-30.3711 148.096-26.4648 144.092-24.3164L137.109-20.5566C131.006-17.2852 126.562-15.9668 116.26-15.9668L50.5859-15.9668C46.3867-15.9668 44.3359-16.5527 43.2617-17.9199ZM93.7012-49.6094L85.8887-39.0137C84.7656-37.5 84.9121-35.2539 86.377-34.0332C87.8418-32.8125 90.1855-32.8613 91.4062-34.5215L99.1699-45.0684ZM103.076-45.0684L95.1172-34.375C93.8965-32.7637 94.0918-30.6152 95.6055-29.4434C97.2656-28.0762 99.4141-28.2227 100.684-29.9316L108.447-40.5273ZM112.305-40.4297L104.395-29.834C103.223-28.2227 103.369-26.123 104.834-24.9023C106.396-23.5352 108.594-23.6328 109.863-25.3906L117.676-35.9375Z"/>
  </g>
  <g id="Regular-S" transform="matrix(1 0 0 1 1371.6 696)">
   <path class="SFSymbolsPreviewWireframe" d="M66.4062-66.3574C58.8379-70.752 51.8066-70.166 45.9961-62.6465C41.6504-57.0801 37.2559-54.7363 32.666-54.7363C28.6133-54.7363 25.8301-55.2246 22.7539-56.5918C16.4551-59.2773 9.76562-56.543 9.76562-49.1211L9.76562-32.373C9.76562-18.5059 18.3594-15.0391 25.6836-15.0391L86.2305-15.0391C99.1699-15.0391 106.494-16.9434 116.211-22.3145C123.975-26.6602 127.637-32.1289 127.637-38.3789C127.637-47.3633 121.24-53.6133 112.061-53.6133C107.812-53.6133 98.3887-52.0996 94.873-52.0996C91.3574-52.0996 90.6738-52.2461 87.1094-54.2969ZM62.8418-60.2539L83.6426-48.2422C88.3789-45.459 90.5762-45.0195 94.873-45.0195C98.8281-45.0195 108.35-46.5332 112.012-46.5332C117.725-46.5332 120.557-43.7988 120.557-38.3789C120.557-34.4238 118.213-31.4453 112.842-28.4668C104.053-23.584 98.2422-22.0703 86.2305-22.0703L25.6348-22.0703C20.166-22.0703 16.7969-23.584 16.7969-32.373L16.7969-49.1699C16.7969-50.5859 18.0176-50.9766 19.1406-50.4883C22.998-48.877 27.1484-47.6562 32.666-47.6562C39.3066-47.6562 46.1426-51.3184 51.6113-58.3984C55.2734-63.0859 57.5195-63.3301 62.8418-60.2539ZM16.6016-27.1484C18.6035-26.0254 20.5078-25.6348 23.4863-25.6348L86.2305-25.6348C96.3867-25.6348 101.709-27.0996 108.105-30.4688L113.623-33.3984C120.41-36.9629 120.654-39.1602 120.605-45.5566L116.162-45.6543C118.848-44.2383 117.871-41.1133 111.377-37.5977L105.811-34.6191C100.146-31.5918 95.8984-30.3711 86.2305-30.3711L23.4863-30.3711C19.5801-30.3711 17.627-30.9082 16.6016-32.1777ZM66.2598-61.9629L59.4238-52.6367C58.6426-51.5625 58.7402-50.0488 59.7168-49.2676C60.6934-48.4863 62.3047-48.5352 63.0859-49.5605L69.9219-58.9355ZM75.0977-57.5684L68.2129-48.2422C67.334-47.0703 67.4805-45.752 68.5059-44.9707C69.6777-43.9941 71.0449-44.043 71.875-45.2148L78.7109-54.5898ZM83.8379-53.1738L77.002-43.9453C76.1719-42.7734 76.2695-41.4062 77.2461-40.625C78.3203-39.6973 79.7363-39.7949 80.6152-40.918L87.4512-50.1953ZM85.498-51.1719C77.9297-55.5664 70.8984-54.9805 65.0879-47.4609C60.7422-41.8457 56.3477-39.502 51.7578-39.502C47.7051-39.502 44.9219-40.0391 41.8457-41.3574C35.5469-44.043 28.8574-41.3086 28.8574-33.8867L28.8574-17.1387C28.8574-3.27148 37.4023 0.146484 44.7754 0.146484L105.322 0.146484C118.262 0.146484 125.586-1.70898 135.303-7.12891C143.066-11.4258 146.729-16.9434 146.729-23.1934C146.729-32.1289 140.332-38.3789 131.152-38.3789C126.904-38.3789 117.48-36.8652 113.965-36.8652C110.449-36.8652 109.766-37.0117 106.201-39.0625ZM81.9336-45.0684L102.686-33.0078C107.471-30.2734 109.668-29.834 113.965-29.834C117.92-29.834 127.441-31.3477 131.104-31.3477C136.816-31.3477 139.648-28.5645 139.648-23.1934C139.648-19.2383 137.305-16.2109 131.934-13.2812C123.145-8.39844 117.334-6.88477 105.322-6.88477L44.7266-6.88477C39.2578-6.88477 35.8887-8.39844 35.8887-17.1387L35.8887-33.9355C35.8887-35.3516 37.1094-35.7422 38.2324-35.2539C42.0898-33.6426 46.2402-32.4707 51.7578-32.4707C58.3984-32.4707 65.2344-36.084 70.7031-43.1641C74.3652-47.9004 76.6113-48.0957 81.9336-45.0684ZM35.6934-11.9141C37.6953-10.8398 39.5996-10.4004 42.5781-10.4004L105.322-10.4004C115.479-10.4004 120.801-11.8652 127.197-15.2832L132.715-18.1641C139.502-21.7773 139.746-23.9258 139.697-30.3223L135.254-30.4688C137.939-29.0527 136.963-25.9277 130.42-22.3633L124.902-19.4336C119.238-16.3574 114.99-15.1855 105.322-15.1855L42.5781-15.1855C38.6719-15.1855 36.7188-15.6738 35.6934-16.9922ZM85.3516-46.7285L78.5156-37.4023C77.6855-36.377 77.7832-34.8633 78.8086-34.0332C79.7852-33.252 81.3965-33.3008 82.1777-34.3262L89.0137-43.7012ZM94.1406-42.3828L87.3047-33.0566C86.4258-31.8848 86.5723-30.5176 87.5977-29.7363C88.7695-28.8086 90.1367-28.8574 90.9668-30.0293L97.8027-39.3555ZM102.93-37.9395L96.0938-28.7109C95.2637-27.5879 95.3613-26.2207 96.3379-25.3906C97.4121-24.4629 98.8281-24.5605 99.707-25.6836L106.543-35.0098Z"/>
  </g>
  <g id="Ultralight-S" transform="matrix(1 0 0 1 487.731 696)">
   <path class="SFSymbolsPreviewWireframe" d="M60.3667-61.5894C54.1153-65.212 48.7188-64.7168 43.9072-58.605C39.3345-52.7661 34.4405-50.1499 29.3057-50.1499C24.9351-50.1499 21.8794-51.3194 18.7578-53.0044C14.8657-55.1451 9.76562-52.9556 9.76562-47.895L9.76562-28.8311C9.76562-20.6855 13.773-16.81 21.3243-16.81L83.5513-16.81C92.858-16.81 98.9561-18.4873 107.992-23.4951C114.938-27.3413 117.692-31.5386 117.692-36.7896C117.692-44.4571 112.976-49.0723 105.158-49.0723C101.273-49.0723 92.2583-47.604 88.6973-47.604C85.0455-47.604 83.9532-47.8413 80.1617-50.0284ZM59.2544-59.6636L79.0562-48.106C83.2022-45.686 84.7183-45.3828 88.6973-45.3828C92.4253-45.3828 101.447-46.8511 105.155-46.8511C112.048-46.8511 115.516-43.481 115.516-36.7896C115.516-32.1987 113.354-28.9932 106.939-25.4243C98.3311-20.6323 92.5206-19.0279 83.5513-19.0279L21.3208-19.0279C15.1255-19.0279 11.9834-22.1763 11.9834-28.8311L11.9834-47.8984C11.9834-51.3125 14.9751-52.6113 17.6875-51.0786C21-49.2856 24.5147-47.9287 29.3057-47.9287C35.1289-47.9287 40.648-50.9097 45.6172-57.2178C49.8243-62.6318 53.6143-62.9668 59.2544-59.6636ZM12.106-24.6055C13.6538-23.8911 15.0586-23.6367 17.4468-23.6367L83.5513-23.6367C90.8467-23.6367 94.8975-24.2842 99.4776-26.4273L111.988-32.2632C116.914-34.6016 117.112-38.1611 116.791-40.1075L115.027-39.8873C115.351-38.6983 115.419-36.2544 111.014-34.1011L98.4542-28.1255C94.6519-26.2789 90.9942-25.7393 83.5513-25.7393L17.4468-25.7393C15.1299-25.7393 13.4038-25.9131 12.106-26.4107ZM62.4908-59.1021L56.0635-49.9121C55.7818-49.4282 55.8794-48.7774 56.3111-48.4956C56.7881-48.123 57.4458-48.2627 57.773-48.7432L64.2911-57.9819ZM70.5567-54.3897L64.6255-45.9717C64.3369-45.481 64.438-44.8892 64.8731-44.562C65.3638-44.1758 66.0044-44.3154 66.335-44.8062L72.3536-53.3184ZM78.4795-49.8135L72.9605-41.9019C72.6299-41.4111 72.7276-40.8159 73.2046-40.4888C73.6885-40.106 74.2872-40.249 74.6666-40.7363L80.3218-48.7422ZM76.8702-50.0366C70.5733-53.7046 65.1768-53.2095 60.4107-47.0977C55.8379-41.2554 50.8985-38.6392 45.8091-38.6392C41.4385-38.6392 38.3829-39.812 35.2613-41.4937C31.3692-43.6343 26.2691-41.4448 26.2691-36.3843L26.2691-17.3203C26.2691-9.17476 30.273-5.30269 37.8277-5.30269L100.009-5.30269C109.361-5.30269 115.46-6.97652 124.495-11.9423C131.396-15.8305 134.195-19.9858 134.195-25.2822C134.195-32.9009 129.479-37.5615 121.616-37.5615C117.777-37.5615 108.762-36.0933 105.201-36.0933C101.549-36.0933 100.457-36.3306 96.6197-38.5176ZM75.7579-48.1108L95.5562-36.5952C99.6602-34.1787 101.222-33.8755 105.201-33.8755C108.929-33.8755 117.905-35.3437 121.613-35.3437C128.552-35.3437 131.974-31.9702 131.974-25.2822C131.974-20.6914 129.812-17.4824 123.442-13.8716C114.835-9.07958 109.024-7.47509 100.009-7.47509L37.8243-7.47509C31.5836-7.47509 28.4415-10.6689 28.4415-17.3203L28.4415-36.3877C28.4415-39.8017 31.4332-41.1005 34.1909-39.5678C37.5035-37.7749 40.9727-36.4214 45.8091-36.4214C51.6324-36.4214 57.1514-39.3989 62.1207-45.707C66.3277-51.1245 70.1177-51.456 75.7579-48.1108ZM28.6094-13.0947C30.1119-12.3838 31.5621-12.126 33.9503-12.126L100.009-12.126C107.35-12.126 111.356-12.728 115.981-14.9199L128.492-20.7524C133.417-23.0942 133.616-26.605 133.294-28.5967L131.53-28.3799C131.855-27.1909 131.922-24.7017 127.514-22.5903L114.958-16.6182C111.155-14.7681 107.452-14.2319 100.009-14.2319L33.9503-14.2319C31.6334-14.2319 29.9073-14.3569 28.6094-14.9033ZM78.9942-47.5459L72.5669-38.3559C72.2364-37.9209 72.334-37.27 72.8145-36.9394C73.2916-36.6123 73.9039-36.7519 74.2764-37.187L80.7945-46.4258ZM87.0567-42.8823L81.129-34.4643C80.795-33.9736 80.896-33.333 81.3765-33.0512C81.8672-32.6684 82.4625-32.8081 82.8384-33.2988L88.857-41.8076ZM94.983-38.3027L89.4639-30.3911C89.1333-29.9038 89.231-29.2632 89.7081-28.978C90.192-28.5952 90.7906-28.7382 91.17-29.2256L96.7799-37.2348Z"/>
  </g>
 </g>
</svg>
