<?xml version="1.0" encoding="UTF-8"?>
<!--Generator: Apple Native CoreSVG 232.5-->
<!DOCTYPE svg
PUBLIC "-//W3C//DTD SVG 1.1//EN"
       "http://www.w3.org/Graphics/SVG/1.1/DTD/svg11.dtd">
<svg version="1.1" xmlns="http://www.w3.org/2000/svg" xmlns:xlink="http://www.w3.org/1999/xlink" width="3300" height="2200">
 <!--glyph: "uni1020AA.medium", point size: 100.0, font version: "19.2d2e1", template writer version: "128"-->
 <style>.SFSymbolsPreviewWireframe {fill:none;opacity:1.0;stroke:black;stroke-width:0.5}
</style>
 <g id="Notes">
  <rect height="2200" id="artboard" style="fill:white;opacity:1" width="3300" x="0" y="0"/>
  <line style="fill:none;stroke:black;opacity:1;stroke-width:0.5;" x1="263" x2="3036" y1="292" y2="292"/>
  <text style="stroke:none;fill:black;font-family:sans-serif;font-size:13;font-weight:bold;" transform="matrix(1 0 0 1 263 322)">Weight/Scale Variations</text>
  <text style="stroke:none;fill:black;font-family:sans-serif;font-size:13;text-anchor:middle;" transform="matrix(1 0 0 1 559.711 322)">Ultralight</text>
  <text style="stroke:none;fill:black;font-family:sans-serif;font-size:13;text-anchor:middle;" transform="matrix(1 0 0 1 856.422 322)">Thin</text>
  <text style="stroke:none;fill:black;font-family:sans-serif;font-size:13;text-anchor:middle;" transform="matrix(1 0 0 1 1153.13 322)">Light</text>
  <text style="stroke:none;fill:black;font-family:sans-serif;font-size:13;text-anchor:middle;" transform="matrix(1 0 0 1 1449.84 322)">Regular</text>
  <text style="stroke:none;fill:black;font-family:sans-serif;font-size:13;text-anchor:middle;" transform="matrix(1 0 0 1 1746.56 322)">Medium</text>
  <text style="stroke:none;fill:black;font-family:sans-serif;font-size:13;text-anchor:middle;" transform="matrix(1 0 0 1 2043.27 322)">Semibold</text>
  <text style="stroke:none;fill:black;font-family:sans-serif;font-size:13;text-anchor:middle;" transform="matrix(1 0 0 1 2339.98 322)">Bold</text>
  <text style="stroke:none;fill:black;font-family:sans-serif;font-size:13;text-anchor:middle;" transform="matrix(1 0 0 1 2636.69 322)">Heavy</text>
  <text style="stroke:none;fill:black;font-family:sans-serif;font-size:13;text-anchor:middle;" transform="matrix(1 0 0 1 2933.4 322)">Black</text>
  <line style="fill:none;stroke:black;opacity:1;stroke-width:0.5;" x1="263" x2="3036" y1="1903" y2="1903"/>
  <g transform="matrix(0.2 0 0 0.2 263 1933)">
   <path d="m46.2402 4.15039c21.5332 0 39.4531-17.8711 39.4531-39.4043s-17.9688-39.4043-39.502-39.4043c-21.4844 0-39.3555 17.8711-39.3555 39.4043s17.9199 39.4043 39.4043 39.4043Zm0-7.42188c-17.7246 0-31.8848-14.209-31.8848-31.9824s14.1113-31.9824 31.8359-31.9824c17.7734 0 32.0312 14.209 32.0312 31.9824s-14.209 31.9824-31.9824 31.9824Zm-17.9688-31.9824c0 2.14844 1.51367 3.61328 3.75977 3.61328h10.498v10.5957c0 2.19727 1.46484 3.71094 3.61328 3.71094 2.24609 0 3.71094-1.51367 3.71094-3.71094v-10.5957h10.5957c2.19727 0 3.71094-1.46484 3.71094-3.61328 0-2.19727-1.51367-3.71094-3.71094-3.71094h-10.5957v-10.5469c0-2.24609-1.46484-3.75977-3.71094-3.75977-2.14844 0-3.61328 1.51367-3.61328 3.75977v10.5469h-10.498c-2.24609 0-3.75977 1.51367-3.75977 3.71094Z"/>
  </g>
  <g transform="matrix(0.2 0 0 0.2 281.506 1933)">
   <path d="m58.5449 14.5508c27.2461 0 49.8047-22.6074 49.8047-49.8047 0-27.2461-22.6074-49.8047-49.8535-49.8047-27.1973 0-49.7559 22.5586-49.7559 49.8047 0 27.1973 22.6074 49.8047 49.8047 49.8047Zm0-8.30078c-23.0469 0-41.4551-18.457-41.4551-41.5039s18.3594-41.5039 41.4062-41.5039 41.5527 18.457 41.5527 41.5039-18.457 41.5039-41.5039 41.5039Zm-22.6562-41.5039c0 2.39258 1.66016 4.00391 4.15039 4.00391h14.3555v14.4043c0 2.44141 1.66016 4.15039 4.05273 4.15039 2.44141 0 4.15039-1.66016 4.15039-4.15039v-14.4043h14.4043c2.44141 0 4.15039-1.61133 4.15039-4.00391 0-2.44141-1.70898-4.15039-4.15039-4.15039h-14.4043v-14.3555c0-2.49023-1.70898-4.19922-4.15039-4.19922-2.39258 0-4.05273 1.70898-4.05273 4.19922v14.3555h-14.3555c-2.49023 0-4.15039 1.70898-4.15039 4.15039Z"/>
  </g>
  <g transform="matrix(0.2 0 0 0.2 304.924 1933)">
   <path d="m74.8535 28.3203c34.8145 0 63.623-28.8086 63.623-63.5742 0-34.8145-28.8574-63.623-63.6719-63.623-34.7656 0-63.5254 28.8086-63.5254 63.623 0 34.7656 28.8086 63.5742 63.5742 63.5742Zm0-9.08203c-30.1758 0-54.4434-24.3164-54.4434-54.4922 0-30.2246 24.2188-54.4922 54.3945-54.4922 30.2246 0 54.541 24.2676 54.541 54.4922 0 30.1758-24.2676 54.4922-54.4922 54.4922Zm-28.8574-54.4922c0 2.58789 1.85547 4.39453 4.58984 4.39453h19.7266v19.7754c0 2.68555 1.85547 4.58984 4.44336 4.58984 2.68555 0 4.54102-1.85547 4.54102-4.58984v-19.7754h19.7754c2.68555 0 4.58984-1.80664 4.58984-4.39453 0-2.73438-1.85547-4.58984-4.58984-4.58984h-19.7754v-19.7266c0-2.73438-1.85547-4.63867-4.54102-4.63867-2.58789 0-4.44336 1.9043-4.44336 4.63867v19.7266h-19.7266c-2.73438 0-4.58984 1.85547-4.58984 4.58984Z"/>
  </g>
  <text style="stroke:none;fill:black;font-family:sans-serif;font-size:13;font-weight:bold;" transform="matrix(1 0 0 1 263 1953)">Design Variations</text>
  <text style="stroke:none;fill:black;font-family:sans-serif;font-size:13;" transform="matrix(1 0 0 1 263 1971)">Symbols are supported in up to nine weights and three scales.</text>
  <text style="stroke:none;fill:black;font-family:sans-serif;font-size:13;" transform="matrix(1 0 0 1 263 1989)">For optimal layout with text and other symbols, vertically align</text>
  <text style="stroke:none;fill:black;font-family:sans-serif;font-size:13;" transform="matrix(1 0 0 1 263 2007)">symbols with the adjacent text.</text>
  <line style="fill:none;stroke:#00AEEF;stroke-width:0.5;opacity:1.0;" x1="776" x2="776" y1="1919" y2="1933"/>
  <g transform="matrix(0.2 0 0 0.2 776 1933)">
   <path d="m16.5527 0.78125c2.58789 0 3.85742-0.976562 4.78516-3.71094l6.29883-17.2363h28.8086l6.29883 17.2363c0.927734 2.73438 2.19727 3.71094 4.73633 3.71094 2.58789 0 4.24805-1.5625 4.24805-4.00391 0-0.830078-0.146484-1.61133-0.537109-2.63672l-22.9004-60.9863c-1.12305-2.97852-3.125-4.49219-6.25-4.49219-3.02734 0-5.07812 1.46484-6.15234 4.44336l-22.9004 61.084c-0.390625 1.02539-0.537109 1.80664-0.537109 2.63672 0 2.44141 1.5625 3.95508 4.10156 3.95508Zm13.4766-28.3691 11.8652-32.8613h0.244141l11.8652 32.8613Z"/>
  </g>
  <line style="fill:none;stroke:#00AEEF;stroke-width:0.5;opacity:1.0;" x1="792.836" x2="792.836" y1="1919" y2="1933"/>
  <text style="stroke:none;fill:black;font-family:sans-serif;font-size:13;font-weight:bold;" transform="matrix(1 0 0 1 776 1953)">Margins</text>
  <text style="stroke:none;fill:black;font-family:sans-serif;font-size:13;" transform="matrix(1 0 0 1 776 1971)">Leading and trailing margins on the left and right side of each symbol</text>
  <text style="stroke:none;fill:black;font-family:sans-serif;font-size:13;" transform="matrix(1 0 0 1 776 1989)">can be adjusted by modifying the x-location of the margin guidelines.</text>
  <text style="stroke:none;fill:black;font-family:sans-serif;font-size:13;" transform="matrix(1 0 0 1 776 2007)">Modifications are automatically applied proportionally to all</text>
  <text style="stroke:none;fill:black;font-family:sans-serif;font-size:13;" transform="matrix(1 0 0 1 776 2025)">scales and weights.</text>
  <g transform="matrix(0.2 0 0 0.2 1289 1933)">
   <path d="m14.209 9.32617 8.49609 8.54492c4.29688 4.3457 9.22852 4.05273 13.8672-1.07422l53.4668-58.9355-4.83398-4.88281-53.0762 58.3984c-1.75781 2.00195-3.41797 2.49023-5.76172 0.146484l-5.85938-5.81055c-2.34375-2.29492-1.80664-4.00391 0.195312-5.81055l57.373-54.0039-4.88281-4.83398-57.959 54.4434c-4.93164 4.58984-5.32227 9.47266-1.02539 13.8184Zm32.0801-90.9668c-2.09961 2.05078-2.24609 4.93164-1.07422 6.88477 1.17188 1.80664 3.4668 2.97852 6.68945 2.14844 7.32422-1.70898 14.9414-2.00195 22.0703 2.68555l-2.92969 7.27539c-1.70898 4.15039-0.830078 7.08008 1.85547 9.81445l11.4746 11.5723c2.44141 2.44141 4.49219 2.53906 7.32422 2.05078l5.32227-0.976562 3.32031 3.36914-0.195312 2.7832c-0.195312 2.49023 0.439453 4.39453 2.88086 6.78711l3.80859 3.71094c2.39258 2.39258 5.46875 2.53906 7.8125 0.195312l14.5508-14.5996c2.34375-2.34375 2.24609-5.32227-0.146484-7.71484l-3.85742-3.80859c-2.39258-2.39258-4.24805-3.17383-6.64062-2.97852l-2.88086 0.244141-3.22266-3.17383 1.2207-5.61523c0.634766-2.83203-0.146484-5.0293-3.07617-7.95898l-10.9863-10.9375c-16.6992-16.6016-38.8672-16.2109-53.3203-1.75781Zm7.4707 1.85547c12.1582-8.88672 28.6133-7.37305 39.7461 3.75977l12.1582 12.0605c1.17188 1.17188 1.36719 2.09961 1.02539 3.80859l-1.61133 7.42188 7.51953 7.42188 4.93164-0.292969c1.26953-0.0488281 1.66016 0.0488281 2.63672 1.02539l2.88086 2.88086-12.207 12.207-2.88086-2.88086c-0.976562-0.976562-1.12305-1.36719-1.07422-2.68555l0.341797-4.88281-7.4707-7.42188-7.61719 1.26953c-1.61133 0.341797-2.34375 0.195312-3.56445-0.976562l-10.0098-10.0098c-1.26953-1.17188-1.41602-2.00195-0.634766-3.85742l4.39453-10.4492c-7.8125-7.27539-17.9688-10.4004-28.125-7.42188-0.78125 0.195312-1.07422-0.439453-0.439453-0.976562Z"/>
  </g>
  <text style="stroke:none;fill:black;font-family:sans-serif;font-size:13;font-weight:bold;" transform="matrix(1 0 0 1 1289 1953)">Exporting</text>
  <text style="stroke:none;fill:black;font-family:sans-serif;font-size:13;" transform="matrix(1 0 0 1 1289 1971)">Symbols should be outlined when exporting to ensure the</text>
  <text style="stroke:none;fill:black;font-family:sans-serif;font-size:13;" transform="matrix(1 0 0 1 1289 1989)">design is preserved when submitting to Xcode.</text>
  <text id="template-version" style="stroke:none;fill:black;font-family:sans-serif;font-size:13;text-anchor:end;" transform="matrix(1 0 0 1 3036 1933)">Template v.5.0</text>
  <text style="stroke:none;fill:black;font-family:sans-serif;font-size:13;text-anchor:end;" transform="matrix(1 0 0 1 3036 1951)">Requires Xcode 15 or greater</text>
  <text id="descriptive-name" style="stroke:none;fill:black;font-family:sans-serif;font-size:13;text-anchor:end;" transform="matrix(1 0 0 1 3036 1969)">Generated from skateboard.fill</text>
  <text style="stroke:none;fill:black;font-family:sans-serif;font-size:13;text-anchor:end;" transform="matrix(1 0 0 1 3036 1987)">Typeset at 100.0 points</text>
  <text style="stroke:none;fill:black;font-family:sans-serif;font-size:13;" transform="matrix(1 0 0 1 263 726)">Small</text>
  <text style="stroke:none;fill:black;font-family:sans-serif;font-size:13;" transform="matrix(1 0 0 1 263 1156)">Medium</text>
  <text style="stroke:none;fill:black;font-family:sans-serif;font-size:13;" transform="matrix(1 0 0 1 263 1586)">Large</text>
 </g>
 <g id="Guides">
  <g id="H-reference" style="fill:#27AAE1;stroke:none;" transform="matrix(1 0 0 1 339 696)">
   <path d="M0.993654 0L3.63775 0L29.3281-67.1323L30.0303-67.1323L30.0303-70.459L28.1226-70.459ZM11.6885-24.4799L46.9815-24.4799L46.2315-26.7285L12.4385-26.7285ZM55.1196 0L57.7637 0L30.6382-70.459L29.4326-70.459L29.4326-67.1323Z"/>
  </g>
  <line id="Baseline-S" style="fill:none;stroke:#27AAE1;opacity:1;stroke-width:0.5;" x1="263" x2="3036" y1="696" y2="696"/>
  <line id="Capline-S" style="fill:none;stroke:#27AAE1;opacity:1;stroke-width:0.5;" x1="263" x2="3036" y1="625.541" y2="625.541"/>
  <g id="H-reference" style="fill:#27AAE1;stroke:none;" transform="matrix(1 0 0 1 339 1126)">
   <path d="M0.993654 0L3.63775 0L29.3281-67.1323L30.0303-67.1323L30.0303-70.459L28.1226-70.459ZM11.6885-24.4799L46.9815-24.4799L46.2315-26.7285L12.4385-26.7285ZM55.1196 0L57.7637 0L30.6382-70.459L29.4326-70.459L29.4326-67.1323Z"/>
  </g>
  <line id="Baseline-M" style="fill:none;stroke:#27AAE1;opacity:1;stroke-width:0.5;" x1="263" x2="3036" y1="1126" y2="1126"/>
  <line id="Capline-M" style="fill:none;stroke:#27AAE1;opacity:1;stroke-width:0.5;" x1="263" x2="3036" y1="1055.54" y2="1055.54"/>
  <g id="H-reference" style="fill:#27AAE1;stroke:none;" transform="matrix(1 0 0 1 339 1556)">
   <path d="M0.993654 0L3.63775 0L29.3281-67.1323L30.0303-67.1323L30.0303-70.459L28.1226-70.459ZM11.6885-24.4799L46.9815-24.4799L46.2315-26.7285L12.4385-26.7285ZM55.1196 0L57.7637 0L30.6382-70.459L29.4326-70.459L29.4326-67.1323Z"/>
  </g>
  <line id="Baseline-L" style="fill:none;stroke:#27AAE1;opacity:1;stroke-width:0.5;" x1="263" x2="3036" y1="1556" y2="1556"/>
  <line id="Capline-L" style="fill:none;stroke:#27AAE1;opacity:1;stroke-width:0.5;" x1="263" x2="3036" y1="1485.54" y2="1485.54"/>
  <line id="left-margin-Ultralight-S" style="fill:none;stroke:#00AEEF;stroke-width:0.5;opacity:1.0;" x1="514.479" x2="514.479" y1="600.785" y2="720.121"/>
  <line id="right-margin-Ultralight-S" style="fill:none;stroke:#00AEEF;stroke-width:0.5;opacity:1.0;" x1="604.943" x2="604.943" y1="600.785" y2="720.121"/>
  <line id="left-margin-Regular-S" style="fill:none;stroke:#00AEEF;stroke-width:0.5;opacity:1.0;" x1="1397.57" x2="1397.57" y1="600.785" y2="720.121"/>
  <line id="right-margin-Regular-S" style="fill:none;stroke:#00AEEF;stroke-width:0.5;opacity:1.0;" x1="1502.11" x2="1502.11" y1="600.785" y2="720.121"/>
  <line id="left-margin-Black-S" style="fill:none;stroke:#00AEEF;stroke-width:0.5;opacity:1.0;" x1="2877.37" x2="2877.37" y1="600.785" y2="720.121"/>
  <line id="right-margin-Black-S" style="fill:none;stroke:#00AEEF;stroke-width:0.5;opacity:1.0;" x1="2989.43" x2="2989.43" y1="600.785" y2="720.121"/>
 </g>
 <g id="Symbols">
  <g id="Black-S" transform="matrix(1 0 0 1 2877.37 696)">
   <path class="SFSymbolsPreviewWireframe" d="M16.4551 3.90625C25.6836 13.1348 39.7461 13.2812 48.877 4.15039L95.2637-42.2852C104.395-51.416 104.248-65.4785 95.0684-74.6582C85.8398-83.8867 71.7773-83.8867 62.5488-74.6582L16.4551-28.6133C7.22656-19.3848 7.22656-5.32227 16.4551 3.90625ZM70.6543-58.5938C68.9941-60.2051 68.9941-63.0859 70.6543-64.7461C72.2168-66.2598 75.293-66.2598 76.8066-64.7461C78.4668-63.0859 78.4668-60.2051 76.8555-58.5938C75.1465-56.8848 72.3633-56.8848 70.6543-58.5938ZM78.6133-50.6836C76.9531-52.3438 76.9531-55.0781 78.6621-56.7871C80.2734-58.3984 83.1055-58.4473 84.7656-56.7871C86.4746-55.0781 86.4746-52.3438 84.7656-50.6348C83.1055-48.9746 80.2734-49.0234 78.6133-50.6836ZM62.6953-50.6836C61.0352-52.3438 61.0352-55.0781 62.6953-56.7383C64.3555-58.3984 67.1875-58.4473 68.8477-56.7871C70.5566-55.0781 70.5566-52.3438 68.8477-50.6348C67.1875-48.9746 64.3555-49.0234 62.6953-50.6836ZM70.6543-42.6758C68.9941-44.3359 68.9941-47.168 70.6543-48.8281C72.3633-50.4883 75.1465-50.4883 76.8066-48.8281C78.4668-47.168 78.4668-44.3359 76.8066-42.6758C75.1465-41.0156 72.3633-41.0156 70.6543-42.6758ZM34.375-22.2656C32.7148-23.9258 32.7637-26.7578 34.375-28.418C36.084-30.0781 38.8184-30.0781 40.4785-28.418C42.1387-26.7578 42.1387-23.9258 40.5273-22.2656C38.8184-20.6055 36.084-20.6055 34.375-22.2656ZM42.2852-14.3555C40.625-16.0156 40.625-18.75 42.2852-20.5078C43.9453-22.1191 46.8262-22.1191 48.4863-20.5078C50.1465-18.75 50.1465-16.0156 48.4863-14.3555C46.8262-12.6953 43.9453-12.6953 42.2852-14.3555ZM26.416-14.3555C24.707-16.0156 24.707-18.75 26.416-20.5078C28.0273-22.1191 30.9082-22.1191 32.5684-20.5078C34.2285-18.75 34.2285-16.0156 32.5195-14.3066C30.9082-12.6953 28.0273-12.6953 26.416-14.3555ZM34.375-6.39648C32.7148-8.00781 32.7637-10.8398 34.375-12.5C36.084-14.1602 38.8184-14.1602 40.4785-12.5C42.1387-10.8398 42.1387-8.00781 40.5273-6.39648C38.8184-4.6875 36.084-4.6875 34.375-6.39648ZM47.6562-65.5273L48.8281-64.3555C51.416-61.7676 55.2734-61.7188 57.8613-64.3066L64.3066-70.752C66.8457-73.291 66.8457-77.1973 64.2578-79.7852L63.0859-80.957C60.5469-83.4961 56.6406-83.4961 54.1016-80.957L47.6562-74.5117C45.1172-71.9727 45.0684-68.1152 47.6562-65.5273ZM84.7168-28.4668L85.8887-27.2461C88.3789-24.6094 92.2852-24.6582 94.873-27.2461L101.367-33.6914C103.906-36.1816 103.809-40.0879 101.367-42.6758L100.195-43.8965C97.7051-46.5332 93.7012-46.3867 91.2109-43.8965L84.7168-37.4512C82.1289-34.8633 82.2266-31.1035 84.7168-28.4668ZM10.6934-28.5156L11.8652-27.3438C14.4043-24.8047 18.3594-24.8047 20.8984-27.3438L27.3438-33.8379C29.8828-36.4258 29.9805-40.2832 27.2949-42.8223L26.123-43.9453C23.5352-46.4355 19.6777-46.5332 17.0898-43.9453L10.6934-37.5488C8.1543-35.0098 8.10547-31.1035 10.6934-28.5156ZM47.7051 8.59375L48.877 9.76562C51.4648 12.3535 55.4199 12.3047 57.959 9.76562L64.4043 3.32031C66.9922 0.732422 66.9434-3.125 64.3555-5.71289L63.1836-6.88477C60.5957-9.47266 56.7871-9.375 54.1992-6.83594L47.7539-0.439453C45.166 2.09961 45.1172 6.00586 47.7051 8.59375Z"/>
  </g>
  <g id="Regular-S" transform="matrix(1 0 0 1 1397.57 696)">
   <path class="SFSymbolsPreviewWireframe" d="M14.6973 2.24609C22.5586 10.1074 34.7656 10.2051 42.5781 2.44141L89.8438-44.8242C97.7051-52.7344 97.7051-64.9902 89.8438-72.8516C81.9824-80.7129 69.6777-80.7129 61.8164-72.9004L14.6973-25.7812C6.83594-17.8711 6.83594-5.61523 14.6973 2.24609ZM69.1406-59.3262C67.9199-60.5469 67.9199-62.4512 69.1406-63.623C70.3125-64.8926 72.3145-64.8926 73.5352-63.623C74.707-62.4512 74.707-60.5469 73.5352-59.3262C72.3145-58.1543 70.3125-58.1543 69.1406-59.3262ZM76.2695-52.1973C75.0977-53.3691 75.0977-55.4199 76.2695-56.5918C77.4902-57.8125 79.3945-57.8125 80.5664-56.5918C81.7871-55.4199 81.7871-53.3691 80.5664-52.1973C79.3945-50.9766 77.4902-50.9766 76.2695-52.1973ZM62.0605-52.1973C60.8887-53.3691 60.8887-55.4199 62.1094-56.5918C63.2812-57.8125 65.1855-57.8125 66.4062-56.5918C67.5781-55.4199 67.5781-53.3691 66.4062-52.1973C65.1855-50.9766 63.2812-50.9766 62.0605-52.1973ZM69.1406-45.166C67.9199-46.3379 67.9199-48.291 69.1406-49.5117C70.3125-50.6836 72.3633-50.6836 73.5352-49.5117C74.7559-48.291 74.7559-46.3379 73.5352-45.166C72.3633-43.9453 70.3125-43.9453 69.1406-45.166ZM31.3965-21.582C30.2246-22.7539 30.2246-24.707 31.3965-25.9277C32.6172-27.0996 34.5703-27.0996 35.7422-25.9277C36.9629-24.707 36.9629-22.7539 35.7422-21.582C34.5703-20.3613 32.6172-20.3613 31.3965-21.582ZM38.4766-14.4531C37.3047-15.6738 37.3047-17.627 38.4766-18.8477C39.6973-20.0684 41.6504-20.0684 42.8711-18.8477C44.043-17.627 44.043-15.6738 42.8711-14.4531C41.6504-13.2812 39.6973-13.2812 38.4766-14.4531ZM24.3164-14.4531C23.0957-15.6738 23.0957-17.627 24.3164-18.8477C25.4883-20.0684 27.4902-20.0684 28.6621-18.8477C29.8828-17.627 29.8828-15.6738 28.6621-14.4531C27.4902-13.2812 25.4883-13.2812 24.3164-14.4531ZM31.3965-7.37305C30.2246-8.54492 30.2246-10.5469 31.3965-11.7188C32.6172-12.9395 34.5703-12.9395 35.7422-11.7188C36.9629-10.5469 36.9629-8.54492 35.7422-7.37305C34.5703-6.15234 32.6172-6.15234 31.3965-7.37305ZM48.4375-65.8203L49.5117-64.7461C51.0742-63.1836 53.418-63.1836 54.9805-64.7461L60.9863-70.752C62.5977-72.3145 62.5977-74.6582 60.9863-76.2207L59.9121-77.2949C58.3496-78.8574 56.0059-78.8574 54.3945-77.2949L48.4375-71.3379C46.875-69.7754 46.875-67.3828 48.4375-65.8203ZM81.6895-32.5684L82.7637-31.4941C84.375-29.9316 86.7188-29.9316 88.2812-31.4941L94.2383-37.4512C95.8496-39.0137 95.8496-41.4062 94.2383-42.9688L93.2129-44.043C91.6016-45.6055 89.2578-45.6055 87.7441-44.043L81.6895-38.0371C80.127-36.4746 80.127-34.1309 81.6895-32.5684ZM10.6934-28.125L11.7676-27.0508C13.3789-25.4883 15.7227-25.4883 17.2852-27.0508L23.2422-33.0078C24.8047-34.5703 24.8047-36.8652 23.2422-38.4766L22.168-39.502C20.6055-41.1133 18.2617-41.1133 16.6992-39.502L10.6934-33.5938C9.13086-32.0312 9.13086-29.6875 10.6934-28.125ZM43.9453 5.22461L45.0684 6.29883C46.6309 7.86133 48.9746 7.86133 50.5371 6.29883L56.4941 0.292969C58.0566-1.31836 58.0566-3.61328 56.4941-5.17578L55.4199-6.25C53.8574-7.86133 51.5137-7.86133 49.9512-6.25L43.9453-0.292969C42.4316 1.26953 42.3828 3.66211 43.9453 5.22461Z"/>
  </g>
  <g id="Ultralight-S" transform="matrix(1 0 0 1 514.479 696)">
   <path class="SFSymbolsPreviewWireframe" d="M13.6983-3.70259C20.2881 2.88726 29.6797 2.84869 36.2662-3.68892L76.7203-44.1885C83.3102-50.7363 83.3102-60.2222 76.7203-66.7666C70.2213-73.2657 60.732-73.2657 54.233-66.7701L13.6983-26.2353C7.15381-19.7329 7.15381-10.247 13.6983-3.70259ZM60.4674-56.1475C59.7007-56.9141 59.7007-58.2281 60.4674-58.9912C61.2305-59.8067 62.5059-59.8067 63.2725-59.0367C64.0811-58.2281 64.0811-56.9595 63.2725-56.1475C62.5059-55.4297 61.1851-55.4297 60.4674-56.1475ZM66.1886-50.4263C65.38-51.2349 65.38-52.5137 66.1886-53.2769C66.9552-54.0435 68.2237-54.0435 68.9869-53.2769C69.7989-52.5137 69.7989-51.2349 68.9869-50.4263C68.2237-49.6597 66.9552-49.6597 66.1886-50.4263ZM54.7496-50.5171C53.9864-51.2803 53.9864-52.5591 54.7984-53.3223C55.5616-54.0889 56.8756-54.0889 57.6422-53.3223C58.3599-52.6045 58.3599-51.2803 57.6422-50.5171C56.8301-49.7051 55.5616-49.7051 54.7496-50.5171ZM60.5128-44.8027C59.7007-45.5659 59.7007-46.8379 60.5128-47.6045C61.276-48.4131 62.5548-48.4131 63.3634-47.6045C64.13-46.8379 64.13-45.5659 63.3634-44.8027C62.5548-43.9907 61.276-43.9907 60.5128-44.8027ZM27.128-22.8989C26.3648-23.6167 26.3648-24.8887 27.1734-25.7007C27.94-26.4639 29.212-26.4639 29.9751-25.7007C30.7417-24.9341 30.7417-23.6167 29.9751-22.8989C29.1665-22.0869 27.94-22.0869 27.128-22.8989ZM32.8457-17.1323C32.0826-17.9443 32.0826-19.2163 32.8457-20.0283C33.6578-20.7495 34.9297-20.7495 35.6963-20.0283C36.4595-19.2163 36.4595-17.9443 35.6963-17.1323C34.9297-16.3237 33.6578-16.3237 32.8457-17.1323ZM21.4556-17.1777C20.7344-17.9443 20.7344-19.2617 21.4556-20.0283C22.2642-20.7949 23.5396-20.7949 24.3028-20.0737C25.0694-19.2617 25.0694-17.9897 24.3028-17.1777C23.5396-16.4599 22.2188-16.4599 21.4556-17.1777ZM27.2188-11.4599C26.4102-12.2685 26.4102-13.4985 27.2188-14.3071C27.9854-15.1191 29.2574-15.1191 30.0206-14.3071C30.8326-13.4985 30.8326-12.2685 30.0206-11.4599C29.2574-10.6933 27.9854-10.6933 27.2188-11.4599ZM43.1246-60.2803L44.2896-59.1153C44.9893-58.5064 45.9708-58.5064 46.6705-59.1153L54.6744-67.1192C55.3321-67.8189 55.3321-68.8003 54.6744-69.4546L53.5093-70.6651C52.855-71.274 51.7373-71.274 51.0796-70.6197L43.1246-62.71C42.4702-62.0103 42.4702-60.98 43.1246-60.2803ZM69.1109-34.3393L70.276-33.1743C70.9337-32.52 71.9606-32.52 72.6149-33.1743L80.6153-41.2202C81.3185-41.8291 81.3185-42.814 80.6153-43.5137L79.4991-44.6787C78.8868-45.3784 77.7691-45.333 77.1637-44.6787L69.1109-36.7202C68.4112-36.0659 68.4566-34.9482 69.1109-34.3393ZM9.78516-26.9898L10.9956-25.7793C11.6987-25.125 12.6348-25.125 13.3345-25.7793L21.335-33.7798C21.9893-34.4795 21.9893-35.5029 21.335-36.2061L20.1699-37.3677C19.4702-38.0254 18.4888-38.0254 17.7891-37.3677L9.83057-29.416C9.17627-28.7163 9.17627-27.6441 9.78516-26.9898ZM35.7715-0.996533L36.94 0.123096C37.6851 0.822809 38.6212 0.868219 39.2755 0.168505L47.276-7.83539C47.9757-8.49311 47.9757-9.56196 47.276-10.2163L46.1109-11.3813C45.502-12.039 44.4297-12.039 43.7754-11.3813L35.7715-3.33543C35.1207-2.72653 35.0718-1.65084 35.7715-0.996533Z"/>
  </g>
 </g>
</svg>
