<?xml version="1.0" encoding="UTF-8"?>
<!--Generator: Apple Native CoreSVG 232.5-->
<!DOCTYPE svg
PUBLIC "-//W3C//DTD SVG 1.1//EN"
       "http://www.w3.org/Graphics/SVG/1.1/DTD/svg11.dtd">
<svg version="1.1" xmlns="http://www.w3.org/2000/svg" xmlns:xlink="http://www.w3.org/1999/xlink" width="3300" height="2200">
 <!--glyph: "uni1011CD.medium", point size: 100.0, font version: "19.2d2e1", template writer version: "128"-->
 <style>.SFSymbolsPreviewWireframe {fill:none;opacity:1.0;stroke:black;stroke-width:0.5}
</style>
 <g id="Notes">
  <rect height="2200" id="artboard" style="fill:white;opacity:1" width="3300" x="0" y="0"/>
  <line style="fill:none;stroke:black;opacity:1;stroke-width:0.5;" x1="263" x2="3036" y1="292" y2="292"/>
  <text style="stroke:none;fill:black;font-family:sans-serif;font-size:13;font-weight:bold;" transform="matrix(1 0 0 1 263 322)">Weight/Scale Variations</text>
  <text style="stroke:none;fill:black;font-family:sans-serif;font-size:13;text-anchor:middle;" transform="matrix(1 0 0 1 559.711 322)">Ultralight</text>
  <text style="stroke:none;fill:black;font-family:sans-serif;font-size:13;text-anchor:middle;" transform="matrix(1 0 0 1 856.422 322)">Thin</text>
  <text style="stroke:none;fill:black;font-family:sans-serif;font-size:13;text-anchor:middle;" transform="matrix(1 0 0 1 1153.13 322)">Light</text>
  <text style="stroke:none;fill:black;font-family:sans-serif;font-size:13;text-anchor:middle;" transform="matrix(1 0 0 1 1449.84 322)">Regular</text>
  <text style="stroke:none;fill:black;font-family:sans-serif;font-size:13;text-anchor:middle;" transform="matrix(1 0 0 1 1746.56 322)">Medium</text>
  <text style="stroke:none;fill:black;font-family:sans-serif;font-size:13;text-anchor:middle;" transform="matrix(1 0 0 1 2043.27 322)">Semibold</text>
  <text style="stroke:none;fill:black;font-family:sans-serif;font-size:13;text-anchor:middle;" transform="matrix(1 0 0 1 2339.98 322)">Bold</text>
  <text style="stroke:none;fill:black;font-family:sans-serif;font-size:13;text-anchor:middle;" transform="matrix(1 0 0 1 2636.69 322)">Heavy</text>
  <text style="stroke:none;fill:black;font-family:sans-serif;font-size:13;text-anchor:middle;" transform="matrix(1 0 0 1 2933.4 322)">Black</text>
  <line style="fill:none;stroke:black;opacity:1;stroke-width:0.5;" x1="263" x2="3036" y1="1903" y2="1903"/>
  <g transform="matrix(0.2 0 0 0.2 263 1933)">
   <path d="m46.2402 4.15039c21.5332 0 39.4531-17.8711 39.4531-39.4043s-17.9688-39.4043-39.502-39.4043c-21.4844 0-39.3555 17.8711-39.3555 39.4043s17.9199 39.4043 39.4043 39.4043Zm0-7.42188c-17.7246 0-31.8848-14.209-31.8848-31.9824s14.1113-31.9824 31.8359-31.9824c17.7734 0 32.0312 14.209 32.0312 31.9824s-14.209 31.9824-31.9824 31.9824Zm-17.9688-31.9824c0 2.14844 1.51367 3.61328 3.75977 3.61328h10.498v10.5957c0 2.19727 1.46484 3.71094 3.61328 3.71094 2.24609 0 3.71094-1.51367 3.71094-3.71094v-10.5957h10.5957c2.19727 0 3.71094-1.46484 3.71094-3.61328 0-2.19727-1.51367-3.71094-3.71094-3.71094h-10.5957v-10.5469c0-2.24609-1.46484-3.75977-3.71094-3.75977-2.14844 0-3.61328 1.51367-3.61328 3.75977v10.5469h-10.498c-2.24609 0-3.75977 1.51367-3.75977 3.71094Z"/>
  </g>
  <g transform="matrix(0.2 0 0 0.2 281.506 1933)">
   <path d="m58.5449 14.5508c27.2461 0 49.8047-22.6074 49.8047-49.8047 0-27.2461-22.6074-49.8047-49.8535-49.8047-27.1973 0-49.7559 22.5586-49.7559 49.8047 0 27.1973 22.6074 49.8047 49.8047 49.8047Zm0-8.30078c-23.0469 0-41.4551-18.457-41.4551-41.5039s18.3594-41.5039 41.4062-41.5039 41.5527 18.457 41.5527 41.5039-18.457 41.5039-41.5039 41.5039Zm-22.6562-41.5039c0 2.39258 1.66016 4.00391 4.15039 4.00391h14.3555v14.4043c0 2.44141 1.66016 4.15039 4.05273 4.15039 2.44141 0 4.15039-1.66016 4.15039-4.15039v-14.4043h14.4043c2.44141 0 4.15039-1.61133 4.15039-4.00391 0-2.44141-1.70898-4.15039-4.15039-4.15039h-14.4043v-14.3555c0-2.49023-1.70898-4.19922-4.15039-4.19922-2.39258 0-4.05273 1.70898-4.05273 4.19922v14.3555h-14.3555c-2.49023 0-4.15039 1.70898-4.15039 4.15039Z"/>
  </g>
  <g transform="matrix(0.2 0 0 0.2 304.924 1933)">
   <path d="m74.8535 28.3203c34.8145 0 63.623-28.8086 63.623-63.5742 0-34.8145-28.8574-63.623-63.6719-63.623-34.7656 0-63.5254 28.8086-63.5254 63.623 0 34.7656 28.8086 63.5742 63.5742 63.5742Zm0-9.08203c-30.1758 0-54.4434-24.3164-54.4434-54.4922 0-30.2246 24.2188-54.4922 54.3945-54.4922 30.2246 0 54.541 24.2676 54.541 54.4922 0 30.1758-24.2676 54.4922-54.4922 54.4922Zm-28.8574-54.4922c0 2.58789 1.85547 4.39453 4.58984 4.39453h19.7266v19.7754c0 2.68555 1.85547 4.58984 4.44336 4.58984 2.68555 0 4.54102-1.85547 4.54102-4.58984v-19.7754h19.7754c2.68555 0 4.58984-1.80664 4.58984-4.39453 0-2.73438-1.85547-4.58984-4.58984-4.58984h-19.7754v-19.7266c0-2.73438-1.85547-4.63867-4.54102-4.63867-2.58789 0-4.44336 1.9043-4.44336 4.63867v19.7266h-19.7266c-2.73438 0-4.58984 1.85547-4.58984 4.58984Z"/>
  </g>
  <text style="stroke:none;fill:black;font-family:sans-serif;font-size:13;font-weight:bold;" transform="matrix(1 0 0 1 263 1953)">Design Variations</text>
  <text style="stroke:none;fill:black;font-family:sans-serif;font-size:13;" transform="matrix(1 0 0 1 263 1971)">Symbols are supported in up to nine weights and three scales.</text>
  <text style="stroke:none;fill:black;font-family:sans-serif;font-size:13;" transform="matrix(1 0 0 1 263 1989)">For optimal layout with text and other symbols, vertically align</text>
  <text style="stroke:none;fill:black;font-family:sans-serif;font-size:13;" transform="matrix(1 0 0 1 263 2007)">symbols with the adjacent text.</text>
  <line style="fill:none;stroke:#00AEEF;stroke-width:0.5;opacity:1.0;" x1="776" x2="776" y1="1919" y2="1933"/>
  <g transform="matrix(0.2 0 0 0.2 776 1933)">
   <path d="m16.5527 0.78125c2.58789 0 3.85742-0.976562 4.78516-3.71094l6.29883-17.2363h28.8086l6.29883 17.2363c0.927734 2.73438 2.19727 3.71094 4.73633 3.71094 2.58789 0 4.24805-1.5625 4.24805-4.00391 0-0.830078-0.146484-1.61133-0.537109-2.63672l-22.9004-60.9863c-1.12305-2.97852-3.125-4.49219-6.25-4.49219-3.02734 0-5.07812 1.46484-6.15234 4.44336l-22.9004 61.084c-0.390625 1.02539-0.537109 1.80664-0.537109 2.63672 0 2.44141 1.5625 3.95508 4.10156 3.95508Zm13.4766-28.3691 11.8652-32.8613h0.244141l11.8652 32.8613Z"/>
  </g>
  <line style="fill:none;stroke:#00AEEF;stroke-width:0.5;opacity:1.0;" x1="792.836" x2="792.836" y1="1919" y2="1933"/>
  <text style="stroke:none;fill:black;font-family:sans-serif;font-size:13;font-weight:bold;" transform="matrix(1 0 0 1 776 1953)">Margins</text>
  <text style="stroke:none;fill:black;font-family:sans-serif;font-size:13;" transform="matrix(1 0 0 1 776 1971)">Leading and trailing margins on the left and right side of each symbol</text>
  <text style="stroke:none;fill:black;font-family:sans-serif;font-size:13;" transform="matrix(1 0 0 1 776 1989)">can be adjusted by modifying the x-location of the margin guidelines.</text>
  <text style="stroke:none;fill:black;font-family:sans-serif;font-size:13;" transform="matrix(1 0 0 1 776 2007)">Modifications are automatically applied proportionally to all</text>
  <text style="stroke:none;fill:black;font-family:sans-serif;font-size:13;" transform="matrix(1 0 0 1 776 2025)">scales and weights.</text>
  <g transform="matrix(0.2 0 0 0.2 1289 1933)">
   <path d="m14.209 9.32617 8.49609 8.54492c4.29688 4.3457 9.22852 4.05273 13.8672-1.07422l53.4668-58.9355-4.83398-4.88281-53.0762 58.3984c-1.75781 2.00195-3.41797 2.49023-5.76172 0.146484l-5.85938-5.81055c-2.34375-2.29492-1.80664-4.00391 0.195312-5.81055l57.373-54.0039-4.88281-4.83398-57.959 54.4434c-4.93164 4.58984-5.32227 9.47266-1.02539 13.8184Zm32.0801-90.9668c-2.09961 2.05078-2.24609 4.93164-1.07422 6.88477 1.17188 1.80664 3.4668 2.97852 6.68945 2.14844 7.32422-1.70898 14.9414-2.00195 22.0703 2.68555l-2.92969 7.27539c-1.70898 4.15039-0.830078 7.08008 1.85547 9.81445l11.4746 11.5723c2.44141 2.44141 4.49219 2.53906 7.32422 2.05078l5.32227-0.976562 3.32031 3.36914-0.195312 2.7832c-0.195312 2.49023 0.439453 4.39453 2.88086 6.78711l3.80859 3.71094c2.39258 2.39258 5.46875 2.53906 7.8125 0.195312l14.5508-14.5996c2.34375-2.34375 2.24609-5.32227-0.146484-7.71484l-3.85742-3.80859c-2.39258-2.39258-4.24805-3.17383-6.64062-2.97852l-2.88086 0.244141-3.22266-3.17383 1.2207-5.61523c0.634766-2.83203-0.146484-5.0293-3.07617-7.95898l-10.9863-10.9375c-16.6992-16.6016-38.8672-16.2109-53.3203-1.75781Zm7.4707 1.85547c12.1582-8.88672 28.6133-7.37305 39.7461 3.75977l12.1582 12.0605c1.17188 1.17188 1.36719 2.09961 1.02539 3.80859l-1.61133 7.42188 7.51953 7.42188 4.93164-0.292969c1.26953-0.0488281 1.66016 0.0488281 2.63672 1.02539l2.88086 2.88086-12.207 12.207-2.88086-2.88086c-0.976562-0.976562-1.12305-1.36719-1.07422-2.68555l0.341797-4.88281-7.4707-7.42188-7.61719 1.26953c-1.61133 0.341797-2.34375 0.195312-3.56445-0.976562l-10.0098-10.0098c-1.26953-1.17188-1.41602-2.00195-0.634766-3.85742l4.39453-10.4492c-7.8125-7.27539-17.9688-10.4004-28.125-7.42188-0.78125 0.195312-1.07422-0.439453-0.439453-0.976562Z"/>
  </g>
  <text style="stroke:none;fill:black;font-family:sans-serif;font-size:13;font-weight:bold;" transform="matrix(1 0 0 1 1289 1953)">Exporting</text>
  <text style="stroke:none;fill:black;font-family:sans-serif;font-size:13;" transform="matrix(1 0 0 1 1289 1971)">Symbols should be outlined when exporting to ensure the</text>
  <text style="stroke:none;fill:black;font-family:sans-serif;font-size:13;" transform="matrix(1 0 0 1 1289 1989)">design is preserved when submitting to Xcode.</text>
  <text id="template-version" style="stroke:none;fill:black;font-family:sans-serif;font-size:13;text-anchor:end;" transform="matrix(1 0 0 1 3036 1933)">Template v.5.0</text>
  <text style="stroke:none;fill:black;font-family:sans-serif;font-size:13;text-anchor:end;" transform="matrix(1 0 0 1 3036 1951)">Requires Xcode 15 or greater</text>
  <text id="descriptive-name" style="stroke:none;fill:black;font-family:sans-serif;font-size:13;text-anchor:end;" transform="matrix(1 0 0 1 3036 1969)">Generated from snowflake.circle.fill</text>
  <text style="stroke:none;fill:black;font-family:sans-serif;font-size:13;text-anchor:end;" transform="matrix(1 0 0 1 3036 1987)">Typeset at 100.0 points</text>
  <text style="stroke:none;fill:black;font-family:sans-serif;font-size:13;" transform="matrix(1 0 0 1 263 726)">Small</text>
  <text style="stroke:none;fill:black;font-family:sans-serif;font-size:13;" transform="matrix(1 0 0 1 263 1156)">Medium</text>
  <text style="stroke:none;fill:black;font-family:sans-serif;font-size:13;" transform="matrix(1 0 0 1 263 1586)">Large</text>
 </g>
 <g id="Guides">
  <g id="H-reference" style="fill:#27AAE1;stroke:none;" transform="matrix(1 0 0 1 339 696)">
   <path d="M0.993654 0L3.63775 0L29.3281-67.1323L30.0303-67.1323L30.0303-70.459L28.1226-70.459ZM11.6885-24.4799L46.9815-24.4799L46.2315-26.7285L12.4385-26.7285ZM55.1196 0L57.7637 0L30.6382-70.459L29.4326-70.459L29.4326-67.1323Z"/>
  </g>
  <line id="Baseline-S" style="fill:none;stroke:#27AAE1;opacity:1;stroke-width:0.5;" x1="263" x2="3036" y1="696" y2="696"/>
  <line id="Capline-S" style="fill:none;stroke:#27AAE1;opacity:1;stroke-width:0.5;" x1="263" x2="3036" y1="625.541" y2="625.541"/>
  <g id="H-reference" style="fill:#27AAE1;stroke:none;" transform="matrix(1 0 0 1 339 1126)">
   <path d="M0.993654 0L3.63775 0L29.3281-67.1323L30.0303-67.1323L30.0303-70.459L28.1226-70.459ZM11.6885-24.4799L46.9815-24.4799L46.2315-26.7285L12.4385-26.7285ZM55.1196 0L57.7637 0L30.6382-70.459L29.4326-70.459L29.4326-67.1323Z"/>
  </g>
  <line id="Baseline-M" style="fill:none;stroke:#27AAE1;opacity:1;stroke-width:0.5;" x1="263" x2="3036" y1="1126" y2="1126"/>
  <line id="Capline-M" style="fill:none;stroke:#27AAE1;opacity:1;stroke-width:0.5;" x1="263" x2="3036" y1="1055.54" y2="1055.54"/>
  <g id="H-reference" style="fill:#27AAE1;stroke:none;" transform="matrix(1 0 0 1 339 1556)">
   <path d="M0.993654 0L3.63775 0L29.3281-67.1323L30.0303-67.1323L30.0303-70.459L28.1226-70.459ZM11.6885-24.4799L46.9815-24.4799L46.2315-26.7285L12.4385-26.7285ZM55.1196 0L57.7637 0L30.6382-70.459L29.4326-70.459L29.4326-67.1323Z"/>
  </g>
  <line id="Baseline-L" style="fill:none;stroke:#27AAE1;opacity:1;stroke-width:0.5;" x1="263" x2="3036" y1="1556" y2="1556"/>
  <line id="Capline-L" style="fill:none;stroke:#27AAE1;opacity:1;stroke-width:0.5;" x1="263" x2="3036" y1="1485.54" y2="1485.54"/>
  <line id="left-margin-Ultralight-S" style="fill:none;stroke:#00AEEF;stroke-width:0.5;opacity:1.0;" x1="515.649" x2="515.649" y1="600.785" y2="720.121"/>
  <line id="right-margin-Ultralight-S" style="fill:none;stroke:#00AEEF;stroke-width:0.5;opacity:1.0;" x1="603.773" x2="603.773" y1="600.785" y2="720.121"/>
  <line id="left-margin-Regular-S" style="fill:none;stroke:#00AEEF;stroke-width:0.5;opacity:1.0;" x1="1403.58" x2="1403.58" y1="600.785" y2="720.121"/>
  <line id="right-margin-Regular-S" style="fill:none;stroke:#00AEEF;stroke-width:0.5;opacity:1.0;" x1="1496.11" x2="1496.11" y1="600.785" y2="720.121"/>
  <line id="left-margin-Black-S" style="fill:none;stroke:#00AEEF;stroke-width:0.5;opacity:1.0;" x1="2884.57" x2="2884.57" y1="600.785" y2="720.121"/>
  <line id="right-margin-Black-S" style="fill:none;stroke:#00AEEF;stroke-width:0.5;opacity:1.0;" x1="2982.23" x2="2982.23" y1="600.785" y2="720.121"/>
 </g>
 <g id="Symbols">
  <g id="Black-S" transform="matrix(1 0 0 1 2884.57 696)">
   <path class="SFSymbolsPreviewWireframe" d="M48.8281 6.83594C71.9727 6.83594 90.8203-12.0117 90.8203-35.1562C90.8203-58.3008 71.9727-77.1484 48.8281-77.1484C25.6836-77.1484 6.83594-58.3008 6.83594-35.1562C6.83594-12.0117 25.6836 6.83594 48.8281 6.83594ZM48.8281-10.7422C46.9727-10.7422 45.7031-12.1094 45.7031-14.0625L45.7031-16.748L44.9707-16.0156C43.6523-14.7461 41.8945-14.7461 40.8203-16.1621C39.8926-17.5293 40.1367-19.0918 41.5039-19.9707L45.7031-22.7539L45.7031-25L46.2402-30.7617L41.5039-27.3926L39.5996-26.3184L39.2578-21.2891C39.1602-19.6777 37.8906-18.6035 36.2305-18.8477C34.4727-18.9941 33.5938-20.5566 34.1309-22.3145L34.375-23.2422L32.0801-21.9238C30.3711-20.8984 28.5645-21.3379 27.6367-22.998C26.709-24.6094 27.2461-26.4648 28.9551-27.3926L31.2012-28.7109L30.2734-29.0039C28.5156-29.4434 27.5879-30.957 28.2715-32.5684C28.9062-34.1797 30.4688-34.7168 31.9824-33.9844L36.4258-31.7383L38.3301-32.9102L43.6035-35.2539L38.3301-37.5977L36.4258-38.7695L31.9824-36.5234C30.4688-35.791 29.0039-36.3281 28.2715-37.8906C27.5879-39.5508 28.4668-41.0645 30.2734-41.5039L31.2012-41.7969L28.9062-43.1152C27.2461-44.043 26.7578-45.8496 27.6367-47.4609C28.5645-49.0234 30.3711-49.5117 32.0801-48.584L34.375-47.2656L34.1309-48.291C33.6914-49.9512 34.5703-51.5137 36.2305-51.6602C37.8906-51.9043 39.1602-50.8301 39.2578-49.2188L39.5996-44.1895L41.5039-43.1152L46.2402-39.7461L45.7031-45.5078L45.7031-47.7539L41.5039-50.5371C40.0879-51.4648 39.8438-53.0273 40.8203-54.3457C41.8945-55.7617 43.6523-55.7617 44.9707-54.4922L45.7031-53.7598L45.7031-56.4453C45.7031-58.3984 46.9727-59.7656 48.8281-59.7656C50.6836-59.7656 51.9531-58.3984 51.9531-56.4453L51.9531-53.7598L52.6855-54.4922C54.0039-55.7617 55.7617-55.7617 56.8359-54.3457C57.7637-52.9785 57.5195-51.416 56.1523-50.5371L51.9531-47.7539L51.9531-45.5078L51.416-39.7461L56.1523-43.1152L58.0566-44.1895L58.3984-49.2188C58.4961-50.8301 59.7656-51.9043 61.4258-51.6602C63.1836-51.5137 64.0625-49.9512 63.5254-48.1934L63.2812-47.2656L65.5762-48.584C67.2852-49.5117 69.0918-49.0234 70.0195-47.4609C70.8984-45.8496 70.4102-44.0918 68.7012-43.1152L66.4551-41.7969L67.3828-41.5039C69.1406-41.0645 70.0195-39.502 69.3848-37.9395C68.6523-36.3281 67.1875-35.791 65.6738-36.5234L61.2305-38.7695L59.3262-37.5977L54.0527-35.2539L59.3262-32.9102L61.2305-31.7383L65.6738-33.9844C67.1875-34.668 68.6523-34.1797 69.3848-32.6172C70.0195-30.957 69.1406-29.4434 67.3828-29.0039L66.4551-28.7109L68.7012-27.3926C70.4102-26.4648 70.8984-24.6582 69.9707-22.998C69.0918-21.3379 67.2852-20.8984 65.5762-21.9238L63.2812-23.2422L63.5254-22.2168C63.9648-20.5566 63.0859-19.043 61.4258-18.8477C59.7656-18.6035 58.4961-19.6777 58.3984-21.2891L58.0566-26.2695L56.1523-27.3438L51.416-30.7129L51.9531-25L51.9531-22.7539L56.1523-19.9707C57.5195-19.0918 57.7637-17.5293 56.8359-16.1621C55.7129-14.7461 54.0039-14.6973 52.6855-16.0156L51.9531-16.748L51.9531-14.0625C51.9531-12.1094 50.6836-10.7422 48.8281-10.7422Z"/>
  </g>
  <g id="Regular-S" transform="matrix(1 0 0 1 1403.58 696)">
   <path class="SFSymbolsPreviewWireframe" d="M46.2402 4.19922C67.7734 4.19922 85.6934-13.6719 85.6934-35.2051C85.6934-56.7383 67.7246-74.6094 46.1914-74.6094C24.707-74.6094 6.83594-56.7383 6.83594-35.2051C6.83594-13.6719 24.7559 4.19922 46.2402 4.19922ZM46.1914-10.3027C44.8242-10.3027 43.7988-11.377 43.7988-12.8418L43.7988-16.6016L40.8691-14.9902C39.502-14.2578 38.2812-14.5508 37.5488-15.7227C36.9629-16.748 37.3535-18.1641 38.5742-18.8965L43.7988-21.7773L43.7988-24.1211L44.2871-31.8359L37.793-27.5879L35.8398-26.3672L35.8398-20.459C35.8398-19.043 34.9121-17.9199 33.6426-17.9199C32.2754-17.9199 31.3477-18.9453 31.3477-20.459L31.2988-23.8281L28.0273-21.875C26.8066-21.1914 25.4395-21.5332 24.707-22.7539C23.9746-24.0234 24.3652-25.3906 25.6348-26.123L28.9062-27.9785L26.0254-29.7363C24.707-30.4688 24.3652-31.7383 25-32.959C25.5859-34.0332 27.0508-34.3262 28.3203-33.6426L33.3984-30.6152L35.4004-31.7871L42.3828-35.2051L35.4004-38.623L33.3984-39.7949L28.3203-36.7676C27.0508-36.084 25.5859-36.377 24.9512-37.4512C24.3164-38.7207 24.7559-39.9414 26.0254-40.6738L28.9062-42.4316L25.6348-44.2871C24.3652-45.0195 23.9258-46.3867 24.707-47.6562C25.3906-48.877 26.8066-49.2188 28.0273-48.5352L31.2988-46.582L31.3477-49.9512C31.3477-51.4648 32.2754-52.4902 33.6426-52.4902C34.9121-52.4902 35.8398-51.3672 35.8398-49.9512L35.8398-44.043L37.793-42.8223L44.2871-38.5742L43.7988-46.2891L43.7988-48.6328L38.5742-51.5137C37.3535-52.2461 36.9629-53.6621 37.5488-54.6875C38.2812-55.8594 39.502-56.1523 40.8691-55.4199L43.7988-53.8086L43.7988-57.5684C43.7988-59.0332 44.8242-60.1074 46.1914-60.1074C47.6074-60.1074 48.6328-59.082 48.6328-57.5684L48.6328-53.8086L51.5625-55.4199C52.8809-56.2012 54.1504-55.8594 54.834-54.6875C55.4688-53.6621 55.0293-52.2461 53.8086-51.5137L48.6328-48.6328L48.6328-46.2891L48.1445-38.5742L54.6387-42.8223L56.5918-44.043L56.543-49.9512C56.543-51.3672 57.4707-52.4902 58.8379-52.4902C60.1562-52.4902 61.0352-51.416 61.0352-49.9512L61.084-46.582L64.3555-48.5352C65.625-49.2188 67.041-48.877 67.7246-47.6562C68.457-46.3379 68.0664-45.0195 66.7969-44.2871L63.5254-42.4316L66.4062-40.6738C67.6758-39.9414 68.1152-38.6719 67.4805-37.4512C66.7969-36.377 65.332-36.084 64.1113-36.7676L58.9844-39.7949L57.0312-38.623L50.0488-35.2051L57.0312-31.7871L58.9844-30.6152L64.1113-33.6426C65.332-34.3262 66.748-34.0332 67.4805-32.9102C68.1152-31.7383 67.6758-30.4688 66.4062-29.7363L63.5254-27.9785L66.7969-26.123C68.0664-25.3906 68.457-24.0234 67.7246-22.7539C66.9434-21.5332 65.625-21.1914 64.3555-21.875L61.084-23.877L61.0352-20.459C61.0352-18.9453 60.1562-17.9199 58.7891-17.9199C57.4707-17.9199 56.543-19.043 56.543-20.459L56.5918-26.3672L54.6387-27.6367L48.1445-31.8359L48.6328-24.1211L48.6328-21.7773L53.8086-18.8965C55.0293-18.1641 55.4688-16.748 54.834-15.7227C54.1504-14.5508 52.8809-14.209 51.5625-14.9902L48.6328-16.6016L48.6328-12.8418C48.6328-11.3281 47.6074-10.3027 46.1914-10.3027Z"/>
  </g>
  <g id="Ultralight-S" transform="matrix(1 0 0 1 515.649 696)">
   <path class="SFSymbolsPreviewWireframe" d="M44.0606 2.01955C64.5039 2.01955 81.2886-14.7617 81.2886-35.2051C81.2886-55.6484 64.5005-72.4297 44.0571-72.4297C23.5718-72.4297 6.83594-55.6484 6.83594-35.2051C6.83594-14.7617 23.5752 2.01955 44.0606 2.01955ZM44.0571-11.438C43.4165-11.438 43.0269-11.9219 43.0269-12.6147L43.0269-19.4624L37.5088-16.3071C36.959-15.938 36.374-16.0493 36.0503-16.6309C35.7822-17.1567 35.9912-17.71 36.5308-18.0337L43.0269-21.7773L43.0269-26.437L43.1973-33.4707L37.021-29.9492L32.979-27.6387L32.979-20.0957C32.979-19.4517 32.5508-19.0098 31.9624-19.0098C31.3218-19.0098 30.939-19.4448 30.939-20.0957L30.9355-26.4165L25.0757-23.0557C24.3999-22.6899 23.8501-22.8047 23.5264-23.2988C23.2026-23.9326 23.457-24.5278 24-24.8062L29.8599-28.2056L24.4815-31.3257C23.8442-31.6948 23.6387-32.2378 23.9556-32.8228C24.3145-33.3975 24.9165-33.4634 25.5503-33.0977L31.9453-29.3438L35.9453-31.7417L42.3828-35.2051L35.9453-38.6685L31.9453-41.0664L25.5503-37.3125C24.9165-36.9468 24.3145-37.0127 23.9522-37.5874C23.6353-38.1758 23.8477-38.7153 24.4815-39.0845L29.8599-42.2046L24-45.604C23.457-45.8823 23.1992-46.4775 23.5264-47.1113C23.8467-47.6055 24.3999-47.7202 25.0757-47.3545L30.9355-43.9937L30.939-50.3145C30.939-50.9653 31.3218-51.4004 31.9624-51.4004C32.5508-51.4004 32.979-50.9585 32.979-50.3145L32.979-42.7715L37.021-40.461L43.1973-36.9395L43.0269-43.9732L43.0269-48.6328L36.5308-52.3765C35.9912-52.7002 35.7822-53.2534 36.0503-53.7793C36.374-54.3609 36.959-54.4722 37.5088-54.103L43.0269-50.9478L43.0269-57.7954C43.0269-58.4883 43.4165-58.9722 44.0571-58.9722C44.6558-58.9722 45.1363-58.4917 45.1363-57.7954L45.1363-51.0386L50.4273-54.103C51.0645-54.4756 51.6983-54.3154 51.9732-53.8247C52.2901-53.2988 52.1231-52.6548 51.5835-52.331L45.0908-48.6328L45.0908-43.9732L44.9204-36.9395L51.3238-40.6426L55.0933-42.7715L55.1353-50.3145C55.1353-50.9585 55.4727-51.4004 56.0679-51.4004C56.7505-51.4004 57.1753-51.0073 57.1753-50.3145L57.1787-43.9483L63.0386-47.3545C63.627-47.6748 64.2256-47.6055 64.5459-47.1113C64.8697-46.4741 64.6153-45.8823 64.0723-45.604L58.2124-42.2046L63.5908-39.0845C64.1792-38.6699 64.437-38.1724 64.1201-37.6328C63.7544-37.0581 63.1524-36.9922 62.5674-37.3125L56.1236-41.0664L52.127-38.6685L45.7349-35.2051L52.127-31.7417L56.1236-29.3438L62.5674-33.0977C63.1524-33.418 63.751-33.3521 64.1201-32.7739C64.437-32.2378 64.1792-31.7402 63.5908-31.3257L58.2124-28.2056L64.0723-24.8062C64.6153-24.5278 64.8697-23.9326 64.5459-23.2988C64.2188-22.8047 63.627-22.7353 63.0386-23.0557L57.1787-26.4653L57.1753-20.0957C57.1753-19.3994 56.7505-19.0098 56.0645-19.0098C55.4727-19.0098 55.1353-19.4517 55.1353-20.0957L55.0933-27.6387L51.3692-29.771L44.9204-33.4707L45.0908-26.437L45.0908-21.7773L51.5835-18.0791C52.1231-17.7554 52.2901-17.1113 51.9732-16.5854C51.6983-16.0947 51.0645-15.9346 50.4273-16.3071L45.1363-19.3716L45.1363-12.6147C45.1363-11.9185 44.6558-11.438 44.0571-11.438Z"/>
  </g>
 </g>
</svg>
