<?xml version="1.0" encoding="UTF-8"?>
<!--Generator: Apple Native CoreSVG 232.5-->
<!DOCTYPE svg
PUBLIC "-//W3C//DTD SVG 1.1//EN"
       "http://www.w3.org/Graphics/SVG/1.1/DTD/svg11.dtd">
<svg version="1.1" xmlns="http://www.w3.org/2000/svg" xmlns:xlink="http://www.w3.org/1999/xlink" width="3300" height="2200">
 <!--glyph: "uni1014BF.medium", point size: 100.0, font version: "19.2d2e1", template writer version: "128"-->
 <style>.SFSymbolsPreviewWireframe {fill:none;opacity:1.0;stroke:black;stroke-width:0.5}
</style>
 <g id="Notes">
  <rect height="2200" id="artboard" style="fill:white;opacity:1" width="3300" x="0" y="0"/>
  <line style="fill:none;stroke:black;opacity:1;stroke-width:0.5;" x1="263" x2="3036" y1="292" y2="292"/>
  <text style="stroke:none;fill:black;font-family:sans-serif;font-size:13;font-weight:bold;" transform="matrix(1 0 0 1 263 322)">Weight/Scale Variations</text>
  <text style="stroke:none;fill:black;font-family:sans-serif;font-size:13;text-anchor:middle;" transform="matrix(1 0 0 1 559.711 322)">Ultralight</text>
  <text style="stroke:none;fill:black;font-family:sans-serif;font-size:13;text-anchor:middle;" transform="matrix(1 0 0 1 856.422 322)">Thin</text>
  <text style="stroke:none;fill:black;font-family:sans-serif;font-size:13;text-anchor:middle;" transform="matrix(1 0 0 1 1153.13 322)">Light</text>
  <text style="stroke:none;fill:black;font-family:sans-serif;font-size:13;text-anchor:middle;" transform="matrix(1 0 0 1 1449.84 322)">Regular</text>
  <text style="stroke:none;fill:black;font-family:sans-serif;font-size:13;text-anchor:middle;" transform="matrix(1 0 0 1 1746.56 322)">Medium</text>
  <text style="stroke:none;fill:black;font-family:sans-serif;font-size:13;text-anchor:middle;" transform="matrix(1 0 0 1 2043.27 322)">Semibold</text>
  <text style="stroke:none;fill:black;font-family:sans-serif;font-size:13;text-anchor:middle;" transform="matrix(1 0 0 1 2339.98 322)">Bold</text>
  <text style="stroke:none;fill:black;font-family:sans-serif;font-size:13;text-anchor:middle;" transform="matrix(1 0 0 1 2636.69 322)">Heavy</text>
  <text style="stroke:none;fill:black;font-family:sans-serif;font-size:13;text-anchor:middle;" transform="matrix(1 0 0 1 2933.4 322)">Black</text>
  <line style="fill:none;stroke:black;opacity:1;stroke-width:0.5;" x1="263" x2="3036" y1="1903" y2="1903"/>
  <g transform="matrix(0.2 0 0 0.2 263 1933)">
   <path d="m46.2402 4.15039c21.5332 0 39.4531-17.8711 39.4531-39.4043s-17.9688-39.4043-39.502-39.4043c-21.4844 0-39.3555 17.8711-39.3555 39.4043s17.9199 39.4043 39.4043 39.4043Zm0-7.42188c-17.7246 0-31.8848-14.209-31.8848-31.9824s14.1113-31.9824 31.8359-31.9824c17.7734 0 32.0312 14.209 32.0312 31.9824s-14.209 31.9824-31.9824 31.9824Zm-17.9688-31.9824c0 2.14844 1.51367 3.61328 3.75977 3.61328h10.498v10.5957c0 2.19727 1.46484 3.71094 3.61328 3.71094 2.24609 0 3.71094-1.51367 3.71094-3.71094v-10.5957h10.5957c2.19727 0 3.71094-1.46484 3.71094-3.61328 0-2.19727-1.51367-3.71094-3.71094-3.71094h-10.5957v-10.5469c0-2.24609-1.46484-3.75977-3.71094-3.75977-2.14844 0-3.61328 1.51367-3.61328 3.75977v10.5469h-10.498c-2.24609 0-3.75977 1.51367-3.75977 3.71094Z"/>
  </g>
  <g transform="matrix(0.2 0 0 0.2 281.506 1933)">
   <path d="m58.5449 14.5508c27.2461 0 49.8047-22.6074 49.8047-49.8047 0-27.2461-22.6074-49.8047-49.8535-49.8047-27.1973 0-49.7559 22.5586-49.7559 49.8047 0 27.1973 22.6074 49.8047 49.8047 49.8047Zm0-8.30078c-23.0469 0-41.4551-18.457-41.4551-41.5039s18.3594-41.5039 41.4062-41.5039 41.5527 18.457 41.5527 41.5039-18.457 41.5039-41.5039 41.5039Zm-22.6562-41.5039c0 2.39258 1.66016 4.00391 4.15039 4.00391h14.3555v14.4043c0 2.44141 1.66016 4.15039 4.05273 4.15039 2.44141 0 4.15039-1.66016 4.15039-4.15039v-14.4043h14.4043c2.44141 0 4.15039-1.61133 4.15039-4.00391 0-2.44141-1.70898-4.15039-4.15039-4.15039h-14.4043v-14.3555c0-2.49023-1.70898-4.19922-4.15039-4.19922-2.39258 0-4.05273 1.70898-4.05273 4.19922v14.3555h-14.3555c-2.49023 0-4.15039 1.70898-4.15039 4.15039Z"/>
  </g>
  <g transform="matrix(0.2 0 0 0.2 304.924 1933)">
   <path d="m74.8535 28.3203c34.8145 0 63.623-28.8086 63.623-63.5742 0-34.8145-28.8574-63.623-63.6719-63.623-34.7656 0-63.5254 28.8086-63.5254 63.623 0 34.7656 28.8086 63.5742 63.5742 63.5742Zm0-9.08203c-30.1758 0-54.4434-24.3164-54.4434-54.4922 0-30.2246 24.2188-54.4922 54.3945-54.4922 30.2246 0 54.541 24.2676 54.541 54.4922 0 30.1758-24.2676 54.4922-54.4922 54.4922Zm-28.8574-54.4922c0 2.58789 1.85547 4.39453 4.58984 4.39453h19.7266v19.7754c0 2.68555 1.85547 4.58984 4.44336 4.58984 2.68555 0 4.54102-1.85547 4.54102-4.58984v-19.7754h19.7754c2.68555 0 4.58984-1.80664 4.58984-4.39453 0-2.73438-1.85547-4.58984-4.58984-4.58984h-19.7754v-19.7266c0-2.73438-1.85547-4.63867-4.54102-4.63867-2.58789 0-4.44336 1.9043-4.44336 4.63867v19.7266h-19.7266c-2.73438 0-4.58984 1.85547-4.58984 4.58984Z"/>
  </g>
  <text style="stroke:none;fill:black;font-family:sans-serif;font-size:13;font-weight:bold;" transform="matrix(1 0 0 1 263 1953)">Design Variations</text>
  <text style="stroke:none;fill:black;font-family:sans-serif;font-size:13;" transform="matrix(1 0 0 1 263 1971)">Symbols are supported in up to nine weights and three scales.</text>
  <text style="stroke:none;fill:black;font-family:sans-serif;font-size:13;" transform="matrix(1 0 0 1 263 1989)">For optimal layout with text and other symbols, vertically align</text>
  <text style="stroke:none;fill:black;font-family:sans-serif;font-size:13;" transform="matrix(1 0 0 1 263 2007)">symbols with the adjacent text.</text>
  <line style="fill:none;stroke:#00AEEF;stroke-width:0.5;opacity:1.0;" x1="776" x2="776" y1="1919" y2="1933"/>
  <g transform="matrix(0.2 0 0 0.2 776 1933)">
   <path d="m16.5527 0.78125c2.58789 0 3.85742-0.976562 4.78516-3.71094l6.29883-17.2363h28.8086l6.29883 17.2363c0.927734 2.73438 2.19727 3.71094 4.73633 3.71094 2.58789 0 4.24805-1.5625 4.24805-4.00391 0-0.830078-0.146484-1.61133-0.537109-2.63672l-22.9004-60.9863c-1.12305-2.97852-3.125-4.49219-6.25-4.49219-3.02734 0-5.07812 1.46484-6.15234 4.44336l-22.9004 61.084c-0.390625 1.02539-0.537109 1.80664-0.537109 2.63672 0 2.44141 1.5625 3.95508 4.10156 3.95508Zm13.4766-28.3691 11.8652-32.8613h0.244141l11.8652 32.8613Z"/>
  </g>
  <line style="fill:none;stroke:#00AEEF;stroke-width:0.5;opacity:1.0;" x1="792.836" x2="792.836" y1="1919" y2="1933"/>
  <text style="stroke:none;fill:black;font-family:sans-serif;font-size:13;font-weight:bold;" transform="matrix(1 0 0 1 776 1953)">Margins</text>
  <text style="stroke:none;fill:black;font-family:sans-serif;font-size:13;" transform="matrix(1 0 0 1 776 1971)">Leading and trailing margins on the left and right side of each symbol</text>
  <text style="stroke:none;fill:black;font-family:sans-serif;font-size:13;" transform="matrix(1 0 0 1 776 1989)">can be adjusted by modifying the x-location of the margin guidelines.</text>
  <text style="stroke:none;fill:black;font-family:sans-serif;font-size:13;" transform="matrix(1 0 0 1 776 2007)">Modifications are automatically applied proportionally to all</text>
  <text style="stroke:none;fill:black;font-family:sans-serif;font-size:13;" transform="matrix(1 0 0 1 776 2025)">scales and weights.</text>
  <g transform="matrix(0.2 0 0 0.2 1289 1933)">
   <path d="m14.209 9.32617 8.49609 8.54492c4.29688 4.3457 9.22852 4.05273 13.8672-1.07422l53.4668-58.9355-4.83398-4.88281-53.0762 58.3984c-1.75781 2.00195-3.41797 2.49023-5.76172 0.146484l-5.85938-5.81055c-2.34375-2.29492-1.80664-4.00391 0.195312-5.81055l57.373-54.0039-4.88281-4.83398-57.959 54.4434c-4.93164 4.58984-5.32227 9.47266-1.02539 13.8184Zm32.0801-90.9668c-2.09961 2.05078-2.24609 4.93164-1.07422 6.88477 1.17188 1.80664 3.4668 2.97852 6.68945 2.14844 7.32422-1.70898 14.9414-2.00195 22.0703 2.68555l-2.92969 7.27539c-1.70898 4.15039-0.830078 7.08008 1.85547 9.81445l11.4746 11.5723c2.44141 2.44141 4.49219 2.53906 7.32422 2.05078l5.32227-0.976562 3.32031 3.36914-0.195312 2.7832c-0.195312 2.49023 0.439453 4.39453 2.88086 6.78711l3.80859 3.71094c2.39258 2.39258 5.46875 2.53906 7.8125 0.195312l14.5508-14.5996c2.34375-2.34375 2.24609-5.32227-0.146484-7.71484l-3.85742-3.80859c-2.39258-2.39258-4.24805-3.17383-6.64062-2.97852l-2.88086 0.244141-3.22266-3.17383 1.2207-5.61523c0.634766-2.83203-0.146484-5.0293-3.07617-7.95898l-10.9863-10.9375c-16.6992-16.6016-38.8672-16.2109-53.3203-1.75781Zm7.4707 1.85547c12.1582-8.88672 28.6133-7.37305 39.7461 3.75977l12.1582 12.0605c1.17188 1.17188 1.36719 2.09961 1.02539 3.80859l-1.61133 7.42188 7.51953 7.42188 4.93164-0.292969c1.26953-0.0488281 1.66016 0.0488281 2.63672 1.02539l2.88086 2.88086-12.207 12.207-2.88086-2.88086c-0.976562-0.976562-1.12305-1.36719-1.07422-2.68555l0.341797-4.88281-7.4707-7.42188-7.61719 1.26953c-1.61133 0.341797-2.34375 0.195312-3.56445-0.976562l-10.0098-10.0098c-1.26953-1.17188-1.41602-2.00195-0.634766-3.85742l4.39453-10.4492c-7.8125-7.27539-17.9688-10.4004-28.125-7.42188-0.78125 0.195312-1.07422-0.439453-0.439453-0.976562Z"/>
  </g>
  <text style="stroke:none;fill:black;font-family:sans-serif;font-size:13;font-weight:bold;" transform="matrix(1 0 0 1 1289 1953)">Exporting</text>
  <text style="stroke:none;fill:black;font-family:sans-serif;font-size:13;" transform="matrix(1 0 0 1 1289 1971)">Symbols should be outlined when exporting to ensure the</text>
  <text style="stroke:none;fill:black;font-family:sans-serif;font-size:13;" transform="matrix(1 0 0 1 1289 1989)">design is preserved when submitting to Xcode.</text>
  <text id="template-version" style="stroke:none;fill:black;font-family:sans-serif;font-size:13;text-anchor:end;" transform="matrix(1 0 0 1 3036 1933)">Template v.5.0</text>
  <text style="stroke:none;fill:black;font-family:sans-serif;font-size:13;text-anchor:end;" transform="matrix(1 0 0 1 3036 1951)">Requires Xcode 15 or greater</text>
  <text id="descriptive-name" style="stroke:none;fill:black;font-family:sans-serif;font-size:13;text-anchor:end;" transform="matrix(1 0 0 1 3036 1969)">Generated from spigot.fill</text>
  <text style="stroke:none;fill:black;font-family:sans-serif;font-size:13;text-anchor:end;" transform="matrix(1 0 0 1 3036 1987)">Typeset at 100.0 points</text>
  <text style="stroke:none;fill:black;font-family:sans-serif;font-size:13;" transform="matrix(1 0 0 1 263 726)">Small</text>
  <text style="stroke:none;fill:black;font-family:sans-serif;font-size:13;" transform="matrix(1 0 0 1 263 1156)">Medium</text>
  <text style="stroke:none;fill:black;font-family:sans-serif;font-size:13;" transform="matrix(1 0 0 1 263 1586)">Large</text>
 </g>
 <g id="Guides">
  <g id="H-reference" style="fill:#27AAE1;stroke:none;" transform="matrix(1 0 0 1 339 696)">
   <path d="M0.993654 0L3.63775 0L29.3281-67.1323L30.0303-67.1323L30.0303-70.459L28.1226-70.459ZM11.6885-24.4799L46.9815-24.4799L46.2315-26.7285L12.4385-26.7285ZM55.1196 0L57.7637 0L30.6382-70.459L29.4326-70.459L29.4326-67.1323Z"/>
  </g>
  <line id="Baseline-S" style="fill:none;stroke:#27AAE1;opacity:1;stroke-width:0.5;" x1="263" x2="3036" y1="696" y2="696"/>
  <line id="Capline-S" style="fill:none;stroke:#27AAE1;opacity:1;stroke-width:0.5;" x1="263" x2="3036" y1="625.541" y2="625.541"/>
  <g id="H-reference" style="fill:#27AAE1;stroke:none;" transform="matrix(1 0 0 1 339 1126)">
   <path d="M0.993654 0L3.63775 0L29.3281-67.1323L30.0303-67.1323L30.0303-70.459L28.1226-70.459ZM11.6885-24.4799L46.9815-24.4799L46.2315-26.7285L12.4385-26.7285ZM55.1196 0L57.7637 0L30.6382-70.459L29.4326-70.459L29.4326-67.1323Z"/>
  </g>
  <line id="Baseline-M" style="fill:none;stroke:#27AAE1;opacity:1;stroke-width:0.5;" x1="263" x2="3036" y1="1126" y2="1126"/>
  <line id="Capline-M" style="fill:none;stroke:#27AAE1;opacity:1;stroke-width:0.5;" x1="263" x2="3036" y1="1055.54" y2="1055.54"/>
  <g id="H-reference" style="fill:#27AAE1;stroke:none;" transform="matrix(1 0 0 1 339 1556)">
   <path d="M0.993654 0L3.63775 0L29.3281-67.1323L30.0303-67.1323L30.0303-70.459L28.1226-70.459ZM11.6885-24.4799L46.9815-24.4799L46.2315-26.7285L12.4385-26.7285ZM55.1196 0L57.7637 0L30.6382-70.459L29.4326-70.459L29.4326-67.1323Z"/>
  </g>
  <line id="Baseline-L" style="fill:none;stroke:#27AAE1;opacity:1;stroke-width:0.5;" x1="263" x2="3036" y1="1556" y2="1556"/>
  <line id="Capline-L" style="fill:none;stroke:#27AAE1;opacity:1;stroke-width:0.5;" x1="263" x2="3036" y1="1485.54" y2="1485.54"/>
  <line id="left-margin-Ultralight-S" style="fill:none;stroke:#00AEEF;stroke-width:0.5;opacity:1.0;" x1="509.952" x2="509.952" y1="600.785" y2="720.121"/>
  <line id="right-margin-Ultralight-S" style="fill:none;stroke:#00AEEF;stroke-width:0.5;opacity:1.0;" x1="609.47" x2="609.47" y1="600.785" y2="720.121"/>
  <line id="left-margin-Regular-S" style="fill:none;stroke:#00AEEF;stroke-width:0.5;opacity:1.0;" x1="1393.23" x2="1393.23" y1="600.785" y2="720.121"/>
  <line id="right-margin-Regular-S" style="fill:none;stroke:#00AEEF;stroke-width:0.5;opacity:1.0;" x1="1506.46" x2="1506.46" y1="600.785" y2="720.121"/>
  <line id="left-margin-Black-S" style="fill:none;stroke:#00AEEF;stroke-width:0.5;opacity:1.0;" x1="2873.46" x2="2873.46" y1="600.785" y2="720.121"/>
  <line id="right-margin-Black-S" style="fill:none;stroke:#00AEEF;stroke-width:0.5;opacity:1.0;" x1="2993.34" x2="2993.34" y1="600.785" y2="720.121"/>
 </g>
 <g id="Symbols">
  <g id="Black-S" transform="matrix(1 0 0 1 2873.46 696)">
   <path class="SFSymbolsPreviewWireframe" d="M55.0781-73.3398L33.0078-75.6348C28.3691-76.123 24.9512-73.0469 24.9512-68.6035C24.9512-64.1113 28.3691-61.0352 33.0078-61.5234L55.0781-63.8184ZM60.0098-59.2285C65.1855-59.2285 69.3848-63.4277 69.3848-68.6035C69.3848-73.7305 65.1855-77.9297 60.0098-77.9297C54.8828-77.9297 50.6836-73.7305 50.6836-68.6035C50.6836-63.4277 54.8828-59.2285 60.0098-59.2285ZM65.0391-73.3398L65.0391-63.8184L87.1094-61.5234C91.748-61.0352 95.166-64.1113 95.166-68.6035C95.166-73.0469 91.748-76.123 87.1094-75.6348ZM54.3945-62.5488L54.3945-50.6836L65.625-50.6836L65.625-62.5488ZM47.2168-42.0898L72.8027-42.0898L72.8027-48.7793C72.8027-53.0762 69.9707-55.9082 65.6738-55.9082L54.3457-55.9082C50.0488-55.9082 47.2168-53.0762 47.2168-48.7793ZM60.0098-0.195312C70.1172-0.195312 73.584-4.98047 76.7578-7.86133C77.9785-8.93555 79.2969-9.86328 80.957-9.86328C83.7402-9.86328 85.9375-7.37305 85.9375-3.66211L85.9375 1.70898C85.9375 4.54102 87.8418 6.44531 90.6738 6.44531L105.371 6.44531C108.203 6.44531 110.107 4.54102 110.107 1.70898L110.107-4.15039C110.107-27.002 95.8008-34.2773 83.3496-34.2773L83.252-34.2773C81.2988-34.2773 79.5898-35.4004 78.9062-37.3047L77.832-40.332C76.7578-43.3594 75.1953-44.5801 72.3633-44.5801L47.6562-44.5801C44.8242-44.5801 43.2617-43.3594 42.1875-40.332L41.1133-37.3047C40.4297-35.4004 38.7207-34.2773 36.7676-34.2773L13.5742-34.2773L13.5742-9.86328L39.3555-9.86328C40.918-9.86328 42.334-9.13086 43.3105-7.91016C47.5586-2.88086 53.3203-0.195312 60.0098-0.195312ZM15.1367 0.634766C18.0664 0.634766 20.5078-1.80664 20.5078-4.73633L20.5078-39.4043C20.5078-42.334 18.0664-44.7754 15.1367-44.7754C12.207-44.7754 9.76562-42.334 9.76562-39.4043L9.76562-4.73633C9.76562-1.80664 12.207 0.634766 15.1367 0.634766Z"/>
  </g>
  <g id="Regular-S" transform="matrix(1 0 0 1 1393.23 696)">
   <path class="SFSymbolsPreviewWireframe" d="M52.7344-68.7988L32.373-70.9473C28.8086-71.3379 26.2695-69.043 26.2695-65.6738C26.2695-62.2559 28.8086-59.9609 32.373-60.3516L52.7344-62.5ZM56.4453-58.1543C60.5957-58.1543 63.9648-61.5234 63.9648-65.6738C63.9648-69.8242 60.5957-73.1445 56.4453-73.1445C52.2949-73.1445 48.9258-69.8242 48.9258-65.6738C48.9258-61.5234 52.2949-58.1543 56.4453-58.1543ZM60.1074-68.7988L60.1074-62.5L80.4688-60.3516C84.0332-59.9609 86.5723-62.2559 86.5723-65.6738C86.5723-69.043 84.0332-71.3379 80.4688-70.9473ZM52.6367-60.9375L52.6367-51.6113L60.2051-51.6113L60.2051-60.9375ZM45.4102-44.0918L67.334-44.0918L67.334-49.0723C67.334-52.3438 65.332-54.3457 62.0605-54.3457L50.6836-54.3457C47.4121-54.3457 45.4102-52.3438 45.4102-49.0723ZM56.3965-4.93164C62.5977-4.93164 66.5039-7.27539 70.8496-11.4258C72.6562-13.2812 75-14.209 77.0508-14.209C80.8105-14.209 83.9355-11.377 83.9355-6.20117L83.9355-1.2207C83.9355 0.439453 84.7168 1.26953 86.4258 1.26953L100.977 1.26953C102.637 1.26953 103.467 0.439453 103.467-1.2207L103.467-4.6875C103.467-27.5879 89.6973-34.375 77.7832-34.375L76.2695-34.375C75.1953-34.375 74.4629-35.0098 74.1211-35.8398L71.875-41.9434C71.0938-44.0918 70.4102-44.6289 68.5547-44.6289L44.1895-44.6289C42.334-44.6289 41.6504-44.0918 40.8691-41.9434L38.623-35.8398C38.2812-35.0098 37.5488-34.375 36.4746-34.375L13.8672-34.375L13.8672-14.5508L35.7422-14.5508C38.1348-14.5508 39.4531-14.209 41.2109-12.0605C44.9219-7.71484 50.0977-4.93164 56.3965-4.93164ZM13.2812-4.10156C15.2344-4.10156 16.7969-5.71289 16.7969-7.61719L16.7969-39.9902C16.7969-41.8945 15.2344-43.5059 13.2812-43.5059C11.377-43.5059 9.76562-41.8945 9.76562-39.9902L9.76562-7.61719C9.76562-5.71289 11.377-4.10156 13.2812-4.10156Z"/>
  </g>
  <g id="Ultralight-S" transform="matrix(1 0 0 1 509.952 696)">
   <path class="SFSymbolsPreviewWireframe" d="M46.0591-63.7583L29.1035-65.9522C26.2202-66.3428 24.0899-64.4112 24.0899-61.5869C24.0899-58.7139 26.2202-56.7823 29.1035-57.1729L46.0591-59.4121ZM48.544-56.3833C51.4683-56.3833 53.7022-58.708 53.7022-61.5869C53.7022-64.4659 51.4683-66.7872 48.544-66.7872C45.6197-66.7872 43.295-64.4659 43.295-61.5869C43.295-58.708 45.6197-56.3833 48.544-56.3833ZM51.0709-63.7583L51.0709-59.4121L67.9811-57.1729C70.9098-56.7823 73.0401-58.7139 73.0401-61.5869C73.0401-64.4112 70.9098-66.3428 67.9811-65.9522ZM47.0059-58.8486L47.0059-51.0664L50.1695-51.0664L50.1695-58.8486ZM39.3707-44.5913L57.6163-44.5913L57.6163-49.6626C57.6163-51.5264 56.3863-52.7564 54.5679-52.7564L42.419-52.7564C40.646-52.7564 39.3707-51.5264 39.3707-49.6626ZM48.4952-10.9257C55.6954-10.9257 59.3292-14.768 63.2662-17.6469C64.6641-18.685 66.5084-19.4765 68.2413-19.4765C72.2281-19.4765 74.7628-16.7353 74.7628-12.5131L74.7628-5.48922C74.7628-4.14694 75.0445-3.77096 76.3902-3.77096L88.0802-3.77096C89.3771-3.77096 89.753-4.19235 89.753-5.48922L89.753-9.59176C89.753-26.0894 81.1602-35.9189 66.4308-35.9189L64.0543-35.9189C63.2525-35.9189 62.5655-36.3721 62.3145-37.1113L59.6144-44.4409C59.2872-45.3179 58.7852-45.6279 57.8834-45.6279L39.1036-45.6279C38.1563-45.6279 37.6543-45.3179 37.3272-44.4409L34.627-37.1113C34.376-36.3721 33.689-35.9189 32.8872-35.9189L10.9156-35.9189L10.9156-19.1826L29.0669-19.1826C31.2779-19.1826 31.8243-18.977 33.2188-17.9638C37.1568-15.0712 41.3336-10.9257 48.4952-10.9257ZM10.8745-13.1835C11.4654-13.1835 11.9834-13.705 11.9834-14.2924L11.9834-40.6714C11.9834-41.3042 11.4654-41.7803 10.8745-41.7803C10.2417-41.7803 9.76562-41.3042 9.76562-40.6714L9.76562-14.2924C9.76562-13.705 10.2417-13.1835 10.8745-13.1835Z"/>
  </g>
 </g>
</svg>
