<?xml version="1.0" encoding="UTF-8"?>
<!--Generator: Apple Native CoreSVG 232.5-->
<!DOCTYPE svg
PUBLIC "-//W3C//DTD SVG 1.1//EN"
       "http://www.w3.org/Graphics/SVG/1.1/DTD/svg11.dtd">
<svg version="1.1" xmlns="http://www.w3.org/2000/svg" xmlns:xlink="http://www.w3.org/1999/xlink" width="3300" height="2200">
 <!--glyph: "uni10199D.medium", point size: 100.0, font version: "19.2d2e1", template writer version: "128"-->
 <style>.SFSymbolsPreviewWireframe {fill:none;opacity:1.0;stroke:black;stroke-width:0.5}
</style>
 <g id="Notes">
  <rect height="2200" id="artboard" style="fill:white;opacity:1" width="3300" x="0" y="0"/>
  <line style="fill:none;stroke:black;opacity:1;stroke-width:0.5;" x1="263" x2="3036" y1="292" y2="292"/>
  <text style="stroke:none;fill:black;font-family:sans-serif;font-size:13;font-weight:bold;" transform="matrix(1 0 0 1 263 322)">Weight/Scale Variations</text>
  <text style="stroke:none;fill:black;font-family:sans-serif;font-size:13;text-anchor:middle;" transform="matrix(1 0 0 1 559.711 322)">Ultralight</text>
  <text style="stroke:none;fill:black;font-family:sans-serif;font-size:13;text-anchor:middle;" transform="matrix(1 0 0 1 856.422 322)">Thin</text>
  <text style="stroke:none;fill:black;font-family:sans-serif;font-size:13;text-anchor:middle;" transform="matrix(1 0 0 1 1153.13 322)">Light</text>
  <text style="stroke:none;fill:black;font-family:sans-serif;font-size:13;text-anchor:middle;" transform="matrix(1 0 0 1 1449.84 322)">Regular</text>
  <text style="stroke:none;fill:black;font-family:sans-serif;font-size:13;text-anchor:middle;" transform="matrix(1 0 0 1 1746.56 322)">Medium</text>
  <text style="stroke:none;fill:black;font-family:sans-serif;font-size:13;text-anchor:middle;" transform="matrix(1 0 0 1 2043.27 322)">Semibold</text>
  <text style="stroke:none;fill:black;font-family:sans-serif;font-size:13;text-anchor:middle;" transform="matrix(1 0 0 1 2339.98 322)">Bold</text>
  <text style="stroke:none;fill:black;font-family:sans-serif;font-size:13;text-anchor:middle;" transform="matrix(1 0 0 1 2636.69 322)">Heavy</text>
  <text style="stroke:none;fill:black;font-family:sans-serif;font-size:13;text-anchor:middle;" transform="matrix(1 0 0 1 2933.4 322)">Black</text>
  <line style="fill:none;stroke:black;opacity:1;stroke-width:0.5;" x1="263" x2="3036" y1="1903" y2="1903"/>
  <g transform="matrix(0.2 0 0 0.2 263 1933)">
   <path d="m46.2402 4.15039c21.5332 0 39.4531-17.8711 39.4531-39.4043s-17.9688-39.4043-39.502-39.4043c-21.4844 0-39.3555 17.8711-39.3555 39.4043s17.9199 39.4043 39.4043 39.4043Zm0-7.42188c-17.7246 0-31.8848-14.209-31.8848-31.9824s14.1113-31.9824 31.8359-31.9824c17.7734 0 32.0312 14.209 32.0312 31.9824s-14.209 31.9824-31.9824 31.9824Zm-17.9688-31.9824c0 2.14844 1.51367 3.61328 3.75977 3.61328h10.498v10.5957c0 2.19727 1.46484 3.71094 3.61328 3.71094 2.24609 0 3.71094-1.51367 3.71094-3.71094v-10.5957h10.5957c2.19727 0 3.71094-1.46484 3.71094-3.61328 0-2.19727-1.51367-3.71094-3.71094-3.71094h-10.5957v-10.5469c0-2.24609-1.46484-3.75977-3.71094-3.75977-2.14844 0-3.61328 1.51367-3.61328 3.75977v10.5469h-10.498c-2.24609 0-3.75977 1.51367-3.75977 3.71094Z"/>
  </g>
  <g transform="matrix(0.2 0 0 0.2 281.506 1933)">
   <path d="m58.5449 14.5508c27.2461 0 49.8047-22.6074 49.8047-49.8047 0-27.2461-22.6074-49.8047-49.8535-49.8047-27.1973 0-49.7559 22.5586-49.7559 49.8047 0 27.1973 22.6074 49.8047 49.8047 49.8047Zm0-8.30078c-23.0469 0-41.4551-18.457-41.4551-41.5039s18.3594-41.5039 41.4062-41.5039 41.5527 18.457 41.5527 41.5039-18.457 41.5039-41.5039 41.5039Zm-22.6562-41.5039c0 2.39258 1.66016 4.00391 4.15039 4.00391h14.3555v14.4043c0 2.44141 1.66016 4.15039 4.05273 4.15039 2.44141 0 4.15039-1.66016 4.15039-4.15039v-14.4043h14.4043c2.44141 0 4.15039-1.61133 4.15039-4.00391 0-2.44141-1.70898-4.15039-4.15039-4.15039h-14.4043v-14.3555c0-2.49023-1.70898-4.19922-4.15039-4.19922-2.39258 0-4.05273 1.70898-4.05273 4.19922v14.3555h-14.3555c-2.49023 0-4.15039 1.70898-4.15039 4.15039Z"/>
  </g>
  <g transform="matrix(0.2 0 0 0.2 304.924 1933)">
   <path d="m74.8535 28.3203c34.8145 0 63.623-28.8086 63.623-63.5742 0-34.8145-28.8574-63.623-63.6719-63.623-34.7656 0-63.5254 28.8086-63.5254 63.623 0 34.7656 28.8086 63.5742 63.5742 63.5742Zm0-9.08203c-30.1758 0-54.4434-24.3164-54.4434-54.4922 0-30.2246 24.2188-54.4922 54.3945-54.4922 30.2246 0 54.541 24.2676 54.541 54.4922 0 30.1758-24.2676 54.4922-54.4922 54.4922Zm-28.8574-54.4922c0 2.58789 1.85547 4.39453 4.58984 4.39453h19.7266v19.7754c0 2.68555 1.85547 4.58984 4.44336 4.58984 2.68555 0 4.54102-1.85547 4.54102-4.58984v-19.7754h19.7754c2.68555 0 4.58984-1.80664 4.58984-4.39453 0-2.73438-1.85547-4.58984-4.58984-4.58984h-19.7754v-19.7266c0-2.73438-1.85547-4.63867-4.54102-4.63867-2.58789 0-4.44336 1.9043-4.44336 4.63867v19.7266h-19.7266c-2.73438 0-4.58984 1.85547-4.58984 4.58984Z"/>
  </g>
  <text style="stroke:none;fill:black;font-family:sans-serif;font-size:13;font-weight:bold;" transform="matrix(1 0 0 1 263 1953)">Design Variations</text>
  <text style="stroke:none;fill:black;font-family:sans-serif;font-size:13;" transform="matrix(1 0 0 1 263 1971)">Symbols are supported in up to nine weights and three scales.</text>
  <text style="stroke:none;fill:black;font-family:sans-serif;font-size:13;" transform="matrix(1 0 0 1 263 1989)">For optimal layout with text and other symbols, vertically align</text>
  <text style="stroke:none;fill:black;font-family:sans-serif;font-size:13;" transform="matrix(1 0 0 1 263 2007)">symbols with the adjacent text.</text>
  <line style="fill:none;stroke:#00AEEF;stroke-width:0.5;opacity:1.0;" x1="776" x2="776" y1="1919" y2="1933"/>
  <g transform="matrix(0.2 0 0 0.2 776 1933)">
   <path d="m16.5527 0.78125c2.58789 0 3.85742-0.976562 4.78516-3.71094l6.29883-17.2363h28.8086l6.29883 17.2363c0.927734 2.73438 2.19727 3.71094 4.73633 3.71094 2.58789 0 4.24805-1.5625 4.24805-4.00391 0-0.830078-0.146484-1.61133-0.537109-2.63672l-22.9004-60.9863c-1.12305-2.97852-3.125-4.49219-6.25-4.49219-3.02734 0-5.07812 1.46484-6.15234 4.44336l-22.9004 61.084c-0.390625 1.02539-0.537109 1.80664-0.537109 2.63672 0 2.44141 1.5625 3.95508 4.10156 3.95508Zm13.4766-28.3691 11.8652-32.8613h0.244141l11.8652 32.8613Z"/>
  </g>
  <line style="fill:none;stroke:#00AEEF;stroke-width:0.5;opacity:1.0;" x1="792.836" x2="792.836" y1="1919" y2="1933"/>
  <text style="stroke:none;fill:black;font-family:sans-serif;font-size:13;font-weight:bold;" transform="matrix(1 0 0 1 776 1953)">Margins</text>
  <text style="stroke:none;fill:black;font-family:sans-serif;font-size:13;" transform="matrix(1 0 0 1 776 1971)">Leading and trailing margins on the left and right side of each symbol</text>
  <text style="stroke:none;fill:black;font-family:sans-serif;font-size:13;" transform="matrix(1 0 0 1 776 1989)">can be adjusted by modifying the x-location of the margin guidelines.</text>
  <text style="stroke:none;fill:black;font-family:sans-serif;font-size:13;" transform="matrix(1 0 0 1 776 2007)">Modifications are automatically applied proportionally to all</text>
  <text style="stroke:none;fill:black;font-family:sans-serif;font-size:13;" transform="matrix(1 0 0 1 776 2025)">scales and weights.</text>
  <g transform="matrix(0.2 0 0 0.2 1289 1933)">
   <path d="m14.209 9.32617 8.49609 8.54492c4.29688 4.3457 9.22852 4.05273 13.8672-1.07422l53.4668-58.9355-4.83398-4.88281-53.0762 58.3984c-1.75781 2.00195-3.41797 2.49023-5.76172 0.146484l-5.85938-5.81055c-2.34375-2.29492-1.80664-4.00391 0.195312-5.81055l57.373-54.0039-4.88281-4.83398-57.959 54.4434c-4.93164 4.58984-5.32227 9.47266-1.02539 13.8184Zm32.0801-90.9668c-2.09961 2.05078-2.24609 4.93164-1.07422 6.88477 1.17188 1.80664 3.4668 2.97852 6.68945 2.14844 7.32422-1.70898 14.9414-2.00195 22.0703 2.68555l-2.92969 7.27539c-1.70898 4.15039-0.830078 7.08008 1.85547 9.81445l11.4746 11.5723c2.44141 2.44141 4.49219 2.53906 7.32422 2.05078l5.32227-0.976562 3.32031 3.36914-0.195312 2.7832c-0.195312 2.49023 0.439453 4.39453 2.88086 6.78711l3.80859 3.71094c2.39258 2.39258 5.46875 2.53906 7.8125 0.195312l14.5508-14.5996c2.34375-2.34375 2.24609-5.32227-0.146484-7.71484l-3.85742-3.80859c-2.39258-2.39258-4.24805-3.17383-6.64062-2.97852l-2.88086 0.244141-3.22266-3.17383 1.2207-5.61523c0.634766-2.83203-0.146484-5.0293-3.07617-7.95898l-10.9863-10.9375c-16.6992-16.6016-38.8672-16.2109-53.3203-1.75781Zm7.4707 1.85547c12.1582-8.88672 28.6133-7.37305 39.7461 3.75977l12.1582 12.0605c1.17188 1.17188 1.36719 2.09961 1.02539 3.80859l-1.61133 7.42188 7.51953 7.42188 4.93164-0.292969c1.26953-0.0488281 1.66016 0.0488281 2.63672 1.02539l2.88086 2.88086-12.207 12.207-2.88086-2.88086c-0.976562-0.976562-1.12305-1.36719-1.07422-2.68555l0.341797-4.88281-7.4707-7.42188-7.61719 1.26953c-1.61133 0.341797-2.34375 0.195312-3.56445-0.976562l-10.0098-10.0098c-1.26953-1.17188-1.41602-2.00195-0.634766-3.85742l4.39453-10.4492c-7.8125-7.27539-17.9688-10.4004-28.125-7.42188-0.78125 0.195312-1.07422-0.439453-0.439453-0.976562Z"/>
  </g>
  <text style="stroke:none;fill:black;font-family:sans-serif;font-size:13;font-weight:bold;" transform="matrix(1 0 0 1 1289 1953)">Exporting</text>
  <text style="stroke:none;fill:black;font-family:sans-serif;font-size:13;" transform="matrix(1 0 0 1 1289 1971)">Symbols should be outlined when exporting to ensure the</text>
  <text style="stroke:none;fill:black;font-family:sans-serif;font-size:13;" transform="matrix(1 0 0 1 1289 1989)">design is preserved when submitting to Xcode.</text>
  <text id="template-version" style="stroke:none;fill:black;font-family:sans-serif;font-size:13;text-anchor:end;" transform="matrix(1 0 0 1 3036 1933)">Template v.5.0</text>
  <text style="stroke:none;fill:black;font-family:sans-serif;font-size:13;text-anchor:end;" transform="matrix(1 0 0 1 3036 1951)">Requires Xcode 15 or greater</text>
  <text id="descriptive-name" style="stroke:none;fill:black;font-family:sans-serif;font-size:13;text-anchor:end;" transform="matrix(1 0 0 1 3036 1969)">Generated from square.and.arrow.up.on.square</text>
  <text style="stroke:none;fill:black;font-family:sans-serif;font-size:13;text-anchor:end;" transform="matrix(1 0 0 1 3036 1987)">Typeset at 100.0 points</text>
  <text style="stroke:none;fill:black;font-family:sans-serif;font-size:13;" transform="matrix(1 0 0 1 263 726)">Small</text>
  <text style="stroke:none;fill:black;font-family:sans-serif;font-size:13;" transform="matrix(1 0 0 1 263 1156)">Medium</text>
  <text style="stroke:none;fill:black;font-family:sans-serif;font-size:13;" transform="matrix(1 0 0 1 263 1586)">Large</text>
 </g>
 <g id="Guides">
  <g id="H-reference" style="fill:#27AAE1;stroke:none;" transform="matrix(1 0 0 1 339 696)">
   <path d="M0.993654 0L3.63775 0L29.3281-67.1323L30.0303-67.1323L30.0303-70.459L28.1226-70.459ZM11.6885-24.4799L46.9815-24.4799L46.2315-26.7285L12.4385-26.7285ZM55.1196 0L57.7637 0L30.6382-70.459L29.4326-70.459L29.4326-67.1323Z"/>
  </g>
  <line id="Baseline-S" style="fill:none;stroke:#27AAE1;opacity:1;stroke-width:0.5;" x1="263" x2="3036" y1="696" y2="696"/>
  <line id="Capline-S" style="fill:none;stroke:#27AAE1;opacity:1;stroke-width:0.5;" x1="263" x2="3036" y1="625.541" y2="625.541"/>
  <g id="H-reference" style="fill:#27AAE1;stroke:none;" transform="matrix(1 0 0 1 339 1126)">
   <path d="M0.993654 0L3.63775 0L29.3281-67.1323L30.0303-67.1323L30.0303-70.459L28.1226-70.459ZM11.6885-24.4799L46.9815-24.4799L46.2315-26.7285L12.4385-26.7285ZM55.1196 0L57.7637 0L30.6382-70.459L29.4326-70.459L29.4326-67.1323Z"/>
  </g>
  <line id="Baseline-M" style="fill:none;stroke:#27AAE1;opacity:1;stroke-width:0.5;" x1="263" x2="3036" y1="1126" y2="1126"/>
  <line id="Capline-M" style="fill:none;stroke:#27AAE1;opacity:1;stroke-width:0.5;" x1="263" x2="3036" y1="1055.54" y2="1055.54"/>
  <g id="H-reference" style="fill:#27AAE1;stroke:none;" transform="matrix(1 0 0 1 339 1556)">
   <path d="M0.993654 0L3.63775 0L29.3281-67.1323L30.0303-67.1323L30.0303-70.459L28.1226-70.459ZM11.6885-24.4799L46.9815-24.4799L46.2315-26.7285L12.4385-26.7285ZM55.1196 0L57.7637 0L30.6382-70.459L29.4326-70.459L29.4326-67.1323Z"/>
  </g>
  <line id="Baseline-L" style="fill:none;stroke:#27AAE1;opacity:1;stroke-width:0.5;" x1="263" x2="3036" y1="1556" y2="1556"/>
  <line id="Capline-L" style="fill:none;stroke:#27AAE1;opacity:1;stroke-width:0.5;" x1="263" x2="3036" y1="1485.54" y2="1485.54"/>
  <line id="left-margin-Ultralight-S" style="fill:none;stroke:#00AEEF;stroke-width:0.5;opacity:1.0;" x1="508.966" x2="508.966" y1="600.785" y2="720.121"/>
  <line id="right-margin-Ultralight-S" style="fill:none;stroke:#00AEEF;stroke-width:0.5;opacity:1.0;" x1="610.456" x2="610.456" y1="600.785" y2="720.121"/>
  <line id="left-margin-Regular-S" style="fill:none;stroke:#00AEEF;stroke-width:0.5;opacity:1.0;" x1="1396.01" x2="1396.01" y1="600.785" y2="720.121"/>
  <line id="right-margin-Regular-S" style="fill:none;stroke:#00AEEF;stroke-width:0.5;opacity:1.0;" x1="1503.68" x2="1503.68" y1="600.785" y2="720.121"/>
  <line id="left-margin-Black-S" style="fill:none;stroke:#00AEEF;stroke-width:0.5;opacity:1.0;" x1="2875" x2="2875" y1="600.785" y2="720.121"/>
  <line id="right-margin-Black-S" style="fill:none;stroke:#00AEEF;stroke-width:0.5;opacity:1.0;" x1="2991.8" x2="2991.8" y1="600.785" y2="720.121"/>
 </g>
 <g id="Symbols">
  <g id="Black-S" transform="matrix(1 0 0 1 2875 696)">
   <path class="SFSymbolsPreviewWireframe" d="M49.707 21.9727L91.7969 21.9727C101.367 21.9727 107.031 16.3086 107.031 6.73828L107.031-34.668C107.031-44.2383 101.367-49.9023 91.7969-49.9023L49.707-49.9023C40.1367-49.9023 34.4727-44.2383 34.4727-34.668L34.4727 6.73828C34.4727 16.3086 40.1367 21.9727 49.707 21.9727ZM51.9531 7.8125C49.707 7.8125 48.6328 6.93359 48.6328 4.49219L48.6328-32.4219C48.6328-34.8633 49.707-35.7422 51.9531-35.7422L89.5508-35.7422C91.7969-35.7422 92.8711-34.8633 92.8711-32.4219L92.8711 4.49219C92.8711 6.93359 91.7969 7.8125 89.5508 7.8125ZM25 0.195312L69.8242 0.195312C79.3945 0.195312 85.0586-5.46875 85.0586-15.0391L85.0586-50.1465C85.0586-59.7168 79.3945-65.3809 69.8242-65.3809L25-65.3809C15.4297-65.3809 9.76562-59.7168 9.76562-50.1465L9.76562-15.0391C9.76562-5.46875 15.4297 0.195312 25 0.195312ZM23.9258-17.2852L23.9258-47.9004C23.9258-50.3418 25-51.2207 27.2461-51.2207L67.5781-51.2207C69.8242-51.2207 70.8984-50.3418 70.8984-47.9004L70.8984-17.2852C70.8984-14.8438 69.8242-13.9648 67.5781-13.9648L27.2461-13.9648C25-13.9648 23.9258-14.8438 23.9258-17.2852ZM60.7422-38.916L60.7422-87.3047C60.7422-94.5312 54.8828-100.586 47.4121-100.586C39.9414-100.586 34.082-94.5312 34.082-87.3047L34.082-38.916C34.082-31.6895 39.9414-25.6348 47.4121-25.6348C54.8828-25.6348 60.7422-31.6895 60.7422-38.916ZM47.4121-32.959C50.8301-32.959 53.418-35.7422 53.418-38.916L53.418-73.877L52.8809-79.3457L54.248-76.0254L57.5195-72.5586C58.4961-71.5332 59.8145-70.8984 61.3281-70.8984C63.8184-70.8984 66.3574-72.8516 66.3574-75.7324C66.3574-77.1973 65.8203-78.2227 64.8438-79.1992L52.3926-91.1133C50.7812-92.6758 49.0723-93.2617 47.4121-93.2617C45.752-93.2617 44.043-92.6758 42.4316-91.1133L29.9805-79.1992C29.0039-78.2227 28.4668-77.1973 28.4668-75.7324C28.4668-72.8516 31.0059-70.8984 33.4961-70.8984C35.0098-70.8984 36.3281-71.5332 37.3047-72.5586L40.5762-76.0254L41.9434-79.3457L41.4062-73.877L41.4062-38.916C41.4062-35.7422 43.9941-32.959 47.4121-32.959Z"/>
  </g>
  <g id="Regular-S" transform="matrix(1 0 0 1 1396.01 696)">
   <path class="SFSymbolsPreviewWireframe" d="M45.0195 17.5293L85.4492 17.5293C93.7012 17.5293 97.9004 13.4766 97.9004 5.27344L97.9004-32.3242C97.9004-40.5273 93.75-44.5801 85.4492-44.5801L45.0195-44.5801C36.7188-44.5801 32.5684-40.5273 32.5684-32.3242L32.5684 5.27344C32.5684 13.4766 36.6699 17.5293 45.0195 17.5293ZM45.1172 10.498C41.6016 10.498 39.5996 8.59375 39.5996 4.88281L39.5996-31.9336C39.5996-35.6445 41.6016-37.5488 45.1172-37.5488L85.3516-37.5488C88.8184-37.5488 90.8203-35.6445 90.8203-31.9336L90.8203 4.88281C90.8203 8.59375 88.8672 10.498 85.3516 10.498ZM22.2168-0.830078L66.0156-0.830078C74.3652-0.830078 78.4668-4.88281 78.4668-13.0859L78.4668-50.6836C78.4668-58.8867 74.3652-62.9395 66.0156-62.9395L22.2168-62.9395C13.916-62.9395 9.76562-58.8867 9.76562-50.6836L9.76562-13.0859C9.76562-4.88281 13.916-0.830078 22.2168-0.830078ZM16.7969-13.4766L16.7969-50.293C16.7969-54.0039 18.7988-55.9082 22.3145-55.9082L65.918-55.9082C69.3848-55.9082 71.4355-54.0039 71.4355-50.293L71.4355-13.4766C71.4355-9.76562 69.3848-7.86133 65.918-7.86133L22.3145-7.86133C18.7988-7.86133 16.7969-9.76562 16.7969-13.4766ZM55.2734-34.4727L55.2734-82.666C55.2734-88.7695 50.2441-93.7988 44.0918-93.7988C37.9883-93.7988 32.9102-88.7695 32.9102-82.666L32.9102-34.4727C32.9102-28.418 37.9883-23.3887 44.0918-23.3887C50.2441-23.3887 55.2734-28.418 55.2734-34.4727ZM44.0918-31.1035C45.9961-31.1035 47.6074-32.6172 47.6074-34.4727L47.6074-72.6074L47.3145-78.418L49.3652-76.2207L54.7363-70.3613C55.3711-69.6777 56.25-69.3359 57.0801-69.3359C58.9355-69.3359 60.3027-70.6055 60.3027-72.4121C60.3027-73.3398 59.9121-74.0234 59.2285-74.707L46.6309-86.7676C45.752-87.6465 45.0195-87.9395 44.0918-87.9395C43.2129-87.9395 42.4805-87.6465 41.5527-86.7676L28.9551-74.707C28.3203-74.0234 27.9297-73.3398 27.9297-72.4121C27.9297-70.6055 29.248-69.3359 31.1035-69.3359C31.9336-69.3359 32.8613-69.6777 33.4961-70.3613L38.8672-76.2207L40.918-78.418L40.625-72.6074L40.625-34.4727C40.625-32.6172 42.2363-31.1035 44.0918-31.1035Z"/>
  </g>
  <g id="Ultralight-S" transform="matrix(1 0 0 1 508.966 696)">
   <path class="SFSymbolsPreviewWireframe" d="M40.1153 13.397L81.7256 13.397C88.252 13.397 91.7247 9.9346 91.7247 3.41164L91.7247-37.3193C91.7247-43.8877 88.2554-47.3047 81.7256-47.3047L40.1153-47.3047C33.5401-47.3047 30.1162-43.8877 30.1162-37.3193L30.1162 3.41164C30.1162 9.9346 33.5821 13.397 40.1153 13.397ZM40.2129 11.1792C35.1988 11.1792 32.334 8.50293 32.334 3.29347L32.334-37.2465C32.334-42.4106 35.0171-45.1323 40.2129-45.1323L81.628-45.1323C86.6387-45.1323 89.5034-42.4106 89.5034-37.2465L89.5034 3.29347C89.5034 8.50293 86.8237 11.1792 81.628 11.1792ZM19.7647-1.42041L64.063-1.42041C70.5962-1.42041 74.062-4.97363 74.062-11.4058L74.062-52.1821C74.062-58.6143 70.5962-62.1675 64.063-62.1675L19.7647-62.1675C13.2349-62.1675 9.76562-58.7051 9.76562-52.1821L9.76562-11.4058C9.76562-4.88281 13.2349-1.42041 19.7647-1.42041ZM11.9834-11.5239L11.9834-52.064C11.9834-57.2734 14.6665-59.9497 19.8623-59.9497L63.9653-59.9497C68.9761-59.9497 71.8442-57.2734 71.8442-52.064L71.8442-11.5239C71.8442-6.31448 68.9761-3.63822 63.9653-3.63822L19.8623-3.63822C14.6665-3.63822 11.9834-6.31448 11.9834-11.5239ZM48.9615-31.0669L48.9615-83.0747C48.9615-86.9531 45.794-90.1206 41.9121-90.1206C38.0337-90.1206 34.8628-86.9531 34.8628-83.0747L34.8628-31.0669C34.8628-27.1919 38.0337-24.0244 41.9121-24.0244C45.794-24.0244 48.9615-27.1919 48.9615-31.0669ZM41.9121-29.9683C42.4995-29.9683 43.021-30.4829 43.021-31.0669L43.021-75.6045L42.9551-80.8701L47.8213-75.9482L55.5537-68.1817C55.7798-67.9522 56.1138-67.792 56.3989-67.792C56.8921-67.792 57.3965-68.2896 57.3965-68.8247C57.3965-69.1167 57.2783-69.3462 57.0488-69.5757L42.6802-83.9522C42.437-84.1499 42.2041-84.2613 41.9121-84.2613C41.6235-84.2613 41.3452-84.1499 41.144-83.9522L26.73-69.5757C26.5039-69.3462 26.3858-69.1167 26.3858-68.8247C26.3858-68.2896 26.8413-67.792 27.3799-67.792C27.6651-67.792 28.0025-67.9522 28.1831-68.1817L35.961-75.9482L40.8726-80.9155L40.8066-75.6045L40.8066-31.0669C40.8066-30.4829 41.3281-29.9683 41.9121-29.9683Z"/>
  </g>
 </g>
</svg>
