<?xml version="1.0" encoding="UTF-8"?>
<!--Generator: Apple Native CoreSVG 232.5-->
<!DOCTYPE svg
PUBLIC "-//W3C//DTD SVG 1.1//EN"
       "http://www.w3.org/Graphics/SVG/1.1/DTD/svg11.dtd">
<svg version="1.1" xmlns="http://www.w3.org/2000/svg" xmlns:xlink="http://www.w3.org/1999/xlink" width="3300" height="2200">
 <!--glyph: "uni101B50.medium", point size: 100.0, font version: "19.2d2e1", template writer version: "128"-->
 <style>.SFSymbolsPreviewWireframe {fill:none;opacity:1.0;stroke:black;stroke-width:0.5}
</style>
 <g id="Notes">
  <rect height="2200" id="artboard" style="fill:white;opacity:1" width="3300" x="0" y="0"/>
  <line style="fill:none;stroke:black;opacity:1;stroke-width:0.5;" x1="263" x2="3036" y1="292" y2="292"/>
  <text style="stroke:none;fill:black;font-family:sans-serif;font-size:13;font-weight:bold;" transform="matrix(1 0 0 1 263 322)">Weight/Scale Variations</text>
  <text style="stroke:none;fill:black;font-family:sans-serif;font-size:13;text-anchor:middle;" transform="matrix(1 0 0 1 559.711 322)">Ultralight</text>
  <text style="stroke:none;fill:black;font-family:sans-serif;font-size:13;text-anchor:middle;" transform="matrix(1 0 0 1 856.422 322)">Thin</text>
  <text style="stroke:none;fill:black;font-family:sans-serif;font-size:13;text-anchor:middle;" transform="matrix(1 0 0 1 1153.13 322)">Light</text>
  <text style="stroke:none;fill:black;font-family:sans-serif;font-size:13;text-anchor:middle;" transform="matrix(1 0 0 1 1449.84 322)">Regular</text>
  <text style="stroke:none;fill:black;font-family:sans-serif;font-size:13;text-anchor:middle;" transform="matrix(1 0 0 1 1746.56 322)">Medium</text>
  <text style="stroke:none;fill:black;font-family:sans-serif;font-size:13;text-anchor:middle;" transform="matrix(1 0 0 1 2043.27 322)">Semibold</text>
  <text style="stroke:none;fill:black;font-family:sans-serif;font-size:13;text-anchor:middle;" transform="matrix(1 0 0 1 2339.98 322)">Bold</text>
  <text style="stroke:none;fill:black;font-family:sans-serif;font-size:13;text-anchor:middle;" transform="matrix(1 0 0 1 2636.69 322)">Heavy</text>
  <text style="stroke:none;fill:black;font-family:sans-serif;font-size:13;text-anchor:middle;" transform="matrix(1 0 0 1 2933.4 322)">Black</text>
  <line style="fill:none;stroke:black;opacity:1;stroke-width:0.5;" x1="263" x2="3036" y1="1903" y2="1903"/>
  <g transform="matrix(0.2 0 0 0.2 263 1933)">
   <path d="m46.2402 4.15039c21.5332 0 39.4531-17.8711 39.4531-39.4043s-17.9688-39.4043-39.502-39.4043c-21.4844 0-39.3555 17.8711-39.3555 39.4043s17.9199 39.4043 39.4043 39.4043Zm0-7.42188c-17.7246 0-31.8848-14.209-31.8848-31.9824s14.1113-31.9824 31.8359-31.9824c17.7734 0 32.0312 14.209 32.0312 31.9824s-14.209 31.9824-31.9824 31.9824Zm-17.9688-31.9824c0 2.14844 1.51367 3.61328 3.75977 3.61328h10.498v10.5957c0 2.19727 1.46484 3.71094 3.61328 3.71094 2.24609 0 3.71094-1.51367 3.71094-3.71094v-10.5957h10.5957c2.19727 0 3.71094-1.46484 3.71094-3.61328 0-2.19727-1.51367-3.71094-3.71094-3.71094h-10.5957v-10.5469c0-2.24609-1.46484-3.75977-3.71094-3.75977-2.14844 0-3.61328 1.51367-3.61328 3.75977v10.5469h-10.498c-2.24609 0-3.75977 1.51367-3.75977 3.71094Z"/>
  </g>
  <g transform="matrix(0.2 0 0 0.2 281.506 1933)">
   <path d="m58.5449 14.5508c27.2461 0 49.8047-22.6074 49.8047-49.8047 0-27.2461-22.6074-49.8047-49.8535-49.8047-27.1973 0-49.7559 22.5586-49.7559 49.8047 0 27.1973 22.6074 49.8047 49.8047 49.8047Zm0-8.30078c-23.0469 0-41.4551-18.457-41.4551-41.5039s18.3594-41.5039 41.4062-41.5039 41.5527 18.457 41.5527 41.5039-18.457 41.5039-41.5039 41.5039Zm-22.6562-41.5039c0 2.39258 1.66016 4.00391 4.15039 4.00391h14.3555v14.4043c0 2.44141 1.66016 4.15039 4.05273 4.15039 2.44141 0 4.15039-1.66016 4.15039-4.15039v-14.4043h14.4043c2.44141 0 4.15039-1.61133 4.15039-4.00391 0-2.44141-1.70898-4.15039-4.15039-4.15039h-14.4043v-14.3555c0-2.49023-1.70898-4.19922-4.15039-4.19922-2.39258 0-4.05273 1.70898-4.05273 4.19922v14.3555h-14.3555c-2.49023 0-4.15039 1.70898-4.15039 4.15039Z"/>
  </g>
  <g transform="matrix(0.2 0 0 0.2 304.924 1933)">
   <path d="m74.8535 28.3203c34.8145 0 63.623-28.8086 63.623-63.5742 0-34.8145-28.8574-63.623-63.6719-63.623-34.7656 0-63.5254 28.8086-63.5254 63.623 0 34.7656 28.8086 63.5742 63.5742 63.5742Zm0-9.08203c-30.1758 0-54.4434-24.3164-54.4434-54.4922 0-30.2246 24.2188-54.4922 54.3945-54.4922 30.2246 0 54.541 24.2676 54.541 54.4922 0 30.1758-24.2676 54.4922-54.4922 54.4922Zm-28.8574-54.4922c0 2.58789 1.85547 4.39453 4.58984 4.39453h19.7266v19.7754c0 2.68555 1.85547 4.58984 4.44336 4.58984 2.68555 0 4.54102-1.85547 4.54102-4.58984v-19.7754h19.7754c2.68555 0 4.58984-1.80664 4.58984-4.39453 0-2.73438-1.85547-4.58984-4.58984-4.58984h-19.7754v-19.7266c0-2.73438-1.85547-4.63867-4.54102-4.63867-2.58789 0-4.44336 1.9043-4.44336 4.63867v19.7266h-19.7266c-2.73438 0-4.58984 1.85547-4.58984 4.58984Z"/>
  </g>
  <text style="stroke:none;fill:black;font-family:sans-serif;font-size:13;font-weight:bold;" transform="matrix(1 0 0 1 263 1953)">Design Variations</text>
  <text style="stroke:none;fill:black;font-family:sans-serif;font-size:13;" transform="matrix(1 0 0 1 263 1971)">Symbols are supported in up to nine weights and three scales.</text>
  <text style="stroke:none;fill:black;font-family:sans-serif;font-size:13;" transform="matrix(1 0 0 1 263 1989)">For optimal layout with text and other symbols, vertically align</text>
  <text style="stroke:none;fill:black;font-family:sans-serif;font-size:13;" transform="matrix(1 0 0 1 263 2007)">symbols with the adjacent text.</text>
  <line style="fill:none;stroke:#00AEEF;stroke-width:0.5;opacity:1.0;" x1="776" x2="776" y1="1919" y2="1933"/>
  <g transform="matrix(0.2 0 0 0.2 776 1933)">
   <path d="m16.5527 0.78125c2.58789 0 3.85742-0.976562 4.78516-3.71094l6.29883-17.2363h28.8086l6.29883 17.2363c0.927734 2.73438 2.19727 3.71094 4.73633 3.71094 2.58789 0 4.24805-1.5625 4.24805-4.00391 0-0.830078-0.146484-1.61133-0.537109-2.63672l-22.9004-60.9863c-1.12305-2.97852-3.125-4.49219-6.25-4.49219-3.02734 0-5.07812 1.46484-6.15234 4.44336l-22.9004 61.084c-0.390625 1.02539-0.537109 1.80664-0.537109 2.63672 0 2.44141 1.5625 3.95508 4.10156 3.95508Zm13.4766-28.3691 11.8652-32.8613h0.244141l11.8652 32.8613Z"/>
  </g>
  <line style="fill:none;stroke:#00AEEF;stroke-width:0.5;opacity:1.0;" x1="792.836" x2="792.836" y1="1919" y2="1933"/>
  <text style="stroke:none;fill:black;font-family:sans-serif;font-size:13;font-weight:bold;" transform="matrix(1 0 0 1 776 1953)">Margins</text>
  <text style="stroke:none;fill:black;font-family:sans-serif;font-size:13;" transform="matrix(1 0 0 1 776 1971)">Leading and trailing margins on the left and right side of each symbol</text>
  <text style="stroke:none;fill:black;font-family:sans-serif;font-size:13;" transform="matrix(1 0 0 1 776 1989)">can be adjusted by modifying the x-location of the margin guidelines.</text>
  <text style="stroke:none;fill:black;font-family:sans-serif;font-size:13;" transform="matrix(1 0 0 1 776 2007)">Modifications are automatically applied proportionally to all</text>
  <text style="stroke:none;fill:black;font-family:sans-serif;font-size:13;" transform="matrix(1 0 0 1 776 2025)">scales and weights.</text>
  <g transform="matrix(0.2 0 0 0.2 1289 1933)">
   <path d="m14.209 9.32617 8.49609 8.54492c4.29688 4.3457 9.22852 4.05273 13.8672-1.07422l53.4668-58.9355-4.83398-4.88281-53.0762 58.3984c-1.75781 2.00195-3.41797 2.49023-5.76172 0.146484l-5.85938-5.81055c-2.34375-2.29492-1.80664-4.00391 0.195312-5.81055l57.373-54.0039-4.88281-4.83398-57.959 54.4434c-4.93164 4.58984-5.32227 9.47266-1.02539 13.8184Zm32.0801-90.9668c-2.09961 2.05078-2.24609 4.93164-1.07422 6.88477 1.17188 1.80664 3.4668 2.97852 6.68945 2.14844 7.32422-1.70898 14.9414-2.00195 22.0703 2.68555l-2.92969 7.27539c-1.70898 4.15039-0.830078 7.08008 1.85547 9.81445l11.4746 11.5723c2.44141 2.44141 4.49219 2.53906 7.32422 2.05078l5.32227-0.976562 3.32031 3.36914-0.195312 2.7832c-0.195312 2.49023 0.439453 4.39453 2.88086 6.78711l3.80859 3.71094c2.39258 2.39258 5.46875 2.53906 7.8125 0.195312l14.5508-14.5996c2.34375-2.34375 2.24609-5.32227-0.146484-7.71484l-3.85742-3.80859c-2.39258-2.39258-4.24805-3.17383-6.64062-2.97852l-2.88086 0.244141-3.22266-3.17383 1.2207-5.61523c0.634766-2.83203-0.146484-5.0293-3.07617-7.95898l-10.9863-10.9375c-16.6992-16.6016-38.8672-16.2109-53.3203-1.75781Zm7.4707 1.85547c12.1582-8.88672 28.6133-7.37305 39.7461 3.75977l12.1582 12.0605c1.17188 1.17188 1.36719 2.09961 1.02539 3.80859l-1.61133 7.42188 7.51953 7.42188 4.93164-0.292969c1.26953-0.0488281 1.66016 0.0488281 2.63672 1.02539l2.88086 2.88086-12.207 12.207-2.88086-2.88086c-0.976562-0.976562-1.12305-1.36719-1.07422-2.68555l0.341797-4.88281-7.4707-7.42188-7.61719 1.26953c-1.61133 0.341797-2.34375 0.195312-3.56445-0.976562l-10.0098-10.0098c-1.26953-1.17188-1.41602-2.00195-0.634766-3.85742l4.39453-10.4492c-7.8125-7.27539-17.9688-10.4004-28.125-7.42188-0.78125 0.195312-1.07422-0.439453-0.439453-0.976562Z"/>
  </g>
  <text style="stroke:none;fill:black;font-family:sans-serif;font-size:13;font-weight:bold;" transform="matrix(1 0 0 1 1289 1953)">Exporting</text>
  <text style="stroke:none;fill:black;font-family:sans-serif;font-size:13;" transform="matrix(1 0 0 1 1289 1971)">Symbols should be outlined when exporting to ensure the</text>
  <text style="stroke:none;fill:black;font-family:sans-serif;font-size:13;" transform="matrix(1 0 0 1 1289 1989)">design is preserved when submitting to Xcode.</text>
  <text id="template-version" style="stroke:none;fill:black;font-family:sans-serif;font-size:13;text-anchor:end;" transform="matrix(1 0 0 1 3036 1933)">Template v.5.0</text>
  <text style="stroke:none;fill:black;font-family:sans-serif;font-size:13;text-anchor:end;" transform="matrix(1 0 0 1 3036 1951)">Requires Xcode 15 or greater</text>
  <text id="descriptive-name" style="stroke:none;fill:black;font-family:sans-serif;font-size:13;text-anchor:end;" transform="matrix(1 0 0 1 3036 1969)">Generated from square.stack.3d.up.slash</text>
  <text style="stroke:none;fill:black;font-family:sans-serif;font-size:13;text-anchor:end;" transform="matrix(1 0 0 1 3036 1987)">Typeset at 100.0 points</text>
  <text style="stroke:none;fill:black;font-family:sans-serif;font-size:13;" transform="matrix(1 0 0 1 263 726)">Small</text>
  <text style="stroke:none;fill:black;font-family:sans-serif;font-size:13;" transform="matrix(1 0 0 1 263 1156)">Medium</text>
  <text style="stroke:none;fill:black;font-family:sans-serif;font-size:13;" transform="matrix(1 0 0 1 263 1586)">Large</text>
 </g>
 <g id="Guides">
  <g id="H-reference" style="fill:#27AAE1;stroke:none;" transform="matrix(1 0 0 1 339 696)">
   <path d="M0.993654 0L3.63775 0L29.3281-67.1323L30.0303-67.1323L30.0303-70.459L28.1226-70.459ZM11.6885-24.4799L46.9815-24.4799L46.2315-26.7285L12.4385-26.7285ZM55.1196 0L57.7637 0L30.6382-70.459L29.4326-70.459L29.4326-67.1323Z"/>
  </g>
  <line id="Baseline-S" style="fill:none;stroke:#27AAE1;opacity:1;stroke-width:0.5;" x1="263" x2="3036" y1="696" y2="696"/>
  <line id="Capline-S" style="fill:none;stroke:#27AAE1;opacity:1;stroke-width:0.5;" x1="263" x2="3036" y1="625.541" y2="625.541"/>
  <g id="H-reference" style="fill:#27AAE1;stroke:none;" transform="matrix(1 0 0 1 339 1126)">
   <path d="M0.993654 0L3.63775 0L29.3281-67.1323L30.0303-67.1323L30.0303-70.459L28.1226-70.459ZM11.6885-24.4799L46.9815-24.4799L46.2315-26.7285L12.4385-26.7285ZM55.1196 0L57.7637 0L30.6382-70.459L29.4326-70.459L29.4326-67.1323Z"/>
  </g>
  <line id="Baseline-M" style="fill:none;stroke:#27AAE1;opacity:1;stroke-width:0.5;" x1="263" x2="3036" y1="1126" y2="1126"/>
  <line id="Capline-M" style="fill:none;stroke:#27AAE1;opacity:1;stroke-width:0.5;" x1="263" x2="3036" y1="1055.54" y2="1055.54"/>
  <g id="H-reference" style="fill:#27AAE1;stroke:none;" transform="matrix(1 0 0 1 339 1556)">
   <path d="M0.993654 0L3.63775 0L29.3281-67.1323L30.0303-67.1323L30.0303-70.459L28.1226-70.459ZM11.6885-24.4799L46.9815-24.4799L46.2315-26.7285L12.4385-26.7285ZM55.1196 0L57.7637 0L30.6382-70.459L29.4326-70.459L29.4326-67.1323Z"/>
  </g>
  <line id="Baseline-L" style="fill:none;stroke:#27AAE1;opacity:1;stroke-width:0.5;" x1="263" x2="3036" y1="1556" y2="1556"/>
  <line id="Capline-L" style="fill:none;stroke:#27AAE1;opacity:1;stroke-width:0.5;" x1="263" x2="3036" y1="1485.54" y2="1485.54"/>
  <line id="left-margin-Ultralight-S" style="fill:none;stroke:#FF3B30;stroke-width:0.5;opacity:1.0;" x1="513.468" x2="513.468" y1="600.785" y2="720.121"/>
  <line id="right-margin-Ultralight-S" style="fill:none;stroke:#FF3B30;stroke-width:0.5;opacity:1.0;" x1="605.954" x2="605.954" y1="600.785" y2="720.121"/>
  <line id="left-margin-Regular-S" style="fill:none;stroke:#00AEEF;stroke-width:0.5;opacity:1.0;" x1="1400.65" x2="1400.65" y1="600.785" y2="720.121"/>
  <line id="right-margin-Regular-S" style="fill:none;stroke:#00AEEF;stroke-width:0.5;opacity:1.0;" x1="1499.04" x2="1499.04" y1="600.785" y2="720.121"/>
  <line id="left-margin-Black-S" style="fill:none;stroke:#FF3B30;stroke-width:0.5;opacity:1.0;" x1="2882.72" x2="2882.72" y1="600.785" y2="720.121"/>
  <line id="right-margin-Black-S" style="fill:none;stroke:#00AEEF;stroke-width:0.5;opacity:1.0;" x1="2984.08" x2="2984.08" y1="600.785" y2="720.121"/>
 </g>
 <g id="Symbols">
  <g id="Black-S" transform="matrix(1 0 0 1 2882.72 696)">
   <path class="SFSymbolsPreviewWireframe" d="M82.7148 12.1582C86.377 15.7715 92.4316 15.8203 95.9961 12.0605C99.4629 8.49609 99.6582 2.63672 95.9473-1.07422L15.9668-81.0059C12.3047-84.668 6.34766-84.668 2.68555-81.0059C-0.927734-77.3926-0.927734-71.3867 2.68555-67.7734ZM15.0879-7.17773L43.8965 9.42383C46.6797 11.0352 48.6328 11.9629 50.6836 11.9629C52.7344 11.9629 54.6875 11.0352 57.4707 9.42383L86.2793-7.17773C90.2344-9.47266 92.6758-12.0605 92.6758-16.1133C92.6758-20.166 90.2344-22.7539 86.2793-25.0488L57.4707-41.6504C54.6875-43.2617 52.7344-44.1895 50.6836-44.1895C48.6328-44.1895 46.6797-43.2617 43.8965-41.6504L15.0879-25.0488C11.1328-22.7539 8.69141-20.166 8.69141-16.1133C8.69141-12.0605 11.1328-9.47266 15.0879-7.17773ZM5.51758-35.1562C5.51758-29.5898 8.98438-26.0742 13.5254-23.4375L48.9258-3.02734C49.5605-2.68555 50.1465-2.49023 50.6836-2.49023C51.2207-2.49023 51.8066-2.68555 52.4414-3.02734L87.8418-23.4375C92.4316-26.0742 95.8496-29.5898 95.8496-35.1562C95.8496-40.7227 92.4316-44.2383 87.8418-46.875L59.082-63.4766C56.1035-65.1855 53.5645-66.4062 50.6836-66.4062C47.8027-66.4062 45.2637-65.1855 42.2852-63.4766L13.5254-46.875C8.93555-44.2383 5.51758-40.7227 5.51758-35.1562ZM15.0879-26.2207L43.8965-9.61914C46.6797-8.00781 48.6328-7.08008 50.6836-7.08008C52.7344-7.08008 54.6875-8.00781 57.4707-9.61914L86.2793-26.2207C90.2344-28.5156 92.6758-31.1035 92.6758-35.1562C92.6758-39.209 90.2344-41.7969 86.2793-44.0918L57.4707-60.6934C54.6875-62.3047 52.7344-63.2324 50.6836-63.2324C48.6328-63.2324 46.6797-62.3047 43.8965-60.6934L15.0879-44.0918C11.1328-41.7969 8.69141-39.209 8.69141-35.1562C8.69141-31.1035 11.1328-28.5156 15.0879-26.2207ZM5.51758-54.1992C5.51758-48.6328 8.98438-45.1172 13.5254-42.4805L48.9258-22.0703C49.5605-21.7285 50.1465-21.5332 50.6836-21.5332C51.2207-21.5332 51.8066-21.7285 52.4414-22.0703L87.8418-42.4805C92.4316-45.1172 95.8496-48.6328 95.8496-54.1992C95.8496-59.7656 92.4316-63.2812 87.8418-65.918L59.082-82.5195C56.1035-84.2285 53.5645-85.4492 50.6836-85.4492C47.8027-85.4492 45.2637-84.2285 42.2852-82.5195L13.5254-65.918C8.93555-63.2812 5.51758-59.7656 5.51758-54.1992ZM15.0879-45.752L43.8965-29.1504C46.6797-27.5391 48.6328-26.6113 50.6836-26.6113C52.7344-26.6113 54.6875-27.5391 57.4707-29.1504L86.2793-45.752C90.2344-48.0469 92.6758-50.6348 92.6758-54.6875C92.6758-58.7402 90.2344-61.3281 86.2793-63.623L57.4707-80.2246C54.6875-81.8359 52.7344-82.7637 50.6836-82.7637C48.6328-82.7637 46.6797-81.8359 43.8965-80.2246L15.0879-63.623C11.1328-61.3281 8.69141-58.7402 8.69141-54.6875C8.69141-50.6348 11.1328-48.0469 15.0879-45.752ZM26.7578-54.3457C26.4648-54.4922 26.4648-54.8828 26.7578-55.0293L48.9258-67.7734C49.5605-68.1152 50.1465-68.3105 50.6836-68.3105C51.2207-68.3105 51.8066-68.1152 52.4414-67.7734L74.6094-55.0293C74.9023-54.8828 74.9023-54.4922 74.6094-54.3457L52.4414-41.6016C51.8066-41.2598 51.2207-41.0645 50.6836-41.0645C50.1465-41.0645 49.5605-41.2598 48.9258-41.6016ZM86.8652 8.00781C88.1836 9.32617 90.4785 9.375 91.7969 8.00781C93.1152 6.64062 93.1641 4.44336 91.7969 3.07617L11.8164-76.8555C10.4492-78.2227 8.20312-78.2227 6.83594-76.8555C5.51758-75.5371 5.51758-73.2422 6.83594-71.9238Z"/>
  </g>
  <g id="Regular-S" transform="matrix(1 0 0 1 1400.65 696)">
   <path class="SFSymbolsPreviewWireframe" d="M79.7852 9.66797C82.959 12.793 88.2324 12.8418 91.3574 9.57031C94.4336 6.39648 94.4336 1.31836 91.3086-1.85547L14.9902-78.125C11.8164-81.2988 6.5918-81.2988 3.41797-78.125C0.292969-75 0.292969-69.7266 3.41797-66.6016ZM14.2578-10.6934L43.7988 6.49414C45.8496 7.66602 47.4609 8.20312 49.1699 8.20312C50.9277 8.20312 52.5391 7.66602 54.5898 6.49414L84.1309-10.6934C87.5977-12.7441 88.8672-14.2578 88.8672-16.5039C88.8672-18.7988 87.5977-20.3125 84.1309-22.3633L54.5898-39.5508C52.5391-40.7227 50.9277-41.2598 49.1699-41.2598C47.4609-41.2598 45.8496-40.7227 43.7988-39.5508L14.2578-22.3633C10.791-20.3125 9.47266-18.7988 9.47266-16.5039C9.47266-14.2578 10.791-12.7441 14.2578-10.6934ZM1.80664-33.8867C1.80664-29.1992 3.95508-25.1465 10.3516-21.4355L47.1191-0.0488281C47.7539 0.341797 48.584 0.585938 49.1699 0.585938C49.8047 0.585938 50.6348 0.341797 51.2695-0.0488281L88.0371-21.4355C94.3359-25.0977 96.582-29.1992 96.582-33.8867C96.582-38.5742 94.3848-42.627 88.0371-46.3379L58.4473-63.5742C54.9316-65.625 52.002-66.3574 49.1699-66.3574C46.3867-66.3574 43.457-65.625 39.9414-63.5742L10.3516-46.3379C4.00391-42.627 1.80664-38.5742 1.80664-33.8867ZM14.2578-28.0762L43.7988-10.8398C45.8496-9.66797 47.4609-9.13086 49.1699-9.13086C50.9277-9.13086 52.5391-9.66797 54.5898-10.8398L84.1309-28.0762C87.5977-30.0781 88.8672-31.5918 88.8672-33.8867C88.8672-36.1816 87.5977-37.6953 84.1309-39.7461L54.5898-56.9336C52.5391-58.1055 50.9277-58.6426 49.1699-58.6426C47.4609-58.6426 45.8496-58.1055 43.7988-56.9336L14.2578-39.7461C10.791-37.6953 9.47266-36.1816 9.47266-33.8867C9.47266-31.5918 10.791-30.0781 14.2578-28.0762ZM1.80664-51.2695C1.80664-46.582 3.95508-42.5293 10.3516-38.8184L47.1191-17.4316C47.7539-17.041 48.584-16.7969 49.1699-16.7969C49.8047-16.7969 50.6348-17.041 51.2695-17.4316L88.0371-38.8184C94.3359-42.4805 96.582-46.582 96.582-51.2695C96.582-55.957 94.3848-60.0098 88.0371-63.7207L58.4473-80.957C54.9316-83.0078 52.002-83.6914 49.1699-83.6914C46.3867-83.6914 43.457-83.0078 39.9414-80.957L10.3516-63.7207C4.00391-60.0098 1.80664-55.957 1.80664-51.2695ZM14.2578-46.1914L43.7988-29.0039C45.8496-27.832 47.4609-27.2949 49.1699-27.2949C50.9277-27.2949 52.5391-27.832 54.5898-29.0039L84.1309-46.1914C87.5977-48.2422 88.8672-49.7559 88.8672-52.0508C88.8672-54.2969 87.5977-55.8594 84.1309-57.8613L54.5898-75.0488C52.5391-76.2695 50.9277-76.7578 49.1699-76.7578C47.4609-76.7578 45.8496-76.2695 43.7988-75.0488L14.2578-57.8613C10.791-55.8594 9.47266-54.2969 9.47266-52.0508C9.47266-49.7559 10.791-48.2422 14.2578-46.1914ZM18.8477-51.8066C18.6035-51.9043 18.6035-52.1484 18.8477-52.2949L47.3633-68.5547C48.0469-68.9453 48.6328-69.1406 49.1699-69.1406C49.7559-69.1406 50.3418-68.9453 51.0254-68.5547L79.541-52.2949C79.7852-52.1484 79.7852-51.9043 79.541-51.8066L51.0254-35.498C50.3418-35.1562 49.8047-34.9609 49.1699-34.9609C48.584-34.9609 48.0469-35.1562 47.3633-35.498ZM83.1543 6.29883C84.4238 7.56836 86.6211 7.61719 87.8906 6.29883C89.1602 4.98047 89.209 2.83203 87.8906 1.5625L11.5723-74.707C10.3027-76.0254 8.10547-76.0254 6.78711-74.707C5.51758-73.4375 5.51758-71.2402 6.78711-69.9707Z"/>
  </g>
  <g id="Ultralight-S" transform="matrix(1 0 0 1 513.468 696)">
   <path class="SFSymbolsPreviewWireframe" d="M78.6499 6.48928C80.2798 8.16117 82.8741 8.16459 84.5005 6.52786C86.169 4.85255 86.1236 2.27197 84.4971 0.68748L9.85893-73.9019C8.31985-75.4864 5.6836-75.5772 4.05371-73.9019C2.42723-72.3208 2.42723-69.6812 4.05371-68.1001ZM12.169-14.0537L43.7534 4.17824C44.7144 4.75979 45.4175 5.11526 46.2183 5.11526C47.0679 5.11526 47.771 4.75979 48.732 4.17824L80.3164-14.0537C81.7852-14.8784 82.6006-15.6655 82.6006-16.9126C82.6006-18.2085 81.7852-18.9502 80.3164-19.8203L48.732-38.0068C47.771-38.5884 47.0679-38.9439 46.2183-38.9439C45.4175-38.9439 44.7144-38.5884 43.7534-38.0068L12.169-19.8203C10.7002-18.9502 9.88134-18.2085 9.88134-16.9126C9.88134-15.6655 10.7002-14.8784 12.169-14.0537ZM-4.18745-35.7031C-4.18745-29.063-0.540492-23.875 5.12944-20.6182L45.0757 2.35789C45.5288 2.61229 45.8594 2.76561 46.2183 2.76561C46.626 2.76561 46.9566 2.61229 47.4097 2.35789L87.356-20.6182C92.9736-23.8262 96.6729-29.063 96.6729-35.7031C96.6729-42.3432 92.9771-47.5312 87.356-50.7881L55.8135-68.978C53.0698-70.5293 50.0947-71.8066 46.2183-71.8066C42.3907-71.8066 39.4156-70.5293 36.6719-68.978L5.12944-50.7881C-0.491664-47.5312-4.18745-42.3432-4.18745-35.7031ZM12.169-32.7988L43.7534-14.6089C44.7144-14.0273 45.4175-13.6718 46.2183-13.6718C47.0679-13.6718 47.771-14.0273 48.732-14.6089L80.3164-32.7988C81.7852-33.6655 82.6006-34.4072 82.6006-35.7031C82.6006-36.9536 81.7852-37.7407 80.3164-38.5654L48.732-56.7974C47.771-57.3789 47.0679-57.7344 46.2183-57.7344C45.4175-57.7344 44.7144-57.3789 43.7534-56.7974L12.169-38.5654C10.7002-37.7407 9.88134-36.9536 9.88134-35.7031C9.88134-34.4072 10.7002-33.6655 12.169-32.7988ZM-4.18745-54.4936C-4.18745-47.8535-0.540492-42.6655 5.12944-39.3633L45.0757-16.4326C45.5288-16.1782 45.8594-16.0249 46.2183-16.0249C46.626-16.0249 46.9566-16.1782 47.4097-16.4326L87.356-39.3633C92.9736-42.6167 96.6729-47.8535 96.6729-54.4936C96.6729-61.0883 92.9771-66.3217 87.356-69.5786L55.8135-87.7231C53.0698-89.3198 50.0947-90.5483 46.2183-90.5483C42.3907-90.5483 39.4156-89.3198 36.6719-87.7231L5.12944-69.5786C-0.491664-66.3217-4.18745-61.0883-4.18745-54.4936ZM12.169-52.2309L43.7534-33.999C44.7144-33.4628 45.4175-33.1074 46.2183-33.1074C47.0679-33.1074 47.771-33.4628 48.732-33.999L80.3164-52.2309C81.7852-53.0556 82.6006-53.8427 82.6006-55.0932C82.6006-56.3857 81.7852-57.1763 80.3164-57.9976L48.732-76.2295C47.771-76.769 47.0679-77.1211 46.2183-77.1211C45.4175-77.1211 44.7144-76.769 43.7534-76.2295L12.169-57.9976C10.7002-57.1763 9.88134-56.3857 9.88134-55.0932C9.88134-53.8427 10.7002-53.0556 12.169-52.2309ZM13.2623-54.1225C12.2461-54.6743 12.2461-55.5542 13.2623-56.1093L45.0928-74.4126C45.5493-74.6669 45.8628-74.8168 46.2183-74.8168C46.6226-74.8168 46.9361-74.6669 47.3926-74.4126L79.2231-56.1093C80.2393-55.5542 80.2393-54.6743 79.2231-54.1225L47.3926-35.8159C46.9361-35.5649 46.626-35.415 46.2183-35.415C45.8594-35.415 45.5493-35.5649 45.0928-35.8159ZM80.793 4.39162C81.1997 4.84377 81.9439 4.84719 82.3506 4.39162C82.8482 3.89063 82.8062 3.24072 82.3506 2.83397L7.75784-71.8008C7.3511-72.1656 6.65236-72.2564 6.19678-71.8008C5.74463-71.3486 5.74463-70.6499 6.19678-70.1978Z"/>
  </g>
 </g>
</svg>
