<?xml version="1.0" encoding="UTF-8"?>
<!--Generator: Apple Native CoreSVG 232.5-->
<!DOCTYPE svg
PUBLIC "-//W3C//DTD SVG 1.1//EN"
       "http://www.w3.org/Graphics/SVG/1.1/DTD/svg11.dtd">
<svg version="1.1" xmlns="http://www.w3.org/2000/svg" xmlns:xlink="http://www.w3.org/1999/xlink" width="3300" height="2200">
 <!--glyph: "uni101B1A.medium", point size: 100.0, font version: "19.2d2e1", template writer version: "128"-->
 <style>.SFSymbolsPreviewWireframe {fill:none;opacity:1.0;stroke:black;stroke-width:0.5}
</style>
 <g id="Notes">
  <rect height="2200" id="artboard" style="fill:white;opacity:1" width="3300" x="0" y="0"/>
  <line style="fill:none;stroke:black;opacity:1;stroke-width:0.5;" x1="263" x2="3036" y1="292" y2="292"/>
  <text style="stroke:none;fill:black;font-family:sans-serif;font-size:13;font-weight:bold;" transform="matrix(1 0 0 1 263 322)">Weight/Scale Variations</text>
  <text style="stroke:none;fill:black;font-family:sans-serif;font-size:13;text-anchor:middle;" transform="matrix(1 0 0 1 559.711 322)">Ultralight</text>
  <text style="stroke:none;fill:black;font-family:sans-serif;font-size:13;text-anchor:middle;" transform="matrix(1 0 0 1 856.422 322)">Thin</text>
  <text style="stroke:none;fill:black;font-family:sans-serif;font-size:13;text-anchor:middle;" transform="matrix(1 0 0 1 1153.13 322)">Light</text>
  <text style="stroke:none;fill:black;font-family:sans-serif;font-size:13;text-anchor:middle;" transform="matrix(1 0 0 1 1449.84 322)">Regular</text>
  <text style="stroke:none;fill:black;font-family:sans-serif;font-size:13;text-anchor:middle;" transform="matrix(1 0 0 1 1746.56 322)">Medium</text>
  <text style="stroke:none;fill:black;font-family:sans-serif;font-size:13;text-anchor:middle;" transform="matrix(1 0 0 1 2043.27 322)">Semibold</text>
  <text style="stroke:none;fill:black;font-family:sans-serif;font-size:13;text-anchor:middle;" transform="matrix(1 0 0 1 2339.98 322)">Bold</text>
  <text style="stroke:none;fill:black;font-family:sans-serif;font-size:13;text-anchor:middle;" transform="matrix(1 0 0 1 2636.69 322)">Heavy</text>
  <text style="stroke:none;fill:black;font-family:sans-serif;font-size:13;text-anchor:middle;" transform="matrix(1 0 0 1 2933.4 322)">Black</text>
  <line style="fill:none;stroke:black;opacity:1;stroke-width:0.5;" x1="263" x2="3036" y1="1903" y2="1903"/>
  <g transform="matrix(0.2 0 0 0.2 263 1933)">
   <path d="m46.2402 4.15039c21.5332 0 39.4531-17.8711 39.4531-39.4043s-17.9688-39.4043-39.502-39.4043c-21.4844 0-39.3555 17.8711-39.3555 39.4043s17.9199 39.4043 39.4043 39.4043Zm0-7.42188c-17.7246 0-31.8848-14.209-31.8848-31.9824s14.1113-31.9824 31.8359-31.9824c17.7734 0 32.0312 14.209 32.0312 31.9824s-14.209 31.9824-31.9824 31.9824Zm-17.9688-31.9824c0 2.14844 1.51367 3.61328 3.75977 3.61328h10.498v10.5957c0 2.19727 1.46484 3.71094 3.61328 3.71094 2.24609 0 3.71094-1.51367 3.71094-3.71094v-10.5957h10.5957c2.19727 0 3.71094-1.46484 3.71094-3.61328 0-2.19727-1.51367-3.71094-3.71094-3.71094h-10.5957v-10.5469c0-2.24609-1.46484-3.75977-3.71094-3.75977-2.14844 0-3.61328 1.51367-3.61328 3.75977v10.5469h-10.498c-2.24609 0-3.75977 1.51367-3.75977 3.71094Z"/>
  </g>
  <g transform="matrix(0.2 0 0 0.2 281.506 1933)">
   <path d="m58.5449 14.5508c27.2461 0 49.8047-22.6074 49.8047-49.8047 0-27.2461-22.6074-49.8047-49.8535-49.8047-27.1973 0-49.7559 22.5586-49.7559 49.8047 0 27.1973 22.6074 49.8047 49.8047 49.8047Zm0-8.30078c-23.0469 0-41.4551-18.457-41.4551-41.5039s18.3594-41.5039 41.4062-41.5039 41.5527 18.457 41.5527 41.5039-18.457 41.5039-41.5039 41.5039Zm-22.6562-41.5039c0 2.39258 1.66016 4.00391 4.15039 4.00391h14.3555v14.4043c0 2.44141 1.66016 4.15039 4.05273 4.15039 2.44141 0 4.15039-1.66016 4.15039-4.15039v-14.4043h14.4043c2.44141 0 4.15039-1.61133 4.15039-4.00391 0-2.44141-1.70898-4.15039-4.15039-4.15039h-14.4043v-14.3555c0-2.49023-1.70898-4.19922-4.15039-4.19922-2.39258 0-4.05273 1.70898-4.05273 4.19922v14.3555h-14.3555c-2.49023 0-4.15039 1.70898-4.15039 4.15039Z"/>
  </g>
  <g transform="matrix(0.2 0 0 0.2 304.924 1933)">
   <path d="m74.8535 28.3203c34.8145 0 63.623-28.8086 63.623-63.5742 0-34.8145-28.8574-63.623-63.6719-63.623-34.7656 0-63.5254 28.8086-63.5254 63.623 0 34.7656 28.8086 63.5742 63.5742 63.5742Zm0-9.08203c-30.1758 0-54.4434-24.3164-54.4434-54.4922 0-30.2246 24.2188-54.4922 54.3945-54.4922 30.2246 0 54.541 24.2676 54.541 54.4922 0 30.1758-24.2676 54.4922-54.4922 54.4922Zm-28.8574-54.4922c0 2.58789 1.85547 4.39453 4.58984 4.39453h19.7266v19.7754c0 2.68555 1.85547 4.58984 4.44336 4.58984 2.68555 0 4.54102-1.85547 4.54102-4.58984v-19.7754h19.7754c2.68555 0 4.58984-1.80664 4.58984-4.39453 0-2.73438-1.85547-4.58984-4.58984-4.58984h-19.7754v-19.7266c0-2.73438-1.85547-4.63867-4.54102-4.63867-2.58789 0-4.44336 1.9043-4.44336 4.63867v19.7266h-19.7266c-2.73438 0-4.58984 1.85547-4.58984 4.58984Z"/>
  </g>
  <text style="stroke:none;fill:black;font-family:sans-serif;font-size:13;font-weight:bold;" transform="matrix(1 0 0 1 263 1953)">Design Variations</text>
  <text style="stroke:none;fill:black;font-family:sans-serif;font-size:13;" transform="matrix(1 0 0 1 263 1971)">Symbols are supported in up to nine weights and three scales.</text>
  <text style="stroke:none;fill:black;font-family:sans-serif;font-size:13;" transform="matrix(1 0 0 1 263 1989)">For optimal layout with text and other symbols, vertically align</text>
  <text style="stroke:none;fill:black;font-family:sans-serif;font-size:13;" transform="matrix(1 0 0 1 263 2007)">symbols with the adjacent text.</text>
  <line style="fill:none;stroke:#00AEEF;stroke-width:0.5;opacity:1.0;" x1="776" x2="776" y1="1919" y2="1933"/>
  <g transform="matrix(0.2 0 0 0.2 776 1933)">
   <path d="m16.5527 0.78125c2.58789 0 3.85742-0.976562 4.78516-3.71094l6.29883-17.2363h28.8086l6.29883 17.2363c0.927734 2.73438 2.19727 3.71094 4.73633 3.71094 2.58789 0 4.24805-1.5625 4.24805-4.00391 0-0.830078-0.146484-1.61133-0.537109-2.63672l-22.9004-60.9863c-1.12305-2.97852-3.125-4.49219-6.25-4.49219-3.02734 0-5.07812 1.46484-6.15234 4.44336l-22.9004 61.084c-0.390625 1.02539-0.537109 1.80664-0.537109 2.63672 0 2.44141 1.5625 3.95508 4.10156 3.95508Zm13.4766-28.3691 11.8652-32.8613h0.244141l11.8652 32.8613Z"/>
  </g>
  <line style="fill:none;stroke:#00AEEF;stroke-width:0.5;opacity:1.0;" x1="792.836" x2="792.836" y1="1919" y2="1933"/>
  <text style="stroke:none;fill:black;font-family:sans-serif;font-size:13;font-weight:bold;" transform="matrix(1 0 0 1 776 1953)">Margins</text>
  <text style="stroke:none;fill:black;font-family:sans-serif;font-size:13;" transform="matrix(1 0 0 1 776 1971)">Leading and trailing margins on the left and right side of each symbol</text>
  <text style="stroke:none;fill:black;font-family:sans-serif;font-size:13;" transform="matrix(1 0 0 1 776 1989)">can be adjusted by modifying the x-location of the margin guidelines.</text>
  <text style="stroke:none;fill:black;font-family:sans-serif;font-size:13;" transform="matrix(1 0 0 1 776 2007)">Modifications are automatically applied proportionally to all</text>
  <text style="stroke:none;fill:black;font-family:sans-serif;font-size:13;" transform="matrix(1 0 0 1 776 2025)">scales and weights.</text>
  <g transform="matrix(0.2 0 0 0.2 1289 1933)">
   <path d="m14.209 9.32617 8.49609 8.54492c4.29688 4.3457 9.22852 4.05273 13.8672-1.07422l53.4668-58.9355-4.83398-4.88281-53.0762 58.3984c-1.75781 2.00195-3.41797 2.49023-5.76172 0.146484l-5.85938-5.81055c-2.34375-2.29492-1.80664-4.00391 0.195312-5.81055l57.373-54.0039-4.88281-4.83398-57.959 54.4434c-4.93164 4.58984-5.32227 9.47266-1.02539 13.8184Zm32.0801-90.9668c-2.09961 2.05078-2.24609 4.93164-1.07422 6.88477 1.17188 1.80664 3.4668 2.97852 6.68945 2.14844 7.32422-1.70898 14.9414-2.00195 22.0703 2.68555l-2.92969 7.27539c-1.70898 4.15039-0.830078 7.08008 1.85547 9.81445l11.4746 11.5723c2.44141 2.44141 4.49219 2.53906 7.32422 2.05078l5.32227-0.976562 3.32031 3.36914-0.195312 2.7832c-0.195312 2.49023 0.439453 4.39453 2.88086 6.78711l3.80859 3.71094c2.39258 2.39258 5.46875 2.53906 7.8125 0.195312l14.5508-14.5996c2.34375-2.34375 2.24609-5.32227-0.146484-7.71484l-3.85742-3.80859c-2.39258-2.39258-4.24805-3.17383-6.64062-2.97852l-2.88086 0.244141-3.22266-3.17383 1.2207-5.61523c0.634766-2.83203-0.146484-5.0293-3.07617-7.95898l-10.9863-10.9375c-16.6992-16.6016-38.8672-16.2109-53.3203-1.75781Zm7.4707 1.85547c12.1582-8.88672 28.6133-7.37305 39.7461 3.75977l12.1582 12.0605c1.17188 1.17188 1.36719 2.09961 1.02539 3.80859l-1.61133 7.42188 7.51953 7.42188 4.93164-0.292969c1.26953-0.0488281 1.66016 0.0488281 2.63672 1.02539l2.88086 2.88086-12.207 12.207-2.88086-2.88086c-0.976562-0.976562-1.12305-1.36719-1.07422-2.68555l0.341797-4.88281-7.4707-7.42188-7.61719 1.26953c-1.61133 0.341797-2.34375 0.195312-3.56445-0.976562l-10.0098-10.0098c-1.26953-1.17188-1.41602-2.00195-0.634766-3.85742l4.39453-10.4492c-7.8125-7.27539-17.9688-10.4004-28.125-7.42188-0.78125 0.195312-1.07422-0.439453-0.439453-0.976562Z"/>
  </g>
  <text style="stroke:none;fill:black;font-family:sans-serif;font-size:13;font-weight:bold;" transform="matrix(1 0 0 1 1289 1953)">Exporting</text>
  <text style="stroke:none;fill:black;font-family:sans-serif;font-size:13;" transform="matrix(1 0 0 1 1289 1971)">Symbols should be outlined when exporting to ensure the</text>
  <text style="stroke:none;fill:black;font-family:sans-serif;font-size:13;" transform="matrix(1 0 0 1 1289 1989)">design is preserved when submitting to Xcode.</text>
  <text id="template-version" style="stroke:none;fill:black;font-family:sans-serif;font-size:13;text-anchor:end;" transform="matrix(1 0 0 1 3036 1933)">Template v.5.0</text>
  <text style="stroke:none;fill:black;font-family:sans-serif;font-size:13;text-anchor:end;" transform="matrix(1 0 0 1 3036 1951)">Requires Xcode 15 or greater</text>
  <text id="descriptive-name" style="stroke:none;fill:black;font-family:sans-serif;font-size:13;text-anchor:end;" transform="matrix(1 0 0 1 3036 1969)">Generated from square.3.layers.3d.down.left.slash</text>
  <text style="stroke:none;fill:black;font-family:sans-serif;font-size:13;text-anchor:end;" transform="matrix(1 0 0 1 3036 1987)">Typeset at 100.0 points</text>
  <text style="stroke:none;fill:black;font-family:sans-serif;font-size:13;" transform="matrix(1 0 0 1 263 726)">Small</text>
  <text style="stroke:none;fill:black;font-family:sans-serif;font-size:13;" transform="matrix(1 0 0 1 263 1156)">Medium</text>
  <text style="stroke:none;fill:black;font-family:sans-serif;font-size:13;" transform="matrix(1 0 0 1 263 1586)">Large</text>
 </g>
 <g id="Guides">
  <g id="H-reference" style="fill:#27AAE1;stroke:none;" transform="matrix(1 0 0 1 339 696)">
   <path d="M0.993654 0L3.63775 0L29.3281-67.1323L30.0303-67.1323L30.0303-70.459L28.1226-70.459ZM11.6885-24.4799L46.9815-24.4799L46.2315-26.7285L12.4385-26.7285ZM55.1196 0L57.7637 0L30.6382-70.459L29.4326-70.459L29.4326-67.1323Z"/>
  </g>
  <line id="Baseline-S" style="fill:none;stroke:#27AAE1;opacity:1;stroke-width:0.5;" x1="263" x2="3036" y1="696" y2="696"/>
  <line id="Capline-S" style="fill:none;stroke:#27AAE1;opacity:1;stroke-width:0.5;" x1="263" x2="3036" y1="625.541" y2="625.541"/>
  <g id="H-reference" style="fill:#27AAE1;stroke:none;" transform="matrix(1 0 0 1 339 1126)">
   <path d="M0.993654 0L3.63775 0L29.3281-67.1323L30.0303-67.1323L30.0303-70.459L28.1226-70.459ZM11.6885-24.4799L46.9815-24.4799L46.2315-26.7285L12.4385-26.7285ZM55.1196 0L57.7637 0L30.6382-70.459L29.4326-70.459L29.4326-67.1323Z"/>
  </g>
  <line id="Baseline-M" style="fill:none;stroke:#27AAE1;opacity:1;stroke-width:0.5;" x1="263" x2="3036" y1="1126" y2="1126"/>
  <line id="Capline-M" style="fill:none;stroke:#27AAE1;opacity:1;stroke-width:0.5;" x1="263" x2="3036" y1="1055.54" y2="1055.54"/>
  <g id="H-reference" style="fill:#27AAE1;stroke:none;" transform="matrix(1 0 0 1 339 1556)">
   <path d="M0.993654 0L3.63775 0L29.3281-67.1323L30.0303-67.1323L30.0303-70.459L28.1226-70.459ZM11.6885-24.4799L46.9815-24.4799L46.2315-26.7285L12.4385-26.7285ZM55.1196 0L57.7637 0L30.6382-70.459L29.4326-70.459L29.4326-67.1323Z"/>
  </g>
  <line id="Baseline-L" style="fill:none;stroke:#27AAE1;opacity:1;stroke-width:0.5;" x1="263" x2="3036" y1="1556" y2="1556"/>
  <line id="Capline-L" style="fill:none;stroke:#27AAE1;opacity:1;stroke-width:0.5;" x1="263" x2="3036" y1="1485.54" y2="1485.54"/>
  <line id="left-margin-Ultralight-S" style="fill:none;stroke:#00AEEF;stroke-width:0.5;opacity:1.0;" x1="514.191" x2="514.191" y1="600.785" y2="720.121"/>
  <line id="right-margin-Ultralight-S" style="fill:none;stroke:#00AEEF;stroke-width:0.5;opacity:1.0;" x1="605.231" x2="605.231" y1="600.785" y2="720.121"/>
  <line id="left-margin-Regular-S" style="fill:none;stroke:#00AEEF;stroke-width:0.5;opacity:1.0;" x1="1401.9" x2="1401.9" y1="600.785" y2="720.121"/>
  <line id="right-margin-Regular-S" style="fill:none;stroke:#FF3B30;stroke-width:0.5;opacity:1.0;" x1="1497.79" x2="1497.79" y1="600.785" y2="720.121"/>
  <line id="left-margin-Black-S" style="fill:none;stroke:#00AEEF;stroke-width:0.5;opacity:1.0;" x1="2881.01" x2="2881.01" y1="600.785" y2="720.121"/>
  <line id="right-margin-Black-S" style="fill:none;stroke:#00AEEF;stroke-width:0.5;opacity:1.0;" x1="2985.79" x2="2985.79" y1="600.785" y2="720.121"/>
 </g>
 <g id="Symbols">
  <g id="Black-S" transform="matrix(1 0 0 1 2881.01 696)">
   <path class="SFSymbolsPreviewWireframe" d="M85.498 10.2051C89.1602 13.8184 95.166 13.8184 98.7305 10.1074C102.197 6.54297 102.393 0.683594 98.6816-3.02734L20.9961-80.6641C17.334-84.3262 11.377-84.3262 7.71484-80.6641C4.10156-77.0508 4.10156-71.0449 7.71484-67.4316ZM89.5996 6.05469C90.9668 7.37305 93.2129 7.42188 94.5312 6.05469C95.8496 4.6875 95.8984 2.49023 94.5312 1.12305L16.8457-76.5137C15.4785-77.8809 13.2324-77.8809 11.8652-76.5137C10.5469-75.1953 10.5469-72.9004 11.8652-71.582ZM95.0195-51.123C95.0195-58.0566 93.5059-60.6934 87.4512-64.209L59.4238-80.4688C52.3926-84.5703 43.9453-81.543 43.9453-71.5332L43.9453-38.2812C43.9453-32.0801 45.3125-29.6875 50.7324-26.5625L78.8086-10.3516C87.2559-5.46875 95.0195-8.88672 95.0195-18.8477ZM81.0547-52.7832C81.8359-52.3438 81.9336-52.0996 81.9336-51.2207L81.9336-23.9746C81.9336-23.6816 81.5918-23.4375 81.2988-23.6328L57.9102-37.6953C57.2266-38.0859 57.0312-38.5254 57.0312-39.2578L57.0312-66.0156C57.0312-66.3086 57.3242-66.5039 57.6172-66.3574ZM77.9297-41.3574C77.9297-48.291 76.416-50.9277 70.3613-54.4434L42.334-70.7031C35.3027-74.8047 26.8555-71.7773 26.8555-61.7676L26.8555-28.5156C26.8555-22.3145 28.2227-19.9219 33.6426-16.7969L61.7188-0.585938C70.166 4.29688 77.9297 0.878906 77.9297-9.08203ZM63.9648-43.0176C64.7461-42.5781 64.8438-42.334 64.8438-41.4551L64.8438-14.209C64.8438-13.916 64.502-13.6719 64.209-13.8672L40.8203-27.9297C40.1367-28.3203 39.9414-28.7598 39.9414-29.4922L39.9414-56.25C39.9414-56.543 40.2344-56.7383 40.5273-56.5918ZM60.8398-31.5918C60.8398-38.5254 59.3262-41.1621 53.2715-44.6777L25.2441-60.9375C18.2129-65.0391 9.76562-62.0117 9.76562-52.002L9.76562-18.75C9.76562-12.5488 11.1328-10.1562 16.5527-7.03125L44.6289 9.17969C53.0762 14.0625 60.8398 10.6445 60.8398 0.683594ZM46.875-33.252C47.6562-32.8125 47.7539-32.5684 47.7539-31.6895L47.7539-4.44336C47.7539-4.15039 47.4121-3.90625 47.1191-4.10156L23.7305-18.1641C23.0469-18.5547 22.8516-18.9941 22.8516-19.7266L22.8516-46.4844C22.8516-46.7773 23.1445-46.9727 23.4375-46.8262Z"/>
  </g>
  <g id="Regular-S" transform="matrix(1 0 0 1 1401.9 696)">
   <path class="SFSymbolsPreviewWireframe" d="M82.5195 5.81055C85.7422 8.98438 90.9668 8.98438 94.0918 5.76172C97.2168 2.53906 97.2168-2.53906 94.043-5.71289L19.4336-80.3223C16.2598-83.4961 11.0352-83.4961 7.86133-80.3223C4.6875-77.1973 4.6875-71.9238 7.86133-68.75ZM85.9375 2.44141C87.2559 3.75977 89.4043 3.75977 90.6738 2.44141C91.9434 1.12305 91.9922-0.976562 90.6738-2.29492L16.0156-76.9043C14.6973-78.2227 12.5488-78.2227 11.2305-76.9043C9.96094-75.6348 9.96094-73.4375 11.2305-72.168ZM86.1328-51.6113C86.1328-56.0059 84.668-58.5938 80.9082-60.7422L50.4883-78.3203C46.4844-80.6152 41.0645-79.248 41.0645-73.1445L41.0645-37.8906C41.0645-33.3984 42.2363-30.9082 46.3867-28.5156L75.9766-11.4258C81.9824-7.95898 86.1328-10.3516 86.1328-17.3828ZM77.1973-54.4434C78.4668-53.7109 79.0039-53.125 79.0039-51.3672L79.0039-18.6035C79.0039-18.3594 78.8574-18.2617 78.6133-18.4082L49.9512-34.9121C48.5352-35.7422 48.1934-36.4258 48.1934-38.0371L48.1934-70.752C48.1934-70.9473 48.3398-71.0938 48.6328-70.9473ZM70.9961-43.0176C70.9961-47.3633 69.5312-49.9512 65.7715-52.1484L35.3027-69.7266C31.2988-72.0215 25.9277-70.6543 25.9277-64.5508L25.9277-29.2969C25.9277-24.8047 27.0996-22.3145 31.2012-19.9219L60.8398-2.83203C66.8457 0.634766 70.9961-1.70898 70.9961-8.78906ZM62.0117-45.8496C63.3301-45.0684 63.8184-44.4824 63.8184-42.7246L63.8184-10.0098C63.8184-9.7168 63.6719-9.66797 63.4277-9.81445L34.7656-26.3184C33.3984-27.1484 33.0566-27.832 33.0566-29.4434L33.0566-62.1094C33.0566-62.3047 33.2031-62.5 33.4473-62.3047ZM54.834-33.4961C54.834-37.8418 53.3691-40.4297 49.6094-42.627L19.1895-60.2051C15.1367-62.5 9.76562-61.1328 9.76562-55.0293L9.76562-19.7266C9.76562-15.2344 10.9375-12.7441 15.0879-10.4004L44.6777 6.68945C50.6836 10.1562 54.834 7.8125 54.834 0.732422ZM45.8496-36.3281C47.168-35.5469 47.7051-34.9609 47.7051-33.2031L47.7051-0.488281C47.7051-0.195312 47.5098-0.146484 47.2656-0.244141L18.6035-16.7969C17.2363-17.5781 16.8945-18.3105 16.8945-19.873L16.8945-52.5879C16.8945-52.7832 17.041-52.9297 17.334-52.7832Z"/>
  </g>
  <g id="Ultralight-S" transform="matrix(1 0 0 1 514.191 696)">
   <path class="SFSymbolsPreviewWireframe" d="M79.4771 3.54006C81.0196 5.12454 83.4742 5.16995 85.1915 3.67287C86.9996 1.99414 86.8634-0.722671 85.2789-2.26175L14.2569-73.3292C12.6724-74.8682 10.2178-75.0045 8.45166-73.42C6.77635-71.7481 6.77635-69.1084 8.40625-67.4785ZM81.5782 1.44239C81.9883 1.85255 82.6836 1.85255 83.1358 1.44239C83.6334 0.986817 83.5914 0.294912 83.1358-0.160661L12.1104-71.1827C11.7456-71.5928 11.0503-71.6836 10.5493-71.1827C10.0972-70.7759 10.0972-70.0318 10.5493-69.625ZM81.274-53.5639C81.274-55.688 80.7173-56.5049 78.7739-57.6543L47.1734-75.9136C44.4863-77.4365 42.2451-75.9785 42.2451-73.5532L42.2451-36.2559C42.2451-34.1704 42.645-33.4057 44.7066-32.2392L76.2036-14.0141C78.7583-12.5454 81.274-13.3486 81.274-16.8379ZM77.8784-55.5786C78.7847-55.0278 79.0493-54.6235 79.0493-53.5469L79.0493-16.4693C79.0493-15.6802 78.5396-15.2647 77.6597-15.7744L45.6372-34.2764C44.7207-34.7886 44.4243-35.1089 44.4243-36.2661L44.4243-72.977C44.4243-74.0351 45.3428-74.4541 46.1353-73.9443ZM65.5923-43.835C65.5923-45.9556 65.0811-46.7725 63.1377-47.9253L31.5337-66.1846C28.8467-67.753 26.5635-66.295 26.5635-63.8696L26.5635-26.5723C26.5635-24.4868 27.0088-23.7222 29.0669-22.5102L60.5674-4.33055C63.1221-2.86179 65.5923-3.66161 65.5923-7.1089ZM62.2388-45.8496C63.1484-45.2954 63.4097-44.8911 63.4097-43.8599L63.4097-6.74026C63.4097-5.94778 62.8999-5.53568 61.9746-6.04544L29.9976-24.5474C29.0845-25.0596 28.7881-25.4253 28.7881-26.5825L28.7881-63.29C28.7881-64.3481 29.6612-64.7251 30.4956-64.2573ZM48.7945-34.0864C48.7945-36.207 48.2832-37.024 46.2945-38.1768L14.7393-56.4361C12.0489-58.0044 9.76562-56.5464 9.76562-54.1211L9.76562-16.8203C9.76562-14.7349 10.2109-13.9702 12.2725-12.7617L43.7695 5.41798C46.3243 6.88674 48.7945 6.08693 48.7945 2.63963ZM45.4409-36.1011C46.3506-35.5469 46.5698-35.1426 46.5698-34.0659L46.5698 3.00827C46.5698 3.80075 46.0567 4.21286 45.1768 3.70651L13.1543-14.7988C12.2867-15.3076 11.9903-15.6768 11.9903-16.8306L11.9903-53.4961C11.9903-54.5996 12.8633-54.9731 13.6558-54.5088Z"/>
  </g>
 </g>
</svg>
