<?xml version="1.0" encoding="UTF-8"?>
<!--Generator: Apple Native CoreSVG 232.5-->
<!DOCTYPE svg
PUBLIC "-//W3C//DTD SVG 1.1//EN"
       "http://www.w3.org/Graphics/SVG/1.1/DTD/svg11.dtd">
<svg version="1.1" xmlns="http://www.w3.org/2000/svg" xmlns:xlink="http://www.w3.org/1999/xlink" width="3300" height="2200">
 <!--glyph: "uni100DCE.medium", point size: 100.0, font version: "19.2d2e1", template writer version: "128"-->
 <style>.SFSymbolsPreviewWireframe {fill:none;opacity:1.0;stroke:black;stroke-width:0.5}
</style>
 <g id="Notes">
  <rect height="2200" id="artboard" style="fill:white;opacity:1" width="3300" x="0" y="0"/>
  <line style="fill:none;stroke:black;opacity:1;stroke-width:0.5;" x1="263" x2="3036" y1="292" y2="292"/>
  <text style="stroke:none;fill:black;font-family:sans-serif;font-size:13;font-weight:bold;" transform="matrix(1 0 0 1 263 322)">Weight/Scale Variations</text>
  <text style="stroke:none;fill:black;font-family:sans-serif;font-size:13;text-anchor:middle;" transform="matrix(1 0 0 1 559.711 322)">Ultralight</text>
  <text style="stroke:none;fill:black;font-family:sans-serif;font-size:13;text-anchor:middle;" transform="matrix(1 0 0 1 856.422 322)">Thin</text>
  <text style="stroke:none;fill:black;font-family:sans-serif;font-size:13;text-anchor:middle;" transform="matrix(1 0 0 1 1153.13 322)">Light</text>
  <text style="stroke:none;fill:black;font-family:sans-serif;font-size:13;text-anchor:middle;" transform="matrix(1 0 0 1 1449.84 322)">Regular</text>
  <text style="stroke:none;fill:black;font-family:sans-serif;font-size:13;text-anchor:middle;" transform="matrix(1 0 0 1 1746.56 322)">Medium</text>
  <text style="stroke:none;fill:black;font-family:sans-serif;font-size:13;text-anchor:middle;" transform="matrix(1 0 0 1 2043.27 322)">Semibold</text>
  <text style="stroke:none;fill:black;font-family:sans-serif;font-size:13;text-anchor:middle;" transform="matrix(1 0 0 1 2339.98 322)">Bold</text>
  <text style="stroke:none;fill:black;font-family:sans-serif;font-size:13;text-anchor:middle;" transform="matrix(1 0 0 1 2636.69 322)">Heavy</text>
  <text style="stroke:none;fill:black;font-family:sans-serif;font-size:13;text-anchor:middle;" transform="matrix(1 0 0 1 2933.4 322)">Black</text>
  <line style="fill:none;stroke:black;opacity:1;stroke-width:0.5;" x1="263" x2="3036" y1="1903" y2="1903"/>
  <g transform="matrix(0.2 0 0 0.2 263 1933)">
   <path d="m46.2402 4.15039c21.5332 0 39.4531-17.8711 39.4531-39.4043s-17.9688-39.4043-39.502-39.4043c-21.4844 0-39.3555 17.8711-39.3555 39.4043s17.9199 39.4043 39.4043 39.4043Zm0-7.42188c-17.7246 0-31.8848-14.209-31.8848-31.9824s14.1113-31.9824 31.8359-31.9824c17.7734 0 32.0312 14.209 32.0312 31.9824s-14.209 31.9824-31.9824 31.9824Zm-17.9688-31.9824c0 2.14844 1.51367 3.61328 3.75977 3.61328h10.498v10.5957c0 2.19727 1.46484 3.71094 3.61328 3.71094 2.24609 0 3.71094-1.51367 3.71094-3.71094v-10.5957h10.5957c2.19727 0 3.71094-1.46484 3.71094-3.61328 0-2.19727-1.51367-3.71094-3.71094-3.71094h-10.5957v-10.5469c0-2.24609-1.46484-3.75977-3.71094-3.75977-2.14844 0-3.61328 1.51367-3.61328 3.75977v10.5469h-10.498c-2.24609 0-3.75977 1.51367-3.75977 3.71094Z"/>
  </g>
  <g transform="matrix(0.2 0 0 0.2 281.506 1933)">
   <path d="m58.5449 14.5508c27.2461 0 49.8047-22.6074 49.8047-49.8047 0-27.2461-22.6074-49.8047-49.8535-49.8047-27.1973 0-49.7559 22.5586-49.7559 49.8047 0 27.1973 22.6074 49.8047 49.8047 49.8047Zm0-8.30078c-23.0469 0-41.4551-18.457-41.4551-41.5039s18.3594-41.5039 41.4062-41.5039 41.5527 18.457 41.5527 41.5039-18.457 41.5039-41.5039 41.5039Zm-22.6562-41.5039c0 2.39258 1.66016 4.00391 4.15039 4.00391h14.3555v14.4043c0 2.44141 1.66016 4.15039 4.05273 4.15039 2.44141 0 4.15039-1.66016 4.15039-4.15039v-14.4043h14.4043c2.44141 0 4.15039-1.61133 4.15039-4.00391 0-2.44141-1.70898-4.15039-4.15039-4.15039h-14.4043v-14.3555c0-2.49023-1.70898-4.19922-4.15039-4.19922-2.39258 0-4.05273 1.70898-4.05273 4.19922v14.3555h-14.3555c-2.49023 0-4.15039 1.70898-4.15039 4.15039Z"/>
  </g>
  <g transform="matrix(0.2 0 0 0.2 304.924 1933)">
   <path d="m74.8535 28.3203c34.8145 0 63.623-28.8086 63.623-63.5742 0-34.8145-28.8574-63.623-63.6719-63.623-34.7656 0-63.5254 28.8086-63.5254 63.623 0 34.7656 28.8086 63.5742 63.5742 63.5742Zm0-9.08203c-30.1758 0-54.4434-24.3164-54.4434-54.4922 0-30.2246 24.2188-54.4922 54.3945-54.4922 30.2246 0 54.541 24.2676 54.541 54.4922 0 30.1758-24.2676 54.4922-54.4922 54.4922Zm-28.8574-54.4922c0 2.58789 1.85547 4.39453 4.58984 4.39453h19.7266v19.7754c0 2.68555 1.85547 4.58984 4.44336 4.58984 2.68555 0 4.54102-1.85547 4.54102-4.58984v-19.7754h19.7754c2.68555 0 4.58984-1.80664 4.58984-4.39453 0-2.73438-1.85547-4.58984-4.58984-4.58984h-19.7754v-19.7266c0-2.73438-1.85547-4.63867-4.54102-4.63867-2.58789 0-4.44336 1.9043-4.44336 4.63867v19.7266h-19.7266c-2.73438 0-4.58984 1.85547-4.58984 4.58984Z"/>
  </g>
  <text style="stroke:none;fill:black;font-family:sans-serif;font-size:13;font-weight:bold;" transform="matrix(1 0 0 1 263 1953)">Design Variations</text>
  <text style="stroke:none;fill:black;font-family:sans-serif;font-size:13;" transform="matrix(1 0 0 1 263 1971)">Symbols are supported in up to nine weights and three scales.</text>
  <text style="stroke:none;fill:black;font-family:sans-serif;font-size:13;" transform="matrix(1 0 0 1 263 1989)">For optimal layout with text and other symbols, vertically align</text>
  <text style="stroke:none;fill:black;font-family:sans-serif;font-size:13;" transform="matrix(1 0 0 1 263 2007)">symbols with the adjacent text.</text>
  <line style="fill:none;stroke:#00AEEF;stroke-width:0.5;opacity:1.0;" x1="776" x2="776" y1="1919" y2="1933"/>
  <g transform="matrix(0.2 0 0 0.2 776 1933)">
   <path d="m16.5527 0.78125c2.58789 0 3.85742-0.976562 4.78516-3.71094l6.29883-17.2363h28.8086l6.29883 17.2363c0.927734 2.73438 2.19727 3.71094 4.73633 3.71094 2.58789 0 4.24805-1.5625 4.24805-4.00391 0-0.830078-0.146484-1.61133-0.537109-2.63672l-22.9004-60.9863c-1.12305-2.97852-3.125-4.49219-6.25-4.49219-3.02734 0-5.07812 1.46484-6.15234 4.44336l-22.9004 61.084c-0.390625 1.02539-0.537109 1.80664-0.537109 2.63672 0 2.44141 1.5625 3.95508 4.10156 3.95508Zm13.4766-28.3691 11.8652-32.8613h0.244141l11.8652 32.8613Z"/>
  </g>
  <line style="fill:none;stroke:#00AEEF;stroke-width:0.5;opacity:1.0;" x1="792.836" x2="792.836" y1="1919" y2="1933"/>
  <text style="stroke:none;fill:black;font-family:sans-serif;font-size:13;font-weight:bold;" transform="matrix(1 0 0 1 776 1953)">Margins</text>
  <text style="stroke:none;fill:black;font-family:sans-serif;font-size:13;" transform="matrix(1 0 0 1 776 1971)">Leading and trailing margins on the left and right side of each symbol</text>
  <text style="stroke:none;fill:black;font-family:sans-serif;font-size:13;" transform="matrix(1 0 0 1 776 1989)">can be adjusted by modifying the x-location of the margin guidelines.</text>
  <text style="stroke:none;fill:black;font-family:sans-serif;font-size:13;" transform="matrix(1 0 0 1 776 2007)">Modifications are automatically applied proportionally to all</text>
  <text style="stroke:none;fill:black;font-family:sans-serif;font-size:13;" transform="matrix(1 0 0 1 776 2025)">scales and weights.</text>
  <g transform="matrix(0.2 0 0 0.2 1289 1933)">
   <path d="m14.209 9.32617 8.49609 8.54492c4.29688 4.3457 9.22852 4.05273 13.8672-1.07422l53.4668-58.9355-4.83398-4.88281-53.0762 58.3984c-1.75781 2.00195-3.41797 2.49023-5.76172 0.146484l-5.85938-5.81055c-2.34375-2.29492-1.80664-4.00391 0.195312-5.81055l57.373-54.0039-4.88281-4.83398-57.959 54.4434c-4.93164 4.58984-5.32227 9.47266-1.02539 13.8184Zm32.0801-90.9668c-2.09961 2.05078-2.24609 4.93164-1.07422 6.88477 1.17188 1.80664 3.4668 2.97852 6.68945 2.14844 7.32422-1.70898 14.9414-2.00195 22.0703 2.68555l-2.92969 7.27539c-1.70898 4.15039-0.830078 7.08008 1.85547 9.81445l11.4746 11.5723c2.44141 2.44141 4.49219 2.53906 7.32422 2.05078l5.32227-0.976562 3.32031 3.36914-0.195312 2.7832c-0.195312 2.49023 0.439453 4.39453 2.88086 6.78711l3.80859 3.71094c2.39258 2.39258 5.46875 2.53906 7.8125 0.195312l14.5508-14.5996c2.34375-2.34375 2.24609-5.32227-0.146484-7.71484l-3.85742-3.80859c-2.39258-2.39258-4.24805-3.17383-6.64062-2.97852l-2.88086 0.244141-3.22266-3.17383 1.2207-5.61523c0.634766-2.83203-0.146484-5.0293-3.07617-7.95898l-10.9863-10.9375c-16.6992-16.6016-38.8672-16.2109-53.3203-1.75781Zm7.4707 1.85547c12.1582-8.88672 28.6133-7.37305 39.7461 3.75977l12.1582 12.0605c1.17188 1.17188 1.36719 2.09961 1.02539 3.80859l-1.61133 7.42188 7.51953 7.42188 4.93164-0.292969c1.26953-0.0488281 1.66016 0.0488281 2.63672 1.02539l2.88086 2.88086-12.207 12.207-2.88086-2.88086c-0.976562-0.976562-1.12305-1.36719-1.07422-2.68555l0.341797-4.88281-7.4707-7.42188-7.61719 1.26953c-1.61133 0.341797-2.34375 0.195312-3.56445-0.976562l-10.0098-10.0098c-1.26953-1.17188-1.41602-2.00195-0.634766-3.85742l4.39453-10.4492c-7.8125-7.27539-17.9688-10.4004-28.125-7.42188-0.78125 0.195312-1.07422-0.439453-0.439453-0.976562Z"/>
  </g>
  <text style="stroke:none;fill:black;font-family:sans-serif;font-size:13;font-weight:bold;" transform="matrix(1 0 0 1 1289 1953)">Exporting</text>
  <text style="stroke:none;fill:black;font-family:sans-serif;font-size:13;" transform="matrix(1 0 0 1 1289 1971)">Symbols should be outlined when exporting to ensure the</text>
  <text style="stroke:none;fill:black;font-family:sans-serif;font-size:13;" transform="matrix(1 0 0 1 1289 1989)">design is preserved when submitting to Xcode.</text>
  <text id="template-version" style="stroke:none;fill:black;font-family:sans-serif;font-size:13;text-anchor:end;" transform="matrix(1 0 0 1 3036 1933)">Template v.5.0</text>
  <text style="stroke:none;fill:black;font-family:sans-serif;font-size:13;text-anchor:end;" transform="matrix(1 0 0 1 3036 1951)">Requires Xcode 15 or greater</text>
  <text id="descriptive-name" style="stroke:none;fill:black;font-family:sans-serif;font-size:13;text-anchor:end;" transform="matrix(1 0 0 1 3036 1969)">Generated from sun.max.circle</text>
  <text style="stroke:none;fill:black;font-family:sans-serif;font-size:13;text-anchor:end;" transform="matrix(1 0 0 1 3036 1987)">Typeset at 100.0 points</text>
  <text style="stroke:none;fill:black;font-family:sans-serif;font-size:13;" transform="matrix(1 0 0 1 263 726)">Small</text>
  <text style="stroke:none;fill:black;font-family:sans-serif;font-size:13;" transform="matrix(1 0 0 1 263 1156)">Medium</text>
  <text style="stroke:none;fill:black;font-family:sans-serif;font-size:13;" transform="matrix(1 0 0 1 263 1586)">Large</text>
 </g>
 <g id="Guides">
  <g id="H-reference" style="fill:#27AAE1;stroke:none;" transform="matrix(1 0 0 1 339 696)">
   <path d="M0.993654 0L3.63775 0L29.3281-67.1323L30.0303-67.1323L30.0303-70.459L28.1226-70.459ZM11.6885-24.4799L46.9815-24.4799L46.2315-26.7285L12.4385-26.7285ZM55.1196 0L57.7637 0L30.6382-70.459L29.4326-70.459L29.4326-67.1323Z"/>
  </g>
  <line id="Baseline-S" style="fill:none;stroke:#27AAE1;opacity:1;stroke-width:0.5;" x1="263" x2="3036" y1="696" y2="696"/>
  <line id="Capline-S" style="fill:none;stroke:#27AAE1;opacity:1;stroke-width:0.5;" x1="263" x2="3036" y1="625.541" y2="625.541"/>
  <g id="H-reference" style="fill:#27AAE1;stroke:none;" transform="matrix(1 0 0 1 339 1126)">
   <path d="M0.993654 0L3.63775 0L29.3281-67.1323L30.0303-67.1323L30.0303-70.459L28.1226-70.459ZM11.6885-24.4799L46.9815-24.4799L46.2315-26.7285L12.4385-26.7285ZM55.1196 0L57.7637 0L30.6382-70.459L29.4326-70.459L29.4326-67.1323Z"/>
  </g>
  <line id="Baseline-M" style="fill:none;stroke:#27AAE1;opacity:1;stroke-width:0.5;" x1="263" x2="3036" y1="1126" y2="1126"/>
  <line id="Capline-M" style="fill:none;stroke:#27AAE1;opacity:1;stroke-width:0.5;" x1="263" x2="3036" y1="1055.54" y2="1055.54"/>
  <g id="H-reference" style="fill:#27AAE1;stroke:none;" transform="matrix(1 0 0 1 339 1556)">
   <path d="M0.993654 0L3.63775 0L29.3281-67.1323L30.0303-67.1323L30.0303-70.459L28.1226-70.459ZM11.6885-24.4799L46.9815-24.4799L46.2315-26.7285L12.4385-26.7285ZM55.1196 0L57.7637 0L30.6382-70.459L29.4326-70.459L29.4326-67.1323Z"/>
  </g>
  <line id="Baseline-L" style="fill:none;stroke:#27AAE1;opacity:1;stroke-width:0.5;" x1="263" x2="3036" y1="1556" y2="1556"/>
  <line id="Capline-L" style="fill:none;stroke:#27AAE1;opacity:1;stroke-width:0.5;" x1="263" x2="3036" y1="1485.54" y2="1485.54"/>
  <line id="left-margin-Ultralight-S" style="fill:none;stroke:#00AEEF;stroke-width:0.5;opacity:1.0;" x1="515.649" x2="515.649" y1="600.785" y2="720.121"/>
  <line id="right-margin-Ultralight-S" style="fill:none;stroke:#00AEEF;stroke-width:0.5;opacity:1.0;" x1="603.773" x2="603.773" y1="600.785" y2="720.121"/>
  <line id="left-margin-Regular-S" style="fill:none;stroke:#00AEEF;stroke-width:0.5;opacity:1.0;" x1="1403.58" x2="1403.58" y1="600.785" y2="720.121"/>
  <line id="right-margin-Regular-S" style="fill:none;stroke:#00AEEF;stroke-width:0.5;opacity:1.0;" x1="1496.11" x2="1496.11" y1="600.785" y2="720.121"/>
  <line id="left-margin-Black-S" style="fill:none;stroke:#00AEEF;stroke-width:0.5;opacity:1.0;" x1="2884.57" x2="2884.57" y1="600.785" y2="720.121"/>
  <line id="right-margin-Black-S" style="fill:none;stroke:#00AEEF;stroke-width:0.5;opacity:1.0;" x1="2982.23" x2="2982.23" y1="600.785" y2="720.121"/>
 </g>
 <g id="Symbols">
  <g id="Black-S" transform="matrix(1 0 0 1 2884.57 696)">
   <path class="SFSymbolsPreviewWireframe" d="M48.8281 6.78711C71.9727 6.78711 90.8203-12.0605 90.8203-35.2051C90.8203-58.3496 71.9727-77.1973 48.8281-77.1973C25.6836-77.1973 6.83594-58.3496 6.83594-35.2051C6.83594-12.0605 25.6836 6.78711 48.8281 6.78711ZM48.8281-7.37305C33.4473-7.37305 20.9961-19.8242 20.9961-35.2051C20.9961-50.5859 33.4473-63.0371 48.8281-63.0371C64.209-63.0371 76.6602-50.5859 76.6602-35.2051C76.6602-19.8242 64.209-7.37305 48.8281-7.37305ZM48.8281-25.3418C54.2969-25.3418 58.7891-29.834 58.7891-35.3027C58.7891-40.7715 54.2969-45.2637 48.8281-45.2637C43.3594-45.2637 38.8672-40.7715 38.8672-35.3027C38.8672-29.834 43.3594-25.3418 48.8281-25.3418ZM48.8281-56.9336C47.0215-56.9336 45.5566-55.4688 45.5566-53.7109L45.5566-50.8301C45.5566-49.0234 47.0215-47.5098 48.8281-47.5098C50.6348-47.5098 52.0996-49.0234 52.0996-50.8301L52.0996-53.7109C52.0996-55.4688 50.6348-56.9336 48.8281-56.9336ZM64.1113-50.5859C62.8906-51.8066 60.791-51.7578 59.5703-50.5371L57.5195-48.4375C56.2988-47.168 56.25-45.166 57.5684-43.8477C58.7891-42.627 60.8398-42.7246 62.1094-43.9453L64.209-45.9961C65.4297-47.2168 65.3809-49.3652 64.1113-50.5859ZM70.5566-35.3027C70.5566-37.0605 69.043-38.5742 67.2852-38.5742L64.4043-38.5742C62.6465-38.5742 61.1328-37.0605 61.1328-35.3027C61.1328-33.5449 62.6465-32.0312 64.4043-32.0312L67.2852-32.0312C69.043-32.0312 70.5566-33.5449 70.5566-35.3027ZM64.209-20.1172C65.4297-21.2891 65.4297-23.3887 64.1602-24.6582L62.0605-26.709C60.8398-27.9297 58.7402-27.9297 57.5195-26.6602C56.2012-25.4395 56.2988-23.291 57.5684-22.0703L59.668-20.0195C60.8887-18.8477 62.9883-18.8965 64.209-20.1172ZM48.8281-13.6719C50.6348-13.6719 52.0996-15.1367 52.0996-16.8945L52.0996-19.7754C52.0996-21.582 50.6348-23.0957 48.8281-23.0957C47.0215-23.0957 45.5566-21.582 45.5566-19.7754L45.5566-16.8945C45.5566-15.1367 47.0215-13.6719 48.8281-13.6719ZM33.4473-20.1172C34.7656-18.8477 36.8164-18.7988 38.0371-20.0195L40.1367-22.0703C41.4062-23.3398 41.4551-25.4883 40.1855-26.6602C38.916-27.9297 36.8164-27.9297 35.5957-26.709L33.4961-24.6582C32.2754-23.4375 32.2266-21.2402 33.4473-20.1172ZM27.1484-35.3027C27.1484-33.5449 28.6133-32.0312 30.3711-32.0312L33.252-32.0312C35.0586-32.0312 36.5723-33.5449 36.5723-35.3027C36.5723-37.0605 35.0586-38.5742 33.252-38.5742L30.3711-38.5742C28.6133-38.5742 27.1484-37.0605 27.1484-35.3027ZM33.5449-50.5859C32.3242-49.3652 32.2754-47.2168 33.4961-45.9961L35.5469-43.9453C36.7676-42.7246 38.916-42.5781 40.1367-43.8477C41.4062-45.166 41.4062-47.2168 40.1855-48.4375L38.1348-50.5371C36.9141-51.7578 34.8145-51.8066 33.5449-50.5859Z"/>
  </g>
  <g id="Regular-S" transform="matrix(1 0 0 1 1403.58 696)">
   <path class="SFSymbolsPreviewWireframe" d="M46.2402 4.15039C67.7734 4.15039 85.6934-13.7207 85.6934-35.2539C85.6934-56.7871 67.7246-74.6582 46.1914-74.6582C24.707-74.6582 6.83594-56.7871 6.83594-35.2539C6.83594-13.7207 24.7559 4.15039 46.2402 4.15039ZM46.2402-3.27148C28.5156-3.27148 14.3555-17.4805 14.3555-35.2539C14.3555-53.0273 28.4668-67.2363 46.1914-67.2363C63.9648-67.2363 78.2227-53.0273 78.2227-35.2539C78.2227-17.4805 64.0137-3.27148 46.2402-3.27148ZM46.1914-23.4863C52.6367-23.4863 57.9102-28.8574 57.9102-35.2539C57.9102-41.6992 52.6367-47.0215 46.1914-47.0215C39.7949-47.0215 34.4727-41.6992 34.4727-35.2539C34.4727-28.8574 39.7949-23.4863 46.1914-23.4863ZM46.1914-59.375C44.7754-59.375 43.5547-58.1543 43.5547-56.7383L43.5547-52.2949C43.5547-50.8789 44.7754-49.6582 46.1914-49.6582C47.6074-49.6582 48.877-50.8789 48.877-52.2949L48.877-56.7383C48.877-58.1543 47.6074-59.375 46.1914-59.375ZM63.2812-52.2949C62.207-53.3691 60.498-53.3203 59.5215-52.2949L56.3965-49.1211C55.3711-48.0469 55.3711-46.3867 56.3965-45.4102C57.373-44.3848 59.082-44.3848 60.1074-45.4102L63.2812-48.584C64.2578-49.5605 64.2578-51.2695 63.2812-52.2949ZM70.2148-35.2539C70.2148-36.7188 69.043-37.8906 67.627-37.8906L63.2324-37.8906C61.8164-37.8906 60.5957-36.6699 60.5957-35.2539C60.5957-33.8379 61.8164-32.6172 63.2324-32.6172L67.627-32.6172C69.043-32.6172 70.2148-33.7891 70.2148-35.2539ZM63.2812-18.2129C64.3066-19.2871 64.2578-20.9961 63.2812-21.9238L60.0586-25.0977C59.082-26.0742 57.373-26.0742 56.3965-25.0977C55.3223-24.0723 55.3711-22.4121 56.3965-21.3867L59.5215-18.2129C60.5469-17.1875 62.207-17.1875 63.2812-18.2129ZM46.1914-11.1328C47.6074-11.1328 48.877-12.4023 48.877-13.8184L48.877-18.2129C48.877-19.6289 47.6074-20.8496 46.1914-20.8496C44.7754-20.8496 43.5547-19.6289 43.5547-18.2129L43.5547-13.8184C43.5547-12.4023 44.7754-11.1328 46.1914-11.1328ZM29.1504-18.2617C30.1758-17.1875 31.8848-17.1875 32.8613-18.2129L36.0352-21.3379C37.0117-22.3633 37.0117-24.0234 36.0352-25.0977C35.0586-26.0742 33.3008-26.0742 32.3242-25.0977L29.1504-21.9238C28.1738-20.9473 28.1738-19.2871 29.1504-18.2617ZM22.2168-35.2539C22.2168-33.7891 23.3887-32.6172 24.8047-32.6172L29.1992-32.6172C30.6152-32.6172 31.8359-33.8379 31.8359-35.2539C31.8359-36.6699 30.6152-37.8906 29.1992-37.8906L24.8047-37.8906C23.3887-37.8906 22.2168-36.7188 22.2168-35.2539ZM29.1992-52.2949C28.2227-51.2695 28.1738-49.5605 29.1504-48.584L32.3242-45.4102C33.3496-44.3848 35.0098-44.3848 36.0352-45.4102C37.0117-46.4355 37.0117-48.0957 36.0352-49.1211L32.8613-52.2949C31.9336-53.2715 30.2246-53.3203 29.1992-52.2949Z"/>
  </g>
  <g id="Ultralight-S" transform="matrix(1 0 0 1 515.649 696)">
   <path class="SFSymbolsPreviewWireframe" d="M44.0606 1.97072C64.5039 1.97072 81.2886-14.8105 81.2886-35.2539C81.2886-55.6973 64.5005-72.4785 44.0571-72.4785C23.5718-72.4785 6.83594-55.6973 6.83594-35.2539C6.83594-14.8105 23.5752 1.97072 44.0606 1.97072ZM44.0606-0.274438C24.7466-0.274438 9.04252-15.9365 9.04252-35.2539C9.04252-54.5713 24.7432-70.2334 44.0571-70.2334C63.3745-70.2334 79.04-54.5713 79.04-35.2539C79.04-15.9365 63.3779-0.274438 44.0606-0.274438ZM44.0117-24.4399C49.9575-24.4399 54.9131-29.4023 54.9131-35.3447C54.9131-41.2905 49.9575-46.2495 44.0117-46.2495C38.0693-46.2495 33.065-41.2905 33.065-35.3447C33.065-29.4023 38.0693-24.4399 44.0117-24.4399ZM44.0571-59.9653C43.5039-59.9653 43.0098-59.4712 43.0098-58.918L43.0098-53.521C43.0098-52.9678 43.5039-52.4736 44.0571-52.4736C44.6104-52.4736 45.1079-52.9678 45.1079-53.521L45.1079-58.918C45.1079-59.4712 44.6104-59.9653 44.0571-59.9653ZM61.4194-52.7036C61.0264-53.0967 60.3618-53.1387 59.9302-52.7036L56.1694-48.894C55.7798-48.501 55.7344-47.8852 56.1694-47.4536C56.6011-47.0185 57.2202-47.0639 57.6099-47.4536L61.4194-51.2178C61.8511-51.6494 61.8057-52.3594 61.4194-52.7036ZM68.6709-35.3447C68.6709-35.9014 68.1802-36.3921 67.627-36.3921L62.2334-36.3921C61.6802-36.3921 61.186-35.898 61.186-35.3447C61.186-34.7915 61.6802-34.2974 62.2334-34.2974L67.627-34.2974C68.1802-34.2974 68.6709-34.7881 68.6709-35.3447ZM61.4194-17.9858C61.8091-18.3789 61.8511-19.0435 61.4194-19.4717L57.6065-23.2359C57.2202-23.6221 56.6011-23.6675 56.1694-23.2359C55.731-22.8008 55.7798-22.1851 56.1694-21.7954L59.9302-17.9858C60.3652-17.5508 61.0264-17.5962 61.4194-17.9858ZM44.0571-10.7241C44.6104-10.7241 45.1079-11.2217 45.1079-11.7749L45.1079-17.2139C45.1079-17.7217 44.6104-18.2158 44.0571-18.2158C43.5039-18.2158 43.0098-17.7217 43.0098-17.2139L43.0098-11.7749C43.0098-11.2217 43.5039-10.7241 44.0571-10.7241ZM26.6529-17.9893C26.9971-17.5962 27.7071-17.5508 28.1387-17.9858L31.9483-21.7466C32.3345-22.1362 32.3799-22.7974 31.9483-23.2359C31.5166-23.6221 30.8941-23.6675 30.4624-23.2359L26.6529-19.4717C26.2212-19.0401 26.2666-18.3789 26.6529-17.9893ZM19.4468-35.3447C19.4468-34.7881 19.9375-34.2974 20.4908-34.2974L25.8843-34.2974C26.4375-34.2974 26.9317-34.7915 26.9317-35.3447C26.9317-35.898 26.4375-36.3921 25.8843-36.3921L20.4908-36.3921C19.9375-36.3921 19.4468-35.9014 19.4468-35.3447ZM26.7017-52.7036C26.3154-52.3594 26.2666-51.6494 26.6983-51.2178L30.4624-47.4536C30.8975-47.0185 31.5132-47.0639 31.9483-47.4536C32.3345-47.8433 32.3345-48.459 31.9483-48.894L28.1841-52.7036C27.7559-53.1353 27.0459-53.0933 26.7017-52.7036Z"/>
  </g>
 </g>
</svg>
