<?xml version="1.0" encoding="UTF-8"?>
<!--Generator: Apple Native CoreSVG 232.5-->
<!DOCTYPE svg
PUBLIC "-//W3C//DTD SVG 1.1//EN"
       "http://www.w3.org/Graphics/SVG/1.1/DTD/svg11.dtd">
<svg version="1.1" xmlns="http://www.w3.org/2000/svg" xmlns:xlink="http://www.w3.org/1999/xlink" width="3300" height="2200">
 <!--glyph: "uni1001B5.medium", point size: 100.0, font version: "19.2d2e1", template writer version: "128"-->
 <style>.SFSymbolsPreviewWireframe {fill:none;opacity:1.0;stroke:black;stroke-width:0.5}
</style>
 <g id="Notes">
  <rect height="2200" id="artboard" style="fill:white;opacity:1" width="3300" x="0" y="0"/>
  <line style="fill:none;stroke:black;opacity:1;stroke-width:0.5;" x1="263" x2="3036" y1="292" y2="292"/>
  <text style="stroke:none;fill:black;font-family:sans-serif;font-size:13;font-weight:bold;" transform="matrix(1 0 0 1 263 322)">Weight/Scale Variations</text>
  <text style="stroke:none;fill:black;font-family:sans-serif;font-size:13;text-anchor:middle;" transform="matrix(1 0 0 1 559.711 322)">Ultralight</text>
  <text style="stroke:none;fill:black;font-family:sans-serif;font-size:13;text-anchor:middle;" transform="matrix(1 0 0 1 856.422 322)">Thin</text>
  <text style="stroke:none;fill:black;font-family:sans-serif;font-size:13;text-anchor:middle;" transform="matrix(1 0 0 1 1153.13 322)">Light</text>
  <text style="stroke:none;fill:black;font-family:sans-serif;font-size:13;text-anchor:middle;" transform="matrix(1 0 0 1 1449.84 322)">Regular</text>
  <text style="stroke:none;fill:black;font-family:sans-serif;font-size:13;text-anchor:middle;" transform="matrix(1 0 0 1 1746.56 322)">Medium</text>
  <text style="stroke:none;fill:black;font-family:sans-serif;font-size:13;text-anchor:middle;" transform="matrix(1 0 0 1 2043.27 322)">Semibold</text>
  <text style="stroke:none;fill:black;font-family:sans-serif;font-size:13;text-anchor:middle;" transform="matrix(1 0 0 1 2339.98 322)">Bold</text>
  <text style="stroke:none;fill:black;font-family:sans-serif;font-size:13;text-anchor:middle;" transform="matrix(1 0 0 1 2636.69 322)">Heavy</text>
  <text style="stroke:none;fill:black;font-family:sans-serif;font-size:13;text-anchor:middle;" transform="matrix(1 0 0 1 2933.4 322)">Black</text>
  <line style="fill:none;stroke:black;opacity:1;stroke-width:0.5;" x1="263" x2="3036" y1="1903" y2="1903"/>
  <g transform="matrix(0.2 0 0 0.2 263 1933)">
   <path d="m46.2402 4.15039c21.5332 0 39.4531-17.8711 39.4531-39.4043s-17.9688-39.4043-39.502-39.4043c-21.4844 0-39.3555 17.8711-39.3555 39.4043s17.9199 39.4043 39.4043 39.4043Zm0-7.42188c-17.7246 0-31.8848-14.209-31.8848-31.9824s14.1113-31.9824 31.8359-31.9824c17.7734 0 32.0312 14.209 32.0312 31.9824s-14.209 31.9824-31.9824 31.9824Zm-17.9688-31.9824c0 2.14844 1.51367 3.61328 3.75977 3.61328h10.498v10.5957c0 2.19727 1.46484 3.71094 3.61328 3.71094 2.24609 0 3.71094-1.51367 3.71094-3.71094v-10.5957h10.5957c2.19727 0 3.71094-1.46484 3.71094-3.61328 0-2.19727-1.51367-3.71094-3.71094-3.71094h-10.5957v-10.5469c0-2.24609-1.46484-3.75977-3.71094-3.75977-2.14844 0-3.61328 1.51367-3.61328 3.75977v10.5469h-10.498c-2.24609 0-3.75977 1.51367-3.75977 3.71094Z"/>
  </g>
  <g transform="matrix(0.2 0 0 0.2 281.506 1933)">
   <path d="m58.5449 14.5508c27.2461 0 49.8047-22.6074 49.8047-49.8047 0-27.2461-22.6074-49.8047-49.8535-49.8047-27.1973 0-49.7559 22.5586-49.7559 49.8047 0 27.1973 22.6074 49.8047 49.8047 49.8047Zm0-8.30078c-23.0469 0-41.4551-18.457-41.4551-41.5039s18.3594-41.5039 41.4062-41.5039 41.5527 18.457 41.5527 41.5039-18.457 41.5039-41.5039 41.5039Zm-22.6562-41.5039c0 2.39258 1.66016 4.00391 4.15039 4.00391h14.3555v14.4043c0 2.44141 1.66016 4.15039 4.05273 4.15039 2.44141 0 4.15039-1.66016 4.15039-4.15039v-14.4043h14.4043c2.44141 0 4.15039-1.61133 4.15039-4.00391 0-2.44141-1.70898-4.15039-4.15039-4.15039h-14.4043v-14.3555c0-2.49023-1.70898-4.19922-4.15039-4.19922-2.39258 0-4.05273 1.70898-4.05273 4.19922v14.3555h-14.3555c-2.49023 0-4.15039 1.70898-4.15039 4.15039Z"/>
  </g>
  <g transform="matrix(0.2 0 0 0.2 304.924 1933)">
   <path d="m74.8535 28.3203c34.8145 0 63.623-28.8086 63.623-63.5742 0-34.8145-28.8574-63.623-63.6719-63.623-34.7656 0-63.5254 28.8086-63.5254 63.623 0 34.7656 28.8086 63.5742 63.5742 63.5742Zm0-9.08203c-30.1758 0-54.4434-24.3164-54.4434-54.4922 0-30.2246 24.2188-54.4922 54.3945-54.4922 30.2246 0 54.541 24.2676 54.541 54.4922 0 30.1758-24.2676 54.4922-54.4922 54.4922Zm-28.8574-54.4922c0 2.58789 1.85547 4.39453 4.58984 4.39453h19.7266v19.7754c0 2.68555 1.85547 4.58984 4.44336 4.58984 2.68555 0 4.54102-1.85547 4.54102-4.58984v-19.7754h19.7754c2.68555 0 4.58984-1.80664 4.58984-4.39453 0-2.73438-1.85547-4.58984-4.58984-4.58984h-19.7754v-19.7266c0-2.73438-1.85547-4.63867-4.54102-4.63867-2.58789 0-4.44336 1.9043-4.44336 4.63867v19.7266h-19.7266c-2.73438 0-4.58984 1.85547-4.58984 4.58984Z"/>
  </g>
  <text style="stroke:none;fill:black;font-family:sans-serif;font-size:13;font-weight:bold;" transform="matrix(1 0 0 1 263 1953)">Design Variations</text>
  <text style="stroke:none;fill:black;font-family:sans-serif;font-size:13;" transform="matrix(1 0 0 1 263 1971)">Symbols are supported in up to nine weights and three scales.</text>
  <text style="stroke:none;fill:black;font-family:sans-serif;font-size:13;" transform="matrix(1 0 0 1 263 1989)">For optimal layout with text and other symbols, vertically align</text>
  <text style="stroke:none;fill:black;font-family:sans-serif;font-size:13;" transform="matrix(1 0 0 1 263 2007)">symbols with the adjacent text.</text>
  <line style="fill:none;stroke:#00AEEF;stroke-width:0.5;opacity:1.0;" x1="776" x2="776" y1="1919" y2="1933"/>
  <g transform="matrix(0.2 0 0 0.2 776 1933)">
   <path d="m16.5527 0.78125c2.58789 0 3.85742-0.976562 4.78516-3.71094l6.29883-17.2363h28.8086l6.29883 17.2363c0.927734 2.73438 2.19727 3.71094 4.73633 3.71094 2.58789 0 4.24805-1.5625 4.24805-4.00391 0-0.830078-0.146484-1.61133-0.537109-2.63672l-22.9004-60.9863c-1.12305-2.97852-3.125-4.49219-6.25-4.49219-3.02734 0-5.07812 1.46484-6.15234 4.44336l-22.9004 61.084c-0.390625 1.02539-0.537109 1.80664-0.537109 2.63672 0 2.44141 1.5625 3.95508 4.10156 3.95508Zm13.4766-28.3691 11.8652-32.8613h0.244141l11.8652 32.8613Z"/>
  </g>
  <line style="fill:none;stroke:#00AEEF;stroke-width:0.5;opacity:1.0;" x1="792.836" x2="792.836" y1="1919" y2="1933"/>
  <text style="stroke:none;fill:black;font-family:sans-serif;font-size:13;font-weight:bold;" transform="matrix(1 0 0 1 776 1953)">Margins</text>
  <text style="stroke:none;fill:black;font-family:sans-serif;font-size:13;" transform="matrix(1 0 0 1 776 1971)">Leading and trailing margins on the left and right side of each symbol</text>
  <text style="stroke:none;fill:black;font-family:sans-serif;font-size:13;" transform="matrix(1 0 0 1 776 1989)">can be adjusted by modifying the x-location of the margin guidelines.</text>
  <text style="stroke:none;fill:black;font-family:sans-serif;font-size:13;" transform="matrix(1 0 0 1 776 2007)">Modifications are automatically applied proportionally to all</text>
  <text style="stroke:none;fill:black;font-family:sans-serif;font-size:13;" transform="matrix(1 0 0 1 776 2025)">scales and weights.</text>
  <g transform="matrix(0.2 0 0 0.2 1289 1933)">
   <path d="m14.209 9.32617 8.49609 8.54492c4.29688 4.3457 9.22852 4.05273 13.8672-1.07422l53.4668-58.9355-4.83398-4.88281-53.0762 58.3984c-1.75781 2.00195-3.41797 2.49023-5.76172 0.146484l-5.85938-5.81055c-2.34375-2.29492-1.80664-4.00391 0.195312-5.81055l57.373-54.0039-4.88281-4.83398-57.959 54.4434c-4.93164 4.58984-5.32227 9.47266-1.02539 13.8184Zm32.0801-90.9668c-2.09961 2.05078-2.24609 4.93164-1.07422 6.88477 1.17188 1.80664 3.4668 2.97852 6.68945 2.14844 7.32422-1.70898 14.9414-2.00195 22.0703 2.68555l-2.92969 7.27539c-1.70898 4.15039-0.830078 7.08008 1.85547 9.81445l11.4746 11.5723c2.44141 2.44141 4.49219 2.53906 7.32422 2.05078l5.32227-0.976562 3.32031 3.36914-0.195312 2.7832c-0.195312 2.49023 0.439453 4.39453 2.88086 6.78711l3.80859 3.71094c2.39258 2.39258 5.46875 2.53906 7.8125 0.195312l14.5508-14.5996c2.34375-2.34375 2.24609-5.32227-0.146484-7.71484l-3.85742-3.80859c-2.39258-2.39258-4.24805-3.17383-6.64062-2.97852l-2.88086 0.244141-3.22266-3.17383 1.2207-5.61523c0.634766-2.83203-0.146484-5.0293-3.07617-7.95898l-10.9863-10.9375c-16.6992-16.6016-38.8672-16.2109-53.3203-1.75781Zm7.4707 1.85547c12.1582-8.88672 28.6133-7.37305 39.7461 3.75977l12.1582 12.0605c1.17188 1.17188 1.36719 2.09961 1.02539 3.80859l-1.61133 7.42188 7.51953 7.42188 4.93164-0.292969c1.26953-0.0488281 1.66016 0.0488281 2.63672 1.02539l2.88086 2.88086-12.207 12.207-2.88086-2.88086c-0.976562-0.976562-1.12305-1.36719-1.07422-2.68555l0.341797-4.88281-7.4707-7.42188-7.61719 1.26953c-1.61133 0.341797-2.34375 0.195312-3.56445-0.976562l-10.0098-10.0098c-1.26953-1.17188-1.41602-2.00195-0.634766-3.85742l4.39453-10.4492c-7.8125-7.27539-17.9688-10.4004-28.125-7.42188-0.78125 0.195312-1.07422-0.439453-0.439453-0.976562Z"/>
  </g>
  <text style="stroke:none;fill:black;font-family:sans-serif;font-size:13;font-weight:bold;" transform="matrix(1 0 0 1 1289 1953)">Exporting</text>
  <text style="stroke:none;fill:black;font-family:sans-serif;font-size:13;" transform="matrix(1 0 0 1 1289 1971)">Symbols should be outlined when exporting to ensure the</text>
  <text style="stroke:none;fill:black;font-family:sans-serif;font-size:13;" transform="matrix(1 0 0 1 1289 1989)">design is preserved when submitting to Xcode.</text>
  <text id="template-version" style="stroke:none;fill:black;font-family:sans-serif;font-size:13;text-anchor:end;" transform="matrix(1 0 0 1 3036 1933)">Template v.5.0</text>
  <text style="stroke:none;fill:black;font-family:sans-serif;font-size:13;text-anchor:end;" transform="matrix(1 0 0 1 3036 1951)">Requires Xcode 15 or greater</text>
  <text id="descriptive-name" style="stroke:none;fill:black;font-family:sans-serif;font-size:13;text-anchor:end;" transform="matrix(1 0 0 1 3036 1969)">Generated from sun.dust</text>
  <text style="stroke:none;fill:black;font-family:sans-serif;font-size:13;text-anchor:end;" transform="matrix(1 0 0 1 3036 1987)">Typeset at 100.0 points</text>
  <text style="stroke:none;fill:black;font-family:sans-serif;font-size:13;" transform="matrix(1 0 0 1 263 726)">Small</text>
  <text style="stroke:none;fill:black;font-family:sans-serif;font-size:13;" transform="matrix(1 0 0 1 263 1156)">Medium</text>
  <text style="stroke:none;fill:black;font-family:sans-serif;font-size:13;" transform="matrix(1 0 0 1 263 1586)">Large</text>
 </g>
 <g id="Guides">
  <g id="H-reference" style="fill:#27AAE1;stroke:none;" transform="matrix(1 0 0 1 339 696)">
   <path d="M0.993654 0L3.63775 0L29.3281-67.1323L30.0303-67.1323L30.0303-70.459L28.1226-70.459ZM11.6885-24.4799L46.9815-24.4799L46.2315-26.7285L12.4385-26.7285ZM55.1196 0L57.7637 0L30.6382-70.459L29.4326-70.459L29.4326-67.1323Z"/>
  </g>
  <line id="Baseline-S" style="fill:none;stroke:#27AAE1;opacity:1;stroke-width:0.5;" x1="263" x2="3036" y1="696" y2="696"/>
  <line id="Capline-S" style="fill:none;stroke:#27AAE1;opacity:1;stroke-width:0.5;" x1="263" x2="3036" y1="625.541" y2="625.541"/>
  <g id="H-reference" style="fill:#27AAE1;stroke:none;" transform="matrix(1 0 0 1 339 1126)">
   <path d="M0.993654 0L3.63775 0L29.3281-67.1323L30.0303-67.1323L30.0303-70.459L28.1226-70.459ZM11.6885-24.4799L46.9815-24.4799L46.2315-26.7285L12.4385-26.7285ZM55.1196 0L57.7637 0L30.6382-70.459L29.4326-70.459L29.4326-67.1323Z"/>
  </g>
  <line id="Baseline-M" style="fill:none;stroke:#27AAE1;opacity:1;stroke-width:0.5;" x1="263" x2="3036" y1="1126" y2="1126"/>
  <line id="Capline-M" style="fill:none;stroke:#27AAE1;opacity:1;stroke-width:0.5;" x1="263" x2="3036" y1="1055.54" y2="1055.54"/>
  <g id="H-reference" style="fill:#27AAE1;stroke:none;" transform="matrix(1 0 0 1 339 1556)">
   <path d="M0.993654 0L3.63775 0L29.3281-67.1323L30.0303-67.1323L30.0303-70.459L28.1226-70.459ZM11.6885-24.4799L46.9815-24.4799L46.2315-26.7285L12.4385-26.7285ZM55.1196 0L57.7637 0L30.6382-70.459L29.4326-70.459L29.4326-67.1323Z"/>
  </g>
  <line id="Baseline-L" style="fill:none;stroke:#27AAE1;opacity:1;stroke-width:0.5;" x1="263" x2="3036" y1="1556" y2="1556"/>
  <line id="Capline-L" style="fill:none;stroke:#27AAE1;opacity:1;stroke-width:0.5;" x1="263" x2="3036" y1="1485.54" y2="1485.54"/>
  <line id="left-margin-Ultralight-S" style="fill:none;stroke:#00AEEF;stroke-width:0.5;opacity:1.0;" x1="505.805" x2="505.805" y1="600.785" y2="720.121"/>
  <line id="right-margin-Ultralight-S" style="fill:none;stroke:#00AEEF;stroke-width:0.5;opacity:1.0;" x1="613.617" x2="613.617" y1="600.785" y2="720.121"/>
  <line id="left-margin-Regular-S" style="fill:none;stroke:#00AEEF;stroke-width:0.5;opacity:1.0;" x1="1395.94" x2="1395.94" y1="600.785" y2="720.121"/>
  <line id="right-margin-Regular-S" style="fill:none;stroke:#00AEEF;stroke-width:0.5;opacity:1.0;" x1="1503.75" x2="1503.75" y1="600.785" y2="720.121"/>
  <line id="left-margin-Black-S" style="fill:none;stroke:#00AEEF;stroke-width:0.5;opacity:1.0;" x1="2879.49" x2="2879.49" y1="600.785" y2="720.121"/>
  <line id="right-margin-Black-S" style="fill:none;stroke:#00AEEF;stroke-width:0.5;opacity:1.0;" x1="2987.31" x2="2987.31" y1="600.785" y2="720.121"/>
 </g>
 <g id="Symbols">
  <g id="Black-S" transform="matrix(1 0 0 1 2879.49 696)">
   <path class="SFSymbolsPreviewWireframe" d="M36.377-26.416L51.416-26.416C46.4844-27.5391 42.8223-32.0312 42.8223-37.4512C42.8223-43.6523 47.8027-48.6328 53.9062-48.6328C60.0098-48.6328 64.9902-43.6523 64.9902-37.4512C64.9902-32.0312 61.3281-27.5391 56.3965-26.416L71.4355-26.416C73.9258-29.6387 75-33.3984 75-37.4512C75-49.1699 65.5762-58.6426 53.9062-58.6426C42.2363-58.6426 32.8125-49.2188 32.8125-37.4512C32.8125-33.3984 33.9355-29.6387 36.377-26.416ZM14.6484-34.5215L20.8984-34.4727C23.584-34.4727 25.7812-36.6699 25.7812-39.3066C25.7812-41.9434 23.584-44.0918 20.8984-44.0918L14.6484-44.0918C12.0117-44.0918 9.76562-41.9434 9.76562-39.3066C9.76562-36.6699 12.0605-34.5215 14.6484-34.5215ZM34.0332-57.2266C35.8887-59.082 35.8398-62.207 33.9844-64.0625L29.541-68.457C27.6367-70.3613 24.5605-70.4102 22.7051-68.5547C20.8496-66.6992 20.8496-63.5742 22.7539-61.6699L27.1973-57.3242C29.0527-55.4688 32.1777-55.3711 34.0332-57.2266ZM53.9062-65.4785C56.543-65.4785 58.6914-67.7246 58.6914-70.3613L58.6914-76.6113C58.6914-79.2969 56.543-81.4941 53.9062-81.4941C51.2695-81.4941 49.1211-79.2969 49.1211-76.6113L49.1211-70.3613C49.1211-67.7246 51.2695-65.4785 53.9062-65.4785ZM73.7793-57.2266C75.6348-55.3711 78.7598-55.4688 80.6152-57.3242L85.0586-61.6699C86.9629-63.5742 86.9629-66.6992 85.1074-68.5547C83.252-70.4102 80.1758-70.3613 78.2715-68.457L73.8281-64.0625C71.9727-62.207 71.9238-59.082 73.7793-57.2266ZM86.9141-34.5215L93.1641-34.4727C95.8496-34.4727 98.0469-36.6699 98.0469-39.3066C98.0469-41.9434 95.8496-44.0918 93.1641-44.0918L86.9141-44.0918C84.2773-44.0918 82.0312-41.9434 82.0312-39.3066C82.0312-36.6699 84.3262-34.5215 86.9141-34.5215ZM16.2598-19.9707L91.5527-19.9707C93.6035-19.9707 95.166-21.3867 95.166-23.291C95.166-25.1953 93.6035-26.6113 91.5527-26.6113L16.2598-26.6113C14.209-26.6113 12.6465-25.1953 12.6465-23.291C12.6465-21.3867 14.209-19.9707 16.2598-19.9707ZM18.4082-7.56836C19.7754-7.56836 20.8496-8.64258 20.8496-10.0098C20.8496-11.377 19.7754-12.4512 18.4082-12.4512C17.041-12.4512 15.9668-11.377 15.9668-10.0098C15.9668-8.64258 17.041-7.56836 18.4082-7.56836ZM34.5703-7.56836C35.9375-7.56836 37.0117-8.64258 37.0117-10.0098C37.0117-11.377 35.9375-12.4512 34.5703-12.4512C33.2031-12.4512 32.1289-11.377 32.1289-10.0098C32.1289-8.64258 33.2031-7.56836 34.5703-7.56836ZM50.7324-7.56836C52.0996-7.56836 53.1738-8.64258 53.1738-10.0098C53.1738-11.377 52.0996-12.4512 50.7324-12.4512C49.3652-12.4512 48.291-11.377 48.291-10.0098C48.291-8.64258 49.3652-7.56836 50.7324-7.56836ZM66.8945-7.56836C68.2617-7.56836 69.3359-8.64258 69.3359-10.0098C69.3359-11.377 68.2617-12.4512 66.8945-12.4512C65.5273-12.4512 64.4531-11.377 64.4531-10.0098C64.4531-8.64258 65.5273-7.56836 66.8945-7.56836ZM83.0566-7.56836C84.4238-7.56836 85.498-8.64258 85.498-10.0098C85.498-11.377 84.4238-12.4512 83.0566-12.4512C81.6895-12.4512 80.6152-11.377 80.6152-10.0098C80.6152-8.64258 81.6895-7.56836 83.0566-7.56836ZM13.5254 1.70898C14.8926 1.70898 15.9668 0.634766 15.9668-0.732422C15.9668-2.09961 14.8926-3.17383 13.5254-3.17383C12.1582-3.17383 11.084-2.09961 11.084-0.732422C11.084 0.634766 12.1582 1.70898 13.5254 1.70898ZM29.6875 1.70898C31.0547 1.70898 32.1289 0.634766 32.1289-0.732422C32.1289-2.09961 31.0547-3.17383 29.6875-3.17383C28.3203-3.17383 27.2461-2.09961 27.2461-0.732422C27.2461 0.634766 28.3203 1.70898 29.6875 1.70898ZM45.8496 1.70898C47.2168 1.70898 48.291 0.634766 48.291-0.732422C48.291-2.09961 47.2168-3.17383 45.8496-3.17383C44.4824-3.17383 43.4082-2.09961 43.4082-0.732422C43.4082 0.634766 44.4824 1.70898 45.8496 1.70898ZM62.0117 1.70898C63.3789 1.70898 64.4531 0.634766 64.4531-0.732422C64.4531-2.09961 63.3789-3.17383 62.0117-3.17383C60.6445-3.17383 59.5703-2.09961 59.5703-0.732422C59.5703 0.634766 60.6445 1.70898 62.0117 1.70898ZM78.1738 1.70898C79.541 1.70898 80.6152 0.634766 80.6152-0.732422C80.6152-2.09961 79.541-3.17383 78.1738-3.17383C76.8066-3.17383 75.7324-2.09961 75.7324-0.732422C75.7324 0.634766 76.8066 1.70898 78.1738 1.70898ZM94.3359 1.70898C95.7031 1.70898 96.7773 0.634766 96.7773-0.732422C96.7773-2.09961 95.7031-3.17383 94.3359-3.17383C92.9688-3.17383 91.8945-2.09961 91.8945-0.732422C91.8945 0.634766 92.9688 1.70898 94.3359 1.70898ZM24.8047 10.9863C26.1719 10.9863 27.2461 9.91211 27.2461 8.54492C27.2461 7.17773 26.1719 6.10352 24.8047 6.10352C23.4375 6.10352 22.3633 7.17773 22.3633 8.54492C22.3633 9.91211 23.4375 10.9863 24.8047 10.9863ZM40.9668 10.9863C42.334 10.9863 43.4082 9.91211 43.4082 8.54492C43.4082 7.17773 42.334 6.10352 40.9668 6.10352C39.5996 6.10352 38.5254 7.17773 38.5254 8.54492C38.5254 9.91211 39.5996 10.9863 40.9668 10.9863ZM57.1289 10.9863C58.4961 10.9863 59.5703 9.91211 59.5703 8.54492C59.5703 7.17773 58.4961 6.10352 57.1289 6.10352C55.7617 6.10352 54.6875 7.17773 54.6875 8.54492C54.6875 9.91211 55.7617 10.9863 57.1289 10.9863ZM73.291 10.9863C74.6582 10.9863 75.7324 9.91211 75.7324 8.54492C75.7324 7.17773 74.6582 6.10352 73.291 6.10352C71.9238 6.10352 70.8496 7.17773 70.8496 8.54492C70.8496 9.91211 71.9238 10.9863 73.291 10.9863ZM89.4531 10.9863C90.8203 10.9863 91.8945 9.91211 91.8945 8.54492C91.8945 7.17773 90.8203 6.10352 89.4531 6.10352C88.0859 6.10352 87.0117 7.17773 87.0117 8.54492C87.0117 9.91211 88.0859 10.9863 89.4531 10.9863Z"/>
  </g>
  <g id="Regular-S" transform="matrix(1 0 0 1 1395.94 696)">
   <path class="SFSymbolsPreviewWireframe" d="M37.4512-24.0234L48.9746-24.0234C43.6523-25.9766 39.7949-31.2012 39.7949-37.207C39.7949-44.9219 46.1914-51.3184 53.9062-51.3184C61.6211-51.3184 68.0176-44.9219 68.0176-37.207C68.0176-31.2012 64.1602-25.9766 58.8379-24.0234L70.3613-24.0234C73.3398-27.6367 75.0488-32.2266 75.0488-37.207C75.0488-48.7793 65.4297-58.3984 53.9062-58.3984C42.3828-58.3984 32.7637-48.7793 32.7637-37.207C32.7637-32.2266 34.4727-27.6367 37.4512-24.0234ZM13.7207-34.6191L22.0703-34.6191C24.3164-34.6191 26.0742-36.1816 26.0254-38.1836C25.9766-40.1367 24.3164-41.748 22.0703-41.748L13.7207-41.748C11.4258-41.748 9.76562-40.1367 9.76562-38.1836C9.76562-36.1816 11.4258-34.6191 13.7207-34.6191ZM34.1797-56.9336C35.5469-58.3008 35.5469-60.6445 33.8867-62.2559L27.9785-68.1641C26.3672-69.8242 24.1211-69.7266 22.7051-68.4082C21.2891-67.041 21.2891-64.7461 22.9492-63.0859L28.8574-57.1777C30.4688-55.5664 32.8125-55.5176 34.1797-56.9336ZM53.9062-65.0879C55.8594-65.1367 57.4707-66.748 57.4707-69.043L57.4707-77.3926C57.4707-79.6875 55.8594-81.3477 53.9062-81.3477C51.9531-81.3477 50.3418-79.6875 50.3418-77.3926L50.3418-69.043C50.3418-66.748 51.9531-65.0391 53.9062-65.0879ZM73.6328-56.9336C75.0488-55.5664 77.3438-55.5664 78.9551-57.1777L84.8633-63.0859C86.5234-64.7461 86.4746-66.9922 85.1074-68.4082C83.7402-69.7754 81.4453-69.8242 79.834-68.1641L73.9258-62.2559C72.2656-60.6445 72.2168-58.252 73.6328-56.9336ZM85.7422-34.6191L94.0918-34.6191C96.3867-34.6191 98.0469-36.1816 98.0469-38.1836C98.0469-40.1367 96.3867-41.748 94.0918-41.748L85.7422-41.748C83.4961-41.748 81.7383-40.1367 81.7871-38.1836C81.8359-36.1816 83.4961-34.6191 85.7422-34.6191ZM15.2344-19.9219L92.3828-19.9219C93.8965-19.9219 95.0684-21.0938 95.0684-22.6562C95.0684-24.1699 93.8965-25.3906 92.3828-25.3906L15.2344-25.3906C13.7207-25.3906 12.5488-24.1699 12.5488-22.6562C12.5488-21.0938 13.7207-19.9219 15.2344-19.9219ZM18.4082-7.71484C19.5801-7.71484 20.459-8.64258 20.459-9.81445C20.459-10.9375 19.5801-11.8652 18.4082-11.8652C17.2363-11.8652 16.3574-10.9375 16.3574-9.81445C16.3574-8.64258 17.2363-7.71484 18.4082-7.71484ZM34.5703-7.71484C35.7422-7.71484 36.6211-8.64258 36.6211-9.81445C36.6211-10.9375 35.7422-11.8652 34.5703-11.8652C33.3984-11.8652 32.5195-10.9375 32.5195-9.81445C32.5195-8.64258 33.3984-7.71484 34.5703-7.71484ZM50.7324-7.71484C51.9043-7.71484 52.7832-8.64258 52.7832-9.81445C52.7832-10.9375 51.9043-11.8652 50.7324-11.8652C49.5605-11.8652 48.6816-10.9375 48.6816-9.81445C48.6816-8.64258 49.5605-7.71484 50.7324-7.71484ZM66.8945-7.71484C68.0664-7.71484 68.9453-8.64258 68.9453-9.81445C68.9453-10.9375 68.0664-11.8652 66.8945-11.8652C65.7227-11.8652 64.8438-10.9375 64.8438-9.81445C64.8438-8.64258 65.7227-7.71484 66.8945-7.71484ZM83.0566-7.71484C84.2285-7.71484 85.1074-8.64258 85.1074-9.81445C85.1074-10.9375 84.2285-11.8652 83.0566-11.8652C81.8848-11.8652 81.0059-10.9375 81.0059-9.81445C81.0059-8.64258 81.8848-7.71484 83.0566-7.71484ZM13.5254 1.5625C14.6973 1.5625 15.5762 0.634766 15.5762-0.537109C15.5762-1.66016 14.6973-2.58789 13.5254-2.58789C12.3535-2.58789 11.4746-1.66016 11.4746-0.537109C11.4746 0.634766 12.3535 1.5625 13.5254 1.5625ZM29.6875 1.5625C30.8594 1.5625 31.7383 0.634766 31.7383-0.537109C31.7383-1.66016 30.8594-2.58789 29.6875-2.58789C28.5156-2.58789 27.6367-1.66016 27.6367-0.537109C27.6367 0.634766 28.5156 1.5625 29.6875 1.5625ZM45.8496 1.5625C47.0215 1.5625 47.9004 0.634766 47.9004-0.537109C47.9004-1.66016 47.0215-2.58789 45.8496-2.58789C44.6777-2.58789 43.7988-1.66016 43.7988-0.537109C43.7988 0.634766 44.6777 1.5625 45.8496 1.5625ZM62.0117 1.5625C63.1836 1.5625 64.0625 0.634766 64.0625-0.537109C64.0625-1.66016 63.1836-2.58789 62.0117-2.58789C60.8398-2.58789 59.9609-1.66016 59.9609-0.537109C59.9609 0.634766 60.8398 1.5625 62.0117 1.5625ZM78.1738 1.5625C79.3457 1.5625 80.2246 0.634766 80.2246-0.537109C80.2246-1.66016 79.3457-2.58789 78.1738-2.58789C77.002-2.58789 76.123-1.66016 76.123-0.537109C76.123 0.634766 77.002 1.5625 78.1738 1.5625ZM94.3359 1.5625C95.5078 1.5625 96.3867 0.634766 96.3867-0.537109C96.3867-1.66016 95.5078-2.58789 94.3359-2.58789C93.1641-2.58789 92.2852-1.66016 92.2852-0.537109C92.2852 0.634766 93.1641 1.5625 94.3359 1.5625ZM24.8047 10.8398C25.9766 10.8398 26.8555 9.91211 26.8555 8.74023C26.8555 7.61719 25.9766 6.68945 24.8047 6.68945C23.6328 6.68945 22.7539 7.61719 22.7539 8.74023C22.7539 9.91211 23.6328 10.8398 24.8047 10.8398ZM40.9668 10.8398C42.1387 10.8398 43.0176 9.91211 43.0176 8.74023C43.0176 7.61719 42.1387 6.68945 40.9668 6.68945C39.7949 6.68945 38.916 7.61719 38.916 8.74023C38.916 9.91211 39.7949 10.8398 40.9668 10.8398ZM57.1289 10.8398C58.3008 10.8398 59.1797 9.91211 59.1797 8.74023C59.1797 7.61719 58.3008 6.68945 57.1289 6.68945C55.957 6.68945 55.0781 7.61719 55.0781 8.74023C55.0781 9.91211 55.957 10.8398 57.1289 10.8398ZM73.291 10.8398C74.4629 10.8398 75.3418 9.91211 75.3418 8.74023C75.3418 7.61719 74.4629 6.68945 73.291 6.68945C72.1191 6.68945 71.2402 7.61719 71.2402 8.74023C71.2402 9.91211 72.1191 10.8398 73.291 10.8398ZM89.4531 10.8398C90.625 10.8398 91.5039 9.91211 91.5039 8.74023C91.5039 7.61719 90.625 6.68945 89.4531 6.68945C88.2812 6.68945 87.4023 7.61719 87.4023 8.74023C87.4023 9.91211 88.2812 10.8398 89.4531 10.8398Z"/>
  </g>
  <g id="Ultralight-S" transform="matrix(1 0 0 1 505.805 696)">
   <path class="SFSymbolsPreviewWireframe" d="M40.4028-22.3887L43.8433-22.3887C39.2476-25.5679 36.2075-30.8833 36.2075-36.8892C36.2075-46.6474 44.148-54.5879 53.9062-54.5879C63.6645-54.5879 71.605-46.6474 71.605-36.8892C71.605-30.8833 68.5649-25.5679 63.9692-22.3887L67.4097-22.3887C71.2964-26.002 73.7319-31.1367 73.7319-36.8892C73.7319-47.8257 64.8394-56.7183 53.9062-56.7183C42.9731-56.7183 34.0806-47.8257 34.0806-36.8892C34.0806-31.1367 36.5161-26.002 40.4028-22.3887ZM10.8145-36.7988L24.9765-36.7988C25.5879-36.7988 26.0288-37.2715 26.0254-37.8657C26.022-38.3657 25.5879-38.9326 24.9765-38.9326L10.8145-38.9326C10.2451-38.9326 9.76562-38.4111 9.76562-37.8657C9.76562-37.3169 10.2451-36.7988 10.8145-36.7988ZM34.1797-56.6157C34.5933-56.9839 34.5933-57.7383 34.2046-58.0782L24.1641-68.1187C23.7334-68.5527 23.0313-68.4551 22.7051-68.0903C22.2427-67.6768 22.1973-67.062 22.6768-66.6279L32.7173-56.5874C33.0571-56.2021 33.7661-56.1987 34.1797-56.6157ZM53.9062-64.77C54.4517-64.7734 54.9732-65.2495 54.9732-65.7735L54.9732-79.9809C54.9732-80.5503 54.4517-81.0298 53.9062-81.0298C53.3608-81.0298 52.8393-80.5503 52.8393-79.9809L52.8393-65.7735C52.8393-65.2495 53.3608-64.7666 53.9062-64.77ZM73.6328-56.6157C74.0498-56.2021 74.7554-56.2021 75.0952-56.5874L85.1357-66.6279C85.6152-67.062 85.5664-67.6733 85.1074-68.0903C84.7392-68.4585 84.0791-68.5527 83.6484-68.1187L73.6079-58.0782C73.2192-57.7383 73.2158-56.9805 73.6328-56.6157ZM82.836-36.7988L96.998-36.7988C97.6128-36.7988 98.0469-37.2715 98.0469-37.8657C98.0469-38.3657 97.6128-38.9326 96.998-38.9326L82.836-38.9326C82.27-38.9326 81.7837-38.4111 81.7871-37.8657C81.7905-37.3169 82.27-36.7988 82.836-36.7988ZM13.7813-21.3296L94.0176-21.3296C94.623-21.3296 95.1592-21.7295 95.1592-22.3384C95.1592-22.8984 94.623-23.3472 94.0176-23.3472L13.7813-23.3472C13.1758-23.3472 12.6396-22.8984 12.6396-22.3384C12.6396-21.7295 13.1758-21.3296 13.7813-21.3296ZM18.4082-8.03271C19.2622-8.03271 19.9141-8.68799 19.9141-9.54199C19.9141-10.3926 19.2622-11.0479 18.4082-11.0479C17.5542-11.0479 16.9023-10.3926 16.9023-9.54199C16.9023-8.68799 17.5542-8.03271 18.4082-8.03271ZM34.5703-8.03271C35.4243-8.03271 36.0762-8.68799 36.0762-9.54199C36.0762-10.3926 35.4243-11.0479 34.5703-11.0479C33.7163-11.0479 33.0644-10.3926 33.0644-9.54199C33.0644-8.68799 33.7163-8.03271 34.5703-8.03271ZM50.7324-8.03271C51.5864-8.03271 52.2383-8.68799 52.2383-9.54199C52.2383-10.3926 51.5864-11.0479 50.7324-11.0479C49.8784-11.0479 49.2266-10.3926 49.2266-9.54199C49.2266-8.68799 49.8784-8.03271 50.7324-8.03271ZM66.8945-8.03271C67.7485-8.03271 68.4004-8.68799 68.4004-9.54199C68.4004-10.3926 67.7485-11.0479 66.8945-11.0479C66.0405-11.0479 65.3887-10.3926 65.3887-9.54199C65.3887-8.68799 66.0405-8.03271 66.8945-8.03271ZM83.0566-8.03271C83.9106-8.03271 84.5625-8.68799 84.5625-9.54199C84.5625-10.3926 83.9106-11.0479 83.0566-11.0479C82.2026-11.0479 81.5508-10.3926 81.5508-9.54199C81.5508-8.68799 82.2026-8.03271 83.0566-8.03271ZM13.5254 1.24463C14.3794 1.24463 15.0313 0.589356 15.0313-0.264651C15.0313-1.11524 14.3794-1.77051 13.5254-1.77051C12.6714-1.77051 12.0195-1.11524 12.0195-0.264651C12.0195 0.589356 12.6714 1.24463 13.5254 1.24463ZM29.6875 1.24463C30.5415 1.24463 31.1934 0.589356 31.1934-0.264651C31.1934-1.11524 30.5415-1.77051 29.6875-1.77051C28.8335-1.77051 28.1816-1.11524 28.1816-0.264651C28.1816 0.589356 28.8335 1.24463 29.6875 1.24463ZM45.8496 1.24463C46.7036 1.24463 47.3555 0.589356 47.3555-0.264651C47.3555-1.11524 46.7036-1.77051 45.8496-1.77051C44.9956-1.77051 44.3437-1.11524 44.3437-0.264651C44.3437 0.589356 44.9956 1.24463 45.8496 1.24463ZM62.0117 1.24463C62.8657 1.24463 63.5176 0.589356 63.5176-0.264651C63.5176-1.11524 62.8657-1.77051 62.0117-1.77051C61.1577-1.77051 60.5059-1.11524 60.5059-0.264651C60.5059 0.589356 61.1577 1.24463 62.0117 1.24463ZM78.1738 1.24463C79.0278 1.24463 79.6797 0.589356 79.6797-0.264651C79.6797-1.11524 79.0278-1.77051 78.1738-1.77051C77.3198-1.77051 76.668-1.11524 76.668-0.264651C76.668 0.589356 77.3198 1.24463 78.1738 1.24463ZM94.3359 1.24463C95.1899 1.24463 95.8418 0.589356 95.8418-0.264651C95.8418-1.11524 95.1899-1.77051 94.3359-1.77051C93.4819-1.77051 92.8301-1.11524 92.8301-0.264651C92.8301 0.589356 93.4819 1.24463 94.3359 1.24463ZM24.8047 10.522C25.6587 10.522 26.3106 9.8667 26.3106 9.01269C26.3106 8.16211 25.6587 7.50683 24.8047 7.50683C23.9507 7.50683 23.2988 8.16211 23.2988 9.01269C23.2988 9.8667 23.9507 10.522 24.8047 10.522ZM40.9668 10.522C41.8208 10.522 42.4727 9.8667 42.4727 9.01269C42.4727 8.16211 41.8208 7.50683 40.9668 7.50683C40.1128 7.50683 39.4609 8.16211 39.4609 9.01269C39.4609 9.8667 40.1128 10.522 40.9668 10.522ZM57.1289 10.522C57.9829 10.522 58.6348 9.8667 58.6348 9.01269C58.6348 8.16211 57.9829 7.50683 57.1289 7.50683C56.2749 7.50683 55.623 8.16211 55.623 9.01269C55.623 9.8667 56.2749 10.522 57.1289 10.522ZM73.291 10.522C74.145 10.522 74.7969 9.8667 74.7969 9.01269C74.7969 8.16211 74.145 7.50683 73.291 7.50683C72.437 7.50683 71.7852 8.16211 71.7852 9.01269C71.7852 9.8667 72.437 10.522 73.291 10.522ZM89.4531 10.522C90.3071 10.522 90.959 9.8667 90.959 9.01269C90.959 8.16211 90.3071 7.50683 89.4531 7.50683C88.5991 7.50683 87.9473 8.16211 87.9473 9.01269C87.9473 9.8667 88.5991 10.522 89.4531 10.522Z"/>
  </g>
 </g>
</svg>
