<?xml version="1.0" encoding="UTF-8"?>
<!--Generator: Apple Native CoreSVG 232.5-->
<!DOCTYPE svg
PUBLIC "-//W3C//DTD SVG 1.1//EN"
       "http://www.w3.org/Graphics/SVG/1.1/DTD/svg11.dtd">
<svg version="1.1" xmlns="http://www.w3.org/2000/svg" xmlns:xlink="http://www.w3.org/1999/xlink" width="3300" height="2200">
 <!--glyph: "uni101DCC.medium", point size: 100.0, font version: "19.2d2e1", template writer version: "128"-->
 <style>.SFSymbolsPreviewWireframe {fill:none;opacity:1.0;stroke:black;stroke-width:0.5}
</style>
 <g id="Notes">
  <rect height="2200" id="artboard" style="fill:white;opacity:1" width="3300" x="0" y="0"/>
  <line style="fill:none;stroke:black;opacity:1;stroke-width:0.5;" x1="263" x2="3036" y1="292" y2="292"/>
  <text style="stroke:none;fill:black;font-family:sans-serif;font-size:13;font-weight:bold;" transform="matrix(1 0 0 1 263 322)">Weight/Scale Variations</text>
  <text style="stroke:none;fill:black;font-family:sans-serif;font-size:13;text-anchor:middle;" transform="matrix(1 0 0 1 559.711 322)">Ultralight</text>
  <text style="stroke:none;fill:black;font-family:sans-serif;font-size:13;text-anchor:middle;" transform="matrix(1 0 0 1 856.422 322)">Thin</text>
  <text style="stroke:none;fill:black;font-family:sans-serif;font-size:13;text-anchor:middle;" transform="matrix(1 0 0 1 1153.13 322)">Light</text>
  <text style="stroke:none;fill:black;font-family:sans-serif;font-size:13;text-anchor:middle;" transform="matrix(1 0 0 1 1449.84 322)">Regular</text>
  <text style="stroke:none;fill:black;font-family:sans-serif;font-size:13;text-anchor:middle;" transform="matrix(1 0 0 1 1746.56 322)">Medium</text>
  <text style="stroke:none;fill:black;font-family:sans-serif;font-size:13;text-anchor:middle;" transform="matrix(1 0 0 1 2043.27 322)">Semibold</text>
  <text style="stroke:none;fill:black;font-family:sans-serif;font-size:13;text-anchor:middle;" transform="matrix(1 0 0 1 2339.98 322)">Bold</text>
  <text style="stroke:none;fill:black;font-family:sans-serif;font-size:13;text-anchor:middle;" transform="matrix(1 0 0 1 2636.69 322)">Heavy</text>
  <text style="stroke:none;fill:black;font-family:sans-serif;font-size:13;text-anchor:middle;" transform="matrix(1 0 0 1 2933.4 322)">Black</text>
  <line style="fill:none;stroke:black;opacity:1;stroke-width:0.5;" x1="263" x2="3036" y1="1903" y2="1903"/>
  <g transform="matrix(0.2 0 0 0.2 263 1933)">
   <path d="m46.2402 4.15039c21.5332 0 39.4531-17.8711 39.4531-39.4043s-17.9688-39.4043-39.502-39.4043c-21.4844 0-39.3555 17.8711-39.3555 39.4043s17.9199 39.4043 39.4043 39.4043Zm0-7.42188c-17.7246 0-31.8848-14.209-31.8848-31.9824s14.1113-31.9824 31.8359-31.9824c17.7734 0 32.0312 14.209 32.0312 31.9824s-14.209 31.9824-31.9824 31.9824Zm-17.9688-31.9824c0 2.14844 1.51367 3.61328 3.75977 3.61328h10.498v10.5957c0 2.19727 1.46484 3.71094 3.61328 3.71094 2.24609 0 3.71094-1.51367 3.71094-3.71094v-10.5957h10.5957c2.19727 0 3.71094-1.46484 3.71094-3.61328 0-2.19727-1.51367-3.71094-3.71094-3.71094h-10.5957v-10.5469c0-2.24609-1.46484-3.75977-3.71094-3.75977-2.14844 0-3.61328 1.51367-3.61328 3.75977v10.5469h-10.498c-2.24609 0-3.75977 1.51367-3.75977 3.71094Z"/>
  </g>
  <g transform="matrix(0.2 0 0 0.2 281.506 1933)">
   <path d="m58.5449 14.5508c27.2461 0 49.8047-22.6074 49.8047-49.8047 0-27.2461-22.6074-49.8047-49.8535-49.8047-27.1973 0-49.7559 22.5586-49.7559 49.8047 0 27.1973 22.6074 49.8047 49.8047 49.8047Zm0-8.30078c-23.0469 0-41.4551-18.457-41.4551-41.5039s18.3594-41.5039 41.4062-41.5039 41.5527 18.457 41.5527 41.5039-18.457 41.5039-41.5039 41.5039Zm-22.6562-41.5039c0 2.39258 1.66016 4.00391 4.15039 4.00391h14.3555v14.4043c0 2.44141 1.66016 4.15039 4.05273 4.15039 2.44141 0 4.15039-1.66016 4.15039-4.15039v-14.4043h14.4043c2.44141 0 4.15039-1.61133 4.15039-4.00391 0-2.44141-1.70898-4.15039-4.15039-4.15039h-14.4043v-14.3555c0-2.49023-1.70898-4.19922-4.15039-4.19922-2.39258 0-4.05273 1.70898-4.05273 4.19922v14.3555h-14.3555c-2.49023 0-4.15039 1.70898-4.15039 4.15039Z"/>
  </g>
  <g transform="matrix(0.2 0 0 0.2 304.924 1933)">
   <path d="m74.8535 28.3203c34.8145 0 63.623-28.8086 63.623-63.5742 0-34.8145-28.8574-63.623-63.6719-63.623-34.7656 0-63.5254 28.8086-63.5254 63.623 0 34.7656 28.8086 63.5742 63.5742 63.5742Zm0-9.08203c-30.1758 0-54.4434-24.3164-54.4434-54.4922 0-30.2246 24.2188-54.4922 54.3945-54.4922 30.2246 0 54.541 24.2676 54.541 54.4922 0 30.1758-24.2676 54.4922-54.4922 54.4922Zm-28.8574-54.4922c0 2.58789 1.85547 4.39453 4.58984 4.39453h19.7266v19.7754c0 2.68555 1.85547 4.58984 4.44336 4.58984 2.68555 0 4.54102-1.85547 4.54102-4.58984v-19.7754h19.7754c2.68555 0 4.58984-1.80664 4.58984-4.39453 0-2.73438-1.85547-4.58984-4.58984-4.58984h-19.7754v-19.7266c0-2.73438-1.85547-4.63867-4.54102-4.63867-2.58789 0-4.44336 1.9043-4.44336 4.63867v19.7266h-19.7266c-2.73438 0-4.58984 1.85547-4.58984 4.58984Z"/>
  </g>
  <text style="stroke:none;fill:black;font-family:sans-serif;font-size:13;font-weight:bold;" transform="matrix(1 0 0 1 263 1953)">Design Variations</text>
  <text style="stroke:none;fill:black;font-family:sans-serif;font-size:13;" transform="matrix(1 0 0 1 263 1971)">Symbols are supported in up to nine weights and three scales.</text>
  <text style="stroke:none;fill:black;font-family:sans-serif;font-size:13;" transform="matrix(1 0 0 1 263 1989)">For optimal layout with text and other symbols, vertically align</text>
  <text style="stroke:none;fill:black;font-family:sans-serif;font-size:13;" transform="matrix(1 0 0 1 263 2007)">symbols with the adjacent text.</text>
  <line style="fill:none;stroke:#00AEEF;stroke-width:0.5;opacity:1.0;" x1="776" x2="776" y1="1919" y2="1933"/>
  <g transform="matrix(0.2 0 0 0.2 776 1933)">
   <path d="m16.5527 0.78125c2.58789 0 3.85742-0.976562 4.78516-3.71094l6.29883-17.2363h28.8086l6.29883 17.2363c0.927734 2.73438 2.19727 3.71094 4.73633 3.71094 2.58789 0 4.24805-1.5625 4.24805-4.00391 0-0.830078-0.146484-1.61133-0.537109-2.63672l-22.9004-60.9863c-1.12305-2.97852-3.125-4.49219-6.25-4.49219-3.02734 0-5.07812 1.46484-6.15234 4.44336l-22.9004 61.084c-0.390625 1.02539-0.537109 1.80664-0.537109 2.63672 0 2.44141 1.5625 3.95508 4.10156 3.95508Zm13.4766-28.3691 11.8652-32.8613h0.244141l11.8652 32.8613Z"/>
  </g>
  <line style="fill:none;stroke:#00AEEF;stroke-width:0.5;opacity:1.0;" x1="792.836" x2="792.836" y1="1919" y2="1933"/>
  <text style="stroke:none;fill:black;font-family:sans-serif;font-size:13;font-weight:bold;" transform="matrix(1 0 0 1 776 1953)">Margins</text>
  <text style="stroke:none;fill:black;font-family:sans-serif;font-size:13;" transform="matrix(1 0 0 1 776 1971)">Leading and trailing margins on the left and right side of each symbol</text>
  <text style="stroke:none;fill:black;font-family:sans-serif;font-size:13;" transform="matrix(1 0 0 1 776 1989)">can be adjusted by modifying the x-location of the margin guidelines.</text>
  <text style="stroke:none;fill:black;font-family:sans-serif;font-size:13;" transform="matrix(1 0 0 1 776 2007)">Modifications are automatically applied proportionally to all</text>
  <text style="stroke:none;fill:black;font-family:sans-serif;font-size:13;" transform="matrix(1 0 0 1 776 2025)">scales and weights.</text>
  <g transform="matrix(0.2 0 0 0.2 1289 1933)">
   <path d="m14.209 9.32617 8.49609 8.54492c4.29688 4.3457 9.22852 4.05273 13.8672-1.07422l53.4668-58.9355-4.83398-4.88281-53.0762 58.3984c-1.75781 2.00195-3.41797 2.49023-5.76172 0.146484l-5.85938-5.81055c-2.34375-2.29492-1.80664-4.00391 0.195312-5.81055l57.373-54.0039-4.88281-4.83398-57.959 54.4434c-4.93164 4.58984-5.32227 9.47266-1.02539 13.8184Zm32.0801-90.9668c-2.09961 2.05078-2.24609 4.93164-1.07422 6.88477 1.17188 1.80664 3.4668 2.97852 6.68945 2.14844 7.32422-1.70898 14.9414-2.00195 22.0703 2.68555l-2.92969 7.27539c-1.70898 4.15039-0.830078 7.08008 1.85547 9.81445l11.4746 11.5723c2.44141 2.44141 4.49219 2.53906 7.32422 2.05078l5.32227-0.976562 3.32031 3.36914-0.195312 2.7832c-0.195312 2.49023 0.439453 4.39453 2.88086 6.78711l3.80859 3.71094c2.39258 2.39258 5.46875 2.53906 7.8125 0.195312l14.5508-14.5996c2.34375-2.34375 2.24609-5.32227-0.146484-7.71484l-3.85742-3.80859c-2.39258-2.39258-4.24805-3.17383-6.64062-2.97852l-2.88086 0.244141-3.22266-3.17383 1.2207-5.61523c0.634766-2.83203-0.146484-5.0293-3.07617-7.95898l-10.9863-10.9375c-16.6992-16.6016-38.8672-16.2109-53.3203-1.75781Zm7.4707 1.85547c12.1582-8.88672 28.6133-7.37305 39.7461 3.75977l12.1582 12.0605c1.17188 1.17188 1.36719 2.09961 1.02539 3.80859l-1.61133 7.42188 7.51953 7.42188 4.93164-0.292969c1.26953-0.0488281 1.66016 0.0488281 2.63672 1.02539l2.88086 2.88086-12.207 12.207-2.88086-2.88086c-0.976562-0.976562-1.12305-1.36719-1.07422-2.68555l0.341797-4.88281-7.4707-7.42188-7.61719 1.26953c-1.61133 0.341797-2.34375 0.195312-3.56445-0.976562l-10.0098-10.0098c-1.26953-1.17188-1.41602-2.00195-0.634766-3.85742l4.39453-10.4492c-7.8125-7.27539-17.9688-10.4004-28.125-7.42188-0.78125 0.195312-1.07422-0.439453-0.439453-0.976562Z"/>
  </g>
  <text style="stroke:none;fill:black;font-family:sans-serif;font-size:13;font-weight:bold;" transform="matrix(1 0 0 1 1289 1953)">Exporting</text>
  <text style="stroke:none;fill:black;font-family:sans-serif;font-size:13;" transform="matrix(1 0 0 1 1289 1971)">Symbols should be outlined when exporting to ensure the</text>
  <text style="stroke:none;fill:black;font-family:sans-serif;font-size:13;" transform="matrix(1 0 0 1 1289 1989)">design is preserved when submitting to Xcode.</text>
  <text id="template-version" style="stroke:none;fill:black;font-family:sans-serif;font-size:13;text-anchor:end;" transform="matrix(1 0 0 1 3036 1933)">Template v.5.0</text>
  <text style="stroke:none;fill:black;font-family:sans-serif;font-size:13;text-anchor:end;" transform="matrix(1 0 0 1 3036 1951)">Requires Xcode 15 or greater</text>
  <text id="descriptive-name" style="stroke:none;fill:black;font-family:sans-serif;font-size:13;text-anchor:end;" transform="matrix(1 0 0 1 3036 1969)">Generated from sun.rain</text>
  <text style="stroke:none;fill:black;font-family:sans-serif;font-size:13;text-anchor:end;" transform="matrix(1 0 0 1 3036 1987)">Typeset at 100.0 points</text>
  <text style="stroke:none;fill:black;font-family:sans-serif;font-size:13;" transform="matrix(1 0 0 1 263 726)">Small</text>
  <text style="stroke:none;fill:black;font-family:sans-serif;font-size:13;" transform="matrix(1 0 0 1 263 1156)">Medium</text>
  <text style="stroke:none;fill:black;font-family:sans-serif;font-size:13;" transform="matrix(1 0 0 1 263 1586)">Large</text>
 </g>
 <g id="Guides">
  <g id="H-reference" style="fill:#27AAE1;stroke:none;" transform="matrix(1 0 0 1 339 696)">
   <path d="M0.993654 0L3.63775 0L29.3281-67.1323L30.0303-67.1323L30.0303-70.459L28.1226-70.459ZM11.6885-24.4799L46.9815-24.4799L46.2315-26.7285L12.4385-26.7285ZM55.1196 0L57.7637 0L30.6382-70.459L29.4326-70.459L29.4326-67.1323Z"/>
  </g>
  <line id="Baseline-S" style="fill:none;stroke:#27AAE1;opacity:1;stroke-width:0.5;" x1="263" x2="3036" y1="696" y2="696"/>
  <line id="Capline-S" style="fill:none;stroke:#27AAE1;opacity:1;stroke-width:0.5;" x1="263" x2="3036" y1="625.541" y2="625.541"/>
  <g id="H-reference" style="fill:#27AAE1;stroke:none;" transform="matrix(1 0 0 1 339 1126)">
   <path d="M0.993654 0L3.63775 0L29.3281-67.1323L30.0303-67.1323L30.0303-70.459L28.1226-70.459ZM11.6885-24.4799L46.9815-24.4799L46.2315-26.7285L12.4385-26.7285ZM55.1196 0L57.7637 0L30.6382-70.459L29.4326-70.459L29.4326-67.1323Z"/>
  </g>
  <line id="Baseline-M" style="fill:none;stroke:#27AAE1;opacity:1;stroke-width:0.5;" x1="263" x2="3036" y1="1126" y2="1126"/>
  <line id="Capline-M" style="fill:none;stroke:#27AAE1;opacity:1;stroke-width:0.5;" x1="263" x2="3036" y1="1055.54" y2="1055.54"/>
  <g id="H-reference" style="fill:#27AAE1;stroke:none;" transform="matrix(1 0 0 1 339 1556)">
   <path d="M0.993654 0L3.63775 0L29.3281-67.1323L30.0303-67.1323L30.0303-70.459L28.1226-70.459ZM11.6885-24.4799L46.9815-24.4799L46.2315-26.7285L12.4385-26.7285ZM55.1196 0L57.7637 0L30.6382-70.459L29.4326-70.459L29.4326-67.1323Z"/>
  </g>
  <line id="Baseline-L" style="fill:none;stroke:#27AAE1;opacity:1;stroke-width:0.5;" x1="263" x2="3036" y1="1556" y2="1556"/>
  <line id="Capline-L" style="fill:none;stroke:#27AAE1;opacity:1;stroke-width:0.5;" x1="263" x2="3036" y1="1485.54" y2="1485.54"/>
  <line id="left-margin-Ultralight-S" style="fill:none;stroke:#00AEEF;stroke-width:0.5;opacity:1.0;" x1="505.805" x2="505.805" y1="600.785" y2="720.121"/>
  <line id="right-margin-Ultralight-S" style="fill:none;stroke:#00AEEF;stroke-width:0.5;opacity:1.0;" x1="613.617" x2="613.617" y1="600.785" y2="720.121"/>
  <line id="left-margin-Regular-S" style="fill:none;stroke:#00AEEF;stroke-width:0.5;opacity:1.0;" x1="1395.94" x2="1395.94" y1="600.785" y2="720.121"/>
  <line id="right-margin-Regular-S" style="fill:none;stroke:#00AEEF;stroke-width:0.5;opacity:1.0;" x1="1503.75" x2="1503.75" y1="600.785" y2="720.121"/>
  <line id="left-margin-Black-S" style="fill:none;stroke:#00AEEF;stroke-width:0.5;opacity:1.0;" x1="2879.49" x2="2879.49" y1="600.785" y2="720.121"/>
  <line id="right-margin-Black-S" style="fill:none;stroke:#00AEEF;stroke-width:0.5;opacity:1.0;" x1="2987.31" x2="2987.31" y1="600.785" y2="720.121"/>
 </g>
 <g id="Symbols">
  <g id="Black-S" transform="matrix(1 0 0 1 2879.49 696)">
   <path class="SFSymbolsPreviewWireframe" d="M36.377-28.125L51.416-28.125C46.4844-29.248 42.8223-33.7402 42.8223-39.1602C42.8223-45.3613 47.8027-50.3418 53.9062-50.3418C60.0098-50.3418 64.9902-45.3613 64.9902-39.1602C64.9902-33.7402 61.3281-29.248 56.3965-28.125L71.4355-28.125C73.9258-31.3477 75-35.1074 75-39.1602C75-50.8789 65.5762-60.3516 53.9062-60.3516C42.2363-60.3516 32.8125-50.9277 32.8125-39.1602C32.8125-35.1074 33.9355-31.3477 36.377-28.125ZM14.6484-36.2305L20.8984-36.1816C23.584-36.1816 25.7812-38.3789 25.7812-41.0156C25.7812-43.6523 23.584-45.8008 20.8984-45.8008L14.6484-45.8008C12.0117-45.8008 9.76562-43.6523 9.76562-41.0156C9.76562-38.3789 12.0605-36.2305 14.6484-36.2305ZM34.0332-58.9355C35.8887-60.791 35.8398-63.916 33.9844-65.7715L29.541-70.166C27.6367-72.0703 24.5605-72.1191 22.7051-70.2637C20.8496-68.4082 20.8496-65.2832 22.7539-63.3789L27.1973-59.0332C29.0527-57.1777 32.1777-57.0801 34.0332-58.9355ZM53.9062-67.1875C56.543-67.1875 58.6914-69.4336 58.6914-72.0703L58.6914-78.3203C58.6914-81.0059 56.543-83.2031 53.9062-83.2031C51.2695-83.2031 49.1211-81.0059 49.1211-78.3203L49.1211-72.0703C49.1211-69.4336 51.2695-67.1875 53.9062-67.1875ZM73.7793-58.9355C75.6348-57.0801 78.7598-57.1777 80.6152-59.0332L85.0586-63.3789C86.9629-65.2832 86.9629-68.4082 85.1074-70.2637C83.252-72.1191 80.1758-72.0703 78.2715-70.166L73.8281-65.7715C71.9727-63.916 71.9238-60.791 73.7793-58.9355ZM86.9141-36.2305L93.1641-36.1816C95.8496-36.1816 98.0469-38.3789 98.0469-41.0156C98.0469-43.6523 95.8496-45.8008 93.1641-45.8008L86.9141-45.8008C84.2773-45.8008 82.0312-43.6523 82.0312-41.0156C82.0312-38.3789 84.3262-36.2305 86.9141-36.2305ZM16.2598-21.6797L91.5527-21.6797C93.6035-21.6797 95.166-23.0957 95.166-25C95.166-26.9043 93.6035-28.3203 91.5527-28.3203L16.2598-28.3203C14.209-28.3203 12.6465-26.9043 12.6465-25C12.6465-23.0957 14.209-21.6797 16.2598-21.6797ZM31.543-0.488281L36.2793-8.64258C37.207-10.2539 36.8164-12.3535 35.1074-13.3301C33.3984-14.3066 31.543-13.6719 30.5176-11.9141L25.7812-3.75977C24.8535-2.14844 25.1953-0.0976562 26.9043 0.878906C28.6133 1.85547 30.6152 1.12305 31.543-0.488281ZM40.5762 10.3027L51.6113-8.69141C52.5391-10.3027 52.1484-12.4023 50.4395-13.3789C48.7305-14.3555 46.8262-13.6719 45.8496-11.9629L34.8145 7.03125C33.8867 8.64258 34.2285 10.6934 35.9375 11.6699C37.6465 12.6465 39.6484 11.9141 40.5762 10.3027ZM62.0117-0.488281L66.748-8.64258C67.6758-10.2539 67.2852-12.3535 65.5762-13.3301C63.8672-14.3066 62.0117-13.6719 60.9863-11.9141L56.25-3.75977C55.3223-2.14844 55.6641-0.0976562 57.373 0.878906C59.082 1.85547 61.084 1.12305 62.0117-0.488281ZM71.0449 10.3027L82.0801-8.69141C83.0078-10.3027 82.6172-12.4023 80.9082-13.3789C79.1992-14.3555 77.2949-13.6719 76.3184-11.9629L65.2832 7.03125C64.3555 8.64258 64.6973 10.6934 66.4062 11.6699C68.1152 12.6465 70.1172 11.9141 71.0449 10.3027Z"/>
  </g>
  <g id="Regular-S" transform="matrix(1 0 0 1 1395.94 696)">
   <path class="SFSymbolsPreviewWireframe" d="M37.4512-24.0234L48.9746-24.0234C43.6523-25.9766 39.7949-31.2012 39.7949-37.207C39.7949-44.9219 46.1914-51.3184 53.9062-51.3184C61.6211-51.3184 68.0176-44.9219 68.0176-37.207C68.0176-31.2012 64.1602-25.9766 58.8379-24.0234L70.3613-24.0234C73.3398-27.6367 75.0488-32.2266 75.0488-37.207C75.0488-48.7793 65.4297-58.3984 53.9062-58.3984C42.3828-58.3984 32.7637-48.7793 32.7637-37.207C32.7637-32.2266 34.4727-27.6367 37.4512-24.0234ZM13.7207-34.6191L22.0703-34.6191C24.3164-34.6191 26.0742-36.1816 26.0254-38.1836C25.9766-40.1367 24.3164-41.748 22.0703-41.748L13.7207-41.748C11.4258-41.748 9.76562-40.1367 9.76562-38.1836C9.76562-36.1816 11.4258-34.6191 13.7207-34.6191ZM34.1797-56.9336C35.5469-58.3008 35.5469-60.6445 33.8867-62.2559L27.9785-68.1641C26.3672-69.8242 24.1211-69.7266 22.7051-68.4082C21.2891-67.041 21.2891-64.7461 22.9492-63.0859L28.8574-57.1777C30.4688-55.5664 32.8125-55.5176 34.1797-56.9336ZM53.9062-65.0879C55.8594-65.0879 57.4707-66.748 57.4707-69.043L57.4707-77.3926C57.4707-79.6875 55.8594-81.3477 53.9062-81.3477C51.9531-81.3477 50.3418-79.6875 50.3418-77.3926L50.3418-69.043C50.3418-66.748 51.9531-65.0879 53.9062-65.0879ZM73.6328-56.9336C75.0488-55.5664 77.3438-55.5664 78.9551-57.1777L84.8633-63.0859C86.5234-64.7461 86.4746-66.9922 85.1074-68.4082C83.7402-69.7754 81.4453-69.8242 79.834-68.1641L73.9258-62.2559C72.2656-60.6445 72.2168-58.252 73.6328-56.9336ZM85.7422-34.6191L94.0918-34.6191C96.3867-34.6191 98.0469-36.1816 98.0469-38.1836C98.0469-40.1367 96.3867-41.748 94.0918-41.748L85.7422-41.748C83.4961-41.748 81.7383-40.1367 81.7871-38.1836C81.8359-36.1816 83.4961-34.6191 85.7422-34.6191ZM15.2344-19.9219L92.3828-19.9219C93.8965-19.9219 95.0684-21.0938 95.0684-22.6562C95.0684-24.1699 93.8965-25.3906 92.3828-25.3906L15.2344-25.3906C13.7207-25.3906 12.5488-24.1699 12.5488-22.6562C12.5488-21.0938 13.7207-19.9219 15.2344-19.9219ZM31.0059-2.19727L35.7422-10.3516C36.5234-11.6699 36.084-13.1836 34.8145-13.916C33.4961-14.6484 32.0312-14.2578 31.25-12.9883L26.5137-4.6875C25.7812-3.4668 26.1719-2.00195 27.4902-1.2207C28.7598-0.537109 30.3223-0.927734 31.0059-2.19727ZM39.8926 8.74023L50.9277-10.4004C51.6602-11.6699 51.2695-13.1348 50.0488-13.8672C48.8281-14.6484 47.2168-14.2578 46.4844-12.9883L35.5469 6.10352C34.8145 7.37305 35.2051 8.88672 36.4746 9.66797C37.6953 10.3516 39.1602 10.0098 39.8926 8.74023ZM61.4258-2.24609L66.1621-10.4004C66.9434-11.7188 66.5039-13.2324 65.2344-13.9648C63.916-14.6973 62.4512-14.3066 61.6699-12.9883L56.9336-4.73633C56.2012-3.51562 56.5918-2.00195 57.9102-1.26953C59.1797-0.537109 60.7422-0.976562 61.4258-2.24609ZM70.3125 8.69141L81.3477-10.4492C82.0801-11.7188 81.6895-13.1836 80.4688-13.916C79.248-14.6973 77.6855-14.3066 76.9043-13.0371L65.9668 6.05469C65.2344 7.37305 65.625 8.83789 66.8945 9.61914C68.1152 10.3027 69.5801 9.96094 70.3125 8.69141Z"/>
  </g>
  <g id="Ultralight-S" transform="matrix(1 0 0 1 505.805 696)">
   <path class="SFSymbolsPreviewWireframe" d="M40.4028-22.3887L43.8433-22.3887C39.2476-25.5679 36.2075-30.8833 36.2075-36.8892C36.2075-46.6474 44.148-54.5879 53.9062-54.5879C63.6645-54.5879 71.605-46.6474 71.605-36.8892C71.605-30.8833 68.5649-25.5679 63.9692-22.3887L67.4097-22.3887C71.2964-26.002 73.7319-31.1367 73.7319-36.8892C73.7319-47.8257 64.8394-56.7183 53.9062-56.7183C42.9731-56.7183 34.0806-47.8257 34.0806-36.8892C34.0806-31.1367 36.5161-26.002 40.4028-22.3887ZM10.8145-36.7988L24.9765-36.7988C25.5879-36.7988 26.0288-37.2715 26.0254-37.8657C26.022-38.3657 25.5879-38.9326 24.9765-38.9326L10.8145-38.9326C10.2451-38.9326 9.76562-38.4111 9.76562-37.8657C9.76562-37.3169 10.2451-36.7988 10.8145-36.7988ZM34.1797-56.6157C34.5933-56.9839 34.5933-57.7383 34.2046-58.0782L24.1641-68.1187C23.7334-68.5527 23.0313-68.4551 22.7051-68.0903C22.2427-67.6768 22.1973-67.062 22.6768-66.6279L32.7173-56.5874C33.0571-56.2021 33.7661-56.1987 34.1797-56.6157ZM53.9062-64.77C54.4517-64.77 54.9732-65.2495 54.9732-65.7735L54.9732-79.9809C54.9732-80.5503 54.4517-81.0298 53.9062-81.0298C53.3608-81.0298 52.8393-80.5503 52.8393-79.9809L52.8393-65.7735C52.8393-65.2495 53.3608-64.77 53.9062-64.77ZM73.6328-56.6157C74.0498-56.2021 74.7554-56.2021 75.0952-56.5874L85.1357-66.6279C85.6152-67.062 85.5664-67.6733 85.1074-68.0903C84.7392-68.4585 84.0791-68.5527 83.6484-68.1187L73.6079-58.0782C73.2192-57.7383 73.2158-56.9805 73.6328-56.6157ZM82.836-36.7988L96.998-36.7988C97.6128-36.7988 98.0469-37.2715 98.0469-37.8657C98.0469-38.3657 97.6128-38.9326 96.998-38.9326L82.836-38.9326C82.27-38.9326 81.7837-38.4111 81.7871-37.8657C81.7905-37.3169 82.27-36.7988 82.836-36.7988ZM13.7813-21.3296L94.0176-21.3296C94.623-21.3296 95.1592-21.7295 95.1592-22.3384C95.1592-22.8984 94.623-23.3472 94.0176-23.3472L13.7813-23.3472C13.1758-23.3472 12.6396-22.8984 12.6396-22.3384C12.6396-21.7295 13.1758-21.3296 13.7813-21.3296ZM28.7808-2.65136L34.9248-13.2124C35.2974-13.895 35.1758-14.5005 34.6328-14.7788C34.1318-15.0571 33.5752-14.8935 33.1572-14.2598L27.0132-3.68848C26.644-3.0127 26.7622-2.41064 27.3086-2.08349C27.8516-1.80858 28.4151-2.01757 28.7808-2.65136ZM37.8491 8.14991L50.2466-13.2612C50.6611-13.9404 50.4976-14.5425 49.958-14.8208C49.4639-15.1025 48.897-14.939 48.4824-14.3052L36.0918 7.10253C35.7226 7.78174 35.8408 8.38721 36.3838 8.71436C36.9233 8.98927 37.48 8.7837 37.8491 8.14991ZM59.2461-2.65478L65.3901-13.2158C65.7627-13.8984 65.6411-14.5039 65.0981-14.7822C64.5972-15.0605 64.0405-14.897 63.6225-14.2598L57.4785-3.64649C57.1094-3.01612 57.2275-2.41064 57.7739-2.08691C58.3169-1.80858 58.8804-1.97558 59.2461-2.65478ZM68.3145 8.14649L80.7119-13.2646C81.1265-13.9438 80.9629-14.5459 80.4233-14.8242C79.9292-15.106 79.3657-14.9424 78.9477-14.3086L66.5571 7.14452C66.188 7.78174 66.3061 8.38379 66.8491 8.71094C67.3887 8.98585 67.9453 8.78028 68.3145 8.14649Z"/>
  </g>
 </g>
</svg>
