<?xml version="1.0" encoding="UTF-8"?>
<!--Generator: Apple Native CoreSVG 232.5-->
<!DOCTYPE svg
PUBLIC "-//W3C//DTD SVG 1.1//EN"
       "http://www.w3.org/Graphics/SVG/1.1/DTD/svg11.dtd">
<svg version="1.1" xmlns="http://www.w3.org/2000/svg" xmlns:xlink="http://www.w3.org/1999/xlink" width="3300" height="2200">
 <!--glyph: "uni101DD3.medium", point size: 100.0, font version: "19.2d2e1", template writer version: "128"-->
 <style>.SFSymbolsPreviewWireframe {fill:none;opacity:1.0;stroke:black;stroke-width:0.5}
</style>
 <g id="Notes">
  <rect height="2200" id="artboard" style="fill:white;opacity:1" width="3300" x="0" y="0"/>
  <line style="fill:none;stroke:black;opacity:1;stroke-width:0.5;" x1="263" x2="3036" y1="292" y2="292"/>
  <text style="stroke:none;fill:black;font-family:sans-serif;font-size:13;font-weight:bold;" transform="matrix(1 0 0 1 263 322)">Weight/Scale Variations</text>
  <text style="stroke:none;fill:black;font-family:sans-serif;font-size:13;text-anchor:middle;" transform="matrix(1 0 0 1 559.711 322)">Ultralight</text>
  <text style="stroke:none;fill:black;font-family:sans-serif;font-size:13;text-anchor:middle;" transform="matrix(1 0 0 1 856.422 322)">Thin</text>
  <text style="stroke:none;fill:black;font-family:sans-serif;font-size:13;text-anchor:middle;" transform="matrix(1 0 0 1 1153.13 322)">Light</text>
  <text style="stroke:none;fill:black;font-family:sans-serif;font-size:13;text-anchor:middle;" transform="matrix(1 0 0 1 1449.84 322)">Regular</text>
  <text style="stroke:none;fill:black;font-family:sans-serif;font-size:13;text-anchor:middle;" transform="matrix(1 0 0 1 1746.56 322)">Medium</text>
  <text style="stroke:none;fill:black;font-family:sans-serif;font-size:13;text-anchor:middle;" transform="matrix(1 0 0 1 2043.27 322)">Semibold</text>
  <text style="stroke:none;fill:black;font-family:sans-serif;font-size:13;text-anchor:middle;" transform="matrix(1 0 0 1 2339.98 322)">Bold</text>
  <text style="stroke:none;fill:black;font-family:sans-serif;font-size:13;text-anchor:middle;" transform="matrix(1 0 0 1 2636.69 322)">Heavy</text>
  <text style="stroke:none;fill:black;font-family:sans-serif;font-size:13;text-anchor:middle;" transform="matrix(1 0 0 1 2933.4 322)">Black</text>
  <line style="fill:none;stroke:black;opacity:1;stroke-width:0.5;" x1="263" x2="3036" y1="1903" y2="1903"/>
  <g transform="matrix(0.2 0 0 0.2 263 1933)">
   <path d="m46.2402 4.15039c21.5332 0 39.4531-17.8711 39.4531-39.4043s-17.9688-39.4043-39.502-39.4043c-21.4844 0-39.3555 17.8711-39.3555 39.4043s17.9199 39.4043 39.4043 39.4043Zm0-7.42188c-17.7246 0-31.8848-14.209-31.8848-31.9824s14.1113-31.9824 31.8359-31.9824c17.7734 0 32.0312 14.209 32.0312 31.9824s-14.209 31.9824-31.9824 31.9824Zm-17.9688-31.9824c0 2.14844 1.51367 3.61328 3.75977 3.61328h10.498v10.5957c0 2.19727 1.46484 3.71094 3.61328 3.71094 2.24609 0 3.71094-1.51367 3.71094-3.71094v-10.5957h10.5957c2.19727 0 3.71094-1.46484 3.71094-3.61328 0-2.19727-1.51367-3.71094-3.71094-3.71094h-10.5957v-10.5469c0-2.24609-1.46484-3.75977-3.71094-3.75977-2.14844 0-3.61328 1.51367-3.61328 3.75977v10.5469h-10.498c-2.24609 0-3.75977 1.51367-3.75977 3.71094Z"/>
  </g>
  <g transform="matrix(0.2 0 0 0.2 281.506 1933)">
   <path d="m58.5449 14.5508c27.2461 0 49.8047-22.6074 49.8047-49.8047 0-27.2461-22.6074-49.8047-49.8535-49.8047-27.1973 0-49.7559 22.5586-49.7559 49.8047 0 27.1973 22.6074 49.8047 49.8047 49.8047Zm0-8.30078c-23.0469 0-41.4551-18.457-41.4551-41.5039s18.3594-41.5039 41.4062-41.5039 41.5527 18.457 41.5527 41.5039-18.457 41.5039-41.5039 41.5039Zm-22.6562-41.5039c0 2.39258 1.66016 4.00391 4.15039 4.00391h14.3555v14.4043c0 2.44141 1.66016 4.15039 4.05273 4.15039 2.44141 0 4.15039-1.66016 4.15039-4.15039v-14.4043h14.4043c2.44141 0 4.15039-1.61133 4.15039-4.00391 0-2.44141-1.70898-4.15039-4.15039-4.15039h-14.4043v-14.3555c0-2.49023-1.70898-4.19922-4.15039-4.19922-2.39258 0-4.05273 1.70898-4.05273 4.19922v14.3555h-14.3555c-2.49023 0-4.15039 1.70898-4.15039 4.15039Z"/>
  </g>
  <g transform="matrix(0.2 0 0 0.2 304.924 1933)">
   <path d="m74.8535 28.3203c34.8145 0 63.623-28.8086 63.623-63.5742 0-34.8145-28.8574-63.623-63.6719-63.623-34.7656 0-63.5254 28.8086-63.5254 63.623 0 34.7656 28.8086 63.5742 63.5742 63.5742Zm0-9.08203c-30.1758 0-54.4434-24.3164-54.4434-54.4922 0-30.2246 24.2188-54.4922 54.3945-54.4922 30.2246 0 54.541 24.2676 54.541 54.4922 0 30.1758-24.2676 54.4922-54.4922 54.4922Zm-28.8574-54.4922c0 2.58789 1.85547 4.39453 4.58984 4.39453h19.7266v19.7754c0 2.68555 1.85547 4.58984 4.44336 4.58984 2.68555 0 4.54102-1.85547 4.54102-4.58984v-19.7754h19.7754c2.68555 0 4.58984-1.80664 4.58984-4.39453 0-2.73438-1.85547-4.58984-4.58984-4.58984h-19.7754v-19.7266c0-2.73438-1.85547-4.63867-4.54102-4.63867-2.58789 0-4.44336 1.9043-4.44336 4.63867v19.7266h-19.7266c-2.73438 0-4.58984 1.85547-4.58984 4.58984Z"/>
  </g>
  <text style="stroke:none;fill:black;font-family:sans-serif;font-size:13;font-weight:bold;" transform="matrix(1 0 0 1 263 1953)">Design Variations</text>
  <text style="stroke:none;fill:black;font-family:sans-serif;font-size:13;" transform="matrix(1 0 0 1 263 1971)">Symbols are supported in up to nine weights and three scales.</text>
  <text style="stroke:none;fill:black;font-family:sans-serif;font-size:13;" transform="matrix(1 0 0 1 263 1989)">For optimal layout with text and other symbols, vertically align</text>
  <text style="stroke:none;fill:black;font-family:sans-serif;font-size:13;" transform="matrix(1 0 0 1 263 2007)">symbols with the adjacent text.</text>
  <line style="fill:none;stroke:#00AEEF;stroke-width:0.5;opacity:1.0;" x1="776" x2="776" y1="1919" y2="1933"/>
  <g transform="matrix(0.2 0 0 0.2 776 1933)">
   <path d="m16.5527 0.78125c2.58789 0 3.85742-0.976562 4.78516-3.71094l6.29883-17.2363h28.8086l6.29883 17.2363c0.927734 2.73438 2.19727 3.71094 4.73633 3.71094 2.58789 0 4.24805-1.5625 4.24805-4.00391 0-0.830078-0.146484-1.61133-0.537109-2.63672l-22.9004-60.9863c-1.12305-2.97852-3.125-4.49219-6.25-4.49219-3.02734 0-5.07812 1.46484-6.15234 4.44336l-22.9004 61.084c-0.390625 1.02539-0.537109 1.80664-0.537109 2.63672 0 2.44141 1.5625 3.95508 4.10156 3.95508Zm13.4766-28.3691 11.8652-32.8613h0.244141l11.8652 32.8613Z"/>
  </g>
  <line style="fill:none;stroke:#00AEEF;stroke-width:0.5;opacity:1.0;" x1="792.836" x2="792.836" y1="1919" y2="1933"/>
  <text style="stroke:none;fill:black;font-family:sans-serif;font-size:13;font-weight:bold;" transform="matrix(1 0 0 1 776 1953)">Margins</text>
  <text style="stroke:none;fill:black;font-family:sans-serif;font-size:13;" transform="matrix(1 0 0 1 776 1971)">Leading and trailing margins on the left and right side of each symbol</text>
  <text style="stroke:none;fill:black;font-family:sans-serif;font-size:13;" transform="matrix(1 0 0 1 776 1989)">can be adjusted by modifying the x-location of the margin guidelines.</text>
  <text style="stroke:none;fill:black;font-family:sans-serif;font-size:13;" transform="matrix(1 0 0 1 776 2007)">Modifications are automatically applied proportionally to all</text>
  <text style="stroke:none;fill:black;font-family:sans-serif;font-size:13;" transform="matrix(1 0 0 1 776 2025)">scales and weights.</text>
  <g transform="matrix(0.2 0 0 0.2 1289 1933)">
   <path d="m14.209 9.32617 8.49609 8.54492c4.29688 4.3457 9.22852 4.05273 13.8672-1.07422l53.4668-58.9355-4.83398-4.88281-53.0762 58.3984c-1.75781 2.00195-3.41797 2.49023-5.76172 0.146484l-5.85938-5.81055c-2.34375-2.29492-1.80664-4.00391 0.195312-5.81055l57.373-54.0039-4.88281-4.83398-57.959 54.4434c-4.93164 4.58984-5.32227 9.47266-1.02539 13.8184Zm32.0801-90.9668c-2.09961 2.05078-2.24609 4.93164-1.07422 6.88477 1.17188 1.80664 3.4668 2.97852 6.68945 2.14844 7.32422-1.70898 14.9414-2.00195 22.0703 2.68555l-2.92969 7.27539c-1.70898 4.15039-0.830078 7.08008 1.85547 9.81445l11.4746 11.5723c2.44141 2.44141 4.49219 2.53906 7.32422 2.05078l5.32227-0.976562 3.32031 3.36914-0.195312 2.7832c-0.195312 2.49023 0.439453 4.39453 2.88086 6.78711l3.80859 3.71094c2.39258 2.39258 5.46875 2.53906 7.8125 0.195312l14.5508-14.5996c2.34375-2.34375 2.24609-5.32227-0.146484-7.71484l-3.85742-3.80859c-2.39258-2.39258-4.24805-3.17383-6.64062-2.97852l-2.88086 0.244141-3.22266-3.17383 1.2207-5.61523c0.634766-2.83203-0.146484-5.0293-3.07617-7.95898l-10.9863-10.9375c-16.6992-16.6016-38.8672-16.2109-53.3203-1.75781Zm7.4707 1.85547c12.1582-8.88672 28.6133-7.37305 39.7461 3.75977l12.1582 12.0605c1.17188 1.17188 1.36719 2.09961 1.02539 3.80859l-1.61133 7.42188 7.51953 7.42188 4.93164-0.292969c1.26953-0.0488281 1.66016 0.0488281 2.63672 1.02539l2.88086 2.88086-12.207 12.207-2.88086-2.88086c-0.976562-0.976562-1.12305-1.36719-1.07422-2.68555l0.341797-4.88281-7.4707-7.42188-7.61719 1.26953c-1.61133 0.341797-2.34375 0.195312-3.56445-0.976562l-10.0098-10.0098c-1.26953-1.17188-1.41602-2.00195-0.634766-3.85742l4.39453-10.4492c-7.8125-7.27539-17.9688-10.4004-28.125-7.42188-0.78125 0.195312-1.07422-0.439453-0.439453-0.976562Z"/>
  </g>
  <text style="stroke:none;fill:black;font-family:sans-serif;font-size:13;font-weight:bold;" transform="matrix(1 0 0 1 1289 1953)">Exporting</text>
  <text style="stroke:none;fill:black;font-family:sans-serif;font-size:13;" transform="matrix(1 0 0 1 1289 1971)">Symbols should be outlined when exporting to ensure the</text>
  <text style="stroke:none;fill:black;font-family:sans-serif;font-size:13;" transform="matrix(1 0 0 1 1289 1989)">design is preserved when submitting to Xcode.</text>
  <text id="template-version" style="stroke:none;fill:black;font-family:sans-serif;font-size:13;text-anchor:end;" transform="matrix(1 0 0 1 3036 1933)">Template v.5.0</text>
  <text style="stroke:none;fill:black;font-family:sans-serif;font-size:13;text-anchor:end;" transform="matrix(1 0 0 1 3036 1951)">Requires Xcode 15 or greater</text>
  <text id="descriptive-name" style="stroke:none;fill:black;font-family:sans-serif;font-size:13;text-anchor:end;" transform="matrix(1 0 0 1 3036 1969)">Generated from sun.snow.circle.fill</text>
  <text style="stroke:none;fill:black;font-family:sans-serif;font-size:13;text-anchor:end;" transform="matrix(1 0 0 1 3036 1987)">Typeset at 100.0 points</text>
  <text style="stroke:none;fill:black;font-family:sans-serif;font-size:13;" transform="matrix(1 0 0 1 263 726)">Small</text>
  <text style="stroke:none;fill:black;font-family:sans-serif;font-size:13;" transform="matrix(1 0 0 1 263 1156)">Medium</text>
  <text style="stroke:none;fill:black;font-family:sans-serif;font-size:13;" transform="matrix(1 0 0 1 263 1586)">Large</text>
 </g>
 <g id="Guides">
  <g id="H-reference" style="fill:#27AAE1;stroke:none;" transform="matrix(1 0 0 1 339 696)">
   <path d="M0.993654 0L3.63775 0L29.3281-67.1323L30.0303-67.1323L30.0303-70.459L28.1226-70.459ZM11.6885-24.4799L46.9815-24.4799L46.2315-26.7285L12.4385-26.7285ZM55.1196 0L57.7637 0L30.6382-70.459L29.4326-70.459L29.4326-67.1323Z"/>
  </g>
  <line id="Baseline-S" style="fill:none;stroke:#27AAE1;opacity:1;stroke-width:0.5;" x1="263" x2="3036" y1="696" y2="696"/>
  <line id="Capline-S" style="fill:none;stroke:#27AAE1;opacity:1;stroke-width:0.5;" x1="263" x2="3036" y1="625.541" y2="625.541"/>
  <g id="H-reference" style="fill:#27AAE1;stroke:none;" transform="matrix(1 0 0 1 339 1126)">
   <path d="M0.993654 0L3.63775 0L29.3281-67.1323L30.0303-67.1323L30.0303-70.459L28.1226-70.459ZM11.6885-24.4799L46.9815-24.4799L46.2315-26.7285L12.4385-26.7285ZM55.1196 0L57.7637 0L30.6382-70.459L29.4326-70.459L29.4326-67.1323Z"/>
  </g>
  <line id="Baseline-M" style="fill:none;stroke:#27AAE1;opacity:1;stroke-width:0.5;" x1="263" x2="3036" y1="1126" y2="1126"/>
  <line id="Capline-M" style="fill:none;stroke:#27AAE1;opacity:1;stroke-width:0.5;" x1="263" x2="3036" y1="1055.54" y2="1055.54"/>
  <g id="H-reference" style="fill:#27AAE1;stroke:none;" transform="matrix(1 0 0 1 339 1556)">
   <path d="M0.993654 0L3.63775 0L29.3281-67.1323L30.0303-67.1323L30.0303-70.459L28.1226-70.459ZM11.6885-24.4799L46.9815-24.4799L46.2315-26.7285L12.4385-26.7285ZM55.1196 0L57.7637 0L30.6382-70.459L29.4326-70.459L29.4326-67.1323Z"/>
  </g>
  <line id="Baseline-L" style="fill:none;stroke:#27AAE1;opacity:1;stroke-width:0.5;" x1="263" x2="3036" y1="1556" y2="1556"/>
  <line id="Capline-L" style="fill:none;stroke:#27AAE1;opacity:1;stroke-width:0.5;" x1="263" x2="3036" y1="1485.54" y2="1485.54"/>
  <line id="left-margin-Ultralight-S" style="fill:none;stroke:#00AEEF;stroke-width:0.5;opacity:1.0;" x1="515.649" x2="515.649" y1="600.785" y2="720.121"/>
  <line id="right-margin-Ultralight-S" style="fill:none;stroke:#00AEEF;stroke-width:0.5;opacity:1.0;" x1="603.773" x2="603.773" y1="600.785" y2="720.121"/>
  <line id="left-margin-Regular-S" style="fill:none;stroke:#00AEEF;stroke-width:0.5;opacity:1.0;" x1="1403.58" x2="1403.58" y1="600.785" y2="720.121"/>
  <line id="right-margin-Regular-S" style="fill:none;stroke:#00AEEF;stroke-width:0.5;opacity:1.0;" x1="1496.11" x2="1496.11" y1="600.785" y2="720.121"/>
  <line id="left-margin-Black-S" style="fill:none;stroke:#00AEEF;stroke-width:0.5;opacity:1.0;" x1="2884.57" x2="2884.57" y1="600.785" y2="720.121"/>
  <line id="right-margin-Black-S" style="fill:none;stroke:#00AEEF;stroke-width:0.5;opacity:1.0;" x1="2982.23" x2="2982.23" y1="600.785" y2="720.121"/>
 </g>
 <g id="Symbols">
  <g id="Black-S" transform="matrix(1 0 0 1 2884.57 696)">
   <path class="SFSymbolsPreviewWireframe" d="M48.8281 6.83594C71.9727 6.83594 90.8203-12.0117 90.8203-35.1562C90.8203-58.3008 71.9727-77.1484 48.8281-77.1484C25.6836-77.1484 6.83594-58.3008 6.83594-35.1562C6.83594-12.0117 25.6836 6.83594 48.8281 6.83594ZM59.4727-37.9395C59.4727-37.3047 59.4727-36.5234 59.3262-35.9863L38.3301-35.9863C38.1836-36.5234 38.1836-37.3047 38.1836-37.9395C38.1836-43.8477 42.9688-48.584 48.8281-48.584C54.6875-48.584 59.4727-43.8477 59.4727-37.9395ZM29.834-36.8652C28.2715-36.8652 26.9043-38.1836 26.9043-39.6973C26.9043-41.3086 28.2715-42.627 29.834-42.627L32.8125-42.627C34.4727-42.627 35.7422-41.3086 35.7422-39.6973C35.7422-38.1836 34.4727-36.8652 32.8125-36.8652ZM35.498-47.1191L33.3496-49.2188C32.1777-50.3418 32.2266-52.2461 33.3496-53.3203C34.4727-54.4434 36.2793-54.4434 37.4023-53.2715L39.5508-51.123C40.6738-49.9512 40.6738-48.2422 39.5996-47.0703C38.4277-45.9473 36.6699-45.9961 35.498-47.1191ZM51.6602-54.0039C51.6602-52.4902 50.3418-51.123 48.8281-51.123C47.2656-51.123 45.9473-52.4902 45.9473-54.0039L45.9473-57.0312C45.9473-58.6914 47.2656-60.0098 48.8281-60.0098C50.3418-60.0098 51.6602-58.6914 51.6602-57.0312ZM58.0566-47.0703C56.9824-48.2422 56.9824-49.9512 58.1055-51.123L60.2539-53.2715C61.377-54.4434 63.1836-54.4434 64.3066-53.3203C65.4297-52.2461 65.4785-50.3418 64.3066-49.2188L62.1582-47.1191C60.9863-45.9961 59.2285-45.9473 58.0566-47.0703ZM64.8438-36.8652C63.2812-36.8652 61.9141-38.1836 61.9141-39.6973C61.9141-41.3086 63.2812-42.627 64.8438-42.627L67.8223-42.627C69.4336-42.627 70.752-41.3086 70.752-39.6973C70.752-38.1836 69.4336-36.8652 67.8223-36.8652ZM30.4688-25.4883C28.4668-25.4883 26.9043-27.2949 26.9043-29.1504C26.9043-31.0059 28.3691-32.8125 30.4688-32.8125L67.1875-32.8125C69.2871-32.8125 70.752-31.0547 70.752-29.1504C70.752-27.2461 69.2871-25.4883 67.1875-25.4883ZM36.9629-12.4512C35.9863-12.4512 35.3516-13.3301 35.498-14.2578L35.8398-16.1133L34.4238-14.8926C33.6914-14.2578 32.7148-14.3555 32.2266-15.0879C31.7383-16.0156 32.1777-16.9434 33.0566-17.2852L34.8145-17.9688L33.1055-18.5547C32.1777-18.8965 31.7383-19.873 32.2266-20.6543C32.666-21.3867 33.6914-21.5332 34.4238-20.9473L35.8398-19.7754L35.498-21.5332C35.3516-22.5098 35.9863-23.3887 36.9629-23.3887C37.8906-23.3887 38.5254-22.5098 38.3301-21.5332L37.9395-19.7754L39.502-20.8984C40.1855-21.5332 41.1621-21.3867 41.6016-20.6543C42.1387-19.873 41.6992-18.8477 40.8203-18.5547L39.0625-17.9199L40.7715-17.334C41.6992-16.9922 42.1387-16.0156 41.6016-15.1367C41.1621-14.3555 40.2832-14.2578 39.502-14.8926L37.9395-16.1621L38.3301-14.2578C38.5254-13.3301 37.8906-12.4512 36.9629-12.4512ZM48.8281-12.4512C47.9004-12.4512 47.2656-13.3301 47.4121-14.2578L47.7051-16.1133L46.2891-14.8926C45.5566-14.2578 44.5801-14.3555 44.1406-15.0879C43.6035-16.0156 44.0918-16.9434 44.9219-17.2852L46.7285-17.9688L44.9707-18.5547C44.0918-18.8965 43.6035-19.873 44.1406-20.6543C44.5312-21.3867 45.5566-21.5332 46.2891-20.9473L47.7051-19.7754L47.4121-21.5332C47.2656-22.5098 47.9004-23.3887 48.8281-23.3887C49.7559-23.3887 50.3906-22.5098 50.1953-21.5332L49.8535-19.7754L51.3672-20.8984C52.0508-21.5332 53.0762-21.3867 53.4668-20.6543C54.0039-19.873 53.5645-18.8477 52.6855-18.5547L50.9277-17.9199L52.6367-17.334C53.5645-16.9922 54.0039-16.0156 53.4668-15.1367C53.0762-14.3555 52.1484-14.2578 51.3672-14.8926L49.8535-16.1621L50.1953-14.2578C50.3906-13.3301 49.7559-12.4512 48.8281-12.4512ZM60.6934-12.4512C59.7656-12.4512 59.082-13.3301 59.2773-14.2578L59.6191-16.1133L58.1543-14.8926C57.4219-14.2578 56.4941-14.3555 56.0059-15.0879C55.4688-16.0156 55.957-16.9434 56.7871-17.2852L58.5938-17.9688L56.8359-18.5547C55.957-18.8965 55.4688-19.873 56.0059-20.6543C56.4453-21.3867 57.4219-21.5332 58.1543-20.9473L59.6191-19.7754L59.2773-21.5332C59.082-22.5098 59.7656-23.3887 60.6934-23.3887C61.6699-23.3887 62.3047-22.5098 62.0605-21.5332L61.7188-19.7754L63.2324-20.8984C63.916-21.5332 64.9414-21.3867 65.3809-20.6543C65.8691-19.873 65.4785-18.8477 64.5508-18.5547L62.8418-17.9199L64.502-17.334C65.4785-16.9922 65.8691-16.0156 65.3809-15.1367C64.9414-14.3555 64.0625-14.3066 63.2324-14.8926L61.7188-16.1621L62.0605-14.2578C62.3047-13.3301 61.6699-12.4512 60.6934-12.4512Z"/>
  </g>
  <g id="Regular-S" transform="matrix(1 0 0 1 1403.58 696)">
   <path class="SFSymbolsPreviewWireframe" d="M46.2402 4.19922C67.7734 4.19922 85.6934-13.6719 85.6934-35.2051C85.6934-56.7383 67.7246-74.6094 46.1914-74.6094C24.707-74.6094 6.83594-56.7383 6.83594-35.2051C6.83594-13.6719 24.7559 4.19922 46.2402 4.19922ZM58.0566-35.4492C58.0566-34.375 57.8125-33.252 57.5684-32.1777L34.8633-32.1777C34.5703-33.252 34.375-34.375 34.375-35.4492C34.375-41.8945 39.7949-47.3145 46.1914-47.3145C52.6855-47.3145 58.0566-41.8945 58.0566-35.4492ZM24.5605-33.4473C23.0469-33.4473 21.9238-34.6191 21.9238-35.9375C21.9238-37.2559 23.0469-38.3789 24.5605-38.3789L29.0039-38.3789C30.5664-38.3789 31.7871-37.3047 31.7871-35.9375C31.7871-34.5703 30.5664-33.4473 29.0039-33.4473ZM32.373-45.8496L29.1992-49.0234C28.0762-50.1465 28.0762-51.6113 28.9551-52.6367C29.9316-53.5156 31.4453-53.6621 32.5684-52.4902L35.8398-49.3164C36.9141-48.1934 36.9629-46.6309 35.9863-45.6543C35.0098-44.6777 33.4473-44.7754 32.373-45.8496ZM48.6816-53.8086C48.6816-52.2949 47.6074-51.0742 46.1914-51.0742C44.8242-51.0742 43.75-52.2949 43.75-53.8086L43.75-58.252C43.75-59.8145 44.873-60.9375 46.1914-60.9375C47.5586-60.9375 48.6816-59.8145 48.6816-58.252ZM56.4941-45.6543C55.4688-46.6309 55.4688-48.1445 56.5918-49.3164L59.8145-52.4902C60.8887-53.6133 62.5-53.6133 63.4766-52.6367C64.3555-51.6113 64.3066-50.1465 63.2324-49.0234L60.1074-45.8496C58.9844-44.7266 57.4707-44.7266 56.4941-45.6543ZM63.4277-33.4473C61.8652-33.4473 60.6445-34.5703 60.6445-35.9375C60.6445-37.3047 61.8652-38.3789 63.4277-38.3789L67.8711-38.3789C69.3848-38.3789 70.5078-37.2559 70.5078-35.9375C70.5078-34.6191 69.3848-33.4473 67.8711-33.4473ZM24.5117-24.3652C23.1934-24.3652 21.9238-25.4395 21.9238-26.8066C21.9238-28.1738 23.1445-29.1992 24.5117-29.1992L67.9199-29.1992C69.2871-29.1992 70.5078-28.1738 70.5078-26.8066C70.5078-25.4395 69.2383-24.3652 67.9199-24.3652ZM33.0566-11.084C32.3242-11.084 31.8848-11.7188 31.9336-12.3535L32.0312-14.5996L30.0781-13.2812C29.5898-12.9395 28.7109-13.0859 28.4668-13.6719C28.2227-14.2578 28.2715-15.0391 29.0039-15.3809L31.0059-16.3574L29.0039-17.334C28.2715-17.7734 28.2227-18.5059 28.5156-18.9941C28.8086-19.6289 29.5898-19.7266 30.0781-19.3848L32.0312-18.0176L31.8848-20.3613C31.8359-21.0449 32.3242-21.582 33.0566-21.582C33.6914-21.582 34.2285-21.0449 34.1309-20.3125L33.9844-18.0176L35.8887-19.3848C36.377-19.7266 37.2559-19.5801 37.5488-18.9941C37.793-18.457 37.6953-17.7734 37.0117-17.3828L34.9609-16.3574L37.0117-15.3809C37.7441-15.0391 37.8906-14.1602 37.5-13.623C37.207-13.1348 36.377-12.9395 35.8887-13.2812L33.9844-14.5996L34.1309-12.3535C34.2285-11.7188 33.6914-11.084 33.0566-11.084ZM46.1914-11.084C45.459-11.084 45.0195-11.7188 45.0684-12.3535L45.166-14.5996L43.2617-13.2812C42.7246-12.9395 41.8945-13.0859 41.6016-13.6719C41.3574-14.2578 41.4062-15.0391 42.1875-15.3809L44.1406-16.3574L42.1875-17.334C41.4062-17.7734 41.3574-18.5059 41.6504-18.9941C41.9922-19.6289 42.7246-19.7266 43.2617-19.3848L45.166-18.0176L45.0195-20.3613C44.9707-21.0449 45.459-21.582 46.1914-21.582C46.875-21.582 47.3633-21.0449 47.3145-20.3125L47.168-18.0176L49.0234-19.3848C49.5605-19.7266 50.3906-19.5801 50.7324-18.9941C50.9766-18.457 50.8789-17.7734 50.1465-17.3828L48.1445-16.3574L50.1465-15.3809C50.9277-15.0391 51.0742-14.1602 50.6836-13.623C50.3418-13.1348 49.5605-12.9395 49.0234-13.2812L47.168-14.5996L47.3145-12.3535C47.3633-11.7188 46.875-11.084 46.1914-11.084ZM59.375-11.084C58.6426-11.084 58.1543-11.7188 58.2031-12.3535L58.3496-14.5996L56.3965-13.2812C55.9082-12.9395 55.0293-13.0859 54.7852-13.6719C54.541-14.2578 54.5898-15.0391 55.3223-15.3809L57.3242-16.3574L55.3223-17.334C54.5898-17.7734 54.541-18.5059 54.834-18.9941C55.127-19.6289 55.9082-19.7266 56.3965-19.3848L58.3496-18.0176L58.1543-20.3613C58.1055-21.0449 58.6426-21.582 59.375-21.582C60.0098-21.582 60.498-21.0449 60.4492-20.3125L60.3027-18.0176L62.207-19.3848C62.6953-19.7266 63.5742-19.5801 63.8672-18.9941C64.1113-18.457 64.0137-17.7734 63.3301-17.3828L61.2793-16.3574L63.3301-15.3809C64.0625-15.0391 64.209-14.1602 63.8184-13.623C63.5254-13.1348 62.6953-12.9395 62.207-13.2812L60.3027-14.5996L60.4492-12.3535C60.498-11.7188 60.0098-11.084 59.375-11.084Z"/>
  </g>
  <g id="Ultralight-S" transform="matrix(1 0 0 1 515.649 696)">
   <path class="SFSymbolsPreviewWireframe" d="M44.0606 2.01955C64.5039 2.01955 81.2886-14.7617 81.2886-35.2051C81.2886-55.6484 64.5005-72.4297 44.0571-72.4297C23.5718-72.4297 6.83594-55.6484 6.83594-35.2051C6.83594-14.7617 23.5752 2.01955 44.0606 2.01955ZM55.3775-36.0395C55.3775-34.1025 54.9063-32.2983 53.981-30.6338L34.1367-30.6338C33.208-32.2983 32.7402-34.1025 32.7402-36.0395C32.7402-42.3032 37.7969-47.3599 44.0571-47.3599C50.3242-47.3599 55.3775-42.3032 55.3775-36.0395ZM20.2466-35.5361C19.6411-35.5361 19.1992-35.9814 19.1992-36.5732C19.1992-37.165 19.6411-37.6523 20.2466-37.6523L28.0957-37.6523C28.7046-37.6523 29.1533-37.1685 29.1533-36.5732C29.1533-35.9326 28.75-35.5361 28.0957-35.5361ZM32.1006-46.5308L26.5655-52.0659C26.1236-52.5078 26.1236-53.1099 26.5029-53.4541C26.8892-53.8789 27.5401-54.0708 27.9366-53.6255L33.4785-48.0449C33.8262-47.7393 34.0113-47.0395 33.4888-46.5625C33.1026-46.1763 32.4483-46.2285 32.1006-46.5308ZM45.0943-53.627C45.0943-53.1123 44.7012-52.5727 44.0571-52.5727C43.4619-52.5727 43.0234-53.0215 43.0234-53.627L43.0234-61.476C43.0234-62.1304 43.4199-62.5268 44.0571-62.5268C44.6978-62.5268 45.0943-62.1304 45.0943-61.476ZM54.6323-46.5625C54.1065-47.0395 54.2881-47.7358 54.6392-48.0449L60.1777-53.6255C60.5708-54.0674 61.2285-53.8857 61.6148-53.4541C61.9942-53.1099 61.9907-52.5078 61.5523-52.0659L56.0205-46.5308C55.6695-46.2251 55.0186-46.1797 54.6323-46.5625ZM60.022-35.5361C59.5039-35.5361 58.9644-35.978 58.9644-36.5732C58.9644-37.1685 59.4131-37.6523 60.022-37.6523L67.8711-37.6523C68.522-37.6523 68.9185-37.2104 68.9185-36.5732C68.9185-35.936 68.522-35.5361 67.8711-35.5361ZM20.2432-26.4541C19.6514-26.4541 19.1992-26.8472 19.1992-27.4424C19.1992-28.0376 19.648-28.4727 20.2432-28.4727L67.8745-28.4727C68.5151-28.4727 68.9185-28.083 68.9185-27.4424C68.9185-26.8472 68.5117-26.4541 67.8745-26.4541ZM31.6489-12.7187C31.1436-12.7187 30.9312-13.1719 30.9346-13.7158L30.9414-16.5068L28.5796-15.0522C28.0913-14.7558 27.6211-14.8115 27.3316-15.3066C27.042-15.7109 27.3633-16.1743 27.8233-16.4707L30.2793-17.7651L27.8233-19.0596C27.4087-19.3174 27.042-19.7773 27.3804-20.2656C27.6279-20.7187 28.1367-20.6802 28.5796-20.3838L30.9414-18.9712L30.9312-21.769C30.9277-22.3164 31.1436-22.7627 31.6489-22.7627C32.1929-22.7627 32.4575-22.3164 32.4507-21.7656L32.395-18.9712L34.7534-20.3838C35.1963-20.6348 35.7119-20.7153 35.9595-20.2656C36.249-19.7739 36.0151-19.3174 35.5132-19.063L33.1445-17.7651L35.5132-16.4707C36.0186-16.2197 36.2559-15.7041 35.9561-15.2578C35.6631-14.8603 35.1509-14.8013 34.7534-15.0522L32.395-16.5068L32.4507-13.7158C32.4575-13.1719 32.1929-12.7187 31.6489-12.7187ZM44.0571-12.7187C43.5518-12.7187 43.294-13.1719 43.2974-13.7158L43.3496-16.5068L40.9912-15.0522C40.4995-14.7558 40.0327-14.8115 39.7398-15.3066C39.4502-15.7109 39.7261-16.1743 40.2349-16.4707L42.6421-17.7651L40.2349-19.0596C39.7715-19.3174 39.4502-19.7773 39.7886-20.2656C40.0396-20.7187 40.5449-20.6802 40.9912-20.3838L43.3496-18.9712L43.294-21.769C43.2905-22.3164 43.5518-22.7627 44.0571-22.7627C44.6045-22.7627 44.8657-22.3164 44.8623-21.7656L44.8067-18.9712L47.1616-20.3838C47.6079-20.6348 48.1201-20.7153 48.3711-20.2656C48.6607-19.7739 48.4268-19.3174 47.9214-19.063L45.5562-17.7651L47.9214-16.4707C48.4302-16.2197 48.6675-15.7041 48.3677-15.2578C48.0713-14.8603 47.5625-14.8013 47.1616-15.0522L44.8067-16.5068L44.8623-13.7158C44.8657-13.1719 44.6045-12.7187 44.0571-12.7187ZM56.4688-12.7187C55.9634-12.7187 55.7022-13.1719 55.7056-13.7158L55.7613-16.5068L53.3994-15.0522C52.9112-14.7558 52.4409-14.8115 52.1514-15.3066C51.9072-15.7109 52.0923-16.1743 52.6431-16.4707L55.0537-17.7651L52.6431-19.0596C52.1831-19.3174 51.8618-19.7773 52.2002-20.2656C52.4478-20.7187 52.9566-20.6802 53.3994-20.3838L55.7613-18.9712L55.7022-21.769C55.6987-22.3164 55.9634-22.7627 56.4688-22.7627C57.0127-22.7627 57.2285-22.3164 57.2251-21.7656L57.2149-18.9712L59.5733-20.3838C60.0161-20.6802 60.5318-20.7153 60.7793-20.2656C61.1143-19.7739 60.7442-19.3174 60.333-19.063L57.919-17.7651L60.333-16.4707C60.7476-16.2197 61.0303-15.7041 60.7759-15.2578C60.4829-14.8603 59.9707-14.8013 59.5733-15.0522L57.2149-16.5068L57.2251-13.7158C57.2285-13.1719 57.0127-12.7187 56.4688-12.7187Z"/>
  </g>
 </g>
</svg>
