<?xml version="1.0" encoding="UTF-8"?>
<!--Generator: Apple Native CoreSVG 232.5-->
<!DOCTYPE svg
PUBLIC "-//W3C//DTD SVG 1.1//EN"
       "http://www.w3.org/Graphics/SVG/1.1/DTD/svg11.dtd">
<svg version="1.1" xmlns="http://www.w3.org/2000/svg" xmlns:xlink="http://www.w3.org/1999/xlink" width="3300" height="2200">
 <!--glyph: "uni1001B2.medium", point size: 100.0, font version: "19.2d2e1", template writer version: "128"-->
 <style>.SFSymbolsPreviewWireframe {fill:none;opacity:1.0;stroke:black;stroke-width:0.5}
</style>
 <g id="Notes">
  <rect height="2200" id="artboard" style="fill:white;opacity:1" width="3300" x="0" y="0"/>
  <line style="fill:none;stroke:black;opacity:1;stroke-width:0.5;" x1="263" x2="3036" y1="292" y2="292"/>
  <text style="stroke:none;fill:black;font-family:sans-serif;font-size:13;font-weight:bold;" transform="matrix(1 0 0 1 263 322)">Weight/Scale Variations</text>
  <text style="stroke:none;fill:black;font-family:sans-serif;font-size:13;text-anchor:middle;" transform="matrix(1 0 0 1 559.711 322)">Ultralight</text>
  <text style="stroke:none;fill:black;font-family:sans-serif;font-size:13;text-anchor:middle;" transform="matrix(1 0 0 1 856.422 322)">Thin</text>
  <text style="stroke:none;fill:black;font-family:sans-serif;font-size:13;text-anchor:middle;" transform="matrix(1 0 0 1 1153.13 322)">Light</text>
  <text style="stroke:none;fill:black;font-family:sans-serif;font-size:13;text-anchor:middle;" transform="matrix(1 0 0 1 1449.84 322)">Regular</text>
  <text style="stroke:none;fill:black;font-family:sans-serif;font-size:13;text-anchor:middle;" transform="matrix(1 0 0 1 1746.56 322)">Medium</text>
  <text style="stroke:none;fill:black;font-family:sans-serif;font-size:13;text-anchor:middle;" transform="matrix(1 0 0 1 2043.27 322)">Semibold</text>
  <text style="stroke:none;fill:black;font-family:sans-serif;font-size:13;text-anchor:middle;" transform="matrix(1 0 0 1 2339.98 322)">Bold</text>
  <text style="stroke:none;fill:black;font-family:sans-serif;font-size:13;text-anchor:middle;" transform="matrix(1 0 0 1 2636.69 322)">Heavy</text>
  <text style="stroke:none;fill:black;font-family:sans-serif;font-size:13;text-anchor:middle;" transform="matrix(1 0 0 1 2933.4 322)">Black</text>
  <line style="fill:none;stroke:black;opacity:1;stroke-width:0.5;" x1="263" x2="3036" y1="1903" y2="1903"/>
  <g transform="matrix(0.2 0 0 0.2 263 1933)">
   <path d="m46.2402 4.15039c21.5332 0 39.4531-17.8711 39.4531-39.4043s-17.9688-39.4043-39.502-39.4043c-21.4844 0-39.3555 17.8711-39.3555 39.4043s17.9199 39.4043 39.4043 39.4043Zm0-7.42188c-17.7246 0-31.8848-14.209-31.8848-31.9824s14.1113-31.9824 31.8359-31.9824c17.7734 0 32.0312 14.209 32.0312 31.9824s-14.209 31.9824-31.9824 31.9824Zm-17.9688-31.9824c0 2.14844 1.51367 3.61328 3.75977 3.61328h10.498v10.5957c0 2.19727 1.46484 3.71094 3.61328 3.71094 2.24609 0 3.71094-1.51367 3.71094-3.71094v-10.5957h10.5957c2.19727 0 3.71094-1.46484 3.71094-3.61328 0-2.19727-1.51367-3.71094-3.71094-3.71094h-10.5957v-10.5469c0-2.24609-1.46484-3.75977-3.71094-3.75977-2.14844 0-3.61328 1.51367-3.61328 3.75977v10.5469h-10.498c-2.24609 0-3.75977 1.51367-3.75977 3.71094Z"/>
  </g>
  <g transform="matrix(0.2 0 0 0.2 281.506 1933)">
   <path d="m58.5449 14.5508c27.2461 0 49.8047-22.6074 49.8047-49.8047 0-27.2461-22.6074-49.8047-49.8535-49.8047-27.1973 0-49.7559 22.5586-49.7559 49.8047 0 27.1973 22.6074 49.8047 49.8047 49.8047Zm0-8.30078c-23.0469 0-41.4551-18.457-41.4551-41.5039s18.3594-41.5039 41.4062-41.5039 41.5527 18.457 41.5527 41.5039-18.457 41.5039-41.5039 41.5039Zm-22.6562-41.5039c0 2.39258 1.66016 4.00391 4.15039 4.00391h14.3555v14.4043c0 2.44141 1.66016 4.15039 4.05273 4.15039 2.44141 0 4.15039-1.66016 4.15039-4.15039v-14.4043h14.4043c2.44141 0 4.15039-1.61133 4.15039-4.00391 0-2.44141-1.70898-4.15039-4.15039-4.15039h-14.4043v-14.3555c0-2.49023-1.70898-4.19922-4.15039-4.19922-2.39258 0-4.05273 1.70898-4.05273 4.19922v14.3555h-14.3555c-2.49023 0-4.15039 1.70898-4.15039 4.15039Z"/>
  </g>
  <g transform="matrix(0.2 0 0 0.2 304.924 1933)">
   <path d="m74.8535 28.3203c34.8145 0 63.623-28.8086 63.623-63.5742 0-34.8145-28.8574-63.623-63.6719-63.623-34.7656 0-63.5254 28.8086-63.5254 63.623 0 34.7656 28.8086 63.5742 63.5742 63.5742Zm0-9.08203c-30.1758 0-54.4434-24.3164-54.4434-54.4922 0-30.2246 24.2188-54.4922 54.3945-54.4922 30.2246 0 54.541 24.2676 54.541 54.4922 0 30.1758-24.2676 54.4922-54.4922 54.4922Zm-28.8574-54.4922c0 2.58789 1.85547 4.39453 4.58984 4.39453h19.7266v19.7754c0 2.68555 1.85547 4.58984 4.44336 4.58984 2.68555 0 4.54102-1.85547 4.54102-4.58984v-19.7754h19.7754c2.68555 0 4.58984-1.80664 4.58984-4.39453 0-2.73438-1.85547-4.58984-4.58984-4.58984h-19.7754v-19.7266c0-2.73438-1.85547-4.63867-4.54102-4.63867-2.58789 0-4.44336 1.9043-4.44336 4.63867v19.7266h-19.7266c-2.73438 0-4.58984 1.85547-4.58984 4.58984Z"/>
  </g>
  <text style="stroke:none;fill:black;font-family:sans-serif;font-size:13;font-weight:bold;" transform="matrix(1 0 0 1 263 1953)">Design Variations</text>
  <text style="stroke:none;fill:black;font-family:sans-serif;font-size:13;" transform="matrix(1 0 0 1 263 1971)">Symbols are supported in up to nine weights and three scales.</text>
  <text style="stroke:none;fill:black;font-family:sans-serif;font-size:13;" transform="matrix(1 0 0 1 263 1989)">For optimal layout with text and other symbols, vertically align</text>
  <text style="stroke:none;fill:black;font-family:sans-serif;font-size:13;" transform="matrix(1 0 0 1 263 2007)">symbols with the adjacent text.</text>
  <line style="fill:none;stroke:#00AEEF;stroke-width:0.5;opacity:1.0;" x1="776" x2="776" y1="1919" y2="1933"/>
  <g transform="matrix(0.2 0 0 0.2 776 1933)">
   <path d="m16.5527 0.78125c2.58789 0 3.85742-0.976562 4.78516-3.71094l6.29883-17.2363h28.8086l6.29883 17.2363c0.927734 2.73438 2.19727 3.71094 4.73633 3.71094 2.58789 0 4.24805-1.5625 4.24805-4.00391 0-0.830078-0.146484-1.61133-0.537109-2.63672l-22.9004-60.9863c-1.12305-2.97852-3.125-4.49219-6.25-4.49219-3.02734 0-5.07812 1.46484-6.15234 4.44336l-22.9004 61.084c-0.390625 1.02539-0.537109 1.80664-0.537109 2.63672 0 2.44141 1.5625 3.95508 4.10156 3.95508Zm13.4766-28.3691 11.8652-32.8613h0.244141l11.8652 32.8613Z"/>
  </g>
  <line style="fill:none;stroke:#00AEEF;stroke-width:0.5;opacity:1.0;" x1="792.836" x2="792.836" y1="1919" y2="1933"/>
  <text style="stroke:none;fill:black;font-family:sans-serif;font-size:13;font-weight:bold;" transform="matrix(1 0 0 1 776 1953)">Margins</text>
  <text style="stroke:none;fill:black;font-family:sans-serif;font-size:13;" transform="matrix(1 0 0 1 776 1971)">Leading and trailing margins on the left and right side of each symbol</text>
  <text style="stroke:none;fill:black;font-family:sans-serif;font-size:13;" transform="matrix(1 0 0 1 776 1989)">can be adjusted by modifying the x-location of the margin guidelines.</text>
  <text style="stroke:none;fill:black;font-family:sans-serif;font-size:13;" transform="matrix(1 0 0 1 776 2007)">Modifications are automatically applied proportionally to all</text>
  <text style="stroke:none;fill:black;font-family:sans-serif;font-size:13;" transform="matrix(1 0 0 1 776 2025)">scales and weights.</text>
  <g transform="matrix(0.2 0 0 0.2 1289 1933)">
   <path d="m14.209 9.32617 8.49609 8.54492c4.29688 4.3457 9.22852 4.05273 13.8672-1.07422l53.4668-58.9355-4.83398-4.88281-53.0762 58.3984c-1.75781 2.00195-3.41797 2.49023-5.76172 0.146484l-5.85938-5.81055c-2.34375-2.29492-1.80664-4.00391 0.195312-5.81055l57.373-54.0039-4.88281-4.83398-57.959 54.4434c-4.93164 4.58984-5.32227 9.47266-1.02539 13.8184Zm32.0801-90.9668c-2.09961 2.05078-2.24609 4.93164-1.07422 6.88477 1.17188 1.80664 3.4668 2.97852 6.68945 2.14844 7.32422-1.70898 14.9414-2.00195 22.0703 2.68555l-2.92969 7.27539c-1.70898 4.15039-0.830078 7.08008 1.85547 9.81445l11.4746 11.5723c2.44141 2.44141 4.49219 2.53906 7.32422 2.05078l5.32227-0.976562 3.32031 3.36914-0.195312 2.7832c-0.195312 2.49023 0.439453 4.39453 2.88086 6.78711l3.80859 3.71094c2.39258 2.39258 5.46875 2.53906 7.8125 0.195312l14.5508-14.5996c2.34375-2.34375 2.24609-5.32227-0.146484-7.71484l-3.85742-3.80859c-2.39258-2.39258-4.24805-3.17383-6.64062-2.97852l-2.88086 0.244141-3.22266-3.17383 1.2207-5.61523c0.634766-2.83203-0.146484-5.0293-3.07617-7.95898l-10.9863-10.9375c-16.6992-16.6016-38.8672-16.2109-53.3203-1.75781Zm7.4707 1.85547c12.1582-8.88672 28.6133-7.37305 39.7461 3.75977l12.1582 12.0605c1.17188 1.17188 1.36719 2.09961 1.02539 3.80859l-1.61133 7.42188 7.51953 7.42188 4.93164-0.292969c1.26953-0.0488281 1.66016 0.0488281 2.63672 1.02539l2.88086 2.88086-12.207 12.207-2.88086-2.88086c-0.976562-0.976562-1.12305-1.36719-1.07422-2.68555l0.341797-4.88281-7.4707-7.42188-7.61719 1.26953c-1.61133 0.341797-2.34375 0.195312-3.56445-0.976562l-10.0098-10.0098c-1.26953-1.17188-1.41602-2.00195-0.634766-3.85742l4.39453-10.4492c-7.8125-7.27539-17.9688-10.4004-28.125-7.42188-0.78125 0.195312-1.07422-0.439453-0.439453-0.976562Z"/>
  </g>
  <text style="stroke:none;fill:black;font-family:sans-serif;font-size:13;font-weight:bold;" transform="matrix(1 0 0 1 1289 1953)">Exporting</text>
  <text style="stroke:none;fill:black;font-family:sans-serif;font-size:13;" transform="matrix(1 0 0 1 1289 1971)">Symbols should be outlined when exporting to ensure the</text>
  <text style="stroke:none;fill:black;font-family:sans-serif;font-size:13;" transform="matrix(1 0 0 1 1289 1989)">design is preserved when submitting to Xcode.</text>
  <text id="template-version" style="stroke:none;fill:black;font-family:sans-serif;font-size:13;text-anchor:end;" transform="matrix(1 0 0 1 3036 1933)">Template v.5.0</text>
  <text style="stroke:none;fill:black;font-family:sans-serif;font-size:13;text-anchor:end;" transform="matrix(1 0 0 1 3036 1951)">Requires Xcode 15 or greater</text>
  <text id="descriptive-name" style="stroke:none;fill:black;font-family:sans-serif;font-size:13;text-anchor:end;" transform="matrix(1 0 0 1 3036 1969)">Generated from sunrise.fill</text>
  <text style="stroke:none;fill:black;font-family:sans-serif;font-size:13;text-anchor:end;" transform="matrix(1 0 0 1 3036 1987)">Typeset at 100.0 points</text>
  <text style="stroke:none;fill:black;font-family:sans-serif;font-size:13;" transform="matrix(1 0 0 1 263 726)">Small</text>
  <text style="stroke:none;fill:black;font-family:sans-serif;font-size:13;" transform="matrix(1 0 0 1 263 1156)">Medium</text>
  <text style="stroke:none;fill:black;font-family:sans-serif;font-size:13;" transform="matrix(1 0 0 1 263 1586)">Large</text>
 </g>
 <g id="Guides">
  <g id="H-reference" style="fill:#27AAE1;stroke:none;" transform="matrix(1 0 0 1 339 696)">
   <path d="M0.993654 0L3.63775 0L29.3281-67.1323L30.0303-67.1323L30.0303-70.459L28.1226-70.459ZM11.6885-24.4799L46.9815-24.4799L46.2315-26.7285L12.4385-26.7285ZM55.1196 0L57.7637 0L30.6382-70.459L29.4326-70.459L29.4326-67.1323Z"/>
  </g>
  <line id="Baseline-S" style="fill:none;stroke:#27AAE1;opacity:1;stroke-width:0.5;" x1="263" x2="3036" y1="696" y2="696"/>
  <line id="Capline-S" style="fill:none;stroke:#27AAE1;opacity:1;stroke-width:0.5;" x1="263" x2="3036" y1="625.541" y2="625.541"/>
  <g id="H-reference" style="fill:#27AAE1;stroke:none;" transform="matrix(1 0 0 1 339 1126)">
   <path d="M0.993654 0L3.63775 0L29.3281-67.1323L30.0303-67.1323L30.0303-70.459L28.1226-70.459ZM11.6885-24.4799L46.9815-24.4799L46.2315-26.7285L12.4385-26.7285ZM55.1196 0L57.7637 0L30.6382-70.459L29.4326-70.459L29.4326-67.1323Z"/>
  </g>
  <line id="Baseline-M" style="fill:none;stroke:#27AAE1;opacity:1;stroke-width:0.5;" x1="263" x2="3036" y1="1126" y2="1126"/>
  <line id="Capline-M" style="fill:none;stroke:#27AAE1;opacity:1;stroke-width:0.5;" x1="263" x2="3036" y1="1055.54" y2="1055.54"/>
  <g id="H-reference" style="fill:#27AAE1;stroke:none;" transform="matrix(1 0 0 1 339 1556)">
   <path d="M0.993654 0L3.63775 0L29.3281-67.1323L30.0303-67.1323L30.0303-70.459L28.1226-70.459ZM11.6885-24.4799L46.9815-24.4799L46.2315-26.7285L12.4385-26.7285ZM55.1196 0L57.7637 0L30.6382-70.459L29.4326-70.459L29.4326-67.1323Z"/>
  </g>
  <line id="Baseline-L" style="fill:none;stroke:#27AAE1;opacity:1;stroke-width:0.5;" x1="263" x2="3036" y1="1556" y2="1556"/>
  <line id="Capline-L" style="fill:none;stroke:#27AAE1;opacity:1;stroke-width:0.5;" x1="263" x2="3036" y1="1485.54" y2="1485.54"/>
  <line id="left-margin-Ultralight-S" style="fill:none;stroke:#00AEEF;stroke-width:0.5;opacity:1.0;" x1="500.922" x2="500.922" y1="600.785" y2="720.121"/>
  <line id="right-margin-Ultralight-S" style="fill:none;stroke:#00AEEF;stroke-width:0.5;opacity:1.0;" x1="618.5" x2="618.5" y1="600.785" y2="720.121"/>
  <line id="left-margin-Regular-S" style="fill:none;stroke:#00AEEF;stroke-width:0.5;opacity:1.0;" x1="1391.06" x2="1391.06" y1="600.785" y2="720.121"/>
  <line id="right-margin-Regular-S" style="fill:none;stroke:#00AEEF;stroke-width:0.5;opacity:1.0;" x1="1508.63" x2="1508.63" y1="600.785" y2="720.121"/>
  <line id="left-margin-Black-S" style="fill:none;stroke:#00AEEF;stroke-width:0.5;opacity:1.0;" x1="2874.61" x2="2874.61" y1="600.785" y2="720.121"/>
  <line id="right-margin-Black-S" style="fill:none;stroke:#00AEEF;stroke-width:0.5;opacity:1.0;" x1="2992.19" x2="2992.19" y1="600.785" y2="720.121"/>
 </g>
 <g id="Symbols">
  <g id="Black-S" transform="matrix(1 0 0 1 2874.61 696)">
   <path class="SFSymbolsPreviewWireframe" d="M79.6875-15.4297C79.6875-27.0996 70.3613-36.4258 58.7891-36.4258C47.2168-36.4258 37.8906-27.0996 37.8906-15.4297C37.8906-14.4531 37.9395-13.4766 38.0859-12.5488L79.4922-12.5488C79.6387-13.4766 79.6875-14.4531 79.6875-15.4297ZM19.5312-14.4043L25.7812-14.3555C28.4668-14.3555 30.6641-16.5527 30.6641-19.1895C30.6641-21.8262 28.4668-23.9746 25.7812-23.9746L19.5312-23.9746C16.8945-23.9746 14.6484-21.8262 14.6484-19.1895C14.6484-16.5527 16.9434-14.4043 19.5312-14.4043ZM32.0801-35.2539C33.9355-33.3984 37.0605-33.3008 38.916-35.1562C40.7715-37.0117 40.7227-40.1367 38.8672-41.9922L34.4238-46.3867C32.5195-48.291 29.4434-48.3398 27.5879-46.4844C25.7324-44.6289 25.7324-41.5039 27.6367-39.5996ZM78.6621-35.1562C80.5176-33.3008 83.6426-33.3984 85.498-35.2539L89.9414-39.5996C91.8457-41.5039 91.8457-44.6289 89.9902-46.4844C88.1348-48.3398 85.0586-48.291 83.1543-46.3867L78.7109-41.9922C76.8555-40.1367 76.8066-37.0117 78.6621-35.1562ZM91.7969-14.4043L98.0469-14.4043C100.732-14.4043 102.93-16.5527 102.93-19.1895C102.93-21.8262 100.732-23.9746 98.0469-23.9746L91.7969-23.9746C89.1602-23.9746 86.9141-21.8262 86.9141-19.1895C86.9141-16.5527 89.209-14.4043 91.7969-14.4043ZM15.8691 6.98242L101.709 6.98242C105.127 6.98242 107.812 3.95508 107.812 0.634766C107.812-2.83203 105.176-5.71289 101.709-5.71289L15.8691-5.71289C12.4512-5.71289 9.76562-2.73438 9.76562 0.634766C9.76562 3.85742 12.5 6.98242 15.8691 6.98242ZM58.7891-43.8965C61.4258-43.8965 63.5742-46.1426 63.5742-48.7793L63.5254-58.6426L62.5488-65.918L64.7949-62.0605L67.2852-58.9355C68.3105-57.6172 69.4824-56.5918 71.3379-56.5918C73.9258-56.5918 75.8789-58.6426 75.8789-61.0352C75.8789-62.6465 74.8535-64.0625 73.584-65.2832L62.5488-75.8301C61.3281-77.002 60.2539-77.4902 58.7891-77.4902C57.3242-77.4902 56.25-77.002 55.0293-75.8301L43.9941-65.2832C42.7246-64.0625 41.6992-62.6465 41.6992-61.0352C41.6992-58.6426 43.6523-56.5918 46.2402-56.5918C48.0957-56.5918 49.2676-57.6172 50.293-58.9355L52.7832-62.0605L55.0293-65.918L54.0527-58.6426L54.0039-48.7793C54.0039-46.1426 56.1523-43.8965 58.7891-43.8965Z"/>
  </g>
  <g id="Regular-S" transform="matrix(1 0 0 1 1391.06 696)">
   <path class="SFSymbolsPreviewWireframe" d="M79.7363-13.7207C79.7363-25.1465 70.2148-34.7656 58.7891-34.7656C47.3633-34.7656 37.8418-25.1465 37.8418-13.7207C37.8418-11.2305 38.2812-8.74023 39.1602-6.49414L78.418-6.49414C79.2969-8.74023 79.7363-11.2305 79.7363-13.7207ZM18.6035-11.084L26.9531-11.084C29.248-11.084 30.957-12.6953 30.9082-14.6484C30.8594-16.6504 29.1992-18.2129 26.9531-18.2129L18.6035-18.2129C16.3086-18.2129 14.6484-16.6504 14.6484-14.6484C14.6484-12.6953 16.3086-11.084 18.6035-11.084ZM33.7402-33.6914C35.3516-32.0312 37.6953-31.9824 39.0625-33.3984C40.4297-34.8145 40.4297-37.1094 38.7695-38.7695L32.8613-44.6777C31.25-46.2891 29.0039-46.2402 27.5879-44.873C26.1719-43.5059 26.1719-41.2109 27.832-39.5996ZM78.5156-33.3984C79.9316-32.0312 82.2266-32.0312 83.8379-33.6914L89.7461-39.5996C91.4062-41.2109 91.3574-43.457 89.9902-44.873C88.623-46.2891 86.3281-46.2891 84.7168-44.6777L78.8086-38.7695C77.1484-37.1094 77.0996-34.7656 78.5156-33.3984ZM90.625-11.084L98.9746-11.084C101.27-11.084 102.93-12.6953 102.93-14.6484C102.93-16.6504 101.27-18.2129 98.9746-18.2129L90.625-18.2129C88.3789-18.2129 86.6211-16.6504 86.6699-14.6484C86.7188-12.6953 88.3789-11.084 90.625-11.084ZM13.5742 5.32227L104.004 5.32227C106.055 5.32227 107.812 3.71094 107.812 1.80664C107.812-0.146484 106.055-1.70898 104.004-1.70898L13.5742-1.70898C11.5234-1.70898 9.76562-0.146484 9.76562 1.80664C9.76562 3.71094 11.5234 5.32227 13.5742 5.32227ZM58.7891-43.7988C60.6934-43.7988 62.3535-45.5566 62.3535-47.7051L62.3535-61.6211L61.8164-67.0898L64.3555-64.1113L68.75-59.668C69.3848-59.0332 70.2148-58.6914 71.0449-58.6914C72.8027-58.6914 74.0234-59.8633 74.0234-61.5723C74.0234-62.4512 73.7305-63.1348 73.0469-63.7695L61.1328-74.707C60.2051-75.5371 59.5703-75.8301 58.7891-75.8301C58.0078-75.8301 57.373-75.5371 56.4453-74.707L44.5312-63.7695C43.8477-63.1348 43.5547-62.4512 43.5547-61.5723C43.5547-59.8633 44.7754-58.6914 46.5332-58.6914C47.3633-58.6914 48.1934-59.0332 48.8281-59.668L53.7109-64.5508L55.7617-67.0898L55.2246-61.6211L55.2246-47.7051C55.2246-45.5566 56.8848-43.7988 58.7891-43.7988Z"/>
  </g>
  <g id="Ultralight-S" transform="matrix(1 0 0 1 500.922 696)">
   <path class="SFSymbolsPreviewWireframe" d="M78.4194-13.9478C78.4194-24.7378 69.6245-33.585 58.7891-33.585C47.9536-33.585 39.1587-24.7378 39.1587-13.9478C39.1587-10.0498 40.2793-6.46974 42.248-3.45168L75.3301-3.45168C77.2988-6.46974 78.4194-10.0498 78.4194-13.9478ZM15.6973-13.8086L29.8594-13.8086C30.5195-13.8086 30.9116-14.3301 30.9082-14.8755C30.9048-15.4243 30.4707-15.9424 29.8594-15.9424L15.6973-15.9424C15.1279-15.9424 14.6484-15.4243 14.6484-14.8755C14.6484-14.3301 15.1279-13.8086 15.6973-13.8086ZM37.6001-33.6006C37.9399-33.2573 38.6489-33.2539 39.0625-33.6255C39.4761-34.0425 39.4761-34.7481 39.0874-35.0913L29.0469-45.1318C28.6162-45.5625 27.9141-45.5137 27.5879-45.1001C27.1255-44.7319 27.0801-44.0263 27.5596-43.6411ZM78.5156-33.6255C78.9326-33.2573 79.6382-33.2573 79.9781-33.6006L90.0186-43.6411C90.4981-44.0263 90.4492-44.7285 89.9902-45.1001C89.6221-45.5171 88.9619-45.5625 88.5312-45.1318L78.4907-35.0913C78.102-34.7481 78.0986-34.0391 78.5156-33.6255ZM87.7188-13.8086L101.881-13.8086C102.496-13.8086 102.93-14.3301 102.93-14.8755C102.93-15.4243 102.496-15.9424 101.881-15.9424L87.7188-15.9424C87.1528-15.9424 86.6665-15.4243 86.6699-14.8755C86.6733-14.3301 87.1528-13.8086 87.7188-13.8086ZM10.9859 1.73489L106.592 1.73489C107.281 1.73489 107.812 1.30422 107.812 0.671396C107.812 0.0805646 107.281-0.34669 106.592-0.34669L10.9859-0.34669C10.2974-0.34669 9.76562 0.0805646 9.76562 0.671396C9.76562 1.30422 10.2974 1.73489 10.9859 1.73489ZM58.7891-44.6616C59.3765-44.6616 59.9014-45.1934 59.9014-45.7979L59.9014-62.0298L59.7276-68.9971L63.9922-64.6108L70.4756-57.9878C70.7471-57.7163 70.9868-57.6016 71.272-57.6016C71.8945-57.6016 72.3433-58.0923 72.3433-58.7569C72.3433-59.1363 72.1411-59.4566 71.7754-59.8189L59.5889-71.937C59.3877-72.1314 59.0708-72.2881 58.7891-72.2881C58.5073-72.2881 58.1904-72.1314 57.9892-71.937L45.8027-59.8189C45.437-59.4566 45.2349-59.1363 45.2349-58.7569C45.2349-58.0923 45.6836-57.6016 46.3062-57.6016C46.5913-57.6016 46.8311-57.7163 47.1026-57.9878L53.6201-64.6416L57.8506-68.9971L57.6767-62.0298L57.6767-45.7979C57.6767-45.1934 58.2016-44.6616 58.7891-44.6616Z"/>
  </g>
 </g>
</svg>
