<?xml version="1.0" encoding="UTF-8"?>
<!--Generator: Apple Native CoreSVG 232.5-->
<!DOCTYPE svg
PUBLIC "-//W3C//DTD SVG 1.1//EN"
       "http://www.w3.org/Graphics/SVG/1.1/DTD/svg11.dtd">
<svg version="1.1" xmlns="http://www.w3.org/2000/svg" xmlns:xlink="http://www.w3.org/1999/xlink" width="3300" height="2200">
 <!--glyph: "uni101950.medium", point size: 100.0, font version: "19.2d2e1", template writer version: "128"-->
 <style>.SFSymbolsPreviewWireframe {fill:none;opacity:1.0;stroke:black;stroke-width:0.5}
</style>
 <g id="Notes">
  <rect height="2200" id="artboard" style="fill:white;opacity:1" width="3300" x="0" y="0"/>
  <line style="fill:none;stroke:black;opacity:1;stroke-width:0.5;" x1="263" x2="3036" y1="292" y2="292"/>
  <text style="stroke:none;fill:black;font-family:sans-serif;font-size:13;font-weight:bold;" transform="matrix(1 0 0 1 263 322)">Weight/Scale Variations</text>
  <text style="stroke:none;fill:black;font-family:sans-serif;font-size:13;text-anchor:middle;" transform="matrix(1 0 0 1 559.711 322)">Ultralight</text>
  <text style="stroke:none;fill:black;font-family:sans-serif;font-size:13;text-anchor:middle;" transform="matrix(1 0 0 1 856.422 322)">Thin</text>
  <text style="stroke:none;fill:black;font-family:sans-serif;font-size:13;text-anchor:middle;" transform="matrix(1 0 0 1 1153.13 322)">Light</text>
  <text style="stroke:none;fill:black;font-family:sans-serif;font-size:13;text-anchor:middle;" transform="matrix(1 0 0 1 1449.84 322)">Regular</text>
  <text style="stroke:none;fill:black;font-family:sans-serif;font-size:13;text-anchor:middle;" transform="matrix(1 0 0 1 1746.56 322)">Medium</text>
  <text style="stroke:none;fill:black;font-family:sans-serif;font-size:13;text-anchor:middle;" transform="matrix(1 0 0 1 2043.27 322)">Semibold</text>
  <text style="stroke:none;fill:black;font-family:sans-serif;font-size:13;text-anchor:middle;" transform="matrix(1 0 0 1 2339.98 322)">Bold</text>
  <text style="stroke:none;fill:black;font-family:sans-serif;font-size:13;text-anchor:middle;" transform="matrix(1 0 0 1 2636.69 322)">Heavy</text>
  <text style="stroke:none;fill:black;font-family:sans-serif;font-size:13;text-anchor:middle;" transform="matrix(1 0 0 1 2933.4 322)">Black</text>
  <line style="fill:none;stroke:black;opacity:1;stroke-width:0.5;" x1="263" x2="3036" y1="1903" y2="1903"/>
  <g transform="matrix(0.2 0 0 0.2 263 1933)">
   <path d="m46.2402 4.15039c21.5332 0 39.4531-17.8711 39.4531-39.4043s-17.9688-39.4043-39.502-39.4043c-21.4844 0-39.3555 17.8711-39.3555 39.4043s17.9199 39.4043 39.4043 39.4043Zm0-7.42188c-17.7246 0-31.8848-14.209-31.8848-31.9824s14.1113-31.9824 31.8359-31.9824c17.7734 0 32.0312 14.209 32.0312 31.9824s-14.209 31.9824-31.9824 31.9824Zm-17.9688-31.9824c0 2.14844 1.51367 3.61328 3.75977 3.61328h10.498v10.5957c0 2.19727 1.46484 3.71094 3.61328 3.71094 2.24609 0 3.71094-1.51367 3.71094-3.71094v-10.5957h10.5957c2.19727 0 3.71094-1.46484 3.71094-3.61328 0-2.19727-1.51367-3.71094-3.71094-3.71094h-10.5957v-10.5469c0-2.24609-1.46484-3.75977-3.71094-3.75977-2.14844 0-3.61328 1.51367-3.61328 3.75977v10.5469h-10.498c-2.24609 0-3.75977 1.51367-3.75977 3.71094Z"/>
  </g>
  <g transform="matrix(0.2 0 0 0.2 281.506 1933)">
   <path d="m58.5449 14.5508c27.2461 0 49.8047-22.6074 49.8047-49.8047 0-27.2461-22.6074-49.8047-49.8535-49.8047-27.1973 0-49.7559 22.5586-49.7559 49.8047 0 27.1973 22.6074 49.8047 49.8047 49.8047Zm0-8.30078c-23.0469 0-41.4551-18.457-41.4551-41.5039s18.3594-41.5039 41.4062-41.5039 41.5527 18.457 41.5527 41.5039-18.457 41.5039-41.5039 41.5039Zm-22.6562-41.5039c0 2.39258 1.66016 4.00391 4.15039 4.00391h14.3555v14.4043c0 2.44141 1.66016 4.15039 4.05273 4.15039 2.44141 0 4.15039-1.66016 4.15039-4.15039v-14.4043h14.4043c2.44141 0 4.15039-1.61133 4.15039-4.00391 0-2.44141-1.70898-4.15039-4.15039-4.15039h-14.4043v-14.3555c0-2.49023-1.70898-4.19922-4.15039-4.19922-2.39258 0-4.05273 1.70898-4.05273 4.19922v14.3555h-14.3555c-2.49023 0-4.15039 1.70898-4.15039 4.15039Z"/>
  </g>
  <g transform="matrix(0.2 0 0 0.2 304.924 1933)">
   <path d="m74.8535 28.3203c34.8145 0 63.623-28.8086 63.623-63.5742 0-34.8145-28.8574-63.623-63.6719-63.623-34.7656 0-63.5254 28.8086-63.5254 63.623 0 34.7656 28.8086 63.5742 63.5742 63.5742Zm0-9.08203c-30.1758 0-54.4434-24.3164-54.4434-54.4922 0-30.2246 24.2188-54.4922 54.3945-54.4922 30.2246 0 54.541 24.2676 54.541 54.4922 0 30.1758-24.2676 54.4922-54.4922 54.4922Zm-28.8574-54.4922c0 2.58789 1.85547 4.39453 4.58984 4.39453h19.7266v19.7754c0 2.68555 1.85547 4.58984 4.44336 4.58984 2.68555 0 4.54102-1.85547 4.54102-4.58984v-19.7754h19.7754c2.68555 0 4.58984-1.80664 4.58984-4.39453 0-2.73438-1.85547-4.58984-4.58984-4.58984h-19.7754v-19.7266c0-2.73438-1.85547-4.63867-4.54102-4.63867-2.58789 0-4.44336 1.9043-4.44336 4.63867v19.7266h-19.7266c-2.73438 0-4.58984 1.85547-4.58984 4.58984Z"/>
  </g>
  <text style="stroke:none;fill:black;font-family:sans-serif;font-size:13;font-weight:bold;" transform="matrix(1 0 0 1 263 1953)">Design Variations</text>
  <text style="stroke:none;fill:black;font-family:sans-serif;font-size:13;" transform="matrix(1 0 0 1 263 1971)">Symbols are supported in up to nine weights and three scales.</text>
  <text style="stroke:none;fill:black;font-family:sans-serif;font-size:13;" transform="matrix(1 0 0 1 263 1989)">For optimal layout with text and other symbols, vertically align</text>
  <text style="stroke:none;fill:black;font-family:sans-serif;font-size:13;" transform="matrix(1 0 0 1 263 2007)">symbols with the adjacent text.</text>
  <line style="fill:none;stroke:#00AEEF;stroke-width:0.5;opacity:1.0;" x1="776" x2="776" y1="1919" y2="1933"/>
  <g transform="matrix(0.2 0 0 0.2 776 1933)">
   <path d="m16.5527 0.78125c2.58789 0 3.85742-0.976562 4.78516-3.71094l6.29883-17.2363h28.8086l6.29883 17.2363c0.927734 2.73438 2.19727 3.71094 4.73633 3.71094 2.58789 0 4.24805-1.5625 4.24805-4.00391 0-0.830078-0.146484-1.61133-0.537109-2.63672l-22.9004-60.9863c-1.12305-2.97852-3.125-4.49219-6.25-4.49219-3.02734 0-5.07812 1.46484-6.15234 4.44336l-22.9004 61.084c-0.390625 1.02539-0.537109 1.80664-0.537109 2.63672 0 2.44141 1.5625 3.95508 4.10156 3.95508Zm13.4766-28.3691 11.8652-32.8613h0.244141l11.8652 32.8613Z"/>
  </g>
  <line style="fill:none;stroke:#00AEEF;stroke-width:0.5;opacity:1.0;" x1="792.836" x2="792.836" y1="1919" y2="1933"/>
  <text style="stroke:none;fill:black;font-family:sans-serif;font-size:13;font-weight:bold;" transform="matrix(1 0 0 1 776 1953)">Margins</text>
  <text style="stroke:none;fill:black;font-family:sans-serif;font-size:13;" transform="matrix(1 0 0 1 776 1971)">Leading and trailing margins on the left and right side of each symbol</text>
  <text style="stroke:none;fill:black;font-family:sans-serif;font-size:13;" transform="matrix(1 0 0 1 776 1989)">can be adjusted by modifying the x-location of the margin guidelines.</text>
  <text style="stroke:none;fill:black;font-family:sans-serif;font-size:13;" transform="matrix(1 0 0 1 776 2007)">Modifications are automatically applied proportionally to all</text>
  <text style="stroke:none;fill:black;font-family:sans-serif;font-size:13;" transform="matrix(1 0 0 1 776 2025)">scales and weights.</text>
  <g transform="matrix(0.2 0 0 0.2 1289 1933)">
   <path d="m14.209 9.32617 8.49609 8.54492c4.29688 4.3457 9.22852 4.05273 13.8672-1.07422l53.4668-58.9355-4.83398-4.88281-53.0762 58.3984c-1.75781 2.00195-3.41797 2.49023-5.76172 0.146484l-5.85938-5.81055c-2.34375-2.29492-1.80664-4.00391 0.195312-5.81055l57.373-54.0039-4.88281-4.83398-57.959 54.4434c-4.93164 4.58984-5.32227 9.47266-1.02539 13.8184Zm32.0801-90.9668c-2.09961 2.05078-2.24609 4.93164-1.07422 6.88477 1.17188 1.80664 3.4668 2.97852 6.68945 2.14844 7.32422-1.70898 14.9414-2.00195 22.0703 2.68555l-2.92969 7.27539c-1.70898 4.15039-0.830078 7.08008 1.85547 9.81445l11.4746 11.5723c2.44141 2.44141 4.49219 2.53906 7.32422 2.05078l5.32227-0.976562 3.32031 3.36914-0.195312 2.7832c-0.195312 2.49023 0.439453 4.39453 2.88086 6.78711l3.80859 3.71094c2.39258 2.39258 5.46875 2.53906 7.8125 0.195312l14.5508-14.5996c2.34375-2.34375 2.24609-5.32227-0.146484-7.71484l-3.85742-3.80859c-2.39258-2.39258-4.24805-3.17383-6.64062-2.97852l-2.88086 0.244141-3.22266-3.17383 1.2207-5.61523c0.634766-2.83203-0.146484-5.0293-3.07617-7.95898l-10.9863-10.9375c-16.6992-16.6016-38.8672-16.2109-53.3203-1.75781Zm7.4707 1.85547c12.1582-8.88672 28.6133-7.37305 39.7461 3.75977l12.1582 12.0605c1.17188 1.17188 1.36719 2.09961 1.02539 3.80859l-1.61133 7.42188 7.51953 7.42188 4.93164-0.292969c1.26953-0.0488281 1.66016 0.0488281 2.63672 1.02539l2.88086 2.88086-12.207 12.207-2.88086-2.88086c-0.976562-0.976562-1.12305-1.36719-1.07422-2.68555l0.341797-4.88281-7.4707-7.42188-7.61719 1.26953c-1.61133 0.341797-2.34375 0.195312-3.56445-0.976562l-10.0098-10.0098c-1.26953-1.17188-1.41602-2.00195-0.634766-3.85742l4.39453-10.4492c-7.8125-7.27539-17.9688-10.4004-28.125-7.42188-0.78125 0.195312-1.07422-0.439453-0.439453-0.976562Z"/>
  </g>
  <text style="stroke:none;fill:black;font-family:sans-serif;font-size:13;font-weight:bold;" transform="matrix(1 0 0 1 1289 1953)">Exporting</text>
  <text style="stroke:none;fill:black;font-family:sans-serif;font-size:13;" transform="matrix(1 0 0 1 1289 1971)">Symbols should be outlined when exporting to ensure the</text>
  <text style="stroke:none;fill:black;font-family:sans-serif;font-size:13;" transform="matrix(1 0 0 1 1289 1989)">design is preserved when submitting to Xcode.</text>
  <text id="template-version" style="stroke:none;fill:black;font-family:sans-serif;font-size:13;text-anchor:end;" transform="matrix(1 0 0 1 3036 1933)">Template v.5.0</text>
  <text style="stroke:none;fill:black;font-family:sans-serif;font-size:13;text-anchor:end;" transform="matrix(1 0 0 1 3036 1951)">Requires Xcode 15 or greater</text>
  <text id="descriptive-name" style="stroke:none;fill:black;font-family:sans-serif;font-size:13;text-anchor:end;" transform="matrix(1 0 0 1 3036 1969)">Generated from suv.side.hill.down</text>
  <text style="stroke:none;fill:black;font-family:sans-serif;font-size:13;text-anchor:end;" transform="matrix(1 0 0 1 3036 1987)">Typeset at 100.0 points</text>
  <text style="stroke:none;fill:black;font-family:sans-serif;font-size:13;" transform="matrix(1 0 0 1 263 726)">Small</text>
  <text style="stroke:none;fill:black;font-family:sans-serif;font-size:13;" transform="matrix(1 0 0 1 263 1156)">Medium</text>
  <text style="stroke:none;fill:black;font-family:sans-serif;font-size:13;" transform="matrix(1 0 0 1 263 1586)">Large</text>
 </g>
 <g id="Guides">
  <g id="H-reference" style="fill:#27AAE1;stroke:none;" transform="matrix(1 0 0 1 339 696)">
   <path d="M0.993654 0L3.63775 0L29.3281-67.1323L30.0303-67.1323L30.0303-70.459L28.1226-70.459ZM11.6885-24.4799L46.9815-24.4799L46.2315-26.7285L12.4385-26.7285ZM55.1196 0L57.7637 0L30.6382-70.459L29.4326-70.459L29.4326-67.1323Z"/>
  </g>
  <line id="Baseline-S" style="fill:none;stroke:#27AAE1;opacity:1;stroke-width:0.5;" x1="263" x2="3036" y1="696" y2="696"/>
  <line id="Capline-S" style="fill:none;stroke:#27AAE1;opacity:1;stroke-width:0.5;" x1="263" x2="3036" y1="625.541" y2="625.541"/>
  <g id="H-reference" style="fill:#27AAE1;stroke:none;" transform="matrix(1 0 0 1 339 1126)">
   <path d="M0.993654 0L3.63775 0L29.3281-67.1323L30.0303-67.1323L30.0303-70.459L28.1226-70.459ZM11.6885-24.4799L46.9815-24.4799L46.2315-26.7285L12.4385-26.7285ZM55.1196 0L57.7637 0L30.6382-70.459L29.4326-70.459L29.4326-67.1323Z"/>
  </g>
  <line id="Baseline-M" style="fill:none;stroke:#27AAE1;opacity:1;stroke-width:0.5;" x1="263" x2="3036" y1="1126" y2="1126"/>
  <line id="Capline-M" style="fill:none;stroke:#27AAE1;opacity:1;stroke-width:0.5;" x1="263" x2="3036" y1="1055.54" y2="1055.54"/>
  <g id="H-reference" style="fill:#27AAE1;stroke:none;" transform="matrix(1 0 0 1 339 1556)">
   <path d="M0.993654 0L3.63775 0L29.3281-67.1323L30.0303-67.1323L30.0303-70.459L28.1226-70.459ZM11.6885-24.4799L46.9815-24.4799L46.2315-26.7285L12.4385-26.7285ZM55.1196 0L57.7637 0L30.6382-70.459L29.4326-70.459L29.4326-67.1323Z"/>
  </g>
  <line id="Baseline-L" style="fill:none;stroke:#27AAE1;opacity:1;stroke-width:0.5;" x1="263" x2="3036" y1="1556" y2="1556"/>
  <line id="Capline-L" style="fill:none;stroke:#27AAE1;opacity:1;stroke-width:0.5;" x1="263" x2="3036" y1="1485.54" y2="1485.54"/>
  <line id="left-margin-Ultralight-S" style="fill:none;stroke:#00AEEF;stroke-width:0.5;opacity:1.0;" x1="494.322" x2="494.322" y1="600.785" y2="720.121"/>
  <line id="right-margin-Ultralight-S" style="fill:none;stroke:#00AEEF;stroke-width:0.5;opacity:1.0;" x1="625.1" x2="625.1" y1="600.785" y2="720.121"/>
  <line id="left-margin-Regular-S" style="fill:none;stroke:#00AEEF;stroke-width:0.5;opacity:1.0;" x1="1374.94" x2="1374.94" y1="600.785" y2="720.121"/>
  <line id="right-margin-Regular-S" style="fill:none;stroke:#00AEEF;stroke-width:0.5;opacity:1.0;" x1="1524.75" x2="1524.75" y1="600.785" y2="720.121"/>
  <line id="left-margin-Black-S" style="fill:none;stroke:#00AEEF;stroke-width:0.5;opacity:1.0;" x1="2856.3" x2="2856.3" y1="600.785" y2="720.121"/>
  <line id="right-margin-Black-S" style="fill:none;stroke:#00AEEF;stroke-width:0.5;opacity:1.0;" x1="3010.5" x2="3010.5" y1="600.785" y2="720.121"/>
 </g>
 <g id="Symbols">
  <g id="Black-S" transform="matrix(1 0 0 1 2856.3 696)">
   <path class="SFSymbolsPreviewWireframe" d="M49.2188-13.7207L59.5215-19.6777L53.9551-29.248L45.4102-24.2676C44.5312-23.7305 43.9453-23.9258 43.4082-24.8047L41.8945-27.3438C40.1855-30.3223 40.8691-32.4707 45.6543-36.0352L55.5176-43.4082L62.6465-56.7383C65.8203-62.7441 67.9688-64.7949 76.9531-70.0195L97.6562-81.9336C101.221-83.9844 102.783-84.1309 105.713-82.7637L107.715-81.8359C109.912-80.8105 111.67-79.248 112.695-77.4414L118.164-67.9688C118.75-66.9434 118.652-66.5527 117.676-66.0156L111.621-62.5L117.188-52.9785L125.488-57.7637C130.664-60.7422 132.08-66.1621 129.004-71.3379L122.266-82.959C120.215-86.4746 116.357-89.8438 112.402-91.7969L110.352-92.8223C104.199-95.8496 98.7305-95.3125 92.1387-91.5039L71.4355-79.541C60.9375-73.5352 56.9336-69.7266 52.8809-61.9629L46.9238-50.7324L39.0625-44.7754C30.0781-38.0859 27.5391-30.127 32.373-21.8262L34.7656-17.7246C38.2812-11.7188 43.7012-10.5957 49.2188-13.7207ZM65.5273-23.1445L108.545-47.998L103.027-57.5195L59.9609-32.666ZM65.8691-16.0156C71.9238-19.4824 74.0723-27.2949 70.5566-33.3496C66.9922-39.502 59.1797-41.5527 53.125-38.0859C47.0703-34.5215 44.9219-26.7578 48.4375-20.6055C52.002-14.5508 59.8145-12.4512 65.8691-16.0156ZM60.9375-24.5117C59.5703-23.6816 58.0078-24.1211 57.2266-25.4883C56.4453-26.9531 56.8848-28.4668 58.2031-29.2969C59.6191-30.0293 61.1816-29.6387 61.9629-28.2227C62.7441-26.8555 62.3047-25.293 60.9375-24.5117ZM114.893-44.2383C120.947-47.8027 123.096-55.5664 119.58-61.6699C116.016-67.7734 108.154-69.873 102.1-66.4062C96.0449-62.8418 93.8965-55.0781 97.4609-48.9258C100.977-42.8711 108.789-40.7227 114.893-44.2383ZM109.961-52.7832C108.594-52.002 106.982-52.4414 106.25-53.8086C105.469-55.2246 105.859-56.7383 107.275-57.5684C108.594-58.3008 110.156-57.9102 110.986-56.543C111.768-55.127 111.328-53.5645 109.961-52.7832ZM33.8379 15.6738C35.7422 18.8477 39.7461 19.9219 42.8223 18.1641L141.211-38.623C144.287-40.4297 145.41-44.4336 143.604-47.5586C141.699-50.7324 137.695-51.8555 134.619-50.0488L36.2305 6.73828C33.1543 8.49609 32.0312 12.5488 33.8379 15.6738ZM30.0293-8.69141L21.4355-23.6328C19.4336-27.0996 15.1855-26.2207 14.0625-22.8027L10.0098-10.3027C9.27734-7.91016 10.4004-6.00586 12.793-5.46875L25.6348-2.7832C29.1992-2.00195 32.0312-5.22461 30.0293-8.69141Z"/>
  </g>
  <g id="Regular-S" transform="matrix(1 0 0 1 1374.94 696)">
   <path class="SFSymbolsPreviewWireframe" d="M44.9707-11.0352L53.9062-16.1621L50.3906-22.2656L41.6504-17.2363C40.5273-16.6504 39.5508-16.9922 38.7207-18.5547L36.4746-22.3145C34.0332-26.416 35.498-30.1758 41.0645-34.375L51.0254-41.9434L58.3008-55.6152C61.8652-62.2559 64.5996-64.7461 74.3164-70.4102L94.4336-82.0801C98.6328-84.5215 101.367-84.7656 104.98-83.0566L107.129-82.0801C109.717-80.8105 112.207-78.7598 113.477-76.416L119.824-65.332C120.85-63.623 120.752-62.9883 119.385-62.207L112.207-57.959L115.674-51.8555L123.193-56.25C128.418-59.1797 129.15-63.3301 125.781-69.1895L119.58-79.9316C117.627-83.3496 114.062-86.5723 110.156-88.4277L108.057-89.4043C102.148-92.1875 97.2168-91.8457 90.8691-88.1836L70.752-76.5625C60.0098-70.3125 56.25-66.6992 52.0508-58.8867L45.5566-46.6309L36.7676-40.0391C28.2227-33.5938 25.9766-26.4648 30.3711-18.7988L32.9102-14.3555C35.6445-9.61914 40.332-8.34961 44.9707-11.0352ZM64.1602-22.1191L105.615-46.0938L102.148-52.1484L60.6445-28.2227ZM62.2559-13.1348C67.6758-16.3574 69.4336-23.0469 66.4062-28.418C63.1836-33.8867 56.4453-35.6445 51.0742-32.5195C45.6543-29.3945 43.8477-22.7051 46.9727-17.2363C50.0977-11.8652 56.8359-10.0586 62.2559-13.1348ZM58.7891-19.2871C56.5918-18.0664 54.2969-18.6523 53.125-20.752C51.8555-22.9004 52.4902-25.2441 54.6387-26.4648C56.6895-27.6855 59.0332-27.0996 60.2539-24.9023C61.4258-22.8516 60.8887-20.459 58.7891-19.2871ZM114.355-43.2129C119.727-46.3867 121.533-53.0762 118.457-58.5449C115.283-63.916 108.496-65.7227 103.125-62.5977C97.7051-59.4238 95.8984-52.7344 99.0723-47.3145C102.148-41.9434 108.838-40.0879 114.355-43.2129ZM110.84-49.3652C108.643-48.0957 106.348-48.7793 105.127-50.8301C103.906-52.9297 104.541-55.2734 106.689-56.543C108.74-57.7637 111.084-57.1289 112.305-54.9805C113.525-52.8809 112.939-50.5371 110.84-49.3652ZM33.0566 13.5254C34.082 15.2344 36.2305 15.8203 37.8906 14.8926L138.281-43.1152C139.941-43.9941 140.527-46.1914 139.551-47.8516C138.574-49.6094 136.377-50.0977 134.766-49.2188L34.3262 8.78906C32.7148 9.7168 32.0801 11.9141 33.0566 13.5254ZM27.8809-5.17578L19.4336-19.873C17.9199-22.4609 14.8926-21.8262 14.0625-19.1895L9.96094-6.93359C9.32617-5.17578 10.1562-3.80859 11.9629-3.4668L24.6582-0.830078C27.3438-0.244141 29.3945-2.58789 27.8809-5.17578Z"/>
  </g>
  <g id="Ultralight-S" transform="matrix(1 0 0 1 494.322 696)">
   <path class="SFSymbolsPreviewWireframe" d="M36.0704-14.9858L42.5992-18.7051L41.4903-20.5855L35.0206-16.8276C32.8531-15.5606 31.2408-16.0386 29.9566-18.3276L27.6651-22.269C24.815-27.1426 26.1436-31.311 32.3458-35.9189L40.9898-42.4429L47.3116-54.3892C50.6944-60.7573 53.3834-63.293 62.6461-68.73L80.9015-79.2647C85.2369-81.7515 88.6979-82.0864 92.3565-80.2866L94.3233-79.3555C97.3199-77.8135 99.4469-75.9898 100.943-73.419L107.2-62.6074C108.362-60.5352 108.083-58.9922 105.853-57.7569L100.855-54.8711L101.96-52.9453L106.937-55.8867C110.209-57.7266 110.896-60.5147 109.025-63.6495L102.778-74.4371C101.143-77.3555 98.5778-79.67 95.3072-81.2984L93.3439-82.2295C89.0704-84.2408 84.5929-83.899 79.8346-81.0997L61.5792-70.5684C52.0176-65.1358 48.9844-62.2036 45.3755-55.4356L39.2901-43.9517L31.0005-37.6778C24.1812-32.4585 22.3892-26.9644 25.7847-21.1601L28.0967-17.1709C30.0137-13.7514 32.7032-13.0268 36.0704-14.9858ZM54.7603-25.7065L89.858-45.9575L88.7525-47.8345L53.6514-27.5869ZM51.6754-16.9038C55.9146-19.2636 57.3092-24.5 54.8722-28.6904C52.4669-32.9331 47.3179-34.2822 43.0821-31.8838C38.8882-29.4399 37.4903-24.2944 39.8887-20.0517C42.3326-15.8613 47.5723-14.4633 51.6754-16.9038ZM50.6607-18.7876C47.5098-16.8858 43.6256-17.9258 41.8634-21.1152C39.9581-24.3535 41.0016-28.1504 44.149-30.0068C47.3804-31.8632 51.1773-30.8686 53.0337-27.6269C54.8868-24.4409 53.8956-20.5952 50.6607-18.7876ZM98.8253-44.0757C103.061-46.5229 104.459-51.7139 101.973-55.9112C99.5714-60.1016 94.3736-61.4541 90.274-59.0557C86.0348-56.6538 84.5914-51.4175 87.0387-47.269C89.4337-43.124 94.6246-41.6772 98.8253-44.0757ZM97.7618-45.9595C94.5655-44.0996 90.7721-45.1465 88.9157-48.3325C87.0592-51.522 88.0573-55.3188 91.3409-57.2241C94.4816-59.0806 98.2784-57.9917 100.089-54.8442C101.991-51.6094 100.997-47.8579 97.7618-45.9595ZM28.1978 8.07621C28.4966 8.64995 29.1919 8.87261 29.7169 8.53521L120.481-43.8418C120.96-44.1304 121.183-44.7383 120.887-45.2632C120.501-45.8404 119.802-46.0108 119.326-45.7222L28.5591 6.6548C28.1285 6.99221 27.9024 7.60013 28.1978 8.07621ZM22.9766-11.7602L16.9361-22.2798C16.2852-23.3691 15.165-23.2339 14.6074-22.0957L9.96094-12.746C9.41699-11.6694 10.02-10.6201 11.2363-10.5507L21.7066-9.86663C22.8482-9.82561 23.5821-10.7617 22.9766-11.7602Z"/>
  </g>
 </g>
</svg>
