<?xml version="1.0" encoding="UTF-8"?>
<!--Generator: Apple Native CoreSVG 232.5-->
<!DOCTYPE svg
PUBLIC "-//W3C//DTD SVG 1.1//EN"
       "http://www.w3.org/Graphics/SVG/1.1/DTD/svg11.dtd">
<svg version="1.1" xmlns="http://www.w3.org/2000/svg" xmlns:xlink="http://www.w3.org/1999/xlink" width="3300" height="2200">
 <!--glyph: "uni101A89.medium", point size: 100.0, font version: "19.2d2e1", template writer version: "128"-->
 <style>.SFSymbolsPreviewWireframe {fill:none;opacity:1.0;stroke:black;stroke-width:0.5}
</style>
 <g id="Notes">
  <rect height="2200" id="artboard" style="fill:white;opacity:1" width="3300" x="0" y="0"/>
  <line style="fill:none;stroke:black;opacity:1;stroke-width:0.5;" x1="263" x2="3036" y1="292" y2="292"/>
  <text style="stroke:none;fill:black;font-family:sans-serif;font-size:13;font-weight:bold;" transform="matrix(1 0 0 1 263 322)">Weight/Scale Variations</text>
  <text style="stroke:none;fill:black;font-family:sans-serif;font-size:13;text-anchor:middle;" transform="matrix(1 0 0 1 559.711 322)">Ultralight</text>
  <text style="stroke:none;fill:black;font-family:sans-serif;font-size:13;text-anchor:middle;" transform="matrix(1 0 0 1 856.422 322)">Thin</text>
  <text style="stroke:none;fill:black;font-family:sans-serif;font-size:13;text-anchor:middle;" transform="matrix(1 0 0 1 1153.13 322)">Light</text>
  <text style="stroke:none;fill:black;font-family:sans-serif;font-size:13;text-anchor:middle;" transform="matrix(1 0 0 1 1449.84 322)">Regular</text>
  <text style="stroke:none;fill:black;font-family:sans-serif;font-size:13;text-anchor:middle;" transform="matrix(1 0 0 1 1746.56 322)">Medium</text>
  <text style="stroke:none;fill:black;font-family:sans-serif;font-size:13;text-anchor:middle;" transform="matrix(1 0 0 1 2043.27 322)">Semibold</text>
  <text style="stroke:none;fill:black;font-family:sans-serif;font-size:13;text-anchor:middle;" transform="matrix(1 0 0 1 2339.98 322)">Bold</text>
  <text style="stroke:none;fill:black;font-family:sans-serif;font-size:13;text-anchor:middle;" transform="matrix(1 0 0 1 2636.69 322)">Heavy</text>
  <text style="stroke:none;fill:black;font-family:sans-serif;font-size:13;text-anchor:middle;" transform="matrix(1 0 0 1 2933.4 322)">Black</text>
  <line style="fill:none;stroke:black;opacity:1;stroke-width:0.5;" x1="263" x2="3036" y1="1903" y2="1903"/>
  <g transform="matrix(0.2 0 0 0.2 263 1933)">
   <path d="m46.2402 4.15039c21.5332 0 39.4531-17.8711 39.4531-39.4043s-17.9688-39.4043-39.502-39.4043c-21.4844 0-39.3555 17.8711-39.3555 39.4043s17.9199 39.4043 39.4043 39.4043Zm0-7.42188c-17.7246 0-31.8848-14.209-31.8848-31.9824s14.1113-31.9824 31.8359-31.9824c17.7734 0 32.0312 14.209 32.0312 31.9824s-14.209 31.9824-31.9824 31.9824Zm-17.9688-31.9824c0 2.14844 1.51367 3.61328 3.75977 3.61328h10.498v10.5957c0 2.19727 1.46484 3.71094 3.61328 3.71094 2.24609 0 3.71094-1.51367 3.71094-3.71094v-10.5957h10.5957c2.19727 0 3.71094-1.46484 3.71094-3.61328 0-2.19727-1.51367-3.71094-3.71094-3.71094h-10.5957v-10.5469c0-2.24609-1.46484-3.75977-3.71094-3.75977-2.14844 0-3.61328 1.51367-3.61328 3.75977v10.5469h-10.498c-2.24609 0-3.75977 1.51367-3.75977 3.71094Z"/>
  </g>
  <g transform="matrix(0.2 0 0 0.2 281.506 1933)">
   <path d="m58.5449 14.5508c27.2461 0 49.8047-22.6074 49.8047-49.8047 0-27.2461-22.6074-49.8047-49.8535-49.8047-27.1973 0-49.7559 22.5586-49.7559 49.8047 0 27.1973 22.6074 49.8047 49.8047 49.8047Zm0-8.30078c-23.0469 0-41.4551-18.457-41.4551-41.5039s18.3594-41.5039 41.4062-41.5039 41.5527 18.457 41.5527 41.5039-18.457 41.5039-41.5039 41.5039Zm-22.6562-41.5039c0 2.39258 1.66016 4.00391 4.15039 4.00391h14.3555v14.4043c0 2.44141 1.66016 4.15039 4.05273 4.15039 2.44141 0 4.15039-1.66016 4.15039-4.15039v-14.4043h14.4043c2.44141 0 4.15039-1.61133 4.15039-4.00391 0-2.44141-1.70898-4.15039-4.15039-4.15039h-14.4043v-14.3555c0-2.49023-1.70898-4.19922-4.15039-4.19922-2.39258 0-4.05273 1.70898-4.05273 4.19922v14.3555h-14.3555c-2.49023 0-4.15039 1.70898-4.15039 4.15039Z"/>
  </g>
  <g transform="matrix(0.2 0 0 0.2 304.924 1933)">
   <path d="m74.8535 28.3203c34.8145 0 63.623-28.8086 63.623-63.5742 0-34.8145-28.8574-63.623-63.6719-63.623-34.7656 0-63.5254 28.8086-63.5254 63.623 0 34.7656 28.8086 63.5742 63.5742 63.5742Zm0-9.08203c-30.1758 0-54.4434-24.3164-54.4434-54.4922 0-30.2246 24.2188-54.4922 54.3945-54.4922 30.2246 0 54.541 24.2676 54.541 54.4922 0 30.1758-24.2676 54.4922-54.4922 54.4922Zm-28.8574-54.4922c0 2.58789 1.85547 4.39453 4.58984 4.39453h19.7266v19.7754c0 2.68555 1.85547 4.58984 4.44336 4.58984 2.68555 0 4.54102-1.85547 4.54102-4.58984v-19.7754h19.7754c2.68555 0 4.58984-1.80664 4.58984-4.39453 0-2.73438-1.85547-4.58984-4.58984-4.58984h-19.7754v-19.7266c0-2.73438-1.85547-4.63867-4.54102-4.63867-2.58789 0-4.44336 1.9043-4.44336 4.63867v19.7266h-19.7266c-2.73438 0-4.58984 1.85547-4.58984 4.58984Z"/>
  </g>
  <text style="stroke:none;fill:black;font-family:sans-serif;font-size:13;font-weight:bold;" transform="matrix(1 0 0 1 263 1953)">Design Variations</text>
  <text style="stroke:none;fill:black;font-family:sans-serif;font-size:13;" transform="matrix(1 0 0 1 263 1971)">Symbols are supported in up to nine weights and three scales.</text>
  <text style="stroke:none;fill:black;font-family:sans-serif;font-size:13;" transform="matrix(1 0 0 1 263 1989)">For optimal layout with text and other symbols, vertically align</text>
  <text style="stroke:none;fill:black;font-family:sans-serif;font-size:13;" transform="matrix(1 0 0 1 263 2007)">symbols with the adjacent text.</text>
  <line style="fill:none;stroke:#00AEEF;stroke-width:0.5;opacity:1.0;" x1="776" x2="776" y1="1919" y2="1933"/>
  <g transform="matrix(0.2 0 0 0.2 776 1933)">
   <path d="m16.5527 0.78125c2.58789 0 3.85742-0.976562 4.78516-3.71094l6.29883-17.2363h28.8086l6.29883 17.2363c0.927734 2.73438 2.19727 3.71094 4.73633 3.71094 2.58789 0 4.24805-1.5625 4.24805-4.00391 0-0.830078-0.146484-1.61133-0.537109-2.63672l-22.9004-60.9863c-1.12305-2.97852-3.125-4.49219-6.25-4.49219-3.02734 0-5.07812 1.46484-6.15234 4.44336l-22.9004 61.084c-0.390625 1.02539-0.537109 1.80664-0.537109 2.63672 0 2.44141 1.5625 3.95508 4.10156 3.95508Zm13.4766-28.3691 11.8652-32.8613h0.244141l11.8652 32.8613Z"/>
  </g>
  <line style="fill:none;stroke:#00AEEF;stroke-width:0.5;opacity:1.0;" x1="792.836" x2="792.836" y1="1919" y2="1933"/>
  <text style="stroke:none;fill:black;font-family:sans-serif;font-size:13;font-weight:bold;" transform="matrix(1 0 0 1 776 1953)">Margins</text>
  <text style="stroke:none;fill:black;font-family:sans-serif;font-size:13;" transform="matrix(1 0 0 1 776 1971)">Leading and trailing margins on the left and right side of each symbol</text>
  <text style="stroke:none;fill:black;font-family:sans-serif;font-size:13;" transform="matrix(1 0 0 1 776 1989)">can be adjusted by modifying the x-location of the margin guidelines.</text>
  <text style="stroke:none;fill:black;font-family:sans-serif;font-size:13;" transform="matrix(1 0 0 1 776 2007)">Modifications are automatically applied proportionally to all</text>
  <text style="stroke:none;fill:black;font-family:sans-serif;font-size:13;" transform="matrix(1 0 0 1 776 2025)">scales and weights.</text>
  <g transform="matrix(0.2 0 0 0.2 1289 1933)">
   <path d="m14.209 9.32617 8.49609 8.54492c4.29688 4.3457 9.22852 4.05273 13.8672-1.07422l53.4668-58.9355-4.83398-4.88281-53.0762 58.3984c-1.75781 2.00195-3.41797 2.49023-5.76172 0.146484l-5.85938-5.81055c-2.34375-2.29492-1.80664-4.00391 0.195312-5.81055l57.373-54.0039-4.88281-4.83398-57.959 54.4434c-4.93164 4.58984-5.32227 9.47266-1.02539 13.8184Zm32.0801-90.9668c-2.09961 2.05078-2.24609 4.93164-1.07422 6.88477 1.17188 1.80664 3.4668 2.97852 6.68945 2.14844 7.32422-1.70898 14.9414-2.00195 22.0703 2.68555l-2.92969 7.27539c-1.70898 4.15039-0.830078 7.08008 1.85547 9.81445l11.4746 11.5723c2.44141 2.44141 4.49219 2.53906 7.32422 2.05078l5.32227-0.976562 3.32031 3.36914-0.195312 2.7832c-0.195312 2.49023 0.439453 4.39453 2.88086 6.78711l3.80859 3.71094c2.39258 2.39258 5.46875 2.53906 7.8125 0.195312l14.5508-14.5996c2.34375-2.34375 2.24609-5.32227-0.146484-7.71484l-3.85742-3.80859c-2.39258-2.39258-4.24805-3.17383-6.64062-2.97852l-2.88086 0.244141-3.22266-3.17383 1.2207-5.61523c0.634766-2.83203-0.146484-5.0293-3.07617-7.95898l-10.9863-10.9375c-16.6992-16.6016-38.8672-16.2109-53.3203-1.75781Zm7.4707 1.85547c12.1582-8.88672 28.6133-7.37305 39.7461 3.75977l12.1582 12.0605c1.17188 1.17188 1.36719 2.09961 1.02539 3.80859l-1.61133 7.42188 7.51953 7.42188 4.93164-0.292969c1.26953-0.0488281 1.66016 0.0488281 2.63672 1.02539l2.88086 2.88086-12.207 12.207-2.88086-2.88086c-0.976562-0.976562-1.12305-1.36719-1.07422-2.68555l0.341797-4.88281-7.4707-7.42188-7.61719 1.26953c-1.61133 0.341797-2.34375 0.195312-3.56445-0.976562l-10.0098-10.0098c-1.26953-1.17188-1.41602-2.00195-0.634766-3.85742l4.39453-10.4492c-7.8125-7.27539-17.9688-10.4004-28.125-7.42188-0.78125 0.195312-1.07422-0.439453-0.439453-0.976562Z"/>
  </g>
  <text style="stroke:none;fill:black;font-family:sans-serif;font-size:13;font-weight:bold;" transform="matrix(1 0 0 1 1289 1953)">Exporting</text>
  <text style="stroke:none;fill:black;font-family:sans-serif;font-size:13;" transform="matrix(1 0 0 1 1289 1971)">Symbols should be outlined when exporting to ensure the</text>
  <text style="stroke:none;fill:black;font-family:sans-serif;font-size:13;" transform="matrix(1 0 0 1 1289 1989)">design is preserved when submitting to Xcode.</text>
  <text id="template-version" style="stroke:none;fill:black;font-family:sans-serif;font-size:13;text-anchor:end;" transform="matrix(1 0 0 1 3036 1933)">Template v.5.0</text>
  <text style="stroke:none;fill:black;font-family:sans-serif;font-size:13;text-anchor:end;" transform="matrix(1 0 0 1 3036 1951)">Requires Xcode 15 or greater</text>
  <text id="descriptive-name" style="stroke:none;fill:black;font-family:sans-serif;font-size:13;text-anchor:end;" transform="matrix(1 0 0 1 3036 1969)">Generated from theatermasks.fill</text>
  <text style="stroke:none;fill:black;font-family:sans-serif;font-size:13;text-anchor:end;" transform="matrix(1 0 0 1 3036 1987)">Typeset at 100.0 points</text>
  <text style="stroke:none;fill:black;font-family:sans-serif;font-size:13;" transform="matrix(1 0 0 1 263 726)">Small</text>
  <text style="stroke:none;fill:black;font-family:sans-serif;font-size:13;" transform="matrix(1 0 0 1 263 1156)">Medium</text>
  <text style="stroke:none;fill:black;font-family:sans-serif;font-size:13;" transform="matrix(1 0 0 1 263 1586)">Large</text>
 </g>
 <g id="Guides">
  <g id="H-reference" style="fill:#27AAE1;stroke:none;" transform="matrix(1 0 0 1 339 696)">
   <path d="M0.993654 0L3.63775 0L29.3281-67.1323L30.0303-67.1323L30.0303-70.459L28.1226-70.459ZM11.6885-24.4799L46.9815-24.4799L46.2315-26.7285L12.4385-26.7285ZM55.1196 0L57.7637 0L30.6382-70.459L29.4326-70.459L29.4326-67.1323Z"/>
  </g>
  <line id="Baseline-S" style="fill:none;stroke:#27AAE1;opacity:1;stroke-width:0.5;" x1="263" x2="3036" y1="696" y2="696"/>
  <line id="Capline-S" style="fill:none;stroke:#27AAE1;opacity:1;stroke-width:0.5;" x1="263" x2="3036" y1="625.541" y2="625.541"/>
  <g id="H-reference" style="fill:#27AAE1;stroke:none;" transform="matrix(1 0 0 1 339 1126)">
   <path d="M0.993654 0L3.63775 0L29.3281-67.1323L30.0303-67.1323L30.0303-70.459L28.1226-70.459ZM11.6885-24.4799L46.9815-24.4799L46.2315-26.7285L12.4385-26.7285ZM55.1196 0L57.7637 0L30.6382-70.459L29.4326-70.459L29.4326-67.1323Z"/>
  </g>
  <line id="Baseline-M" style="fill:none;stroke:#27AAE1;opacity:1;stroke-width:0.5;" x1="263" x2="3036" y1="1126" y2="1126"/>
  <line id="Capline-M" style="fill:none;stroke:#27AAE1;opacity:1;stroke-width:0.5;" x1="263" x2="3036" y1="1055.54" y2="1055.54"/>
  <g id="H-reference" style="fill:#27AAE1;stroke:none;" transform="matrix(1 0 0 1 339 1556)">
   <path d="M0.993654 0L3.63775 0L29.3281-67.1323L30.0303-67.1323L30.0303-70.459L28.1226-70.459ZM11.6885-24.4799L46.9815-24.4799L46.2315-26.7285L12.4385-26.7285ZM55.1196 0L57.7637 0L30.6382-70.459L29.4326-70.459L29.4326-67.1323Z"/>
  </g>
  <line id="Baseline-L" style="fill:none;stroke:#27AAE1;opacity:1;stroke-width:0.5;" x1="263" x2="3036" y1="1556" y2="1556"/>
  <line id="Capline-L" style="fill:none;stroke:#27AAE1;opacity:1;stroke-width:0.5;" x1="263" x2="3036" y1="1485.54" y2="1485.54"/>
  <line id="left-margin-Ultralight-S" style="fill:none;stroke:#00AEEF;stroke-width:0.5;opacity:1.0;" x1="488.545" x2="488.545" y1="600.785" y2="720.121"/>
  <line id="right-margin-Ultralight-S" style="fill:none;stroke:#00AEEF;stroke-width:0.5;opacity:1.0;" x1="630.877" x2="630.877" y1="600.785" y2="720.121"/>
  <line id="left-margin-Regular-S" style="fill:none;stroke:#00AEEF;stroke-width:0.5;opacity:1.0;" x1="1374.8" x2="1374.8" y1="600.785" y2="720.121"/>
  <line id="right-margin-Regular-S" style="fill:none;stroke:#00AEEF;stroke-width:0.5;opacity:1.0;" x1="1524.89" x2="1524.89" y1="600.785" y2="720.121"/>
  <line id="left-margin-Black-S" style="fill:none;stroke:#00AEEF;stroke-width:0.5;opacity:1.0;" x1="2851.2" x2="2851.2" y1="600.785" y2="720.121"/>
  <line id="right-margin-Black-S" style="fill:none;stroke:#00AEEF;stroke-width:0.5;opacity:1.0;" x1="3015.6" x2="3015.6" y1="600.785" y2="720.121"/>
 </g>
 <g id="Symbols">
  <g id="Black-S" transform="matrix(1 0 0 1 2851.2 696)">
   <path class="SFSymbolsPreviewWireframe" d="M102.588 9.86328C123.926 15.4297 140.43 5.41992 146.387-16.6992L153.906-44.4336C156.445-53.7109 152.49-60.3027 143.018-62.8418L104.004-73.3398C94.4336-75.9277 87.8906-72.2168 85.3516-62.7441L77.9297-35.1074C71.9238-12.9395 81.2012 4.05273 102.588 9.86328ZM102.588-34.9121C99.7559-35.6445 98.0957-38.5254 98.8281-41.3574C99.5605-44.1895 102.49-45.8008 105.322-45.1172C108.154-44.3359 109.814-41.4062 109.082-38.623C108.301-35.791 105.42-34.0332 102.588-34.9121ZM125.049-28.9062C122.217-29.6387 120.508-32.5684 121.338-35.3516C122.07-38.2324 124.951-39.8926 127.783-39.1113C130.615-38.3301 132.275-35.498 131.543-32.666C130.762-29.7852 127.881-28.125 125.049-28.9062ZM109.326-14.1113C105.518-15.0391 101.025-14.8926 97.5098-14.3555C95.752-14.0625 95.0195-15.3809 95.8008-16.4551C99.2676-21.2402 105.029-23.877 111.475-22.0703C117.92-20.4102 121.973-15.332 122.266-9.42383C122.412-8.00781 121.094-7.27539 119.678-8.39844C116.846-10.6445 113.135-12.9883 109.326-14.1113ZM63.6719 6.78711C88.8184-0.0976562 100.391-20.9961 93.5059-47.0215L86.1328-74.8047C82.6172-88.0371 71.9727-94.1406 58.4961-90.5273L19.4824-80.127C6.05469-76.5625-0.0976562-66.0645 3.4668-52.6367L10.8398-24.9512C17.7734 1.12305 38.2812 13.4766 63.6719 6.78711ZM61.7676-0.292969C83.0078-6.10352 92.2852-23.0469 86.4258-45.166L79.0527-72.9492C76.6113-82.2266 69.9219-85.9863 60.4004-83.4473L21.3867-73.0469C11.8164-70.5078 8.00781-64.0137 10.5469-54.541L17.9199-26.8555C23.8281-4.6875 40.332 5.37109 61.7676-0.292969ZM38.1836-43.0664C35.3027-42.2363 34.9121-40.4785 33.7891-40.1367C33.1055-39.9902 32.373-40.625 32.0312-41.9922C31.1523-45.1172 33.1055-48.5352 36.5234-49.5117C39.8926-50.4395 43.3594-48.3887 44.1406-45.166C44.5312-43.7988 44.1895-42.9199 43.5059-42.7734C42.3828-42.4805 41.1133-43.8477 38.1836-43.0664ZM60.6934-49.1699C57.7148-48.3398 57.3242-46.5332 56.2988-46.2891C55.6152-46.0938 54.834-46.6797 54.541-48.0957C53.7109-51.3184 55.6152-54.6875 58.9355-55.5664C62.4023-56.4453 65.7715-54.4922 66.5527-51.2695C66.9434-49.9023 66.6504-49.0234 65.918-48.8281C64.8926-48.6328 63.623-49.9512 60.6934-49.1699ZM56.6895-18.9453C48.6816-16.7969 41.5039-19.6289 37.5977-25.5859C36.6699-27.0508 37.5488-28.5156 39.6973-28.2715C43.3594-27.9785 49.0234-28.5645 53.8086-29.8828C58.7891-31.2988 64.0137-33.5449 66.7969-35.4492C68.5547-36.7188 70.0195-35.9375 69.9707-34.1797C69.5801-27.1484 64.7949-21.1426 56.6895-18.9453Z"/>
  </g>
  <g id="Regular-S" transform="matrix(1 0 0 1 1374.8 696)">
   <path class="SFSymbolsPreviewWireframe" d="M93.5547 5.51758C112.744 10.5957 127.197 1.9043 132.568-18.0664L139.746-44.7754C141.748-52.3438 138.77-57.1777 131.152-59.3262L93.5547-69.4824C85.791-71.5332 80.9082-68.75 78.8574-61.084L71.6309-34.4238C66.3086-14.5508 74.4629 0.390625 93.5547 5.51758ZM92.5781-35.498C89.8926-36.1816 88.2812-38.916 89.0137-41.6992C89.7461-44.3359 92.4805-45.9473 95.166-45.2148C97.8516-44.4824 99.4629-41.6992 98.7305-39.0137C97.998-36.3281 95.2637-34.7656 92.5781-35.498ZM115.039-29.4922C112.354-30.2246 110.791-33.0078 111.523-35.7422C112.207-38.3789 114.941-39.9414 117.627-39.209C120.361-38.5254 121.924-35.791 121.191-33.0566C120.459-30.3711 117.725-28.8086 115.039-29.4922ZM98.9258-15.1367C95.1172-16.2109 91.6504-16.2109 86.5723-15.0879C84.9609-14.6973 83.9355-16.1133 84.8145-17.3828C88.0371-22.3145 94.5312-24.4141 100.977-22.6074C107.568-20.9473 112.109-15.918 112.354-10.1074C112.451-8.44727 110.889-7.8125 109.668-8.88672C105.859-12.4023 102.832-14.1113 98.9258-15.1367ZM58.0078 1.31836C80.1758-4.73633 90.0879-22.6562 83.9355-45.6543L76.8066-72.3145C73.9746-82.8613 65.918-87.5 55.127-84.6191L17.4805-74.6582C6.68945-71.7773 2.05078-63.8184 4.93164-53.0273L12.0117-26.416C18.1152-3.41797 35.7422 7.22656 58.0078 1.31836ZM56.4941-4.19922C75.6348-9.42383 83.7891-24.1699 78.418-44.1406L71.2891-70.8496C69.2871-78.418 64.2578-81.1523 56.5918-79.1016L18.9453-69.1406C11.2305-67.0898 8.34961-62.207 10.4492-54.541L17.5293-27.8809C22.8516-7.95898 37.3535 0.878906 56.4941-4.19922ZM33.4961-43.457C30.5664-42.627 30.2246-40.7227 28.9551-40.5273C28.3691-40.4297 27.6855-41.1133 27.3926-42.1387C26.4648-45.459 28.5645-48.9746 31.8359-49.7559C35.2051-50.5371 38.623-48.6328 39.502-45.459C39.8438-44.3359 39.5996-43.457 38.9648-43.2129C37.4512-42.6758 36.1328-44.1895 33.4961-43.457ZM56.8359-49.8047C53.9062-48.9258 53.5645-47.0215 52.2949-46.875C51.709-46.7773 51.0254-47.4609 50.7324-48.4863C49.8047-51.7578 51.9043-55.2734 55.1758-56.1035C58.5938-56.9336 61.9629-54.9805 62.8418-51.7578C63.1836-50.6348 62.9395-49.8047 62.3047-49.5605C60.791-48.9746 59.4727-50.5371 56.8359-49.8047ZM52.7832-18.4082C44.873-16.3574 37.1582-19.0918 33.1055-25.3418C32.2754-26.6113 33.0078-27.832 34.5703-27.6855C39.0137-27.3438 45.1172-28.0762 49.8535-29.3457C54.4922-30.5664 60.0098-32.9102 63.8184-35.498C65.1367-36.4258 66.4062-35.7422 66.3574-34.1797C66.0156-26.6602 60.791-20.6055 52.7832-18.4082Z"/>
  </g>
  <g id="Ultralight-S" transform="matrix(1 0 0 1 488.545 696)">
   <path class="SFSymbolsPreviewWireframe" d="M88.8775 3.42873C106.523 8.14357 119.977 0.0424951 124.849-18.4297L132.072-45.6836C133.574-51.3901 131.413-54.8618 125.794-56.4199L86.7432-66.8941C81.0684-68.4453 77.4571-66.4341 75.9512-60.7207L68.6338-33.5156C63.6294-15.0503 71.148-1.38036 88.8775 3.42873ZM87.4014-35.8613C84.9429-36.4995 83.4678-38.9614 84.1094-41.4268C84.7964-43.8364 87.3038-45.3569 89.6714-44.7153C92.1753-43.9829 93.5596-41.5176 92.9634-39.0591C92.2764-36.6006 89.7691-35.1743 87.4014-35.8613ZM109.862-29.9009C107.404-30.4971 105.932-33.0078 106.665-35.4697C107.257-37.8794 109.765-39.3511 112.132-38.6641C114.594-38.0259 116.021-35.564 115.379-33.1021C114.737-30.689 112.23-29.2173 109.862-29.9009ZM93.4766-13.8652C88.896-15.1211 83.4766-15.2573 79.3521-14.4522C78.1949-14.1978 77.669-15.0234 78.2754-16.0659C81.9068-22.3599 89.1729-24.5957 95.8453-22.9253C102.982-21.1289 107.659-15.4639 107.676-8.20021C107.683-7.03956 106.802-6.54103 105.899-7.29738C102.363-10.4951 98.1094-12.6582 93.4766-13.8652ZM54.3296-3.76754C73.6368-9.00485 82.1412-24.4272 76.7608-44.4736L69.3594-71.7241C67.3902-79.0469 62.1035-81.9146 54.8545-79.9873L15.7549-69.5723C8.46044-67.5996 5.32029-62.4107 7.29295-55.0254L14.5547-27.8237C19.9316-7.7319 34.9702 1.3687 54.3296-3.76754ZM53.5425-6.74217C71.1846-11.5127 78.794-25.2598 73.7862-43.6865L66.4302-70.895C64.8824-76.5562 61.3062-78.5186 55.6382-77.0127L16.5386-66.5977C10.8672-65.0918 8.71289-61.5713 10.2676-55.8579L17.5293-28.562C22.4429-10.1387 35.8096-2.02732 53.5425-6.74217ZM31.1802-43.6387C28.6138-42.8994 28.0449-41.0859 27.0025-40.7998C26.5073-40.7021 25.5967-41.2041 25.2129-42.5474C24.3306-45.6406 26.2486-49.02 29.52-49.8467C32.7075-50.7187 36.0801-48.7236 36.8682-45.6406C37.2554-44.3359 36.6934-43.457 36.1948-43.3037C35.1353-42.9936 33.6807-44.2803 31.1802-43.6387ZM54.52-49.8955C51.999-49.2436 51.3848-47.4302 50.3423-47.1475C49.8472-47.0044 48.9365-47.5518 48.5528-48.8042C47.6704-51.894 49.5884-55.3188 52.8599-56.1489C56.0508-57.0698 59.4199-55.0713 60.208-51.9395C60.5952-50.6348 60.0332-49.7139 59.5347-49.5605C58.4751-49.2925 57.0205-50.5371 54.52-49.8955ZM50.4673-18.3174C42.1485-16.1758 34.1612-18.9556 29.836-26.2954C29.2329-27.4741 29.6929-28.3769 31.0283-28.2305C38.9229-27.4346 44.6177-28.9844 47.4014-29.709C50.1783-30.4756 55.9229-32.0474 62.2744-36.6787C63.3657-37.3794 64.3174-36.8774 64.314-35.5874C64.2901-27.0234 58.793-20.6055 50.4673-18.3174Z"/>
  </g>
 </g>
</svg>
