<?xml version="1.0" encoding="UTF-8"?>
<!--Generator: Apple Native CoreSVG 232.5-->
<!DOCTYPE svg
PUBLIC "-//W3C//DTD SVG 1.1//EN"
       "http://www.w3.org/Graphics/SVG/1.1/DTD/svg11.dtd">
<svg version="1.1" xmlns="http://www.w3.org/2000/svg" xmlns:xlink="http://www.w3.org/1999/xlink" width="3300" height="2200">
 <!--glyph: "uni101B57.medium", point size: 100.0, font version: "19.2d2e1", template writer version: "128"-->
 <style>.SFSymbolsPreviewWireframe {fill:none;opacity:1.0;stroke:black;stroke-width:0.5}
</style>
 <g id="Notes">
  <rect height="2200" id="artboard" style="fill:white;opacity:1" width="3300" x="0" y="0"/>
  <line style="fill:none;stroke:black;opacity:1;stroke-width:0.5;" x1="263" x2="3036" y1="292" y2="292"/>
  <text style="stroke:none;fill:black;font-family:sans-serif;font-size:13;font-weight:bold;" transform="matrix(1 0 0 1 263 322)">Weight/Scale Variations</text>
  <text style="stroke:none;fill:black;font-family:sans-serif;font-size:13;text-anchor:middle;" transform="matrix(1 0 0 1 559.711 322)">Ultralight</text>
  <text style="stroke:none;fill:black;font-family:sans-serif;font-size:13;text-anchor:middle;" transform="matrix(1 0 0 1 856.422 322)">Thin</text>
  <text style="stroke:none;fill:black;font-family:sans-serif;font-size:13;text-anchor:middle;" transform="matrix(1 0 0 1 1153.13 322)">Light</text>
  <text style="stroke:none;fill:black;font-family:sans-serif;font-size:13;text-anchor:middle;" transform="matrix(1 0 0 1 1449.84 322)">Regular</text>
  <text style="stroke:none;fill:black;font-family:sans-serif;font-size:13;text-anchor:middle;" transform="matrix(1 0 0 1 1746.56 322)">Medium</text>
  <text style="stroke:none;fill:black;font-family:sans-serif;font-size:13;text-anchor:middle;" transform="matrix(1 0 0 1 2043.27 322)">Semibold</text>
  <text style="stroke:none;fill:black;font-family:sans-serif;font-size:13;text-anchor:middle;" transform="matrix(1 0 0 1 2339.98 322)">Bold</text>
  <text style="stroke:none;fill:black;font-family:sans-serif;font-size:13;text-anchor:middle;" transform="matrix(1 0 0 1 2636.69 322)">Heavy</text>
  <text style="stroke:none;fill:black;font-family:sans-serif;font-size:13;text-anchor:middle;" transform="matrix(1 0 0 1 2933.4 322)">Black</text>
  <line style="fill:none;stroke:black;opacity:1;stroke-width:0.5;" x1="263" x2="3036" y1="1903" y2="1903"/>
  <g transform="matrix(0.2 0 0 0.2 263 1933)">
   <path d="m46.2402 4.15039c21.5332 0 39.4531-17.8711 39.4531-39.4043s-17.9688-39.4043-39.502-39.4043c-21.4844 0-39.3555 17.8711-39.3555 39.4043s17.9199 39.4043 39.4043 39.4043Zm0-7.42188c-17.7246 0-31.8848-14.209-31.8848-31.9824s14.1113-31.9824 31.8359-31.9824c17.7734 0 32.0312 14.209 32.0312 31.9824s-14.209 31.9824-31.9824 31.9824Zm-17.9688-31.9824c0 2.14844 1.51367 3.61328 3.75977 3.61328h10.498v10.5957c0 2.19727 1.46484 3.71094 3.61328 3.71094 2.24609 0 3.71094-1.51367 3.71094-3.71094v-10.5957h10.5957c2.19727 0 3.71094-1.46484 3.71094-3.61328 0-2.19727-1.51367-3.71094-3.71094-3.71094h-10.5957v-10.5469c0-2.24609-1.46484-3.75977-3.71094-3.75977-2.14844 0-3.61328 1.51367-3.61328 3.75977v10.5469h-10.498c-2.24609 0-3.75977 1.51367-3.75977 3.71094Z"/>
  </g>
  <g transform="matrix(0.2 0 0 0.2 281.506 1933)">
   <path d="m58.5449 14.5508c27.2461 0 49.8047-22.6074 49.8047-49.8047 0-27.2461-22.6074-49.8047-49.8535-49.8047-27.1973 0-49.7559 22.5586-49.7559 49.8047 0 27.1973 22.6074 49.8047 49.8047 49.8047Zm0-8.30078c-23.0469 0-41.4551-18.457-41.4551-41.5039s18.3594-41.5039 41.4062-41.5039 41.5527 18.457 41.5527 41.5039-18.457 41.5039-41.5039 41.5039Zm-22.6562-41.5039c0 2.39258 1.66016 4.00391 4.15039 4.00391h14.3555v14.4043c0 2.44141 1.66016 4.15039 4.05273 4.15039 2.44141 0 4.15039-1.66016 4.15039-4.15039v-14.4043h14.4043c2.44141 0 4.15039-1.61133 4.15039-4.00391 0-2.44141-1.70898-4.15039-4.15039-4.15039h-14.4043v-14.3555c0-2.49023-1.70898-4.19922-4.15039-4.19922-2.39258 0-4.05273 1.70898-4.05273 4.19922v14.3555h-14.3555c-2.49023 0-4.15039 1.70898-4.15039 4.15039Z"/>
  </g>
  <g transform="matrix(0.2 0 0 0.2 304.924 1933)">
   <path d="m74.8535 28.3203c34.8145 0 63.623-28.8086 63.623-63.5742 0-34.8145-28.8574-63.623-63.6719-63.623-34.7656 0-63.5254 28.8086-63.5254 63.623 0 34.7656 28.8086 63.5742 63.5742 63.5742Zm0-9.08203c-30.1758 0-54.4434-24.3164-54.4434-54.4922 0-30.2246 24.2188-54.4922 54.3945-54.4922 30.2246 0 54.541 24.2676 54.541 54.4922 0 30.1758-24.2676 54.4922-54.4922 54.4922Zm-28.8574-54.4922c0 2.58789 1.85547 4.39453 4.58984 4.39453h19.7266v19.7754c0 2.68555 1.85547 4.58984 4.44336 4.58984 2.68555 0 4.54102-1.85547 4.54102-4.58984v-19.7754h19.7754c2.68555 0 4.58984-1.80664 4.58984-4.39453 0-2.73438-1.85547-4.58984-4.58984-4.58984h-19.7754v-19.7266c0-2.73438-1.85547-4.63867-4.54102-4.63867-2.58789 0-4.44336 1.9043-4.44336 4.63867v19.7266h-19.7266c-2.73438 0-4.58984 1.85547-4.58984 4.58984Z"/>
  </g>
  <text style="stroke:none;fill:black;font-family:sans-serif;font-size:13;font-weight:bold;" transform="matrix(1 0 0 1 263 1953)">Design Variations</text>
  <text style="stroke:none;fill:black;font-family:sans-serif;font-size:13;" transform="matrix(1 0 0 1 263 1971)">Symbols are supported in up to nine weights and three scales.</text>
  <text style="stroke:none;fill:black;font-family:sans-serif;font-size:13;" transform="matrix(1 0 0 1 263 1989)">For optimal layout with text and other symbols, vertically align</text>
  <text style="stroke:none;fill:black;font-family:sans-serif;font-size:13;" transform="matrix(1 0 0 1 263 2007)">symbols with the adjacent text.</text>
  <line style="fill:none;stroke:#00AEEF;stroke-width:0.5;opacity:1.0;" x1="776" x2="776" y1="1919" y2="1933"/>
  <g transform="matrix(0.2 0 0 0.2 776 1933)">
   <path d="m16.5527 0.78125c2.58789 0 3.85742-0.976562 4.78516-3.71094l6.29883-17.2363h28.8086l6.29883 17.2363c0.927734 2.73438 2.19727 3.71094 4.73633 3.71094 2.58789 0 4.24805-1.5625 4.24805-4.00391 0-0.830078-0.146484-1.61133-0.537109-2.63672l-22.9004-60.9863c-1.12305-2.97852-3.125-4.49219-6.25-4.49219-3.02734 0-5.07812 1.46484-6.15234 4.44336l-22.9004 61.084c-0.390625 1.02539-0.537109 1.80664-0.537109 2.63672 0 2.44141 1.5625 3.95508 4.10156 3.95508Zm13.4766-28.3691 11.8652-32.8613h0.244141l11.8652 32.8613Z"/>
  </g>
  <line style="fill:none;stroke:#00AEEF;stroke-width:0.5;opacity:1.0;" x1="792.836" x2="792.836" y1="1919" y2="1933"/>
  <text style="stroke:none;fill:black;font-family:sans-serif;font-size:13;font-weight:bold;" transform="matrix(1 0 0 1 776 1953)">Margins</text>
  <text style="stroke:none;fill:black;font-family:sans-serif;font-size:13;" transform="matrix(1 0 0 1 776 1971)">Leading and trailing margins on the left and right side of each symbol</text>
  <text style="stroke:none;fill:black;font-family:sans-serif;font-size:13;" transform="matrix(1 0 0 1 776 1989)">can be adjusted by modifying the x-location of the margin guidelines.</text>
  <text style="stroke:none;fill:black;font-family:sans-serif;font-size:13;" transform="matrix(1 0 0 1 776 2007)">Modifications are automatically applied proportionally to all</text>
  <text style="stroke:none;fill:black;font-family:sans-serif;font-size:13;" transform="matrix(1 0 0 1 776 2025)">scales and weights.</text>
  <g transform="matrix(0.2 0 0 0.2 1289 1933)">
   <path d="m14.209 9.32617 8.49609 8.54492c4.29688 4.3457 9.22852 4.05273 13.8672-1.07422l53.4668-58.9355-4.83398-4.88281-53.0762 58.3984c-1.75781 2.00195-3.41797 2.49023-5.76172 0.146484l-5.85938-5.81055c-2.34375-2.29492-1.80664-4.00391 0.195312-5.81055l57.373-54.0039-4.88281-4.83398-57.959 54.4434c-4.93164 4.58984-5.32227 9.47266-1.02539 13.8184Zm32.0801-90.9668c-2.09961 2.05078-2.24609 4.93164-1.07422 6.88477 1.17188 1.80664 3.4668 2.97852 6.68945 2.14844 7.32422-1.70898 14.9414-2.00195 22.0703 2.68555l-2.92969 7.27539c-1.70898 4.15039-0.830078 7.08008 1.85547 9.81445l11.4746 11.5723c2.44141 2.44141 4.49219 2.53906 7.32422 2.05078l5.32227-0.976562 3.32031 3.36914-0.195312 2.7832c-0.195312 2.49023 0.439453 4.39453 2.88086 6.78711l3.80859 3.71094c2.39258 2.39258 5.46875 2.53906 7.8125 0.195312l14.5508-14.5996c2.34375-2.34375 2.24609-5.32227-0.146484-7.71484l-3.85742-3.80859c-2.39258-2.39258-4.24805-3.17383-6.64062-2.97852l-2.88086 0.244141-3.22266-3.17383 1.2207-5.61523c0.634766-2.83203-0.146484-5.0293-3.07617-7.95898l-10.9863-10.9375c-16.6992-16.6016-38.8672-16.2109-53.3203-1.75781Zm7.4707 1.85547c12.1582-8.88672 28.6133-7.37305 39.7461 3.75977l12.1582 12.0605c1.17188 1.17188 1.36719 2.09961 1.02539 3.80859l-1.61133 7.42188 7.51953 7.42188 4.93164-0.292969c1.26953-0.0488281 1.66016 0.0488281 2.63672 1.02539l2.88086 2.88086-12.207 12.207-2.88086-2.88086c-0.976562-0.976562-1.12305-1.36719-1.07422-2.68555l0.341797-4.88281-7.4707-7.42188-7.61719 1.26953c-1.61133 0.341797-2.34375 0.195312-3.56445-0.976562l-10.0098-10.0098c-1.26953-1.17188-1.41602-2.00195-0.634766-3.85742l4.39453-10.4492c-7.8125-7.27539-17.9688-10.4004-28.125-7.42188-0.78125 0.195312-1.07422-0.439453-0.439453-0.976562Z"/>
  </g>
  <text style="stroke:none;fill:black;font-family:sans-serif;font-size:13;font-weight:bold;" transform="matrix(1 0 0 1 1289 1953)">Exporting</text>
  <text style="stroke:none;fill:black;font-family:sans-serif;font-size:13;" transform="matrix(1 0 0 1 1289 1971)">Symbols should be outlined when exporting to ensure the</text>
  <text style="stroke:none;fill:black;font-family:sans-serif;font-size:13;" transform="matrix(1 0 0 1 1289 1989)">design is preserved when submitting to Xcode.</text>
  <text id="template-version" style="stroke:none;fill:black;font-family:sans-serif;font-size:13;text-anchor:end;" transform="matrix(1 0 0 1 3036 1933)">Template v.5.0</text>
  <text style="stroke:none;fill:black;font-family:sans-serif;font-size:13;text-anchor:end;" transform="matrix(1 0 0 1 3036 1951)">Requires Xcode 15 or greater</text>
  <text id="descriptive-name" style="stroke:none;fill:black;font-family:sans-serif;font-size:13;text-anchor:end;" transform="matrix(1 0 0 1 3036 1969)">Generated from theatermask.and.paintbrush</text>
  <text style="stroke:none;fill:black;font-family:sans-serif;font-size:13;text-anchor:end;" transform="matrix(1 0 0 1 3036 1987)">Typeset at 100.0 points</text>
  <text style="stroke:none;fill:black;font-family:sans-serif;font-size:13;" transform="matrix(1 0 0 1 263 726)">Small</text>
  <text style="stroke:none;fill:black;font-family:sans-serif;font-size:13;" transform="matrix(1 0 0 1 263 1156)">Medium</text>
  <text style="stroke:none;fill:black;font-family:sans-serif;font-size:13;" transform="matrix(1 0 0 1 263 1586)">Large</text>
 </g>
 <g id="Guides">
  <g id="H-reference" style="fill:#27AAE1;stroke:none;" transform="matrix(1 0 0 1 339 696)">
   <path d="M0.993654 0L3.63775 0L29.3281-67.1323L30.0303-67.1323L30.0303-70.459L28.1226-70.459ZM11.6885-24.4799L46.9815-24.4799L46.2315-26.7285L12.4385-26.7285ZM55.1196 0L57.7637 0L30.6382-70.459L29.4326-70.459L29.4326-67.1323Z"/>
  </g>
  <line id="Baseline-S" style="fill:none;stroke:#27AAE1;opacity:1;stroke-width:0.5;" x1="263" x2="3036" y1="696" y2="696"/>
  <line id="Capline-S" style="fill:none;stroke:#27AAE1;opacity:1;stroke-width:0.5;" x1="263" x2="3036" y1="625.541" y2="625.541"/>
  <g id="H-reference" style="fill:#27AAE1;stroke:none;" transform="matrix(1 0 0 1 339 1126)">
   <path d="M0.993654 0L3.63775 0L29.3281-67.1323L30.0303-67.1323L30.0303-70.459L28.1226-70.459ZM11.6885-24.4799L46.9815-24.4799L46.2315-26.7285L12.4385-26.7285ZM55.1196 0L57.7637 0L30.6382-70.459L29.4326-70.459L29.4326-67.1323Z"/>
  </g>
  <line id="Baseline-M" style="fill:none;stroke:#27AAE1;opacity:1;stroke-width:0.5;" x1="263" x2="3036" y1="1126" y2="1126"/>
  <line id="Capline-M" style="fill:none;stroke:#27AAE1;opacity:1;stroke-width:0.5;" x1="263" x2="3036" y1="1055.54" y2="1055.54"/>
  <g id="H-reference" style="fill:#27AAE1;stroke:none;" transform="matrix(1 0 0 1 339 1556)">
   <path d="M0.993654 0L3.63775 0L29.3281-67.1323L30.0303-67.1323L30.0303-70.459L28.1226-70.459ZM11.6885-24.4799L46.9815-24.4799L46.2315-26.7285L12.4385-26.7285ZM55.1196 0L57.7637 0L30.6382-70.459L29.4326-70.459L29.4326-67.1323Z"/>
  </g>
  <line id="Baseline-L" style="fill:none;stroke:#27AAE1;opacity:1;stroke-width:0.5;" x1="263" x2="3036" y1="1556" y2="1556"/>
  <line id="Capline-L" style="fill:none;stroke:#27AAE1;opacity:1;stroke-width:0.5;" x1="263" x2="3036" y1="1485.54" y2="1485.54"/>
  <line id="left-margin-Ultralight-S" style="fill:none;stroke:#00AEEF;stroke-width:0.5;opacity:1.0;" x1="506.142" x2="506.142" y1="600.785" y2="720.121"/>
  <line id="right-margin-Ultralight-S" style="fill:none;stroke:#00AEEF;stroke-width:0.5;opacity:1.0;" x1="613.281" x2="613.281" y1="600.785" y2="720.121"/>
  <line id="left-margin-Regular-S" style="fill:none;stroke:#00AEEF;stroke-width:0.5;opacity:1.0;" x1="1393.94" x2="1393.94" y1="600.785" y2="720.121"/>
  <line id="right-margin-Regular-S" style="fill:none;stroke:#00AEEF;stroke-width:0.5;opacity:1.0;" x1="1505.75" x2="1505.75" y1="600.785" y2="720.121"/>
  <line id="left-margin-Black-S" style="fill:none;stroke:#00AEEF;stroke-width:0.5;opacity:1.0;" x1="2874.46" x2="2874.46" y1="600.785" y2="720.121"/>
  <line id="right-margin-Black-S" style="fill:none;stroke:#00AEEF;stroke-width:0.5;opacity:1.0;" x1="2992.34" x2="2992.34" y1="600.785" y2="720.121"/>
 </g>
 <g id="Symbols">
  <g id="Black-S" transform="matrix(1 0 0 1 2874.46 696)">
   <path class="SFSymbolsPreviewWireframe" d="M16.8945-35.3516C21.875-16.7969 35.1562-7.08008 54.9316-12.4023C74.7559-17.6758 81.3965-32.7637 76.416-51.3184L69.9707-75.2441C67.7734-83.4961 62.0605-86.8652 53.7598-84.6191L19.873-75.5371C11.5723-73.291 8.25195-67.5781 10.4492-59.3262ZM52.0508-23.2422C39.7461-20.0195 31.3965-25.2441 27.9297-38.1836L21.5332-61.9141C21.1914-63.1836 21.7285-64.1602 22.9492-64.502L56.5918-73.5352C57.7637-73.8281 58.7402-73.2422 59.082-71.9727L65.4297-48.2422C68.8965-35.3027 64.2578-26.6113 52.0508-23.2422ZM34.2285-49.3652C36.7676-50.0488 37.8906-48.877 38.9648-49.1699C39.7949-49.3652 40.0391-50.3418 39.6484-51.6602C38.8672-54.6875 35.6934-56.4941 32.5195-55.6641C29.3457-54.834 27.5391-51.6602 28.3691-48.6328C28.7109-47.3145 29.3945-46.582 30.2246-46.7773C31.2988-47.0703 31.6406-48.6816 34.2285-49.3652ZM54.7852-54.8828C57.3242-55.5664 58.4473-54.3457 59.5215-54.6387C60.3516-54.8828 60.5957-55.8594 60.2539-57.1777C59.4238-60.2051 56.25-62.0117 53.0762-61.1816C49.9512-60.3027 48.0957-57.1777 48.9258-54.1504C49.2676-52.832 49.9512-52.0996 50.7812-52.2949C51.8555-52.5879 52.2461-54.1992 54.7852-54.8828ZM50.5859-29.2969C57.0801-31.0547 61.2305-35.8887 61.4746-41.8945C61.6699-43.5547 60.0586-44.1406 58.6426-43.0664C55.7617-40.8203 52.3926-39.6973 48.1445-38.5742C43.8965-37.4023 40.3809-36.6699 36.7676-37.207C35.0098-37.4023 33.9355-36.1328 34.9121-34.7656C38.1348-29.6875 44.1406-27.5879 50.5859-29.2969ZM39.3066 6.15234C45.9961 14.5996 65.4785 16.2598 74.8535 6.88477C79.8828 1.9043 81.9336-4.15039 80.957-9.91211C84.1797-11.5723 87.0117-14.3555 89.6973-18.1641C95.2148-25.9766 100.977-38.0371 107.422-57.7148C110.889-68.3594 100.781-76.416 91.6016-68.7988C89.5508-67.041 73.1934-51.7578 62.8906-36.9141C60.2051-33.0078 58.5449-29.2969 58.0566-25.6348C55.6152-24.9512 53.3691-23.584 51.3672-21.5332C44.6777-14.8438 48.1934-8.34961 46.2402-6.39648C43.75-3.90625 41.0645-4.78516 38.7207-2.39258C36.6699-0.195312 36.7188 2.92969 39.3066 6.15234ZM69.1895-24.5605C69.4336-26.2207 70.3125-27.9785 72.1191-30.4688C78.9062-40.0391 88.5254-49.9512 94.1895-55.5664C94.5312-55.9082 94.8242-55.6641 94.7266-55.3223C92.1387-47.6562 87.2559-34.2773 80.4688-24.6094C78.6621-22.0215 77.2949-20.6055 75.6836-19.8242C74.8535-20.8008 73.9258-21.6309 72.9492-22.3145C71.7285-23.2422 70.4102-23.9746 69.1895-24.5605ZM80.127-19.0918L89.3066-23.3398C88.1836-32.666 77.4414-40.3809 68.4082-38.4766L66.6504-28.125C73.0957-29.7852 79.3457-25.4395 80.127-19.0918ZM68.1152-12.5977C71.582-9.61914 71.2402-4.98047 67.1387-0.78125C62.6953 3.80859 56.6406 4.15039 52.6855 2.44141C52.2461 2.24609 52.0508 1.85547 52.3438 1.46484C52.7344 0.976562 53.4668 0.732422 53.9062 0.146484C58.7891-5.66406 55.957-9.91211 58.8867-13.0371C61.377-15.6738 64.6973-15.4785 68.1152-12.5977Z"/>
  </g>
  <g id="Regular-S" transform="matrix(1 0 0 1 1393.94 696)">
   <path class="SFSymbolsPreviewWireframe" d="M16.748-36.6211C21.7285-18.2129 35.4492-10.4492 52.6367-15.0879C69.873-19.6777 77.8809-33.252 72.9492-51.6602L66.5039-75.6348C64.5996-82.7637 59.9609-85.3027 52.9297-83.3984L18.3105-74.0723C11.1816-72.168 8.44727-67.7246 10.3516-60.5957ZM50.7812-22.1191C37.2559-18.5059 27.4414-24.6094 23.7305-38.4766L17.334-62.3047C16.6504-64.8926 17.5781-66.6016 20.2148-67.2852L54.6387-76.5137C57.2754-77.1973 58.9355-76.2207 59.6191-73.584L66.0156-49.8047C69.7266-35.9863 64.2578-25.7324 50.7812-22.1191ZM31.9824-50.1465C34.4727-50.8301 35.6934-49.6582 36.7188-49.9023C37.5488-50.1465 37.8418-51.0742 37.5-52.3438C36.6699-55.4688 33.4473-57.2266 30.3223-56.3965C27.1973-55.5664 25.293-52.3926 26.123-49.2676C26.4648-47.998 27.1973-47.3145 28.0273-47.5586C29.0039-47.8516 29.4434-49.4629 31.9824-50.1465ZM53.0273-55.8105C55.5176-56.4941 56.6895-55.2734 57.7148-55.5176C58.5938-55.7617 58.8379-56.6895 58.4961-57.959C57.666-61.084 54.4922-62.8418 51.3672-62.0117C48.2422-61.1816 46.2891-58.0078 47.1191-54.9316C47.4609-53.6621 48.1445-52.9785 49.0723-53.2227C50.0488-53.4668 50.4883-55.127 53.0273-55.8105ZM48.6328-29.9805C55.3711-31.8359 59.5215-36.7188 59.8145-42.3828C59.9609-44.4336 58.3984-45.0195 57.2754-44.1406C54.1992-41.7969 50.0977-40.332 46.1426-39.3066C42.1875-38.2324 37.9395-37.4512 34.1309-37.9883C32.666-38.1348 31.6406-36.8652 32.7637-35.1562C35.8398-30.3711 41.9434-28.2227 48.6328-29.9805ZM36.6699 4.83398C45.5078 13.3301 60.791 13.9648 69.2383 5.37109C74.1211 0.488281 75.8301-5.46875 74.3164-10.8887C77.7832-12.2559 80.7129-14.9902 83.6426-19.0918C93.7988-33.6426 100.586-56.1035 101.416-58.5449C104.443-67.1875 96.3867-73.5352 88.9648-67.334C86.8652-65.5762 70.4102-50.0488 60.3027-35.4492C57.4219-31.2988 55.9082-27.5391 55.7129-23.7793C53.0762-23.3398 50.6348-22.0703 48.5352-19.873C42.9688-14.2578 46.4355-7.91016 43.5059-4.88281C40.6738-2.09961 37.9395-2.83203 36.084-0.927734C34.7168 0.537109 34.5215 2.73438 36.6699 4.83398ZM62.7441-23.0957C62.6465-25.5371 63.7207-28.125 66.0645-31.3965C76.0254-45.4102 92.0898-60.4492 93.3105-61.7188C94.0918-62.5 95.166-61.8652 94.6289-60.6934C93.9941-59.375 87.7441-37.2559 77.8809-23.1445C75.4883-19.6777 73.3398-17.9688 70.9473-17.1387C70.0195-18.2617 68.8965-19.3359 67.6758-20.2637C66.1621-21.4355 64.4531-22.4609 62.7441-23.0957ZM77.5391-21.7285L82.7637-24.1211C81.0059-31.25 72.8516-37.1094 65.6738-36.4258L64.6973-30.6152C69.1895-31.7383 76.9043-26.3672 77.5391-21.7285ZM65.2344-14.0137C69.4336-9.91211 69.043-4.05273 64.502 0.683594C59.6191 5.81055 51.709 7.17773 45.6055 2.83203C45.2148 2.58789 45.166 2.19727 45.4102 1.9043C45.7031 1.46484 47.6562 0.732422 48.877-1.07422C51.9043-5.41992 49.707-10.6934 53.5645-14.7949C56.5918-18.0176 61.377-17.7246 65.2344-14.0137Z"/>
  </g>
  <g id="Ultralight-S" transform="matrix(1 0 0 1 506.142 696)">
   <path class="SFSymbolsPreviewWireframe" d="M16.6118-39.5273C21.0474-22.9809 33.0879-15.7622 48.9585-19.9467C64.7871-24.2187 71.5689-36.5669 67.1368-53.1133L60.646-77.3603C59.3775-82.1279 55.5108-84.2129 50.7954-82.9897L15.8584-73.6182C11.0908-72.3496 8.81054-68.542 10.1245-63.8652ZM48.4199-22.1191C33.8955-18.2334 22.855-25.0181 18.8262-40.1567L12.2935-64.4389C11.3829-67.8896 12.9917-70.5976 16.4004-71.5083L51.3692-80.8276C54.7779-81.7837 57.5733-80.2622 58.4839-76.8535L64.9712-52.4839C69.0454-37.394 62.8955-26.0049 48.4199-22.1191ZM29.0308-52.9165C31.1577-53.4638 32.5147-52.2466 33.4492-52.5361C33.9615-52.6894 34.5723-53.5718 34.2305-54.8413C33.4458-57.8755 30.4956-59.4971 27.4614-58.667C24.4727-57.8823 22.7046-55.0263 23.5347-51.9922C23.8765-50.7226 24.836-50.2207 25.3936-50.374C26.3247-50.6216 26.855-52.3237 29.0308-52.9165ZM49.8032-58.4443C51.8848-59.0371 53.2837-57.8164 54.1729-58.1059C54.7339-58.2138 55.2959-59.1416 54.9541-60.4111C54.2149-63.4453 51.2681-65.0669 48.2339-64.2368C45.2451-63.4521 43.4737-60.5962 44.3037-57.5654C44.6455-56.2959 45.6016-55.7939 46.166-55.9472C47.0972-56.1914 47.6275-57.897 49.8032-58.4443ZM46.1807-30.3892C53.7818-32.4263 58.6133-38.3989 58.5884-45.834C58.5986-47.1582 57.5811-47.6987 56.5488-46.8652C52.8823-43.9765 47.8726-42.0122 43.3726-40.8052C38.918-39.6401 33.5801-38.8589 28.9541-39.4868C27.6709-39.7241 27.0542-38.727 27.7686-37.563C31.4351-31.0977 38.583-28.3589 46.1807-30.3892ZM34.8535 6.78661C43.0103 13.6479 57.5669 11.0586 63.0625 3.28224C65.8111-0.510734 66.7935-5.06006 65.3707-9.20851C68.9737-10.1216 71.2222-12.1294 74.1065-16.1856C83.1275-29.1016 95.8179-59.1006 96.9204-61.9961C99.1758-67.7778 92.981-72.2183 88.3745-67.9697C86.0479-65.8032 63.962-42.5108 54.9444-29.5459C52.1089-25.4864 51.0039-22.771 51.3081-19.0567C48.0357-18.9805 44.9585-17.5747 42.9498-14.6963C39.6084-10.0347 41.6675-5.91213 39.3736-2.70314C38.0855-0.918955 34.8062-1.33351 33.314 0.707018C32.2193 2.26268 32.3872 4.687 34.8535 6.78661ZM53.7076-18.8726C53.2921-21.7681 54.3663-24.9463 56.71-28.354C66.1261-41.7774 87.5035-64.3091 89.6778-66.5322C92.5025-69.4477 96.6191-66.4516 95.083-62.7822C93.9487-59.9653 81.1597-30.1719 72.2046-17.3775C69.4034-13.3658 67.1641-11.8838 64.4083-11.3716C63.3897-13.1758 61.9034-14.8404 59.7745-16.313C57.8521-17.6665 55.7799-18.5103 53.7076-18.8726ZM72.5894-17.1421L74.5445-17.8545C72.5142-24.7564 63.4971-31.0699 56.3194-30.6133L56.3419-28.5264C62.4688-28.9683 70.8648-23.0977 72.5894-17.1421ZM58.6045-14.5132C64.8472-10.0937 64.9561-3.23536 61.2779 2.04589C56.4405 9.03464 43.626 11.083 36.6143 5.19334C34.9976 3.95018 34.9034 2.51513 35.5108 1.76807C36.4849 0.465828 39.4371 1.00488 41.2481-1.48291C44.003-5.37451 41.9874-9.55811 44.7095-13.3418C47.7369-17.6543 53.9297-17.8608 58.6045-14.5132Z"/>
  </g>
 </g>
</svg>
