<?xml version="1.0" encoding="UTF-8"?>
<!--Generator: Apple Native CoreSVG 232.5-->
<!DOCTYPE svg
PUBLIC "-//W3C//DTD SVG 1.1//EN"
       "http://www.w3.org/Graphics/SVG/1.1/DTD/svg11.dtd">
<svg version="1.1" xmlns="http://www.w3.org/2000/svg" xmlns:xlink="http://www.w3.org/1999/xlink" width="3300" height="2200">
 <!--glyph: "uni101B05.medium", point size: 100.0, font version: "19.2d2e1", template writer version: "128"-->
 <style>.SFSymbolsPreviewWireframe {fill:none;opacity:1.0;stroke:black;stroke-width:0.5}
</style>
 <g id="Notes">
  <rect height="2200" id="artboard" style="fill:white;opacity:1" width="3300" x="0" y="0"/>
  <line style="fill:none;stroke:black;opacity:1;stroke-width:0.5;" x1="263" x2="3036" y1="292" y2="292"/>
  <text style="stroke:none;fill:black;font-family:sans-serif;font-size:13;font-weight:bold;" transform="matrix(1 0 0 1 263 322)">Weight/Scale Variations</text>
  <text style="stroke:none;fill:black;font-family:sans-serif;font-size:13;text-anchor:middle;" transform="matrix(1 0 0 1 559.711 322)">Ultralight</text>
  <text style="stroke:none;fill:black;font-family:sans-serif;font-size:13;text-anchor:middle;" transform="matrix(1 0 0 1 856.422 322)">Thin</text>
  <text style="stroke:none;fill:black;font-family:sans-serif;font-size:13;text-anchor:middle;" transform="matrix(1 0 0 1 1153.13 322)">Light</text>
  <text style="stroke:none;fill:black;font-family:sans-serif;font-size:13;text-anchor:middle;" transform="matrix(1 0 0 1 1449.84 322)">Regular</text>
  <text style="stroke:none;fill:black;font-family:sans-serif;font-size:13;text-anchor:middle;" transform="matrix(1 0 0 1 1746.56 322)">Medium</text>
  <text style="stroke:none;fill:black;font-family:sans-serif;font-size:13;text-anchor:middle;" transform="matrix(1 0 0 1 2043.27 322)">Semibold</text>
  <text style="stroke:none;fill:black;font-family:sans-serif;font-size:13;text-anchor:middle;" transform="matrix(1 0 0 1 2339.98 322)">Bold</text>
  <text style="stroke:none;fill:black;font-family:sans-serif;font-size:13;text-anchor:middle;" transform="matrix(1 0 0 1 2636.69 322)">Heavy</text>
  <text style="stroke:none;fill:black;font-family:sans-serif;font-size:13;text-anchor:middle;" transform="matrix(1 0 0 1 2933.4 322)">Black</text>
  <line style="fill:none;stroke:black;opacity:1;stroke-width:0.5;" x1="263" x2="3036" y1="1903" y2="1903"/>
  <g transform="matrix(0.2 0 0 0.2 263 1933)">
   <path d="m46.2402 4.15039c21.5332 0 39.4531-17.8711 39.4531-39.4043s-17.9688-39.4043-39.502-39.4043c-21.4844 0-39.3555 17.8711-39.3555 39.4043s17.9199 39.4043 39.4043 39.4043Zm0-7.42188c-17.7246 0-31.8848-14.209-31.8848-31.9824s14.1113-31.9824 31.8359-31.9824c17.7734 0 32.0312 14.209 32.0312 31.9824s-14.209 31.9824-31.9824 31.9824Zm-17.9688-31.9824c0 2.14844 1.51367 3.61328 3.75977 3.61328h10.498v10.5957c0 2.19727 1.46484 3.71094 3.61328 3.71094 2.24609 0 3.71094-1.51367 3.71094-3.71094v-10.5957h10.5957c2.19727 0 3.71094-1.46484 3.71094-3.61328 0-2.19727-1.51367-3.71094-3.71094-3.71094h-10.5957v-10.5469c0-2.24609-1.46484-3.75977-3.71094-3.75977-2.14844 0-3.61328 1.51367-3.61328 3.75977v10.5469h-10.498c-2.24609 0-3.75977 1.51367-3.75977 3.71094Z"/>
  </g>
  <g transform="matrix(0.2 0 0 0.2 281.506 1933)">
   <path d="m58.5449 14.5508c27.2461 0 49.8047-22.6074 49.8047-49.8047 0-27.2461-22.6074-49.8047-49.8535-49.8047-27.1973 0-49.7559 22.5586-49.7559 49.8047 0 27.1973 22.6074 49.8047 49.8047 49.8047Zm0-8.30078c-23.0469 0-41.4551-18.457-41.4551-41.5039s18.3594-41.5039 41.4062-41.5039 41.5527 18.457 41.5527 41.5039-18.457 41.5039-41.5039 41.5039Zm-22.6562-41.5039c0 2.39258 1.66016 4.00391 4.15039 4.00391h14.3555v14.4043c0 2.44141 1.66016 4.15039 4.05273 4.15039 2.44141 0 4.15039-1.66016 4.15039-4.15039v-14.4043h14.4043c2.44141 0 4.15039-1.61133 4.15039-4.00391 0-2.44141-1.70898-4.15039-4.15039-4.15039h-14.4043v-14.3555c0-2.49023-1.70898-4.19922-4.15039-4.19922-2.39258 0-4.05273 1.70898-4.05273 4.19922v14.3555h-14.3555c-2.49023 0-4.15039 1.70898-4.15039 4.15039Z"/>
  </g>
  <g transform="matrix(0.2 0 0 0.2 304.924 1933)">
   <path d="m74.8535 28.3203c34.8145 0 63.623-28.8086 63.623-63.5742 0-34.8145-28.8574-63.623-63.6719-63.623-34.7656 0-63.5254 28.8086-63.5254 63.623 0 34.7656 28.8086 63.5742 63.5742 63.5742Zm0-9.08203c-30.1758 0-54.4434-24.3164-54.4434-54.4922 0-30.2246 24.2188-54.4922 54.3945-54.4922 30.2246 0 54.541 24.2676 54.541 54.4922 0 30.1758-24.2676 54.4922-54.4922 54.4922Zm-28.8574-54.4922c0 2.58789 1.85547 4.39453 4.58984 4.39453h19.7266v19.7754c0 2.68555 1.85547 4.58984 4.44336 4.58984 2.68555 0 4.54102-1.85547 4.54102-4.58984v-19.7754h19.7754c2.68555 0 4.58984-1.80664 4.58984-4.39453 0-2.73438-1.85547-4.58984-4.58984-4.58984h-19.7754v-19.7266c0-2.73438-1.85547-4.63867-4.54102-4.63867-2.58789 0-4.44336 1.9043-4.44336 4.63867v19.7266h-19.7266c-2.73438 0-4.58984 1.85547-4.58984 4.58984Z"/>
  </g>
  <text style="stroke:none;fill:black;font-family:sans-serif;font-size:13;font-weight:bold;" transform="matrix(1 0 0 1 263 1953)">Design Variations</text>
  <text style="stroke:none;fill:black;font-family:sans-serif;font-size:13;" transform="matrix(1 0 0 1 263 1971)">Symbols are supported in up to nine weights and three scales.</text>
  <text style="stroke:none;fill:black;font-family:sans-serif;font-size:13;" transform="matrix(1 0 0 1 263 1989)">For optimal layout with text and other symbols, vertically align</text>
  <text style="stroke:none;fill:black;font-family:sans-serif;font-size:13;" transform="matrix(1 0 0 1 263 2007)">symbols with the adjacent text.</text>
  <line style="fill:none;stroke:#00AEEF;stroke-width:0.5;opacity:1.0;" x1="776" x2="776" y1="1919" y2="1933"/>
  <g transform="matrix(0.2 0 0 0.2 776 1933)">
   <path d="m16.5527 0.78125c2.58789 0 3.85742-0.976562 4.78516-3.71094l6.29883-17.2363h28.8086l6.29883 17.2363c0.927734 2.73438 2.19727 3.71094 4.73633 3.71094 2.58789 0 4.24805-1.5625 4.24805-4.00391 0-0.830078-0.146484-1.61133-0.537109-2.63672l-22.9004-60.9863c-1.12305-2.97852-3.125-4.49219-6.25-4.49219-3.02734 0-5.07812 1.46484-6.15234 4.44336l-22.9004 61.084c-0.390625 1.02539-0.537109 1.80664-0.537109 2.63672 0 2.44141 1.5625 3.95508 4.10156 3.95508Zm13.4766-28.3691 11.8652-32.8613h0.244141l11.8652 32.8613Z"/>
  </g>
  <line style="fill:none;stroke:#00AEEF;stroke-width:0.5;opacity:1.0;" x1="792.836" x2="792.836" y1="1919" y2="1933"/>
  <text style="stroke:none;fill:black;font-family:sans-serif;font-size:13;font-weight:bold;" transform="matrix(1 0 0 1 776 1953)">Margins</text>
  <text style="stroke:none;fill:black;font-family:sans-serif;font-size:13;" transform="matrix(1 0 0 1 776 1971)">Leading and trailing margins on the left and right side of each symbol</text>
  <text style="stroke:none;fill:black;font-family:sans-serif;font-size:13;" transform="matrix(1 0 0 1 776 1989)">can be adjusted by modifying the x-location of the margin guidelines.</text>
  <text style="stroke:none;fill:black;font-family:sans-serif;font-size:13;" transform="matrix(1 0 0 1 776 2007)">Modifications are automatically applied proportionally to all</text>
  <text style="stroke:none;fill:black;font-family:sans-serif;font-size:13;" transform="matrix(1 0 0 1 776 2025)">scales and weights.</text>
  <g transform="matrix(0.2 0 0 0.2 1289 1933)">
   <path d="m14.209 9.32617 8.49609 8.54492c4.29688 4.3457 9.22852 4.05273 13.8672-1.07422l53.4668-58.9355-4.83398-4.88281-53.0762 58.3984c-1.75781 2.00195-3.41797 2.49023-5.76172 0.146484l-5.85938-5.81055c-2.34375-2.29492-1.80664-4.00391 0.195312-5.81055l57.373-54.0039-4.88281-4.83398-57.959 54.4434c-4.93164 4.58984-5.32227 9.47266-1.02539 13.8184Zm32.0801-90.9668c-2.09961 2.05078-2.24609 4.93164-1.07422 6.88477 1.17188 1.80664 3.4668 2.97852 6.68945 2.14844 7.32422-1.70898 14.9414-2.00195 22.0703 2.68555l-2.92969 7.27539c-1.70898 4.15039-0.830078 7.08008 1.85547 9.81445l11.4746 11.5723c2.44141 2.44141 4.49219 2.53906 7.32422 2.05078l5.32227-0.976562 3.32031 3.36914-0.195312 2.7832c-0.195312 2.49023 0.439453 4.39453 2.88086 6.78711l3.80859 3.71094c2.39258 2.39258 5.46875 2.53906 7.8125 0.195312l14.5508-14.5996c2.34375-2.34375 2.24609-5.32227-0.146484-7.71484l-3.85742-3.80859c-2.39258-2.39258-4.24805-3.17383-6.64062-2.97852l-2.88086 0.244141-3.22266-3.17383 1.2207-5.61523c0.634766-2.83203-0.146484-5.0293-3.07617-7.95898l-10.9863-10.9375c-16.6992-16.6016-38.8672-16.2109-53.3203-1.75781Zm7.4707 1.85547c12.1582-8.88672 28.6133-7.37305 39.7461 3.75977l12.1582 12.0605c1.17188 1.17188 1.36719 2.09961 1.02539 3.80859l-1.61133 7.42188 7.51953 7.42188 4.93164-0.292969c1.26953-0.0488281 1.66016 0.0488281 2.63672 1.02539l2.88086 2.88086-12.207 12.207-2.88086-2.88086c-0.976562-0.976562-1.12305-1.36719-1.07422-2.68555l0.341797-4.88281-7.4707-7.42188-7.61719 1.26953c-1.61133 0.341797-2.34375 0.195312-3.56445-0.976562l-10.0098-10.0098c-1.26953-1.17188-1.41602-2.00195-0.634766-3.85742l4.39453-10.4492c-7.8125-7.27539-17.9688-10.4004-28.125-7.42188-0.78125 0.195312-1.07422-0.439453-0.439453-0.976562Z"/>
  </g>
  <text style="stroke:none;fill:black;font-family:sans-serif;font-size:13;font-weight:bold;" transform="matrix(1 0 0 1 1289 1953)">Exporting</text>
  <text style="stroke:none;fill:black;font-family:sans-serif;font-size:13;" transform="matrix(1 0 0 1 1289 1971)">Symbols should be outlined when exporting to ensure the</text>
  <text style="stroke:none;fill:black;font-family:sans-serif;font-size:13;" transform="matrix(1 0 0 1 1289 1989)">design is preserved when submitting to Xcode.</text>
  <text id="template-version" style="stroke:none;fill:black;font-family:sans-serif;font-size:13;text-anchor:end;" transform="matrix(1 0 0 1 3036 1933)">Template v.5.0</text>
  <text style="stroke:none;fill:black;font-family:sans-serif;font-size:13;text-anchor:end;" transform="matrix(1 0 0 1 3036 1951)">Requires Xcode 15 or greater</text>
  <text id="descriptive-name" style="stroke:none;fill:black;font-family:sans-serif;font-size:13;text-anchor:end;" transform="matrix(1 0 0 1 3036 1969)">Generated from thermometer.snowflake</text>
  <text style="stroke:none;fill:black;font-family:sans-serif;font-size:13;text-anchor:end;" transform="matrix(1 0 0 1 3036 1987)">Typeset at 100.0 points</text>
  <text style="stroke:none;fill:black;font-family:sans-serif;font-size:13;" transform="matrix(1 0 0 1 263 726)">Small</text>
  <text style="stroke:none;fill:black;font-family:sans-serif;font-size:13;" transform="matrix(1 0 0 1 263 1156)">Medium</text>
  <text style="stroke:none;fill:black;font-family:sans-serif;font-size:13;" transform="matrix(1 0 0 1 263 1586)">Large</text>
 </g>
 <g id="Guides">
  <g id="H-reference" style="fill:#27AAE1;stroke:none;" transform="matrix(1 0 0 1 339 696)">
   <path d="M0.993654 0L3.63775 0L29.3281-67.1323L30.0303-67.1323L30.0303-70.459L28.1226-70.459ZM11.6885-24.4799L46.9815-24.4799L46.2315-26.7285L12.4385-26.7285ZM55.1196 0L57.7637 0L30.6382-70.459L29.4326-70.459L29.4326-67.1323Z"/>
  </g>
  <line id="Baseline-S" style="fill:none;stroke:#27AAE1;opacity:1;stroke-width:0.5;" x1="263" x2="3036" y1="696" y2="696"/>
  <line id="Capline-S" style="fill:none;stroke:#27AAE1;opacity:1;stroke-width:0.5;" x1="263" x2="3036" y1="625.541" y2="625.541"/>
  <g id="H-reference" style="fill:#27AAE1;stroke:none;" transform="matrix(1 0 0 1 339 1126)">
   <path d="M0.993654 0L3.63775 0L29.3281-67.1323L30.0303-67.1323L30.0303-70.459L28.1226-70.459ZM11.6885-24.4799L46.9815-24.4799L46.2315-26.7285L12.4385-26.7285ZM55.1196 0L57.7637 0L30.6382-70.459L29.4326-70.459L29.4326-67.1323Z"/>
  </g>
  <line id="Baseline-M" style="fill:none;stroke:#27AAE1;opacity:1;stroke-width:0.5;" x1="263" x2="3036" y1="1126" y2="1126"/>
  <line id="Capline-M" style="fill:none;stroke:#27AAE1;opacity:1;stroke-width:0.5;" x1="263" x2="3036" y1="1055.54" y2="1055.54"/>
  <g id="H-reference" style="fill:#27AAE1;stroke:none;" transform="matrix(1 0 0 1 339 1556)">
   <path d="M0.993654 0L3.63775 0L29.3281-67.1323L30.0303-67.1323L30.0303-70.459L28.1226-70.459ZM11.6885-24.4799L46.9815-24.4799L46.2315-26.7285L12.4385-26.7285ZM55.1196 0L57.7637 0L30.6382-70.459L29.4326-70.459L29.4326-67.1323Z"/>
  </g>
  <line id="Baseline-L" style="fill:none;stroke:#27AAE1;opacity:1;stroke-width:0.5;" x1="263" x2="3036" y1="1556" y2="1556"/>
  <line id="Capline-L" style="fill:none;stroke:#27AAE1;opacity:1;stroke-width:0.5;" x1="263" x2="3036" y1="1485.54" y2="1485.54"/>
  <line id="left-margin-Ultralight-S" style="fill:none;stroke:#00AEEF;stroke-width:0.5;opacity:1.0;" x1="520.464" x2="520.464" y1="600.785" y2="720.121"/>
  <line id="right-margin-Ultralight-S" style="fill:none;stroke:#00AEEF;stroke-width:0.5;opacity:1.0;" x1="598.958" x2="598.958" y1="600.785" y2="720.121"/>
  <line id="left-margin-Regular-S" style="fill:none;stroke:#00AEEF;stroke-width:0.5;opacity:1.0;" x1="1409.12" x2="1409.12" y1="600.785" y2="720.121"/>
  <line id="right-margin-Regular-S" style="fill:none;stroke:#FF3B30;stroke-width:0.5;opacity:1.0;" x1="1490.57" x2="1490.57" y1="600.785" y2="720.121"/>
  <line id="left-margin-Black-S" style="fill:none;stroke:#00AEEF;stroke-width:0.5;opacity:1.0;" x1="2886.92" x2="2886.92" y1="600.785" y2="720.121"/>
  <line id="right-margin-Black-S" style="fill:none;stroke:#00AEEF;stroke-width:0.5;opacity:1.0;" x1="2979.88" x2="2979.88" y1="600.785" y2="720.121"/>
 </g>
 <g id="Symbols">
  <g id="Black-S" transform="matrix(1 0 0 1 2886.92 696)">
   <path class="SFSymbolsPreviewWireframe" d="M90.1855-41.9922L86.5723-43.9941L89.6973-45.752C91.0645-46.5332 91.4551-48.1445 90.7227-49.4141C89.8926-50.8301 88.3789-51.2207 86.8652-50.3418L81.0547-47.0215L72.8027-51.5625L81.1523-56.1523L86.9629-52.832C88.3789-52.0508 90.0391-52.3926 90.8691-53.7109C91.6504-54.9316 91.1621-56.6406 89.7461-57.4707L86.7188-59.1797L90.1855-61.084C91.8457-62.0117 92.3828-63.7695 91.4551-65.3809C90.5762-66.8945 88.7207-67.334 87.2559-66.4551L83.7402-64.3066L83.7402-67.8711C83.7402-69.4336 82.5684-70.6055 81.1035-70.6543C79.4922-70.7031 78.3691-69.4336 78.3691-67.7246L78.3203-61.0352L70.2148-56.1035L70.4102-65.7715L76.123-69.0918C77.5879-69.9707 78.0762-71.5332 77.3438-72.9004C76.6113-74.2188 74.9512-74.6582 73.5352-73.8281L70.5078-72.0703L70.6055-75.9277C70.6543-77.7832 69.2871-79.1992 67.5293-79.1992C65.7715-79.1992 64.4043-77.7832 64.4531-75.9277L64.5508-72.0703L61.5234-73.8281C60.1074-74.6582 58.4473-74.2188 57.7148-72.9004C56.9824-71.5332 57.4707-69.9707 58.9355-69.0918L64.6484-65.7715L64.8438-56.1035L56.7383-61.0352L56.6895-67.7246C56.6895-69.4336 55.5664-70.7031 53.9551-70.6543C52.4902-70.6055 51.3184-69.4336 51.3184-67.8711L51.3184-64.3066L47.8027-66.4551C46.3379-67.334 44.4824-66.8945 43.6035-65.3809C42.6758-63.7695 43.2129-62.0117 44.873-61.084L48.3398-59.1797L45.3125-57.4707C43.8965-56.6406 43.4082-54.9316 44.1895-53.7109C45.0195-52.3926 46.6797-52.0508 48.0957-52.832L53.9062-56.1523L62.2559-51.5625L54.0039-47.0215L48.1934-50.3418C46.6797-51.2207 45.166-50.8301 44.3359-49.4141C43.6035-48.1445 43.9941-46.5332 45.3613-45.752L48.4863-43.9941L44.873-41.9922C43.4082-41.2109 42.6758-39.3066 43.6035-37.6953C44.4336-36.2793 46.1914-35.6934 47.9004-36.7188L51.416-38.8672L51.416-35.3516C51.416-33.6914 52.6367-32.4707 54.0527-32.5195C55.7129-32.5684 56.7871-33.8379 56.7871-35.4492L56.8359-42.1387L64.8438-47.0215L64.6484-37.5L58.9355-34.1309C57.4219-33.252 56.8848-31.6406 57.7148-30.3223C58.5449-29.0527 60.0586-28.6133 61.4746-29.3945L64.5508-31.1523L64.4531-27.1973C64.4043-25.3418 65.7715-23.9258 67.5293-23.9258C69.2871-23.9258 70.6543-25.3418 70.6055-27.1973L70.5078-31.1523L73.584-29.3945C75-28.6133 76.5137-29.0527 77.3438-30.3223C78.1738-31.6406 77.6367-33.252 76.123-34.1309L70.4102-37.5L70.2148-47.0215L78.2227-42.1387L78.2715-35.4492C78.2715-33.8379 79.3457-32.5684 81.0059-32.5195C82.4219-32.4707 83.6426-33.6914 83.6426-35.3516L83.6426-38.8672L87.1582-36.7188C88.8672-35.6934 90.625-36.2793 91.4551-37.6953C92.3828-39.3066 91.6504-41.2109 90.1855-41.9922ZM35.2051 16.6992C52.3438 16.6992 66.4062 3.17383 66.4062-14.1113C66.4062-21.8262 63.623-28.6621 58.5938-34.1309L58.5938-62.5977C58.5938-76.9531 48.9258-87.1582 35.2051-87.1582C21.3379-87.1582 11.7188-76.9531 11.7188-62.5977L11.7188-34.2285C6.44531-28.8086 3.90625-21.7285 3.90625-14.1113C3.90625 3.17383 17.9688 16.6992 35.2051 16.6992ZM35.2051 10.8398C49.1699 10.8398 60.5469-0.0976562 60.5469-14.1113C60.5469-20.7031 58.1055-26.3672 53.5645-30.9082C52.832-31.6406 52.7344-31.9824 52.7344-32.959L52.7344-62.5977C52.7344-73.7793 45.6055-81.2988 35.2051-81.2988C24.6582-81.2988 17.5781-73.7793 17.5781-62.5977L17.5781-32.959C17.5781-31.9824 17.4805-31.5918 16.748-30.9082C12.0605-26.5625 9.76562-20.7031 9.76562-14.1113C9.76562-0.0976562 21.1426 10.8398 35.2051 10.8398ZM35.2051-0.634766C27.4902-0.634766 21.2891-6.88477 21.2891-14.5996C21.2891-19.7754 23.6328-23.584 27.5879-26.1719C28.7109-26.9043 29.1504-27.4902 29.1504-29.0039L29.1504-62.3047C29.1504-66.7969 31.5918-69.7754 35.2051-69.7754C38.7207-69.7754 41.1621-66.7969 41.1621-62.3047L41.1621-29.0039C41.1621-27.4902 41.6016-26.9043 42.7246-26.1719C46.6797-23.584 49.0234-19.7754 49.0234-14.5996C49.0234-6.88477 42.8223-0.634766 35.2051-0.634766ZM35.1562-5.81055C39.9902-5.81055 43.8965-9.7168 43.8965-14.5996C43.8965-17.9688 41.9922-20.752 39.209-22.2656C38.0371-22.9004 37.6465-23.3398 37.6465-25.0977L37.6465-33.8867C37.6465-35.7422 36.5234-36.8652 35.1562-36.8652C33.7891-36.8652 32.666-35.7422 32.666-33.8867L32.666-25.0977C32.666-23.3398 32.2754-22.9004 31.1035-22.2656C28.3203-20.752 26.416-17.9688 26.416-14.5996C26.416-9.7168 30.3223-5.81055 35.1562-5.81055Z"/>
  </g>
  <g id="Regular-S" transform="matrix(1 0 0 1 1409.12 696)">
   <path class="SFSymbolsPreviewWireframe" d="M80.3711-39.4531L75.4883-42.2363L79.7852-44.7266C80.8594-45.3613 81.25-46.6309 80.6641-47.6562C80.0781-48.8281 78.7109-48.9746 77.5391-48.3398L71.1426-44.6777L60.2051-50.8789L71.2891-57.1289L77.6855-53.418C78.8086-52.7832 80.0781-52.9785 80.8105-54.1016C81.3965-55.127 80.957-56.4453 79.8828-57.0312L75.5859-59.5215L80.4199-62.2559C81.7383-63.0371 82.1777-64.3555 81.4941-65.5762C80.8105-66.7969 79.3945-67.041 78.2715-66.4062L73.3398-63.5254L73.3398-68.4082C73.3398-69.6777 72.4609-70.6543 71.2402-70.6543C69.9219-70.6543 69.1406-69.6777 69.1406-68.2617L69.0918-60.9863L58.1055-54.541L58.252-67.3828L64.5508-71.0449C65.7715-71.7773 66.2109-72.9492 65.5762-74.0723C64.9414-75.1465 63.6719-75.4395 62.5977-74.8047L58.3008-72.3145L58.3496-77.7344C58.3496-79.1504 57.4219-80.3223 56.0059-80.3223C54.5898-80.3223 53.7109-79.1504 53.7109-77.7344L53.7598-72.3145L49.4629-74.8047C48.3398-75.4395 47.0703-75.1465 46.4355-74.0723C45.8496-72.9492 46.2891-71.7773 47.4609-71.0449L53.8086-67.3828L53.9062-54.541L42.9688-60.9863L42.9199-68.2617C42.9199-69.6777 42.0898-70.6543 40.7715-70.6543C39.5996-70.6543 38.6719-69.6777 38.6719-68.4082L38.6719-63.5254L33.7891-66.4062C32.6172-67.041 31.2012-66.7969 30.5664-65.5762C29.834-64.3555 30.2734-63.0371 31.5918-62.2559L36.4258-59.5215L32.1289-57.0312C31.0547-56.4453 30.6641-55.127 31.2012-54.1016C31.9336-52.9785 33.2031-52.7832 34.3262-53.418L40.7227-57.1289L51.8066-50.8789L40.8691-44.6777L34.4727-48.3398C33.3008-48.9746 31.9824-48.8281 31.3477-47.6562C30.7617-46.6309 31.1523-45.3613 32.2754-44.7266L36.5723-42.2363L31.6406-39.4531C30.3711-38.7207 29.834-37.3535 30.5664-36.1328C31.25-34.9609 32.666-34.7168 33.9355-35.4492L38.7695-38.2812L38.8184-33.3496C38.8184-32.1777 39.7461-31.1035 40.918-31.1035C42.1875-31.1523 43.0664-32.1777 43.0664-33.4961L43.0664-40.8203L53.9062-47.2168L53.8086-34.4727L47.5098-30.8105C46.3379-30.0781 45.8496-28.9062 46.4844-27.7832C47.1191-26.709 48.3887-26.4648 49.5117-27.0508L53.7598-29.4922L53.7109-24.0234C53.7109-22.6074 54.5898-21.4844 56.0059-21.4844C57.4219-21.4844 58.3496-22.6074 58.3496-24.0234L58.3008-29.4922L62.5488-27.0508C63.623-26.4648 64.8926-26.709 65.5273-27.7832C66.2109-28.9062 65.7227-30.0781 64.5508-30.8105L58.252-34.4727L58.1055-47.2168L68.9941-40.8203L68.9941-33.4961C68.9941-32.1777 69.8242-31.1523 71.0938-31.1035C72.3145-31.1035 73.1934-32.1777 73.1934-33.3496L73.2422-38.2812L78.0762-35.4492C79.3457-34.7168 80.7617-34.9609 81.4941-36.1328C82.1777-37.3535 81.6895-38.7207 80.3711-39.4531ZM30.1758 12.1094C44.043 12.1094 55.3223 0.830078 55.3223-13.0371C55.3223-20.0195 52.4902-26.2207 47.4121-31.2012L47.4609-64.2578C47.4609-74.9512 40.2832-82.666 30.1758-82.666C20.0195-82.666 12.8418-74.9512 12.8418-64.2578L12.8906-31.2012C7.8125-26.2207 4.98047-20.0195 4.98047-13.0371C4.98047 0.830078 16.2598 12.1094 30.1758 12.1094ZM30.1758 7.32422C41.4062 7.32422 50.5371-1.80664 50.5371-13.0371C50.5371-18.9453 48.0957-24.1211 43.5547-28.3203C42.7734-29.0527 42.627-29.4434 42.627-30.4688L42.6758-64.2578C42.6758-72.4121 37.5977-77.8809 30.1758-77.8809C22.7051-77.8809 17.627-72.4121 17.627-64.2578L17.627-30.4688C17.627-29.4434 17.4805-29.0527 16.748-28.3203C12.207-24.1211 9.76562-18.9453 9.76562-13.0371C9.76562-1.80664 18.8965 7.32422 30.1758 7.32422ZM30.1758 0.976562C22.4121 0.976562 16.1621-5.32227 16.1621-13.0371C16.1621-17.7734 18.457-22.0703 22.4609-24.707C23.584-25.4395 24.0234-26.0742 24.0234-27.5879L24.0234-63.9648C24.0234-68.5059 26.5137-71.4844 30.1758-71.4844C33.7891-71.4844 36.2305-68.5059 36.2305-63.9648L36.2305-27.5879C36.2305-26.0742 36.7188-25.4395 37.8418-24.707C41.7969-22.0703 44.1406-17.7734 44.1406-13.0371C44.1406-5.32227 37.8906 0.976562 30.1758 0.976562ZM30.127-4.19922C35.0586-4.19922 39.0137-8.1543 39.0137-13.0859C39.0137-16.5039 37.0605-19.3359 34.2773-20.8496C33.0566-21.5332 32.666-21.9727 32.666-23.7305L32.666-31.7871C32.666-33.6426 31.543-34.7656 30.127-34.7656C28.7598-34.7656 27.6367-33.6426 27.6367-31.7871L27.6367-23.7305C27.6367-21.9727 27.2461-21.5332 26.0254-20.8496C23.1934-19.3359 21.2891-16.5039 21.2891-13.0859C21.2891-8.1543 25.2441-4.19922 30.127-4.19922Z"/>
  </g>
  <g id="Ultralight-S" transform="matrix(1 0 0 1 520.464 696)">
   <path class="SFSymbolsPreviewWireframe" d="M77.4195-42.541L70.9473-46.3232L76.9697-49.7671C77.499-50.0839 77.8443-50.6723 77.4854-51.2436C77.1719-51.8252 76.5313-51.79 75.9497-51.5185L68.9629-47.4477L55.6187-55.1474L68.9732-62.8505L75.96-58.8217C76.5381-58.5048 77.1719-58.4277 77.4956-59.0512C77.8091-59.6225 77.5059-60.2143 76.9766-60.5278L70.9541-63.9716L77.4229-67.705C77.9693-67.9868 78.3179-68.5786 77.9522-69.209C77.6319-69.7485 76.9878-69.7202 76.4097-69.4033L69.9341-65.7051L69.9341-72.6313C69.9341-73.3105 69.6455-73.8784 68.9697-73.8784C68.2417-73.8784 67.96-73.3105 67.96-72.6211L67.9566-64.5737L54.6089-56.8569L54.6192-72.2417L61.6446-76.3125C62.1841-76.6362 62.5327-77.1723 62.1704-77.7959C61.8989-78.3706 61.2197-78.3457 60.645-78.0288L54.6226-74.5395L54.626-82.0029C54.626-82.6924 54.334-83.2285 53.6445-83.2285C52.9551-83.2285 52.6211-82.6924 52.6211-82.0029L52.6245-74.5395L46.6475-78.0288C46.0694-78.3457 45.3901-78.3706 45.0733-77.7959C44.7144-77.1723 45.063-76.6362 45.6445-76.3125L52.6279-72.2417L52.6348-56.8569L39.2906-64.5737L39.2871-72.6211C39.2871-73.3105 39.0474-73.8784 38.3194-73.8784C37.647-73.8784 37.3096-73.3105 37.3096-72.6313L37.3096-65.7051L30.8828-69.4033C30.3013-69.7202 29.6118-69.7485 29.2949-69.209C28.9712-68.5786 29.3198-67.9868 29.8662-67.705L36.335-63.9716L30.3125-60.5278C29.7378-60.2143 29.438-59.6225 29.7481-59.0512C30.1172-58.4277 30.751-58.5048 31.3291-58.8217L38.3159-62.8505L51.6704-55.1474L38.3262-47.4477L31.294-51.5185C30.7578-51.79 30.1206-51.8252 29.7583-51.2436C29.3994-50.6723 29.7446-50.0839 30.3228-49.7671L36.3452-46.3232L29.8696-42.541C29.2813-42.2627 28.9712-41.6674 29.2949-41.0825C29.6607-40.5009 30.3047-40.5293 30.8931-40.853L37.3164-44.5478L37.3198-37.6635C37.3198-36.9912 37.6572-36.4619 38.3296-36.4619C39.0088-36.4653 39.2974-36.9912 39.2974-37.6738L39.2974-45.6792L52.6348-53.4379L52.6279-38.06L45.648-34.0346C45.0664-33.6655 44.7598-33.1294 45.0767-32.5058C45.3936-31.8857 46.0728-31.9594 46.6509-32.3183L52.6245-35.7587L52.6211-28.292C52.6211-27.6025 52.9551-27.0698 53.6445-27.0698C54.334-27.0698 54.626-27.6025 54.626-28.292L54.6226-35.7587L60.6416-32.3183C61.2163-31.9594 61.8955-31.8857 62.167-32.5058C62.4873-33.1294 62.1807-33.6655 61.6446-34.0346L54.6192-38.06L54.6089-53.4379L67.9951-45.6792L67.9951-37.6738C67.9951-36.9912 68.2349-36.4653 68.9595-36.4619C69.6353-36.4619 69.9239-36.9912 69.9239-37.6635L69.9273-44.5478L76.396-40.853C76.9844-40.5293 77.583-40.5009 77.9522-41.0825C78.3179-41.6674 77.9658-42.2627 77.4195-42.541ZM27.9961 9.70266C39.7744 9.70266 49.2374 0.194341 49.2374-11.4932C49.2374-17.7036 46.6778-23.2691 40.9639-27.8408L40.9673-66.6645C40.9673-74.4971 35.5606-80.2593 27.9961-80.2593C20.4282-80.2593 15.0215-74.4971 15.0215-66.6645L15.0249-27.8408C9.31102-23.2691 6.75145-17.7036 6.75145-11.4932C6.75145 0.194341 16.2144 9.70266 27.9961 9.70266ZM27.9961 6.68848C38.0913 6.68848 46.2232-1.48877 46.2232-11.4932C46.2232-16.9019 44.0088-21.6236 39.3316-25.3687C38.187-26.2827 37.9497-26.9458 37.9497-28.5615L37.9532-66.6645C37.9532-72.8662 33.8286-77.2451 27.9961-77.2451C22.1602-77.2451 18.0356-72.8662 18.0356-66.6645L18.0356-28.5615C18.0356-26.9458 17.7983-26.2827 16.6572-25.3687C11.98-21.6236 9.76562-16.9019 9.76562-11.4932C9.76562-1.48877 17.8975 6.68848 27.9961 6.68848ZM27.9961 4.65476C19.0972 4.65476 11.8482-2.64309 11.8482-11.4932C11.8482-16.3657 13.8706-20.7988 18.2378-23.9805C19.6333-24.9854 20.1636-26.2104 20.1636-27.9512L20.1636-66.644C20.1636-71.5937 23.4258-75.1172 27.9961-75.1172C32.563-75.1172 35.8218-71.5937 35.8218-66.644L35.8218-27.9512C35.8218-26.2104 36.3555-24.9854 37.751-23.9805C42.1147-20.7988 44.1406-16.3657 44.1406-11.4932C44.1406-2.64309 36.8916 4.65476 27.9961 4.65476ZM27.9927-0.475615C34.105-0.475615 38.9683-5.3843 38.9683-11.4966C38.9683-15.7773 36.6064-19.2905 33.0513-21.1675C31.6035-21.9419 31.1221-22.5176 31.1221-24.6841L31.1221-30.7881C31.1221-32.5073 29.8174-33.9482 27.9927-33.9482C26.1714-33.9482 24.8667-32.5073 24.8667-30.7881L24.8667-24.6841C24.8667-22.5176 24.3853-21.9419 22.9375-21.1675C19.3789-19.2905 17.0205-15.7773 17.0205-11.4966C17.0205-5.3843 21.8838-0.475615 27.9927-0.475615Z"/>
  </g>
 </g>
</svg>
