<?xml version="1.0" encoding="UTF-8"?>
<!--Generator: Apple Native CoreSVG 232.5-->
<!DOCTYPE svg
PUBLIC "-//W3C//DTD SVG 1.1//EN"
       "http://www.w3.org/Graphics/SVG/1.1/DTD/svg11.dtd">
<svg version="1.1" xmlns="http://www.w3.org/2000/svg" xmlns:xlink="http://www.w3.org/1999/xlink" width="3300" height="2200">
 <!--glyph: "uni1013C4.medium", point size: 100.0, font version: "19.2d2e1", template writer version: "128"-->
 <style>.SFSymbolsPreviewWireframe {fill:none;opacity:1.0;stroke:black;stroke-width:0.5}
</style>
 <g id="Notes">
  <rect height="2200" id="artboard" style="fill:white;opacity:1" width="3300" x="0" y="0"/>
  <line style="fill:none;stroke:black;opacity:1;stroke-width:0.5;" x1="263" x2="3036" y1="292" y2="292"/>
  <text style="stroke:none;fill:black;font-family:sans-serif;font-size:13;font-weight:bold;" transform="matrix(1 0 0 1 263 322)">Weight/Scale Variations</text>
  <text style="stroke:none;fill:black;font-family:sans-serif;font-size:13;text-anchor:middle;" transform="matrix(1 0 0 1 559.711 322)">Ultralight</text>
  <text style="stroke:none;fill:black;font-family:sans-serif;font-size:13;text-anchor:middle;" transform="matrix(1 0 0 1 856.422 322)">Thin</text>
  <text style="stroke:none;fill:black;font-family:sans-serif;font-size:13;text-anchor:middle;" transform="matrix(1 0 0 1 1153.13 322)">Light</text>
  <text style="stroke:none;fill:black;font-family:sans-serif;font-size:13;text-anchor:middle;" transform="matrix(1 0 0 1 1449.84 322)">Regular</text>
  <text style="stroke:none;fill:black;font-family:sans-serif;font-size:13;text-anchor:middle;" transform="matrix(1 0 0 1 1746.56 322)">Medium</text>
  <text style="stroke:none;fill:black;font-family:sans-serif;font-size:13;text-anchor:middle;" transform="matrix(1 0 0 1 2043.27 322)">Semibold</text>
  <text style="stroke:none;fill:black;font-family:sans-serif;font-size:13;text-anchor:middle;" transform="matrix(1 0 0 1 2339.98 322)">Bold</text>
  <text style="stroke:none;fill:black;font-family:sans-serif;font-size:13;text-anchor:middle;" transform="matrix(1 0 0 1 2636.69 322)">Heavy</text>
  <text style="stroke:none;fill:black;font-family:sans-serif;font-size:13;text-anchor:middle;" transform="matrix(1 0 0 1 2933.4 322)">Black</text>
  <line style="fill:none;stroke:black;opacity:1;stroke-width:0.5;" x1="263" x2="3036" y1="1903" y2="1903"/>
  <g transform="matrix(0.2 0 0 0.2 263 1933)">
   <path d="m46.2402 4.15039c21.5332 0 39.4531-17.8711 39.4531-39.4043s-17.9688-39.4043-39.502-39.4043c-21.4844 0-39.3555 17.8711-39.3555 39.4043s17.9199 39.4043 39.4043 39.4043Zm0-7.42188c-17.7246 0-31.8848-14.209-31.8848-31.9824s14.1113-31.9824 31.8359-31.9824c17.7734 0 32.0312 14.209 32.0312 31.9824s-14.209 31.9824-31.9824 31.9824Zm-17.9688-31.9824c0 2.14844 1.51367 3.61328 3.75977 3.61328h10.498v10.5957c0 2.19727 1.46484 3.71094 3.61328 3.71094 2.24609 0 3.71094-1.51367 3.71094-3.71094v-10.5957h10.5957c2.19727 0 3.71094-1.46484 3.71094-3.61328 0-2.19727-1.51367-3.71094-3.71094-3.71094h-10.5957v-10.5469c0-2.24609-1.46484-3.75977-3.71094-3.75977-2.14844 0-3.61328 1.51367-3.61328 3.75977v10.5469h-10.498c-2.24609 0-3.75977 1.51367-3.75977 3.71094Z"/>
  </g>
  <g transform="matrix(0.2 0 0 0.2 281.506 1933)">
   <path d="m58.5449 14.5508c27.2461 0 49.8047-22.6074 49.8047-49.8047 0-27.2461-22.6074-49.8047-49.8535-49.8047-27.1973 0-49.7559 22.5586-49.7559 49.8047 0 27.1973 22.6074 49.8047 49.8047 49.8047Zm0-8.30078c-23.0469 0-41.4551-18.457-41.4551-41.5039s18.3594-41.5039 41.4062-41.5039 41.5527 18.457 41.5527 41.5039-18.457 41.5039-41.5039 41.5039Zm-22.6562-41.5039c0 2.39258 1.66016 4.00391 4.15039 4.00391h14.3555v14.4043c0 2.44141 1.66016 4.15039 4.05273 4.15039 2.44141 0 4.15039-1.66016 4.15039-4.15039v-14.4043h14.4043c2.44141 0 4.15039-1.61133 4.15039-4.00391 0-2.44141-1.70898-4.15039-4.15039-4.15039h-14.4043v-14.3555c0-2.49023-1.70898-4.19922-4.15039-4.19922-2.39258 0-4.05273 1.70898-4.05273 4.19922v14.3555h-14.3555c-2.49023 0-4.15039 1.70898-4.15039 4.15039Z"/>
  </g>
  <g transform="matrix(0.2 0 0 0.2 304.924 1933)">
   <path d="m74.8535 28.3203c34.8145 0 63.623-28.8086 63.623-63.5742 0-34.8145-28.8574-63.623-63.6719-63.623-34.7656 0-63.5254 28.8086-63.5254 63.623 0 34.7656 28.8086 63.5742 63.5742 63.5742Zm0-9.08203c-30.1758 0-54.4434-24.3164-54.4434-54.4922 0-30.2246 24.2188-54.4922 54.3945-54.4922 30.2246 0 54.541 24.2676 54.541 54.4922 0 30.1758-24.2676 54.4922-54.4922 54.4922Zm-28.8574-54.4922c0 2.58789 1.85547 4.39453 4.58984 4.39453h19.7266v19.7754c0 2.68555 1.85547 4.58984 4.44336 4.58984 2.68555 0 4.54102-1.85547 4.54102-4.58984v-19.7754h19.7754c2.68555 0 4.58984-1.80664 4.58984-4.39453 0-2.73438-1.85547-4.58984-4.58984-4.58984h-19.7754v-19.7266c0-2.73438-1.85547-4.63867-4.54102-4.63867-2.58789 0-4.44336 1.9043-4.44336 4.63867v19.7266h-19.7266c-2.73438 0-4.58984 1.85547-4.58984 4.58984Z"/>
  </g>
  <text style="stroke:none;fill:black;font-family:sans-serif;font-size:13;font-weight:bold;" transform="matrix(1 0 0 1 263 1953)">Design Variations</text>
  <text style="stroke:none;fill:black;font-family:sans-serif;font-size:13;" transform="matrix(1 0 0 1 263 1971)">Symbols are supported in up to nine weights and three scales.</text>
  <text style="stroke:none;fill:black;font-family:sans-serif;font-size:13;" transform="matrix(1 0 0 1 263 1989)">For optimal layout with text and other symbols, vertically align</text>
  <text style="stroke:none;fill:black;font-family:sans-serif;font-size:13;" transform="matrix(1 0 0 1 263 2007)">symbols with the adjacent text.</text>
  <line style="fill:none;stroke:#00AEEF;stroke-width:0.5;opacity:1.0;" x1="776" x2="776" y1="1919" y2="1933"/>
  <g transform="matrix(0.2 0 0 0.2 776 1933)">
   <path d="m16.5527 0.78125c2.58789 0 3.85742-0.976562 4.78516-3.71094l6.29883-17.2363h28.8086l6.29883 17.2363c0.927734 2.73438 2.19727 3.71094 4.73633 3.71094 2.58789 0 4.24805-1.5625 4.24805-4.00391 0-0.830078-0.146484-1.61133-0.537109-2.63672l-22.9004-60.9863c-1.12305-2.97852-3.125-4.49219-6.25-4.49219-3.02734 0-5.07812 1.46484-6.15234 4.44336l-22.9004 61.084c-0.390625 1.02539-0.537109 1.80664-0.537109 2.63672 0 2.44141 1.5625 3.95508 4.10156 3.95508Zm13.4766-28.3691 11.8652-32.8613h0.244141l11.8652 32.8613Z"/>
  </g>
  <line style="fill:none;stroke:#00AEEF;stroke-width:0.5;opacity:1.0;" x1="792.836" x2="792.836" y1="1919" y2="1933"/>
  <text style="stroke:none;fill:black;font-family:sans-serif;font-size:13;font-weight:bold;" transform="matrix(1 0 0 1 776 1953)">Margins</text>
  <text style="stroke:none;fill:black;font-family:sans-serif;font-size:13;" transform="matrix(1 0 0 1 776 1971)">Leading and trailing margins on the left and right side of each symbol</text>
  <text style="stroke:none;fill:black;font-family:sans-serif;font-size:13;" transform="matrix(1 0 0 1 776 1989)">can be adjusted by modifying the x-location of the margin guidelines.</text>
  <text style="stroke:none;fill:black;font-family:sans-serif;font-size:13;" transform="matrix(1 0 0 1 776 2007)">Modifications are automatically applied proportionally to all</text>
  <text style="stroke:none;fill:black;font-family:sans-serif;font-size:13;" transform="matrix(1 0 0 1 776 2025)">scales and weights.</text>
  <g transform="matrix(0.2 0 0 0.2 1289 1933)">
   <path d="m14.209 9.32617 8.49609 8.54492c4.29688 4.3457 9.22852 4.05273 13.8672-1.07422l53.4668-58.9355-4.83398-4.88281-53.0762 58.3984c-1.75781 2.00195-3.41797 2.49023-5.76172 0.146484l-5.85938-5.81055c-2.34375-2.29492-1.80664-4.00391 0.195312-5.81055l57.373-54.0039-4.88281-4.83398-57.959 54.4434c-4.93164 4.58984-5.32227 9.47266-1.02539 13.8184Zm32.0801-90.9668c-2.09961 2.05078-2.24609 4.93164-1.07422 6.88477 1.17188 1.80664 3.4668 2.97852 6.68945 2.14844 7.32422-1.70898 14.9414-2.00195 22.0703 2.68555l-2.92969 7.27539c-1.70898 4.15039-0.830078 7.08008 1.85547 9.81445l11.4746 11.5723c2.44141 2.44141 4.49219 2.53906 7.32422 2.05078l5.32227-0.976562 3.32031 3.36914-0.195312 2.7832c-0.195312 2.49023 0.439453 4.39453 2.88086 6.78711l3.80859 3.71094c2.39258 2.39258 5.46875 2.53906 7.8125 0.195312l14.5508-14.5996c2.34375-2.34375 2.24609-5.32227-0.146484-7.71484l-3.85742-3.80859c-2.39258-2.39258-4.24805-3.17383-6.64062-2.97852l-2.88086 0.244141-3.22266-3.17383 1.2207-5.61523c0.634766-2.83203-0.146484-5.0293-3.07617-7.95898l-10.9863-10.9375c-16.6992-16.6016-38.8672-16.2109-53.3203-1.75781Zm7.4707 1.85547c12.1582-8.88672 28.6133-7.37305 39.7461 3.75977l12.1582 12.0605c1.17188 1.17188 1.36719 2.09961 1.02539 3.80859l-1.61133 7.42188 7.51953 7.42188 4.93164-0.292969c1.26953-0.0488281 1.66016 0.0488281 2.63672 1.02539l2.88086 2.88086-12.207 12.207-2.88086-2.88086c-0.976562-0.976562-1.12305-1.36719-1.07422-2.68555l0.341797-4.88281-7.4707-7.42188-7.61719 1.26953c-1.61133 0.341797-2.34375 0.195312-3.56445-0.976562l-10.0098-10.0098c-1.26953-1.17188-1.41602-2.00195-0.634766-3.85742l4.39453-10.4492c-7.8125-7.27539-17.9688-10.4004-28.125-7.42188-0.78125 0.195312-1.07422-0.439453-0.439453-0.976562Z"/>
  </g>
  <text style="stroke:none;fill:black;font-family:sans-serif;font-size:13;font-weight:bold;" transform="matrix(1 0 0 1 1289 1953)">Exporting</text>
  <text style="stroke:none;fill:black;font-family:sans-serif;font-size:13;" transform="matrix(1 0 0 1 1289 1971)">Symbols should be outlined when exporting to ensure the</text>
  <text style="stroke:none;fill:black;font-family:sans-serif;font-size:13;" transform="matrix(1 0 0 1 1289 1989)">design is preserved when submitting to Xcode.</text>
  <text id="template-version" style="stroke:none;fill:black;font-family:sans-serif;font-size:13;text-anchor:end;" transform="matrix(1 0 0 1 3036 1933)">Template v.5.0</text>
  <text style="stroke:none;fill:black;font-family:sans-serif;font-size:13;text-anchor:end;" transform="matrix(1 0 0 1 3036 1951)">Requires Xcode 15 or greater</text>
  <text id="descriptive-name" style="stroke:none;fill:black;font-family:sans-serif;font-size:13;text-anchor:end;" transform="matrix(1 0 0 1 3036 1969)">Generated from thermometer.high</text>
  <text style="stroke:none;fill:black;font-family:sans-serif;font-size:13;text-anchor:end;" transform="matrix(1 0 0 1 3036 1987)">Typeset at 100.0 points</text>
  <text style="stroke:none;fill:black;font-family:sans-serif;font-size:13;" transform="matrix(1 0 0 1 263 726)">Small</text>
  <text style="stroke:none;fill:black;font-family:sans-serif;font-size:13;" transform="matrix(1 0 0 1 263 1156)">Medium</text>
  <text style="stroke:none;fill:black;font-family:sans-serif;font-size:13;" transform="matrix(1 0 0 1 263 1586)">Large</text>
 </g>
 <g id="Guides">
  <g id="H-reference" style="fill:#27AAE1;stroke:none;" transform="matrix(1 0 0 1 339 696)">
   <path d="M0.993654 0L3.63775 0L29.3281-67.1323L30.0303-67.1323L30.0303-70.459L28.1226-70.459ZM11.6885-24.4799L46.9815-24.4799L46.2315-26.7285L12.4385-26.7285ZM55.1196 0L57.7637 0L30.6382-70.459L29.4326-70.459L29.4326-67.1323Z"/>
  </g>
  <line id="Baseline-S" style="fill:none;stroke:#27AAE1;opacity:1;stroke-width:0.5;" x1="263" x2="3036" y1="696" y2="696"/>
  <line id="Capline-S" style="fill:none;stroke:#27AAE1;opacity:1;stroke-width:0.5;" x1="263" x2="3036" y1="625.541" y2="625.541"/>
  <g id="H-reference" style="fill:#27AAE1;stroke:none;" transform="matrix(1 0 0 1 339 1126)">
   <path d="M0.993654 0L3.63775 0L29.3281-67.1323L30.0303-67.1323L30.0303-70.459L28.1226-70.459ZM11.6885-24.4799L46.9815-24.4799L46.2315-26.7285L12.4385-26.7285ZM55.1196 0L57.7637 0L30.6382-70.459L29.4326-70.459L29.4326-67.1323Z"/>
  </g>
  <line id="Baseline-M" style="fill:none;stroke:#27AAE1;opacity:1;stroke-width:0.5;" x1="263" x2="3036" y1="1126" y2="1126"/>
  <line id="Capline-M" style="fill:none;stroke:#27AAE1;opacity:1;stroke-width:0.5;" x1="263" x2="3036" y1="1055.54" y2="1055.54"/>
  <g id="H-reference" style="fill:#27AAE1;stroke:none;" transform="matrix(1 0 0 1 339 1556)">
   <path d="M0.993654 0L3.63775 0L29.3281-67.1323L30.0303-67.1323L30.0303-70.459L28.1226-70.459ZM11.6885-24.4799L46.9815-24.4799L46.2315-26.7285L12.4385-26.7285ZM55.1196 0L57.7637 0L30.6382-70.459L29.4326-70.459L29.4326-67.1323Z"/>
  </g>
  <line id="Baseline-L" style="fill:none;stroke:#27AAE1;opacity:1;stroke-width:0.5;" x1="263" x2="3036" y1="1556" y2="1556"/>
  <line id="Capline-L" style="fill:none;stroke:#27AAE1;opacity:1;stroke-width:0.5;" x1="263" x2="3036" y1="1485.54" y2="1485.54"/>
  <line id="left-margin-Ultralight-S" style="fill:none;stroke:#00AEEF;stroke-width:0.5;opacity:1.0;" x1="531.717" x2="531.717" y1="600.785" y2="720.121"/>
  <line id="right-margin-Ultralight-S" style="fill:none;stroke:#00AEEF;stroke-width:0.5;opacity:1.0;" x1="587.706" x2="587.706" y1="600.785" y2="720.121"/>
  <line id="left-margin-Regular-S" style="fill:none;stroke:#00AEEF;stroke-width:0.5;opacity:1.0;" x1="1419.69" x2="1419.69" y1="600.785" y2="720.121"/>
  <line id="right-margin-Regular-S" style="fill:none;stroke:#FF3B30;stroke-width:0.5;opacity:1.0;" x1="1480" x2="1480" y1="600.785" y2="720.121"/>
  <line id="left-margin-Black-S" style="fill:none;stroke:#00AEEF;stroke-width:0.5;opacity:1.0;" x1="2898.24" x2="2898.24" y1="600.785" y2="720.121"/>
  <line id="right-margin-Black-S" style="fill:none;stroke:#FF3B30;stroke-width:0.5;opacity:1.0;" x1="2968.56" x2="2968.56" y1="600.785" y2="720.121"/>
 </g>
 <g id="Symbols">
  <g id="Black-S" transform="matrix(1 0 0 1 2898.24 696)">
   <path class="SFSymbolsPreviewWireframe" d="M35.2051 10.8398C49.1699 10.8398 60.5469-0.0976562 60.5469-14.1113C60.5469-20.7031 58.1055-26.3672 53.5645-30.9082C52.832-31.6406 52.7344-31.9824 52.7344-32.959L52.7344-62.5977C52.7344-73.7793 45.6055-81.2988 35.2051-81.2988C24.6582-81.2988 17.5781-73.7793 17.5781-62.5977L17.5781-32.959C17.5781-31.9824 17.4805-31.5918 16.748-30.9082C12.0605-26.5625 9.76562-20.7031 9.76562-14.1113C9.76562-0.0976562 21.1426 10.8398 35.2051 10.8398ZM35.2051-0.634766C27.4902-0.634766 21.2891-6.88477 21.2891-14.5996C21.2891-19.7754 23.6328-23.584 27.5879-26.1719C28.7109-26.9043 29.1504-27.4902 29.1504-29.0039L29.1504-62.3047C29.1504-66.7969 31.5918-69.7754 35.2051-69.7754C38.7207-69.7754 41.1621-66.7969 41.1621-62.3047L41.1621-29.0039C41.1621-27.4902 41.6016-26.9043 42.7246-26.1719C46.6797-23.584 49.0234-19.7754 49.0234-14.5996C49.0234-6.88477 42.8223-0.634766 35.2051-0.634766ZM35.1562-5.81055C39.9902-5.81055 43.8965-9.7168 43.8965-14.5996C43.8965-17.9688 41.9922-20.752 39.209-22.2656C38.0371-22.9004 37.6953-23.3398 37.6953-25.0977L37.6953-63.2812C37.6953-65.1367 36.5723-66.2598 35.2051-66.2598C33.8379-66.2598 32.7148-65.1367 32.7148-63.2812L32.7148-25.0977C32.7148-23.3398 32.2754-22.9004 31.1035-22.2656C28.3203-20.752 26.416-17.9688 26.416-14.5996C26.416-9.7168 30.3223-5.81055 35.1562-5.81055ZM60.498-62.1582L69.3848-62.1582C71.1426-62.1582 72.2656-63.3789 72.2656-64.9902C72.2656-66.6016 71.1426-67.8223 69.3848-67.8223L60.498-67.8223C58.7402-67.8223 57.6172-66.6016 57.6172-64.9902C57.6172-63.3789 58.7402-62.1582 60.498-62.1582ZM60.498-52.1484L69.3848-52.1484C71.1426-52.1484 72.2656-53.3691 72.2656-54.9805C72.2656-56.5918 71.1426-57.8125 69.3848-57.8125L60.498-57.8125C58.7402-57.8125 57.6172-56.5918 57.6172-54.9805C57.6172-53.3691 58.7402-52.1484 60.498-52.1484ZM60.498-41.8945L69.3848-41.8945C71.1426-41.8945 72.2656-43.1152 72.2656-44.7266C72.2656-46.3379 71.1426-47.5586 69.3848-47.5586L60.498-47.5586C58.7402-47.5586 57.6172-46.3379 57.6172-44.7266C57.6172-43.1152 58.7402-41.8945 60.498-41.8945ZM60.498-31.6406L69.3848-31.6406C71.1426-31.6406 72.2656-32.8613 72.2656-34.4727C72.2656-36.084 71.1426-37.3047 69.3848-37.3047L60.498-37.3047C58.7402-37.3047 57.6172-36.084 57.6172-34.4727C57.6172-32.8613 58.7402-31.6406 60.498-31.6406Z"/>
  </g>
  <g id="Regular-S" transform="matrix(1 0 0 1 1419.69 696)">
   <path class="SFSymbolsPreviewWireframe" d="M30.1758 7.32422C41.4062 7.32422 50.5371-1.80664 50.5371-13.0371C50.5371-18.9453 48.0957-24.1211 43.5547-28.3203C42.7734-29.0527 42.627-29.4434 42.627-30.4688L42.6758-64.2578C42.6758-72.4121 37.5977-77.8809 30.1758-77.8809C22.7051-77.8809 17.627-72.4121 17.627-64.2578L17.627-30.4688C17.627-29.4434 17.4805-29.0527 16.748-28.3203C12.207-24.1211 9.76562-18.9453 9.76562-13.0371C9.76562-1.80664 18.8965 7.32422 30.1758 7.32422ZM30.1758 0.976562C22.4121 0.976562 16.1621-5.32227 16.1621-13.0371C16.1621-17.7734 18.457-22.0703 22.4609-24.707C23.584-25.4395 24.0234-26.0742 24.0234-27.5879L24.0234-63.9648C24.0234-68.5059 26.5137-71.4844 30.1758-71.4844C33.7891-71.4844 36.2305-68.5059 36.2305-63.9648L36.2305-27.5879C36.2305-26.0742 36.7188-25.4395 37.8418-24.707C41.7969-22.0703 44.1406-17.7734 44.1406-13.0371C44.1406-5.32227 37.8906 0.976562 30.1758 0.976562ZM30.127-4.19922C35.0586-4.19922 39.0137-8.1543 39.0137-13.0859C39.0137-16.5039 37.0605-19.3359 34.2773-20.8496C33.0566-21.5332 32.666-21.9727 32.666-23.7305L32.666-64.9414C32.666-66.7969 31.543-67.9199 30.127-67.9199C28.7598-67.9199 27.6367-66.7969 27.6367-64.9414L27.6367-23.7305C27.6367-21.9727 27.2461-21.5332 26.0254-20.8496C23.1934-19.3359 21.2891-16.5039 21.2891-13.0859C21.2891-8.1543 25.2441-4.19922 30.127-4.19922ZM50.0977-63.6719L58.5449-63.6719C60.0586-63.6719 61.0352-64.8438 61.0352-66.2109C61.0352-67.5293 60.0586-68.7012 58.5449-68.7012L50.0977-68.7012C48.584-68.7012 47.5586-67.5293 47.5586-66.2109C47.5586-64.8438 48.584-63.6719 50.0977-63.6719ZM50.0977-52.9297L58.5449-52.9297C60.0586-52.9297 61.0352-54.1016 61.0352-55.4688C61.0352-56.7871 60.0586-57.959 58.5449-57.959L50.0977-57.959C48.584-57.959 47.5586-56.7871 47.5586-55.4688C47.5586-54.1016 48.584-52.9297 50.0977-52.9297ZM50.0977-42.1875L58.5449-42.1875C60.0586-42.1875 61.0352-43.3594 61.0352-44.7266C61.0352-46.0449 60.0586-47.2168 58.5449-47.2168L50.0977-47.2168C48.584-47.2168 47.5586-46.0449 47.5586-44.7266C47.5586-43.3594 48.584-42.1875 50.0977-42.1875ZM50.0977-31.4453L58.5449-31.4453C60.0586-31.4453 61.0352-32.6172 61.0352-33.9844C61.0352-35.3027 60.0586-36.4746 58.5449-36.4746L50.0977-36.4746C48.584-36.4746 47.5586-35.3027 47.5586-33.9844C47.5586-32.6172 48.584-31.4453 50.0977-31.4453Z"/>
  </g>
  <g id="Ultralight-S" transform="matrix(1 0 0 1 531.717 696)">
   <path class="SFSymbolsPreviewWireframe" d="M27.9961 6.68848C38.0913 6.68848 46.2232-1.48877 46.2232-11.4932C46.2232-16.9019 44.0088-21.6236 39.3316-25.3687C38.187-26.2827 37.9497-26.9458 37.9497-28.5615L37.9532-66.6645C37.9532-72.8662 33.8286-77.2451 27.9961-77.2451C22.1602-77.2451 18.0356-72.8662 18.0356-66.6645L18.0356-28.5615C18.0356-26.9458 17.7983-26.2827 16.6572-25.3687C11.98-21.6236 9.76562-16.9019 9.76562-11.4932C9.76562-1.48877 17.8975 6.68848 27.9961 6.68848ZM27.9961 4.65476C19.0972 4.65476 11.8482-2.64309 11.8482-11.4932C11.8482-16.3657 13.8706-20.7988 18.2378-23.9805C19.6333-24.9854 20.1636-26.2104 20.1636-27.9512L20.1636-66.644C20.1636-71.5937 23.4258-75.1172 27.9961-75.1172C32.563-75.1172 35.8218-71.5937 35.8218-66.644L35.8218-27.9512C35.8218-26.2104 36.3555-24.9854 37.751-23.9805C42.1147-20.7988 44.1406-16.3657 44.1406-11.4932C44.1406-2.64309 36.8916 4.65476 27.9961 4.65476ZM27.9927-0.475615C34.105-0.475615 38.9683-5.3843 38.9683-11.4966C38.9683-15.7773 36.6064-19.2905 33.0513-21.1675C31.6035-21.9419 31.1221-22.5176 31.1221-24.6841L31.1221-67.2573C31.1221-69.022 29.8174-70.4175 27.9927-70.4175C26.1714-70.4175 24.8667-69.022 24.8667-67.2573L24.8667-24.6841C24.8667-22.5176 24.3853-21.9419 22.9375-21.1675C19.3789-19.2905 17.0205-15.7773 17.0205-11.4966C17.0205-5.3843 21.8838-0.475615 27.9927-0.475615ZM43.9673-63.9443L51.6426-63.9443C52.2481-63.9443 52.7706-64.3897 52.7706-64.9395C52.7706-65.5313 52.2481-65.9766 51.6426-65.9766L43.9673-65.9766C43.3164-65.9766 42.836-65.5313 42.836-64.9395C42.836-64.3897 43.3164-63.9443 43.9673-63.9443ZM43.9673-53.2021L51.6426-53.2021C52.2481-53.2021 52.7706-53.6475 52.7706-54.1973C52.7706-54.7891 52.2481-55.2344 51.6426-55.2344L43.9673-55.2344C43.3164-55.2344 42.836-54.7891 42.836-54.1973C42.836-53.6475 43.3164-53.2021 43.9673-53.2021ZM43.9673-42.46L51.6426-42.46C52.2481-42.46 52.7706-42.9053 52.7706-43.4551C52.7706-44.0469 52.2481-44.4922 51.6426-44.4922L43.9673-44.4922C43.3164-44.4922 42.836-44.0469 42.836-43.4551C42.836-42.9053 43.3164-42.46 43.9673-42.46ZM43.9673-31.7178L51.6426-31.7178C52.2481-31.7178 52.7706-32.1631 52.7706-32.7129C52.7706-33.3047 52.2481-33.75 51.6426-33.75L43.9673-33.75C43.3164-33.75 42.836-33.3047 42.836-32.7129C42.836-32.1631 43.3164-31.7178 43.9673-31.7178Z"/>
  </g>
 </g>
</svg>
