<?xml version="1.0" encoding="UTF-8"?>
<!--Generator: Apple Native CoreSVG 232.5-->
<!DOCTYPE svg
PUBLIC "-//W3C//DTD SVG 1.1//EN"
       "http://www.w3.org/Graphics/SVG/1.1/DTD/svg11.dtd">
<svg version="1.1" xmlns="http://www.w3.org/2000/svg" xmlns:xlink="http://www.w3.org/1999/xlink" width="3300" height="2200">
 <!--glyph: "uni101DCA.medium", point size: 100.0, font version: "19.2d2e1", template writer version: "128"-->
 <style>.SFSymbolsPreviewWireframe {fill:none;opacity:1.0;stroke:black;stroke-width:0.5}
</style>
 <g id="Notes">
  <rect height="2200" id="artboard" style="fill:white;opacity:1" width="3300" x="0" y="0"/>
  <line style="fill:none;stroke:black;opacity:1;stroke-width:0.5;" x1="263" x2="3036" y1="292" y2="292"/>
  <text style="stroke:none;fill:black;font-family:sans-serif;font-size:13;font-weight:bold;" transform="matrix(1 0 0 1 263 322)">Weight/Scale Variations</text>
  <text style="stroke:none;fill:black;font-family:sans-serif;font-size:13;text-anchor:middle;" transform="matrix(1 0 0 1 559.711 322)">Ultralight</text>
  <text style="stroke:none;fill:black;font-family:sans-serif;font-size:13;text-anchor:middle;" transform="matrix(1 0 0 1 856.422 322)">Thin</text>
  <text style="stroke:none;fill:black;font-family:sans-serif;font-size:13;text-anchor:middle;" transform="matrix(1 0 0 1 1153.13 322)">Light</text>
  <text style="stroke:none;fill:black;font-family:sans-serif;font-size:13;text-anchor:middle;" transform="matrix(1 0 0 1 1449.84 322)">Regular</text>
  <text style="stroke:none;fill:black;font-family:sans-serif;font-size:13;text-anchor:middle;" transform="matrix(1 0 0 1 1746.56 322)">Medium</text>
  <text style="stroke:none;fill:black;font-family:sans-serif;font-size:13;text-anchor:middle;" transform="matrix(1 0 0 1 2043.27 322)">Semibold</text>
  <text style="stroke:none;fill:black;font-family:sans-serif;font-size:13;text-anchor:middle;" transform="matrix(1 0 0 1 2339.98 322)">Bold</text>
  <text style="stroke:none;fill:black;font-family:sans-serif;font-size:13;text-anchor:middle;" transform="matrix(1 0 0 1 2636.69 322)">Heavy</text>
  <text style="stroke:none;fill:black;font-family:sans-serif;font-size:13;text-anchor:middle;" transform="matrix(1 0 0 1 2933.4 322)">Black</text>
  <line style="fill:none;stroke:black;opacity:1;stroke-width:0.5;" x1="263" x2="3036" y1="1903" y2="1903"/>
  <g transform="matrix(0.2 0 0 0.2 263 1933)">
   <path d="m46.2402 4.15039c21.5332 0 39.4531-17.8711 39.4531-39.4043s-17.9688-39.4043-39.502-39.4043c-21.4844 0-39.3555 17.8711-39.3555 39.4043s17.9199 39.4043 39.4043 39.4043Zm0-7.42188c-17.7246 0-31.8848-14.209-31.8848-31.9824s14.1113-31.9824 31.8359-31.9824c17.7734 0 32.0312 14.209 32.0312 31.9824s-14.209 31.9824-31.9824 31.9824Zm-17.9688-31.9824c0 2.14844 1.51367 3.61328 3.75977 3.61328h10.498v10.5957c0 2.19727 1.46484 3.71094 3.61328 3.71094 2.24609 0 3.71094-1.51367 3.71094-3.71094v-10.5957h10.5957c2.19727 0 3.71094-1.46484 3.71094-3.61328 0-2.19727-1.51367-3.71094-3.71094-3.71094h-10.5957v-10.5469c0-2.24609-1.46484-3.75977-3.71094-3.75977-2.14844 0-3.61328 1.51367-3.61328 3.75977v10.5469h-10.498c-2.24609 0-3.75977 1.51367-3.75977 3.71094Z"/>
  </g>
  <g transform="matrix(0.2 0 0 0.2 281.506 1933)">
   <path d="m58.5449 14.5508c27.2461 0 49.8047-22.6074 49.8047-49.8047 0-27.2461-22.6074-49.8047-49.8535-49.8047-27.1973 0-49.7559 22.5586-49.7559 49.8047 0 27.1973 22.6074 49.8047 49.8047 49.8047Zm0-8.30078c-23.0469 0-41.4551-18.457-41.4551-41.5039s18.3594-41.5039 41.4062-41.5039 41.5527 18.457 41.5527 41.5039-18.457 41.5039-41.5039 41.5039Zm-22.6562-41.5039c0 2.39258 1.66016 4.00391 4.15039 4.00391h14.3555v14.4043c0 2.44141 1.66016 4.15039 4.05273 4.15039 2.44141 0 4.15039-1.66016 4.15039-4.15039v-14.4043h14.4043c2.44141 0 4.15039-1.61133 4.15039-4.00391 0-2.44141-1.70898-4.15039-4.15039-4.15039h-14.4043v-14.3555c0-2.49023-1.70898-4.19922-4.15039-4.19922-2.39258 0-4.05273 1.70898-4.05273 4.19922v14.3555h-14.3555c-2.49023 0-4.15039 1.70898-4.15039 4.15039Z"/>
  </g>
  <g transform="matrix(0.2 0 0 0.2 304.924 1933)">
   <path d="m74.8535 28.3203c34.8145 0 63.623-28.8086 63.623-63.5742 0-34.8145-28.8574-63.623-63.6719-63.623-34.7656 0-63.5254 28.8086-63.5254 63.623 0 34.7656 28.8086 63.5742 63.5742 63.5742Zm0-9.08203c-30.1758 0-54.4434-24.3164-54.4434-54.4922 0-30.2246 24.2188-54.4922 54.3945-54.4922 30.2246 0 54.541 24.2676 54.541 54.4922 0 30.1758-24.2676 54.4922-54.4922 54.4922Zm-28.8574-54.4922c0 2.58789 1.85547 4.39453 4.58984 4.39453h19.7266v19.7754c0 2.68555 1.85547 4.58984 4.44336 4.58984 2.68555 0 4.54102-1.85547 4.54102-4.58984v-19.7754h19.7754c2.68555 0 4.58984-1.80664 4.58984-4.39453 0-2.73438-1.85547-4.58984-4.58984-4.58984h-19.7754v-19.7266c0-2.73438-1.85547-4.63867-4.54102-4.63867-2.58789 0-4.44336 1.9043-4.44336 4.63867v19.7266h-19.7266c-2.73438 0-4.58984 1.85547-4.58984 4.58984Z"/>
  </g>
  <text style="stroke:none;fill:black;font-family:sans-serif;font-size:13;font-weight:bold;" transform="matrix(1 0 0 1 263 1953)">Design Variations</text>
  <text style="stroke:none;fill:black;font-family:sans-serif;font-size:13;" transform="matrix(1 0 0 1 263 1971)">Symbols are supported in up to nine weights and three scales.</text>
  <text style="stroke:none;fill:black;font-family:sans-serif;font-size:13;" transform="matrix(1 0 0 1 263 1989)">For optimal layout with text and other symbols, vertically align</text>
  <text style="stroke:none;fill:black;font-family:sans-serif;font-size:13;" transform="matrix(1 0 0 1 263 2007)">symbols with the adjacent text.</text>
  <line style="fill:none;stroke:#00AEEF;stroke-width:0.5;opacity:1.0;" x1="776" x2="776" y1="1919" y2="1933"/>
  <g transform="matrix(0.2 0 0 0.2 776 1933)">
   <path d="m16.5527 0.78125c2.58789 0 3.85742-0.976562 4.78516-3.71094l6.29883-17.2363h28.8086l6.29883 17.2363c0.927734 2.73438 2.19727 3.71094 4.73633 3.71094 2.58789 0 4.24805-1.5625 4.24805-4.00391 0-0.830078-0.146484-1.61133-0.537109-2.63672l-22.9004-60.9863c-1.12305-2.97852-3.125-4.49219-6.25-4.49219-3.02734 0-5.07812 1.46484-6.15234 4.44336l-22.9004 61.084c-0.390625 1.02539-0.537109 1.80664-0.537109 2.63672 0 2.44141 1.5625 3.95508 4.10156 3.95508Zm13.4766-28.3691 11.8652-32.8613h0.244141l11.8652 32.8613Z"/>
  </g>
  <line style="fill:none;stroke:#00AEEF;stroke-width:0.5;opacity:1.0;" x1="792.836" x2="792.836" y1="1919" y2="1933"/>
  <text style="stroke:none;fill:black;font-family:sans-serif;font-size:13;font-weight:bold;" transform="matrix(1 0 0 1 776 1953)">Margins</text>
  <text style="stroke:none;fill:black;font-family:sans-serif;font-size:13;" transform="matrix(1 0 0 1 776 1971)">Leading and trailing margins on the left and right side of each symbol</text>
  <text style="stroke:none;fill:black;font-family:sans-serif;font-size:13;" transform="matrix(1 0 0 1 776 1989)">can be adjusted by modifying the x-location of the margin guidelines.</text>
  <text style="stroke:none;fill:black;font-family:sans-serif;font-size:13;" transform="matrix(1 0 0 1 776 2007)">Modifications are automatically applied proportionally to all</text>
  <text style="stroke:none;fill:black;font-family:sans-serif;font-size:13;" transform="matrix(1 0 0 1 776 2025)">scales and weights.</text>
  <g transform="matrix(0.2 0 0 0.2 1289 1933)">
   <path d="m14.209 9.32617 8.49609 8.54492c4.29688 4.3457 9.22852 4.05273 13.8672-1.07422l53.4668-58.9355-4.83398-4.88281-53.0762 58.3984c-1.75781 2.00195-3.41797 2.49023-5.76172 0.146484l-5.85938-5.81055c-2.34375-2.29492-1.80664-4.00391 0.195312-5.81055l57.373-54.0039-4.88281-4.83398-57.959 54.4434c-4.93164 4.58984-5.32227 9.47266-1.02539 13.8184Zm32.0801-90.9668c-2.09961 2.05078-2.24609 4.93164-1.07422 6.88477 1.17188 1.80664 3.4668 2.97852 6.68945 2.14844 7.32422-1.70898 14.9414-2.00195 22.0703 2.68555l-2.92969 7.27539c-1.70898 4.15039-0.830078 7.08008 1.85547 9.81445l11.4746 11.5723c2.44141 2.44141 4.49219 2.53906 7.32422 2.05078l5.32227-0.976562 3.32031 3.36914-0.195312 2.7832c-0.195312 2.49023 0.439453 4.39453 2.88086 6.78711l3.80859 3.71094c2.39258 2.39258 5.46875 2.53906 7.8125 0.195312l14.5508-14.5996c2.34375-2.34375 2.24609-5.32227-0.146484-7.71484l-3.85742-3.80859c-2.39258-2.39258-4.24805-3.17383-6.64062-2.97852l-2.88086 0.244141-3.22266-3.17383 1.2207-5.61523c0.634766-2.83203-0.146484-5.0293-3.07617-7.95898l-10.9863-10.9375c-16.6992-16.6016-38.8672-16.2109-53.3203-1.75781Zm7.4707 1.85547c12.1582-8.88672 28.6133-7.37305 39.7461 3.75977l12.1582 12.0605c1.17188 1.17188 1.36719 2.09961 1.02539 3.80859l-1.61133 7.42188 7.51953 7.42188 4.93164-0.292969c1.26953-0.0488281 1.66016 0.0488281 2.63672 1.02539l2.88086 2.88086-12.207 12.207-2.88086-2.88086c-0.976562-0.976562-1.12305-1.36719-1.07422-2.68555l0.341797-4.88281-7.4707-7.42188-7.61719 1.26953c-1.61133 0.341797-2.34375 0.195312-3.56445-0.976562l-10.0098-10.0098c-1.26953-1.17188-1.41602-2.00195-0.634766-3.85742l4.39453-10.4492c-7.8125-7.27539-17.9688-10.4004-28.125-7.42188-0.78125 0.195312-1.07422-0.439453-0.439453-0.976562Z"/>
  </g>
  <text style="stroke:none;fill:black;font-family:sans-serif;font-size:13;font-weight:bold;" transform="matrix(1 0 0 1 1289 1953)">Exporting</text>
  <text style="stroke:none;fill:black;font-family:sans-serif;font-size:13;" transform="matrix(1 0 0 1 1289 1971)">Symbols should be outlined when exporting to ensure the</text>
  <text style="stroke:none;fill:black;font-family:sans-serif;font-size:13;" transform="matrix(1 0 0 1 1289 1989)">design is preserved when submitting to Xcode.</text>
  <text id="template-version" style="stroke:none;fill:black;font-family:sans-serif;font-size:13;text-anchor:end;" transform="matrix(1 0 0 1 3036 1933)">Template v.5.0</text>
  <text style="stroke:none;fill:black;font-family:sans-serif;font-size:13;text-anchor:end;" transform="matrix(1 0 0 1 3036 1951)">Requires Xcode 15 or greater</text>
  <text id="descriptive-name" style="stroke:none;fill:black;font-family:sans-serif;font-size:13;text-anchor:end;" transform="matrix(1 0 0 1 3036 1969)">Generated from thermometer.variable.and.figure.circle</text>
  <text style="stroke:none;fill:black;font-family:sans-serif;font-size:13;text-anchor:end;" transform="matrix(1 0 0 1 3036 1987)">Typeset at 100.0 points</text>
  <text style="stroke:none;fill:black;font-family:sans-serif;font-size:13;" transform="matrix(1 0 0 1 263 726)">Small</text>
  <text style="stroke:none;fill:black;font-family:sans-serif;font-size:13;" transform="matrix(1 0 0 1 263 1156)">Medium</text>
  <text style="stroke:none;fill:black;font-family:sans-serif;font-size:13;" transform="matrix(1 0 0 1 263 1586)">Large</text>
 </g>
 <g id="Guides">
  <g id="H-reference" style="fill:#27AAE1;stroke:none;" transform="matrix(1 0 0 1 339 696)">
   <path d="M0.993654 0L3.63775 0L29.3281-67.1323L30.0303-67.1323L30.0303-70.459L28.1226-70.459ZM11.6885-24.4799L46.9815-24.4799L46.2315-26.7285L12.4385-26.7285ZM55.1196 0L57.7637 0L30.6382-70.459L29.4326-70.459L29.4326-67.1323Z"/>
  </g>
  <line id="Baseline-S" style="fill:none;stroke:#27AAE1;opacity:1;stroke-width:0.5;" x1="263" x2="3036" y1="696" y2="696"/>
  <line id="Capline-S" style="fill:none;stroke:#27AAE1;opacity:1;stroke-width:0.5;" x1="263" x2="3036" y1="625.541" y2="625.541"/>
  <g id="H-reference" style="fill:#27AAE1;stroke:none;" transform="matrix(1 0 0 1 339 1126)">
   <path d="M0.993654 0L3.63775 0L29.3281-67.1323L30.0303-67.1323L30.0303-70.459L28.1226-70.459ZM11.6885-24.4799L46.9815-24.4799L46.2315-26.7285L12.4385-26.7285ZM55.1196 0L57.7637 0L30.6382-70.459L29.4326-70.459L29.4326-67.1323Z"/>
  </g>
  <line id="Baseline-M" style="fill:none;stroke:#27AAE1;opacity:1;stroke-width:0.5;" x1="263" x2="3036" y1="1126" y2="1126"/>
  <line id="Capline-M" style="fill:none;stroke:#27AAE1;opacity:1;stroke-width:0.5;" x1="263" x2="3036" y1="1055.54" y2="1055.54"/>
  <g id="H-reference" style="fill:#27AAE1;stroke:none;" transform="matrix(1 0 0 1 339 1556)">
   <path d="M0.993654 0L3.63775 0L29.3281-67.1323L30.0303-67.1323L30.0303-70.459L28.1226-70.459ZM11.6885-24.4799L46.9815-24.4799L46.2315-26.7285L12.4385-26.7285ZM55.1196 0L57.7637 0L30.6382-70.459L29.4326-70.459L29.4326-67.1323Z"/>
  </g>
  <line id="Baseline-L" style="fill:none;stroke:#27AAE1;opacity:1;stroke-width:0.5;" x1="263" x2="3036" y1="1556" y2="1556"/>
  <line id="Capline-L" style="fill:none;stroke:#27AAE1;opacity:1;stroke-width:0.5;" x1="263" x2="3036" y1="1485.54" y2="1485.54"/>
  <line id="left-margin-Ultralight-S" style="fill:none;stroke:#00AEEF;stroke-width:0.5;opacity:1.0;" x1="515.649" x2="515.649" y1="600.785" y2="720.121"/>
  <line id="right-margin-Ultralight-S" style="fill:none;stroke:#00AEEF;stroke-width:0.5;opacity:1.0;" x1="603.773" x2="603.773" y1="600.785" y2="720.121"/>
  <line id="left-margin-Regular-S" style="fill:none;stroke:#00AEEF;stroke-width:0.5;opacity:1.0;" x1="1403.58" x2="1403.58" y1="600.785" y2="720.121"/>
  <line id="right-margin-Regular-S" style="fill:none;stroke:#00AEEF;stroke-width:0.5;opacity:1.0;" x1="1496.11" x2="1496.11" y1="600.785" y2="720.121"/>
  <line id="left-margin-Black-S" style="fill:none;stroke:#00AEEF;stroke-width:0.5;opacity:1.0;" x1="2884.57" x2="2884.57" y1="600.785" y2="720.121"/>
  <line id="right-margin-Black-S" style="fill:none;stroke:#00AEEF;stroke-width:0.5;opacity:1.0;" x1="2982.23" x2="2982.23" y1="600.785" y2="720.121"/>
 </g>
 <g id="Symbols">
  <g id="Black-S" transform="matrix(1 0 0 1 2884.57 696)">
   <path class="SFSymbolsPreviewWireframe" d="M48.8281 6.78711C71.9727 6.78711 90.8203-12.0605 90.8203-35.2051C90.8203-58.3496 71.9727-77.1973 48.8281-77.1973C25.6836-77.1973 6.83594-58.3496 6.83594-35.2051C6.83594-12.0605 25.6836 6.78711 48.8281 6.78711ZM48.8281-7.37305C33.4473-7.37305 20.9961-19.8242 20.9961-35.2051C20.9961-50.5859 33.4473-63.0371 48.8281-63.0371C64.209-63.0371 76.6602-50.5859 76.6602-35.2051C76.6602-19.8242 64.209-7.37305 48.8281-7.37305ZM39.8926-15.3809C45.9473-15.3809 50.7812-20.0684 50.7812-26.0742C50.7812-28.9551 49.8047-31.3477 47.8027-33.3496C47.5098-33.6426 47.4609-33.7891 47.4609-34.2285L47.4609-46.9727C47.4609-51.8066 44.3848-55.0293 39.8926-55.0293C35.4004-55.0293 32.3242-51.8066 32.3242-46.9727L32.3242-34.2285C32.3242-33.7891 32.3242-33.5938 31.9336-33.3496C29.9316-31.4453 28.9551-28.9551 28.9551-26.0742C28.9551-20.0684 33.8379-15.3809 39.8926-15.3809ZM39.8926-20.3125C36.6211-20.3125 33.9355-22.9492 33.9355-26.3184C33.9355-28.5645 34.9609-30.1758 36.6699-31.2988C37.1582-31.5918 37.3047-31.8359 37.3047-32.5195L37.3047-46.8262C37.3047-48.7793 38.3789-50.0488 39.8926-50.0488C41.4551-50.0488 42.4805-48.7793 42.4805-46.8262L42.4805-32.5195C42.4805-31.8359 42.6758-31.5918 43.1641-31.2988C44.873-30.1758 45.8984-28.5645 45.8984-26.3184C45.8984-22.9492 43.2129-20.3125 39.8926-20.3125ZM39.8926-45.752C40.4785-45.752 40.9668-46.2402 40.9668-46.8262C40.9668-47.4121 40.4785-47.9004 39.8926-47.9004C39.3066-47.9004 38.8184-47.4121 38.8184-46.8262C38.8184-46.2402 39.3066-45.752 39.8926-45.752ZM39.8926-42.5293C40.4785-42.5293 40.9668-43.0176 40.9668-43.6035C40.9668-44.1895 40.4785-44.6777 39.8926-44.6777C39.3066-44.6777 38.8184-44.1895 38.8184-43.6035C38.8184-43.0176 39.3066-42.5293 39.8926-42.5293ZM39.8926-39.3555C40.4785-39.3555 40.9668-39.8438 40.9668-40.4297C40.9668-41.0156 40.4785-41.5039 39.8926-41.5039C39.3066-41.5039 38.8184-41.0156 38.8184-40.4297C38.8184-39.8438 39.3066-39.3555 39.8926-39.3555ZM39.8926-36.1816C40.4785-36.1816 40.9668-36.6699 40.9668-37.2559C40.9668-37.8418 40.4785-38.3301 39.8926-38.3301C39.3066-38.3301 38.8184-37.8418 38.8184-37.2559C38.8184-36.6699 39.3066-36.1816 39.8926-36.1816ZM39.8926-22.5098C41.9922-22.5098 43.6523-24.2188 43.6523-26.3184C43.6523-27.7832 42.8711-28.9551 41.6016-29.5898C41.1133-29.8828 40.9668-30.0781 40.9668-30.8594L40.9668-34.082C40.9668-34.668 40.4785-35.1562 39.8926-35.1562C39.3066-35.1562 38.8184-34.668 38.8184-34.082L38.8184-30.8594C38.8184-30.0781 38.6719-29.8828 38.1348-29.5898C36.9629-28.9551 36.1328-27.7832 36.1328-26.3184C36.1328-24.2188 37.793-22.5098 39.8926-22.5098ZM61.0352-47.3633C63.2812-47.3633 65.1367-49.1699 65.1367-51.4648C65.1367-53.7109 63.2812-55.5176 61.0352-55.5176C58.7891-55.5176 56.9336-53.7109 56.9336-51.4648C56.9336-49.1699 58.7891-47.3633 61.0352-47.3633ZM63.4766-16.0156C64.5996-16.0156 65.4785-16.8945 65.4785-18.0176L65.4785-38.2812C65.4785-38.5254 65.625-38.6719 65.8691-38.6719C66.1133-38.6719 66.2598-38.5254 66.2598-38.2812L66.2598-31.6406C66.2598-30.6641 67.1387-29.7852 68.1641-29.7852C69.1895-29.7852 69.9707-30.6641 69.9707-31.6406L69.9707-39.0625C69.9707-43.0664 66.7969-45.7031 62.4512-45.7031L59.6191-45.7031C55.2734-45.7031 52.0996-43.0664 52.0996-39.0625L52.0996-31.6406C52.0996-30.6641 52.9297-29.7852 53.9551-29.7852C54.9805-29.7852 55.8105-30.6641 55.8105-31.6406L55.8105-38.2812C55.8105-38.5254 56.0059-38.6719 56.2012-38.6719C56.4453-38.6719 56.6406-38.5254 56.6406-38.2812L56.6406-18.0176C56.6406-16.8945 57.5195-16.0156 58.6426-16.0156C59.7168-16.0156 60.6445-16.9434 60.6445-18.0176L60.6445-30.4199C60.6445-30.6641 60.8398-30.8594 61.0352-30.8594C61.2793-30.8594 61.4746-30.6641 61.4746-30.4199L61.4746-18.0176C61.4746-16.9434 62.3535-16.0156 63.4766-16.0156Z"/>
  </g>
  <g id="Regular-S" transform="matrix(1 0 0 1 1403.58 696)">
   <path class="SFSymbolsPreviewWireframe" d="M46.2402 4.15039C67.7734 4.15039 85.6934-13.7207 85.6934-35.2539C85.6934-56.7871 67.7246-74.6582 46.1914-74.6582C24.707-74.6582 6.83594-56.7871 6.83594-35.2539C6.83594-13.7207 24.7559 4.15039 46.2402 4.15039ZM46.2402-3.27148C28.5156-3.27148 14.3555-17.4805 14.3555-35.2539C14.3555-53.0273 28.4668-67.2363 46.1914-67.2363C63.9648-67.2363 78.2227-53.0273 78.2227-35.2539C78.2227-17.4805 64.0137-3.27148 46.2402-3.27148ZM36.4746-12.6465C42.4316-12.6465 47.2168-17.4316 47.2168-23.3887C47.2168-26.5137 45.8984-29.2969 43.5059-31.4453C43.1641-31.7871 43.0664-32.0312 43.0664-32.5684L43.1152-50.5371C43.1152-54.834 40.3809-57.7637 36.4746-57.7637C32.5195-57.7637 29.834-54.834 29.834-50.5371L29.834-32.5684C29.834-32.0312 29.7852-31.7871 29.3457-31.4453C26.9531-29.2969 25.6836-26.5137 25.6836-23.3887C25.6836-17.4316 30.4688-12.6465 36.4746-12.6465ZM36.4746-16.0156C32.373-16.0156 29.1016-19.2871 29.1016-23.3887C29.1016-25.9277 30.3223-28.1738 32.373-29.541C33.0078-29.9316 33.2031-30.2734 33.2031-31.1035L33.2031-50.3906C33.2031-52.7832 34.5215-54.2969 36.4746-54.2969C38.3301-54.2969 39.6484-52.7832 39.6484-50.3906L39.6484-31.1035C39.6484-30.2734 39.8438-29.9316 40.4785-29.541C42.5781-28.1738 43.7988-25.9277 43.7988-23.3887C43.7988-19.2871 40.5273-16.0156 36.4746-16.0156ZM36.4746-49.0234C37.207-49.0234 37.793-49.6094 37.793-50.3906C37.793-51.0742 37.207-51.709 36.4746-51.709C35.7422-51.709 35.1074-51.0742 35.1074-50.3906C35.1074-49.6094 35.7422-49.0234 36.4746-49.0234ZM36.4746-45.459C37.207-45.459 37.793-46.0449 37.793-46.8262C37.793-47.5098 37.207-48.1445 36.4746-48.1445C35.7422-48.1445 35.1074-47.5098 35.1074-46.8262C35.1074-46.0449 35.7422-45.459 36.4746-45.459ZM36.4746-41.9434C37.207-41.9434 37.793-42.5293 37.793-43.3105C37.793-43.9941 37.207-44.5801 36.4746-44.5801C35.7422-44.5801 35.1074-43.9941 35.1074-43.3105C35.1074-42.5293 35.7422-41.9434 36.4746-41.9434ZM36.4746-38.3789C37.207-38.3789 37.793-39.0137 37.793-39.7461C37.793-40.4785 37.207-41.0645 36.4746-41.0645C35.7422-41.0645 35.1074-40.4785 35.1074-39.7461C35.1074-39.0137 35.7422-38.3789 36.4746-38.3789ZM36.4258-18.7012C39.0625-18.7012 41.1621-20.8496 41.1621-23.4375C41.1621-25.2441 40.1367-26.709 38.623-27.5391C38.0371-27.8809 37.793-28.125 37.793-29.0527L37.793-36.2305C37.793-36.9629 37.207-37.5488 36.4746-37.5488C35.7422-37.5488 35.1074-36.9629 35.1074-36.2305L35.1074-29.0527C35.1074-28.125 34.9121-27.8809 34.2285-27.5391C32.8125-26.709 31.7383-25.2441 31.7383-23.4375C31.7383-20.8008 33.8379-18.7012 36.4258-18.7012ZM56.9824-49.8047C59.4238-49.8047 61.377-51.8066 61.377-54.248C61.377-56.6895 59.4238-58.6426 56.9824-58.6426C54.541-58.6426 52.5879-56.6895 52.5879-54.248C52.5879-51.8066 54.541-49.8047 56.9824-49.8047ZM59.668-13.6719C60.791-13.6719 61.6699-14.502 61.6699-15.6738L61.6699-39.1602C61.6699-39.5508 61.9629-39.8926 62.3535-39.8926C62.6953-39.8926 63.0371-39.5508 63.0371-39.1602L63.0371-31.3965C63.0371-30.4199 63.8672-29.5898 64.8438-29.5898C65.8203-29.5898 66.6504-30.4199 66.6504-31.3965L66.6504-40.1367C66.6504-44.5801 63.3789-47.5098 58.4961-47.5098L55.4688-47.5098C50.6348-47.5098 47.3145-44.5801 47.3145-40.1367L47.3145-31.3965C47.3145-30.4199 48.1445-29.5898 49.1211-29.5898C50.0977-29.5898 50.9277-30.4199 50.9277-31.3965L50.9277-39.1602C50.9277-39.5508 51.2695-39.8926 51.6113-39.8926C52.002-39.8926 52.2949-39.5508 52.2949-39.1602L52.2949-15.6738C52.2949-14.502 53.1738-13.6719 54.2969-13.6719C55.4199-13.6719 56.25-14.502 56.25-15.6738L56.25-29.9316C56.25-30.3223 56.5918-30.6152 56.9824-30.6152C57.373-30.6152 57.7148-30.3223 57.7148-29.9316L57.7148-15.6738C57.7148-14.502 58.5449-13.6719 59.668-13.6719Z"/>
  </g>
  <g id="Ultralight-S" transform="matrix(1 0 0 1 515.649 696)">
   <path class="SFSymbolsPreviewWireframe" d="M44.0606 1.97072C64.5039 1.97072 81.2886-14.8105 81.2886-35.2539C81.2886-55.6973 64.5005-72.4785 44.0571-72.4785C23.5718-72.4785 6.83594-55.6973 6.83594-35.2539C6.83594-14.8105 23.5752 1.97072 44.0606 1.97072ZM44.0606-0.274438C24.7466-0.274438 9.04252-15.9365 9.04252-35.2539C9.04252-54.5713 24.7432-70.2334 44.0571-70.2334C63.3745-70.2334 79.04-54.5713 79.04-35.2539C79.04-15.9365 63.3779-0.274438 44.0606-0.274438ZM33.1143-10.6939C38.7989-10.6939 43.2661-15.1612 43.2661-20.7549C43.2661-23.7437 41.9932-26.4361 39.419-28.4937C38.941-28.8809 38.8887-29.0796 38.8887-29.8438L38.8921-51.9448C38.8921-55.4697 36.521-57.9907 33.1143-57.9907C29.7495-57.9907 27.4273-55.4697 27.4273-51.9448L27.4273-29.8438C27.4273-29.0342 27.333-28.8809 26.8482-28.4937C24.2739-26.4361 23.0498-23.7437 23.0498-20.7549C23.0498-15.1612 27.5171-10.6939 33.1143-10.6939ZM33.1143-12.6099C28.604-12.6099 25.0147-16.2447 25.0147-20.7549C25.0147-23.2486 26.0083-25.4492 28.2408-26.9981C29.0572-27.6157 29.4341-28.457 29.4341-29.4688L29.4341-51.9346C29.4341-54.3725 30.8887-55.977 33.1143-55.977C35.4239-55.977 36.8784-54.3725 36.8784-51.9346L36.8784-29.4688C36.8784-28.457 37.21-27.6157 38.0718-26.9981C40.2622-25.4492 41.3013-23.2486 41.3013-20.7549C41.3013-16.2447 37.6665-12.6099 33.1143-12.6099ZM33.1597-49.6138C34.3462-49.6138 35.2954-50.563 35.2954-51.7983C35.2954-52.936 34.3462-53.8887 33.1597-53.8887C31.9732-53.8887 31.0205-52.936 31.0205-51.7983C31.0205-50.563 31.9732-49.6138 33.1597-49.6138ZM33.1597-44.3237C34.3462-44.3237 35.2954-45.3184 35.2954-46.5083C35.2954-47.646 34.3462-48.5986 33.1597-48.5986C31.9732-48.5986 31.0205-47.646 31.0205-46.5083C31.0205-45.3184 31.9732-44.3237 33.1597-44.3237ZM33.1597-39.0825C34.3462-39.0825 35.2954-40.0318 35.2954-41.2217C35.2954-42.3594 34.3462-43.3086 33.1597-43.3086C31.9732-43.3086 31.0205-42.3594 31.0205-41.2217C31.0205-40.0318 31.9732-39.0825 33.1597-39.0825ZM33.1597-33.7925C34.3462-33.7925 35.2954-34.7452 35.2954-35.9317C35.2954-37.0728 34.3462-38.0674 33.1597-38.0674C31.9732-38.0674 31.0205-37.0728 31.0205-35.9317C31.0205-34.7452 31.9732-33.7925 33.1597-33.7925ZM33.1109-14.4327C36.6558-14.4327 39.4365-17.2168 39.4365-20.7583C39.4365-23.2007 38.0479-25.1651 36.0347-26.2222C35.3125-26.6094 35.2954-26.7627 35.2954-27.7359L35.2954-30.6451C35.2954-31.8316 34.3462-32.7808 33.1597-32.7808C31.9732-32.7808 31.0205-31.8316 31.0205-30.6451L31.0205-27.7359C31.0205-26.7627 30.9615-26.6094 30.2325-26.2222C28.2715-25.2105 26.8794-23.2007 26.8794-20.7583C26.8794-17.2134 29.6148-14.4327 33.1109-14.4327ZM53.6675-50.4404C56.2451-50.4404 58.3345-52.4878 58.3345-55.0654C58.3345-57.5976 56.2451-59.6416 53.6675-59.6416C51.1353-59.6416 49.0913-57.5976 49.0913-55.0654C49.0913-52.4878 51.1353-50.4404 53.6675-50.4404ZM56.3076-11.5376C57.3853-11.5376 58.3096-12.4131 58.3096-13.5396L58.3096-39.0239C58.3096-39.3237 58.5572-39.6201 58.9024-39.6201C59.1988-39.6201 59.4951-39.3237 59.4951-39.0239L59.4951-30.7153C59.4951-29.6934 60.2798-28.8633 61.3018-28.8633C62.2783-28.8633 63.1084-29.6934 63.1084-30.7153L63.1084-39.9551C63.1084-44.6709 59.6553-47.7822 55.0449-47.7822L52.2901-47.7822C47.7285-47.7822 44.272-44.6709 44.272-39.9551L44.272-30.7153C44.272-29.6934 45.1021-28.8633 46.0786-28.8633C47.1006-28.8633 47.8853-29.6934 47.8853-30.7153L47.8853-39.0239C47.8853-39.3237 48.1817-39.6201 48.4326-39.6201C48.7779-39.6201 49.0254-39.3237 49.0254-39.0239L49.0254-13.5396C49.0254-12.4131 49.9497-11.5376 51.0274-11.5376C52.1504-11.5376 53.0259-12.4131 53.0259-13.5396L53.0259-29.1597C53.0259-29.4595 53.3223-29.7524 53.6675-29.7524C54.0127-29.7524 54.3091-29.4595 54.3091-29.1597L54.3091-13.5396C54.3091-12.4131 55.1846-11.5376 56.3076-11.5376Z"/>
  </g>
 </g>
</svg>
