<?xml version="1.0" encoding="UTF-8"?>
<!--Generator: Apple Native CoreSVG 232.5-->
<!DOCTYPE svg
PUBLIC "-//W3C//DTD SVG 1.1//EN"
       "http://www.w3.org/Graphics/SVG/1.1/DTD/svg11.dtd">
<svg version="1.1" xmlns="http://www.w3.org/2000/svg" xmlns:xlink="http://www.w3.org/1999/xlink" width="3300" height="2200">
 <!--glyph: "uni1016FC.medium", point size: 100.0, font version: "19.2d2e1", template writer version: "128"-->
 <style>.SFSymbolsPreviewWireframe {fill:none;opacity:1.0;stroke:black;stroke-width:0.5}
</style>
 <g id="Notes">
  <rect height="2200" id="artboard" style="fill:white;opacity:1" width="3300" x="0" y="0"/>
  <line style="fill:none;stroke:black;opacity:1;stroke-width:0.5;" x1="263" x2="3036" y1="292" y2="292"/>
  <text style="stroke:none;fill:black;font-family:sans-serif;font-size:13;font-weight:bold;" transform="matrix(1 0 0 1 263 322)">Weight/Scale Variations</text>
  <text style="stroke:none;fill:black;font-family:sans-serif;font-size:13;text-anchor:middle;" transform="matrix(1 0 0 1 559.711 322)">Ultralight</text>
  <text style="stroke:none;fill:black;font-family:sans-serif;font-size:13;text-anchor:middle;" transform="matrix(1 0 0 1 856.422 322)">Thin</text>
  <text style="stroke:none;fill:black;font-family:sans-serif;font-size:13;text-anchor:middle;" transform="matrix(1 0 0 1 1153.13 322)">Light</text>
  <text style="stroke:none;fill:black;font-family:sans-serif;font-size:13;text-anchor:middle;" transform="matrix(1 0 0 1 1449.84 322)">Regular</text>
  <text style="stroke:none;fill:black;font-family:sans-serif;font-size:13;text-anchor:middle;" transform="matrix(1 0 0 1 1746.56 322)">Medium</text>
  <text style="stroke:none;fill:black;font-family:sans-serif;font-size:13;text-anchor:middle;" transform="matrix(1 0 0 1 2043.27 322)">Semibold</text>
  <text style="stroke:none;fill:black;font-family:sans-serif;font-size:13;text-anchor:middle;" transform="matrix(1 0 0 1 2339.98 322)">Bold</text>
  <text style="stroke:none;fill:black;font-family:sans-serif;font-size:13;text-anchor:middle;" transform="matrix(1 0 0 1 2636.69 322)">Heavy</text>
  <text style="stroke:none;fill:black;font-family:sans-serif;font-size:13;text-anchor:middle;" transform="matrix(1 0 0 1 2933.4 322)">Black</text>
  <line style="fill:none;stroke:black;opacity:1;stroke-width:0.5;" x1="263" x2="3036" y1="1903" y2="1903"/>
  <g transform="matrix(0.2 0 0 0.2 263 1933)">
   <path d="m46.2402 4.15039c21.5332 0 39.4531-17.8711 39.4531-39.4043s-17.9688-39.4043-39.502-39.4043c-21.4844 0-39.3555 17.8711-39.3555 39.4043s17.9199 39.4043 39.4043 39.4043Zm0-7.42188c-17.7246 0-31.8848-14.209-31.8848-31.9824s14.1113-31.9824 31.8359-31.9824c17.7734 0 32.0312 14.209 32.0312 31.9824s-14.209 31.9824-31.9824 31.9824Zm-17.9688-31.9824c0 2.14844 1.51367 3.61328 3.75977 3.61328h10.498v10.5957c0 2.19727 1.46484 3.71094 3.61328 3.71094 2.24609 0 3.71094-1.51367 3.71094-3.71094v-10.5957h10.5957c2.19727 0 3.71094-1.46484 3.71094-3.61328 0-2.19727-1.51367-3.71094-3.71094-3.71094h-10.5957v-10.5469c0-2.24609-1.46484-3.75977-3.71094-3.75977-2.14844 0-3.61328 1.51367-3.61328 3.75977v10.5469h-10.498c-2.24609 0-3.75977 1.51367-3.75977 3.71094Z"/>
  </g>
  <g transform="matrix(0.2 0 0 0.2 281.506 1933)">
   <path d="m58.5449 14.5508c27.2461 0 49.8047-22.6074 49.8047-49.8047 0-27.2461-22.6074-49.8047-49.8535-49.8047-27.1973 0-49.7559 22.5586-49.7559 49.8047 0 27.1973 22.6074 49.8047 49.8047 49.8047Zm0-8.30078c-23.0469 0-41.4551-18.457-41.4551-41.5039s18.3594-41.5039 41.4062-41.5039 41.5527 18.457 41.5527 41.5039-18.457 41.5039-41.5039 41.5039Zm-22.6562-41.5039c0 2.39258 1.66016 4.00391 4.15039 4.00391h14.3555v14.4043c0 2.44141 1.66016 4.15039 4.05273 4.15039 2.44141 0 4.15039-1.66016 4.15039-4.15039v-14.4043h14.4043c2.44141 0 4.15039-1.61133 4.15039-4.00391 0-2.44141-1.70898-4.15039-4.15039-4.15039h-14.4043v-14.3555c0-2.49023-1.70898-4.19922-4.15039-4.19922-2.39258 0-4.05273 1.70898-4.05273 4.19922v14.3555h-14.3555c-2.49023 0-4.15039 1.70898-4.15039 4.15039Z"/>
  </g>
  <g transform="matrix(0.2 0 0 0.2 304.924 1933)">
   <path d="m74.8535 28.3203c34.8145 0 63.623-28.8086 63.623-63.5742 0-34.8145-28.8574-63.623-63.6719-63.623-34.7656 0-63.5254 28.8086-63.5254 63.623 0 34.7656 28.8086 63.5742 63.5742 63.5742Zm0-9.08203c-30.1758 0-54.4434-24.3164-54.4434-54.4922 0-30.2246 24.2188-54.4922 54.3945-54.4922 30.2246 0 54.541 24.2676 54.541 54.4922 0 30.1758-24.2676 54.4922-54.4922 54.4922Zm-28.8574-54.4922c0 2.58789 1.85547 4.39453 4.58984 4.39453h19.7266v19.7754c0 2.68555 1.85547 4.58984 4.44336 4.58984 2.68555 0 4.54102-1.85547 4.54102-4.58984v-19.7754h19.7754c2.68555 0 4.58984-1.80664 4.58984-4.39453 0-2.73438-1.85547-4.58984-4.58984-4.58984h-19.7754v-19.7266c0-2.73438-1.85547-4.63867-4.54102-4.63867-2.58789 0-4.44336 1.9043-4.44336 4.63867v19.7266h-19.7266c-2.73438 0-4.58984 1.85547-4.58984 4.58984Z"/>
  </g>
  <text style="stroke:none;fill:black;font-family:sans-serif;font-size:13;font-weight:bold;" transform="matrix(1 0 0 1 263 1953)">Design Variations</text>
  <text style="stroke:none;fill:black;font-family:sans-serif;font-size:13;" transform="matrix(1 0 0 1 263 1971)">Symbols are supported in up to nine weights and three scales.</text>
  <text style="stroke:none;fill:black;font-family:sans-serif;font-size:13;" transform="matrix(1 0 0 1 263 1989)">For optimal layout with text and other symbols, vertically align</text>
  <text style="stroke:none;fill:black;font-family:sans-serif;font-size:13;" transform="matrix(1 0 0 1 263 2007)">symbols with the adjacent text.</text>
  <line style="fill:none;stroke:#00AEEF;stroke-width:0.5;opacity:1.0;" x1="776" x2="776" y1="1919" y2="1933"/>
  <g transform="matrix(0.2 0 0 0.2 776 1933)">
   <path d="m16.5527 0.78125c2.58789 0 3.85742-0.976562 4.78516-3.71094l6.29883-17.2363h28.8086l6.29883 17.2363c0.927734 2.73438 2.19727 3.71094 4.73633 3.71094 2.58789 0 4.24805-1.5625 4.24805-4.00391 0-0.830078-0.146484-1.61133-0.537109-2.63672l-22.9004-60.9863c-1.12305-2.97852-3.125-4.49219-6.25-4.49219-3.02734 0-5.07812 1.46484-6.15234 4.44336l-22.9004 61.084c-0.390625 1.02539-0.537109 1.80664-0.537109 2.63672 0 2.44141 1.5625 3.95508 4.10156 3.95508Zm13.4766-28.3691 11.8652-32.8613h0.244141l11.8652 32.8613Z"/>
  </g>
  <line style="fill:none;stroke:#00AEEF;stroke-width:0.5;opacity:1.0;" x1="792.836" x2="792.836" y1="1919" y2="1933"/>
  <text style="stroke:none;fill:black;font-family:sans-serif;font-size:13;font-weight:bold;" transform="matrix(1 0 0 1 776 1953)">Margins</text>
  <text style="stroke:none;fill:black;font-family:sans-serif;font-size:13;" transform="matrix(1 0 0 1 776 1971)">Leading and trailing margins on the left and right side of each symbol</text>
  <text style="stroke:none;fill:black;font-family:sans-serif;font-size:13;" transform="matrix(1 0 0 1 776 1989)">can be adjusted by modifying the x-location of the margin guidelines.</text>
  <text style="stroke:none;fill:black;font-family:sans-serif;font-size:13;" transform="matrix(1 0 0 1 776 2007)">Modifications are automatically applied proportionally to all</text>
  <text style="stroke:none;fill:black;font-family:sans-serif;font-size:13;" transform="matrix(1 0 0 1 776 2025)">scales and weights.</text>
  <g transform="matrix(0.2 0 0 0.2 1289 1933)">
   <path d="m14.209 9.32617 8.49609 8.54492c4.29688 4.3457 9.22852 4.05273 13.8672-1.07422l53.4668-58.9355-4.83398-4.88281-53.0762 58.3984c-1.75781 2.00195-3.41797 2.49023-5.76172 0.146484l-5.85938-5.81055c-2.34375-2.29492-1.80664-4.00391 0.195312-5.81055l57.373-54.0039-4.88281-4.83398-57.959 54.4434c-4.93164 4.58984-5.32227 9.47266-1.02539 13.8184Zm32.0801-90.9668c-2.09961 2.05078-2.24609 4.93164-1.07422 6.88477 1.17188 1.80664 3.4668 2.97852 6.68945 2.14844 7.32422-1.70898 14.9414-2.00195 22.0703 2.68555l-2.92969 7.27539c-1.70898 4.15039-0.830078 7.08008 1.85547 9.81445l11.4746 11.5723c2.44141 2.44141 4.49219 2.53906 7.32422 2.05078l5.32227-0.976562 3.32031 3.36914-0.195312 2.7832c-0.195312 2.49023 0.439453 4.39453 2.88086 6.78711l3.80859 3.71094c2.39258 2.39258 5.46875 2.53906 7.8125 0.195312l14.5508-14.5996c2.34375-2.34375 2.24609-5.32227-0.146484-7.71484l-3.85742-3.80859c-2.39258-2.39258-4.24805-3.17383-6.64062-2.97852l-2.88086 0.244141-3.22266-3.17383 1.2207-5.61523c0.634766-2.83203-0.146484-5.0293-3.07617-7.95898l-10.9863-10.9375c-16.6992-16.6016-38.8672-16.2109-53.3203-1.75781Zm7.4707 1.85547c12.1582-8.88672 28.6133-7.37305 39.7461 3.75977l12.1582 12.0605c1.17188 1.17188 1.36719 2.09961 1.02539 3.80859l-1.61133 7.42188 7.51953 7.42188 4.93164-0.292969c1.26953-0.0488281 1.66016 0.0488281 2.63672 1.02539l2.88086 2.88086-12.207 12.207-2.88086-2.88086c-0.976562-0.976562-1.12305-1.36719-1.07422-2.68555l0.341797-4.88281-7.4707-7.42188-7.61719 1.26953c-1.61133 0.341797-2.34375 0.195312-3.56445-0.976562l-10.0098-10.0098c-1.26953-1.17188-1.41602-2.00195-0.634766-3.85742l4.39453-10.4492c-7.8125-7.27539-17.9688-10.4004-28.125-7.42188-0.78125 0.195312-1.07422-0.439453-0.439453-0.976562Z"/>
  </g>
  <text style="stroke:none;fill:black;font-family:sans-serif;font-size:13;font-weight:bold;" transform="matrix(1 0 0 1 1289 1953)">Exporting</text>
  <text style="stroke:none;fill:black;font-family:sans-serif;font-size:13;" transform="matrix(1 0 0 1 1289 1971)">Symbols should be outlined when exporting to ensure the</text>
  <text style="stroke:none;fill:black;font-family:sans-serif;font-size:13;" transform="matrix(1 0 0 1 1289 1989)">design is preserved when submitting to Xcode.</text>
  <text id="template-version" style="stroke:none;fill:black;font-family:sans-serif;font-size:13;text-anchor:end;" transform="matrix(1 0 0 1 3036 1933)">Template v.5.0</text>
  <text style="stroke:none;fill:black;font-family:sans-serif;font-size:13;text-anchor:end;" transform="matrix(1 0 0 1 3036 1951)">Requires Xcode 15 or greater</text>
  <text id="descriptive-name" style="stroke:none;fill:black;font-family:sans-serif;font-size:13;text-anchor:end;" transform="matrix(1 0 0 1 3036 1969)">Generated from thermometer.snowflake.circle.fill</text>
  <text style="stroke:none;fill:black;font-family:sans-serif;font-size:13;text-anchor:end;" transform="matrix(1 0 0 1 3036 1987)">Typeset at 100.0 points</text>
  <text style="stroke:none;fill:black;font-family:sans-serif;font-size:13;" transform="matrix(1 0 0 1 263 726)">Small</text>
  <text style="stroke:none;fill:black;font-family:sans-serif;font-size:13;" transform="matrix(1 0 0 1 263 1156)">Medium</text>
  <text style="stroke:none;fill:black;font-family:sans-serif;font-size:13;" transform="matrix(1 0 0 1 263 1586)">Large</text>
 </g>
 <g id="Guides">
  <g id="H-reference" style="fill:#27AAE1;stroke:none;" transform="matrix(1 0 0 1 339 696)">
   <path d="M0.993654 0L3.63775 0L29.3281-67.1323L30.0303-67.1323L30.0303-70.459L28.1226-70.459ZM11.6885-24.4799L46.9815-24.4799L46.2315-26.7285L12.4385-26.7285ZM55.1196 0L57.7637 0L30.6382-70.459L29.4326-70.459L29.4326-67.1323Z"/>
  </g>
  <line id="Baseline-S" style="fill:none;stroke:#27AAE1;opacity:1;stroke-width:0.5;" x1="263" x2="3036" y1="696" y2="696"/>
  <line id="Capline-S" style="fill:none;stroke:#27AAE1;opacity:1;stroke-width:0.5;" x1="263" x2="3036" y1="625.541" y2="625.541"/>
  <g id="H-reference" style="fill:#27AAE1;stroke:none;" transform="matrix(1 0 0 1 339 1126)">
   <path d="M0.993654 0L3.63775 0L29.3281-67.1323L30.0303-67.1323L30.0303-70.459L28.1226-70.459ZM11.6885-24.4799L46.9815-24.4799L46.2315-26.7285L12.4385-26.7285ZM55.1196 0L57.7637 0L30.6382-70.459L29.4326-70.459L29.4326-67.1323Z"/>
  </g>
  <line id="Baseline-M" style="fill:none;stroke:#27AAE1;opacity:1;stroke-width:0.5;" x1="263" x2="3036" y1="1126" y2="1126"/>
  <line id="Capline-M" style="fill:none;stroke:#27AAE1;opacity:1;stroke-width:0.5;" x1="263" x2="3036" y1="1055.54" y2="1055.54"/>
  <g id="H-reference" style="fill:#27AAE1;stroke:none;" transform="matrix(1 0 0 1 339 1556)">
   <path d="M0.993654 0L3.63775 0L29.3281-67.1323L30.0303-67.1323L30.0303-70.459L28.1226-70.459ZM11.6885-24.4799L46.9815-24.4799L46.2315-26.7285L12.4385-26.7285ZM55.1196 0L57.7637 0L30.6382-70.459L29.4326-70.459L29.4326-67.1323Z"/>
  </g>
  <line id="Baseline-L" style="fill:none;stroke:#27AAE1;opacity:1;stroke-width:0.5;" x1="263" x2="3036" y1="1556" y2="1556"/>
  <line id="Capline-L" style="fill:none;stroke:#27AAE1;opacity:1;stroke-width:0.5;" x1="263" x2="3036" y1="1485.54" y2="1485.54"/>
  <line id="left-margin-Ultralight-S" style="fill:none;stroke:#00AEEF;stroke-width:0.5;opacity:1.0;" x1="515.649" x2="515.649" y1="600.785" y2="720.121"/>
  <line id="right-margin-Ultralight-S" style="fill:none;stroke:#00AEEF;stroke-width:0.5;opacity:1.0;" x1="603.773" x2="603.773" y1="600.785" y2="720.121"/>
  <line id="left-margin-Regular-S" style="fill:none;stroke:#00AEEF;stroke-width:0.5;opacity:1.0;" x1="1403.58" x2="1403.58" y1="600.785" y2="720.121"/>
  <line id="right-margin-Regular-S" style="fill:none;stroke:#00AEEF;stroke-width:0.5;opacity:1.0;" x1="1496.11" x2="1496.11" y1="600.785" y2="720.121"/>
  <line id="left-margin-Black-S" style="fill:none;stroke:#00AEEF;stroke-width:0.5;opacity:1.0;" x1="2884.57" x2="2884.57" y1="600.785" y2="720.121"/>
  <line id="right-margin-Black-S" style="fill:none;stroke:#00AEEF;stroke-width:0.5;opacity:1.0;" x1="2982.23" x2="2982.23" y1="600.785" y2="720.121"/>
 </g>
 <g id="Symbols">
  <g id="Black-S" transform="matrix(1 0 0 1 2884.57 696)">
   <path class="SFSymbolsPreviewWireframe" d="M48.8281 6.83594C71.9727 6.83594 90.8203-12.0117 90.8203-35.1562C90.8203-58.3008 71.9727-77.1484 48.8281-77.1484C25.6836-77.1484 6.83594-58.3008 6.83594-35.1562C6.83594-12.0117 25.6836 6.83594 48.8281 6.83594ZM42.1387-10.5957C35.5957-10.5957 30.3223-15.6738 30.3223-22.168C30.3223-25.293 31.3477-27.9785 33.5449-30.0293C33.9355-30.3223 33.9355-30.5176 33.9355-31.0059L33.9355-44.7754C33.9355-50 37.2559-53.5156 42.1387-53.5156C46.9727-53.5156 50.3418-50 50.3418-44.7754L50.3418-31.0059C50.3418-30.5176 50.3906-30.3711 50.6836-30.0293C52.8809-27.8809 53.9062-25.293 53.9062-22.168C53.9062-15.6738 48.6816-10.5957 42.1387-10.5957ZM42.1387-15.9668C45.752-15.9668 48.6328-18.7988 48.6328-22.4609C48.6328-24.8535 47.5098-26.6113 45.6543-27.832C45.166-28.1738 44.9219-28.418 44.9219-29.1504L44.9219-44.6289C44.9219-46.7285 43.8477-48.0957 42.1387-48.0957C40.4785-48.0957 39.3555-46.7285 39.3555-44.6289L39.3555-29.1504C39.3555-28.418 39.1602-28.1738 38.6719-27.832C36.8164-26.6113 35.6934-24.8535 35.6934-22.4609C35.6934-18.7988 38.623-15.9668 42.1387-15.9668ZM42.1387-18.3105C39.8438-18.3105 38.0859-20.166 38.0859-22.4609C38.0859-24.0234 38.9648-25.293 40.2344-25.9766C40.8203-26.3184 40.9668-26.5137 40.9668-27.3438L40.9668-30.9082C40.9668-31.7383 41.5039-32.2754 42.1387-32.2754C42.7734-32.2754 43.3105-31.7383 43.3105-30.9082L43.3105-27.3438C43.3105-26.5137 43.457-26.3184 43.9941-25.9766C45.3613-25.293 46.1914-24.0234 46.1914-22.4609C46.1914-20.166 44.3848-18.3105 42.1387-18.3105ZM57.8125-26.9043C56.6406-26.9043 55.7617-27.7832 55.8105-29.0527L55.8594-30.8594L54.9805-30.3223C54.3945-31.4453 53.9062-32.5195 53.418-33.6426L55.957-35.1074L56.1035-39.9902L53.5156-38.3789L53.5156-42.627L54.2969-43.0664L53.5156-43.457C53.5156-46.0449 53.418-46.4844 53.125-47.998L56.1035-46.0938L55.957-51.0742L52.7832-52.9297C51.8066-53.5156 51.4648-54.541 52.002-55.4688C52.5391-56.3477 53.6133-56.543 54.541-56.0547L55.8594-55.2734L55.8105-57.0312C55.7617-58.2031 56.6406-59.2285 57.8125-59.2285C58.9844-59.2285 59.9121-58.252 59.8633-57.0312L59.8145-55.2734L61.1328-56.0547C62.1094-56.543 63.2324-56.3477 63.6719-55.4199C64.209-54.4922 63.8672-53.5156 62.8906-52.9297L59.7656-51.0742L59.668-46.0938L63.7695-48.6328L63.7695-52.3438C63.7695-53.5156 64.5996-54.2969 65.625-54.2969C66.6504-54.248 67.4316-53.5156 67.4316-52.4414L67.4316-50.8789L69.043-51.8066C70.0195-52.4414 71.2402-52.1484 71.8262-51.123C72.4609-50.0488 72.0703-48.9746 70.9961-48.3398L69.3848-47.4121L70.7031-46.6309C71.6797-46.0449 72.0215-45.0195 71.4355-44.0918C70.8984-43.2617 69.8242-43.0664 68.8477-43.5547L65.6738-45.3613L61.4258-43.0664L65.625-40.7715L68.8477-42.5781C69.8242-43.1152 70.8496-42.8711 71.3867-41.9922C71.9238-41.1133 71.6309-40.0391 70.7031-39.502L69.3359-38.7207L70.9961-37.7441C71.9727-37.207 72.4609-36.0352 71.8262-34.9121C71.2891-34.0332 70.1172-33.5449 68.9453-34.2773L67.3828-35.3027L67.3828-33.7402C67.3828-32.5684 66.5039-31.7871 65.5762-31.8359C64.4531-31.8359 63.7207-32.7637 63.7207-33.7891L63.7207-37.4512L59.668-39.9902L59.7656-35.1074L62.9395-33.2031C63.916-32.6172 64.2578-31.5918 63.6719-30.6641C63.1348-29.834 62.207-29.5898 61.1816-30.127L59.8145-30.8594L59.8633-29.0527C59.9121-27.832 58.9844-26.9043 57.8125-26.9043Z"/>
  </g>
  <g id="Regular-S" transform="matrix(1 0 0 1 1403.58 696)">
   <path class="SFSymbolsPreviewWireframe" d="M46.2402 4.19922C67.7734 4.19922 85.6934-13.6719 85.6934-35.2051C85.6934-56.7383 67.7246-74.6094 46.1914-74.6094C24.707-74.6094 6.83594-56.7383 6.83594-35.2051C6.83594-13.6719 24.7559 4.19922 46.2402 4.19922ZM38.7695-9.17969C32.5195-9.17969 27.5391-14.1602 27.5391-20.3613C27.5391-23.5352 28.8574-26.4648 31.3477-28.7109C31.7871-29.1016 31.8359-29.3457 31.8359-29.834L31.8359-48.3887C31.8359-52.832 34.6191-55.9082 38.7695-55.9082C42.8223-55.9082 45.6055-52.832 45.6055-48.3887L45.6055-29.834C45.6055-29.3457 45.6543-29.1016 46.0449-28.7109C48.5352-26.4648 49.9023-23.5352 49.9023-20.3613C49.9023-14.1602 44.873-9.17969 38.7695-9.17969ZM38.7695-12.6953C42.9199-12.6953 46.3379-16.0645 46.3379-20.3613C46.3379-22.9492 45.1172-25.293 42.9199-26.709C42.2363-27.1484 41.9922-27.4414 41.9922-28.3691L41.9922-48.2422C41.9922-50.7324 40.6738-52.2949 38.7695-52.2949C36.7188-52.2949 35.3516-50.7324 35.3516-48.2422L35.3516-28.3691C35.3516-27.4414 35.1562-27.1484 34.4727-26.709C32.373-25.293 31.1035-22.9492 31.1035-20.3613C31.1035-16.0645 34.4727-12.6953 38.7695-12.6953ZM38.7207-15.4785C35.9863-15.4785 33.8379-17.6758 33.8379-20.4102C33.8379-22.2168 34.9609-23.7793 36.4258-24.6582C37.1094-24.9512 37.3047-25.293 37.3047-26.2207L37.3047-30.2734C37.3047-31.2988 37.8906-31.9336 38.7207-31.9336C39.4531-31.9336 40.1367-31.2988 40.1367-30.2734L40.1367-26.2207C40.1367-25.293 40.332-24.9512 40.9668-24.6582C42.4805-23.7793 43.6035-22.2168 43.6035-20.4102C43.6035-17.7246 41.4551-15.4785 38.7207-15.4785ZM53.7598-26.123C52.832-26.123 52.1973-26.9531 52.1973-27.8809L52.1973-30.6152L50.8301-29.7363C50.1953-30.5176 49.4141-31.3477 48.9746-32.1289L52.2461-34.0332L52.3438-40.8203L48.7793-38.623L48.7793-42.1875L50.8789-43.3594L48.7793-44.4824C48.7793-45.7031 48.7305-46.9238 48.7305-48.0957L52.3438-45.9473L52.2461-52.6855L48.6816-54.7363C47.9492-55.2246 47.6562-56.0547 48.0469-56.8359C48.4375-57.6172 49.3652-57.7637 50.1953-57.3242L52.1973-56.1523L52.1973-58.7891C52.1973-59.7656 52.832-60.498 53.7598-60.498C54.7852-60.498 55.3711-59.7656 55.3711-58.7891L55.3223-56.1523L57.4219-57.3242C58.2031-57.7637 59.1797-57.6172 59.5703-56.8359C59.9609-56.0547 59.7168-55.2246 58.8379-54.7363L55.3223-52.6855L55.2734-45.9473L61.0352-49.3164L61.084-53.3203C61.084-54.3457 61.7188-54.9805 62.5488-54.9805C63.4277-54.9805 64.0137-54.3457 64.0137-53.4668L64.0137-51.123L66.4551-52.4902C67.2363-52.9785 68.2129-52.7344 68.7012-51.9531C69.2383-51.123 68.8965-50.1953 68.0176-49.6582L65.625-48.3398L67.627-47.0703C68.3594-46.6309 68.75-45.8008 68.2617-45.0684C67.7734-44.2383 66.9434-44.1406 66.1133-44.6289L62.5488-46.6309L56.7383-43.3594L62.5-40.1367L66.0645-42.0898C66.8457-42.5293 67.7246-42.3828 68.2129-41.5527C68.6035-40.918 68.3105-40.0879 67.5781-39.6484L65.5273-38.3789L67.9688-36.9629C68.7988-36.4746 69.2383-35.5957 68.7012-34.7168C68.2129-33.8867 67.2363-33.7891 66.3574-34.2773L63.9648-35.6445L63.916-33.252C63.916-32.4707 63.3301-31.6895 62.5-31.6895C61.6211-31.7383 60.9863-32.4219 60.9863-33.3496L60.9863-37.4023L55.2734-40.8203L55.3223-34.0332L58.8379-32.0312C59.6191-31.4941 59.9609-30.7129 59.5215-29.8828C59.082-29.1504 58.2031-28.9551 57.4219-29.4434L55.3223-30.5664L55.3711-27.8809C55.3711-27.002 54.7852-26.123 53.7598-26.123Z"/>
  </g>
  <g id="Ultralight-S" transform="matrix(1 0 0 1 515.649 696)">
   <path class="SFSymbolsPreviewWireframe" d="M44.0606 2.01955C64.5039 2.01955 81.2886-14.7617 81.2886-35.2051C81.2886-55.6484 64.5005-72.4297 44.0571-72.4297C23.5718-72.4297 6.83594-55.6484 6.83594-35.2051C6.83594-14.7617 23.5752 2.01955 44.0606 2.01955ZM36.9077-8.3169C31.2481-8.3169 26.8125-12.7525 26.8125-18.3633C26.8125-21.3555 28.04-24.0581 30.6211-26.1226C31.106-26.5132 31.2002-26.6665 31.2002-27.4727L31.2002-47.7529C31.2002-51.2881 33.4839-53.8194 36.9077-53.8194C40.3247-53.8194 42.6992-51.2881 42.6992-47.7529L42.6992-27.4727C42.6992-26.7119 42.7481-26.5132 43.2295-26.1226C45.8106-24.0581 47.0869-21.3555 47.0869-18.3633C47.0869-12.7525 42.6026-8.3169 36.9077-8.3169ZM36.9077-10.2432C41.4214-10.2432 45.0664-13.8394 45.0664-18.3633C45.0664-20.8604 44.0274-23.0679 41.8301-24.6201C40.9649-25.2412 40.6299-26.0791 40.6299-27.0977L40.6299-47.7427C40.6299-50.1875 39.1753-51.7954 36.9077-51.7954C34.6753-51.7954 33.2173-50.1875 33.2173-47.7427L33.2173-27.0977C33.2173-26.0791 32.8404-25.2412 32.0205-24.6201C29.7847-23.0679 28.7876-20.8604 28.7876-18.3633C28.7876-13.8394 32.3838-10.2432 36.9077-10.2432ZM36.9043-12.0274C33.398-12.0274 30.6138-14.8604 30.6138-18.3667C30.6138-20.8091 32.0547-22.8711 34.0191-23.8862C34.7481-24.27 34.8071-24.4302 34.8071-25.4033L34.8071-29.2744C34.8071-30.4815 35.6655-31.3887 36.9043-31.3887C38.1362-31.3887 39.0469-30.4815 39.0469-29.2744L39.0469-25.4033C39.0469-24.4302 39.0606-24.27 39.7861-23.8862C41.8447-22.8257 43.2402-20.8091 43.2402-18.3667C43.2402-14.8638 40.4561-12.0274 36.9043-12.0274ZM52.2158-28.5298C51.5606-28.5298 51.1983-29.0874 51.1983-29.7427L51.1983-33.3852L48.3779-31.7344C47.2437-31.1079 46.0991-32.7554 47.249-33.4912L51.1563-35.7588L51.1631-43.7719L44.6924-40.0762L44.6924-42.4145L50.1978-45.5845L44.6016-48.8418C44.4654-49.8808 44.1441-50.8291 43.7354-51.6831L51.1631-47.355L51.1563-55.4101L47.2739-57.6426C46.6323-57.9946 46.4302-58.5976 46.73-59.1064C47.0752-59.706 47.7759-59.8071 48.2881-59.3677L51.1983-57.7417L51.1983-61.4228C51.1983-62.0815 51.5606-62.5869 52.2158-62.5869C52.7871-62.5869 53.1914-62.0815 53.1914-61.4228L53.188-57.7417L56.0596-59.3677C56.6592-59.7163 57.3179-59.706 57.6177-59.1064C57.8721-58.5976 57.7642-57.9946 57.1577-57.6426L53.188-55.4101L53.1846-47.355L60.2178-51.3598L60.2212-55.8633C60.2212-56.5254 60.5835-57.0693 61.2319-57.0693C61.793-57.0693 62.2427-56.5254 62.2427-55.8735L62.2427-52.5762L65.4561-54.3974C65.9649-54.7041 66.6235-54.5962 66.9302-54.042C67.2403-53.5298 66.9893-52.9199 66.3828-52.5644L63.2637-50.792L66.1284-49.1138C66.6338-48.8105 66.979-48.2075 66.6724-47.6567C66.3657-47.0991 65.6719-47.0469 65.1597-47.3535L61.2319-49.5825L54.1953-45.5845L61.2285-41.5444L65.2017-43.8154C65.7105-44.1186 66.3169-44.063 66.669-43.5054C66.9688-43.0068 66.6758-42.313 66.125-42.0097L63.2569-40.3769L66.3794-38.5522C67.0278-38.2002 67.2403-37.5937 66.9302-37.0327C66.5327-36.4751 65.874-36.4228 65.4038-36.7295L62.2393-38.5508L62.2359-35.25C62.2359-34.605 61.7861-34.0962 61.2285-34.0962C60.6221-34.0996 60.2144-34.6015 60.2144-35.2568L60.2144-39.7182L53.1846-43.7719L53.188-35.7588L57.1123-33.4844C57.7119-33.1289 57.9175-32.5293 57.6143-32.0171C57.3565-31.4663 56.6592-31.3618 56.0596-31.7138L53.188-33.3818L53.1914-29.7427C53.1914-29.0908 52.7871-28.5298 52.2158-28.5298Z"/>
  </g>
 </g>
</svg>
