<?xml version="1.0" encoding="UTF-8"?>
<!--Generator: Apple Native CoreSVG 232.5-->
<!DOCTYPE svg
PUBLIC "-//W3C//DTD SVG 1.1//EN"
       "http://www.w3.org/Graphics/SVG/1.1/DTD/svg11.dtd">
<svg version="1.1" xmlns="http://www.w3.org/2000/svg" xmlns:xlink="http://www.w3.org/1999/xlink" width="3300" height="2200">
 <!--glyph: "uni1018B6.medium", point size: 100.0, font version: "19.2d2e1", template writer version: "128"-->
 <style>.SFSymbolsPreviewWireframe {fill:none;opacity:1.0;stroke:black;stroke-width:0.5}
</style>
 <g id="Notes">
  <rect height="2200" id="artboard" style="fill:white;opacity:1" width="3300" x="0" y="0"/>
  <line style="fill:none;stroke:black;opacity:1;stroke-width:0.5;" x1="263" x2="3036" y1="292" y2="292"/>
  <text style="stroke:none;fill:black;font-family:sans-serif;font-size:13;font-weight:bold;" transform="matrix(1 0 0 1 263 322)">Weight/Scale Variations</text>
  <text style="stroke:none;fill:black;font-family:sans-serif;font-size:13;text-anchor:middle;" transform="matrix(1 0 0 1 559.711 322)">Ultralight</text>
  <text style="stroke:none;fill:black;font-family:sans-serif;font-size:13;text-anchor:middle;" transform="matrix(1 0 0 1 856.422 322)">Thin</text>
  <text style="stroke:none;fill:black;font-family:sans-serif;font-size:13;text-anchor:middle;" transform="matrix(1 0 0 1 1153.13 322)">Light</text>
  <text style="stroke:none;fill:black;font-family:sans-serif;font-size:13;text-anchor:middle;" transform="matrix(1 0 0 1 1449.84 322)">Regular</text>
  <text style="stroke:none;fill:black;font-family:sans-serif;font-size:13;text-anchor:middle;" transform="matrix(1 0 0 1 1746.56 322)">Medium</text>
  <text style="stroke:none;fill:black;font-family:sans-serif;font-size:13;text-anchor:middle;" transform="matrix(1 0 0 1 2043.27 322)">Semibold</text>
  <text style="stroke:none;fill:black;font-family:sans-serif;font-size:13;text-anchor:middle;" transform="matrix(1 0 0 1 2339.98 322)">Bold</text>
  <text style="stroke:none;fill:black;font-family:sans-serif;font-size:13;text-anchor:middle;" transform="matrix(1 0 0 1 2636.69 322)">Heavy</text>
  <text style="stroke:none;fill:black;font-family:sans-serif;font-size:13;text-anchor:middle;" transform="matrix(1 0 0 1 2933.4 322)">Black</text>
  <line style="fill:none;stroke:black;opacity:1;stroke-width:0.5;" x1="263" x2="3036" y1="1903" y2="1903"/>
  <g transform="matrix(0.2 0 0 0.2 263 1933)">
   <path d="m46.2402 4.15039c21.5332 0 39.4531-17.8711 39.4531-39.4043s-17.9688-39.4043-39.502-39.4043c-21.4844 0-39.3555 17.8711-39.3555 39.4043s17.9199 39.4043 39.4043 39.4043Zm0-7.42188c-17.7246 0-31.8848-14.209-31.8848-31.9824s14.1113-31.9824 31.8359-31.9824c17.7734 0 32.0312 14.209 32.0312 31.9824s-14.209 31.9824-31.9824 31.9824Zm-17.9688-31.9824c0 2.14844 1.51367 3.61328 3.75977 3.61328h10.498v10.5957c0 2.19727 1.46484 3.71094 3.61328 3.71094 2.24609 0 3.71094-1.51367 3.71094-3.71094v-10.5957h10.5957c2.19727 0 3.71094-1.46484 3.71094-3.61328 0-2.19727-1.51367-3.71094-3.71094-3.71094h-10.5957v-10.5469c0-2.24609-1.46484-3.75977-3.71094-3.75977-2.14844 0-3.61328 1.51367-3.61328 3.75977v10.5469h-10.498c-2.24609 0-3.75977 1.51367-3.75977 3.71094Z"/>
  </g>
  <g transform="matrix(0.2 0 0 0.2 281.506 1933)">
   <path d="m58.5449 14.5508c27.2461 0 49.8047-22.6074 49.8047-49.8047 0-27.2461-22.6074-49.8047-49.8535-49.8047-27.1973 0-49.7559 22.5586-49.7559 49.8047 0 27.1973 22.6074 49.8047 49.8047 49.8047Zm0-8.30078c-23.0469 0-41.4551-18.457-41.4551-41.5039s18.3594-41.5039 41.4062-41.5039 41.5527 18.457 41.5527 41.5039-18.457 41.5039-41.5039 41.5039Zm-22.6562-41.5039c0 2.39258 1.66016 4.00391 4.15039 4.00391h14.3555v14.4043c0 2.44141 1.66016 4.15039 4.05273 4.15039 2.44141 0 4.15039-1.66016 4.15039-4.15039v-14.4043h14.4043c2.44141 0 4.15039-1.61133 4.15039-4.00391 0-2.44141-1.70898-4.15039-4.15039-4.15039h-14.4043v-14.3555c0-2.49023-1.70898-4.19922-4.15039-4.19922-2.39258 0-4.05273 1.70898-4.05273 4.19922v14.3555h-14.3555c-2.49023 0-4.15039 1.70898-4.15039 4.15039Z"/>
  </g>
  <g transform="matrix(0.2 0 0 0.2 304.924 1933)">
   <path d="m74.8535 28.3203c34.8145 0 63.623-28.8086 63.623-63.5742 0-34.8145-28.8574-63.623-63.6719-63.623-34.7656 0-63.5254 28.8086-63.5254 63.623 0 34.7656 28.8086 63.5742 63.5742 63.5742Zm0-9.08203c-30.1758 0-54.4434-24.3164-54.4434-54.4922 0-30.2246 24.2188-54.4922 54.3945-54.4922 30.2246 0 54.541 24.2676 54.541 54.4922 0 30.1758-24.2676 54.4922-54.4922 54.4922Zm-28.8574-54.4922c0 2.58789 1.85547 4.39453 4.58984 4.39453h19.7266v19.7754c0 2.68555 1.85547 4.58984 4.44336 4.58984 2.68555 0 4.54102-1.85547 4.54102-4.58984v-19.7754h19.7754c2.68555 0 4.58984-1.80664 4.58984-4.39453 0-2.73438-1.85547-4.58984-4.58984-4.58984h-19.7754v-19.7266c0-2.73438-1.85547-4.63867-4.54102-4.63867-2.58789 0-4.44336 1.9043-4.44336 4.63867v19.7266h-19.7266c-2.73438 0-4.58984 1.85547-4.58984 4.58984Z"/>
  </g>
  <text style="stroke:none;fill:black;font-family:sans-serif;font-size:13;font-weight:bold;" transform="matrix(1 0 0 1 263 1953)">Design Variations</text>
  <text style="stroke:none;fill:black;font-family:sans-serif;font-size:13;" transform="matrix(1 0 0 1 263 1971)">Symbols are supported in up to nine weights and three scales.</text>
  <text style="stroke:none;fill:black;font-family:sans-serif;font-size:13;" transform="matrix(1 0 0 1 263 1989)">For optimal layout with text and other symbols, vertically align</text>
  <text style="stroke:none;fill:black;font-family:sans-serif;font-size:13;" transform="matrix(1 0 0 1 263 2007)">symbols with the adjacent text.</text>
  <line style="fill:none;stroke:#00AEEF;stroke-width:0.5;opacity:1.0;" x1="776" x2="776" y1="1919" y2="1933"/>
  <g transform="matrix(0.2 0 0 0.2 776 1933)">
   <path d="m16.5527 0.78125c2.58789 0 3.85742-0.976562 4.78516-3.71094l6.29883-17.2363h28.8086l6.29883 17.2363c0.927734 2.73438 2.19727 3.71094 4.73633 3.71094 2.58789 0 4.24805-1.5625 4.24805-4.00391 0-0.830078-0.146484-1.61133-0.537109-2.63672l-22.9004-60.9863c-1.12305-2.97852-3.125-4.49219-6.25-4.49219-3.02734 0-5.07812 1.46484-6.15234 4.44336l-22.9004 61.084c-0.390625 1.02539-0.537109 1.80664-0.537109 2.63672 0 2.44141 1.5625 3.95508 4.10156 3.95508Zm13.4766-28.3691 11.8652-32.8613h0.244141l11.8652 32.8613Z"/>
  </g>
  <line style="fill:none;stroke:#00AEEF;stroke-width:0.5;opacity:1.0;" x1="792.836" x2="792.836" y1="1919" y2="1933"/>
  <text style="stroke:none;fill:black;font-family:sans-serif;font-size:13;font-weight:bold;" transform="matrix(1 0 0 1 776 1953)">Margins</text>
  <text style="stroke:none;fill:black;font-family:sans-serif;font-size:13;" transform="matrix(1 0 0 1 776 1971)">Leading and trailing margins on the left and right side of each symbol</text>
  <text style="stroke:none;fill:black;font-family:sans-serif;font-size:13;" transform="matrix(1 0 0 1 776 1989)">can be adjusted by modifying the x-location of the margin guidelines.</text>
  <text style="stroke:none;fill:black;font-family:sans-serif;font-size:13;" transform="matrix(1 0 0 1 776 2007)">Modifications are automatically applied proportionally to all</text>
  <text style="stroke:none;fill:black;font-family:sans-serif;font-size:13;" transform="matrix(1 0 0 1 776 2025)">scales and weights.</text>
  <g transform="matrix(0.2 0 0 0.2 1289 1933)">
   <path d="m14.209 9.32617 8.49609 8.54492c4.29688 4.3457 9.22852 4.05273 13.8672-1.07422l53.4668-58.9355-4.83398-4.88281-53.0762 58.3984c-1.75781 2.00195-3.41797 2.49023-5.76172 0.146484l-5.85938-5.81055c-2.34375-2.29492-1.80664-4.00391 0.195312-5.81055l57.373-54.0039-4.88281-4.83398-57.959 54.4434c-4.93164 4.58984-5.32227 9.47266-1.02539 13.8184Zm32.0801-90.9668c-2.09961 2.05078-2.24609 4.93164-1.07422 6.88477 1.17188 1.80664 3.4668 2.97852 6.68945 2.14844 7.32422-1.70898 14.9414-2.00195 22.0703 2.68555l-2.92969 7.27539c-1.70898 4.15039-0.830078 7.08008 1.85547 9.81445l11.4746 11.5723c2.44141 2.44141 4.49219 2.53906 7.32422 2.05078l5.32227-0.976562 3.32031 3.36914-0.195312 2.7832c-0.195312 2.49023 0.439453 4.39453 2.88086 6.78711l3.80859 3.71094c2.39258 2.39258 5.46875 2.53906 7.8125 0.195312l14.5508-14.5996c2.34375-2.34375 2.24609-5.32227-0.146484-7.71484l-3.85742-3.80859c-2.39258-2.39258-4.24805-3.17383-6.64062-2.97852l-2.88086 0.244141-3.22266-3.17383 1.2207-5.61523c0.634766-2.83203-0.146484-5.0293-3.07617-7.95898l-10.9863-10.9375c-16.6992-16.6016-38.8672-16.2109-53.3203-1.75781Zm7.4707 1.85547c12.1582-8.88672 28.6133-7.37305 39.7461 3.75977l12.1582 12.0605c1.17188 1.17188 1.36719 2.09961 1.02539 3.80859l-1.61133 7.42188 7.51953 7.42188 4.93164-0.292969c1.26953-0.0488281 1.66016 0.0488281 2.63672 1.02539l2.88086 2.88086-12.207 12.207-2.88086-2.88086c-0.976562-0.976562-1.12305-1.36719-1.07422-2.68555l0.341797-4.88281-7.4707-7.42188-7.61719 1.26953c-1.61133 0.341797-2.34375 0.195312-3.56445-0.976562l-10.0098-10.0098c-1.26953-1.17188-1.41602-2.00195-0.634766-3.85742l4.39453-10.4492c-7.8125-7.27539-17.9688-10.4004-28.125-7.42188-0.78125 0.195312-1.07422-0.439453-0.439453-0.976562Z"/>
  </g>
  <text style="stroke:none;fill:black;font-family:sans-serif;font-size:13;font-weight:bold;" transform="matrix(1 0 0 1 1289 1953)">Exporting</text>
  <text style="stroke:none;fill:black;font-family:sans-serif;font-size:13;" transform="matrix(1 0 0 1 1289 1971)">Symbols should be outlined when exporting to ensure the</text>
  <text style="stroke:none;fill:black;font-family:sans-serif;font-size:13;" transform="matrix(1 0 0 1 1289 1989)">design is preserved when submitting to Xcode.</text>
  <text id="template-version" style="stroke:none;fill:black;font-family:sans-serif;font-size:13;text-anchor:end;" transform="matrix(1 0 0 1 3036 1933)">Template v.5.0</text>
  <text style="stroke:none;fill:black;font-family:sans-serif;font-size:13;text-anchor:end;" transform="matrix(1 0 0 1 3036 1951)">Requires Xcode 15 or greater</text>
  <text id="descriptive-name" style="stroke:none;fill:black;font-family:sans-serif;font-size:13;text-anchor:end;" transform="matrix(1 0 0 1 3036 1969)">Generated from tirepressure</text>
  <text style="stroke:none;fill:black;font-family:sans-serif;font-size:13;text-anchor:end;" transform="matrix(1 0 0 1 3036 1987)">Typeset at 100.0 points</text>
  <text style="stroke:none;fill:black;font-family:sans-serif;font-size:13;" transform="matrix(1 0 0 1 263 726)">Small</text>
  <text style="stroke:none;fill:black;font-family:sans-serif;font-size:13;" transform="matrix(1 0 0 1 263 1156)">Medium</text>
  <text style="stroke:none;fill:black;font-family:sans-serif;font-size:13;" transform="matrix(1 0 0 1 263 1586)">Large</text>
 </g>
 <g id="Guides">
  <g id="H-reference" style="fill:#27AAE1;stroke:none;" transform="matrix(1 0 0 1 339 696)">
   <path d="M0.993654 0L3.63775 0L29.3281-67.1323L30.0303-67.1323L30.0303-70.459L28.1226-70.459ZM11.6885-24.4799L46.9815-24.4799L46.2315-26.7285L12.4385-26.7285ZM55.1196 0L57.7637 0L30.6382-70.459L29.4326-70.459L29.4326-67.1323Z"/>
  </g>
  <line id="Baseline-S" style="fill:none;stroke:#27AAE1;opacity:1;stroke-width:0.5;" x1="263" x2="3036" y1="696" y2="696"/>
  <line id="Capline-S" style="fill:none;stroke:#27AAE1;opacity:1;stroke-width:0.5;" x1="263" x2="3036" y1="625.541" y2="625.541"/>
  <g id="H-reference" style="fill:#27AAE1;stroke:none;" transform="matrix(1 0 0 1 339 1126)">
   <path d="M0.993654 0L3.63775 0L29.3281-67.1323L30.0303-67.1323L30.0303-70.459L28.1226-70.459ZM11.6885-24.4799L46.9815-24.4799L46.2315-26.7285L12.4385-26.7285ZM55.1196 0L57.7637 0L30.6382-70.459L29.4326-70.459L29.4326-67.1323Z"/>
  </g>
  <line id="Baseline-M" style="fill:none;stroke:#27AAE1;opacity:1;stroke-width:0.5;" x1="263" x2="3036" y1="1126" y2="1126"/>
  <line id="Capline-M" style="fill:none;stroke:#27AAE1;opacity:1;stroke-width:0.5;" x1="263" x2="3036" y1="1055.54" y2="1055.54"/>
  <g id="H-reference" style="fill:#27AAE1;stroke:none;" transform="matrix(1 0 0 1 339 1556)">
   <path d="M0.993654 0L3.63775 0L29.3281-67.1323L30.0303-67.1323L30.0303-70.459L28.1226-70.459ZM11.6885-24.4799L46.9815-24.4799L46.2315-26.7285L12.4385-26.7285ZM55.1196 0L57.7637 0L30.6382-70.459L29.4326-70.459L29.4326-67.1323Z"/>
  </g>
  <line id="Baseline-L" style="fill:none;stroke:#27AAE1;opacity:1;stroke-width:0.5;" x1="263" x2="3036" y1="1556" y2="1556"/>
  <line id="Capline-L" style="fill:none;stroke:#27AAE1;opacity:1;stroke-width:0.5;" x1="263" x2="3036" y1="1485.54" y2="1485.54"/>
  <line id="left-margin-Ultralight-S" style="fill:none;stroke:#00AEEF;stroke-width:0.5;opacity:1.0;" x1="516.665" x2="516.665" y1="600.785" y2="720.121"/>
  <line id="right-margin-Ultralight-S" style="fill:none;stroke:#00AEEF;stroke-width:0.5;opacity:1.0;" x1="602.757" x2="602.757" y1="600.785" y2="720.121"/>
  <line id="left-margin-Regular-S" style="fill:none;stroke:#00AEEF;stroke-width:0.5;opacity:1.0;" x1="1403.51" x2="1403.51" y1="600.785" y2="720.121"/>
  <line id="right-margin-Regular-S" style="fill:none;stroke:#00AEEF;stroke-width:0.5;opacity:1.0;" x1="1496.18" x2="1496.18" y1="600.785" y2="720.121"/>
  <line id="left-margin-Black-S" style="fill:none;stroke:#00AEEF;stroke-width:0.5;opacity:1.0;" x1="2882.13" x2="2882.13" y1="600.785" y2="720.121"/>
  <line id="right-margin-Black-S" style="fill:none;stroke:#00AEEF;stroke-width:0.5;opacity:1.0;" x1="2984.67" x2="2984.67" y1="600.785" y2="720.121"/>
 </g>
 <g id="Symbols">
  <g id="Black-S" transform="matrix(1 0 0 1 2882.13 696)">
   <path class="SFSymbolsPreviewWireframe" d="M6.83594-35.2539C6.83594-25.7812 10.2539-17.5781 13.8672-11.084C15.4785-8.20312 16.0156-6.25 16.0156-3.32031L16.0156 3.36914C16.0156 6.10352 18.2617 8.39844 20.9961 8.39844C23.7305 8.39844 25.9766 6.15234 25.9766 3.36914L25.9766 0.439453L28.1738 0.439453L28.1738 3.36914C28.1738 6.15234 30.4199 8.39844 33.2031 8.39844C35.9375 8.39844 38.1836 6.15234 38.1836 3.36914L38.1836 0.439453L40.1367 0.439453L40.1367 3.36914C40.1367 6.15234 42.334 8.39844 45.1172 8.39844C47.8516 8.39844 50.0977 6.15234 50.0977 3.36914L50.0977 0.439453L52.3926 0.439453L52.3926 3.36914C52.3926 6.15234 54.6387 8.39844 57.373 8.39844C60.1562 8.39844 62.4023 6.15234 62.4023 3.36914L62.4023 0.439453L64.3066 0.439453L64.3066 3.36914C64.3066 6.15234 66.5527 8.39844 69.3359 8.39844C72.0215 8.39844 74.3164 6.10352 74.3164 3.36914L74.3164 0.439453L76.5137 0.439453L76.5137 3.36914C76.5137 6.15234 78.7598 8.39844 81.4941 8.39844C84.2285 8.39844 86.5234 6.10352 86.5234 3.36914L86.5234-3.22266C86.5234-5.95703 87.1582-8.30078 88.9648-11.4746C92.4316-17.9199 95.7031-26.0254 95.7031-35.2539C95.7031-42.0898 92.9688-50.293 89.7949-56.2012C86.0352-63.2324 83.7891-64.8438 83.7891-69.4336L83.7891-71.7773C83.7891-75.5371 80.7617-78.6621 76.9531-78.6621C73.2422-78.6621 70.1172-75.5371 70.1172-71.7773L70.1172-67.7246C70.1172-60.6445 71.7773-58.8867 76.3672-51.9043C79.248-47.4609 81.7383-40.8203 81.7383-35.2539C81.7383-25.8301 77.1973-18.2617 71.8262-13.2812L30.7129-13.2812C25.3418-18.2617 20.8008-25.8301 20.8008-35.2539C20.8008-40.8203 23.291-47.4609 26.1719-51.9043C30.7617-58.8867 32.4219-60.6445 32.4219-67.7246L32.4219-71.7773C32.4219-75.5371 29.2969-78.6621 25.5859-78.6621C21.8262-78.6621 18.75-75.5371 18.75-71.7773L18.75-69.4336C18.75-64.8438 16.5039-63.2324 12.7441-56.2012C9.57031-50.293 6.83594-42.0898 6.83594-35.2539Z"/>
  </g>
  <g id="Regular-S" transform="matrix(1 0 0 1 1403.51 696)">
   <path class="SFSymbolsPreviewWireframe" d="M6.83594-35.2051C6.83594-26.8066 10.0098-19.8242 13.3301-14.3555C15.2832-11.1816 16.4551-8.00781 16.4551-5.85938L16.4551-0.146484C16.4551 1.70898 17.9688 3.27148 19.8242 3.27148C21.6309 3.27148 23.1934 1.70898 23.1934-0.146484L23.1934-2.14844L27.3438-2.14844L27.3438-0.146484C27.3438 1.70898 28.9062 3.27148 30.7617 3.27148C32.5684 3.27148 34.1309 1.70898 34.1309-0.146484L34.1309-2.14844L37.793-2.14844L37.793-0.146484C37.793 1.70898 39.4043 3.27148 41.2109 3.27148C43.0664 3.27148 44.6289 1.70898 44.6289-0.146484L44.6289-2.14844L48.0469-2.14844L48.0469-0.146484C48.0469 1.70898 49.6582 3.27148 51.4648 3.27148C53.2715 3.27148 54.8828 1.70898 54.8828-0.146484L54.8828-2.14844L58.5449-2.14844L58.5449-0.146484C58.5449 1.70898 60.1074 3.27148 61.9141 3.27148C63.7695 3.27148 65.332 1.70898 65.332-0.146484L65.332-2.14844L69.4824-2.14844L69.4824-0.146484C69.4824 1.70898 71.0449 3.27148 72.8516 3.27148C74.707 3.27148 76.2695 1.70898 76.2695-0.146484L76.2695-5.85938C76.2695-7.76367 77.5391-11.1328 79.7363-14.9902C82.8125-20.3125 85.8398-27.0996 85.8398-35.2051C85.8398-45.2148 81.9336-53.2715 76.8066-59.668C74.5605-62.5488 74.5117-63.3789 74.5117-65.1855L74.5117-70.4102C74.5117-72.2656 72.9004-73.8281 71.0449-73.8281C69.2383-73.8281 67.6758-72.2656 67.6758-70.4102L67.6758-64.6973C67.6758-60.0098 68.2617-59.4727 71.0449-55.8594C75.2441-50.5859 78.8086-43.9941 78.8086-35.2051C78.8086-24.9512 73.4863-17.3828 65.4785-12.9883L27.1973-12.9883C19.2383-17.3828 13.8672-24.9512 13.8672-35.2051C13.8672-43.9941 17.4805-50.5859 21.6309-55.8594C24.4141-59.4727 25-60.0098 25-64.6973L25-70.4102C25-72.2656 23.4375-73.8281 21.6309-73.8281C19.7754-73.8281 18.2129-72.2656 18.2129-70.4102L18.2129-65.1855C18.2129-63.3789 18.1152-62.5488 15.8691-59.668C10.7422-53.2715 6.83594-45.2148 6.83594-35.2051Z"/>
  </g>
  <g id="Ultralight-S" transform="matrix(1 0 0 1 516.665 696)">
   <path class="SFSymbolsPreviewWireframe" d="M6.83594-34.6602C6.83594-24.4453 10.7817-17.4629 15.2827-12.085C17.0088-9.95558 17.8628-8.23486 17.8628-5.67774L17.8628-0.645992C17.8628-0.107408 18.332 0.456077 18.9614 0.456077C19.4966 0.456077 20.0147-0.107408 20.0147-0.645992L20.0147-3.14745L27.707-3.14745L27.707-0.645992C27.707-0.107408 28.2705 0.456077 28.8091 0.456077C29.3897 0.456077 29.9077-0.107408 29.9077-0.645992L29.9077-3.14745L37.1572-3.14745L37.1572-0.645992C37.1572-0.107408 37.6787 0.456077 38.2593 0.456077C38.8433 0.456077 39.316-0.107408 39.316-0.645992L39.316-3.14745L46.5938-3.14745L46.5938-0.645992C46.5938-0.107408 47.1607 0.456077 47.6958 0.456077C48.2764 0.456077 48.7979-0.107408 48.7979-0.645992L48.7979-3.14745L56.0474-3.14745L56.0474-0.645992C56.0474-0.107408 56.52 0.456077 57.146 0.456077C57.6846 0.456077 58.2481-0.107408 58.2481-0.645992L58.2481-3.14745L65.895-3.14745L65.895-0.645992C65.895-0.107408 66.4585 0.456077 66.9937 0.456077C67.6231 0.456077 68.0958-0.107408 68.0958-0.645992L68.0958-5.63233C68.0958-8.12695 69.0474-9.95216 70.9268-12.3111C75.3199-17.6787 79.2554-24.5567 79.2554-34.6602C79.2554-43.3076 76.1665-51.9092 70.9942-59.0776C69.4292-61.2774 69.0625-61.6533 69.0625-63.46L69.0625-69.9106C69.0625-70.4492 68.5865-71.0127 68.0025-71.0127C67.4219-71.0127 66.9038-70.4492 66.9038-69.9106L66.9038-63.4258C66.9038-60.6455 67.9893-59.4727 69.1831-57.8574C74.0181-51.1309 77.0376-42.9043 77.0376-34.6602C77.0376-22.9077 71.4429-15.3394 63.8438-10.2183L22.1568-10.2183C14.6519-15.3394 9.05375-22.9077 9.05375-34.6602C9.05375-42.9043 12.0313-51.1309 16.9082-57.8574C18.1021-59.4727 19.1875-60.6455 19.1875-63.4258L19.1875-69.9106C19.1875-70.4492 18.6695-71.0127 18.0889-71.0127C17.5049-71.0127 16.9868-70.4492 16.9868-69.9106L16.9868-63.46C16.9868-61.6533 16.6621-61.2774 15.0972-59.0776C9.92481-51.9092 6.83594-43.3076 6.83594-34.6602Z"/>
  </g>
 </g>
</svg>
