<?xml version="1.0" encoding="UTF-8"?>
<!--Generator: Apple Native CoreSVG 232.5-->
<!DOCTYPE svg
PUBLIC "-//W3C//DTD SVG 1.1//EN"
       "http://www.w3.org/Graphics/SVG/1.1/DTD/svg11.dtd">
<svg version="1.1" xmlns="http://www.w3.org/2000/svg" xmlns:xlink="http://www.w3.org/1999/xlink" width="3300" height="2200">
 <!--glyph: "uni10203D.medium", point size: 100.0, font version: "19.2d2e1", template writer version: "128"-->
 <style>.SFSymbolsPreviewWireframe {fill:none;opacity:1.0;stroke:black;stroke-width:0.5}
</style>
 <g id="Notes">
  <rect height="2200" id="artboard" style="fill:white;opacity:1" width="3300" x="0" y="0"/>
  <line style="fill:none;stroke:black;opacity:1;stroke-width:0.5;" x1="263" x2="3036" y1="292" y2="292"/>
  <text style="stroke:none;fill:black;font-family:sans-serif;font-size:13;font-weight:bold;" transform="matrix(1 0 0 1 263 322)">Weight/Scale Variations</text>
  <text style="stroke:none;fill:black;font-family:sans-serif;font-size:13;text-anchor:middle;" transform="matrix(1 0 0 1 559.711 322)">Ultralight</text>
  <text style="stroke:none;fill:black;font-family:sans-serif;font-size:13;text-anchor:middle;" transform="matrix(1 0 0 1 856.422 322)">Thin</text>
  <text style="stroke:none;fill:black;font-family:sans-serif;font-size:13;text-anchor:middle;" transform="matrix(1 0 0 1 1153.13 322)">Light</text>
  <text style="stroke:none;fill:black;font-family:sans-serif;font-size:13;text-anchor:middle;" transform="matrix(1 0 0 1 1449.84 322)">Regular</text>
  <text style="stroke:none;fill:black;font-family:sans-serif;font-size:13;text-anchor:middle;" transform="matrix(1 0 0 1 1746.56 322)">Medium</text>
  <text style="stroke:none;fill:black;font-family:sans-serif;font-size:13;text-anchor:middle;" transform="matrix(1 0 0 1 2043.27 322)">Semibold</text>
  <text style="stroke:none;fill:black;font-family:sans-serif;font-size:13;text-anchor:middle;" transform="matrix(1 0 0 1 2339.98 322)">Bold</text>
  <text style="stroke:none;fill:black;font-family:sans-serif;font-size:13;text-anchor:middle;" transform="matrix(1 0 0 1 2636.69 322)">Heavy</text>
  <text style="stroke:none;fill:black;font-family:sans-serif;font-size:13;text-anchor:middle;" transform="matrix(1 0 0 1 2933.4 322)">Black</text>
  <line style="fill:none;stroke:black;opacity:1;stroke-width:0.5;" x1="263" x2="3036" y1="1903" y2="1903"/>
  <g transform="matrix(0.2 0 0 0.2 263 1933)">
   <path d="m46.2402 4.15039c21.5332 0 39.4531-17.8711 39.4531-39.4043s-17.9688-39.4043-39.502-39.4043c-21.4844 0-39.3555 17.8711-39.3555 39.4043s17.9199 39.4043 39.4043 39.4043Zm0-7.42188c-17.7246 0-31.8848-14.209-31.8848-31.9824s14.1113-31.9824 31.8359-31.9824c17.7734 0 32.0312 14.209 32.0312 31.9824s-14.209 31.9824-31.9824 31.9824Zm-17.9688-31.9824c0 2.14844 1.51367 3.61328 3.75977 3.61328h10.498v10.5957c0 2.19727 1.46484 3.71094 3.61328 3.71094 2.24609 0 3.71094-1.51367 3.71094-3.71094v-10.5957h10.5957c2.19727 0 3.71094-1.46484 3.71094-3.61328 0-2.19727-1.51367-3.71094-3.71094-3.71094h-10.5957v-10.5469c0-2.24609-1.46484-3.75977-3.71094-3.75977-2.14844 0-3.61328 1.51367-3.61328 3.75977v10.5469h-10.498c-2.24609 0-3.75977 1.51367-3.75977 3.71094Z"/>
  </g>
  <g transform="matrix(0.2 0 0 0.2 281.506 1933)">
   <path d="m58.5449 14.5508c27.2461 0 49.8047-22.6074 49.8047-49.8047 0-27.2461-22.6074-49.8047-49.8535-49.8047-27.1973 0-49.7559 22.5586-49.7559 49.8047 0 27.1973 22.6074 49.8047 49.8047 49.8047Zm0-8.30078c-23.0469 0-41.4551-18.457-41.4551-41.5039s18.3594-41.5039 41.4062-41.5039 41.5527 18.457 41.5527 41.5039-18.457 41.5039-41.5039 41.5039Zm-22.6562-41.5039c0 2.39258 1.66016 4.00391 4.15039 4.00391h14.3555v14.4043c0 2.44141 1.66016 4.15039 4.05273 4.15039 2.44141 0 4.15039-1.66016 4.15039-4.15039v-14.4043h14.4043c2.44141 0 4.15039-1.61133 4.15039-4.00391 0-2.44141-1.70898-4.15039-4.15039-4.15039h-14.4043v-14.3555c0-2.49023-1.70898-4.19922-4.15039-4.19922-2.39258 0-4.05273 1.70898-4.05273 4.19922v14.3555h-14.3555c-2.49023 0-4.15039 1.70898-4.15039 4.15039Z"/>
  </g>
  <g transform="matrix(0.2 0 0 0.2 304.924 1933)">
   <path d="m74.8535 28.3203c34.8145 0 63.623-28.8086 63.623-63.5742 0-34.8145-28.8574-63.623-63.6719-63.623-34.7656 0-63.5254 28.8086-63.5254 63.623 0 34.7656 28.8086 63.5742 63.5742 63.5742Zm0-9.08203c-30.1758 0-54.4434-24.3164-54.4434-54.4922 0-30.2246 24.2188-54.4922 54.3945-54.4922 30.2246 0 54.541 24.2676 54.541 54.4922 0 30.1758-24.2676 54.4922-54.4922 54.4922Zm-28.8574-54.4922c0 2.58789 1.85547 4.39453 4.58984 4.39453h19.7266v19.7754c0 2.68555 1.85547 4.58984 4.44336 4.58984 2.68555 0 4.54102-1.85547 4.54102-4.58984v-19.7754h19.7754c2.68555 0 4.58984-1.80664 4.58984-4.39453 0-2.73438-1.85547-4.58984-4.58984-4.58984h-19.7754v-19.7266c0-2.73438-1.85547-4.63867-4.54102-4.63867-2.58789 0-4.44336 1.9043-4.44336 4.63867v19.7266h-19.7266c-2.73438 0-4.58984 1.85547-4.58984 4.58984Z"/>
  </g>
  <text style="stroke:none;fill:black;font-family:sans-serif;font-size:13;font-weight:bold;" transform="matrix(1 0 0 1 263 1953)">Design Variations</text>
  <text style="stroke:none;fill:black;font-family:sans-serif;font-size:13;" transform="matrix(1 0 0 1 263 1971)">Symbols are supported in up to nine weights and three scales.</text>
  <text style="stroke:none;fill:black;font-family:sans-serif;font-size:13;" transform="matrix(1 0 0 1 263 1989)">For optimal layout with text and other symbols, vertically align</text>
  <text style="stroke:none;fill:black;font-family:sans-serif;font-size:13;" transform="matrix(1 0 0 1 263 2007)">symbols with the adjacent text.</text>
  <line style="fill:none;stroke:#00AEEF;stroke-width:0.5;opacity:1.0;" x1="776" x2="776" y1="1919" y2="1933"/>
  <g transform="matrix(0.2 0 0 0.2 776 1933)">
   <path d="m16.5527 0.78125c2.58789 0 3.85742-0.976562 4.78516-3.71094l6.29883-17.2363h28.8086l6.29883 17.2363c0.927734 2.73438 2.19727 3.71094 4.73633 3.71094 2.58789 0 4.24805-1.5625 4.24805-4.00391 0-0.830078-0.146484-1.61133-0.537109-2.63672l-22.9004-60.9863c-1.12305-2.97852-3.125-4.49219-6.25-4.49219-3.02734 0-5.07812 1.46484-6.15234 4.44336l-22.9004 61.084c-0.390625 1.02539-0.537109 1.80664-0.537109 2.63672 0 2.44141 1.5625 3.95508 4.10156 3.95508Zm13.4766-28.3691 11.8652-32.8613h0.244141l11.8652 32.8613Z"/>
  </g>
  <line style="fill:none;stroke:#00AEEF;stroke-width:0.5;opacity:1.0;" x1="792.836" x2="792.836" y1="1919" y2="1933"/>
  <text style="stroke:none;fill:black;font-family:sans-serif;font-size:13;font-weight:bold;" transform="matrix(1 0 0 1 776 1953)">Margins</text>
  <text style="stroke:none;fill:black;font-family:sans-serif;font-size:13;" transform="matrix(1 0 0 1 776 1971)">Leading and trailing margins on the left and right side of each symbol</text>
  <text style="stroke:none;fill:black;font-family:sans-serif;font-size:13;" transform="matrix(1 0 0 1 776 1989)">can be adjusted by modifying the x-location of the margin guidelines.</text>
  <text style="stroke:none;fill:black;font-family:sans-serif;font-size:13;" transform="matrix(1 0 0 1 776 2007)">Modifications are automatically applied proportionally to all</text>
  <text style="stroke:none;fill:black;font-family:sans-serif;font-size:13;" transform="matrix(1 0 0 1 776 2025)">scales and weights.</text>
  <g transform="matrix(0.2 0 0 0.2 1289 1933)">
   <path d="m14.209 9.32617 8.49609 8.54492c4.29688 4.3457 9.22852 4.05273 13.8672-1.07422l53.4668-58.9355-4.83398-4.88281-53.0762 58.3984c-1.75781 2.00195-3.41797 2.49023-5.76172 0.146484l-5.85938-5.81055c-2.34375-2.29492-1.80664-4.00391 0.195312-5.81055l57.373-54.0039-4.88281-4.83398-57.959 54.4434c-4.93164 4.58984-5.32227 9.47266-1.02539 13.8184Zm32.0801-90.9668c-2.09961 2.05078-2.24609 4.93164-1.07422 6.88477 1.17188 1.80664 3.4668 2.97852 6.68945 2.14844 7.32422-1.70898 14.9414-2.00195 22.0703 2.68555l-2.92969 7.27539c-1.70898 4.15039-0.830078 7.08008 1.85547 9.81445l11.4746 11.5723c2.44141 2.44141 4.49219 2.53906 7.32422 2.05078l5.32227-0.976562 3.32031 3.36914-0.195312 2.7832c-0.195312 2.49023 0.439453 4.39453 2.88086 6.78711l3.80859 3.71094c2.39258 2.39258 5.46875 2.53906 7.8125 0.195312l14.5508-14.5996c2.34375-2.34375 2.24609-5.32227-0.146484-7.71484l-3.85742-3.80859c-2.39258-2.39258-4.24805-3.17383-6.64062-2.97852l-2.88086 0.244141-3.22266-3.17383 1.2207-5.61523c0.634766-2.83203-0.146484-5.0293-3.07617-7.95898l-10.9863-10.9375c-16.6992-16.6016-38.8672-16.2109-53.3203-1.75781Zm7.4707 1.85547c12.1582-8.88672 28.6133-7.37305 39.7461 3.75977l12.1582 12.0605c1.17188 1.17188 1.36719 2.09961 1.02539 3.80859l-1.61133 7.42188 7.51953 7.42188 4.93164-0.292969c1.26953-0.0488281 1.66016 0.0488281 2.63672 1.02539l2.88086 2.88086-12.207 12.207-2.88086-2.88086c-0.976562-0.976562-1.12305-1.36719-1.07422-2.68555l0.341797-4.88281-7.4707-7.42188-7.61719 1.26953c-1.61133 0.341797-2.34375 0.195312-3.56445-0.976562l-10.0098-10.0098c-1.26953-1.17188-1.41602-2.00195-0.634766-3.85742l4.39453-10.4492c-7.8125-7.27539-17.9688-10.4004-28.125-7.42188-0.78125 0.195312-1.07422-0.439453-0.439453-0.976562Z"/>
  </g>
  <text style="stroke:none;fill:black;font-family:sans-serif;font-size:13;font-weight:bold;" transform="matrix(1 0 0 1 1289 1953)">Exporting</text>
  <text style="stroke:none;fill:black;font-family:sans-serif;font-size:13;" transform="matrix(1 0 0 1 1289 1971)">Symbols should be outlined when exporting to ensure the</text>
  <text style="stroke:none;fill:black;font-family:sans-serif;font-size:13;" transform="matrix(1 0 0 1 1289 1989)">design is preserved when submitting to Xcode.</text>
  <text id="template-version" style="stroke:none;fill:black;font-family:sans-serif;font-size:13;text-anchor:end;" transform="matrix(1 0 0 1 3036 1933)">Template v.5.0</text>
  <text style="stroke:none;fill:black;font-family:sans-serif;font-size:13;text-anchor:end;" transform="matrix(1 0 0 1 3036 1951)">Requires Xcode 15 or greater</text>
  <text id="descriptive-name" style="stroke:none;fill:black;font-family:sans-serif;font-size:13;text-anchor:end;" transform="matrix(1 0 0 1 3036 1969)">Generated from tortoise.circle.fill</text>
  <text style="stroke:none;fill:black;font-family:sans-serif;font-size:13;text-anchor:end;" transform="matrix(1 0 0 1 3036 1987)">Typeset at 100.0 points</text>
  <text style="stroke:none;fill:black;font-family:sans-serif;font-size:13;" transform="matrix(1 0 0 1 263 726)">Small</text>
  <text style="stroke:none;fill:black;font-family:sans-serif;font-size:13;" transform="matrix(1 0 0 1 263 1156)">Medium</text>
  <text style="stroke:none;fill:black;font-family:sans-serif;font-size:13;" transform="matrix(1 0 0 1 263 1586)">Large</text>
 </g>
 <g id="Guides">
  <g id="H-reference" style="fill:#27AAE1;stroke:none;" transform="matrix(1 0 0 1 339 696)">
   <path d="M0.993654 0L3.63775 0L29.3281-67.1323L30.0303-67.1323L30.0303-70.459L28.1226-70.459ZM11.6885-24.4799L46.9815-24.4799L46.2315-26.7285L12.4385-26.7285ZM55.1196 0L57.7637 0L30.6382-70.459L29.4326-70.459L29.4326-67.1323Z"/>
  </g>
  <line id="Baseline-S" style="fill:none;stroke:#27AAE1;opacity:1;stroke-width:0.5;" x1="263" x2="3036" y1="696" y2="696"/>
  <line id="Capline-S" style="fill:none;stroke:#27AAE1;opacity:1;stroke-width:0.5;" x1="263" x2="3036" y1="625.541" y2="625.541"/>
  <g id="H-reference" style="fill:#27AAE1;stroke:none;" transform="matrix(1 0 0 1 339 1126)">
   <path d="M0.993654 0L3.63775 0L29.3281-67.1323L30.0303-67.1323L30.0303-70.459L28.1226-70.459ZM11.6885-24.4799L46.9815-24.4799L46.2315-26.7285L12.4385-26.7285ZM55.1196 0L57.7637 0L30.6382-70.459L29.4326-70.459L29.4326-67.1323Z"/>
  </g>
  <line id="Baseline-M" style="fill:none;stroke:#27AAE1;opacity:1;stroke-width:0.5;" x1="263" x2="3036" y1="1126" y2="1126"/>
  <line id="Capline-M" style="fill:none;stroke:#27AAE1;opacity:1;stroke-width:0.5;" x1="263" x2="3036" y1="1055.54" y2="1055.54"/>
  <g id="H-reference" style="fill:#27AAE1;stroke:none;" transform="matrix(1 0 0 1 339 1556)">
   <path d="M0.993654 0L3.63775 0L29.3281-67.1323L30.0303-67.1323L30.0303-70.459L28.1226-70.459ZM11.6885-24.4799L46.9815-24.4799L46.2315-26.7285L12.4385-26.7285ZM55.1196 0L57.7637 0L30.6382-70.459L29.4326-70.459L29.4326-67.1323Z"/>
  </g>
  <line id="Baseline-L" style="fill:none;stroke:#27AAE1;opacity:1;stroke-width:0.5;" x1="263" x2="3036" y1="1556" y2="1556"/>
  <line id="Capline-L" style="fill:none;stroke:#27AAE1;opacity:1;stroke-width:0.5;" x1="263" x2="3036" y1="1485.54" y2="1485.54"/>
  <line id="left-margin-Ultralight-S" style="fill:none;stroke:#00AEEF;stroke-width:0.5;opacity:1.0;" x1="515.649" x2="515.649" y1="600.785" y2="720.121"/>
  <line id="right-margin-Ultralight-S" style="fill:none;stroke:#00AEEF;stroke-width:0.5;opacity:1.0;" x1="603.773" x2="603.773" y1="600.785" y2="720.121"/>
  <line id="left-margin-Regular-S" style="fill:none;stroke:#00AEEF;stroke-width:0.5;opacity:1.0;" x1="1403.58" x2="1403.58" y1="600.785" y2="720.121"/>
  <line id="right-margin-Regular-S" style="fill:none;stroke:#00AEEF;stroke-width:0.5;opacity:1.0;" x1="1496.11" x2="1496.11" y1="600.785" y2="720.121"/>
  <line id="left-margin-Black-S" style="fill:none;stroke:#00AEEF;stroke-width:0.5;opacity:1.0;" x1="2884.57" x2="2884.57" y1="600.785" y2="720.121"/>
  <line id="right-margin-Black-S" style="fill:none;stroke:#00AEEF;stroke-width:0.5;opacity:1.0;" x1="2982.23" x2="2982.23" y1="600.785" y2="720.121"/>
 </g>
 <g id="Symbols">
  <g id="Black-S" transform="matrix(1 0 0 1 2884.57 696)">
   <path class="SFSymbolsPreviewWireframe" d="M48.8281 6.78711C71.9727 6.78711 90.8203-12.0605 90.8203-35.2051C90.8203-58.3496 71.9727-77.1973 48.8281-77.1973C25.6836-77.1973 6.83594-58.3496 6.83594-35.2051C6.83594-12.0605 25.6836 6.78711 48.8281 6.78711ZM42.1875-38.8184C38.3301-38.8184 34.8633-40.4785 32.3242-43.3594C34.7656-46.2891 38.1836-48.0469 42.2852-48.0469C46.3867-48.0469 49.4141-46.7773 52.1973-43.6035C49.5605-40.5273 46.0449-38.8184 42.1875-38.8184ZM32.1777-27.7344C30.9082-28.4668 28.9062-28.8574 27.2461-28.8574C27.002-28.8574 26.7578-28.8574 26.5137-28.8574C24.8535-28.8574 23.9746-29.7852 23.9746-31.0547C23.9746-32.1777 24.5117-32.6172 25.4883-33.6914C26.416-34.668 27.6367-35.8887 28.7109-37.8906C29.3457-39.1113 29.9805-40.1855 30.6152-41.1621C32.666-39.1113 34.7168-37.8418 36.9629-37.0117C36.6211-33.4473 34.8633-29.6875 32.1777-27.7344ZM42.2852-24.6582C39.1113-24.6582 36.6211-25.6836 34.4727-26.6113C37.5-29.0527 39.209-32.373 39.4531-36.377C40.332-36.2305 41.3086-36.1328 42.1875-36.1328C43.1641-36.1328 44.1406-36.2305 45.166-36.377C45.3613-32.373 47.168-29.0039 50.4395-26.6113C48.3887-25.6836 45.752-24.6582 42.2852-24.6582ZM52.6855-27.8809C49.8535-29.834 47.9492-33.3984 47.6562-37.1582C50-38.0371 51.9043-39.3555 53.8086-41.3574C55.4199-38.8672 57.5684-32.2754 58.2031-29.5898C57.8613-29.3945 57.2266-29.248 56.7871-29.1016C55.5176-28.8086 53.7598-28.3203 52.6855-27.8809ZM68.457-32.3242C65.7715-32.3242 62.793-31.1035 60.3027-30.127C59.9121-32.3242 59.3262-34.5703 58.4961-36.7188C59.7168-37.3047 60.6934-38.2812 61.084-39.7949C62.1582-43.0664 64.5508-45.7031 68.2617-45.7031C72.7051-45.7031 75.7324-42.041 75.7324-36.4258C75.7324-33.9355 72.998-32.3242 68.457-32.3242ZM68.7012-37.6465C69.7266-37.6465 70.5078-38.5254 70.5078-39.4531C70.5078-40.4785 69.7266-41.2109 68.7012-41.2109C67.7246-41.2109 66.8945-40.4785 66.8945-39.4531C66.8945-38.5254 67.7246-37.6465 68.7012-37.6465ZM28.3203-21.6309C25.9766-21.6309 24.5605-22.5586 24.5605-24.0723C24.5605-25 25.2441-25.6348 25.9766-25.8301C26.8066-26.0254 27.3926-26.2695 28.2227-26.5137C30.4199-25.6836 33.0078-24.6094 35.3516-23.4863C33.5938-22.4121 30.957-21.6309 28.3203-21.6309ZM58.0566-21.6309C55.3223-21.6309 52.1973-22.4121 50.5371-23.7305C52.2461-24.707 55.7617-25.9766 58.0566-26.6113C58.5449-26.4648 59.082-26.3672 59.6191-26.2207C60.7422-25.8301 61.9629-25.5859 61.9629-24.0723C61.9629-22.5586 60.4004-21.6309 58.0566-21.6309Z"/>
  </g>
  <g id="Regular-S" transform="matrix(1 0 0 1 1403.58 696)">
   <path class="SFSymbolsPreviewWireframe" d="M46.2402 4.15039C67.7734 4.15039 85.6934-13.7207 85.6934-35.2539C85.6934-56.7871 67.7246-74.6582 46.1914-74.6582C24.707-74.6582 6.83594-56.7871 6.83594-35.2539C6.83594-13.7207 24.7559 4.15039 46.2402 4.15039ZM39.4043-38.6719C35.0586-38.623 30.8594-40.2344 27.6855-43.8965C31.0059-48.1445 34.375-49.8535 39.502-49.8535C44.6289-49.8047 47.9492-48.0469 51.2695-43.9453C48.1934-40.332 44.0918-38.7207 39.4043-38.6719ZM28.0273-27.7832C26.8066-28.2227 25.5859-28.3691 23.7305-28.3691C23.0469-28.3691 22.4121-28.3691 21.7285-28.3691C19.5801-28.3691 18.4082-29.0039 18.4082-30.127C18.4082-30.8594 18.75-31.4453 19.1895-31.9824C20.459-33.0566 22.1191-34.5215 23.877-37.8418C24.5605-39.4043 25.4395-40.625 26.2207-41.8457C27.8809-39.9414 30.9082-38.1836 33.2031-37.3535C32.9102-34.375 30.6641-30.1758 28.0273-27.7832ZM39.5508-23.5352C35.5957-23.5352 32.8125-26.0254 30.6641-26.9531C33.252-29.2969 35.1562-33.4961 35.4004-36.6211C36.7676-36.2793 38.1348-36.084 39.502-36.084C40.8203-36.084 42.2363-36.2793 43.6035-36.6211C43.7988-33.3496 45.6543-29.3457 48.291-27.002C45.9961-25.8789 43.3105-23.5352 39.5508-23.5352ZM50.5859-27.9297C47.9004-30.4688 45.9961-34.4727 45.752-37.3535C47.7051-38.0859 50.8301-40.0879 52.5879-41.9922C54.4434-39.2578 57.9102-31.6895 59.8145-29.1992C58.9844-28.6621 57.1777-28.3691 55.3223-28.3691C53.3691-28.3691 52.0508-28.2715 50.5859-27.9297ZM68.3105-32.5195C64.9902-32.5195 63.9648-30.957 61.7676-30.0781C60.3027-32.2754 58.7891-34.9609 57.8613-36.2305C58.5938-36.9141 59.7168-37.9883 60.3027-40.4297C61.2305-44.6777 63.916-46.9727 68.0664-46.9727C72.9492-46.9727 76.1719-42.8711 76.1719-36.7188C76.1719-34.1309 73.1445-32.5195 68.3105-32.5195ZM68.4082-38.5254C69.1895-38.5254 69.9707-39.2578 69.9707-40.1367C69.9707-40.9668 69.1895-41.6504 68.4082-41.6504C67.5293-41.6504 66.8457-40.9668 66.8457-40.1367C66.8457-39.2578 67.5293-38.5254 68.4082-38.5254ZM23.2422-20.5078C20.8496-20.5078 18.8477-21.582 18.8477-23.4863C18.8477-24.9512 20.3125-25.4883 21.6309-25.8301C22.6074-25.9277 23.6328-25.9766 24.6094-26.2207C26.9043-26.2207 29.1992-25.0488 31.1035-23.8281C29.5898-21.8262 26.416-20.5078 23.2422-20.5078ZM54.7852-20.5078C51.6113-20.5078 48.4375-21.7773 46.9727-23.8281C48.7793-24.9512 51.1719-26.2207 53.3691-26.2207C54.541-26.2207 55.3223-26.2207 56.4453-26.2207C57.7637-26.1719 59.1797-24.9512 59.1797-23.4863C59.1797-21.5332 57.2266-20.5078 54.7852-20.5078Z"/>
  </g>
  <g id="Ultralight-S" transform="matrix(1 0 0 1 515.649 696)">
   <path class="SFSymbolsPreviewWireframe" d="M44.0606 1.97072C64.5039 1.97072 81.2886-14.8105 81.2886-35.2539C81.2886-55.6973 64.5005-72.4785 44.0571-72.4785C23.5718-72.4785 6.83594-55.6973 6.83594-35.2539C6.83594-14.8105 23.5752 1.97072 44.0606 1.97072ZM36.4527-37.8999C31.0171-37.8965 27.0904-39.7349 23.6895-42.5796C27.2368-47.9629 31.0601-49.5811 36.8682-49.5811C42.6763-49.5776 46.4053-46.5938 49.4531-42.6738C45.8775-39.7417 41.9121-37.9033 36.4527-37.8999ZM24.2583-27.3745C22.5835-27.9048 20.7725-28.4146 18.3721-28.4146C17.4161-28.4146 16.1456-28.4146 15.1895-28.4146C14.3125-28.4146 14.0943-28.7314 14.0943-29.1279C14.0943-29.4063 14.2998-29.8106 14.5577-29.9844C15.8726-30.8316 18.2139-33.2954 19.6084-35.7529C20.5645-37.4063 21.5796-39.2627 22.5879-40.8921C24.3389-39.4873 26.5035-38.0474 29.0254-37.1265C28.3238-33.603 26.9405-30.4482 24.2583-27.3745ZM35.6909-23.8984C31.5088-23.8984 28.8618-25.3442 26.2593-26.5898C29.0743-30.2505 30.252-33.0874 30.8594-36.4849C32.5445-36.0522 34.3658-35.9023 36.4595-35.9023C38.5044-35.9023 40.4199-36.1431 42.2412-36.7119C42.7998-32.5776 44.065-29.7544 47.1104-26.4116C44.1343-25.1978 40.7676-23.8984 35.6909-23.8984ZM49.0874-27.2485C45.7661-30.7866 44.6792-33.2012 44.2534-37.3535C46.4336-38.2676 48.5596-39.543 50.4536-41.084C52.3091-37.7139 55.5943-31.4624 57.6802-29.0176C57.2134-28.6621 56.2695-28.6416 55.2769-28.6416C53.0513-28.6416 51.0972-28.0444 49.0874-27.2485ZM67.6748-32.4287C64.5815-32.4287 62.8296-31.729 59.5879-29.8511C58.668-30.686 57.5176-32.5542 56.3174-34.5503C57.3223-35.5064 57.9004-36.7168 59.1675-40.1572C60.3223-43.4517 62.5083-46.564 66.7041-46.564C71.2691-46.564 74.3101-42.2808 74.3101-37.0366C74.3101-34.2671 71.3281-32.4287 67.6748-32.4287ZM67.6362-38.5708C68.2813-38.5708 68.8809-39.0762 68.8809-39.8643C68.8809-40.6035 68.2813-41.1963 67.6362-41.1963C66.8936-41.1963 66.3008-40.6035 66.3008-39.8643C66.3008-39.0762 66.8936-38.5708 67.6362-38.5708ZM19.4732-21.1435C17.2168-21.1435 15.896-22.0815 15.896-23.5771C15.896-24.9966 17.043-25.6245 19.3604-26.2842C19.5196-26.3364 19.6822-26.3398 19.8413-26.4023C22.3179-26.2207 23.1597-25.7754 25.9268-24.5547C24.4585-22.4165 21.8296-21.1435 19.4732-21.1435ZM53.4683-20.9165C51.1118-20.9165 48.5283-22.1406 47.1089-24.2822C47.5986-24.5425 51.3081-26.0391 52.4155-26.3115C52.77-26.2661 53.1426-26.1753 53.5845-26.0845C55.9019-25.5815 57.0908-24.7241 57.0908-23.3501C57.0908-21.8965 55.728-20.9165 53.4683-20.9165Z"/>
  </g>
 </g>
</svg>
