<?xml version="1.0" encoding="UTF-8"?>
<!--Generator: Apple Native CoreSVG 232.5-->
<!DOCTYPE svg
PUBLIC "-//W3C//DTD SVG 1.1//EN"
       "http://www.w3.org/Graphics/SVG/1.1/DTD/svg11.dtd">
<svg version="1.1" xmlns="http://www.w3.org/2000/svg" xmlns:xlink="http://www.w3.org/1999/xlink" width="3300" height="2200">
 <!--glyph: "uni10203C.medium", point size: 100.0, font version: "19.2d2e1", template writer version: "128"-->
 <style>.SFSymbolsPreviewWireframe {fill:none;opacity:1.0;stroke:black;stroke-width:0.5}
</style>
 <g id="Notes">
  <rect height="2200" id="artboard" style="fill:white;opacity:1" width="3300" x="0" y="0"/>
  <line style="fill:none;stroke:black;opacity:1;stroke-width:0.5;" x1="263" x2="3036" y1="292" y2="292"/>
  <text style="stroke:none;fill:black;font-family:sans-serif;font-size:13;font-weight:bold;" transform="matrix(1 0 0 1 263 322)">Weight/Scale Variations</text>
  <text style="stroke:none;fill:black;font-family:sans-serif;font-size:13;text-anchor:middle;" transform="matrix(1 0 0 1 559.711 322)">Ultralight</text>
  <text style="stroke:none;fill:black;font-family:sans-serif;font-size:13;text-anchor:middle;" transform="matrix(1 0 0 1 856.422 322)">Thin</text>
  <text style="stroke:none;fill:black;font-family:sans-serif;font-size:13;text-anchor:middle;" transform="matrix(1 0 0 1 1153.13 322)">Light</text>
  <text style="stroke:none;fill:black;font-family:sans-serif;font-size:13;text-anchor:middle;" transform="matrix(1 0 0 1 1449.84 322)">Regular</text>
  <text style="stroke:none;fill:black;font-family:sans-serif;font-size:13;text-anchor:middle;" transform="matrix(1 0 0 1 1746.56 322)">Medium</text>
  <text style="stroke:none;fill:black;font-family:sans-serif;font-size:13;text-anchor:middle;" transform="matrix(1 0 0 1 2043.27 322)">Semibold</text>
  <text style="stroke:none;fill:black;font-family:sans-serif;font-size:13;text-anchor:middle;" transform="matrix(1 0 0 1 2339.98 322)">Bold</text>
  <text style="stroke:none;fill:black;font-family:sans-serif;font-size:13;text-anchor:middle;" transform="matrix(1 0 0 1 2636.69 322)">Heavy</text>
  <text style="stroke:none;fill:black;font-family:sans-serif;font-size:13;text-anchor:middle;" transform="matrix(1 0 0 1 2933.4 322)">Black</text>
  <line style="fill:none;stroke:black;opacity:1;stroke-width:0.5;" x1="263" x2="3036" y1="1903" y2="1903"/>
  <g transform="matrix(0.2 0 0 0.2 263 1933)">
   <path d="m46.2402 4.15039c21.5332 0 39.4531-17.8711 39.4531-39.4043s-17.9688-39.4043-39.502-39.4043c-21.4844 0-39.3555 17.8711-39.3555 39.4043s17.9199 39.4043 39.4043 39.4043Zm0-7.42188c-17.7246 0-31.8848-14.209-31.8848-31.9824s14.1113-31.9824 31.8359-31.9824c17.7734 0 32.0312 14.209 32.0312 31.9824s-14.209 31.9824-31.9824 31.9824Zm-17.9688-31.9824c0 2.14844 1.51367 3.61328 3.75977 3.61328h10.498v10.5957c0 2.19727 1.46484 3.71094 3.61328 3.71094 2.24609 0 3.71094-1.51367 3.71094-3.71094v-10.5957h10.5957c2.19727 0 3.71094-1.46484 3.71094-3.61328 0-2.19727-1.51367-3.71094-3.71094-3.71094h-10.5957v-10.5469c0-2.24609-1.46484-3.75977-3.71094-3.75977-2.14844 0-3.61328 1.51367-3.61328 3.75977v10.5469h-10.498c-2.24609 0-3.75977 1.51367-3.75977 3.71094Z"/>
  </g>
  <g transform="matrix(0.2 0 0 0.2 281.506 1933)">
   <path d="m58.5449 14.5508c27.2461 0 49.8047-22.6074 49.8047-49.8047 0-27.2461-22.6074-49.8047-49.8535-49.8047-27.1973 0-49.7559 22.5586-49.7559 49.8047 0 27.1973 22.6074 49.8047 49.8047 49.8047Zm0-8.30078c-23.0469 0-41.4551-18.457-41.4551-41.5039s18.3594-41.5039 41.4062-41.5039 41.5527 18.457 41.5527 41.5039-18.457 41.5039-41.5039 41.5039Zm-22.6562-41.5039c0 2.39258 1.66016 4.00391 4.15039 4.00391h14.3555v14.4043c0 2.44141 1.66016 4.15039 4.05273 4.15039 2.44141 0 4.15039-1.66016 4.15039-4.15039v-14.4043h14.4043c2.44141 0 4.15039-1.61133 4.15039-4.00391 0-2.44141-1.70898-4.15039-4.15039-4.15039h-14.4043v-14.3555c0-2.49023-1.70898-4.19922-4.15039-4.19922-2.39258 0-4.05273 1.70898-4.05273 4.19922v14.3555h-14.3555c-2.49023 0-4.15039 1.70898-4.15039 4.15039Z"/>
  </g>
  <g transform="matrix(0.2 0 0 0.2 304.924 1933)">
   <path d="m74.8535 28.3203c34.8145 0 63.623-28.8086 63.623-63.5742 0-34.8145-28.8574-63.623-63.6719-63.623-34.7656 0-63.5254 28.8086-63.5254 63.623 0 34.7656 28.8086 63.5742 63.5742 63.5742Zm0-9.08203c-30.1758 0-54.4434-24.3164-54.4434-54.4922 0-30.2246 24.2188-54.4922 54.3945-54.4922 30.2246 0 54.541 24.2676 54.541 54.4922 0 30.1758-24.2676 54.4922-54.4922 54.4922Zm-28.8574-54.4922c0 2.58789 1.85547 4.39453 4.58984 4.39453h19.7266v19.7754c0 2.68555 1.85547 4.58984 4.44336 4.58984 2.68555 0 4.54102-1.85547 4.54102-4.58984v-19.7754h19.7754c2.68555 0 4.58984-1.80664 4.58984-4.39453 0-2.73438-1.85547-4.58984-4.58984-4.58984h-19.7754v-19.7266c0-2.73438-1.85547-4.63867-4.54102-4.63867-2.58789 0-4.44336 1.9043-4.44336 4.63867v19.7266h-19.7266c-2.73438 0-4.58984 1.85547-4.58984 4.58984Z"/>
  </g>
  <text style="stroke:none;fill:black;font-family:sans-serif;font-size:13;font-weight:bold;" transform="matrix(1 0 0 1 263 1953)">Design Variations</text>
  <text style="stroke:none;fill:black;font-family:sans-serif;font-size:13;" transform="matrix(1 0 0 1 263 1971)">Symbols are supported in up to nine weights and three scales.</text>
  <text style="stroke:none;fill:black;font-family:sans-serif;font-size:13;" transform="matrix(1 0 0 1 263 1989)">For optimal layout with text and other symbols, vertically align</text>
  <text style="stroke:none;fill:black;font-family:sans-serif;font-size:13;" transform="matrix(1 0 0 1 263 2007)">symbols with the adjacent text.</text>
  <line style="fill:none;stroke:#00AEEF;stroke-width:0.5;opacity:1.0;" x1="776" x2="776" y1="1919" y2="1933"/>
  <g transform="matrix(0.2 0 0 0.2 776 1933)">
   <path d="m16.5527 0.78125c2.58789 0 3.85742-0.976562 4.78516-3.71094l6.29883-17.2363h28.8086l6.29883 17.2363c0.927734 2.73438 2.19727 3.71094 4.73633 3.71094 2.58789 0 4.24805-1.5625 4.24805-4.00391 0-0.830078-0.146484-1.61133-0.537109-2.63672l-22.9004-60.9863c-1.12305-2.97852-3.125-4.49219-6.25-4.49219-3.02734 0-5.07812 1.46484-6.15234 4.44336l-22.9004 61.084c-0.390625 1.02539-0.537109 1.80664-0.537109 2.63672 0 2.44141 1.5625 3.95508 4.10156 3.95508Zm13.4766-28.3691 11.8652-32.8613h0.244141l11.8652 32.8613Z"/>
  </g>
  <line style="fill:none;stroke:#00AEEF;stroke-width:0.5;opacity:1.0;" x1="792.836" x2="792.836" y1="1919" y2="1933"/>
  <text style="stroke:none;fill:black;font-family:sans-serif;font-size:13;font-weight:bold;" transform="matrix(1 0 0 1 776 1953)">Margins</text>
  <text style="stroke:none;fill:black;font-family:sans-serif;font-size:13;" transform="matrix(1 0 0 1 776 1971)">Leading and trailing margins on the left and right side of each symbol</text>
  <text style="stroke:none;fill:black;font-family:sans-serif;font-size:13;" transform="matrix(1 0 0 1 776 1989)">can be adjusted by modifying the x-location of the margin guidelines.</text>
  <text style="stroke:none;fill:black;font-family:sans-serif;font-size:13;" transform="matrix(1 0 0 1 776 2007)">Modifications are automatically applied proportionally to all</text>
  <text style="stroke:none;fill:black;font-family:sans-serif;font-size:13;" transform="matrix(1 0 0 1 776 2025)">scales and weights.</text>
  <g transform="matrix(0.2 0 0 0.2 1289 1933)">
   <path d="m14.209 9.32617 8.49609 8.54492c4.29688 4.3457 9.22852 4.05273 13.8672-1.07422l53.4668-58.9355-4.83398-4.88281-53.0762 58.3984c-1.75781 2.00195-3.41797 2.49023-5.76172 0.146484l-5.85938-5.81055c-2.34375-2.29492-1.80664-4.00391 0.195312-5.81055l57.373-54.0039-4.88281-4.83398-57.959 54.4434c-4.93164 4.58984-5.32227 9.47266-1.02539 13.8184Zm32.0801-90.9668c-2.09961 2.05078-2.24609 4.93164-1.07422 6.88477 1.17188 1.80664 3.4668 2.97852 6.68945 2.14844 7.32422-1.70898 14.9414-2.00195 22.0703 2.68555l-2.92969 7.27539c-1.70898 4.15039-0.830078 7.08008 1.85547 9.81445l11.4746 11.5723c2.44141 2.44141 4.49219 2.53906 7.32422 2.05078l5.32227-0.976562 3.32031 3.36914-0.195312 2.7832c-0.195312 2.49023 0.439453 4.39453 2.88086 6.78711l3.80859 3.71094c2.39258 2.39258 5.46875 2.53906 7.8125 0.195312l14.5508-14.5996c2.34375-2.34375 2.24609-5.32227-0.146484-7.71484l-3.85742-3.80859c-2.39258-2.39258-4.24805-3.17383-6.64062-2.97852l-2.88086 0.244141-3.22266-3.17383 1.2207-5.61523c0.634766-2.83203-0.146484-5.0293-3.07617-7.95898l-10.9863-10.9375c-16.6992-16.6016-38.8672-16.2109-53.3203-1.75781Zm7.4707 1.85547c12.1582-8.88672 28.6133-7.37305 39.7461 3.75977l12.1582 12.0605c1.17188 1.17188 1.36719 2.09961 1.02539 3.80859l-1.61133 7.42188 7.51953 7.42188 4.93164-0.292969c1.26953-0.0488281 1.66016 0.0488281 2.63672 1.02539l2.88086 2.88086-12.207 12.207-2.88086-2.88086c-0.976562-0.976562-1.12305-1.36719-1.07422-2.68555l0.341797-4.88281-7.4707-7.42188-7.61719 1.26953c-1.61133 0.341797-2.34375 0.195312-3.56445-0.976562l-10.0098-10.0098c-1.26953-1.17188-1.41602-2.00195-0.634766-3.85742l4.39453-10.4492c-7.8125-7.27539-17.9688-10.4004-28.125-7.42188-0.78125 0.195312-1.07422-0.439453-0.439453-0.976562Z"/>
  </g>
  <text style="stroke:none;fill:black;font-family:sans-serif;font-size:13;font-weight:bold;" transform="matrix(1 0 0 1 1289 1953)">Exporting</text>
  <text style="stroke:none;fill:black;font-family:sans-serif;font-size:13;" transform="matrix(1 0 0 1 1289 1971)">Symbols should be outlined when exporting to ensure the</text>
  <text style="stroke:none;fill:black;font-family:sans-serif;font-size:13;" transform="matrix(1 0 0 1 1289 1989)">design is preserved when submitting to Xcode.</text>
  <text id="template-version" style="stroke:none;fill:black;font-family:sans-serif;font-size:13;text-anchor:end;" transform="matrix(1 0 0 1 3036 1933)">Template v.5.0</text>
  <text style="stroke:none;fill:black;font-family:sans-serif;font-size:13;text-anchor:end;" transform="matrix(1 0 0 1 3036 1951)">Requires Xcode 15 or greater</text>
  <text id="descriptive-name" style="stroke:none;fill:black;font-family:sans-serif;font-size:13;text-anchor:end;" transform="matrix(1 0 0 1 3036 1969)">Generated from tortoise.circle</text>
  <text style="stroke:none;fill:black;font-family:sans-serif;font-size:13;text-anchor:end;" transform="matrix(1 0 0 1 3036 1987)">Typeset at 100.0 points</text>
  <text style="stroke:none;fill:black;font-family:sans-serif;font-size:13;" transform="matrix(1 0 0 1 263 726)">Small</text>
  <text style="stroke:none;fill:black;font-family:sans-serif;font-size:13;" transform="matrix(1 0 0 1 263 1156)">Medium</text>
  <text style="stroke:none;fill:black;font-family:sans-serif;font-size:13;" transform="matrix(1 0 0 1 263 1586)">Large</text>
 </g>
 <g id="Guides">
  <g id="H-reference" style="fill:#27AAE1;stroke:none;" transform="matrix(1 0 0 1 339 696)">
   <path d="M0.993654 0L3.63775 0L29.3281-67.1323L30.0303-67.1323L30.0303-70.459L28.1226-70.459ZM11.6885-24.4799L46.9815-24.4799L46.2315-26.7285L12.4385-26.7285ZM55.1196 0L57.7637 0L30.6382-70.459L29.4326-70.459L29.4326-67.1323Z"/>
  </g>
  <line id="Baseline-S" style="fill:none;stroke:#27AAE1;opacity:1;stroke-width:0.5;" x1="263" x2="3036" y1="696" y2="696"/>
  <line id="Capline-S" style="fill:none;stroke:#27AAE1;opacity:1;stroke-width:0.5;" x1="263" x2="3036" y1="625.541" y2="625.541"/>
  <g id="H-reference" style="fill:#27AAE1;stroke:none;" transform="matrix(1 0 0 1 339 1126)">
   <path d="M0.993654 0L3.63775 0L29.3281-67.1323L30.0303-67.1323L30.0303-70.459L28.1226-70.459ZM11.6885-24.4799L46.9815-24.4799L46.2315-26.7285L12.4385-26.7285ZM55.1196 0L57.7637 0L30.6382-70.459L29.4326-70.459L29.4326-67.1323Z"/>
  </g>
  <line id="Baseline-M" style="fill:none;stroke:#27AAE1;opacity:1;stroke-width:0.5;" x1="263" x2="3036" y1="1126" y2="1126"/>
  <line id="Capline-M" style="fill:none;stroke:#27AAE1;opacity:1;stroke-width:0.5;" x1="263" x2="3036" y1="1055.54" y2="1055.54"/>
  <g id="H-reference" style="fill:#27AAE1;stroke:none;" transform="matrix(1 0 0 1 339 1556)">
   <path d="M0.993654 0L3.63775 0L29.3281-67.1323L30.0303-67.1323L30.0303-70.459L28.1226-70.459ZM11.6885-24.4799L46.9815-24.4799L46.2315-26.7285L12.4385-26.7285ZM55.1196 0L57.7637 0L30.6382-70.459L29.4326-70.459L29.4326-67.1323Z"/>
  </g>
  <line id="Baseline-L" style="fill:none;stroke:#27AAE1;opacity:1;stroke-width:0.5;" x1="263" x2="3036" y1="1556" y2="1556"/>
  <line id="Capline-L" style="fill:none;stroke:#27AAE1;opacity:1;stroke-width:0.5;" x1="263" x2="3036" y1="1485.54" y2="1485.54"/>
  <line id="left-margin-Ultralight-S" style="fill:none;stroke:#00AEEF;stroke-width:0.5;opacity:1.0;" x1="515.649" x2="515.649" y1="600.785" y2="720.121"/>
  <line id="right-margin-Ultralight-S" style="fill:none;stroke:#00AEEF;stroke-width:0.5;opacity:1.0;" x1="603.773" x2="603.773" y1="600.785" y2="720.121"/>
  <line id="left-margin-Regular-S" style="fill:none;stroke:#00AEEF;stroke-width:0.5;opacity:1.0;" x1="1403.58" x2="1403.58" y1="600.785" y2="720.121"/>
  <line id="right-margin-Regular-S" style="fill:none;stroke:#00AEEF;stroke-width:0.5;opacity:1.0;" x1="1496.11" x2="1496.11" y1="600.785" y2="720.121"/>
  <line id="left-margin-Black-S" style="fill:none;stroke:#00AEEF;stroke-width:0.5;opacity:1.0;" x1="2884.57" x2="2884.57" y1="600.785" y2="720.121"/>
  <line id="right-margin-Black-S" style="fill:none;stroke:#00AEEF;stroke-width:0.5;opacity:1.0;" x1="2982.23" x2="2982.23" y1="600.785" y2="720.121"/>
 </g>
 <g id="Symbols">
  <g id="Black-S" transform="matrix(1 0 0 1 2884.57 696)">
   <path class="SFSymbolsPreviewWireframe" d="M48.8281 6.78711C71.9727 6.78711 90.8203-12.0605 90.8203-35.2051C90.8203-58.3496 71.9727-77.1973 48.8281-77.1973C25.6836-77.1973 6.83594-58.3496 6.83594-35.2051C6.83594-12.0605 25.6836 6.78711 48.8281 6.78711ZM48.8281-7.37305C33.4473-7.37305 20.9961-19.8242 20.9961-35.2051C20.9961-50.5859 33.4473-63.0371 48.8281-63.0371C64.209-63.0371 76.6602-50.5859 76.6602-35.2051C76.6602-19.8242 64.209-7.37305 48.8281-7.37305ZM42.7734-38.5254C46.3379-38.5254 49.5605-40.0879 52.002-42.9199C49.4629-45.8984 46.6309-47.0703 42.8711-47.0703C39.0625-47.0703 35.8887-45.4102 33.6426-42.7246C35.9863-40.0391 39.209-38.5254 42.7734-38.5254ZM33.4961-28.2715C35.9863-30.0781 37.5977-33.5449 37.9395-36.8652C35.8398-37.5977 33.9844-38.7695 32.0801-40.6738C31.4941-39.7949 30.9082-38.7695 30.3223-37.6465C29.2969-35.791 28.1738-34.668 27.3438-33.7891C26.416-32.7637 25.9277-32.373 25.9277-31.3477C25.9277-30.1758 26.7578-29.2969 28.2715-29.2969C28.5156-29.2969 28.7109-29.2969 28.9551-29.2969C30.4688-29.2969 32.3242-28.9551 33.4961-28.2715ZM42.8711-25.4395C46.0449-25.4395 48.4863-26.3672 50.3906-27.2461C47.3633-29.4434 45.7031-32.5684 45.5078-36.2793C44.5801-36.1328 43.6523-36.0352 42.7734-36.0352C41.9434-36.0352 41.0645-36.1328 40.2344-36.2793C39.9902-32.5684 38.4277-29.4922 35.6445-27.2461C37.5977-26.3672 39.9414-25.4395 42.8711-25.4395ZM52.4902-28.418C53.4668-28.8086 55.0781-29.248 56.25-29.541C56.6895-29.6875 57.2754-29.7852 57.5684-29.9805C56.9824-32.4707 54.9805-38.5742 53.5156-40.8691C51.7578-39.0137 50-37.793 47.8027-36.9629C48.0957-33.4961 49.8535-30.2246 52.4902-28.418ZM67.041-32.5195C71.2402-32.5195 73.7793-33.9844 73.7793-36.3281C73.7793-41.5039 70.9961-44.873 66.8945-44.873C63.4277-44.873 61.2305-42.4316 60.2539-39.4043C59.8633-38.0371 58.9844-37.1094 57.8613-36.5723C58.5938-34.5703 59.1309-32.5195 59.5215-30.4688C61.8164-31.3965 64.5508-32.5195 67.041-32.5195ZM67.2852-37.4512C66.3574-37.4512 65.625-38.2324 65.625-39.1113C65.625-40.0391 66.3574-40.7227 67.2852-40.7227C68.2129-40.7227 68.9453-40.0391 68.9453-39.1113C68.9453-38.2324 68.2129-37.4512 67.2852-37.4512ZM29.9316-22.6074C32.373-22.6074 34.8145-23.3398 36.4258-24.3652C34.2773-25.3906 31.8848-26.3672 29.834-27.1484C29.1016-26.9043 28.5645-26.709 27.7832-26.5137C27.0996-26.3184 26.4648-25.7324 26.4648-24.9023C26.4648-23.4863 27.7832-22.6074 29.9316-22.6074ZM57.4219-22.6074C59.6191-22.6074 61.0352-23.4863 61.0352-24.9023C61.0352-26.2695 59.9121-26.5137 58.8867-26.8555C58.3984-27.002 57.9102-27.0996 57.4219-27.2461C55.3223-26.6602 52.0508-25.4883 50.4883-24.5605C52.002-23.3398 54.9316-22.6074 57.4219-22.6074Z"/>
  </g>
  <g id="Regular-S" transform="matrix(1 0 0 1 1403.58 696)">
   <path class="SFSymbolsPreviewWireframe" d="M46.2402 4.15039C67.7734 4.15039 85.6934-13.7207 85.6934-35.2539C85.6934-56.7871 67.7246-74.6582 46.1914-74.6582C24.707-74.6582 6.83594-56.7871 6.83594-35.2539C6.83594-13.7207 24.7559 4.15039 46.2402 4.15039ZM46.2402-3.27148C28.5156-3.27148 14.3555-17.4805 14.3555-35.2539C14.3555-53.0273 28.4668-67.2363 46.1914-67.2363C63.9648-67.2363 78.2227-53.0273 78.2227-35.2539C78.2227-17.4805 64.0137-3.27148 46.2402-3.27148ZM39.6973-38.5254C44.2383-38.5742 48.1445-40.1367 51.123-43.6523C47.9492-47.6074 44.7266-49.2188 39.7949-49.2676C34.8633-49.2676 31.5918-47.6562 28.3691-43.6035C31.4941-40.0879 35.5469-38.4766 39.6973-38.5254ZM28.7598-28.0762C31.25-30.3711 33.3984-34.4238 33.6914-37.2559C31.4941-38.0859 28.5645-39.7949 27.002-41.6016C26.2207-40.4785 25.3906-39.2578 24.707-37.793C23.0469-34.5215 21.4355-33.1543 20.2148-32.0801C19.7754-31.5918 19.4824-31.0059 19.4824-30.3223C19.4824-29.1992 20.6055-28.6133 22.6562-28.6133C23.291-28.6133 23.9258-28.6133 24.5605-28.6133C26.3672-28.6133 27.5391-28.418 28.7598-28.0762ZM39.8438-23.9746C43.457-23.9746 46.0449-26.2207 48.2422-27.2949C45.7031-29.5898 43.9453-33.3984 43.75-36.5723C42.4316-36.2305 41.0645-36.0352 39.7949-36.0352C38.4277-36.0352 37.1582-36.2305 35.791-36.5723C35.5957-33.4961 33.7402-29.541 31.25-27.1973C33.3496-26.3672 36.0352-23.9746 39.8438-23.9746ZM50.4395-28.2227C51.8555-28.4668 53.125-28.6133 55.0293-28.6133C56.7871-28.6133 58.5449-28.9062 59.375-29.4434C57.5684-31.8359 54.1992-39.1113 52.4414-41.748C50.6836-39.9414 47.7051-37.9883 45.8008-37.2559C46.0449-34.4727 47.9004-30.6641 50.4395-28.2227ZM67.5781-32.6172C72.2168-32.6172 75.0977-34.1797 75.0977-36.6699C75.0977-42.627 72.0215-46.5332 67.334-46.5332C63.3301-46.5332 60.6934-44.2871 59.8145-40.2344C59.2285-37.8906 58.2031-36.8652 57.5195-36.1816C58.3496-34.9609 59.8633-32.373 61.2793-30.2734C63.3301-31.1035 64.3066-32.6172 67.5781-32.6172ZM67.627-38.3789C66.7969-38.3789 66.1621-39.1113 66.1621-39.9414C66.1621-40.7227 66.7969-41.4551 67.627-41.4551C68.4082-41.4551 69.1406-40.7227 69.1406-39.9414C69.1406-39.1113 68.4082-38.3789 67.627-38.3789ZM24.1211-21.0449C27.1973-21.0449 30.2246-22.3145 31.6895-24.2188C29.834-25.3906 27.6367-26.5625 25.4395-26.5625C24.5117-26.3184 23.4863-26.2695 22.5586-26.123C21.2891-25.8789 19.873-25.3418 19.873-23.9258C19.873-22.0703 21.8262-21.0449 24.1211-21.0449ZM54.541-21.0449C56.8848-21.0449 58.7402-22.0703 58.7402-23.877C58.7402-25.293 57.373-26.5137 56.1035-26.5137C55.0781-26.5625 54.248-26.5625 53.125-26.5625C51.0254-26.5137 48.7305-25.3418 46.9727-24.2188C48.3887-22.3145 51.5137-21.0449 54.541-21.0449Z"/>
  </g>
  <g id="Ultralight-S" transform="matrix(1 0 0 1 515.649 696)">
   <path class="SFSymbolsPreviewWireframe" d="M44.0606 1.97072C64.5039 1.97072 81.2886-14.8105 81.2886-35.2539C81.2886-55.6973 64.5005-72.4785 44.0571-72.4785C23.5718-72.4785 6.83594-55.6973 6.83594-35.2539C6.83594-14.8105 23.5752 1.97072 44.0606 1.97072ZM44.0606-0.274438C24.7466-0.274438 9.04252-15.9365 9.04252-35.2539C9.04252-54.5713 24.7432-70.2334 44.0571-70.2334C63.3745-70.2334 79.04-54.5713 79.04-35.2539C79.04-15.9365 63.3779-0.274438 44.0606-0.274438ZM36.4278-37.8897C41.9224-37.8931 45.874-39.728 49.4429-42.6987C46.4053-46.6084 42.6831-49.5366 36.8887-49.54C31.0943-49.54 27.2779-47.9287 23.7373-42.6045C27.1348-39.7246 31.0513-37.8862 36.4278-37.8897ZM24.3096-27.395C26.9815-30.4619 28.3579-33.6065 29.0596-37.1196C26.5445-38.0405 24.3868-39.4771 22.6426-40.875C21.6343-39.2525 20.6226-37.396 19.6665-35.7495C18.2788-33.2954 15.8956-30.8384 14.584-29.9912C14.3262-29.8208 14.1241-29.4165 14.1241-29.0962C14.1241-28.7451 14.3843-28.4316 15.209-28.4316C16.2071-28.4316 17.4776-28.4316 18.4302-28.4316C20.7818-28.4316 22.6348-27.9185 24.3096-27.395ZM35.7115-23.9292C40.7779-23.9292 44.1377-25.2217 47.1069-26.4321C44.0684-29.7715 42.7647-32.5811 42.2515-36.7085C40.4336-36.1396 38.5215-35.8989 36.4346-35.8989C34.3863-35.8989 32.5718-36.0488 30.8868-36.4814C30.2373-33.0874 29.1084-30.2676 26.3003-26.6069C28.8994-25.3682 31.5396-23.9292 35.7115-23.9292ZM49.0772-27.2691C51.0835-28.0581 53.0342-28.6587 55.2563-28.6587C56.2422-28.6587 57.1826-28.6792 57.6494-29.0347C55.5703-31.4727 52.292-37.7036 50.4434-41.0669C48.5493-39.5327 46.4336-38.2607 44.2568-37.3467C44.6826-33.2012 45.7661-30.8003 49.0772-27.2691ZM67.6235-32.4355C71.3086-32.4355 74.2803-34.2705 74.2803-37.0332C74.2803-42.2637 71.2495-46.5332 66.6982-46.5332C62.5127-46.5332 60.2847-43.4697 59.1787-40.1436C57.8662-36.71 57.3403-35.5029 56.2935-34.5469C57.5322-32.5542 58.6372-30.6929 59.5537-29.8647C62.8306-31.7393 64.5337-32.4355 67.6235-32.4355ZM67.5815-38.5605C66.8423-38.5605 66.2529-39.0659 66.2529-39.8506C66.2529-40.5864 66.8423-41.1826 67.5815-41.1826C68.2266-41.1826 68.8682-40.5864 68.8682-39.8506C68.8682-39.0659 68.2266-38.5605 67.5815-38.5605ZM19.5347-21.1812C21.8389-21.1812 24.4576-22.4507 25.9224-24.582C23.2042-25.7993 22.3238-26.2446 19.854-26.4263C19.7437-26.3638 19.5357-26.3604 19.3799-26.3047C17.1114-25.6519 15.9224-25.0239 15.9224-23.6079C15.9224-22.1157 17.2852-21.1812 19.5347-21.1812ZM53.4512-20.9541C55.7041-20.9541 57.0601-21.9341 57.0601-23.3774C57.0601-24.7481 55.8745-25.6055 53.5606-26.105C53.1255-26.1992 52.7495-26.29 52.3984-26.3355C51.2978-26.0596 47.5952-24.5698 47.1089-24.3096C48.5249-22.1782 51.105-20.9541 53.4512-20.9541Z"/>
  </g>
 </g>
</svg>
