<?xml version="1.0" encoding="UTF-8"?>
<!--Generator: Apple Native CoreSVG 232.5-->
<!DOCTYPE svg
PUBLIC "-//W3C//DTD SVG 1.1//EN"
       "http://www.w3.org/Graphics/SVG/1.1/DTD/svg11.dtd">
<svg version="1.1" xmlns="http://www.w3.org/2000/svg" xmlns:xlink="http://www.w3.org/1999/xlink" width="3300" height="2200">
 <!--glyph: "uni101D97.medium", point size: 100.0, font version: "19.2d2e1", template writer version: "128"-->
 <style>.SFSymbolsPreviewWireframe {fill:none;opacity:1.0;stroke:black;stroke-width:0.5}
</style>
 <g id="Notes">
  <rect height="2200" id="artboard" style="fill:white;opacity:1" width="3300" x="0" y="0"/>
  <line style="fill:none;stroke:black;opacity:1;stroke-width:0.5;" x1="263" x2="3036" y1="292" y2="292"/>
  <text style="stroke:none;fill:black;font-family:sans-serif;font-size:13;font-weight:bold;" transform="matrix(1 0 0 1 263 322)">Weight/Scale Variations</text>
  <text style="stroke:none;fill:black;font-family:sans-serif;font-size:13;text-anchor:middle;" transform="matrix(1 0 0 1 559.711 322)">Ultralight</text>
  <text style="stroke:none;fill:black;font-family:sans-serif;font-size:13;text-anchor:middle;" transform="matrix(1 0 0 1 856.422 322)">Thin</text>
  <text style="stroke:none;fill:black;font-family:sans-serif;font-size:13;text-anchor:middle;" transform="matrix(1 0 0 1 1153.13 322)">Light</text>
  <text style="stroke:none;fill:black;font-family:sans-serif;font-size:13;text-anchor:middle;" transform="matrix(1 0 0 1 1449.84 322)">Regular</text>
  <text style="stroke:none;fill:black;font-family:sans-serif;font-size:13;text-anchor:middle;" transform="matrix(1 0 0 1 1746.56 322)">Medium</text>
  <text style="stroke:none;fill:black;font-family:sans-serif;font-size:13;text-anchor:middle;" transform="matrix(1 0 0 1 2043.27 322)">Semibold</text>
  <text style="stroke:none;fill:black;font-family:sans-serif;font-size:13;text-anchor:middle;" transform="matrix(1 0 0 1 2339.98 322)">Bold</text>
  <text style="stroke:none;fill:black;font-family:sans-serif;font-size:13;text-anchor:middle;" transform="matrix(1 0 0 1 2636.69 322)">Heavy</text>
  <text style="stroke:none;fill:black;font-family:sans-serif;font-size:13;text-anchor:middle;" transform="matrix(1 0 0 1 2933.4 322)">Black</text>
  <line style="fill:none;stroke:black;opacity:1;stroke-width:0.5;" x1="263" x2="3036" y1="1903" y2="1903"/>
  <g transform="matrix(0.2 0 0 0.2 263 1933)">
   <path d="m46.2402 4.15039c21.5332 0 39.4531-17.8711 39.4531-39.4043s-17.9688-39.4043-39.502-39.4043c-21.4844 0-39.3555 17.8711-39.3555 39.4043s17.9199 39.4043 39.4043 39.4043Zm0-7.42188c-17.7246 0-31.8848-14.209-31.8848-31.9824s14.1113-31.9824 31.8359-31.9824c17.7734 0 32.0312 14.209 32.0312 31.9824s-14.209 31.9824-31.9824 31.9824Zm-17.9688-31.9824c0 2.14844 1.51367 3.61328 3.75977 3.61328h10.498v10.5957c0 2.19727 1.46484 3.71094 3.61328 3.71094 2.24609 0 3.71094-1.51367 3.71094-3.71094v-10.5957h10.5957c2.19727 0 3.71094-1.46484 3.71094-3.61328 0-2.19727-1.51367-3.71094-3.71094-3.71094h-10.5957v-10.5469c0-2.24609-1.46484-3.75977-3.71094-3.75977-2.14844 0-3.61328 1.51367-3.61328 3.75977v10.5469h-10.498c-2.24609 0-3.75977 1.51367-3.75977 3.71094Z"/>
  </g>
  <g transform="matrix(0.2 0 0 0.2 281.506 1933)">
   <path d="m58.5449 14.5508c27.2461 0 49.8047-22.6074 49.8047-49.8047 0-27.2461-22.6074-49.8047-49.8535-49.8047-27.1973 0-49.7559 22.5586-49.7559 49.8047 0 27.1973 22.6074 49.8047 49.8047 49.8047Zm0-8.30078c-23.0469 0-41.4551-18.457-41.4551-41.5039s18.3594-41.5039 41.4062-41.5039 41.5527 18.457 41.5527 41.5039-18.457 41.5039-41.5039 41.5039Zm-22.6562-41.5039c0 2.39258 1.66016 4.00391 4.15039 4.00391h14.3555v14.4043c0 2.44141 1.66016 4.15039 4.05273 4.15039 2.44141 0 4.15039-1.66016 4.15039-4.15039v-14.4043h14.4043c2.44141 0 4.15039-1.61133 4.15039-4.00391 0-2.44141-1.70898-4.15039-4.15039-4.15039h-14.4043v-14.3555c0-2.49023-1.70898-4.19922-4.15039-4.19922-2.39258 0-4.05273 1.70898-4.05273 4.19922v14.3555h-14.3555c-2.49023 0-4.15039 1.70898-4.15039 4.15039Z"/>
  </g>
  <g transform="matrix(0.2 0 0 0.2 304.924 1933)">
   <path d="m74.8535 28.3203c34.8145 0 63.623-28.8086 63.623-63.5742 0-34.8145-28.8574-63.623-63.6719-63.623-34.7656 0-63.5254 28.8086-63.5254 63.623 0 34.7656 28.8086 63.5742 63.5742 63.5742Zm0-9.08203c-30.1758 0-54.4434-24.3164-54.4434-54.4922 0-30.2246 24.2188-54.4922 54.3945-54.4922 30.2246 0 54.541 24.2676 54.541 54.4922 0 30.1758-24.2676 54.4922-54.4922 54.4922Zm-28.8574-54.4922c0 2.58789 1.85547 4.39453 4.58984 4.39453h19.7266v19.7754c0 2.68555 1.85547 4.58984 4.44336 4.58984 2.68555 0 4.54102-1.85547 4.54102-4.58984v-19.7754h19.7754c2.68555 0 4.58984-1.80664 4.58984-4.39453 0-2.73438-1.85547-4.58984-4.58984-4.58984h-19.7754v-19.7266c0-2.73438-1.85547-4.63867-4.54102-4.63867-2.58789 0-4.44336 1.9043-4.44336 4.63867v19.7266h-19.7266c-2.73438 0-4.58984 1.85547-4.58984 4.58984Z"/>
  </g>
  <text style="stroke:none;fill:black;font-family:sans-serif;font-size:13;font-weight:bold;" transform="matrix(1 0 0 1 263 1953)">Design Variations</text>
  <text style="stroke:none;fill:black;font-family:sans-serif;font-size:13;" transform="matrix(1 0 0 1 263 1971)">Symbols are supported in up to nine weights and three scales.</text>
  <text style="stroke:none;fill:black;font-family:sans-serif;font-size:13;" transform="matrix(1 0 0 1 263 1989)">For optimal layout with text and other symbols, vertically align</text>
  <text style="stroke:none;fill:black;font-family:sans-serif;font-size:13;" transform="matrix(1 0 0 1 263 2007)">symbols with the adjacent text.</text>
  <line style="fill:none;stroke:#00AEEF;stroke-width:0.5;opacity:1.0;" x1="776" x2="776" y1="1919" y2="1933"/>
  <g transform="matrix(0.2 0 0 0.2 776 1933)">
   <path d="m16.5527 0.78125c2.58789 0 3.85742-0.976562 4.78516-3.71094l6.29883-17.2363h28.8086l6.29883 17.2363c0.927734 2.73438 2.19727 3.71094 4.73633 3.71094 2.58789 0 4.24805-1.5625 4.24805-4.00391 0-0.830078-0.146484-1.61133-0.537109-2.63672l-22.9004-60.9863c-1.12305-2.97852-3.125-4.49219-6.25-4.49219-3.02734 0-5.07812 1.46484-6.15234 4.44336l-22.9004 61.084c-0.390625 1.02539-0.537109 1.80664-0.537109 2.63672 0 2.44141 1.5625 3.95508 4.10156 3.95508Zm13.4766-28.3691 11.8652-32.8613h0.244141l11.8652 32.8613Z"/>
  </g>
  <line style="fill:none;stroke:#00AEEF;stroke-width:0.5;opacity:1.0;" x1="792.836" x2="792.836" y1="1919" y2="1933"/>
  <text style="stroke:none;fill:black;font-family:sans-serif;font-size:13;font-weight:bold;" transform="matrix(1 0 0 1 776 1953)">Margins</text>
  <text style="stroke:none;fill:black;font-family:sans-serif;font-size:13;" transform="matrix(1 0 0 1 776 1971)">Leading and trailing margins on the left and right side of each symbol</text>
  <text style="stroke:none;fill:black;font-family:sans-serif;font-size:13;" transform="matrix(1 0 0 1 776 1989)">can be adjusted by modifying the x-location of the margin guidelines.</text>
  <text style="stroke:none;fill:black;font-family:sans-serif;font-size:13;" transform="matrix(1 0 0 1 776 2007)">Modifications are automatically applied proportionally to all</text>
  <text style="stroke:none;fill:black;font-family:sans-serif;font-size:13;" transform="matrix(1 0 0 1 776 2025)">scales and weights.</text>
  <g transform="matrix(0.2 0 0 0.2 1289 1933)">
   <path d="m14.209 9.32617 8.49609 8.54492c4.29688 4.3457 9.22852 4.05273 13.8672-1.07422l53.4668-58.9355-4.83398-4.88281-53.0762 58.3984c-1.75781 2.00195-3.41797 2.49023-5.76172 0.146484l-5.85938-5.81055c-2.34375-2.29492-1.80664-4.00391 0.195312-5.81055l57.373-54.0039-4.88281-4.83398-57.959 54.4434c-4.93164 4.58984-5.32227 9.47266-1.02539 13.8184Zm32.0801-90.9668c-2.09961 2.05078-2.24609 4.93164-1.07422 6.88477 1.17188 1.80664 3.4668 2.97852 6.68945 2.14844 7.32422-1.70898 14.9414-2.00195 22.0703 2.68555l-2.92969 7.27539c-1.70898 4.15039-0.830078 7.08008 1.85547 9.81445l11.4746 11.5723c2.44141 2.44141 4.49219 2.53906 7.32422 2.05078l5.32227-0.976562 3.32031 3.36914-0.195312 2.7832c-0.195312 2.49023 0.439453 4.39453 2.88086 6.78711l3.80859 3.71094c2.39258 2.39258 5.46875 2.53906 7.8125 0.195312l14.5508-14.5996c2.34375-2.34375 2.24609-5.32227-0.146484-7.71484l-3.85742-3.80859c-2.39258-2.39258-4.24805-3.17383-6.64062-2.97852l-2.88086 0.244141-3.22266-3.17383 1.2207-5.61523c0.634766-2.83203-0.146484-5.0293-3.07617-7.95898l-10.9863-10.9375c-16.6992-16.6016-38.8672-16.2109-53.3203-1.75781Zm7.4707 1.85547c12.1582-8.88672 28.6133-7.37305 39.7461 3.75977l12.1582 12.0605c1.17188 1.17188 1.36719 2.09961 1.02539 3.80859l-1.61133 7.42188 7.51953 7.42188 4.93164-0.292969c1.26953-0.0488281 1.66016 0.0488281 2.63672 1.02539l2.88086 2.88086-12.207 12.207-2.88086-2.88086c-0.976562-0.976562-1.12305-1.36719-1.07422-2.68555l0.341797-4.88281-7.4707-7.42188-7.61719 1.26953c-1.61133 0.341797-2.34375 0.195312-3.56445-0.976562l-10.0098-10.0098c-1.26953-1.17188-1.41602-2.00195-0.634766-3.85742l4.39453-10.4492c-7.8125-7.27539-17.9688-10.4004-28.125-7.42188-0.78125 0.195312-1.07422-0.439453-0.439453-0.976562Z"/>
  </g>
  <text style="stroke:none;fill:black;font-family:sans-serif;font-size:13;font-weight:bold;" transform="matrix(1 0 0 1 1289 1953)">Exporting</text>
  <text style="stroke:none;fill:black;font-family:sans-serif;font-size:13;" transform="matrix(1 0 0 1 1289 1971)">Symbols should be outlined when exporting to ensure the</text>
  <text style="stroke:none;fill:black;font-family:sans-serif;font-size:13;" transform="matrix(1 0 0 1 1289 1989)">design is preserved when submitting to Xcode.</text>
  <text id="template-version" style="stroke:none;fill:black;font-family:sans-serif;font-size:13;text-anchor:end;" transform="matrix(1 0 0 1 3036 1933)">Template v.5.0</text>
  <text style="stroke:none;fill:black;font-family:sans-serif;font-size:13;text-anchor:end;" transform="matrix(1 0 0 1 3036 1951)">Requires Xcode 15 or greater</text>
  <text id="descriptive-name" style="stroke:none;fill:black;font-family:sans-serif;font-size:13;text-anchor:end;" transform="matrix(1 0 0 1 3036 1969)">Generated from trash.slash.circle</text>
  <text style="stroke:none;fill:black;font-family:sans-serif;font-size:13;text-anchor:end;" transform="matrix(1 0 0 1 3036 1987)">Typeset at 100.0 points</text>
  <text style="stroke:none;fill:black;font-family:sans-serif;font-size:13;" transform="matrix(1 0 0 1 263 726)">Small</text>
  <text style="stroke:none;fill:black;font-family:sans-serif;font-size:13;" transform="matrix(1 0 0 1 263 1156)">Medium</text>
  <text style="stroke:none;fill:black;font-family:sans-serif;font-size:13;" transform="matrix(1 0 0 1 263 1586)">Large</text>
 </g>
 <g id="Guides">
  <g id="H-reference" style="fill:#27AAE1;stroke:none;" transform="matrix(1 0 0 1 339 696)">
   <path d="M0.993654 0L3.63775 0L29.3281-67.1323L30.0303-67.1323L30.0303-70.459L28.1226-70.459ZM11.6885-24.4799L46.9815-24.4799L46.2315-26.7285L12.4385-26.7285ZM55.1196 0L57.7637 0L30.6382-70.459L29.4326-70.459L29.4326-67.1323Z"/>
  </g>
  <line id="Baseline-S" style="fill:none;stroke:#27AAE1;opacity:1;stroke-width:0.5;" x1="263" x2="3036" y1="696" y2="696"/>
  <line id="Capline-S" style="fill:none;stroke:#27AAE1;opacity:1;stroke-width:0.5;" x1="263" x2="3036" y1="625.541" y2="625.541"/>
  <g id="H-reference" style="fill:#27AAE1;stroke:none;" transform="matrix(1 0 0 1 339 1126)">
   <path d="M0.993654 0L3.63775 0L29.3281-67.1323L30.0303-67.1323L30.0303-70.459L28.1226-70.459ZM11.6885-24.4799L46.9815-24.4799L46.2315-26.7285L12.4385-26.7285ZM55.1196 0L57.7637 0L30.6382-70.459L29.4326-70.459L29.4326-67.1323Z"/>
  </g>
  <line id="Baseline-M" style="fill:none;stroke:#27AAE1;opacity:1;stroke-width:0.5;" x1="263" x2="3036" y1="1126" y2="1126"/>
  <line id="Capline-M" style="fill:none;stroke:#27AAE1;opacity:1;stroke-width:0.5;" x1="263" x2="3036" y1="1055.54" y2="1055.54"/>
  <g id="H-reference" style="fill:#27AAE1;stroke:none;" transform="matrix(1 0 0 1 339 1556)">
   <path d="M0.993654 0L3.63775 0L29.3281-67.1323L30.0303-67.1323L30.0303-70.459L28.1226-70.459ZM11.6885-24.4799L46.9815-24.4799L46.2315-26.7285L12.4385-26.7285ZM55.1196 0L57.7637 0L30.6382-70.459L29.4326-70.459L29.4326-67.1323Z"/>
  </g>
  <line id="Baseline-L" style="fill:none;stroke:#27AAE1;opacity:1;stroke-width:0.5;" x1="263" x2="3036" y1="1556" y2="1556"/>
  <line id="Capline-L" style="fill:none;stroke:#27AAE1;opacity:1;stroke-width:0.5;" x1="263" x2="3036" y1="1485.54" y2="1485.54"/>
  <line id="left-margin-Ultralight-S" style="fill:none;stroke:#00AEEF;stroke-width:0.5;opacity:1.0;" x1="515.649" x2="515.649" y1="600.785" y2="720.121"/>
  <line id="right-margin-Ultralight-S" style="fill:none;stroke:#00AEEF;stroke-width:0.5;opacity:1.0;" x1="603.773" x2="603.773" y1="600.785" y2="720.121"/>
  <line id="left-margin-Regular-S" style="fill:none;stroke:#00AEEF;stroke-width:0.5;opacity:1.0;" x1="1403.58" x2="1403.58" y1="600.785" y2="720.121"/>
  <line id="right-margin-Regular-S" style="fill:none;stroke:#00AEEF;stroke-width:0.5;opacity:1.0;" x1="1496.11" x2="1496.11" y1="600.785" y2="720.121"/>
  <line id="left-margin-Black-S" style="fill:none;stroke:#00AEEF;stroke-width:0.5;opacity:1.0;" x1="2884.57" x2="2884.57" y1="600.785" y2="720.121"/>
  <line id="right-margin-Black-S" style="fill:none;stroke:#00AEEF;stroke-width:0.5;opacity:1.0;" x1="2982.23" x2="2982.23" y1="600.785" y2="720.121"/>
 </g>
 <g id="Symbols">
  <g id="Black-S" transform="matrix(1 0 0 1 2884.57 696)">
   <path class="SFSymbolsPreviewWireframe" d="M41.5527-15.2344L56.1035-15.2344C59.668-15.2344 61.5723-16.9434 61.7676-20.459L62.9883-44.6777L64.5996-44.6777C66.2598-44.6777 67.4316-45.752 67.4316-47.3633C67.4316-48.9746 66.2598-50 64.5996-50L58.1543-50L58.1543-51.3184C58.1543-54.8828 55.7617-57.0312 51.3184-57.0312L46.3379-57.0312C41.9434-57.0312 39.502-54.8828 39.502-51.3184L39.502-50L33.0566-50C31.4453-50 30.2734-48.9746 30.2246-47.3633C30.1758-45.752 31.4453-44.6777 33.0566-44.6777L34.7168-44.6777L35.8887-20.459C36.0352-16.9434 38.0371-15.2344 41.5527-15.2344ZM42.9688-20.752C42.0898-20.752 41.5039-21.3379 41.4551-22.2656L40.918-40.918C40.8691-41.9434 41.4551-42.5781 42.4316-42.5781C43.3105-42.5781 43.9453-41.9922 43.9941-41.0156L44.5312-22.3145C44.5801-21.3867 43.8965-20.752 42.9688-20.752ZM48.877-20.752C47.9004-20.752 47.3145-21.3379 47.3145-22.2656L47.3145-41.1133C47.3145-42.041 47.9004-42.5781 48.877-42.5781C49.8047-42.5781 50.3906-42.041 50.3906-41.1133L50.3906-22.2656C50.3906-21.3379 49.8047-20.752 48.877-20.752ZM54.7363-20.752C53.8086-20.752 53.125-21.3867 53.1738-22.3145L53.7109-41.0156C53.7598-41.9922 54.3945-42.5781 55.2734-42.5781C56.25-42.5781 56.8359-41.9434 56.7871-40.918L56.25-22.2656C56.2012-21.3379 55.6152-20.752 54.7363-20.752ZM44.6777-50L44.7266-51.4648C44.7754-52.2461 45.4102-52.832 46.2891-52.832L51.416-52.832C52.3438-52.832 52.9297-52.2461 52.9785-51.4648L53.0273-50ZM48.8281 6.78711C71.9727 6.78711 90.8203-12.0605 90.8203-35.2051C90.8203-58.3496 71.9727-77.1973 48.8281-77.1973C25.6836-77.1973 6.83594-58.3496 6.83594-35.2051C6.83594-12.0605 25.6836 6.78711 48.8281 6.78711ZM48.8281-7.37305C33.4473-7.37305 20.9961-19.8242 20.9961-35.2051C20.9961-50.5859 33.4473-63.0371 48.8281-63.0371C64.209-63.0371 76.6602-50.5859 76.6602-35.2051C76.6602-19.8242 64.209-7.37305 48.8281-7.37305ZM60.4492-18.75C61.5234-17.7246 63.2812-17.6758 64.3555-18.75C65.4297-19.8242 65.4297-21.582 64.3555-22.6562L35.3027-51.709C34.2285-52.7832 32.4219-52.7832 31.3477-51.709C30.2734-50.6348 30.2734-48.877 31.3477-47.8027ZM58.3984-16.6504C60.5957-14.4531 64.209-14.4531 66.4062-16.6992C68.6523-18.8965 68.6523-22.4609 66.4062-24.707L37.3535-53.7598C35.1074-56.0059 31.4941-56.0059 29.2969-53.7598C27.0508-51.5625 27.0508-47.998 29.2969-45.752Z"/>
  </g>
  <g id="Regular-S" transform="matrix(1 0 0 1 1403.58 696)">
   <path class="SFSymbolsPreviewWireframe" d="M36.2305-12.7441L56.1523-12.7441C58.7891-12.7441 60.3027-14.1113 60.4004-16.7969L61.6211-46.4355L64.502-46.4355C65.4785-46.4355 66.2598-47.2656 66.3086-48.2422C66.3574-49.2188 65.4785-50.0488 64.502-50.0488L55.6152-50.0488L55.6152-52.9785C55.6152-56.2988 53.418-58.3496 49.9512-58.3496L42.334-58.3496C38.8672-58.3496 36.7188-56.2988 36.7188-52.9785L36.7188-50.0488L29.8828-50.0488C28.9062-50.0488 28.125-49.2188 28.125-48.2422C28.125-47.2656 28.9062-46.4355 29.8828-46.4355L30.8105-46.4355L32.0312-16.7969C32.1289-14.1113 33.5938-12.7441 36.2305-12.7441ZM39.5996-18.6523C38.7695-18.6523 38.0859-19.2383 38.0859-20.0195L37.5-42.041C37.5-42.8711 38.0371-43.457 39.0137-43.457C39.7949-43.457 40.4297-42.8711 40.4297-42.041L41.0156-20.0195C41.0156-19.2383 40.4785-18.6523 39.5996-18.6523ZM46.1426-18.6523C45.2637-18.6523 44.6777-19.2383 44.6777-20.0195L44.6777-42.041C44.6777-42.8711 45.2637-43.457 46.1426-43.457C47.0703-43.457 47.7051-42.8711 47.7051-42.041L47.7051-20.0195C47.7051-19.2383 47.0703-18.6523 46.1426-18.6523ZM52.7344-18.6523C51.8066-18.6523 51.3184-19.2383 51.3184-20.0195L51.9043-42.041C51.9043-42.8711 52.4902-43.457 53.3691-43.457C54.2969-43.457 54.834-42.8711 54.834-42.041L54.1992-20.0195C54.1992-19.2383 53.5645-18.6523 52.7344-18.6523ZM41.0645-50.0488L41.0645-52.7344C41.0645-53.6621 41.6992-54.248 42.627-54.248L49.707-54.248C50.6348-54.248 51.2695-53.6621 51.2695-52.7344L51.2695-50.0488ZM46.2402 4.15039C67.7734 4.15039 85.6934-13.7207 85.6934-35.2539C85.6934-56.7871 67.7246-74.6582 46.1914-74.6582C24.707-74.6582 6.83594-56.7871 6.83594-35.2539C6.83594-13.7207 24.7559 4.15039 46.2402 4.15039ZM46.2402-3.27148C28.5156-3.27148 14.3555-17.4805 14.3555-35.2539C14.3555-53.0273 28.4668-67.2363 46.1914-67.2363C63.9648-67.2363 78.2227-53.0273 78.2227-35.2539C78.2227-17.4805 64.0137-3.27148 46.2402-3.27148ZM62.1582-15.8203C62.8418-15.0879 64.1113-15.0879 64.7949-15.8203C65.5762-16.6016 65.5762-17.7246 64.7949-18.5059L28.6133-54.6875C27.8809-55.4688 26.6602-55.4688 25.9277-54.6875C25.1953-53.9551 25.1953-52.7344 25.9277-52.002ZM60.1562-13.8184C62.0117-11.9629 65.0391-11.9629 66.8457-13.8184C68.75-15.6738 68.75-18.6035 66.8457-20.5078L30.6152-56.6895C28.7109-58.5938 25.7324-58.5938 23.877-56.6895C22.0215-54.8828 22.0215-51.8066 23.877-50Z"/>
  </g>
  <g id="Ultralight-S" transform="matrix(1 0 0 1 515.649 696)">
   <path class="SFSymbolsPreviewWireframe" d="M34.6411-12.6533L53.791-12.6533C56.0191-12.6533 57.8506-14.3384 57.9483-16.5244L59.6685-49.3418L63.3213-49.3418C63.8892-49.3418 64.3526-49.7632 64.356-50.331C64.3594-50.8535 63.8892-51.3203 63.3213-51.3203L52.9815-51.3203L52.9815-54.9765C52.9815-57.3887 51.1021-59.167 48.3164-59.167L40.0635-59.167C37.2778-59.167 35.4473-57.3887 35.4473-54.9765L35.4473-51.3203L28.1118-51.3203C27.544-51.3203 27.126-50.8535 27.126-50.331C27.126-49.7632 27.544-49.3418 28.1118-49.3418L28.8125-49.3418L30.4873-16.5244C30.585-14.3384 32.3677-12.6533 34.6411-12.6533ZM37.647-18.6069C37.0894-18.6069 36.7691-18.9658 36.7236-19.52L35.0933-43.4487C35.0479-44.0517 35.4942-44.4106 36.1529-44.4106C36.7525-44.4106 37.1148-44.1426 37.1602-43.5395L38.5635-19.6108C38.6089-19.0112 38.2988-18.6069 37.647-18.6069ZM43.9629-18.6523C43.4019-18.6523 42.9522-19.0566 42.9522-19.6108L42.9522-43.4941C42.9522-44.0972 43.3111-44.4106 43.9629-44.4106C44.6182-44.4106 44.9805-44.0972 44.9805-43.4941L44.9805-19.6108C44.9805-19.0566 44.5274-18.6523 43.9629-18.6523ZM50.2822-18.6069C49.627-18.6069 49.3203-19.0112 49.3657-19.6108L50.7236-43.5395C50.7691-44.1426 51.1734-44.4106 51.7798-44.4106C52.4351-44.4106 52.8814-44.0517 52.836-43.4487L51.2022-19.52C51.1568-18.9658 50.8399-18.6069 50.2822-18.6069ZM37.3408-51.3203L37.3408-54.8232C37.3408-56.2051 38.3843-57.1089 39.9478-57.1089L48.0723-57.1089C49.6812-57.1089 50.7246-56.2051 50.7246-54.8232L50.7246-51.3203ZM44.0606 1.97072C64.5039 1.97072 81.2886-14.8105 81.2886-35.2539C81.2886-55.6973 64.5005-72.4785 44.0571-72.4785C23.5718-72.4785 6.83594-55.6973 6.83594-35.2539C6.83594-14.8105 23.5752 1.97072 44.0606 1.97072ZM44.0606-0.274438C24.7466-0.274438 9.04252-15.9365 9.04252-35.2539C9.04252-54.5713 24.7432-70.2334 44.0571-70.2334C63.3745-70.2334 79.04-54.5713 79.04-35.2539C79.04-15.9365 63.3779-0.274438 44.0606-0.274438ZM64.5195-14.1856C64.9306-13.771 65.6099-13.7256 66.021-14.1856C66.3935-14.6489 66.3935-15.2725 66.021-15.6905L25.3438-56.3677C24.9746-56.7856 24.2988-56.7856 23.8843-56.3677C23.4243-55.9077 23.4697-55.2773 23.8843-54.8628ZM63.1079-12.8193C64.3276-11.5542 66.3559-11.5542 67.4814-12.8648C68.6138-14.0845 68.5684-15.9243 67.3906-17.0567L26.7554-57.7793C25.6231-58.957 23.6436-58.957 22.4692-57.7793C21.2495-56.563 21.2949-54.622 22.4692-53.4966Z"/>
  </g>
 </g>
</svg>
