<?xml version="1.0" encoding="UTF-8"?>
<!--Generator: Apple Native CoreSVG 232.5-->
<!DOCTYPE svg
PUBLIC "-//W3C//DTD SVG 1.1//EN"
       "http://www.w3.org/Graphics/SVG/1.1/DTD/svg11.dtd">
<svg version="1.1" xmlns="http://www.w3.org/2000/svg" xmlns:xlink="http://www.w3.org/1999/xlink" width="3300" height="2200">
 <!--glyph: "uni101818.medium", point size: 100.0, font version: "19.2d2e1", template writer version: "128"-->
 <style>.SFSymbolsPreviewWireframe {fill:none;opacity:1.0;stroke:black;stroke-width:0.5}
</style>
 <g id="Notes">
  <rect height="2200" id="artboard" style="fill:white;opacity:1" width="3300" x="0" y="0"/>
  <line style="fill:none;stroke:black;opacity:1;stroke-width:0.5;" x1="263" x2="3036" y1="292" y2="292"/>
  <text style="stroke:none;fill:black;font-family:sans-serif;font-size:13;font-weight:bold;" transform="matrix(1 0 0 1 263 322)">Weight/Scale Variations</text>
  <text style="stroke:none;fill:black;font-family:sans-serif;font-size:13;text-anchor:middle;" transform="matrix(1 0 0 1 559.711 322)">Ultralight</text>
  <text style="stroke:none;fill:black;font-family:sans-serif;font-size:13;text-anchor:middle;" transform="matrix(1 0 0 1 856.422 322)">Thin</text>
  <text style="stroke:none;fill:black;font-family:sans-serif;font-size:13;text-anchor:middle;" transform="matrix(1 0 0 1 1153.13 322)">Light</text>
  <text style="stroke:none;fill:black;font-family:sans-serif;font-size:13;text-anchor:middle;" transform="matrix(1 0 0 1 1449.84 322)">Regular</text>
  <text style="stroke:none;fill:black;font-family:sans-serif;font-size:13;text-anchor:middle;" transform="matrix(1 0 0 1 1746.56 322)">Medium</text>
  <text style="stroke:none;fill:black;font-family:sans-serif;font-size:13;text-anchor:middle;" transform="matrix(1 0 0 1 2043.27 322)">Semibold</text>
  <text style="stroke:none;fill:black;font-family:sans-serif;font-size:13;text-anchor:middle;" transform="matrix(1 0 0 1 2339.98 322)">Bold</text>
  <text style="stroke:none;fill:black;font-family:sans-serif;font-size:13;text-anchor:middle;" transform="matrix(1 0 0 1 2636.69 322)">Heavy</text>
  <text style="stroke:none;fill:black;font-family:sans-serif;font-size:13;text-anchor:middle;" transform="matrix(1 0 0 1 2933.4 322)">Black</text>
  <line style="fill:none;stroke:black;opacity:1;stroke-width:0.5;" x1="263" x2="3036" y1="1903" y2="1903"/>
  <g transform="matrix(0.2 0 0 0.2 263 1933)">
   <path d="m46.2402 4.15039c21.5332 0 39.4531-17.8711 39.4531-39.4043s-17.9688-39.4043-39.502-39.4043c-21.4844 0-39.3555 17.8711-39.3555 39.4043s17.9199 39.4043 39.4043 39.4043Zm0-7.42188c-17.7246 0-31.8848-14.209-31.8848-31.9824s14.1113-31.9824 31.8359-31.9824c17.7734 0 32.0312 14.209 32.0312 31.9824s-14.209 31.9824-31.9824 31.9824Zm-17.9688-31.9824c0 2.14844 1.51367 3.61328 3.75977 3.61328h10.498v10.5957c0 2.19727 1.46484 3.71094 3.61328 3.71094 2.24609 0 3.71094-1.51367 3.71094-3.71094v-10.5957h10.5957c2.19727 0 3.71094-1.46484 3.71094-3.61328 0-2.19727-1.51367-3.71094-3.71094-3.71094h-10.5957v-10.5469c0-2.24609-1.46484-3.75977-3.71094-3.75977-2.14844 0-3.61328 1.51367-3.61328 3.75977v10.5469h-10.498c-2.24609 0-3.75977 1.51367-3.75977 3.71094Z"/>
  </g>
  <g transform="matrix(0.2 0 0 0.2 281.506 1933)">
   <path d="m58.5449 14.5508c27.2461 0 49.8047-22.6074 49.8047-49.8047 0-27.2461-22.6074-49.8047-49.8535-49.8047-27.1973 0-49.7559 22.5586-49.7559 49.8047 0 27.1973 22.6074 49.8047 49.8047 49.8047Zm0-8.30078c-23.0469 0-41.4551-18.457-41.4551-41.5039s18.3594-41.5039 41.4062-41.5039 41.5527 18.457 41.5527 41.5039-18.457 41.5039-41.5039 41.5039Zm-22.6562-41.5039c0 2.39258 1.66016 4.00391 4.15039 4.00391h14.3555v14.4043c0 2.44141 1.66016 4.15039 4.05273 4.15039 2.44141 0 4.15039-1.66016 4.15039-4.15039v-14.4043h14.4043c2.44141 0 4.15039-1.61133 4.15039-4.00391 0-2.44141-1.70898-4.15039-4.15039-4.15039h-14.4043v-14.3555c0-2.49023-1.70898-4.19922-4.15039-4.19922-2.39258 0-4.05273 1.70898-4.05273 4.19922v14.3555h-14.3555c-2.49023 0-4.15039 1.70898-4.15039 4.15039Z"/>
  </g>
  <g transform="matrix(0.2 0 0 0.2 304.924 1933)">
   <path d="m74.8535 28.3203c34.8145 0 63.623-28.8086 63.623-63.5742 0-34.8145-28.8574-63.623-63.6719-63.623-34.7656 0-63.5254 28.8086-63.5254 63.623 0 34.7656 28.8086 63.5742 63.5742 63.5742Zm0-9.08203c-30.1758 0-54.4434-24.3164-54.4434-54.4922 0-30.2246 24.2188-54.4922 54.3945-54.4922 30.2246 0 54.541 24.2676 54.541 54.4922 0 30.1758-24.2676 54.4922-54.4922 54.4922Zm-28.8574-54.4922c0 2.58789 1.85547 4.39453 4.58984 4.39453h19.7266v19.7754c0 2.68555 1.85547 4.58984 4.44336 4.58984 2.68555 0 4.54102-1.85547 4.54102-4.58984v-19.7754h19.7754c2.68555 0 4.58984-1.80664 4.58984-4.39453 0-2.73438-1.85547-4.58984-4.58984-4.58984h-19.7754v-19.7266c0-2.73438-1.85547-4.63867-4.54102-4.63867-2.58789 0-4.44336 1.9043-4.44336 4.63867v19.7266h-19.7266c-2.73438 0-4.58984 1.85547-4.58984 4.58984Z"/>
  </g>
  <text style="stroke:none;fill:black;font-family:sans-serif;font-size:13;font-weight:bold;" transform="matrix(1 0 0 1 263 1953)">Design Variations</text>
  <text style="stroke:none;fill:black;font-family:sans-serif;font-size:13;" transform="matrix(1 0 0 1 263 1971)">Symbols are supported in up to nine weights and three scales.</text>
  <text style="stroke:none;fill:black;font-family:sans-serif;font-size:13;" transform="matrix(1 0 0 1 263 1989)">For optimal layout with text and other symbols, vertically align</text>
  <text style="stroke:none;fill:black;font-family:sans-serif;font-size:13;" transform="matrix(1 0 0 1 263 2007)">symbols with the adjacent text.</text>
  <line style="fill:none;stroke:#00AEEF;stroke-width:0.5;opacity:1.0;" x1="776" x2="776" y1="1919" y2="1933"/>
  <g transform="matrix(0.2 0 0 0.2 776 1933)">
   <path d="m16.5527 0.78125c2.58789 0 3.85742-0.976562 4.78516-3.71094l6.29883-17.2363h28.8086l6.29883 17.2363c0.927734 2.73438 2.19727 3.71094 4.73633 3.71094 2.58789 0 4.24805-1.5625 4.24805-4.00391 0-0.830078-0.146484-1.61133-0.537109-2.63672l-22.9004-60.9863c-1.12305-2.97852-3.125-4.49219-6.25-4.49219-3.02734 0-5.07812 1.46484-6.15234 4.44336l-22.9004 61.084c-0.390625 1.02539-0.537109 1.80664-0.537109 2.63672 0 2.44141 1.5625 3.95508 4.10156 3.95508Zm13.4766-28.3691 11.8652-32.8613h0.244141l11.8652 32.8613Z"/>
  </g>
  <line style="fill:none;stroke:#00AEEF;stroke-width:0.5;opacity:1.0;" x1="792.836" x2="792.836" y1="1919" y2="1933"/>
  <text style="stroke:none;fill:black;font-family:sans-serif;font-size:13;font-weight:bold;" transform="matrix(1 0 0 1 776 1953)">Margins</text>
  <text style="stroke:none;fill:black;font-family:sans-serif;font-size:13;" transform="matrix(1 0 0 1 776 1971)">Leading and trailing margins on the left and right side of each symbol</text>
  <text style="stroke:none;fill:black;font-family:sans-serif;font-size:13;" transform="matrix(1 0 0 1 776 1989)">can be adjusted by modifying the x-location of the margin guidelines.</text>
  <text style="stroke:none;fill:black;font-family:sans-serif;font-size:13;" transform="matrix(1 0 0 1 776 2007)">Modifications are automatically applied proportionally to all</text>
  <text style="stroke:none;fill:black;font-family:sans-serif;font-size:13;" transform="matrix(1 0 0 1 776 2025)">scales and weights.</text>
  <g transform="matrix(0.2 0 0 0.2 1289 1933)">
   <path d="m14.209 9.32617 8.49609 8.54492c4.29688 4.3457 9.22852 4.05273 13.8672-1.07422l53.4668-58.9355-4.83398-4.88281-53.0762 58.3984c-1.75781 2.00195-3.41797 2.49023-5.76172 0.146484l-5.85938-5.81055c-2.34375-2.29492-1.80664-4.00391 0.195312-5.81055l57.373-54.0039-4.88281-4.83398-57.959 54.4434c-4.93164 4.58984-5.32227 9.47266-1.02539 13.8184Zm32.0801-90.9668c-2.09961 2.05078-2.24609 4.93164-1.07422 6.88477 1.17188 1.80664 3.4668 2.97852 6.68945 2.14844 7.32422-1.70898 14.9414-2.00195 22.0703 2.68555l-2.92969 7.27539c-1.70898 4.15039-0.830078 7.08008 1.85547 9.81445l11.4746 11.5723c2.44141 2.44141 4.49219 2.53906 7.32422 2.05078l5.32227-0.976562 3.32031 3.36914-0.195312 2.7832c-0.195312 2.49023 0.439453 4.39453 2.88086 6.78711l3.80859 3.71094c2.39258 2.39258 5.46875 2.53906 7.8125 0.195312l14.5508-14.5996c2.34375-2.34375 2.24609-5.32227-0.146484-7.71484l-3.85742-3.80859c-2.39258-2.39258-4.24805-3.17383-6.64062-2.97852l-2.88086 0.244141-3.22266-3.17383 1.2207-5.61523c0.634766-2.83203-0.146484-5.0293-3.07617-7.95898l-10.9863-10.9375c-16.6992-16.6016-38.8672-16.2109-53.3203-1.75781Zm7.4707 1.85547c12.1582-8.88672 28.6133-7.37305 39.7461 3.75977l12.1582 12.0605c1.17188 1.17188 1.36719 2.09961 1.02539 3.80859l-1.61133 7.42188 7.51953 7.42188 4.93164-0.292969c1.26953-0.0488281 1.66016 0.0488281 2.63672 1.02539l2.88086 2.88086-12.207 12.207-2.88086-2.88086c-0.976562-0.976562-1.12305-1.36719-1.07422-2.68555l0.341797-4.88281-7.4707-7.42188-7.61719 1.26953c-1.61133 0.341797-2.34375 0.195312-3.56445-0.976562l-10.0098-10.0098c-1.26953-1.17188-1.41602-2.00195-0.634766-3.85742l4.39453-10.4492c-7.8125-7.27539-17.9688-10.4004-28.125-7.42188-0.78125 0.195312-1.07422-0.439453-0.439453-0.976562Z"/>
  </g>
  <text style="stroke:none;fill:black;font-family:sans-serif;font-size:13;font-weight:bold;" transform="matrix(1 0 0 1 1289 1953)">Exporting</text>
  <text style="stroke:none;fill:black;font-family:sans-serif;font-size:13;" transform="matrix(1 0 0 1 1289 1971)">Symbols should be outlined when exporting to ensure the</text>
  <text style="stroke:none;fill:black;font-family:sans-serif;font-size:13;" transform="matrix(1 0 0 1 1289 1989)">design is preserved when submitting to Xcode.</text>
  <text id="template-version" style="stroke:none;fill:black;font-family:sans-serif;font-size:13;text-anchor:end;" transform="matrix(1 0 0 1 3036 1933)">Template v.5.0</text>
  <text style="stroke:none;fill:black;font-family:sans-serif;font-size:13;text-anchor:end;" transform="matrix(1 0 0 1 3036 1951)">Requires Xcode 15 or greater</text>
  <text id="descriptive-name" style="stroke:none;fill:black;font-family:sans-serif;font-size:13;text-anchor:end;" transform="matrix(1 0 0 1 3036 1969)">Generated from truck.pickup.side.hill.up.fill</text>
  <text style="stroke:none;fill:black;font-family:sans-serif;font-size:13;text-anchor:end;" transform="matrix(1 0 0 1 3036 1987)">Typeset at 100.0 points</text>
  <text style="stroke:none;fill:black;font-family:sans-serif;font-size:13;" transform="matrix(1 0 0 1 263 726)">Small</text>
  <text style="stroke:none;fill:black;font-family:sans-serif;font-size:13;" transform="matrix(1 0 0 1 263 1156)">Medium</text>
  <text style="stroke:none;fill:black;font-family:sans-serif;font-size:13;" transform="matrix(1 0 0 1 263 1586)">Large</text>
 </g>
 <g id="Guides">
  <g id="H-reference" style="fill:#27AAE1;stroke:none;" transform="matrix(1 0 0 1 339 696)">
   <path d="M0.993654 0L3.63775 0L29.3281-67.1323L30.0303-67.1323L30.0303-70.459L28.1226-70.459ZM11.6885-24.4799L46.9815-24.4799L46.2315-26.7285L12.4385-26.7285ZM55.1196 0L57.7637 0L30.6382-70.459L29.4326-70.459L29.4326-67.1323Z"/>
  </g>
  <line id="Baseline-S" style="fill:none;stroke:#27AAE1;opacity:1;stroke-width:0.5;" x1="263" x2="3036" y1="696" y2="696"/>
  <line id="Capline-S" style="fill:none;stroke:#27AAE1;opacity:1;stroke-width:0.5;" x1="263" x2="3036" y1="625.541" y2="625.541"/>
  <g id="H-reference" style="fill:#27AAE1;stroke:none;" transform="matrix(1 0 0 1 339 1126)">
   <path d="M0.993654 0L3.63775 0L29.3281-67.1323L30.0303-67.1323L30.0303-70.459L28.1226-70.459ZM11.6885-24.4799L46.9815-24.4799L46.2315-26.7285L12.4385-26.7285ZM55.1196 0L57.7637 0L30.6382-70.459L29.4326-70.459L29.4326-67.1323Z"/>
  </g>
  <line id="Baseline-M" style="fill:none;stroke:#27AAE1;opacity:1;stroke-width:0.5;" x1="263" x2="3036" y1="1126" y2="1126"/>
  <line id="Capline-M" style="fill:none;stroke:#27AAE1;opacity:1;stroke-width:0.5;" x1="263" x2="3036" y1="1055.54" y2="1055.54"/>
  <g id="H-reference" style="fill:#27AAE1;stroke:none;" transform="matrix(1 0 0 1 339 1556)">
   <path d="M0.993654 0L3.63775 0L29.3281-67.1323L30.0303-67.1323L30.0303-70.459L28.1226-70.459ZM11.6885-24.4799L46.9815-24.4799L46.2315-26.7285L12.4385-26.7285ZM55.1196 0L57.7637 0L30.6382-70.459L29.4326-70.459L29.4326-67.1323Z"/>
  </g>
  <line id="Baseline-L" style="fill:none;stroke:#27AAE1;opacity:1;stroke-width:0.5;" x1="263" x2="3036" y1="1556" y2="1556"/>
  <line id="Capline-L" style="fill:none;stroke:#27AAE1;opacity:1;stroke-width:0.5;" x1="263" x2="3036" y1="1485.54" y2="1485.54"/>
  <line id="left-margin-Ultralight-S" style="fill:none;stroke:#00AEEF;stroke-width:0.5;opacity:1.0;" x1="490.711" x2="490.711" y1="600.785" y2="720.121"/>
  <line id="right-margin-Ultralight-S" style="fill:none;stroke:#00AEEF;stroke-width:0.5;opacity:1.0;" x1="628.711" x2="628.711" y1="600.785" y2="720.121"/>
  <line id="left-margin-Regular-S" style="fill:none;stroke:#00AEEF;stroke-width:0.5;opacity:1.0;" x1="1373.31" x2="1373.31" y1="600.785" y2="720.121"/>
  <line id="right-margin-Regular-S" style="fill:none;stroke:#00AEEF;stroke-width:0.5;opacity:1.0;" x1="1526.38" x2="1526.38" y1="600.785" y2="720.121"/>
  <line id="left-margin-Black-S" style="fill:none;stroke:#00AEEF;stroke-width:0.5;opacity:1.0;" x1="2854.3" x2="2854.3" y1="600.785" y2="720.121"/>
  <line id="right-margin-Black-S" style="fill:none;stroke:#00AEEF;stroke-width:0.5;opacity:1.0;" x1="3012.5" x2="3012.5" y1="600.785" y2="720.121"/>
 </g>
 <g id="Symbols">
  <g id="Black-S" transform="matrix(1 0 0 1 2854.3 696)">
   <path class="SFSymbolsPreviewWireframe" d="M41.0156-56.1035L42.8223-55.0781C43.1152-56.25 43.6035-57.4219 44.2383-58.5449C48.0957-65.2344 56.6895-67.4805 63.3301-63.623C69.9707-59.8145 72.2656-51.2207 68.457-44.5801C67.7734-43.457 66.9922-42.4316 66.1621-41.6016L91.7969-26.7578C92.1387-27.9297 92.627-29.1504 93.2617-30.2734C97.1191-36.9141 105.664-39.209 112.354-35.3516C118.994-31.4941 121.289-22.9492 117.432-16.2598C116.797-15.1855 116.016-14.1602 115.137-13.2812L127.1-6.49414C132.031-3.71094 137.061-5.12695 139.893-10.0586L146.826-22.0703C150.146-27.832 148.145-33.6914 141.895-37.3047L123.926-47.6562L124.512-49.0723C127.344-55.957 125.635-61.5234 119.238-65.2344L109.717-70.752C99.2676-76.8066 94.0918-78.3203 85.4492-77.9785L72.6074-77.4902L63.4277-81.4453C54.0527-85.498 45.752-84.375 40.8691-75.9277L37.4512-69.9707C34.1309-64.1602 35.7422-59.082 41.0156-56.1035ZM51.5137-43.1641C56.1035-40.5273 62.0605-42.0898 64.7461-46.7285C67.4316-51.3184 65.7715-57.2754 61.1816-59.9609C56.5918-62.5977 50.5859-61.0352 47.9492-56.3965C45.2637-51.8066 46.875-45.8496 51.5137-43.1641ZM100.537-14.8926C105.127-12.207 111.084-13.8184 113.77-18.4082C116.406-23.0469 114.795-29.0039 110.205-31.6406C105.566-34.3262 99.6094-32.7637 96.9727-28.125C94.2871-23.4863 95.8984-17.5293 100.537-14.8926ZM27.4902-69.873L36.1328-84.8145C38.1348-88.2812 35.2539-91.5039 31.7383-90.7715L18.8965-88.0371C16.4551-87.5 15.332-85.5469 16.1133-83.2031L20.166-70.752C21.2891-67.2852 25.4883-66.4062 27.4902-69.873ZM10.6445-52.9297C8.83789-49.707 9.91211-45.6543 12.9883-43.8965L122.461 19.1895C125.537 20.9473 129.59 19.9219 131.396 16.7969C133.203 13.5742 132.129 9.52148 129.053 7.76367L19.5801-55.3223C16.5039-57.0801 12.4512-56.0547 10.6445-52.9297Z"/>
  </g>
  <g id="Regular-S" transform="matrix(1 0 0 1 1373.31 696)">
   <path class="SFSymbolsPreviewWireframe" d="M37.4512-56.4453L41.6504-54.0039C41.8457-54.834 42.334-55.8594 42.7246-56.543C45.9961-62.1582 53.125-64.1113 58.7402-60.8398C64.3555-57.6172 66.2598-50.4395 63.0371-44.8242C62.5977-44.1895 62.0605-43.3594 61.3281-42.7246L94.7266-23.4375C94.9219-24.3652 95.2637-25.3418 95.7031-25.9766C98.877-31.5918 106.104-33.4961 111.67-30.2734C117.236-27.0508 119.189-19.873 115.967-14.2578C115.576-13.5742 115.088-12.9395 114.111-12.1582L124.072-6.39648C128.809-3.66211 133.252-5.0293 135.986-9.66797L142.334-20.5078C144.434-24.0723 143.115-29.1504 138.379-31.8359L118.604-43.1641L120.996-48.6328C123.73-54.7363 122.021-59.5703 116.309-62.8906L105.664-69.043C96.9238-74.1211 90.3809-75.9277 81.9824-75.6348L67.3828-75.0977L56.5918-79.248C47.5098-82.7637 41.6992-81.2988 38.0371-75.0488L34.2773-68.5059C31.543-63.8184 32.7148-59.1309 37.4512-56.4453ZM48.877-43.8477C52.7344-41.6016 57.5684-42.8711 59.7656-46.7285C61.9629-50.5371 60.6934-55.3711 56.8848-57.5684C53.0273-59.7656 48.1934-58.4961 45.9961-54.6875C43.7988-50.8789 45.0684-46.0449 48.877-43.8477ZM101.807-13.2324C105.615-11.0352 110.498-12.3535 112.695-16.1621C114.893-19.9707 113.574-24.8047 109.766-27.002C106.006-29.1992 101.123-27.8809 98.9258-24.0723C96.7285-20.3125 98.0469-15.4297 101.807-13.2324ZM23.877-68.3105L32.373-83.0078C33.8867-85.5957 31.7871-87.8906 29.1016-87.3535L16.4062-84.7168C14.5996-84.375 13.8184-83.0078 14.4043-81.25L18.5059-68.9453C19.3359-66.3574 22.3633-65.7227 23.877-68.3105ZM10.2539-54.4922C9.27734-52.7832 9.86328-50.5859 11.4746-49.6582L122.461 14.3555C124.072 15.2832 126.27 14.7461 127.197 13.0859C128.174 11.3281 127.588 9.17969 125.977 8.25195L14.9902-55.7617C13.3789-56.6895 11.1816-56.1523 10.2539-54.4922Z"/>
  </g>
  <g id="Ultralight-S" transform="matrix(1 0 0 1 490.711 696)">
   <path class="SFSymbolsPreviewWireframe" d="M33.5913-55.2192L37.6089-52.8687C37.8496-53.4717 38.0655-54.043 38.4107-54.6358C41.3189-59.5698 47.4488-61.2959 52.4283-58.3877C57.4078-55.5283 59.085-49.3042 56.1802-44.3701C55.877-43.8262 55.4761-43.314 55.0616-42.8154L85.2813-25.4355C85.4766-26.0454 85.7276-26.6133 86.0308-27.1572C88.8868-32.0913 95.1143-33.7686 99.9996-30.9092C104.976-28.0044 106.656-21.8711 103.797-16.8916C103.452-16.3442 103.054-15.8457 102.668-15.3823L114.082-9.12107C117.32-7.38571 119.856-8.07175 121.591-11.1211L127.167-20.644C129.085-23.9814 128.402-26.7891 125.165-28.6118L103.709-40.939L106.147-46.6348C107.837-50.604 106.718-53.8487 103.004-56.0337L94.8565-60.733C85.3897-66.2198 81.2535-67.4361 73.627-67.1431L60.3897-66.6514L50.6431-70.7564C42.7871-74.0904 37.2945-72.8072 34.041-67.1475L31.6436-62.9659C29.7266-59.7315 30.3989-57.0874 33.5913-55.2192ZM43.2461-42.5762C47.149-40.3301 51.983-41.5996 54.2256-45.5025C56.4683-49.3565 55.1988-54.1904 51.2994-56.4331C47.3965-58.6758 42.5625-57.4063 40.3653-53.5068C38.0772-49.6074 39.3921-44.7734 43.2461-42.5762ZM90.9083-15.0942C94.8077-12.8515 99.6451-14.1245 101.842-18.0239C104.13-21.9233 102.812-26.7573 98.9581-28.9546C95.0621-31.2427 90.2247-29.9243 87.982-26.0703C85.7393-22.1743 87.0123-17.3369 90.9083-15.0942ZM24.5127-64.8594L30.6021-75.379C31.253-76.4683 30.5156-77.3556 29.3286-77.2725L18.8584-76.6339C17.6875-76.5645 17.0879-75.5152 17.6284-74.4385L22.2749-65.0401C22.7871-63.9961 23.9526-63.8154 24.5127-64.8594ZM9.93604-50.4053C9.59521-49.877 9.77246-49.1782 10.3394-48.8862L109.973 8.4976C110.495 8.7896 111.103 8.66118 111.44 8.18168C111.735 7.5137 111.513 6.86379 111.037 6.57179L11.3575-50.8121C10.8814-51.0586 10.228-50.8848 9.93604-50.4053Z"/>
  </g>
 </g>
</svg>
