<?xml version="1.0" encoding="UTF-8"?>
<!--Generator: Apple Native CoreSVG 232.5-->
<!DOCTYPE svg
PUBLIC "-//W3C//DTD SVG 1.1//EN"
       "http://www.w3.org/Graphics/SVG/1.1/DTD/svg11.dtd">
<svg version="1.1" xmlns="http://www.w3.org/2000/svg" xmlns:xlink="http://www.w3.org/1999/xlink" width="3300" height="2200">
 <!--glyph: "uni101952.medium", point size: 100.0, font version: "19.2d2e1", template writer version: "128"-->
 <style>.SFSymbolsPreviewWireframe {fill:none;opacity:1.0;stroke:black;stroke-width:0.5}
</style>
 <g id="Notes">
  <rect height="2200" id="artboard" style="fill:white;opacity:1" width="3300" x="0" y="0"/>
  <line style="fill:none;stroke:black;opacity:1;stroke-width:0.5;" x1="263" x2="3036" y1="292" y2="292"/>
  <text style="stroke:none;fill:black;font-family:sans-serif;font-size:13;font-weight:bold;" transform="matrix(1 0 0 1 263 322)">Weight/Scale Variations</text>
  <text style="stroke:none;fill:black;font-family:sans-serif;font-size:13;text-anchor:middle;" transform="matrix(1 0 0 1 559.711 322)">Ultralight</text>
  <text style="stroke:none;fill:black;font-family:sans-serif;font-size:13;text-anchor:middle;" transform="matrix(1 0 0 1 856.422 322)">Thin</text>
  <text style="stroke:none;fill:black;font-family:sans-serif;font-size:13;text-anchor:middle;" transform="matrix(1 0 0 1 1153.13 322)">Light</text>
  <text style="stroke:none;fill:black;font-family:sans-serif;font-size:13;text-anchor:middle;" transform="matrix(1 0 0 1 1449.84 322)">Regular</text>
  <text style="stroke:none;fill:black;font-family:sans-serif;font-size:13;text-anchor:middle;" transform="matrix(1 0 0 1 1746.56 322)">Medium</text>
  <text style="stroke:none;fill:black;font-family:sans-serif;font-size:13;text-anchor:middle;" transform="matrix(1 0 0 1 2043.27 322)">Semibold</text>
  <text style="stroke:none;fill:black;font-family:sans-serif;font-size:13;text-anchor:middle;" transform="matrix(1 0 0 1 2339.98 322)">Bold</text>
  <text style="stroke:none;fill:black;font-family:sans-serif;font-size:13;text-anchor:middle;" transform="matrix(1 0 0 1 2636.69 322)">Heavy</text>
  <text style="stroke:none;fill:black;font-family:sans-serif;font-size:13;text-anchor:middle;" transform="matrix(1 0 0 1 2933.4 322)">Black</text>
  <line style="fill:none;stroke:black;opacity:1;stroke-width:0.5;" x1="263" x2="3036" y1="1903" y2="1903"/>
  <g transform="matrix(0.2 0 0 0.2 263 1933)">
   <path d="m46.2402 4.15039c21.5332 0 39.4531-17.8711 39.4531-39.4043s-17.9688-39.4043-39.502-39.4043c-21.4844 0-39.3555 17.8711-39.3555 39.4043s17.9199 39.4043 39.4043 39.4043Zm0-7.42188c-17.7246 0-31.8848-14.209-31.8848-31.9824s14.1113-31.9824 31.8359-31.9824c17.7734 0 32.0312 14.209 32.0312 31.9824s-14.209 31.9824-31.9824 31.9824Zm-17.9688-31.9824c0 2.14844 1.51367 3.61328 3.75977 3.61328h10.498v10.5957c0 2.19727 1.46484 3.71094 3.61328 3.71094 2.24609 0 3.71094-1.51367 3.71094-3.71094v-10.5957h10.5957c2.19727 0 3.71094-1.46484 3.71094-3.61328 0-2.19727-1.51367-3.71094-3.71094-3.71094h-10.5957v-10.5469c0-2.24609-1.46484-3.75977-3.71094-3.75977-2.14844 0-3.61328 1.51367-3.61328 3.75977v10.5469h-10.498c-2.24609 0-3.75977 1.51367-3.75977 3.71094Z"/>
  </g>
  <g transform="matrix(0.2 0 0 0.2 281.506 1933)">
   <path d="m58.5449 14.5508c27.2461 0 49.8047-22.6074 49.8047-49.8047 0-27.2461-22.6074-49.8047-49.8535-49.8047-27.1973 0-49.7559 22.5586-49.7559 49.8047 0 27.1973 22.6074 49.8047 49.8047 49.8047Zm0-8.30078c-23.0469 0-41.4551-18.457-41.4551-41.5039s18.3594-41.5039 41.4062-41.5039 41.5527 18.457 41.5527 41.5039-18.457 41.5039-41.5039 41.5039Zm-22.6562-41.5039c0 2.39258 1.66016 4.00391 4.15039 4.00391h14.3555v14.4043c0 2.44141 1.66016 4.15039 4.05273 4.15039 2.44141 0 4.15039-1.66016 4.15039-4.15039v-14.4043h14.4043c2.44141 0 4.15039-1.61133 4.15039-4.00391 0-2.44141-1.70898-4.15039-4.15039-4.15039h-14.4043v-14.3555c0-2.49023-1.70898-4.19922-4.15039-4.19922-2.39258 0-4.05273 1.70898-4.05273 4.19922v14.3555h-14.3555c-2.49023 0-4.15039 1.70898-4.15039 4.15039Z"/>
  </g>
  <g transform="matrix(0.2 0 0 0.2 304.924 1933)">
   <path d="m74.8535 28.3203c34.8145 0 63.623-28.8086 63.623-63.5742 0-34.8145-28.8574-63.623-63.6719-63.623-34.7656 0-63.5254 28.8086-63.5254 63.623 0 34.7656 28.8086 63.5742 63.5742 63.5742Zm0-9.08203c-30.1758 0-54.4434-24.3164-54.4434-54.4922 0-30.2246 24.2188-54.4922 54.3945-54.4922 30.2246 0 54.541 24.2676 54.541 54.4922 0 30.1758-24.2676 54.4922-54.4922 54.4922Zm-28.8574-54.4922c0 2.58789 1.85547 4.39453 4.58984 4.39453h19.7266v19.7754c0 2.68555 1.85547 4.58984 4.44336 4.58984 2.68555 0 4.54102-1.85547 4.54102-4.58984v-19.7754h19.7754c2.68555 0 4.58984-1.80664 4.58984-4.39453 0-2.73438-1.85547-4.58984-4.58984-4.58984h-19.7754v-19.7266c0-2.73438-1.85547-4.63867-4.54102-4.63867-2.58789 0-4.44336 1.9043-4.44336 4.63867v19.7266h-19.7266c-2.73438 0-4.58984 1.85547-4.58984 4.58984Z"/>
  </g>
  <text style="stroke:none;fill:black;font-family:sans-serif;font-size:13;font-weight:bold;" transform="matrix(1 0 0 1 263 1953)">Design Variations</text>
  <text style="stroke:none;fill:black;font-family:sans-serif;font-size:13;" transform="matrix(1 0 0 1 263 1971)">Symbols are supported in up to nine weights and three scales.</text>
  <text style="stroke:none;fill:black;font-family:sans-serif;font-size:13;" transform="matrix(1 0 0 1 263 1989)">For optimal layout with text and other symbols, vertically align</text>
  <text style="stroke:none;fill:black;font-family:sans-serif;font-size:13;" transform="matrix(1 0 0 1 263 2007)">symbols with the adjacent text.</text>
  <line style="fill:none;stroke:#00AEEF;stroke-width:0.5;opacity:1.0;" x1="776" x2="776" y1="1919" y2="1933"/>
  <g transform="matrix(0.2 0 0 0.2 776 1933)">
   <path d="m16.5527 0.78125c2.58789 0 3.85742-0.976562 4.78516-3.71094l6.29883-17.2363h28.8086l6.29883 17.2363c0.927734 2.73438 2.19727 3.71094 4.73633 3.71094 2.58789 0 4.24805-1.5625 4.24805-4.00391 0-0.830078-0.146484-1.61133-0.537109-2.63672l-22.9004-60.9863c-1.12305-2.97852-3.125-4.49219-6.25-4.49219-3.02734 0-5.07812 1.46484-6.15234 4.44336l-22.9004 61.084c-0.390625 1.02539-0.537109 1.80664-0.537109 2.63672 0 2.44141 1.5625 3.95508 4.10156 3.95508Zm13.4766-28.3691 11.8652-32.8613h0.244141l11.8652 32.8613Z"/>
  </g>
  <line style="fill:none;stroke:#00AEEF;stroke-width:0.5;opacity:1.0;" x1="792.836" x2="792.836" y1="1919" y2="1933"/>
  <text style="stroke:none;fill:black;font-family:sans-serif;font-size:13;font-weight:bold;" transform="matrix(1 0 0 1 776 1953)">Margins</text>
  <text style="stroke:none;fill:black;font-family:sans-serif;font-size:13;" transform="matrix(1 0 0 1 776 1971)">Leading and trailing margins on the left and right side of each symbol</text>
  <text style="stroke:none;fill:black;font-family:sans-serif;font-size:13;" transform="matrix(1 0 0 1 776 1989)">can be adjusted by modifying the x-location of the margin guidelines.</text>
  <text style="stroke:none;fill:black;font-family:sans-serif;font-size:13;" transform="matrix(1 0 0 1 776 2007)">Modifications are automatically applied proportionally to all</text>
  <text style="stroke:none;fill:black;font-family:sans-serif;font-size:13;" transform="matrix(1 0 0 1 776 2025)">scales and weights.</text>
  <g transform="matrix(0.2 0 0 0.2 1289 1933)">
   <path d="m14.209 9.32617 8.49609 8.54492c4.29688 4.3457 9.22852 4.05273 13.8672-1.07422l53.4668-58.9355-4.83398-4.88281-53.0762 58.3984c-1.75781 2.00195-3.41797 2.49023-5.76172 0.146484l-5.85938-5.81055c-2.34375-2.29492-1.80664-4.00391 0.195312-5.81055l57.373-54.0039-4.88281-4.83398-57.959 54.4434c-4.93164 4.58984-5.32227 9.47266-1.02539 13.8184Zm32.0801-90.9668c-2.09961 2.05078-2.24609 4.93164-1.07422 6.88477 1.17188 1.80664 3.4668 2.97852 6.68945 2.14844 7.32422-1.70898 14.9414-2.00195 22.0703 2.68555l-2.92969 7.27539c-1.70898 4.15039-0.830078 7.08008 1.85547 9.81445l11.4746 11.5723c2.44141 2.44141 4.49219 2.53906 7.32422 2.05078l5.32227-0.976562 3.32031 3.36914-0.195312 2.7832c-0.195312 2.49023 0.439453 4.39453 2.88086 6.78711l3.80859 3.71094c2.39258 2.39258 5.46875 2.53906 7.8125 0.195312l14.5508-14.5996c2.34375-2.34375 2.24609-5.32227-0.146484-7.71484l-3.85742-3.80859c-2.39258-2.39258-4.24805-3.17383-6.64062-2.97852l-2.88086 0.244141-3.22266-3.17383 1.2207-5.61523c0.634766-2.83203-0.146484-5.0293-3.07617-7.95898l-10.9863-10.9375c-16.6992-16.6016-38.8672-16.2109-53.3203-1.75781Zm7.4707 1.85547c12.1582-8.88672 28.6133-7.37305 39.7461 3.75977l12.1582 12.0605c1.17188 1.17188 1.36719 2.09961 1.02539 3.80859l-1.61133 7.42188 7.51953 7.42188 4.93164-0.292969c1.26953-0.0488281 1.66016 0.0488281 2.63672 1.02539l2.88086 2.88086-12.207 12.207-2.88086-2.88086c-0.976562-0.976562-1.12305-1.36719-1.07422-2.68555l0.341797-4.88281-7.4707-7.42188-7.61719 1.26953c-1.61133 0.341797-2.34375 0.195312-3.56445-0.976562l-10.0098-10.0098c-1.26953-1.17188-1.41602-2.00195-0.634766-3.85742l4.39453-10.4492c-7.8125-7.27539-17.9688-10.4004-28.125-7.42188-0.78125 0.195312-1.07422-0.439453-0.439453-0.976562Z"/>
  </g>
  <text style="stroke:none;fill:black;font-family:sans-serif;font-size:13;font-weight:bold;" transform="matrix(1 0 0 1 1289 1953)">Exporting</text>
  <text style="stroke:none;fill:black;font-family:sans-serif;font-size:13;" transform="matrix(1 0 0 1 1289 1971)">Symbols should be outlined when exporting to ensure the</text>
  <text style="stroke:none;fill:black;font-family:sans-serif;font-size:13;" transform="matrix(1 0 0 1 1289 1989)">design is preserved when submitting to Xcode.</text>
  <text id="template-version" style="stroke:none;fill:black;font-family:sans-serif;font-size:13;text-anchor:end;" transform="matrix(1 0 0 1 3036 1933)">Template v.5.0</text>
  <text style="stroke:none;fill:black;font-family:sans-serif;font-size:13;text-anchor:end;" transform="matrix(1 0 0 1 3036 1951)">Requires Xcode 15 or greater</text>
  <text id="descriptive-name" style="stroke:none;fill:black;font-family:sans-serif;font-size:13;text-anchor:end;" transform="matrix(1 0 0 1 3036 1969)">Generated from tv.and.hifispeaker.fill</text>
  <text style="stroke:none;fill:black;font-family:sans-serif;font-size:13;text-anchor:end;" transform="matrix(1 0 0 1 3036 1987)">Typeset at 100.0 points</text>
  <text style="stroke:none;fill:black;font-family:sans-serif;font-size:13;" transform="matrix(1 0 0 1 263 726)">Small</text>
  <text style="stroke:none;fill:black;font-family:sans-serif;font-size:13;" transform="matrix(1 0 0 1 263 1156)">Medium</text>
  <text style="stroke:none;fill:black;font-family:sans-serif;font-size:13;" transform="matrix(1 0 0 1 263 1586)">Large</text>
 </g>
 <g id="Guides">
  <g id="H-reference" style="fill:#27AAE1;stroke:none;" transform="matrix(1 0 0 1 339 696)">
   <path d="M0.993654 0L3.63775 0L29.3281-67.1323L30.0303-67.1323L30.0303-70.459L28.1226-70.459ZM11.6885-24.4799L46.9815-24.4799L46.2315-26.7285L12.4385-26.7285ZM55.1196 0L57.7637 0L30.6382-70.459L29.4326-70.459L29.4326-67.1323Z"/>
  </g>
  <line id="Baseline-S" style="fill:none;stroke:#27AAE1;opacity:1;stroke-width:0.5;" x1="263" x2="3036" y1="696" y2="696"/>
  <line id="Capline-S" style="fill:none;stroke:#27AAE1;opacity:1;stroke-width:0.5;" x1="263" x2="3036" y1="625.541" y2="625.541"/>
  <g id="H-reference" style="fill:#27AAE1;stroke:none;" transform="matrix(1 0 0 1 339 1126)">
   <path d="M0.993654 0L3.63775 0L29.3281-67.1323L30.0303-67.1323L30.0303-70.459L28.1226-70.459ZM11.6885-24.4799L46.9815-24.4799L46.2315-26.7285L12.4385-26.7285ZM55.1196 0L57.7637 0L30.6382-70.459L29.4326-70.459L29.4326-67.1323Z"/>
  </g>
  <line id="Baseline-M" style="fill:none;stroke:#27AAE1;opacity:1;stroke-width:0.5;" x1="263" x2="3036" y1="1126" y2="1126"/>
  <line id="Capline-M" style="fill:none;stroke:#27AAE1;opacity:1;stroke-width:0.5;" x1="263" x2="3036" y1="1055.54" y2="1055.54"/>
  <g id="H-reference" style="fill:#27AAE1;stroke:none;" transform="matrix(1 0 0 1 339 1556)">
   <path d="M0.993654 0L3.63775 0L29.3281-67.1323L30.0303-67.1323L30.0303-70.459L28.1226-70.459ZM11.6885-24.4799L46.9815-24.4799L46.2315-26.7285L12.4385-26.7285ZM55.1196 0L57.7637 0L30.6382-70.459L29.4326-70.459L29.4326-67.1323Z"/>
  </g>
  <line id="Baseline-L" style="fill:none;stroke:#27AAE1;opacity:1;stroke-width:0.5;" x1="263" x2="3036" y1="1556" y2="1556"/>
  <line id="Capline-L" style="fill:none;stroke:#27AAE1;opacity:1;stroke-width:0.5;" x1="263" x2="3036" y1="1485.54" y2="1485.54"/>
  <line id="left-margin-Ultralight-S" style="fill:none;stroke:#00AEEF;stroke-width:0.5;opacity:1.0;" x1="500.474" x2="500.474" y1="600.785" y2="720.121"/>
  <line id="right-margin-Ultralight-S" style="fill:none;stroke:#00AEEF;stroke-width:0.5;opacity:1.0;" x1="618.948" x2="618.948" y1="600.785" y2="720.121"/>
  <line id="left-margin-Regular-S" style="fill:none;stroke:#00AEEF;stroke-width:0.5;opacity:1.0;" x1="1384.66" x2="1384.66" y1="600.785" y2="720.121"/>
  <line id="right-margin-Regular-S" style="fill:none;stroke:#00AEEF;stroke-width:0.5;opacity:1.0;" x1="1515.03" x2="1515.03" y1="600.785" y2="720.121"/>
  <line id="left-margin-Black-S" style="fill:none;stroke:#00AEEF;stroke-width:0.5;opacity:1.0;" x1="2862.84" x2="2862.84" y1="600.785" y2="720.121"/>
  <line id="right-margin-Black-S" style="fill:none;stroke:#00AEEF;stroke-width:0.5;opacity:1.0;" x1="3003.96" x2="3003.96" y1="600.785" y2="720.121"/>
 </g>
 <g id="Symbols">
  <g id="Black-S" transform="matrix(1 0 0 1 2862.84 696)">
   <path class="SFSymbolsPreviewWireframe" d="M94.7266 24.0723L120.557 24.0723C130.859 24.0723 137.695 17.2363 137.695 6.93359L137.695-29.3945C137.695-39.6973 130.859-46.5332 120.557-46.5332L94.7266-46.5332C84.4238-46.5332 77.5879-39.6973 77.5879-29.3945L77.5879 6.93359C77.5879 17.2363 84.4238 24.0723 94.7266 24.0723ZM94.7266 17.7246L120.557 17.7246C127.344 17.7246 131.348 13.7207 131.348 6.93359L131.348-29.3945C131.348-36.1816 127.344-40.1855 120.557-40.1855L94.7266-40.1855C87.9395-40.1855 83.9355-36.1816 83.9355-29.3945L83.9355 6.93359C83.9355 13.7207 87.9395 17.7246 94.7266 17.7246ZM107.666-16.5527C103.711-16.5527 100.439-19.7266 100.439-23.7305C100.439-27.7344 103.711-30.9082 107.666-30.957C111.67-31.0059 114.844-27.7344 114.844-23.7305C114.844-19.7266 111.67-16.5527 107.666-16.5527ZM107.666 9.27734C101.27 9.27734 96.1914 4.19922 96.1914-2.19727C96.1914-8.64258 101.27-13.6719 107.666-13.7207C114.014-13.7695 119.141-8.64258 119.141-2.19727C119.141 4.19922 114.014 9.27734 107.666 9.27734ZM107.666-21.9238C108.691-21.9238 109.473-22.7051 109.473-23.7305C109.473-24.8047 108.691-25.5859 107.666-25.5859C106.689-25.5859 105.859-24.7559 105.859-23.7305C105.859-22.7051 106.641-21.9238 107.666-21.9238ZM107.666 0.927734C109.424 0.927734 110.791-0.488281 110.791-2.19727C110.791-4.00391 109.424-5.41992 107.666-5.41992C105.908-5.41992 104.541-4.00391 104.541-2.19727C104.541-0.488281 105.908 0.927734 107.666 0.927734ZM23.877-6.15234L99.1699-6.15234C108.057-6.15234 113.281-11.377 113.281-20.2637L113.281-65.625C113.281-74.5117 108.057-79.7363 99.1699-79.7363L23.877-79.7363C14.9902-79.7363 9.76562-74.5117 9.76562-65.625L9.76562-20.2637C9.76562-11.377 14.9902-6.15234 23.877-6.15234ZM25.9277-19.2383C23.877-19.2383 22.8516-20.0684 22.8516-22.3145L22.8516-63.5742C22.8516-65.8203 23.877-66.6504 25.9277-66.6504L97.1191-66.6504C99.1699-66.6504 100.195-65.8203 100.195-63.5742L100.195-22.3145C100.195-20.0684 99.1699-19.2383 97.1191-19.2383ZM40.332 9.22852L82.7148 9.22852C85.6934 9.22852 88.0371 6.68945 88.0371 3.95508C88.0371 1.2207 85.6934-1.31836 82.7148-1.31836L40.332-1.31836C37.3535-1.31836 35.0098 1.2207 35.0098 3.95508C35.0098 6.68945 37.3535 9.22852 40.332 9.22852Z"/>
  </g>
  <g id="Regular-S" transform="matrix(1 0 0 1 1384.66 696)">
   <path class="SFSymbolsPreviewWireframe" d="M87.0605 14.6973L112.012 14.6973C120.557 14.6973 126.318 9.57031 126.318 0.292969L126.318-36.8164C126.318-46.0938 120.557-51.2207 112.012-51.2207L87.0605-51.2207C79.1992-51.2207 72.8027-46.8262 72.8027-36.8164L72.8027 0.292969C72.8027 10.3027 79.248 14.6973 87.0605 14.6973ZM87.0605 8.98438L112.012 8.98438C117.725 8.98438 120.605 6.10352 120.605 0.292969L120.605-36.8164C120.605-42.627 117.725-45.5078 112.012-45.5078L87.0605-45.5078C81.2988-45.5078 78.5156-42.627 78.5156-36.8164L78.5156 0.292969C78.5156 6.10352 81.2988 8.98438 87.0605 8.98438ZM99.5605-25.4883C95.752-25.4883 92.6758-28.5156 92.7246-32.373C92.7734-36.1816 95.752-39.209 99.5605-39.209C103.369-39.209 106.396-36.1816 106.396-32.373C106.396-28.5156 103.369-25.4883 99.5605-25.4883ZM99.5117 2.34375C92.8223 2.34375 87.5-3.07617 87.5-9.81445C87.5-16.5039 92.8223-21.875 99.5117-21.9238C106.201-21.9727 111.621-16.5039 111.621-9.81445C111.621-3.07617 106.201 2.34375 99.5117 2.34375ZM99.5117-29.248C101.27-29.248 102.637-30.6152 102.637-32.373C102.637-34.1797 101.27-35.498 99.5117-35.498C97.8516-35.498 96.3867-34.082 96.3867-32.373C96.3867-30.6152 97.8027-29.248 99.5117-29.248ZM99.5117-4.88281C102.246-4.88281 104.443-7.12891 104.443-9.81445C104.443-12.6465 102.295-14.7949 99.5117-14.7949C96.8262-14.7949 94.6289-12.6465 94.6289-9.81445C94.6289-7.12891 96.8262-4.88281 99.5117-4.88281ZM20.1172-9.86328L96.582-9.86328C102.979-9.86328 106.934-13.8672 106.934-20.2637L106.934-64.0137C106.934-70.4102 102.979-74.3652 96.582-74.3652L20.1172-74.3652C13.7207-74.3652 9.76562-70.4102 9.76562-64.0137L9.76562-20.2637C9.76562-13.8672 13.7207-9.86328 20.1172-9.86328ZM20.2148-16.9434C18.1152-16.9434 16.7969-18.2129 16.7969-20.3613L16.7969-63.916C16.7969-66.0156 18.1152-67.334 20.2148-67.334L96.4844-67.334C98.584-67.334 99.9023-66.0156 99.9023-63.916L99.9023-20.3613C99.9023-18.2129 98.584-16.9434 96.4844-16.9434ZM38.8672 3.85742L77.832 3.85742C79.7852 3.85742 81.3477 2.29492 81.3477 0.341797C81.3477-1.61133 79.7852-3.22266 77.832-3.22266L38.8672-3.22266C36.9141-3.22266 35.3516-1.61133 35.3516 0.341797C35.3516 2.29492 36.9141 3.85742 38.8672 3.85742Z"/>
  </g>
  <g id="Ultralight-S" transform="matrix(1 0 0 1 500.474 696)">
   <path class="SFSymbolsPreviewWireframe" d="M78.251 5.97858L102.794 5.97858C108.341 5.97858 111.787 2.5772 111.787-3.06736L111.787-39.1323C111.787-44.7315 108.341-48.1782 102.794-48.1782L78.251-48.1782C72.7056-48.1782 69.2154-44.7827 69.2154-39.1323L69.2154-3.06736C69.2154 2.58307 72.709 5.97858 78.251 5.97858ZM78.251 2.89946L102.794 2.89946C106.69 2.89946 108.708 0.835979 108.708-3.06736L108.708-39.1323C108.708-43.0356 106.69-45.0991 102.794-45.0991L78.251-45.0991C74.3511-45.0991 72.2945-43.0356 72.2945-39.1323L72.2945-3.06736C72.2945 0.835979 74.3511 2.89946 78.251 2.89946ZM90.524-28.0766C87.442-28.0766 85.0469-30.4682 85.0504-33.5537C85.0538-36.5449 87.442-38.9365 90.524-38.9365C93.5606-38.9365 95.9522-36.5449 95.9522-33.5537C95.9522-30.4682 93.5606-28.0766 90.524-28.0766ZM90.5206-3.65034C84.9664-3.65034 80.4615-8.11666 80.4615-13.7197C80.4615-19.3193 84.9664-23.7822 90.5206-23.7856C96.0294-23.789 100.587-19.3193 100.587-13.7197C100.587-8.11666 96.0294-3.65034 90.5206-3.65034ZM90.5206-29.7476C92.6417-29.7476 94.2813-31.3872 94.2813-33.5537C94.2813-35.6328 92.6417-37.3144 90.5206-37.3144C88.3609-37.3144 86.7144-35.626 86.7144-33.5537C86.7144-31.3872 88.3575-29.7476 90.5206-29.7476ZM90.5206-8.65183C93.3004-8.65183 95.5884-10.8979 95.5884-13.7197C95.5884-16.5971 93.3492-18.791 90.5206-18.791C87.6988-18.791 85.4561-16.5971 85.4561-13.7197C85.4561-10.8979 87.6988-8.65183 90.5206-8.65183ZM17.1656-10.272L91.1783-10.272C95.94-10.272 98.5782-12.959 98.5782-17.6753L98.5782-62.1973C98.5782-66.9136 95.94-69.5972 91.1783-69.5972L17.1656-69.5972C12.4038-69.5972 9.76562-66.9136 9.76562-62.1973L9.76562-17.6753C9.76562-12.959 12.4038-10.272 17.1656-10.272ZM17.3086-12.4932C13.8921-12.4932 11.9834-14.3531 11.9834-17.773L11.9834-62.0996C11.9834-65.5161 13.8921-67.3794 17.3086-67.3794L91.0352-67.3794C94.4517-67.3794 96.3604-65.5161 96.3604-62.0996L96.3604-17.773C96.3604-14.3531 94.4517-12.4932 91.0352-12.4932ZM36.0972-0.910607L72.2466-0.910607C72.9283-0.910607 73.4009-1.38327 73.4009-2.01951C73.4009-2.70116 72.9283-3.13184 72.2466-3.13184L36.0972-3.13184C35.4155-3.13184 34.9429-2.70116 34.9429-2.01951C34.9429-1.38327 35.4155-0.910607 36.0972-0.910607Z"/>
  </g>
 </g>
</svg>
