<?xml version="1.0" encoding="UTF-8"?>
<!--Generator: Apple Native CoreSVG 232.5-->
<!DOCTYPE svg
PUBLIC "-//W3C//DTD SVG 1.1//EN"
       "http://www.w3.org/Graphics/SVG/1.1/DTD/svg11.dtd">
<svg version="1.1" xmlns="http://www.w3.org/2000/svg" xmlns:xlink="http://www.w3.org/1999/xlink" width="3300" height="2200">
 <!--glyph: "uni101D55.medium", point size: 100.0, font version: "19.2d2e1", template writer version: "128"-->
 <style>.SFSymbolsPreviewWireframe {fill:none;opacity:1.0;stroke:black;stroke-width:0.5}
</style>
 <g id="Notes">
  <rect height="2200" id="artboard" style="fill:white;opacity:1" width="3300" x="0" y="0"/>
  <line style="fill:none;stroke:black;opacity:1;stroke-width:0.5;" x1="263" x2="3036" y1="292" y2="292"/>
  <text style="stroke:none;fill:black;font-family:sans-serif;font-size:13;font-weight:bold;" transform="matrix(1 0 0 1 263 322)">Weight/Scale Variations</text>
  <text style="stroke:none;fill:black;font-family:sans-serif;font-size:13;text-anchor:middle;" transform="matrix(1 0 0 1 559.711 322)">Ultralight</text>
  <text style="stroke:none;fill:black;font-family:sans-serif;font-size:13;text-anchor:middle;" transform="matrix(1 0 0 1 856.422 322)">Thin</text>
  <text style="stroke:none;fill:black;font-family:sans-serif;font-size:13;text-anchor:middle;" transform="matrix(1 0 0 1 1153.13 322)">Light</text>
  <text style="stroke:none;fill:black;font-family:sans-serif;font-size:13;text-anchor:middle;" transform="matrix(1 0 0 1 1449.84 322)">Regular</text>
  <text style="stroke:none;fill:black;font-family:sans-serif;font-size:13;text-anchor:middle;" transform="matrix(1 0 0 1 1746.56 322)">Medium</text>
  <text style="stroke:none;fill:black;font-family:sans-serif;font-size:13;text-anchor:middle;" transform="matrix(1 0 0 1 2043.27 322)">Semibold</text>
  <text style="stroke:none;fill:black;font-family:sans-serif;font-size:13;text-anchor:middle;" transform="matrix(1 0 0 1 2339.98 322)">Bold</text>
  <text style="stroke:none;fill:black;font-family:sans-serif;font-size:13;text-anchor:middle;" transform="matrix(1 0 0 1 2636.69 322)">Heavy</text>
  <text style="stroke:none;fill:black;font-family:sans-serif;font-size:13;text-anchor:middle;" transform="matrix(1 0 0 1 2933.4 322)">Black</text>
  <line style="fill:none;stroke:black;opacity:1;stroke-width:0.5;" x1="263" x2="3036" y1="1903" y2="1903"/>
  <g transform="matrix(0.2 0 0 0.2 263 1933)">
   <path d="m46.2402 4.15039c21.5332 0 39.4531-17.8711 39.4531-39.4043s-17.9688-39.4043-39.502-39.4043c-21.4844 0-39.3555 17.8711-39.3555 39.4043s17.9199 39.4043 39.4043 39.4043Zm0-7.42188c-17.7246 0-31.8848-14.209-31.8848-31.9824s14.1113-31.9824 31.8359-31.9824c17.7734 0 32.0312 14.209 32.0312 31.9824s-14.209 31.9824-31.9824 31.9824Zm-17.9688-31.9824c0 2.14844 1.51367 3.61328 3.75977 3.61328h10.498v10.5957c0 2.19727 1.46484 3.71094 3.61328 3.71094 2.24609 0 3.71094-1.51367 3.71094-3.71094v-10.5957h10.5957c2.19727 0 3.71094-1.46484 3.71094-3.61328 0-2.19727-1.51367-3.71094-3.71094-3.71094h-10.5957v-10.5469c0-2.24609-1.46484-3.75977-3.71094-3.75977-2.14844 0-3.61328 1.51367-3.61328 3.75977v10.5469h-10.498c-2.24609 0-3.75977 1.51367-3.75977 3.71094Z"/>
  </g>
  <g transform="matrix(0.2 0 0 0.2 281.506 1933)">
   <path d="m58.5449 14.5508c27.2461 0 49.8047-22.6074 49.8047-49.8047 0-27.2461-22.6074-49.8047-49.8535-49.8047-27.1973 0-49.7559 22.5586-49.7559 49.8047 0 27.1973 22.6074 49.8047 49.8047 49.8047Zm0-8.30078c-23.0469 0-41.4551-18.457-41.4551-41.5039s18.3594-41.5039 41.4062-41.5039 41.5527 18.457 41.5527 41.5039-18.457 41.5039-41.5039 41.5039Zm-22.6562-41.5039c0 2.39258 1.66016 4.00391 4.15039 4.00391h14.3555v14.4043c0 2.44141 1.66016 4.15039 4.05273 4.15039 2.44141 0 4.15039-1.66016 4.15039-4.15039v-14.4043h14.4043c2.44141 0 4.15039-1.61133 4.15039-4.00391 0-2.44141-1.70898-4.15039-4.15039-4.15039h-14.4043v-14.3555c0-2.49023-1.70898-4.19922-4.15039-4.19922-2.39258 0-4.05273 1.70898-4.05273 4.19922v14.3555h-14.3555c-2.49023 0-4.15039 1.70898-4.15039 4.15039Z"/>
  </g>
  <g transform="matrix(0.2 0 0 0.2 304.924 1933)">
   <path d="m74.8535 28.3203c34.8145 0 63.623-28.8086 63.623-63.5742 0-34.8145-28.8574-63.623-63.6719-63.623-34.7656 0-63.5254 28.8086-63.5254 63.623 0 34.7656 28.8086 63.5742 63.5742 63.5742Zm0-9.08203c-30.1758 0-54.4434-24.3164-54.4434-54.4922 0-30.2246 24.2188-54.4922 54.3945-54.4922 30.2246 0 54.541 24.2676 54.541 54.4922 0 30.1758-24.2676 54.4922-54.4922 54.4922Zm-28.8574-54.4922c0 2.58789 1.85547 4.39453 4.58984 4.39453h19.7266v19.7754c0 2.68555 1.85547 4.58984 4.44336 4.58984 2.68555 0 4.54102-1.85547 4.54102-4.58984v-19.7754h19.7754c2.68555 0 4.58984-1.80664 4.58984-4.39453 0-2.73438-1.85547-4.58984-4.58984-4.58984h-19.7754v-19.7266c0-2.73438-1.85547-4.63867-4.54102-4.63867-2.58789 0-4.44336 1.9043-4.44336 4.63867v19.7266h-19.7266c-2.73438 0-4.58984 1.85547-4.58984 4.58984Z"/>
  </g>
  <text style="stroke:none;fill:black;font-family:sans-serif;font-size:13;font-weight:bold;" transform="matrix(1 0 0 1 263 1953)">Design Variations</text>
  <text style="stroke:none;fill:black;font-family:sans-serif;font-size:13;" transform="matrix(1 0 0 1 263 1971)">Symbols are supported in up to nine weights and three scales.</text>
  <text style="stroke:none;fill:black;font-family:sans-serif;font-size:13;" transform="matrix(1 0 0 1 263 1989)">For optimal layout with text and other symbols, vertically align</text>
  <text style="stroke:none;fill:black;font-family:sans-serif;font-size:13;" transform="matrix(1 0 0 1 263 2007)">symbols with the adjacent text.</text>
  <line style="fill:none;stroke:#00AEEF;stroke-width:0.5;opacity:1.0;" x1="776" x2="776" y1="1919" y2="1933"/>
  <g transform="matrix(0.2 0 0 0.2 776 1933)">
   <path d="m16.5527 0.78125c2.58789 0 3.85742-0.976562 4.78516-3.71094l6.29883-17.2363h28.8086l6.29883 17.2363c0.927734 2.73438 2.19727 3.71094 4.73633 3.71094 2.58789 0 4.24805-1.5625 4.24805-4.00391 0-0.830078-0.146484-1.61133-0.537109-2.63672l-22.9004-60.9863c-1.12305-2.97852-3.125-4.49219-6.25-4.49219-3.02734 0-5.07812 1.46484-6.15234 4.44336l-22.9004 61.084c-0.390625 1.02539-0.537109 1.80664-0.537109 2.63672 0 2.44141 1.5625 3.95508 4.10156 3.95508Zm13.4766-28.3691 11.8652-32.8613h0.244141l11.8652 32.8613Z"/>
  </g>
  <line style="fill:none;stroke:#00AEEF;stroke-width:0.5;opacity:1.0;" x1="792.836" x2="792.836" y1="1919" y2="1933"/>
  <text style="stroke:none;fill:black;font-family:sans-serif;font-size:13;font-weight:bold;" transform="matrix(1 0 0 1 776 1953)">Margins</text>
  <text style="stroke:none;fill:black;font-family:sans-serif;font-size:13;" transform="matrix(1 0 0 1 776 1971)">Leading and trailing margins on the left and right side of each symbol</text>
  <text style="stroke:none;fill:black;font-family:sans-serif;font-size:13;" transform="matrix(1 0 0 1 776 1989)">can be adjusted by modifying the x-location of the margin guidelines.</text>
  <text style="stroke:none;fill:black;font-family:sans-serif;font-size:13;" transform="matrix(1 0 0 1 776 2007)">Modifications are automatically applied proportionally to all</text>
  <text style="stroke:none;fill:black;font-family:sans-serif;font-size:13;" transform="matrix(1 0 0 1 776 2025)">scales and weights.</text>
  <g transform="matrix(0.2 0 0 0.2 1289 1933)">
   <path d="m14.209 9.32617 8.49609 8.54492c4.29688 4.3457 9.22852 4.05273 13.8672-1.07422l53.4668-58.9355-4.83398-4.88281-53.0762 58.3984c-1.75781 2.00195-3.41797 2.49023-5.76172 0.146484l-5.85938-5.81055c-2.34375-2.29492-1.80664-4.00391 0.195312-5.81055l57.373-54.0039-4.88281-4.83398-57.959 54.4434c-4.93164 4.58984-5.32227 9.47266-1.02539 13.8184Zm32.0801-90.9668c-2.09961 2.05078-2.24609 4.93164-1.07422 6.88477 1.17188 1.80664 3.4668 2.97852 6.68945 2.14844 7.32422-1.70898 14.9414-2.00195 22.0703 2.68555l-2.92969 7.27539c-1.70898 4.15039-0.830078 7.08008 1.85547 9.81445l11.4746 11.5723c2.44141 2.44141 4.49219 2.53906 7.32422 2.05078l5.32227-0.976562 3.32031 3.36914-0.195312 2.7832c-0.195312 2.49023 0.439453 4.39453 2.88086 6.78711l3.80859 3.71094c2.39258 2.39258 5.46875 2.53906 7.8125 0.195312l14.5508-14.5996c2.34375-2.34375 2.24609-5.32227-0.146484-7.71484l-3.85742-3.80859c-2.39258-2.39258-4.24805-3.17383-6.64062-2.97852l-2.88086 0.244141-3.22266-3.17383 1.2207-5.61523c0.634766-2.83203-0.146484-5.0293-3.07617-7.95898l-10.9863-10.9375c-16.6992-16.6016-38.8672-16.2109-53.3203-1.75781Zm7.4707 1.85547c12.1582-8.88672 28.6133-7.37305 39.7461 3.75977l12.1582 12.0605c1.17188 1.17188 1.36719 2.09961 1.02539 3.80859l-1.61133 7.42188 7.51953 7.42188 4.93164-0.292969c1.26953-0.0488281 1.66016 0.0488281 2.63672 1.02539l2.88086 2.88086-12.207 12.207-2.88086-2.88086c-0.976562-0.976562-1.12305-1.36719-1.07422-2.68555l0.341797-4.88281-7.4707-7.42188-7.61719 1.26953c-1.61133 0.341797-2.34375 0.195312-3.56445-0.976562l-10.0098-10.0098c-1.26953-1.17188-1.41602-2.00195-0.634766-3.85742l4.39453-10.4492c-7.8125-7.27539-17.9688-10.4004-28.125-7.42188-0.78125 0.195312-1.07422-0.439453-0.439453-0.976562Z"/>
  </g>
  <text style="stroke:none;fill:black;font-family:sans-serif;font-size:13;font-weight:bold;" transform="matrix(1 0 0 1 1289 1953)">Exporting</text>
  <text style="stroke:none;fill:black;font-family:sans-serif;font-size:13;" transform="matrix(1 0 0 1 1289 1971)">Symbols should be outlined when exporting to ensure the</text>
  <text style="stroke:none;fill:black;font-family:sans-serif;font-size:13;" transform="matrix(1 0 0 1 1289 1989)">design is preserved when submitting to Xcode.</text>
  <text id="template-version" style="stroke:none;fill:black;font-family:sans-serif;font-size:13;text-anchor:end;" transform="matrix(1 0 0 1 3036 1933)">Template v.5.0</text>
  <text style="stroke:none;fill:black;font-family:sans-serif;font-size:13;text-anchor:end;" transform="matrix(1 0 0 1 3036 1951)">Requires Xcode 15 or greater</text>
  <text id="descriptive-name" style="stroke:none;fill:black;font-family:sans-serif;font-size:13;text-anchor:end;" transform="matrix(1 0 0 1 3036 1969)">Generated from windshield.front.and.wiper.and.drop</text>
  <text style="stroke:none;fill:black;font-family:sans-serif;font-size:13;text-anchor:end;" transform="matrix(1 0 0 1 3036 1987)">Typeset at 100.0 points</text>
  <text style="stroke:none;fill:black;font-family:sans-serif;font-size:13;" transform="matrix(1 0 0 1 263 726)">Small</text>
  <text style="stroke:none;fill:black;font-family:sans-serif;font-size:13;" transform="matrix(1 0 0 1 263 1156)">Medium</text>
  <text style="stroke:none;fill:black;font-family:sans-serif;font-size:13;" transform="matrix(1 0 0 1 263 1586)">Large</text>
 </g>
 <g id="Guides">
  <g id="H-reference" style="fill:#27AAE1;stroke:none;" transform="matrix(1 0 0 1 339 696)">
   <path d="M0.993654 0L3.63775 0L29.3281-67.1323L30.0303-67.1323L30.0303-70.459L28.1226-70.459ZM11.6885-24.4799L46.9815-24.4799L46.2315-26.7285L12.4385-26.7285ZM55.1196 0L57.7637 0L30.6382-70.459L29.4326-70.459L29.4326-67.1323Z"/>
  </g>
  <line id="Baseline-S" style="fill:none;stroke:#27AAE1;opacity:1;stroke-width:0.5;" x1="263" x2="3036" y1="696" y2="696"/>
  <line id="Capline-S" style="fill:none;stroke:#27AAE1;opacity:1;stroke-width:0.5;" x1="263" x2="3036" y1="625.541" y2="625.541"/>
  <g id="H-reference" style="fill:#27AAE1;stroke:none;" transform="matrix(1 0 0 1 339 1126)">
   <path d="M0.993654 0L3.63775 0L29.3281-67.1323L30.0303-67.1323L30.0303-70.459L28.1226-70.459ZM11.6885-24.4799L46.9815-24.4799L46.2315-26.7285L12.4385-26.7285ZM55.1196 0L57.7637 0L30.6382-70.459L29.4326-70.459L29.4326-67.1323Z"/>
  </g>
  <line id="Baseline-M" style="fill:none;stroke:#27AAE1;opacity:1;stroke-width:0.5;" x1="263" x2="3036" y1="1126" y2="1126"/>
  <line id="Capline-M" style="fill:none;stroke:#27AAE1;opacity:1;stroke-width:0.5;" x1="263" x2="3036" y1="1055.54" y2="1055.54"/>
  <g id="H-reference" style="fill:#27AAE1;stroke:none;" transform="matrix(1 0 0 1 339 1556)">
   <path d="M0.993654 0L3.63775 0L29.3281-67.1323L30.0303-67.1323L30.0303-70.459L28.1226-70.459ZM11.6885-24.4799L46.9815-24.4799L46.2315-26.7285L12.4385-26.7285ZM55.1196 0L57.7637 0L30.6382-70.459L29.4326-70.459L29.4326-67.1323Z"/>
  </g>
  <line id="Baseline-L" style="fill:none;stroke:#27AAE1;opacity:1;stroke-width:0.5;" x1="263" x2="3036" y1="1556" y2="1556"/>
  <line id="Capline-L" style="fill:none;stroke:#27AAE1;opacity:1;stroke-width:0.5;" x1="263" x2="3036" y1="1485.54" y2="1485.54"/>
  <line id="left-margin-Ultralight-S" style="fill:none;stroke:#00AEEF;stroke-width:0.5;opacity:1.0;" x1="499.486" x2="499.486" y1="600.785" y2="720.121"/>
  <line id="right-margin-Ultralight-S" style="fill:none;stroke:#00AEEF;stroke-width:0.5;opacity:1.0;" x1="619.937" x2="619.937" y1="600.785" y2="720.121"/>
  <line id="left-margin-Regular-S" style="fill:none;stroke:#00AEEF;stroke-width:0.5;opacity:1.0;" x1="1387.08" x2="1387.08" y1="600.785" y2="720.121"/>
  <line id="right-margin-Regular-S" style="fill:none;stroke:#00AEEF;stroke-width:0.5;opacity:1.0;" x1="1512.61" x2="1512.61" y1="600.785" y2="720.121"/>
  <line id="left-margin-Black-S" style="fill:none;stroke:#00AEEF;stroke-width:0.5;opacity:1.0;" x1="2867.82" x2="2867.82" y1="600.785" y2="720.121"/>
  <line id="right-margin-Black-S" style="fill:none;stroke:#00AEEF;stroke-width:0.5;opacity:1.0;" x1="2998.98" x2="2998.98" y1="600.785" y2="720.121"/>
 </g>
 <g id="Symbols">
  <g id="Black-S" transform="matrix(1 0 0 1 2867.82 696)">
   <path class="SFSymbolsPreviewWireframe" d="M83.3984-34.8145C94.7754-34.8145 102.686-42.7246 102.686-53.8574C102.686-57.8613 101.318-62.0605 99.4141-65.918C97.3633-70.2637 94.5312-74.7559 91.9434-78.7109C89.8926-81.7871 86.9141-83.8379 83.3984-83.8379C79.8828-83.8379 76.9531-81.7871 74.8535-78.7109C72.2656-74.7559 69.3359-70.2148 67.334-65.8203C65.4785-62.0117 64.1113-57.8613 64.1113-53.8574C64.1113-42.7246 72.0215-34.8145 83.3984-34.8145ZM83.3984-41.1621C91.2598-41.1621 96.3379-46.2402 96.3379-53.8574C96.3379-56.6406 95.3125-59.8633 93.7012-63.1836C91.8457-67.1387 89.209-71.2402 86.6699-75.1953C85.6934-76.6113 84.5703-77.4902 83.3984-77.4902C82.2266-77.4902 81.1035-76.6113 80.127-75.1953C77.5391-71.2402 74.9023-67.0898 73.0957-63.1348C71.4844-59.8145 70.459-56.6406 70.459-53.8574C70.459-46.2402 75.5371-41.1621 83.3984-41.1621ZM65.5762 9.42383C72.0703 9.42383 77.2949 4.19922 77.2949-2.29492C77.2949-8.78906 72.0703-14.0137 65.5762-14.0137C59.082-14.0137 53.8574-8.78906 53.8574-2.29492C53.8574 4.19922 59.082 9.42383 65.5762 9.42383ZM65.5762 1.02539C63.7207 1.02539 62.2559-0.439453 62.2559-2.29492C62.2559-4.15039 63.7207-5.61523 65.5762-5.61523C67.4316-5.61523 68.8965-4.15039 68.8965-2.29492C68.8965-0.439453 67.4316 1.02539 65.5762 1.02539ZM57.2266-6.93359L68.0664-11.6699L30.6641-76.2695C29.0527-79.0527 25.5371-79.9316 22.6562-78.3691C19.8242-76.709 18.8965-73.1445 20.5566-70.3125ZM65.5762-15.4785C72.3145-15.4785 80.6641-12.793 86.8164-10.0098C89.7461-8.69141 93.0176-8.93555 95.166-11.6211L121.826-45.459C125.684-50.3418 125-55.957 120.215-59.7168C108.447-68.9941 86.8652-75 65.5762-75C44.2871-75 22.7051-68.9941 10.9375-59.7168C6.15234-55.957 5.46875-50.3418 9.32617-45.459L35.9863-11.6211C38.1348-8.93555 41.4062-8.69141 44.3359-10.0098C50.4883-12.793 58.8379-15.4785 65.5762-15.4785ZM65.5762-28.1738C58.6914-28.1738 50.3418-26.3184 43.8477-23.6328C43.3105-23.4375 42.8711-23.5352 42.4805-23.9746L22.0703-49.8047C21.7773-50.1953 21.875-50.7324 22.2656-50.9766C33.6426-58.0566 49.1211-62.3047 65.5762-62.3047C82.0312-62.3047 97.5098-58.0566 108.887-50.9766C109.326-50.7324 109.375-50.2441 109.082-49.8047L88.7207-24.0234C88.3301-23.5352 87.8906-23.3887 87.3047-23.6328C80.8105-26.3184 72.4609-28.1738 65.5762-28.1738Z"/>
  </g>
  <g id="Regular-S" transform="matrix(1 0 0 1 1387.08 696)">
   <path class="SFSymbolsPreviewWireframe" d="M84.2773-33.7402C95.166-33.7402 102.93-41.3086 102.93-52.002C102.93-57.2266 100.732-61.5723 99.8535-63.5254C97.6562-68.3105 93.8965-74.3164 91.0645-78.8086C89.4043-81.2988 87.0117-82.666 84.2773-82.666C81.5918-82.666 79.1992-81.2988 77.5391-78.8086C74.6582-74.3164 70.9473-68.3105 68.75-63.5254C67.8223-61.5723 65.625-57.2266 65.625-52.002C65.625-41.3086 73.4375-33.7402 84.2773-33.7402ZM84.2773-39.4531C92.0898-39.4531 97.2168-44.4824 97.2168-52.002C97.2168-55.8594 95.6055-59.0332 94.6289-61.1816C92.627-65.625 89.1113-71.2402 86.2793-75.6836C85.6934-76.5625 85.0586-76.9531 84.2773-76.9531C83.5449-76.9531 82.9102-76.5625 82.3242-75.6836C79.4922-71.2402 75.9766-65.625 73.9258-61.1816C72.998-59.0332 71.3379-55.8594 71.3379-52.002C71.3379-44.4824 76.5137-39.4531 84.2773-39.4531ZM62.7441 5.17578C67.6758 5.17578 71.8262 1.07422 71.8262-3.85742C71.8262-8.88672 67.7246-12.9395 62.7441-12.9395C57.8125-12.9395 53.7109-8.88672 53.7109-3.85742C53.7109 1.07422 57.7637 5.17578 62.7441 5.17578ZM62.7441-0.585938C60.9375-0.585938 59.4727-2.05078 59.4727-3.85742C59.4727-5.71289 60.9375-7.27539 62.7441-7.27539C64.5508-7.27539 66.1133-5.71289 66.1133-3.85742C66.1133-2.05078 64.5508-0.585938 62.7441-0.585938ZM56.6406-7.42188L62.8906-10.7422L26.6602-73.4863C25.6836-75.0977 23.6816-75.7324 21.7773-74.7559C19.9707-73.8281 19.5312-71.582 20.5566-69.9219ZM62.7441-17.9688C70.0195-17.9688 78.9551-15.6738 85.3516-12.207C87.1582-11.2305 89.1602-11.6211 90.332-13.1348L116.846-46.7773C119.678-50.3906 119.238-54.1992 115.674-57.0312C105.127-65.2832 84.7656-71.6797 62.7441-71.6797C40.7715-71.6797 20.4102-65.2832 9.86328-57.0312C6.29883-54.1992 5.85938-50.3906 8.69141-46.7773L35.2051-13.1348C36.377-11.6211 38.3789-11.2305 40.1367-12.207C46.582-15.6738 55.5176-17.9688 62.7441-17.9688ZM62.7441-25C56.0547-25 48.1445-23.2422 40.332-20.0684C39.3555-19.6777 38.9648-19.8242 38.2324-20.752L15.7227-49.3164C14.9902-50.293 15.0879-51.123 16.1133-51.8066C29.4434-60.1074 45.7031-64.6484 62.7441-64.6484C79.834-64.6484 96.0938-60.1074 109.375-51.8066C110.4-51.123 110.498-50.293 109.766-49.3164L87.3047-20.752C86.5234-19.8242 86.1328-19.6777 85.1562-20.0684C77.3926-23.2422 69.4336-25 62.7441-25Z"/>
  </g>
  <g id="Ultralight-S" transform="matrix(1 0 0 1 499.486 696)">
   <path class="SFSymbolsPreviewWireframe" d="M82.688-37.146C90.625-37.146 96.209-42.5801 96.209-50.3672C96.209-53.4575 94.92-57.1221 93.3145-60.5738C91.5713-64.3599 89.1285-68.5494 86.7051-72.2696C85.7261-73.67 84.4234-74.5377 82.688-74.5377C81.0015-74.5377 79.6533-73.67 78.7197-72.2696C76.293-68.5494 73.8081-64.3599 72.0649-60.5738C70.4106-57.1221 69.2124-53.4575 69.2124-50.3672C69.2124-42.5801 74.7544-37.146 82.688-37.146ZM82.688-40.1797C88.9566-40.1797 93.1299-44.2554 93.1299-50.3672C93.1299-52.9077 92.0635-56.0362 90.542-59.2744C88.8579-62.9458 86.523-66.9263 84.145-70.5977C83.7407-71.1587 83.333-71.4585 82.688-71.4585C82.0464-71.4585 81.6387-71.1587 81.2344-70.5977C78.9019-66.9263 76.5215-62.9458 74.834-59.2744C73.3159-56.0362 72.2461-52.9077 72.2461-50.3672C72.2461-44.2554 76.4229-40.1797 82.688-40.1797ZM60.2466 0.226113C63.9068 0.226113 66.9673-2.83102 66.9673-6.49119C66.9673-10.2036 63.9102-13.2119 60.2466-13.2119C56.541-13.2119 53.5293-10.2036 53.5293-6.49119C53.5293-2.78561 56.4922 0.226113 60.2466 0.226113ZM60.2466-1.85741C57.668-1.85741 55.5674-3.95799 55.5674-6.49119C55.5674-9.07322 57.668-11.1806 60.2466-11.1806C62.7344-11.1806 64.8872-9.02781 64.8872-6.49119C64.8872-3.95799 62.7798-1.85741 60.2466-1.85741ZM56.5498-10.4643L58.5313-11.5142L23.5269-69.8535C23.2769-70.3296 22.6372-70.6919 21.959-70.3057C21.3784-69.9683 21.3022-69.2661 21.5557-68.7866ZM60.2466-19.8306C68.9751-19.8306 77.4111-17.7627 84.4434-14.4775C86.023-13.728 87.7525-13.9824 88.8335-15.3598L112.759-46.3687C114.183-48.2564 113.789-50.294 111.95-51.6275C100.586-59.8794 79.5889-66.0489 60.2466-66.0489C40.8623-66.0489 19.9106-59.8794 8.50099-51.6275C6.66211-50.294 6.26806-48.2564 7.69239-46.3687L31.6177-15.3598C32.6988-13.9824 34.4283-13.728 36.0044-14.4775C43.0401-17.7627 51.4761-19.8306 60.2466-19.8306ZM60.2466-22.0484C51.9224-22.0484 43.2857-19.9273 35.2915-16.6172C34.4058-16.272 33.8335-16.146 33.0103-17.1646L9.81938-47.2276C9.04155-48.2495 9.23003-49.3521 10.2554-50.0811C22.8589-58.4727 42.2066-63.8765 60.2466-63.8765C78.2446-63.8765 97.6377-58.4727 110.192-50.0811C111.218-49.3521 111.406-48.2495 110.628-47.2276L87.4409-17.1646C86.6143-16.146 86.042-16.272 85.1562-16.6172C77.2109-19.9273 68.5254-22.0484 60.2466-22.0484Z"/>
  </g>
 </g>
</svg>
